<?xml version="1.0" encoding="UTF-8" standalone="no"?><!DOCTYPE svg PUBLIC "-//W3C//DTD SVG 1.1//EN" "http://www.w3.org/Graphics/SVG/1.1/DTD/svg11.dtd"><svg width="100%" height="100%" viewBox="0 0 603 1022" version="1.1" xmlns="http://www.w3.org/2000/svg" xmlns:xlink="http://www.w3.org/1999/xlink" xml:space="preserve" xmlns:serif="http://www.serif.com/" style="fill-rule:evenodd;clip-rule:evenodd;stroke-linejoin:round;stroke-miterlimit:2;"><g transform="matrix(50,0,0,50,395.224,528.49)"></g><text x="207.602px" y="528.49px" style="font-family:'ArialMT', 'Arial', sans-serif;font-size:50px;">sw=86.5</text><clipPath id="_clip1"><rect x="0" y="0" width="602.362" height="1021.65"/></clipPath><g clip-path="url(#_clip1)"><rect id="_618.4-Ped" serif:id="618.4 Ped" x="-0" y="0" width="602.362" height="1021.65" style="fill:none;"/><clipPath id="_clip2"><rect x="-0" y="0" width="602.362" height="1021.65"/></clipPath><g clip-path="url(#_clip2)"><path d="M602.816,35.433c0,-19.556 -15.877,-35.433 -35.433,-35.433l-531.496,0c-19.556,0 -35.433,15.877 -35.433,35.433l-0,950.787c-0,19.557 15.877,35.434 35.433,35.434l531.496,-0c19.556,-0 35.433,-15.877 35.433,-35.434l0,-950.787Z"/><path d="M585.099,35.433c0,-9.778 -7.938,-17.716 -17.716,-17.716l-531.496,-0c-9.778,-0 -17.717,7.938 -17.717,17.716l0,531.496c0,9.778 7.939,17.717 17.717,17.717l531.496,-0c9.778,-0 17.716,-7.939 17.716,-17.717l0,-531.496Z" style="fill:#fff;"/><path d="M585.099,620.079c0,-9.778 -7.938,-17.717 -17.716,-17.717l-531.496,0c-9.778,0 -17.717,7.939 -17.717,17.717l0,366.141c0,9.778 7.939,17.717 17.717,17.717l531.496,0c9.778,0 17.716,-7.939 17.716,-17.717l0,-366.141Z" style="fill:#fff;"/><g><g><circle cx="301.635" cy="301.181" r="236.22" style="fill:#999;"/><circle cx="300.257" cy="299.803" r="188.976" style="fill:#fff;"/></g></g><g><g><rect id="path1786" x="370.583" y="631.89" width="41.079" height="94.488" style="fill:#fff;"/><path id="path1788" d="M390.083,702.708l-12.92,0l0,-47.159l12.92,0l-0,4.67l1.58,-1.59l1.75,-1.33l2,-1.17l2.17,-0.75l2.16,-0.5l2.25,-0.16l3.17,-0l-0,12.249l-4.42,0l-1.83,0.16l-1.83,0.499l-1.67,0.84l-1.58,1.08l-1.25,1.25l-1.08,1.58l-0.839,1.67l-0.5,1.83l-0.083,1.84l0.002,24.991Z" style="fill:#010001;fill-rule:nonzero;"/></g><g><rect id="path1750" x="491.491" y="631.89" width="57.159" height="94.488" style="fill:#fff;"/><path id="path1752" d="M528.07,672.969l-0.34,-1.67l-0.75,-1.58l-1,-1.34l-1.25,-1.079l-1.75,-0.75l-1.91,-0.33l-1.92,0.083l-1.83,0.329l-1.84,0.75l-1.5,1.001l-1.33,1.25l-1,1.499l-0.67,1.59l-0.161,1.661l0,28.329l-12.919,-0l-0,-47.159l12.919,-0l0,3.33l1.91,-1.5l2.09,-1.25l2.16,-0.91l2.34,-0.59l2.33,-0.33l2.42,0.083l2.75,0.5l2.41,0.839l2.33,1.16l2.09,1.42l1.91,1.67l1.67,1.91l1.42,2.17l1.079,2.5l0.75,2.58l0.421,2.67l0.16,2.75l0,28.159l-12.909,0l12.909,0l-12.909,0l-0,-28.079l-0.08,-1.666Z" style="fill:#010001;fill-rule:nonzero;"/></g><g><rect id="path1806" x="118.859" y="631.89" width="52.909" height="94.488" style="fill:#fff;"/><path id="path1808" d="M144.358,654.299l-2.42,0.17l-2.41,0.41l-2.34,0.75l-2.25,1.09l-2.08,1.25l-2.25,1.66l-2.079,2l-1.75,2.25l-1.42,2.42l-1.171,3l-0.83,3.17l-0.5,3.16l-0.17,3.25l0.251,3.25l0.59,3.17l0.91,3.08l1.169,3l1.079,2.17l1.42,2l1.5,1.83l1.83,1.67l1.92,1.41l2.08,1.25l2.25,0.92l2.34,0.669l2.99,0.58l3.09,0.251l3.08,-0.083l3.08,-0.34l3,-0.66l2.34,-0.84l2.16,-1.08l2,-1.42l1.83,-1.67l1.67,-1.83l-8,-8.08l-1.83,1.67l-2.08,1.33l-2.25,1.001l-2.17,0.58l-2.17,0.17l-2.16,-0.083l-2.17,-0.42l-2.08,-0.75l-1.42,-0.92l-1.25,-1.16l-1,-1.34l-0.75,-1.5l-0.41,-1.66l-0.17,-1.67l31.499,-0l-0.17,-3.92l-0.42,-3.91l-0.831,-3.83l-1.17,-3.75l-1.08,-2.5l-1.42,-2.25l-1.659,-2.17l-2,-1.83l-2.17,-1.59l-2.08,-1.25l-2.25,-0.909l-2.42,-0.67l-2.42,-0.42l-2.408,-0.076Zm-0.25,10.75l1.66,0l1.67,0.33l1.58,0.589l1.42,0.83l1.33,1.08l1.09,1.25l0.83,1.42l0.58,1.58l0.25,1.67l-19.159,-0l0.25,-1.67l0.58,-1.58l0.84,-1.42l1.079,-1.25l1.33,-1.08l1.42,-0.83l1.58,-0.589l1.67,-0.33Z" style="fill:#010001;fill-rule:nonzero;"/></g><g><rect id="path18061" serif:id="path1806" x="228.927" y="631.89" width="52.909" height="94.488" style="fill:#fff;"/><path id="path18081" serif:id="path1808" d="M254.426,654.299l-2.42,0.17l-2.41,0.41l-2.34,0.75l-2.25,1.09l-2.08,1.25l-2.25,1.66l-2.08,2l-1.75,2.25l-1.42,2.42l-1.17,3l-0.83,3.17l-0.5,3.16l-0.17,3.25l0.25,3.25l0.591,3.17l0.909,3.08l1.17,3l1.079,2.17l1.42,2l1.5,1.83l1.83,1.67l1.92,1.41l2.08,1.25l2.25,0.92l2.34,0.669l2.99,0.58l3.09,0.251l3.08,-0.083l3.08,-0.34l3,-0.66l2.34,-0.84l2.16,-1.08l2,-1.42l1.83,-1.67l1.669,-1.83l-7.999,-8.08l-1.83,1.67l-2.08,1.33l-2.25,1.001l-2.17,0.58l-2.17,0.17l-2.16,-0.083l-2.17,-0.42l-2.08,-0.75l-1.42,-0.92l-1.25,-1.16l-1,-1.34l-0.75,-1.5l-0.41,-1.66l-0.17,-1.67l31.499,-0l-0.17,-3.92l-0.42,-3.91l-0.831,-3.83l-1.17,-3.75l-1.08,-2.5l-1.42,-2.25l-1.66,-2.17l-2,-1.83l-2.17,-1.59l-2.079,-1.25l-2.25,-0.909l-2.42,-0.67l-2.42,-0.42l-2.408,-0.076Zm-0.25,10.75l1.66,0l1.67,0.33l1.579,0.589l1.421,0.83l1.329,1.08l1.091,1.25l0.83,1.42l0.58,1.58l0.25,1.67l-19.159,-0l0.25,-1.67l0.58,-1.58l0.84,-1.42l1.079,-1.25l1.33,-1.08l1.42,-0.83l1.58,-0.589l1.67,-0.33Z" style="fill:#010001;fill-rule:nonzero;"/></g><g><rect id="path1790" x="411.662" y="631.89" width="26.92" height="94.488" style="fill:#fff;"/><path id="path1792" d="M424.412,636.14l-1.42,0.159l-1.41,0.421l-1.25,0.669l-1.17,0.91l-0.92,1.17l-0.661,1.25l-0.42,1.42l-0.17,1.41l0.17,1.42l0.42,1.42l0.661,1.33l0.92,1.08l1.17,0.92l1.25,0.66l1.41,0.42l1.42,0.171l1.42,-0.171l1.41,-0.42l1.25,-0.66l1.171,-0.92l0.92,-1.08l0.66,-1.33l0.42,-1.42l0.17,-1.42l-0.17,-1.41l-0.42,-1.42l-0.66,-1.25l-0.92,-1.17l-1.171,-0.91l-1.25,-0.669l-1.41,-0.421l-1.42,-0.159Zm-6.5,19.409l0,47.239l12.92,0l-0,-47.239l-12.92,0Z" style="fill:#010001;fill-rule:nonzero;"/></g><g><rect id="path1818" x="171.768" y="631.89" width="57.159" height="94.488" style="fill:#fff;"/><path id="path1820" d="M208.927,636.64l-0,21.159l-2.16,-1.42l-2.25,-1.16l-2.42,-0.839l-2.41,-0.58l-2.59,-0.251l-2.5,0.095l-2.5,0.329l-2.5,0.661l-2.33,0.92l-2.25,1.25l-2.08,1.42l-2.13,2.04l-1.71,2.21l-1.25,2.37l-1.329,3.46l-0.831,3.33l-0.58,3.419l-0.25,3.42l0.161,3.41l0.42,3.42l0.83,3.33l1.091,3.25l1.239,2.5l1.5,2.25l1.84,2.08l2.08,1.75l2.33,1.42l2.75,1.079l2.92,0.75l2.92,0.341l2.91,-0l2.92,-0.421l2.83,-0.75l2,-0.75l1.75,-1.17l1.58,-1.41l-0,3.25l12.92,-0l-0,-66.159l-12.921,-0.003Zm-9.91,28.329l1.91,0.251l1.92,0.579l1.67,0.921l1.58,1.159l1.08,1.25l0.839,1.34l0.58,1.5l0.33,1.66l-0,10.17l-0.16,1.25l-0.34,1.25l-0.58,1.08l-0.75,1.079l-1.33,1.42l-1.5,1.171l-1.67,0.83l-1.83,0.58l-1.92,0.25l-1.91,-0.16l-1.84,-0.421l-1.5,-0.58l-1.41,-0.84l-1.17,-1.079l-1,-1.25l-0.75,-1.42l-0.831,-2.5l-0.42,-2.66l-0.251,-2.58l0.17,-2.67l0.41,-2.58l0.75,-2.59l0.75,-1.66l0.84,-1.25l1.16,-1.09l1.59,-1.079l1.75,-0.75l1.91,-0.5l1.923,-0.081Z" style="fill:#010001;fill-rule:nonzero;"/></g><g><rect id="path1698" x="438.582" y="631.89" width="53.329" height="94.488" style="fill:#fff;"/><path id="path1700" d="M463.411,653.639l-3.08,0.161l-2.999,0.58l-3.75,1.09l-3.67,1.41l-3.5,1.67l-3.41,1.92l6.33,9.66l2.58,-1.58l2.67,-1.25l2.83,-1.001l2.919,-0.75l3,-0.42l1.66,-0.083l1.75,0.33l1.58,0.589l0.92,0.58l0.75,0.83l0.5,0.92l0.17,1.08l0,3l-4.17,0.17l-4.08,0.5l-4.08,0.75l-4,1.079l-3.919,1.42l-1.66,1.001l-1.59,1.249l-1.42,1.5l-1.16,1.58l-0.92,1.83l-0.661,1.92l-0.34,2l-0.082,2l0.17,2l0.49,1.92l0.759,1.91l1.001,1.75l1.24,1.59l1.42,1.41l1.67,1.171l2.41,1.159l2.589,0.92l2.75,0.59l2.75,0.329l2.75,-0.082l2.66,-0.34l2.67,-0.661l1.42,-0.669l1.33,-0.831l1.08,-1l0.92,-1.25l1,1.33l1.25,1l1.42,0.75l2.58,1.001l2.66,0.58l2.75,0.329l4.59,-10.08l-1.09,0l-1.08,-0.159l-1.079,-0.5l-0.84,-0.67l-0.66,-0.92l-0.421,-1l-0.17,-1.16l0,-22.329l-0.161,-1.84l-0.42,-1.83l-0.75,-1.67l-0.92,-1.58l-1.25,-1.5l-1.41,-1.171l-1.59,-1l-2.25,-0.99l-2.41,-0.84l-2.92,-0.83l-3.08,-0.42l-2.996,-0.152Zm7.25,28.07l0,6.75l-0.17,1.25l-0.58,1.17l-0.75,1l-1.09,0.75l-1.16,0.421l-2.33,0.329l-2.34,0l-2.33,-0.329l-1.17,-0.421l-1,-0.75l-0.831,-0.92l-0.58,-1.079l-0.34,-1.08l0,-1.17l0.34,-1.171l0.58,-0.91l0.831,-0.84l1,-0.58l3.92,-1l2.28,-0.47l1.72,-0.361l4,-0.589Z" style="fill:#010001;fill-rule:nonzero;"/></g><g><rect id="path1670" x="330" y="631.89" width="40.584" height="94.488" style="fill:#fff;"/><path id="path1672" d="M360.002,692.465l2.411,-0.41l2.34,-0.67l2.83,10.75l-3.5,1.001l-3.581,0.659l-3.59,0.341l-3.66,0.083l-3.591,-0.33l-1.75,-0.341l-1.74,-0.749l-1.5,-1l-1.34,-1.251l-1.081,-1.41l-0.75,-1.67l-0.5,-1.75l-0.171,-1.83l0,-28.003l-7.58,0l-0,-10.751l7.58,0l0,-14.741l12.921,-3.75l0,18.491l12.001,0l0,10.751l-12.001,0l0,23.002l0.083,1l0.42,0.92l0.58,0.751l0.83,0.58l0.92,0.42l0.92,0.083l2.499,-0.176Z" style="fill:#010001;fill-rule:nonzero;"/></g><g><rect id="path1674" x="281.836" y="631.89" width="48.164" height="94.488" style="fill:#fff;"/><path id="path1676" d="M294.587,688.555l2,1.58l2.16,1.25l2.34,1l2.41,0.67l2.501,0.33l2.25,0l1.59,-0.58l1.33,-0.92l0.75,-0.749l0.5,-1.001l0.081,-1.08l-0.25,-1.09l-0.58,-0.911l-0.831,-0.67l-3.25,-1.25l-3.34,-0.67l-3,-0.5l-4.081,-1.001l-2,-0.659l-1.83,-1l-1.67,-1.251l-1.5,-1.42l-1.25,-1.58l-1.081,-1.75l-0.67,-2.09l-0.41,-2.16l0,-2.171l0.25,-2.16l0.581,-2.17l0.92,-1.92l1.25,-1.83l1.41,-1.58l1.59,-1.421l1.83,-1.17l1.91,-0.91l2.091,-0.59l3,-0.66l3,-0.34l3.08,-0l3.081,0.249l3.09,0.59l2.5,0.75l2.41,1l2.341,1.33l2.24,1.42l2,1.75l-7.991,8.491l-2.25,-1.83l-2.5,-1.5l-2.67,-1.16l-1.501,-0.42l-1.58,-0.249l-1.59,-0l-1.66,0.419l-1.5,0.75l-1.34,1l-0.66,0.83l-0.34,0.92l0.09,1.08l0.33,0.911l0.58,0.84l1,0.581l5.5,1.08l5.001,0.671l1.92,0.329l0.08,0l1.92,0.671l1.831,0.83l1.84,1.09l1.66,1.41l1.42,1.59l1.16,1.75l0.84,1.91l0.581,2.09l0.33,2.081l-0.083,2.17l-0.33,2.08l-0.67,2.08l-1.081,2.09l-1.34,1.91l-1.58,1.751l-1.83,1.5l-2,1.17l-3.251,1l-3.33,0.66l-3.42,0.34l-3.331,0l-3.42,-0.34l-3.33,-0.66l-3,-0.919l-2.921,-1.251l-2.66,-1.58l-2.5,-1.84l-2.34,-2.16l9.42,-8.671l1.753,1.84Z" style="fill:#010001;fill-rule:nonzero;"/></g><g id="P"><rect id="path1606" x="54.62" y="631.89" width="64.239" height="94.488" style="fill:#fff;"/><path id="path1608" d="M65.96,636.64l-0,66.158l13.489,0l0,-23.329l15,-0l2.58,-0.17l2.59,-0.5l2.41,-0.83l2.34,-1.171l2.25,-1.42l1.91,-1.66l1.75,-1.92l1.5,-2.159l1.169,-2.171l1.001,-2.249l0.75,-2.33l0.42,-2.42l0.083,-2.42l-0.083,-2.41l-0.42,-2.42l-0.75,-2.33l-1.001,-2.25l-1.169,-2.17l-1.5,-2.17l-1.75,-1.91l-1.91,-1.67l-2.25,-1.42l-2.34,-1.16l-2.41,-0.83l-2.59,-0.51l-2.58,-0.161l-28.489,0.002Zm13.489,12.249l13.42,0l1.66,0.16l1.59,0.5l1.5,0.75l1.33,1l1.08,1.34l0.839,1.41l0.58,1.59l0.251,1.66l-0,1.59l-0.251,1.66l-0.58,1.5l-0.839,1.5l-1.08,1.25l-1.33,1l-1.5,0.75l-1.59,0.5l-1.66,0.17l-13.42,-0l0,-18.33Z" style="fill:#010001;fill-rule:nonzero;"/></g></g><g><g><rect id="path1754" x="247.561" y="726.378" width="55.239" height="94.488" style="fill:#fff;"/><path id="path1756" d="M273.89,748.127l-2.59,0.161l-2.5,0.421l-2.499,0.75l-2.41,0.92l-2.25,1.24l-2.34,1.75l-2.08,2.09l-1.83,2.249l-1.5,2.58l-1.171,2.67l-0.16,0.5l-0.84,3.33l-0.5,3.42l-0.17,3.41l0.17,3.42l0.5,3.41l0.84,3.25l0.16,0.59l1.171,2.66l1.5,2.5l1.83,2.34l2.08,2.08l2.34,1.75l2.25,1.16l2.41,1.01l2.499,0.739l2.5,0.421l2.59,0.17l2.58,-0.17l2.58,-0.421l2.5,-0.739l2.42,-1.01l2.25,-1.16l2.33,-1.75l2.08,-2.08l1.84,-2.34l1.5,-2.5l1.16,-2.66l0.17,-0.59l0.83,-3.25l0.5,-3.41l0.094,-3.42l-0.094,-3.41l-0.5,-3.42l-0.83,-3.33l-0.17,-0.5l-1.16,-2.67l-1.5,-2.58l-1.84,-2.249l-2.08,-2.09l-2.33,-1.75l-2.25,-1.24l-2.42,-0.92l-2.5,-0.75l-2.58,-0.421l-2.58,-0.161Zm0,11.33l1.91,0.251l2,0.83l1.75,1.33l1.5,1.59l1.25,1.83l0.67,1.5l0.42,1.58l0.33,2.67l0.083,2.58l-0.083,2.58l-0.33,2.67l-0.42,1.58l-0.67,1.5l-1.25,1.84l-1.5,1.58l-1.75,1.329l-2,0.75l-1.91,0.341l-1.84,-0.341l-2,-0.75l-1.829,-1.329l-1.5,-1.58l-1.171,-1.84l-0.66,-1.5l-0.421,-1.58l-0.329,-2.67l-0.17,-2.58l0.17,-2.58l0.329,-2.67l0.421,-1.58l0.66,-1.5l1.171,-1.83l1.5,-1.59l1.829,-1.33l2,-0.83l1.84,-0.251Z" style="fill:#010001;fill-rule:nonzero;"/></g><g><rect id="path17501" serif:id="path1750" x="302.8" y="726.378" width="57.159" height="94.488" style="fill:#fff;"/><path id="path17521" serif:id="path1752" d="M339.379,767.457l-0.34,-1.67l-0.75,-1.58l-1,-1.34l-1.25,-1.079l-1.75,-0.75l-1.91,-0.33l-1.92,0.083l-1.83,0.329l-1.84,0.75l-1.5,1.001l-1.33,1.25l-1.001,1.5l-0.669,1.59l-0.161,1.66l0,28.329l-12.92,0l0,-47.159l12.92,-0l0,3.33l1.91,-1.5l2.09,-1.25l2.16,-0.909l2.34,-0.591l2.33,-0.33l2.42,0.083l2.75,0.5l2.41,0.84l2.33,1.159l2.09,1.42l1.91,1.67l1.67,1.91l1.42,2.17l1.079,2.5l0.75,2.58l0.421,2.67l0.16,2.75l0,28.16l-12.91,-0l12.91,-0l-12.91,-0l0,-28.08l-0.079,-1.666Z" style="fill:#010001;fill-rule:nonzero;"/></g><g><rect id="path18062" serif:id="path1806" x="359.959" y="726.378" width="52.909" height="94.488" style="fill:#fff;"/><path id="path18082" serif:id="path1808" d="M385.458,748.787l-2.42,0.171l-2.41,0.409l-2.34,0.75l-2.249,1.091l-2.081,1.25l-2.249,1.66l-2.08,2l-1.75,2.249l-1.42,2.42l-1.171,3l-0.83,3.17l-0.5,3.16l-0.17,3.25l0.251,3.25l0.59,3.17l0.91,3.08l1.169,3l1.079,2.17l1.42,2l1.5,1.83l1.83,1.67l1.92,1.41l2.08,1.25l2.25,0.92l2.34,0.669l2.99,0.58l3.09,0.251l3.08,-0.083l3.08,-0.34l3,-0.66l2.34,-0.84l2.16,-1.08l2,-1.42l1.83,-1.67l1.67,-1.83l-8,-8.079l-1.83,1.67l-2.08,1.33l-2.25,1l-2.17,0.58l-2.17,0.17l-2.16,-0.083l-2.17,-0.42l-2.08,-0.75l-1.42,-0.92l-1.25,-1.16l-1,-1.34l-0.75,-1.5l-0.41,-1.66l-0.17,-1.67l31.499,-0l-0.17,-3.92l-0.42,-3.91l-0.83,-3.83l-1.171,-3.75l-1.079,-2.5l-1.42,-2.25l-1.66,-2.17l-2,-1.83l-2.17,-1.589l-2.08,-1.25l-2.25,-0.91l-2.42,-0.67l-2.42,-0.42l-2.408,-0.076Zm-0.25,10.75l1.66,0l1.67,0.33l1.58,0.589l1.42,0.83l1.33,1.08l1.09,1.25l0.83,1.42l0.58,1.58l0.25,1.67l-19.159,-0l0.25,-1.67l0.58,-1.58l0.84,-1.42l1.079,-1.25l1.33,-1.08l1.42,-0.83l1.58,-0.589l1.67,-0.33Z" style="fill:#010001;fill-rule:nonzero;"/></g><g id="Z"><rect id="path1578" x="190.402" y="726.378" width="57.159" height="94.488" style="fill:#fff;"/><path id="path1580" d="M195.562,744.628l-0,-13.5l45.669,-0l0,13.58l-29.749,38.999l30.659,-0l0,13.49l-47.739,-0l-0,-13.49l29.739,-39.079l-28.579,-0Z" style="fill:#010001;fill-rule:nonzero;"/></g></g><g><g id="E"><rect id="path1642" x="86.419" y="844.488" width="97.738" height="141.732" style="fill:#fff;"/><path id="path1644" d="M171.783,931.351l-48.615,0l0,-21.749l40.62,-0l-0,-18.375l-40.62,0l0,-20.369l44.865,-0l-0,-19.245l-65.249,0l-0,99.103l68.999,0l-0,-19.365Z" style="fill:#010001;fill-rule:nonzero;"/></g><g id="D"><rect id="path1566" x="304.515" y="844.488" width="107.608" height="141.732" style="fill:#fff;"/><path id="path1568" d="M321.39,851.613l-0,99.103l37.365,0l4.62,-0.241l4.754,-0.749l4.5,-1.246l4.38,-1.755l4.245,-2.13l3.87,-2.625l3.63,-3l3.375,-3.375l2.865,-3.75l2.505,-3.99l2.13,-4.26l1.619,-4.365l1.125,-4.62l0.749,-5.385l0.376,-5.37l0,-5.369l-0.376,-5.505l-0.749,-5.37l-1.125,-4.5l-1.619,-4.5l-2.13,-4.26l-2.505,-3.99l-2.865,-3.63l-3.375,-3.375l-3.63,-3.12l-3.87,-2.505l-4.245,-2.25l-4.38,-1.739l-4.5,-1.125l-4.754,-0.75l-4.62,-0.255l-37.365,0.001Zm20.369,19.74l17.25,-0l3.495,0.255l3.375,0.87l3.255,1.259l3.12,1.74l2.745,2.13l2.385,2.625l1.994,2.88l1.501,3.12l1.125,3.375l0.87,4.755l0.375,4.74l0,4.875l-0.494,4.874l-1.004,4.755l-1.125,3.12l-1.62,3.12l-1.995,2.76l-2.385,2.37l-2.745,2.13l-2.999,1.619l-3.12,1.125l-3.375,0.75l-3.375,0.255l-17.25,-0l-0.003,-59.502Z" style="fill:#010001;fill-rule:nonzero;"/></g><g id="S"><rect id="path1618" x="412.123" y="844.488" width="104.728" height="141.732" style="fill:#fff;"/><path id="path1620" d="M474.357,912.602l2.25,0.87l1.875,1.259l1.619,1.74l1.125,2.01l0.631,2.115l0.124,2.385l-0.376,2.25l-0.99,2.115l-1.381,1.875l-2.129,1.756l-2.37,1.364l-2.625,1.004l-2.745,0.495l-6.75,-0l-3.87,-0.495l-3.75,-0.749l-3.63,-1.246l-3.63,-1.619l-4.245,-2.76l-4.005,-3l-3.615,-3.495l-17.249,13.245l3.63,3.75l3.869,3.495l4.125,3.135l4.365,2.745l4.755,2.25l5.37,1.756l5.625,1.245l5.625,0.87l5.625,0.375l5.745,-0.124l5.625,-0.494l5.624,-1.004l5.506,-1.501l3.749,-1.501l3.495,-1.994l3.255,-2.505l2.88,-2.88l2.49,-3.24l2.01,-3.51l1.485,-3.735l1.004,-4.005l0.376,-4.005l-0.124,-3.99l-0.631,-4.125l-1.125,-3.885l-1.74,-3.615l-2.25,-3l-2.625,-2.625l-2.759,-2.384l-3.121,-2.115l-3.254,-1.756l-3.12,-1.246l-3.255,-1.004l-23.235,-5.745l-1.635,-0.631l-1.501,-0.99l-1.245,-1.38l-1.005,-1.501l-0.494,-1.619l-0.255,-1.754l0.142,-1.756l0.614,-1.739l0.884,-1.501l1.996,-2.01l2.25,-1.501l2.624,-1.125l2.745,-0.614l2.76,-0.255l4.11,0.255l4.005,0.614l4.005,1.125l3.75,1.381l3.615,1.875l3.51,2.25l3.12,2.624l15.375,-13.994l-4.125,-3.63l-4.38,-3.12l-4.74,-2.76l-4.875,-2.37l-5.13,-1.74l-5.37,-1.38l-5.385,-0.749l-5.49,-0.255l-5.37,0.255l-5.384,0.749l-5.37,1.38l-3.87,1.501l-3.63,1.86l-3.375,2.385l-3.12,2.745l-2.76,3l-2.115,3l-1.635,3.254l-1.246,3.375l-0.87,3.495l-0.255,3.63l0.124,3.615l0.631,3.63l1.125,3.375l1.501,3.375l1.874,3l2.37,2.865l2.625,2.385l3.75,2.49l4.125,1.755l4.38,1.125l23.362,5.254Z" style="fill:#010001;fill-rule:nonzero;"/></g><g id="_-N" serif:id=" N"><rect id="path1590" x="184.157" y="844.488" width="120.358" height="141.732" style="fill:#fff;"/><path id="path1592" d="M223.771,851.613l-23.114,0l0,99.238l20.25,0l-0,-67.124l44.369,67.124l23.234,0l0,-99.238l-20.369,0l-0,67.109l-44.37,-67.109Z" style="fill:#010001;fill-rule:nonzero;"/></g></g><path d="M532.364,11.99l-520.457,520.458l-8.352,-8.352l520.458,-520.458l8.351,8.352Zm31.588,1.819l-547.87,547.87l-8.351,-8.352l547.869,-547.869l8.352,8.351Zm23.235,10.171l-562.753,562.754l-8.352,-8.352l562.754,-562.753l8.351,8.351Zm8.352,25.055l-549.688,549.689l-8.352,-8.352l549.688,-549.688l8.352,8.351Zm4.176,29.231l-522.277,522.277l-8.352,-8.352l522.277,-522.277l8.352,8.352Z"/></g></g></svg>