<?xml version="1.0" encoding="UTF-8" standalone="no"?><!DOCTYPE svg PUBLIC "-//W3C//DTD SVG 1.1//EN" "http://www.w3.org/Graphics/SVG/1.1/DTD/svg11.dtd"><svg width="100%" height="100%" viewBox="0 0 603 1117" version="1.1" xmlns="http://www.w3.org/2000/svg" xmlns:xlink="http://www.w3.org/1999/xlink" xml:space="preserve" xmlns:serif="http://www.serif.com/" style="fill-rule:evenodd;clip-rule:evenodd;stroke-linejoin:round;stroke-miterlimit:2;"><g transform="matrix(50,0,0,50,395.224,575.734)"></g><text x="207.602px" y="575.734px" style="font-family:'ArialMT', 'Arial', sans-serif;font-size:50px;">sw=94.5</text><rect id="_618.4-Ped---Cycle" serif:id="618.4 Ped &amp; Cycle" x="0" y="0" width="602.362" height="1116.14" style="fill:none;"/><clipPath id="_clip1"><rect id="_618.4-Ped---Cycle1" serif:id="618.4 Ped &amp; Cycle" x="0" y="0" width="602.362" height="1116.14"/></clipPath><g clip-path="url(#_clip1)"><g><path d="M602.362,35.433c0,-19.556 -15.877,-35.433 -35.433,-35.433l-531.496,0c-19.556,0 -35.433,15.877 -35.433,35.433l0,1045.28c0,19.556 15.877,35.433 35.433,35.433l531.496,-0c19.556,-0 35.433,-15.877 35.433,-35.433l0,-1045.28Z"/><path d="M584.646,35.433c-0,-9.778 -7.939,-17.716 -17.717,-17.716l-531.496,-0c-9.778,-0 -17.716,7.938 -17.716,17.716l-0,531.496c-0,9.778 7.938,17.717 17.716,17.717l531.496,-0c9.778,-0 17.717,-7.939 17.717,-17.717l-0,-531.496Z" style="fill:#fff;"/><path d="M584.646,620.079c-0,-9.778 -7.939,-17.717 -17.717,-17.717l-531.496,0c-9.778,0 -17.716,7.939 -17.716,17.717l-0,460.63c-0,9.778 7.938,17.716 17.716,17.716l531.496,0c9.778,0 17.717,-7.938 17.717,-17.716l-0,-460.63Z" style="fill:#fff;"/><g><g><circle cx="301.181" cy="301.181" r="236.22" style="fill:#999;"/><circle cx="299.803" cy="299.803" r="188.976" style="fill:#fff;"/></g><path d="M361.008,452.054l1.592,1.808c7.99,7.284 21.319,6.56 28.211,-1.808l-0,-33.019l1.806,-1.205l2.797,-2.798l2.008,-3.602l0.602,-1.995l0.2,-2.008l0.201,-1.406l0,-42.017l-0.201,-1.995l-0.414,-2.008c-1.874,-5.048 -4.243,-8.021 -9.395,-10.002l-1.994,-0.603l-1.807,-0.201l-7.802,-48.831l-0.602,-2.611c-2.529,-10.685 -13.034,-18.719 -24.008,-18.398l-102.256,0c-11.482,-0.468 -22.201,8.664 -24.396,19.817l-0.214,1.192l-7.802,48.831l-1.994,0.201l-2.008,0.603c-4.603,2.115 -7.788,5.235 -9.207,10.203l-0.388,1.995l0,45.832l0.388,1.995l0.816,2.009l0.79,1.794l1.204,1.607l1.406,1.606l1.592,1.192l1.205,0.803l-0,33.019l1.592,1.808c8.15,7.284 21.305,6.52 28.425,-1.808l-0,-30.622l9.809,0.603c37.498,2.691 71.744,2.37 109.241,-0.603l0.603,0l-0,30.622Zm-109.456,-155.895l31.221,-1.794l36.615,0l31.208,1.794l2.409,0.402l2.195,0.803l2.409,0.79l1.994,1.219l1.993,1.392l1.794,1.594l1.606,1.807l1.418,2.009l1.392,2.196l0.803,2.196l0.803,2.41l0.388,1.995l2.208,13.804l0.201,1.808l-0.201,1.593l-0.401,1.607l-0.589,1.406l-1.017,1.406l-1.205,1.192l-1.191,0.99l-1.392,0.804l-1.605,0.616l-1.606,0.187l-1.606,0l-60.208,-1.995l-60.436,1.995l-1.606,0c-5.634,-0.843 -8.792,-4.325 -9.207,-10.002l0.201,-1.607l2.208,-13.804c1.218,-8.288 7.079,-15.144 15.002,-17.808l2.208,-0.603l1.994,-0.402Zm38.02,114.066l21.01,0l28.813,-0.602l9.609,-0.402l2.007,-0.188l-0,-6.802l-99.847,0l-0,6.802l19.204,0.804l19.204,0.388Zm-38.408,-23.606l99.847,0l-0,7.994l-99.847,-0l-0,-7.994Zm38.408,-15.612l21.01,0l19.204,0.402l19.218,0.803l2.007,0l-0,7.003l-99.847,-0l-0,-7.003l19.204,-0.803l19.204,-0.402Zm-46.812,1.794l-0.214,-1.995l-0.389,-1.807c-4.362,-14.327 -24.69,-13.015 -27.22,1.807l-0.2,1.995l0.2,2.009c2.516,15.116 22.751,16.255 27.22,2.008l0.389,-2.008l0.214,-2.009Zm144.665,0l-0.214,-1.995l-0.402,-1.807c-4.363,-14.327 -24.677,-13.015 -27.206,1.807l-0.201,1.995l0.201,2.009c2.515,15.116 22.75,16.255 27.206,2.008l0.402,-2.008l0.214,-2.009Z" style="fill:#999;"/><path d="M383.469,194.394l-0.201,-1.405c-0.897,-3.573 -3.4,-5.326 -7,-5.594l-31.225,0l-0,-2.007c0.428,-3.306 -1.392,-7.227 -3.601,-9.595l-16.811,-18.187l-16.395,-7.013l-2.811,0l-0,-4.804c12.742,-19.458 -20.331,-31.128 -22.606,-7.989l-0,1.405l2.797,-0l0,8.391c0.281,4.175 2.811,6.851 7.014,7.199l1.378,-0.2l0,1.606l-0.388,0.588l-8.807,15.404l-10.212,8.002l-0.79,0.603l-0.803,0.2l-1.004,0l-1.003,-0.2l-0.79,-0.402l-0.616,-0.602l-0.388,-0.803l-0.401,-0.99l-0,-0.803l0.214,-0.402l6.585,-31.007l-0,-0.402l-0.188,-0.401l-0.816,-0.401l-0.388,-0l-0.402,0.214l-0.201,0.187l-14.602,24.41l-1.606,2.194l-1.606,1.994l-1.994,2.008l-1.995,1.793c-3.024,2.115 -8.512,5.099 -12.219,5.206l-2.811,0.415l-2.182,0.187l-7.816,0l-0,13.396l2.998,-0l3.011,0.214l2.998,0.589l2.999,0.816l2.797,0.991l-1.794,2.997l-2.797,-1.003l-2.797,-0.603c-37.048,-5.406 -54.622,41.914 -22.62,61.6l2.597,1.405l2.596,1.205c35.496,11.669 60.912,-32.185 32.819,-56.796l-0,-0.214l1.807,-2.998l2.208,1.994l2.195,2.209c6.224,7.159 9.289,15.55 9.208,24.998l0,1.004l0.201,2.007c0.241,6.839 6.505,12.366 13.398,12.794l60.243,-0l1.392,2.409c19.166,26.671 59.881,14.346 60.831,-18.401l0,-0.402l6.411,0l0,-3.011c-1.137,-13.476 -9.315,-26.283 -21.615,-32.185l-2.396,-1.218l-0,-2.596Zm-109.256,-1.994l27.009,8.391l8.406,-13.396l-1.794,-1.191c-3.078,-2.088 -5.287,-5.313 -6.411,-8.819l-0.201,-0.589l-27.009,15.604Zm-45.226,28.197l3.801,-6.41l-2.208,-0.402l-2.396,-0.187c-19.782,0.589 -27.21,24.918 -11.002,36.401l1.004,0.602l2.195,0.99c18.35,7.588 34.893,-12.499 24.413,-28.986l-1.405,-2.008l-0.79,-0.789l-3.814,6.597l1.003,1.593l0.589,1.793c3.172,10.077 -7.267,19.605 -16.998,15.417l-1.593,-0.817l-1.606,-0.99c-8.231,-6.879 -5.34,-19.967 5.207,-22.402l1.807,-0.402l1.793,0Zm129.667,4.002l-2.596,-6.999l-1.794,1.405l-1.606,1.592c-12.487,15.43 1.727,37.177 20.813,31.797l1.191,-0.401l1.994,-0.79c17.908,-9.555 12.889,-34.754 -6.598,-37.605l-3.4,0l2.597,7.2l1.807,0.401l1.793,0.603c9.69,3.84 10.36,18.347 0.803,22.79l-1.606,0.803l-1.793,0.602c-10.721,1.713 -18.471,-8.886 -13.813,-18.401l1.004,-1.606l1.204,-1.391Zm-12.594,-16.193l-2.209,1.98l-1.807,2.008c-4.122,5.058 -4.497,7.052 -6.598,13.008l-0.402,1.994l-0.214,0.401l-0.187,0.401l-0.602,0.201l-0.803,0l-0.402,-0.201l-0.388,-0.401l-0,-22.001l13.197,0l0.415,0.402l0.388,0.803l-0,0.388l-0.188,0.615l-0.2,0.402" style="fill:#999;"/></g><g><g><rect id="path1786" x="370.129" y="631.89" width="41.079" height="94.488" style="fill:#fff;"/><path id="path1788" d="M389.629,702.708l-12.92,0l0,-47.159l12.92,0l-0,4.67l1.58,-1.59l1.75,-1.33l2,-1.17l2.17,-0.75l2.16,-0.5l2.25,-0.16l3.17,-0l-0,12.249l-4.42,0l-1.83,0.16l-1.83,0.499l-1.67,0.84l-1.58,1.08l-1.25,1.25l-1.08,1.58l-0.839,1.67l-0.5,1.83l-0.083,1.84l0.002,24.991Z" style="fill:#010001;fill-rule:nonzero;"/></g><g><rect id="path1750" x="491.037" y="631.89" width="57.159" height="94.488" style="fill:#fff;"/><path id="path1752" d="M527.616,672.969l-0.34,-1.67l-0.75,-1.58l-1,-1.34l-1.25,-1.079l-1.75,-0.75l-1.91,-0.33l-1.92,0.083l-1.83,0.329l-1.84,0.75l-1.5,1.001l-1.33,1.25l-1,1.499l-0.67,1.59l-0.16,1.661l-0,28.329l-12.92,-0l-0,-47.159l12.92,-0l-0,3.33l1.909,-1.5l2.09,-1.25l2.16,-0.91l2.34,-0.59l2.33,-0.33l2.42,0.083l2.75,0.5l2.41,0.839l2.33,1.16l2.09,1.42l1.91,1.67l1.67,1.91l1.42,2.17l1.08,2.5l0.75,2.58l0.42,2.67l0.161,2.75l-0,28.159l-12.91,0l12.91,0l-12.91,0l-0,-28.079l-0.08,-1.666Z" style="fill:#010001;fill-rule:nonzero;"/></g><g><rect id="path1806" x="118.405" y="631.89" width="52.909" height="94.488" style="fill:#fff;"/><path id="path1808" d="M143.904,654.299l-2.42,0.17l-2.41,0.41l-2.34,0.75l-2.249,1.09l-2.08,1.25l-2.25,1.66l-2.08,2l-1.75,2.25l-1.42,2.42l-1.171,3l-0.83,3.17l-0.5,3.16l-0.17,3.25l0.251,3.25l0.59,3.17l0.91,3.08l1.169,3l1.08,2.17l1.42,2l1.499,1.83l1.83,1.67l1.92,1.41l2.08,1.25l2.25,0.92l2.34,0.669l2.99,0.58l3.09,0.251l3.08,-0.083l3.08,-0.34l3,-0.66l2.34,-0.84l2.16,-1.08l2,-1.42l1.83,-1.67l1.67,-1.83l-8,-8.08l-1.83,1.67l-2.08,1.33l-2.25,1.001l-2.17,0.58l-2.17,0.17l-2.16,-0.083l-2.17,-0.42l-2.08,-0.75l-1.42,-0.92l-1.25,-1.16l-1,-1.34l-0.75,-1.5l-0.41,-1.66l-0.17,-1.67l31.499,-0l-0.17,-3.92l-0.42,-3.91l-0.83,-3.83l-1.171,-3.75l-1.079,-2.5l-1.42,-2.25l-1.66,-2.17l-2,-1.83l-2.17,-1.59l-2.08,-1.25l-2.25,-0.909l-2.42,-0.67l-2.42,-0.42l-2.408,-0.076Zm-0.25,10.75l1.66,0l1.67,0.33l1.58,0.589l1.42,0.83l1.33,1.08l1.09,1.25l0.83,1.42l0.58,1.58l0.251,1.67l-19.16,-0l0.25,-1.67l0.58,-1.58l0.84,-1.42l1.08,-1.25l1.329,-1.08l1.421,-0.83l1.579,-0.589l1.67,-0.33Z" style="fill:#010001;fill-rule:nonzero;"/></g><g><rect id="path18061" serif:id="path1806" x="228.473" y="631.89" width="52.909" height="94.488" style="fill:#fff;"/><path id="path18081" serif:id="path1808" d="M253.972,654.299l-2.42,0.17l-2.41,0.41l-2.34,0.75l-2.25,1.09l-2.08,1.25l-2.249,1.66l-2.08,2l-1.75,2.25l-1.42,2.42l-1.171,3l-0.83,3.17l-0.5,3.16l-0.17,3.25l0.251,3.25l0.59,3.17l0.91,3.08l1.169,3l1.079,2.17l1.42,2l1.5,1.83l1.83,1.67l1.92,1.41l2.08,1.25l2.25,0.92l2.34,0.669l2.99,0.58l3.09,0.251l3.08,-0.083l3.08,-0.34l3,-0.66l2.34,-0.84l2.16,-1.08l2,-1.42l1.83,-1.67l1.67,-1.83l-8,-8.08l-1.83,1.67l-2.08,1.33l-2.25,1.001l-2.17,0.58l-2.17,0.17l-2.16,-0.083l-2.17,-0.42l-2.08,-0.75l-1.42,-0.92l-1.25,-1.16l-1,-1.34l-0.75,-1.5l-0.41,-1.66l-0.17,-1.67l31.499,-0l-0.17,-3.92l-0.42,-3.91l-0.831,-3.83l-1.17,-3.75l-1.08,-2.5l-1.419,-2.25l-1.66,-2.17l-2,-1.83l-2.17,-1.59l-2.08,-1.25l-2.25,-0.909l-2.42,-0.67l-2.42,-0.42l-2.408,-0.076Zm-0.25,10.75l1.66,0l1.67,0.33l1.58,0.589l1.42,0.83l1.33,1.08l1.09,1.25l0.83,1.42l0.58,1.58l0.25,1.67l-19.159,-0l0.25,-1.67l0.58,-1.58l0.84,-1.42l1.079,-1.25l1.33,-1.08l1.42,-0.83l1.58,-0.589l1.67,-0.33Z" style="fill:#010001;fill-rule:nonzero;"/></g><g><rect id="path1790" x="411.209" y="631.89" width="26.92" height="94.488" style="fill:#fff;"/><path id="path1792" d="M423.958,636.14l-1.42,0.159l-1.41,0.421l-1.25,0.669l-1.17,0.91l-0.92,1.17l-0.66,1.25l-0.421,1.42l-0.17,1.41l0.17,1.42l0.421,1.42l0.66,1.33l0.92,1.08l1.17,0.92l1.25,0.66l1.41,0.42l1.42,0.171l1.42,-0.171l1.41,-0.42l1.25,-0.66l1.171,-0.92l0.92,-1.08l0.66,-1.33l0.421,-1.42l0.17,-1.42l-0.17,-1.41l-0.421,-1.42l-0.66,-1.25l-0.92,-1.17l-1.171,-0.91l-1.25,-0.669l-1.41,-0.421l-1.42,-0.159Zm-6.5,19.409l0,47.239l12.92,0l0,-47.239l-12.92,0Z" style="fill:#010001;fill-rule:nonzero;"/></g><g><rect id="path1818" x="171.314" y="631.89" width="57.159" height="94.488" style="fill:#fff;"/><path id="path1820" d="M208.473,636.64l0,21.159l-2.16,-1.42l-2.25,-1.16l-2.42,-0.839l-2.41,-0.58l-2.59,-0.251l-2.5,0.095l-2.5,0.329l-2.499,0.661l-2.33,0.92l-2.25,1.25l-2.08,1.42l-2.13,2.04l-1.71,2.21l-1.25,2.37l-1.33,3.46l-0.831,3.33l-0.579,3.419l-0.251,3.42l0.161,3.41l0.42,3.42l0.831,3.33l1.09,3.25l1.24,2.5l1.5,2.25l1.84,2.08l2.08,1.75l2.33,1.42l2.75,1.079l2.919,0.75l2.92,0.341l2.91,-0l2.92,-0.421l2.83,-0.75l2,-0.75l1.75,-1.17l1.58,-1.41l0,3.25l12.92,-0l-0,-66.159l-12.921,-0.003Zm-9.91,28.329l1.91,0.251l1.92,0.579l1.67,0.921l1.58,1.159l1.08,1.25l0.839,1.34l0.58,1.5l0.33,1.66l-0,10.17l-0.16,1.25l-0.34,1.25l-0.58,1.08l-0.75,1.079l-1.33,1.42l-1.5,1.171l-1.67,0.83l-1.829,0.58l-1.92,0.25l-1.91,-0.16l-1.84,-0.421l-1.5,-0.58l-1.41,-0.84l-1.171,-1.079l-1,-1.25l-0.75,-1.42l-0.831,-2.5l-0.42,-2.66l-0.25,-2.58l0.17,-2.67l0.41,-2.58l0.75,-2.59l0.75,-1.66l0.839,-1.25l1.16,-1.09l1.59,-1.079l1.75,-0.75l1.91,-0.5l1.923,-0.081Z" style="fill:#010001;fill-rule:nonzero;"/></g><g><rect id="path1698" x="438.128" y="631.89" width="53.329" height="94.488" style="fill:#fff;"/><path id="path1700" d="M462.958,653.639l-3.08,0.161l-3,0.58l-3.75,1.09l-3.67,1.41l-3.5,1.67l-3.41,1.92l6.33,9.66l2.58,-1.58l2.67,-1.25l2.83,-1.001l2.92,-0.75l3,-0.42l1.66,-0.083l1.75,0.33l1.58,0.589l0.92,0.58l0.75,0.83l0.499,0.92l0.17,1.08l0,3l-4.17,0.17l-4.079,0.5l-4.08,0.75l-4,1.079l-3.92,1.42l-1.66,1.001l-1.59,1.249l-1.42,1.5l-1.16,1.58l-0.92,1.83l-0.66,1.92l-0.34,2l-0.083,2l0.17,2l0.49,1.92l0.76,1.91l1,1.75l1.24,1.59l1.42,1.41l1.67,1.171l2.41,1.159l2.59,0.92l2.75,0.59l2.75,0.329l2.75,-0.082l2.66,-0.34l2.67,-0.661l1.419,-0.669l1.33,-0.831l1.08,-1l0.92,-1.25l1,1.33l1.25,1l1.42,0.75l2.58,1.001l2.66,0.58l2.75,0.329l4.59,-10.08l-1.09,0l-1.08,-0.159l-1.079,-0.5l-0.84,-0.67l-0.66,-0.92l-0.421,-1l-0.17,-1.16l0,-22.329l-0.16,-1.84l-0.421,-1.83l-0.75,-1.67l-0.92,-1.58l-1.25,-1.5l-1.41,-1.171l-1.59,-1l-2.25,-0.99l-2.41,-0.84l-2.92,-0.83l-3.08,-0.42l-2.995,-0.152Zm7.249,28.07l0,6.75l-0.17,1.25l-0.58,1.17l-0.75,1l-1.09,0.75l-1.16,0.421l-2.33,0.329l-2.34,0l-2.329,-0.329l-1.171,-0.421l-1,-0.75l-0.831,-0.92l-0.579,-1.079l-0.341,-1.08l0,-1.17l0.341,-1.171l0.579,-0.91l0.831,-0.84l1,-0.58l3.92,-1l2.28,-0.47l1.72,-0.361l4,-0.589Z" style="fill:#010001;fill-rule:nonzero;"/></g><g><rect id="path1670" x="329.546" y="631.89" width="40.584" height="94.488" style="fill:#fff;"/><path id="path1672" d="M359.549,692.465l2.41,-0.41l2.34,-0.67l2.83,10.75l-3.5,1.001l-3.58,0.659l-3.591,0.341l-3.66,0.083l-3.59,-0.33l-1.75,-0.341l-1.741,-0.749l-1.5,-1l-1.34,-1.251l-1.08,-1.41l-0.751,-1.67l-0.5,-1.75l-0.17,-1.83l-0,-28.003l-7.581,0l-0,-10.751l7.581,0l-0,-14.741l12.921,-3.75l-0,18.491l12.001,0l-0,10.751l-12.001,0l-0,23.002l0.082,1l0.42,0.92l0.58,0.751l0.83,0.58l0.92,0.42l0.92,0.083l2.5,-0.176Z" style="fill:#010001;fill-rule:nonzero;"/></g><g><rect id="path1674" x="281.382" y="631.89" width="48.164" height="94.488" style="fill:#fff;"/><path id="path1676" d="M294.133,688.555l2,1.58l2.16,1.25l2.34,1l2.411,0.67l2.5,0.33l2.25,0l1.59,-0.58l1.33,-0.92l0.75,-0.749l0.5,-1.001l0.081,-1.08l-0.25,-1.09l-0.58,-0.911l-0.83,-0.67l-3.251,-1.25l-3.34,-0.67l-3,-0.5l-4.081,-1.001l-2,-0.659l-1.83,-1l-1.67,-1.251l-1.5,-1.42l-1.25,-1.58l-1.08,-1.75l-0.67,-2.09l-0.41,-2.16l-0,-2.171l0.25,-2.16l0.58,-2.17l0.92,-1.92l1.25,-1.83l1.41,-1.58l1.59,-1.421l1.83,-1.17l1.911,-0.91l2.09,-0.59l3,-0.66l3,-0.34l3.081,-0l3.08,0.249l3.09,0.59l2.5,0.75l2.411,1l2.34,1.33l2.24,1.42l2,1.75l-7.991,8.491l-2.25,-1.83l-2.5,-1.5l-2.67,-1.16l-1.5,-0.42l-1.581,-0.249l-1.59,-0l-1.66,0.419l-1.5,0.75l-1.34,1l-0.66,0.83l-0.34,0.92l0.09,1.08l0.33,0.911l0.58,0.84l1,0.581l5.5,1.08l5.001,0.671l1.92,0.329l0.08,0l1.921,0.671l1.83,0.83l1.84,1.09l1.66,1.41l1.42,1.59l1.16,1.75l0.841,1.91l0.58,2.09l0.33,2.081l-0.083,2.17l-0.33,2.08l-0.67,2.08l-1.081,2.09l-1.34,1.91l-1.58,1.751l-1.83,1.5l-2,1.17l-3.25,1l-3.331,0.66l-3.42,0.34l-3.33,0l-3.421,-0.34l-3.33,-0.66l-3,-0.919l-2.92,-1.251l-2.661,-1.58l-2.5,-1.84l-2.34,-2.16l9.421,-8.671l1.752,1.84Z" style="fill:#010001;fill-rule:nonzero;"/></g><g id="P"><rect id="path1606" x="54.166" y="631.89" width="64.239" height="94.488" style="fill:#fff;"/><path id="path1608" d="M65.506,636.64l-0,66.158l13.49,0l-0,-23.329l14.999,-0l2.58,-0.17l2.59,-0.5l2.41,-0.83l2.34,-1.171l2.25,-1.42l1.91,-1.66l1.75,-1.92l1.5,-2.159l1.169,-2.171l1.001,-2.249l0.75,-2.33l0.42,-2.42l0.083,-2.42l-0.083,-2.41l-0.42,-2.42l-0.75,-2.33l-1.001,-2.25l-1.169,-2.17l-1.5,-2.17l-1.75,-1.91l-1.91,-1.67l-2.25,-1.42l-2.34,-1.16l-2.41,-0.83l-2.59,-0.51l-2.58,-0.161l-28.489,0.002Zm13.49,12.249l13.419,0l1.66,0.16l1.59,0.5l1.5,0.75l1.33,1l1.08,1.34l0.84,1.41l0.579,1.59l0.251,1.66l-0,1.59l-0.251,1.66l-0.579,1.5l-0.84,1.5l-1.08,1.25l-1.33,1l-1.5,0.75l-1.59,0.5l-1.66,0.17l-13.419,-0l-0,-18.33Z" style="fill:#010001;fill-rule:nonzero;"/></g></g><g><g><rect id="path1754" x="247.107" y="820.866" width="55.239" height="94.488" style="fill:#fff;"/><path id="path1756" d="M273.437,842.616l-2.59,0.16l-2.5,0.421l-2.5,0.75l-2.41,0.92l-2.25,1.24l-2.34,1.75l-2.08,2.09l-1.83,2.25l-1.5,2.58l-1.17,2.67l-0.161,0.499l-0.84,3.33l-0.499,3.42l-0.171,3.41l0.171,3.42l0.499,3.41l0.84,3.25l0.161,0.59l1.17,2.66l1.5,2.5l1.83,2.34l2.08,2.08l2.34,1.75l2.25,1.16l2.41,1.01l2.5,0.739l2.5,0.421l2.59,0.17l2.579,-0.17l2.58,-0.421l2.5,-0.739l2.42,-1.01l2.25,-1.16l2.33,-1.75l2.08,-2.08l1.84,-2.34l1.5,-2.5l1.16,-2.66l0.17,-0.59l0.83,-3.25l0.5,-3.41l0.094,-3.42l-0.094,-3.41l-0.5,-3.42l-0.83,-3.33l-0.17,-0.499l-1.16,-2.67l-1.5,-2.58l-1.84,-2.25l-2.08,-2.09l-2.33,-1.75l-2.25,-1.24l-2.42,-0.92l-2.5,-0.75l-2.58,-0.421l-2.579,-0.16Zm-0,11.33l1.91,0.25l2,0.83l1.749,1.33l1.5,1.59l1.25,1.83l0.67,1.5l0.421,1.58l0.329,2.67l0.083,2.58l-0.083,2.58l-0.329,2.67l-0.421,1.58l-0.67,1.5l-1.25,1.84l-1.5,1.58l-1.749,1.33l-2,0.75l-1.91,0.34l-1.84,-0.34l-2,-0.75l-1.83,-1.33l-1.5,-1.58l-1.171,-1.84l-0.66,-1.5l-0.42,-1.58l-0.33,-2.67l-0.17,-2.58l0.17,-2.58l0.33,-2.67l0.42,-1.58l0.66,-1.5l1.171,-1.83l1.5,-1.59l1.83,-1.33l2,-0.83l1.84,-0.25Z" style="fill:#010001;fill-rule:nonzero;"/></g><g><rect id="path17501" serif:id="path1750" x="302.346" y="820.866" width="57.159" height="94.488" style="fill:#fff;"/><path id="path17521" serif:id="path1752" d="M338.925,861.945l-0.34,-1.67l-0.75,-1.58l-1,-1.34l-1.25,-1.079l-1.75,-0.75l-1.91,-0.33l-1.92,0.083l-1.83,0.33l-1.84,0.75l-1.5,1l-1.33,1.25l-1,1.5l-0.67,1.59l-0.161,1.66l0,28.329l-12.919,0l-0,-47.159l12.919,0l0,3.33l1.91,-1.5l2.09,-1.25l2.16,-0.909l2.34,-0.591l2.33,-0.329l2.42,0.082l2.75,0.5l2.41,0.84l2.33,1.16l2.09,1.419l1.91,1.67l1.67,1.91l1.42,2.17l1.079,2.5l0.75,2.58l0.421,2.67l0.16,2.75l0,28.16l-12.909,-0l12.909,-0l-12.909,-0l-0,-28.08l-0.08,-1.666Z" style="fill:#010001;fill-rule:nonzero;"/></g><g><rect id="path18062" serif:id="path1806" x="359.505" y="820.866" width="52.909" height="94.488" style="fill:#fff;"/><path id="path18082" serif:id="path1808" d="M385.004,843.276l-2.419,0.17l-2.41,0.41l-2.34,0.75l-2.25,1.09l-2.08,1.25l-2.25,1.66l-2.08,2l-1.75,2.25l-1.42,2.42l-1.171,3l-0.83,3.17l-0.499,3.159l-0.171,3.25l0.251,3.25l0.59,3.17l0.91,3.08l1.169,3l1.08,2.17l1.42,2l1.5,1.83l1.83,1.67l1.92,1.41l2.079,1.25l2.25,0.92l2.34,0.67l2.99,0.58l3.09,0.25l3.08,-0.083l3.08,-0.34l3,-0.66l2.34,-0.84l2.16,-1.079l2,-1.42l1.83,-1.67l1.67,-1.83l-8,-8.08l-1.83,1.67l-2.08,1.33l-2.25,1l-2.17,0.58l-2.17,0.17l-2.16,-0.082l-2.17,-0.421l-2.08,-0.75l-1.42,-0.92l-1.25,-1.16l-1,-1.34l-0.75,-1.5l-0.41,-1.66l-0.17,-1.67l31.5,0l-0.17,-3.92l-0.421,-3.91l-0.83,-3.83l-1.171,-3.75l-1.079,-2.499l-1.42,-2.25l-1.66,-2.17l-2,-1.83l-2.17,-1.59l-2.08,-1.25l-2.25,-0.91l-2.42,-0.669l-2.42,-0.421l-2.408,-0.075Zm-0.25,10.749l1.66,0l1.67,0.33l1.58,0.589l1.42,0.831l1.33,1.079l1.09,1.25l0.83,1.42l0.58,1.58l0.251,1.67l-19.16,0l0.25,-1.67l0.58,-1.58l0.84,-1.42l1.08,-1.25l1.33,-1.079l1.42,-0.831l1.58,-0.589l1.669,-0.33Z" style="fill:#010001;fill-rule:nonzero;"/></g><g id="Z"><rect id="path1578" x="189.948" y="820.866" width="57.159" height="94.488" style="fill:#fff;"/><path id="path1580" d="M195.108,839.116l0,-13.5l45.669,0l0,13.58l-29.749,38.999l30.659,0l0,13.49l-47.739,-0l0,-13.49l29.74,-39.079l-28.58,-0Z" style="fill:#010001;fill-rule:nonzero;"/></g></g><g><g id="E"><rect id="path1642" x="85.965" y="938.976" width="97.738" height="141.732" style="fill:#fff;"/><path id="path1644" d="M171.329,1025.84l-48.615,-0l0,-21.75l40.62,0l-0,-18.375l-40.62,0l0,-20.369l44.865,-0l-0,-19.245l-65.249,0l0,99.103l68.999,0l-0,-19.364Z" style="fill:#010001;fill-rule:nonzero;"/></g><g id="D"><rect id="path1566" x="304.061" y="938.976" width="107.608" height="141.732" style="fill:#fff;"/><path id="path1568" d="M320.936,946.101l-0,99.103l37.365,0l4.62,-0.241l4.755,-0.749l4.499,-1.245l4.38,-1.756l4.245,-2.13l3.87,-2.625l3.63,-3l3.375,-3.375l2.865,-3.75l2.505,-3.99l2.13,-4.26l1.619,-4.365l1.125,-4.62l0.75,-5.385l0.375,-5.369l0,-5.37l-0.375,-5.505l-0.75,-5.37l-1.125,-4.5l-1.619,-4.5l-2.13,-4.26l-2.505,-3.99l-2.865,-3.63l-3.375,-3.375l-3.63,-3.12l-3.87,-2.505l-4.245,-2.25l-4.38,-1.739l-4.499,-1.125l-4.755,-0.75l-4.62,-0.255l-37.365,0.001Zm20.369,19.74l17.25,-0l3.495,0.255l3.375,0.87l3.255,1.259l3.12,1.74l2.745,2.13l2.385,2.625l1.995,2.88l1.5,3.12l1.125,3.375l0.87,4.755l0.376,4.74l-0,4.875l-0.495,4.875l-1.004,4.755l-1.125,3.119l-1.619,3.12l-1.996,2.76l-2.384,2.37l-2.745,2.13l-3,1.62l-3.12,1.125l-3.375,0.749l-3.375,0.255l-17.25,0l-0.003,-59.502Z" style="fill:#010001;fill-rule:nonzero;"/></g><g id="S"><rect id="path1618" x="411.669" y="938.976" width="104.728" height="141.732" style="fill:#fff;"/><path id="path1620" d="M473.903,1007.09l2.25,0.87l1.875,1.26l1.619,1.739l1.125,2.01l0.631,2.115l0.124,2.385l-0.376,2.25l-0.99,2.115l-1.38,1.875l-2.13,1.756l-2.37,1.364l-2.625,1.004l-2.745,0.495l-6.75,-0l-3.87,-0.495l-3.75,-0.749l-3.63,-1.245l-3.63,-1.62l-4.245,-2.76l-4.005,-3l-3.614,-3.494l-17.25,13.244l3.63,3.75l3.87,3.495l4.125,3.135l4.365,2.745l4.754,2.25l5.37,1.756l5.625,1.245l5.625,0.87l5.625,0.376l5.745,-0.124l5.625,-0.495l5.625,-1.004l5.505,-1.501l3.75,-1.5l3.495,-1.995l3.254,-2.505l2.88,-2.88l2.49,-3.24l2.01,-3.51l1.485,-3.735l1.004,-4.005l0.376,-4.005l-0.124,-3.99l-0.631,-4.125l-1.125,-3.885l-1.739,-3.614l-2.25,-3l-2.625,-2.625l-2.76,-2.385l-3.12,-2.115l-3.255,-1.756l-3.12,-1.245l-3.255,-1.005l-23.235,-5.745l-1.635,-0.63l-1.5,-0.991l-1.246,-1.38l-1.004,-1.501l-0.495,-1.619l-0.255,-1.754l0.142,-1.755l0.615,-1.74l0.884,-1.501l1.995,-2.01l2.25,-1.5l2.625,-1.125l2.745,-0.615l2.759,-0.255l4.11,0.255l4.005,0.615l4.005,1.125l3.75,1.38l3.615,1.875l3.51,2.25l3.12,2.625l15.375,-13.995l-4.125,-3.63l-4.38,-3.12l-4.74,-2.76l-4.875,-2.37l-5.13,-1.74l-5.37,-1.38l-5.385,-0.749l-5.49,-0.255l-5.37,0.255l-5.384,0.749l-5.37,1.38l-3.87,1.501l-3.63,1.86l-3.375,2.385l-3.12,2.745l-2.76,3l-2.115,3l-1.635,3.255l-1.246,3.375l-0.869,3.495l-0.256,3.629l0.124,3.615l0.631,3.63l1.125,3.375l1.501,3.375l1.875,3l2.37,2.865l2.625,2.385l3.75,2.49l4.125,1.756l4.379,1.125l23.362,5.253Z" style="fill:#010001;fill-rule:nonzero;"/></g><g id="_-N" serif:id=" N"><rect id="path1590" x="183.703" y="938.976" width="120.358" height="141.732" style="fill:#fff;"/><path id="path1592" d="M223.318,946.101l-23.115,0l0,99.238l20.25,0l-0,-67.123l44.369,67.123l23.234,0l0,-99.238l-20.369,0l-0,67.109l-44.369,-67.109Z" style="fill:#010001;fill-rule:nonzero;"/></g></g><path d="M531.91,11.99l-8.351,-8.352l-520.458,520.458l8.352,8.352l520.457,-520.458Z"/><path d="M563.498,13.809l-8.352,-8.351l-547.869,547.869l8.352,8.352l547.869,-547.87Z"/><path d="M586.734,23.98l-8.352,-8.351l-562.753,562.753l8.351,8.352l562.754,-562.754Z"/><path d="M595.085,49.035l-8.351,-8.351l-549.689,549.688l8.352,8.352l549.688,-549.689Z"/><path d="M599.261,78.266l-8.352,-8.352l-522.277,522.277l8.352,8.352l522.277,-522.277Z"/><g><g><g><rect id="path17502" serif:id="path1750" x="137.107" y="726.378" width="57.159" height="94.488" style="fill:#fff;"/><path id="path17522" serif:id="path1752" d="M173.687,767.457l-0.34,-1.67l-0.75,-1.58l-1.001,-1.34l-1.25,-1.079l-1.75,-0.75l-1.91,-0.33l-1.92,0.083l-1.83,0.329l-1.84,0.75l-1.5,1.001l-1.329,1.25l-1.001,1.5l-0.67,1.59l-0.16,1.66l-0,28.329l-12.92,0l0,-47.159l12.92,-0l-0,3.33l1.91,-1.5l2.09,-1.25l2.16,-0.909l2.34,-0.591l2.33,-0.33l2.42,0.083l2.75,0.5l2.409,0.84l2.33,1.159l2.09,1.42l1.91,1.67l1.67,1.91l1.42,2.17l1.08,2.5l0.75,2.58l0.42,2.67l0.161,2.75l-0,28.16l-12.91,-0l12.91,-0l-12.91,-0l0,-28.08l-0.079,-1.666Z" style="fill:#010001;fill-rule:nonzero;"/></g><g><rect id="path18181" serif:id="path1818" x="194.266" y="726.378" width="57.159" height="94.488" style="fill:#fff;"/><path id="path18201" serif:id="path1820" d="M231.426,731.128l-0,21.159l-2.16,-1.419l-2.25,-1.16l-2.42,-0.84l-2.41,-0.58l-2.59,-0.25l-2.5,0.094l-2.5,0.33l-2.5,0.66l-2.33,0.92l-2.25,1.25l-2.08,1.42l-2.13,2.04l-1.71,2.21l-1.25,2.37l-1.33,3.46l-0.83,3.33l-0.58,3.42l-0.25,3.42l0.16,3.409l0.421,3.42l0.83,3.33l1.09,3.25l1.24,2.5l1.5,2.25l1.84,2.08l2.08,1.75l2.33,1.42l2.75,1.08l2.92,0.75l2.92,0.34l2.91,-0l2.92,-0.421l2.83,-0.75l2,-0.75l1.75,-1.17l1.58,-1.41l-0,3.25l12.919,-0l0,-66.159l-12.92,-0.003Zm-9.91,28.329l1.91,0.251l1.92,0.58l1.67,0.92l1.58,1.16l1.079,1.25l0.84,1.34l0.58,1.499l0.329,1.661l0,10.169l-0.159,1.25l-0.34,1.25l-0.58,1.08l-0.75,1.079l-1.33,1.42l-1.5,1.171l-1.67,0.83l-1.83,0.58l-1.92,0.25l-1.91,-0.16l-1.84,-0.421l-1.5,-0.58l-1.41,-0.839l-1.17,-1.08l-1.001,-1.25l-0.75,-1.42l-0.83,-2.5l-0.42,-2.66l-0.251,-2.58l0.17,-2.67l0.41,-2.58l0.75,-2.59l0.75,-1.66l0.84,-1.249l1.16,-1.091l1.59,-1.079l1.75,-0.75l1.91,-0.5l1.923,-0.081Z" style="fill:#010001;fill-rule:nonzero;"/></g><g><rect id="path16981" serif:id="path1698" x="83.778" y="726.378" width="53.329" height="94.488" style="fill:#fff;"/><path id="path17001" serif:id="path1700" d="M108.608,748.127l-3.08,0.161l-3,0.58l-3.75,1.09l-3.67,1.41l-3.5,1.67l-3.41,1.92l6.33,9.66l2.58,-1.58l2.67,-1.25l2.83,-1l2.92,-0.75l3,-0.421l1.66,-0.083l1.75,0.33l1.58,0.589l0.92,0.58l0.75,0.831l0.5,0.92l0.17,1.079l-0,3l-4.17,0.17l-4.08,0.5l-4.08,0.75l-4,1.079l-3.92,1.42l-1.66,1.001l-1.59,1.25l-1.42,1.5l-1.16,1.58l-0.92,1.83l-0.66,1.92l-0.34,1.999l-0.083,2l0.17,2l0.49,1.92l0.76,1.91l1,1.75l1.24,1.59l1.42,1.41l1.67,1.171l2.41,1.16l2.59,0.92l2.75,0.589l2.75,0.33l2.75,-0.083l2.66,-0.34l2.67,-0.66l1.42,-0.67l1.33,-0.83l1.079,-1.001l0.92,-1.25l1.001,1.33l1.25,1l1.42,0.75l2.58,1.001l2.66,0.58l2.749,0.329l4.59,-10.08l-1.09,0l-1.079,-0.159l-1.08,-0.5l-0.84,-0.669l-0.66,-0.92l-0.42,-1.001l-0.17,-1.16l-0,-22.329l-0.161,-1.84l-0.42,-1.83l-0.75,-1.67l-0.921,-1.58l-1.25,-1.5l-1.41,-1.171l-1.589,-1l-2.25,-0.99l-2.41,-0.839l-2.92,-0.831l-3.08,-0.42l-2.996,-0.152Zm7.25,28.07l-0,6.75l-0.17,1.25l-0.58,1.17l-0.75,1.001l-1.09,0.75l-1.16,0.42l-2.33,0.33l-2.34,-0l-2.33,-0.33l-1.17,-0.42l-1.001,-0.75l-0.83,-0.92l-0.58,-1.08l-0.34,-1.079l-0,-1.171l0.34,-1.17l0.58,-0.911l0.83,-0.84l1.001,-0.58l3.919,-1l2.28,-0.47l1.72,-0.36l4.001,-0.59Z" style="fill:#010001;fill-rule:nonzero;"/></g></g><g><g><rect id="path18063" serif:id="path1806" x="465.675" y="726.378" width="52.909" height="94.488" style="fill:#fff;"/><path id="path18083" serif:id="path1808" d="M491.174,748.787l-2.42,0.171l-2.41,0.409l-2.34,0.75l-2.25,1.091l-2.08,1.25l-2.249,1.66l-2.08,2l-1.75,2.249l-1.42,2.42l-1.171,3l-0.83,3.17l-0.5,3.16l-0.17,3.25l0.251,3.25l0.59,3.17l0.91,3.08l1.169,3l1.079,2.17l1.42,2l1.5,1.83l1.83,1.67l1.92,1.41l2.08,1.25l2.25,0.92l2.34,0.669l2.99,0.58l3.09,0.251l3.08,-0.083l3.08,-0.34l3,-0.66l2.34,-0.84l2.16,-1.08l2,-1.42l1.83,-1.67l1.67,-1.83l-8,-8.079l-1.83,1.67l-2.08,1.33l-2.25,1l-2.17,0.58l-2.17,0.17l-2.16,-0.083l-2.17,-0.42l-2.08,-0.75l-1.42,-0.92l-1.25,-1.16l-1,-1.34l-0.75,-1.5l-0.41,-1.66l-0.17,-1.67l31.499,-0l-0.17,-3.92l-0.42,-3.91l-0.83,-3.83l-1.171,-3.75l-1.079,-2.5l-1.42,-2.25l-1.66,-2.17l-2,-1.83l-2.17,-1.589l-2.08,-1.25l-2.25,-0.91l-2.42,-0.67l-2.42,-0.42l-2.408,-0.076Zm-0.25,10.75l1.66,0l1.67,0.33l1.58,0.589l1.42,0.83l1.33,1.08l1.09,1.25l0.83,1.42l0.58,1.58l0.25,1.67l-19.159,-0l0.25,-1.67l0.58,-1.58l0.84,-1.42l1.079,-1.25l1.33,-1.08l1.42,-0.83l1.58,-0.589l1.67,-0.33Z" style="fill:#010001;fill-rule:nonzero;"/></g><g><rect id="path1742" x="434.925" y="726.378" width="30.749" height="94.488" style="fill:#fff;"/><path id="path1744" d="M461.845,785.617l-2.5,0.329l-2.5,0.095l-0.92,-0.095l-0.75,-0.409l-0.66,-0.67l-0.421,-0.75l-0.17,-0.92l0,-52.069l-12.91,-0l0,57.319l0.161,1.75l0.5,1.67l0.75,1.579l1,1.5l1.25,1.25l1.42,1.001l1.67,0.67l1.66,0.499l1.75,0.17l4.08,-0.34l4,-0.5l4,-0.75l-1.41,-11.329Z" style="fill:#010001;fill-rule:nonzero;"/></g><g><rect id="path1798" x="280.953" y="726.378" width="51.489" height="94.488" style="fill:#fff;"/><path id="path1800" d="M298.362,780.447l0.67,1.5l1.171,1.84l1.5,1.66l1.749,1.25l2.08,0.839l1.83,0.251l1.92,-0.251l2,-0.839l1.75,-1.25l1.5,-1.66l1.25,-1.84l1.001,-2.66l11.999,4.5l-0.25,0.499l-1.17,2.75l-1.5,2.5l-1.75,2.25l-2.08,2.08l-2.34,1.75l-2.33,1.25l-2.33,0.92l-2.5,0.75l-2.59,0.41l-2.58,0.17l-2.58,-0.17l-2.5,-0.41l-2.5,-0.75l-2.42,-0.92l-2.25,-1.25l-2.33,-1.75l-2.08,-2.08l-1.84,-2.25l-1.5,-2.5l-1.16,-2.75l-0.17,-0.499l-0.83,-3.34l-0.5,-3.41l-0.17,-3.42l0.17,-3.41l0.5,-3.34l0.83,-3.33l0.17,-0.58l1.16,-2.67l1.5,-2.5l1.84,-2.33l2.08,-2l2.33,-1.84l2.25,-1.159l2.42,-1.001l2.5,-0.67l2.5,-0.499l2.58,-0.17l2.58,0.17l2.59,0.499l2.5,0.67l2.33,1.001l2.33,1.159l2.34,1.84l2.08,2l1.75,2.33l1.5,2.5l1.17,2.67l0.25,0.58l-11.999,4.42l-1.001,-2.67l-1.25,-1.83l-1.5,-1.59l-1.75,-1.25l-2,-0.83l-1.92,-0.25l-1.83,0.25l-2.08,0.83l-1.749,1.25l-1.5,1.59l-1.171,1.83l-0.67,1.58l-0.499,1.59l-0.251,2.58l-0.16,2.58l0.16,2.67l0.251,2.58l0.499,1.58Z" style="fill:#010001;fill-rule:nonzero;"/></g><g><rect id="path17981" serif:id="path1798" x="383.436" y="726.378" width="51.489" height="94.488" style="fill:#fff;"/><path id="path18001" serif:id="path1800" d="M400.846,780.447l0.67,1.5l1.17,1.84l1.5,1.66l1.75,1.25l2.08,0.839l1.83,0.251l1.92,-0.251l2,-0.839l1.75,-1.25l1.5,-1.66l1.25,-1.84l1,-2.66l12,4.5l-0.25,0.499l-1.171,2.75l-1.5,2.5l-1.75,2.25l-2.08,2.08l-2.34,1.75l-2.33,1.25l-2.33,0.92l-2.5,0.75l-2.59,0.41l-2.58,0.17l-2.58,-0.17l-2.499,-0.41l-2.5,-0.75l-2.42,-0.92l-2.25,-1.25l-2.33,-1.75l-2.08,-2.08l-1.84,-2.25l-1.5,-2.5l-1.16,-2.75l-0.17,-0.499l-0.83,-3.34l-0.5,-3.41l-0.17,-3.42l0.17,-3.41l0.5,-3.34l0.83,-3.33l0.17,-0.58l1.16,-2.67l1.5,-2.5l1.84,-2.33l2.08,-2l2.33,-1.84l2.25,-1.159l2.42,-1.001l2.5,-0.67l2.499,-0.499l2.58,-0.17l2.58,0.17l2.59,0.499l2.5,0.67l2.33,1.001l2.33,1.159l2.34,1.84l2.08,2l1.75,2.33l1.5,2.5l1.171,2.67l0.25,0.58l-12,4.42l-1,-2.67l-1.25,-1.83l-1.5,-1.59l-1.75,-1.25l-2,-0.83l-1.92,-0.25l-1.83,0.25l-2.08,0.83l-1.75,1.25l-1.5,1.59l-1.17,1.83l-0.67,1.58l-0.5,1.59l-0.25,2.58l-0.161,2.58l0.161,2.67l0.25,2.58l0.5,1.58Z" style="fill:#010001;fill-rule:nonzero;"/></g><g><rect id="path1762" x="332.442" y="726.378" width="50.995" height="94.488" style="fill:#fff;"/><path id="path1764" d="M346.353,812.535l-4.58,-0.41l-4.501,-0.749l1.58,-11.341l6.671,0.919l1.08,-0.082l1.001,-0.341l1,-0.58l0.751,-0.75l0.5,-0.92l0.34,-1.08l0,-1.079l-0.17,-1.09l-16.162,-45.074l12.992,-0l10.25,28.582l10.251,-28.582l13.082,-0l-20.082,55.994l-0.751,1.581l-1,1.5l-1.25,1.25l-1.41,1l-1.59,0.75l-1.751,0.419l-1.75,0.17l-4.501,-0.087Z" style="fill:#010001;fill-rule:nonzero;"/></g></g></g></g></g></svg>