<?xml version="1.0" encoding="UTF-8" standalone="no"?><!DOCTYPE svg PUBLIC "-//W3C//DTD SVG 1.1//EN" "http://www.w3.org/Graphics/SVG/1.1/DTD/svg11.dtd"><svg width="100%" height="100%" viewBox="0 0 733 1113" version="1.1" xmlns="http://www.w3.org/2000/svg" xmlns:xlink="http://www.w3.org/1999/xlink" xml:space="preserve" xmlns:serif="http://www.serif.com/" style="fill-rule:evenodd;clip-rule:evenodd;stroke-linejoin:round;stroke-miterlimit:2;"><g transform="matrix(50,0,0,50,717.31,503.851)"></g><text x="474.073px" y="503.851px" style="font-family:'ArialMT', 'Arial', sans-serif;font-size:50px;">sw=94.233</text><path d="M732.756,35.433l-0,1042.13c-0,19.556 -15.877,35.433 -35.433,35.433l-661.89,0c-19.556,0 -35.433,-15.877 -35.433,-35.433l0,-1042.13c0,-19.556 15.877,-35.433 35.433,-35.433l661.89,0c19.556,0 35.433,15.877 35.433,35.433Z"/><path d="M715.039,35.433l0,882.677c0,9.778 -7.938,17.717 -17.716,17.717l-661.89,-0c-9.778,-0 -17.716,-7.939 -17.716,-17.717l-0,-882.677c-0,-9.778 7.938,-17.716 17.716,-17.716l661.89,-0c9.778,-0 17.716,7.938 17.716,17.716Z" style="fill:#fff;"/><path d="M715.039,971.26l0,106.299c0,9.778 -7.938,17.717 -17.716,17.717l-661.89,-0c-9.778,-0 -17.716,-7.939 -17.716,-17.717l-0,-106.299c-0,-9.778 7.938,-17.717 17.716,-17.717l661.89,0c9.778,0 17.716,7.939 17.716,17.717Z" style="fill:#fff;"/><g><g><rect x="110.551" y="47.244" width="64.252" height="94.488" style="fill:#fff;"/><path d="M165.572,118.11l-45.79,0l-0,-66.141l43.246,-0l0,13.058l-29.679,0l0,13.313l26.881,0l0,12.211l-26.881,0l0,14.5l32.223,0l0,13.059Z" style="fill-rule:nonzero;"/></g><g><rect x="245.669" y="47.244" width="64.252" height="94.488" style="fill:#fff;"/><path d="M300.69,118.11l-45.79,0l0,-66.141l43.247,-0l-0,13.058l-29.679,0l-0,13.313l26.88,0l0,12.211l-26.88,0l-0,14.5l32.222,0l0,13.059Z" style="fill-rule:nonzero;"/></g><g><rect x="174.803" y="47.244" width="70.866" height="94.488" style="fill:#fff;"/><path d="M240.945,84.7c-0,4.353 -0.594,8.536 -1.781,12.55c-1.187,4.014 -3.053,7.575 -5.596,10.685c-2.544,3.109 -5.781,5.582 -9.71,7.419c-3.929,1.838 -8.635,2.756 -14.118,2.756l-25.1,0l-0,-66.141l25.184,-0c5.427,-0 10.105,0.961 14.034,2.883c3.929,1.922 7.166,4.437 9.71,7.547c2.543,3.109 4.409,6.614 5.596,10.514c1.187,3.901 1.781,7.83 1.781,11.787Zm-14.755,-0.085c0,-2.261 -0.339,-4.579 -1.017,-6.953c-0.679,-2.374 -1.668,-4.522 -2.968,-6.445c-1.3,-1.922 -2.912,-3.505 -4.834,-4.748c-1.922,-1.244 -4.098,-1.866 -6.529,-1.866l-12.211,0l0,40.618l11.617,0c2.77,0 5.159,-0.594 7.166,-1.781c2.007,-1.187 3.66,-2.741 4.96,-4.664c1.301,-1.922 2.262,-4.126 2.883,-6.614c0.622,-2.487 0.933,-5.003 0.933,-7.547Z" style="fill-rule:nonzero;"/></g><g><rect x="539.055" y="47.244" width="67.087" height="94.488" style="fill:#fff;"/><path d="M603.253,118.11l-14.925,0l-3.476,-11.702l-24.507,0l-3.561,11.702l-14.84,0l21.708,-66.141l17.723,-0l21.878,66.141Zm-21.963,-23.404l-8.649,-28.661l-8.649,28.661l17.298,0Z" style="fill-rule:nonzero;"/></g><g><rect x="378.898" y="47.244" width="55.748" height="94.488" style="fill:#fff;"/><path d="M432.767,65.027l-19.04,0l-0,53.083l-13.911,0l0,-53.083l-19.039,0l-0,-13.058l51.99,-0l-0,13.058Z" style="fill-rule:nonzero;"/></g><g><rect x="309.921" y="47.244" width="68.976" height="94.488" style="fill:#fff;"/><path d="M371.744,99.411c-0,2.613 -0.516,5.063 -1.549,7.349c-1.032,2.286 -2.623,4.273 -4.772,5.961c-2.149,1.687 -4.87,3.008 -8.163,3.96c-3.293,0.953 -7.199,1.429 -11.72,1.429c-2.679,0 -5.358,-0.313 -8.037,-0.939c-2.679,-0.626 -5.247,-1.51 -7.703,-2.654c-2.455,-1.143 -4.772,-2.531 -6.948,-4.164c-2.177,-1.633 -4.103,-3.484 -5.777,-5.553l10.716,-8.41c2.065,2.83 4.716,5.049 7.953,6.655c3.238,1.606 6.531,2.463 9.879,2.572c3.851,0.163 6.712,-0.327 8.582,-1.47c1.869,-1.143 2.804,-2.722 2.804,-4.736c0,-2.232 -0.851,-3.906 -2.553,-5.022c-1.702,-1.116 -3.865,-1.973 -6.488,-2.572l-9.461,-2.042c-2.344,-0.544 -4.674,-1.252 -6.99,-2.123c-2.317,-0.871 -4.41,-2.041 -6.279,-3.511c-1.87,-1.47 -3.391,-3.293 -4.563,-5.471c-1.172,-2.177 -1.758,-4.818 -1.758,-7.921c-0,-2.558 0.53,-4.981 1.591,-7.267c1.06,-2.286 2.651,-4.287 4.772,-6.002c2.12,-1.714 4.772,-3.062 7.953,-4.042c3.181,-0.98 6.921,-1.469 11.218,-1.469c5.637,-0 10.647,0.966 15.028,2.898c4.381,1.933 8.051,4.696 11.009,8.288l-11.135,8.329c-1.618,-2.177 -3.725,-3.906 -6.32,-5.185c-2.596,-1.279 -5.456,-1.919 -8.582,-1.919c-3.516,0 -6.195,0.572 -8.037,1.715c-1.842,1.143 -2.763,2.531 -2.763,4.165c0,1.633 0.768,2.994 2.303,4.082c1.535,1.089 4.088,2.042 7.66,2.858l8.288,1.96c7.144,1.688 12.237,4.205 15.279,7.553c3.042,3.348 4.563,7.581 4.563,12.698Z" style="fill-rule:nonzero;"/></g><g><rect x="434.646" y="47.244" width="69.921" height="94.488" style="fill:#fff;"/><path d="M499.843,118.11l-16.78,0l-14.866,-24.506l-8.955,-0l-0,24.506l-15.128,0l0,-66.141l27.908,-0c3.941,-0 7.375,0.551 10.302,1.653c2.927,1.102 5.347,2.6 7.26,4.494c1.912,1.894 3.347,4.141 4.303,6.742c0.956,2.6 1.435,5.427 1.435,8.479c-0,2.657 -0.363,5.003 -1.087,7.039c-0.725,2.035 -1.652,3.773 -2.782,5.215c-1.13,1.441 -2.376,2.642 -3.739,3.603c-1.362,0.961 -2.709,1.725 -4.042,2.29l16.171,26.626Zm-19.301,-45.281c-0,-2.431 -0.783,-4.367 -2.347,-5.809c-1.565,-1.442 -3.652,-2.162 -6.26,-2.162l-12.693,-0l-0,15.857l12.693,0.085c2.608,-0 4.695,-0.735 6.26,-2.205c1.564,-1.47 2.347,-3.392 2.347,-5.766Z" style="fill-rule:nonzero;"/></g><g><rect x="47.244" y="47.244" width="63.307" height="94.488" style="fill:#fff;"/><path d="M108.189,73.677c-0,2.883 -0.435,5.624 -1.304,8.225c-0.87,2.6 -2.217,4.89 -4.043,6.868c-1.826,1.979 -4.158,3.548 -6.998,4.707c-2.84,1.159 -6.202,1.738 -10.085,1.738l-13.476,0l-0,22.895l-14.084,0l-0,-66.141l27.56,-0c3.825,-0 7.158,0.565 9.998,1.695c2.84,1.131 5.173,2.686 6.998,4.664c1.826,1.979 3.188,4.283 4.086,6.911c0.899,2.629 1.348,5.441 1.348,8.438Zm-14.867,-0c0,-2.714 -0.826,-4.862 -2.477,-6.445c-1.652,-1.583 -3.869,-2.374 -6.651,-2.374l-11.911,-0l-0,17.468l11.998,-0c2.782,-0 4.984,-0.749 6.607,-2.247c1.623,-1.498 2.434,-3.632 2.434,-6.402Z" style="fill-rule:nonzero;"/></g><g><rect x="606.142" y="47.244" width="79.37" height="94.488" style="fill:#fff;"/><path d="M675.647,118.11l-14.492,0l-31.238,-43.331l-0,43.331l-13.911,0l0,-66.141l14.519,-0l31.212,43.416l-0,-43.416l13.91,-0l0,66.141Z" style="fill-rule:nonzero;"/></g><g><rect x="504.567" y="47.244" width="34.488" height="94.488" style="fill:#fff;"/><rect x="514.928" y="52.465" width="13.767" height="66.142" style="fill-rule:nonzero;"/></g></g><g><g><rect x="488.031" y="153.543" width="107.087" height="157.48" style="fill:#fff;"/><path d="M579.733,271.654l-76.317,-0l0,-110.237l72.078,0l-0,21.765l-49.465,-0l-0,22.188l44.801,0l-0,20.352l-44.801,-0l-0,24.167l53.704,-0l0,21.765Z" style="fill-rule:nonzero;"/></g><g><rect x="231.339" y="153.543" width="124.409" height="157.48" style="fill:#fff;"/><path d="M345.873,216.875c0,7.793 -1.115,15.043 -3.344,21.748c-2.23,6.706 -5.528,12.506 -9.895,17.399c-4.367,4.893 -9.825,8.722 -16.375,11.486c-6.55,2.764 -14.145,4.146 -22.785,4.146c-8.641,-0 -16.213,-1.405 -22.716,-4.214c-6.504,-2.809 -11.939,-6.661 -16.305,-11.554c-4.367,-4.893 -7.665,-10.693 -9.895,-17.398c-2.23,-6.706 -3.345,-13.956 -3.345,-21.749c0,-7.974 1.069,-15.337 3.206,-22.088c2.137,-6.751 5.365,-12.596 9.685,-17.534c4.32,-4.939 9.756,-8.79 16.305,-11.554c6.55,-2.764 14.238,-4.146 23.065,-4.146c8.733,0 16.374,1.405 22.924,4.214c6.55,2.809 12.009,6.683 16.375,11.622c4.367,4.938 7.642,10.806 9.825,17.602c2.184,6.797 3.275,14.137 3.275,22.02Zm-24.249,0c0,-4.712 -0.487,-9.175 -1.463,-13.388c-0.975,-4.214 -2.578,-7.907 -4.808,-11.078c-2.23,-3.172 -5.133,-5.664 -8.71,-7.476c-3.577,-1.813 -7.92,-2.719 -13.03,-2.719c-5.11,0 -9.453,0.929 -13.03,2.787c-3.577,1.857 -6.48,4.349 -8.71,7.475c-2.23,3.127 -3.856,6.797 -4.878,11.011c-1.022,4.213 -1.533,8.676 -1.533,13.388c0,4.984 0.488,9.56 1.463,13.729c0.976,4.168 2.579,7.77 4.808,10.806c2.23,3.036 5.133,5.392 8.71,7.068c3.577,1.677 7.967,2.515 13.17,2.515c5.296,-0 9.732,-0.838 13.309,-2.515c3.577,-1.676 6.457,-4.032 8.64,-7.068c2.184,-3.036 3.74,-6.638 4.669,-10.806c0.929,-4.169 1.393,-8.745 1.393,-13.729Z" style="fill-rule:nonzero;"/></g><g><rect x="355.748" y="153.543" width="132.283" height="157.48" style="fill:#fff;"/><path d="M471.59,271.654l-24.153,-0l-52.064,-72.219l0,72.219l-23.184,-0l0,-110.237l24.198,0l52.019,72.361l0,-72.361l23.184,0l0,110.237Z" style="fill-rule:nonzero;"/></g><g><rect x="137.638" y="153.543" width="93.701" height="157.48" style="fill:#fff;"/><path d="M224.988,249.889l-0.145,21.765l-80.854,-0l-0,-21.765l50.135,-66.566l-48.396,0l-0,-21.906l77.376,0l-0,21.906l-49.99,66.566l51.874,-0Z" style="fill-rule:nonzero;"/></g></g><g id="_617-No-Vehicles" serif:id="617 No Vehicles"><circle cx="365.197" cy="567.323" r="226.772" style="fill:#e31837;"/><circle cx="365.197" cy="567.323" r="181.417" style="fill:#fff;"/></g><g><g><g><rect id="path1698" x="424.606" y="823.622" width="25.984" height="94.488" style="fill:#fff;"/><path d="M444.223,835.751c-0,2.108 -0.721,3.883 -2.163,5.325c-1.442,1.442 -3.189,2.163 -5.242,2.163c-2.107,-0 -3.882,-0.721 -5.324,-2.163c-1.442,-1.442 -2.163,-3.217 -2.163,-5.325c-0,-2.052 0.721,-3.799 2.163,-5.241c1.442,-1.443 3.217,-2.164 5.324,-2.164c2.053,0 3.8,0.721 5.242,2.164c1.442,1.442 2.163,3.189 2.163,5.241Zm-0.832,58.737l-13.145,0l-0,-47.256l13.145,0l0,47.256Z" style="fill-rule:nonzero;"/></g><g><rect id="path16981" serif:id="path1698" x="368.386" y="823.622" width="56.22" height="94.488" style="fill:#fff;"/><path d="M417.483,894.488l-13.567,0l-0,-30.951c-0,-2.204 -0.58,-3.9 -1.739,-5.088c-1.158,-1.187 -2.812,-1.78 -4.96,-1.78c-2.431,-0 -4.424,0.706 -5.978,2.12c-1.555,1.413 -2.332,3.448 -2.332,6.105l-0,29.594l-13.398,0l-0,-66.142l13.398,0l0.026,20.606c1.473,-1.244 3.215,-2.205 5.226,-2.883c2.011,-0.678 3.98,-1.018 5.905,-1.018c2.776,0 5.255,0.424 7.436,1.272c2.181,0.848 4.007,2.021 5.48,3.52c1.472,1.498 2.591,3.278 3.356,5.342c0.765,2.063 1.147,4.339 1.147,6.826l0,32.477Z" style="fill-rule:nonzero;"/></g><g><rect id="path16982" serif:id="path1698" x="265.866" y="823.622" width="50.551" height="94.488" style="fill:#fff;"/><path d="M314.446,847.179l-15.98,47.244l-14.649,0l-15.98,-47.244l13.816,0l9.489,28.945l9.405,-28.945l13.899,0Z" style="fill-rule:nonzero;"/></g><g><rect id="path16983" serif:id="path1698" x="582.874" y="823.622" width="47.244" height="94.488" style="fill:#fff;"/><path d="M625.998,880.184c-0,2.093 -0.405,4.016 -1.216,5.769c-0.811,1.752 -2.028,3.27 -3.65,4.551c-1.622,1.282 -3.623,2.276 -6.003,2.983c-2.381,0.706 -5.141,1.059 -8.28,1.059c-3.976,0 -7.586,-0.589 -10.83,-1.766c-3.244,-1.177 -6.252,-2.917 -9.025,-5.219l7.063,-8.161c2.198,1.831 4.447,3.047 6.749,3.649c2.302,0.602 4.291,0.902 5.965,0.902c2.354,0 3.976,-0.34 4.865,-1.02c0.89,-0.68 1.335,-1.517 1.335,-2.511c-0,-0.576 -0.406,-1.19 -1.217,-1.844c-0.811,-0.654 -2.158,-1.191 -4.042,-1.609l-7.769,-1.884c-1.465,-0.314 -2.917,-0.811 -4.355,-1.491c-1.439,-0.68 -2.734,-1.543 -3.885,-2.59c-1.151,-1.046 -2.08,-2.302 -2.786,-3.767c-0.706,-1.464 -1.06,-3.165 -1.06,-5.101c0,-2.145 0.458,-4.12 1.374,-5.925c0.915,-1.805 2.21,-3.374 3.884,-4.708c1.675,-1.335 3.65,-2.368 5.926,-3.1c2.275,-0.733 4.8,-1.099 7.573,-1.099c4.081,-0 7.625,0.549 10.634,1.648c3.008,1.099 5.637,2.616 7.887,4.552l-7.063,8.161c-1.675,-1.307 -3.388,-2.275 -5.141,-2.903c-1.752,-0.628 -3.649,-0.942 -5.689,-0.942c-2.198,0 -3.82,0.406 -4.866,1.216c-1.046,0.811 -1.57,1.688 -1.57,2.629c0,0.157 0.027,0.367 0.079,0.628c0.052,0.262 0.222,0.537 0.51,0.824c0.288,0.288 0.693,0.576 1.216,0.864c0.524,0.287 1.256,0.536 2.198,0.745l8.162,1.962c1.621,0.419 3.204,0.942 4.747,1.57c1.544,0.628 2.93,1.465 4.16,2.511c1.229,1.046 2.223,2.328 2.982,3.845c0.759,1.518 1.138,3.375 1.138,5.572Z" style="fill-rule:nonzero;"/></g><g><rect id="path16984" serif:id="path1698" x="501.142" y="823.622" width="29.764" height="94.488" style="fill:#fff;"/><path d="M529.724,893.077c-1.438,0.443 -2.96,0.789 -4.564,1.038c-1.604,0.249 -3.181,0.373 -4.73,0.373c-2.49,0 -4.634,-0.332 -6.432,-0.996c-1.798,-0.664 -3.264,-1.604 -4.398,-2.821c-1.134,-1.217 -1.964,-2.697 -2.49,-4.44c-0.526,-1.743 -0.788,-3.665 -0.788,-5.768l-0,-52.117l13.029,0l-0,49.959c-0,2.877 1.355,4.316 4.066,4.316c0.83,-0 1.632,-0.069 2.407,-0.208c0.775,-0.138 1.632,-0.373 2.573,-0.705l1.327,11.369Z" style="fill-rule:nonzero;"/></g><g><rect id="path16985" serif:id="path1698" x="316.417" y="823.622" width="51.969" height="94.488" style="fill:#fff;"/><path d="M364.06,872.835l-0.157,1.968l-30.472,0c0.052,1.26 0.367,2.428 0.944,3.504c0.578,1.076 1.339,2.021 2.284,2.835c0.945,0.813 2.034,1.443 3.268,1.889c1.233,0.447 2.532,0.67 3.897,0.67c3.937,-0 7.323,-1.313 10.158,-3.937l6.614,8.11c-2.257,2.152 -4.738,3.793 -7.441,4.921c-2.703,1.129 -5.787,1.693 -9.252,1.693c-3.727,0 -7.034,-0.617 -9.921,-1.85c-2.887,-1.234 -5.315,-2.94 -7.284,-5.118c-1.968,-2.179 -3.464,-4.712 -4.488,-7.599c-1.024,-2.887 -1.535,-5.984 -1.535,-9.291c-0,-3.202 0.485,-6.234 1.456,-9.095c0.971,-2.86 2.376,-5.341 4.213,-7.441c1.837,-2.099 4.121,-3.766 6.85,-5c2.73,-1.233 5.827,-1.85 9.292,-1.85c3.832,0 7.165,0.683 10,2.047c2.834,1.365 5.144,3.202 6.929,5.512c1.785,2.31 3.058,5.026 3.819,8.15c0.761,3.123 1.036,6.417 0.826,9.882Zm-12.362,-6.851c0,-2.414 -0.879,-4.396 -2.638,-5.945c-1.758,-1.548 -3.923,-2.322 -6.496,-2.322c-2.467,-0 -4.514,0.826 -6.141,2.48c-1.628,1.653 -2.573,3.583 -2.835,5.787l18.11,0Z" style="fill-rule:nonzero;"/></g><g><rect id="path16986" serif:id="path1698" x="530.906" y="823.622" width="51.969" height="94.488" style="fill:#fff;"/><path d="M578.549,872.835l-0.158,1.968l-30.472,0c0.052,1.26 0.367,2.428 0.945,3.504c0.577,1.076 1.338,2.021 2.283,2.835c0.945,0.813 2.034,1.443 3.268,1.889c1.233,0.447 2.533,0.67 3.897,0.67c3.937,-0 7.323,-1.313 10.158,-3.937l6.614,8.11c-2.257,2.152 -4.737,3.793 -7.441,4.921c-2.703,1.129 -5.787,1.693 -9.252,1.693c-3.727,0 -7.034,-0.617 -9.921,-1.85c-2.887,-1.234 -5.315,-2.94 -7.284,-5.118c-1.968,-2.179 -3.464,-4.712 -4.488,-7.599c-1.023,-2.887 -1.535,-5.984 -1.535,-9.291c-0,-3.202 0.485,-6.234 1.456,-9.095c0.972,-2.86 2.376,-5.341 4.213,-7.441c1.837,-2.099 4.121,-3.766 6.85,-5c2.73,-1.233 5.827,-1.85 9.292,-1.85c3.832,0 7.165,0.683 10,2.047c2.834,1.365 5.144,3.202 6.929,5.512c1.785,2.31 3.058,5.026 3.819,8.15c0.761,3.123 1.037,6.417 0.827,9.882Zm-12.363,-6.851c0,-2.414 -0.879,-4.396 -2.637,-5.945c-1.759,-1.548 -3.924,-2.322 -6.496,-2.322c-2.468,-0 -4.515,0.826 -6.142,2.48c-1.627,1.653 -2.572,3.583 -2.835,5.787l18.11,0Z" style="fill-rule:nonzero;"/></g><g><rect id="path16987" serif:id="path1698" x="450.591" y="823.622" width="50.551" height="94.488" style="fill:#fff;"/><path d="M496.741,860.193l-10.28,4.944c-1.936,-4.709 -4.997,-7.063 -9.182,-7.063c-1.622,0 -3.035,0.366 -4.238,1.099c-1.203,0.732 -2.211,1.7 -3.022,2.904c-0.81,1.203 -1.425,2.589 -1.844,4.159c-0.418,1.569 -0.628,3.165 -0.628,4.787c0,1.674 0.223,3.27 0.667,4.787c0.445,1.518 1.099,2.852 1.962,4.003c0.864,1.151 1.91,2.079 3.14,2.786c1.229,0.706 2.629,1.059 4.198,1.059c1.988,0 3.728,-0.549 5.219,-1.648c1.491,-1.099 2.786,-2.904 3.885,-5.415l10.123,5.023c-1.831,3.871 -4.394,6.984 -7.69,9.339c-3.297,2.354 -7.142,3.531 -11.537,3.531c-3.714,0 -6.98,-0.615 -9.797,-1.844c-2.816,-1.23 -5.161,-2.917 -7.033,-5.062c-1.872,-2.145 -3.289,-4.643 -4.25,-7.495c-0.962,-2.851 -1.443,-5.925 -1.443,-9.221c-0,-2.93 0.442,-5.807 1.325,-8.633c0.884,-2.825 2.236,-5.349 4.056,-7.573c1.82,-2.223 4.112,-4.015 6.876,-5.375c2.763,-1.361 6.055,-2.041 9.874,-2.041c4.552,0 8.554,1.19 12.007,3.571c3.453,2.38 5.991,5.506 7.612,9.378Z" style="fill-rule:nonzero;"/></g></g><g><g><rect id="path16988" serif:id="path1698" x="182.008" y="823.622" width="54.331" height="94.488" style="fill:#fff;"/><path d="M231.618,871.415c0,3.297 -0.523,6.357 -1.569,9.182c-1.047,2.826 -2.538,5.259 -4.474,7.299c-1.936,2.04 -4.29,3.649 -7.063,4.826c-2.773,1.178 -5.86,1.766 -9.26,1.766c-3.401,0 -6.488,-0.575 -9.261,-1.726c-2.773,-1.151 -5.14,-2.76 -7.102,-4.827c-1.962,-2.066 -3.479,-4.512 -4.552,-7.338c-1.072,-2.825 -1.609,-5.885 -1.609,-9.182c0,-3.4 0.484,-6.579 1.452,-9.535c0.968,-2.956 2.407,-5.519 4.317,-7.691c1.909,-2.171 4.264,-3.871 7.063,-5.101c2.799,-1.229 6.029,-1.844 9.692,-1.844c3.61,0 6.814,0.628 9.613,1.884c2.799,1.255 5.141,2.969 7.024,5.14c1.884,2.171 3.309,4.735 4.277,7.691c0.968,2.956 1.452,6.108 1.452,9.456Zm-12.321,0c-0,-1.831 -0.249,-3.544 -0.746,-5.14c-0.497,-1.596 -1.177,-2.995 -2.04,-4.198c-0.863,-1.204 -1.923,-2.159 -3.178,-2.865c-1.256,-0.706 -2.616,-1.059 -4.081,-1.059c-1.518,-0 -2.904,0.353 -4.16,1.059c-1.255,0.706 -2.328,1.661 -3.217,2.865c-0.89,1.203 -1.57,2.602 -2.041,4.198c-0.471,1.596 -0.706,3.309 -0.706,5.14c-0,3.611 0.916,6.54 2.747,8.79c1.831,2.25 4.29,3.375 7.377,3.375c3.034,-0 5.467,-1.125 7.298,-3.375c1.831,-2.25 2.747,-5.179 2.747,-8.79Z" style="fill-rule:nonzero;"/></g><g><rect x="102.638" y="823.622" width="79.37" height="94.488" style="fill:#fff;"/><path d="M172.143,894.488l-14.492,0l-31.238,-43.331l-0,43.331l-13.91,0l-0,-66.142l14.518,0l31.212,43.417l-0,-43.417l13.91,0l0,66.142Z" style="fill-rule:nonzero;"/></g></g></g><g><g><g><rect id="path16989" serif:id="path1698" x="339.094" y="983.071" width="39.685" height="94.488" style="fill:#fff;"/><path d="M375.555,1051.59c-1.371,0.603 -3.044,1.11 -5.019,1.522c-1.974,0.411 -4.168,0.617 -6.581,0.617c-4.387,-0 -7.842,-1.029 -10.365,-3.085c-2.523,-2.057 -3.784,-5.389 -3.784,-9.996l-0,-24.186l-7.487,0l0,-10.941l7.487,-0l-0,-12.093l12.915,-5.841l0,17.934l11.929,-0l-0,10.941l-11.929,0l0,20.155c0,2.249 0.343,3.743 1.029,4.484c0.685,0.74 1.823,1.11 3.414,1.11c2.029,0 4.14,-0.438 6.334,-1.316l2.057,10.695Z" style="fill-rule:nonzero;"/></g><g><g><rect id="path169810" serif:id="path1698" x="282.402" y="983.071" width="56.693" height="94.488" style="fill:#fff;"/><path d="M333.41,1030.35c-0,3.259 -0.482,6.379 -1.447,9.362c-0.964,2.982 -2.369,5.62 -4.214,7.912c-1.846,2.292 -4.133,4.114 -6.86,5.467c-2.727,1.354 -5.827,2.03 -9.298,2.03c-1.928,0 -3.788,-0.304 -5.578,-0.911c-1.791,-0.608 -3.402,-1.464 -4.835,-2.568l-0,17.646l-13.091,-0l-0,-62.631l13.091,-0l-0.023,2.485c1.268,-1.16 2.811,-2.085 4.631,-2.775c1.82,-0.691 3.777,-1.036 5.872,-1.036c3.419,0 6.479,0.704 9.181,2.113c2.701,1.408 4.975,3.272 6.822,5.592c1.847,2.319 3.267,4.984 4.26,7.994c0.992,3.01 1.489,6.117 1.489,9.32Zm-13.258,0c0,-1.601 -0.248,-3.175 -0.745,-4.722c-0.498,-1.546 -1.202,-2.913 -2.113,-4.101c-0.912,-1.187 -2.03,-2.154 -3.356,-2.899c-1.326,-0.746 -2.817,-1.119 -4.474,-1.119c-0.829,0 -1.74,0.138 -2.735,0.415c-0.994,0.276 -1.905,0.69 -2.734,1.242c-0.828,0.552 -1.519,1.243 -2.071,2.071c-0.553,0.829 -0.829,1.795 -0.829,2.9l0,12.178c0,1.05 0.249,2.002 0.746,2.858c0.497,0.856 1.132,1.574 1.906,2.154c0.773,0.58 1.643,1.036 2.61,1.367c0.966,0.332 1.919,0.497 2.858,0.497c1.713,0 3.259,-0.345 4.64,-1.035c1.381,-0.691 2.527,-1.616 3.439,-2.776c0.911,-1.159 1.615,-2.512 2.113,-4.059c0.497,-1.546 0.745,-3.203 0.745,-4.971Z" style="fill-rule:nonzero;"/></g></g><g><rect id="path169811" serif:id="path1698" x="127.913" y="983.071" width="51.969" height="94.488" style="fill:#fff;"/><path d="M178.701,1053.94l-15.065,0l-9.738,-14.556l-9.739,14.556l-15.065,0l17.729,-24.787l-15.897,-22.457l14.981,-0l7.991,12.06l7.907,-12.06l15.065,-0l-15.814,22.291l17.645,24.953Z" style="fill-rule:nonzero;"/></g><g><rect id="path169812" serif:id="path1698" x="230.433" y="983.071" width="51.969" height="94.488" style="fill:#fff;"/><path d="M278.076,1032.28l-0.157,1.969l-30.473,-0c0.053,1.26 0.368,2.428 0.945,3.504c0.578,1.076 1.339,2.021 2.284,2.835c0.944,0.813 2.034,1.443 3.267,1.889c1.234,0.447 2.533,0.67 3.898,0.67c3.937,-0 7.323,-1.313 10.157,-3.937l6.615,8.11c-2.258,2.152 -4.738,3.792 -7.441,4.921c-2.704,1.129 -5.788,1.693 -9.252,1.693c-3.727,0 -7.034,-0.617 -9.922,-1.85c-2.887,-1.234 -5.315,-2.94 -7.283,-5.118c-1.969,-2.179 -3.465,-4.712 -4.488,-7.599c-1.024,-2.887 -1.536,-5.984 -1.536,-9.291c0,-3.202 0.486,-6.234 1.457,-9.095c0.971,-2.861 2.375,-5.341 4.213,-7.441c1.837,-2.099 4.12,-3.766 6.85,-5c2.73,-1.233 5.827,-1.85 9.291,-1.85c3.832,-0 7.166,0.682 10,2.047c2.835,1.365 5.145,3.202 6.93,5.512c1.784,2.31 3.057,5.026 3.818,8.15c0.762,3.123 1.037,6.417 0.827,9.881Zm-12.362,-6.85c-0,-2.415 -0.879,-4.396 -2.638,-5.945c-1.758,-1.548 -3.924,-2.323 -6.496,-2.323c-2.467,0 -4.514,0.827 -6.142,2.481c-1.627,1.653 -2.572,3.582 -2.834,5.787l18.11,0Z" style="fill-rule:nonzero;"/></g><g><rect id="path169813" serif:id="path1698" x="179.882" y="983.071" width="50.551" height="94.488" style="fill:#fff;"/><path d="M226.033,1019.64l-10.281,4.944c-1.936,-4.709 -4.996,-7.063 -9.182,-7.063c-1.622,-0 -3.034,0.366 -4.238,1.099c-1.203,0.732 -2.21,1.7 -3.021,2.903c-0.811,1.204 -1.426,2.59 -1.844,4.16c-0.419,1.569 -0.628,3.165 -0.628,4.787c-0,1.674 0.222,3.27 0.667,4.787c0.445,1.517 1.099,2.851 1.962,4.003c0.863,1.151 1.909,2.079 3.139,2.786c1.229,0.706 2.629,1.059 4.199,1.059c1.988,-0 3.727,-0.549 5.218,-1.648c1.491,-1.099 2.786,-2.904 3.885,-5.415l10.124,5.023c-1.831,3.871 -4.395,6.984 -7.691,9.338c-3.296,2.355 -7.142,3.532 -11.536,3.532c-3.715,0 -6.981,-0.615 -9.797,-1.844c-2.817,-1.23 -5.161,-2.917 -7.033,-5.062c-1.872,-2.145 -3.289,-4.643 -4.251,-7.495c-0.962,-2.851 -1.443,-5.925 -1.443,-9.221c0,-2.93 0.442,-5.807 1.326,-8.633c0.883,-2.825 2.235,-5.349 4.055,-7.573c1.821,-2.223 4.112,-4.015 6.876,-5.376c2.763,-1.36 6.055,-2.04 9.874,-2.04c4.552,-0 8.554,1.19 12.007,3.571c3.453,2.38 5.991,5.506 7.613,9.378Z" style="fill-rule:nonzero;"/></g><g><rect x="63.661" y="983.071" width="64.252" height="94.488" style="fill:#fff;"/><path d="M118.683,1053.94l-45.791,0l0,-66.142l43.247,0l-0,13.059l-29.679,0l-0,13.313l26.88,0l0,12.211l-26.88,-0l-0,14.5l32.223,0l-0,13.059Z" style="fill-rule:nonzero;"/></g></g><g><g><rect id="path169814" serif:id="path1698" x="408.307" y="983.071" width="57.638" height="94.488" style="fill:#fff;"/><path d="M459.179,1030.03c-0,3.375 -0.491,6.58 -1.473,9.618c-0.981,3.037 -2.426,5.694 -4.333,7.972c-1.908,2.278 -4.278,4.092 -7.111,5.442c-2.833,1.349 -6.073,2.024 -9.719,2.024c-1.851,0 -3.688,-0.365 -5.512,-1.096c-1.823,-0.732 -3.38,-1.688 -4.67,-2.869l0,2.531l-13.33,0l0,-65.889l13.33,0l-0.024,20.079c1.46,-1.125 3.102,-1.996 4.926,-2.615c1.825,-0.619 3.72,-0.928 5.685,-0.928c3.537,-0 6.695,0.717 9.473,2.151c2.779,1.434 5.109,3.333 6.989,5.695c1.881,2.362 3.313,5.09 4.295,8.183c0.983,3.093 1.474,6.327 1.474,9.702Zm-13.498,-0.169c-0,-3.937 -0.971,-7.157 -2.911,-9.659c-1.94,-2.503 -4.682,-3.755 -8.226,-3.755c-0.956,0 -1.926,0.169 -2.91,0.507c-0.984,0.337 -1.87,0.815 -2.658,1.434c-0.787,0.618 -1.434,1.35 -1.94,2.193c-0.506,0.844 -0.759,1.8 -0.759,2.869l-0,12.401c-0,1.125 0.281,2.109 0.843,2.953c0.563,0.844 1.266,1.547 2.109,2.109c0.844,0.562 1.772,0.984 2.784,1.266c1.013,0.281 1.941,0.421 2.785,0.421c1.687,0 3.205,-0.337 4.555,-1.012c1.35,-0.675 2.489,-1.589 3.417,-2.742c0.928,-1.153 1.645,-2.503 2.151,-4.049c0.506,-1.547 0.76,-3.192 0.76,-4.936Z" style="fill-rule:nonzero;"/></g><g><rect id="path169815" serif:id="path1698" x="465.945" y="983.071" width="56.693" height="94.488" style="fill:#fff;"/><path d="M515.099,1053.88l-13.317,0l0,-2.985c-1.443,1.327 -3.177,2.377 -5.202,3.151c-2.025,0.774 -3.981,1.161 -5.868,1.161c-2.829,-0 -5.312,-0.415 -7.449,-1.244c-2.136,-0.829 -3.939,-1.976 -5.41,-3.441c-1.47,-1.465 -2.566,-3.179 -3.287,-5.141c-0.722,-1.963 -1.082,-4.105 -1.082,-6.426l-0,-32.173l13.317,-0l-0,29.436c-0,2.488 0.579,4.284 1.738,5.39c1.158,1.106 2.814,1.658 4.966,1.658c1.049,0 2.07,-0.138 3.063,-0.414c0.993,-0.277 1.876,-0.719 2.648,-1.327c0.773,-0.608 1.394,-1.396 1.863,-2.363c0.469,-0.967 0.703,-2.17 0.703,-3.607l0,-28.773l13.317,-0l0,47.098Z" style="fill-rule:nonzero;"/></g><g><rect id="path169816" serif:id="path1698" x="522.638" y="983.071" width="47.244" height="94.488" style="fill:#fff;"/><path d="M565.762,1039.63c-0,2.093 -0.406,4.016 -1.217,5.768c-0.811,1.753 -2.027,3.27 -3.649,4.552c-1.622,1.282 -3.623,2.276 -6.004,2.982c-2.38,0.707 -5.14,1.06 -8.279,1.06c-3.976,-0 -7.586,-0.589 -10.83,-1.766c-3.244,-1.177 -6.252,-2.917 -9.025,-5.219l7.063,-8.162c2.197,1.832 4.447,3.048 6.749,3.65c2.302,0.601 4.29,0.902 5.965,0.902c2.354,0 3.976,-0.34 4.865,-1.02c0.89,-0.68 1.334,-1.517 1.334,-2.511c0,-0.576 -0.405,-1.191 -1.216,-1.845c-0.811,-0.654 -2.158,-1.19 -4.042,-1.608l-7.769,-1.884c-1.465,-0.314 -2.917,-0.811 -4.356,-1.491c-1.438,-0.68 -2.733,-1.543 -3.884,-2.59c-1.151,-1.046 -2.08,-2.302 -2.786,-3.767c-0.707,-1.465 -1.06,-3.165 -1.06,-5.101c0,-2.145 0.458,-4.12 1.374,-5.925c0.915,-1.805 2.21,-3.375 3.884,-4.709c1.674,-1.334 3.65,-2.367 5.925,-3.1c2.276,-0.732 4.801,-1.098 7.574,-1.098c4.08,-0 7.625,0.549 10.633,1.648c3.009,1.098 5.638,2.616 7.888,4.552l-7.064,8.161c-1.674,-1.308 -3.387,-2.276 -5.14,-2.903c-1.753,-0.628 -3.649,-0.942 -5.69,-0.942c-2.197,-0 -3.819,0.405 -4.865,1.216c-1.047,0.811 -1.57,1.688 -1.57,2.629c0,0.157 0.026,0.367 0.079,0.628c0.052,0.262 0.222,0.536 0.51,0.824c0.287,0.288 0.693,0.576 1.216,0.863c0.523,0.288 1.256,0.537 2.198,0.746l8.161,1.962c1.622,0.418 3.205,0.942 4.748,1.57c1.544,0.627 2.93,1.464 4.16,2.511c1.229,1.046 2.223,2.328 2.982,3.845c0.758,1.518 1.138,3.375 1.138,5.572Z" style="fill-rule:nonzero;"/></g><g><rect id="path169817" serif:id="path1698" x="621.85" y="983.071" width="47.244" height="94.488" style="fill:#fff;"/><path d="M664.974,1039.63c0,2.093 -0.405,4.016 -1.216,5.768c-0.811,1.753 -2.027,3.27 -3.649,4.552c-1.622,1.282 -3.623,2.276 -6.004,2.982c-2.38,0.707 -5.14,1.06 -8.279,1.06c-3.977,-0 -7.587,-0.589 -10.83,-1.766c-3.244,-1.177 -6.253,-2.917 -9.025,-5.219l7.063,-8.162c2.197,1.832 4.447,3.048 6.749,3.65c2.302,0.601 4.29,0.902 5.964,0.902c2.354,0 3.976,-0.34 4.866,-1.02c0.889,-0.68 1.334,-1.517 1.334,-2.511c-0,-0.576 -0.406,-1.191 -1.216,-1.845c-0.811,-0.654 -2.159,-1.19 -4.042,-1.608l-7.77,-1.884c-1.464,-0.314 -2.916,-0.811 -4.355,-1.491c-1.439,-0.68 -2.734,-1.543 -3.885,-2.59c-1.151,-1.046 -2.079,-2.302 -2.786,-3.767c-0.706,-1.465 -1.059,-3.165 -1.059,-5.101c-0,-2.145 0.458,-4.12 1.373,-5.925c0.916,-1.805 2.211,-3.375 3.885,-4.709c1.674,-1.334 3.649,-2.367 5.925,-3.1c2.276,-0.732 4.8,-1.098 7.573,-1.098c4.081,-0 7.626,0.549 10.634,1.648c3.008,1.098 5.637,2.616 7.887,4.552l-7.063,8.161c-1.674,-1.308 -3.388,-2.276 -5.14,-2.903c-1.753,-0.628 -3.65,-0.942 -5.69,-0.942c-2.197,-0 -3.819,0.405 -4.866,1.216c-1.046,0.811 -1.569,1.688 -1.569,2.629c-0,0.157 0.026,0.367 0.078,0.628c0.053,0.262 0.223,0.536 0.51,0.824c0.288,0.288 0.694,0.576 1.217,0.863c0.523,0.288 1.255,0.537 2.197,0.746l8.162,1.962c1.622,0.418 3.204,0.942 4.748,1.57c1.543,0.627 2.93,1.464 4.159,2.511c1.23,1.046 2.224,2.328 2.982,3.845c0.759,1.518 1.138,3.375 1.138,5.572Z" style="fill-rule:nonzero;"/></g><g><rect id="path169818" serif:id="path1698" x="569.882" y="983.071" width="51.969" height="94.488" style="fill:#fff;"/><path d="M617.525,1032.28l-0.157,1.969l-30.473,-0c0.053,1.26 0.368,2.428 0.945,3.504c0.577,1.076 1.339,2.021 2.283,2.835c0.945,0.813 2.035,1.443 3.268,1.889c1.234,0.447 2.533,0.67 3.898,0.67c3.937,-0 7.323,-1.313 10.157,-3.937l6.614,8.11c-2.257,2.152 -4.737,3.792 -7.441,4.921c-2.703,1.129 -5.787,1.693 -9.251,1.693c-3.728,0 -7.035,-0.617 -9.922,-1.85c-2.887,-1.234 -5.315,-2.94 -7.283,-5.118c-1.969,-2.179 -3.465,-4.712 -4.488,-7.599c-1.024,-2.887 -1.536,-5.984 -1.536,-9.291c0,-3.202 0.486,-6.234 1.457,-9.095c0.971,-2.861 2.375,-5.341 4.212,-7.441c1.838,-2.099 4.121,-3.766 6.851,-5c2.73,-1.233 5.827,-1.85 9.291,-1.85c3.832,-0 7.166,0.682 10,2.047c2.835,1.365 5.145,3.202 6.929,5.512c1.785,2.31 3.058,5.026 3.819,8.15c0.761,3.123 1.037,6.417 0.827,9.881Zm-12.362,-6.85c-0,-2.415 -0.879,-4.396 -2.638,-5.945c-1.759,-1.548 -3.924,-2.323 -6.496,-2.323c-2.467,0 -4.514,0.827 -6.142,2.481c-1.627,1.653 -2.572,3.582 -2.834,5.787l18.11,0Z" style="fill-rule:nonzero;"/></g></g></g></svg>