<?xml version="1.0" encoding="UTF-8" standalone="no"?><!DOCTYPE svg PUBLIC "-//W3C//DTD SVG 1.1//EN" "http://www.w3.org/Graphics/SVG/1.1/DTD/svg11.dtd"><svg width="100%" height="100%" viewBox="0 0 851 2076" version="1.1" xmlns="http://www.w3.org/2000/svg" xmlns:xlink="http://www.w3.org/1999/xlink" xml:space="preserve" xmlns:serif="http://www.serif.com/" style="fill-rule:evenodd;clip-rule:evenodd;stroke-linejoin:round;stroke-miterlimit:2;"><g transform="matrix(50,0,0,50,561.322,2052.47)"></g><text x="290.277px" y="2052.47px" style="font-family:'ArialMT', 'Arial', sans-serif;font-size:50px;">sw=175.733</text><rect x="0" y="0" width="850.866" height="2075.59" style="fill:#999;"/><g><path d="M791.811,94.486l0,1886.61c0,19.556 -15.877,35.433 -35.433,35.433l-661.89,0c-19.556,0 -35.433,-15.877 -35.433,-35.433l0,-1886.61c0,-19.556 15.877,-35.433 35.433,-35.433l661.89,0c19.556,0 35.433,15.877 35.433,35.433Z"/><g><path d="M774.094,1124.8l0,590.551c0,9.778 -7.938,17.717 -17.716,17.717l-661.89,-0c-9.778,-0 -17.716,-7.939 -17.716,-17.717l-0,-590.551c-0,-9.778 7.938,-17.716 17.716,-17.716l661.89,-0c9.778,-0 17.716,7.938 17.716,17.716Z" style="fill:#fff;"/><g><g><g id="Parking-Place-Reserved-for-Disabled-Badge-Holders" serif:id="Parking Place Reserved for Disabled Badge Holders"><path d="M680.433,1148.42c0,-6.518 -5.292,-11.811 -11.811,-11.811l-141.732,0c-6.519,0 -11.811,5.293 -11.811,11.811l-0,141.733c-0,6.518 5.292,11.811 11.811,11.811l141.732,-0c6.519,-0 11.811,-5.293 11.811,-11.811l0,-141.733Z" style="fill:#0079c1;"/><path id="path9559" d="M581.931,1139.72l-1.322,0.06l-1.321,0.157l-1.291,0.284l-1.258,0.409l-1.227,0.502l-1.164,0.599l-1.133,0.724l-1.069,0.787l-0.976,0.913l-0.88,0.975l-0.818,1.041l-0.724,1.099l-0.63,1.197l-0.503,1.197l-0.409,1.259l-0.314,1.322l-0.158,1.29l-0.095,1.321l0.064,1.324l5.946,76.99l52.983,0l20.86,48.442l27.31,-11.773l-4.374,-10.135l-15.291,6.579l-19.758,-45.862l-49.585,0l-0.85,-11.015l38.07,-0l0,-12.749l-39.077,-0l-2.044,-26.377l1.352,0.028l1.322,-0.089l1.29,-0.189l1.29,-0.315l1.259,-0.408l1.226,-0.536l1.164,-0.629l1.102,-0.724l1.038,-0.85l0.975,-0.913l0.881,-0.975l0.786,-1.071l0.693,-1.134l0.598,-1.164l0.503,-1.228l0.378,-1.29l0.283,-1.291l0.157,-1.321l0.032,-1.323l-0.063,-1.322l-0.189,-1.321l-0.283,-1.29l-0.409,-1.26l-0.535,-1.228l-0.598,-1.165l-0.723,-1.1l-0.819,-1.041l-0.912,-0.975l-0.975,-0.913l-1.039,-0.786l-1.133,-0.724l-1.195,-0.599l-1.227,-0.502l-1.258,-0.41l-1.291,-0.283l-1.321,-0.158l-1.321,-0.061Zm-17.651,62.449l-2.076,1.227l-2.045,1.354l-1.983,1.448l-1.887,1.541l-1.825,1.637l-1.762,1.701l-1.636,1.794l-1.574,1.888l-1.478,1.952l-1.385,2.014l-1.258,2.11l-1.195,2.14l-1.038,2.202l-0.976,2.236l-0.849,2.298l-0.724,2.329l-0.629,2.361l-0.504,2.392l-0.377,2.423l-0.284,2.425l-0.126,2.454l-0.031,2.456l0.063,2.423l0.22,2.456l0.315,2.423l0.472,2.392l0.535,2.392l0.692,2.329l0.786,2.33l0.913,2.266l1.007,2.235l1.132,2.172l1.196,2.108l1.353,2.047l1.416,2.014l1.51,1.888l1.604,1.858l1.7,1.762l1.793,1.668l1.856,1.574l1.951,1.512l2.013,1.384l2.077,1.29l2.109,1.197l2.201,1.101l2.234,0.976l2.297,0.85l2.329,0.755l2.359,0.662l2.391,0.503l2.392,0.41l2.453,0.315l2.423,0.157l2.454,0.059l2.423,-0.059l2.453,-0.189l2.423,-0.315l2.423,-0.41l2.36,-0.534l2.36,-0.661l2.328,-0.787l2.297,-0.881l2.233,-0.975l2.172,-1.102l2.139,-1.198l2.045,-1.322l2.013,-1.416l1.92,-1.48l1.856,-1.605l1.762,-1.699l1.699,-1.764l1.605,-1.825l1.51,-1.95l1.416,-1.983l1.321,-2.047l1.195,-2.139l1.101,-2.174l-7.959,-18.507l-0.252,2.14l-0.346,2.172l-0.504,2.109l-0.629,2.077l-0.724,2.047l-0.849,2.014l-0.976,1.952l-1.069,1.888l-1.195,1.793l-1.29,1.763l-1.385,1.668l-1.479,1.605l-1.573,1.481l-1.667,1.417l-1.731,1.29l-1.825,1.195l-1.887,1.102l-1.92,1.008l-1.982,0.85l-2.045,0.755l-2.076,0.629l-2.14,0.504l-2.139,0.409l-2.14,0.253l-2.171,0.119l-2.171,0.028l-2.171,-0.119l-2.17,-0.253l-2.14,-0.377l-2.108,-0.472l-2.076,-0.63l-2.045,-0.724l-2.015,-0.849l-1.949,-0.976l-1.888,-1.071l-1.826,-1.195l-1.73,-1.29l-1.699,-1.386l-1.573,-1.479l-1.511,-1.574l-1.383,-1.668l-1.322,-1.732l-1.196,-1.826l-1.101,-1.856l-0.976,-1.952l-0.88,-1.983l-0.755,-2.045l-0.629,-2.079l-0.504,-2.108l-0.378,-2.14l-0.282,-2.172l-0.126,-2.172l-0,-2.172l0.126,-2.172l0.219,-2.172l0.378,-2.139l0.504,-2.111l0.597,-2.077l0.724,-2.045l0.85,-2.015l0.974,-1.951l1.071,-1.889l1.196,-1.826l1.289,-1.731l1.385,-1.668l1.51,-1.605l1.573,-1.479l1.636,-1.417l-1.133,-14.539Z" style="fill:#fff;fill-rule:nonzero;"/></g><g><g><rect id="path1698" x="445.866" y="1172.05" width="39.685" height="94.488" style="fill:#fff;"/><path d="M482.326,1240.57c-1.371,0.603 -3.043,1.111 -5.018,1.522c-1.974,0.411 -4.168,0.617 -6.581,0.617c-4.388,-0 -7.843,-1.028 -10.366,-3.085c-2.522,-2.057 -3.784,-5.388 -3.784,-9.995l0,-24.186l-7.486,-0l-0,-10.942l7.486,0l0,-12.093l12.916,-5.841l-0,17.934l11.928,0l0,10.942l-11.928,-0l-0,20.155c-0,2.248 0.343,3.743 1.028,4.483c0.686,0.741 1.824,1.111 3.414,1.111c2.029,-0 4.141,-0.439 6.335,-1.317l2.056,10.695Z" style="fill-rule:nonzero;"/></g><g><g><rect id="path16981" serif:id="path1698" x="389.173" y="1172.05" width="56.693" height="94.488" style="fill:#fff;"/><path d="M440.181,1219.32c0,3.258 -0.482,6.379 -1.446,9.361c-0.964,2.983 -2.369,5.62 -4.215,7.912c-1.845,2.292 -4.132,4.115 -6.859,5.468c-2.728,1.353 -5.827,2.03 -9.298,2.03c-1.929,-0 -3.788,-0.304 -5.578,-0.912c-1.791,-0.607 -3.403,-1.463 -4.835,-2.568l-0,17.646l-13.092,0l0,-62.631l13.092,-0l-0.024,2.485c1.268,-1.16 2.812,-2.085 4.632,-2.775c1.82,-0.69 3.777,-1.036 5.872,-1.036c3.419,0 6.479,0.705 9.18,2.113c2.702,1.408 4.976,3.272 6.823,5.592c1.847,2.32 3.267,4.985 4.259,7.995c0.993,3.01 1.489,6.116 1.489,9.32Zm-13.257,-0c0,-1.602 -0.249,-3.176 -0.746,-4.722c-0.497,-1.547 -1.201,-2.914 -2.113,-4.101c-0.911,-1.188 -2.03,-2.154 -3.355,-2.9c-1.326,-0.746 -2.817,-1.118 -4.475,-1.118c-0.828,-0 -1.74,0.138 -2.734,0.414c-0.994,0.276 -1.906,0.69 -2.734,1.243c-0.829,0.552 -1.519,1.242 -2.072,2.071c-0.552,0.828 -0.828,1.795 -0.828,2.899l-0,12.179c-0,1.049 0.248,2.002 0.746,2.858c0.497,0.856 1.132,1.574 1.905,2.154c0.774,0.58 1.644,1.035 2.61,1.367c0.967,0.331 1.92,0.497 2.859,0.497c1.712,-0 3.259,-0.345 4.64,-1.036c1.381,-0.69 2.527,-1.615 3.438,-2.775c0.912,-1.16 1.616,-2.513 2.113,-4.06c0.497,-1.546 0.746,-3.203 0.746,-4.97Z" style="fill-rule:nonzero;"/></g></g><g><rect id="path16982" serif:id="path1698" x="234.685" y="1172.05" width="51.969" height="94.488" style="fill:#fff;"/><path d="M285.472,1242.91l-15.065,0l-9.738,-14.555l-9.738,14.555l-15.065,0l17.729,-24.786l-15.898,-22.458l14.982,0l7.99,12.061l7.907,-12.061l15.065,0l-15.814,22.292l17.645,24.952Z" style="fill-rule:nonzero;"/></g><g><rect id="path16983" serif:id="path1698" x="337.205" y="1172.05" width="51.969" height="94.488" style="fill:#fff;"/><path d="M384.848,1221.26l-0.158,1.968l-30.472,0c0.052,1.26 0.367,2.428 0.945,3.504c0.577,1.076 1.338,2.021 2.283,2.835c0.945,0.814 2.034,1.444 3.268,1.89c1.234,0.446 2.533,0.669 3.898,0.669c3.937,0 7.322,-1.312 10.157,-3.937l6.614,8.11c-2.257,2.152 -4.737,3.793 -7.441,4.922c-2.703,1.128 -5.787,1.692 -9.252,1.692c-3.727,0 -7.034,-0.616 -9.921,-1.85c-2.887,-1.234 -5.315,-2.94 -7.283,-5.118c-1.969,-2.179 -3.465,-4.711 -4.489,-7.599c-1.023,-2.887 -1.535,-5.984 -1.535,-9.291c0,-3.202 0.486,-6.233 1.457,-9.094c0.971,-2.861 2.375,-5.342 4.212,-7.441c1.838,-2.1 4.121,-3.767 6.851,-5c2.729,-1.234 5.826,-1.851 9.291,-1.851c3.832,0 7.165,0.683 10,2.048c2.835,1.364 5.144,3.202 6.929,5.511c1.785,2.31 3.058,5.027 3.819,8.15c0.761,3.123 1.037,6.417 0.827,9.882Zm-12.362,-6.851c-0,-2.414 -0.88,-4.396 -2.638,-5.944c-1.759,-1.549 -3.924,-2.323 -6.496,-2.323c-2.467,-0 -4.515,0.827 -6.142,2.48c-1.627,1.654 -2.572,3.583 -2.835,5.787l18.111,0Z" style="fill-rule:nonzero;"/></g><g><rect id="path16984" serif:id="path1698" x="286.654" y="1172.05" width="50.551" height="94.488" style="fill:#fff;"/><path d="M332.804,1208.62l-10.28,4.944c-1.936,-4.708 -4.997,-7.063 -9.182,-7.063c-1.622,0 -3.035,0.367 -4.238,1.099c-1.203,0.733 -2.211,1.7 -3.022,2.904c-0.81,1.203 -1.425,2.59 -1.844,4.159c-0.418,1.57 -0.628,3.165 -0.628,4.787c0,1.675 0.223,3.27 0.667,4.788c0.445,1.517 1.099,2.851 1.962,4.002c0.864,1.151 1.91,2.08 3.14,2.786c1.229,0.706 2.629,1.059 4.198,1.059c1.988,0 3.728,-0.549 5.219,-1.648c1.491,-1.098 2.786,-2.903 3.885,-5.415l10.123,5.023c-1.831,3.872 -4.394,6.985 -7.69,9.339c-3.297,2.354 -7.142,3.531 -11.537,3.531c-3.714,0 -6.98,-0.614 -9.797,-1.844c-2.816,-1.229 -5.161,-2.917 -7.033,-5.062c-1.872,-2.145 -3.289,-4.643 -4.251,-7.494c-0.961,-2.852 -1.442,-5.926 -1.442,-9.222c-0,-2.929 0.442,-5.807 1.325,-8.632c0.884,-2.826 2.236,-5.35 4.056,-7.573c1.82,-2.224 4.112,-4.016 6.876,-5.376c2.763,-1.361 6.055,-2.041 9.874,-2.041c4.552,0 8.554,1.191 12.007,3.571c3.453,2.381 5.991,5.507 7.612,9.378Z" style="fill-rule:nonzero;"/></g><g><rect x="170.433" y="1172.05" width="64.252" height="94.488" style="fill:#fff;"/><path d="M225.454,1242.91l-45.79,0l-0,-66.141l43.246,-0l0,13.058l-29.679,0l0,13.314l26.881,-0l0,12.21l-26.881,0l0,14.501l32.223,-0l0,13.058Z" style="fill-rule:nonzero;"/></g></g></g><g><g><g><rect id="path16985" serif:id="path1698" x="689.764" y="1420.08" width="50.079" height="94.488" style="fill:#fff;"/><path d="M737.177,1443.66l-17.947,52.428c-0.827,2.425 -1.847,4.313 -3.06,5.664c-1.213,1.351 -2.536,2.357 -3.97,3.018c-1.103,0.497 -2.412,0.869 -3.928,1.117c-1.517,0.248 -2.992,0.372 -4.425,0.372c-1.489,-0 -3.102,-0.152 -4.838,-0.455c-1.737,-0.303 -3.322,-0.675 -4.756,-1.116l2.15,-10.502c1.269,0.441 2.495,0.772 3.681,0.992c1.185,0.221 2.247,0.331 3.184,0.331c1.544,-0 2.66,-0.248 3.349,-0.744c0.69,-0.497 1.034,-1.131 1.034,-1.902l0,-0.414c0,-0.165 -0.055,-0.386 -0.165,-0.661c-0.055,-0.221 -0.124,-0.441 -0.207,-0.662c-0.083,-0.22 -0.152,-0.469 -0.207,-0.744l-16.127,-46.722l13.729,0l9.428,28.364l9.429,-28.364l13.646,0Z" style="fill-rule:nonzero;"/></g><g><rect id="path16986" serif:id="path1698" x="632.126" y="1420.08" width="57.638" height="94.488" style="fill:#fff;"/><path d="M682.998,1467.04c-0,3.375 -0.491,6.58 -1.473,9.617c-0.981,3.038 -2.426,5.695 -4.333,7.973c-1.908,2.278 -4.278,4.092 -7.111,5.441c-2.833,1.35 -6.073,2.025 -9.719,2.025c-1.851,0 -3.688,-0.365 -5.512,-1.097c-1.823,-0.731 -3.38,-1.687 -4.67,-2.868l-0,2.531l-13.33,-0l0,-65.889l13.33,0l-0.024,20.079c1.46,-1.125 3.102,-1.997 4.926,-2.615c1.825,-0.619 3.719,-0.928 5.684,-0.928c3.538,-0 6.696,0.717 9.474,2.151c2.779,1.434 5.109,3.332 6.989,5.695c1.881,2.362 3.313,5.09 4.295,8.183c0.983,3.093 1.474,6.327 1.474,9.702Zm-13.499,-0.169c0,-3.937 -0.97,-7.157 -2.91,-9.66c-1.941,-2.502 -4.682,-3.754 -8.226,-3.754c-0.956,0 -1.926,0.169 -2.91,0.506c-0.984,0.338 -1.87,0.816 -2.658,1.435c-0.787,0.618 -1.434,1.349 -1.94,2.193c-0.506,0.844 -0.759,1.8 -0.759,2.869l-0,12.401c-0,1.125 0.281,2.109 0.843,2.953c0.563,0.843 1.266,1.547 2.109,2.109c0.844,0.562 1.772,0.984 2.784,1.265c1.013,0.282 1.941,0.422 2.784,0.422c1.688,0 3.206,-0.337 4.556,-1.012c1.35,-0.675 2.489,-1.589 3.417,-2.742c0.928,-1.153 1.645,-2.503 2.151,-4.049c0.506,-1.547 0.759,-3.192 0.759,-4.936Z" style="fill-rule:nonzero;"/></g></g><g><g><rect id="path16987" serif:id="path1698" x="202.677" y="1420.08" width="40.157" height="94.488" style="fill:#fff;"/><path d="M236.755,1455.5l-1.911,-0.166c-1.773,-0.166 -3.434,-0.069 -4.985,0.291c-1.551,0.36 -2.908,0.983 -4.071,1.869c-1.163,0.887 -2.077,2.036 -2.741,3.448c-0.665,1.412 -0.997,3.088 -0.997,5.026l-0,24.924l-13.293,-0l0,-47.189l13.293,0l-0,4.902c1.606,-2.271 3.6,-3.932 5.981,-4.985c2.382,-1.052 5.29,-1.384 8.724,-0.997l-0,12.877Z" style="fill-rule:nonzero;"/></g><g><rect id="path16988" serif:id="path1698" x="148.346" y="1420.08" width="54.331" height="94.488" style="fill:#fff;"/><path d="M197.957,1467.87c-0,3.296 -0.524,6.357 -1.57,9.182c-1.046,2.825 -2.537,5.258 -4.473,7.299c-1.936,2.04 -4.29,3.649 -7.063,4.826c-2.773,1.177 -5.86,1.766 -9.261,1.766c-3.4,-0 -6.487,-0.576 -9.26,-1.727c-2.773,-1.151 -5.141,-2.759 -7.102,-4.826c-1.962,-2.067 -3.48,-4.513 -4.552,-7.338c-1.073,-2.825 -1.609,-5.886 -1.609,-9.182c-0,-3.401 0.484,-6.579 1.452,-9.535c0.968,-2.956 2.406,-5.52 4.316,-7.691c1.91,-2.171 4.264,-3.871 7.063,-5.101c2.799,-1.229 6.03,-1.844 9.692,-1.844c3.61,-0 6.815,0.628 9.614,1.883c2.799,1.256 5.14,2.969 7.024,5.141c1.883,2.171 3.309,4.735 4.277,7.691c0.968,2.956 1.452,6.108 1.452,9.456Zm-12.321,0c-0,-1.831 -0.249,-3.544 -0.746,-5.14c-0.497,-1.596 -1.177,-2.995 -2.04,-4.199c-0.864,-1.203 -1.923,-2.158 -3.179,-2.864c-1.255,-0.707 -2.616,-1.06 -4.081,-1.06c-1.517,0 -2.903,0.353 -4.159,1.06c-1.256,0.706 -2.328,1.661 -3.218,2.864c-0.889,1.204 -1.569,2.603 -2.04,4.199c-0.471,1.596 -0.706,3.309 -0.706,5.14c-0,3.61 0.915,6.54 2.746,8.79c1.831,2.25 4.29,3.374 7.377,3.374c3.035,0 5.468,-1.124 7.299,-3.374c1.831,-2.25 2.747,-5.18 2.747,-8.79Z" style="fill-rule:nonzero;"/></g><g><rect id="path16989" serif:id="path1698" x="111.024" y="1420.08" width="37.323" height="94.488" style="fill:#fff;"/><path d="M145.847,1426.21l-1.081,11.134c-0.997,-0.443 -1.911,-0.734 -2.742,-0.872c-0.831,-0.139 -1.689,-0.208 -2.576,-0.208c-2.049,-0 -3.545,0.499 -4.487,1.496c-0.941,0.997 -1.384,2.603 -1.329,4.819l0.083,1.163l8.725,0l-0,10.802l-8.559,0l0,36.395l-13.045,-0l-0,-36.395l-7.312,0l-0,-10.802l7.312,0l-0,-2.742c-0,-10.802 5.484,-16.203 16.452,-16.203c1.44,0 2.908,0.125 4.404,0.374c1.496,0.249 2.88,0.596 4.155,1.039Z" style="fill-rule:nonzero;"/></g></g><g><g><rect id="path169810" serif:id="path1698" x="465.118" y="1420.08" width="25.984" height="94.488" style="fill:#fff;"/><path d="M484.735,1432.21c-0,2.107 -0.721,3.882 -2.163,5.324c-1.442,1.442 -3.19,2.163 -5.242,2.163c-2.107,0 -3.882,-0.721 -5.324,-2.163c-1.442,-1.442 -2.163,-3.217 -2.163,-5.324c-0,-2.052 0.721,-3.8 2.163,-5.242c1.442,-1.442 3.217,-2.163 5.324,-2.163c2.052,0 3.8,0.721 5.242,2.163c1.442,1.442 2.163,3.19 2.163,5.242Zm-0.832,58.737l-13.145,-0l-0,-47.256l13.145,-0l-0,47.256Z" style="fill-rule:nonzero;"/></g><g><rect id="path169811" serif:id="path1698" x="547.323" y="1420.08" width="55.276" height="94.488" style="fill:#fff;"/><path d="M594.184,1489.31c-0,3.289 -0.58,6.025 -1.739,8.209c-1.159,2.184 -2.723,3.923 -4.691,5.217c-1.968,1.294 -4.232,2.21 -6.793,2.749c-2.561,0.54 -5.244,0.809 -8.048,0.809c-3.127,0 -6.335,-0.458 -9.624,-1.375c-3.289,-0.916 -6.2,-2.129 -8.735,-3.639l4.368,-10.029c2.696,1.294 5.135,2.224 7.319,2.79c2.184,0.567 4.435,0.85 6.753,0.85c1.079,-0 2.143,-0.095 3.195,-0.283c1.051,-0.189 1.981,-0.526 2.79,-1.011c0.809,-0.486 1.469,-1.133 1.982,-1.941c0.512,-0.809 0.768,-1.834 0.768,-3.074l-0,-3.963c-1.24,1.079 -2.75,1.928 -4.529,2.548c-1.779,0.62 -3.532,0.93 -5.257,0.93c-3.235,0 -6.093,-0.566 -8.573,-1.698c-2.48,-1.133 -4.556,-2.696 -6.228,-4.691c-1.671,-1.995 -2.938,-4.368 -3.801,-7.117c-0.862,-2.75 -1.294,-5.743 -1.294,-8.978c0,-2.965 0.486,-5.782 1.456,-8.451c0.971,-2.669 2.332,-5.001 4.084,-6.996c1.753,-1.995 3.815,-3.572 6.187,-4.731c2.373,-1.16 4.961,-1.739 7.764,-1.739c2.157,-0 4.139,0.364 5.945,1.092c1.806,0.728 3.221,1.712 4.246,2.952l-0,-2.75l12.455,-0l-0,44.32Zm-12.212,-23.454c-0,-1.402 -0.162,-2.736 -0.486,-4.003c-0.323,-1.267 -0.835,-2.373 -1.536,-3.316c-0.701,-0.944 -1.591,-1.699 -2.669,-2.265c-1.079,-0.566 -2.373,-0.849 -3.882,-0.849c-1.456,-0 -2.723,0.283 -3.802,0.849c-1.078,0.566 -1.981,1.321 -2.709,2.265c-0.728,0.943 -1.267,2.049 -1.617,3.316c-0.351,1.267 -0.526,2.601 -0.526,4.003c-0,1.456 0.162,2.817 0.485,4.084c0.324,1.267 0.836,2.373 1.537,3.316c0.701,0.944 1.59,1.699 2.669,2.265c1.078,0.566 2.399,0.849 3.963,0.849c1.509,-0 2.803,-0.283 3.882,-0.849c1.078,-0.566 1.968,-1.321 2.669,-2.265c0.701,-0.943 1.213,-2.049 1.536,-3.316c0.324,-1.267 0.486,-2.628 0.486,-4.084Z" style="fill-rule:nonzero;"/></g><g><rect id="path169812" serif:id="path1698" x="356.457" y="1420.08" width="52.441" height="94.488" style="fill:#fff;"/><path d="M404.159,1481.76l-5.215,9.184c-1.816,-0.104 -3.463,-0.558 -4.942,-1.362c-1.479,-0.804 -2.685,-1.855 -3.619,-3.152c-1.453,1.349 -3.153,2.361 -5.098,3.035c-1.946,0.675 -4.32,1.012 -7.122,1.012c-2.231,-0 -4.372,-0.285 -6.421,-0.856c-2.05,-0.571 -3.853,-1.44 -5.41,-2.608c-1.556,-1.167 -2.802,-2.607 -3.736,-4.319c-0.934,-1.713 -1.4,-3.736 -1.4,-6.071c-0,-2.283 0.337,-4.229 1.011,-5.838c0.675,-1.608 1.531,-2.97 2.569,-4.086c1.038,-1.115 2.218,-2.01 3.541,-2.685c1.323,-0.675 2.633,-1.193 3.931,-1.557c1.297,-0.363 2.516,-0.622 3.658,-0.778c1.141,-0.156 2.049,-0.259 2.724,-0.311c1.09,-0.104 2.478,-0.221 4.164,-0.351c1.686,-0.129 3.23,-0.246 4.631,-0.35l-0,-0.622c-0,-1.92 -0.441,-3.308 -1.323,-4.164c-0.882,-0.857 -2.413,-1.285 -4.592,-1.285c-2.283,0 -4.463,0.273 -6.538,0.818c-2.076,0.544 -4.359,1.543 -6.849,2.996l-4.593,-9.729c3.166,-1.764 6.266,-3.035 9.301,-3.814c3.036,-0.778 6.188,-1.167 9.457,-1.167c5.656,-0 9.963,1.401 12.92,4.203c2.958,2.802 4.437,7.005 4.437,12.609l-0,14.554c-0,1.972 0.337,3.464 1.011,4.476c0.675,1.011 1.842,1.751 3.503,2.218Zm-16.812,-5.838l0,-5.526c-0.934,0.052 -1.92,0.104 -2.958,0.156c-1.037,0.052 -1.919,0.13 -2.646,0.233c-0.882,0.104 -1.803,0.208 -2.763,0.312c-0.96,0.103 -1.829,0.324 -2.607,0.661c-0.779,0.338 -1.427,0.818 -1.946,1.44c-0.519,0.623 -0.778,1.505 -0.778,2.646c-0,1.505 0.648,2.647 1.945,3.425c1.298,0.778 2.776,1.168 4.437,1.168c2.646,-0 4.527,-0.441 5.643,-1.324c1.115,-0.882 1.673,-1.945 1.673,-3.191Z" style="fill-rule:nonzero;"/></g><g><rect id="path169813" serif:id="path1698" x="302.126" y="1420.08" width="54.331" height="94.488" style="fill:#fff;"/><path d="M351.736,1467.87c0,3.296 -0.523,6.357 -1.569,9.182c-1.047,2.825 -2.538,5.258 -4.474,7.299c-1.935,2.04 -4.29,3.649 -7.063,4.826c-2.773,1.177 -5.859,1.766 -9.26,1.766c-3.401,-0 -6.488,-0.576 -9.261,-1.727c-2.773,-1.151 -5.14,-2.759 -7.102,-4.826c-1.962,-2.067 -3.479,-4.513 -4.552,-7.338c-1.072,-2.825 -1.609,-5.886 -1.609,-9.182c0,-3.401 0.484,-6.579 1.452,-9.535c0.968,-2.956 2.407,-5.52 4.317,-7.691c1.909,-2.171 4.264,-3.871 7.063,-5.101c2.799,-1.229 6.029,-1.844 9.692,-1.844c3.61,-0 6.814,0.628 9.613,1.883c2.8,1.256 5.141,2.969 7.024,5.141c1.884,2.171 3.309,4.735 4.277,7.691c0.968,2.956 1.452,6.108 1.452,9.456Zm-12.321,0c0,-1.831 -0.248,-3.544 -0.745,-5.14c-0.498,-1.596 -1.178,-2.995 -2.041,-4.199c-0.863,-1.203 -1.923,-2.158 -3.178,-2.864c-1.256,-0.707 -2.616,-1.06 -4.081,-1.06c-1.517,0 -2.904,0.353 -4.16,1.06c-1.255,0.706 -2.328,1.661 -3.217,2.864c-0.89,1.204 -1.57,2.603 -2.041,4.199c-0.47,1.596 -0.706,3.309 -0.706,5.14c0,3.61 0.916,6.54 2.747,8.79c1.831,2.25 4.29,3.374 7.377,3.374c3.034,0 5.467,-1.124 7.298,-3.374c1.831,-2.25 2.747,-5.18 2.747,-8.79Z" style="fill-rule:nonzero;"/></g><g><rect id="path169814" serif:id="path1698" x="491.102" y="1420.08" width="56.22" height="94.488" style="fill:#fff;"/><path d="M540.069,1490.94l-13.348,-0l-0,-29.616c-0,-2.503 -0.581,-4.31 -1.742,-5.423c-1.162,-1.112 -2.821,-1.668 -4.978,-1.668c-1.051,-0 -2.075,0.139 -3.07,0.417c-0.996,0.278 -1.881,0.723 -2.655,1.335c-0.774,0.611 -1.396,1.404 -1.866,2.377c-0.471,0.974 -0.706,2.183 -0.706,3.629l0,28.949l-13.348,-0l0,-47.386l13.348,0l-0.057,3.004c1.449,-1.335 3.19,-2.392 5.224,-3.171c2.035,-0.778 3.999,-1.168 5.894,-1.168c2.842,0 5.336,0.418 7.482,1.252c2.146,0.834 3.957,1.988 5.434,3.462c1.477,1.474 2.577,3.198 3.301,5.172c0.725,1.975 1.087,4.13 1.087,6.466l-0,32.369Z" style="fill-rule:nonzero;"/></g><g><rect id="path169815" serif:id="path1698" x="408.898" y="1420.08" width="56.22" height="94.488" style="fill:#fff;"/><path d="M459.854,1490.69l-13.33,-0l0,-2.531c-1.293,1.181 -2.854,2.137 -4.682,2.868c-1.828,0.731 -3.67,1.097 -5.526,1.097c-3.656,0 -6.89,-0.689 -9.702,-2.067c-2.812,-1.378 -5.174,-3.22 -7.086,-5.526c-1.913,-2.306 -3.375,-4.963 -4.387,-7.972c-1.013,-3.009 -1.519,-6.173 -1.519,-9.491c0,-3.375 0.478,-6.609 1.434,-9.702c0.956,-3.094 2.377,-5.821 4.261,-8.183c1.884,-2.363 4.204,-4.261 6.96,-5.695c2.756,-1.434 5.933,-2.151 9.533,-2.151c1.968,-0 3.881,0.309 5.737,0.928c1.856,0.618 3.515,1.49 4.977,2.615l0,-20.079l13.33,0l-0,65.889Zm-13.245,-17.801l-0,-12.402c-0,-1.068 -0.255,-2.024 -0.763,-2.868c-0.508,-0.844 -1.158,-1.575 -1.949,-2.194c-0.791,-0.618 -1.681,-1.096 -2.669,-1.434c-0.989,-0.337 -1.963,-0.506 -2.923,-0.506c-3.559,0 -6.313,1.252 -8.262,3.754c-1.948,2.503 -2.923,5.723 -2.923,9.66c0,1.8 0.255,3.473 0.763,5.02c0.508,1.546 1.228,2.882 2.16,4.007c0.932,1.125 2.076,2.025 3.432,2.7c1.356,0.675 2.882,1.012 4.576,1.012c0.847,0 1.779,-0.141 2.796,-0.422c1.016,-0.281 1.948,-0.703 2.796,-1.265c0.847,-0.563 1.553,-1.266 2.118,-2.109c0.565,-0.844 0.848,-1.828 0.848,-2.953Z" style="fill-rule:nonzero;"/></g><g><rect id="path169816" serif:id="path1698" x="272.362" y="1420.08" width="29.764" height="94.488" style="fill:#fff;"/><path d="M300.945,1489.53c-1.439,0.443 -2.96,0.788 -4.564,1.037c-1.605,0.249 -3.182,0.374 -4.731,0.374c-2.489,-0 -4.633,-0.332 -6.431,-0.996c-1.798,-0.664 -3.265,-1.604 -4.399,-2.822c-1.134,-1.217 -1.964,-2.697 -2.489,-4.439c-0.526,-1.743 -0.789,-3.666 -0.789,-5.768l0,-52.117l13.029,0l0,49.959c0,2.877 1.356,4.316 4.067,4.316c0.83,-0 1.632,-0.07 2.406,-0.208c0.775,-0.138 1.633,-0.373 2.573,-0.705l1.328,11.369Z" style="fill-rule:nonzero;"/></g></g></g><g><g><g><rect id="path169817" serif:id="path1698" x="197.835" y="1325.59" width="57.638" height="94.488" style="fill:#fff;"/><path d="M248.706,1372.55c0,3.374 -0.49,6.58 -1.472,9.617c-0.982,3.037 -2.426,5.695 -4.334,7.973c-1.907,2.278 -4.277,4.091 -7.111,5.441c-2.833,1.35 -6.073,2.025 -9.719,2.025c-1.85,-0 -3.687,-0.366 -5.511,-1.097c-1.824,-0.731 -3.38,-1.687 -4.67,-2.868l-0,2.531l-13.33,-0l0,-65.889l13.33,0l-0.024,20.079c1.46,-1.125 3.102,-1.997 4.926,-2.615c1.824,-0.619 3.719,-0.928 5.684,-0.928c3.537,-0 6.695,0.717 9.474,2.151c2.779,1.434 5.108,3.332 6.989,5.694c1.881,2.363 3.312,5.09 4.295,8.184c0.982,3.093 1.473,6.327 1.473,9.702Zm-13.498,-0.169c0,-3.937 -0.97,-7.157 -2.91,-9.66c-1.941,-2.503 -4.683,-3.754 -8.226,-3.754c-0.956,0 -1.926,0.169 -2.911,0.506c-0.984,0.338 -1.87,0.816 -2.657,1.434c-0.787,0.619 -1.434,1.35 -1.94,2.194c-0.507,0.844 -0.76,1.8 -0.76,2.868l0,12.402c0,1.125 0.281,2.109 0.844,2.953c0.562,0.843 1.265,1.546 2.109,2.109c0.844,0.562 1.772,0.984 2.784,1.265c1.012,0.281 1.94,0.422 2.784,0.422c1.687,0 3.206,-0.337 4.556,-1.012c1.35,-0.675 2.489,-1.589 3.417,-2.742c0.928,-1.153 1.645,-2.503 2.151,-4.05c0.506,-1.546 0.759,-3.191 0.759,-4.935Z" style="fill-rule:nonzero;"/></g><g><rect id="path169818" serif:id="path1698" x="255.472" y="1325.59" width="56.693" height="94.488" style="fill:#fff;"/><path d="M304.627,1396.4l-13.317,-0l-0,-2.985c-1.443,1.326 -3.177,2.377 -5.202,3.151c-2.026,0.774 -3.981,1.161 -5.868,1.161c-2.83,-0 -5.313,-0.415 -7.449,-1.244c-2.136,-0.829 -3.94,-1.976 -5.41,-3.441c-1.471,-1.465 -2.566,-3.179 -3.288,-5.141c-0.721,-1.963 -1.082,-4.105 -1.082,-6.427l0,-32.173l13.317,0l0,29.437c0,2.488 0.579,4.284 1.738,5.39c1.159,1.105 2.814,1.658 4.966,1.658c1.049,0 2.07,-0.138 3.063,-0.414c0.994,-0.277 1.876,-0.719 2.649,-1.327c0.772,-0.608 1.393,-1.396 1.862,-2.363c0.469,-0.968 0.704,-2.17 0.704,-3.607l-0,-28.774l13.317,0l-0,47.099Z" style="fill-rule:nonzero;"/></g><g><rect id="path169819" serif:id="path1698" x="312.165" y="1325.59" width="47.244" height="94.488" style="fill:#fff;"/><path d="M355.289,1382.15c0,2.093 -0.405,4.015 -1.216,5.768c-0.811,1.753 -2.027,3.27 -3.649,4.552c-1.622,1.282 -3.623,2.276 -6.004,2.982c-2.38,0.706 -5.14,1.06 -8.279,1.06c-3.977,-0 -7.587,-0.589 -10.83,-1.766c-3.244,-1.177 -6.253,-2.917 -9.026,-5.219l7.064,-8.162c2.197,1.831 4.447,3.048 6.749,3.649c2.302,0.602 4.29,0.903 5.964,0.903c2.354,-0 3.976,-0.34 4.866,-1.02c0.889,-0.68 1.334,-1.518 1.334,-2.512c-0,-0.575 -0.406,-1.19 -1.217,-1.844c-0.81,-0.654 -2.158,-1.19 -4.041,-1.609l-7.77,-1.883c-1.464,-0.314 -2.916,-0.811 -4.355,-1.491c-1.439,-0.68 -2.734,-1.544 -3.885,-2.59c-1.151,-1.046 -2.079,-2.302 -2.786,-3.767c-0.706,-1.465 -1.059,-3.165 -1.059,-5.101c-0,-2.145 0.458,-4.12 1.373,-5.925c0.916,-1.805 2.211,-3.375 3.885,-4.709c1.674,-1.334 3.649,-2.367 5.925,-3.1c2.276,-0.732 4.8,-1.099 7.573,-1.099c4.081,0 7.626,0.55 10.634,1.648c3.008,1.099 5.637,2.616 7.887,4.552l-7.063,8.162c-1.674,-1.308 -3.388,-2.276 -5.14,-2.904c-1.753,-0.628 -3.65,-0.941 -5.69,-0.941c-2.197,-0 -3.819,0.405 -4.866,1.216c-1.046,0.811 -1.569,1.687 -1.569,2.629c-0,0.157 0.026,0.366 0.078,0.628c0.053,0.261 0.223,0.536 0.51,0.824c0.288,0.288 0.694,0.575 1.217,0.863c0.523,0.288 1.255,0.536 2.197,0.746l8.162,1.962c1.622,0.418 3.204,0.941 4.748,1.569c1.543,0.628 2.93,1.465 4.159,2.512c1.23,1.046 2.224,2.328 2.982,3.845c0.759,1.517 1.138,3.375 1.138,5.572Z" style="fill-rule:nonzero;"/></g><g><rect id="path169820" serif:id="path1698" x="411.378" y="1325.59" width="47.244" height="94.488" style="fill:#fff;"/><path d="M454.502,1382.15c-0,2.093 -0.406,4.015 -1.216,5.768c-0.811,1.753 -2.028,3.27 -3.65,4.552c-1.622,1.282 -3.623,2.276 -6.003,2.982c-2.381,0.706 -5.141,1.06 -8.28,1.06c-3.976,-0 -7.586,-0.589 -10.83,-1.766c-3.244,-1.177 -6.252,-2.917 -9.025,-5.219l7.063,-8.162c2.198,1.831 4.447,3.048 6.749,3.649c2.302,0.602 4.29,0.903 5.965,0.903c2.354,-0 3.976,-0.34 4.865,-1.02c0.89,-0.68 1.334,-1.518 1.334,-2.512c0,-0.575 -0.405,-1.19 -1.216,-1.844c-0.811,-0.654 -2.158,-1.19 -4.042,-1.609l-7.769,-1.883c-1.465,-0.314 -2.917,-0.811 -4.356,-1.491c-1.438,-0.68 -2.733,-1.544 -3.884,-2.59c-1.151,-1.046 -2.08,-2.302 -2.786,-3.767c-0.707,-1.465 -1.06,-3.165 -1.06,-5.101c0,-2.145 0.458,-4.12 1.374,-5.925c0.915,-1.805 2.21,-3.375 3.884,-4.709c1.675,-1.334 3.65,-2.367 5.926,-3.1c2.275,-0.732 4.8,-1.099 7.573,-1.099c4.081,0 7.625,0.55 10.634,1.648c3.008,1.099 5.637,2.616 7.887,4.552l-7.063,8.162c-1.675,-1.308 -3.388,-2.276 -5.141,-2.904c-1.752,-0.628 -3.649,-0.941 -5.689,-0.941c-2.198,-0 -3.82,0.405 -4.866,1.216c-1.047,0.811 -1.57,1.687 -1.57,2.629c0,0.157 0.026,0.366 0.079,0.628c0.052,0.261 0.222,0.536 0.51,0.824c0.288,0.288 0.693,0.575 1.216,0.863c0.524,0.288 1.256,0.536 2.198,0.746l8.161,1.962c1.622,0.418 3.205,0.941 4.748,1.569c1.544,0.628 2.93,1.465 4.16,2.512c1.229,1.046 2.223,2.328 2.982,3.845c0.759,1.517 1.138,3.375 1.138,5.572Z" style="fill-rule:nonzero;"/></g><g><rect id="path169821" serif:id="path1698" x="359.409" y="1325.59" width="51.969" height="94.488" style="fill:#fff;"/><path d="M407.053,1374.8l-0.158,1.969l-30.472,-0c0.052,1.26 0.367,2.428 0.945,3.504c0.577,1.076 1.338,2.021 2.283,2.834c0.945,0.814 2.034,1.444 3.268,1.89c1.233,0.446 2.533,0.669 3.897,0.669c3.937,0 7.323,-1.312 10.158,-3.937l6.614,8.111c-2.257,2.152 -4.738,3.792 -7.441,4.921c-2.703,1.128 -5.787,1.693 -9.252,1.693c-3.727,-0 -7.034,-0.617 -9.921,-1.851c-2.887,-1.233 -5.315,-2.939 -7.284,-5.118c-1.968,-2.178 -3.464,-4.711 -4.488,-7.598c-1.023,-2.887 -1.535,-5.984 -1.535,-9.292c-0,-3.202 0.485,-6.233 1.456,-9.094c0.972,-2.861 2.376,-5.341 4.213,-7.441c1.837,-2.1 4.121,-3.766 6.85,-5c2.73,-1.234 5.827,-1.85 9.292,-1.85c3.832,-0 7.165,0.682 10,2.047c2.834,1.365 5.144,3.202 6.929,5.512c1.785,2.309 3.058,5.026 3.819,8.149c0.761,3.124 1.037,6.418 0.827,9.882Zm-12.363,-6.85c0,-2.415 -0.879,-4.397 -2.637,-5.945c-1.759,-1.549 -3.924,-2.323 -6.496,-2.323c-2.468,0 -4.515,0.827 -6.142,2.48c-1.628,1.654 -2.572,3.583 -2.835,5.788l18.11,-0Z" style="fill-rule:nonzero;"/></g></g><g><g><rect id="path169822" serif:id="path1698" x="488.15" y="1325.59" width="52.441" height="94.488" style="fill:#fff;"/><path d="M535.852,1387.27l-5.215,9.184c-1.816,-0.104 -3.464,-0.558 -4.942,-1.362c-1.479,-0.805 -2.686,-1.855 -3.62,-3.153c-1.452,1.35 -3.152,2.361 -5.098,3.036c-1.945,0.674 -4.319,1.012 -7.121,1.012c-2.231,-0 -4.372,-0.286 -6.421,-0.856c-2.05,-0.571 -3.853,-1.44 -5.41,-2.608c-1.556,-1.167 -2.802,-2.607 -3.736,-4.319c-0.934,-1.713 -1.401,-3.736 -1.401,-6.071c0,-2.283 0.338,-4.229 1.012,-5.838c0.675,-1.608 1.531,-2.97 2.569,-4.086c1.037,-1.116 2.218,-2.011 3.541,-2.685c1.323,-0.675 2.633,-1.194 3.931,-1.557c1.297,-0.363 2.516,-0.622 3.658,-0.778c1.141,-0.156 2.049,-0.26 2.724,-0.311c1.089,-0.104 2.477,-0.221 4.164,-0.351c1.686,-0.129 3.23,-0.246 4.631,-0.35l-0,-0.623c-0,-1.919 -0.441,-3.307 -1.323,-4.164c-0.882,-0.856 -2.413,-1.284 -4.592,-1.284c-2.283,0 -4.463,0.273 -6.538,0.817c-2.076,0.545 -4.359,1.544 -6.85,2.997l-4.592,-9.729c3.166,-1.764 6.266,-3.036 9.301,-3.814c3.036,-0.778 6.188,-1.167 9.457,-1.167c5.656,-0 9.962,1.401 12.92,4.203c2.958,2.802 4.436,7.004 4.436,12.608l0,14.555c0,1.972 0.338,3.464 1.012,4.475c0.675,1.012 1.842,1.752 3.503,2.219Zm-16.812,-5.838l0,-5.526c-0.934,0.052 -1.92,0.104 -2.958,0.156c-1.037,0.052 -1.919,0.129 -2.646,0.233c-0.882,0.104 -1.803,0.208 -2.763,0.312c-0.96,0.103 -1.829,0.324 -2.607,0.661c-0.779,0.337 -1.427,0.817 -1.946,1.44c-0.519,0.623 -0.778,1.505 -0.778,2.646c-0,1.505 0.648,2.647 1.945,3.425c1.298,0.778 2.776,1.167 4.437,1.167c2.646,0 4.527,-0.441 5.643,-1.323c1.115,-0.882 1.673,-1.946 1.673,-3.191Z" style="fill-rule:nonzero;"/></g><g><rect id="path169823" serif:id="path1698" x="540.591" y="1325.59" width="56.22" height="94.488" style="fill:#fff;"/><path d="M589.557,1396.45l-13.348,-0l0,-29.616c0,-2.503 -0.581,-4.311 -1.742,-5.423c-1.162,-1.112 -2.821,-1.668 -4.978,-1.668c-1.051,-0 -2.075,0.139 -3.07,0.417c-0.995,0.278 -1.88,0.723 -2.655,1.334c-0.774,0.612 -1.396,1.405 -1.866,2.378c-0.47,0.973 -0.706,2.183 -0.706,3.629l0,28.949l-13.348,-0l0,-47.386l13.348,0l-0.057,3.003c1.449,-1.334 3.19,-2.391 5.225,-3.17c2.034,-0.778 3.998,-1.168 5.893,-1.168c2.842,0 5.337,0.417 7.482,1.252c2.146,0.834 3.957,1.988 5.434,3.462c1.477,1.474 2.577,3.198 3.302,5.172c0.724,1.975 1.086,4.13 1.086,6.466l0,32.369Z" style="fill-rule:nonzero;"/></g><g><rect id="path169824" serif:id="path1698" x="596.811" y="1325.59" width="56.22" height="94.488" style="fill:#fff;"/><path d="M647.767,1396.2l-13.329,-0l-0,-2.531c-1.294,1.181 -2.855,2.137 -4.683,2.868c-1.828,0.731 -3.67,1.097 -5.526,1.097c-3.655,-0 -6.889,-0.689 -9.701,-2.067c-2.813,-1.378 -5.175,-3.22 -7.087,-5.526c-1.912,-2.306 -3.375,-4.963 -4.387,-7.972c-1.012,-3.009 -1.519,-6.173 -1.519,-9.491c0,-3.375 0.478,-6.609 1.435,-9.702c0.956,-3.094 2.376,-5.821 4.26,-8.184c1.884,-2.362 4.204,-4.26 6.96,-5.694c2.756,-1.434 5.934,-2.152 9.533,-2.152c1.969,0 3.881,0.31 5.737,0.928c1.856,0.619 3.515,1.491 4.978,2.616l-0,-20.079l13.329,-0l0,65.889Zm-13.245,-17.801l-0,-12.402c-0,-1.068 -0.254,-2.025 -0.763,-2.868c-0.508,-0.844 -1.158,-1.575 -1.949,-2.194c-0.791,-0.618 -1.68,-1.096 -2.669,-1.434c-0.989,-0.337 -1.963,-0.506 -2.922,-0.506c-3.559,-0 -6.313,1.251 -8.262,3.754c-1.949,2.503 -2.923,5.723 -2.923,9.66c-0,1.8 0.254,3.473 0.762,5.02c0.509,1.546 1.229,2.882 2.161,4.007c0.932,1.125 2.076,2.025 3.432,2.7c1.356,0.674 2.881,1.012 4.575,1.012c0.847,-0 1.779,-0.141 2.796,-0.422c1.017,-0.281 1.949,-0.703 2.796,-1.265c0.847,-0.563 1.553,-1.266 2.118,-2.11c0.565,-0.843 0.848,-1.827 0.848,-2.952Z" style="fill-rule:nonzero;"/></g></g></g></g><g id="No-Waiting-for-Goods-Vehicles" serif:id="No Waiting for Goods Vehicles"><path d="M506.597,1674.09l-170.94,0l0,-0.061c-0.001,-17.968 -14.563,-32.532 -32.525,-32.531c-17.962,0 -32.523,14.566 -32.523,32.534l0,0.058l-11.752,0l-10.357,-49.238l0.004,-0.107c-1.219,-5.82 2.404,-11.57 8.162,-13.047l7.893,-44.698l-0.069,-0.119c1.553,-8.818 9.212,-15.247 18.163,-15.247l0.058,0.117l50.968,-0l-0.058,-0.117c4.081,0 7.389,3.309 7.389,7.391l0.117,0.059l-0,41.207l14.778,-0l-0,-66.466l-0.116,-0.058c-0,-4.083 3.308,-7.392 7.389,-7.392l232.031,-0l0.058,0c4.054,0.031 7.331,3.328 7.331,7.391l0,140.324l-36.887,0l-0.117,-0.058c0,16.297 -13.207,29.508 -29.498,29.508c-16.272,0 -29.467,-13.179 -29.499,-29.45Zm29.499,-14.783c-8.13,0 -14.72,6.593 -14.72,14.725c-0,8.133 6.59,14.725 14.72,14.725c8.13,0 14.72,-6.592 14.72,-14.725c0,-8.132 -6.59,-14.725 -14.72,-14.725Zm-260.254,-89.924l0.004,0.061l-5.353,30.847l44.219,-0l-0,-37.016l-31.593,-0c-3.586,-0 -6.655,2.575 -7.277,6.108Zm27.291,75.141c16.292,0 29.499,13.211 29.499,29.508c-0,16.297 -13.207,29.508 -29.499,29.508c-16.291,0 -29.498,-13.211 -29.498,-29.508c-0,-16.297 13.207,-29.508 29.498,-29.508Zm0,14.783c-8.129,0 -14.72,6.593 -14.72,14.725c0,8.133 6.591,14.725 14.72,14.725c8.13,0 14.721,-6.592 14.721,-14.725c-0,-8.132 -6.591,-14.725 -14.721,-14.725Z"/></g></g><g transform="matrix(50,0,0,50,561.322,463.93)"></g><text x="290.277px" y="463.93px" style="font-family:'ArialMT', 'Arial', sans-serif;font-size:50px;">sw=133.733</text><path d="M774.094,94.486l0,977.166c0,9.778 -7.938,17.716 -17.716,17.716l-661.89,0c-9.778,0 -17.716,-7.938 -17.716,-17.716l-0,-977.166c-0,-9.778 7.938,-17.716 17.716,-17.716l661.89,-0c9.778,-0 17.716,7.938 17.716,17.716Z" style="fill:#fff;"/><g><g><rect x="169.606" y="106.297" width="64.252" height="94.488" style="fill:#fff;"/><path d="M224.627,177.163l-45.79,0l0,-66.141l43.247,-0l-0,13.058l-29.679,0l-0,13.314l26.88,-0l0,12.21l-26.88,0l-0,14.501l32.222,-0l0,13.058Z" style="fill-rule:nonzero;"/></g><g><rect x="304.724" y="106.297" width="64.252" height="94.488" style="fill:#fff;"/><path d="M359.746,177.163l-45.791,0l0,-66.141l43.247,-0l-0,13.058l-29.679,0l-0,13.314l26.88,-0l0,12.21l-26.88,0l-0,14.501l32.223,-0l-0,13.058Z" style="fill-rule:nonzero;"/></g><g><rect x="233.858" y="106.297" width="70.866" height="94.488" style="fill:#fff;"/><path d="M300,143.753c0,4.353 -0.594,8.537 -1.781,12.55c-1.187,4.014 -3.052,7.576 -5.596,10.685c-2.544,3.109 -5.781,5.582 -9.71,7.419c-3.929,1.838 -8.635,2.756 -14.118,2.756l-25.1,0l-0,-66.141l25.184,-0c5.427,-0 10.105,0.961 14.034,2.883c3.929,1.922 7.166,4.437 9.71,7.547c2.544,3.109 4.409,6.614 5.596,10.515c1.187,3.9 1.781,7.829 1.781,11.786Zm-14.755,-0.084c0,-2.262 -0.339,-4.58 -1.017,-6.954c-0.679,-2.374 -1.668,-4.522 -2.968,-6.444c-1.3,-1.922 -2.912,-3.505 -4.834,-4.749c-1.922,-1.244 -4.098,-1.866 -6.529,-1.866l-12.211,0l0,40.618l11.617,0c2.77,0 5.159,-0.593 7.166,-1.781c2.007,-1.187 3.66,-2.741 4.96,-4.663c1.301,-1.922 2.262,-4.127 2.884,-6.615c0.621,-2.487 0.932,-5.003 0.932,-7.546Z" style="fill-rule:nonzero;"/></g><g><rect x="598.11" y="106.297" width="67.087" height="94.488" style="fill:#fff;"/><path d="M662.308,177.163l-14.925,0l-3.476,-11.702l-24.507,0l-3.561,11.702l-14.84,0l21.708,-66.141l17.723,-0l21.878,66.141Zm-21.963,-23.404l-8.649,-28.661l-8.649,28.661l17.298,0Z" style="fill-rule:nonzero;"/></g><g><rect x="437.953" y="106.297" width="55.748" height="94.488" style="fill:#fff;"/><path d="M491.822,124.08l-19.04,0l-0,53.083l-13.91,0l-0,-53.083l-19.04,0l-0,-13.058l51.99,-0l-0,13.058Z" style="fill-rule:nonzero;"/></g><g><rect x="368.976" y="106.297" width="68.976" height="94.488" style="fill:#fff;"/><path d="M430.799,158.464c0,2.613 -0.516,5.063 -1.549,7.349c-1.032,2.287 -2.623,4.273 -4.772,5.961c-2.149,1.688 -4.87,3.008 -8.162,3.96c-3.293,0.953 -7.2,1.429 -11.721,1.429c-2.679,0 -5.358,-0.313 -8.037,-0.939c-2.679,-0.626 -5.247,-1.51 -7.703,-2.653c-2.455,-1.144 -4.772,-2.532 -6.948,-4.165c-2.177,-1.633 -4.102,-3.484 -5.777,-5.553l10.716,-8.41c2.065,2.831 4.716,5.049 7.954,6.655c3.237,1.606 6.53,2.463 9.879,2.572c3.851,0.163 6.711,-0.327 8.581,-1.47c1.869,-1.143 2.804,-2.722 2.804,-4.736c0,-2.232 -0.851,-3.906 -2.553,-5.022c-1.702,-1.116 -3.865,-1.973 -6.488,-2.572l-9.461,-2.041c-2.344,-0.545 -4.674,-1.252 -6.99,-2.123c-2.316,-0.871 -4.409,-2.042 -6.279,-3.512c-1.87,-1.47 -3.391,-3.293 -4.563,-5.471c-1.172,-2.177 -1.758,-4.817 -1.758,-7.92c-0,-2.559 0.53,-4.981 1.591,-7.268c1.06,-2.286 2.651,-4.287 4.772,-6.002c2.121,-1.714 4.772,-3.062 7.953,-4.042c3.181,-0.979 6.921,-1.469 11.218,-1.469c5.638,-0 10.647,0.966 15.028,2.898c4.381,1.933 8.051,4.696 11.009,8.289l-11.134,8.329c-1.619,-2.178 -3.726,-3.906 -6.321,-5.186c-2.596,-1.279 -5.456,-1.919 -8.582,-1.919c-3.516,0 -6.195,0.572 -8.037,1.715c-1.841,1.143 -2.762,2.532 -2.762,4.165c-0,1.633 0.767,2.994 2.302,4.083c1.535,1.088 4.088,2.041 7.66,2.857l8.288,1.96c7.145,1.688 12.237,4.206 15.279,7.553c3.042,3.348 4.563,7.581 4.563,12.698Z" style="fill-rule:nonzero;"/></g><g><rect x="493.701" y="106.297" width="69.921" height="94.488" style="fill:#fff;"/><path d="M558.898,177.163l-16.78,0l-14.866,-24.506l-8.955,0l-0,24.506l-15.128,0l0,-66.141l27.908,-0c3.941,-0 7.375,0.551 10.302,1.653c2.927,1.103 5.347,2.601 7.26,4.494c1.912,1.894 3.347,4.141 4.303,6.742c0.957,2.6 1.435,5.427 1.435,8.48c-0,2.656 -0.362,5.003 -1.087,7.038c-0.724,2.035 -1.652,3.773 -2.782,5.215c-1.13,1.441 -2.376,2.643 -3.738,3.604c-1.362,0.961 -2.71,1.724 -4.043,2.289l16.171,26.626Zm-19.301,-45.281c0,-2.431 -0.782,-4.367 -2.347,-5.809c-1.565,-1.441 -3.652,-2.162 -6.26,-2.162l-12.693,-0l-0,15.857l12.693,0.085c2.608,-0 4.695,-0.735 6.26,-2.205c1.565,-1.47 2.347,-3.392 2.347,-5.766Z" style="fill-rule:nonzero;"/></g><g><rect x="106.299" y="106.297" width="63.307" height="94.488" style="fill:#fff;"/><path d="M167.244,132.73c0,2.883 -0.435,5.625 -1.304,8.225c-0.869,2.6 -2.217,4.89 -4.043,6.869c-1.825,1.978 -4.158,3.547 -6.998,4.706c-2.84,1.159 -6.202,1.738 -10.085,1.738l-13.476,0l0,22.895l-14.084,0l-0,-66.141l27.56,-0c3.825,-0 7.158,0.565 9.998,1.696c2.84,1.13 5.173,2.685 6.998,4.663c1.826,1.979 3.188,4.283 4.087,6.911c0.898,2.629 1.347,5.442 1.347,8.438Zm-14.867,-0c0,-2.714 -0.825,-4.862 -2.477,-6.445c-1.652,-1.583 -3.869,-2.374 -6.651,-2.374l-11.911,-0l0,17.468l11.998,0c2.782,0 4.984,-0.749 6.607,-2.247c1.623,-1.498 2.434,-3.632 2.434,-6.402Z" style="fill-rule:nonzero;"/></g><g><rect x="665.197" y="106.297" width="79.37" height="94.488" style="fill:#fff;"/><path d="M734.702,177.163l-14.492,0l-31.238,-43.331l-0,43.331l-13.91,0l-0,-66.141l14.519,-0l31.211,43.416l-0,-43.416l13.91,-0l0,66.141Z" style="fill-rule:nonzero;"/></g><g><rect x="563.622" y="106.297" width="34.488" height="94.488" style="fill:#fff;"/><rect x="573.983" y="111.518" width="13.767" height="66.142" style="fill-rule:nonzero;"/></g></g><g><g><rect x="547.087" y="307.085" width="107.087" height="157.48" style="fill:#fff;"/><path d="M638.789,425.195l-76.318,-0l0,-110.236l72.078,-0l-0,21.764l-49.465,0l-0,22.189l44.801,-0l-0,20.351l-44.801,0l-0,24.167l53.705,0l-0,21.765Z" style="fill-rule:nonzero;"/></g><g><rect x="290.394" y="307.085" width="124.409" height="157.48" style="fill:#fff;"/><path d="M404.928,370.417c0,7.793 -1.115,15.042 -3.344,21.748c-2.23,6.705 -5.528,12.505 -9.895,17.398c-4.367,4.894 -9.825,8.722 -16.375,11.486c-6.55,2.764 -14.145,4.146 -22.785,4.146c-8.641,-0 -16.213,-1.405 -22.716,-4.214c-6.504,-2.809 -11.939,-6.66 -16.305,-11.554c-4.367,-4.893 -7.665,-10.692 -9.895,-17.398c-2.23,-6.706 -3.344,-13.955 -3.344,-21.748c-0,-7.975 1.068,-15.337 3.205,-22.088c2.137,-6.751 5.365,-12.596 9.685,-17.535c4.321,-4.939 9.756,-8.79 16.306,-11.554c6.55,-2.763 14.238,-4.145 23.064,-4.145c8.733,-0 16.375,1.404 22.925,4.213c6.55,2.81 12.008,6.683 16.374,11.622c4.367,4.939 7.642,10.806 9.825,17.603c2.184,6.796 3.275,14.136 3.275,22.02Zm-24.248,-0c-0,-4.713 -0.488,-9.175 -1.464,-13.389c-0.975,-4.214 -2.578,-7.907 -4.808,-11.078c-2.229,-3.172 -5.133,-5.664 -8.71,-7.476c-3.577,-1.812 -7.92,-2.719 -13.03,-2.719c-5.11,0 -9.453,0.929 -13.03,2.787c-3.577,1.858 -6.48,4.35 -8.71,7.476c-2.23,3.126 -3.856,6.796 -4.878,11.01c-1.022,4.214 -1.533,8.676 -1.533,13.389c0,4.984 0.488,9.56 1.464,13.728c0.975,4.169 2.578,7.771 4.807,10.806c2.23,3.036 5.134,5.392 8.711,7.068c3.576,1.677 7.966,2.515 13.169,2.515c5.296,0 9.732,-0.838 13.309,-2.515c3.577,-1.676 6.457,-4.032 8.64,-7.068c2.184,-3.035 3.74,-6.637 4.669,-10.806c0.929,-4.168 1.394,-8.744 1.394,-13.728Z" style="fill-rule:nonzero;"/></g><g><rect x="414.803" y="307.085" width="132.283" height="157.48" style="fill:#fff;"/><path d="M530.645,425.195l-24.153,-0l-52.064,-72.219l0,72.219l-23.184,-0l0,-110.236l24.199,-0l52.018,72.36l0,-72.36l23.184,-0l0,110.236Z" style="fill-rule:nonzero;"/></g><g><rect x="196.693" y="307.085" width="93.701" height="157.48" style="fill:#fff;"/><path d="M284.043,403.43l-0.145,21.765l-80.854,-0l-0,-21.765l50.135,-66.565l-48.396,-0l-0,-21.906l77.376,-0l-0,21.906l-49.99,66.565l51.874,0Z" style="fill-rule:nonzero;"/></g></g><g><g><g><rect id="path169825" serif:id="path1698" x="170.906" y="200.785" width="52.441" height="94.488" style="fill:#fff;"/><path d="M218.608,262.467l-5.215,9.185c-1.816,-0.104 -3.464,-0.558 -4.942,-1.362c-1.479,-0.805 -2.686,-1.855 -3.62,-3.153c-1.453,1.349 -3.152,2.361 -5.098,3.036c-1.945,0.674 -4.319,1.012 -7.121,1.012c-2.231,-0 -4.372,-0.286 -6.421,-0.857c-2.05,-0.57 -3.853,-1.439 -5.41,-2.607c-1.556,-1.167 -2.802,-2.607 -3.736,-4.32c-0.934,-1.712 -1.401,-3.736 -1.401,-6.071c0,-2.283 0.338,-4.228 1.012,-5.837c0.675,-1.608 1.531,-2.971 2.569,-4.086c1.037,-1.116 2.218,-2.011 3.541,-2.685c1.323,-0.675 2.633,-1.194 3.93,-1.557c1.298,-0.363 2.517,-0.623 3.659,-0.778c1.141,-0.156 2.049,-0.26 2.724,-0.312c1.089,-0.103 2.477,-0.22 4.164,-0.35c1.686,-0.13 3.23,-0.246 4.631,-0.35l-0,-0.623c-0,-1.92 -0.441,-3.308 -1.323,-4.164c-0.882,-0.856 -2.413,-1.284 -4.592,-1.284c-2.284,-0 -4.463,0.272 -6.538,0.817c-2.076,0.545 -4.359,1.544 -6.85,2.997l-4.592,-9.729c3.165,-1.764 6.266,-3.036 9.301,-3.814c3.036,-0.778 6.188,-1.168 9.457,-1.168c5.656,0 9.962,1.401 12.92,4.203c2.958,2.802 4.436,7.005 4.436,12.609l0,14.555c0,1.972 0.338,3.463 1.012,4.475c0.675,1.012 1.842,1.751 3.503,2.218Zm-16.812,-5.837l-0,-5.526c-0.934,0.052 -1.92,0.104 -2.958,0.156c-1.037,0.051 -1.92,0.129 -2.646,0.233c-0.882,0.104 -1.803,0.208 -2.763,0.311c-0.96,0.104 -1.829,0.325 -2.607,0.662c-0.779,0.337 -1.427,0.817 -1.946,1.44c-0.519,0.623 -0.779,1.505 -0.779,2.646c0,1.505 0.649,2.646 1.946,3.425c1.297,0.778 2.776,1.167 4.437,1.167c2.646,0 4.527,-0.441 5.643,-1.323c1.115,-0.882 1.673,-1.946 1.673,-3.191Z" style="fill-rule:nonzero;"/></g><g><rect id="path169826" serif:id="path1698" x="223.346" y="200.785" width="56.22" height="94.488" style="fill:#fff;"/><path d="M272.313,271.652l-13.348,-0l-0,-29.616c-0,-2.503 -0.581,-4.311 -1.742,-5.423c-1.162,-1.112 -2.821,-1.669 -4.978,-1.669c-1.051,0 -2.075,0.139 -3.07,0.417c-0.996,0.279 -1.88,0.724 -2.655,1.335c-0.774,0.612 -1.396,1.405 -1.866,2.378c-0.471,0.973 -0.706,2.183 -0.706,3.629l0,28.949l-13.348,-0l0,-47.386l13.348,-0l-0.057,3.003c1.449,-1.335 3.19,-2.391 5.225,-3.17c2.034,-0.779 3.998,-1.168 5.893,-1.168c2.842,0 5.336,0.417 7.482,1.251c2.146,0.835 3.957,1.989 5.434,3.463c1.477,1.473 2.577,3.198 3.302,5.172c0.724,1.974 1.086,4.13 1.086,6.465l0,32.37Z" style="fill-rule:nonzero;"/></g><g><rect id="path169827" serif:id="path1698" x="279.567" y="200.785" width="56.22" height="94.488" style="fill:#fff;"/><path d="M330.523,271.398l-13.33,0l0,-2.53c-1.293,1.181 -2.854,2.137 -4.682,2.868c-1.828,0.731 -3.67,1.097 -5.526,1.097c-3.655,-0 -6.889,-0.689 -9.702,-2.067c-2.812,-1.378 -5.174,-3.22 -7.086,-5.526c-1.912,-2.306 -3.375,-4.964 -4.387,-7.973c-1.012,-3.009 -1.519,-6.172 -1.519,-9.491c0,-3.374 0.478,-6.608 1.435,-9.701c0.956,-3.094 2.376,-5.822 4.26,-8.184c1.884,-2.362 4.204,-4.26 6.96,-5.694c2.756,-1.435 5.934,-2.152 9.533,-2.152c1.969,0 3.881,0.31 5.737,0.928c1.856,0.619 3.515,1.491 4.977,2.616l0,-20.079l13.33,-0l0,65.888Zm-13.245,-17.8l-0,-12.402c-0,-1.069 -0.254,-2.025 -0.763,-2.868c-0.508,-0.844 -1.158,-1.575 -1.949,-2.194c-0.791,-0.619 -1.68,-1.097 -2.669,-1.434c-0.989,-0.338 -1.963,-0.506 -2.922,-0.506c-3.56,-0 -6.314,1.251 -8.262,3.754c-1.949,2.503 -2.923,5.723 -2.923,9.66c-0,1.799 0.254,3.473 0.762,5.019c0.509,1.547 1.229,2.883 2.161,4.008c0.932,1.125 2.076,2.024 3.432,2.699c1.356,0.675 2.881,1.013 4.575,1.013c0.847,-0 1.779,-0.141 2.796,-0.422c1.017,-0.281 1.949,-0.703 2.796,-1.266c0.847,-0.562 1.553,-1.265 2.118,-2.109c0.565,-0.843 0.848,-1.828 0.848,-2.952Z" style="fill-rule:nonzero;"/></g></g><g><g><rect x="615.709" y="200.785" width="64.252" height="94.488" style="fill:#fff;"/><path d="M670.73,271.652l-45.791,-0l0,-66.142l43.247,-0l-0,13.059l-29.679,-0l-0,13.313l26.881,-0l-0,12.211l-26.881,-0l-0,14.5l32.223,-0l-0,13.059Z" style="fill-rule:nonzero;"/></g><g><rect x="365.315" y="200.785" width="67.087" height="94.488" style="fill:#fff;"/><path d="M428.137,225.573l-12.886,4.404c-1.142,-3.589 -2.909,-6.498 -5.301,-8.727c-2.392,-2.229 -5.41,-3.344 -9.053,-3.344c-3.045,0 -5.641,0.53 -7.788,1.591c-2.148,1.06 -3.901,2.528 -5.261,4.404c-1.359,1.875 -2.338,4.077 -2.936,6.606c-0.598,2.528 -0.897,5.26 -0.897,8.196c0,2.827 0.272,5.491 0.816,7.993c0.543,2.501 1.454,4.675 2.732,6.524c1.278,1.849 2.936,3.303 4.975,4.363c2.039,1.06 4.58,1.591 7.625,1.591c3.534,-0 6.552,-0.938 9.053,-2.814c2.501,-1.876 4.404,-4.771 5.709,-8.686l13.13,4.241c-2.555,6.688 -6.103,11.649 -10.643,14.884c-4.54,3.235 -10.344,4.853 -17.412,4.853c-5.056,-0 -9.488,-0.911 -13.294,-2.733c-3.805,-1.821 -6.973,-4.24 -9.501,-7.258c-2.528,-3.018 -4.431,-6.497 -5.709,-10.439c-1.277,-3.942 -1.916,-8.061 -1.916,-12.356c-0,-4.404 0.639,-8.631 1.916,-12.682c1.278,-4.05 3.181,-7.598 5.709,-10.643c2.528,-3.045 5.696,-5.478 9.501,-7.299c3.806,-1.821 8.238,-2.732 13.294,-2.732c6.851,-0 12.75,1.713 17.698,5.138c4.947,3.425 8.427,8.4 10.439,14.925Z" style="fill-rule:nonzero;"/></g><g><rect x="492.874" y="200.785" width="67.087" height="94.488" style="fill:#fff;"/><path d="M555.696,225.573l-12.886,4.404c-1.142,-3.589 -2.909,-6.498 -5.301,-8.727c-2.392,-2.229 -5.41,-3.344 -9.053,-3.344c-3.045,0 -5.641,0.53 -7.788,1.591c-2.148,1.06 -3.901,2.528 -5.261,4.404c-1.359,1.875 -2.338,4.077 -2.936,6.606c-0.598,2.528 -0.897,5.26 -0.897,8.196c0,2.827 0.272,5.491 0.816,7.993c0.543,2.501 1.454,4.675 2.732,6.524c1.278,1.849 2.936,3.303 4.975,4.363c2.039,1.06 4.58,1.591 7.625,1.591c3.534,-0 6.552,-0.938 9.053,-2.814c2.501,-1.876 4.404,-4.771 5.709,-8.686l13.13,4.241c-2.555,6.688 -6.103,11.649 -10.643,14.884c-4.54,3.235 -10.344,4.853 -17.412,4.853c-5.056,-0 -9.488,-0.911 -13.293,-2.733c-3.806,-1.821 -6.974,-4.24 -9.502,-7.258c-2.528,-3.018 -4.431,-6.497 -5.709,-10.439c-1.277,-3.942 -1.916,-8.061 -1.916,-12.356c-0,-4.404 0.639,-8.631 1.916,-12.682c1.278,-4.05 3.181,-7.598 5.709,-10.643c2.528,-3.045 5.696,-5.478 9.502,-7.299c3.805,-1.821 8.237,-2.732 13.293,-2.732c6.851,-0 12.75,1.713 17.698,5.138c4.947,3.425 8.427,8.4 10.439,14.925Z" style="fill-rule:nonzero;"/></g><g><rect x="559.961" y="200.785" width="55.748" height="94.488" style="fill:#fff;"/><path d="M613.346,272.165l-43.643,0l-0,-66.142l13.91,0l0,53.083l29.733,0l0,13.059Z" style="fill-rule:nonzero;"/></g><g><rect x="432.402" y="200.785" width="60.472" height="94.488" style="fill:#fff;"/><path d="M492.284,205.51l-22.604,39.77l-0,26.372l-13.91,-0l-0,-26.372l-22.779,-39.77l15.736,-0l13.869,25.354l13.952,-25.354l15.736,-0Z" style="fill-rule:nonzero;"/></g></g></g><g id="_619-No-Motor-Vehicles" serif:id="619 No Motor Vehicles"><circle cx="425.433" cy="720.864" r="226.772" style="fill:#e31837;"/><circle cx="425.433" cy="720.864" r="181.417" style="fill:#fff;"/><path d="M339.233,833.722l0.015,31.834c3.626,4.111 8.864,6.476 14.368,6.476c5.504,0 10.742,-2.365 14.368,-6.476l-0.015,-29.471l19.138,1.167l19.137,0.778l19.215,0.467l19.138,-0.467l19.137,-0.778l19.138,-1.167l-0.015,29.471c3.626,4.111 8.864,6.476 14.368,6.476c5.504,0 10.742,-2.365 14.368,-6.476l-0.025,-31.834c4.432,-2.592 7.167,-7.331 7.206,-12.441l0,-40.305c-0.039,-7.483 -5.758,-13.703 -13.191,-14.311l-7.496,-46.827c-1.889,-11.61 -11.901,-20.152 -23.637,-20.152l-98.099,-0c-11.776,-0 -21.789,8.543 -23.637,20.153l-7.496,46.826c-7.471,0.608 -13.191,6.828 -13.152,14.311l0,40.305c-0.039,5.11 2.697,9.849 7.167,12.441Zm134.069,-16.156l-95.765,0l0,6.614c0,-0 10.631,0.454 15.948,0.622c5.329,0.169 10.697,0.298 16.026,0.389c5.315,0.091 10.632,0.156 15.947,0.156c5.316,-0 10.633,-0.065 15.948,-0.156c5.316,-0.091 10.633,-0.22 15.948,-0.389c5.316,-0.168 15.948,-0.622 15.948,-0.622l0,-6.614Zm0,-14.939l0,7.781l-95.765,-0l0,-7.781l95.765,-0Zm8.091,-13.189c-0,7.413 6.008,13.422 13.419,13.422c7.412,0 13.42,-6.009 13.42,-13.422c-0,-7.412 -6.008,-13.422 -13.42,-13.422c-7.411,0 -13.419,6.01 -13.419,13.422Zm-138.786,0c0,-7.412 6.009,-13.422 13.42,-13.422c7.411,0 13.419,6.01 13.419,13.422c0,7.413 -6.008,13.422 -13.419,13.422c-7.411,0 -13.42,-6.009 -13.42,-13.422Zm98.799,-1.673c5.316,0.091 10.634,0.208 15.948,0.389c5.316,0.182 15.948,0.701 15.948,0.701l0,6.536l-95.765,-0l0,-6.536c0,-0 10.63,-0.519 15.948,-0.701c5.329,-0.181 10.697,-0.298 16.026,-0.389c5.315,-0.09 10.632,-0.155 15.947,-0.155c5.316,-0 10.633,0.065 15.948,0.155Zm52.102,-40.532c0.441,2.914 -0.456,5.873 -2.454,8.034c-1.998,2.162 -4.877,3.288 -7.764,3.033c0,-0 -19.26,-0.734 -28.892,-1.036c-9.639,-0.302 -19.293,-0.778 -28.94,-0.778c-9.646,0 -19.294,0.476 -28.939,0.778c-9.652,0.302 -28.97,1.036 -28.97,1.036c-2.965,0.255 -5.843,-0.871 -7.841,-3.033c-1.998,-2.161 -2.895,-5.12 -2.416,-8.034l2.174,-13.42c1.47,-9.453 8.989,-16.766 18.493,-18.009c-0,0 19.931,-1.525 29.918,-1.801c10.834,-0.301 24.252,-0.301 35.085,-0c9.987,0.276 29.917,1.801 29.917,1.801c9.425,1.242 16.945,8.554 18.494,18.008l2.135,13.421Z"/><path d="M364.358,620.265l2.07,0.09l2.041,0.24l2.04,0.33l2.01,0.45l1.98,0.57l1.95,0.69l-1.74,3l-1.83,-0.63l-1.89,-0.51l-1.89,-0.39l-1.92,-0.27l-1.921,-0.15l-1.95,-0.03l-1.92,0.09l-1.95,0.18l-1.89,0.33l-1.89,0.42l-1.86,0.54l-1.83,0.66l-1.8,0.75l-1.71,0.87l-1.68,0.991l-1.62,1.08l-1.56,1.17l-1.47,1.26l-1.38,1.35l-1.32,1.41l-1.2,1.53l-1.14,1.56l-1.02,1.651l-0.93,1.71l-0.81,1.74l-0.72,1.8l-0.6,1.86l-0.51,1.86l-0.36,1.891l-0.27,1.92l-0.15,1.95l-0.03,1.92l0.09,1.95l0.21,1.921l0.33,1.92l0.45,1.89l0.54,1.86l0.66,1.8l0.78,1.8l0.9,1.711l0.96,1.68l1.08,1.59l1.2,1.56l1.26,1.44l1.35,1.41l1.44,1.29l1.5,1.201l1.59,1.14l1.65,1.02l1.71,0.9l1.77,0.81l1.8,0.72l1.83,0.6l1.89,0.48l1.89,0.36l1.92,0.24l1.95,0.15l1.95,0l1.92,-0.09l1.92,-0.24l1.921,-0.33l1.89,-0.45l1.86,-0.54l1.8,-0.69l1.77,-0.78l1.74,-0.9l1.65,-0.99l1.59,-1.08l1.56,-1.201l1.44,-1.26l1.38,-1.38l1.29,-1.44l1.2,-1.5l1.11,-1.59l1.02,-1.65l0.9,-1.741l0.81,-1.74l0.69,-1.83l0.6,-1.83l0.45,-1.89l0.36,-1.89l0.24,-1.921l0.12,-1.95l0,-1.95l-0.09,-1.92l-0.24,-1.92l-0.33,-1.921l-0.48,-1.86l-0.57,-1.86l-0.69,-1.83l-0.78,-1.77l-0.9,-1.71l-0.99,-1.651l-1.11,-1.59l-1.2,-1.53l-1.29,-1.47l-1.35,-1.35l-1.47,-1.29l1.74,-3.001l1.56,1.351l1.5,1.44l1.41,1.5l1.29,1.62l1.23,1.65l1.11,1.74l1.02,1.801l0.9,1.86l0.81,1.89l0.69,1.95l0.57,2.01l0.45,2.01l0.33,2.041l0.21,2.04l0.09,2.07l-0.03,2.07l0,1.29l0.15,1.291l0.24,1.26l0.36,1.23l0.51,1.2l0.57,1.14l0.72,1.08l0.81,1.02l0.87,0.93l0.99,0.84l1.05,0.75l1.11,0.63l1.17,0.541l1.23,0.42l1.26,0.3l1.261,0.18l1.29,0.06l57.211,-0l0.99,1.65l1.08,1.56l1.17,1.53l1.26,1.41l1.35,1.38l1.41,1.26l1.5,1.201l1.56,1.08l1.65,1.02l1.68,0.9l1.74,0.78l1.77,0.72l1.83,0.57l1.83,0.48l1.89,0.36l1.89,0.27l1.89,0.12l1.92,0.03l1.92,-0.09l1.89,-0.18l1.891,-0.33l1.86,-0.42l1.83,-0.54l1.8,-0.66l1.77,-0.75l1.71,-0.84l1.649,-0.96l1.591,-1.05l1.53,-1.17l1.44,-1.231l1.379,-1.32l1.32,-1.41l1.201,-1.47l1.109,-1.56l1.051,-1.59l0.93,-1.68l0.81,-1.711l0.72,-1.77l0.63,-1.8l0.51,-1.86l0.39,-1.86l0.3,-1.89l0.15,-1.921l0.06,-1.89l6.12,0l-0.06,-2.13l-0.15,-2.1l-0.3,-2.1l-0.42,-2.071l-0.51,-2.07l-0.66,-2.01l-0.75,-1.98l-0.84,-1.92l-0.96,-1.891l-1.08,-1.83l-1.17,-1.77l-1.26,-1.71l-1.35,-1.62l-1.441,-1.56l-1.53,-1.441l-1.59,-1.38l-1.679,-1.29l-1.771,-1.2l-1.8,-1.08l-1.89,-0.99l-1.92,-0.9l0,-2.37l-0.059,-0.901l-0.15,-0.87l-0.3,-0.84l-0.39,-0.81l-0.511,-0.72l-0.569,-0.69l-0.66,-0.57l-0.75,-0.51l-0.81,-0.39l-0.84,-0.27l-0.87,-0.18l-0.87,-0.06l-29.941,-0l-0,-1.95l-0.06,-1.26l-0.18,-1.26l-0.3,-1.231l-0.39,-1.2l-0.54,-1.14l-0.6,-1.11l-0.72,-1.05l-0.81,-0.96l-16.081,-17.432l-15.69,-6.69l-2.73,-0l0,-4.651l0.69,-0.96l0.63,-1.05l0.51,-1.08l0.39,-1.14l0.27,-1.14l0.18,-1.201l0.06,-1.2l-0.09,-1.2l-0.18,-1.17l-0.3,-1.17l-0.39,-1.14l-0.54,-1.08l-0.6,-1.02l-0.72,-0.96l-0.81,-0.87l-0.9,-0.811l-0.96,-0.72l-1.05,-0.6l-1.08,-0.51l-1.14,-0.39l-1.14,-0.3l-1.2,-0.18l-1.2,-0.06l-1.2,0.09l-1.17,0.18l-1.17,0.27l-1.14,0.42l-1.08,0.51l-1.02,0.63l-0.96,0.721l-0.9,0.78l-0.81,0.9l-0.69,0.96l-0.63,1.05l-0.51,1.08l-0.39,1.11l-0.3,1.17l-0.18,1.2l-0.06,1.2l-0,1.351l2.73,-0l-0,8.16l0.06,0.87l0.15,0.84l0.27,0.811l0.36,0.78l0.48,0.72l0.54,0.66l0.63,0.6l0.72,0.48l0.75,0.42l0.81,0.3l0.81,0.21l0.87,0.09l0.87,-0l0.84,-0.12l-0,0.78l-0.03,0.48l-0.12,0.45l-0.21,0.42l-8.49,14.612l-9.871,7.89l-0.48,0.33l-0.57,0.24l-0.57,0.15l-0.6,0.03l-0.57,-0.06l-0.57,-0.18l-0.54,-0.27l-0.48,-0.36l-0.42,-0.42l-0.33,-0.51l-0.21,-0.54l-0.15,-0.57l-0.03,-0.6l0.06,-0.6l6.33,-29.673l0,-0.33l-0.059,-0.3l-0.18,-0.27l-0.24,-0.21l-0.3,-0.12l-0.33,-0l-0.301,0.06l-0.27,0.18l-0.21,0.24l-13.98,23.282l-0.93,1.5l-1.05,1.38l-1.14,1.351l-1.2,1.26l-1.29,1.2l-1.38,1.08l-1.44,1.02l-1.47,0.9l-1.56,0.81l-1.62,0.72l-1.62,0.6l-1.68,0.51l-1.71,0.39l-1.74,0.27l-1.74,0.18l-1.74,0.06l-7.591,0l0,12.932l2.04,-0Zm-1.11,23.132l-1.2,0.09l-1.17,0.21l-1.14,0.33l-1.11,0.45l-1.05,0.54l-1.02,0.63l-0.93,0.75l-0.87,0.84l-0.78,0.901l-0.66,0.96l-0.6,1.05l-0.48,1.08l-0.36,1.14l-0.27,1.17l-0.15,1.2l-0.03,1.17l0.09,1.2l0.21,1.17l0.3,1.171l0.42,1.11l0.54,1.05l0.63,1.02l0.72,0.93l0.84,0.87l0.9,0.81l0.96,0.69l1.02,0.6l1.11,0.48l1.11,0.39l1.17,0.27l1.17,0.15l1.2,0.06l1.2,-0.09l1.17,-0.18l1.17,-0.3l1.11,-0.42l1.08,-0.51l1.02,-0.63l0.931,-0.72l0.9,-0.81l0.78,-0.87l0.72,-0.99l0.6,-1.02l0.51,-1.08l0.39,-1.11l0.3,-1.171l0.15,-1.17l0.06,-1.2l-0.06,-1.2l-0.18,-1.17l-0.27,-1.17l-0.42,-1.11l-0.51,-1.08l-0.6,-1.02l3.63,-6.331l0.99,1.14l0.9,1.2l0.78,1.26l0.69,1.29l0.6,1.381l0.48,1.41l0.36,1.44l0.24,1.47l0.15,1.47l0.03,1.5l-0.09,1.47l-0.21,1.471l-0.33,1.47l-0.45,1.41l-0.54,1.38l-0.66,1.35l-0.75,1.29l-0.84,1.2l-0.96,1.17l-1.02,1.051l-1.11,0.99l-1.2,0.9l-1.23,0.81l-1.32,0.72l-1.35,0.57l-1.41,0.51l-1.44,0.36l-1.471,0.27l-1.47,0.15l-1.5,0.06l-1.47,-0.09l-1.5,-0.21l-1.44,-0.3l-1.44,-0.42l-1.38,-0.54l-1.35,-0.63l-1.29,-0.75l-1.23,-0.84l-1.14,-0.96l-1.08,-1.021l-0.99,-1.08l-0.93,-1.2l-0.81,-1.23l-0.72,-1.32l-0.6,-1.35l-0.51,-1.41l-0.39,-1.44l-0.27,-1.441l-0.15,-1.5l-0.06,-1.47l0.06,-1.5l0.21,-1.47l0.3,-1.44l0.39,-1.44l0.54,-1.411l0.63,-1.32l0.72,-1.32l0.84,-1.23l0.93,-1.17l1.02,-1.08l1.08,-0.99l1.17,-0.93l1.26,-0.81l1.29,-0.75l1.35,-0.601l1.38,-0.51l1.44,-0.42l1.47,-0.27l1.47,-0.18l1.5,-0.06l1.47,0.06l1.5,0.15l1.441,0.3l-3.631,6.301l-1.2,0Zm124.803,4.68l-0.69,0.991l-0.6,1.02l-0.48,1.11l-0.39,1.11l-0.24,1.17l-0.15,1.2l-0.06,1.17l0.09,1.2l0.21,1.17l0.3,1.171l0.42,1.11l0.51,1.08l0.63,0.99l0.75,0.96l0.81,0.87l0.9,0.78l0.96,0.72l1.02,0.6l1.08,0.48l1.14,0.39l1.17,0.3l1.17,0.15l1.2,0.06l1.17,-0.06l1.2,-0.21l1.14,-0.27l1.14,-0.42l1.05,-0.51l1.051,-0.63l0.93,-0.72l0.9,-0.78l0.78,-0.9l0.72,-0.96l0.63,-1.02l0.51,-1.08l0.39,-1.11l0.3,-1.171l0.18,-1.17l0.06,-1.2l-0.06,-1.2l-0.18,-1.17l-0.27,-1.17l-0.42,-1.11l-0.48,-1.08l-0.63,-1.05l-0.69,-0.961l-0.78,-0.87l-0.9,-0.81l-0.93,-0.72l-1.021,-0.63l-1.08,-0.54l-1.11,-0.39l-1.17,-0.33l-1.17,-0.18l-2.49,-6.841l1.47,-0.03l1.5,0.09l1.47,0.21l1.47,0.3l1.41,0.42l1.38,0.541l1.351,0.66l1.29,0.75l1.23,0.84l1.14,0.93l1.08,1.02l0.989,1.11l0.901,1.2l0.81,1.23l0.72,1.32l0.6,1.351l0.51,1.41l0.39,1.44l0.269,1.47l0.151,1.47l0.029,1.47l-0.059,1.5l-0.181,1.47l-0.329,1.471l-0.391,1.41l-0.54,1.41l-0.629,1.35l-0.75,1.29l-0.841,1.23l-0.929,1.14l-1.02,1.11l-1.08,0.991l-1.17,0.9l-1.261,0.84l-1.29,0.72l-1.35,0.6l-1.41,0.51l-1.44,0.42l-1.44,0.27l-1.5,0.18l-1.47,0.06l-1.5,-0.06l-1.47,-0.18l-1.47,-0.3l-1.41,-0.42l-1.41,-0.51l-1.35,-0.63l-1.29,-0.72l-1.23,-0.81l-1.17,-0.93l-1.11,-1.021l-1.02,-1.08l-0.9,-1.17l-0.84,-1.23l-0.72,-1.29l-0.63,-1.35l-0.54,-1.41l-0.39,-1.41l-0.3,-1.471l-0.18,-1.47l-0.06,-1.5l0.03,-1.47l0.18,-1.5l0.27,-1.44l0.39,-1.44l0.51,-1.411l0.6,-1.35l0.72,-1.29l0.81,-1.26l0.93,-1.17l0.99,-1.11l1.08,-1.02l1.17,-0.93l2.49,6.84l-0.78,0.9Zm-24.36,-18.991l-0,20.522l0.06,0.42l0.21,0.36l0.3,0.27l0.39,0.18l0.39,0.03l0.42,-0.09l0.36,-0.21l0.27,-0.3l0.15,-0.39l0.42,-1.921l0.51,-1.89l0.66,-1.86l0.75,-1.8l0.87,-1.77l0.96,-1.71l1.08,-1.621l1.17,-1.59l1.26,-1.47l1.38,-1.44l1.44,-1.32l0.24,-0.27l0.15,-0.33l0.06,-0.36l-0.03,-0.36l-0.12,-0.36l-0.21,-0.3l-0.3,-0.21l-0.33,-0.15l-0.36,-0.06l-12.15,-0Zm-22.951,-18.362l-1.11,-0.75l-1.02,-0.87l-0.96,-0.93l-0.9,-1.02l-0.78,-1.081l-0.72,-1.14l-0.6,-1.2l-0.51,-1.26l-0.39,-1.26l-25.861,14.971l25.861,8.161l8.16,-12.931l-1.17,-0.69Z"/></g><g><g><rect id="path169828" serif:id="path1698" x="351.024" y="977.163" width="33.543" height="94.488" style="fill:#fff;"/><rect x="355.748" y="1014.96" width="18.898" height="9.449" style="fill-rule:nonzero;"/></g><g><rect id="path169829" serif:id="path1698" x="224.646" y="977.163" width="52.441" height="94.488" style="fill:#fff;"/><path d="M272.348,1038.85l-5.215,9.185c-1.816,-0.104 -3.463,-0.558 -4.942,-1.363c-1.479,-0.804 -2.685,-1.855 -3.619,-3.152c-1.453,1.349 -3.153,2.361 -5.098,3.036c-1.946,0.674 -4.32,1.012 -7.122,1.012c-2.231,-0 -4.372,-0.286 -6.421,-0.857c-2.05,-0.57 -3.853,-1.44 -5.41,-2.607c-1.556,-1.167 -2.802,-2.607 -3.736,-4.32c-0.934,-1.712 -1.401,-3.736 -1.401,-6.071c0,-2.283 0.338,-4.228 1.012,-5.837c0.675,-1.609 1.531,-2.971 2.569,-4.086c1.038,-1.116 2.218,-2.011 3.541,-2.685c1.323,-0.675 2.633,-1.194 3.931,-1.557c1.297,-0.363 2.516,-0.623 3.658,-0.778c1.141,-0.156 2.049,-0.26 2.724,-0.312c1.09,-0.103 2.478,-0.22 4.164,-0.35c1.686,-0.13 3.23,-0.246 4.631,-0.35l-0,-0.623c-0,-1.92 -0.441,-3.308 -1.323,-4.164c-0.882,-0.856 -2.413,-1.284 -4.592,-1.284c-2.283,-0 -4.463,0.272 -6.538,0.817c-2.076,0.545 -4.359,1.544 -6.849,2.997l-4.593,-9.729c3.166,-1.765 6.266,-3.036 9.301,-3.814c3.036,-0.778 6.188,-1.168 9.457,-1.168c5.656,0 9.962,1.401 12.92,4.203c2.958,2.802 4.437,7.005 4.437,12.609l-0,14.555c-0,1.972 0.337,3.463 1.011,4.475c0.675,1.012 1.842,1.751 3.503,2.218Zm-16.812,-5.837l0,-5.526c-0.934,0.052 -1.92,0.104 -2.958,0.156c-1.037,0.051 -1.919,0.129 -2.646,0.233c-0.882,0.104 -1.803,0.208 -2.763,0.311c-0.96,0.104 -1.829,0.325 -2.607,0.662c-0.779,0.337 -1.427,0.817 -1.946,1.44c-0.519,0.622 -0.778,1.505 -0.778,2.646c-0,1.505 0.648,2.646 1.945,3.425c1.298,0.778 2.776,1.167 4.437,1.167c2.646,0 4.527,-0.441 5.643,-1.323c1.115,-0.882 1.673,-1.946 1.673,-3.191Z" style="fill-rule:nonzero;"/></g><g><rect id="path169830" serif:id="path1698" x="677.953" y="977.163" width="50.551" height="94.488" style="fill:#fff;"/><path d="M726.533,1000.72l-15.98,47.245l-14.649,-0l-15.98,-47.245l13.816,0l9.488,28.946l9.405,-28.946l13.9,0Z" style="fill-rule:nonzero;"/></g><g><rect id="path169831" serif:id="path1698" x="623.622" y="977.163" width="54.331" height="94.488" style="fill:#fff;"/><path d="M673.232,1024.96c0,3.296 -0.523,6.357 -1.569,9.182c-1.047,2.825 -2.538,5.258 -4.474,7.298c-1.935,2.041 -4.29,3.65 -7.063,4.827c-2.773,1.177 -5.859,1.766 -9.26,1.766c-3.401,-0 -6.488,-0.576 -9.261,-1.727c-2.772,-1.151 -5.14,-2.76 -7.102,-4.826c-1.962,-2.067 -3.479,-4.513 -4.552,-7.338c-1.072,-2.825 -1.608,-5.886 -1.608,-9.182c-0,-3.401 0.483,-6.579 1.451,-9.535c0.968,-2.956 2.407,-5.52 4.317,-7.691c1.909,-2.171 4.264,-3.872 7.063,-5.101c2.799,-1.23 6.03,-1.845 9.692,-1.845c3.61,0 6.814,0.628 9.614,1.884c2.799,1.256 5.14,2.969 7.023,5.14c1.884,2.172 3.31,4.735 4.277,7.691c0.968,2.956 1.452,6.108 1.452,9.457Zm-12.321,-0c0,-1.831 -0.248,-3.545 -0.745,-5.141c-0.497,-1.595 -1.178,-2.995 -2.041,-4.198c-0.863,-1.203 -1.923,-2.158 -3.178,-2.865c-1.256,-0.706 -2.616,-1.059 -4.081,-1.059c-1.517,-0 -2.904,0.353 -4.159,1.059c-1.256,0.707 -2.329,1.662 -3.218,2.865c-0.89,1.203 -1.57,2.603 -2.041,4.198c-0.47,1.596 -0.706,3.31 -0.706,5.141c0,3.61 0.916,6.54 2.747,8.789c1.831,2.25 4.29,3.375 7.377,3.375c3.034,0 5.467,-1.125 7.298,-3.375c1.832,-2.249 2.747,-5.179 2.747,-8.789Z" style="fill-rule:nonzero;"/></g><g><rect id="path169832" serif:id="path1698" x="277.087" y="977.163" width="56.22" height="94.488" style="fill:#fff;"/><path d="M326.053,1048.03l-13.348,-0l0,-29.617c0,-2.502 -0.581,-4.31 -1.742,-5.422c-1.161,-1.113 -2.821,-1.669 -4.978,-1.669c-1.051,0 -2.075,0.139 -3.07,0.417c-0.995,0.279 -1.88,0.723 -2.655,1.335c-0.774,0.612 -1.396,1.405 -1.866,2.378c-0.47,0.973 -0.705,2.183 -0.705,3.629l-0,28.949l-13.349,-0l0,-47.386l13.349,-0l-0.058,3.003c1.449,-1.335 3.19,-2.391 5.225,-3.17c2.034,-0.779 3.998,-1.168 5.893,-1.168c2.842,0 5.337,0.417 7.482,1.251c2.146,0.835 3.957,1.989 5.434,3.463c1.477,1.473 2.577,3.198 3.302,5.172c0.724,1.974 1.086,4.13 1.086,6.465l0,32.37Z" style="fill-rule:nonzero;"/></g><g><rect x="544.252" y="977.163" width="79.37" height="94.488" style="fill:#fff;"/><path d="M613.757,1048.03l-14.491,-0l-31.239,-43.332l0,43.332l-13.91,-0l-0,-66.142l14.519,-0l31.211,43.416l-0,-43.416l13.91,-0l0,66.142Z" style="fill-rule:nonzero;"/></g><g><rect x="179.764" y="977.163" width="44.882" height="94.488" style="fill:#fff;"/><path d="M213.747,1029.15c-0,3.537 -0.354,6.576 -1.063,9.117c-0.708,2.542 -1.897,4.628 -3.569,6.258c-1.671,1.63 -3.852,2.832 -6.543,3.606c-2.691,0.773 -5.991,1.16 -9.9,1.16c-0.85,0 -1.799,-0.041 -2.847,-0.124c-1.048,-0.083 -2.11,-0.207 -3.187,-0.373c-1.076,-0.166 -2.11,-0.359 -3.101,-0.58c-0.992,-0.221 -1.856,-0.47 -2.592,-0.746l3.569,-12.93c1.133,0.497 2.436,0.884 3.909,1.16c1.473,0.276 2.889,0.414 4.249,0.414c4.985,0 7.478,-2.486 7.478,-7.459l0,-45.504l13.597,0l-0,46.001Z" style="fill-rule:nonzero;"/></g><g><rect x="461.339" y="977.163" width="65.197" height="94.488" style="fill:#fff;"/><path d="M520.487,1036.2l-7.39,0l0,11.872l-14.606,-0l0,-11.872l-32.428,0l-0,-12.295l30.516,-41.975l16.518,0l0,41.89l7.39,-0l0,12.38Zm-21.822,-35.954l-17.127,23.574l17.127,-0l0,-23.574Z" style="fill-rule:nonzero;"/></g><g><rect x="402.283" y="977.163" width="59.055" height="94.488" style="fill:#fff;"/><path d="M454.332,1048.07l-47.639,-0l0,-11.786c1.565,-0.904 3.217,-1.893 4.956,-2.967c1.738,-1.074 3.491,-2.177 5.259,-3.307c1.767,-1.131 3.492,-2.29 5.172,-3.477c1.681,-1.187 3.275,-2.345 4.782,-3.476c1.101,-0.848 2.39,-1.922 3.868,-3.222c1.478,-1.3 2.869,-2.77 4.173,-4.409c1.304,-1.639 2.405,-3.476 3.303,-5.511c0.898,-2.035 1.348,-4.24 1.348,-6.614c-0,-2.883 -0.725,-5.313 -2.174,-7.292c-1.449,-1.978 -3.854,-2.967 -7.215,-2.967c-3.767,-0 -6.404,1.3 -7.911,3.9c-1.507,2.6 -1.941,6.02 -1.304,10.259l-14.257,0l-0.087,-3.222c-0.115,-3.278 0.348,-6.345 1.391,-9.199c1.044,-2.855 2.565,-5.314 4.564,-7.377c2,-2.063 4.492,-3.688 7.476,-4.875c2.985,-1.187 6.39,-1.781 10.215,-1.781c3.767,0 7.157,0.565 10.171,1.696c3.014,1.13 5.549,2.699 7.606,4.706c2.058,2.006 3.623,4.395 4.695,7.164c1.072,2.77 1.579,5.823 1.521,9.158c-0.058,4.635 -1.391,9.143 -3.999,13.524c-2.608,4.38 -6.259,8.577 -10.953,12.591c-1.217,1.017 -2.594,2.077 -4.129,3.179c-1.536,1.103 -3.029,2.078 -4.477,2.926l23.645,-0l-0,12.379Z" style="fill-rule:nonzero;"/></g><g><rect x="122.362" y="977.163" width="39.685" height="94.488" style="fill:#fff;"/><path d="M151.64,1048.07l-14.432,-0l-0,-45.366l-11.302,-0l-0,-10.939c2.26,-0.113 4.245,-0.311 5.955,-0.594c1.71,-0.283 3.086,-0.791 4.13,-1.526c0.985,-0.735 1.695,-1.668 2.13,-2.799c0.434,-1.13 0.767,-2.77 0.999,-4.918l12.52,0l-0,66.142Z" style="fill-rule:nonzero;"/></g></g><g><path d="M774.094,1768.5l0,212.598c0,9.778 -7.938,17.717 -17.716,17.717l-661.89,-0c-9.778,-0 -17.716,-7.939 -17.716,-17.717l-0,-212.598c-0,-9.778 7.938,-17.717 17.716,-17.717l661.89,0c9.778,0 17.716,7.939 17.716,17.717Z" style="fill:#ffd200;"/><g><g><g><g><rect id="path169833" serif:id="path1698" x="475.039" y="1786.22" width="39.685" height="94.488" style="fill:#ffd200;"/><path d="M511.5,1854.74c-1.372,0.604 -3.044,1.111 -5.019,1.522c-1.974,0.412 -4.168,0.617 -6.581,0.617c-4.387,0 -7.843,-1.028 -10.365,-3.085c-2.523,-2.056 -3.785,-5.388 -3.785,-9.995l0,-24.186l-7.486,-0l0,-10.942l7.486,0l0,-12.093l12.916,-5.841l0,17.934l11.929,0l-0,10.942l-11.929,-0l0,20.155c0,2.248 0.343,3.743 1.028,4.483c0.686,0.741 1.824,1.111 3.414,1.111c2.03,-0 4.141,-0.439 6.335,-1.316l2.057,10.694Z" style="fill-rule:nonzero;"/></g><g><rect x="407.953" y="1786.22" width="67.087" height="94.488" style="fill:#ffd200;"/><path d="M472.15,1857.09l-14.924,-0l-3.477,-11.702l-24.506,-0l-3.562,11.702l-14.839,-0l21.708,-66.142l17.723,-0l21.877,66.142Zm-21.962,-23.404l-8.65,-28.662l-8.649,28.662l17.299,-0Z" style="fill-rule:nonzero;"/></g></g><g><g><rect id="path169834" serif:id="path1698" x="652.913" y="1786.22" width="50.079" height="94.488" style="fill:#ffd200;"/><path d="M700.326,1809.8l-17.946,52.427c-0.828,2.426 -1.848,4.314 -3.061,5.665c-1.213,1.35 -2.536,2.357 -3.969,3.018c-1.103,0.496 -2.413,0.868 -3.929,1.116c-1.516,0.249 -2.991,0.373 -4.425,0.373c-1.488,-0 -3.101,-0.152 -4.838,-0.455c-1.737,-0.303 -3.322,-0.676 -4.755,-1.117l2.15,-10.502c1.268,0.441 2.495,0.772 3.68,0.993c1.186,0.22 2.247,0.331 3.185,0.331c1.543,-0 2.66,-0.249 3.349,-0.745c0.689,-0.496 1.034,-1.13 1.034,-1.902l-0,-0.413c-0,-0.165 -0.055,-0.386 -0.166,-0.662c-0.055,-0.22 -0.124,-0.441 -0.206,-0.661c-0.083,-0.221 -0.152,-0.469 -0.207,-0.744l-16.128,-46.722l13.729,0l9.429,28.364l9.428,-28.364l13.646,0Z" style="fill-rule:nonzero;"/></g><g><rect id="path169835" serif:id="path1698" x="544.252" y="1786.22" width="52.441" height="94.488" style="fill:#ffd200;"/><path d="M591.954,1847.9l-5.215,9.185c-1.816,-0.104 -3.463,-0.558 -4.942,-1.362c-1.479,-0.805 -2.685,-1.855 -3.619,-3.153c-1.453,1.349 -3.152,2.361 -5.098,3.036c-1.946,0.674 -4.32,1.012 -7.122,1.012c-2.231,-0 -4.371,-0.286 -6.421,-0.857c-2.05,-0.57 -3.853,-1.439 -5.409,-2.607c-1.557,-1.167 -2.802,-2.607 -3.736,-4.32c-0.934,-1.712 -1.401,-3.736 -1.401,-6.07c-0,-2.284 0.337,-4.229 1.012,-5.838c0.674,-1.608 1.53,-2.97 2.568,-4.086c1.038,-1.116 2.218,-2.011 3.541,-2.685c1.324,-0.675 2.634,-1.194 3.931,-1.557c1.297,-0.363 2.517,-0.623 3.658,-0.778c1.142,-0.156 2.05,-0.26 2.724,-0.312c1.09,-0.103 2.478,-0.22 4.164,-0.35c1.687,-0.13 3.23,-0.246 4.631,-0.35l0,-0.623c0,-1.92 -0.441,-3.308 -1.323,-4.164c-0.882,-0.856 -2.413,-1.284 -4.592,-1.284c-2.283,0 -4.462,0.272 -6.538,0.817c-2.075,0.545 -4.359,1.544 -6.849,2.997l-4.592,-9.729c3.165,-1.764 6.265,-3.036 9.301,-3.814c3.035,-0.778 6.187,-1.167 9.456,-1.167c5.656,-0 9.963,1.401 12.92,4.202c2.958,2.802 4.437,7.005 4.437,12.609l-0,14.555c-0,1.972 0.337,3.463 1.012,4.475c0.674,1.012 1.842,1.751 3.502,2.218Zm-16.812,-5.837l0,-5.526c-0.934,0.052 -1.919,0.104 -2.957,0.156c-1.038,0.052 -1.92,0.129 -2.647,0.233c-0.882,0.104 -1.803,0.208 -2.763,0.311c-0.96,0.104 -1.829,0.325 -2.607,0.662c-0.778,0.337 -1.427,0.817 -1.946,1.44c-0.519,0.623 -0.778,1.505 -0.778,2.646c-0,1.505 0.649,2.647 1.946,3.425c1.297,0.778 2.776,1.167 4.436,1.167c2.646,0 4.527,-0.441 5.643,-1.323c1.116,-0.882 1.673,-1.946 1.673,-3.191Z" style="fill-rule:nonzero;"/></g><g><rect id="path169836" serif:id="path1698" x="596.693" y="1786.22" width="56.22" height="94.488" style="fill:#ffd200;"/><path d="M645.66,1857.09l-13.349,-0l0,-29.616c0,-2.503 -0.58,-4.311 -1.742,-5.423c-1.161,-1.112 -2.82,-1.669 -4.977,-1.669c-1.052,0 -2.075,0.139 -3.071,0.418c-0.995,0.278 -1.88,0.723 -2.654,1.334c-0.775,0.612 -1.397,1.405 -1.867,2.378c-0.47,0.973 -0.705,2.183 -0.705,3.629l-0,28.949l-13.348,-0l-0,-47.386l13.348,-0l-0.057,3.003c1.448,-1.335 3.19,-2.391 5.224,-3.17c2.034,-0.779 3.999,-1.168 5.893,-1.168c2.843,0 5.337,0.417 7.482,1.252c2.146,0.834 3.957,1.988 5.434,3.462c1.477,1.474 2.578,3.198 3.302,5.172c0.724,1.974 1.087,4.13 1.087,6.466l-0,32.369Z" style="fill-rule:nonzero;"/></g></g></g><g><g><rect id="path169837" serif:id="path1698" x="455.787" y="1880.71" width="39.685" height="94.488" style="fill:#ffd200;"/><path d="M492.248,1949.23c-1.371,0.604 -3.044,1.111 -5.019,1.522c-1.974,0.412 -4.168,0.617 -6.581,0.617c-4.387,0 -7.843,-1.028 -10.365,-3.085c-2.523,-2.056 -3.785,-5.388 -3.785,-9.995l0,-24.186l-7.486,-0l0,-10.941l7.486,-0l0,-12.093l12.916,-5.841l0,17.934l11.929,-0l-0,10.941l-11.929,-0l0,20.155c0,2.249 0.343,3.743 1.028,4.484c0.686,0.74 1.824,1.11 3.415,1.11c2.029,0 4.14,-0.439 6.334,-1.316l2.057,10.694Z" style="fill-rule:nonzero;"/></g><g><rect id="path169838" serif:id="path1698" x="495.472" y="1880.71" width="25.984" height="94.488" style="fill:#ffd200;"/><path d="M515.089,1892.84c0,2.107 -0.721,3.882 -2.163,5.324c-1.442,1.442 -3.189,2.163 -5.241,2.163c-2.108,0 -3.883,-0.721 -5.325,-2.163c-1.442,-1.442 -2.163,-3.217 -2.163,-5.324c-0,-2.053 0.721,-3.8 2.163,-5.242c1.442,-1.442 3.217,-2.163 5.325,-2.163c2.052,0 3.799,0.721 5.241,2.163c1.442,1.442 2.163,3.189 2.163,5.242Zm-0.832,58.737l-13.145,-0l0,-47.256l13.145,-0l0,47.256Z" style="fill-rule:nonzero;"/></g><g><rect id="path169839" serif:id="path1698" x="521.457" y="1880.71" width="81.732" height="94.488" style="fill:#ffd200;"/><path d="M595.651,1951.57l-13.181,-0l0,-29.7c0,-2.336 -0.539,-4.074 -1.617,-5.214c-1.078,-1.14 -2.501,-1.71 -4.27,-1.71c-0.829,0 -1.699,0.181 -2.611,0.542c-0.912,0.362 -1.728,0.89 -2.446,1.585c-0.719,0.696 -1.313,1.585 -1.783,2.67c-0.47,1.085 -0.704,2.322 -0.704,3.712l-0,28.115l-13.265,-0l-0.083,-29.783c-0,-2.392 -0.515,-4.144 -1.544,-5.256c-1.029,-1.112 -2.35,-1.668 -3.963,-1.668c-1.056,-0 -2.057,0.166 -3.003,0.5c-0.945,0.334 -1.794,0.848 -2.544,1.544c-0.751,0.695 -1.349,1.585 -1.794,2.669c-0.445,1.085 -0.667,2.406 -0.667,3.963l-0,28.031l-13.182,-0l0,-47.386l13.182,0l-0,2.92c1.39,-1.335 2.975,-2.364 4.755,-3.087c1.78,-0.723 3.532,-1.084 5.256,-1.084c2.614,-0 5.019,0.514 7.216,1.543c2.197,1.029 3.935,2.572 5.214,4.63c3.059,-4.171 7.703,-6.257 13.932,-6.257c5.395,0 9.594,1.53 12.597,4.589c3.004,3.059 4.505,7.369 4.505,12.931l0,31.201Z" style="fill-rule:nonzero;"/></g><g><rect id="path169840" serif:id="path1698" x="603.189" y="1880.71" width="51.969" height="94.488" style="fill:#ffd200;"/><path d="M650.832,1929.92l-0.157,1.969l-30.473,-0c0.053,1.26 0.368,2.428 0.945,3.504c0.577,1.076 1.339,2.021 2.284,2.834c0.944,0.814 2.034,1.444 3.267,1.89c1.234,0.446 2.533,0.669 3.898,0.669c3.937,0 7.323,-1.312 10.157,-3.937l6.615,8.111c-2.258,2.152 -4.738,3.792 -7.441,4.921c-2.704,1.129 -5.788,1.693 -9.252,1.693c-3.727,-0 -7.035,-0.617 -9.922,-1.851c-2.887,-1.233 -5.315,-2.939 -7.283,-5.118c-1.969,-2.178 -3.465,-4.711 -4.488,-7.598c-1.024,-2.887 -1.536,-5.984 -1.536,-9.291c0,-3.203 0.486,-6.234 1.457,-9.095c0.971,-2.861 2.375,-5.341 4.213,-7.441c1.837,-2.1 4.12,-3.766 6.85,-5c2.73,-1.233 5.827,-1.85 9.291,-1.85c3.832,-0 7.166,0.682 10,2.047c2.835,1.365 5.145,3.202 6.929,5.512c1.785,2.31 3.058,5.026 3.819,8.149c0.761,3.124 1.037,6.418 0.827,9.882Zm-12.362,-6.85c-0,-2.415 -0.879,-4.396 -2.638,-5.945c-1.758,-1.549 -3.924,-2.323 -6.496,-2.323c-2.467,0 -4.514,0.827 -6.142,2.48c-1.627,1.654 -2.572,3.583 -2.834,5.788l18.11,-0Z" style="fill-rule:nonzero;"/></g></g></g><g id="_01-Waiting-Prohibited-for-a-Time-the-is-not-Continuous-Throughout-the-Year" serif:id="01 Waiting Prohibited for a Time the is not Continuous Throughout the Year"><circle cx="242.362" cy="1874.8" r="94.488" style="fill:#e31837;"/><circle cx="242.362" cy="1874.8" r="75.591" style="fill:#0079c1;"/><path d="M309.838,1927.58l-14.699,14.699l-120.264,-120.264l14.699,-14.699l120.264,120.264Z" style="fill:#e31837;"/></g></g></g></svg>