<?xml version="1.0" encoding="UTF-8" standalone="no"?><!DOCTYPE svg PUBLIC "-//W3C//DTD SVG 1.1//EN" "http://www.w3.org/Graphics/SVG/1.1/DTD/svg11.dtd"><svg width="100%" height="100%" viewBox="0 0 851 2076" version="1.1" xmlns="http://www.w3.org/2000/svg" xmlns:xlink="http://www.w3.org/1999/xlink" xml:space="preserve" xmlns:serif="http://www.serif.com/" style="fill-rule:evenodd;clip-rule:evenodd;stroke-linejoin:round;stroke-miterlimit:2;"><g transform="matrix(50,0,0,50,561.322,2052.47)"></g><text x="290.277px" y="2052.47px" style="font-family:'ArialMT', 'Arial', sans-serif;font-size:50px;">sw=175.733</text><rect x="0" y="0" width="850.866" height="2075.59" style="fill:#999;"/><g><path d="M791.811,738.183l0,1242.92c0,19.556 -15.877,35.433 -35.433,35.433l-661.89,0c-19.556,0 -35.433,-15.877 -35.433,-35.433l0,-1242.92c0,-19.556 15.877,-35.433 35.433,-35.433l661.89,0c19.556,0 35.433,15.877 35.433,35.433Z"/><g><path d="M774.094,1768.5l0,212.598c0,9.778 -7.938,17.717 -17.716,17.717l-661.89,-0c-9.778,-0 -17.716,-7.939 -17.716,-17.717l-0,-212.598c-0,-9.778 7.938,-17.717 17.716,-17.717l661.89,0c9.778,0 17.716,7.939 17.716,17.717Z" style="fill:#ffd200;"/><g><g><g><g><rect id="path1698" x="475.039" y="1786.22" width="39.685" height="94.488" style="fill:#ffd200;"/><path d="M511.5,1854.73c-1.372,0.604 -3.044,1.111 -5.019,1.522c-1.974,0.412 -4.168,0.617 -6.581,0.617c-4.387,0 -7.843,-1.028 -10.365,-3.085c-2.523,-2.056 -3.785,-5.388 -3.785,-9.995l0,-24.186l-7.486,-0l0,-10.942l7.486,0l0,-12.093l12.916,-5.84l0,17.933l11.929,0l-0,10.942l-11.929,-0l0,20.155c0,2.249 0.343,3.743 1.028,4.483c0.686,0.741 1.824,1.111 3.414,1.111c2.03,0 4.141,-0.439 6.335,-1.316l2.057,10.694Z" style="fill-rule:nonzero;"/></g><g><rect x="407.953" y="1786.22" width="67.087" height="94.488" style="fill:#ffd200;"/><path d="M472.15,1857.08l-14.924,-0l-3.477,-11.702l-24.506,-0l-3.562,11.702l-14.839,-0l21.708,-66.142l17.723,-0l21.877,66.142Zm-21.962,-23.404l-8.65,-28.662l-8.649,28.662l17.299,-0Z" style="fill-rule:nonzero;"/></g></g><g><g><rect id="path16981" serif:id="path1698" x="652.913" y="1786.22" width="50.079" height="94.488" style="fill:#ffd200;"/><path d="M700.326,1809.8l-17.946,52.427c-0.828,2.426 -1.848,4.314 -3.061,5.665c-1.213,1.351 -2.536,2.357 -3.969,3.018c-1.103,0.496 -2.413,0.868 -3.929,1.117c-1.516,0.248 -2.991,0.372 -4.425,0.372c-1.488,-0 -3.101,-0.152 -4.838,-0.455c-1.737,-0.303 -3.322,-0.675 -4.755,-1.117l2.15,-10.501c1.268,0.441 2.495,0.771 3.68,0.992c1.186,0.22 2.247,0.331 3.185,0.331c1.543,-0 2.66,-0.248 3.349,-0.745c0.689,-0.496 1.034,-1.13 1.034,-1.902l-0,-0.413c-0,-0.165 -0.055,-0.386 -0.166,-0.662c-0.055,-0.22 -0.124,-0.441 -0.206,-0.661c-0.083,-0.221 -0.152,-0.469 -0.207,-0.744l-16.128,-46.722l13.729,0l9.429,28.364l9.428,-28.364l13.646,0Z" style="fill-rule:nonzero;"/></g><g><rect id="path16982" serif:id="path1698" x="544.252" y="1786.22" width="52.441" height="94.488" style="fill:#ffd200;"/><path d="M591.954,1847.9l-5.215,9.184c-1.816,-0.104 -3.463,-0.558 -4.942,-1.362c-1.479,-0.805 -2.685,-1.855 -3.619,-3.153c-1.453,1.35 -3.152,2.361 -5.098,3.036c-1.946,0.674 -4.32,1.012 -7.122,1.012c-2.231,-0 -4.371,-0.286 -6.421,-0.856c-2.05,-0.571 -3.853,-1.44 -5.409,-2.608c-1.557,-1.167 -2.802,-2.607 -3.736,-4.319c-0.934,-1.713 -1.401,-3.736 -1.401,-6.071c-0,-2.283 0.337,-4.229 1.012,-5.838c0.674,-1.608 1.53,-2.97 2.568,-4.086c1.038,-1.116 2.218,-2.011 3.541,-2.685c1.324,-0.675 2.634,-1.194 3.931,-1.557c1.297,-0.363 2.517,-0.623 3.658,-0.778c1.142,-0.156 2.05,-0.26 2.724,-0.311c1.09,-0.104 2.478,-0.221 4.164,-0.351c1.687,-0.129 3.23,-0.246 4.631,-0.35l0,-0.623c0,-1.92 -0.441,-3.308 -1.323,-4.164c-0.882,-0.856 -2.413,-1.284 -4.592,-1.284c-2.283,0 -4.462,0.273 -6.538,0.817c-2.075,0.545 -4.359,1.544 -6.849,2.997l-4.592,-9.729c3.165,-1.764 6.265,-3.036 9.301,-3.814c3.035,-0.778 6.187,-1.167 9.456,-1.167c5.656,-0 9.963,1.401 12.92,4.203c2.958,2.802 4.437,7.004 4.437,12.608l-0,14.555c-0,1.972 0.337,3.463 1.012,4.475c0.674,1.012 1.842,1.752 3.502,2.219Zm-16.812,-5.838l0,-5.526c-0.934,0.052 -1.919,0.104 -2.957,0.156c-1.038,0.052 -1.92,0.129 -2.647,0.233c-0.882,0.104 -1.803,0.208 -2.763,0.312c-0.96,0.103 -1.829,0.324 -2.607,0.661c-0.778,0.337 -1.427,0.817 -1.946,1.44c-0.519,0.623 -0.778,1.505 -0.778,2.646c-0,1.505 0.649,2.647 1.946,3.425c1.297,0.778 2.776,1.167 4.436,1.167c2.646,0 4.527,-0.441 5.643,-1.323c1.116,-0.882 1.673,-1.946 1.673,-3.191Z" style="fill-rule:nonzero;"/></g><g><rect id="path16983" serif:id="path1698" x="596.693" y="1786.22" width="56.22" height="94.488" style="fill:#ffd200;"/><path d="M645.66,1857.08l-13.349,-0l0,-29.616c0,-2.503 -0.58,-4.311 -1.742,-5.423c-1.161,-1.112 -2.82,-1.668 -4.977,-1.668c-1.052,-0 -2.075,0.139 -3.071,0.417c-0.995,0.278 -1.88,0.723 -2.654,1.334c-0.775,0.612 -1.397,1.405 -1.867,2.378c-0.47,0.973 -0.705,2.183 -0.705,3.629l-0,28.949l-13.348,-0l-0,-47.386l13.348,0l-0.057,3.003c1.448,-1.334 3.19,-2.391 5.224,-3.17c2.034,-0.778 3.999,-1.168 5.893,-1.168c2.843,0 5.337,0.417 7.482,1.252c2.146,0.834 3.957,1.988 5.434,3.462c1.477,1.474 2.578,3.198 3.302,5.172c0.724,1.975 1.087,4.13 1.087,6.466l-0,32.369Z" style="fill-rule:nonzero;"/></g></g></g><g><g><rect id="path16984" serif:id="path1698" x="455.787" y="1880.7" width="39.685" height="94.488" style="fill:#ffd200;"/><path d="M492.248,1949.22c-1.371,0.603 -3.044,1.11 -5.019,1.521c-1.974,0.412 -4.168,0.617 -6.581,0.617c-4.387,0 -7.843,-1.028 -10.365,-3.085c-2.523,-2.056 -3.785,-5.388 -3.785,-9.995l0,-24.186l-7.486,0l0,-10.941l7.486,-0l0,-12.093l12.916,-5.841l0,17.934l11.929,-0l-0,10.941l-11.929,0l0,20.155c0,2.249 0.343,3.743 1.028,4.484c0.686,0.74 1.824,1.11 3.415,1.11c2.029,0 4.14,-0.439 6.334,-1.316l2.057,10.695Z" style="fill-rule:nonzero;"/></g><g><rect id="path16985" serif:id="path1698" x="495.472" y="1880.7" width="25.984" height="94.488" style="fill:#ffd200;"/><path d="M515.089,1892.83c0,2.107 -0.721,3.882 -2.163,5.324c-1.442,1.442 -3.189,2.163 -5.241,2.163c-2.108,0 -3.883,-0.721 -5.325,-2.163c-1.442,-1.442 -2.163,-3.217 -2.163,-5.324c-0,-2.052 0.721,-3.8 2.163,-5.242c1.442,-1.442 3.217,-2.163 5.325,-2.163c2.052,0 3.799,0.721 5.241,2.163c1.442,1.442 2.163,3.19 2.163,5.242Zm-0.832,58.737l-13.145,-0l0,-47.256l13.145,-0l0,47.256Z" style="fill-rule:nonzero;"/></g><g><rect id="path16986" serif:id="path1698" x="521.457" y="1880.7" width="81.732" height="94.488" style="fill:#ffd200;"/><path d="M595.651,1951.57l-13.181,-0l0,-29.7c0,-2.335 -0.539,-4.074 -1.617,-5.214c-1.078,-1.14 -2.501,-1.71 -4.27,-1.71c-0.829,0 -1.699,0.181 -2.611,0.542c-0.912,0.362 -1.728,0.89 -2.446,1.585c-0.719,0.696 -1.313,1.586 -1.783,2.67c-0.47,1.085 -0.704,2.322 -0.704,3.713l-0,28.114l-13.265,-0l-0.083,-29.783c-0,-2.392 -0.515,-4.143 -1.544,-5.256c-1.029,-1.112 -2.35,-1.668 -3.963,-1.668c-1.056,-0 -2.057,0.167 -3.003,0.5c-0.945,0.334 -1.794,0.848 -2.544,1.544c-0.751,0.695 -1.349,1.585 -1.794,2.669c-0.445,1.085 -0.667,2.406 -0.667,3.963l-0,28.031l-13.182,-0l0,-47.386l13.182,0l-0,2.92c1.39,-1.335 2.975,-2.364 4.755,-3.087c1.78,-0.723 3.532,-1.084 5.256,-1.084c2.614,-0 5.019,0.514 7.216,1.543c2.197,1.029 3.935,2.573 5.214,4.63c3.059,-4.171 7.703,-6.257 13.932,-6.257c5.395,0 9.594,1.53 12.597,4.589c3.004,3.059 4.505,7.369 4.505,12.931l0,31.201Z" style="fill-rule:nonzero;"/></g><g><rect id="path16987" serif:id="path1698" x="603.189" y="1880.7" width="51.969" height="94.488" style="fill:#ffd200;"/><path d="M650.832,1929.91l-0.157,1.969l-30.473,-0c0.053,1.26 0.368,2.428 0.945,3.504c0.577,1.076 1.339,2.021 2.284,2.834c0.944,0.814 2.034,1.444 3.267,1.89c1.234,0.446 2.533,0.669 3.898,0.669c3.937,0 7.323,-1.312 10.157,-3.937l6.615,8.111c-2.258,2.152 -4.738,3.792 -7.441,4.921c-2.704,1.129 -5.788,1.693 -9.252,1.693c-3.727,-0 -7.035,-0.617 -9.922,-1.85c-2.887,-1.234 -5.315,-2.94 -7.283,-5.119c-1.969,-2.178 -3.465,-4.711 -4.488,-7.598c-1.024,-2.887 -1.536,-5.984 -1.536,-9.291c0,-3.202 0.486,-6.234 1.457,-9.095c0.971,-2.861 2.375,-5.341 4.213,-7.441c1.837,-2.1 4.12,-3.766 6.85,-5c2.73,-1.233 5.827,-1.85 9.291,-1.85c3.832,-0 7.166,0.682 10,2.047c2.835,1.365 5.145,3.202 6.929,5.512c1.785,2.31 3.058,5.026 3.819,8.149c0.761,3.124 1.037,6.418 0.827,9.882Zm-12.362,-6.85c-0,-2.415 -0.879,-4.396 -2.638,-5.945c-1.758,-1.548 -3.924,-2.323 -6.496,-2.323c-2.467,0 -4.514,0.827 -6.142,2.481c-1.627,1.653 -2.572,3.582 -2.834,5.787l18.11,-0Z" style="fill-rule:nonzero;"/></g></g></g><g id="_01-Waiting-Prohibited-for-a-Time-the-is-not-Continuous-Throughout-the-Year" serif:id="01 Waiting Prohibited for a Time the is not Continuous Throughout the Year"><circle cx="242.362" cy="1874.8" r="94.488" style="fill:#e31837;"/><circle cx="242.362" cy="1874.8" r="75.591" style="fill:#0079c1;"/><path d="M309.838,1927.57l-14.699,14.699l-120.264,-120.264l14.699,-14.699l120.264,120.264Z" style="fill:#e31837;"/></g></g><g transform="matrix(50,0,0,50,557.684,1079.24)"></g><text x="294.061px" y="1079.24px" style="font-family:'ArialMT', 'Arial', sans-serif;font-size:50px;">sw=1<tspan x="408.465px 432.562px 460.37px " y="1079.24px 1079.24px 1079.24px ">11.</tspan>234</text><path d="M774.094,738.183l0,977.161c0,9.779 -7.938,17.717 -17.716,17.717l-661.89,0c-9.778,0 -17.716,-7.938 -17.716,-17.717l-0,-977.161c-0,-9.778 7.938,-17.716 17.716,-17.716l661.89,-0c9.778,-0 17.716,7.938 17.716,17.716Z" style="fill:#fff;"/><g><g><rect x="169.606" y="749.994" width="64.252" height="94.488" style="fill:#fff;"/><path d="M224.627,820.86l-45.79,0l0,-66.141l43.247,-0l-0,13.058l-29.679,0l-0,13.313l26.88,0l0,12.211l-26.88,0l-0,14.5l32.222,0l0,13.059Z" style="fill-rule:nonzero;"/></g><g><rect x="304.724" y="749.994" width="64.252" height="94.488" style="fill:#fff;"/><path d="M359.746,820.86l-45.791,0l0,-66.141l43.247,-0l-0,13.058l-29.679,0l-0,13.313l26.88,0l0,12.211l-26.88,0l-0,14.5l32.223,0l-0,13.059Z" style="fill-rule:nonzero;"/></g><g><rect x="233.858" y="749.994" width="70.866" height="94.488" style="fill:#fff;"/><path d="M300,787.45c0,4.353 -0.594,8.536 -1.781,12.55c-1.187,4.014 -3.052,7.575 -5.596,10.685c-2.544,3.109 -5.781,5.582 -9.71,7.419c-3.929,1.838 -8.635,2.756 -14.118,2.756l-25.1,0l-0,-66.141l25.184,-0c5.427,-0 10.105,0.961 14.034,2.883c3.929,1.922 7.166,4.437 9.71,7.547c2.544,3.109 4.409,6.614 5.596,10.514c1.187,3.901 1.781,7.83 1.781,11.787Zm-14.755,-0.085c0,-2.261 -0.339,-4.579 -1.017,-6.953c-0.679,-2.374 -1.668,-4.522 -2.968,-6.445c-1.3,-1.922 -2.912,-3.505 -4.834,-4.748c-1.922,-1.244 -4.098,-1.866 -6.529,-1.866l-12.211,0l0,40.618l11.617,0c2.77,0 5.159,-0.594 7.166,-1.781c2.007,-1.187 3.66,-2.741 4.96,-4.664c1.301,-1.922 2.262,-4.126 2.884,-6.614c0.621,-2.487 0.932,-5.003 0.932,-7.547Z" style="fill-rule:nonzero;"/></g><g><rect x="598.11" y="749.994" width="67.087" height="94.488" style="fill:#fff;"/><path d="M662.308,820.86l-14.925,0l-3.476,-11.702l-24.507,0l-3.561,11.702l-14.84,0l21.708,-66.141l17.723,-0l21.878,66.141Zm-21.963,-23.404l-8.649,-28.661l-8.649,28.661l17.298,0Z" style="fill-rule:nonzero;"/></g><g><rect x="437.953" y="749.994" width="55.748" height="94.488" style="fill:#fff;"/><path d="M491.822,767.777l-19.04,0l-0,53.083l-13.91,0l-0,-53.083l-19.04,0l-0,-13.058l51.99,-0l-0,13.058Z" style="fill-rule:nonzero;"/></g><g><rect x="368.976" y="749.994" width="68.976" height="94.488" style="fill:#fff;"/><path d="M430.799,802.161c0,2.613 -0.516,5.063 -1.549,7.349c-1.032,2.286 -2.623,4.273 -4.772,5.961c-2.149,1.687 -4.87,3.008 -8.162,3.96c-3.293,0.953 -7.2,1.429 -11.721,1.429c-2.679,0 -5.358,-0.313 -8.037,-0.939c-2.679,-0.626 -5.247,-1.51 -7.703,-2.654c-2.455,-1.143 -4.772,-2.531 -6.948,-4.164c-2.177,-1.633 -4.102,-3.484 -5.777,-5.553l10.716,-8.41c2.065,2.83 4.716,5.049 7.954,6.655c3.237,1.606 6.53,2.463 9.879,2.572c3.851,0.163 6.711,-0.327 8.581,-1.47c1.869,-1.143 2.804,-2.722 2.804,-4.736c0,-2.232 -0.851,-3.906 -2.553,-5.022c-1.702,-1.116 -3.865,-1.973 -6.488,-2.572l-9.461,-2.042c-2.344,-0.544 -4.674,-1.252 -6.99,-2.123c-2.316,-0.871 -4.409,-2.041 -6.279,-3.511c-1.87,-1.47 -3.391,-3.293 -4.563,-5.471c-1.172,-2.177 -1.758,-4.818 -1.758,-7.921c-0,-2.558 0.53,-4.981 1.591,-7.267c1.06,-2.286 2.651,-4.287 4.772,-6.002c2.121,-1.714 4.772,-3.062 7.953,-4.042c3.181,-0.98 6.921,-1.469 11.218,-1.469c5.638,-0 10.647,0.966 15.028,2.898c4.381,1.933 8.051,4.696 11.009,8.288l-11.134,8.329c-1.619,-2.177 -3.726,-3.906 -6.321,-5.185c-2.596,-1.279 -5.456,-1.919 -8.582,-1.919c-3.516,0 -6.195,0.572 -8.037,1.715c-1.841,1.143 -2.762,2.531 -2.762,4.165c-0,1.633 0.767,2.994 2.302,4.082c1.535,1.089 4.088,2.042 7.66,2.858l8.288,1.96c7.145,1.688 12.237,4.205 15.279,7.553c3.042,3.348 4.563,7.581 4.563,12.698Z" style="fill-rule:nonzero;"/></g><g><rect x="493.701" y="749.994" width="69.921" height="94.488" style="fill:#fff;"/><path d="M558.898,820.86l-16.78,0l-14.866,-24.506l-8.955,-0l-0,24.506l-15.128,0l0,-66.141l27.908,-0c3.941,-0 7.375,0.551 10.302,1.653c2.927,1.102 5.347,2.6 7.26,4.494c1.912,1.894 3.347,4.141 4.303,6.742c0.957,2.6 1.435,5.427 1.435,8.479c-0,2.657 -0.362,5.003 -1.087,7.039c-0.724,2.035 -1.652,3.773 -2.782,5.215c-1.13,1.441 -2.376,2.642 -3.738,3.603c-1.362,0.961 -2.71,1.725 -4.043,2.29l16.171,26.626Zm-19.301,-45.281c0,-2.431 -0.782,-4.367 -2.347,-5.809c-1.565,-1.442 -3.652,-2.162 -6.26,-2.162l-12.693,-0l-0,15.857l12.693,0.085c2.608,-0 4.695,-0.735 6.26,-2.205c1.565,-1.47 2.347,-3.392 2.347,-5.766Z" style="fill-rule:nonzero;"/></g><g><rect x="106.299" y="749.994" width="63.307" height="94.488" style="fill:#fff;"/><path d="M167.244,776.427c0,2.883 -0.435,5.624 -1.304,8.225c-0.869,2.6 -2.217,4.89 -4.043,6.868c-1.825,1.979 -4.158,3.548 -6.998,4.707c-2.84,1.159 -6.202,1.738 -10.085,1.738l-13.476,0l0,22.895l-14.084,0l-0,-66.141l27.56,-0c3.825,-0 7.158,0.565 9.998,1.695c2.84,1.131 5.173,2.686 6.998,4.664c1.826,1.979 3.188,4.283 4.087,6.911c0.898,2.629 1.347,5.441 1.347,8.438Zm-14.867,-0c0,-2.714 -0.825,-4.862 -2.477,-6.445c-1.652,-1.583 -3.869,-2.374 -6.651,-2.374l-11.911,-0l0,17.468l11.998,-0c2.782,-0 4.984,-0.749 6.607,-2.247c1.623,-1.498 2.434,-3.632 2.434,-6.402Z" style="fill-rule:nonzero;"/></g><g><rect x="665.197" y="749.994" width="79.37" height="94.488" style="fill:#fff;"/><path d="M734.702,820.86l-14.492,0l-31.238,-43.331l-0,43.331l-13.91,0l-0,-66.141l14.519,-0l31.211,43.416l-0,-43.416l13.91,-0l0,66.141Z" style="fill-rule:nonzero;"/></g><g><rect x="563.622" y="749.994" width="34.488" height="94.488" style="fill:#fff;"/><rect x="573.983" y="755.215" width="13.767" height="66.142" style="fill-rule:nonzero;"/></g></g><g><g><rect x="547.087" y="950.781" width="107.087" height="157.48" style="fill:#fff;"/><path d="M638.789,1068.89l-76.318,-0l0,-110.236l72.078,-0l-0,21.764l-49.465,0l-0,22.189l44.801,-0l-0,20.351l-44.801,-0l-0,24.167l53.705,0l-0,21.765Z" style="fill-rule:nonzero;"/></g><g><rect x="290.394" y="950.781" width="124.409" height="157.48" style="fill:#fff;"/><path d="M404.928,1014.11c0,7.794 -1.115,15.043 -3.344,21.749c-2.23,6.705 -5.528,12.505 -9.895,17.398c-4.367,4.894 -9.825,8.722 -16.375,11.486c-6.55,2.764 -14.145,4.146 -22.785,4.146c-8.641,-0 -16.213,-1.405 -22.716,-4.214c-6.504,-2.809 -11.939,-6.66 -16.305,-11.554c-4.367,-4.893 -7.665,-10.693 -9.895,-17.398c-2.23,-6.706 -3.344,-13.955 -3.344,-21.748c-0,-7.975 1.068,-15.338 3.205,-22.089c2.137,-6.751 5.365,-12.595 9.685,-17.534c4.321,-4.939 9.756,-8.79 16.306,-11.554c6.55,-2.764 14.238,-4.145 23.064,-4.145c8.733,-0 16.375,1.404 22.925,4.213c6.55,2.809 12.008,6.683 16.374,11.622c4.367,4.939 7.642,10.806 9.825,17.602c2.184,6.797 3.275,14.137 3.275,22.02Zm-24.248,0c-0,-4.712 -0.488,-9.175 -1.464,-13.388c-0.975,-4.214 -2.578,-7.907 -4.808,-11.078c-2.229,-3.172 -5.133,-5.664 -8.71,-7.476c-3.577,-1.813 -7.92,-2.719 -13.03,-2.719c-5.11,0 -9.453,0.929 -13.03,2.787c-3.577,1.857 -6.48,4.349 -8.71,7.476c-2.23,3.126 -3.856,6.796 -4.878,11.01c-1.022,4.213 -1.533,8.676 -1.533,13.388c0,4.984 0.488,9.561 1.464,13.729c0.975,4.168 2.578,7.77 4.807,10.806c2.23,3.036 5.134,5.392 8.711,7.068c3.576,1.677 7.966,2.515 13.169,2.515c5.296,-0 9.732,-0.838 13.309,-2.515c3.577,-1.676 6.457,-4.032 8.64,-7.068c2.184,-3.036 3.74,-6.638 4.669,-10.806c0.929,-4.168 1.394,-8.745 1.394,-13.729Z" style="fill-rule:nonzero;"/></g><g><rect x="414.803" y="950.781" width="132.283" height="157.48" style="fill:#fff;"/><path d="M530.645,1068.89l-24.153,-0l-52.064,-72.219l0,72.219l-23.184,-0l0,-110.236l24.199,-0l52.018,72.36l0,-72.36l23.184,-0l0,110.236Z" style="fill-rule:nonzero;"/></g><g><rect x="196.693" y="950.781" width="93.701" height="157.48" style="fill:#fff;"/><path d="M284.043,1047.13l-0.145,21.765l-80.854,-0l-0,-21.765l50.135,-66.566l-48.396,0l-0,-21.905l77.376,-0l-0,21.905l-49.99,66.566l51.874,0Z" style="fill-rule:nonzero;"/></g></g><g><g><g><rect id="path16988" serif:id="path1698" x="170.906" y="844.482" width="52.441" height="94.488" style="fill:#fff;"/><path d="M218.608,906.164l-5.215,9.184c-1.816,-0.103 -3.464,-0.557 -4.942,-1.362c-1.479,-0.804 -2.686,-1.855 -3.62,-3.152c-1.453,1.349 -3.152,2.361 -5.098,3.036c-1.945,0.674 -4.319,1.011 -7.121,1.011c-2.231,0 -4.372,-0.285 -6.421,-0.856c-2.05,-0.57 -3.853,-1.44 -5.41,-2.607c-1.556,-1.168 -2.802,-2.607 -3.736,-4.32c-0.934,-1.712 -1.401,-3.736 -1.401,-6.071c0,-2.283 0.338,-4.229 1.012,-5.837c0.675,-1.609 1.531,-2.971 2.569,-4.086c1.037,-1.116 2.218,-2.011 3.541,-2.685c1.323,-0.675 2.633,-1.194 3.93,-1.557c1.298,-0.363 2.517,-0.623 3.659,-0.778c1.141,-0.156 2.049,-0.26 2.724,-0.312c1.089,-0.104 2.477,-0.22 4.164,-0.35c1.686,-0.13 3.23,-0.246 4.631,-0.35l-0,-0.623c-0,-1.92 -0.441,-3.308 -1.323,-4.164c-0.882,-0.856 -2.413,-1.284 -4.592,-1.284c-2.284,-0 -4.463,0.272 -6.538,0.817c-2.076,0.545 -4.359,1.544 -6.85,2.997l-4.592,-9.729c3.165,-1.765 6.266,-3.036 9.301,-3.814c3.036,-0.779 6.188,-1.168 9.457,-1.168c5.656,0 9.962,1.401 12.92,4.203c2.958,2.802 4.436,7.005 4.436,12.609l0,14.555c0,1.971 0.338,3.463 1.012,4.475c0.675,1.012 1.842,1.751 3.503,2.218Zm-16.812,-5.837l-0,-5.526c-0.934,0.052 -1.92,0.104 -2.958,0.155c-1.037,0.052 -1.92,0.13 -2.646,0.234c-0.882,0.104 -1.803,0.207 -2.763,0.311c-0.96,0.104 -1.829,0.325 -2.607,0.662c-0.779,0.337 -1.427,0.817 -1.946,1.44c-0.519,0.622 -0.779,1.504 -0.779,2.646c0,1.505 0.649,2.646 1.946,3.425c1.297,0.778 2.776,1.167 4.437,1.167c2.646,0 4.527,-0.441 5.643,-1.323c1.115,-0.882 1.673,-1.946 1.673,-3.191Z" style="fill-rule:nonzero;"/></g><g><rect id="path16989" serif:id="path1698" x="223.346" y="844.482" width="56.22" height="94.488" style="fill:#fff;"/><path d="M272.313,915.348l-13.348,0l-0,-29.616c-0,-2.502 -0.581,-4.31 -1.742,-5.422c-1.162,-1.113 -2.821,-1.669 -4.978,-1.669c-1.051,0 -2.075,0.139 -3.07,0.417c-0.996,0.278 -1.88,0.723 -2.655,1.335c-0.774,0.612 -1.396,1.404 -1.866,2.378c-0.471,0.973 -0.706,2.183 -0.706,3.629l0,28.948l-13.348,0l0,-47.385l13.348,-0l-0.057,3.003c1.449,-1.335 3.19,-2.391 5.225,-3.17c2.034,-0.779 3.998,-1.168 5.893,-1.168c2.842,-0 5.336,0.417 7.482,1.251c2.146,0.835 3.957,1.989 5.434,3.462c1.477,1.474 2.577,3.198 3.302,5.173c0.724,1.974 1.086,4.129 1.086,6.465l0,32.369Z" style="fill-rule:nonzero;"/></g><g><rect id="path169810" serif:id="path1698" x="279.567" y="844.482" width="56.22" height="94.488" style="fill:#fff;"/><path d="M330.523,915.095l-13.33,0l0,-2.531c-1.293,1.182 -2.854,2.138 -4.682,2.869c-1.828,0.731 -3.67,1.097 -5.526,1.097c-3.655,-0 -6.889,-0.689 -9.702,-2.067c-2.812,-1.378 -5.174,-3.22 -7.086,-5.526c-1.912,-2.306 -3.375,-4.964 -4.387,-7.973c-1.012,-3.009 -1.519,-6.172 -1.519,-9.491c0,-3.374 0.478,-6.608 1.435,-9.702c0.956,-3.093 2.376,-5.821 4.26,-8.183c1.884,-2.362 4.204,-4.26 6.96,-5.695c2.756,-1.434 5.934,-2.151 9.533,-2.151c1.969,0 3.881,0.309 5.737,0.928c1.856,0.619 3.515,1.491 4.977,2.615l0,-20.078l13.33,-0l0,65.888Zm-13.245,-17.801l-0,-12.401c-0,-1.069 -0.254,-2.025 -0.763,-2.869c-0.508,-0.843 -1.158,-1.574 -1.949,-2.193c-0.791,-0.619 -1.68,-1.097 -2.669,-1.434c-0.989,-0.338 -1.963,-0.506 -2.922,-0.506c-3.56,-0 -6.314,1.251 -8.262,3.754c-1.949,2.503 -2.923,5.723 -2.923,9.66c-0,1.799 0.254,3.473 0.762,5.019c0.509,1.547 1.229,2.883 2.161,4.008c0.932,1.124 2.076,2.024 3.432,2.699c1.356,0.675 2.881,1.013 4.575,1.013c0.847,-0 1.779,-0.141 2.796,-0.422c1.017,-0.281 1.949,-0.703 2.796,-1.266c0.847,-0.562 1.553,-1.265 2.118,-2.109c0.565,-0.843 0.848,-1.828 0.848,-2.953Z" style="fill-rule:nonzero;"/></g></g><g><g><rect x="615.709" y="844.482" width="64.252" height="94.488" style="fill:#fff;"/><path d="M670.73,915.348l-45.791,0l0,-66.141l43.247,-0l-0,13.058l-29.679,0l-0,13.314l26.881,-0l-0,12.21l-26.881,0l-0,14.501l32.223,-0l-0,13.058Z" style="fill-rule:nonzero;"/></g><g><rect x="365.315" y="844.482" width="67.087" height="94.488" style="fill:#fff;"/><path d="M428.137,869.269l-12.886,4.404c-1.142,-3.588 -2.909,-6.497 -5.301,-8.726c-2.392,-2.229 -5.41,-3.344 -9.053,-3.344c-3.045,0 -5.641,0.53 -7.788,1.591c-2.148,1.06 -3.901,2.528 -5.261,4.404c-1.359,1.875 -2.338,4.077 -2.936,6.606c-0.598,2.528 -0.897,5.26 -0.897,8.196c0,2.827 0.272,5.491 0.816,7.992c0.543,2.501 1.454,4.676 2.732,6.525c1.278,1.848 2.936,3.303 4.975,4.363c2.039,1.06 4.58,1.59 7.625,1.59c3.534,0 6.552,-0.937 9.053,-2.813c2.501,-1.876 4.404,-4.771 5.709,-8.686l13.13,4.241c-2.555,6.688 -6.103,11.649 -10.643,14.884c-4.54,3.235 -10.344,4.852 -17.412,4.852c-5.056,0 -9.488,-0.91 -13.294,-2.732c-3.805,-1.821 -6.973,-4.241 -9.501,-7.258c-2.528,-3.018 -4.431,-6.497 -5.709,-10.439c-1.277,-3.942 -1.916,-8.061 -1.916,-12.356c-0,-4.404 0.639,-8.631 1.916,-12.682c1.278,-4.051 3.181,-7.598 5.709,-10.643c2.528,-3.045 5.696,-5.478 9.501,-7.299c3.806,-1.822 8.238,-2.732 13.294,-2.732c6.851,-0 12.75,1.712 17.698,5.138c4.947,3.425 8.427,8.4 10.439,14.924Z" style="fill-rule:nonzero;"/></g><g><rect x="492.874" y="844.482" width="67.087" height="94.488" style="fill:#fff;"/><path d="M555.696,869.269l-12.886,4.404c-1.142,-3.588 -2.909,-6.497 -5.301,-8.726c-2.392,-2.229 -5.41,-3.344 -9.053,-3.344c-3.045,0 -5.641,0.53 -7.788,1.591c-2.148,1.06 -3.901,2.528 -5.261,4.404c-1.359,1.875 -2.338,4.077 -2.936,6.606c-0.598,2.528 -0.897,5.26 -0.897,8.196c0,2.827 0.272,5.491 0.816,7.992c0.543,2.501 1.454,4.676 2.732,6.525c1.278,1.848 2.936,3.303 4.975,4.363c2.039,1.06 4.58,1.59 7.625,1.59c3.534,0 6.552,-0.937 9.053,-2.813c2.501,-1.876 4.404,-4.771 5.709,-8.686l13.13,4.241c-2.555,6.688 -6.103,11.649 -10.643,14.884c-4.54,3.235 -10.344,4.852 -17.412,4.852c-5.056,0 -9.488,-0.91 -13.293,-2.732c-3.806,-1.821 -6.974,-4.241 -9.502,-7.258c-2.528,-3.018 -4.431,-6.497 -5.709,-10.439c-1.277,-3.942 -1.916,-8.061 -1.916,-12.356c-0,-4.404 0.639,-8.631 1.916,-12.682c1.278,-4.051 3.181,-7.598 5.709,-10.643c2.528,-3.045 5.696,-5.478 9.502,-7.299c3.805,-1.822 8.237,-2.732 13.293,-2.732c6.851,-0 12.75,1.712 17.698,5.138c4.947,3.425 8.427,8.4 10.439,14.924Z" style="fill-rule:nonzero;"/></g><g><rect x="559.961" y="844.482" width="55.748" height="94.488" style="fill:#fff;"/><path d="M613.346,915.862l-43.643,-0l-0,-66.142l13.91,0l0,53.083l29.733,0l0,13.059Z" style="fill-rule:nonzero;"/></g><g><rect x="432.402" y="844.482" width="60.472" height="94.488" style="fill:#fff;"/><path d="M492.284,849.207l-22.604,39.77l-0,26.371l-13.91,0l-0,-26.371l-22.779,-39.77l15.736,-0l13.869,25.354l13.952,-25.354l15.736,-0Z" style="fill-rule:nonzero;"/></g></g></g><g id="_619-No-Motor-Vehicles" serif:id="619 No Motor Vehicles"><circle cx="425.433" cy="1364.56" r="226.772" style="fill:#e31837;"/><circle cx="425.433" cy="1364.56" r="181.417" style="fill:#fff;"/><path d="M339.233,1477.42l0.015,31.834c3.626,4.111 8.864,6.476 14.368,6.476c5.504,0 10.742,-2.365 14.368,-6.476l-0.015,-29.472l19.138,1.167l19.137,0.779l19.215,0.466l19.138,-0.466l19.137,-0.779l19.138,-1.167l-0.015,29.472c3.626,4.111 8.864,6.476 14.368,6.476c5.504,0 10.742,-2.365 14.368,-6.476l-0.025,-31.834c4.432,-2.592 7.167,-7.331 7.206,-12.441l0,-40.305c-0.039,-7.484 -5.758,-13.703 -13.191,-14.311l-7.496,-46.827c-1.889,-11.61 -11.901,-20.152 -23.637,-20.152l-98.099,-0c-11.776,-0 -21.789,8.543 -23.637,20.153l-7.496,46.826c-7.471,0.608 -13.191,6.827 -13.152,14.311l0,40.305c-0.039,5.11 2.697,9.849 7.167,12.441Zm134.069,-16.156l-95.765,-0l0,6.614c0,-0 10.631,0.454 15.948,0.622c5.329,0.169 10.697,0.298 16.026,0.389c5.315,0.091 10.632,0.156 15.947,0.156c5.316,-0 10.633,-0.065 15.948,-0.156c5.316,-0.091 10.633,-0.22 15.948,-0.389c5.316,-0.168 15.948,-0.622 15.948,-0.622l0,-6.614Zm0,-14.939l0,7.78l-95.765,0l0,-7.78l95.765,-0Zm8.091,-13.189c-0,7.413 6.008,13.422 13.419,13.422c7.412,0 13.42,-6.009 13.42,-13.422c-0,-7.413 -6.008,-13.422 -13.42,-13.422c-7.411,-0 -13.419,6.009 -13.419,13.422Zm-138.786,0c0,-7.413 6.009,-13.422 13.42,-13.422c7.411,-0 13.419,6.009 13.419,13.422c0,7.413 -6.008,13.422 -13.419,13.422c-7.411,0 -13.42,-6.009 -13.42,-13.422Zm98.799,-1.673c5.316,0.091 10.634,0.208 15.948,0.389c5.316,0.182 15.948,0.7 15.948,0.7l0,6.536l-95.765,0l0,-6.536c0,0 10.63,-0.519 15.948,-0.7c5.329,-0.181 10.697,-0.298 16.026,-0.389c5.315,-0.09 10.632,-0.155 15.947,-0.155c5.316,-0 10.633,0.064 15.948,0.155Zm52.102,-40.532c0.441,2.914 -0.456,5.873 -2.454,8.034c-1.998,2.162 -4.877,3.288 -7.764,3.033c0,-0 -19.26,-0.734 -28.892,-1.036c-9.639,-0.302 -19.293,-0.778 -28.94,-0.778c-9.646,-0 -19.294,0.476 -28.939,0.778c-9.652,0.302 -28.97,1.036 -28.97,1.036c-2.965,0.255 -5.843,-0.871 -7.841,-3.033c-1.998,-2.161 -2.895,-5.12 -2.416,-8.034l2.174,-13.42c1.47,-9.454 8.989,-16.766 18.493,-18.009c-0,-0 19.931,-1.525 29.918,-1.802c10.834,-0.3 24.252,-0.3 35.085,0c9.987,0.277 29.917,1.802 29.917,1.802c9.425,1.241 16.945,8.553 18.494,18.008l2.135,13.421Z"/><path d="M364.358,1263.96l2.07,0.09l2.041,0.24l2.04,0.33l2.01,0.45l1.98,0.57l1.95,0.69l-1.74,3l-1.83,-0.63l-1.89,-0.51l-1.89,-0.39l-1.92,-0.27l-1.921,-0.15l-1.95,-0.03l-1.92,0.09l-1.95,0.18l-1.89,0.33l-1.89,0.42l-1.86,0.54l-1.83,0.66l-1.8,0.75l-1.71,0.87l-1.68,0.99l-1.62,1.08l-1.56,1.171l-1.47,1.26l-1.38,1.35l-1.32,1.41l-1.2,1.53l-1.14,1.56l-1.02,1.65l-0.93,1.711l-0.81,1.74l-0.72,1.8l-0.6,1.86l-0.51,1.86l-0.36,1.89l-0.27,1.921l-0.15,1.95l-0.03,1.92l0.09,1.95l0.21,1.92l0.33,1.921l0.45,1.89l0.54,1.86l0.66,1.8l0.78,1.8l0.9,1.71l0.96,1.681l1.08,1.59l1.2,1.56l1.26,1.44l1.35,1.41l1.44,1.29l1.5,1.2l1.59,1.141l1.65,1.02l1.71,0.9l1.77,0.81l1.8,0.72l1.83,0.6l1.89,0.48l1.89,0.36l1.92,0.24l1.95,0.15l1.95,0l1.92,-0.09l1.92,-0.24l1.921,-0.33l1.89,-0.45l1.86,-0.54l1.8,-0.69l1.77,-0.78l1.74,-0.9l1.65,-0.99l1.59,-1.081l1.56,-1.2l1.44,-1.26l1.38,-1.38l1.29,-1.44l1.2,-1.5l1.11,-1.59l1.02,-1.651l0.9,-1.74l0.81,-1.74l0.69,-1.83l0.6,-1.83l0.45,-1.89l0.36,-1.891l0.24,-1.92l0.12,-1.95l0,-1.95l-0.09,-1.92l-0.24,-1.92l-0.33,-1.921l-0.48,-1.86l-0.57,-1.86l-0.69,-1.83l-0.78,-1.77l-0.9,-1.711l-0.99,-1.65l-1.11,-1.59l-1.2,-1.53l-1.29,-1.47l-1.35,-1.35l-1.47,-1.29l1.74,-3.001l1.56,1.35l1.5,1.441l1.41,1.5l1.29,1.62l1.23,1.65l1.11,1.74l1.02,1.8l0.9,1.861l0.81,1.89l0.69,1.95l0.57,2.01l0.45,2.01l0.33,2.041l0.21,2.04l0.09,2.07l-0.03,2.07l0,1.29l0.15,1.29l0.24,1.26l0.36,1.231l0.51,1.2l0.57,1.14l0.72,1.08l0.81,1.02l0.87,0.93l0.99,0.84l1.05,0.75l1.11,0.63l1.17,0.54l1.23,0.42l1.26,0.3l1.261,0.18l1.29,0.06l57.211,0l0.99,1.651l1.08,1.56l1.17,1.53l1.26,1.41l1.35,1.38l1.41,1.26l1.5,1.2l1.56,1.08l1.65,1.021l1.68,0.9l1.74,0.78l1.77,0.72l1.83,0.57l1.83,0.48l1.89,0.36l1.89,0.27l1.89,0.12l1.92,0.03l1.92,-0.09l1.89,-0.18l1.891,-0.33l1.86,-0.42l1.83,-0.54l1.8,-0.66l1.77,-0.75l1.71,-0.84l1.649,-0.96l1.591,-1.05l1.53,-1.171l1.44,-1.23l1.379,-1.32l1.32,-1.41l1.201,-1.47l1.109,-1.56l1.051,-1.59l0.93,-1.681l0.81,-1.71l0.72,-1.77l0.63,-1.8l0.51,-1.86l0.39,-1.86l0.3,-1.891l0.15,-1.92l0.06,-1.89l6.12,0l-0.06,-2.13l-0.15,-2.1l-0.3,-2.101l-0.42,-2.07l-0.51,-2.07l-0.66,-2.01l-0.75,-1.98l-0.84,-1.921l-0.96,-1.89l-1.08,-1.83l-1.17,-1.77l-1.26,-1.71l-1.35,-1.62l-1.441,-1.561l-1.53,-1.44l-1.59,-1.38l-1.679,-1.29l-1.771,-1.2l-1.8,-1.08l-1.89,-0.99l-1.92,-0.9l0,-2.371l-0.059,-0.9l-0.15,-0.87l-0.3,-0.84l-0.39,-0.81l-0.511,-0.72l-0.569,-0.69l-0.66,-0.57l-0.75,-0.51l-0.81,-0.39l-0.84,-0.27l-0.87,-0.18l-0.87,-0.06l-29.941,-0l-0,-1.95l-0.06,-1.261l-0.18,-1.26l-0.3,-1.23l-0.39,-1.2l-0.54,-1.14l-0.6,-1.11l-0.72,-1.05l-0.81,-0.96l-16.081,-17.432l-15.69,-6.691l-2.73,0l0,-4.65l0.69,-0.96l0.63,-1.05l0.51,-1.08l0.39,-1.14l0.27,-1.141l0.18,-1.2l0.06,-1.2l-0.09,-1.2l-0.18,-1.17l-0.3,-1.17l-0.39,-1.14l-0.54,-1.08l-0.6,-1.02l-0.72,-0.961l-0.81,-0.87l-0.9,-0.81l-0.96,-0.72l-1.05,-0.6l-1.08,-0.51l-1.14,-0.39l-1.14,-0.3l-1.2,-0.18l-1.2,-0.06l-1.2,0.09l-1.17,0.18l-1.17,0.27l-1.14,0.42l-1.08,0.51l-1.02,0.63l-0.96,0.72l-0.9,0.78l-0.81,0.901l-0.69,0.96l-0.63,1.05l-0.51,1.08l-0.39,1.11l-0.3,1.17l-0.18,1.2l-0.06,1.2l-0,1.35l2.73,0l-0,8.161l0.06,0.87l0.15,0.84l0.27,0.81l0.36,0.78l0.48,0.721l0.54,0.66l0.63,0.6l0.72,0.48l0.75,0.42l0.81,0.3l0.81,0.21l0.87,0.09l0.87,-0l0.84,-0.12l-0,0.78l-0.03,0.48l-0.12,0.45l-0.21,0.42l-8.49,14.611l-9.871,7.891l-0.48,0.33l-0.57,0.24l-0.57,0.15l-0.6,0.03l-0.57,-0.06l-0.57,-0.18l-0.54,-0.27l-0.48,-0.36l-0.42,-0.42l-0.33,-0.51l-0.21,-0.54l-0.15,-0.57l-0.03,-0.6l0.06,-0.6l6.33,-29.673l0,-0.33l-0.059,-0.3l-0.18,-0.27l-0.24,-0.21l-0.3,-0.12l-0.33,-0l-0.301,0.06l-0.27,0.18l-0.21,0.24l-13.98,23.282l-0.93,1.5l-1.05,1.38l-1.14,1.35l-1.2,1.261l-1.29,1.2l-1.38,1.08l-1.44,1.02l-1.47,0.9l-1.56,0.81l-1.62,0.72l-1.62,0.6l-1.68,0.51l-1.71,0.39l-1.74,0.27l-1.74,0.18l-1.74,0.06l-7.591,0l0,12.932l2.04,-0Zm-1.11,23.132l-1.2,0.09l-1.17,0.21l-1.14,0.33l-1.11,0.45l-1.05,0.54l-1.02,0.63l-0.93,0.75l-0.87,0.84l-0.78,0.9l-0.66,0.96l-0.6,1.051l-0.48,1.08l-0.36,1.14l-0.27,1.17l-0.15,1.2l-0.03,1.17l0.09,1.2l0.21,1.17l0.3,1.17l0.42,1.111l0.54,1.05l0.63,1.02l0.72,0.93l0.84,0.87l0.9,0.81l0.96,0.69l1.02,0.6l1.11,0.48l1.11,0.39l1.17,0.27l1.17,0.15l1.2,0.06l1.2,-0.09l1.17,-0.18l1.17,-0.3l1.11,-0.42l1.08,-0.51l1.02,-0.63l0.931,-0.72l0.9,-0.81l0.78,-0.87l0.72,-0.99l0.6,-1.02l0.51,-1.081l0.39,-1.11l0.3,-1.17l0.15,-1.17l0.06,-1.2l-0.06,-1.2l-0.18,-1.17l-0.27,-1.17l-0.42,-1.11l-0.51,-1.081l-0.6,-1.02l3.63,-6.33l0.99,1.14l0.9,1.2l0.78,1.26l0.69,1.29l0.6,1.38l0.48,1.411l0.36,1.44l0.24,1.47l0.15,1.47l0.03,1.5l-0.09,1.47l-0.21,1.47l-0.33,1.471l-0.45,1.41l-0.54,1.38l-0.66,1.35l-0.75,1.29l-0.84,1.2l-0.96,1.17l-1.02,1.05l-1.11,0.99l-1.2,0.901l-1.23,0.81l-1.32,0.72l-1.35,0.57l-1.41,0.51l-1.44,0.36l-1.471,0.27l-1.47,0.15l-1.5,0.06l-1.47,-0.09l-1.5,-0.21l-1.44,-0.3l-1.44,-0.42l-1.38,-0.54l-1.35,-0.63l-1.29,-0.75l-1.23,-0.841l-1.14,-0.96l-1.08,-1.02l-0.99,-1.08l-0.93,-1.2l-0.81,-1.23l-0.72,-1.32l-0.6,-1.35l-0.51,-1.41l-0.39,-1.441l-0.27,-1.44l-0.15,-1.5l-0.06,-1.47l0.06,-1.5l0.21,-1.47l0.3,-1.44l0.39,-1.441l0.54,-1.41l0.63,-1.32l0.72,-1.32l0.84,-1.23l0.93,-1.17l1.02,-1.08l1.08,-0.99l1.17,-0.93l1.26,-0.811l1.29,-0.75l1.35,-0.6l1.38,-0.51l1.44,-0.42l1.47,-0.27l1.47,-0.18l1.5,-0.06l1.47,0.06l1.5,0.15l1.441,0.3l-3.631,6.301l-1.2,-0Zm124.803,4.68l-0.69,0.99l-0.6,1.021l-0.48,1.11l-0.39,1.11l-0.24,1.17l-0.15,1.2l-0.06,1.17l0.09,1.2l0.21,1.17l0.3,1.17l0.42,1.111l0.51,1.08l0.63,0.99l0.75,0.96l0.81,0.87l0.9,0.78l0.96,0.72l1.02,0.6l1.08,0.48l1.14,0.39l1.17,0.3l1.17,0.15l1.2,0.06l1.17,-0.06l1.2,-0.21l1.14,-0.27l1.14,-0.42l1.05,-0.51l1.051,-0.63l0.93,-0.72l0.9,-0.78l0.78,-0.9l0.72,-0.96l0.63,-1.02l0.51,-1.08l0.39,-1.111l0.3,-1.17l0.18,-1.17l0.06,-1.2l-0.06,-1.2l-0.18,-1.17l-0.27,-1.17l-0.42,-1.11l-0.48,-1.08l-0.63,-1.051l-0.69,-0.96l-0.78,-0.87l-0.9,-0.81l-0.93,-0.72l-1.021,-0.63l-1.08,-0.54l-1.11,-0.39l-1.17,-0.33l-1.17,-0.18l-2.49,-6.841l1.47,-0.03l1.5,0.09l1.47,0.21l1.47,0.3l1.41,0.42l1.38,0.54l1.351,0.66l1.29,0.75l1.23,0.841l1.14,0.93l1.08,1.02l0.989,1.11l0.901,1.2l0.81,1.23l0.72,1.32l0.6,1.35l0.51,1.41l0.39,1.441l0.269,1.47l0.151,1.47l0.029,1.47l-0.059,1.5l-0.181,1.47l-0.329,1.47l-0.391,1.411l-0.54,1.41l-0.629,1.35l-0.75,1.29l-0.841,1.23l-0.929,1.14l-1.02,1.11l-1.08,0.99l-1.17,0.901l-1.261,0.84l-1.29,0.72l-1.35,0.6l-1.41,0.51l-1.44,0.42l-1.44,0.27l-1.5,0.18l-1.47,0.06l-1.5,-0.06l-1.47,-0.18l-1.47,-0.3l-1.41,-0.42l-1.41,-0.51l-1.35,-0.63l-1.29,-0.72l-1.23,-0.81l-1.17,-0.931l-1.11,-1.02l-1.02,-1.08l-0.9,-1.17l-0.84,-1.23l-0.72,-1.29l-0.63,-1.35l-0.54,-1.41l-0.39,-1.411l-0.3,-1.47l-0.18,-1.47l-0.06,-1.5l0.03,-1.47l0.18,-1.5l0.27,-1.44l0.39,-1.441l0.51,-1.41l0.6,-1.35l0.72,-1.29l0.81,-1.26l0.93,-1.17l0.99,-1.11l1.08,-1.02l1.17,-0.93l2.49,6.84l-0.78,0.9Zm-24.36,-18.992l-0,20.522l0.06,0.42l0.21,0.361l0.3,0.27l0.39,0.18l0.39,0.03l0.42,-0.09l0.36,-0.21l0.27,-0.3l0.15,-0.39l0.42,-1.921l0.51,-1.89l0.66,-1.86l0.75,-1.8l0.87,-1.77l0.96,-1.711l1.08,-1.62l1.17,-1.59l1.26,-1.47l1.38,-1.44l1.44,-1.32l0.24,-0.27l0.15,-0.33l0.06,-0.36l-0.03,-0.36l-0.12,-0.36l-0.21,-0.3l-0.3,-0.211l-0.33,-0.15l-0.36,-0.059l-12.15,-0.001Zm-22.951,-18.361l-1.11,-0.75l-1.02,-0.87l-0.96,-0.931l-0.9,-1.02l-0.78,-1.08l-0.72,-1.14l-0.6,-1.2l-0.51,-1.26l-0.39,-1.26l-25.861,14.971l25.861,8.161l8.16,-12.931l-1.17,-0.69Z"/></g><g><g><rect id="path169811" serif:id="path1698" x="351.024" y="1620.86" width="33.543" height="94.488" style="fill:#fff;"/><rect x="355.748" y="1658.66" width="18.898" height="9.449" style="fill-rule:nonzero;"/></g><g><rect id="path169812" serif:id="path1698" x="224.646" y="1620.86" width="52.441" height="94.488" style="fill:#fff;"/><path d="M272.348,1682.54l-5.215,9.184c-1.816,-0.103 -3.463,-0.557 -4.942,-1.362c-1.479,-0.804 -2.685,-1.855 -3.619,-3.152c-1.453,1.349 -3.153,2.361 -5.098,3.036c-1.946,0.674 -4.32,1.011 -7.122,1.011c-2.231,0 -4.372,-0.285 -6.421,-0.856c-2.05,-0.571 -3.853,-1.44 -5.41,-2.607c-1.556,-1.168 -2.802,-2.608 -3.736,-4.32c-0.934,-1.712 -1.401,-3.736 -1.401,-6.071c0,-2.283 0.338,-4.229 1.012,-5.837c0.675,-1.609 1.531,-2.971 2.569,-4.086c1.038,-1.116 2.218,-2.011 3.541,-2.686c1.323,-0.674 2.633,-1.193 3.931,-1.556c1.297,-0.363 2.516,-0.623 3.658,-0.778c1.141,-0.156 2.049,-0.26 2.724,-0.312c1.09,-0.104 2.478,-0.22 4.164,-0.35c1.686,-0.13 3.23,-0.247 4.631,-0.35l-0,-0.623c-0,-1.92 -0.441,-3.308 -1.323,-4.164c-0.882,-0.856 -2.413,-1.284 -4.592,-1.284c-2.283,-0 -4.463,0.272 -6.538,0.817c-2.076,0.545 -4.359,1.544 -6.849,2.997l-4.593,-9.729c3.166,-1.765 6.266,-3.036 9.301,-3.814c3.036,-0.779 6.188,-1.168 9.457,-1.168c5.656,0 9.962,1.401 12.92,4.203c2.958,2.802 4.437,7.005 4.437,12.609l-0,14.555c-0,1.971 0.337,3.463 1.011,4.475c0.675,1.012 1.842,1.751 3.503,2.218Zm-16.812,-5.837l0,-5.526c-0.934,0.052 -1.92,0.103 -2.958,0.155c-1.037,0.052 -1.919,0.13 -2.646,0.234c-0.882,0.104 -1.803,0.207 -2.763,0.311c-0.96,0.104 -1.829,0.324 -2.607,0.662c-0.779,0.337 -1.427,0.817 -1.946,1.44c-0.519,0.622 -0.778,1.504 -0.778,2.646c-0,1.505 0.648,2.646 1.945,3.425c1.298,0.778 2.776,1.167 4.437,1.167c2.646,0 4.527,-0.441 5.643,-1.323c1.115,-0.882 1.673,-1.946 1.673,-3.191Z" style="fill-rule:nonzero;"/></g><g><rect id="path169813" serif:id="path1698" x="677.953" y="1620.86" width="50.551" height="94.488" style="fill:#fff;"/><path d="M726.533,1644.42l-15.98,47.244l-14.649,0l-15.98,-47.244l13.816,0l9.488,28.946l9.405,-28.946l13.9,0Z" style="fill-rule:nonzero;"/></g><g><rect id="path169814" serif:id="path1698" x="623.622" y="1620.86" width="54.331" height="94.488" style="fill:#fff;"/><path d="M673.232,1668.65c0,3.296 -0.523,6.356 -1.569,9.182c-1.047,2.825 -2.538,5.258 -4.474,7.298c-1.935,2.041 -4.29,3.649 -7.063,4.827c-2.773,1.177 -5.859,1.765 -9.26,1.765c-3.401,0 -6.488,-0.575 -9.261,-1.726c-2.772,-1.151 -5.14,-2.76 -7.102,-4.827c-1.962,-2.066 -3.479,-4.512 -4.552,-7.337c-1.072,-2.826 -1.608,-5.886 -1.608,-9.182c-0,-3.401 0.483,-6.579 1.451,-9.535c0.968,-2.956 2.407,-5.52 4.317,-7.691c1.909,-2.172 4.264,-3.872 7.063,-5.101c2.799,-1.23 6.03,-1.845 9.692,-1.845c3.61,0 6.814,0.628 9.614,1.884c2.799,1.255 5.14,2.969 7.023,5.14c1.884,2.171 3.31,4.735 4.277,7.691c0.968,2.956 1.452,6.108 1.452,9.457Zm-12.321,-0c0,-1.831 -0.248,-3.545 -0.745,-5.141c-0.497,-1.595 -1.178,-2.995 -2.041,-4.198c-0.863,-1.204 -1.923,-2.158 -3.178,-2.865c-1.256,-0.706 -2.616,-1.059 -4.081,-1.059c-1.517,-0 -2.904,0.353 -4.159,1.059c-1.256,0.707 -2.329,1.661 -3.218,2.865c-0.89,1.203 -1.57,2.603 -2.041,4.198c-0.47,1.596 -0.706,3.31 -0.706,5.141c0,3.61 0.916,6.54 2.747,8.789c1.831,2.25 4.29,3.375 7.377,3.375c3.034,-0 5.467,-1.125 7.298,-3.375c1.832,-2.249 2.747,-5.179 2.747,-8.789Z" style="fill-rule:nonzero;"/></g><g><rect id="path169815" serif:id="path1698" x="277.087" y="1620.86" width="56.22" height="94.488" style="fill:#fff;"/><path d="M326.053,1691.73l-13.348,0l0,-29.616c0,-2.502 -0.581,-4.31 -1.742,-5.422c-1.161,-1.113 -2.821,-1.669 -4.978,-1.669c-1.051,0 -2.075,0.139 -3.07,0.417c-0.995,0.278 -1.88,0.723 -2.655,1.335c-0.774,0.612 -1.396,1.404 -1.866,2.378c-0.47,0.973 -0.705,2.183 -0.705,3.629l-0,28.948l-13.349,0l0,-47.385l13.349,-0l-0.058,3.003c1.449,-1.335 3.19,-2.392 5.225,-3.17c2.034,-0.779 3.998,-1.168 5.893,-1.168c2.842,-0 5.337,0.417 7.482,1.251c2.146,0.835 3.957,1.989 5.434,3.462c1.477,1.474 2.577,3.198 3.302,5.173c0.724,1.974 1.086,4.129 1.086,6.465l0,32.369Z" style="fill-rule:nonzero;"/></g><g><rect x="544.252" y="1620.86" width="79.37" height="94.488" style="fill:#fff;"/><path d="M613.757,1691.73l-14.491,0l-31.239,-43.331l0,43.331l-13.91,0l-0,-66.141l14.519,-0l31.211,43.416l-0,-43.416l13.91,-0l0,66.141Z" style="fill-rule:nonzero;"/></g><g><rect x="179.764" y="1620.86" width="44.882" height="94.488" style="fill:#fff;"/><path d="M213.747,1672.85c-0,3.536 -0.354,6.575 -1.063,9.117c-0.708,2.542 -1.897,4.628 -3.569,6.258c-1.671,1.63 -3.852,2.832 -6.543,3.606c-2.691,0.773 -5.991,1.16 -9.9,1.16c-0.85,-0 -1.799,-0.042 -2.847,-0.124c-1.048,-0.083 -2.11,-0.208 -3.187,-0.373c-1.076,-0.166 -2.11,-0.36 -3.101,-0.581c-0.992,-0.221 -1.856,-0.469 -2.592,-0.746l3.569,-12.93c1.133,0.498 2.436,0.885 3.909,1.161c1.473,0.276 2.889,0.414 4.249,0.414c4.985,0 7.478,-2.486 7.478,-7.459l0,-45.504l13.597,0l-0,46.001Z" style="fill-rule:nonzero;"/></g><g><rect x="461.339" y="1620.86" width="65.197" height="94.488" style="fill:#fff;"/><path d="M520.487,1679.9l-7.39,0l0,11.872l-14.606,-0l0,-11.872l-32.428,0l-0,-12.295l30.516,-41.975l16.518,0l0,41.89l7.39,-0l0,12.38Zm-21.822,-35.954l-17.127,23.574l17.127,-0l0,-23.574Z" style="fill-rule:nonzero;"/></g><g><rect x="402.283" y="1620.86" width="59.055" height="94.488" style="fill:#fff;"/><path d="M454.332,1691.77l-47.639,-0l0,-11.786c1.565,-0.904 3.217,-1.894 4.956,-2.968c1.738,-1.074 3.491,-2.176 5.259,-3.306c1.767,-1.131 3.492,-2.29 5.172,-3.477c1.681,-1.187 3.275,-2.346 4.782,-3.476c1.101,-0.848 2.39,-1.922 3.868,-3.222c1.478,-1.3 2.869,-2.77 4.173,-4.409c1.304,-1.639 2.405,-3.476 3.303,-5.511c0.898,-2.035 1.348,-4.24 1.348,-6.614c-0,-2.883 -0.725,-5.313 -2.174,-7.292c-1.449,-1.978 -3.854,-2.968 -7.215,-2.968c-3.767,0 -6.404,1.301 -7.911,3.901c-1.507,2.6 -1.941,6.02 -1.304,10.259l-14.257,0l-0.087,-3.222c-0.115,-3.278 0.348,-6.345 1.391,-9.199c1.044,-2.855 2.565,-5.314 4.564,-7.377c2,-2.063 4.492,-3.688 7.476,-4.875c2.985,-1.187 6.39,-1.781 10.215,-1.781c3.767,-0 7.157,0.565 10.171,1.696c3.014,1.13 5.549,2.699 7.606,4.706c2.058,2.006 3.623,4.395 4.695,7.164c1.072,2.77 1.579,5.823 1.521,9.158c-0.058,4.635 -1.391,9.143 -3.999,13.523c-2.608,4.381 -6.259,8.578 -10.953,12.592c-1.217,1.017 -2.594,2.077 -4.129,3.179c-1.536,1.103 -3.029,2.078 -4.477,2.926l23.645,-0l-0,12.379Z" style="fill-rule:nonzero;"/></g><g><rect x="122.362" y="1620.86" width="39.685" height="94.488" style="fill:#fff;"/><path d="M151.64,1691.77l-14.432,-0l-0,-45.367l-11.302,0l-0,-10.938c2.26,-0.114 4.245,-0.311 5.955,-0.594c1.71,-0.283 3.086,-0.791 4.13,-1.526c0.985,-0.735 1.695,-1.668 2.13,-2.799c0.434,-1.13 0.767,-2.77 0.999,-4.918l12.52,0l-0,66.142Z" style="fill-rule:nonzero;"/></g></g></g></svg>