<?xml version="1.0" encoding="UTF-8" standalone="no"?><!DOCTYPE svg PUBLIC "-//W3C//DTD SVG 1.1//EN" "http://www.w3.org/Graphics/SVG/1.1/DTD/svg11.dtd"><svg width="100%" height="100%" viewBox="0 0 828 833" version="1.1" xmlns="http://www.w3.org/2000/svg" xmlns:xlink="http://www.w3.org/1999/xlink" xml:space="preserve" xmlns:serif="http://www.serif.com/" style="fill-rule:evenodd;clip-rule:evenodd;stroke-linejoin:round;stroke-miterlimit:2;"><g transform="matrix(50,0,0,50,508.019,415.728)"></g><text x="320.397px" y="415.728px" style="font-family:'ArialMT', 'Arial', sans-serif;font-size:50px;">sw=70.5</text><rect id="_00" serif:id="00" x="0" y="0" width="827.953" height="832.677" style="fill:none;"/><clipPath id="_clip1"><rect x="0" y="0" width="827.953" height="832.677"/></clipPath><g clip-path="url(#_clip1)"><path d="M827.953,35.433c-0,-19.556 -15.877,-35.433 -35.433,-35.433l-757.087,0c-19.556,0 -35.433,15.877 -35.433,35.433l0,761.811c0,19.556 15.877,35.433 35.433,35.433l757.087,0c19.556,0 35.433,-15.877 35.433,-35.433l-0,-761.811Z"/><path d="M810.236,35.433c0,-9.778 -7.938,-17.716 -17.716,-17.716l-757.087,-0c-9.778,-0 -17.716,7.938 -17.716,17.716l-0,377.953c-0,9.778 7.938,17.716 17.716,17.716l757.087,0c9.778,0 17.716,-7.938 17.716,-17.716l0,-377.953Z" style="fill:#ffd200;"/><path d="M810.236,466.535c0,-9.778 -7.938,-17.716 -17.716,-17.716l-757.087,-0c-9.778,-0 -17.716,7.938 -17.716,17.716l-0,330.709c-0,9.778 7.938,17.717 17.716,17.717l757.087,-0c9.778,-0 17.716,-7.939 17.716,-17.717l0,-330.709Z" style="fill:#fff;"/><rect id="path1698" x="523.228" y="478.346" width="25.984" height="94.488" style="fill:#fff;"/><path d="M542.013,501.957l-13.145,-0l-0,47.256l13.145,-0l0,-47.256Zm0.832,-11.482c0,-4.076 -3.328,-7.404 -7.405,-7.404c-4.159,-0 -7.487,3.328 -7.487,7.404c-0,4.16 3.328,7.488 7.487,7.488c4.077,0 7.405,-3.328 7.405,-7.488Z" style="fill-rule:nonzero;"/><rect id="path16981" serif:id="path1698" x="605.433" y="478.346" width="55.276" height="94.488" style="fill:#fff;"/><path d="M640.082,524.129c-0,5.742 -2.507,10.514 -8.573,10.514c-6.147,-0 -8.654,-4.772 -8.654,-10.514c0,-5.662 2.831,-10.433 8.654,-10.433c5.985,-0 8.573,4.771 8.573,10.433Zm12.212,-20.866l-12.455,-0l0,2.749c-2.022,-2.426 -5.904,-4.043 -10.19,-4.043c-11.242,-0 -19.492,10.028 -19.492,21.917c0,12.94 6.875,22.484 19.896,22.484c3.478,-0 7.36,-1.375 9.786,-3.478l0,3.963c0,5.014 -4.448,6.308 -8.735,6.308c-4.609,0 -8.734,-1.051 -14.072,-3.639l-4.367,10.029c5.014,2.992 12.131,5.014 18.359,5.014c11.161,-0 21.27,-3.801 21.27,-16.984l0,-44.32Z" style="fill-rule:nonzero;"/><rect id="path16982" serif:id="path1698" x="414.567" y="478.346" width="52.441" height="94.488" style="fill:#fff;"/><path d="M462.269,540.028l-5.215,9.185c-1.816,-0.104 -3.463,-0.558 -4.942,-1.362c-1.479,-0.805 -2.685,-1.855 -3.619,-3.153c-1.453,1.349 -3.152,2.361 -5.098,3.036c-1.946,0.674 -4.32,1.012 -7.122,1.012c-2.231,-0 -4.371,-0.286 -6.421,-0.857c-2.05,-0.57 -3.853,-1.439 -5.409,-2.607c-1.557,-1.167 -2.802,-2.607 -3.736,-4.32c-0.934,-1.712 -1.401,-3.736 -1.401,-6.071c-0,-2.283 0.337,-4.228 1.012,-5.837c0.674,-1.608 1.53,-2.971 2.568,-4.086c1.038,-1.116 2.218,-2.011 3.541,-2.685c1.324,-0.675 2.634,-1.194 3.931,-1.557c1.297,-0.363 2.516,-0.623 3.658,-0.778c1.142,-0.156 2.05,-0.26 2.724,-0.312c1.09,-0.103 2.478,-0.22 4.164,-0.35c1.687,-0.13 3.23,-0.246 4.631,-0.35l0,-0.623c0,-1.92 -0.441,-3.308 -1.323,-4.164c-0.882,-0.856 -2.413,-1.284 -4.592,-1.284c-2.283,0 -4.462,0.272 -6.538,0.817c-2.076,0.545 -4.359,1.544 -6.849,2.997l-4.592,-9.729c3.165,-1.764 6.265,-3.036 9.301,-3.814c3.035,-0.778 6.187,-1.167 9.456,-1.167c5.656,-0 9.963,1.4 12.92,4.202c2.958,2.802 4.437,7.005 4.437,12.609l-0,14.555c-0,1.972 0.337,3.463 1.012,4.475c0.674,1.012 1.842,1.751 3.502,2.218Zm-16.812,-5.837l0,-5.526c-0.934,0.052 -1.92,0.104 -2.957,0.156c-1.038,0.051 -1.92,0.129 -2.647,0.233c-0.882,0.104 -1.803,0.208 -2.763,0.311c-0.96,0.104 -1.829,0.325 -2.607,0.662c-0.778,0.337 -1.427,0.817 -1.946,1.44c-0.519,0.623 -0.778,1.505 -0.778,2.646c-0,1.505 0.648,2.646 1.946,3.425c1.297,0.778 2.776,1.167 4.436,1.167c2.646,0 4.527,-0.441 5.643,-1.323c1.116,-0.882 1.673,-1.946 1.673,-3.191Z" style="fill-rule:nonzero;"/><rect id="path16983" serif:id="path1698" x="246.614" y="478.346" width="54.331" height="94.488" style="fill:#fff;"/><path d="M283.903,526.14c0,7.22 -4.002,12.164 -10.045,12.164c-6.121,0 -10.124,-5.023 -10.124,-12.164c0,-7.299 4.003,-13.263 10.124,-13.263c5.964,0 10.045,5.964 10.045,13.263Zm12.321,-0c0,-13.498 -7.847,-24.171 -22.366,-24.171c-14.597,-0 -22.523,10.516 -22.523,24.171c-0,13.263 8.868,23.073 22.523,23.073c13.655,-0 22.366,-9.889 22.366,-23.073Z" style="fill-rule:nonzero;"/><rect id="path16984" serif:id="path1698" x="360.236" y="478.346" width="54.331" height="94.488" style="fill:#fff;"/><path d="M397.525,526.14c0,7.22 -4.002,12.164 -10.045,12.164c-6.121,0 -10.124,-5.023 -10.124,-12.164c0,-7.299 4.003,-13.263 10.124,-13.263c5.964,0 10.045,5.964 10.045,13.263Zm12.321,-0c0,-13.498 -7.847,-24.171 -22.366,-24.171c-14.597,-0 -22.523,10.516 -22.523,24.171c-0,13.263 8.868,23.073 22.523,23.073c13.655,-0 22.366,-9.889 22.366,-23.073Z" style="fill-rule:nonzero;"/><rect id="path16985" serif:id="path1698" x="549.213" y="478.346" width="56.22" height="94.488" style="fill:#fff;"/><path d="M598.096,516.844c-0,-9.261 -5.923,-16.352 -17.269,-16.352c-3.754,0 -8.259,1.669 -11.096,4.338l0,-3.003l-13.265,-0l0,47.386l13.265,-0l0,-28.949c0,-5.756 4.171,-7.759 8.343,-7.759c4.338,0 6.757,2.169 6.757,7.092l0,29.616l13.265,-0l-0,-32.369Z" style="fill-rule:nonzero;"/><rect id="path16986" serif:id="path1698" x="467.008" y="478.346" width="56.22" height="94.488" style="fill:#fff;"/><path d="M517.964,548.96l-13.33,-0l0,-2.531c-1.293,1.181 -2.854,2.137 -4.682,2.868c-1.828,0.731 -3.67,1.097 -5.526,1.097c-3.655,-0 -6.889,-0.689 -9.702,-2.067c-2.812,-1.378 -5.174,-3.22 -7.086,-5.526c-1.912,-2.306 -3.375,-4.964 -4.387,-7.973c-1.013,-3.009 -1.519,-6.172 -1.519,-9.491c0,-3.374 0.478,-6.608 1.434,-9.701c0.957,-3.094 2.377,-5.822 4.261,-8.184c1.884,-2.362 4.204,-4.26 6.96,-5.694c2.756,-1.435 5.934,-2.152 9.533,-2.152c1.969,0 3.881,0.31 5.737,0.928c1.856,0.619 3.515,1.491 4.977,2.616l0,-20.079l13.33,-0l0,65.889Zm-13.245,-17.801l-0,-12.402c-0,-1.069 -0.254,-2.025 -0.763,-2.868c-0.508,-0.844 -1.158,-1.575 -1.949,-2.194c-0.791,-0.619 -1.68,-1.097 -2.669,-1.434c-0.989,-0.337 -1.963,-0.506 -2.923,-0.506c-3.559,-0 -6.313,1.251 -8.261,3.754c-1.949,2.503 -2.923,5.723 -2.923,9.66c-0,1.8 0.254,3.473 0.762,5.019c0.509,1.547 1.229,2.883 2.161,4.008c0.932,1.125 2.076,2.024 3.432,2.699c1.356,0.675 2.881,1.013 4.575,1.013c0.847,-0 1.779,-0.141 2.796,-0.422c1.017,-0.281 1.949,-0.703 2.796,-1.266c0.847,-0.562 1.553,-1.265 2.118,-2.109c0.565,-0.843 0.848,-1.828 0.848,-2.952Z" style="fill-rule:nonzero;"/><rect id="path16987" serif:id="path1698" x="330.472" y="478.346" width="29.764" height="94.488" style="fill:#fff;"/><path d="M357.727,536.432c-1.825,0.664 -3.319,0.913 -4.979,0.913c-2.739,0 -4.066,-1.494 -4.066,-4.315l-0,-49.959l-13.03,-0l0,52.117c0,8.464 4.067,14.025 14.108,14.025c3.071,-0 6.474,-0.498 9.295,-1.411l-1.328,-11.37Z" style="fill-rule:nonzero;"/><rect x="167.244" y="478.346" width="79.37" height="94.488" style="fill:#fff;"/><path d="M236.836,483.071l-13.997,-0l0,43.416l-31.211,-43.416l-14.519,-0l-0,66.142l13.91,-0l0,-43.332l31.298,43.332l14.519,-0l0,-66.142Z" style="fill-rule:nonzero;"/><rect id="path16988" serif:id="path1698" x="583.346" y="596.457" width="25.984" height="94.488" style="fill:#fff;"/><path d="M602.131,620.067l-13.145,-0l0,47.256l13.145,-0l0,-47.256Zm0.832,-11.481c0,-4.077 -3.328,-7.405 -7.404,-7.405c-4.16,0 -7.488,3.328 -7.488,7.405c-0,4.16 3.328,7.487 7.488,7.487c4.076,0 7.404,-3.327 7.404,-7.487Z" style="fill-rule:nonzero;"/><rect id="path16989" serif:id="path1698" x="543.189" y="596.457" width="40.157" height="94.488" style="fill:#fff;"/><path d="M577.183,619.001c-6.812,-0.748 -11.548,1.496 -14.705,5.982l0,-4.902l-13.209,0l-0,47.189l13.209,-0l0,-24.924c0,-7.809 5.816,-11.215 12.795,-10.634l1.91,0.166l0,-12.877Z" style="fill-rule:nonzero;"/><rect x="486.024" y="596.457" width="57.165" height="94.488" style="fill:#fff;"/><path d="M540.912,601.181l-43.417,0l0,66.142l13.653,-0l-0,-27.474l26.796,-0l-0,-12.466l-26.881,0l-0,-13.228l29.849,0l-0,-12.974Z" style="fill-rule:nonzero;"/><rect id="path169810" serif:id="path1698" x="434.764" y="596.457" width="33.543" height="94.488" style="fill:#fff;"/><rect x="439.488" y="634.252" width="18.898" height="9.449" style="fill-rule:nonzero;"/><rect id="path169811" serif:id="path1698" x="306.496" y="596.457" width="54.331" height="94.488" style="fill:#fff;"/><path d="M343.785,644.25c0,7.22 -4.002,12.164 -10.045,12.164c-6.121,0 -10.124,-5.022 -10.124,-12.164c0,-7.298 4.003,-13.263 10.124,-13.263c5.964,0 10.045,5.965 10.045,13.263Zm12.321,0c0,-13.498 -7.848,-24.171 -22.366,-24.171c-14.597,-0 -22.523,10.516 -22.523,24.171c-0,13.263 8.868,23.073 22.523,23.073c13.655,-0 22.366,-9.888 22.366,-23.073Z" style="fill-rule:nonzero;"/><rect id="path169812" serif:id="path1698" x="360.827" y="596.457" width="56.22" height="94.488" style="fill:#fff;"/><path d="M409.71,634.954c-0,-9.26 -5.923,-16.352 -17.269,-16.352c-3.754,0 -8.259,1.669 -11.096,4.338l0,-3.003l-13.264,0l-0,47.386l13.264,-0l0,-28.949c0,-5.756 4.172,-7.758 8.343,-7.758c4.338,-0 6.757,2.169 6.757,7.091l0,29.616l13.265,-0l-0,-32.369Z" style="fill-rule:nonzero;"/><rect x="218.622" y="596.457" width="87.874" height="94.488" style="fill:#fff;"/><path d="M296.726,601.181l-13.997,0l-20.257,27.559l-20.257,-27.559l-13.823,0l-0,66.142l13.736,-0l0,-42.738l20.344,26.711l20.257,-26.711l-0.087,42.738l14.084,-0l0,-66.142Z" style="fill-rule:nonzero;"/><rect id="path169813" serif:id="path1698" x="535.866" y="702.756" width="56.693" height="94.488" style="fill:#fff;"/><path d="M573.617,750.034c-0,6.959 -3.977,12.841 -10.937,12.841c-3.812,0 -8.12,-2.651 -8.12,-6.876l-0,-12.178c-0,-4.391 4.971,-6.628 8.368,-6.628c6.712,0 10.689,6.462 10.689,12.841Zm13.34,0c-0,-12.924 -8.037,-25.019 -21.792,-25.019c-4.142,0 -7.954,1.491 -10.522,3.811l-0,-2.485l-13.092,-0l0,62.631l13.092,-0l-0,-17.646c2.817,2.236 6.628,3.479 10.44,3.479c14.003,0 21.874,-11.764 21.874,-24.771Z" style="fill-rule:nonzero;"/><rect id="path169814" serif:id="path1698" x="402.638" y="702.756" width="33.543" height="94.488" style="fill:#fff;"/><rect x="407.362" y="740.551" width="18.898" height="9.449" style="fill-rule:nonzero;"/><rect id="path169815" serif:id="path1698" x="250.748" y="702.756" width="52.441" height="94.488" style="fill:#fff;"/><path d="M298.45,764.438l-5.215,9.184c-1.816,-0.104 -3.463,-0.558 -4.942,-1.362c-1.479,-0.804 -2.685,-1.855 -3.619,-3.152c-1.453,1.349 -3.152,2.361 -5.098,3.035c-1.946,0.675 -4.32,1.012 -7.122,1.012c-2.231,0 -4.371,-0.285 -6.421,-0.856c-2.049,-0.571 -3.853,-1.44 -5.409,-2.607c-1.557,-1.168 -2.802,-2.608 -3.736,-4.32c-0.934,-1.712 -1.401,-3.736 -1.401,-6.071c-0,-2.283 0.337,-4.229 1.012,-5.837c0.674,-1.609 1.53,-2.971 2.568,-4.087c1.038,-1.115 2.218,-2.01 3.541,-2.685c1.324,-0.674 2.634,-1.193 3.931,-1.557c1.297,-0.363 2.517,-0.622 3.658,-0.778c1.142,-0.155 2.05,-0.259 2.724,-0.311c1.09,-0.104 2.478,-0.221 4.164,-0.35c1.687,-0.13 3.23,-0.247 4.631,-0.351l0,-0.622c0,-1.92 -0.441,-3.308 -1.323,-4.164c-0.882,-0.856 -2.413,-1.285 -4.592,-1.285c-2.283,0 -4.462,0.273 -6.538,0.818c-2.075,0.545 -4.358,1.543 -6.849,2.996l-4.592,-9.729c3.165,-1.764 6.265,-3.035 9.301,-3.814c3.035,-0.778 6.187,-1.167 9.456,-1.167c5.656,-0 9.963,1.401 12.92,4.203c2.958,2.802 4.437,7.005 4.437,12.609l-0,14.554c-0,1.972 0.337,3.464 1.012,4.476c0.674,1.011 1.842,1.751 3.502,2.218Zm-16.812,-5.838l0,-5.526c-0.934,0.052 -1.919,0.104 -2.957,0.156c-1.038,0.052 -1.92,0.13 -2.646,0.234c-0.883,0.103 -1.804,0.207 -2.764,0.311c-0.959,0.104 -1.829,0.324 -2.607,0.661c-0.778,0.338 -1.427,0.818 -1.946,1.44c-0.519,0.623 -0.778,1.505 -0.778,2.647c-0,1.504 0.649,2.646 1.946,3.424c1.297,0.779 2.776,1.168 4.436,1.168c2.647,-0 4.527,-0.441 5.643,-1.323c1.116,-0.883 1.673,-1.946 1.673,-3.192Z" style="fill-rule:nonzero;"/><rect id="path169816" serif:id="path1698" x="303.189" y="702.756" width="81.732" height="94.488" style="fill:#fff;"/><path d="M377.384,742.421c-0,-11.096 -6.341,-17.519 -17.103,-17.519c-6.34,-0 -10.845,2.085 -13.932,6.256c-2.586,-4.087 -7.258,-6.173 -12.347,-6.173c-3.504,0 -7.341,1.502 -10.094,4.171l-0,-2.92l-13.181,0l-0,47.386l13.181,0l-0,-28.031c-0,-6.173 3.837,-8.676 8.009,-8.676c3.253,-0 5.506,2.169 5.506,6.924l0.083,29.783l13.181,0l0,-28.114c0,-5.673 4.172,-8.51 7.592,-8.51c3.504,0 5.923,2.253 5.923,6.925l0,29.699l13.182,0l-0,-31.201Z" style="fill-rule:nonzero;"/><rect id="path169817" serif:id="path1698" x="592.559" y="702.756" width="81.732" height="94.488" style="fill:#fff;"/><path d="M666.754,742.421c-0,-11.096 -6.341,-17.519 -17.103,-17.519c-6.34,-0 -10.845,2.085 -13.932,6.256c-2.586,-4.087 -7.258,-6.173 -12.347,-6.173c-3.503,0 -7.341,1.502 -10.094,4.171l-0,-2.92l-13.181,0l-0,47.386l13.181,0l-0,-28.031c-0,-6.173 3.838,-8.676 8.009,-8.676c3.253,-0 5.506,2.169 5.506,6.924l0.083,29.783l13.182,0l-0,-28.114c-0,-5.673 4.171,-8.51 7.591,-8.51c3.504,0 5.923,2.253 5.923,6.925l0,29.699l13.182,0l-0,-31.201Z" style="fill-rule:nonzero;"/><rect x="453.898" y="702.756" width="64.252" height="94.488" style="fill:#fff;"/><path d="M507.156,753.837c-0,-6.05 -2.515,-11.773 -7.209,-14.635c4.191,-2.534 6.622,-7.276 6.622,-12.672c-0,-11.528 -8.55,-19.05 -22.213,-19.05c-13.16,0 -21.543,5.805 -24.98,18.314l12.993,2.943c1.509,-5.723 4.778,-8.748 10.981,-8.748c6.622,0 9.388,2.943 9.388,7.195c0,5.232 -5.197,7.031 -10.897,7.113l-3.101,-0l-0,11.528c8.047,-0.9 14.585,0.49 14.585,7.685c-0,5.477 -3.605,8.012 -9.891,8.012c-6.119,-0 -10.394,-3.843 -11.4,-10.792l-13.412,2.861c2.515,12.673 11.4,20.031 25.818,20.031c14.166,0 22.716,-7.767 22.716,-19.785Z" style="fill-rule:nonzero;"/><rect x="153.661" y="702.756" width="39.685" height="94.488" style="fill:#fff;"/><path d="M182.939,707.48l-12.519,0c-0.435,4.24 -1.218,6.275 -3.13,7.717c-2.087,1.441 -5.564,1.95 -10.085,2.12l-0,10.939l11.302,-0l-0,45.366l14.432,0l-0,-66.142Z" style="fill-rule:nonzero;"/><rect x="193.346" y="702.756" width="39.685" height="94.488" style="fill:#fff;"/><path d="M222.624,707.48l-12.519,0c-0.435,4.24 -1.218,6.275 -3.13,7.717c-2.087,1.441 -5.564,1.95 -10.085,2.12l-0,10.939l11.302,-0l-0,45.366l14.432,0l-0,-66.142Z" style="fill-rule:nonzero;"/><rect id="path169818" serif:id="path1698" x="495.197" y="188.976" width="39.685" height="94.488" style="fill:#ffd200;"/><path d="M529.6,246.802c-2.056,0.822 -4.442,1.316 -6.334,1.316c-3.126,-0 -4.442,-1.152 -4.442,-5.594l-0,-20.238l11.928,0.083l0,-10.942l-11.928,0l-0,-17.934l-12.916,5.841l-0,12.093l-7.486,0l-0,10.942l7.486,-0.083l-0,24.269c-0,9.214 5.429,13.08 14.15,13.08c4.771,0 8.884,-0.905 11.599,-2.139l-2.057,-10.694Z" style="fill-rule:nonzero;"/><rect x="428.11" y="188.976" width="67.087" height="94.488" style="fill:#ffd200;"/><path d="M453.047,236.439l8.649,-28.662l8.649,28.662l-17.298,-0Zm17.383,-42.738l-17.723,-0l-21.708,66.142l14.84,-0l3.561,-11.702l24.507,-0l3.476,11.702l14.925,-0l-21.878,-66.142Z" style="fill-rule:nonzero;"/><rect id="path169819" serif:id="path1698" x="673.071" y="188.976" width="50.079" height="94.488" style="fill:#ffd200;"/><path d="M706.838,212.561l-9.429,28.364l-9.428,-28.364l-13.729,0l16.127,46.721c0.083,0.497 0.331,0.993 0.414,1.406c0.165,0.496 0.165,0.827 0.165,1.075c0,1.571 -1.323,2.646 -4.383,2.646c-1.902,0 -4.383,-0.413 -6.865,-1.323l-2.15,10.502c2.895,0.91 6.617,1.571 9.594,1.571c2.812,0 6.203,-0.496 8.353,-1.488c2.895,-1.323 5.376,-3.887 7.03,-8.683l17.947,-52.427l-13.646,0Z" style="fill-rule:nonzero;"/><rect id="path169820" serif:id="path1698" x="564.409" y="188.976" width="52.441" height="94.488" style="fill:#ffd200;"/><path d="M612.112,250.658l-5.215,9.185c-1.816,-0.104 -3.464,-0.558 -4.943,-1.363c-1.478,-0.804 -2.685,-1.855 -3.619,-3.152c-1.453,1.349 -3.152,2.361 -5.098,3.036c-1.946,0.674 -4.319,1.012 -7.121,1.012c-2.232,-0 -4.372,-0.286 -6.421,-0.857c-2.05,-0.57 -3.853,-1.44 -5.41,-2.607c-1.556,-1.167 -2.802,-2.607 -3.736,-4.32c-0.934,-1.712 -1.401,-3.736 -1.401,-6.071c0,-2.283 0.338,-4.228 1.012,-5.837c0.675,-1.609 1.531,-2.971 2.569,-4.086c1.037,-1.116 2.218,-2.011 3.541,-2.685c1.323,-0.675 2.633,-1.194 3.93,-1.557c1.298,-0.363 2.517,-0.623 3.659,-0.778c1.141,-0.156 2.049,-0.26 2.724,-0.312c1.089,-0.103 2.477,-0.22 4.164,-0.35c1.686,-0.13 3.23,-0.246 4.631,-0.35l-0,-0.623c-0,-1.92 -0.441,-3.308 -1.323,-4.164c-0.883,-0.856 -2.413,-1.284 -4.593,-1.284c-2.283,-0 -4.462,0.272 -6.537,0.817c-2.076,0.545 -4.359,1.544 -6.85,2.997l-4.592,-9.729c3.165,-1.765 6.266,-3.036 9.301,-3.814c3.036,-0.778 6.188,-1.168 9.457,-1.168c5.656,0 9.962,1.401 12.92,4.203c2.958,2.802 4.436,7.005 4.436,12.609l0,14.555c0,1.972 0.338,3.463 1.012,4.475c0.675,1.012 1.842,1.751 3.503,2.218Zm-16.812,-5.837l-0,-5.526c-0.934,0.052 -1.92,0.104 -2.958,0.156c-1.038,0.051 -1.92,0.129 -2.646,0.233c-0.882,0.104 -1.803,0.208 -2.763,0.311c-0.96,0.104 -1.829,0.325 -2.607,0.662c-0.779,0.337 -1.427,0.817 -1.946,1.44c-0.519,0.622 -0.779,1.505 -0.779,2.646c0,1.505 0.649,2.646 1.946,3.425c1.297,0.778 2.776,1.167 4.437,1.167c2.646,0 4.527,-0.441 5.642,-1.323c1.116,-0.882 1.674,-1.946 1.674,-3.191Z" style="fill-rule:nonzero;"/><rect id="path169821" serif:id="path1698" x="616.85" y="188.976" width="56.22" height="94.488" style="fill:#ffd200;"/><path d="M665.734,227.473c-0,-9.26 -5.924,-16.351 -17.27,-16.351c-3.754,0 -8.259,1.669 -11.095,4.338l-0,-3.003l-13.265,-0l0,47.386l13.265,-0l-0,-28.949c-0,-5.756 4.171,-7.759 8.342,-7.759c4.339,0 6.758,2.169 6.758,7.091l-0,29.617l13.265,-0l-0,-32.37Z" style="fill-rule:nonzero;"/><rect id="path169822" serif:id="path1698" x="475.945" y="283.465" width="39.685" height="94.488" style="fill:#ffd200;"/><path d="M510.348,341.29c-2.056,0.822 -4.442,1.316 -6.334,1.316c-3.126,0 -4.442,-1.152 -4.442,-5.594l-0,-20.237l11.928,0.082l0,-10.942l-11.928,0l-0,-17.933l-12.916,5.84l-0,12.093l-7.486,0l-0,10.942l7.486,-0.082l-0,24.268c-0,9.214 5.429,13.08 14.15,13.08c4.771,0 8.884,-0.905 11.599,-2.139l-2.057,-10.694Z" style="fill-rule:nonzero;"/><rect id="path169823" serif:id="path1698" x="515.63" y="283.465" width="25.984" height="94.488" style="fill:#ffd200;"/><path d="M534.415,307.075l-13.146,-0l0,47.256l13.146,-0l-0,-47.256Zm0.832,-11.481c-0,-4.077 -3.328,-7.405 -7.405,-7.405c-4.16,-0 -7.488,3.328 -7.488,7.405c0,4.159 3.328,7.487 7.488,7.487c4.077,0 7.405,-3.328 7.405,-7.487Z" style="fill-rule:nonzero;"/><rect id="path169824" serif:id="path1698" x="541.614" y="283.465" width="81.732" height="94.488" style="fill:#ffd200;"/><path d="M615.809,323.13c-0,-11.096 -6.341,-17.52 -17.102,-17.52c-6.341,0 -10.846,2.086 -13.932,6.257c-2.587,-4.088 -7.259,-6.173 -12.347,-6.173c-3.504,-0 -7.342,1.501 -10.095,4.171l0,-2.92l-13.181,0l-0,47.386l13.181,-0l0,-28.031c0,-6.174 3.838,-8.676 8.009,-8.676c3.254,-0 5.506,2.169 5.506,6.924l0.083,29.783l13.182,-0l-0,-28.115c-0,-5.673 4.171,-8.509 7.591,-8.509c3.504,-0 5.924,2.252 5.924,6.924l-0,29.7l13.181,-0l-0,-31.201Z" style="fill-rule:nonzero;"/><rect id="path169825" serif:id="path1698" x="623.346" y="283.465" width="51.969" height="94.488" style="fill:#ffd200;"/><path d="M670.99,332.677l-0.158,1.969l-30.472,-0c0.052,1.26 0.367,2.427 0.945,3.504c0.577,1.076 1.338,2.021 2.283,2.834c0.945,0.814 2.034,1.444 3.268,1.89c1.233,0.446 2.533,0.669 3.897,0.669c3.937,0 7.323,-1.312 10.158,-3.937l6.614,8.111c-2.257,2.152 -4.738,3.792 -7.441,4.921c-2.703,1.128 -5.787,1.693 -9.252,1.693c-3.727,-0 -7.034,-0.617 -9.921,-1.851c-2.887,-1.233 -5.315,-2.939 -7.284,-5.118c-1.968,-2.178 -3.464,-4.711 -4.488,-7.598c-1.023,-2.887 -1.535,-5.984 -1.535,-9.292c-0,-3.202 0.485,-6.233 1.456,-9.094c0.972,-2.861 2.376,-5.341 4.213,-7.441c1.837,-2.1 4.121,-3.766 6.85,-5c2.73,-1.234 5.827,-1.85 9.292,-1.85c3.832,-0 7.165,0.682 10,2.047c2.834,1.365 5.144,3.202 6.929,5.512c1.785,2.309 3.058,5.026 3.819,8.149c0.761,3.124 1.037,6.418 0.827,9.882Zm-12.363,-6.85c0,-2.415 -0.879,-4.397 -2.637,-5.945c-1.759,-1.549 -3.924,-2.323 -6.496,-2.323c-2.468,0 -4.515,0.827 -6.142,2.48c-1.628,1.654 -2.572,3.583 -2.835,5.788l18.11,-0Z" style="fill-rule:nonzero;"/><rect x="561.969" y="47.244" width="56.22" height="94.488" style="fill:#ffd200;"/><path d="M583.254,105.051l29.994,-39.939l0,-13.143l-46.426,-0l0,13.143l29.038,0l-30.081,39.855l0,13.143l48.512,0l0.087,-13.059l-31.124,0Z" style="fill-rule:nonzero;"/><rect id="path169826" serif:id="path1698" x="618.189" y="47.244" width="54.331" height="94.488" style="fill:#ffd200;"/><path d="M655.478,95.038c0,7.22 -4.002,12.164 -10.045,12.164c-6.122,-0 -10.124,-5.023 -10.124,-12.164c0,-7.299 4.002,-13.263 10.124,-13.263c5.964,-0 10.045,5.964 10.045,13.263Zm12.321,-0c0,-13.499 -7.848,-24.172 -22.366,-24.172c-14.597,0 -22.524,10.516 -22.524,24.172c0,13.262 8.869,23.072 22.524,23.072c13.655,0 22.366,-9.888 22.366,-23.072Z" style="fill-rule:nonzero;"/><rect id="path169827" serif:id="path1698" x="672.52" y="47.244" width="56.22" height="94.488" style="fill:#ffd200;"/><path d="M721.403,85.741c-0,-9.26 -5.923,-16.351 -17.269,-16.351c-3.754,-0 -8.259,1.668 -11.096,4.338l0,-3.003l-13.264,-0l-0,47.385l13.264,0l0,-28.948c0,-5.757 4.171,-7.759 8.343,-7.759c4.338,0 6.757,2.169 6.757,7.091l0,29.616l13.265,0l-0,-32.369Z" style="fill-rule:nonzero;"/><rect id="path169828" serif:id="path1698" x="728.74" y="47.244" width="51.969" height="94.488" style="fill:#ffd200;"/><path d="M776.383,96.457l-0.157,1.968l-30.473,0c0.053,1.26 0.368,2.428 0.945,3.504c0.578,1.076 1.339,2.021 2.284,2.835c0.945,0.813 2.034,1.443 3.267,1.89c1.234,0.446 2.533,0.669 3.898,0.669c3.937,-0 7.323,-1.313 10.158,-3.937l6.614,8.11c-2.258,2.152 -4.738,3.793 -7.441,4.921c-2.704,1.129 -5.788,1.693 -9.252,1.693c-3.727,0 -7.034,-0.617 -9.921,-1.85c-2.888,-1.234 -5.315,-2.94 -7.284,-5.118c-1.968,-2.179 -3.464,-4.712 -4.488,-7.599c-1.024,-2.887 -1.536,-5.984 -1.536,-9.291c0,-3.202 0.486,-6.234 1.457,-9.095c0.971,-2.86 2.375,-5.341 4.213,-7.44c1.837,-2.1 4.12,-3.767 6.85,-5c2.73,-1.234 5.827,-1.851 9.291,-1.851c3.832,0 7.166,0.683 10,2.047c2.835,1.365 5.145,3.202 6.93,5.512c1.784,2.31 3.057,5.026 3.819,8.15c0.761,3.123 1.036,6.417 0.826,9.882Zm-12.362,-6.851c0,-2.414 -0.879,-4.396 -2.638,-5.945c-1.758,-1.548 -3.924,-2.322 -6.496,-2.322c-2.467,-0 -4.514,0.826 -6.142,2.48c-1.627,1.653 -2.572,3.583 -2.834,5.787l18.11,0Z" style="fill-rule:nonzero;"/><rect id="path169829" serif:id="path1698" x="317.953" y="47.244" width="39.685" height="94.488" style="fill:#ffd200;"/><path d="M352.356,105.069c-2.056,0.823 -4.442,1.317 -6.334,1.317c-3.126,-0 -4.442,-1.152 -4.442,-5.595l-0,-20.237l11.928,0.082l0,-10.941l-11.928,-0l-0,-17.934l-12.916,5.841l-0,12.093l-7.486,-0l-0,10.941l7.486,-0.082l-0,24.268c-0,9.214 5.429,13.081 14.149,13.081c4.772,-0 8.885,-0.905 11.6,-2.139l-2.057,-10.695Z" style="fill-rule:nonzero;"/><rect id="path169830" serif:id="path1698" x="397.795" y="47.244" width="25.984" height="94.488" style="fill:#ffd200;"/><path d="M416.58,70.854l-13.145,0l-0,47.256l13.145,0l0,-47.256Zm0.832,-11.481c-0,-4.077 -3.328,-7.404 -7.405,-7.404c-4.159,-0 -7.487,3.327 -7.487,7.404c-0,4.16 3.328,7.488 7.487,7.488c4.077,-0 7.405,-3.328 7.405,-7.488Z" style="fill-rule:nonzero;"/><rect id="path169831" serif:id="path1698" x="423.78" y="47.244" width="52.441" height="94.488" style="fill:#ffd200;"/><path d="M471.482,108.926l-5.215,9.184c-1.816,-0.104 -3.464,-0.558 -4.942,-1.362c-1.479,-0.804 -2.686,-1.855 -3.62,-3.152c-1.452,1.349 -3.152,2.361 -5.098,3.035c-1.945,0.675 -4.319,1.012 -7.121,1.012c-2.231,0 -4.372,-0.285 -6.421,-0.856c-2.05,-0.571 -3.853,-1.44 -5.41,-2.607c-1.556,-1.168 -2.802,-2.608 -3.736,-4.32c-0.934,-1.712 -1.401,-3.736 -1.401,-6.071c0,-2.283 0.338,-4.229 1.012,-5.837c0.675,-1.609 1.531,-2.971 2.569,-4.086c1.037,-1.116 2.218,-2.011 3.541,-2.686c1.323,-0.674 2.633,-1.193 3.93,-1.556c1.298,-0.364 2.517,-0.623 3.659,-0.779c1.141,-0.155 2.049,-0.259 2.724,-0.311c1.089,-0.104 2.477,-0.22 4.164,-0.35c1.686,-0.13 3.23,-0.247 4.631,-0.35l-0,-0.623c-0,-1.92 -0.441,-3.308 -1.323,-4.164c-0.882,-0.856 -2.413,-1.284 -4.592,-1.284c-2.284,-0 -4.463,0.272 -6.538,0.817c-2.076,0.545 -4.359,1.544 -6.85,2.996l-4.592,-9.729c3.165,-1.764 6.266,-3.035 9.301,-3.813c3.036,-0.779 6.188,-1.168 9.457,-1.168c5.656,0 9.962,1.401 12.92,4.203c2.958,2.802 4.436,7.005 4.436,12.609l0,14.554c0,1.972 0.338,3.464 1.012,4.476c0.675,1.012 1.842,1.751 3.503,2.218Zm-16.812,-5.837l-0,-5.526c-0.934,0.051 -1.92,0.103 -2.958,0.155c-1.037,0.052 -1.92,0.13 -2.646,0.234c-0.882,0.103 -1.803,0.207 -2.763,0.311c-0.96,0.104 -1.829,0.324 -2.607,0.662c-0.779,0.337 -1.427,0.817 -1.946,1.44c-0.519,0.622 -0.779,1.504 -0.779,2.646c0,1.505 0.649,2.646 1.946,3.424c1.297,0.779 2.776,1.168 4.437,1.168c2.646,-0 4.527,-0.441 5.643,-1.323c1.115,-0.882 1.673,-1.946 1.673,-3.191Z" style="fill-rule:nonzero;"/><rect id="path169832" serif:id="path1698" x="270.709" y="47.244" width="47.244" height="94.488" style="fill:#ffd200;"/><path d="M313.833,103.806c-0,-8.711 -6.593,-11.928 -13.028,-13.498l-8.162,-1.962c-3.767,-0.942 -4.002,-2.354 -4.002,-3.06c0,-1.884 2.04,-3.846 6.435,-3.846c4.081,0 7.456,1.256 10.83,3.846l7.063,-8.162c-4.473,-3.846 -10.359,-6.2 -18.521,-6.2c-10.987,-0 -18.756,6.278 -18.756,14.832c0,7.77 6.278,11.615 12.086,12.949l7.769,1.884c3.767,0.863 5.258,2.354 5.258,3.453c0,1.962 -1.569,3.531 -6.2,3.531c-3.374,0 -8.318,-0.863 -12.713,-4.551l-7.063,8.161c5.493,4.552 11.929,6.985 19.855,6.985c12.556,0 19.149,-6.043 19.149,-14.362Z" style="fill-rule:nonzero;"/><rect id="path169833" serif:id="path1698" x="357.638" y="47.244" width="40.157" height="94.488" style="fill:#ffd200;"/><path d="M391.632,69.789c-6.812,-0.748 -11.548,1.495 -14.705,5.981l0,-4.901l-13.209,-0l-0,47.188l13.209,0l0,-24.923c0,-7.81 5.816,-11.216 12.794,-10.634l1.911,0.166l0,-12.877Z" style="fill-rule:nonzero;"/><rect id="path169834" serif:id="path1698" x="476.22" y="47.244" width="56.22" height="94.488" style="fill:#ffd200;"/><path d="M525.104,85.741c-0,-9.26 -5.924,-16.351 -17.269,-16.351c-3.755,-0 -8.26,1.668 -11.096,4.338l-0,-3.003l-13.265,-0l0,47.385l13.265,0l-0,-28.948c-0,-5.757 4.171,-7.759 8.343,-7.759c4.338,0 6.757,2.169 6.757,7.091l0,29.616l13.265,0l-0,-32.369Z" style="fill-rule:nonzero;"/><rect id="path169835" serif:id="path1698" x="110.551" y="47.244" width="51.969" height="94.488" style="fill:#ffd200;"/><path d="M158.194,96.457l-0.157,1.968l-30.473,0c0.053,1.26 0.368,2.428 0.945,3.504c0.578,1.076 1.339,2.021 2.284,2.835c0.945,0.813 2.034,1.443 3.267,1.89c1.234,0.446 2.533,0.669 3.898,0.669c3.937,-0 7.323,-1.313 10.158,-3.937l6.614,8.11c-2.257,2.152 -4.738,3.793 -7.441,4.921c-2.704,1.129 -5.788,1.693 -9.252,1.693c-3.727,0 -7.034,-0.617 -9.921,-1.85c-2.888,-1.234 -5.315,-2.94 -7.284,-5.118c-1.968,-2.179 -3.464,-4.712 -4.488,-7.599c-1.024,-2.887 -1.536,-5.984 -1.536,-9.291c0,-3.202 0.486,-6.234 1.457,-9.095c0.971,-2.86 2.375,-5.341 4.213,-7.44c1.837,-2.1 4.12,-3.767 6.85,-5c2.73,-1.234 5.827,-1.851 9.291,-1.851c3.833,0 7.166,0.683 10,2.047c2.835,1.365 5.145,3.202 6.93,5.512c1.784,2.31 3.057,5.026 3.819,8.15c0.761,3.123 1.036,6.417 0.826,9.882Zm-12.362,-6.851c0,-2.414 -0.879,-4.396 -2.638,-5.945c-1.758,-1.548 -3.924,-2.322 -6.496,-2.322c-2.467,-0 -4.514,0.826 -6.141,2.48c-1.628,1.653 -2.573,3.583 -2.835,5.787l18.11,0Z" style="fill-rule:nonzero;"/><rect id="path169836" serif:id="path1698" x="218.74" y="47.244" width="51.969" height="94.488" style="fill:#ffd200;"/><path d="M266.383,96.457l-0.157,1.968l-30.473,0c0.053,1.26 0.368,2.428 0.945,3.504c0.578,1.076 1.339,2.021 2.284,2.835c0.945,0.813 2.034,1.443 3.267,1.89c1.234,0.446 2.533,0.669 3.898,0.669c3.937,-0 7.323,-1.313 10.158,-3.937l6.614,8.11c-2.258,2.152 -4.738,3.793 -7.441,4.921c-2.704,1.129 -5.788,1.693 -9.252,1.693c-3.727,0 -7.034,-0.617 -9.921,-1.85c-2.888,-1.234 -5.315,-2.94 -7.284,-5.118c-1.968,-2.179 -3.464,-4.712 -4.488,-7.599c-1.024,-2.887 -1.536,-5.984 -1.536,-9.291c0,-3.202 0.486,-6.234 1.457,-9.095c0.971,-2.86 2.375,-5.341 4.213,-7.44c1.837,-2.1 4.12,-3.767 6.85,-5c2.73,-1.234 5.827,-1.851 9.291,-1.851c3.832,0 7.166,0.683 10,2.047c2.835,1.365 5.145,3.202 6.93,5.512c1.784,2.31 3.057,5.026 3.819,8.15c0.761,3.123 1.036,6.417 0.826,9.882Zm-12.362,-6.851c0,-2.414 -0.879,-4.396 -2.638,-5.945c-1.758,-1.548 -3.924,-2.322 -6.496,-2.322c-2.467,-0 -4.514,0.826 -6.142,2.48c-1.627,1.653 -2.572,3.583 -2.834,5.787l18.11,0Z" style="fill-rule:nonzero;"/><rect id="path169837" serif:id="path1698" x="162.52" y="47.244" width="56.22" height="94.488" style="fill:#ffd200;"/><path d="M213.476,117.857l-13.33,0l0,-2.531c-1.293,1.181 -2.854,2.137 -4.682,2.869c-1.828,0.731 -3.67,1.096 -5.526,1.096c-3.656,0 -6.89,-0.689 -9.702,-2.067c-2.812,-1.378 -5.174,-3.22 -7.086,-5.525c-1.913,-2.306 -3.375,-4.964 -4.387,-7.973c-1.013,-3.009 -1.519,-6.173 -1.519,-9.491c0,-3.374 0.478,-6.608 1.434,-9.702c0.956,-3.093 2.377,-5.821 4.261,-8.183c1.884,-2.362 4.204,-4.261 6.96,-5.695c2.756,-1.434 5.933,-2.151 9.533,-2.151c1.968,-0 3.881,0.309 5.737,0.928c1.856,0.619 3.515,1.49 4.977,2.615l0,-20.078l13.33,-0l-0,65.888Zm-13.245,-17.801l-0,-12.401c-0,-1.069 -0.255,-2.025 -0.763,-2.869c-0.508,-0.843 -1.158,-1.575 -1.949,-2.193c-0.791,-0.619 -1.681,-1.097 -2.669,-1.434c-0.989,-0.338 -1.963,-0.507 -2.923,-0.507c-3.559,0 -6.313,1.252 -8.261,3.755c-1.949,2.502 -2.924,5.722 -2.924,9.659c0,1.8 0.255,3.473 0.763,5.02c0.508,1.547 1.229,2.883 2.161,4.007c0.931,1.125 2.075,2.025 3.431,2.7c1.356,0.675 2.882,1.012 4.576,1.012c0.847,0 1.779,-0.14 2.796,-0.421c1.017,-0.282 1.948,-0.703 2.796,-1.266c0.847,-0.562 1.553,-1.265 2.118,-2.109c0.565,-0.844 0.848,-1.828 0.848,-2.953Z" style="fill-rule:nonzero;"/><rect x="47.244" y="47.244" width="63.307" height="94.488" style="fill:#ffd200;"/><path d="M93.322,73.677c0,5.511 -3.477,8.649 -9.041,8.649l-11.998,-0l-0,-17.468l11.911,-0c5.564,-0 9.128,3.392 9.128,8.819Zm14.867,-0c-0,-11.957 -7.042,-21.708 -22.43,-21.708l-27.56,-0l-0,66.141l14.084,0l-0,-22.895l13.476,0c15.649,0 22.43,-10.006 22.43,-21.538Z" style="fill-rule:nonzero;"/><circle cx="222.913" cy="283.465" r="118.11" style="fill:#e31837;"/><circle cx="222.913" cy="283.465" r="94.488" style="fill:#0079c1;"/><path d="M156.935,199.113l-18.373,18.373l150.329,150.33l18.374,-18.373l-150.33,-150.33Z" style="fill:#e31837;"/></g></svg>