<?xml version="1.0" encoding="UTF-8" standalone="no"?><!DOCTYPE svg PUBLIC "-//W3C//DTD SVG 1.1//EN" "http://www.w3.org/Graphics/SVG/1.1/DTD/svg11.dtd"><svg width="100%" height="100%" viewBox="0 0 580 750" version="1.1" xmlns="http://www.w3.org/2000/svg" xmlns:xlink="http://www.w3.org/1999/xlink" xml:space="preserve" xmlns:serif="http://www.serif.com/" style="fill-rule:evenodd;clip-rule:evenodd;stroke-linejoin:round;stroke-miterlimit:2;"><g transform="matrix(50,0,0,50,383.885,374.39)"></g><text x="196.263px" y="374.39px" style="font-family:'ArialMT', 'Arial', sans-serif;font-size:50px;">sw=63.5</text><g><path d="M579.685,35.433c0,-19.556 -15.877,-35.433 -35.433,-35.433l-508.819,0c-19.556,0 -35.433,15.877 -35.433,35.433l0,679.134c0,19.556 15.877,35.433 35.433,35.433l508.819,0c19.556,0 35.433,-15.877 35.433,-35.433l0,-679.134Z"/><path d="M561.969,35.433c-0,-9.778 -7.939,-17.716 -17.717,-17.716l-508.819,-0c-9.778,-0 -17.716,7.938 -17.716,17.716l-0,679.134c-0,9.778 7.938,17.716 17.716,17.716l508.819,0c9.778,0 17.717,-7.938 17.717,-17.716l-0,-679.134Z" style="fill:#ffd200;"/><rect id="path1698" x="209.409" y="525.591" width="39.685" height="94.488" style="fill:#ffd200;"/><path d="M243.813,583.416c-2.057,0.822 -4.442,1.316 -6.334,1.316c-3.127,0 -4.443,-1.152 -4.443,-5.594l0,-20.237l11.929,0.082l-0,-10.942l-11.929,0l0,-17.934l-12.916,5.841l0,12.093l-7.486,0l0,10.942l7.486,-0.082l0,24.268c0,9.214 5.43,13.08 14.15,13.08c4.772,0 8.885,-0.905 11.6,-2.139l-2.057,-10.694Z" style="fill-rule:nonzero;"/><rect x="142.323" y="525.591" width="67.087" height="94.488" style="fill:#ffd200;"/><path d="M167.259,573.053l8.65,-28.662l8.649,28.662l-17.299,-0Zm17.384,-42.738l-17.723,-0l-21.708,66.142l14.839,-0l3.562,-11.702l24.506,-0l3.477,11.702l14.924,-0l-21.877,-66.142Z" style="fill-rule:nonzero;"/><rect id="path16981" serif:id="path1698" x="387.283" y="525.591" width="50.079" height="94.488" style="fill:#ffd200;"/><path d="M421.05,549.175l-9.428,28.364l-9.428,-28.364l-13.729,0l16.127,46.722c0.083,0.496 0.331,0.992 0.414,1.405c0.165,0.497 0.165,0.827 0.165,1.075c-0,1.572 -1.323,2.647 -4.383,2.647c-1.903,-0 -4.384,-0.414 -6.865,-1.324l-2.15,10.502c2.894,0.91 6.616,1.572 9.594,1.572c2.811,-0 6.202,-0.497 8.353,-1.489c2.894,-1.323 5.376,-3.886 7.03,-8.683l17.947,-52.427l-13.647,0Z" style="fill-rule:nonzero;"/><rect id="path16982" serif:id="path1698" x="278.622" y="525.591" width="52.441" height="94.488" style="fill:#ffd200;"/><path d="M326.324,587.273l-5.215,9.184c-1.816,-0.104 -3.463,-0.558 -4.942,-1.362c-1.479,-0.805 -2.685,-1.855 -3.619,-3.153c-1.453,1.35 -3.152,2.361 -5.098,3.036c-1.946,0.674 -4.32,1.012 -7.122,1.012c-2.231,-0 -4.371,-0.286 -6.421,-0.856c-2.049,-0.571 -3.853,-1.44 -5.409,-2.608c-1.557,-1.167 -2.802,-2.607 -3.736,-4.32c-0.934,-1.712 -1.401,-3.735 -1.401,-6.07c-0,-2.283 0.337,-4.229 1.012,-5.838c0.674,-1.608 1.53,-2.97 2.568,-4.086c1.038,-1.116 2.218,-2.011 3.541,-2.685c1.324,-0.675 2.634,-1.194 3.931,-1.557c1.297,-0.363 2.517,-0.623 3.658,-0.778c1.142,-0.156 2.05,-0.26 2.724,-0.312c1.09,-0.103 2.478,-0.22 4.164,-0.35c1.687,-0.129 3.23,-0.246 4.631,-0.35l0,-0.623c0,-1.92 -0.441,-3.308 -1.323,-4.164c-0.882,-0.856 -2.413,-1.284 -4.592,-1.284c-2.283,0 -4.462,0.273 -6.538,0.817c-2.075,0.545 -4.358,1.544 -6.849,2.997l-4.592,-9.729c3.165,-1.764 6.265,-3.036 9.301,-3.814c3.035,-0.778 6.187,-1.167 9.456,-1.167c5.656,-0 9.963,1.401 12.92,4.203c2.958,2.801 4.437,7.004 4.437,12.608l-0,14.555c-0,1.972 0.337,3.463 1.012,4.475c0.674,1.012 1.842,1.752 3.502,2.219Zm-16.812,-5.838l0,-5.526c-0.934,0.052 -1.919,0.104 -2.957,0.156c-1.038,0.052 -1.92,0.129 -2.646,0.233c-0.883,0.104 -1.804,0.208 -2.764,0.312c-0.959,0.103 -1.829,0.324 -2.607,0.661c-0.778,0.337 -1.427,0.817 -1.946,1.44c-0.519,0.623 -0.778,1.505 -0.778,2.646c-0,1.505 0.649,2.647 1.946,3.425c1.297,0.778 2.776,1.167 4.436,1.167c2.647,0 4.527,-0.441 5.643,-1.323c1.116,-0.882 1.673,-1.946 1.673,-3.191Z" style="fill-rule:nonzero;"/><rect id="path16983" serif:id="path1698" x="331.063" y="525.591" width="56.22" height="94.488" style="fill:#ffd200;"/><path d="M379.946,564.088c0,-9.261 -5.923,-16.352 -17.269,-16.352c-3.754,0 -8.259,1.669 -11.095,4.338l-0,-3.003l-13.265,0l-0,47.386l13.265,-0l-0,-28.949c-0,-5.756 4.171,-7.759 8.342,-7.759c4.338,0 6.758,2.17 6.758,7.092l-0,29.616l13.264,-0l0,-32.369Z" style="fill-rule:nonzero;"/><rect id="path16984" serif:id="path1698" x="190.157" y="620.079" width="39.685" height="94.488" style="fill:#ffd200;"/><path d="M224.561,677.904c-2.057,0.823 -4.442,1.316 -6.334,1.316c-3.127,0 -4.443,-1.152 -4.443,-5.594l0,-20.237l11.929,0.082l-0,-10.941l-11.929,-0l0,-17.934l-12.916,5.841l0,12.093l-7.486,-0l0,10.941l7.486,-0.082l0,24.268c0,9.214 5.43,13.08 14.15,13.08c4.772,0 8.885,-0.905 11.6,-2.139l-2.057,-10.694Z" style="fill-rule:nonzero;"/><rect id="path16985" serif:id="path1698" x="229.843" y="620.079" width="25.984" height="94.488" style="fill:#ffd200;"/><path d="M248.627,643.689l-13.145,-0l0,47.256l13.145,-0l0,-47.256Zm0.832,-11.481c0,-4.077 -3.328,-7.405 -7.404,-7.405c-4.16,0 -7.488,3.328 -7.488,7.405c-0,4.16 3.328,7.487 7.488,7.487c4.076,0 7.404,-3.327 7.404,-7.487Z" style="fill-rule:nonzero;"/><rect id="path16986" serif:id="path1698" x="255.827" y="620.079" width="81.732" height="94.488" style="fill:#ffd200;"/><path d="M330.021,659.744c0,-11.096 -6.34,-17.52 -17.102,-17.52c-6.34,0 -10.845,2.086 -13.932,6.257c-2.586,-4.088 -7.258,-6.173 -12.347,-6.173c-3.504,-0 -7.341,1.501 -10.094,4.171l-0,-2.92l-13.182,0l0,47.386l13.182,-0l-0,-28.031c-0,-6.174 3.837,-8.676 8.009,-8.676c3.253,-0 5.506,2.169 5.506,6.924l0.083,29.783l13.181,-0l0,-28.115c0,-5.672 4.172,-8.509 7.592,-8.509c3.504,0 5.923,2.253 5.923,6.924l0,29.7l13.181,-0l0,-31.201Z" style="fill-rule:nonzero;"/><rect id="path16987" serif:id="path1698" x="337.559" y="620.079" width="51.969" height="94.488" style="fill:#ffd200;"/><path d="M385.202,669.291l-0.157,1.969l-30.473,-0c0.053,1.26 0.368,2.428 0.945,3.504c0.578,1.076 1.339,2.021 2.284,2.834c0.944,0.814 2.034,1.444 3.267,1.89c1.234,0.446 2.533,0.669 3.898,0.669c3.937,0 7.323,-1.312 10.157,-3.937l6.615,8.111c-2.258,2.152 -4.738,3.792 -7.441,4.921c-2.704,1.129 -5.788,1.693 -9.252,1.693c-3.727,-0 -7.034,-0.617 -9.922,-1.851c-2.887,-1.233 -5.315,-2.939 -7.283,-5.118c-1.969,-2.178 -3.465,-4.711 -4.488,-7.598c-1.024,-2.887 -1.536,-5.984 -1.536,-9.291c0,-3.202 0.486,-6.234 1.457,-9.095c0.971,-2.861 2.375,-5.341 4.213,-7.441c1.837,-2.1 4.12,-3.766 6.85,-5c2.73,-1.233 5.827,-1.85 9.291,-1.85c3.832,-0 7.166,0.682 10,2.047c2.835,1.365 5.145,3.202 6.93,5.512c1.784,2.31 3.057,5.026 3.818,8.149c0.762,3.124 1.037,6.418 0.827,9.882Zm-12.362,-6.85c-0,-2.415 -0.879,-4.396 -2.638,-5.945c-1.758,-1.548 -3.924,-2.323 -6.496,-2.323c-2.467,0 -4.514,0.827 -6.142,2.481c-1.627,1.653 -2.572,3.582 -2.834,5.787l18.11,-0Z" style="fill-rule:nonzero;"/><circle cx="289.843" cy="377.953" r="118.11" style="fill:#e31837;"/><circle cx="289.843" cy="377.953" r="94.488" style="fill:#0079c1;"/><path d="M223.864,293.601l-18.373,18.374l150.33,150.329l18.373,-18.373l-150.33,-150.33Z" style="fill:#e31837;"/><rect x="180.472" y="141.732" width="56.22" height="94.488" style="fill:#ffd200;"/><path d="M201.758,199.54l29.994,-39.94l0,-13.143l-46.426,-0l0,13.143l29.038,0l-30.081,39.855l0,13.143l48.512,0l0.087,-13.058l-31.124,-0Z" style="fill-rule:nonzero;"/><rect id="path16988" serif:id="path1698" x="236.693" y="141.732" width="54.331" height="94.488" style="fill:#ffd200;"/><path d="M273.982,189.526c0,7.22 -4.002,12.164 -10.045,12.164c-6.122,-0 -10.124,-5.023 -10.124,-12.164c0,-7.299 4.002,-13.263 10.124,-13.263c5.964,-0 10.045,5.964 10.045,13.263Zm12.321,-0c0,-13.499 -7.848,-24.172 -22.366,-24.172c-14.597,0 -22.524,10.516 -22.524,24.172c0,13.263 8.868,23.072 22.524,23.072c13.655,0 22.366,-9.888 22.366,-23.072Z" style="fill-rule:nonzero;"/><rect id="path16989" serif:id="path1698" x="291.024" y="141.732" width="56.22" height="94.488" style="fill:#ffd200;"/><path d="M339.907,180.229c-0,-9.26 -5.923,-16.351 -17.269,-16.351c-3.754,-0 -8.259,1.668 -11.096,4.338l0,-3.003l-13.265,-0l0,47.385l13.265,0l0,-28.948c0,-5.757 4.171,-7.759 8.343,-7.759c4.338,0 6.757,2.169 6.757,7.091l0,29.616l13.265,0l-0,-32.369Z" style="fill-rule:nonzero;"/><rect id="path169810" serif:id="path1698" x="347.244" y="141.732" width="51.969" height="94.488" style="fill:#ffd200;"/><path d="M394.887,190.945l-0.157,1.968l-30.473,0c0.053,1.26 0.368,2.428 0.945,3.504c0.578,1.076 1.339,2.021 2.284,2.835c0.945,0.814 2.034,1.444 3.267,1.89c1.234,0.446 2.533,0.669 3.898,0.669c3.937,0 7.323,-1.312 10.157,-3.937l6.615,8.11c-2.258,2.152 -4.738,3.793 -7.441,4.922c-2.704,1.128 -5.788,1.692 -9.252,1.692c-3.727,0 -7.034,-0.616 -9.922,-1.85c-2.887,-1.234 -5.314,-2.94 -7.283,-5.118c-1.968,-2.179 -3.465,-4.711 -4.488,-7.599c-1.024,-2.887 -1.536,-5.984 -1.536,-9.291c0,-3.202 0.486,-6.233 1.457,-9.094c0.971,-2.861 2.375,-5.342 4.213,-7.441c1.837,-2.1 4.12,-3.767 6.85,-5c2.73,-1.234 5.827,-1.851 9.291,-1.851c3.832,0 7.166,0.683 10,2.048c2.835,1.364 5.145,3.202 6.93,5.511c1.784,2.31 3.057,5.027 3.818,8.15c0.762,3.123 1.037,6.417 0.827,9.882Zm-12.362,-6.851c0,-2.414 -0.879,-4.396 -2.638,-5.944c-1.758,-1.549 -3.924,-2.323 -6.496,-2.323c-2.467,-0 -4.514,0.827 -6.142,2.48c-1.627,1.654 -2.572,3.583 -2.834,5.787l18.11,0Z" style="fill-rule:nonzero;"/><rect id="path169811" serif:id="path1698" x="317.953" y="47.244" width="39.685" height="94.488" style="fill:#ffd200;"/><path d="M352.356,105.069c-2.056,0.823 -4.442,1.317 -6.334,1.317c-3.126,-0 -4.442,-1.152 -4.442,-5.595l-0,-20.237l11.928,0.082l0,-10.941l-11.928,-0l-0,-17.934l-12.916,5.841l-0,12.093l-7.486,-0l-0,10.941l7.486,-0.082l-0,24.268c-0,9.214 5.429,13.081 14.149,13.081c4.772,-0 8.885,-0.905 11.6,-2.139l-2.057,-10.695Z" style="fill-rule:nonzero;"/><rect id="path169812" serif:id="path1698" x="397.795" y="47.244" width="25.984" height="94.488" style="fill:#ffd200;"/><path d="M416.58,70.854l-13.145,0l-0,47.256l13.145,0l0,-47.256Zm0.832,-11.481c-0,-4.077 -3.328,-7.404 -7.405,-7.404c-4.159,-0 -7.487,3.327 -7.487,7.404c-0,4.16 3.328,7.488 7.487,7.488c4.077,-0 7.405,-3.328 7.405,-7.488Z" style="fill-rule:nonzero;"/><rect id="path169813" serif:id="path1698" x="423.78" y="47.244" width="52.441" height="94.488" style="fill:#ffd200;"/><path d="M471.482,108.926l-5.215,9.184c-1.816,-0.104 -3.464,-0.558 -4.942,-1.362c-1.479,-0.804 -2.686,-1.855 -3.62,-3.152c-1.452,1.349 -3.152,2.361 -5.098,3.035c-1.945,0.675 -4.319,1.012 -7.121,1.012c-2.231,0 -4.372,-0.285 -6.421,-0.856c-2.05,-0.571 -3.853,-1.44 -5.41,-2.607c-1.556,-1.168 -2.802,-2.608 -3.736,-4.32c-0.934,-1.712 -1.401,-3.736 -1.401,-6.071c0,-2.283 0.338,-4.229 1.012,-5.837c0.675,-1.609 1.531,-2.971 2.569,-4.086c1.037,-1.116 2.218,-2.011 3.541,-2.686c1.323,-0.674 2.633,-1.193 3.93,-1.556c1.298,-0.364 2.517,-0.623 3.659,-0.779c1.141,-0.155 2.049,-0.259 2.724,-0.311c1.089,-0.104 2.477,-0.22 4.164,-0.35c1.686,-0.13 3.23,-0.247 4.631,-0.35l-0,-0.623c-0,-1.92 -0.441,-3.308 -1.323,-4.164c-0.882,-0.856 -2.413,-1.284 -4.592,-1.284c-2.284,-0 -4.463,0.272 -6.538,0.817c-2.076,0.545 -4.359,1.544 -6.85,2.996l-4.592,-9.729c3.165,-1.764 6.266,-3.035 9.301,-3.813c3.036,-0.779 6.188,-1.168 9.457,-1.168c5.656,0 9.962,1.401 12.92,4.203c2.958,2.802 4.436,7.005 4.436,12.609l0,14.554c0,1.972 0.338,3.464 1.012,4.476c0.675,1.012 1.842,1.751 3.503,2.218Zm-16.812,-5.837l-0,-5.526c-0.934,0.051 -1.92,0.103 -2.958,0.155c-1.037,0.052 -1.92,0.13 -2.646,0.234c-0.882,0.103 -1.803,0.207 -2.763,0.311c-0.96,0.104 -1.829,0.324 -2.607,0.662c-0.779,0.337 -1.427,0.817 -1.946,1.44c-0.519,0.622 -0.779,1.504 -0.779,2.646c0,1.505 0.649,2.646 1.946,3.424c1.297,0.779 2.776,1.168 4.437,1.168c2.646,-0 4.527,-0.441 5.643,-1.323c1.115,-0.882 1.673,-1.946 1.673,-3.191Z" style="fill-rule:nonzero;"/><rect id="path169814" serif:id="path1698" x="270.709" y="47.244" width="47.244" height="94.488" style="fill:#ffd200;"/><path d="M313.833,103.806c-0,-8.711 -6.593,-11.928 -13.028,-13.498l-8.162,-1.962c-3.767,-0.942 -4.002,-2.354 -4.002,-3.06c0,-1.884 2.04,-3.846 6.435,-3.846c4.081,0 7.456,1.256 10.83,3.846l7.063,-8.162c-4.473,-3.846 -10.359,-6.2 -18.521,-6.2c-10.987,-0 -18.756,6.278 -18.756,14.832c0,7.77 6.278,11.615 12.086,12.949l7.769,1.884c3.767,0.863 5.258,2.354 5.258,3.453c0,1.962 -1.569,3.531 -6.2,3.531c-3.374,0 -8.318,-0.863 -12.713,-4.551l-7.063,8.161c5.493,4.552 11.929,6.985 19.855,6.985c12.556,0 19.149,-6.043 19.149,-14.362Z" style="fill-rule:nonzero;"/><rect id="path169815" serif:id="path1698" x="357.638" y="47.244" width="40.157" height="94.488" style="fill:#ffd200;"/><path d="M391.632,69.789c-6.812,-0.748 -11.548,1.495 -14.705,5.981l0,-4.901l-13.209,-0l-0,47.188l13.209,0l0,-24.923c0,-7.81 5.816,-11.216 12.794,-10.634l1.911,0.166l0,-12.877Z" style="fill-rule:nonzero;"/><rect id="path169816" serif:id="path1698" x="476.22" y="47.244" width="56.22" height="94.488" style="fill:#ffd200;"/><path d="M525.104,85.741c-0,-9.26 -5.924,-16.351 -17.269,-16.351c-3.755,-0 -8.26,1.668 -11.096,4.338l-0,-3.003l-13.265,-0l0,47.385l13.265,0l-0,-28.948c-0,-5.757 4.171,-7.759 8.343,-7.759c4.338,0 6.757,2.169 6.757,7.091l0,29.616l13.265,0l-0,-32.369Z" style="fill-rule:nonzero;"/><rect id="path169817" serif:id="path1698" x="110.551" y="47.244" width="51.969" height="94.488" style="fill:#ffd200;"/><path d="M158.194,96.457l-0.157,1.968l-30.473,0c0.053,1.26 0.368,2.428 0.945,3.504c0.578,1.076 1.339,2.021 2.284,2.835c0.945,0.813 2.034,1.443 3.267,1.89c1.234,0.446 2.533,0.669 3.898,0.669c3.937,-0 7.323,-1.313 10.158,-3.937l6.614,8.11c-2.257,2.152 -4.738,3.793 -7.441,4.921c-2.704,1.129 -5.788,1.693 -9.252,1.693c-3.727,0 -7.034,-0.617 -9.921,-1.85c-2.888,-1.234 -5.315,-2.94 -7.284,-5.118c-1.968,-2.179 -3.464,-4.712 -4.488,-7.599c-1.024,-2.887 -1.536,-5.984 -1.536,-9.291c0,-3.202 0.486,-6.234 1.457,-9.095c0.971,-2.86 2.375,-5.341 4.213,-7.44c1.837,-2.1 4.12,-3.767 6.85,-5c2.73,-1.234 5.827,-1.851 9.291,-1.851c3.833,0 7.166,0.683 10,2.047c2.835,1.365 5.145,3.202 6.93,5.512c1.784,2.31 3.057,5.026 3.819,8.15c0.761,3.123 1.036,6.417 0.826,9.882Zm-12.362,-6.851c0,-2.414 -0.879,-4.396 -2.638,-5.945c-1.758,-1.548 -3.924,-2.322 -6.496,-2.322c-2.467,-0 -4.514,0.826 -6.141,2.48c-1.628,1.653 -2.573,3.583 -2.835,5.787l18.11,0Z" style="fill-rule:nonzero;"/><rect id="path169818" serif:id="path1698" x="218.74" y="47.244" width="51.969" height="94.488" style="fill:#ffd200;"/><path d="M266.383,96.457l-0.157,1.968l-30.473,0c0.053,1.26 0.368,2.428 0.945,3.504c0.578,1.076 1.339,2.021 2.284,2.835c0.945,0.813 2.034,1.443 3.267,1.89c1.234,0.446 2.533,0.669 3.898,0.669c3.937,-0 7.323,-1.313 10.158,-3.937l6.614,8.11c-2.258,2.152 -4.738,3.793 -7.441,4.921c-2.704,1.129 -5.788,1.693 -9.252,1.693c-3.727,0 -7.034,-0.617 -9.921,-1.85c-2.888,-1.234 -5.315,-2.94 -7.284,-5.118c-1.968,-2.179 -3.464,-4.712 -4.488,-7.599c-1.024,-2.887 -1.536,-5.984 -1.536,-9.291c0,-3.202 0.486,-6.234 1.457,-9.095c0.971,-2.86 2.375,-5.341 4.213,-7.44c1.837,-2.1 4.12,-3.767 6.85,-5c2.73,-1.234 5.827,-1.851 9.291,-1.851c3.832,0 7.166,0.683 10,2.047c2.835,1.365 5.145,3.202 6.93,5.512c1.784,2.31 3.057,5.026 3.819,8.15c0.761,3.123 1.036,6.417 0.826,9.882Zm-12.362,-6.851c0,-2.414 -0.879,-4.396 -2.638,-5.945c-1.758,-1.548 -3.924,-2.322 -6.496,-2.322c-2.467,-0 -4.514,0.826 -6.142,2.48c-1.627,1.653 -2.572,3.583 -2.834,5.787l18.11,0Z" style="fill-rule:nonzero;"/><rect id="path169819" serif:id="path1698" x="162.52" y="47.244" width="56.22" height="94.488" style="fill:#ffd200;"/><path d="M213.476,117.857l-13.33,0l0,-2.531c-1.293,1.181 -2.854,2.137 -4.682,2.869c-1.828,0.731 -3.67,1.096 -5.526,1.096c-3.656,0 -6.89,-0.689 -9.702,-2.067c-2.812,-1.378 -5.174,-3.22 -7.086,-5.525c-1.913,-2.306 -3.375,-4.964 -4.387,-7.973c-1.013,-3.009 -1.519,-6.173 -1.519,-9.491c0,-3.374 0.478,-6.608 1.434,-9.702c0.956,-3.093 2.377,-5.821 4.261,-8.183c1.884,-2.362 4.204,-4.261 6.96,-5.695c2.756,-1.434 5.933,-2.151 9.533,-2.151c1.968,-0 3.881,0.309 5.737,0.928c1.856,0.619 3.515,1.49 4.977,2.615l0,-20.078l13.33,-0l-0,65.888Zm-13.245,-17.801l-0,-12.401c-0,-1.069 -0.255,-2.025 -0.763,-2.869c-0.508,-0.843 -1.158,-1.575 -1.949,-2.193c-0.791,-0.619 -1.681,-1.097 -2.669,-1.434c-0.989,-0.338 -1.963,-0.507 -2.923,-0.507c-3.559,0 -6.313,1.252 -8.261,3.755c-1.949,2.502 -2.924,5.722 -2.924,9.659c0,1.8 0.255,3.473 0.763,5.02c0.508,1.547 1.229,2.883 2.161,4.007c0.931,1.125 2.075,2.025 3.431,2.7c1.356,0.675 2.882,1.012 4.576,1.012c0.847,0 1.779,-0.14 2.796,-0.421c1.017,-0.282 1.948,-0.703 2.796,-1.266c0.847,-0.562 1.553,-1.265 2.118,-2.109c0.565,-0.844 0.848,-1.828 0.848,-2.953Z" style="fill-rule:nonzero;"/><rect x="47.244" y="47.244" width="63.307" height="94.488" style="fill:#ffd200;"/><path d="M93.322,73.677c0,5.511 -3.477,8.649 -9.041,8.649l-11.998,-0l-0,-17.468l11.911,-0c5.564,-0 9.128,3.392 9.128,8.819Zm14.867,-0c-0,-11.957 -7.042,-21.708 -22.43,-21.708l-27.56,-0l-0,66.141l14.084,0l-0,-22.895l13.476,0c15.649,0 22.43,-10.006 22.43,-21.538Z" style="fill-rule:nonzero;"/></g></svg>