<?xml version="1.0" encoding="UTF-8" standalone="no"?><!DOCTYPE svg PUBLIC "-//W3C//DTD SVG 1.1//EN" "http://www.w3.org/Graphics/SVG/1.1/DTD/svg11.dtd"><svg width="100%" height="100%" viewBox="0 0 473 473" version="1.1" xmlns="http://www.w3.org/2000/svg" xmlns:xlink="http://www.w3.org/1999/xlink" xml:space="preserve" xmlns:serif="http://www.serif.com/" style="fill-rule:evenodd;clip-rule:evenodd;stroke-linejoin:round;stroke-miterlimit:2;"><g transform="matrix(50,0,0,50,309.609,253.884)"></g><text x="163.686px" y="253.884px" style="font-family:'ArialMT', 'Arial', sans-serif;font-size:50px;">sw=40</text><rect x="0" y="0" width="472.441" height="472.441" style="fill:#333;"/><path d="M472.441,-0l-0,472.441l-472.441,-0l-0,-472.441l472.441,-0Zm-2.025,2.025l-468.391,-0l-0,468.391l468.391,0l0,-468.391Z"/><circle cx="236.22" cy="236.22" r="234.196" style="fill:#262626;"/><circle cx="236.22" cy="236.22" r="205.849"/><circle cx="60.6" cy="236.127" r="20.247" style="fill:#1a1a1a;"/><circle cx="121.343" cy="236.127" r="20.247" style="fill:#1a1a1a;"/><circle cx="182.085" cy="236.127" r="20.247" style="fill:#1a1a1a;"/><circle cx="290.356" cy="236.127" r="20.247" style="fill:#1a1a1a;"/><circle cx="236.078" cy="411.605" r="20.247" style="fill:#1a1a1a;"/><circle cx="236.078" cy="350.863" r="20.247" style="fill:#1a1a1a;"/><circle cx="236.078" cy="290.12" r="20.247" style="fill:#1a1a1a;"/><circle cx="236.078" cy="182.134" r="20.247" style="fill:#1a1a1a;"/><circle cx="112.001" cy="112.049" r="20.247" style="fill:#1a1a1a;"/><circle cx="152.495" cy="152.544" r="20.247" style="fill:#1a1a1a;"/><circle cx="192.99" cy="193.039" r="20.247" style="fill:#1a1a1a;"/><circle cx="279.166" cy="279.215" r="20.247" style="fill:#1a1a1a;"/><circle cx="319.661" cy="319.71" r="20.247" style="fill:#1a1a1a;"/><circle cx="360.156" cy="360.205" r="20.247" style="fill:#1a1a1a;"/><circle cx="112.001" cy="360.205" r="20.247" style="fill:#fff;"/><circle cx="152.495" cy="319.71" r="20.247" style="fill:#fff;"/><circle cx="192.99" cy="279.215" r="20.247" style="fill:#fff;"/><circle cx="279.166" cy="193.039" r="20.247" style="fill:#fff;"/><circle cx="319.661" cy="152.544" r="20.247" style="fill:#fff;"/><circle cx="360.156" cy="112.049" r="20.247" style="fill:#fff;"/><circle cx="236.078" cy="236.127" r="20.247" style="fill:#1a1a1a;"/><circle cx="236.078" cy="121.391" r="20.247" style="fill:#1a1a1a;"/><circle cx="236.078" cy="60.649" r="20.247" style="fill:#1a1a1a;"/><circle cx="351.098" cy="236.127" r="20.247" style="fill:#1a1a1a;"/><circle cx="411.841" cy="236.127" r="20.247" style="fill:#1a1a1a;"/></svg>