<?xml version="1.0" encoding="UTF-8" standalone="no"?><!DOCTYPE svg PUBLIC "-//W3C//DTD SVG 1.1//EN" "http://www.w3.org/Graphics/SVG/1.1/DTD/svg11.dtd"><svg width="100%" height="100%" viewBox="0 0 514 454" version="1.1" xmlns="http://www.w3.org/2000/svg" xmlns:xlink="http://www.w3.org/1999/xlink" xml:space="preserve" xmlns:serif="http://www.serif.com/" style="fill-rule:evenodd;clip-rule:evenodd;stroke-linejoin:round;stroke-miterlimit:2;"><g transform="matrix(50,0,0,50,350.88,244.423)"></g><text x="163.258px" y="244.423px" style="font-family:'ArialMT', 'Arial', sans-serif;font-size:50px;">sw=38.4</text><g id="Give-Way" serif:id="Give Way"><path d="M286.082,436.54c-6.076,10.522 -17.303,17.003 -29.452,17.003c-12.15,0 -23.376,-6.481 -29.452,-17.003c-54.065,-93.625 -168.545,-291.873 -222.619,-385.514c-6.077,-10.524 -6.079,-23.492 -0.003,-34.017c6.075,-10.525 17.303,-17.009 29.455,-17.009l445.238,-0c12.152,-0 23.38,6.484 29.455,17.009c6.076,10.525 6.074,23.493 -0.003,34.017c-54.074,93.641 -168.554,291.889 -222.619,385.514Z" style="fill:#e31837;"/><path d="M256.595,396.835l-202.961,-351.496l405.922,0l-202.961,351.496Z" style="fill:#fff;"/><g><g><rect x="238.536" y="60.423" width="76.407" height="114.898" style="fill:none;"/><path d="M313.371,66.168l-24.315,80.429l-24.633,-0l-24.315,-80.429l18.395,0l18.289,60.837l18.184,-60.837l18.395,0Z" style="fill-rule:nonzero;"/></g><g><rect x="314.943" y="60.423" width="78.13" height="114.898" style="fill:none;"/><path d="M381.849,146.597l-55.681,-0l-0,-80.429l52.587,0l0,15.88l-36.089,-0l-0,16.188l32.687,0l-0,14.849l-32.687,-0l-0,17.632l39.183,0l-0,15.88Z" style="fill-rule:nonzero;"/></g><g><rect x="196.598" y="60.423" width="41.938" height="114.898" style="fill:none;"/><rect x="209.197" y="66.772" width="16.74" height="80.428" style="fill-rule:nonzero;"/></g><g><rect x="106.978" y="60.423" width="89.62" height="114.898" style="fill:none;"/><path d="M187.44,146.503l-15.496,0l-0,-5.154c-1.958,1.954 -4.626,3.571 -8.002,4.851c-3.376,1.28 -6.819,1.92 -10.331,1.92c-6.482,0 -12.086,-1.179 -16.813,-3.537c-4.726,-2.358 -8.609,-5.441 -11.647,-9.248c-3.039,-3.806 -5.301,-8.119 -6.786,-12.936c-1.486,-4.818 -2.229,-9.72 -2.229,-14.706c0,-5.188 0.726,-10.258 2.178,-15.21c1.452,-4.952 3.697,-9.383 6.735,-13.291c3.039,-3.907 6.905,-7.041 11.597,-9.399c4.693,-2.358 10.281,-3.537 16.763,-3.537c8.103,-0 14.973,1.769 20.611,5.306c5.638,3.537 9.977,8.304 13.015,14.301l-14.787,7.176c-1.486,-3.504 -3.765,-6.266 -6.837,-8.288c-3.072,-2.021 -6.668,-3.032 -10.787,-3.032c-3.713,0 -6.887,0.708 -9.52,2.123c-2.634,1.415 -4.794,3.318 -6.483,5.71c-1.688,2.392 -2.92,5.171 -3.696,8.338c-0.777,3.167 -1.165,6.468 -1.165,9.905c-0,3.368 0.371,6.569 1.114,9.601c0.743,3.032 1.958,5.693 3.646,7.984c1.688,2.291 3.849,4.093 6.482,5.407c2.634,1.314 5.841,1.971 9.622,1.971c5.74,0 10.027,-1.448 12.863,-4.346c2.836,-2.897 4.288,-6.704 4.355,-11.42l0,-2.022l-20.661,0l-0,-14.048l36.259,-0l0,45.581Z" style="fill-rule:nonzero;"/></g></g><g><g><rect x="171.986" y="175.321" width="72.945" height="75.591" style="fill:none;"/><path d="M242.052,179.101l-13.215,52.913l-12.658,-0l-7.72,-33.376l-7.721,33.376l-12.658,-0l-13.215,-52.913l12.311,-0l7.65,32.222l7.721,-32.222l11.893,-0l7.651,32.358l7.65,-32.358l12.311,-0Z" style="fill-rule:nonzero;"/></g><g><rect x="244.931" y="175.321" width="53.669" height="75.591" style="fill:none;"/><path d="M296.289,232.014l-11.939,-0l-2.782,-9.362l-19.605,0l-2.849,9.362l-11.872,-0l17.367,-52.913l14.178,-0l17.502,52.913Zm-17.57,-18.723l-6.919,-22.929l-6.92,22.929l13.839,-0Z" style="fill-rule:nonzero;"/></g><g><rect x="298.6" y="175.321" width="48.378" height="75.591" style="fill:none;"/><path d="M346.506,179.101l-18.083,31.815l-0,21.098l-11.128,-0l-0,-21.098l-18.223,-31.815l12.589,-0l11.095,20.283l11.162,-20.283l12.588,-0Z" style="fill-rule:nonzero;"/></g></g></g></svg>