<?xml version="1.0" encoding="UTF-8" standalone="no"?><!DOCTYPE svg PUBLIC "-//W3C//DTD SVG 1.1//EN" "http://www.w3.org/Graphics/SVG/1.1/DTD/svg11.dtd"><svg width="100%" height="100%" viewBox="0 0 514 454" version="1.1" xmlns="http://www.w3.org/2000/svg" xmlns:xlink="http://www.w3.org/1999/xlink" xml:space="preserve" xmlns:serif="http://www.serif.com/" style="fill-rule:evenodd;clip-rule:evenodd;stroke-linejoin:round;stroke-miterlimit:2;"><g transform="matrix(50,0,0,50,350.88,262.709)"></g><text x="163.258px" y="262.709px" style="font-family:'ArialMT', 'Arial', sans-serif;font-size:50px;">sw=38.4</text><g id="_772-Tramcars-Crossing" serif:id="772 Tramcars Crossing"><path d="M227.178,17.004c6.076,-10.522 17.302,-17.004 29.452,-17.004c12.149,0 23.376,6.482 29.452,17.004c54.065,93.625 168.545,291.872 222.619,385.514c6.077,10.524 6.079,23.491 0.003,34.016c-6.075,10.525 -17.303,17.009 -29.455,17.009l-445.238,0c-12.152,0 -23.38,-6.484 -29.455,-17.009c-6.076,-10.525 -6.074,-23.492 0.003,-34.016c54.074,-93.642 168.554,-291.889 222.619,-385.514Z" style="fill:#e31837;"/><path d="M256.665,56.708l202.961,351.496l-405.922,-0l202.961,-351.496Z" style="fill:#fff;"/><path d="M285.185,299.161l-0.547,-0.461l-0.605,-0.374l-0.663,-0.26l-0.691,-0.172l-0.72,-0.058l-18.979,-0l22.665,-15.87l-23.327,-16.331l-0,-4.983l-0.058,-0.634l-0.172,-0.605l-0.26,-0.576l-0.374,-0.518l-0.432,-0.432l-0.518,-0.375l-0.576,-0.259l-0.605,-0.173l-0.634,-0.057l-4.089,-0l-0.634,0.057l-0.605,0.173l-0.576,0.259l-0.518,0.375l-0.461,0.432l-0.345,0.518l-0.26,0.576l-0.172,0.605l-0.058,0.634l0,4.983l-23.328,16.331l22.666,15.87l-19.008,-0l-0.691,0.058l-0.691,0.172l-0.663,0.26l-0.605,0.374l-0.547,0.461l-3.225,3.226l-89.567,-0l-0.864,0.057l-0.864,0.144l-0.835,0.26l-0.806,0.345l-0.749,0.461l-0.691,0.547l-0.605,0.605l-0.547,0.691l-0.461,0.749l-0.346,0.807l-0.259,0.835l-7.718,30.761l-0,40.842l22.694,0l-0,4.522l13.593,0l0.058,1.008l0.173,1.008l0.288,0.98l0.374,0.95l0.518,0.893l0.576,0.806l0.692,0.778l0.748,0.662l0.836,0.605l0.892,0.49l0.922,0.374l0.979,0.288l1.008,0.173l1.008,0.058l1.008,-0.058l1.008,-0.173l0.979,-0.288l0.951,-0.374l0.892,-0.49l0.836,-0.605l0.748,-0.662l0.663,-0.778l0.605,-0.806l0.489,-0.893l0.403,-0.95l0.26,-0.98l0.172,-1.008l0.058,-1.008l13.622,0l0.058,1.008l0.172,1.008l0.26,0.98l0.403,0.95l0.489,0.893l0.576,0.806l0.692,0.778l0.748,0.662l0.835,0.605l0.893,0.49l0.951,0.374l0.979,0.288l0.979,0.173l1.037,0.058l1.008,-0.058l1.008,-0.173l0.979,-0.288l0.922,-0.374l0.892,-0.49l0.836,-0.605l0.748,-0.662l0.691,-0.778l0.576,-0.806l0.49,-0.893l0.403,-0.95l0.288,-0.98l0.173,-1.008l0.058,-1.008l99.761,0l0.057,1.008l0.173,1.008l0.288,0.98l0.374,0.95l0.49,0.893l0.605,0.806l0.663,0.778l0.777,0.662l0.835,0.605l0.864,0.49l0.95,0.374l0.98,0.288l1.007,0.173l1.009,0.058l1.007,-0.058l1.009,-0.173l0.979,-0.288l0.95,-0.374l0.893,-0.49l0.806,-0.605l0.778,-0.662l0.662,-0.778l0.605,-0.806l0.489,-0.893l0.375,-0.95l0.288,-0.98l0.173,-1.008l0.057,-1.008l13.593,0l0.058,1.008l0.173,1.008l0.288,0.98l0.403,0.95l0.49,0.893l0.576,0.806l0.691,0.778l0.749,0.662l0.835,0.605l0.893,0.49l0.922,0.374l0.979,0.288l1.007,0.173l1.009,0.058l1.036,-0.058l1.009,-0.173l0.95,-0.288l0.95,-0.374l0.893,-0.49l0.835,-0.605l0.749,-0.662l0.691,-0.778l0.576,-0.806l0.489,-0.893l0.404,-0.95l0.288,-0.98l0.144,-1.008l0.057,-1.008l13.622,0l0,-4.522l22.666,0l-0,-40.842l-7.69,-30.761l-0.259,-0.835l-0.375,-0.807l-0.432,-0.749l-0.546,-0.691l-0.634,-0.605l-0.691,-0.547l-0.749,-0.461l-0.777,-0.345l-0.836,-0.26l-0.864,-0.144l-0.864,-0.057l-89.595,-0l-3.196,-3.226Zm48.498,72.784l-0.173,0.605l-0.259,0.576l-0.345,0.518l-0.462,0.461l-0.518,0.346l-0.576,0.288l-0.604,0.144l-0.634,0.057l-10.886,0l-0.634,-0.057l-0.605,-0.144l-0.576,-0.288l-0.518,-0.346l-0.432,-0.461l-0.375,-0.518l-0.259,-0.576l-0.172,-0.605l-0.058,-0.634l-0,-53.976l0.058,-0.605l0.172,-0.633l0.259,-0.576l0.375,-0.519l0.432,-0.432l0.518,-0.374l0.576,-0.259l0.605,-0.173l0.634,-0.058l10.886,0l0.634,0.058l0.604,0.173l0.576,0.259l0.518,0.374l0.462,0.432l0.345,0.519l0.259,0.576l0.173,0.633l0.058,0.605l-0,53.976l-0.058,0.634Zm4.636,-0l0.174,0.605l0.259,0.576l0.374,0.518l0.432,0.461l0.519,0.346l0.576,0.288l0.633,0.144l0.604,0.057l10.887,0l0.633,-0.057l0.634,-0.144l0.548,-0.288l0.518,-0.346l0.46,-0.461l0.375,-0.518l0.259,-0.576l0.144,-0.605l0.057,-0.634l0,-53.976l-0.057,-0.605l-0.144,-0.633l-0.259,-0.576l-0.375,-0.519l-0.46,-0.432l-0.518,-0.374l-0.548,-0.259l-0.634,-0.173l-0.633,-0.058l-10.887,0l-0.604,0.058l-0.633,0.173l-0.576,0.259l-0.519,0.374l-0.432,0.432l-0.374,0.519l-0.259,0.576l-0.174,0.633l-0.057,0.605l-0,53.976l0.057,0.634Zm-181.465,-0.634l0.058,0.634l0.173,0.605l0.259,0.576l0.374,0.518l0.432,0.461l0.519,0.346l0.576,0.288l0.604,0.144l0.634,0.057l10.886,0l0.634,-0.057l0.605,-0.144l0.576,-0.288l0.518,-0.346l0.461,-0.461l0.345,-0.518l0.288,-0.576l0.144,-0.605l0.058,-0.634l-0,-53.976l-0.058,-0.605l-0.144,-0.633l-0.288,-0.576l-0.345,-0.519l-0.461,-0.432l-0.518,-0.374l-0.576,-0.259l-0.605,-0.173l-0.634,-0.058l-10.886,0l-0.634,0.058l-0.604,0.173l-0.576,0.259l-0.519,0.374l-0.432,0.432l-0.374,0.519l-0.259,0.576l-0.173,0.633l-0.058,0.605l0,53.976Zm22.694,0l0.058,0.634l0.144,0.605l0.288,0.576l0.345,0.518l0.461,0.461l0.519,0.346l0.576,0.288l0.604,0.144l0.634,0.057l10.886,0l0.605,-0.057l0.634,-0.144l0.576,-0.288l0.518,-0.346l0.432,-0.461l0.374,-0.518l0.26,-0.576l0.172,-0.605l0.058,-0.634l-0,-53.976l-0.058,-0.605l-0.172,-0.633l-0.26,-0.576l-0.374,-0.519l-0.432,-0.432l-0.518,-0.374l-0.576,-0.259l-0.634,-0.173l-0.605,-0.058l-10.886,0l-0.634,0.058l-0.604,0.173l-0.576,0.259l-0.519,0.374l-0.461,0.432l-0.345,0.519l-0.288,0.576l-0.144,0.633l-0.058,0.605l0,53.976Zm199.811,-32.719l0.633,-0.173l0.605,-0.288l0.519,-0.375l0.461,-0.489l0.345,-0.548l0.259,-0.604l0.116,-0.663l0.028,-0.634l-0.115,-0.662l-4.407,-17.685l-0.201,-0.576l-0.288,-0.518l-0.345,-0.49l-0.462,-0.403l-0.489,-0.317l-0.547,-0.259l-0.605,-0.144l-0.576,-0.058l-6.998,0l-0.633,0.058l-0.605,0.173l-0.576,0.259l-0.519,0.374l-0.432,0.432l-0.374,0.519l-0.259,0.576l-0.173,0.633l-0.058,0.605l-0,17.685l0.058,0.634l0.173,0.633l0.259,0.548l0.374,0.518l0.432,0.461l0.519,0.374l0.576,0.26l0.605,0.172l0.633,0.029l11.405,0l0.662,-0.057Zm-101.172,-3.572l0.057,0.634l0.144,0.633l0.288,0.548l0.346,0.518l0.46,0.461l0.519,0.374l0.576,0.26l0.605,0.172l0.633,0.029l24.48,0l0.633,-0.029l0.605,-0.172l0.576,-0.26l0.519,-0.374l0.46,-0.461l0.345,-0.518l0.288,-0.548l0.145,-0.633l0.057,-0.634l0,-17.685l-0.057,-0.605l-0.145,-0.633l-0.288,-0.576l-0.345,-0.519l-0.46,-0.432l-0.519,-0.374l-0.576,-0.259l-0.605,-0.173l-0.633,-0.058l-24.48,0l-0.633,0.058l-0.605,0.173l-0.576,0.259l-0.519,0.374l-0.46,0.432l-0.346,0.519l-0.288,0.576l-0.144,0.633l-0.057,0.605l-0,17.685Zm-37.411,-0l0.058,0.634l0.144,0.633l0.288,0.548l0.345,0.518l0.461,0.461l0.518,0.374l0.576,0.26l0.605,0.172l0.634,0.029l24.479,0l0.634,-0.029l0.605,-0.172l0.576,-0.26l0.518,-0.374l0.461,-0.461l0.345,-0.518l0.26,-0.548l0.172,-0.633l0.058,-0.634l-0,-17.685l-0.058,-0.605l-0.172,-0.633l-0.26,-0.576l-0.345,-0.519l-0.461,-0.432l-0.518,-0.374l-0.576,-0.259l-0.605,-0.173l-0.634,-0.058l-24.479,0l-0.634,0.058l-0.605,0.173l-0.576,0.259l-0.518,0.374l-0.461,0.432l-0.345,0.519l-0.288,0.576l-0.144,0.633l-0.058,0.605l-0,17.685Zm-37.439,-0l0.057,0.634l0.173,0.633l0.259,0.548l0.375,0.518l0.432,0.461l0.518,0.374l0.576,0.26l0.634,0.172l0.604,0.029l24.509,0l0.633,-0.029l0.605,-0.172l0.576,-0.26l0.518,-0.374l0.432,-0.461l0.375,-0.518l0.259,-0.548l0.173,-0.633l0.057,-0.634l0,-17.685l-0.057,-0.605l-0.173,-0.633l-0.259,-0.576l-0.375,-0.519l-0.432,-0.432l-0.518,-0.374l-0.576,-0.259l-0.605,-0.173l-0.633,-0.058l-24.509,0l-0.604,0.058l-0.634,0.173l-0.576,0.259l-0.518,0.374l-0.432,0.432l-0.375,0.519l-0.259,0.576l-0.173,0.633l-0.057,0.605l-0,17.685Zm-72.287,-0.864l-0.086,0.662l-0,0.634l0.144,0.663l0.259,0.604l0.345,0.548l0.461,0.489l0.519,0.375l0.604,0.288l0.634,0.173l0.633,0.057l11.405,0l0.634,-0.029l0.604,-0.173l0.576,-0.259l0.519,-0.374l0.461,-0.461l0.345,-0.519l0.288,-0.547l0.144,-0.633l0.058,-0.634l-0,-17.685l-0.058,-0.605l-0.144,-0.633l-0.288,-0.576l-0.345,-0.519l-0.461,-0.432l-0.519,-0.374l-0.576,-0.259l-0.604,-0.173l-0.634,-0.058l-6.969,0l-0.605,0.058l-0.576,0.144l-0.547,0.259l-0.519,0.317l-0.432,0.403l-0.374,0.49l-0.288,0.518l-0.173,0.576l-4.435,17.685Zm102.901,-52.19l22.693,15.87l22.666,-15.87l-22.666,-15.87l-22.693,15.87Z"/></g></svg>