<?xml version="1.0" encoding="UTF-8" standalone="no"?><!DOCTYPE svg PUBLIC "-//W3C//DTD SVG 1.1//EN" "http://www.w3.org/Graphics/SVG/1.1/DTD/svg11.dtd"><svg width="100%" height="100%" viewBox="0 0 681 299" version="1.1" xmlns="http://www.w3.org/2000/svg" xmlns:xlink="http://www.w3.org/1999/xlink" xml:space="preserve" xmlns:serif="http://www.serif.com/" style="fill-rule:evenodd;clip-rule:evenodd;stroke-linejoin:round;stroke-miterlimit:2;"><g transform="matrix(50,0,0,50,462.106,166.892)"></g><text x="218.868px" y="166.892px" style="font-family:'ArialMT', 'Arial', sans-serif;font-size:50px;">sw=25.269</text><g id="_774-Open-Level-Crossing" serif:id="774 Open Level Crossing"><path d="M0,262.574l35.882,-71.764l125.047,-41.642l-125.047,-41.642l-35.882,-71.764l71.764,-35.762l268.454,89.405l268.453,-89.405l71.644,35.762l-35.882,71.764l-124.925,41.642l124.925,41.642l35.882,71.764l-71.644,35.882l-268.453,-89.525l-268.454,89.525l-71.764,-35.882Z" style="fill:#e31837;fill-rule:nonzero;"/><path d="M63.843,81.004l14.281,-43.082l262.094,87.365l261.973,-87.365l14.28,43.082l-204.609,68.164l204.609,68.284l-14.28,42.962l-261.973,-87.365l-262.094,87.365l-14.281,-42.962l204.612,-68.284l-204.612,-68.164Z" style="fill:#fff;fill-rule:nonzero;"/></g></svg>