<?xml version="1.0" encoding="UTF-8" standalone="no"?><!DOCTYPE svg PUBLIC "-//W3C//DTD SVG 1.1//EN" "http://www.w3.org/Graphics/SVG/1.1/DTD/svg11.dtd"><svg width="100%" height="100%" viewBox="0 0 639 369" version="1.1" xmlns="http://www.w3.org/2000/svg" xmlns:xlink="http://www.w3.org/1999/xlink" xml:space="preserve" xmlns:serif="http://www.serif.com/" style="fill-rule:evenodd;clip-rule:evenodd;stroke-linejoin:round;stroke-miterlimit:2;"><g transform="matrix(50,0,0,50,413.73,201.903)"></g><text x="226.108px" y="201.903px" style="font-family:'ArialMT', 'Arial', sans-serif;font-size:50px;">sw=31.2</text><path d="M638.74,37.795c0,-20.86 -16.935,-37.795 -37.795,-37.795l-563.15,0c-20.86,0 -37.795,16.935 -37.795,37.795l-0,292.914c-0,20.859 16.935,37.795 37.795,37.795l563.15,-0c20.86,-0 37.795,-16.936 37.795,-37.795l0,-292.914Z"/><path d="M619.843,37.795c-0,-10.43 -8.468,-18.897 -18.898,-18.897l-563.15,-0c-10.43,-0 -18.897,8.467 -18.897,18.897l-0,292.914c-0,10.43 8.467,18.897 18.897,18.897l563.15,0c10.43,0 18.898,-8.467 18.898,-18.897l-0,-292.914Z" style="fill:#fff;"/><g><g><g id="E"><rect id="path1642" x="255.126" y="51.969" width="65.159" height="94.488" style="fill:#fff;"/><path id="path1644" d="M312.035,109.877l-32.409,0l-0,-14.499l27.079,-0l0,-12.25l-27.079,-0l-0,-13.58l29.909,0l0,-12.83l-43.499,0l0,66.069l45.999,0l0,-12.91Z" style="fill:#010001;fill-rule:nonzero;"/></g><g id="E1" serif:id="E"><rect id="path16421" serif:id="path1642" x="320.285" y="51.969" width="65.159" height="94.488" style="fill:#fff;"/><path id="path16441" serif:id="path1644" d="M377.194,109.877l-32.409,0l-0,-14.499l27.079,-0l0,-12.25l-27.079,-0l-0,-13.58l29.909,0l0,-12.83l-43.499,0l-0,66.069l45.999,0l0,-12.91Z" style="fill:#010001;fill-rule:nonzero;"/></g><g id="K"><rect id="path1646" x="189.058" y="51.969" width="66.069" height="94.488" style="fill:#fff;"/><path id="path1648" d="M213.137,99.878l5.66,-6.33l18.58,29.329l15.999,0l-25.159,-39.749l23.909,-26.41l-18.239,0l-20.75,23l0,-23l-13.58,0l0,66.159l13.58,0l0,-22.999Z" style="fill:#010001;fill-rule:nonzero;"/></g><g id="P"><rect id="path1606" x="385.444" y="51.969" width="64.239" height="94.488" style="fill:#fff;"/><path id="path1608" d="M396.784,56.718l-0,66.159l13.49,0l-0,-23.329l14.999,-0l2.58,-0.171l2.59,-0.499l2.41,-0.83l2.34,-1.171l2.25,-1.42l1.91,-1.66l1.75,-1.92l1.5,-2.16l1.169,-2.17l1.001,-2.25l0.75,-2.33l0.42,-2.42l0.083,-2.42l-0.083,-2.41l-0.42,-2.419l-0.75,-2.33l-1.001,-2.25l-1.169,-2.17l-1.5,-2.17l-1.75,-1.91l-1.91,-1.67l-2.25,-1.42l-2.34,-1.16l-2.41,-0.83l-2.59,-0.511l-2.58,-0.16l-28.489,0.001Zm13.49,12.25l13.419,0l1.66,0.16l1.59,0.499l1.5,0.75l1.33,1.001l1.08,1.34l0.839,1.41l0.58,1.59l0.251,1.66l-0,1.59l-0.251,1.659l-0.58,1.5l-0.839,1.5l-1.08,1.25l-1.33,1.001l-1.5,0.75l-1.59,0.499l-1.66,0.171l-13.419,-0l-0,-18.33Z" style="fill:#010001;fill-rule:nonzero;"/></g></g><g><g id="E2" serif:id="E"><rect id="path16422" serif:id="path1642" x="281.751" y="240.945" width="65.159" height="94.488" style="fill:#fff;"/><path id="path16442" serif:id="path1644" d="M338.66,298.854l-32.41,-0l0,-14.5l27.08,0l-0,-12.25l-27.08,0l0,-13.579l29.91,-0l-0,-12.83l-43.5,-0l0,66.069l46,-0l-0,-12.91Z" style="fill:#010001;fill-rule:nonzero;"/></g><g id="L"><rect id="path1658" x="225.092" y="240.945" width="56.659" height="94.488" style="fill:#fff;"/><path id="path1660" d="M236.261,245.695l13.5,-0l0,53.239l29.33,-0l-0,12.92l-42.83,-0l0,-66.159Z" style="fill:#010001;fill-rule:nonzero;"/></g><g id="C"><rect id="path1622" x="153.013" y="240.945" width="72.239" height="94.488" style="fill:#fff;"/><path id="path1624" d="M193.173,300.274l2.249,-0.421l2.17,-0.75l1.91,-1.079l1.83,-1.34l1.5,-1.58l1.34,-1.75l1.08,-1.92l0.75,-2.08l0.499,-2.17l13.5,5.42l-1.17,3l-1.41,2.83l-1.67,2.75l-2.17,2.67l-2.41,2.5l-2.67,2l-2.92,1.67l-3,1.41l-3.16,1l-3.33,0.67l-3.34,0.25l-3.75,0l-3.33,-0.25l-3.249,-0.67l-3.17,-1l-3.08,-1.41l-2.83,-1.67l-2.67,-2l-2.5,-2.58l-2.25,-2.75l-1.91,-3l-1.59,-3.17l-1.25,-3.33l-1.001,-3.42l-0.579,-3.5l-0.251,-3.5l0,-4.75l0.251,-3.58l0.579,-3.5l1.001,-3.42l1.25,-3.25l1.59,-3.16l1.91,-2.999l2.25,-2.83l2.5,-2.5l2.67,-2l2.83,-1.75l3.08,-1.34l3.17,-1.001l3.249,-0.66l3.33,-0.25l3.75,-0l3.34,0.25l3.33,0.66l3.16,1.001l3,1.34l2.92,1.75l2.67,2l2.5,2.5l2.16,2.83l2.34,4.079l1.83,4.33l-13.5,5.34l-0.58,-2.25l-0.84,-2.25l-1.16,-2l-1.5,-1.92l-1.75,-1.58l-1.919,-1.339l-1.91,-0.831l-1.92,-0.58l-2,-0.329l-2,-0.17l-2.08,0.17l-2.09,0.329l-2,0.67l-1.91,0.83l-1.75,1.08l-1.59,1.42l-1.41,1.5l-1.171,1.75l-1,1.83l-0.67,1.92l-0.83,3.41l-0.42,3.42l-0.083,3.42l0.083,3.499l0.42,3.41l0.83,3.33l0.67,2l1,1.84l1.171,1.75l1.41,1.5l1.59,1.33l1.75,1.171l1.91,0.83l2,0.58l2.09,0.42l2.08,0.083l2.251,-0.163Z" style="fill:#010001;fill-rule:nonzero;"/></g><g id="A"><rect id="path1634" x="346.909" y="240.945" width="67.989" height="94.488" style="fill:#fff;"/><path id="path1636" d="M372.239,245.695l-22.08,66.069l14.83,-0l3.59,-11.66l24.909,-0l3.58,11.66l14.83,-0l-22.079,-66.069l-17.58,-0Zm8.75,13.83l8.92,28.909l-17.75,-0l8.83,-28.909Z" style="fill:#010001;fill-rule:nonzero;"/></g><g id="R"><rect id="path1614" x="414.898" y="240.945" width="70.829" height="94.488" style="fill:#fff;"/><path id="path1616" d="M426.068,245.695l-0,66.159l13.49,-0l-0,-25.83l8.839,0l15.08,25.83l15.75,-0l-15.83,-27l2.41,-1.08l2.34,-1.419l2.08,-1.67l1.83,-1.99l1.58,-2.17l1.25,-2.33l1,-2.5l0.591,-2.59l0.25,-2.66l-0.094,-2.75l-0.5,-2.59l-0.75,-2.58l-1.16,-2.42l-1.5,-2.25l-1.67,-2.08l-2,-1.75l-2.25,-1.5l-2.419,-1.25l-2.49,-0.83l-2.67,-0.591l-2.67,-0.16l-30.487,0.001Zm13.49,12.25l15.749,-0l1.59,0.159l1.41,0.5l1.42,0.669l1.17,1.001l1,1.17l0.66,1.41l0.5,1.42l0.17,1.58l-0.17,1.5l-0.5,1.5l-0.66,1.34l-1,1.25l-1.17,0.911l-1.42,0.75l-1.41,0.499l-1.59,0.095l-15.749,-0l-0,-15.754Z" style="fill:#010001;fill-rule:nonzero;"/></g></g><g><g id="S"><rect id="path1618" x="263.251" y="146.457" width="69.819" height="94.488" style="fill:#fff;"/><path id="path1620" d="M304.74,191.866l1.5,0.58l1.25,0.84l1.08,1.159l0.75,1.34l0.42,1.41l0.083,1.59l-0.25,1.5l-0.661,1.41l-0.92,1.25l-1.42,1.171l-1.58,0.909l-1.75,0.67l-1.83,0.329l-4.5,0l-2.579,-0.329l-2.5,-0.5l-2.42,-0.83l-2.42,-1.08l-2.83,-1.84l-2.67,-2l-2.41,-2.33l-11.5,8.83l2.42,2.5l2.58,2.33l2.75,2.09l2.91,1.83l3.17,1.5l3.58,1.171l3.75,0.83l3.75,0.58l3.75,0.25l3.829,-0.082l3.75,-0.33l3.75,-0.67l3.67,-1l2.5,-1l2.33,-1.33l2.17,-1.67l1.92,-1.92l1.66,-2.16l1.34,-2.34l0.99,-2.49l0.669,-2.67l0.251,-2.67l-0.083,-2.66l-0.42,-2.75l-0.75,-2.59l-1.16,-2.41l-1.5,-2l-1.75,-1.75l-1.84,-1.59l-2.08,-1.41l-2.17,-1.17l-2.08,-0.831l-2.17,-0.669l-15.49,-3.83l-1.09,-0.421l-1,-0.66l-0.83,-0.92l-0.67,-1l-0.33,-1.08l-0.17,-1.169l0.095,-1.171l0.41,-1.159l0.589,-1.001l1.33,-1.34l1.5,-1l1.75,-0.75l1.83,-0.41l1.84,-0.17l2.74,0.17l2.67,0.41l2.67,0.75l2.5,0.92l2.41,1.25l2.34,1.5l2.08,1.75l10.249,-9.33l-2.75,-2.42l-2.92,-2.08l-3.159,-1.84l-3.25,-1.58l-3.42,-1.16l-3.58,-0.92l-3.59,-0.499l-3.66,-0.17l-3.58,0.17l-3.59,0.499l-3.58,0.92l-2.58,1.001l-2.42,1.24l-2.25,1.59l-2.08,1.83l-1.84,2l-1.41,2l-1.09,2.17l-0.83,2.25l-0.58,2.329l-0.17,2.42l0.082,2.41l0.421,2.42l0.75,2.25l1,2.25l1.25,2l1.58,1.91l1.75,1.59l2.5,1.66l2.75,1.171l2.92,0.75l15.574,3.502Z" style="fill:#010001;fill-rule:nonzero;"/></g><g id="S1" serif:id="S"><rect id="path16181" serif:id="path1618" x="333.07" y="146.457" width="69.819" height="94.488" style="fill:#fff;"/><path id="path16201" serif:id="path1620" d="M374.559,191.866l1.5,0.58l1.25,0.84l1.079,1.159l0.75,1.34l0.421,1.41l0.083,1.59l-0.251,1.5l-0.66,1.41l-0.92,1.25l-1.42,1.171l-1.58,0.909l-1.75,0.67l-1.83,0.329l-4.5,0l-2.58,-0.329l-2.5,-0.5l-2.42,-0.83l-2.42,-1.08l-2.83,-1.84l-2.67,-2l-2.409,-2.33l-11.5,8.83l2.42,2.5l2.58,2.33l2.75,2.09l2.91,1.83l3.169,1.5l3.58,1.171l3.75,0.83l3.75,0.58l3.75,0.25l3.83,-0.082l3.75,-0.33l3.75,-0.67l3.67,-1l2.5,-1l2.33,-1.33l2.17,-1.67l1.92,-1.92l1.66,-2.16l1.34,-2.34l0.989,-2.49l0.67,-2.67l0.25,-2.67l-0.082,-2.66l-0.421,-2.75l-0.75,-2.59l-1.16,-2.41l-1.5,-2l-1.749,-1.75l-1.84,-1.59l-2.08,-1.41l-2.17,-1.17l-2.08,-0.831l-2.17,-0.669l-15.49,-3.83l-1.09,-0.421l-1.001,-0.66l-0.83,-0.92l-0.67,-1l-0.329,-1.08l-0.17,-1.169l0.094,-1.171l0.41,-1.159l0.59,-1.001l1.33,-1.34l1.5,-1l1.75,-0.75l1.83,-0.41l1.839,-0.17l2.74,0.17l2.67,0.41l2.67,0.75l2.5,0.92l2.41,1.25l2.34,1.5l2.08,1.75l10.25,-9.33l-2.75,-2.42l-2.92,-2.08l-3.16,-1.84l-3.25,-1.58l-3.42,-1.16l-3.58,-0.92l-3.59,-0.499l-3.66,-0.17l-3.58,0.17l-3.589,0.499l-3.58,0.92l-2.58,1.001l-2.42,1.24l-2.25,1.59l-2.08,1.83l-1.84,2l-1.41,2l-1.09,2.17l-0.831,2.25l-0.579,2.329l-0.171,2.42l0.083,2.41l0.421,2.42l0.75,2.25l1,2.25l1.25,2l1.58,1.91l1.75,1.59l2.5,1.66l2.75,1.171l2.92,0.75l15.574,3.502Z" style="fill:#010001;fill-rule:nonzero;"/></g><g id="_-N" serif:id=" N"><rect id="path1590" x="439.308" y="146.457" width="80.238" height="94.488" style="fill:#fff;"/><path id="path1592" d="M465.717,151.207l-15.409,-0l-0,66.158l13.499,0l0,-44.749l29.58,44.749l15.49,0l-0,-66.158l-13.58,-0l-0,44.739l-29.58,-44.739Z" style="fill:#010001;fill-rule:nonzero;"/></g><g id="I"><rect id="path1654" x="403.899" y="146.457" width="35.409" height="94.488" style="fill:#fff;"/><rect id="path1656" x="414.898" y="151.207" width="13.5" height="66.159" style="fill:#010001;fill-rule:nonzero;"/></g><g id="I1" serif:id="I"><rect id="path16541" serif:id="path1654" x="402.888" y="146.457" width="35.409" height="94.488" style="fill:#fff;"/><rect id="path16561" serif:id="path1656" x="413.888" y="151.207" width="13.5" height="66.159" style="fill:#010001;fill-rule:nonzero;"/></g><g id="G"><rect id="path1626" x="519.546" y="146.457" width="74.579" height="94.488" style="fill:#fff;"/><path id="path1628" d="M570.795,169.706l-1.59,-2l-1.83,-1.84l-2.08,-1.49l-1.92,-0.75l-1.91,-0.59l-2,-0.33l-1.999,-0.17l-2.09,0.17l-2.08,0.33l-2,0.67l-1.92,0.83l-1.75,1.079l-1.58,1.34l-1.42,1.58l-1.16,1.67l-0.92,1.91l-0.75,1.92l-0.75,3.33l-0.5,3.5l-0.082,3.42l0.082,3.5l0.5,3.41l0.75,3.34l0.75,2l0.92,1.83l1.16,1.67l1.42,1.58l1.58,1.33l1.75,1.09l1.92,0.909l2,0.591l2.08,0.329l2.09,0.17l2.25,-0.17l2.249,-0.42l2.16,-0.75l2.08,-1.16l1.84,-1.42l1.58,-1.67l1.33,-1.91l0.92,-2.5l0.58,-2.5l0.095,-2.67l-16.67,0l-0,-11.58l28.999,0l0,38.08l-12.329,-0l-0,-4.75l-1.92,1.83l-2.25,1.59l-2.33,1.25l-2.59,0.909l-2.58,0.58l-2.66,0.17l-2.67,0l-3.33,-0.329l-3.25,-0.67l-3.17,-1l-3.08,-1.33l-2.84,-1.67l-2.66,-2l-2.5,-2.58l-2.17,-2.75l-2,-3l-1.58,-3.17l-1.249,-3.33l-1.001,-3.42l-0.58,-3.49l-0.25,-3.5l-0,-4.75l0.25,-3.59l0.58,-3.5l1.001,-3.409l1.249,-3.34l1.58,-3.16l2,-3l2.17,-2.75l2.5,-2.5l2.66,-2l2.84,-1.75l3.08,-1.33l3.17,-1l3.25,-0.67l3.33,-0.33l3.75,0l3.33,0.33l3.33,0.67l3.17,1l3,1.33l2.92,1.75l2.66,2l2.5,2.5l2.169,2.83l2.25,4l-12.669,6l-1.165,-2.329Z" style="fill:#010001;fill-rule:nonzero;"/></g><g id="C1" serif:id="C"><rect id="path16221" serif:id="path1622" x="44.615" y="146.457" width="72.239" height="94.488" style="fill:#fff;"/><path id="path16241" serif:id="path1624" d="M84.775,205.786l2.249,-0.421l2.17,-0.75l1.91,-1.079l1.83,-1.34l1.5,-1.58l1.34,-1.75l1.08,-1.92l0.75,-2.08l0.499,-2.17l13.5,5.42l-1.17,3l-1.41,2.83l-1.67,2.75l-2.17,2.67l-2.41,2.499l-2.67,2l-2.92,1.67l-3,1.41l-3.16,1.001l-3.33,0.669l-3.34,0.251l-3.75,-0l-3.33,-0.251l-3.25,-0.669l-3.169,-1.001l-3.08,-1.41l-2.83,-1.67l-2.67,-2l-2.5,-2.58l-2.25,-2.749l-1.91,-3l-1.59,-3.17l-1.25,-3.33l-1.001,-3.42l-0.58,-3.5l-0.25,-3.5l0,-4.75l0.25,-3.58l0.58,-3.5l1.001,-3.42l1.25,-3.25l1.59,-3.16l1.91,-3l2.25,-2.83l2.5,-2.5l2.67,-2l2.83,-1.749l3.08,-1.34l3.169,-1.001l3.25,-0.66l3.33,-0.25l3.75,-0l3.34,0.25l3.33,0.66l3.16,1.001l3,1.34l2.92,1.749l2.67,2l2.5,2.5l2.16,2.83l2.34,4.08l1.83,4.33l-13.5,5.34l-0.58,-2.25l-0.84,-2.25l-1.16,-2l-1.5,-1.92l-1.75,-1.58l-1.919,-1.34l-1.91,-0.83l-1.92,-0.58l-2,-0.329l-2,-0.171l-2.08,0.171l-2.09,0.329l-2,0.67l-1.91,0.83l-1.75,1.08l-1.59,1.42l-1.41,1.5l-1.171,1.749l-1,1.83l-0.67,1.92l-0.83,3.41l-0.42,3.42l-0.083,3.42l0.083,3.5l0.42,3.41l0.83,3.33l0.67,2l1,1.84l1.171,1.75l1.41,1.5l1.59,1.33l1.75,1.17l1.91,0.831l2,0.58l2.09,0.42l2.08,0.083l2.251,-0.163Z" style="fill:#010001;fill-rule:nonzero;"/></g><g id="R1" serif:id="R"><rect id="path16141" serif:id="path1614" x="116.854" y="146.457" width="70.829" height="94.488" style="fill:#fff;"/><path id="path16161" serif:id="path1616" d="M128.024,151.207l-0,66.158l13.489,0l0,-25.829l8.84,-0l15.08,25.829l15.75,0l-15.83,-26.999l2.41,-1.08l2.34,-1.42l2.08,-1.67l1.83,-1.99l1.58,-2.17l1.25,-2.33l1,-2.499l0.591,-2.59l0.25,-2.66l-0.094,-2.75l-0.5,-2.59l-0.75,-2.58l-1.16,-2.42l-1.5,-2.25l-1.67,-2.08l-2,-1.75l-2.25,-1.5l-2.42,-1.25l-2.49,-0.83l-2.67,-0.591l-2.669,-0.16l-30.487,0.001Zm13.489,12.249l15.75,0l1.59,0.16l1.41,0.499l1.42,0.67l1.169,1.001l1.001,1.17l0.66,1.41l0.5,1.42l0.17,1.58l-0.17,1.5l-0.5,1.5l-0.66,1.34l-1.001,1.25l-1.169,0.91l-1.42,0.75l-1.41,0.5l-1.59,0.095l-15.75,-0l0,-15.755Z" style="fill:#010001;fill-rule:nonzero;"/></g><g id="O"><rect id="path1594" x="187.683" y="146.457" width="75.569" height="94.488" style="fill:#fff;"/><path id="path1596" d="M223.672,149.627l-3.33,0.329l-3.25,0.58l-3.16,1.08l-3.09,1.34l-2.83,1.67l-2.67,1.99l-2.5,2.59l-2.16,2.749l-1.92,3l-1.67,3.16l-1.25,3.34l-0.909,3.41l-0.67,3.5l-0.25,3.5l-0,4.75l0.25,3.58l0.67,3.5l0.909,3.42l1.25,3.33l1.67,3.17l1.92,2.92l2.16,2.83l2.5,2.499l2.67,2l2.83,1.75l3.09,1.33l3.16,1.001l3.25,0.669l3.33,0.33l3.84,0l3.25,-0.33l3.33,-0.669l3.17,-1.001l3,-1.33l2.91,-1.75l2.67,-2l2.5,-2.499l2.159,-2.83l1.92,-2.92l1.58,-3.17l1.34,-3.33l0.91,-3.42l0.59,-3.5l0.251,-3.58l-0,-4.75l-0.251,-3.5l-0.59,-3.5l-0.91,-3.41l-1.34,-3.34l-1.58,-3.16l-1.92,-3l-2.159,-2.749l-2.5,-2.59l-2.67,-1.99l-2.91,-1.67l-3,-1.34l-3.17,-1.08l-3.33,-0.58l-3.25,-0.329l-3.84,-0Zm1.92,12.909l2.08,0.083l2.09,0.42l2,0.58l1.91,0.84l1.75,1.16l1.59,1.34l1.41,1.58l1.17,1.67l0.92,1.83l0.66,2l0.831,3.33l0.51,3.42l0.083,3.5l-0.083,3.41l-0.51,3.42l-0.831,3.42l-0.66,1.91l-0.92,1.919l-1.17,1.67l-1.41,1.58l-1.59,1.33l-1.75,1.091l-1.91,0.83l-2,0.66l-2.09,0.34l-2.08,0.161l-2.08,-0.161l-2.09,-0.34l-2,-0.66l-1.91,-0.83l-1.75,-1.091l-1.58,-1.33l-1.42,-1.58l-1.17,-1.67l-0.91,-1.919l-0.75,-1.91l-0.75,-3.42l-0.499,-3.42l-0.095,-3.41l0.095,-3.5l0.499,-3.42l0.75,-3.33l0.75,-2l0.91,-1.83l1.17,-1.67l1.42,-1.58l1.58,-1.34l1.75,-1.16l1.91,-0.84l2,-0.58l2.09,-0.42l2.08,-0.083Z" style="fill:#010001;fill-rule:nonzero;"/></g></g></g></svg>