<?xml version="1.0" encoding="UTF-8" standalone="no"?><!DOCTYPE svg PUBLIC "-//W3C//DTD SVG 1.1//EN" "http://www.w3.org/Graphics/SVG/1.1/DTD/svg11.dtd"><svg width="100%" height="100%" viewBox="0 0 514 454" version="1.1" xmlns="http://www.w3.org/2000/svg" xmlns:xlink="http://www.w3.org/1999/xlink" xml:space="preserve" xmlns:serif="http://www.serif.com/" style="fill-rule:evenodd;clip-rule:evenodd;stroke-linejoin:round;stroke-miterlimit:2;"><g transform="matrix(64.5901,0,0,64.5901,378.383,333.508)"></g><text x="136.012px" y="333.508px" style="font-family:'ArialMT', 'Arial', sans-serif;font-size:64.59px;">sw=38.4</text><g id="_950-Cycles-Crossing" serif:id="950 Cycles Crossing"><path d="M227.178,17.004c6.076,-10.522 17.302,-17.004 29.452,-17.004c12.149,0 23.376,6.482 29.452,17.004c54.065,93.625 168.545,291.872 222.619,385.514c6.077,10.524 6.079,23.491 0.003,34.016c-6.075,10.525 -17.303,17.009 -29.455,17.009l-445.238,0c-12.152,0 -23.38,-6.484 -29.455,-17.009c-6.076,-10.525 -6.074,-23.492 0.003,-34.016c54.074,-93.642 168.554,-291.889 222.619,-385.514Z" style="fill:#e31837;"/><path d="M256.665,56.708l202.961,351.496l-405.922,-0l202.961,-351.496Z" style="fill:#fff;"/><path d="M284.634,360.629l1.443,-1.056l1.373,-1.127l1.232,-1.267l1.162,-1.373l1.021,-1.479l0.88,-1.549l0.739,-1.619l0.634,-1.655l0.458,-1.725l4.892,0l0.282,2.57l0.458,2.57l0.563,2.57l0.704,2.499l0.845,2.465l0.951,2.429l1.091,2.358l1.232,2.324l1.337,2.217l1.444,2.183l1.549,2.077l1.69,2.007l1.76,1.936l1.865,1.83l1.936,1.725l2.078,1.584l2.112,1.514l2.218,1.408l2.252,1.268l2.36,1.161l2.393,1.021l2.429,0.915l2.499,0.775l2.535,0.669l2.535,0.493l2.605,0.387l2.57,0.246l2.605,0.106l2.605,-0.035l2.605,-0.176l2.605,-0.282l2.569,-0.458l2.535,-0.563l2.534,-0.704l2.465,-0.81l2.429,-0.985l2.358,-1.056l2.324,-1.233l2.253,-1.302l2.147,-1.443l2.113,-1.549l2.006,-1.69l1.936,-1.76l1.795,-1.866l1.725,-1.936l1.655,-2.042l1.514,-2.147l1.372,-2.183l1.304,-2.288l1.161,-2.323l1.021,-2.394l0.915,-2.429l0.774,-2.5l0.67,-2.534l0.527,-2.535l0.388,-2.57l0.246,-2.605l0.105,-2.605l-0.035,-2.605l-0.141,-2.605l-0.316,-2.605l-0.423,-2.57l-0.562,-2.534l-0.669,-2.535l-0.845,-2.464l-0.951,-2.429l-1.091,-2.359l-1.197,-2.323l-1.302,-2.253l-1.444,-2.183l-1.549,-2.077l-1.655,-2.042l-1.76,-1.901l-1.865,-1.83l-1.937,-1.725l-2.041,-1.655l-2.148,-1.513l-2.182,-1.408l-2.253,-1.268l-2.359,-1.161l-2.393,-1.057l-2.43,-0.915l-2.499,-0.809l-2.499,-0.634l-2.57,-0.528l-2.57,-0.387l-2.605,-0.282l-2.605,-0.106l-2.605,0l-2.605,0.176l-2.605,0.282l-2.57,0.422l-2.535,0.564l-2.499,0.669l-2.5,0.844l-2.428,0.951l-19.679,-34.112l3.837,-10.561l1.408,-0.176l1.373,-0.317l1.373,-0.457l1.303,-0.564l1.231,-0.704l1.198,-0.809l1.091,-0.916l0.986,-1.02l0.915,-1.127l0.774,-1.197l0.669,-1.232l0.563,-1.338l0.388,-1.373l0.07,-0.422l-0.07,-0.422l-0.176,-0.388l-0.247,-0.352l-0.352,-0.246l-0.387,-0.176l-0.422,-0.071l-43.018,0l-0.704,0.071l-0.705,0.176l-0.633,0.317l-0.599,0.387l-0.492,0.493l-0.423,0.598l-0.317,0.634l-0.211,0.704l-0.07,0.704l0.035,0.704l0.176,0.704l0.281,0.634l0.388,0.598l0.493,0.528l0.563,0.423l0.633,0.352l0.704,0.211l19.221,4.26l-4.541,12.461l-91.07,0l2.006,-7.463l0.247,-1.232l0.105,-1.197l0,-1.232l-0.105,-1.232l-0.282,-1.197l-0.387,-1.197l-0.493,-1.091l-0.633,-1.091l-0.74,-0.986l-0.845,-0.88l-0.915,-0.845l-1.021,-0.704l-0.457,-0.352l-0.352,-0.458l-0.247,-0.528l-0.105,-0.598l0.035,-0.563l0.176,-0.564l0.281,-0.528l0.388,-0.422l0.492,-0.317l0.564,-0.211l0.563,-0.071l19.115,0l0,-12.461l-23.269,-0l-1.303,0.07l-1.267,0.176l-1.232,0.317l-1.197,0.422l-1.162,0.528l-1.126,0.669l-1.021,0.739l-0.986,0.845l-0.88,0.951l-0.774,1.021l-0.669,1.091l-0.563,1.162l-0.458,1.197l-0.352,1.232l-0.211,1.267l-0.106,1.267l0.035,1.303l0.141,1.267l0.282,1.232l0.387,1.232l0.528,1.197l0.599,1.092l0.739,1.091l0.81,0.986l0.915,0.88l1.021,0.809l1.056,0.704l0.633,0.458l0.528,0.563l0.423,0.634l0.282,0.704l0.14,0.774l0.036,0.775l-0.141,0.739l-10.808,40.308l-2.464,-0.845l-2.499,-0.704l-2.57,-0.599l-2.57,-0.457l-2.605,-0.352l-2.605,-0.176l-2.605,-0.036l-2.605,0.071l-2.605,0.246l-2.605,0.352l-2.57,0.493l-2.534,0.634l-2.5,0.739l-2.464,0.915l-2.394,0.986l-2.359,1.162l-2.288,1.267l-2.217,1.373l-2.148,1.514l-2.042,1.584l-1.971,1.725l-1.901,1.795l-1.76,1.936l-1.69,2.007l-1.584,2.077l-1.479,2.147l-1.337,2.253l-1.232,2.288l-1.092,2.394l-0.985,2.429l-0.845,2.464l-0.74,2.5l-0.598,2.534l-0.458,2.605l-0.316,2.57l-0.176,2.605l-0.036,2.605l0.071,2.641l0.246,2.605l0.352,2.569l0.493,2.57l0.634,2.535l0.774,2.499l0.88,2.464l1.021,2.394l1.162,2.359l1.267,2.288l1.373,2.218l1.514,2.147l1.584,2.042l1.725,1.971l1.83,1.901l1.901,1.761l2.007,1.689l2.077,1.584l2.183,1.444l2.217,1.373l2.324,1.197l2.358,1.126l2.429,0.986l2.465,0.845l2.534,0.704l2.535,0.598l2.57,0.458l2.605,0.317l2.605,0.176l2.605,0.035l2.64,-0.106l2.57,-0.211l2.605,-0.387l2.57,-0.493l2.534,-0.634l2.5,-0.774l2.464,-0.88l2.394,-1.021l2.358,-1.162l2.288,-1.267l2.218,-1.373l2.112,-1.514l2.077,-1.619l1.972,-1.69l1.866,-1.83l1.795,-1.901l1.654,-2.007l1.585,-2.112l1.443,-2.148l1.373,-2.253l1.197,-2.323l1.126,-2.359l0.951,-2.429l0.845,-2.464l0.739,-2.534l0.563,-2.535l0.458,-2.57l0.317,-2.605l0.176,-2.605l0.035,-2.605l-0.071,-2.605l-0.246,-2.605l-0.387,-2.605l-0.493,-2.57l-0.634,-2.534l-0.774,-2.5l-0.88,-2.429l-1.056,-2.429l-1.127,-2.323l-1.267,-2.289l-1.408,-2.217l-1.514,-2.148l-1.584,-2.041l-1.725,-1.972l-1.831,-1.866l-1.901,-1.795l-2.006,-1.655l-2.112,-1.584l1.619,-6.019l57.803,40.448l-0.457,1.69l-0.317,1.689l-0.176,1.725l-0,1.725l0.105,1.76l0.282,1.69l0.387,1.69l0.564,1.655l0.668,1.619l0.81,1.514l0.951,1.478l1.056,1.373l1.161,1.267l1.268,1.197l1.373,1.056l1.443,0.951l1.549,0.845l1.584,0.704l1.655,0.563l1.654,0.422l1.725,0.282l1.725,0.141l1.76,-0l1.725,-0.176l1.69,-0.282l1.69,-0.422l3.133,6.724l-5.633,-0l0,6.653l5.633,-0l0.598,0.704l0.669,0.634l0.81,0.493l0.845,0.352l0.915,0.211l0.915,0.105l0.951,-0.105l0.915,-0.211l0.845,-0.352l0.774,-0.493l0.704,-0.634l0.599,-0.704l5.632,-0l-0,-6.653l-8.73,-0l-4.295,-9.188Zm35.414,3.344l1.373,1.725l1.479,1.619l1.549,1.549l1.689,1.443l1.761,1.338l1.83,1.232l1.901,1.092l1.971,0.985l2.042,0.845l2.077,0.739l2.112,0.599l2.183,0.422l2.182,0.352l2.183,0.176l2.217,0.036l2.184,-0.106l2.182,-0.247l2.183,-0.352l2.147,-0.528l2.112,-0.633l2.077,-0.775l2.006,-0.915l1.936,-1.021l1.902,-1.162l1.795,-1.267l1.725,-1.373l1.619,-1.478l1.514,-1.584l1.444,-1.69l1.337,-1.76l1.197,-1.866l1.092,-1.901l0.95,-1.971l0.845,-2.042l0.704,-2.112l0.563,-2.113l0.458,-2.147l0.281,-2.183l0.176,-2.217l0.035,-2.218l-0.105,-2.183l-0.281,-2.182l-0.388,-2.183l-0.528,-2.147l-0.669,-2.077l-0.775,-2.077l-0.915,-2.007l-1.055,-1.936l-1.162,-1.866l-1.303,-1.795l-1.373,-1.725l-1.513,-1.619l-1.585,-1.514l-1.69,-1.408l-1.76,-1.303l-1.865,-1.197l-1.936,-1.056l-1.972,-0.95l-2.042,-0.845l-2.112,-0.669l-2.147,-0.563l-2.147,-0.423l-2.183,-0.281l-2.218,-0.176l-2.182,-0l-2.218,0.14l-2.183,0.282l-2.148,0.387l-2.146,0.564l-2.113,0.668l17.672,30.592l0.352,0.704l0.176,0.774l0.071,0.81l-0.071,0.775l-0.176,0.774l-0.352,0.739l-0.457,0.634l-0.564,0.563l-0.669,0.458l-0.704,0.352l-0.774,0.211l-0.81,0.07l-36.541,0l0.353,2.183l0.492,2.147l0.634,2.113l0.775,2.041l0.88,2.042l1.02,1.936l1.126,1.901l1.268,1.831Zm-143.487,-44.356l2.288,-8.554l-2.042,-0.81l-2.077,-0.634l-2.147,-0.563l-2.148,-0.387l-2.182,-0.247l-2.183,-0.14l-2.182,0.035l-2.183,0.141l-2.183,0.281l-2.147,0.423l-2.147,0.563l-2.077,0.704l-2.007,0.81l-2.007,0.95l-1.9,1.056l-1.831,1.197l-1.795,1.303l-1.655,1.408l-1.619,1.514l-1.479,1.584l-1.373,1.689l-1.302,1.796l-1.162,1.866l-1.021,1.936l-0.95,1.971l-0.775,2.042l-0.669,2.077l-0.528,2.147l-0.422,2.148l-0.247,2.182l-0.14,2.183l0.035,2.182l0.141,2.218l0.281,2.148l0.423,2.147l0.563,2.147l0.669,2.077l0.845,2.042l0.915,1.971l1.091,1.901l1.162,1.866l1.303,1.76l1.408,1.69l1.513,1.584l1.62,1.479l1.689,1.408l1.761,1.267l1.865,1.162l1.937,1.056l1.971,0.915l2.077,0.81l2.077,0.669l2.112,0.528l2.183,0.387l2.147,0.282l2.218,0.141l2.182,-0.036l2.183,-0.141l2.183,-0.281l2.147,-0.423l2.112,-0.563l2.077,-0.669l2.042,-0.809l1.971,-0.951l1.936,-1.056l1.831,-1.197l1.795,-1.302l1.655,-1.408l1.619,-1.514l1.479,-1.584l1.408,-1.69l1.267,-1.795l1.162,-1.866l1.056,-1.901l0.915,-2.007l0.81,-2.042l0.669,-2.076l0.528,-2.148l0.422,-2.147l0.247,-2.183l0.141,-2.182l-0,-2.183l-0.177,-2.183l-0.281,-2.182l-0.423,-2.148l-0.528,-2.147l-0.704,-2.077l-0.809,-2.042l-0.951,-1.971l-1.056,-1.901l-1.162,-1.866l-1.302,-1.76l-1.408,-1.69l-1.514,-1.584l-2.816,10.455l-0.528,1.796l-0.704,1.76l-0.775,1.69l-0.915,1.654l-1.056,1.549l-1.127,1.479l-1.232,1.408l-1.337,1.338l-1.444,1.196l-1.514,1.127l-1.584,1.021l-1.619,0.88l-1.725,0.774l-1.76,0.634l-1.795,0.528l-1.831,0.423l-0.81,0.07l-0.809,-0.07l-0.775,-0.177l-0.739,-0.316l-0.669,-0.423l-0.598,-0.528l-0.528,-0.633l-0.423,-0.669l-0.282,-0.775l-0.176,-0.774l-0.035,-0.81l0.106,-0.774l0.211,-0.775l0.352,-0.739l0.458,-0.669l0.528,-0.598l0.669,-0.458l1.795,-1.267l1.76,-1.409l1.655,-1.513l1.513,-1.584l1.444,-1.725l1.302,-1.796l1.162,-1.901l1.056,-1.936l0.951,-2.042l0.774,-2.077l0.634,-2.147Zm109.974,22.284l-0.176,-1.303l-0.317,-1.267l-0.457,-1.232l-0.564,-1.162l-0.669,-1.127l-0.774,-1.056l-0.88,-0.95l-0.951,-0.88l-1.056,-0.775l-1.126,-0.669l-1.162,-0.563l-1.232,-0.457l-1.267,-0.317l-1.303,-0.176l-1.302,-0.071l-1.303,0.071l-1.302,0.176l-1.268,0.317l-1.232,0.457l-1.161,0.563l-1.127,0.669l-1.056,0.775l-0.951,0.88l-0.88,0.95l-0.774,1.056l-0.669,1.127l-0.563,1.162l-0.458,1.232l-0.317,1.267l-0.176,1.303l-0.07,1.302l0.07,1.303l0.176,1.302l0.317,1.267l0.458,1.233l0.563,1.161l0.669,1.127l0.774,1.056l0.88,0.95l0.951,0.88l1.056,0.775l1.127,0.669l1.161,0.563l1.232,0.458l1.268,0.316l1.302,0.176l1.303,0.071l1.302,-0.071l1.303,-0.176l1.267,-0.316l1.232,-0.458l1.162,-0.563l1.126,-0.669l1.056,-0.775l0.951,-0.88l0.88,-0.95l0.774,-1.056l0.669,-1.127l0.564,-1.161l0.457,-1.233l0.317,-1.267l0.176,-1.302l0.07,-1.303l-0.07,-1.302Zm51.748,-3.274l-12.743,-22.073l-1.585,1.444l-1.478,1.513l-1.408,1.62l-1.303,1.725l-1.196,1.76l-1.092,1.866l-0.985,1.901l-0.845,1.971l-0.704,2.007l-0.599,2.077l-0.492,2.077l-0.353,2.112l24.783,-0Zm-20.312,-35.168l-2.007,1.619l-1.935,1.725l-1.831,1.795l-1.76,1.901l-1.655,2.007l-1.514,2.077l-1.443,2.183l-1.303,2.217l-1.196,2.289l-1.091,2.358l-0.951,2.394l-0.81,2.464l-0.704,2.5l-0.563,2.534l-0.458,2.535l-0.282,2.57l-4.892,-0l-0.458,-1.76l-0.634,-1.69l-0.774,-1.62l-0.915,-1.548l-1.021,-1.479l-1.162,-1.408l-1.303,-1.267l-1.372,-1.162l17.566,-48.299l14.468,25.065Zm-69.033,13.131l8.73,-0l4.295,9.188l-1.337,0.95l-61.5,-43.088l1.866,-6.971l89.873,0l-16.651,45.764l-1.76,0l-1.76,0.141l-1.761,0.282l-1.689,0.457l-3.133,-6.723l5.632,-0l0,-6.654l-5.632,0l-0.599,-0.704l-0.704,-0.634l-0.774,-0.492l-0.845,-0.352l-0.915,-0.247l-0.951,-0.07l-0.915,0.07l-0.916,0.247l-0.844,0.352l-0.81,0.492l-0.704,0.634l-0.563,0.704l-5.633,0l0,6.654Z"/></g></svg>