<?xml version="1.0" encoding="UTF-8" standalone="no"?><!DOCTYPE svg PUBLIC "-//W3C//DTD SVG 1.1//EN" "http://www.w3.org/Graphics/SVG/1.1/DTD/svg11.dtd"><svg width="100%" height="100%" viewBox="0 0 454 454" version="1.1" xmlns="http://www.w3.org/2000/svg" xmlns:xlink="http://www.w3.org/1999/xlink" xml:space="preserve" xmlns:serif="http://www.serif.com/" style="fill-rule:evenodd;clip-rule:evenodd;stroke-linejoin:round;stroke-miterlimit:2;"><g transform="matrix(64.5901,0,0,64.5901,348.525,249.574)"></g><text x="106.154px" y="249.574px" style="font-family:'ArialMT', 'Arial', sans-serif;font-size:64.59px;">sw=38.4</text><g id="_951-No-Cycles" serif:id="951 No Cycles"><circle cx="226.772" cy="226.772" r="226.772" style="fill:#e31837;"/><circle cx="226.772" cy="226.772" r="181.417" style="fill:#fff;"/><path d="M72.588,260.626l0.192,-2.842l0.345,-2.803l0.5,-2.842l0.653,-2.765l0.806,-2.727l0.922,-2.688l1.075,-2.65l1.19,-2.611l1.345,-2.497l1.459,-2.457l1.613,-2.343l1.728,-2.266l1.843,-2.189l1.92,-2.112l2.074,-1.959l2.151,-1.881l2.227,-1.728l2.342,-1.652l2.42,-1.498l2.496,-1.382l2.573,-1.267l2.611,-1.076l2.688,-0.998l2.727,-0.807l2.765,-0.691l2.803,-0.538l2.842,-0.384l2.842,-0.268l2.842,-0.077l2.841,0.038l2.842,0.192l2.842,0.384l2.803,0.5l2.804,0.652l2.726,0.768l2.689,0.922l11.789,-43.972l0.154,-0.806l-0.039,-0.845l-0.153,-0.845l-0.308,-0.768l-0.46,-0.691l-0.576,-0.615l-0.692,-0.499l-1.152,-0.768l-1.113,-0.883l-0.999,-0.96l-0.883,-1.076l-0.807,-1.19l-0.652,-1.191l-0.576,-1.305l-0.423,-1.344l-0.307,-1.345l-0.154,-1.382l-0.038,-1.421l0.115,-1.383l0.231,-1.382l0.384,-1.344l0.499,-1.306l0.614,-1.267l0.73,-1.191l0.845,-1.113l0.96,-1.037l1.075,-0.922l1.114,-0.806l1.229,-0.73l1.267,-0.576l1.306,-0.461l1.344,-0.346l1.382,-0.192l1.421,-0.076l25.384,-0l0,13.594l-20.852,0l-0.615,0.077l-0.614,0.231l-0.538,0.345l-0.422,0.461l-0.308,0.576l-0.192,0.615l-0.038,0.614l0.115,0.653l0.269,0.576l0.384,0.499l0.499,0.384l1.114,0.768l0.998,0.922l0.922,0.96l0.806,1.075l0.692,1.191l0.537,1.19l0.423,1.306l0.307,1.306l0.115,1.344l0,1.344l-0.115,1.306l-0.269,1.344l-2.189,8.141l99.347,0l4.954,-13.595l-20.967,-4.646l-0.768,-0.231l-0.692,-0.384l-0.614,-0.461l-0.538,-0.576l-0.422,-0.653l-0.307,-0.691l-0.192,-0.768l-0.039,-0.768l0.077,-0.768l0.23,-0.768l0.346,-0.691l0.461,-0.653l0.537,-0.538l0.653,-0.422l0.692,-0.346l0.768,-0.192l0.768,-0.077l46.927,0l0.461,0.077l0.423,0.192l0.383,0.269l0.27,0.384l0.192,0.422l0.076,0.461l-0.076,0.461l-0.424,1.498l-0.613,1.459l-0.73,1.344l-0.845,1.306l-0.998,1.229l-1.076,1.114l-1.19,0.998l-1.306,0.883l-1.344,0.768l-1.421,0.615l-1.497,0.499l-1.499,0.346l-1.535,0.192l-4.187,11.521l21.468,37.213l2.649,-1.037l2.727,-0.922l2.726,-0.73l2.766,-0.614l2.803,-0.461l2.842,-0.307l2.842,-0.192l2.842,-0l2.841,0.115l2.842,0.307l2.803,0.423l2.804,0.576l2.726,0.691l2.726,0.883l2.651,0.999l2.611,1.152l2.573,1.267l2.458,1.383l2.38,1.536l2.343,1.651l2.227,1.805l2.113,1.882l2.035,1.997l1.92,2.074l1.805,2.227l1.689,2.266l1.575,2.381l1.421,2.458l1.306,2.534l1.19,2.573l1.037,2.65l0.922,2.688l0.73,2.765l0.613,2.765l0.462,2.804l0.345,2.842l0.154,2.842l0.038,2.841l-0.115,2.842l-0.268,2.842l-0.424,2.804l-0.575,2.765l-0.73,2.765l-0.845,2.726l-0.999,2.65l-1.113,2.612l-1.267,2.534l-1.421,2.496l-1.497,2.381l-1.652,2.343l-1.805,2.227l-1.882,2.113l-1.959,2.035l-2.111,1.92l-2.189,1.843l-2.305,1.69l-2.342,1.575l-2.458,1.421l-2.535,1.344l-2.572,1.152l-2.65,1.075l-2.689,0.883l-2.764,0.769l-2.765,0.614l-2.803,0.499l-2.842,0.307l-2.842,0.192l-2.842,0.039l-2.841,-0.115l-2.804,-0.269l-2.842,-0.423l-2.764,-0.537l-2.766,-0.73l-2.727,-0.845l-2.649,-0.998l-2.611,-1.114l-2.574,-1.267l-2.457,-1.383l-2.42,-1.536l-2.303,-1.651l-2.267,-1.728l-2.112,-1.882l-2.035,-1.997l-1.92,-2.112l-1.844,-2.189l-1.689,-2.266l-1.575,-2.381l-1.459,-2.42l-1.344,-2.534l-1.19,-2.573l-1.037,-2.65l-0.922,-2.688l-0.768,-2.727l-0.614,-2.803l-0.499,-2.804l-0.308,-2.803l-5.338,-0l-0.499,1.882l-0.691,1.804l-0.806,1.767l-0.961,1.69l-1.113,1.613l-1.267,1.497l-1.345,1.383l-1.497,1.229l-1.575,1.152l4.685,10.023l9.524,0l-0,7.258l-6.144,0l-0.653,0.769l-0.768,0.691l-0.845,0.537l-0.922,0.384l-0.998,0.231l-1.037,0.115l-0.998,-0.115l-0.999,-0.231l-0.922,-0.384l-0.883,-0.537l-0.729,-0.691l-0.653,-0.769l-6.145,0l0,-7.258l6.145,0l-3.418,-7.335l-1.843,0.461l-1.844,0.307l-1.881,0.192l-1.921,0l-1.881,-0.153l-1.882,-0.308l-1.805,-0.46l-1.805,-0.615l-1.728,-0.768l-1.69,-0.922l-1.574,-1.036l-1.498,-1.153l-1.382,-1.305l-1.268,-1.383l-1.152,-1.498l-1.037,-1.612l-0.883,-1.652l-0.729,-1.766l-0.615,-1.805l-0.422,-1.844l-0.308,-1.843l-0.115,-1.92l0,-1.882l0.192,-1.882l0.346,-1.843l0.499,-1.843l-63.057,-44.126l-1.766,6.567l2.304,1.728l2.189,1.805l2.074,1.959l1.996,2.035l1.882,2.151l1.728,2.227l1.652,2.343l1.536,2.419l1.382,2.496l1.229,2.535l1.152,2.65l0.96,2.65l0.845,2.726l0.691,2.765l0.538,2.804l0.422,2.842l0.269,2.841l0.077,2.842l-0.038,2.842l-0.192,2.842l-0.346,2.842l-0.499,2.803l-0.615,2.765l-0.806,2.765l-0.922,2.689l-1.037,2.649l-1.229,2.573l-1.305,2.535l-1.498,2.458l-1.574,2.342l-1.729,2.305l-1.804,2.189l-1.959,2.073l-2.035,1.997l-2.151,1.844l-2.266,1.766l-2.304,1.652l-2.419,1.497l-2.496,1.383l-2.573,1.267l-2.612,1.114l-2.688,0.96l-2.726,0.845l-2.765,0.691l-2.804,0.538l-2.841,0.422l-2.804,0.231l-2.88,0.115l-2.842,-0.039l-2.842,-0.192l-2.841,-0.345l-2.804,-0.499l-2.765,-0.653l-2.765,-0.768l-2.688,-0.922l-2.65,-1.075l-2.573,-1.229l-2.534,-1.306l-2.42,-1.498l-2.38,-1.574l-2.266,-1.728l-2.189,-1.844l-2.074,-1.92l-1.997,-2.074l-1.882,-2.15l-1.728,-2.228l-1.651,-2.342l-1.498,-2.42l-1.382,-2.496l-1.267,-2.573l-1.114,-2.611l-0.96,-2.689l-0.845,-2.726l-0.691,-2.765l-0.538,-2.804l-0.384,-2.803l-0.269,-2.842l-0.077,-2.88l0.039,-2.842Zm186.098,-15.592l1.498,1.267l1.421,1.383l1.267,1.536l1.114,1.613l0.998,1.69l0.845,1.766l0.691,1.844l0.499,1.92l5.338,-0l0.308,-2.804l0.499,-2.765l0.614,-2.765l0.768,-2.726l0.884,-2.688l1.036,-2.612l1.191,-2.573l1.305,-2.496l1.421,-2.42l1.574,-2.381l1.652,-2.265l1.805,-2.189l1.92,-2.074l1.997,-1.959l2.112,-1.881l2.189,-1.767l-15.783,-27.343l-19.163,52.689Zm31.644,6.183l-0.654,2.266l-0.537,2.266l-0.384,2.304l27.036,-0l-13.902,-24.079l-1.729,1.575l-1.613,1.651l-1.535,1.766l-1.422,1.882l-1.305,1.92l-1.19,2.036l-1.076,2.074l-0.921,2.15l-0.768,2.189Zm-59.946,11.828l0.076,1.421l0.192,1.421l0.346,1.383l0.499,1.344l0.615,1.267l0.729,1.229l0.845,1.152l0.96,1.037l1.037,0.96l1.152,0.845l1.229,0.73l1.267,0.614l1.344,0.499l1.383,0.346l1.421,0.192l1.421,0.077l1.421,-0.077l1.42,-0.192l1.383,-0.346l1.344,-0.499l1.267,-0.614l1.229,-0.73l1.152,-0.845l1.037,-0.96l0.96,-1.037l0.845,-1.152l0.73,-1.229l0.614,-1.267l0.499,-1.344l0.346,-1.383l0.192,-1.421l0.077,-1.421l-0.077,-1.421l-0.192,-1.421l-0.346,-1.382l-0.499,-1.344l-0.614,-1.267l-0.73,-1.229l-0.845,-1.152l-0.96,-1.037l-1.037,-0.96l-1.152,-0.845l-1.229,-0.73l-1.267,-0.614l-1.344,-0.5l-1.383,-0.345l-1.42,-0.192l-1.421,-0.077l-1.421,0.077l-1.421,0.192l-1.383,0.345l-1.344,0.5l-1.267,0.614l-1.229,0.73l-1.152,0.845l-1.037,0.96l-0.96,1.037l-0.845,1.152l-0.729,1.229l-0.615,1.267l-0.499,1.344l-0.346,1.382l-0.192,1.421l-0.076,1.421Zm98.233,4.993l-39.862,-0l0.384,2.381l0.537,2.342l0.692,2.305l0.845,2.227l0.96,2.227l1.114,2.113l1.228,2.073l1.383,1.997l1.497,1.882l1.614,1.767l1.689,1.689l1.844,1.575l1.92,1.459l1.997,1.344l2.074,1.191l2.149,1.075l2.228,0.922l2.266,0.806l2.304,0.653l2.381,0.461l2.381,0.384l2.381,0.192l2.419,0.038l2.381,-0.115l2.381,-0.269l2.381,-0.384l2.343,-0.576l2.304,-0.691l2.266,-0.845l2.188,-0.998l2.112,-1.114l2.075,-1.267l1.957,-1.383l1.883,-1.498l1.766,-1.613l1.652,-1.728l1.574,-1.843l1.459,-1.92l1.306,-2.036l1.191,-2.073l1.036,-2.151l0.922,-2.227l0.768,-2.305l0.614,-2.304l0.5,-2.342l0.306,-2.381l0.192,-2.42l0.039,-2.419l-0.115,-2.381l-0.307,-2.381l-0.422,-2.381l-0.576,-2.343l-0.731,-2.266l-0.845,-2.265l-0.998,-2.189l-1.151,-2.113l-1.268,-2.035l-1.421,-1.958l-1.497,-1.882l-1.652,-1.767l-1.728,-1.651l-1.844,-1.536l-1.92,-1.421l-2.034,-1.306l-2.113,-1.152l-2.15,-1.037l-2.228,-0.922l-2.304,-0.729l-2.342,-0.615l-2.343,-0.461l-2.381,-0.307l-2.419,-0.192l-2.381,0l-2.419,0.154l-2.381,0.307l-2.343,0.423l-2.342,0.614l-2.305,0.73l19.278,33.372l0.385,0.768l0.192,0.845l0.076,0.883l-0.076,0.845l-0.192,0.845l-0.385,0.807l-0.499,0.691l-0.615,0.614l-0.729,0.5l-0.768,0.384l-0.845,0.23l-0.883,0.077Zm-237.558,-17.704l-0.729,2.266l-0.576,2.342l-0.461,2.343l-0.269,2.381l-0.153,2.381l0.038,2.381l0.154,2.419l0.307,2.343l0.461,2.342l0.614,2.343l0.73,2.266l0.921,2.227l0.999,2.151l1.19,2.074l1.268,2.035l1.42,1.92l1.537,1.844l1.651,1.728l1.766,1.613l1.844,1.536l1.92,1.382l2.035,1.268l2.112,1.152l2.151,0.998l2.266,0.883l2.265,0.73l2.304,0.576l2.381,0.423l2.343,0.307l2.419,0.153l2.381,-0.038l2.381,-0.154l2.381,-0.307l2.343,-0.461l2.304,-0.614l2.266,-0.73l2.227,-0.883l2.15,-1.037l2.113,-1.152l1.997,-1.306l1.958,-1.421l1.805,-1.536l1.766,-1.651l1.613,-1.728l1.536,-1.844l1.383,-1.958l1.267,-2.036l1.152,-2.073l0.999,-2.189l0.883,-2.228l0.73,-2.266l0.576,-2.342l0.461,-2.343l0.268,-2.381l0.154,-2.381l-0,-2.381l-0.192,-2.381l-0.307,-2.381l-0.461,-2.342l-0.576,-2.343l-0.768,-2.266l-0.883,-2.227l-1.037,-2.151l-1.152,-2.074l-1.268,-2.035l-1.421,-1.92l-1.536,-1.843l-1.651,-1.729l-3.072,11.406l-0.576,1.959l-0.768,1.92l-0.845,1.843l-0.999,1.805l-1.152,1.69l-1.229,1.613l-1.344,1.536l-1.459,1.459l-1.574,1.306l-1.652,1.229l-1.728,1.114l-1.766,0.96l-1.882,0.845l-1.92,0.691l-1.959,0.576l-1.997,0.461l-0.883,0.077l-0.883,-0.077l-0.845,-0.192l-0.806,-0.346l-0.73,-0.461l-0.653,-0.576l-0.576,-0.691l-0.461,-0.73l-0.307,-0.845l-0.192,-0.844l-0.038,-0.884l0.115,-0.845l0.23,-0.844l0.384,-0.807l0.499,-0.73l0.577,-0.652l0.729,-0.5l1.959,-1.382l1.92,-1.536l1.805,-1.652l1.651,-1.728l1.575,-1.882l1.42,-1.958l1.268,-2.074l1.152,-2.112l1.037,-2.228l0.844,-2.265l0.692,-2.343l2.496,-9.332l-2.227,-0.883l-2.266,-0.691l-2.343,-0.615l-2.342,-0.422l-2.381,-0.269l-2.381,-0.154l-2.381,0.039l-2.381,0.153l-2.381,0.307l-2.343,0.461l-2.342,0.615l-2.266,0.768l-2.189,0.883l-2.189,1.037l-2.074,1.152l-1.996,1.306l-1.959,1.421l-1.805,1.536l-1.766,1.651l-1.613,1.728l-1.498,1.844l-1.421,1.958l-1.267,2.036l-1.114,2.112l-1.037,2.15l-0.845,2.228Zm140.016,-5.261l1.459,-1.037l-4.685,-10.024l-9.524,0l0,-7.258l6.145,0l0.614,-0.768l0.768,-0.691l0.883,-0.538l0.922,-0.384l0.998,-0.269l0.999,-0.076l1.037,0.076l0.998,0.269l0.922,0.384l0.845,0.538l0.768,0.691l0.653,0.768l6.144,0l0,7.258l-6.144,0l3.417,7.335l1.844,-0.499l1.92,-0.307l1.92,-0.154l1.92,0l18.164,-49.924l-98.041,0l-2.035,7.604l67.089,47.006Z"/></g></svg>