<?xml version="1.0" encoding="UTF-8" standalone="no"?><!DOCTYPE svg PUBLIC "-//W3C//DTD SVG 1.1//EN" "http://www.w3.org/Graphics/SVG/1.1/DTD/svg11.dtd"><svg width="100%" height="100%" viewBox="0 0 454 454" version="1.1" xmlns="http://www.w3.org/2000/svg" xmlns:xlink="http://www.w3.org/1999/xlink" xml:space="preserve" xmlns:serif="http://www.serif.com/" style="fill-rule:evenodd;clip-rule:evenodd;stroke-linejoin:round;stroke-miterlimit:2;"><g transform="matrix(64.5901,0,0,64.5901,348.525,225.952)"></g><text x="106.154px" y="225.952px" style="font-family:'ArialMT', 'Arial', sans-serif;font-size:64.59px;">sw=38.4</text><g id="_952-No-Buses" serif:id="952 No Buses"><circle cx="226.772" cy="226.772" r="226.772" style="fill:#e31837;"/><circle cx="226.772" cy="226.772" r="181.417" style="fill:#fff;"/><path d="M313.099,265.53l0.36,-1.761l0.2,-1.721l0,-1.8l-0.12,-1.76l-0.28,-1.721l-0.48,-1.72l-0.6,-1.641l-0.76,-1.6l-0.92,-1.521l-1.04,-1.4l-1.2,-1.32l-1.28,-1.201l-1.4,-1.08l-1.48,-0.961l-1.6,-0.8l-1.64,-0.64l-1.68,-0.48l-1.76,-0.32l-1.76,-0.16l-1.76,-0l-1.76,0.16l-1.72,0.32l-1.72,0.48l-1.64,0.64l-1.56,0.8l-1.52,0.961l-1.4,1.08l-1.281,1.201l-1.2,1.32l-1.039,1.4l-0.92,1.521l-0.76,1.6l-0.6,1.641l-0.44,1.72l-0.32,1.721l-0.12,1.76l0.04,1.8l0.2,1.721l0.36,1.761l-114.601,-0l0.36,-1.761l0.2,-1.721l0.04,-1.8l-0.12,-1.76l-0.32,-1.721l-0.44,-1.72l-0.64,-1.641l-0.76,-1.6l-0.92,-1.521l-1.04,-1.4l-1.16,-1.32l-1.32,-1.201l-1.401,-1.08l-1.479,-0.961l-1.56,-0.8l-1.68,-0.64l-1.68,-0.48l-1.72,-0.32l-1.76,-0.16l-1.8,-0l-1.721,0.16l-1.759,0.32l-1.68,0.48l-1.64,0.64l-1.601,0.8l-1.48,0.961l-1.399,1.08l-1.32,1.201l-1.16,1.32l-1.041,1.4l-0.92,1.521l-0.76,1.6l-0.639,1.641l-0.44,1.72l-0.28,1.721l-0.16,1.76l0.04,1.8l0.2,1.721l0.36,1.761l-41.241,-0l-1.079,-0.08l-1.121,-0.24l-1.04,-0.36l-1,-0.48l-0.92,-0.601l-0.84,-0.76l-0.72,-0.801l-0.64,-0.96l-0.479,-1l-0.361,-1.04l-0.2,-1.081l-0.08,-1.12l0,-30.248l0.08,-0.721l0.2,-0.72l0.361,-0.64l0.439,-0.6l0.6,-0.44l0.64,-0.36l0.72,-0.2l0.72,-0.08l1.72,-40.852l0.08,-0.8l0.24,-0.761l0.36,-0.72l0.48,-0.64l0.601,-0.56l0.64,-0.44l0.719,-0.32l0.8,-0.2l0.8,-0.08l273.242,-0l1.76,0.08l1.72,0.24l1.721,0.4l1.638,0.56l1.601,0.72l1.52,0.84l1.441,0.961l1.358,1.12l1.241,1.24l1.08,1.361l1,1.44l0.84,1.52l0.72,1.601l0.561,1.641l0.399,1.72l0.24,1.72l0.081,1.721l-0,56.736l-64.841,12.284Zm-183.961,-0.36l-0.36,-1.441l-0.24,-1.441l-0.04,-1.479l0.04,-1.481l0.24,-1.481l0.36,-1.44l0.48,-1.4l0.64,-1.361l0.76,-1.24l0.88,-1.2l0.999,-1.121l1.12,-1l1.201,-0.881l1.24,-0.759l1.36,-0.64l1.4,-0.481l1.439,-0.36l1.481,-0.24l1.48,-0.04l1.48,0.04l1.44,0.24l1.44,0.36l1.4,0.481l1.36,0.64l1.28,0.759l1.16,0.881l1.119,1l1.001,1.121l0.88,1.2l0.76,1.24l0.64,1.361l0.48,1.4l0.36,1.44l0.24,1.481l0.08,1.481l-0.08,1.479l-0.24,1.441l-0.36,1.441l-0.48,1.4l-0.64,1.36l-0.76,1.281l-0.88,1.16l-1.001,1.12l-1.119,1.001l-1.16,0.88l-1.28,0.76l-1.36,0.64l-1.4,0.48l-1.44,0.36l-1.44,0.24l-1.48,0.04l-1.48,-0.04l-1.481,-0.24l-1.439,-0.36l-1.4,-0.48l-1.36,-0.64l-1.24,-0.76l-1.201,-0.88l-1.12,-1.001l-0.999,-1.12l-0.88,-1.16l-0.76,-1.281l-0.64,-1.36l-0.48,-1.4Zm151.161,-0l-0.36,-1.441l-0.2,-1.441l-0.08,-1.479l0.08,-1.481l0.2,-1.481l0.36,-1.44l0.519,-1.4l0.64,-1.361l0.761,-1.24l0.88,-1.2l1,-1.121l1.08,-1l1.2,-0.881l1.279,-0.759l1.321,-0.64l1.4,-0.481l1.44,-0.36l1.48,-0.24l1.479,-0.04l1.481,0.04l1.48,0.24l1.44,0.36l1.4,0.481l1.32,0.64l1.28,0.759l1.2,0.881l1.08,1l1,1.121l0.88,1.2l0.76,1.24l0.64,1.361l0.52,1.4l0.36,1.44l0.2,1.481l0.08,1.481l-0.08,1.479l-0.2,1.441l-0.36,1.441l-0.52,1.4l-0.64,1.36l-0.76,1.281l-0.88,1.16l-1,1.12l-1.08,1.001l-1.2,0.88l-1.28,0.76l-1.32,0.64l-1.4,0.48l-1.44,0.36l-1.48,0.24l-1.481,0.04l-1.479,-0.04l-1.48,-0.24l-1.44,-0.36l-1.4,-0.48l-1.321,-0.64l-1.279,-0.76l-1.2,-0.88l-1.08,-1.001l-1,-1.12l-0.88,-1.16l-0.761,-1.281l-0.64,-1.36l-0.519,-1.4Zm-143.041,-0.28l0.64,0.84l0.76,0.76l0.84,0.68l0.959,0.48l1.001,0.4l1.08,0.24l1.08,0.081l1.04,-0.081l1.08,-0.24l1,-0.4l0.959,-0.48l0.841,-0.68l0.76,-0.76l0.68,-0.84l0.48,-0.961l0.4,-1l0.24,-1.081l0.08,-1.039l-0.08,-1.081l-0.24,-1.08l-0.4,-1.001l-0.48,-0.96l-0.68,-0.84l-0.76,-0.76l-0.841,-0.641l-0.959,-0.52l-1,-0.4l-1.08,-0.2l-1.04,-0.08l-1.08,0.08l-1.08,0.2l-1.001,0.4l-0.959,0.52l-0.84,0.641l-0.76,0.76l-0.64,0.84l-0.52,0.96l-0.4,1.001l-0.2,1.08l-0.08,1.081l0.08,1.039l0.2,1.081l0.4,1l0.52,0.961Zm151.161,-0l0.64,0.84l0.76,0.76l0.88,0.68l0.96,0.48l1,0.4l1.04,0.24l1.079,0.081l1.081,-0.081l1.04,-0.24l1.04,-0.4l0.92,-0.48l0.88,-0.68l0.76,-0.76l0.64,-0.84l0.52,-0.961l0.36,-1l0.24,-1.081l0.08,-1.039l-0.08,-1.081l-0.24,-1.08l-0.36,-1.001l-0.52,-0.96l-0.64,-0.84l-0.76,-0.76l-0.88,-0.641l-0.92,-0.52l-1.04,-0.4l-1.04,-0.2l-1.081,-0.08l-1.079,0.08l-1.04,0.2l-1,0.4l-0.96,0.52l-0.88,0.641l-0.76,0.76l-0.64,0.84l-0.521,0.96l-0.36,1.001l-0.239,1.08l-0.081,1.081l0.081,1.039l0.239,1.081l0.36,1l0.521,0.961Zm-112.681,-45.693l0.72,-0.08l0.72,-0.2l0.64,-0.361l0.6,-0.44l0.44,-0.6l0.36,-0.64l0.2,-0.721l0.08,-0.72l0,-18.925l-0.08,-0.72l-0.2,-0.72l-0.36,-0.641l-0.44,-0.56l-0.6,-0.48l-0.64,-0.36l-0.72,-0.2l-0.72,-0.08l-45.36,-0l-0.76,0.08l-0.68,0.2l-0.681,0.36l-0.56,0.48l-0.48,0.56l-0.32,0.641l-0.24,0.72l-0.08,0.72l0,18.925l0.08,0.72l0.24,0.721l0.32,0.64l0.48,0.6l0.56,0.44l0.681,0.361l0.68,0.2l0.76,0.08l45.36,-0Zm17,-26.448l-0.76,0.08l-0.68,0.2l-0.68,0.36l-0.56,0.48l-0.481,0.56l-0.319,0.641l-0.24,0.72l-0.08,0.72l-0,18.925l0.08,0.72l0.24,0.721l0.319,0.64l0.481,0.6l0.56,0.44l0.68,0.361l0.68,0.2l0.76,0.08l45.36,-0l0.72,-0.08l0.72,-0.2l0.64,-0.361l0.6,-0.44l0.44,-0.6l0.36,-0.64l0.2,-0.721l0.08,-0.72l0,-18.925l-0.08,-0.72l-0.2,-0.72l-0.36,-0.641l-0.44,-0.56l-0.6,-0.48l-0.64,-0.36l-0.72,-0.2l-0.72,-0.08l-45.36,-0Zm170.081,26.448l0.721,-0.08l0.72,-0.2l0.638,-0.361l0.601,-0.44l0.439,-0.6l0.361,-0.64l0.24,-0.721l0.039,-0.72l0,-11.363l-0.079,-1.361l-0.24,-1.32l-0.401,-1.32l-0.559,-1.241l-0.72,-1.2l-0.84,-1.08l-0.96,-0.96l-1.08,-0.841l-1.16,-0.72l-1.28,-0.56l-1.28,-0.4l-1.36,-0.24l-1.36,-0.08l-37.8,-0l-0.72,0.08l-0.72,0.2l-0.64,0.36l-0.6,0.48l-0.48,0.56l-0.32,0.641l-0.24,0.72l-0.04,0.72l0,18.925l0.04,0.72l0.24,0.721l0.32,0.64l0.48,0.6l0.6,0.44l0.64,0.361l0.72,0.2l0.72,0.08l45.36,-0Zm-268.362,33.089l0.08,0.72l0.2,0.72l0.36,0.64l0.48,0.601l0.561,0.48l0.68,0.32l0.68,0.24l0.759,0.04l11.321,-0l0.76,-0.04l0.68,-0.24l0.679,-0.32l0.56,-0.48l0.48,-0.601l0.32,-0.64l0.24,-0.72l0.08,-0.72l0,-55.776l-0.08,-0.72l-0.24,-0.72l-0.32,-0.641l-0.48,-0.56l-0.56,-0.48l-0.679,-0.36l-0.68,-0.2l-0.76,-0.08l-11.321,-0l-0.759,0.08l-0.68,0.2l-0.68,0.36l-0.561,0.48l-0.48,0.56l-0.36,0.641l-0.2,0.72l-0.08,0.72l0,55.776Zm160.641,-59.537l-0.72,0.08l-0.72,0.2l-0.68,0.36l-0.56,0.48l-0.479,0.56l-0.32,0.641l-0.24,0.72l-0.08,0.72l-0,18.925l0.08,0.72l0.24,0.721l0.32,0.64l0.479,0.6l0.56,0.44l0.68,0.361l0.72,0.2l0.72,0.08l45.361,-0l0.72,-0.08l0.72,-0.2l0.64,-0.361l0.6,-0.44l0.44,-0.6l0.36,-0.64l0.2,-0.721l0.08,-0.72l-0,-18.925l-0.08,-0.72l-0.2,-0.72l-0.36,-0.641l-0.44,-0.56l-0.6,-0.48l-0.64,-0.36l-0.72,-0.2l-0.72,-0.08l-45.361,-0Z"/></g></svg>