<?xml version="1.0" encoding="UTF-8" standalone="no"?><!DOCTYPE svg PUBLIC "-//W3C//DTD SVG 1.1//EN" "http://www.w3.org/Graphics/SVG/1.1/DTD/svg11.dtd"><svg width="100%" height="100%" viewBox="0 0 454 454" version="1.1" xmlns="http://www.w3.org/2000/svg" xmlns:xlink="http://www.w3.org/1999/xlink" xml:space="preserve" xmlns:serif="http://www.serif.com/" style="fill-rule:evenodd;clip-rule:evenodd;stroke-linejoin:round;stroke-miterlimit:2;"><g transform="matrix(50,0,0,50,321.022,262.709)"></g><text x="133.4px" y="262.709px" style="font-family:'ArialMT', 'Arial', sans-serif;font-size:50px;">sw=38.4</text><g id="_953-Route-for-Bus--Cycles-and-Taxis-Only" serif:id="953 Route for Bus, Cycles and Taxis Only"><circle cx="226.772" cy="226.772" r="226.772" style="fill:#fff;"/><path d="M226.772,0c125.158,0 226.771,101.613 226.771,226.772c0,125.158 -101.613,226.771 -226.771,226.771c-125.159,0 -226.772,-101.613 -226.772,-226.771c-0,-125.159 101.613,-226.772 226.772,-226.772Zm-0,1.181c-124.507,0 -225.591,101.084 -225.591,225.591c0,124.506 101.084,225.59 225.591,225.59c124.506,0 225.59,-101.084 225.59,-225.59c0,-124.507 -101.084,-225.591 -225.59,-225.591Z" style="fill:#0079c1;"/><circle cx="226.772" cy="226.772" r="217.701" style="fill:#0079c1;"/><path d="M334.62,275.195l0.45,-2.199l0.25,-2.15l-0,-2.249l-0.15,-2.198l-0.35,-2.15l-0.599,-2.149l-0.75,-2.05l-0.95,-1.999l-1.149,-1.9l-1.299,-1.749l-1.499,-1.649l-1.599,-1.5l-1.749,-1.349l-1.849,-1.2l-1.999,-1l-2.048,-0.799l-2.099,-0.601l-2.199,-0.399l-2.199,-0.2l-2.198,-0l-2.199,0.2l-2.149,0.399l-2.148,0.601l-2.049,0.799l-1.949,1l-1.899,1.2l-1.749,1.349l-1.599,1.5l-1.499,1.649l-1.299,1.749l-1.149,1.9l-0.95,1.999l-0.749,2.05l-0.55,2.149l-0.4,2.15l-0.15,2.198l0.05,2.249l0.25,2.15l0.45,2.199l-143.163,0l0.45,-2.199l0.25,-2.15l0.049,-2.249l-0.149,-2.198l-0.4,-2.15l-0.55,-2.149l-0.8,-2.05l-0.948,-1.999l-1.15,-1.9l-1.299,-1.749l-1.449,-1.649l-1.649,-1.5l-1.749,-1.349l-1.849,-1.2l-1.949,-1l-2.099,-0.799l-2.099,-0.601l-2.148,-0.399l-2.198,-0.2l-2.249,-0l-2.149,0.2l-2.198,0.399l-2.099,0.601l-2.049,0.799l-1.999,1l-1.849,1.2l-1.748,1.349l-1.65,1.5l-1.449,1.649l-1.299,1.749l-1.15,1.9l-0.949,1.999l-0.799,2.05l-0.55,2.149l-0.349,2.15l-0.2,2.198l0.05,2.249l0.25,2.15l0.449,2.199l-51.519,0l-1.348,-0.1l-1.4,-0.3l-1.299,-0.449l-1.249,-0.6l-1.15,-0.75l-1.049,-0.95l-0.9,-1l-0.799,-1.199l-0.599,-1.25l-0.45,-1.299l-0.25,-1.35l-0.1,-1.399l0,-37.787l0.1,-0.901l0.25,-0.899l0.45,-0.8l0.549,-0.75l0.749,-0.549l0.8,-0.45l0.899,-0.25l0.9,-0.1l2.149,-51.033l0.1,-1l0.3,-0.95l0.449,-0.899l0.6,-0.8l0.75,-0.7l0.799,-0.55l0.899,-0.4l0.999,-0.249l1,-0.1l341.342,-0l2.198,0.1l2.15,0.299l2.149,0.5l2.047,0.7l2,0.9l1.898,1.049l1.8,1.2l1.697,1.399l1.55,1.55l1.35,1.7l1.249,1.799l1.049,1.899l0.899,2l0.701,2.049l0.499,2.149l0.299,2.149l0.101,2.149l0,70.877l-81.001,15.345Zm-229.81,-0.45l-0.45,-1.799l-0.3,-1.8l-0.05,-1.849l0.05,-1.849l0.3,-1.85l0.45,-1.799l0.6,-1.749l0.799,-1.7l0.95,-1.55l1.099,-1.499l1.249,-1.4l1.399,-1.249l1.499,-1.1l1.55,-0.949l1.699,-0.8l1.749,-0.6l1.798,-0.45l1.849,-0.3l1.849,-0.05l1.849,0.05l1.799,0.3l1.798,0.45l1.75,0.6l1.699,0.8l1.599,0.949l1.449,1.1l1.399,1.249l1.249,1.4l1.099,1.499l0.95,1.55l0.799,1.7l0.6,1.749l0.45,1.799l0.3,1.85l0.1,1.849l-0.1,1.849l-0.3,1.8l-0.45,1.799l-0.6,1.75l-0.799,1.699l-0.95,1.6l-1.099,1.45l-1.249,1.399l-1.399,1.25l-1.449,1.099l-1.599,0.949l-1.699,0.801l-1.75,0.599l-1.798,0.45l-1.799,0.3l-1.849,0.05l-1.849,-0.05l-1.849,-0.3l-1.798,-0.45l-1.749,-0.599l-1.699,-0.801l-1.55,-0.949l-1.499,-1.099l-1.399,-1.25l-1.249,-1.399l-1.099,-1.45l-0.95,-1.6l-0.799,-1.699l-0.6,-1.75Zm188.836,0l-0.45,-1.799l-0.25,-1.8l-0.1,-1.849l0.1,-1.849l0.25,-1.85l0.45,-1.799l0.648,-1.749l0.8,-1.7l0.95,-1.55l1.099,-1.499l1.249,-1.4l1.35,-1.249l1.499,-1.1l1.598,-0.949l1.649,-0.8l1.749,-0.6l1.8,-0.45l1.849,-0.3l1.848,-0.05l1.849,0.05l1.849,0.3l1.799,0.45l1.749,0.6l1.648,0.8l1.6,0.949l1.499,1.1l1.349,1.249l1.249,1.4l1.1,1.499l0.949,1.55l0.799,1.7l0.65,1.749l0.45,1.799l0.249,1.85l0.1,1.849l-0.1,1.849l-0.249,1.8l-0.45,1.799l-0.65,1.75l-0.799,1.699l-0.949,1.6l-1.1,1.45l-1.249,1.399l-1.349,1.25l-1.499,1.099l-1.6,0.949l-1.648,0.801l-1.749,0.599l-1.799,0.45l-1.849,0.3l-1.849,0.05l-1.848,-0.05l-1.849,-0.3l-1.8,-0.45l-1.749,-0.599l-1.649,-0.801l-1.598,-0.949l-1.499,-1.099l-1.35,-1.25l-1.249,-1.399l-1.099,-1.45l-0.95,-1.6l-0.8,-1.699l-0.648,-1.75Zm-178.692,-0.349l0.8,1.049l0.949,0.95l1.05,0.85l1.198,0.599l1.249,0.5l1.35,0.3l1.349,0.1l1.299,-0.1l1.35,-0.3l1.249,-0.5l1.199,-0.599l1.049,-0.85l0.95,-0.95l0.849,-1.049l0.6,-1.2l0.5,-1.25l0.299,-1.349l0.1,-1.3l-0.1,-1.35l-0.299,-1.349l-0.5,-1.25l-0.6,-1.199l-0.849,-1.05l-0.95,-0.949l-1.049,-0.801l-1.199,-0.649l-1.249,-0.5l-1.35,-0.25l-1.299,-0.1l-1.349,0.1l-1.35,0.25l-1.249,0.5l-1.198,0.649l-1.05,0.801l-0.949,0.949l-0.8,1.05l-0.65,1.199l-0.499,1.25l-0.25,1.349l-0.1,1.35l0.1,1.3l0.25,1.349l0.499,1.25l0.65,1.2Zm188.835,-0l0.799,1.049l0.95,0.95l1.099,0.85l1.2,0.599l1.249,0.5l1.299,0.3l1.349,0.1l1.349,-0.1l1.299,-0.3l1.3,-0.5l1.149,-0.599l1.1,-0.85l0.949,-0.95l0.8,-1.049l0.649,-1.2l0.449,-1.25l0.3,-1.349l0.1,-1.3l-0.1,-1.35l-0.3,-1.349l-0.449,-1.25l-0.649,-1.199l-0.8,-1.05l-0.949,-0.949l-1.1,-0.801l-1.149,-0.649l-1.3,-0.5l-1.299,-0.25l-1.349,-0.1l-1.349,0.1l-1.299,0.25l-1.249,0.5l-1.2,0.649l-1.099,0.801l-0.95,0.949l-0.799,1.05l-0.65,1.199l-0.45,1.25l-0.299,1.349l-0.101,1.35l0.101,1.3l0.299,1.349l0.45,1.25l0.65,1.2Zm-140.765,-57.081l0.9,-0.1l0.899,-0.25l0.8,-0.451l0.75,-0.549l0.549,-0.75l0.45,-0.799l0.25,-0.901l0.1,-0.899l-0,-23.643l-0.1,-0.899l-0.25,-0.899l-0.45,-0.801l-0.549,-0.699l-0.75,-0.6l-0.8,-0.45l-0.899,-0.25l-0.9,-0.1l-56.665,-0l-0.949,0.1l-0.85,0.25l-0.849,0.45l-0.7,0.6l-0.6,0.699l-0.4,0.801l-0.299,0.899l-0.1,0.899l-0,23.643l0.1,0.899l0.299,0.901l0.4,0.799l0.6,0.75l0.7,0.549l0.849,0.451l0.85,0.25l0.949,0.1l56.665,-0Zm21.238,-33.04l-0.95,0.1l-0.849,0.25l-0.85,0.45l-0.7,0.6l-0.6,0.699l-0.399,0.801l-0.3,0.899l-0.1,0.899l0,23.643l0.1,0.899l0.3,0.901l0.399,0.799l0.6,0.75l0.7,0.549l0.85,0.451l0.849,0.25l0.95,0.1l56.665,-0l0.899,-0.1l0.9,-0.25l0.799,-0.451l0.75,-0.549l0.55,-0.75l0.45,-0.799l0.249,-0.901l0.1,-0.899l0,-23.643l-0.1,-0.899l-0.249,-0.899l-0.45,-0.801l-0.55,-0.699l-0.75,-0.6l-0.799,-0.45l-0.9,-0.25l-0.899,-0.1l-56.665,-0Zm212.47,33.04l0.9,-0.1l0.9,-0.25l0.798,-0.451l0.75,-0.549l0.549,-0.75l0.451,-0.799l0.299,-0.901l0.05,-0.899l-0,-14.196l-0.1,-1.699l-0.299,-1.649l-0.501,-1.65l-0.699,-1.55l-0.899,-1.499l-1.05,-1.35l-1.199,-1.199l-1.349,-1.05l-1.449,-0.899l-1.599,-0.7l-1.599,-0.5l-1.699,-0.3l-1.699,-0.1l-47.221,-0l-0.9,0.1l-0.899,0.25l-0.799,0.45l-0.75,0.6l-0.599,0.699l-0.4,0.801l-0.3,0.899l-0.05,0.899l-0,23.643l0.05,0.899l0.3,0.901l0.4,0.799l0.599,0.75l0.75,0.549l0.799,0.451l0.899,0.25l0.9,0.1l56.665,-0Zm-335.246,41.335l0.1,0.901l0.25,0.899l0.45,0.799l0.6,0.751l0.699,0.599l0.85,0.4l0.85,0.3l0.948,0.05l14.142,-0l0.95,-0.05l0.849,-0.3l0.849,-0.4l0.7,-0.599l0.599,-0.751l0.4,-0.799l0.3,-0.899l0.1,-0.901l-0,-69.677l-0.1,-0.899l-0.3,-0.899l-0.4,-0.801l-0.599,-0.699l-0.7,-0.6l-0.849,-0.45l-0.849,-0.25l-0.95,-0.1l-14.142,-0l-0.948,0.1l-0.85,0.25l-0.85,0.45l-0.699,0.6l-0.6,0.699l-0.45,0.801l-0.25,0.899l-0.1,0.899l0,69.677Zm200.678,-74.375l-0.899,0.1l-0.9,0.25l-0.849,0.45l-0.7,0.6l-0.599,0.699l-0.4,0.801l-0.3,0.899l-0.099,0.899l-0,23.643l0.099,0.899l0.3,0.901l0.4,0.799l0.599,0.75l0.7,0.549l0.849,0.451l0.9,0.25l0.899,0.1l56.666,-0l0.9,-0.1l0.898,-0.25l0.8,-0.451l0.75,-0.549l0.549,-0.75l0.45,-0.799l0.25,-0.901l0.1,-0.899l-0,-23.643l-0.1,-0.899l-0.25,-0.899l-0.45,-0.801l-0.549,-0.699l-0.75,-0.6l-0.8,-0.45l-0.898,-0.25l-0.9,-0.1l-56.666,-0Z" style="fill:#fff;"/></g></svg>