<?xml version="1.0" encoding="UTF-8" standalone="no"?><!DOCTYPE svg PUBLIC "-//W3C//DTD SVG 1.1//EN" "http://www.w3.org/Graphics/SVG/1.1/DTD/svg11.dtd"><svg width="100%" height="100%" viewBox="0 0 454 454" version="1.1" xmlns="http://www.w3.org/2000/svg" xmlns:xlink="http://www.w3.org/1999/xlink" xml:space="preserve" xmlns:serif="http://www.serif.com/" style="fill-rule:evenodd;clip-rule:evenodd;stroke-linejoin:round;stroke-miterlimit:2;"><g transform="matrix(50,0,0,50,321.022,244.423)"></g><text x="133.4px" y="244.423px" style="font-family:'ArialMT', 'Arial', sans-serif;font-size:50px;">sw=38.4</text><g id="_953B-Route-for-Buses--Cycles--Motorcycles-and-Taxis" serif:id="953B Route for Buses, Cycles, Motorcycles and Taxis"><circle cx="226.772" cy="226.772" r="226.772" style="fill:#fff;"/><path d="M226.772,0c125.158,0 226.771,101.613 226.771,226.772c0,125.158 -101.613,226.771 -226.771,226.771c-125.159,0 -226.772,-101.613 -226.772,-226.771c0,-125.159 101.613,-226.772 226.772,-226.772Zm-0,1.181c-124.507,0 -225.591,101.084 -225.591,225.591c0,124.506 101.084,225.59 225.591,225.59c124.506,0 225.59,-101.084 225.59,-225.59c0,-124.507 -101.084,-225.591 -225.59,-225.591Z" style="fill:#0079c1;"/><circle cx="226.772" cy="226.772" r="217.701" style="fill:#0079c1;"/><g><path d="M239.782,159.036l0.096,-1.421l0.173,-1.402l0.249,-1.421l0.327,-1.382l0.403,-1.364l0.461,-1.344l0.537,-1.325l0.596,-1.306l0.672,-1.248l0.729,-1.229l0.807,-1.171l0.864,-1.133l0.922,-1.094l0.96,-1.056l1.037,-0.98l1.075,-0.94l1.113,-0.865l1.172,-0.825l1.209,-0.749l1.248,-0.691l1.287,-0.634l1.306,-0.538l1.344,-0.499l1.363,-0.403l1.383,-0.346l1.401,-0.269l1.421,-0.192l1.421,-0.134l1.421,-0.038l1.421,0.019l1.421,0.096l1.421,0.192l1.401,0.249l1.402,0.327l1.363,0.384l1.344,0.461l5.895,-21.986l0.077,-0.403l-0.019,-0.423l-0.077,-0.422l-0.154,-0.384l-0.23,-0.346l-0.288,-0.307l-0.346,-0.25l-0.576,-0.384l-0.557,-0.441l-0.499,-0.481l-0.442,-0.537l-0.403,-0.595l-0.326,-0.596l-0.288,-0.653l-0.211,-0.672l-0.154,-0.672l-0.077,-0.691l-0.019,-0.71l0.058,-0.692l0.115,-0.691l0.192,-0.672l0.249,-0.653l0.308,-0.633l0.364,-0.596l0.423,-0.557l0.48,-0.518l0.538,-0.461l0.556,-0.403l0.615,-0.365l0.633,-0.288l0.653,-0.23l0.672,-0.173l0.692,-0.096l0.71,-0.039l12.692,0l0,6.798l-10.426,-0l-0.307,0.038l-0.308,0.115l-0.268,0.173l-0.212,0.231l-0.153,0.288l-0.096,0.307l-0.02,0.307l0.058,0.327l0.135,0.288l0.192,0.249l0.249,0.192l0.557,0.384l0.499,0.461l0.461,0.48l0.403,0.538l0.346,0.595l0.269,0.595l0.211,0.653l0.154,0.653l0.057,0.672l0,0.672l-0.057,0.653l-0.135,0.672l-1.094,4.071l49.673,-0l2.477,-6.798l-10.484,-2.323l-0.384,-0.115l-0.345,-0.192l-0.308,-0.231l-0.268,-0.288l-0.212,-0.326l-0.153,-0.346l-0.096,-0.384l-0.019,-0.384l0.038,-0.384l0.115,-0.384l0.173,-0.345l0.23,-0.327l0.269,-0.269l0.327,-0.211l0.345,-0.173l0.384,-0.096l0.384,-0.038l23.464,-0l0.23,0.038l0.212,0.096l0.192,0.135l0.134,0.192l0.096,0.211l0.039,0.23l-0.039,0.231l-0.211,0.749l-0.307,0.729l-0.365,0.672l-0.422,0.653l-0.5,0.615l-0.537,0.556l-0.595,0.5l-0.654,0.441l-0.671,0.384l-0.711,0.308l-0.749,0.249l-0.749,0.173l-0.768,0.096l-2.093,5.761l10.734,18.606l1.325,-0.518l1.363,-0.461l1.363,-0.365l1.383,-0.307l1.402,-0.231l1.421,-0.153l1.42,-0.096l1.421,-0l1.421,0.057l1.421,0.154l1.402,0.211l1.401,0.288l1.364,0.346l1.363,0.441l1.325,0.5l1.306,0.576l1.286,0.633l1.229,0.692l1.19,0.768l1.172,0.825l1.113,0.903l1.056,0.941l1.018,0.998l0.96,1.037l0.903,1.114l0.844,1.133l0.788,1.19l0.71,1.229l0.653,1.267l0.595,1.287l0.519,1.325l0.461,1.344l0.364,1.382l0.307,1.383l0.231,1.402l0.172,1.421l0.077,1.42l0.019,1.421l-0.057,1.421l-0.134,1.421l-0.212,1.402l-0.287,1.382l-0.366,1.383l-0.422,1.363l-0.499,1.325l-0.557,1.306l-0.633,1.267l-0.711,1.248l-0.749,1.191l-0.825,1.171l-0.903,1.114l-0.941,1.056l-0.979,1.018l-1.056,0.96l-1.094,0.921l-1.153,0.845l-1.171,0.788l-1.229,0.71l-1.267,0.672l-1.286,0.576l-1.326,0.538l-1.344,0.441l-1.382,0.384l-1.383,0.308l-1.401,0.249l-1.421,0.154l-1.421,0.096l-1.421,0.019l-1.421,-0.058l-1.401,-0.134l-1.421,-0.211l-1.383,-0.269l-1.383,-0.365l-1.363,-0.422l-1.325,-0.499l-1.305,-0.557l-1.287,-0.634l-1.228,-0.691l-1.21,-0.768l-1.152,-0.826l-1.133,-0.864l-1.056,-0.941l-1.018,-0.998l-0.96,-1.057l-0.922,-1.094l-0.845,-1.133l-0.787,-1.19l-0.73,-1.21l-0.671,-1.267l-0.596,-1.287l-0.518,-1.325l-0.461,-1.344l-0.384,-1.363l-0.307,-1.402l-0.25,-1.402l-0.154,-1.401l-2.668,-0l-0.25,0.94l-0.345,0.903l-0.404,0.883l-0.48,0.845l-0.557,0.807l-0.633,0.748l-0.672,0.692l-0.749,0.614l-0.787,0.576l2.342,5.012l4.762,-0l-0,3.629l-3.072,-0l-0.327,0.384l-0.384,0.346l-0.422,0.268l-0.461,0.192l-0.499,0.116l-0.518,0.057l-0.5,-0.057l-0.499,-0.116l-0.461,-0.192l-0.441,-0.268l-0.365,-0.346l-0.327,-0.384l-3.072,-0l0,-3.629l3.072,-0l-1.709,-3.668l-0.921,0.231l-0.922,0.153l-0.941,0.096l-0.96,0l-0.941,-0.076l-0.941,-0.154l-0.902,-0.231l-0.902,-0.307l-0.864,-0.384l-0.845,-0.461l-0.788,-0.518l-0.748,-0.576l-0.692,-0.653l-0.633,-0.691l-0.576,-0.749l-0.519,-0.807l-0.441,-0.825l-0.365,-0.884l-0.307,-0.902l-0.212,-0.922l-0.153,-0.921l-0.058,-0.96l0,-0.941l0.096,-0.941l0.173,-0.922l0.25,-0.922l-31.529,-22.062l-0.883,3.283l1.152,0.864l1.094,0.903l1.037,0.979l0.999,1.018l0.941,1.075l0.864,1.114l0.825,1.171l0.768,1.21l0.692,1.248l0.614,1.267l0.576,1.325l0.48,1.325l0.423,1.363l0.345,1.383l0.269,1.402l0.211,1.42l0.135,1.421l0.038,1.421l-0.019,1.421l-0.096,1.421l-0.173,1.421l-0.25,1.402l-0.307,1.382l-0.403,1.383l-0.461,1.344l-0.518,1.325l-0.615,1.286l-0.653,1.268l-0.748,1.229l-0.788,1.171l-0.864,1.152l-0.902,1.094l-0.979,1.037l-1.018,0.999l-1.075,0.922l-1.133,0.883l-1.152,0.825l-1.21,0.749l-1.248,0.692l-1.287,0.633l-1.305,0.557l-1.344,0.48l-1.364,0.423l-1.382,0.345l-1.402,0.269l-1.421,0.211l-1.401,0.115l-1.441,0.058l-1.42,-0.019l-1.421,-0.096l-1.421,-0.173l-1.402,-0.25l-1.382,-0.326l-1.383,-0.384l-1.344,-0.461l-1.325,-0.538l-1.286,-0.614l-1.268,-0.653l-1.209,-0.749l-1.191,-0.787l-1.133,-0.864l-1.094,-0.922l-1.037,-0.96l-0.998,-1.037l-0.941,-1.075l-0.864,-1.114l-0.826,-1.171l-0.749,-1.21l-0.691,-1.248l-0.634,-1.286l-0.557,-1.306l-0.48,-1.344l-0.422,-1.363l-0.346,-1.383l-0.268,-1.402l-0.192,-1.401l-0.135,-1.421l-0.038,-1.44l0.019,-1.421Zm93.049,-7.796l0.749,0.633l0.71,0.692l0.634,0.768l0.557,0.806l0.499,0.845l0.423,0.883l0.345,0.922l0.25,0.96l2.668,0l0.154,-1.402l0.25,-1.382l0.307,-1.383l0.384,-1.363l0.442,-1.344l0.518,-1.306l0.595,-1.286l0.653,-1.248l0.71,-1.21l0.788,-1.191l0.826,-1.133l0.902,-1.094l0.96,-1.037l0.999,-0.979l1.055,-0.941l1.095,-0.883l-7.892,-13.672l-9.581,26.345Zm15.822,3.091l-0.327,1.133l-0.268,1.133l-0.193,1.152l13.518,0l-6.951,-12.039l-0.864,0.787l-0.806,0.826l-0.768,0.883l-0.711,0.941l-0.652,0.96l-0.596,1.018l-0.537,1.036l-0.461,1.076l-0.384,1.094Zm-29.973,5.914l0.038,0.711l0.096,0.71l0.173,0.692l0.25,0.672l0.307,0.633l0.365,0.615l0.422,0.576l0.48,0.518l0.519,0.48l0.576,0.423l0.614,0.364l0.634,0.308l0.672,0.249l0.691,0.173l0.71,0.096l0.711,0.039l0.71,-0.039l0.711,-0.096l0.691,-0.173l0.672,-0.249l0.634,-0.308l0.614,-0.364l0.576,-0.423l0.519,-0.48l0.48,-0.518l0.422,-0.576l0.365,-0.615l0.307,-0.633l0.25,-0.672l0.173,-0.692l0.096,-0.71l0.038,-0.711l-0.038,-0.71l-0.096,-0.711l-0.173,-0.691l-0.25,-0.672l-0.307,-0.634l-0.365,-0.614l-0.422,-0.576l-0.48,-0.519l-0.519,-0.48l-0.576,-0.422l-0.614,-0.365l-0.634,-0.307l-0.672,-0.25l-0.691,-0.172l-0.711,-0.096l-0.71,-0.039l-0.711,0.039l-0.71,0.096l-0.691,0.172l-0.672,0.25l-0.634,0.307l-0.614,0.365l-0.576,0.422l-0.519,0.48l-0.48,0.519l-0.422,0.576l-0.365,0.614l-0.307,0.634l-0.25,0.672l-0.173,0.691l-0.096,0.711l-0.038,0.71Zm49.117,2.497l-19.932,-0l0.193,1.19l0.268,1.171l0.346,1.152l0.423,1.114l0.48,1.114l0.556,1.056l0.615,1.037l0.691,0.998l0.749,0.941l0.806,0.883l0.845,0.845l0.922,0.788l0.96,0.729l0.998,0.672l1.037,0.596l1.075,0.537l1.114,0.461l1.133,0.403l1.152,0.327l1.191,0.23l1.19,0.192l1.191,0.096l1.209,0.019l1.191,-0.057l1.19,-0.135l1.191,-0.192l1.171,-0.288l1.152,-0.345l1.133,-0.423l1.094,-0.499l1.056,-0.557l1.037,-0.633l0.979,-0.692l0.941,-0.749l0.883,-0.806l0.826,-0.864l0.788,-0.922l0.729,-0.96l0.653,-1.018l0.595,-1.037l0.519,-1.075l0.461,-1.113l0.384,-1.153l0.307,-1.152l0.249,-1.171l0.154,-1.19l0.096,-1.21l0.019,-1.21l-0.058,-1.19l-0.153,-1.191l-0.211,-1.19l-0.288,-1.172l-0.365,-1.133l-0.423,-1.133l-0.499,-1.094l-0.576,-1.056l-0.633,-1.018l-0.711,-0.979l-0.749,-0.941l-0.825,-0.883l-0.865,-0.826l-0.921,-0.768l-0.96,-0.71l-1.018,-0.653l-1.056,-0.576l-1.075,-0.519l-1.114,-0.461l-1.152,-0.364l-1.171,-0.308l-1.171,-0.23l-1.191,-0.154l-1.21,-0.096l-1.19,0l-1.21,0.077l-1.19,0.154l-1.172,0.211l-1.171,0.307l-1.152,0.365l9.639,16.686l0.192,0.384l0.096,0.423l0.039,0.441l-0.039,0.423l-0.096,0.422l-0.192,0.403l-0.249,0.346l-0.308,0.307l-0.365,0.25l-0.383,0.192l-0.423,0.115l-0.441,0.039Zm-118.779,-8.852l-0.365,1.132l-0.288,1.172l-0.231,1.171l-0.134,1.191l-0.077,1.19l0.019,1.191l0.077,1.209l0.154,1.172l0.23,1.171l0.308,1.171l0.364,1.133l0.461,1.114l0.499,1.075l0.596,1.037l0.633,1.018l0.711,0.96l0.768,0.921l0.825,0.865l0.884,0.806l0.921,0.768l0.96,0.691l1.018,0.634l1.056,0.576l1.075,0.499l1.133,0.442l1.133,0.365l1.152,0.288l1.191,0.211l1.171,0.154l1.21,0.076l1.19,-0.019l1.191,-0.077l1.19,-0.153l1.171,-0.231l1.152,-0.307l1.133,-0.365l1.114,-0.441l1.075,-0.519l1.056,-0.576l0.999,-0.653l0.979,-0.71l0.902,-0.768l0.884,-0.826l0.806,-0.864l0.768,-0.922l0.691,-0.979l0.634,-1.018l0.576,-1.037l0.499,-1.094l0.442,-1.114l0.365,-1.133l0.288,-1.171l0.23,-1.171l0.135,-1.191l0.076,-1.19l0,-1.191l-0.096,-1.19l-0.153,-1.191l-0.231,-1.171l-0.288,-1.171l-0.384,-1.133l-0.441,-1.114l-0.519,-1.075l-0.576,-1.037l-0.633,-1.018l-0.711,-0.96l-0.768,-0.922l-0.825,-0.864l-1.537,5.703l-0.288,0.98l-0.384,0.96l-0.422,0.921l-0.499,0.903l-0.576,0.845l-0.615,0.806l-0.672,0.768l-0.729,0.73l-0.788,0.653l-0.825,0.614l-0.864,0.557l-0.884,0.48l-0.94,0.422l-0.961,0.346l-0.979,0.288l-0.998,0.231l-0.442,0.038l-0.442,-0.038l-0.422,-0.096l-0.403,-0.173l-0.365,-0.231l-0.326,-0.288l-0.288,-0.345l-0.231,-0.365l-0.153,-0.423l-0.096,-0.422l-0.02,-0.442l0.058,-0.422l0.115,-0.423l0.192,-0.403l0.25,-0.365l0.288,-0.326l0.365,-0.25l0.979,-0.691l0.96,-0.768l0.902,-0.826l0.826,-0.864l0.787,-0.941l0.711,-0.979l0.633,-1.037l0.576,-1.056l0.519,-1.114l0.422,-1.132l0.346,-1.172l1.248,-4.666l-1.114,-0.441l-1.133,-0.346l-1.171,-0.307l-1.171,-0.212l-1.191,-0.134l-1.19,-0.077l-1.191,0.019l-1.19,0.077l-1.191,0.154l-1.171,0.23l-1.171,0.308l-1.133,0.384l-1.094,0.441l-1.095,0.519l-1.037,0.576l-0.998,0.653l-0.979,0.71l-0.903,0.768l-0.883,0.826l-0.807,0.864l-0.748,0.922l-0.711,0.979l-0.634,1.017l-0.556,1.057l-0.519,1.075l-0.422,1.114Zm70.007,-2.631l0.73,-0.518l-2.342,-5.012l-4.762,-0l-0,-3.629l3.072,-0l0.307,-0.384l0.384,-0.346l0.442,-0.269l0.46,-0.192l0.5,-0.134l0.499,-0.039l0.518,0.039l0.5,0.134l0.46,0.192l0.423,0.269l0.384,0.346l0.326,0.384l3.073,-0l-0,3.629l-3.073,-0l1.709,3.667l0.922,-0.249l0.96,-0.154l0.96,-0.077l0.96,0l9.082,-24.962l-49.02,0l-1.018,3.802l33.544,23.503Z" style="fill:#fff;"/><path d="M40.348,159.203l0.216,-1.536l0.288,-1.512l0.408,-1.488l0.48,-1.488l0.576,-1.44l0.648,-1.392l0.744,-1.369l0.816,-1.32l0.912,-1.248l0.96,-1.224l1.056,-1.128l1.104,-1.08l1.176,-1.008l1.248,-0.936l1.296,-0.864l1.344,-0.793l1.368,-0.696l1.44,-0.6l1.464,-0.528l1.488,-0.432l1.512,-0.336l1.512,-0.264l1.56,-0.144l1.536,-0.072l1.56,0.024l1.536,0.12l1.536,0.216l1.512,0.312l1.512,0.408l1.464,0.504l1.392,-2.4l-1.56,-0.552l-1.584,-0.456l-1.608,-0.36l-1.632,-0.264l-1.632,-0.192l-1.656,-0.072l-1.632,-0l0,-10.345l6.072,-0l1.392,-0.048l1.392,-0.144l1.392,-0.216l1.368,-0.312l1.345,-0.408l1.296,-0.48l1.296,-0.576l1.248,-0.648l1.176,-0.72l1.152,-0.816l1.104,-0.865l1.032,-0.96l0.96,-1.008l0.912,-1.08l0.84,-1.104l0.744,-1.2l11.184,-18.626l0.168,-0.192l0.216,-0.144l0.24,-0.048l0.264,0l0.24,0.096l0.192,0.168l0.144,0.216l0.048,0.24l0,0.264l-5.064,23.738l-0.048,0.481l0.024,0.48l0.12,0.456l0.168,0.432l0.264,0.408l0.336,0.336l0.384,0.288l0.432,0.216l0.456,0.144l0.456,0.048l0.48,-0.024l0.456,-0.12l0.456,-0.192l0.384,-0.264l7.896,-6.313l6.792,-11.689l0.168,-0.336l0.096,-0.36l0.024,-0.384l0,-0.624l-0.672,0.096l-0.696,-0l-0.696,-0.072l-0.648,-0.168l-0.648,-0.24l-0.6,-0.336l-0.576,-0.384l-0.504,-0.48l-0.432,-0.528l-0.384,-0.576l-0.288,-0.624l-0.216,-0.649l-0.12,-0.672l-0.048,-0.696l0,-6.528l-2.184,-0l0,-1.08l0.048,-0.96l0.144,-0.961l0.24,-0.936l0.312,-0.888l0.408,-0.864l0.504,-0.84l0.552,-0.768l0.648,-0.72l0.72,-0.624l0.768,-0.576l0.816,-0.504l0.864,-0.408l0.912,-0.336l0.936,-0.216l0.936,-0.144l0.96,-0.072l0.96,0.048l0.96,0.144l0.912,0.24l0.912,0.312l0.864,0.408l0.841,0.48l0.768,0.576l0.72,0.648l0.648,0.696l0.576,0.768l0.48,0.816l0.432,0.864l0.312,0.912l0.24,0.936l0.144,0.937l0.072,0.96l-0.048,0.96l-0.144,0.96l-0.216,0.912l-0.312,0.912l-0.408,0.864l-0.504,0.84l-0.552,0.768l-0,3.721l2.184,-0l12.552,5.352l12.864,13.945l0.648,0.768l0.576,0.841l0.48,0.888l0.432,0.912l0.312,0.96l0.24,0.984l0.144,1.008l0.048,1.008l0,1.56l23.953,0l0.696,0.048l0.696,0.144l0.672,0.216l0.648,0.312l0.6,0.408l0.528,0.456l0.455,0.552l0.409,0.577l0.312,0.648l0.24,0.672l0.12,0.696l0.047,0.72l0,1.896l1.537,0.72l1.512,0.792l1.44,0.864l1.416,0.96l1.344,1.032l1.272,1.104l1.224,1.153l1.152,1.248l1.08,1.296l1.008,1.368l0.936,1.416l0.864,1.464l0.768,1.512l0.672,1.537l0.6,1.584l0.528,1.608l0.408,1.656l0.336,1.656l0.24,1.68l0.12,1.68l0.048,1.705l-4.896,-0l-0.048,1.512l-0.12,1.536l-0.24,1.512l-0.312,1.488l-0.408,1.488l-0.504,1.441l-0.576,1.416l-0.648,1.368l-0.744,1.344l-0.84,1.272l-0.888,1.248l-0.96,1.176l-1.056,1.128l-1.104,1.056l-1.152,0.985l-1.224,0.936l-1.272,0.84l-1.32,0.768l-1.368,0.672l-1.416,0.6l-1.44,0.528l-1.464,0.432l-1.488,0.336l-1.512,0.264l-1.512,0.144l-1.536,0.072l-1.536,-0.024l-1.512,-0.096l-1.512,-0.216l-1.513,-0.288l-1.464,-0.384l-1.464,-0.456l-1.416,-0.576l-1.392,-0.624l-1.344,-0.72l-1.32,-0.816l-1.248,-0.864l-1.2,-0.96l-1.128,-1.009l-1.08,-1.104l-1.008,-1.128l-0.936,-1.224l-0.864,-1.248l-0.792,-1.32l-45.769,-0l-1.032,-0.048l-1.008,-0.144l-1.008,-0.24l-0.984,-0.336l-0.936,-0.432l-0.888,-0.504l-0.84,-0.6l-0.792,-0.672l-0.696,-0.745l-0.648,-0.816l-0.576,-0.864l-0.456,-0.912l-0.408,-0.96l-0.288,-0.984l-0.192,-1.008l-0.12,-1.032l-0,-1.032l0.024,-1.656l-0.072,-1.657l-0.168,-1.632l-0.264,-1.632l-0.36,-1.608l-0.456,-1.608l-0.552,-1.56l-0.648,-1.512l-0.72,-1.489l-0.816,-1.44l-0.888,-1.392l-0.984,-1.32l-1.032,-1.296l-1.128,-1.2l-1.2,-1.152l-1.248,-1.08l-1.392,2.4l1.176,1.032l1.08,1.08l1.032,1.176l0.96,1.224l0.771,1.106l3.244,7.17l0.017,0.053l0.384,1.488l0.264,1.536l0.192,1.536l0.072,1.537l-0,1.56l-0.096,1.56l-0.192,1.536l-0.288,1.512l-0.36,1.512l-0.48,1.464l-0.552,1.465l-0.648,1.392l-0.72,1.392l-0.816,1.32l-0.888,1.272l-0.96,1.2l-1.032,1.152l-1.104,1.104l-1.152,1.009l-1.248,0.96l-1.272,0.864l-1.32,0.792l-1.393,0.72l-1.416,0.624l-1.44,0.552l-1.488,0.432l-1.512,0.36l-1.536,0.264l-1.536,0.192l-1.536,0.072l-1.56,0l-1.56,-0.12l-1.536,-0.192l-1.512,-0.288l-1.512,-0.384l-1.464,-0.48l-1.44,-0.576l-1.416,-0.648l-1.368,-0.72l-1.32,-0.816l-1.272,-0.912l-1.2,-0.96l-1.152,-1.033l-1.08,-1.128l-1.008,-1.152l-0.96,-1.248l-0.864,-1.272l-0.768,-1.344l-0.72,-1.368l-0.624,-1.44l-0.528,-1.441l-0.432,-1.488l-0.36,-1.512l-0.264,-1.536l-0.168,-1.536l-0.072,-1.56l0.024,-1.536l0.12,-1.561Zm105.458,-18.553l0,16.417l0.048,0.336l0.168,0.288l0.24,0.216l0.312,0.144l0.312,0.024l0.336,-0.072l0.288,-0.168l0.216,-0.24l0.12,-0.312l8.4,-14.713l0.192,-0.216l0.12,-0.264l0.048,-0.288l-0.024,-0.288l-0.096,-0.288l-0.168,-0.24l-0.24,-0.168l-0.264,-0.12l-0.288,-0.048l-9.72,-0Zm12.672,16.633l-0.312,1.152l-0.216,1.152l-0.144,1.201l-0.024,1.176l0.048,1.2l0.144,1.176l0.24,1.176l0.312,1.128l0.432,1.128l0.504,1.08l0.576,1.032l0.672,0.985l0.72,0.936l0.816,0.864l0.888,0.816l0.936,0.744l0.984,0.648l1.032,0.576l1.08,0.504l1.129,0.408l1.128,0.336l1.176,0.24l1.176,0.144l1.2,0.048l1.176,-0.048l1.2,-0.144l1.152,-0.216l1.152,-0.336l1.128,-0.408l1.08,-0.48l1.032,-0.576l1.008,-0.672l0.936,-0.72l0.864,-0.792l0.816,-0.888l0.743,-0.912l0.673,-0.985l0.6,-1.032l0.504,-1.08l0.432,-1.128l0.312,-1.128l0.264,-1.176l0.144,-1.176l0.048,-1.2l-0.024,-1.176l-0.12,-1.177l-0.216,-1.176l-0.312,-1.152l-0.408,-1.128l-0.48,-1.08l-0.576,-1.056l-0.648,-0.984l-0.721,-0.96l-0.791,-0.888l-0.864,-0.816l-0.912,-0.745l-0.984,-0.672l-1.032,-0.6l-1.08,-0.528l-1.104,-0.432l-1.128,-0.336l-1.176,-0.24l-1.176,-0.168l-1.2,-0.072l-1.176,0.024l1.992,5.473l0.936,0.144l0.936,0.264l0.888,0.312l0.864,0.432l0.816,0.504l0.744,0.576l0.72,0.648l0.624,0.696l0.552,0.768l0.504,0.84l0.384,0.864l0.336,0.888l0.216,0.936l0.144,0.937l0.048,0.96l-0.048,0.96l-0.144,0.936l-0.24,0.936l-0.312,0.888l-0.408,0.864l-0.504,0.816l-0.576,0.768l-0.624,0.72l-0.72,0.624l-0.744,0.576l-0.84,0.504l-0.84,0.409l-0.912,0.336l-0.912,0.216l-0.96,0.168l-0.936,0.048l-0.96,-0.048l-0.936,-0.12l-0.936,-0.24l-0.912,-0.312l-0.864,-0.385l-0.817,-0.48l-0.768,-0.576l-0.72,-0.624l-0.648,-0.696l-0.6,-0.768l-0.504,-0.792l-0.408,-0.864l-0.336,-0.888l-0.24,-0.936l-0.168,-0.936l-0.072,-0.96l0.048,-0.936l0.12,-0.961l0.192,-0.936l0.312,-0.888l0.384,-0.888l0.48,-0.816l0.552,-0.792l0.624,-0.72l-1.992,-5.473l-0.936,0.745l-0.864,0.816l-0.792,0.888l-0.744,0.936l-0.648,1.008l-0.576,1.032l-0.48,1.08l-0.408,1.128Zm-107.714,2.112l-0.168,1.177l-0.048,1.2l0.048,1.176l0.12,1.2l0.216,1.152l0.312,1.152l0.408,1.128l0.48,1.08l0.576,1.056l0.648,0.984l0.744,0.961l0.792,0.864l0.864,0.816l0.912,0.768l0.984,0.672l1.032,0.6l1.08,0.504l1.104,0.432l1.152,0.336l1.152,0.24l1.2,0.168l1.176,0.072l1.2,-0.048l1.176,-0.12l1.176,-0.216l1.152,-0.288l1.128,-0.408l1.08,-0.456l1.056,-0.576l0.984,-0.648l0.96,-0.72l0.888,-0.792l0.817,-0.84l0.768,-0.936l0.672,-0.961l0.6,-1.032l0.528,-1.08l0.432,-1.104l0.36,-1.128l0.264,-1.176l0.168,-1.176l0.072,-1.176l-0.024,-1.2l-0.12,-1.177l-0.192,-1.176l-0.288,-1.152l-0.384,-1.128l-0.48,-1.104l-0.552,-1.032l-0.624,-1.008l-0.72,-0.96l-0.793,-0.912l-2.904,5.064l0.48,0.816l0.408,0.864l0.336,0.888l0.216,0.936l0.144,0.937l0.048,0.96l-0.048,0.96l-0.12,0.936l-0.24,0.936l-0.312,0.888l-0.408,0.864l-0.48,0.816l-0.576,0.792l-0.624,0.696l-0.72,0.648l-0.744,0.576l-0.816,0.504l-0.864,0.409l-0.888,0.336l-0.936,0.24l-0.936,0.144l-0.96,0.072l-0.96,-0.048l-0.936,-0.12l-0.936,-0.216l-0.888,-0.312l-0.888,-0.385l-0.816,-0.48l-0.768,-0.552l-0.72,-0.648l-0.672,-0.696l-0.576,-0.744l-0.504,-0.816l-0.432,-0.84l-0.336,-0.888l-0.24,-0.936l-0.168,-0.936l-0.072,-0.96l0.024,-0.936l0.12,-0.961l0.216,-0.936l0.288,-0.912l0.384,-0.864l0.48,-0.84l0.528,-0.768l0.624,-0.72l0.696,-0.672l0.744,-0.6l0.816,-0.504l0.84,-0.432l0.888,-0.36l0.912,-0.264l0.936,-0.168l0.96,-0.072l0.96,-0l2.904,-5.041l-1.152,-0.24l-1.2,-0.12l-1.176,-0.048l-1.2,0.048l-1.176,0.144l-1.176,0.216l-1.152,0.336l-1.104,0.408l-1.08,0.48l-1.032,0.6l-1.008,0.648l-0.936,0.745l-0.864,0.792l-0.816,0.864l-0.744,0.936l-0.672,0.984l-0.576,1.056l-0.504,1.056l-0.432,1.128l-0.312,1.152l-0.24,1.152Zm71.089,-41.044l-20.688,11.978l20.688,6.528l6.529,-10.345l-6.529,-8.161Z" style="fill:#fff;"/></g><path d="M323.463,322.191l0.403,-1.972l0.224,-1.927l-0,-2.016l-0.135,-1.972l-0.313,-1.927l-0.538,-1.927l-0.672,-1.837l-0.851,-1.793l-1.031,-1.703l-1.165,-1.568l-1.343,-1.479l-1.434,-1.345l-1.568,-1.209l-1.658,-1.076l-1.792,-0.896l-1.836,-0.717l-1.882,-0.538l-1.971,-0.358l-1.972,-0.18l-1.97,0l-1.972,0.18l-1.926,0.358l-1.927,0.538l-1.836,0.717l-1.748,0.896l-1.702,1.076l-1.568,1.209l-1.434,1.345l-1.344,1.479l-1.164,1.568l-1.031,1.703l-0.851,1.793l-0.672,1.837l-0.493,1.927l-0.359,1.927l-0.134,1.972l0.045,2.016l0.224,1.927l0.403,1.972l-128.353,0l0.403,-1.972l0.224,-1.927l0.045,-2.016l-0.134,-1.972l-0.359,-1.927l-0.493,-1.927l-0.717,-1.837l-0.85,-1.793l-1.031,-1.703l-1.165,-1.568l-1.299,-1.479l-1.478,-1.345l-1.569,-1.209l-1.657,-1.076l-1.747,-0.896l-1.882,-0.717l-1.882,-0.538l-1.925,-0.358l-1.972,-0.18l-2.016,0l-1.927,0.18l-1.97,0.358l-1.882,0.538l-1.837,0.717l-1.792,0.896l-1.658,1.076l-1.567,1.209l-1.479,1.345l-1.299,1.479l-1.165,1.568l-1.031,1.703l-0.851,1.793l-0.716,1.837l-0.493,1.927l-0.314,1.927l-0.179,1.972l0.045,2.016l0.224,1.927l0.403,1.972l-46.19,0l-1.209,-0.09l-1.254,-0.268l-1.165,-0.404l-1.12,-0.537l-1.031,-0.673l-0.941,-0.851l-0.806,-0.897l-0.717,-1.075l-0.537,-1.12l-0.403,-1.165l-0.224,-1.211l-0.09,-1.254l0,-33.878l0.09,-0.807l0.224,-0.807l0.403,-0.716l0.492,-0.673l0.672,-0.493l0.717,-0.403l0.807,-0.224l0.806,-0.09l1.927,-45.754l0.089,-0.896l0.269,-0.852l0.403,-0.806l0.538,-0.717l0.672,-0.628l0.717,-0.492l0.806,-0.359l0.896,-0.224l0.896,-0.089l306.031,-0l1.971,0.089l1.927,0.269l1.927,0.448l1.835,0.627l1.793,0.807l1.702,0.941l1.613,1.076l1.522,1.254l1.39,1.39l1.21,1.524l1.12,1.612l0.94,1.703l0.807,1.793l0.628,1.837l0.447,1.927l0.269,1.927l0.09,1.927l0,63.545l-72.621,13.757Zm-206.037,-0.403l-0.404,-1.614l-0.268,-1.613l-0.045,-1.658l0.045,-1.658l0.268,-1.658l0.404,-1.613l0.537,-1.568l0.717,-1.524l0.852,-1.39l0.985,-1.344l1.12,-1.255l1.254,-1.12l1.344,-0.986l1.389,-0.851l1.524,-0.717l1.568,-0.538l1.612,-0.404l1.658,-0.268l1.657,-0.045l1.658,0.045l1.613,0.268l1.612,0.404l1.569,0.538l1.523,0.717l1.434,0.851l1.299,0.986l1.254,1.12l1.12,1.255l0.986,1.344l0.851,1.39l0.717,1.524l0.537,1.568l0.404,1.613l0.268,1.658l0.09,1.658l-0.09,1.658l-0.268,1.613l-0.404,1.614l-0.537,1.569l-0.717,1.523l-0.851,1.434l-0.986,1.3l-1.12,1.254l-1.254,1.121l-1.299,0.985l-1.434,0.852l-1.523,0.717l-1.569,0.538l-1.612,0.403l-1.613,0.269l-1.658,0.044l-1.657,-0.044l-1.658,-0.269l-1.612,-0.403l-1.568,-0.538l-1.524,-0.717l-1.389,-0.852l-1.344,-0.985l-1.254,-1.121l-1.12,-1.254l-0.985,-1.3l-0.852,-1.434l-0.717,-1.523l-0.537,-1.569Zm169.3,-0l-0.403,-1.614l-0.224,-1.613l-0.089,-1.658l0.089,-1.658l0.224,-1.658l0.403,-1.613l0.582,-1.568l0.717,-1.524l0.851,-1.39l0.986,-1.344l1.12,-1.255l1.21,-1.12l1.344,-0.986l1.433,-0.851l1.479,-0.717l1.568,-0.538l1.613,-0.404l1.657,-0.268l1.658,-0.045l1.657,0.045l1.658,0.268l1.613,0.404l1.568,0.538l1.478,0.717l1.434,0.851l1.344,0.986l1.21,1.12l1.12,1.255l0.985,1.344l0.852,1.39l0.716,1.524l0.582,1.568l0.404,1.613l0.224,1.658l0.089,1.658l-0.089,1.658l-0.224,1.613l-0.404,1.614l-0.582,1.569l-0.716,1.523l-0.852,1.434l-0.985,1.3l-1.12,1.254l-1.21,1.121l-1.344,0.985l-1.434,0.852l-1.478,0.717l-1.568,0.538l-1.613,0.403l-1.658,0.269l-1.657,0.044l-1.658,-0.044l-1.657,-0.269l-1.613,-0.403l-1.568,-0.538l-1.479,-0.717l-1.433,-0.852l-1.344,-0.985l-1.21,-1.121l-1.12,-1.254l-0.986,-1.3l-0.851,-1.434l-0.717,-1.523l-0.582,-1.569Zm-160.206,-0.314l0.717,0.941l0.851,0.852l0.941,0.761l1.075,0.538l1.12,0.448l1.21,0.269l1.209,0.09l1.165,-0.09l1.21,-0.269l1.12,-0.448l1.075,-0.538l0.941,-0.761l0.851,-0.852l0.762,-0.941l0.537,-1.076l0.448,-1.12l0.269,-1.21l0.09,-1.165l-0.09,-1.21l-0.269,-1.209l-0.448,-1.121l-0.537,-1.075l-0.762,-0.942l-0.851,-0.851l-0.941,-0.717l-1.075,-0.583l-1.12,-0.448l-1.21,-0.224l-1.165,-0.089l-1.209,0.089l-1.21,0.224l-1.12,0.448l-1.075,0.583l-0.941,0.717l-0.851,0.851l-0.717,0.942l-0.582,1.075l-0.448,1.121l-0.224,1.209l-0.09,1.21l0.09,1.165l0.224,1.21l0.448,1.12l0.582,1.076Zm169.3,0l0.717,0.941l0.851,0.852l0.986,0.761l1.075,0.538l1.121,0.448l1.165,0.269l1.209,0.09l1.209,-0.09l1.165,-0.269l1.165,-0.448l1.031,-0.538l0.985,-0.761l0.852,-0.852l0.716,-0.941l0.582,-1.076l0.403,-1.12l0.269,-1.21l0.09,-1.165l-0.09,-1.21l-0.269,-1.209l-0.403,-1.121l-0.582,-1.075l-0.716,-0.942l-0.852,-0.851l-0.985,-0.717l-1.031,-0.583l-1.165,-0.448l-1.165,-0.224l-1.209,-0.089l-1.209,0.089l-1.165,0.224l-1.121,0.448l-1.075,0.583l-0.986,0.717l-0.851,0.851l-0.717,0.942l-0.582,1.075l-0.403,1.121l-0.268,1.209l-0.091,1.21l0.091,1.165l0.268,1.21l0.403,1.12l0.582,1.076Zm-126.202,-51.176l0.806,-0.09l0.807,-0.224l0.717,-0.403l0.672,-0.493l0.493,-0.672l0.403,-0.717l0.224,-0.807l0.089,-0.806l0,-21.197l-0.089,-0.807l-0.224,-0.806l-0.403,-0.717l-0.493,-0.628l-0.672,-0.537l-0.717,-0.403l-0.807,-0.225l-0.806,-0.09l-50.803,0l-0.852,0.09l-0.761,0.225l-0.762,0.403l-0.627,0.537l-0.538,0.628l-0.358,0.717l-0.269,0.806l-0.09,0.807l0,21.197l0.09,0.806l0.269,0.807l0.358,0.717l0.538,0.672l0.627,0.493l0.762,0.403l0.761,0.224l0.852,0.09l50.803,0Zm19.04,-29.622l-0.851,0.09l-0.762,0.225l-0.761,0.403l-0.628,0.537l-0.538,0.628l-0.358,0.717l-0.269,0.806l-0.089,0.807l-0,21.197l0.089,0.806l0.269,0.807l0.358,0.717l0.538,0.672l0.628,0.493l0.761,0.403l0.762,0.224l0.851,0.09l50.803,0l0.807,-0.09l0.806,-0.224l0.717,-0.403l0.672,-0.493l0.493,-0.672l0.403,-0.717l0.224,-0.807l0.09,-0.806l0,-21.197l-0.09,-0.807l-0.224,-0.806l-0.403,-0.717l-0.493,-0.628l-0.672,-0.537l-0.717,-0.403l-0.806,-0.225l-0.807,-0.09l-50.803,0Zm190.491,29.622l0.807,-0.09l0.806,-0.224l0.716,-0.403l0.673,-0.493l0.492,-0.672l0.404,-0.717l0.268,-0.807l0.045,-0.806l-0,-12.727l-0.089,-1.524l-0.269,-1.479l-0.449,-1.479l-0.626,-1.389l-0.807,-1.344l-0.941,-1.21l-1.075,-1.076l-1.21,-0.941l-1.298,-0.806l-1.434,-0.628l-1.434,-0.448l-1.523,-0.269l-1.523,-0.09l-42.337,0l-0.806,0.09l-0.807,0.225l-0.716,0.403l-0.672,0.537l-0.537,0.628l-0.359,0.717l-0.269,0.806l-0.044,0.807l-0,21.197l0.044,0.806l0.269,0.807l0.359,0.717l0.537,0.672l0.672,0.493l0.716,0.403l0.807,0.224l0.806,0.09l50.804,0Zm-300.565,37.06l0.089,0.807l0.224,0.806l0.404,0.717l0.537,0.673l0.628,0.537l0.761,0.359l0.762,0.268l0.851,0.045l12.678,0l0.852,-0.045l0.761,-0.268l0.761,-0.359l0.628,-0.537l0.537,-0.673l0.359,-0.717l0.269,-0.806l0.089,-0.807l0,-62.469l-0.089,-0.807l-0.269,-0.806l-0.359,-0.717l-0.537,-0.628l-0.628,-0.537l-0.761,-0.403l-0.761,-0.225l-0.852,-0.09l-12.678,0l-0.851,0.09l-0.762,0.225l-0.761,0.403l-0.628,0.537l-0.537,0.628l-0.404,0.717l-0.224,0.806l-0.089,0.807l-0,62.469Zm179.918,-66.682l-0.807,0.09l-0.806,0.225l-0.762,0.403l-0.627,0.537l-0.537,0.628l-0.358,0.717l-0.269,0.806l-0.09,0.807l0,21.197l0.09,0.806l0.269,0.807l0.358,0.717l0.537,0.672l0.627,0.493l0.762,0.403l0.806,0.224l0.807,0.09l50.804,0l0.806,-0.09l0.806,-0.224l0.717,-0.403l0.672,-0.493l0.493,-0.672l0.403,-0.717l0.224,-0.807l0.09,-0.806l-0,-21.197l-0.09,-0.807l-0.224,-0.806l-0.403,-0.717l-0.493,-0.628l-0.672,-0.537l-0.717,-0.403l-0.806,-0.225l-0.806,-0.09l-50.804,0Z" style="fill:#fff;"/><g><g><rect x="192.665" y="357.986" width="40.275" height="72.567" style="fill:#0079c1;"/><path d="M216.611,401.358c0,2.704 -2.223,4.566 -6.548,4.566c-2.763,-0 -5.827,-1.502 -5.827,-4.626c0,-4.265 3.845,-4.745 7.029,-5.046c1.441,-0.12 3.844,-0.3 5.346,-0.36l0,5.466Zm10.753,5.347c-2.223,-0.841 -3.064,-2.283 -3.064,-4.806l0,-13.036c0,-8.53 -4.325,-12.735 -12.495,-12.735c-4.685,0 -8.95,1.081 -13.276,3.604l2.824,6.188c3.184,-1.922 6.367,-2.763 9.852,-2.763c3.844,-0 5.466,1.742 5.466,5.286l0,1.382c-2.102,0.12 -5.707,0.42 -7.629,0.6c-3.364,0.301 -12.615,1.322 -12.615,11.414c-0,6.848 5.647,10.392 12.195,10.392c4.445,0 7.509,-1.501 9.611,-3.364c1.141,2.043 3.064,3.304 5.647,3.545l3.484,-5.707Z" style="fill:#fff;fill-rule:nonzero;"/></g><g><rect x="270.675" y="357.986" width="19.593" height="72.567" style="fill:#0079c1;"/><path d="M284.598,376.073l-8.189,0l-0,36.339l8.189,-0l-0,-36.339Zm0.767,-9.596c0,-2.687 -2.175,-4.862 -4.862,-4.862c-2.751,-0 -4.926,2.175 -4.926,4.862c0,2.751 2.175,4.926 4.926,4.926c2.687,0 4.862,-2.175 4.862,-4.926Z" style="fill:#fff;fill-rule:nonzero;"/></g><g><rect x="163.276" y="357.986" width="29.39" height="72.567" style="fill:#0079c1;"/><path d="M188.919,404.821c-1.373,0.523 -2.876,0.785 -4.314,0.785c-3.66,-0 -4.51,-1.242 -4.51,-4.707l-0,-18.825l9.608,0l0,-7.059l-9.608,-0l-0,-13.4l-8.302,3.726l0,9.674l-6.144,-0l0,7.059l6.144,0l0,22.094c0,7.517 5.687,9.151 10.263,9.151c3.66,-0 6.275,-0.719 8.236,-1.242l-1.373,-7.256Z" style="fill:#fff;fill-rule:nonzero;"/></g><g><rect x="232.94" y="357.986" width="37.735" height="72.567" style="fill:#0079c1;"/><path d="M256.279,393.248l11.37,-17.12l-9.262,0l-6.58,10.285l-6.643,-10.285l-9.263,0l11.371,17.184l-12.712,19.1l9.198,-0l7.985,-12.393l7.985,12.393l9.327,-0l-12.776,-19.164Z" style="fill:#fff;fill-rule:nonzero;"/></g></g></g></svg>