<?xml version="1.0" encoding="UTF-8" standalone="no"?><!DOCTYPE svg PUBLIC "-//W3C//DTD SVG 1.1//EN" "http://www.w3.org/Graphics/SVG/1.1/DTD/svg11.dtd"><svg width="100%" height="100%" viewBox="0 0 454 454" version="1.1" xmlns="http://www.w3.org/2000/svg" xmlns:xlink="http://www.w3.org/1999/xlink" xml:space="preserve" xmlns:serif="http://www.serif.com/" style="fill-rule:evenodd;clip-rule:evenodd;stroke-linejoin:round;stroke-miterlimit:2;"><g transform="matrix(50,0,0,50,321.022,262.709)"></g><text x="133.4px" y="262.709px" style="font-family:'ArialMT', 'Arial', sans-serif;font-size:50px;">sw=38.4</text><g id="_953-Route-for-Bus--Cycles-and-Taxis-Only" serif:id="953 Route for Bus, Cycles and Taxis Only"><circle cx="226.772" cy="226.772" r="226.772" style="fill:#fff;"/><path d="M226.772,0c125.158,0 226.771,101.613 226.771,226.772c0,125.158 -101.613,226.771 -226.771,226.771c-125.159,0 -226.772,-101.613 -226.772,-226.771c-0,-125.159 101.613,-226.772 226.772,-226.772Zm-0,1.181c-124.507,0 -225.591,101.084 -225.591,225.591c0,124.506 101.084,225.59 225.591,225.59c124.506,0 225.59,-101.084 225.59,-225.59c0,-124.507 -101.084,-225.591 -225.59,-225.591Z" style="fill:#0079c1;"/><circle cx="226.772" cy="226.772" r="217.701" style="fill:#0079c1;"/><path d="M146.595,108.614l0.1,-1.478l0.179,-1.458l0.26,-1.477l0.339,-1.438l0.42,-1.418l0.479,-1.398l0.559,-1.378l0.619,-1.358l0.699,-1.298l0.759,-1.278l0.839,-1.218l0.898,-1.178l0.959,-1.139l0.998,-1.098l1.079,-1.018l1.118,-0.979l1.158,-0.899l1.218,-0.858l1.258,-0.779l1.298,-0.719l1.338,-0.659l1.358,-0.559l1.398,-0.519l1.418,-0.42l1.438,-0.359l1.457,-0.28l1.478,-0.199l1.478,-0.14l1.477,-0.04l1.478,0.02l1.478,0.1l1.478,0.199l1.457,0.26l1.458,0.339l1.418,0.4l1.398,0.479l6.13,-22.865l0.08,-0.42l-0.02,-0.439l-0.08,-0.439l-0.159,-0.4l-0.24,-0.359l-0.299,-0.32l-0.36,-0.259l-0.599,-0.4l-0.579,-0.459l-0.519,-0.499l-0.46,-0.559l-0.419,-0.619l-0.339,-0.619l-0.3,-0.679l-0.22,-0.699l-0.159,-0.699l-0.08,-0.719l-0.02,-0.739l0.06,-0.719l0.119,-0.719l0.2,-0.699l0.26,-0.679l0.319,-0.659l0.38,-0.619l0.439,-0.579l0.499,-0.539l0.559,-0.479l0.58,-0.42l0.639,-0.379l0.659,-0.3l0.678,-0.239l0.699,-0.18l0.719,-0.1l0.739,-0.04l13.2,0l-0,7.069l-10.843,0l-0.32,0.04l-0.32,0.12l-0.279,0.18l-0.22,0.239l-0.159,0.3l-0.1,0.32l-0.02,0.319l0.06,0.34l0.139,0.299l0.2,0.26l0.26,0.199l0.579,0.4l0.519,0.479l0.479,0.499l0.42,0.559l0.359,0.619l0.28,0.62l0.219,0.679l0.16,0.678l0.06,0.699l-0,0.699l-0.06,0.679l-0.14,0.699l-1.138,4.234l51.66,-0l2.577,-7.069l-10.904,-2.417l-0.399,-0.12l-0.359,-0.199l-0.32,-0.24l-0.28,-0.299l-0.219,-0.34l-0.16,-0.359l-0.1,-0.4l-0.02,-0.399l0.04,-0.4l0.12,-0.399l0.18,-0.359l0.239,-0.34l0.28,-0.279l0.339,-0.22l0.36,-0.18l0.399,-0.1l0.4,-0.04l24.402,0l0.239,0.04l0.22,0.1l0.2,0.14l0.14,0.2l0.1,0.219l0.04,0.24l-0.04,0.24l-0.22,0.778l-0.32,0.759l-0.379,0.699l-0.439,0.679l-0.519,0.639l-0.56,0.579l-0.619,0.519l-0.679,0.46l-0.699,0.399l-0.739,0.32l-0.778,0.259l-0.779,0.18l-0.799,0.1l-2.177,5.991l11.163,19.35l1.378,-0.539l1.418,-0.479l1.418,-0.379l1.438,-0.32l1.457,-0.24l1.478,-0.159l1.478,-0.1l1.478,-0l1.477,0.06l1.478,0.159l1.458,0.22l1.458,0.3l1.417,0.359l1.418,0.459l1.378,0.52l1.358,0.599l1.338,0.659l1.278,0.719l1.238,0.798l1.218,0.859l1.158,0.939l1.099,0.978l1.058,1.039l0.998,1.078l0.939,1.158l0.878,1.179l0.82,1.238l0.738,1.278l0.679,1.318l0.619,1.338l0.54,1.378l0.479,1.397l0.379,1.438l0.319,1.438l0.24,1.458l0.18,1.478l0.08,1.477l0.02,1.478l-0.06,1.478l-0.14,1.478l-0.22,1.457l-0.299,1.438l-0.38,1.438l-0.439,1.418l-0.519,1.378l-0.579,1.358l-0.659,1.318l-0.739,1.298l-0.779,1.238l-0.858,1.218l-0.939,1.158l-0.979,1.099l-1.018,1.058l-1.098,0.999l-1.138,0.958l-1.199,0.879l-1.218,0.819l-1.278,0.738l-1.318,0.699l-1.338,0.599l-1.378,0.56l-1.398,0.459l-1.437,0.399l-1.438,0.32l-1.458,0.259l-1.477,0.16l-1.478,0.1l-1.478,0.02l-1.478,-0.06l-1.457,-0.14l-1.478,-0.219l-1.438,-0.28l-1.438,-0.379l-1.418,-0.44l-1.378,-0.519l-1.357,-0.579l-1.338,-0.659l-1.278,-0.719l-1.259,-0.799l-1.197,-0.858l-1.179,-0.899l-1.098,-0.979l-1.058,-1.038l-0.999,-1.098l-0.959,-1.139l-0.878,-1.178l-0.819,-1.238l-0.759,-1.258l-0.698,-1.318l-0.619,-1.338l-0.54,-1.378l-0.479,-1.398l-0.4,-1.418l-0.319,-1.457l-0.259,-1.458l-0.16,-1.458l-2.776,0l-0.259,0.979l-0.36,0.938l-0.419,0.919l-0.5,0.878l-0.579,0.839l-0.659,0.779l-0.699,0.719l-0.778,0.639l-0.819,0.599l2.436,5.212l4.952,0l0,3.774l-3.195,0l-0.339,0.4l-0.399,0.359l-0.44,0.28l-0.479,0.199l-0.519,0.12l-0.539,0.06l-0.52,-0.06l-0.519,-0.12l-0.479,-0.199l-0.459,-0.28l-0.38,-0.359l-0.339,-0.4l-3.195,0l-0,-3.774l3.195,0l-1.777,-3.814l-0.959,0.239l-0.959,0.16l-0.978,0.1l-0.998,0l-0.979,-0.08l-0.978,-0.16l-0.939,-0.239l-0.939,-0.32l-0.898,-0.399l-0.879,-0.479l-0.819,-0.54l-0.778,-0.599l-0.719,-0.679l-0.659,-0.719l-0.599,-0.778l-0.54,-0.839l-0.459,-0.859l-0.379,-0.918l-0.32,-0.939l-0.219,-0.959l-0.16,-0.958l-0.06,-0.999l-0,-0.978l0.1,-0.979l0.18,-0.958l0.259,-0.959l-32.789,-22.945l-0.919,3.415l1.198,0.899l1.138,0.938l1.079,1.019l1.038,1.058l0.979,1.118l0.898,1.159l0.859,1.218l0.799,1.258l0.719,1.298l0.639,1.318l0.599,1.378l0.499,1.378l0.439,1.418l0.36,1.437l0.279,1.458l0.22,1.478l0.14,1.478l0.04,1.477l-0.02,1.478l-0.1,1.478l-0.18,1.478l-0.259,1.457l-0.32,1.438l-0.419,1.438l-0.48,1.398l-0.539,1.378l-0.639,1.338l-0.679,1.318l-0.779,1.278l-0.818,1.218l-0.899,1.198l-0.938,1.139l-1.019,1.078l-1.058,1.038l-1.119,0.959l-1.178,0.918l-1.198,0.859l-1.258,0.779l-1.298,0.719l-1.338,0.659l-1.358,0.579l-1.398,0.499l-1.417,0.44l-1.438,0.359l-1.458,0.28l-1.478,0.219l-1.458,0.12l-1.497,0.06l-1.478,-0.02l-1.478,-0.1l-1.477,-0.18l-1.458,-0.259l-1.438,-0.34l-1.438,-0.399l-1.398,-0.479l-1.377,-0.559l-1.338,-0.639l-1.318,-0.679l-1.258,-0.779l-1.239,-0.819l-1.178,-0.899l-1.138,-0.958l-1.078,-0.999l-1.039,-1.078l-0.978,-1.118l-0.899,-1.159l-0.859,-1.218l-0.778,-1.258l-0.719,-1.298l-0.659,-1.338l-0.579,-1.358l-0.5,-1.398l-0.439,-1.418l-0.359,-1.437l-0.28,-1.458l-0.2,-1.458l-0.139,-1.478l-0.04,-1.497l0.02,-1.478Zm96.771,-8.108l0.779,0.659l0.738,0.719l0.659,0.799l0.58,0.839l0.519,0.878l0.439,0.919l0.36,0.958l0.259,0.999l2.776,-0l0.16,-1.458l0.259,-1.438l0.319,-1.438l0.4,-1.417l0.459,-1.398l0.54,-1.358l0.619,-1.338l0.678,-1.298l0.739,-1.258l0.819,-1.238l0.859,-1.179l0.938,-1.138l0.999,-1.078l1.038,-1.019l1.098,-0.978l1.138,-0.919l-8.207,-14.218l-9.964,27.398Zm16.454,3.215l-0.339,1.178l-0.28,1.179l-0.2,1.198l14.059,-0l-7.229,-12.521l-0.899,0.819l-0.838,0.858l-0.799,0.919l-0.739,0.978l-0.679,0.999l-0.619,1.058l-0.559,1.079l-0.479,1.118l-0.4,1.138Zm-31.172,6.151l0.04,0.739l0.1,0.739l0.18,0.719l0.26,0.699l0.319,0.659l0.379,0.639l0.44,0.599l0.499,0.539l0.539,0.499l0.599,0.439l0.639,0.38l0.659,0.319l0.699,0.26l0.719,0.18l0.739,0.1l0.739,0.039l0.739,-0.039l0.739,-0.1l0.718,-0.18l0.699,-0.26l0.659,-0.319l0.639,-0.38l0.599,-0.439l0.54,-0.499l0.499,-0.539l0.439,-0.599l0.38,-0.639l0.319,-0.659l0.26,-0.699l0.179,-0.719l0.1,-0.739l0.04,-0.739l-0.04,-0.739l-0.1,-0.739l-0.179,-0.719l-0.26,-0.699l-0.319,-0.659l-0.38,-0.639l-0.439,-0.599l-0.499,-0.539l-0.54,-0.499l-0.599,-0.44l-0.639,-0.379l-0.659,-0.319l-0.699,-0.26l-0.718,-0.18l-0.739,-0.1l-0.739,-0.04l-0.739,0.04l-0.739,0.1l-0.719,0.18l-0.699,0.26l-0.659,0.319l-0.639,0.379l-0.599,0.44l-0.539,0.499l-0.499,0.539l-0.44,0.599l-0.379,0.639l-0.319,0.659l-0.26,0.699l-0.18,0.719l-0.1,0.739l-0.04,0.739Zm51.082,2.596l-20.729,0l0.2,1.238l0.28,1.218l0.359,1.198l0.44,1.159l0.499,1.158l0.579,1.098l0.639,1.079l0.719,1.038l0.778,0.979l0.84,0.918l0.878,0.879l0.959,0.819l0.998,0.758l1.039,0.699l1.078,0.619l1.118,0.56l1.158,0.479l1.179,0.419l1.197,0.34l1.239,0.239l1.238,0.2l1.238,0.1l1.258,0.02l1.238,-0.06l1.238,-0.14l1.238,-0.199l1.219,-0.3l1.198,-0.359l1.178,-0.44l1.138,-0.519l1.098,-0.579l1.079,-0.659l1.018,-0.719l0.979,-0.779l0.918,-0.839l0.859,-0.898l0.819,-0.959l0.758,-0.998l0.679,-1.059l0.62,-1.078l0.539,-1.118l0.479,-1.159l0.399,-1.198l0.32,-1.198l0.259,-1.218l0.16,-1.238l0.1,-1.258l0.02,-1.258l-0.06,-1.239l-0.16,-1.238l-0.219,-1.238l-0.3,-1.218l-0.38,-1.178l-0.439,-1.178l-0.519,-1.139l-0.599,-1.098l-0.659,-1.058l-0.739,-1.019l-0.779,-0.978l-0.858,-0.919l-0.899,-0.859l-0.959,-0.798l-0.998,-0.739l-1.058,-0.679l-1.098,-0.599l-1.119,-0.54l-1.158,-0.479l-1.198,-0.379l-1.218,-0.32l-1.218,-0.239l-1.238,-0.16l-1.259,-0.1l-1.238,-0l-1.258,0.08l-1.238,0.16l-1.218,0.219l-1.218,0.32l-1.199,0.379l10.025,17.354l0.2,0.399l0.1,0.44l0.04,0.459l-0.04,0.439l-0.1,0.44l-0.2,0.419l-0.259,0.359l-0.32,0.32l-0.379,0.26l-0.4,0.199l-0.439,0.12l-0.459,0.04Zm-123.53,-9.206l-0.38,1.178l-0.299,1.218l-0.24,1.218l-0.139,1.239l-0.08,1.238l0.02,1.238l0.08,1.258l0.159,1.218l0.24,1.218l0.319,1.218l0.38,1.179l0.479,1.158l0.519,1.118l0.619,1.079l0.659,1.058l0.739,0.998l0.799,0.959l0.859,0.899l0.918,0.838l0.959,0.799l0.998,0.719l1.059,0.659l1.098,0.599l1.118,0.519l1.178,0.46l1.179,0.379l1.198,0.3l1.238,0.219l1.218,0.16l1.258,0.08l1.238,-0.02l1.238,-0.08l1.238,-0.16l1.218,-0.239l1.199,-0.32l1.178,-0.379l1.158,-0.46l1.118,-0.539l1.099,-0.599l1.038,-0.679l1.018,-0.739l0.939,-0.798l0.919,-0.859l0.838,-0.899l0.799,-0.958l0.719,-1.019l0.659,-1.058l0.599,-1.079l0.519,-1.138l0.459,-1.158l0.38,-1.178l0.299,-1.218l0.24,-1.219l0.14,-1.238l0.08,-1.238l-0,-1.238l-0.1,-1.238l-0.16,-1.238l-0.24,-1.218l-0.299,-1.219l-0.399,-1.178l-0.46,-1.158l-0.539,-1.118l-0.599,-1.079l-0.659,-1.058l-0.739,-0.999l-0.799,-0.958l-0.858,-0.899l-1.598,5.931l-0.299,1.019l-0.4,0.998l-0.439,0.959l-0.519,0.938l-0.599,0.879l-0.639,0.839l-0.699,0.799l-0.759,0.758l-0.819,0.679l-0.859,0.639l-0.898,0.579l-0.919,0.5l-0.978,0.439l-0.999,0.36l-1.018,0.299l-1.039,0.24l-0.459,0.04l-0.459,-0.04l-0.439,-0.1l-0.42,-0.18l-0.379,-0.24l-0.34,-0.299l-0.299,-0.36l-0.24,-0.379l-0.16,-0.439l-0.099,-0.44l-0.02,-0.459l0.059,-0.439l0.12,-0.44l0.2,-0.419l0.26,-0.379l0.299,-0.34l0.38,-0.259l1.018,-0.719l0.998,-0.799l0.939,-0.859l0.859,-0.898l0.818,-0.979l0.739,-1.018l0.659,-1.079l0.599,-1.098l0.539,-1.158l0.44,-1.179l0.359,-1.218l1.298,-4.852l-1.158,-0.46l-1.178,-0.359l-1.218,-0.32l-1.218,-0.219l-1.238,-0.14l-1.239,-0.08l-1.238,0.02l-1.238,0.08l-1.238,0.16l-1.218,0.239l-1.218,0.32l-1.178,0.399l-1.139,0.459l-1.138,0.54l-1.078,0.599l-1.039,0.679l-1.018,0.739l-0.939,0.798l-0.918,0.859l-0.839,0.899l-0.779,0.958l-0.739,1.019l-0.658,1.058l-0.58,1.098l-0.539,1.119l-0.439,1.158Zm72.808,-2.736l0.759,-0.539l-2.437,-5.212l-4.952,-0l0,-3.774l3.195,-0l0.32,-0.4l0.399,-0.359l0.459,-0.28l0.48,-0.2l0.519,-0.139l0.519,-0.04l0.539,0.04l0.519,0.139l0.48,0.2l0.439,0.28l0.399,0.359l0.34,0.4l3.195,-0l-0,3.774l-3.195,-0l1.777,3.814l0.959,-0.26l0.998,-0.159l0.999,-0.08l0.998,-0l9.445,-25.961l-50.981,0l-1.058,3.954l34.886,24.443Z" style="fill:#fff;"/><path d="M334.62,275.195l0.45,-2.199l0.25,-2.15l-0,-2.249l-0.15,-2.198l-0.35,-2.15l-0.599,-2.149l-0.75,-2.05l-0.95,-1.999l-1.149,-1.9l-1.299,-1.749l-1.499,-1.649l-1.599,-1.5l-1.749,-1.349l-1.849,-1.2l-1.999,-1l-2.048,-0.799l-2.099,-0.601l-2.199,-0.399l-2.199,-0.2l-2.198,-0l-2.199,0.2l-2.149,0.399l-2.148,0.601l-2.049,0.799l-1.949,1l-1.899,1.2l-1.749,1.349l-1.599,1.5l-1.499,1.649l-1.299,1.749l-1.149,1.9l-0.95,1.999l-0.749,2.05l-0.55,2.149l-0.4,2.15l-0.15,2.198l0.05,2.249l0.25,2.15l0.45,2.199l-143.163,0l0.45,-2.199l0.25,-2.15l0.049,-2.249l-0.149,-2.198l-0.4,-2.15l-0.55,-2.149l-0.8,-2.05l-0.948,-1.999l-1.15,-1.9l-1.299,-1.749l-1.449,-1.649l-1.649,-1.5l-1.749,-1.349l-1.849,-1.2l-1.949,-1l-2.099,-0.799l-2.099,-0.601l-2.148,-0.399l-2.198,-0.2l-2.249,-0l-2.149,0.2l-2.198,0.399l-2.099,0.601l-2.049,0.799l-1.999,1l-1.849,1.2l-1.748,1.349l-1.65,1.5l-1.449,1.649l-1.299,1.749l-1.15,1.9l-0.949,1.999l-0.799,2.05l-0.55,2.149l-0.349,2.15l-0.2,2.198l0.05,2.249l0.25,2.15l0.449,2.199l-51.519,0l-1.348,-0.1l-1.4,-0.3l-1.299,-0.449l-1.249,-0.6l-1.15,-0.75l-1.049,-0.95l-0.9,-1l-0.799,-1.199l-0.599,-1.25l-0.45,-1.299l-0.25,-1.35l-0.1,-1.399l0,-37.787l0.1,-0.901l0.25,-0.899l0.45,-0.8l0.549,-0.75l0.749,-0.549l0.8,-0.45l0.899,-0.25l0.9,-0.1l2.149,-51.033l0.1,-1l0.3,-0.95l0.449,-0.899l0.6,-0.8l0.75,-0.7l0.799,-0.55l0.899,-0.4l0.999,-0.249l1,-0.1l341.342,-0l2.198,0.1l2.15,0.299l2.149,0.5l2.047,0.7l2,0.9l1.898,1.049l1.8,1.2l1.697,1.399l1.55,1.55l1.35,1.7l1.249,1.799l1.049,1.899l0.899,2l0.701,2.049l0.499,2.149l0.299,2.149l0.101,2.149l0,70.877l-81.001,15.345Zm-229.81,-0.45l-0.45,-1.799l-0.3,-1.8l-0.05,-1.849l0.05,-1.849l0.3,-1.85l0.45,-1.799l0.6,-1.749l0.799,-1.7l0.95,-1.55l1.099,-1.499l1.249,-1.4l1.399,-1.249l1.499,-1.1l1.55,-0.949l1.699,-0.8l1.749,-0.6l1.798,-0.45l1.849,-0.3l1.849,-0.05l1.849,0.05l1.799,0.3l1.798,0.45l1.75,0.6l1.699,0.8l1.599,0.949l1.449,1.1l1.399,1.249l1.249,1.4l1.099,1.499l0.95,1.55l0.799,1.7l0.6,1.749l0.45,1.799l0.3,1.85l0.1,1.849l-0.1,1.849l-0.3,1.8l-0.45,1.799l-0.6,1.75l-0.799,1.699l-0.95,1.6l-1.099,1.45l-1.249,1.399l-1.399,1.25l-1.449,1.099l-1.599,0.949l-1.699,0.801l-1.75,0.599l-1.798,0.45l-1.799,0.3l-1.849,0.05l-1.849,-0.05l-1.849,-0.3l-1.798,-0.45l-1.749,-0.599l-1.699,-0.801l-1.55,-0.949l-1.499,-1.099l-1.399,-1.25l-1.249,-1.399l-1.099,-1.45l-0.95,-1.6l-0.799,-1.699l-0.6,-1.75Zm188.836,0l-0.45,-1.799l-0.25,-1.8l-0.1,-1.849l0.1,-1.849l0.25,-1.85l0.45,-1.799l0.648,-1.749l0.8,-1.7l0.95,-1.55l1.099,-1.499l1.249,-1.4l1.35,-1.249l1.499,-1.1l1.598,-0.949l1.649,-0.8l1.749,-0.6l1.8,-0.45l1.849,-0.3l1.848,-0.05l1.849,0.05l1.849,0.3l1.799,0.45l1.749,0.6l1.648,0.8l1.6,0.949l1.499,1.1l1.349,1.249l1.249,1.4l1.1,1.499l0.949,1.55l0.799,1.7l0.65,1.749l0.45,1.799l0.249,1.85l0.1,1.849l-0.1,1.849l-0.249,1.8l-0.45,1.799l-0.65,1.75l-0.799,1.699l-0.949,1.6l-1.1,1.45l-1.249,1.399l-1.349,1.25l-1.499,1.099l-1.6,0.949l-1.648,0.801l-1.749,0.599l-1.799,0.45l-1.849,0.3l-1.849,0.05l-1.848,-0.05l-1.849,-0.3l-1.8,-0.45l-1.749,-0.599l-1.649,-0.801l-1.598,-0.949l-1.499,-1.099l-1.35,-1.25l-1.249,-1.399l-1.099,-1.45l-0.95,-1.6l-0.8,-1.699l-0.648,-1.75Zm-178.692,-0.349l0.8,1.049l0.949,0.95l1.05,0.85l1.198,0.599l1.249,0.5l1.35,0.3l1.349,0.1l1.299,-0.1l1.35,-0.3l1.249,-0.5l1.199,-0.599l1.049,-0.85l0.95,-0.95l0.849,-1.049l0.6,-1.2l0.5,-1.25l0.299,-1.349l0.1,-1.3l-0.1,-1.35l-0.299,-1.349l-0.5,-1.25l-0.6,-1.199l-0.849,-1.05l-0.95,-0.949l-1.049,-0.801l-1.199,-0.649l-1.249,-0.5l-1.35,-0.25l-1.299,-0.1l-1.349,0.1l-1.35,0.25l-1.249,0.5l-1.198,0.649l-1.05,0.801l-0.949,0.949l-0.8,1.05l-0.65,1.199l-0.499,1.25l-0.25,1.349l-0.1,1.35l0.1,1.3l0.25,1.349l0.499,1.25l0.65,1.2Zm188.835,-0l0.799,1.049l0.95,0.95l1.099,0.85l1.2,0.599l1.249,0.5l1.299,0.3l1.349,0.1l1.349,-0.1l1.299,-0.3l1.3,-0.5l1.149,-0.599l1.1,-0.85l0.949,-0.95l0.8,-1.049l0.649,-1.2l0.449,-1.25l0.3,-1.349l0.1,-1.3l-0.1,-1.35l-0.3,-1.349l-0.449,-1.25l-0.649,-1.199l-0.8,-1.05l-0.949,-0.949l-1.1,-0.801l-1.149,-0.649l-1.3,-0.5l-1.299,-0.25l-1.349,-0.1l-1.349,0.1l-1.299,0.25l-1.249,0.5l-1.2,0.649l-1.099,0.801l-0.95,0.949l-0.799,1.05l-0.65,1.199l-0.45,1.25l-0.299,1.349l-0.101,1.35l0.101,1.3l0.299,1.349l0.45,1.25l0.65,1.2Zm-140.765,-57.081l0.9,-0.1l0.899,-0.25l0.8,-0.451l0.75,-0.549l0.549,-0.75l0.45,-0.799l0.25,-0.901l0.1,-0.899l-0,-23.643l-0.1,-0.899l-0.25,-0.899l-0.45,-0.801l-0.549,-0.699l-0.75,-0.6l-0.8,-0.45l-0.899,-0.25l-0.9,-0.1l-56.665,-0l-0.949,0.1l-0.85,0.25l-0.849,0.45l-0.7,0.6l-0.6,0.699l-0.4,0.801l-0.299,0.899l-0.1,0.899l-0,23.643l0.1,0.899l0.299,0.901l0.4,0.799l0.6,0.75l0.7,0.549l0.849,0.451l0.85,0.25l0.949,0.1l56.665,-0Zm21.238,-33.04l-0.95,0.1l-0.849,0.25l-0.85,0.45l-0.7,0.6l-0.6,0.699l-0.399,0.801l-0.3,0.899l-0.1,0.899l0,23.643l0.1,0.899l0.3,0.901l0.399,0.799l0.6,0.75l0.7,0.549l0.85,0.451l0.849,0.25l0.95,0.1l56.665,-0l0.899,-0.1l0.9,-0.25l0.799,-0.451l0.75,-0.549l0.55,-0.75l0.45,-0.799l0.249,-0.901l0.1,-0.899l0,-23.643l-0.1,-0.899l-0.249,-0.899l-0.45,-0.801l-0.55,-0.699l-0.75,-0.6l-0.799,-0.45l-0.9,-0.25l-0.899,-0.1l-56.665,-0Zm212.47,33.04l0.9,-0.1l0.9,-0.25l0.798,-0.451l0.75,-0.549l0.549,-0.75l0.451,-0.799l0.299,-0.901l0.05,-0.899l-0,-14.196l-0.1,-1.699l-0.299,-1.649l-0.501,-1.65l-0.699,-1.55l-0.899,-1.499l-1.05,-1.35l-1.199,-1.199l-1.349,-1.05l-1.449,-0.899l-1.599,-0.7l-1.599,-0.5l-1.699,-0.3l-1.699,-0.1l-47.221,-0l-0.9,0.1l-0.899,0.25l-0.799,0.45l-0.75,0.6l-0.599,0.699l-0.4,0.801l-0.3,0.899l-0.05,0.899l-0,23.643l0.05,0.899l0.3,0.901l0.4,0.799l0.599,0.75l0.75,0.549l0.799,0.451l0.899,0.25l0.9,0.1l56.665,-0Zm-335.246,41.335l0.1,0.901l0.25,0.899l0.45,0.799l0.6,0.751l0.699,0.599l0.85,0.4l0.85,0.3l0.948,0.05l14.142,-0l0.95,-0.05l0.849,-0.3l0.849,-0.4l0.7,-0.599l0.599,-0.751l0.4,-0.799l0.3,-0.899l0.1,-0.901l-0,-69.677l-0.1,-0.899l-0.3,-0.899l-0.4,-0.801l-0.599,-0.699l-0.7,-0.6l-0.849,-0.45l-0.849,-0.25l-0.95,-0.1l-14.142,-0l-0.948,0.1l-0.85,0.25l-0.85,0.45l-0.699,0.6l-0.6,0.699l-0.45,0.801l-0.25,0.899l-0.1,0.899l0,69.677Zm200.678,-74.375l-0.899,0.1l-0.9,0.25l-0.849,0.45l-0.7,0.6l-0.599,0.699l-0.4,0.801l-0.3,0.899l-0.099,0.899l-0,23.643l0.099,0.899l0.3,0.901l0.4,0.799l0.599,0.75l0.7,0.549l0.849,0.451l0.9,0.25l0.899,0.1l56.666,-0l0.9,-0.1l0.898,-0.25l0.8,-0.451l0.75,-0.549l0.549,-0.75l0.45,-0.799l0.25,-0.901l0.1,-0.899l-0,-23.643l-0.1,-0.899l-0.25,-0.899l-0.45,-0.801l-0.549,-0.699l-0.75,-0.6l-0.8,-0.45l-0.898,-0.25l-0.9,-0.1l-56.666,-0Z" style="fill:#fff;"/><g><g><rect x="191.244" y="330.471" width="41.953" height="75.591" style="fill:#0079c1;"/><path d="M216.188,375.651c-0,2.815 -2.316,4.755 -6.821,4.755c-2.878,0 -6.07,-1.564 -6.07,-4.818c0,-4.443 4.005,-4.943 7.322,-5.256c1.501,-0.125 4.004,-0.313 5.569,-0.376l-0,5.695Zm11.201,5.569c-2.316,-0.876 -3.192,-2.378 -3.192,-5.006l0,-13.579c0,-8.886 -4.505,-13.266 -13.015,-13.266c-4.881,0 -9.324,1.126 -13.829,3.755l2.941,6.445c3.316,-2.003 6.633,-2.879 10.262,-2.879c4.005,0 5.694,1.815 5.694,5.507l0,1.439c-2.19,0.125 -5.944,0.438 -7.947,0.626c-3.504,0.313 -13.14,1.377 -13.14,11.889c-0,7.134 5.882,10.826 12.702,10.826c4.631,-0 7.822,-1.565 10.012,-3.505c1.189,2.128 3.192,3.442 5.882,3.692l3.63,-5.944Z" style="fill:#fff;fill-rule:nonzero;"/></g><g><rect x="272.504" y="330.471" width="20.409" height="75.591" style="fill:#0079c1;"/><path d="M287.007,349.312l-8.53,-0l-0,37.852l8.53,0l0,-37.852Zm0.8,-9.996c-0,-2.799 -2.266,-5.065 -5.065,-5.065c-2.866,-0 -5.131,2.266 -5.131,5.065c-0,2.865 2.265,5.131 5.131,5.131c2.799,0 5.065,-2.266 5.065,-5.131Z" style="fill:#fff;fill-rule:nonzero;"/></g><g><rect x="160.63" y="330.471" width="30.614" height="75.591" style="fill:#0079c1;"/><path d="M187.342,379.258c-1.43,0.544 -2.996,0.817 -4.494,0.817c-3.813,-0 -4.698,-1.294 -4.698,-4.903l-0,-19.609l10.009,-0l-0,-7.354l-10.009,0l-0,-13.958l-8.647,3.881l-0,10.077l-6.401,0l0,7.354l6.401,-0l-0,23.014c-0,7.83 5.923,9.532 10.69,9.532c3.813,0 6.536,-0.749 8.579,-1.293l-1.43,-7.558Z" style="fill:#fff;fill-rule:nonzero;"/></g><g><rect x="233.197" y="330.471" width="39.307" height="75.591" style="fill:#0079c1;"/><path d="M257.508,367.202l11.845,-17.833l-9.649,0l-6.854,10.713l-6.92,-10.713l-9.648,0l11.844,17.9l-13.242,19.895l9.582,0l8.318,-12.909l8.317,12.909l9.715,0l-13.308,-19.962Z" style="fill:#fff;fill-rule:nonzero;"/></g></g></g></svg>