<?xml version="1.0" encoding="UTF-8" standalone="no"?><!DOCTYPE svg PUBLIC "-//W3C//DTD SVG 1.1//EN" "http://www.w3.org/Graphics/SVG/1.1/DTD/svg11.dtd"><svg width="100%" height="100%" viewBox="0 0 454 454" version="1.1" xmlns="http://www.w3.org/2000/svg" xmlns:xlink="http://www.w3.org/1999/xlink" xml:space="preserve" xmlns:serif="http://www.serif.com/" style="fill-rule:evenodd;clip-rule:evenodd;stroke-linejoin:round;stroke-miterlimit:2;"><g transform="matrix(50,0,0,50,321.022,262.709)"></g><text x="133.4px" y="262.709px" style="font-family:'ArialMT', 'Arial', sans-serif;font-size:50px;">sw=38.4</text><g id="_953A-Route-for--Buses--Cycles-and-Motorcycles" serif:id="953A Route for  Buses, Cycles and Motorcycles"><circle cx="226.772" cy="226.772" r="226.772" style="fill:#fff;"/><path d="M226.772,0c125.158,0 226.771,101.613 226.771,226.772c0,125.158 -101.613,226.771 -226.771,226.771c-125.159,0 -226.772,-101.613 -226.772,-226.771c-0,-125.159 101.613,-226.772 226.772,-226.772Zm-0,1.181c-124.507,0 -225.591,101.084 -225.591,225.591c0,124.506 101.084,225.59 225.591,225.59c124.506,0 225.59,-101.084 225.59,-225.59c0,-124.507 -101.084,-225.591 -225.59,-225.591Z" style="fill:#0079c1;"/><circle cx="226.772" cy="226.772" r="217.701" style="fill:#0079c1;"/><path d="M146.595,102.567l0.1,-1.478l0.179,-1.458l0.26,-1.478l0.339,-1.438l0.42,-1.417l0.479,-1.398l0.559,-1.378l0.619,-1.358l0.699,-1.298l0.759,-1.278l0.839,-1.218l0.898,-1.179l0.959,-1.138l0.998,-1.098l1.079,-1.019l1.118,-0.978l1.158,-0.899l1.218,-0.858l1.258,-0.779l1.298,-0.719l1.338,-0.659l1.358,-0.559l1.398,-0.52l1.418,-0.419l1.438,-0.359l1.457,-0.28l1.478,-0.2l1.478,-0.139l1.477,-0.04l1.478,0.02l1.478,0.099l1.478,0.2l1.457,0.26l1.458,0.339l1.418,0.4l1.398,0.479l6.13,-22.865l0.08,-0.42l-0.02,-0.439l-0.08,-0.44l-0.159,-0.399l-0.24,-0.359l-0.299,-0.32l-0.36,-0.259l-0.599,-0.4l-0.579,-0.459l-0.519,-0.499l-0.46,-0.56l-0.419,-0.619l-0.339,-0.619l-0.3,-0.679l-0.22,-0.699l-0.159,-0.699l-0.08,-0.718l-0.02,-0.739l0.06,-0.719l0.119,-0.719l0.2,-0.699l0.26,-0.679l0.319,-0.659l0.38,-0.619l0.439,-0.579l0.499,-0.539l0.559,-0.48l0.58,-0.419l0.639,-0.38l0.659,-0.299l0.678,-0.24l0.699,-0.179l0.719,-0.1l0.739,-0.04l13.2,-0l-0,7.069l-10.843,0l-0.32,0.04l-0.32,0.12l-0.279,0.18l-0.22,0.239l-0.159,0.3l-0.1,0.319l-0.02,0.32l0.06,0.339l0.139,0.3l0.2,0.259l0.26,0.2l0.579,0.4l0.519,0.479l0.479,0.499l0.42,0.559l0.359,0.619l0.28,0.619l0.219,0.679l0.16,0.679l0.06,0.699l-0,0.699l-0.06,0.679l-0.14,0.699l-1.138,4.234l51.66,-0l2.577,-7.07l-10.904,-2.416l-0.399,-0.12l-0.359,-0.2l-0.32,-0.239l-0.28,-0.3l-0.219,-0.339l-0.16,-0.36l-0.1,-0.399l-0.02,-0.399l0.04,-0.4l0.12,-0.399l0.18,-0.36l0.239,-0.339l0.28,-0.28l0.339,-0.219l0.36,-0.18l0.399,-0.1l0.4,-0.04l24.402,0l0.239,0.04l0.22,0.1l0.2,0.14l0.14,0.199l0.1,0.22l0.04,0.24l-0.04,0.239l-0.22,0.779l-0.32,0.759l-0.379,0.699l-0.439,0.679l-0.519,0.639l-0.56,0.579l-0.619,0.519l-0.679,0.46l-0.699,0.399l-0.739,0.319l-0.778,0.26l-0.779,0.18l-0.799,0.1l-2.177,5.991l11.163,19.35l1.378,-0.539l1.418,-0.479l1.418,-0.38l1.438,-0.319l1.457,-0.24l1.478,-0.16l1.478,-0.099l1.478,-0l1.477,0.059l1.478,0.16l1.458,0.22l1.458,0.299l1.417,0.36l1.418,0.459l1.378,0.519l1.358,0.6l1.338,0.659l1.278,0.718l1.238,0.799l1.218,0.859l1.158,0.939l1.099,0.978l1.058,1.038l0.998,1.079l0.939,1.158l0.878,1.178l0.82,1.238l0.738,1.278l0.679,1.318l0.619,1.338l0.54,1.378l0.479,1.398l0.379,1.438l0.319,1.438l0.24,1.458l0.18,1.477l0.08,1.478l0.02,1.478l-0.06,1.478l-0.14,1.477l-0.22,1.458l-0.299,1.438l-0.38,1.438l-0.439,1.418l-0.519,1.378l-0.579,1.358l-0.659,1.318l-0.739,1.298l-0.779,1.238l-0.858,1.218l-0.939,1.158l-0.979,1.098l-1.018,1.059l-1.098,0.998l-1.138,0.959l-1.199,0.879l-1.218,0.818l-1.278,0.739l-1.318,0.699l-1.338,0.599l-1.378,0.559l-1.398,0.46l-1.437,0.399l-1.438,0.32l-1.458,0.259l-1.477,0.16l-1.478,0.1l-1.478,0.02l-1.478,-0.06l-1.457,-0.14l-1.478,-0.22l-1.438,-0.279l-1.438,-0.38l-1.418,-0.439l-1.378,-0.519l-1.357,-0.579l-1.338,-0.659l-1.278,-0.719l-1.259,-0.799l-1.197,-0.859l-1.179,-0.898l-1.098,-0.979l-1.058,-1.038l-0.999,-1.099l-0.959,-1.138l-0.878,-1.178l-0.819,-1.238l-0.759,-1.258l-0.698,-1.318l-0.619,-1.338l-0.54,-1.378l-0.479,-1.398l-0.4,-1.418l-0.319,-1.458l-0.259,-1.457l-0.16,-1.458l-2.776,-0l-0.259,0.978l-0.36,0.939l-0.419,0.918l-0.5,0.879l-0.579,0.839l-0.659,0.779l-0.699,0.719l-0.778,0.639l-0.819,0.599l2.436,5.212l4.952,-0l0,3.774l-3.195,0l-0.339,0.399l-0.399,0.36l-0.44,0.28l-0.479,0.199l-0.519,0.12l-0.539,0.06l-0.52,-0.06l-0.519,-0.12l-0.479,-0.199l-0.459,-0.28l-0.38,-0.36l-0.339,-0.399l-3.195,0l-0,-3.774l3.195,-0l-1.777,-3.814l-0.959,0.239l-0.959,0.16l-0.978,0.1l-0.998,-0l-0.979,-0.08l-0.978,-0.16l-0.939,-0.239l-0.939,-0.32l-0.898,-0.399l-0.879,-0.48l-0.819,-0.539l-0.778,-0.599l-0.719,-0.679l-0.659,-0.719l-0.599,-0.779l-0.54,-0.838l-0.459,-0.859l-0.379,-0.919l-0.32,-0.938l-0.219,-0.959l-0.16,-0.958l-0.06,-0.999l-0,-0.978l0.1,-0.979l0.18,-0.958l0.259,-0.959l-32.789,-22.945l-0.919,3.415l1.198,0.898l1.138,0.939l1.079,1.018l1.038,1.059l0.979,1.118l0.898,1.158l0.859,1.218l0.799,1.259l0.719,1.298l0.639,1.318l0.599,1.377l0.499,1.378l0.439,1.418l0.36,1.438l0.279,1.458l0.22,1.478l0.14,1.477l0.04,1.478l-0.02,1.478l-0.1,1.478l-0.18,1.477l-0.259,1.458l-0.32,1.438l-0.419,1.438l-0.48,1.398l-0.539,1.378l-0.639,1.338l-0.679,1.318l-0.779,1.278l-0.818,1.218l-0.899,1.198l-0.938,1.138l-1.019,1.079l-1.058,1.038l-1.119,0.959l-1.178,0.918l-1.198,0.859l-1.258,0.779l-1.298,0.719l-1.338,0.659l-1.358,0.579l-1.398,0.499l-1.417,0.439l-1.438,0.36l-1.458,0.279l-1.478,0.22l-1.458,0.12l-1.497,0.06l-1.478,-0.02l-1.478,-0.1l-1.477,-0.18l-1.458,-0.259l-1.438,-0.34l-1.438,-0.399l-1.398,-0.48l-1.377,-0.559l-1.338,-0.639l-1.318,-0.679l-1.258,-0.778l-1.239,-0.819l-1.178,-0.899l-1.138,-0.958l-1.078,-0.999l-1.039,-1.078l-0.978,-1.119l-0.899,-1.158l-0.859,-1.218l-0.778,-1.258l-0.719,-1.298l-0.659,-1.338l-0.579,-1.358l-0.5,-1.398l-0.439,-1.418l-0.359,-1.438l-0.28,-1.457l-0.2,-1.458l-0.139,-1.478l-0.04,-1.498l0.02,-1.477Zm96.771,-8.108l0.779,0.659l0.738,0.719l0.659,0.799l0.58,0.838l0.519,0.879l0.439,0.919l0.36,0.958l0.259,0.999l2.776,-0l0.16,-1.458l0.259,-1.438l0.319,-1.438l0.4,-1.418l0.459,-1.398l0.54,-1.357l0.619,-1.338l0.678,-1.298l0.739,-1.259l0.819,-1.238l0.859,-1.178l0.938,-1.138l0.999,-1.079l1.038,-1.018l1.098,-0.979l1.138,-0.918l-8.207,-14.219l-9.964,27.399Zm16.454,3.215l-0.339,1.178l-0.28,1.178l-0.2,1.199l14.059,-0l-7.229,-12.521l-0.899,0.818l-0.838,0.859l-0.799,0.919l-0.739,0.978l-0.679,0.999l-0.619,1.058l-0.559,1.078l-0.479,1.119l-0.4,1.138Zm-31.172,6.151l0.04,0.739l0.1,0.738l0.18,0.719l0.26,0.699l0.319,0.659l0.379,0.639l0.44,0.599l0.499,0.54l0.539,0.499l0.599,0.439l0.639,0.38l0.659,0.319l0.699,0.26l0.719,0.179l0.739,0.1l0.739,0.04l0.739,-0.04l0.739,-0.1l0.718,-0.179l0.699,-0.26l0.659,-0.319l0.639,-0.38l0.599,-0.439l0.54,-0.499l0.499,-0.54l0.439,-0.599l0.38,-0.639l0.319,-0.659l0.26,-0.699l0.179,-0.719l0.1,-0.738l0.04,-0.739l-0.04,-0.739l-0.1,-0.739l-0.179,-0.719l-0.26,-0.699l-0.319,-0.659l-0.38,-0.639l-0.439,-0.599l-0.499,-0.539l-0.54,-0.499l-0.599,-0.44l-0.639,-0.379l-0.659,-0.32l-0.699,-0.259l-0.718,-0.18l-0.739,-0.1l-0.739,-0.04l-0.739,0.04l-0.739,0.1l-0.719,0.18l-0.699,0.259l-0.659,0.32l-0.639,0.379l-0.599,0.44l-0.539,0.499l-0.499,0.539l-0.44,0.599l-0.379,0.639l-0.319,0.659l-0.26,0.699l-0.18,0.719l-0.1,0.739l-0.04,0.739Zm51.082,2.596l-20.729,-0l0.2,1.238l0.28,1.218l0.359,1.198l0.44,1.158l0.499,1.159l0.579,1.098l0.639,1.078l0.719,1.039l0.778,0.978l0.84,0.919l0.878,0.879l0.959,0.818l0.998,0.759l1.039,0.699l1.078,0.619l1.118,0.559l1.158,0.48l1.179,0.419l1.197,0.34l1.239,0.239l1.238,0.2l1.238,0.1l1.258,0.02l1.238,-0.06l1.238,-0.14l1.238,-0.2l1.219,-0.299l1.198,-0.36l1.178,-0.439l1.138,-0.519l1.098,-0.579l1.079,-0.659l1.018,-0.719l0.979,-0.779l0.918,-0.839l0.859,-0.898l0.819,-0.959l0.758,-0.999l0.679,-1.058l0.62,-1.078l0.539,-1.119l0.479,-1.158l0.399,-1.198l0.32,-1.198l0.259,-1.218l0.16,-1.238l0.1,-1.259l0.02,-1.258l-0.06,-1.238l-0.16,-1.238l-0.219,-1.238l-0.3,-1.218l-0.38,-1.178l-0.439,-1.179l-0.519,-1.138l-0.599,-1.098l-0.659,-1.059l-0.739,-1.018l-0.779,-0.979l-0.858,-0.918l-0.899,-0.859l-0.959,-0.799l-0.998,-0.739l-1.058,-0.679l-1.098,-0.599l-1.119,-0.539l-1.158,-0.479l-1.198,-0.38l-1.218,-0.319l-1.218,-0.24l-1.238,-0.159l-1.259,-0.1l-1.238,-0l-1.258,0.08l-1.238,0.159l-1.218,0.22l-1.218,0.32l-1.199,0.379l10.025,17.354l0.2,0.399l0.1,0.439l0.04,0.46l-0.04,0.439l-0.1,0.439l-0.2,0.42l-0.259,0.359l-0.32,0.32l-0.379,0.259l-0.4,0.2l-0.439,0.12l-0.459,0.04Zm-123.53,-9.206l-0.38,1.178l-0.299,1.218l-0.24,1.218l-0.139,1.238l-0.08,1.238l0.02,1.239l0.08,1.258l0.159,1.218l0.24,1.218l0.319,1.218l0.38,1.178l0.479,1.159l0.519,1.118l0.619,1.078l0.659,1.059l0.739,0.998l0.799,0.959l0.859,0.898l0.918,0.839l0.959,0.799l0.998,0.719l1.059,0.659l1.098,0.599l1.118,0.519l1.178,0.459l1.179,0.38l1.198,0.299l1.238,0.22l1.218,0.16l1.258,0.08l1.238,-0.02l1.238,-0.08l1.238,-0.16l1.218,-0.24l1.199,-0.319l1.178,-0.38l1.158,-0.459l1.118,-0.539l1.099,-0.599l1.038,-0.679l1.018,-0.739l0.939,-0.799l0.919,-0.858l0.838,-0.899l0.799,-0.959l0.719,-1.018l0.659,-1.058l0.599,-1.079l0.519,-1.138l0.459,-1.158l0.38,-1.179l0.299,-1.218l0.24,-1.218l0.14,-1.238l0.08,-1.238l-0,-1.238l-0.1,-1.238l-0.16,-1.238l-0.24,-1.219l-0.299,-1.218l-0.399,-1.178l-0.46,-1.158l-0.539,-1.119l-0.599,-1.078l-0.659,-1.058l-0.739,-0.999l-0.799,-0.958l-0.858,-0.899l-1.598,5.931l-0.299,1.018l-0.4,0.999l-0.439,0.959l-0.519,0.938l-0.599,0.879l-0.639,0.838l-0.699,0.799l-0.759,0.759l-0.819,0.679l-0.859,0.639l-0.898,0.579l-0.919,0.499l-0.978,0.44l-0.999,0.359l-1.018,0.3l-1.039,0.239l-0.459,0.04l-0.459,-0.04l-0.439,-0.099l-0.42,-0.18l-0.379,-0.24l-0.34,-0.299l-0.299,-0.36l-0.24,-0.379l-0.16,-0.44l-0.099,-0.439l-0.02,-0.459l0.059,-0.439l0.12,-0.44l0.2,-0.419l0.26,-0.38l0.299,-0.339l0.38,-0.26l1.018,-0.719l0.998,-0.798l0.939,-0.859l0.859,-0.899l0.818,-0.978l0.739,-1.019l0.659,-1.078l0.599,-1.098l0.539,-1.159l0.44,-1.178l0.359,-1.218l1.298,-4.853l-1.158,-0.459l-1.178,-0.359l-1.218,-0.32l-1.218,-0.22l-1.238,-0.139l-1.239,-0.08l-1.238,0.02l-1.238,0.08l-1.238,0.159l-1.218,0.24l-1.218,0.319l-1.178,0.4l-1.139,0.459l-1.138,0.539l-1.078,0.599l-1.039,0.679l-1.018,0.739l-0.939,0.799l-0.918,0.859l-0.839,0.898l-0.779,0.959l-0.739,1.018l-0.658,1.059l-0.58,1.098l-0.539,1.118l-0.439,1.159Zm72.808,-2.736l0.759,-0.539l-2.437,-5.212l-4.952,-0l0,-3.775l3.195,0l0.32,-0.399l0.399,-0.36l0.459,-0.279l0.48,-0.2l0.519,-0.14l0.519,-0.04l0.539,0.04l0.519,0.14l0.48,0.2l0.439,0.279l0.399,0.36l0.34,0.399l3.195,0l-0,3.775l-3.195,-0l1.777,3.814l0.959,-0.26l0.998,-0.16l0.999,-0.079l0.998,-0l9.445,-25.961l-50.981,-0l-1.058,3.954l34.886,24.443Z" style="fill:#fff;"/><path d="M334.62,269.148l0.45,-2.199l0.25,-2.15l-0,-2.249l-0.15,-2.199l-0.35,-2.149l-0.599,-2.15l-0.75,-2.049l-0.95,-1.999l-1.149,-1.9l-1.299,-1.749l-1.499,-1.65l-1.599,-1.499l-1.749,-1.35l-1.849,-1.2l-1.999,-0.999l-2.048,-0.799l-2.099,-0.601l-2.199,-0.4l-2.199,-0.199l-2.198,-0l-2.199,0.199l-2.149,0.4l-2.148,0.601l-2.049,0.799l-1.949,0.999l-1.899,1.2l-1.749,1.35l-1.599,1.499l-1.499,1.65l-1.299,1.749l-1.149,1.9l-0.95,1.999l-0.749,2.049l-0.55,2.15l-0.4,2.149l-0.15,2.199l0.05,2.249l0.25,2.15l0.45,2.199l-143.163,-0l0.45,-2.199l0.25,-2.15l0.049,-2.249l-0.149,-2.199l-0.4,-2.149l-0.55,-2.15l-0.8,-2.049l-0.948,-1.999l-1.15,-1.9l-1.299,-1.749l-1.449,-1.65l-1.649,-1.499l-1.749,-1.35l-1.849,-1.2l-1.949,-0.999l-2.099,-0.799l-2.099,-0.601l-2.148,-0.4l-2.198,-0.199l-2.249,-0l-2.149,0.199l-2.198,0.4l-2.099,0.601l-2.049,0.799l-1.999,0.999l-1.849,1.2l-1.748,1.35l-1.65,1.499l-1.449,1.65l-1.299,1.749l-1.15,1.9l-0.949,1.999l-0.799,2.049l-0.55,2.15l-0.349,2.149l-0.2,2.199l0.05,2.249l0.25,2.15l0.449,2.199l-51.519,-0l-1.348,-0.1l-1.4,-0.3l-1.299,-0.45l-1.249,-0.599l-1.15,-0.75l-1.049,-0.95l-0.9,-1l-0.799,-1.199l-0.599,-1.25l-0.45,-1.299l-0.25,-1.35l-0.1,-1.399l0,-37.788l0.1,-0.9l0.25,-0.899l0.45,-0.8l0.549,-0.75l0.749,-0.55l0.8,-0.449l0.899,-0.25l0.9,-0.1l2.149,-51.034l0.1,-0.999l0.3,-0.95l0.449,-0.9l0.6,-0.799l0.75,-0.7l0.799,-0.55l0.899,-0.4l0.999,-0.25l1,-0.1l341.342,0l2.198,0.1l2.15,0.3l2.149,0.5l2.047,0.699l2,0.901l1.898,1.049l1.8,1.2l1.697,1.399l1.55,1.55l1.35,1.699l1.249,1.799l1.049,1.9l0.899,1.999l0.701,2.05l0.499,2.149l0.299,2.149l0.101,2.149l0,70.877l-81.001,15.345Zm-229.81,-0.45l-0.45,-1.799l-0.3,-1.8l-0.05,-1.849l0.05,-1.849l0.3,-1.85l0.45,-1.799l0.6,-1.749l0.799,-1.7l0.95,-1.55l1.099,-1.499l1.249,-1.4l1.399,-1.249l1.499,-1.1l1.55,-0.95l1.699,-0.799l1.749,-0.6l1.798,-0.45l1.849,-0.3l1.849,-0.05l1.849,0.05l1.799,0.3l1.798,0.45l1.75,0.6l1.699,0.799l1.599,0.95l1.449,1.1l1.399,1.249l1.249,1.4l1.099,1.499l0.95,1.55l0.799,1.7l0.6,1.749l0.45,1.799l0.3,1.85l0.1,1.849l-0.1,1.849l-0.3,1.8l-0.45,1.799l-0.6,1.75l-0.799,1.699l-0.95,1.6l-1.099,1.449l-1.249,1.399l-1.399,1.25l-1.449,1.1l-1.599,0.949l-1.699,0.8l-1.75,0.6l-1.798,0.45l-1.799,0.299l-1.849,0.05l-1.849,-0.05l-1.849,-0.299l-1.798,-0.45l-1.749,-0.6l-1.699,-0.8l-1.55,-0.949l-1.499,-1.1l-1.399,-1.25l-1.249,-1.399l-1.099,-1.449l-0.95,-1.6l-0.799,-1.699l-0.6,-1.75Zm188.836,0l-0.45,-1.799l-0.25,-1.8l-0.1,-1.849l0.1,-1.849l0.25,-1.85l0.45,-1.799l0.648,-1.749l0.8,-1.7l0.95,-1.55l1.099,-1.499l1.249,-1.4l1.35,-1.249l1.499,-1.1l1.598,-0.95l1.649,-0.799l1.749,-0.6l1.8,-0.45l1.849,-0.3l1.848,-0.05l1.849,0.05l1.849,0.3l1.799,0.45l1.749,0.6l1.648,0.799l1.6,0.95l1.499,1.1l1.349,1.249l1.249,1.4l1.1,1.499l0.949,1.55l0.799,1.7l0.65,1.749l0.45,1.799l0.249,1.85l0.1,1.849l-0.1,1.849l-0.249,1.8l-0.45,1.799l-0.65,1.75l-0.799,1.699l-0.949,1.6l-1.1,1.449l-1.249,1.399l-1.349,1.25l-1.499,1.1l-1.6,0.949l-1.648,0.8l-1.749,0.6l-1.799,0.45l-1.849,0.299l-1.849,0.05l-1.848,-0.05l-1.849,-0.299l-1.8,-0.45l-1.749,-0.6l-1.649,-0.8l-1.598,-0.949l-1.499,-1.1l-1.35,-1.25l-1.249,-1.399l-1.099,-1.449l-0.95,-1.6l-0.8,-1.699l-0.648,-1.75Zm-178.692,-0.35l0.8,1.05l0.949,0.95l1.05,0.849l1.198,0.6l1.249,0.5l1.35,0.299l1.349,0.101l1.299,-0.101l1.35,-0.299l1.249,-0.5l1.199,-0.6l1.049,-0.849l0.95,-0.95l0.849,-1.05l0.6,-1.2l0.5,-1.249l0.299,-1.35l0.1,-1.299l-0.1,-1.35l-0.299,-1.349l-0.5,-1.25l-0.6,-1.199l-0.849,-1.05l-0.95,-0.95l-1.049,-0.8l-1.199,-0.649l-1.249,-0.5l-1.35,-0.25l-1.299,-0.1l-1.349,0.1l-1.35,0.25l-1.249,0.5l-1.198,0.649l-1.05,0.8l-0.949,0.95l-0.8,1.05l-0.65,1.199l-0.499,1.25l-0.25,1.349l-0.1,1.35l0.1,1.299l0.25,1.35l0.499,1.249l0.65,1.2Zm188.835,0l0.799,1.05l0.95,0.95l1.099,0.849l1.2,0.6l1.249,0.5l1.299,0.299l1.349,0.101l1.349,-0.101l1.299,-0.299l1.3,-0.5l1.149,-0.6l1.1,-0.849l0.949,-0.95l0.8,-1.05l0.649,-1.2l0.449,-1.249l0.3,-1.35l0.1,-1.299l-0.1,-1.35l-0.3,-1.349l-0.449,-1.25l-0.649,-1.199l-0.8,-1.05l-0.949,-0.95l-1.1,-0.8l-1.149,-0.649l-1.3,-0.5l-1.299,-0.25l-1.349,-0.1l-1.349,0.1l-1.299,0.25l-1.249,0.5l-1.2,0.649l-1.099,0.8l-0.95,0.95l-0.799,1.05l-0.65,1.199l-0.45,1.25l-0.299,1.349l-0.101,1.35l0.101,1.299l0.299,1.35l0.45,1.249l0.65,1.2Zm-140.765,-57.081l0.9,-0.1l0.899,-0.249l0.8,-0.451l0.75,-0.55l0.549,-0.749l0.45,-0.8l0.25,-0.9l0.1,-0.899l-0,-23.643l-0.1,-0.899l-0.25,-0.9l-0.45,-0.8l-0.549,-0.699l-0.75,-0.6l-0.8,-0.45l-0.899,-0.25l-0.9,-0.1l-56.665,-0l-0.949,0.1l-0.85,0.25l-0.849,0.45l-0.7,0.6l-0.6,0.699l-0.4,0.8l-0.299,0.9l-0.1,0.899l-0,23.643l0.1,0.899l0.299,0.9l0.4,0.8l0.6,0.749l0.7,0.55l0.849,0.451l0.85,0.249l0.949,0.1l56.665,0Zm21.238,-33.039l-0.95,0.1l-0.849,0.25l-0.85,0.45l-0.7,0.6l-0.6,0.699l-0.399,0.8l-0.3,0.9l-0.1,0.899l0,23.643l0.1,0.899l0.3,0.9l0.399,0.8l0.6,0.749l0.7,0.55l0.85,0.451l0.849,0.249l0.95,0.1l56.665,0l0.899,-0.1l0.9,-0.249l0.799,-0.451l0.75,-0.55l0.55,-0.749l0.45,-0.8l0.249,-0.9l0.1,-0.899l0,-23.643l-0.1,-0.899l-0.249,-0.9l-0.45,-0.8l-0.55,-0.699l-0.75,-0.6l-0.799,-0.45l-0.9,-0.25l-0.899,-0.1l-56.665,-0Zm212.47,33.039l0.9,-0.1l0.9,-0.249l0.798,-0.451l0.75,-0.55l0.549,-0.749l0.451,-0.8l0.299,-0.9l0.05,-0.899l-0,-14.196l-0.1,-1.699l-0.299,-1.649l-0.501,-1.65l-0.699,-1.55l-0.899,-1.499l-1.05,-1.35l-1.199,-1.199l-1.349,-1.05l-1.449,-0.9l-1.599,-0.699l-1.599,-0.5l-1.699,-0.3l-1.699,-0.1l-47.221,-0l-0.9,0.1l-0.899,0.25l-0.799,0.45l-0.75,0.6l-0.599,0.699l-0.4,0.8l-0.3,0.9l-0.05,0.899l-0,23.643l0.05,0.899l0.3,0.9l0.4,0.8l0.599,0.749l0.75,0.55l0.799,0.451l0.899,0.249l0.9,0.1l56.665,0Zm-335.246,41.336l0.1,0.9l0.25,0.9l0.45,0.799l0.6,0.751l0.699,0.599l0.85,0.4l0.85,0.3l0.948,0.05l14.142,-0l0.95,-0.05l0.849,-0.3l0.849,-0.4l0.7,-0.599l0.599,-0.751l0.4,-0.799l0.3,-0.9l0.1,-0.9l-0,-69.677l-0.1,-0.899l-0.3,-0.9l-0.4,-0.8l-0.599,-0.699l-0.7,-0.6l-0.849,-0.45l-0.849,-0.25l-0.95,-0.1l-14.142,-0l-0.948,0.1l-0.85,0.25l-0.85,0.45l-0.699,0.6l-0.6,0.699l-0.45,0.8l-0.25,0.9l-0.1,0.899l0,69.677Zm200.678,-74.375l-0.899,0.1l-0.9,0.25l-0.849,0.45l-0.7,0.6l-0.599,0.699l-0.4,0.8l-0.3,0.9l-0.099,0.899l-0,23.643l0.099,0.899l0.3,0.9l0.4,0.8l0.599,0.749l0.7,0.55l0.849,0.451l0.9,0.249l0.899,0.1l56.666,0l0.9,-0.1l0.898,-0.249l0.8,-0.451l0.75,-0.55l0.549,-0.749l0.45,-0.8l0.25,-0.9l0.1,-0.899l-0,-23.643l-0.1,-0.899l-0.25,-0.9l-0.45,-0.8l-0.549,-0.699l-0.75,-0.6l-0.8,-0.45l-0.898,-0.25l-0.9,-0.1l-56.666,-0Z" style="fill:#fff;"/><g><path d="M141.872,384.193l0.225,-1.6l0.3,-1.575l0.425,-1.55l0.5,-1.55l0.6,-1.501l0.675,-1.45l0.775,-1.425l0.85,-1.375l0.95,-1.3l1,-1.275l1.1,-1.175l1.15,-1.125l1.225,-1.051l1.3,-0.975l1.35,-0.9l1.4,-0.825l1.425,-0.725l1.5,-0.625l1.525,-0.55l1.55,-0.45l1.575,-0.35l1.575,-0.275l1.625,-0.15l1.6,-0.075l1.625,0.025l1.6,0.125l1.6,0.225l1.576,0.325l1.575,0.425l1.525,0.525l1.45,-2.5l-1.625,-0.575l-1.65,-0.475l-1.675,-0.375l-1.701,-0.275l-1.7,-0.2l-1.725,-0.075l-1.7,-0l0,-10.776l6.326,-0l1.45,-0.05l1.45,-0.15l1.45,-0.225l1.425,-0.325l1.4,-0.425l1.35,-0.501l1.35,-0.6l1.3,-0.675l1.225,-0.75l1.2,-0.85l1.15,-0.9l1.075,-1l1,-1.05l0.95,-1.125l0.875,-1.15l0.775,-1.25l11.65,-19.402l0.175,-0.2l0.225,-0.15l0.25,-0.05l0.275,-0l0.25,0.1l0.2,0.175l0.15,0.225l0.05,0.25l0,0.275l-5.275,24.727l-0.05,0.5l0.025,0.5l0.125,0.475l0.175,0.45l0.275,0.425l0.35,0.35l0.4,0.3l0.45,0.225l0.475,0.15l0.475,0.05l0.5,-0.025l0.475,-0.125l0.475,-0.2l0.4,-0.275l8.225,-6.575l7.076,-12.176l0.175,-0.35l0.1,-0.375l0.025,-0.4l-0,-0.651l-0.7,0.1l-0.725,0l-0.726,-0.075l-0.675,-0.175l-0.675,-0.25l-0.625,-0.35l-0.6,-0.4l-0.525,-0.5l-0.45,-0.55l-0.4,-0.6l-0.3,-0.65l-0.225,-0.675l-0.125,-0.7l-0.05,-0.725l0,-6.801l-2.275,0l0,-1.125l0.05,-1l0.15,-1l0.25,-0.975l0.325,-0.925l0.425,-0.9l0.525,-0.875l0.575,-0.8l0.675,-0.751l0.75,-0.65l0.8,-0.6l0.85,-0.525l0.9,-0.425l0.951,-0.35l0.975,-0.225l0.975,-0.15l1,-0.075l1,0.05l1,0.15l0.95,0.25l0.95,0.325l0.9,0.425l0.875,0.5l0.8,0.6l0.75,0.675l0.675,0.726l0.6,0.8l0.5,0.85l0.45,0.9l0.325,0.95l0.25,0.975l0.15,0.975l0.075,1l-0.05,1l-0.15,1l-0.225,0.95l-0.325,0.951l-0.425,0.9l-0.525,0.875l-0.575,0.8l-0,3.875l2.275,0l13.075,5.576l13.4,14.526l0.675,0.8l0.6,0.875l0.5,0.925l0.45,0.95l0.325,1l0.25,1.026l0.15,1.05l0.05,1.05l0,1.625l24.951,-0l0.725,0.05l0.725,0.15l0.7,0.225l0.675,0.325l0.625,0.425l0.55,0.475l0.475,0.575l0.425,0.6l0.325,0.675l0.25,0.7l0.125,0.725l0.05,0.75l-0,1.976l1.6,0.75l1.575,0.825l1.5,0.9l1.475,1l1.4,1.075l1.325,1.15l1.275,1.2l1.2,1.3l1.125,1.351l1.05,1.425l0.975,1.475l0.9,1.525l0.8,1.575l0.7,1.6l0.625,1.65l0.551,1.676l0.425,1.725l0.349,1.725l0.251,1.75l0.125,1.75l0.05,1.775l-5.101,0l-0.05,1.576l-0.125,1.6l-0.25,1.575l-0.325,1.55l-0.425,1.55l-0.525,1.5l-0.6,1.476l-0.675,1.425l-0.775,1.4l-0.875,1.325l-0.925,1.3l-1,1.225l-1.1,1.175l-1.15,1.1l-1.2,1.025l-1.275,0.976l-1.325,0.875l-1.375,0.8l-1.425,0.7l-1.475,0.625l-1.5,0.55l-1.525,0.45l-1.55,0.35l-1.575,0.275l-1.575,0.15l-1.6,0.075l-1.6,-0.025l-1.575,-0.1l-1.575,-0.225l-1.575,-0.3l-1.525,-0.4l-1.525,-0.475l-1.475,-0.6l-1.45,-0.65l-1.4,-0.75l-1.375,-0.85l-1.301,-0.9l-1.25,-1.001l-1.175,-1.05l-1.125,-1.15l-1.05,-1.175l-0.975,-1.275l-0.9,-1.3l-0.825,-1.375l-47.676,-0l-1.075,-0.05l-1.05,-0.15l-1.05,-0.25l-1.025,-0.35l-0.975,-0.45l-0.925,-0.525l-0.875,-0.626l-0.825,-0.7l-0.725,-0.775l-0.675,-0.85l-0.6,-0.9l-0.475,-0.95l-0.425,-1l-0.3,-1.025l-0.2,-1.05l-0.125,-1.075l0,-1.075l0.025,-1.726l-0.075,-1.725l-0.175,-1.7l-0.275,-1.7l-0.375,-1.675l-0.475,-1.675l-0.575,-1.626l-0.675,-1.575l-0.75,-1.55l-0.85,-1.5l-0.925,-1.45l-1.025,-1.375l-1.075,-1.35l-1.175,-1.251l-1.25,-1.2l-1.3,-1.125l-1.45,2.501l1.225,1.075l1.125,1.125l1.075,1.225l1,1.275l0.804,1.152l3.379,7.468l0.017,0.056l0.4,1.55l0.275,1.6l0.2,1.6l0.075,1.6l-0,1.626l-0.1,1.625l-0.2,1.6l-0.3,1.575l-0.375,1.575l-0.5,1.525l-0.575,1.525l-0.675,1.451l-0.75,1.45l-0.85,1.375l-0.925,1.325l-1,1.25l-1.075,1.2l-1.15,1.15l-1.2,1.05l-1.3,1.001l-1.325,0.9l-1.375,0.825l-1.45,0.75l-1.475,0.65l-1.5,0.575l-1.55,0.45l-1.575,0.375l-1.601,0.275l-1.6,0.2l-1.6,0.075l-1.625,0l-1.625,-0.125l-1.6,-0.2l-1.575,-0.3l-1.575,-0.4l-1.525,-0.5l-1.5,-0.6l-1.475,-0.675l-1.425,-0.75l-1.375,-0.85l-1.325,-0.95l-1.25,-1.001l-1.2,-1.075l-1.125,-1.175l-1.05,-1.2l-1,-1.3l-0.9,-1.325l-0.8,-1.4l-0.75,-1.425l-0.65,-1.501l-0.55,-1.5l-0.45,-1.55l-0.375,-1.575l-0.275,-1.6l-0.175,-1.6l-0.075,-1.625l0.025,-1.601l0.125,-1.625Zm109.852,-19.327l0,17.102l0.05,0.35l0.175,0.3l0.25,0.225l0.325,0.15l0.325,0.025l0.35,-0.075l0.3,-0.175l0.225,-0.25l0.125,-0.325l8.75,-15.326l0.2,-0.225l0.125,-0.275l0.05,-0.301l-0.025,-0.3l-0.1,-0.3l-0.175,-0.25l-0.25,-0.175l-0.275,-0.125l-0.3,-0.05l-10.125,0Zm13.201,17.327l-0.325,1.2l-0.226,1.2l-0.15,1.25l-0.025,1.225l0.05,1.251l0.15,1.225l0.251,1.225l0.325,1.175l0.45,1.175l0.525,1.125l0.6,1.075l0.7,1.025l0.75,0.975l0.85,0.901l0.925,0.85l0.975,0.775l1.025,0.675l1.075,0.6l1.125,0.525l1.175,0.425l1.175,0.35l1.225,0.25l1.225,0.15l1.25,0.05l1.225,-0.05l1.25,-0.15l1.2,-0.225l1.2,-0.35l1.175,-0.425l1.125,-0.5l1.075,-0.6l1.05,-0.7l0.975,-0.75l0.9,-0.825l0.85,-0.926l0.775,-0.95l0.7,-1.025l0.625,-1.075l0.525,-1.125l0.45,-1.175l0.325,-1.175l0.275,-1.225l0.15,-1.225l0.05,-1.251l-0.025,-1.225l-0.125,-1.225l-0.225,-1.225l-0.325,-1.2l-0.425,-1.175l-0.5,-1.125l-0.6,-1.1l-0.675,-1.025l-0.75,-1l-0.825,-0.926l-0.9,-0.85l-0.95,-0.775l-1.025,-0.7l-1.075,-0.625l-1.125,-0.55l-1.15,-0.45l-1.175,-0.35l-1.225,-0.25l-1.225,-0.175l-1.25,-0.075l-1.225,0.025l2.075,5.701l0.975,0.15l0.975,0.275l0.925,0.325l0.9,0.45l0.85,0.525l0.775,0.6l0.75,0.675l0.65,0.725l0.575,0.8l0.525,0.875l0.4,0.9l0.35,0.925l0.225,0.975l0.15,0.975l0.05,1l-0.05,1.001l-0.15,0.975l-0.25,0.975l-0.325,0.925l-0.425,0.9l-0.525,0.85l-0.6,0.8l-0.65,0.75l-0.75,0.65l-0.775,0.6l-0.875,0.525l-0.875,0.425l-0.95,0.35l-0.95,0.225l-1,0.175l-0.975,0.05l-1,-0.05l-0.975,-0.125l-0.975,-0.25l-0.95,-0.325l-0.9,-0.4l-0.85,-0.5l-0.8,-0.6l-0.75,-0.65l-0.675,-0.725l-0.625,-0.8l-0.525,-0.825l-0.425,-0.9l-0.35,-0.925l-0.25,-0.975l-0.175,-0.975l-0.075,-1.001l0.05,-0.975l0.125,-1l0.2,-0.975l0.325,-0.925l0.4,-0.925l0.5,-0.85l0.575,-0.825l0.65,-0.75l-2.075,-5.701l-0.975,0.775l-0.9,0.85l-0.825,0.925l-0.775,0.976l-0.675,1.05l-0.6,1.075l-0.5,1.125l-0.425,1.175Zm-112.203,2.2l-0.175,1.225l-0.05,1.25l0.05,1.226l0.125,1.25l0.225,1.2l0.325,1.2l0.425,1.175l0.5,1.125l0.6,1.1l0.675,1.025l0.775,1l0.825,0.901l0.9,0.85l0.95,0.8l1.025,0.7l1.075,0.625l1.125,0.525l1.15,0.45l1.2,0.35l1.2,0.25l1.25,0.175l1.225,0.075l1.25,-0.05l1.225,-0.125l1.225,-0.225l1.2,-0.3l1.176,-0.425l1.125,-0.475l1.1,-0.6l1.025,-0.675l1,-0.75l0.925,-0.825l0.85,-0.876l0.8,-0.975l0.7,-1l0.625,-1.075l0.55,-1.125l0.45,-1.15l0.375,-1.175l0.275,-1.225l0.175,-1.225l0.075,-1.225l-0.025,-1.251l-0.125,-1.225l-0.2,-1.225l-0.3,-1.2l-0.4,-1.175l-0.5,-1.15l-0.575,-1.075l-0.65,-1.05l-0.75,-1l-0.825,-0.951l-3.025,5.276l0.5,0.85l0.425,0.9l0.35,0.925l0.225,0.975l0.15,0.975l0.05,1l-0.05,1.001l-0.125,0.975l-0.25,0.975l-0.325,0.925l-0.425,0.9l-0.5,0.85l-0.6,0.825l-0.65,0.725l-0.75,0.675l-0.775,0.6l-0.851,0.525l-0.9,0.425l-0.925,0.35l-0.975,0.25l-0.975,0.15l-1,0.075l-1,-0.05l-0.975,-0.125l-0.975,-0.225l-0.925,-0.325l-0.925,-0.4l-0.85,-0.5l-0.8,-0.575l-0.75,-0.675l-0.7,-0.725l-0.6,-0.775l-0.525,-0.85l-0.45,-0.875l-0.35,-0.925l-0.25,-0.975l-0.175,-0.975l-0.075,-1.001l0.025,-0.975l0.125,-1l0.225,-0.975l0.3,-0.95l0.4,-0.9l0.5,-0.875l0.55,-0.8l0.65,-0.75l0.725,-0.7l0.775,-0.625l0.85,-0.525l0.875,-0.45l0.925,-0.375l0.95,-0.275l0.975,-0.175l1,-0.076l1,0l3.025,-5.25l-1.2,-0.25l-1.25,-0.125l-1.225,-0.05l-1.25,0.05l-1.225,0.15l-1.225,0.225l-1.2,0.35l-1.15,0.425l-1.125,0.5l-1.075,0.625l-1.05,0.675l-0.975,0.775l-0.9,0.825l-0.85,0.9l-0.775,0.976l-0.7,1.025l-0.6,1.1l-0.525,1.1l-0.45,1.175l-0.325,1.2l-0.25,1.2Zm74.052,-42.754l-21.551,12.476l21.551,6.801l6.8,-10.776l-6.8,-8.501Z" style="fill:#fff;"/></g></g></svg>