<?xml version="1.0" encoding="UTF-8" standalone="no"?><!DOCTYPE svg PUBLIC "-//W3C//DTD SVG 1.1//EN" "http://www.w3.org/Graphics/SVG/1.1/DTD/svg11.dtd"><svg width="100%" height="100%" viewBox="0 0 454 454" version="1.1" xmlns="http://www.w3.org/2000/svg" xmlns:xlink="http://www.w3.org/1999/xlink" xml:space="preserve" xmlns:serif="http://www.serif.com/" style="fill-rule:evenodd;clip-rule:evenodd;stroke-linejoin:round;stroke-miterlimit:2;"><g transform="matrix(50,0,0,50,321.022,244.423)"></g><text x="133.4px" y="244.423px" style="font-family:'ArialMT', 'Arial', sans-serif;font-size:50px;">sw=38.4</text><g id="_953.1-Route-for-Trams" serif:id="953.1 Route for Trams"><circle cx="226.772" cy="226.772" r="226.772" style="fill:#fff;"/><path d="M226.772,0c125.158,0 226.771,101.613 226.771,226.772c0,125.158 -101.613,226.771 -226.771,226.771c-125.159,0 -226.772,-101.613 -226.772,-226.771c0,-125.159 101.613,-226.772 226.772,-226.772Zm-0,1.181c-124.507,0 -225.591,101.084 -225.591,225.591c0,124.506 101.084,225.59 225.591,225.59c124.506,0 225.59,-101.084 225.59,-225.59c0,-124.507 -101.084,-225.591 -225.59,-225.591Z" style="fill:#0079c1;"/><circle cx="226.761" cy="226.761" r="217.701" style="fill:#0079c1;"/><path d="M48.505,184.021l0.36,-1.16l0.48,-1.12l0.64,-1.04l0.76,-0.96l0.84,-0.84l0.96,-0.76l1.039,-0.64l1.12,-0.48l1.16,-0.36l1.2,-0.2l1.2,-0.08l124.398,-0l4.48,-4.481l0.76,-0.64l0.84,-0.52l0.92,-0.36l0.96,-0.24l0.96,-0.08l26.399,0l-31.479,-22.042l32.399,-22.682l0,-6.92l0.08,-0.88l0.24,-0.84l0.36,-0.8l0.48,-0.72l0.64,-0.601l0.72,-0.52l0.8,-0.36l0.84,-0.24l0.88,-0.08l5.68,0l0.88,0.08l0.84,0.24l0.8,0.36l0.72,0.52l0.6,0.601l0.52,0.72l0.36,0.8l0.24,0.84l0.08,0.88l0,6.92l32.399,22.682l-31.479,22.042l26.359,0l1,0.08l0.96,0.24l0.92,0.36l0.84,0.52l0.76,0.64l4.44,4.481l124.438,-0l1.199,0.08l1.201,0.2l1.16,0.36l1.08,0.48l1.04,0.64l0.96,0.76l0.88,0.84l0.759,0.96l0.6,1.04l0.521,1.12l0.359,1.16l10.681,42.724l-0,56.725l-31.481,0l0,6.281l-18.919,-0l-0.08,1.4l-0.2,1.4l-0.399,1.36l-0.561,1.32l-0.68,1.24l-0.799,1.12l-0.96,1.08l-1.04,0.92l-1.16,0.841l-1.241,0.68l-1.319,0.52l-1.32,0.4l-1.401,0.24l-1.439,0.08l-1.401,-0.08l-1.399,-0.24l-1.36,-0.4l-1.28,-0.52l-1.241,-0.68l-1.159,-0.841l-1.04,-0.92l-0.96,-1.08l-0.801,-1.12l-0.68,-1.24l-0.559,-1.32l-0.4,-1.36l-0.241,-1.4l-0.08,-1.4l-18.879,-0l-0.08,1.4l-0.24,1.4l-0.4,1.36l-0.52,1.32l-0.68,1.24l-0.84,1.12l-0.92,1.08l-1.08,0.92l-1.12,0.841l-1.24,0.68l-1.319,0.52l-1.36,0.4l-1.401,0.24l-1.399,0.08l-1.401,-0.08l-1.399,-0.24l-1.361,-0.4l-1.32,-0.52l-1.199,-0.68l-1.16,-0.841l-1.08,-0.92l-0.92,-1.08l-0.84,-1.12l-0.681,-1.24l-0.519,-1.32l-0.4,-1.36l-0.241,-1.4l-0.08,-1.4l-138.557,-0l-0.079,1.4l-0.24,1.4l-0.4,1.36l-0.56,1.32l-0.68,1.24l-0.8,1.12l-0.96,1.08l-1.04,0.92l-1.16,0.841l-1.24,0.68l-1.28,0.52l-1.36,0.4l-1.4,0.24l-1.4,0.08l-1.44,-0.08l-1.36,-0.24l-1.36,-0.4l-1.32,-0.52l-1.24,-0.68l-1.16,-0.841l-1.04,-0.92l-0.96,-1.08l-0.8,-1.12l-0.68,-1.24l-0.56,-1.32l-0.36,-1.36l-0.24,-1.4l-0.08,-1.4l-18.92,-0l-0.08,1.4l-0.24,1.4l-0.36,1.36l-0.56,1.32l-0.68,1.24l-0.84,1.12l-0.92,1.08l-1.04,0.92l-1.16,0.841l-1.24,0.68l-1.319,0.52l-1.36,0.4l-1.4,0.24l-1.4,0.08l-1.4,-0.08l-1.4,-0.24l-1.36,-0.4l-1.28,-0.52l-1.24,-0.68l-1.16,-0.841l-1.04,-0.92l-0.96,-1.08l-0.8,-1.12l-0.72,-1.24l-0.52,-1.32l-0.4,-1.36l-0.24,-1.4l-0.08,-1.4l-18.88,-0l0,-6.281l-31.519,0l-0,-56.725l10.72,-42.724Zm331.953,8.081l-0.88,0.08l-0.84,0.24l-0.8,0.36l-0.72,0.52l-0.6,0.6l-0.52,0.72l-0.36,0.8l-0.24,0.881l-0.08,0.84l-0,24.562l0.08,0.88l0.24,0.88l0.36,0.76l0.52,0.72l0.6,0.64l0.72,0.52l0.8,0.36l0.84,0.24l0.88,0.04l15.84,0l0.92,-0.08l0.879,-0.24l0.841,-0.4l0.72,-0.52l0.64,-0.68l0.48,-0.76l0.36,-0.84l0.16,-0.92l0.039,-0.88l-0.16,-0.92l-6.12,-24.562l-0.279,-0.801l-0.4,-0.72l-0.48,-0.68l-0.641,-0.56l-0.68,-0.44l-0.759,-0.36l-0.84,-0.2l-0.801,-0.08l-9.719,0Zm-66.758,0l-0.88,0.08l-0.84,0.24l-0.801,0.36l-0.719,0.52l-0.6,0.6l-0.521,0.72l-0.359,0.8l-0.24,0.881l-0.08,0.84l-0,74.966l0.08,0.88l0.24,0.84l0.359,0.8l0.521,0.72l0.6,0.64l0.719,0.48l0.801,0.401l0.84,0.2l0.88,0.08l15.119,-0l0.88,-0.08l0.84,-0.2l0.8,-0.401l0.719,-0.48l0.641,-0.64l0.479,-0.72l0.361,-0.8l0.24,-0.84l0.08,-0.88l0,-74.966l-0.08,-0.84l-0.24,-0.881l-0.361,-0.8l-0.479,-0.72l-0.641,-0.6l-0.719,-0.52l-0.8,-0.36l-0.84,-0.24l-0.88,-0.08l-15.119,0Zm31.478,0l-0.84,0.08l-0.879,0.24l-0.8,0.36l-0.72,0.52l-0.601,0.6l-0.519,0.72l-0.36,0.8l-0.241,0.881l-0.08,0.84l0,74.966l0.08,0.88l0.241,0.84l0.36,0.8l0.519,0.72l0.601,0.64l0.72,0.48l0.8,0.401l0.879,0.2l0.84,0.08l15.121,-0l0.879,-0.08l0.88,-0.2l0.761,-0.401l0.72,-0.48l0.639,-0.64l0.521,-0.72l0.359,-0.8l0.2,-0.84l0.08,-0.88l-0,-74.966l-0.08,-0.84l-0.2,-0.881l-0.359,-0.8l-0.521,-0.72l-0.639,-0.6l-0.72,-0.52l-0.761,-0.36l-0.88,-0.24l-0.879,-0.08l-15.121,0Zm-83.437,34.643l33.999,0l0.88,-0.04l0.84,-0.24l0.799,-0.36l0.721,-0.52l0.64,-0.64l0.479,-0.72l0.4,-0.76l0.201,-0.88l0.08,-0.88l-0,-24.562l-0.08,-0.84l-0.201,-0.881l-0.4,-0.8l-0.479,-0.72l-0.64,-0.6l-0.721,-0.52l-0.799,-0.36l-0.84,-0.24l-0.88,-0.08l-33.999,0l-0.88,0.08l-0.84,0.24l-0.8,0.36l-0.72,0.52l-0.64,0.6l-0.48,0.72l-0.4,0.8l-0.2,0.881l-0.08,0.84l-0,24.562l0.08,0.88l0.2,0.88l0.4,0.76l0.48,0.72l0.64,0.64l0.72,0.52l0.8,0.36l0.84,0.24l0.88,0.04Zm-203.237,-30.802l-6.159,24.562l-0.12,0.92l-0,0.88l0.2,0.92l0.36,0.84l0.479,0.76l0.64,0.68l0.72,0.52l0.84,0.4l0.88,0.24l0.88,0.08l15.84,0l0.88,-0.04l0.84,-0.24l0.8,-0.36l0.72,-0.52l0.64,-0.64l0.48,-0.72l0.4,-0.76l0.2,-0.88l0.08,-0.88l0,-24.562l-0.08,-0.84l-0.2,-0.881l-0.4,-0.8l-0.48,-0.72l-0.64,-0.6l-0.72,-0.52l-0.8,-0.36l-0.84,-0.24l-0.88,-0.08l-9.68,0l-0.84,0.08l-0.8,0.2l-0.76,0.36l-0.72,0.44l-0.6,0.56l-0.52,0.68l-0.4,0.72l-0.24,0.801Zm99.278,30.802l34.04,0l0.88,-0.04l0.84,-0.24l0.8,-0.36l0.72,-0.52l0.6,-0.64l0.52,-0.72l0.36,-0.76l0.24,-0.88l0.08,-0.88l-0,-24.562l-0.08,-0.84l-0.24,-0.881l-0.36,-0.8l-0.52,-0.72l-0.6,-0.6l-0.72,-0.52l-0.8,-0.36l-0.84,-0.24l-0.88,-0.08l-34.04,0l-0.839,0.08l-0.88,0.24l-0.8,0.36l-0.72,0.52l-0.6,0.6l-0.52,0.72l-0.36,0.8l-0.24,0.881l-0.08,0.84l-0,24.562l0.08,0.88l0.24,0.88l0.36,0.76l0.52,0.72l0.6,0.64l0.72,0.52l0.8,0.36l0.88,0.24l0.839,0.04Zm51.999,0l34,0l0.88,-0.04l0.84,-0.24l0.8,-0.36l0.72,-0.52l0.64,-0.64l0.48,-0.72l0.36,-0.76l0.24,-0.88l0.08,-0.88l-0,-24.562l-0.08,-0.84l-0.24,-0.881l-0.36,-0.8l-0.48,-0.72l-0.64,-0.6l-0.72,-0.52l-0.8,-0.36l-0.84,-0.24l-0.88,-0.08l-34,0l-0.879,0.08l-0.84,0.24l-0.8,0.36l-0.72,0.52l-0.64,0.6l-0.48,0.72l-0.4,0.8l-0.2,0.881l-0.08,0.84l-0,24.562l0.08,0.88l0.2,0.88l0.4,0.76l0.48,0.72l0.64,0.64l0.72,0.52l0.8,0.36l0.84,0.24l0.879,0.04Zm-90.078,-29.602l0,74.966l0.08,0.88l0.2,0.84l0.4,0.8l0.48,0.72l0.64,0.64l0.72,0.48l0.8,0.401l0.84,0.2l0.88,0.08l15.12,-0l0.84,-0.08l0.88,-0.2l0.8,-0.401l0.72,-0.48l0.6,-0.64l0.52,-0.72l0.36,-0.8l0.24,-0.84l0.08,-0.88l-0,-74.966l-0.08,-0.84l-0.24,-0.881l-0.36,-0.8l-0.52,-0.72l-0.6,-0.6l-0.72,-0.52l-0.8,-0.36l-0.88,-0.24l-0.84,-0.08l-15.12,0l-0.88,0.08l-0.84,0.24l-0.8,0.36l-0.72,0.52l-0.64,0.6l-0.48,0.72l-0.4,0.8l-0.2,0.881l-0.08,0.84Zm-6.32,74.966l0,-74.966l-0.08,-0.84l-0.2,-0.881l-0.4,-0.8l-0.48,-0.72l-0.64,-0.6l-0.72,-0.52l-0.8,-0.36l-0.84,-0.24l-0.88,-0.08l-15.119,0l-0.88,0.08l-0.84,0.24l-0.8,0.36l-0.72,0.52l-0.6,0.6l-0.52,0.72l-0.36,0.8l-0.24,0.881l-0.08,0.84l-0,74.966l0.08,0.88l0.24,0.84l0.36,0.8l0.52,0.72l0.6,0.64l0.72,0.48l0.8,0.401l0.84,0.2l0.88,0.08l15.119,-0l0.88,-0.08l0.84,-0.2l0.8,-0.401l0.72,-0.48l0.64,-0.64l0.48,-0.72l0.4,-0.8l0.2,-0.84l0.08,-0.88Zm113.398,-146.133l-31.519,22.042l31.519,22.042l31.48,-22.042l-31.48,-22.042Z" style="fill:#fff;"/></g></svg>