<?xml version="1.0" encoding="UTF-8" standalone="no"?><!DOCTYPE svg PUBLIC "-//W3C//DTD SVG 1.1//EN" "http://www.w3.org/Graphics/SVG/1.1/DTD/svg11.dtd"><svg width="100%" height="100%" viewBox="0 0 433 272" version="1.1" xmlns="http://www.w3.org/2000/svg" xmlns:xlink="http://www.w3.org/1999/xlink" xml:space="preserve" xmlns:serif="http://www.serif.com/" style="fill-rule:evenodd;clip-rule:evenodd;stroke-linejoin:round;stroke-miterlimit:2;"><g transform="matrix(64.5901,0,0,64.5901,311.197,158.63)"></g><text x="122.694px" y="158.63px" style="font-family:'ArialMT', 'Arial', sans-serif;font-size:64.59px;">sw=23</text><g id="_953.3-Entrance-to-Bus-Depot" serif:id="953.3 Entrance to Bus Depot"><path d="M432.945,35.433c0,-19.556 -15.877,-35.433 -35.433,-35.433l-362.079,0c-19.556,0 -35.433,15.877 -35.433,35.433l0,200.789c0,19.557 15.877,35.434 35.433,35.434l362.079,-0c19.556,-0 35.433,-15.877 35.433,-35.434l0,-200.789Z" style="fill:#fff;"/><path d="M432.945,35.433l0,200.789c0,19.557 -15.877,35.434 -35.433,35.434l-362.079,-0c-19.556,-0 -35.433,-15.877 -35.433,-35.434l0,-200.789c0,-19.556 15.877,-35.433 35.433,-35.433l362.079,0c19.556,0 35.433,15.877 35.433,35.433Zm-1.181,0c0,-18.904 -15.348,-34.252 -34.252,-34.252l-362.079,0c-18.904,0 -34.252,15.348 -34.252,34.252l0,200.789c0,18.905 15.348,34.252 34.252,34.252l362.079,0c18.904,0 34.252,-15.347 34.252,-34.252l0,-200.789Z" style="fill:#0079c1;"/><path d="M415.229,35.433c-0,-9.778 -7.939,-17.716 -17.717,-17.716l-362.079,-0c-9.778,-0 -17.716,7.938 -17.716,17.716l-0,200.789c-0,9.778 7.938,17.717 17.716,17.717l362.079,0c9.778,0 17.717,-7.939 17.717,-17.717l-0,-200.789Z" style="fill:#0079c1;"/><g><g><rect id="rect2555-7-3-6-7" x="290.087" y="145.278" width="59.075" height="94.488" style="fill:#0079c1;"/><path id="path1038" d="M324.833,216.185l0,-26.496l21.414,-39.662l-11.915,0l-15.165,27.997l-15.081,-27.997l-11.999,0l21.414,39.662l0,26.496l11.332,0Z" style="fill:#fff;fill-rule:nonzero;"/></g><g><rect id="rect2555" x="83.782" y="145.276" width="74.573" height="94.488" style="fill:#0079c1;"/><path id="path1026" d="M121.944,147.943l-4.416,0.248l-4.333,0.667l-2.748,0.918l-2.667,1.249l-2.5,1.499l-2.417,1.752l-2.167,1.916l-1.916,2.25l-1.749,2.331l-1.583,2.667l-1.334,2.917l-1.083,2.915l-0.75,3.084l-0.665,3.499l-0.334,3.582l-0.167,3.668l0.167,3.582l0.334,3.583l0.665,3.584l0.75,3.082l1.083,2.917l1.334,2.832l1.583,2.75l1.749,2.333l1.916,2.167l2.167,1.999l2.417,1.75l2.5,1.499l2.667,1.168l2.748,0.999l4.333,0.667l4.416,0.167l4.417,-0.167l4.332,-0.667l2.834,-0.999l2.582,-1.168l2.583,-1.499l2.333,-1.75l2.167,-1.999l2,-2.167l1.666,-2.333l1.666,-2.75l1.251,-2.832l1.082,-2.917l0.751,-3.082l0.667,-3.584l0.415,-3.583l0.167,-3.582l-0.167,-3.668l-0.415,-3.582l-0.667,-3.499l-0.751,-3.084l-1.082,-2.915l-1.251,-2.917l-1.666,-2.667l-1.666,-2.331l-2,-2.25l-2.167,-1.916l-2.333,-1.752l-2.583,-1.499l-2.582,-1.249l-2.834,-0.918l-4.332,-0.667l-4.417,-0.248Zm0,10.082l2.584,0.166l2.416,0.499l2.417,0.834l2.331,1.082l2.167,1.335l1.668,1.499l1.499,1.666l1.249,1.916l1.001,2.083l0.999,3.418l0.75,3.499l0.417,3.499l0.084,3.584l-0.084,3.582l-0.417,3.499l-0.75,3.501l-0.999,3.416l-1.001,2.083l-1.249,1.833l-1.499,1.749l-1.668,1.418l-2.167,1.416l-2.331,1.082l-2.417,0.751l-2.416,0.5l-2.584,0.167l-2.5,-0.167l-2.498,-0.5l-2.417,-0.751l-2.333,-1.082l-2.083,-1.416l-1.749,-1.418l-1.502,-1.749l-1.249,-1.833l-0.917,-2.083l-1.082,-3.416l-0.668,-3.501l-0.417,-3.499l-0.164,-3.582l0.164,-3.584l0.417,-3.499l0.668,-3.499l1.082,-3.418l0.917,-2.083l1.249,-1.916l1.502,-1.666l1.749,-1.499l2.083,-1.335l2.333,-1.082l2.417,-0.834l2.498,-0.499l2.5,-0.166Z" style="fill:#fff;fill-rule:nonzero;"/></g><g><rect id="rect2538-2" x="158.356" y="145.278" width="80.238" height="94.488" style="fill:#0079c1;"/><path id="path1032" d="M181.686,216.185l0,-47.911l32.163,47.911l12.582,-0l-0,-66.159l-11.332,0l-0,47.828l-32.08,-47.828l-12.665,0l0,66.159l11.332,-0Z" style="fill:#fff;fill-rule:nonzero;"/></g><g><rect id="rect2429-0-8-6-0-2" x="238.594" y="145.276" width="51.494" height="94.488" style="fill:#0079c1;"/><path id="path980" d="M250.676,216.184l37.162,0l-0,-10.082l-25.83,-0l-0,-56.076l-11.332,-0l-0,66.158Z" style="fill:#fff;fill-rule:nonzero;"/></g></g><g><g><rect id="rect2410-8-1" x="117.653" y="50.787" width="73.657" height="94.488" style="fill:#0079c1;"/><path id="path1927" d="M140.566,100.698l0.417,2l0.75,1.999l1,1.75l1.166,1.667l1.5,1.499l1.667,1.25l1.833,1l1.916,0.667l2,0.5l2.083,0.083l2.083,-0.083l2,-0.5l1.916,-0.667l1.833,-1l1.667,-1.25l1.416,-1.499l1.25,-1.667l1,-1.75l0.75,-1.999l0.416,-2l0.167,-2l0,-43.161l11.332,-0l0,43.161l-0.083,2.75l-0.5,2.749l-0.75,2.667l-1.083,2.583l-1.5,2.416l-1.75,2.333l-1.916,2.083l-2.25,1.833l-2.333,1.584l-2.583,1.333l-2.666,1l-2.75,0.749l-2.833,0.5l-2.833,0.084l-2.916,-0.084l-2.833,-0.5l-2.75,-0.749l-2.666,-1l-2.5,-1.333l-2.416,-1.584l-2.167,-1.833l-2,-2.083l-1.666,-2.333l-1.5,-2.416l-1.083,-2.583l-0.833,-2.667l-0.417,-2.749l-0.083,-2.75l-0,-43.161l11.332,-0l-0,43.161l0.166,2Z" style="fill:#fff;fill-rule:nonzero;"/></g><g><rect id="rect2587-3" x="191.31" y="50.787" width="65.574" height="94.488" style="fill:#0079c1;"/><path id="path1068" d="M248.553,102.614l0,-2.416l-0.333,-2.5l-0.667,-2.333l-1,-2.25l-1.333,-2.083l-1.583,-1.833l-1.917,-1.666l-2.083,-1.25l-2.249,-1l-2.333,-0.667l-17.998,-4.166l-1.417,-0.416l-1.25,-0.834l-1.166,-1l-0.917,-1.249l-0.583,-1.334l-0.333,-1.499l-0.167,-1.584l0.167,-1.583l0.416,-1.5l0.834,-1.416l0.999,-1.166l1.25,-0.917l1.5,-0.667l2.25,-0.666l2.333,-0.417l2.333,-0.166l2.333,0.083l2.333,0.417l2.166,0.666l2,0.917l1.917,1.166l1.666,1.417l1.5,1.666l1.25,1.917l8.832,-7.166l-1.583,-2.166l-1.75,-1.917l-2.083,-1.75l-2.166,-1.499l-2.417,-1.167l-2.5,-0.917l-2.583,-0.583l-3.332,-0.583l-3.333,-0.25l-3.333,-0l-3.333,0.25l-3.333,0.667l-3.166,0.833l-2.333,1.083l-2.167,1.25l-1.916,1.583l-1.667,1.833l-1.5,2.083l-1.166,2.25l-0.833,2.333l-0.5,2.416l-0.25,2.417l0.166,2.416l0.417,2.333l0.75,2.333l1.083,2.166l1.25,2l1.583,1.833l1.833,1.667l1.917,1.333l2.166,1.083l2.25,0.833l17.831,4l1.5,0.5l1.333,0.833l1.25,1.083l0.999,1.25l0.667,1.417l0.417,1.583l0.083,1.583l-0.166,1.583l-0.5,1.5l-0.834,1.416l-1.083,1.167l-1.25,1l-0.833,0.5l-2.25,0.999l-2.333,0.667l-2.416,0.333l-2.416,0.167l-2.5,-0.25l-2.416,-0.417l-2.333,-0.75l-2.75,-1.666l-2.583,-2l-2.333,-2.166l-2,-2.5l-8.915,7.166l2.333,2.666l2.583,2.333l2.749,2.083l3,1.834l3.083,1.333l3.166,1.083l3.333,0.833l3.333,0.417l3.333,0.166l3.416,-0.166l3.333,-0.5l2.333,-0.5l2.25,-0.75l2.166,-1.083l2,-1.333l1.75,-1.584l1.666,-1.749l1.417,-2l1.166,-2.083l1,-2.25l0.917,-3.124l0.583,-3.292Z" style="fill:#fff;fill-rule:nonzero;"/></g><g><rect id="rect2587-31" serif:id="rect2587-3" x="320.127" y="50.787" width="65.574" height="94.488" style="fill:#0079c1;"/><path id="path10681" serif:id="path1068" d="M377.37,102.614l-0,-2.416l-0.334,-2.5l-0.666,-2.333l-1,-2.25l-1.333,-2.083l-1.584,-1.833l-1.916,-1.666l-2.083,-1.25l-2.25,-1l-2.333,-0.667l-17.998,-4.166l-1.416,-0.416l-1.25,-0.834l-1.166,-1l-0.917,-1.249l-0.583,-1.334l-0.334,-1.499l-0.166,-1.584l0.166,-1.583l0.417,-1.5l0.833,-1.416l1,-1.166l1.25,-0.917l1.5,-0.667l2.249,-0.666l2.333,-0.417l2.333,-0.166l2.333,0.083l2.334,0.417l2.166,0.666l2,0.917l1.916,1.166l1.667,1.417l1.499,1.666l1.25,1.917l8.832,-7.166l-1.583,-2.166l-1.749,-1.917l-2.084,-1.75l-2.166,-1.499l-2.416,-1.167l-2.5,-0.917l-2.583,-0.583l-3.333,-0.583l-3.333,-0.25l-3.333,-0l-3.333,0.25l-3.333,0.667l-3.166,0.833l-2.333,1.083l-2.166,1.25l-1.917,1.583l-1.666,1.833l-1.5,2.083l-1.167,2.25l-0.833,2.333l-0.5,2.416l-0.25,2.417l0.167,2.416l0.417,2.333l0.749,2.333l1.084,2.166l1.249,2l1.584,1.833l1.833,1.667l1.916,1.333l2.167,1.083l2.249,0.833l17.831,4l1.5,0.5l1.333,0.833l1.25,1.083l1,1.25l0.667,1.417l0.416,1.583l0.084,1.583l-0.167,1.583l-0.5,1.5l-0.833,1.416l-1.083,1.167l-1.25,1l-0.833,0.5l-2.25,0.999l-2.333,0.667l-2.416,0.333l-2.417,0.167l-2.499,-0.25l-2.417,-0.417l-2.333,-0.75l-2.749,-1.666l-2.584,-2l-2.333,-2.166l-1.999,-2.5l-8.916,7.166l2.333,2.666l2.583,2.333l2.75,2.083l2.999,1.834l3.083,1.333l3.167,1.083l3.333,0.833l3.333,0.417l3.332,0.166l3.417,-0.166l3.333,-0.5l2.333,-0.5l2.249,-0.75l2.167,-1.083l2,-1.333l1.749,-1.584l1.667,-1.749l1.416,-2l1.167,-2.083l1,-2.25l0.916,-3.124l0.584,-3.292Z" style="fill:#fff;fill-rule:nonzero;"/></g><g><rect id="rect2429" x="256.885" y="50.787" width="63.242" height="94.488" style="fill:#0079c1;"/><path id="path1098" d="M268.883,121.612l43.495,-0l-0,-10.082l-32.08,-0l0,-18.248l27.664,0l-0,-10.082l-27.664,0l0,-17.664l30.163,-0l0,-9.999l-41.578,-0l0,66.075Z" style="fill:#fff;fill-rule:nonzero;"/></g><g><rect id="rect2367-9" x="47.244" y="50.787" width="70.409" height="94.488" style="fill:#0079c1;"/><path id="path1086" d="M59.326,55.537l0,66.075l30.245,-0c0,-0 1.562,-0.058 2.334,-0.167c0.787,-0.112 1.561,-0.306 2.333,-0.499c0.785,-0.195 1.575,-0.385 2.333,-0.667c0.746,-0.277 1.467,-0.623 2.167,-1.001c0.691,-0.373 1.356,-0.798 1.999,-1.249c0.665,-0.465 1.303,-0.969 1.917,-1.499c0.609,-0.527 1.201,-1.077 1.749,-1.668c0.537,-0.579 1.047,-1.187 1.501,-1.833c0.466,-0.662 0.892,-1.357 1.249,-2.083c0.369,-0.75 0.663,-1.537 0.918,-2.333c0.244,-0.763 0.431,-1.545 0.582,-2.332c0.157,-0.826 0.264,-1.662 0.333,-2.5c0.069,-0.831 0.098,-1.666 0.084,-2.5c-0.014,-0.835 -0.041,-1.674 -0.167,-2.5c-0.125,-0.819 -0.36,-1.619 -0.584,-2.417c-0.221,-0.786 -0.44,-1.577 -0.749,-2.333c-0.258,-0.633 -0.56,-1.25 -0.917,-1.833c-0.342,-0.559 -0.745,-1.08 -1.166,-1.582c-0.441,-0.528 -0.904,-1.042 -1.418,-1.5c-0.518,-0.462 -1.078,-0.88 -1.666,-1.251c-0.556,-0.351 -1.15,-0.642 -1.749,-0.915c-0.624,-0.285 -1.259,-0.555 -1.916,-0.751c-0.653,-0.194 -2,-0.417 -2,-0.417c0,0 1.317,-0.539 1.916,-0.915c0.603,-0.378 1.136,-0.858 1.666,-1.333c0.528,-0.472 1.038,-0.966 1.502,-1.501c0.454,-0.524 0.889,-1.072 1.249,-1.666c0.366,-0.606 0.646,-1.261 0.915,-1.916c0.29,-0.707 0.545,-1.431 0.751,-2.167c0.214,-0.766 0.402,-1.544 0.5,-2.333c0.096,-0.772 0.098,-1.555 0.084,-2.333c-0.015,-0.752 -0.06,-1.506 -0.167,-2.25c-0.113,-0.788 -0.274,-1.571 -0.501,-2.333c-0.22,-0.742 -0.508,-1.464 -0.832,-2.167c-0.317,-0.689 -0.652,-1.377 -1.084,-2c-0.482,-0.695 -1.074,-1.311 -1.666,-1.916c-0.577,-0.59 -1.177,-1.164 -1.833,-1.666c-0.654,-0.501 -1.363,-0.931 -2.083,-1.332c-0.727,-0.406 -1.48,-0.768 -2.25,-1.085c-0.788,-0.324 -1.591,-0.62 -2.416,-0.832c-0.792,-0.203 -1.604,-0.333 -2.417,-0.417c-0.83,-0.085 -2.5,-0.083 -2.5,-0.083l-28.246,0Zm11.331,9.998l16.083,0c-0,0 1.063,0.059 1.582,0.167c0.542,0.113 1.072,0.287 1.583,0.501c0.493,0.206 0.976,0.448 1.418,0.748c0.423,0.288 0.803,0.64 1.165,1.001c0.391,0.389 0.771,0.795 1.083,1.249c0.302,0.441 0.556,0.92 0.75,1.418c0.199,0.508 0.319,1.046 0.417,1.583c0.096,0.521 0.167,1.052 0.167,1.582c0,0.531 -0.068,1.062 -0.167,1.583c-0.097,0.51 -0.224,1.019 -0.417,1.501c-0.197,0.496 -0.448,0.975 -0.75,1.416c-0.312,0.455 -0.692,0.86 -1.083,1.249c-0.362,0.362 -0.742,0.713 -1.165,1.001c-0.442,0.301 -0.925,0.544 -1.418,0.751c-0.51,0.213 -1.041,0.385 -1.583,0.498c-0.519,0.108 -1.582,0.167 -1.582,0.167l-16.083,-0l-0,-16.415Zm-0,25.247l17.332,0c-0,0 1.227,0.068 1.833,0.167c0.591,0.097 1.183,0.219 1.749,0.417c0.551,0.194 1.082,0.452 1.585,0.749c0.531,0.314 1.023,0.692 1.499,1.084c0.47,0.388 0.939,0.785 1.332,1.249c0.389,0.459 0.71,0.975 1.001,1.502c0.295,0.532 0.54,1.094 0.749,1.666c0.208,0.569 0.388,1.153 0.5,1.749c0.109,0.576 0.166,1.164 0.167,1.749c0.001,0.614 -0.054,1.23 -0.167,1.833c-0.111,0.597 -0.292,1.18 -0.5,1.75c-0.209,0.572 -0.454,1.135 -0.749,1.668c-0.291,0.526 -0.612,1.041 -1.001,1.499c-0.393,0.465 -0.855,0.871 -1.332,1.249c-0.471,0.374 -0.983,0.694 -1.499,1.001c-0.513,0.305 -1.026,0.623 -1.585,0.832c-0.561,0.211 -1.158,0.32 -1.749,0.417c-0.606,0.099 -1.833,0.167 -1.833,0.167l-17.332,-0l-0,-20.748Z" style="fill:#fff;fill-rule:nonzero;"/></g></g></g></svg>