<?xml version="1.0" encoding="UTF-8" standalone="no"?><!DOCTYPE svg PUBLIC "-//W3C//DTD SVG 1.1//EN" "http://www.w3.org/Graphics/SVG/1.1/DTD/svg11.dtd"><svg width="100%" height="100%" viewBox="0 0 454 454" version="1.1" xmlns="http://www.w3.org/2000/svg" xmlns:xlink="http://www.w3.org/1999/xlink" xml:space="preserve" xmlns:serif="http://www.serif.com/" style="fill-rule:evenodd;clip-rule:evenodd;stroke-linejoin:round;stroke-miterlimit:2;"><g transform="matrix(50,0,0,50,186.084,244.423)"></g><text x="-1.538px" y="244.423px" style="font-family:'ArialMT', 'Arial', sans-serif;font-size:50px;">sw=38.4</text><g id="_953.1B-Route-for-Bus--Tram--Motorcycles--Cycles-and-Taxis" serif:id="953.1B Route for Bus, Tram, Motorcycles, Cycles and Taxis"><circle cx="226.772" cy="226.772" r="226.772" style="fill:#fff;"/><path d="M226.772,0c125.158,0 226.771,101.613 226.771,226.772c0,125.158 -101.613,226.771 -226.771,226.771c-125.159,0 -226.772,-101.613 -226.772,-226.771c0,-125.159 101.613,-226.772 226.772,-226.772Zm-0,1.181c-124.507,0 -225.591,101.084 -225.591,225.591c0,124.506 101.084,225.59 225.591,225.59c124.506,0 225.59,-101.084 225.59,-225.59c0,-124.507 -101.084,-225.591 -225.59,-225.591Z" style="fill:#0079c1;"/><circle cx="226.761" cy="226.761" r="217.701" style="fill:#0079c1;"/><path d="M112.687,69.392l0.231,-0.742l0.307,-0.717l0.41,-0.666l0.486,-0.614l0.538,-0.538l0.614,-0.487l0.666,-0.409l0.716,-0.307l0.743,-0.231l0.768,-0.128l0.768,-0.051l79.614,-0l2.867,-2.867l0.487,-0.41l0.537,-0.333l0.589,-0.23l0.614,-0.154l0.615,-0.051l16.896,-0l-20.147,-14.107l20.735,-14.516l0,-4.43l0.052,-0.563l0.153,-0.538l0.231,-0.512l0.307,-0.46l0.409,-0.384l0.461,-0.333l0.512,-0.231l0.538,-0.153l0.563,-0.052l3.635,0l0.563,0.052l0.538,0.153l0.512,0.231l0.461,0.333l0.384,0.384l0.332,0.46l0.231,0.512l0.153,0.538l0.052,0.563l-0,4.43l20.735,14.516l-20.147,14.107l16.87,-0l0.64,0.051l0.615,0.154l0.589,0.23l0.537,0.333l0.487,0.41l2.841,2.867l79.64,-0l0.768,0.051l0.768,0.128l0.743,0.231l0.691,0.307l0.665,0.409l0.615,0.487l0.563,0.538l0.486,0.614l0.384,0.666l0.333,0.717l0.23,0.742l6.836,27.343l-0,36.304l-20.148,0l0,4.02l-12.108,-0l-0.051,0.896l-0.128,0.896l-0.256,0.87l-0.359,0.845l-0.435,0.794l-0.512,0.717l-0.614,0.691l-0.666,0.589l-0.742,0.537l-0.794,0.436l-0.844,0.333l-0.845,0.256l-0.897,0.153l-0.921,0.051l-0.896,-0.051l-0.896,-0.153l-0.87,-0.256l-0.819,-0.333l-0.794,-0.436l-0.742,-0.537l-0.666,-0.589l-0.614,-0.691l-0.513,-0.717l-0.435,-0.794l-0.358,-0.845l-0.256,-0.87l-0.154,-0.896l-0.051,-0.896l-12.083,-0l-0.051,0.896l-0.153,0.896l-0.256,0.87l-0.334,0.845l-0.435,0.794l-0.537,0.717l-0.589,0.691l-0.691,0.589l-0.717,0.537l-0.794,0.436l-0.844,0.333l-0.87,0.256l-0.897,0.153l-0.895,0.051l-0.897,-0.051l-0.895,-0.153l-0.871,-0.256l-0.845,-0.333l-0.767,-0.436l-0.743,-0.537l-0.691,-0.589l-0.589,-0.691l-0.537,-0.717l-0.436,-0.794l-0.332,-0.845l-0.256,-0.87l-0.154,-0.896l-0.052,-0.896l-88.676,-0l-0.051,0.896l-0.154,0.896l-0.256,0.87l-0.358,0.845l-0.435,0.794l-0.512,0.717l-0.615,0.691l-0.665,0.589l-0.743,0.537l-0.793,0.436l-0.819,0.333l-0.871,0.256l-0.896,0.153l-0.896,0.051l-0.921,-0.051l-0.871,-0.153l-0.87,-0.256l-0.845,-0.333l-0.793,-0.436l-0.743,-0.537l-0.665,-0.589l-0.615,-0.691l-0.512,-0.717l-0.435,-0.794l-0.358,-0.845l-0.231,-0.87l-0.153,-0.896l-0.052,-0.896l-12.108,-0l-0.051,0.896l-0.154,0.896l-0.23,0.87l-0.359,0.845l-0.435,0.794l-0.538,0.717l-0.588,0.691l-0.666,0.589l-0.742,0.537l-0.794,0.436l-0.845,0.333l-0.87,0.256l-0.896,0.153l-0.896,0.051l-0.896,-0.051l-0.896,-0.153l-0.87,-0.256l-0.82,-0.333l-0.793,-0.436l-0.743,-0.537l-0.665,-0.589l-0.614,-0.691l-0.512,-0.717l-0.461,-0.794l-0.333,-0.845l-0.256,-0.87l-0.154,-0.896l-0.051,-0.896l-12.083,-0l0,-4.02l-20.172,0l-0,-36.304l6.86,-27.343Zm212.451,5.172l-0.563,0.051l-0.538,0.153l-0.512,0.231l-0.461,0.333l-0.384,0.384l-0.333,0.461l-0.23,0.512l-0.154,0.563l-0.051,0.538l-0,15.719l0.051,0.564l0.154,0.563l0.23,0.486l0.333,0.461l0.384,0.41l0.461,0.333l0.512,0.23l0.538,0.154l0.563,0.025l10.137,0l0.589,-0.051l0.563,-0.154l0.538,-0.256l0.461,-0.332l0.409,-0.436l0.307,-0.486l0.231,-0.538l0.102,-0.589l0.025,-0.563l-0.102,-0.589l-3.917,-15.72l-0.179,-0.512l-0.256,-0.46l-0.307,-0.436l-0.41,-0.358l-0.435,-0.282l-0.486,-0.23l-0.538,-0.128l-0.512,-0.051l-6.22,-0Zm-42.726,-0l-0.563,0.051l-0.538,0.153l-0.512,0.231l-0.46,0.333l-0.384,0.384l-0.334,0.461l-0.23,0.512l-0.153,0.563l-0.051,0.538l-0,47.978l0.051,0.563l0.153,0.538l0.23,0.512l0.334,0.461l0.384,0.41l0.46,0.307l0.512,0.256l0.538,0.128l0.563,0.051l9.677,-0l0.563,-0.051l0.538,-0.128l0.511,-0.256l0.461,-0.307l0.41,-0.41l0.307,-0.461l0.231,-0.512l0.153,-0.538l0.051,-0.563l0,-47.978l-0.051,-0.538l-0.153,-0.563l-0.231,-0.512l-0.307,-0.461l-0.41,-0.384l-0.461,-0.333l-0.511,-0.231l-0.538,-0.153l-0.563,-0.051l-9.677,-0Zm20.147,-0l-0.538,0.051l-0.563,0.153l-0.512,0.231l-0.461,0.333l-0.384,0.384l-0.332,0.461l-0.231,0.512l-0.154,0.563l-0.051,0.538l0,47.978l0.051,0.563l0.154,0.538l0.231,0.512l0.332,0.461l0.384,0.41l0.461,0.307l0.512,0.256l0.563,0.128l0.538,0.051l9.677,-0l0.562,-0.051l0.564,-0.128l0.486,-0.256l0.461,-0.307l0.409,-0.41l0.334,-0.461l0.23,-0.512l0.128,-0.538l0.051,-0.563l-0,-47.978l-0.051,-0.538l-0.128,-0.563l-0.23,-0.512l-0.334,-0.461l-0.409,-0.384l-0.461,-0.333l-0.486,-0.231l-0.564,-0.153l-0.562,-0.051l-9.677,-0Zm-53.401,22.171l21.76,0l0.563,-0.025l0.538,-0.154l0.511,-0.23l0.462,-0.333l0.409,-0.41l0.307,-0.461l0.256,-0.486l0.128,-0.563l0.052,-0.564l-0,-15.719l-0.052,-0.538l-0.128,-0.563l-0.256,-0.512l-0.307,-0.461l-0.409,-0.384l-0.462,-0.333l-0.511,-0.231l-0.538,-0.153l-0.563,-0.051l-21.76,-0l-0.563,0.051l-0.537,0.153l-0.512,0.231l-0.461,0.333l-0.41,0.384l-0.307,0.461l-0.256,0.512l-0.128,0.563l-0.051,0.538l-0,15.719l0.051,0.564l0.128,0.563l0.256,0.486l0.307,0.461l0.41,0.41l0.461,0.333l0.512,0.23l0.537,0.154l0.563,0.025Zm-130.071,-19.714l-3.942,15.72l-0.077,0.589l0,0.563l0.128,0.589l0.231,0.538l0.307,0.486l0.409,0.436l0.461,0.332l0.538,0.256l0.563,0.154l0.563,0.051l10.138,0l0.563,-0.025l0.537,-0.154l0.512,-0.23l0.461,-0.333l0.41,-0.41l0.307,-0.461l0.256,-0.486l0.128,-0.563l0.051,-0.564l0,-15.719l-0.051,-0.538l-0.128,-0.563l-0.256,-0.512l-0.307,-0.461l-0.41,-0.384l-0.461,-0.333l-0.512,-0.231l-0.537,-0.153l-0.563,-0.051l-6.196,-0l-0.537,0.051l-0.512,0.128l-0.487,0.23l-0.46,0.282l-0.384,0.358l-0.333,0.436l-0.256,0.46l-0.154,0.512Zm63.538,19.714l21.785,0l0.564,-0.025l0.537,-0.154l0.512,-0.23l0.461,-0.333l0.384,-0.41l0.333,-0.461l0.23,-0.486l0.154,-0.563l0.051,-0.564l0,-15.719l-0.051,-0.538l-0.154,-0.563l-0.23,-0.512l-0.333,-0.461l-0.384,-0.384l-0.461,-0.333l-0.512,-0.231l-0.537,-0.153l-0.564,-0.051l-21.785,-0l-0.537,0.051l-0.563,0.153l-0.512,0.231l-0.461,0.333l-0.384,0.384l-0.333,0.461l-0.23,0.512l-0.154,0.563l-0.051,0.538l-0,15.719l0.051,0.564l0.154,0.563l0.23,0.486l0.333,0.461l0.384,0.41l0.461,0.333l0.512,0.23l0.563,0.154l0.537,0.025Zm33.28,0l21.759,0l0.563,-0.025l0.538,-0.154l0.512,-0.23l0.461,-0.333l0.409,-0.41l0.308,-0.461l0.23,-0.486l0.154,-0.563l0.051,-0.564l-0,-15.719l-0.051,-0.538l-0.154,-0.563l-0.23,-0.512l-0.308,-0.461l-0.409,-0.384l-0.461,-0.333l-0.512,-0.231l-0.538,-0.153l-0.563,-0.051l-21.759,-0l-0.564,0.051l-0.537,0.153l-0.512,0.231l-0.461,0.333l-0.409,0.384l-0.308,0.461l-0.256,0.512l-0.128,0.563l-0.051,0.538l0,15.719l0.051,0.564l0.128,0.563l0.256,0.486l0.308,0.461l0.409,0.41l0.461,0.333l0.512,0.23l0.537,0.154l0.564,0.025Zm-57.65,-18.945l-0,47.978l0.051,0.563l0.128,0.538l0.256,0.512l0.307,0.461l0.41,0.41l0.46,0.307l0.512,0.256l0.538,0.128l0.563,0.051l9.677,-0l0.537,-0.051l0.563,-0.128l0.512,-0.256l0.461,-0.307l0.384,-0.41l0.333,-0.461l0.23,-0.512l0.154,-0.538l0.051,-0.563l0,-47.978l-0.051,-0.538l-0.154,-0.563l-0.23,-0.512l-0.333,-0.461l-0.384,-0.384l-0.461,-0.333l-0.512,-0.231l-0.563,-0.153l-0.537,-0.051l-9.677,-0l-0.563,0.051l-0.538,0.153l-0.512,0.231l-0.46,0.333l-0.41,0.384l-0.307,0.461l-0.256,0.512l-0.128,0.563l-0.051,0.538Zm-4.045,47.978l-0,-47.978l-0.051,-0.538l-0.128,-0.563l-0.256,-0.512l-0.308,-0.461l-0.409,-0.384l-0.461,-0.333l-0.512,-0.231l-0.538,-0.153l-0.563,-0.051l-9.676,-0l-0.563,0.051l-0.538,0.153l-0.512,0.231l-0.461,0.333l-0.384,0.384l-0.333,0.461l-0.23,0.512l-0.154,0.563l-0.051,0.538l0,47.978l0.051,0.563l0.154,0.538l0.23,0.512l0.333,0.461l0.384,0.41l0.461,0.307l0.512,0.256l0.538,0.128l0.563,0.051l9.676,-0l0.563,-0.051l0.538,-0.128l0.512,-0.256l0.461,-0.307l0.409,-0.41l0.308,-0.461l0.256,-0.512l0.128,-0.538l0.051,-0.563Zm72.574,-93.525l-20.172,14.107l20.172,14.107l20.147,-14.107l-20.147,-14.107Z" style="fill:#fff;"/><path d="M295.834,239.636l0.288,-1.408l0.16,-1.377l-0,-1.44l-0.096,-1.408l-0.224,-1.377l-0.384,-1.376l-0.481,-1.312l-0.608,-1.281l-0.736,-1.216l-0.832,-1.12l-0.959,-1.057l-1.024,-0.96l-1.121,-0.864l-1.184,-0.769l-1.28,-0.64l-1.311,-0.512l-1.345,-0.384l-1.408,-0.256l-1.408,-0.128l-1.407,-0l-1.409,0.128l-1.376,0.256l-1.376,0.384l-1.311,0.512l-1.249,0.64l-1.216,0.769l-1.12,0.864l-1.024,0.96l-0.96,1.057l-0.832,1.12l-0.736,1.216l-0.608,1.281l-0.48,1.312l-0.352,1.376l-0.256,1.377l-0.096,1.408l0.032,1.44l0.16,1.377l0.288,1.408l-91.681,0l0.288,-1.408l0.16,-1.377l0.032,-1.44l-0.096,-1.408l-0.256,-1.377l-0.352,-1.376l-0.512,-1.312l-0.607,-1.281l-0.736,-1.216l-0.832,-1.12l-0.928,-1.057l-1.057,-0.96l-1.12,-0.864l-1.183,-0.769l-1.248,-0.64l-1.345,-0.512l-1.344,-0.384l-1.375,-0.256l-1.408,-0.128l-1.441,-0l-1.376,0.128l-1.407,0.256l-1.344,0.384l-1.313,0.512l-1.28,0.64l-1.184,0.769l-1.119,0.864l-1.057,0.96l-0.928,1.057l-0.832,1.12l-0.736,1.216l-0.608,1.281l-0.511,1.312l-0.352,1.376l-0.224,1.377l-0.128,1.408l0.032,1.44l0.16,1.377l0.288,1.408l-32.993,0l-0.864,-0.064l-0.896,-0.192l-0.832,-0.288l-0.8,-0.384l-0.736,-0.48l-0.672,-0.608l-0.576,-0.641l-0.512,-0.768l-0.384,-0.8l-0.288,-0.832l-0.16,-0.865l-0.064,-0.896l0,-24.198l0.064,-0.577l0.16,-0.576l0.288,-0.512l0.352,-0.48l0.48,-0.352l0.512,-0.288l0.576,-0.16l0.576,-0.064l1.376,-32.682l0.064,-0.64l0.192,-0.608l0.288,-0.576l0.384,-0.512l0.48,-0.449l0.512,-0.352l0.576,-0.256l0.64,-0.16l0.64,-0.064l218.594,0l1.407,0.064l1.377,0.192l1.376,0.32l1.311,0.448l1.281,0.577l1.215,0.672l1.153,0.768l1.087,0.896l0.993,0.993l0.864,1.088l0.8,1.152l0.671,1.217l0.576,1.28l0.449,1.313l0.319,1.376l0.193,1.376l0.064,1.376l0,45.39l-51.872,9.826Zm-147.17,-0.288l-0.288,-1.152l-0.192,-1.153l-0.032,-1.184l0.032,-1.184l0.192,-1.185l0.288,-1.151l0.384,-1.121l0.512,-1.088l0.609,-0.993l0.704,-0.96l0.799,-0.896l0.896,-0.8l0.96,-0.705l0.992,-0.608l1.089,-0.512l1.12,-0.384l1.151,-0.288l1.184,-0.192l1.185,-0.032l1.184,0.032l1.152,0.192l1.151,0.288l1.12,0.384l1.089,0.512l1.024,0.608l0.928,0.705l0.895,0.8l0.8,0.896l0.704,0.96l0.609,0.993l0.512,1.088l0.384,1.121l0.288,1.151l0.192,1.185l0.064,1.184l-0.064,1.184l-0.192,1.153l-0.288,1.152l-0.384,1.121l-0.512,1.088l-0.609,1.024l-0.704,0.929l-0.8,0.896l-0.895,0.8l-0.928,0.704l-1.024,0.608l-1.089,0.513l-1.12,0.384l-1.151,0.288l-1.152,0.192l-1.184,0.032l-1.185,-0.032l-1.184,-0.192l-1.151,-0.288l-1.12,-0.384l-1.089,-0.513l-0.992,-0.608l-0.96,-0.704l-0.896,-0.8l-0.799,-0.896l-0.704,-0.929l-0.609,-1.024l-0.512,-1.088l-0.384,-1.121Zm120.93,0l-0.288,-1.152l-0.161,-1.153l-0.064,-1.184l0.064,-1.184l0.161,-1.185l0.288,-1.151l0.415,-1.121l0.512,-1.088l0.608,-0.993l0.704,-0.96l0.8,-0.896l0.864,-0.8l0.961,-0.705l1.023,-0.608l1.056,-0.512l1.12,-0.384l1.152,-0.288l1.185,-0.192l1.183,-0.032l1.184,0.032l1.184,0.192l1.152,0.288l1.121,0.384l1.055,0.512l1.024,0.608l0.96,0.705l0.864,0.8l0.801,0.896l0.704,0.96l0.608,0.993l0.511,1.088l0.416,1.121l0.288,1.151l0.16,1.185l0.064,1.184l-0.064,1.184l-0.16,1.153l-0.288,1.152l-0.416,1.121l-0.511,1.088l-0.608,1.024l-0.704,0.929l-0.801,0.896l-0.864,0.8l-0.96,0.704l-1.024,0.608l-1.055,0.513l-1.121,0.384l-1.152,0.288l-1.184,0.192l-1.184,0.032l-1.183,-0.032l-1.185,-0.192l-1.152,-0.288l-1.12,-0.384l-1.056,-0.513l-1.023,-0.608l-0.961,-0.704l-0.864,-0.8l-0.8,-0.896l-0.704,-0.929l-0.608,-1.024l-0.512,-1.088l-0.415,-1.121Zm-114.433,-0.224l0.512,0.672l0.608,0.609l0.672,0.544l0.767,0.384l0.8,0.32l0.864,0.192l0.865,0.064l0.832,-0.064l0.864,-0.192l0.8,-0.32l0.767,-0.384l0.672,-0.544l0.608,-0.609l0.545,-0.672l0.384,-0.768l0.32,-0.8l0.192,-0.865l0.064,-0.832l-0.064,-0.864l-0.192,-0.864l-0.32,-0.801l-0.384,-0.768l-0.545,-0.672l-0.608,-0.608l-0.672,-0.512l-0.767,-0.416l-0.8,-0.32l-0.864,-0.16l-0.832,-0.064l-0.865,0.064l-0.864,0.16l-0.8,0.32l-0.767,0.416l-0.672,0.512l-0.608,0.608l-0.512,0.672l-0.417,0.768l-0.32,0.801l-0.16,0.864l-0.064,0.864l0.064,0.832l0.16,0.865l0.32,0.8l0.417,0.768Zm120.928,0l0.512,0.672l0.608,0.609l0.704,0.544l0.768,0.384l0.8,0.32l0.833,0.192l0.863,0.064l0.864,-0.064l0.832,-0.192l0.832,-0.32l0.736,-0.384l0.705,-0.544l0.608,-0.609l0.512,-0.672l0.415,-0.768l0.288,-0.8l0.192,-0.865l0.064,-0.832l-0.064,-0.864l-0.192,-0.864l-0.288,-0.801l-0.415,-0.768l-0.512,-0.672l-0.608,-0.608l-0.705,-0.512l-0.736,-0.416l-0.832,-0.32l-0.832,-0.16l-0.864,-0.064l-0.863,0.064l-0.833,0.16l-0.8,0.32l-0.768,0.416l-0.704,0.512l-0.608,0.608l-0.512,0.672l-0.416,0.768l-0.288,0.801l-0.191,0.864l-0.065,0.864l0.065,0.832l0.191,0.865l0.288,0.8l0.416,0.768Zm-90.145,-36.554l0.577,-0.064l0.576,-0.16l0.512,-0.289l0.48,-0.352l0.352,-0.48l0.288,-0.512l0.16,-0.576l0.064,-0.576l-0,-15.141l-0.064,-0.576l-0.16,-0.576l-0.288,-0.512l-0.352,-0.448l-0.48,-0.384l-0.512,-0.288l-0.576,-0.161l-0.577,-0.064l-36.288,0l-0.608,0.064l-0.544,0.161l-0.544,0.288l-0.448,0.384l-0.384,0.448l-0.256,0.512l-0.192,0.576l-0.064,0.576l0,15.141l0.064,0.576l0.192,0.576l0.256,0.512l0.384,0.48l0.448,0.352l0.544,0.289l0.544,0.16l0.608,0.064l36.288,-0Zm13.601,-21.159l-0.608,0.064l-0.544,0.161l-0.544,0.288l-0.448,0.384l-0.385,0.448l-0.255,0.512l-0.193,0.576l-0.064,0.576l0,15.141l0.064,0.576l0.193,0.576l0.255,0.512l0.385,0.48l0.448,0.352l0.544,0.289l0.544,0.16l0.608,0.064l36.288,-0l0.576,-0.064l0.576,-0.16l0.512,-0.289l0.48,-0.352l0.352,-0.48l0.288,-0.512l0.16,-0.576l0.064,-0.576l0,-15.141l-0.064,-0.576l-0.16,-0.576l-0.288,-0.512l-0.352,-0.448l-0.48,-0.384l-0.512,-0.288l-0.576,-0.161l-0.576,-0.064l-36.288,0Zm136.064,21.159l0.577,-0.064l0.576,-0.16l0.511,-0.289l0.481,-0.352l0.351,-0.48l0.289,-0.512l0.192,-0.576l0.031,-0.576l0,-9.091l-0.063,-1.088l-0.192,-1.056l-0.321,-1.057l-0.447,-0.992l-0.577,-0.96l-0.672,-0.865l-0.768,-0.768l-0.864,-0.672l-0.927,-0.576l-1.024,-0.448l-1.025,-0.32l-1.088,-0.193l-1.087,-0.064l-30.241,0l-0.576,0.064l-0.576,0.161l-0.511,0.288l-0.48,0.384l-0.384,0.448l-0.256,0.512l-0.192,0.576l-0.032,0.576l-0,15.141l0.032,0.576l0.192,0.576l0.256,0.512l0.384,0.48l0.48,0.352l0.511,0.289l0.576,0.16l0.576,0.064l36.288,-0Zm-214.689,26.471l0.064,0.577l0.16,0.576l0.288,0.512l0.384,0.48l0.448,0.384l0.544,0.256l0.544,0.192l0.608,0.032l9.056,-0l0.608,-0.032l0.545,-0.192l0.543,-0.256l0.448,-0.384l0.384,-0.48l0.256,-0.512l0.192,-0.576l0.064,-0.577l0,-44.621l-0.064,-0.576l-0.192,-0.576l-0.256,-0.512l-0.384,-0.448l-0.448,-0.384l-0.543,-0.288l-0.545,-0.161l-0.608,-0.064l-9.056,0l-0.608,0.064l-0.544,0.161l-0.544,0.288l-0.448,0.384l-0.384,0.448l-0.288,0.512l-0.16,0.576l-0.064,0.576l0,44.621Zm128.513,-47.63l-0.576,0.064l-0.576,0.161l-0.544,0.288l-0.448,0.384l-0.384,0.448l-0.256,0.512l-0.192,0.576l-0.064,0.576l0,15.141l0.064,0.576l0.192,0.576l0.256,0.512l0.384,0.48l0.448,0.352l0.544,0.289l0.576,0.16l0.576,0.064l36.289,-0l0.576,-0.064l0.575,-0.16l0.512,-0.289l0.48,-0.352l0.352,-0.48l0.288,-0.512l0.16,-0.576l0.064,-0.576l0,-15.141l-0.064,-0.576l-0.16,-0.576l-0.288,-0.512l-0.352,-0.448l-0.48,-0.384l-0.512,-0.288l-0.575,-0.161l-0.576,-0.064l-36.289,0Z" style="fill:#fff;"/><g><path d="M79.48,333.235l0.18,-1.28l0.24,-1.261l0.34,-1.24l0.4,-1.24l0.48,-1.2l0.54,-1.16l0.62,-1.14l0.68,-1.1l0.76,-1.04l0.8,-1.02l0.88,-0.941l0.92,-0.9l0.98,-0.84l1.04,-0.78l1.08,-0.72l1.12,-0.66l1.14,-0.58l1.2,-0.5l1.22,-0.44l1.24,-0.36l1.26,-0.28l1.26,-0.22l1.3,-0.12l1.28,-0.06l1.3,0.02l1.28,0.1l1.28,0.18l1.26,0.26l1.26,0.34l1.22,0.42l1.16,-2l-1.3,-0.46l-1.32,-0.38l-1.34,-0.3l-1.36,-0.22l-1.36,-0.16l-1.38,-0.06l-1.36,-0l0,-8.621l5.06,-0l1.16,-0.04l1.16,-0.12l1.16,-0.18l1.14,-0.26l1.12,-0.34l1.08,-0.4l1.08,-0.48l1.04,-0.54l0.98,-0.6l0.96,-0.681l0.92,-0.72l0.86,-0.8l0.8,-0.84l0.76,-0.9l0.7,-0.92l0.62,-1l9.321,-15.522l0.14,-0.16l0.18,-0.12l0.2,-0.04l0.22,0l0.2,0.08l0.16,0.14l0.12,0.18l0.04,0.201l-0,0.22l-4.22,19.781l-0.04,0.4l0.02,0.4l0.1,0.381l0.14,0.36l0.22,0.34l0.28,0.28l0.32,0.24l0.36,0.18l0.38,0.12l0.38,0.04l0.4,-0.02l0.38,-0.1l0.38,-0.16l0.32,-0.22l6.58,-5.261l5.66,-9.741l0.14,-0.28l0.08,-0.3l0.02,-0.32l-0,-0.52l-0.56,0.08l-0.58,0l-0.58,-0.06l-0.54,-0.14l-0.54,-0.2l-0.5,-0.28l-0.48,-0.32l-0.42,-0.4l-0.36,-0.44l-0.32,-0.48l-0.24,-0.52l-0.18,-0.54l-0.1,-0.56l-0.04,-0.58l-0,-5.441l-1.82,0l-0,-0.9l0.04,-0.8l0.12,-0.8l0.2,-0.78l0.26,-0.74l0.34,-0.72l0.42,-0.7l0.46,-0.64l0.54,-0.601l0.6,-0.52l0.64,-0.48l0.68,-0.42l0.72,-0.34l0.76,-0.28l0.78,-0.18l0.78,-0.12l0.8,-0.06l0.8,0.04l0.8,0.12l0.76,0.2l0.76,0.26l0.72,0.34l0.7,0.4l0.64,0.48l0.6,0.54l0.54,0.581l0.48,0.64l0.4,0.68l0.36,0.72l0.26,0.76l0.2,0.78l0.12,0.78l0.06,0.8l-0.04,0.8l-0.12,0.8l-0.18,0.76l-0.26,0.76l-0.34,0.72l-0.42,0.7l-0.46,0.641l0,3.1l1.82,-0l10.46,4.46l10.721,11.621l0.54,0.64l0.48,0.7l0.4,0.741l0.36,0.76l0.26,0.8l0.2,0.82l0.12,0.84l0.04,0.84l-0,1.3l19.96,0l0.58,0.04l0.58,0.12l0.56,0.18l0.54,0.26l0.5,0.34l0.44,0.38l0.38,0.46l0.34,0.48l0.26,0.54l0.2,0.56l0.1,0.58l0.04,0.601l-0,1.58l1.28,0.6l1.26,0.66l1.2,0.72l1.18,0.8l1.12,0.86l1.06,0.92l1.02,0.96l0.96,1.04l0.9,1.08l0.84,1.14l0.78,1.181l0.721,1.22l0.64,1.26l0.559,1.28l0.5,1.32l0.441,1.34l0.34,1.38l0.279,1.38l0.201,1.401l0.1,1.4l0.04,1.42l-4.081,-0l-0.04,1.26l-0.1,1.28l-0.2,1.26l-0.26,1.24l-0.34,1.24l-0.42,1.201l-0.48,1.18l-0.54,1.14l-0.62,1.12l-0.7,1.06l-0.74,1.04l-0.8,0.98l-0.88,0.94l-0.92,0.88l-0.96,0.82l-1.02,0.781l-1.06,0.7l-1.1,0.64l-1.14,0.56l-1.18,0.5l-1.2,0.44l-1.22,0.36l-1.24,0.28l-1.26,0.22l-1.26,0.12l-1.28,0.06l-1.28,-0.02l-1.26,-0.08l-1.26,-0.18l-1.26,-0.24l-1.22,-0.32l-1.22,-0.38l-1.18,-0.48l-1.16,-0.52l-1.12,-0.6l-1.1,-0.68l-1.04,-0.72l-1,-0.801l-0.94,-0.84l-0.9,-0.92l-0.84,-0.94l-0.78,-1.02l-0.72,-1.04l-0.66,-1.1l-38.141,-0l-0.86,-0.04l-0.84,-0.12l-0.84,-0.2l-0.82,-0.28l-0.78,-0.36l-0.74,-0.42l-0.7,-0.5l-0.66,-0.56l-0.58,-0.62l-0.54,-0.68l-0.48,-0.721l-0.38,-0.76l-0.34,-0.8l-0.24,-0.82l-0.16,-0.84l-0.1,-0.86l-0,-0.86l0.02,-1.38l-0.06,-1.38l-0.14,-1.36l-0.22,-1.361l-0.3,-1.34l-0.38,-1.34l-0.46,-1.3l-0.54,-1.26l-0.6,-1.24l-0.68,-1.2l-0.741,-1.16l-0.82,-1.1l-0.86,-1.081l-0.94,-1l-1,-0.96l-1.04,-0.9l-1.16,2l0.98,0.86l0.9,0.9l0.86,0.981l0.8,1.02l0.644,0.921l2.703,5.975l0.014,0.044l0.32,1.24l0.22,1.281l0.16,1.28l0.06,1.28l-0,1.3l-0.08,1.3l-0.16,1.28l-0.24,1.26l-0.3,1.26l-0.4,1.221l-0.461,1.22l-0.54,1.16l-0.6,1.16l-0.68,1.1l-0.74,1.06l-0.8,1l-0.86,0.96l-0.92,0.92l-0.96,0.84l-1.04,0.801l-1.06,0.72l-1.1,0.66l-1.16,0.6l-1.18,0.52l-1.2,0.46l-1.24,0.36l-1.26,0.3l-1.28,0.22l-1.28,0.16l-1.28,0.06l-1.3,-0l-1.3,-0.1l-1.28,-0.16l-1.26,-0.24l-1.26,-0.32l-1.22,-0.4l-1.2,-0.48l-1.18,-0.54l-1.14,-0.6l-1.1,-0.68l-1.06,-0.76l-1,-0.801l-0.96,-0.86l-0.9,-0.94l-0.84,-0.96l-0.8,-1.04l-0.72,-1.06l-0.64,-1.12l-0.6,-1.14l-0.52,-1.2l-0.44,-1.2l-0.36,-1.241l-0.3,-1.26l-0.22,-1.28l-0.14,-1.28l-0.06,-1.3l0.02,-1.28l0.1,-1.3Zm87.882,-15.462l-0,13.682l0.04,0.28l0.14,0.24l0.2,0.18l0.26,0.12l0.26,0.02l0.28,-0.06l0.24,-0.14l0.18,-0.2l0.1,-0.26l7,-12.262l0.16,-0.18l0.1,-0.22l0.04,-0.24l-0.02,-0.24l-0.08,-0.24l-0.14,-0.2l-0.2,-0.14l-0.22,-0.1l-0.24,-0.04l-8.1,0Zm10.56,13.862l-0.26,0.96l-0.18,0.96l-0.12,1l-0.02,0.98l0.04,1l0.12,0.98l0.2,0.98l0.26,0.94l0.36,0.94l0.42,0.9l0.48,0.861l0.56,0.82l0.6,0.78l0.68,0.72l0.74,0.68l0.78,0.62l0.82,0.54l0.86,0.48l0.9,0.42l0.94,0.34l0.94,0.28l0.98,0.2l0.98,0.12l1,0.04l0.98,-0.04l1,-0.12l0.96,-0.18l0.96,-0.28l0.94,-0.34l0.9,-0.4l0.86,-0.48l0.84,-0.56l0.78,-0.6l0.72,-0.66l0.68,-0.74l0.62,-0.76l0.56,-0.82l0.5,-0.861l0.42,-0.9l0.36,-0.94l0.26,-0.94l0.22,-0.98l0.12,-0.98l0.04,-1l-0.02,-0.98l-0.1,-0.98l-0.18,-0.98l-0.26,-0.96l-0.34,-0.941l-0.4,-0.9l-0.48,-0.88l-0.54,-0.82l-0.6,-0.8l-0.66,-0.74l-0.72,-0.68l-0.76,-0.62l-0.82,-0.56l-0.86,-0.5l-0.9,-0.44l-0.92,-0.36l-0.94,-0.28l-0.98,-0.2l-0.98,-0.14l-1,-0.06l-0.98,0.02l1.66,4.56l0.78,0.12l0.78,0.22l0.74,0.26l0.72,0.36l0.68,0.42l0.62,0.48l0.6,0.54l0.52,0.58l0.46,0.64l0.42,0.701l0.32,0.72l0.28,0.74l0.18,0.78l0.12,0.78l0.04,0.8l-0.04,0.8l-0.12,0.78l-0.2,0.78l-0.26,0.74l-0.34,0.72l-0.42,0.68l-0.48,0.64l-0.52,0.6l-0.6,0.52l-0.62,0.481l-0.7,0.42l-0.7,0.34l-0.76,0.28l-0.76,0.18l-0.8,0.14l-0.78,0.04l-0.8,-0.04l-0.78,-0.1l-0.78,-0.2l-0.76,-0.26l-0.72,-0.32l-0.68,-0.4l-0.64,-0.481l-0.6,-0.52l-0.54,-0.58l-0.5,-0.64l-0.42,-0.66l-0.34,-0.72l-0.28,-0.74l-0.2,-0.78l-0.14,-0.78l-0.06,-0.8l0.04,-0.78l0.1,-0.8l0.16,-0.78l0.26,-0.74l0.32,-0.74l0.4,-0.681l0.46,-0.66l0.52,-0.6l-1.66,-4.56l-0.78,0.62l-0.72,0.68l-0.66,0.74l-0.62,0.78l-0.54,0.84l-0.48,0.86l-0.4,0.9l-0.34,0.941Zm-89.762,1.76l-0.14,0.98l-0.04,1l0.04,0.98l0.1,1l0.18,0.96l0.26,0.96l0.34,0.94l0.4,0.9l0.48,0.881l0.54,0.82l0.62,0.8l0.66,0.72l0.72,0.68l0.76,0.64l0.82,0.56l0.86,0.5l0.9,0.42l0.92,0.36l0.96,0.28l0.96,0.2l1,0.14l0.98,0.06l1,-0.04l0.98,-0.1l0.98,-0.18l0.96,-0.24l0.94,-0.34l0.9,-0.38l0.88,-0.48l0.82,-0.54l0.8,-0.6l0.74,-0.66l0.68,-0.7l0.64,-0.78l0.56,-0.8l0.5,-0.861l0.44,-0.9l0.36,-0.92l0.3,-0.94l0.22,-0.98l0.14,-0.98l0.06,-0.98l-0.02,-1l-0.1,-0.98l-0.16,-0.98l-0.24,-0.96l-0.32,-0.941l-0.4,-0.92l-0.46,-0.86l-0.52,-0.84l-0.6,-0.8l-0.66,-0.76l-2.42,4.22l0.4,0.681l0.34,0.72l0.28,0.74l0.18,0.78l0.12,0.78l0.04,0.8l-0.04,0.8l-0.1,0.78l-0.2,0.78l-0.26,0.74l-0.34,0.72l-0.4,0.68l-0.48,0.66l-0.52,0.58l-0.6,0.54l-0.62,0.481l-0.68,0.42l-0.72,0.34l-0.74,0.28l-0.78,0.2l-0.78,0.12l-0.8,0.06l-0.8,-0.04l-0.78,-0.1l-0.78,-0.18l-0.74,-0.26l-0.74,-0.32l-0.68,-0.4l-0.64,-0.461l-0.6,-0.54l-0.56,-0.58l-0.48,-0.62l-0.42,-0.68l-0.36,-0.7l-0.28,-0.74l-0.2,-0.78l-0.14,-0.78l-0.06,-0.8l0.02,-0.78l0.1,-0.8l0.18,-0.78l0.24,-0.76l0.32,-0.72l0.4,-0.701l0.44,-0.64l0.52,-0.6l0.58,-0.56l0.62,-0.5l0.68,-0.42l0.7,-0.36l0.74,-0.3l0.76,-0.22l0.78,-0.14l0.8,-0.06l0.8,0l2.42,-4.2l-0.96,-0.2l-1,-0.1l-0.98,-0.04l-1,0.04l-0.98,0.12l-0.98,0.18l-0.96,0.28l-0.92,0.34l-0.9,0.4l-0.86,0.5l-0.84,0.54l-0.78,0.62l-0.72,0.66l-0.68,0.72l-0.62,0.78l-0.56,0.82l-0.48,0.88l-0.42,0.88l-0.36,0.941l-0.26,0.96l-0.2,0.96Zm59.241,-34.204l-17.24,9.981l17.24,5.441l5.44,-8.621l-5.44,-6.801Z" style="fill:#fff;"/><path d="M245.675,333.095l0.08,-1.184l0.144,-1.168l0.208,-1.184l0.272,-1.153l0.336,-1.136l0.384,-1.12l0.448,-1.104l0.496,-1.088l0.56,-1.04l0.608,-1.024l0.672,-0.976l0.72,-0.944l0.768,-0.912l0.8,-0.88l0.864,-0.816l0.896,-0.785l0.928,-0.72l0.976,-0.688l1.009,-0.624l1.04,-0.576l1.072,-0.528l1.088,-0.448l1.12,-0.416l1.136,-0.336l1.152,-0.288l1.168,-0.224l1.184,-0.16l1.184,-0.112l1.184,-0.032l1.184,0.016l1.184,0.08l1.184,0.16l1.169,0.208l1.168,0.272l1.136,0.32l1.12,0.384l4.912,-18.321l0.064,-0.337l-0.016,-0.352l-0.064,-0.352l-0.128,-0.32l-0.192,-0.288l-0.24,-0.256l-0.288,-0.208l-0.48,-0.32l-0.464,-0.368l-0.416,-0.4l-0.368,-0.448l-0.336,-0.496l-0.272,-0.496l-0.24,-0.544l-0.176,-0.56l-0.128,-0.56l-0.064,-0.576l-0.016,-0.592l0.048,-0.576l0.096,-0.576l0.16,-0.56l0.208,-0.544l0.256,-0.528l0.304,-0.496l0.352,-0.464l0.4,-0.432l0.448,-0.385l0.464,-0.336l0.512,-0.304l0.528,-0.24l0.544,-0.192l0.56,-0.144l0.576,-0.08l0.592,-0.032l10.577,0l-0,5.665l-8.689,-0l-0.256,0.032l-0.256,0.096l-0.224,0.144l-0.176,0.192l-0.128,0.24l-0.08,0.256l-0.016,0.256l0.048,0.272l0.112,0.24l0.16,0.208l0.208,0.16l0.464,0.32l0.416,0.384l0.384,0.4l0.336,0.448l0.288,0.496l0.224,0.496l0.176,0.544l0.128,0.544l0.048,0.56l0,0.56l-0.048,0.545l-0.112,0.56l-0.912,3.392l41.395,-0l2.064,-5.665l-8.736,-1.936l-0.32,-0.096l-0.288,-0.16l-0.256,-0.192l-0.224,-0.24l-0.176,-0.272l-0.128,-0.288l-0.08,-0.32l-0.016,-0.32l0.032,-0.32l0.096,-0.32l0.144,-0.288l0.192,-0.272l0.224,-0.224l0.272,-0.176l0.288,-0.144l0.32,-0.08l0.32,-0.032l19.553,-0l0.192,0.032l0.176,0.08l0.16,0.112l0.112,0.16l0.08,0.176l0.032,0.192l-0.032,0.192l-0.176,0.624l-0.256,0.608l-0.304,0.56l-0.352,0.544l-0.416,0.512l-0.448,0.464l-0.496,0.416l-0.545,0.368l-0.559,0.32l-0.593,0.256l-0.623,0.208l-0.625,0.144l-0.639,0.08l-1.745,4.801l8.945,15.505l1.104,-0.432l1.136,-0.384l1.136,-0.304l1.152,-0.256l1.168,-0.192l1.184,-0.128l1.185,-0.08l1.184,-0l1.184,0.048l1.184,0.128l1.168,0.176l1.168,0.24l1.136,0.288l1.136,0.368l1.104,0.416l1.088,0.48l1.072,0.528l1.024,0.576l0.992,0.64l0.976,0.688l0.928,0.752l0.881,0.785l0.847,0.832l0.8,0.864l0.753,0.928l0.703,0.944l0.657,0.992l0.592,1.024l0.544,1.056l0.496,1.072l0.432,1.104l0.384,1.12l0.304,1.152l0.256,1.153l0.192,1.168l0.144,1.184l0.064,1.184l0.016,1.184l-0.048,1.184l-0.112,1.184l-0.176,1.168l-0.24,1.152l-0.304,1.152l-0.352,1.137l-0.416,1.104l-0.464,1.088l-0.528,1.056l-0.592,1.04l-0.624,0.992l-0.688,0.976l-0.753,0.928l-0.784,0.88l-0.816,0.848l-0.879,0.8l-0.913,0.769l-0.96,0.704l-0.976,0.656l-1.024,0.592l-1.056,0.56l-1.072,0.48l-1.104,0.448l-1.12,0.368l-1.152,0.32l-1.152,0.256l-1.168,0.208l-1.184,0.128l-1.184,0.08l-1.184,0.016l-1.185,-0.048l-1.168,-0.112l-1.184,-0.176l-1.152,-0.224l-1.152,-0.304l-1.136,-0.352l-1.104,-0.416l-1.088,-0.464l-1.072,-0.528l-1.024,-0.576l-1.009,-0.64l-0.959,-0.688l-0.945,-0.721l-0.88,-0.784l-0.847,-0.832l-0.801,-0.88l-0.768,-0.912l-0.704,-0.944l-0.656,-0.992l-0.608,-1.008l-0.56,-1.056l-0.496,-1.072l-0.432,-1.104l-0.384,-1.12l-0.32,-1.137l-0.256,-1.168l-0.208,-1.168l-0.128,-1.168l-2.224,0l-0.208,0.784l-0.288,0.752l-0.336,0.736l-0.4,0.704l-0.464,0.672l-0.528,0.625l-0.56,0.576l-0.624,0.512l-0.656,0.48l1.952,4.176l3.968,0l-0,3.024l-2.56,0l-0.272,0.32l-0.32,0.288l-0.352,0.224l-0.384,0.16l-0.416,0.096l-0.432,0.048l-0.416,-0.048l-0.416,-0.096l-0.384,-0.16l-0.368,-0.224l-0.304,-0.288l-0.272,-0.32l-2.561,0l0,-3.024l2.561,0l-1.424,-3.056l-0.768,0.192l-0.769,0.128l-0.784,0.08l-0.8,-0l-0.784,-0.064l-0.784,-0.128l-0.752,-0.192l-0.752,-0.256l-0.72,-0.32l-0.704,-0.384l-0.656,-0.432l-0.624,-0.48l-0.576,-0.544l-0.528,-0.577l-0.48,-0.624l-0.432,-0.672l-0.368,-0.688l-0.304,-0.736l-0.256,-0.752l-0.176,-0.768l-0.128,-0.768l-0.048,-0.8l-0,-0.784l0.08,-0.784l0.144,-0.768l0.208,-0.768l-26.274,-18.386l-0.736,2.736l0.96,0.72l0.912,0.752l0.864,0.817l0.832,0.848l0.784,0.896l0.72,0.928l0.688,0.976l0.641,1.008l0.576,1.04l0.512,1.056l0.48,1.104l0.4,1.104l0.352,1.136l0.288,1.153l0.224,1.168l0.176,1.184l0.112,1.184l0.032,1.184l-0.016,1.184l-0.08,1.184l-0.144,1.184l-0.208,1.168l-0.256,1.152l-0.336,1.153l-0.384,1.12l-0.432,1.104l-0.512,1.072l-0.544,1.056l-0.625,1.024l-0.656,0.976l-0.72,0.96l-0.752,0.912l-0.816,0.864l-0.848,0.832l-0.896,0.768l-0.944,0.737l-0.96,0.688l-1.008,0.624l-1.04,0.576l-1.072,0.528l-1.088,0.464l-1.12,0.4l-1.136,0.352l-1.152,0.288l-1.169,0.224l-1.184,0.176l-1.168,0.096l-1.2,0.048l-1.184,-0.016l-1.184,-0.08l-1.184,-0.144l-1.168,-0.208l-1.152,-0.272l-1.152,-0.32l-1.12,-0.384l-1.104,-0.448l-1.072,-0.512l-1.056,-0.544l-1.009,-0.624l-0.992,-0.656l-0.944,-0.721l-0.912,-0.768l-0.864,-0.8l-0.832,-0.864l-0.784,-0.896l-0.72,-0.928l-0.688,-0.976l-0.624,-1.008l-0.576,-1.04l-0.528,-1.072l-0.464,-1.088l-0.4,-1.12l-0.352,-1.137l-0.288,-1.152l-0.224,-1.168l-0.16,-1.168l-0.112,-1.184l-0.032,-1.2l0.016,-1.184Zm77.541,-6.497l0.624,0.528l0.592,0.576l0.528,0.64l0.464,0.673l0.416,0.704l0.352,0.736l0.288,0.768l0.208,0.8l2.224,-0l0.128,-1.168l0.208,-1.152l0.256,-1.153l0.32,-1.136l0.368,-1.12l0.432,-1.088l0.496,-1.072l0.544,-1.04l0.592,-1.008l0.656,-0.992l0.688,-0.944l0.752,-0.912l0.801,-0.864l0.832,-0.816l0.879,-0.785l0.912,-0.736l-6.576,-11.393l-7.984,21.954Zm13.185,2.577l-0.273,0.944l-0.223,0.944l-0.161,0.96l11.265,-0l-5.792,-10.033l-0.72,0.656l-0.672,0.688l-0.64,0.736l-0.593,0.784l-0.543,0.8l-0.496,0.848l-0.448,0.864l-0.384,0.896l-0.32,0.913Zm-24.978,4.928l0.032,0.592l0.08,0.592l0.144,0.576l0.208,0.56l0.256,0.528l0.304,0.512l0.352,0.48l0.4,0.432l0.432,0.4l0.48,0.352l0.512,0.304l0.528,0.256l0.56,0.208l0.576,0.144l0.592,0.08l0.592,0.032l0.592,-0.032l0.592,-0.08l0.577,-0.144l0.56,-0.208l0.528,-0.256l0.512,-0.304l0.48,-0.352l0.432,-0.4l0.4,-0.432l0.352,-0.48l0.304,-0.512l0.256,-0.528l0.208,-0.56l0.144,-0.576l0.08,-0.592l0.032,-0.592l-0.032,-0.592l-0.08,-0.592l-0.144,-0.576l-0.208,-0.56l-0.256,-0.528l-0.304,-0.512l-0.352,-0.48l-0.4,-0.432l-0.432,-0.4l-0.48,-0.352l-0.512,-0.305l-0.528,-0.256l-0.56,-0.208l-0.577,-0.144l-0.592,-0.08l-0.592,-0.032l-0.592,0.032l-0.592,0.08l-0.576,0.144l-0.56,0.208l-0.528,0.256l-0.512,0.305l-0.48,0.352l-0.432,0.4l-0.4,0.432l-0.352,0.48l-0.304,0.512l-0.256,0.528l-0.208,0.56l-0.144,0.576l-0.08,0.592l-0.032,0.592Zm40.931,2.08l-16.61,0l0.161,0.992l0.223,0.976l0.289,0.96l0.352,0.928l0.4,0.929l0.464,0.88l0.511,0.864l0.577,0.832l0.624,0.784l0.672,0.736l0.704,0.704l0.768,0.656l0.8,0.608l0.832,0.56l0.864,0.496l0.896,0.448l0.928,0.384l0.944,0.336l0.96,0.272l0.992,0.192l0.992,0.16l0.993,0.08l1.007,0.016l0.993,-0.048l0.991,-0.112l0.993,-0.16l0.976,-0.24l0.96,-0.288l0.944,-0.352l0.912,-0.416l0.88,-0.464l0.864,-0.528l0.816,-0.576l0.784,-0.624l0.736,-0.672l0.688,-0.72l0.656,-0.768l0.608,-0.8l0.544,-0.848l0.496,-0.864l0.432,-0.896l0.385,-0.929l0.32,-0.96l0.255,-0.96l0.209,-0.976l0.127,-0.992l0.08,-1.008l0.016,-1.008l-0.048,-0.992l-0.127,-0.992l-0.176,-0.992l-0.24,-0.976l-0.305,-0.944l-0.352,-0.945l-0.416,-0.912l-0.48,-0.88l-0.528,-0.848l-0.592,-0.816l-0.624,-0.784l-0.688,-0.736l-0.72,-0.688l-0.768,-0.64l-0.8,-0.592l-0.848,-0.544l-0.88,-0.48l-0.896,-0.432l-0.928,-0.384l-0.96,-0.304l-0.976,-0.256l-0.976,-0.192l-0.992,-0.128l-1.008,-0.08l-0.992,-0l-1.009,0.064l-0.992,0.128l-0.976,0.176l-0.976,0.256l-0.96,0.304l8.032,13.905l0.161,0.32l0.08,0.352l0.032,0.368l-0.032,0.352l-0.08,0.352l-0.161,0.336l-0.207,0.288l-0.257,0.256l-0.304,0.208l-0.319,0.16l-0.352,0.096l-0.368,0.032Zm-98.983,-7.377l-0.304,0.945l-0.24,0.976l-0.192,0.976l-0.112,0.992l-0.064,0.992l0.016,0.992l0.064,1.008l0.128,0.976l0.192,0.976l0.256,0.976l0.304,0.944l0.384,0.929l0.416,0.896l0.496,0.864l0.528,0.848l0.592,0.8l0.64,0.768l0.689,0.72l0.736,0.672l0.768,0.64l0.8,0.576l0.848,0.528l0.88,0.48l0.896,0.416l0.944,0.368l0.944,0.304l0.96,0.24l0.992,0.176l0.976,0.128l1.008,0.064l0.992,-0.016l0.992,-0.064l0.992,-0.128l0.976,-0.192l0.961,-0.256l0.944,-0.304l0.928,-0.368l0.896,-0.432l0.88,-0.48l0.832,-0.544l0.816,-0.592l0.752,-0.64l0.736,-0.688l0.672,-0.72l0.64,-0.768l0.576,-0.816l0.528,-0.848l0.48,-0.864l0.416,-0.913l0.368,-0.928l0.304,-0.944l0.24,-0.976l0.192,-0.976l0.112,-0.992l0.064,-0.992l0,-0.992l-0.08,-0.992l-0.128,-0.992l-0.192,-0.976l-0.24,-0.976l-0.32,-0.945l-0.368,-0.928l-0.432,-0.896l-0.48,-0.864l-0.528,-0.848l-0.592,-0.8l-0.64,-0.768l-0.688,-0.72l-1.28,4.752l-0.24,0.816l-0.32,0.801l-0.352,0.768l-0.416,0.752l-0.48,0.704l-0.512,0.672l-0.56,0.64l-0.608,0.608l-0.656,0.544l-0.688,0.512l-0.72,0.464l-0.737,0.4l-0.784,0.352l-0.8,0.288l-0.816,0.24l-0.832,0.192l-0.368,0.032l-0.368,-0.032l-0.352,-0.08l-0.336,-0.144l-0.304,-0.192l-0.272,-0.24l-0.24,-0.288l-0.192,-0.304l-0.128,-0.352l-0.08,-0.352l-0.016,-0.368l0.048,-0.352l0.096,-0.352l0.16,-0.336l0.208,-0.304l0.24,-0.272l0.304,-0.208l0.816,-0.576l0.8,-0.64l0.752,-0.688l0.688,-0.72l0.656,-0.785l0.592,-0.816l0.528,-0.864l0.481,-0.88l0.432,-0.928l0.352,-0.944l0.288,-0.976l1.04,-3.888l-0.928,-0.368l-0.944,-0.288l-0.977,-0.256l-0.976,-0.176l-0.992,-0.112l-0.992,-0.064l-0.992,0.016l-0.992,0.064l-0.992,0.128l-0.976,0.192l-0.976,0.256l-0.944,0.32l-0.912,0.368l-0.912,0.432l-0.864,0.48l-0.832,0.544l-0.816,0.592l-0.752,0.64l-0.736,0.688l-0.673,0.72l-0.624,0.768l-0.592,0.816l-0.528,0.848l-0.464,0.88l-0.432,0.896l-0.352,0.928Zm58.34,-2.192l0.608,-0.432l-1.952,-4.176l-3.968,-0l-0,-3.024l2.56,-0l0.256,-0.32l0.32,-0.288l0.368,-0.224l0.384,-0.16l0.416,-0.112l0.416,-0.032l0.432,0.032l0.416,0.112l0.384,0.16l0.352,0.224l0.32,0.288l0.272,0.32l2.56,-0l0,3.024l-2.56,-0l1.424,3.056l0.768,-0.208l0.8,-0.128l0.8,-0.064l0.8,0l7.569,-20.802l-40.851,0l-0.848,3.169l27.954,19.585Z" style="fill:#fff;"/></g><g><g><rect x="198.35" y="374.919" width="33.562" height="60.472" style="fill:#0079c1;"/><path d="M218.305,411.062c-0,2.253 -1.853,3.805 -5.457,3.805c-2.303,-0 -4.856,-1.252 -4.856,-3.855c0,-3.554 3.204,-3.955 5.857,-4.205c1.202,-0.1 3.204,-0.25 4.456,-0.301l-0,4.556Zm8.96,4.455c-1.852,-0.701 -2.553,-1.902 -2.553,-4.005l0,-10.863c0,-7.108 -3.604,-10.612 -10.412,-10.612c-3.905,-0 -7.459,0.901 -11.064,3.003l2.353,5.157c2.653,-1.602 5.307,-2.303 8.21,-2.303c3.204,-0 4.556,1.452 4.556,4.405l-0,1.151c-1.753,0.101 -4.756,0.351 -6.358,0.501c-2.803,0.25 -10.513,1.101 -10.513,9.511c0,5.707 4.706,8.661 10.163,8.661c3.704,-0 6.257,-1.252 8.009,-2.804c0.951,1.702 2.553,2.754 4.706,2.954l2.903,-4.756Z" style="fill:#fff;fill-rule:nonzero;"/></g><g><rect x="263.357" y="374.919" width="16.328" height="60.472" style="fill:#0079c1;"/><path d="M274.96,389.991l-6.824,0l-0,30.282l6.824,-0l-0,-30.282Zm0.64,-7.997c-0,-2.239 -1.813,-4.052 -4.052,-4.052c-2.293,0 -4.105,1.813 -4.105,4.052c-0,2.293 1.812,4.105 4.105,4.105c2.239,0 4.052,-1.812 4.052,-4.105Z" style="fill:#fff;fill-rule:nonzero;"/></g><g><rect x="173.858" y="374.919" width="24.491" height="60.472" style="fill:#0079c1;"/><path d="M195.228,413.948c-1.144,0.435 -2.397,0.653 -3.595,0.653c-3.051,0 -3.759,-1.035 -3.759,-3.922l0,-15.687l8.007,-0l0,-5.883l-8.007,-0l0,-11.167l-6.918,3.105l0,8.062l-5.12,-0l0,5.883l5.12,-0l0,18.411c0,6.264 4.739,7.626 8.552,7.626c3.051,-0 5.23,-0.599 6.864,-1.035l-1.144,-6.046Z" style="fill:#fff;fill-rule:nonzero;"/></g><g><rect x="231.912" y="374.919" width="31.446" height="60.472" style="fill:#0079c1;"/><path d="M251.361,404.303l9.475,-14.266l-7.718,-0l-5.483,8.57l-5.537,-8.57l-7.718,-0l9.475,14.319l-10.593,15.917l7.665,-0l6.654,-10.327l6.655,10.327l7.771,-0l-10.646,-15.97Z" style="fill:#fff;fill-rule:nonzero;"/></g></g></g></svg>