<?xml version="1.0" encoding="UTF-8" standalone="no"?><!DOCTYPE svg PUBLIC "-//W3C//DTD SVG 1.1//EN" "http://www.w3.org/Graphics/SVG/1.1/DTD/svg11.dtd"><svg width="100%" height="100%" viewBox="0 0 454 454" version="1.1" xmlns="http://www.w3.org/2000/svg" xmlns:xlink="http://www.w3.org/1999/xlink" xml:space="preserve" xmlns:serif="http://www.serif.com/" style="fill-rule:evenodd;clip-rule:evenodd;stroke-linejoin:round;stroke-miterlimit:2;"><g transform="matrix(50,0,0,50,321.022,280.971)"></g><text x="133.4px" y="280.971px" style="font-family:'ArialMT', 'Arial', sans-serif;font-size:50px;">sw=38.4</text><g id="_953.1-Route-for-Buses-and-Trams" serif:id="953.1 Route for Buses and Trams"><circle cx="226.772" cy="226.772" r="226.772" style="fill:#fff;"/><path d="M226.772,0c125.158,0 226.771,101.613 226.771,226.772c0,125.158 -101.613,226.771 -226.771,226.771c-125.159,0 -226.772,-101.613 -226.772,-226.771c-0,-125.159 101.613,-226.772 226.772,-226.772Zm-0,1.181c-124.507,0 -225.591,101.084 -225.591,225.591c0,124.506 101.084,225.59 225.591,225.59c124.506,0 225.59,-101.084 225.59,-225.59c0,-124.507 -101.084,-225.591 -225.59,-225.591Z" style="fill:#0079c1;"/><circle cx="226.761" cy="226.761" r="217.701" style="fill:#0079c1;"/><path d="M84.156,104.884l0.288,-0.928l0.384,-0.896l0.512,-0.832l0.608,-0.768l0.672,-0.672l0.768,-0.608l0.832,-0.512l0.896,-0.384l0.928,-0.288l0.96,-0.16l0.96,-0.064l99.518,-0l3.584,-3.584l0.608,-0.513l0.672,-0.416l0.736,-0.288l0.768,-0.192l0.768,-0.064l21.119,0l-25.183,-17.633l25.919,-18.146l0,-5.536l0.064,-0.704l0.192,-0.672l0.288,-0.64l0.384,-0.576l0.512,-0.48l0.576,-0.416l0.64,-0.289l0.672,-0.192l0.704,-0.064l4.544,0l0.704,0.064l0.672,0.192l0.64,0.289l0.576,0.416l0.48,0.48l0.416,0.576l0.288,0.64l0.192,0.672l0.064,0.704l0,5.536l25.919,18.146l-25.183,17.633l21.088,0l0.8,0.064l0.768,0.192l0.736,0.288l0.672,0.416l0.608,0.513l3.551,3.584l99.551,-0l0.959,0.064l0.961,0.16l0.928,0.288l0.864,0.384l0.832,0.512l0.767,0.608l0.704,0.672l0.608,0.768l0.48,0.832l0.416,0.896l0.288,0.928l8.544,34.179l0,45.38l-25.184,0l0,5.025l-15.135,-0l-0.064,1.12l-0.16,1.12l-0.32,1.088l-0.448,1.056l-0.544,0.992l-0.64,0.896l-0.768,0.864l-0.832,0.736l-0.928,0.672l-0.992,0.544l-1.056,0.417l-1.056,0.32l-1.12,0.192l-1.152,0.064l-1.12,-0.064l-1.12,-0.192l-1.088,-0.32l-1.024,-0.417l-0.992,-0.544l-0.928,-0.672l-0.832,-0.736l-0.768,-0.864l-0.64,-0.896l-0.544,-0.992l-0.448,-1.056l-0.32,-1.088l-0.192,-1.12l-0.064,-1.12l-15.104,-0l-0.064,1.12l-0.191,1.12l-0.32,1.088l-0.417,1.056l-0.544,0.992l-0.672,0.896l-0.735,0.864l-0.865,0.736l-0.895,0.672l-0.993,0.544l-1.055,0.417l-1.088,0.32l-1.121,0.192l-1.119,0.064l-1.121,-0.064l-1.119,-0.192l-1.089,-0.32l-1.056,-0.417l-0.959,-0.544l-0.928,-0.672l-0.864,-0.736l-0.736,-0.864l-0.672,-0.896l-0.544,-0.992l-0.416,-1.056l-0.32,-1.088l-0.192,-1.12l-0.064,-1.12l-110.846,-0l-0.064,1.12l-0.192,1.12l-0.32,1.088l-0.448,1.056l-0.544,0.992l-0.64,0.896l-0.768,0.864l-0.832,0.736l-0.928,0.672l-0.992,0.544l-1.024,0.417l-1.088,0.32l-1.12,0.192l-1.12,0.064l-1.152,-0.064l-1.088,-0.192l-1.088,-0.32l-1.055,-0.417l-0.992,-0.544l-0.928,-0.672l-0.832,-0.736l-0.768,-0.864l-0.64,-0.896l-0.544,-0.992l-0.448,-1.056l-0.288,-1.088l-0.192,-1.12l-0.064,-1.12l-15.136,-0l-0.064,1.12l-0.192,1.12l-0.288,1.088l-0.448,1.056l-0.544,0.992l-0.672,0.896l-0.736,0.864l-0.832,0.736l-0.928,0.672l-0.992,0.544l-1.056,0.417l-1.088,0.32l-1.12,0.192l-1.12,0.064l-1.12,-0.064l-1.12,-0.192l-1.088,-0.32l-1.024,-0.417l-0.992,-0.544l-0.928,-0.672l-0.832,-0.736l-0.768,-0.864l-0.64,-0.896l-0.576,-0.992l-0.416,-1.056l-0.32,-1.088l-0.192,-1.12l-0.064,-1.12l-15.103,-0l-0,-5.025l-25.216,0l0,-45.38l8.576,-34.179Zm265.563,6.465l-0.704,0.064l-0.672,0.192l-0.64,0.288l-0.577,0.416l-0.479,0.48l-0.417,0.576l-0.287,0.64l-0.192,0.704l-0.065,0.672l0,19.65l0.065,0.704l0.192,0.704l0.287,0.608l0.417,0.576l0.479,0.512l0.577,0.416l0.64,0.288l0.672,0.192l0.704,0.032l12.672,0l0.736,-0.064l0.703,-0.192l0.673,-0.32l0.576,-0.416l0.512,-0.544l0.384,-0.608l0.287,-0.672l0.128,-0.736l0.032,-0.704l-0.128,-0.736l-4.896,-19.65l-0.223,-0.64l-0.32,-0.576l-0.384,-0.544l-0.513,-0.448l-0.544,-0.352l-0.607,-0.288l-0.672,-0.16l-0.641,-0.064l-7.775,-0Zm-53.407,-0l-0.704,0.064l-0.672,0.192l-0.641,0.288l-0.575,0.416l-0.48,0.48l-0.417,0.576l-0.287,0.64l-0.192,0.704l-0.064,0.672l-0,59.973l0.064,0.705l0.192,0.672l0.287,0.64l0.417,0.576l0.48,0.512l0.575,0.384l0.641,0.32l0.672,0.16l0.704,0.064l12.096,-0l0.704,-0.064l0.672,-0.16l0.639,-0.32l0.576,-0.384l0.513,-0.512l0.383,-0.576l0.289,-0.64l0.192,-0.672l0.064,-0.705l-0,-59.973l-0.064,-0.672l-0.192,-0.704l-0.289,-0.64l-0.383,-0.576l-0.513,-0.48l-0.576,-0.416l-0.639,-0.288l-0.672,-0.192l-0.704,-0.064l-12.096,-0Zm25.183,-0l-0.672,0.064l-0.704,0.192l-0.64,0.288l-0.576,0.416l-0.48,0.48l-0.416,0.576l-0.288,0.64l-0.192,0.704l-0.064,0.672l-0,59.973l0.064,0.705l0.192,0.672l0.288,0.64l0.416,0.576l0.48,0.512l0.576,0.384l0.64,0.32l0.704,0.16l0.672,0.064l12.096,-0l0.704,-0.064l0.704,-0.16l0.608,-0.32l0.576,-0.384l0.512,-0.512l0.416,-0.576l0.288,-0.64l0.16,-0.672l0.064,-0.705l-0,-59.973l-0.064,-0.672l-0.16,-0.704l-0.288,-0.64l-0.416,-0.576l-0.512,-0.48l-0.576,-0.416l-0.608,-0.288l-0.704,-0.192l-0.704,-0.064l-12.096,-0Zm-66.75,27.714l27.199,0l0.704,-0.032l0.672,-0.192l0.64,-0.288l0.576,-0.416l0.512,-0.512l0.384,-0.576l0.32,-0.608l0.16,-0.704l0.064,-0.704l0,-19.65l-0.064,-0.672l-0.16,-0.704l-0.32,-0.64l-0.384,-0.576l-0.512,-0.48l-0.576,-0.416l-0.64,-0.288l-0.672,-0.192l-0.704,-0.064l-27.199,-0l-0.704,0.064l-0.672,0.192l-0.64,0.288l-0.576,0.416l-0.512,0.48l-0.384,0.576l-0.32,0.64l-0.16,0.704l-0.064,0.672l-0,19.65l0.064,0.704l0.16,0.704l0.32,0.608l0.384,0.576l0.512,0.512l0.576,0.416l0.64,0.288l0.672,0.192l0.704,0.032Zm-162.589,-24.642l-4.928,19.65l-0.096,0.736l-0,0.704l0.16,0.736l0.288,0.672l0.384,0.608l0.512,0.544l0.576,0.416l0.672,0.32l0.704,0.192l0.704,0.064l12.672,0l0.704,-0.032l0.672,-0.192l0.639,-0.288l0.576,-0.416l0.512,-0.512l0.384,-0.576l0.32,-0.608l0.16,-0.704l0.064,-0.704l0,-19.65l-0.064,-0.672l-0.16,-0.704l-0.32,-0.64l-0.384,-0.576l-0.512,-0.48l-0.576,-0.416l-0.639,-0.288l-0.672,-0.192l-0.704,-0.064l-7.744,-0l-0.672,0.064l-0.64,0.16l-0.608,0.288l-0.576,0.352l-0.48,0.448l-0.416,0.544l-0.32,0.576l-0.192,0.64Zm79.422,24.642l27.232,0l0.704,-0.032l0.672,-0.192l0.64,-0.288l0.576,-0.416l0.48,-0.512l0.416,-0.576l0.288,-0.608l0.192,-0.704l0.064,-0.704l-0,-19.65l-0.064,-0.672l-0.192,-0.704l-0.288,-0.64l-0.416,-0.576l-0.48,-0.48l-0.576,-0.416l-0.64,-0.288l-0.672,-0.192l-0.704,-0.064l-27.232,-0l-0.672,0.064l-0.704,0.192l-0.64,0.288l-0.576,0.416l-0.48,0.48l-0.416,0.576l-0.288,0.64l-0.192,0.704l-0.064,0.672l0,19.65l0.064,0.704l0.192,0.704l0.288,0.608l0.416,0.576l0.48,0.512l0.576,0.416l0.64,0.288l0.704,0.192l0.672,0.032Zm41.599,0l27.2,0l0.704,-0.032l0.672,-0.192l0.64,-0.288l0.576,-0.416l0.512,-0.512l0.384,-0.576l0.288,-0.608l0.192,-0.704l0.064,-0.704l-0,-19.65l-0.064,-0.672l-0.192,-0.704l-0.288,-0.64l-0.384,-0.576l-0.512,-0.48l-0.576,-0.416l-0.64,-0.288l-0.672,-0.192l-0.704,-0.064l-27.2,-0l-0.704,0.064l-0.672,0.192l-0.64,0.288l-0.576,0.416l-0.512,0.48l-0.384,0.576l-0.319,0.64l-0.16,0.704l-0.064,0.672l-0,19.65l0.064,0.704l0.16,0.704l0.319,0.608l0.384,0.576l0.512,0.512l0.576,0.416l0.64,0.288l0.672,0.192l0.704,0.032Zm-72.062,-23.682l-0,59.973l0.064,0.705l0.16,0.672l0.32,0.64l0.384,0.576l0.512,0.512l0.576,0.384l0.64,0.32l0.672,0.16l0.704,0.064l12.096,-0l0.671,-0.064l0.704,-0.16l0.64,-0.32l0.576,-0.384l0.48,-0.512l0.416,-0.576l0.288,-0.64l0.192,-0.672l0.064,-0.705l0,-59.973l-0.064,-0.672l-0.192,-0.704l-0.288,-0.64l-0.416,-0.576l-0.48,-0.48l-0.576,-0.416l-0.64,-0.288l-0.704,-0.192l-0.671,-0.064l-12.096,-0l-0.704,0.064l-0.672,0.192l-0.64,0.288l-0.576,0.416l-0.512,0.48l-0.384,0.576l-0.32,0.64l-0.16,0.704l-0.064,0.672Zm-5.056,59.973l-0,-59.973l-0.064,-0.672l-0.16,-0.704l-0.32,-0.64l-0.384,-0.576l-0.512,-0.48l-0.576,-0.416l-0.64,-0.288l-0.672,-0.192l-0.704,-0.064l-12.096,-0l-0.704,0.064l-0.672,0.192l-0.64,0.288l-0.576,0.416l-0.48,0.48l-0.416,0.576l-0.288,0.64l-0.192,0.704l-0.064,0.672l0,59.973l0.064,0.705l0.192,0.672l0.288,0.64l0.416,0.576l0.48,0.512l0.576,0.384l0.64,0.32l0.672,0.16l0.704,0.064l12.096,-0l0.704,-0.064l0.672,-0.16l0.64,-0.32l0.576,-0.384l0.512,-0.512l0.384,-0.576l0.32,-0.64l0.16,-0.672l0.064,-0.705Zm90.718,-116.906l-25.215,17.634l25.215,17.633l25.184,-17.633l-25.184,-17.634Z" style="fill:#fff;"/><path d="M313.102,344.902l0.36,-1.76l0.2,-1.721l-0,-1.8l-0.12,-1.76l-0.28,-1.721l-0.48,-1.721l-0.6,-1.64l-0.761,-1.601l-0.92,-1.52l-1.04,-1.4l-1.199,-1.321l-1.28,-1.2l-1.4,-1.08l-1.481,-0.961l-1.6,-0.8l-1.639,-0.64l-1.68,-0.481l-1.761,-0.32l-1.76,-0.16l-1.759,0l-1.76,0.16l-1.721,0.32l-1.72,0.481l-1.639,0.64l-1.56,0.8l-1.521,0.961l-1.4,1.08l-1.28,1.2l-1.2,1.321l-1.039,1.4l-0.921,1.52l-0.76,1.601l-0.6,1.64l-0.44,1.721l-0.32,1.721l-0.12,1.76l0.04,1.8l0.2,1.721l0.36,1.76l-114.601,0l0.36,-1.76l0.2,-1.721l0.04,-1.8l-0.12,-1.76l-0.32,-1.721l-0.44,-1.721l-0.64,-1.64l-0.759,-1.601l-0.92,-1.52l-1.04,-1.4l-1.161,-1.321l-1.32,-1.2l-1.4,-1.08l-1.479,-0.961l-1.561,-0.8l-1.68,-0.64l-1.68,-0.481l-1.719,-0.32l-1.761,-0.16l-1.8,0l-1.72,0.16l-1.759,0.32l-1.681,0.481l-1.64,0.64l-1.6,0.8l-1.48,0.961l-1.4,1.08l-1.32,1.2l-1.16,1.321l-1.04,1.4l-0.92,1.52l-0.76,1.601l-0.639,1.64l-0.441,1.721l-0.28,1.721l-0.16,1.76l0.04,1.8l0.2,1.721l0.36,1.76l-41.24,0l-1.08,-0.08l-1.12,-0.24l-1.04,-0.36l-1,-0.48l-0.92,-0.6l-0.84,-0.76l-0.72,-0.801l-0.64,-0.96l-0.48,-1l-0.36,-1.04l-0.2,-1.081l-0.08,-1.12l0,-30.248l0.08,-0.721l0.2,-0.72l0.36,-0.64l0.44,-0.601l0.6,-0.44l0.64,-0.36l0.72,-0.2l0.72,-0.08l1.72,-40.852l0.08,-0.799l0.24,-0.761l0.36,-0.72l0.48,-0.64l0.6,-0.561l0.64,-0.44l0.72,-0.32l0.8,-0.2l0.8,-0.08l273.242,0l1.759,0.08l1.721,0.24l1.72,0.4l1.639,0.56l1.601,0.721l1.519,0.84l1.441,0.961l1.359,1.119l1.241,1.241l1.08,1.361l1,1.44l0.839,1.52l0.72,1.601l0.561,1.64l0.4,1.721l0.24,1.72l0.08,1.72l0,56.737l-64.84,12.283Zm-183.962,-0.36l-0.36,-1.44l-0.24,-1.441l-0.04,-1.48l0.04,-1.48l0.24,-1.481l0.36,-1.44l0.48,-1.401l0.64,-1.36l0.76,-1.241l0.88,-1.2l1,-1.12l1.12,-1l1.2,-0.881l1.24,-0.76l1.36,-0.64l1.401,-0.48l1.439,-0.36l1.48,-0.24l1.48,-0.04l1.481,0.04l1.44,0.24l1.439,0.36l1.4,0.48l1.36,0.64l1.281,0.76l1.16,0.881l1.119,1l1,1.12l0.88,1.2l0.76,1.241l0.64,1.36l0.48,1.401l0.361,1.44l0.24,1.481l0.08,1.48l-0.08,1.48l-0.24,1.441l-0.361,1.44l-0.48,1.401l-0.64,1.36l-0.76,1.28l-0.88,1.161l-1,1.12l-1.119,1.001l-1.16,0.88l-1.281,0.76l-1.36,0.64l-1.4,0.48l-1.439,0.36l-1.44,0.24l-1.481,0.04l-1.48,-0.04l-1.48,-0.24l-1.439,-0.36l-1.401,-0.48l-1.36,-0.64l-1.24,-0.76l-1.2,-0.88l-1.12,-1.001l-1,-1.12l-0.88,-1.161l-0.76,-1.28l-0.64,-1.36l-0.48,-1.401Zm151.162,0l-0.36,-1.44l-0.2,-1.441l-0.08,-1.48l0.08,-1.48l0.2,-1.481l0.36,-1.44l0.519,-1.401l0.64,-1.36l0.76,-1.241l0.88,-1.2l1,-1.12l1.08,-1l1.201,-0.881l1.279,-0.76l1.32,-0.64l1.4,-0.48l1.44,-0.36l1.481,-0.24l1.479,-0.04l1.48,0.04l1.48,0.24l1.441,0.36l1.4,0.48l1.319,0.64l1.28,0.76l1.2,0.881l1.081,1l1,1.12l0.88,1.2l0.76,1.241l0.639,1.36l0.52,1.401l0.36,1.44l0.2,1.481l0.08,1.48l-0.08,1.48l-0.2,1.441l-0.36,1.44l-0.52,1.401l-0.639,1.36l-0.76,1.28l-0.88,1.161l-1,1.12l-1.081,1.001l-1.2,0.88l-1.28,0.76l-1.319,0.64l-1.4,0.48l-1.441,0.36l-1.48,0.24l-1.48,0.04l-1.479,-0.04l-1.481,-0.24l-1.44,-0.36l-1.4,-0.48l-1.32,-0.64l-1.279,-0.76l-1.201,-0.88l-1.08,-1.001l-1,-1.12l-0.88,-1.161l-0.76,-1.28l-0.64,-1.36l-0.519,-1.401Zm-143.042,-0.28l0.64,0.84l0.761,0.761l0.84,0.68l0.959,0.48l1,0.4l1.08,0.24l1.08,0.08l1.04,-0.08l1.081,-0.24l1,-0.4l0.959,-0.48l0.84,-0.68l0.76,-0.761l0.68,-0.84l0.48,-0.96l0.4,-1l0.24,-1.081l0.08,-1.04l-0.08,-1.08l-0.24,-1.08l-0.4,-1.001l-0.48,-0.96l-0.68,-0.841l-0.76,-0.76l-0.84,-0.64l-0.959,-0.52l-1,-0.4l-1.081,-0.2l-1.04,-0.08l-1.08,0.08l-1.08,0.2l-1,0.4l-0.959,0.52l-0.84,0.64l-0.761,0.76l-0.64,0.841l-0.52,0.96l-0.4,1.001l-0.2,1.08l-0.08,1.08l0.08,1.04l0.2,1.081l0.4,1l0.52,0.96Zm151.161,0l0.64,0.84l0.76,0.761l0.88,0.68l0.96,0.48l1.001,0.4l1.04,0.24l1.079,0.08l1.08,-0.08l1.04,-0.24l1.04,-0.4l0.921,-0.48l0.88,-0.68l0.76,-0.761l0.64,-0.84l0.519,-0.96l0.36,-1l0.24,-1.081l0.08,-1.04l-0.08,-1.08l-0.24,-1.08l-0.36,-1.001l-0.519,-0.96l-0.64,-0.841l-0.76,-0.76l-0.88,-0.64l-0.921,-0.52l-1.04,-0.4l-1.04,-0.2l-1.08,-0.08l-1.079,0.08l-1.04,0.2l-1.001,0.4l-0.96,0.52l-0.88,0.64l-0.76,0.76l-0.64,0.841l-0.52,0.96l-0.36,1.001l-0.239,1.08l-0.081,1.08l0.081,1.04l0.239,1.081l0.36,1l0.52,0.96Zm-112.681,-45.693l0.72,-0.08l0.72,-0.2l0.641,-0.36l0.6,-0.44l0.44,-0.6l0.36,-0.64l0.2,-0.721l0.08,-0.72l-0,-18.926l-0.08,-0.72l-0.2,-0.719l-0.36,-0.641l-0.44,-0.56l-0.6,-0.48l-0.641,-0.36l-0.72,-0.201l-0.72,-0.08l-45.36,0l-0.76,0.08l-0.68,0.201l-0.68,0.36l-0.56,0.48l-0.48,0.56l-0.32,0.641l-0.24,0.719l-0.08,0.72l-0,18.926l0.08,0.72l0.24,0.721l0.32,0.64l0.48,0.6l0.56,0.44l0.68,0.36l0.68,0.2l0.76,0.08l45.36,0Zm17.001,-26.448l-0.76,0.08l-0.68,0.201l-0.681,0.36l-0.56,0.48l-0.48,0.56l-0.32,0.641l-0.24,0.719l-0.08,0.72l0,18.926l0.08,0.72l0.24,0.721l0.32,0.64l0.48,0.6l0.56,0.44l0.681,0.36l0.68,0.2l0.76,0.08l45.36,0l0.72,-0.08l0.72,-0.2l0.64,-0.36l0.6,-0.44l0.44,-0.6l0.36,-0.64l0.2,-0.721l0.08,-0.72l0,-18.926l-0.08,-0.72l-0.2,-0.719l-0.36,-0.641l-0.44,-0.56l-0.6,-0.48l-0.64,-0.36l-0.72,-0.201l-0.72,-0.08l-45.36,0Zm170.08,26.448l0.721,-0.08l0.72,-0.2l0.639,-0.36l0.601,-0.44l0.439,-0.6l0.361,-0.64l0.24,-0.721l0.039,-0.72l0,-11.363l-0.079,-1.361l-0.24,-1.32l-0.401,-1.32l-0.559,-1.241l-0.72,-1.2l-0.841,-1.081l-0.96,-0.96l-1.08,-0.84l-1.159,-0.72l-1.28,-0.56l-1.28,-0.4l-1.361,-0.241l-1.359,-0.08l-37.801,0l-0.72,0.08l-0.72,0.201l-0.639,0.36l-0.6,0.48l-0.48,0.56l-0.32,0.641l-0.24,0.719l-0.04,0.72l-0,18.926l0.04,0.72l0.24,0.721l0.32,0.64l0.48,0.6l0.6,0.44l0.639,0.36l0.72,0.2l0.72,0.08l45.36,0Zm-268.361,33.089l0.08,0.721l0.2,0.72l0.36,0.64l0.48,0.6l0.56,0.48l0.68,0.32l0.68,0.24l0.76,0.04l11.32,0l0.76,-0.04l0.68,-0.24l0.68,-0.32l0.56,-0.48l0.48,-0.6l0.32,-0.64l0.24,-0.72l0.08,-0.721l-0,-55.776l-0.08,-0.72l-0.24,-0.719l-0.32,-0.641l-0.48,-0.56l-0.56,-0.48l-0.68,-0.36l-0.68,-0.201l-0.76,-0.08l-11.32,0l-0.76,0.08l-0.68,0.201l-0.68,0.36l-0.56,0.48l-0.48,0.56l-0.36,0.641l-0.2,0.719l-0.08,0.72l-0,55.776Zm160.641,-59.537l-0.72,0.08l-0.72,0.201l-0.68,0.36l-0.56,0.48l-0.48,0.56l-0.32,0.641l-0.24,0.719l-0.08,0.72l0,18.926l0.08,0.72l0.24,0.721l0.32,0.64l0.48,0.6l0.56,0.44l0.68,0.36l0.72,0.2l0.72,0.08l45.361,0l0.72,-0.08l0.719,-0.2l0.64,-0.36l0.6,-0.44l0.44,-0.6l0.36,-0.64l0.2,-0.721l0.08,-0.72l0,-18.926l-0.08,-0.72l-0.2,-0.719l-0.36,-0.641l-0.44,-0.56l-0.6,-0.48l-0.64,-0.36l-0.719,-0.201l-0.72,-0.08l-45.361,0Z" style="fill:#fff;"/></g></svg>