<?xml version="1.0" encoding="UTF-8" standalone="no"?><!DOCTYPE svg PUBLIC "-//W3C//DTD SVG 1.1//EN" "http://www.w3.org/Graphics/SVG/1.1/DTD/svg11.dtd"><svg width="100%" height="100%" viewBox="0 0 410 272" version="1.1" xmlns="http://www.w3.org/2000/svg" xmlns:xlink="http://www.w3.org/1999/xlink" xml:space="preserve" xmlns:serif="http://www.serif.com/" style="fill-rule:evenodd;clip-rule:evenodd;stroke-linejoin:round;stroke-miterlimit:2;"><g transform="matrix(64.5901,0,0,64.5901,299.528,158.629)"></g><text x="111.025px" y="158.629px" style="font-family:'ArialMT', 'Arial', sans-serif;font-size:64.59px;">sw=23</text><clipPath id="_clip1"><rect x="0" y="0" width="409.606" height="271.654"/></clipPath><g clip-path="url(#_clip1)"><rect id="Except-trams" serif:id="Except trams" x="0" y="0" width="409.606" height="271.654" style="fill:none;"/><clipPath id="_clip2"><rect x="0" y="0" width="409.606" height="271.654"/></clipPath><g clip-path="url(#_clip2)"><path d="M409.606,35.433c0,-19.556 -15.877,-35.433 -35.433,-35.433l-338.74,0c-19.556,0 -35.433,15.877 -35.433,35.433l0,200.787c0,19.557 15.877,35.434 35.433,35.434l338.74,-0c19.556,-0 35.433,-15.877 35.433,-35.434l0,-200.787Z" style="fill:#1a1a1a;"/><path d="M391.89,35.433c-0,-9.778 -7.939,-17.716 -17.717,-17.716l-338.74,-0c-9.778,-0 -17.716,7.938 -17.716,17.716l-0,200.787c-0,9.778 7.938,17.717 17.716,17.717l338.74,0c9.778,0 17.717,-7.939 17.717,-17.717l-0,-200.787Z" style="fill:#fff;"/><rect id="trams" x="74.173" y="141.732" width="261.26" height="94.488" style="fill:none;"/><clipPath id="_clip3"><rect x="74.173" y="141.732" width="261.26" height="94.488"/></clipPath><g clip-path="url(#_clip3)"><g><g><rect id="path1698" x="74.173" y="141.732" width="39.685" height="94.488" style="fill:#fff;"/><path d="M110.633,210.252c-1.371,0.603 -3.043,1.111 -5.018,1.522c-1.974,0.411 -4.168,0.617 -6.581,0.617c-4.388,-0 -7.843,-1.028 -10.366,-3.085c-2.522,-2.057 -3.784,-5.388 -3.784,-9.995l0,-24.186l-7.486,-0l0,-10.942l7.486,0l0,-12.093l12.916,-5.841l-0,17.934l11.929,0l-0,10.942l-11.929,-0l-0,20.155c-0,2.248 0.343,3.743 1.028,4.483c0.686,0.741 1.824,1.111 3.414,1.111c2.03,-0 4.141,-0.439 6.335,-1.317l2.056,10.695Z" style="fill-rule:nonzero;"/></g><g><rect id="path16981" serif:id="path1698" x="154.016" y="141.732" width="52.441" height="94.488" style="fill:#fff;"/><path d="M201.718,203.414l-5.215,9.184c-1.816,-0.103 -3.463,-0.557 -4.942,-1.362c-1.479,-0.804 -2.685,-1.855 -3.619,-3.152c-1.453,1.349 -3.153,2.361 -5.098,3.036c-1.946,0.674 -4.32,1.011 -7.122,1.011c-2.231,0 -4.372,-0.285 -6.421,-0.856c-2.05,-0.57 -3.853,-1.44 -5.41,-2.607c-1.556,-1.168 -2.801,-2.607 -3.735,-4.32c-0.934,-1.712 -1.401,-3.736 -1.401,-6.071c-0,-2.283 0.337,-4.229 1.011,-5.837c0.675,-1.609 1.531,-2.971 2.569,-4.086c1.038,-1.116 2.218,-2.011 3.541,-2.685c1.323,-0.675 2.634,-1.194 3.931,-1.557c1.297,-0.363 2.516,-0.623 3.658,-0.778c1.141,-0.156 2.049,-0.26 2.724,-0.312c1.09,-0.104 2.478,-0.22 4.164,-0.35c1.686,-0.13 3.23,-0.246 4.631,-0.35l-0,-0.623c-0,-1.92 -0.441,-3.308 -1.323,-4.164c-0.882,-0.856 -2.413,-1.284 -4.592,-1.284c-2.283,-0 -4.463,0.272 -6.538,0.817c-2.076,0.545 -4.359,1.544 -6.849,2.997l-4.592,-9.729c3.165,-1.765 6.265,-3.036 9.3,-3.814c3.036,-0.779 6.188,-1.168 9.457,-1.168c5.656,0 9.963,1.401 12.92,4.203c2.958,2.802 4.437,7.005 4.437,12.609l-0,14.555c-0,1.971 0.337,3.463 1.011,4.475c0.675,1.012 1.842,1.751 3.503,2.218Zm-16.812,-5.837l0,-5.526c-0.934,0.052 -1.92,0.104 -2.957,0.155c-1.038,0.052 -1.92,0.13 -2.647,0.234c-0.882,0.104 -1.803,0.207 -2.763,0.311c-0.96,0.104 -1.829,0.325 -2.607,0.662c-0.779,0.337 -1.427,0.817 -1.946,1.44c-0.519,0.622 -0.778,1.504 -0.778,2.646c-0,1.505 0.648,2.646 1.945,3.425c1.298,0.778 2.777,1.167 4.437,1.167c2.646,0 4.527,-0.441 5.643,-1.323c1.115,-0.882 1.673,-1.946 1.673,-3.191Z" style="fill-rule:nonzero;"/></g><g><rect id="path16982" serif:id="path1698" x="288.189" y="141.732" width="47.244" height="94.488" style="fill:#fff;"/><path d="M331.313,198.295c-0,2.092 -0.406,4.015 -1.216,5.768c-0.811,1.753 -2.028,3.27 -3.65,4.552c-1.622,1.281 -3.623,2.275 -6.003,2.982c-2.381,0.706 -5.141,1.059 -8.28,1.059c-3.976,0 -7.586,-0.588 -10.83,-1.766c-3.244,-1.177 -6.252,-2.916 -9.025,-5.218l7.063,-8.162c2.198,1.831 4.447,3.047 6.749,3.649c2.302,0.602 4.29,0.903 5.965,0.903c2.354,-0 3.976,-0.34 4.865,-1.021c0.89,-0.68 1.335,-1.517 1.335,-2.511c-0,-0.575 -0.406,-1.19 -1.217,-1.844c-0.811,-0.654 -2.158,-1.19 -4.042,-1.609l-7.769,-1.883c-1.465,-0.314 -2.917,-0.811 -4.355,-1.492c-1.439,-0.68 -2.734,-1.543 -3.885,-2.589c-1.151,-1.047 -2.08,-2.302 -2.786,-3.767c-0.706,-1.465 -1.06,-3.166 -1.06,-5.101c0,-2.145 0.458,-4.121 1.374,-5.926c0.915,-1.805 2.21,-3.374 3.884,-4.708c1.675,-1.334 3.65,-2.368 5.926,-3.1c2.275,-0.733 4.8,-1.099 7.573,-1.099c4.081,0 7.625,0.55 10.634,1.648c3.008,1.099 5.637,2.616 7.887,4.552l-7.063,8.162c-1.675,-1.308 -3.388,-2.276 -5.141,-2.904c-1.752,-0.628 -3.649,-0.942 -5.689,-0.942c-2.198,0 -3.82,0.406 -4.866,1.217c-1.046,0.811 -1.57,1.687 -1.57,2.629c0,0.157 0.026,0.366 0.079,0.628c0.052,0.261 0.222,0.536 0.51,0.824c0.288,0.287 0.693,0.575 1.216,0.863c0.524,0.288 1.256,0.536 2.198,0.745l8.162,1.962c1.621,0.419 3.204,0.942 4.747,1.57c1.544,0.628 2.93,1.465 4.16,2.511c1.229,1.047 2.223,2.328 2.982,3.846c0.759,1.517 1.138,3.374 1.138,5.572Z" style="fill-rule:nonzero;"/></g><g><rect id="path16983" serif:id="path1698" x="113.858" y="141.732" width="40.157" height="94.488" style="fill:#fff;"/><path d="M147.936,177.154l-1.911,-0.166c-1.772,-0.166 -3.434,-0.069 -4.985,0.291c-1.551,0.36 -2.908,0.983 -4.071,1.869c-1.163,0.886 -2.077,2.035 -2.741,3.448c-0.665,1.412 -0.997,3.087 -0.997,5.026l-0,24.923l-13.293,0l0,-47.188l13.293,-0l-0,4.901c1.606,-2.27 3.6,-3.932 5.981,-4.984c2.382,-1.053 5.29,-1.385 8.724,-0.997l-0,12.877Z" style="fill-rule:nonzero;"/></g><g><rect id="path16984" serif:id="path1698" x="206.457" y="141.732" width="81.732" height="94.488" style="fill:#fff;"/><path d="M280.651,212.598l-13.181,0l0,-29.699c0,-2.336 -0.539,-4.074 -1.617,-5.214c-1.078,-1.14 -2.501,-1.71 -4.27,-1.71c-0.829,-0 -1.699,0.18 -2.611,0.542c-0.912,0.361 -1.728,0.89 -2.446,1.585c-0.719,0.695 -1.313,1.585 -1.783,2.67c-0.47,1.084 -0.704,2.322 -0.704,3.712l-0,28.114l-13.265,0l-0.083,-29.782c-0,-2.392 -0.515,-4.144 -1.544,-5.256c-1.029,-1.113 -2.35,-1.669 -3.963,-1.669c-1.056,0 -2.057,0.167 -3.003,0.501c-0.945,0.333 -1.794,0.848 -2.544,1.543c-0.751,0.695 -1.349,1.585 -1.794,2.67c-0.445,1.084 -0.667,2.405 -0.667,3.962l-0,28.031l-13.182,0l0,-47.385l13.182,-0l-0,2.92c1.39,-1.335 2.975,-2.364 4.755,-3.087c1.78,-0.723 3.532,-1.085 5.256,-1.085c2.614,0 5.019,0.515 7.216,1.544c2.197,1.029 3.935,2.572 5.214,4.63c3.059,-4.171 7.703,-6.257 13.932,-6.257c5.395,-0 9.594,1.529 12.597,4.588c3.004,3.059 4.505,7.37 4.505,12.931l0,31.201Z" style="fill-rule:nonzero;"/></g></g></g><rect id="Except" x="47.244" y="47.244" width="315.118" height="94.488" style="fill:none;"/><clipPath id="_clip4"><rect x="47.244" y="47.244" width="315.118" height="94.488"/></clipPath><g clip-path="url(#_clip4)"><g><g><rect id="path16985" serif:id="path1698" x="322.677" y="47.244" width="39.685" height="94.488" style="fill:#fff;"/><path d="M359.137,115.764c-1.371,0.603 -3.043,1.11 -5.018,1.522c-1.974,0.411 -4.168,0.617 -6.581,0.617c-4.388,-0 -7.843,-1.029 -10.366,-3.085c-2.522,-2.057 -3.784,-5.389 -3.784,-9.996l0,-24.186l-7.486,0l-0,-10.941l7.486,-0l0,-12.093l12.916,-5.841l-0,17.934l11.928,-0l0,10.941l-11.928,0l-0,20.155c-0,2.249 0.343,3.744 1.028,4.484c0.686,0.74 1.824,1.111 3.414,1.111c2.029,-0 4.141,-0.439 6.335,-1.317l2.056,10.695Z" style="fill-rule:nonzero;"/></g><g><g><rect id="path16986" serif:id="path1698" x="265.984" y="47.244" width="56.693" height="94.488" style="fill:#fff;"/><path d="M316.992,94.523c0,3.258 -0.482,6.379 -1.446,9.361c-0.964,2.983 -2.369,5.62 -4.215,7.912c-1.845,2.292 -4.132,4.114 -6.859,5.468c-2.728,1.353 -5.827,2.029 -9.298,2.029c-1.929,0 -3.788,-0.303 -5.578,-0.911c-1.791,-0.607 -3.403,-1.464 -4.835,-2.568l-0,17.646l-13.092,-0l0,-62.631l13.092,-0l-0.024,2.485c1.268,-1.16 2.812,-2.085 4.632,-2.775c1.82,-0.691 3.777,-1.036 5.872,-1.036c3.419,0 6.479,0.704 9.18,2.113c2.702,1.408 4.976,3.272 6.823,5.592c1.847,2.32 3.267,4.984 4.259,7.994c0.993,3.01 1.489,6.117 1.489,9.321Zm-13.257,-0c0,-1.602 -0.249,-3.176 -0.746,-4.723c-0.497,-1.546 -1.201,-2.913 -2.113,-4.1c-0.911,-1.188 -2.03,-2.154 -3.355,-2.9c-1.326,-0.746 -2.817,-1.118 -4.475,-1.118c-0.828,-0 -1.74,0.138 -2.734,0.414c-0.994,0.276 -1.906,0.69 -2.734,1.242c-0.829,0.553 -1.519,1.243 -2.072,2.072c-0.552,0.828 -0.828,1.795 -0.828,2.899l-0,12.178c-0,1.05 0.248,2.003 0.746,2.859c0.497,0.856 1.132,1.574 1.905,2.154c0.774,0.579 1.644,1.035 2.61,1.367c0.967,0.331 1.92,0.497 2.859,0.497c1.712,-0 3.259,-0.346 4.64,-1.036c1.381,-0.69 2.527,-1.615 3.438,-2.775c0.912,-1.16 1.616,-2.513 2.113,-4.06c0.497,-1.546 0.746,-3.203 0.746,-4.97Z" style="fill-rule:nonzero;"/></g></g><g><rect id="path16987" serif:id="path1698" x="111.496" y="47.244" width="51.969" height="94.488" style="fill:#fff;"/><path d="M162.283,118.11l-15.065,0l-9.738,-14.556l-9.738,14.556l-15.065,0l17.729,-24.786l-15.898,-22.458l14.982,0l7.99,12.061l7.907,-12.061l15.065,0l-15.814,22.291l17.645,24.953Z" style="fill-rule:nonzero;"/></g><g><rect id="path16988" serif:id="path1698" x="214.016" y="47.244" width="51.969" height="94.488" style="fill:#fff;"/><path d="M261.659,96.457l-0.158,1.968l-30.472,0c0.052,1.26 0.367,2.428 0.945,3.504c0.577,1.076 1.338,2.021 2.283,2.835c0.945,0.813 2.034,1.443 3.268,1.89c1.234,0.446 2.533,0.669 3.898,0.669c3.937,-0 7.322,-1.313 10.157,-3.937l6.614,8.11c-2.257,2.152 -4.737,3.793 -7.441,4.921c-2.703,1.129 -5.787,1.693 -9.252,1.693c-3.727,0 -7.034,-0.617 -9.921,-1.85c-2.887,-1.234 -5.315,-2.94 -7.283,-5.118c-1.969,-2.179 -3.465,-4.712 -4.489,-7.599c-1.023,-2.887 -1.535,-5.984 -1.535,-9.291c0,-3.202 0.486,-6.234 1.457,-9.095c0.971,-2.86 2.375,-5.341 4.212,-7.44c1.838,-2.1 4.121,-3.767 6.851,-5c2.729,-1.234 5.826,-1.851 9.291,-1.851c3.832,0 7.165,0.683 10,2.047c2.835,1.365 5.144,3.202 6.929,5.512c1.785,2.31 3.058,5.026 3.819,8.15c0.761,3.123 1.037,6.417 0.827,9.882Zm-12.362,-6.851c-0,-2.414 -0.88,-4.396 -2.638,-5.945c-1.759,-1.548 -3.924,-2.322 -6.496,-2.322c-2.467,-0 -4.515,0.826 -6.142,2.48c-1.627,1.653 -2.572,3.583 -2.835,5.787l18.111,0Z" style="fill-rule:nonzero;"/></g><g><rect id="path16989" serif:id="path1698" x="163.465" y="47.244" width="50.551" height="94.488" style="fill:#fff;"/><path d="M209.615,83.815l-10.28,4.944c-1.936,-4.708 -4.997,-7.063 -9.182,-7.063c-1.622,0 -3.035,0.366 -4.238,1.099c-1.203,0.732 -2.211,1.7 -3.021,2.904c-0.811,1.203 -1.426,2.589 -1.845,4.159c-0.418,1.57 -0.628,3.165 -0.628,4.787c0,1.674 0.223,3.27 0.667,4.787c0.445,1.518 1.099,2.852 1.962,4.003c0.864,1.151 1.91,2.079 3.14,2.786c1.229,0.706 2.629,1.059 4.198,1.059c1.988,0 3.728,-0.549 5.219,-1.648c1.491,-1.099 2.786,-2.904 3.885,-5.415l10.123,5.023c-1.831,3.871 -4.394,6.984 -7.69,9.339c-3.297,2.354 -7.142,3.531 -11.537,3.531c-3.714,0 -6.98,-0.615 -9.797,-1.844c-2.816,-1.23 -5.161,-2.917 -7.033,-5.062c-1.872,-2.145 -3.289,-4.643 -4.25,-7.495c-0.962,-2.851 -1.443,-5.925 -1.443,-9.221c-0,-2.93 0.442,-5.807 1.325,-8.632c0.884,-2.826 2.236,-5.35 4.056,-7.574c1.82,-2.223 4.112,-4.015 6.876,-5.375c2.763,-1.361 6.055,-2.041 9.874,-2.041c4.552,0 8.554,1.19 12.007,3.571c3.453,2.38 5.991,5.506 7.612,9.378Z" style="fill-rule:nonzero;"/></g><g><rect x="47.244" y="47.244" width="64.252" height="94.488" style="fill:#fff;"/><path d="M102.265,118.11l-45.79,0l-0,-66.141l43.246,-0l0,13.058l-29.679,0l0,13.313l26.881,0l0,12.211l-26.881,0l0,14.5l32.223,0l0,13.059Z" style="fill-rule:nonzero;"/></g></g></g></g></g></svg>