<?xml version="1.0" encoding="UTF-8" standalone="no"?><!DOCTYPE svg PUBLIC "-//W3C//DTD SVG 1.1//EN" "http://www.w3.org/Graphics/SVG/1.1/DTD/svg11.dtd"><svg width="100%" height="100%" viewBox="0 0 454 454" version="1.1" xmlns="http://www.w3.org/2000/svg" xmlns:xlink="http://www.w3.org/1999/xlink" xml:space="preserve" xmlns:serif="http://www.serif.com/" style="fill-rule:evenodd;clip-rule:evenodd;stroke-linejoin:round;stroke-miterlimit:2;"><g transform="matrix(50,0,0,50,321.022,244.423)"></g><text x="133.4px" y="244.423px" style="font-family:'ArialMT', 'Arial', sans-serif;font-size:50px;">sw=38.4</text><g id="_955-Pedal-Cycles-Only" serif:id="955 Pedal Cycles Only"><circle cx="226.772" cy="226.772" r="226.772" style="fill:#fff;"/><path d="M226.772,0c125.158,0 226.771,101.613 226.771,226.772c0,125.158 -101.613,226.771 -226.771,226.771c-125.159,0 -226.772,-101.613 -226.772,-226.771c0,-125.159 101.613,-226.772 226.772,-226.772Zm-0,1.181c-124.507,0 -225.591,101.084 -225.591,225.591c0,124.506 101.084,225.59 225.591,225.59c124.506,0 225.59,-101.084 225.59,-225.59c0,-124.507 -101.084,-225.591 -225.59,-225.591Z" style="fill:#0079c1;"/><circle cx="226.772" cy="226.772" r="217.701" style="fill:#0079c1;"/><path d="M46.893,266.271l0.224,-3.315l0.404,-3.271l0.582,-3.315l0.762,-3.226l0.941,-3.181l1.075,-3.137l1.254,-3.091l1.389,-3.047l1.568,-2.912l1.703,-2.868l1.882,-2.733l2.016,-2.643l2.15,-2.554l2.24,-2.464l2.42,-2.285l2.509,-2.195l2.598,-2.017l2.733,-1.926l2.823,-1.747l2.912,-1.613l3.002,-1.479l3.046,-1.254l3.137,-1.165l3.181,-0.941l3.225,-0.807l3.271,-0.627l3.315,-0.448l3.316,-0.314l3.315,-0.089l3.316,0.045l3.315,0.224l3.316,0.448l3.27,0.582l3.271,0.762l3.181,0.896l3.136,1.075l13.754,-51.3l0.18,-0.941l-0.045,-0.986l-0.179,-0.986l-0.359,-0.896l-0.537,-0.806l-0.672,-0.717l-0.807,-0.582l-1.344,-0.897l-1.299,-1.03l-1.165,-1.12l-1.031,-1.255l-0.94,-1.389l-0.762,-1.388l-0.672,-1.524l-0.493,-1.568l-0.358,-1.568l-0.18,-1.613l-0.044,-1.658l0.134,-1.613l0.269,-1.613l0.448,-1.568l0.582,-1.523l0.717,-1.479l0.851,-1.389l0.986,-1.299l1.12,-1.21l1.255,-1.075l1.299,-0.941l1.434,-0.851l1.478,-0.672l1.523,-0.538l1.568,-0.403l1.613,-0.224l1.658,-0.09l29.615,0l-0,15.861l-24.328,-0l-0.717,0.09l-0.717,0.268l-0.627,0.404l-0.493,0.537l-0.358,0.672l-0.224,0.717l-0.045,0.717l0.134,0.762l0.314,0.672l0.448,0.582l0.582,0.448l1.3,0.896l1.164,1.076l1.076,1.12l0.941,1.254l0.806,1.389l0.627,1.389l0.493,1.523l0.358,1.524l0.135,1.568l-0,1.568l-0.135,1.523l-0.313,1.569l-2.554,9.498l115.904,-0l5.781,-15.861l-24.463,-5.421l-0.896,-0.269l-0.806,-0.448l-0.717,-0.537l-0.627,-0.672l-0.493,-0.762l-0.359,-0.807l-0.224,-0.896l-0.044,-0.896l0.089,-0.896l0.269,-0.896l0.403,-0.806l0.538,-0.762l0.627,-0.627l0.762,-0.493l0.806,-0.403l0.896,-0.224l0.896,-0.09l54.749,-0l0.537,0.09l0.494,0.224l0.447,0.313l0.315,0.448l0.224,0.493l0.089,0.538l-0.089,0.537l-0.494,1.748l-0.716,1.702l-0.851,1.568l-0.986,1.524l-1.165,1.434l-1.254,1.299l-1.389,1.165l-1.524,1.03l-1.568,0.896l-1.658,0.717l-1.747,0.583l-1.748,0.403l-1.791,0.224l-4.884,13.441l25.045,43.415l3.091,-1.21l3.181,-1.075l3.181,-0.851l3.226,-0.717l3.271,-0.538l3.315,-0.358l3.316,-0.224l3.315,-0l3.316,0.134l3.315,0.359l3.271,0.492l3.27,0.672l3.181,0.807l3.181,1.03l3.092,1.165l3.046,1.344l3.002,1.479l2.867,1.613l2.778,1.792l2.733,1.927l2.598,2.105l2.465,2.196l2.374,2.33l2.24,2.419l2.106,2.599l1.971,2.643l1.838,2.778l1.657,2.867l1.524,2.957l1.389,3.002l1.209,3.092l1.075,3.136l0.852,3.226l0.716,3.226l0.538,3.27l0.403,3.316l0.179,3.315l0.045,3.316l-0.135,3.315l-0.313,3.316l-0.493,3.271l-0.671,3.225l-0.852,3.226l-0.986,3.181l-1.165,3.092l-1.299,3.047l-1.478,2.957l-1.658,2.912l-1.747,2.778l-1.927,2.733l-2.106,2.598l-2.195,2.465l-2.285,2.374l-2.464,2.24l-2.554,2.151l-2.688,1.971l-2.733,1.837l-2.868,1.658l-2.957,1.568l-3.001,1.344l-3.092,1.255l-3.136,1.03l-3.225,0.896l-3.227,0.717l-3.27,0.583l-3.315,0.358l-3.315,0.224l-3.316,0.045l-3.315,-0.134l-3.271,-0.314l-3.315,-0.493l-3.226,-0.627l-3.227,-0.851l-3.181,-0.986l-3.091,-1.165l-3.046,-1.299l-3.002,-1.479l-2.867,-1.613l-2.823,-1.792l-2.688,-1.927l-2.644,-2.016l-2.464,-2.195l-2.374,-2.33l-2.24,-2.464l-2.151,-2.554l-1.972,-2.643l-1.837,-2.778l-1.702,-2.823l-1.567,-2.957l-1.389,-3.002l-1.21,-3.091l-1.075,-3.137l-0.897,-3.181l-0.716,-3.27l-0.583,-3.271l-0.359,-3.271l-6.227,0l-0.582,2.196l-0.807,2.106l-0.94,2.061l-1.12,1.971l-1.3,1.882l-1.478,1.747l-1.568,1.613l-1.748,1.434l-1.837,1.344l5.466,11.694l11.111,-0l-0,8.468l-7.168,-0l-0.762,0.896l-0.896,0.806l-0.985,0.627l-1.076,0.448l-1.164,0.269l-1.21,0.135l-1.165,-0.135l-1.165,-0.269l-1.075,-0.448l-1.031,-0.627l-0.851,-0.806l-0.762,-0.896l-7.168,-0l-0,-8.468l7.168,-0l-3.987,-8.558l-2.151,0.538l-2.15,0.358l-2.195,0.224l-2.241,0l-2.195,-0.179l-2.195,-0.359l-2.106,-0.537l-2.106,-0.717l-2.016,-0.896l-1.971,-1.075l-1.837,-1.21l-1.747,-1.344l-1.613,-1.524l-1.479,-1.612l-1.344,-1.748l-1.21,-1.882l-1.03,-1.926l-0.851,-2.061l-0.717,-2.106l-0.493,-2.151l-0.358,-2.15l-0.135,-2.24l0,-2.196l0.224,-2.195l0.403,-2.151l0.583,-2.15l-73.566,-51.48l-2.061,7.662l2.688,2.016l2.554,2.106l2.419,2.285l2.33,2.374l2.195,2.509l2.016,2.599l1.927,2.733l1.792,2.822l1.613,2.913l1.433,2.957l1.344,3.091l1.121,3.092l0.985,3.181l0.807,3.226l0.627,3.27l0.493,3.316l0.313,3.315l0.09,3.316l-0.045,3.315l-0.224,3.316l-0.403,3.315l-0.583,3.271l-0.716,3.226l-0.941,3.226l-1.075,3.136l-1.21,3.091l-1.434,3.002l-1.523,2.957l-1.747,2.868l-1.837,2.733l-2.017,2.688l-2.105,2.554l-2.285,2.419l-2.375,2.33l-2.509,2.151l-2.643,2.061l-2.688,1.926l-2.823,1.748l-2.912,1.613l-3.002,1.478l-3.046,1.299l-3.137,1.12l-3.181,0.986l-3.225,0.807l-3.271,0.627l-3.315,0.493l-3.271,0.269l-3.36,0.134l-3.316,-0.045l-3.315,-0.224l-3.315,-0.403l-3.271,-0.583l-3.226,-0.761l-3.226,-0.896l-3.136,-1.076l-3.091,-1.254l-3.002,-1.434l-2.957,-1.523l-2.823,-1.748l-2.777,-1.836l-2.644,-2.017l-2.554,-2.15l-2.419,-2.24l-2.33,-2.42l-2.195,-2.509l-2.016,-2.598l-1.927,-2.734l-1.747,-2.822l-1.613,-2.912l-1.478,-3.002l-1.3,-3.047l-1.12,-3.136l-0.985,-3.181l-0.807,-3.226l-0.627,-3.271l-0.448,-3.271l-0.314,-3.315l-0.089,-3.36l0.044,-3.316Zm217.115,-18.19l1.747,1.478l1.658,1.613l1.479,1.792l1.299,1.882l1.165,1.972l0.985,2.061l0.807,2.15l0.582,2.24l6.227,0l0.359,-3.27l0.583,-3.226l0.716,-3.226l0.897,-3.181l1.03,-3.136l1.21,-3.047l1.389,-3.002l1.522,-2.912l1.658,-2.823l1.837,-2.778l1.927,-2.643l2.106,-2.554l2.24,-2.419l2.33,-2.285l2.463,-2.196l2.554,-2.061l-18.413,-31.9l-22.357,61.471Zm36.918,7.213l-0.763,2.644l-0.626,2.643l-0.449,2.688l31.542,0l-16.219,-28.092l-2.017,1.837l-1.881,1.927l-1.792,2.061l-1.658,2.195l-1.523,2.24l-1.389,2.375l-1.254,2.419l-1.075,2.509l-0.896,2.554Zm-69.938,13.8l0.09,1.658l0.224,1.657l0.403,1.613l0.583,1.568l0.717,1.479l0.851,1.434l0.985,1.344l1.121,1.209l1.209,1.121l1.344,0.985l1.434,0.852l1.478,0.716l1.569,0.583l1.612,0.403l1.658,0.224l1.658,0.09l1.658,-0.09l1.657,-0.224l1.613,-0.403l1.568,-0.583l1.479,-0.716l1.434,-0.852l1.344,-0.985l1.209,-1.121l1.12,-1.209l0.986,-1.344l0.851,-1.434l0.717,-1.479l0.583,-1.568l0.403,-1.613l0.224,-1.657l0.089,-1.658l-0.089,-1.658l-0.224,-1.658l-0.403,-1.613l-0.583,-1.568l-0.717,-1.478l-0.851,-1.434l-0.986,-1.344l-1.12,-1.21l-1.209,-1.12l-1.344,-0.986l-1.434,-0.851l-1.479,-0.717l-1.568,-0.582l-1.613,-0.403l-1.657,-0.224l-1.658,-0.09l-1.658,0.09l-1.658,0.224l-1.612,0.403l-1.569,0.582l-1.478,0.717l-1.434,0.851l-1.344,0.986l-1.209,1.12l-1.121,1.21l-0.985,1.344l-0.851,1.434l-0.717,1.478l-0.583,1.568l-0.403,1.613l-0.224,1.658l-0.09,1.658Zm114.606,5.824l-46.506,0l0.449,2.778l0.626,2.733l0.807,2.688l0.986,2.599l1.12,2.599l1.3,2.464l1.432,2.419l1.614,2.33l1.747,2.196l1.882,2.061l1.971,1.971l2.151,1.837l2.24,1.702l2.33,1.569l2.419,1.388l2.508,1.255l2.6,1.075l2.643,0.941l2.688,0.762l2.778,0.537l2.777,0.448l2.779,0.225l2.821,0.044l2.779,-0.134l2.777,-0.314l2.779,-0.448l2.733,-0.672l2.688,-0.806l2.643,-0.986l2.553,-1.165l2.464,-1.299l2.42,-1.479l2.285,-1.613l2.196,-1.747l2.06,-1.882l1.927,-2.016l1.837,-2.151l1.702,-2.24l1.524,-2.374l1.389,-2.42l1.209,-2.509l1.076,-2.598l0.896,-2.689l0.716,-2.688l0.583,-2.733l0.358,-2.778l0.224,-2.822l0.044,-2.823l-0.134,-2.778l-0.358,-2.778l-0.492,-2.778l-0.672,-2.733l-0.852,-2.643l-0.986,-2.643l-1.165,-2.554l-1.343,-2.464l-1.479,-2.375l-1.658,-2.285l-1.747,-2.195l-1.926,-2.061l-2.017,-1.927l-2.151,-1.792l-2.24,-1.658l-2.374,-1.523l-2.464,-1.344l-2.509,-1.21l-2.599,-1.075l-2.688,-0.852l-2.733,-0.717l-2.733,-0.537l-2.777,-0.359l-2.823,-0.224l-2.778,0l-2.822,0.18l-2.778,0.358l-2.734,0.493l-2.732,0.717l-2.689,0.851l22.491,38.935l0.449,0.896l0.224,0.985l0.09,1.031l-0.09,0.986l-0.224,0.985l-0.449,0.941l-0.582,0.807l-0.717,0.716l-0.851,0.583l-0.896,0.448l-0.985,0.269l-1.031,0.089Zm-277.15,-20.654l-0.852,2.643l-0.672,2.733l-0.537,2.733l-0.314,2.778l-0.179,2.778l0.045,2.778l0.179,2.822l0.358,2.733l0.538,2.734l0.717,2.733l0.851,2.643l1.075,2.599l1.165,2.509l1.389,2.419l1.479,2.375l1.657,2.24l1.792,2.15l1.927,2.017l2.061,1.881l2.15,1.793l2.241,1.612l2.374,1.479l2.464,1.344l2.509,1.165l2.644,1.03l2.643,0.852l2.688,0.672l2.778,0.493l2.733,0.358l2.822,0.179l2.778,-0.044l2.778,-0.18l2.778,-0.358l2.733,-0.538l2.688,-0.717l2.643,-0.851l2.599,-1.03l2.509,-1.21l2.464,-1.344l2.33,-1.524l2.285,-1.657l2.105,-1.792l2.061,-1.927l1.882,-2.016l1.792,-2.151l1.613,-2.285l1.479,-2.374l1.344,-2.42l1.165,-2.554l1.03,-2.598l0.851,-2.644l0.672,-2.733l0.538,-2.733l0.314,-2.778l0.179,-2.777l-0,-2.778l-0.224,-2.778l-0.359,-2.778l-0.537,-2.733l-0.672,-2.733l-0.896,-2.643l-1.031,-2.599l-1.21,-2.509l-1.344,-2.42l-1.478,-2.374l-1.658,-2.24l-1.792,-2.151l-1.926,-2.016l-3.585,13.307l-0.672,2.285l-0.896,2.24l-0.985,2.15l-1.165,2.106l-1.344,1.972l-1.434,1.881l-1.568,1.793l-1.703,1.702l-1.837,1.523l-1.926,1.434l-2.016,1.299l-2.061,1.121l-2.196,0.985l-2.24,0.807l-2.285,0.672l-2.329,0.537l-1.031,0.09l-1.03,-0.09l-0.986,-0.224l-0.941,-0.403l-0.851,-0.538l-0.762,-0.672l-0.672,-0.806l-0.537,-0.851l-0.359,-0.986l-0.224,-0.986l-0.045,-1.03l0.135,-0.986l0.269,-0.986l0.448,-0.94l0.582,-0.852l0.672,-0.761l0.851,-0.583l2.285,-1.613l2.24,-1.792l2.106,-1.926l1.927,-2.017l1.837,-2.195l1.657,-2.285l1.479,-2.419l1.344,-2.465l1.21,-2.598l0.985,-2.644l0.807,-2.733l2.912,-10.887l-2.599,-1.031l-2.643,-0.806l-2.733,-0.717l-2.733,-0.493l-2.778,-0.313l-2.778,-0.18l-2.777,0.045l-2.778,0.179l-2.778,0.359l-2.733,0.537l-2.733,0.717l-2.643,0.896l-2.554,1.031l-2.554,1.21l-2.419,1.344l-2.33,1.523l-2.285,1.658l-2.106,1.792l-2.06,1.927l-1.882,2.016l-1.748,2.15l-1.657,2.285l-1.479,2.375l-1.299,2.464l-1.21,2.509l-0.985,2.599Zm163.351,-6.138l1.702,-1.21l-5.466,-11.694l-11.111,0l0,-8.468l7.169,0l0.717,-0.896l0.896,-0.806l1.03,-0.628l1.075,-0.448l1.165,-0.313l1.165,-0.09l1.21,0.09l1.165,0.313l1.075,0.448l0.986,0.628l0.896,0.806l0.761,0.896l7.169,0l-0,8.468l-7.169,0l3.988,8.558l2.15,-0.583l2.24,-0.358l2.241,-0.179l2.24,-0l21.192,-58.245l-114.382,-0l-2.375,8.871l78.271,54.84Z" style="fill:#fff;"/></g></svg>