<?xml version="1.0" encoding="UTF-8" standalone="no"?><!DOCTYPE svg PUBLIC "-//W3C//DTD SVG 1.1//EN" "http://www.w3.org/Graphics/SVG/1.1/DTD/svg11.dtd"><svg width="100%" height="100%" viewBox="0 0 454 454" version="1.1" xmlns="http://www.w3.org/2000/svg" xmlns:xlink="http://www.w3.org/1999/xlink" xml:space="preserve" xmlns:serif="http://www.serif.com/" style="fill-rule:evenodd;clip-rule:evenodd;stroke-linejoin:round;stroke-miterlimit:2;"><g transform="matrix(50,0,0,50,321.022,262.709)"></g><text x="133.4px" y="262.709px" style="font-family:'ArialMT', 'Arial', sans-serif;font-size:50px;">sw=38.4</text><g id="_956.1-Route-for-Pedestrians--Cycles-and-Equestrians" serif:id="956.1 Route for Pedestrians, Cycles and Equestrians"><circle cx="226.772" cy="226.772" r="226.772" style="fill:#fff;"/><path d="M226.772,0c125.158,0 226.771,101.613 226.771,226.772c0,125.158 -101.613,226.771 -226.771,226.771c-125.159,0 -226.772,-101.613 -226.772,-226.771c-0,-125.159 101.613,-226.772 226.772,-226.772Zm-0,1.181c-124.507,0 -225.591,101.084 -225.591,225.591c0,124.506 101.084,225.59 225.591,225.59c124.506,0 225.59,-101.084 225.59,-225.59c0,-124.507 -101.084,-225.591 -225.59,-225.591Z" style="fill:#0079c1;"/><circle cx="226.772" cy="226.772" r="217.701" style="fill:#0079c1;"/><path d="M377.916,341.003l-0.094,-1.393l-0.169,-1.374l-0.245,-1.393l-0.32,-1.356l-0.395,-1.336l-0.452,-1.318l-0.527,-1.299l-0.584,-1.28l-0.658,-1.224l-0.716,-1.204l-0.79,-1.149l-0.848,-1.11l-0.903,-1.073l-0.941,-1.036l-1.017,-0.96l-1.054,-0.922l-1.092,-0.848l-1.148,-0.809l-1.186,-0.734l-1.224,-0.678l-1.261,-0.621l-1.28,-0.527l-1.318,-0.49l-1.336,-0.395l-1.356,-0.339l-1.374,-0.263l-1.393,-0.189l-1.393,-0.131l-1.393,-0.038l-1.393,0.019l-1.393,0.094l-1.393,0.188l-1.374,0.245l-1.375,0.32l-1.336,0.376l-1.318,0.452l-5.779,-21.555l-0.075,-0.395l0.018,-0.414l0.076,-0.414l0.15,-0.377l0.226,-0.339l0.283,-0.301l0.338,-0.245l0.565,-0.376l0.546,-0.433l0.49,-0.471l0.433,-0.527l0.395,-0.583l0.32,-0.584l0.282,-0.64l0.207,-0.659l0.151,-0.659l0.075,-0.677l0.019,-0.697l-0.056,-0.678l-0.113,-0.677l-0.189,-0.659l-0.244,-0.64l-0.302,-0.622l-0.357,-0.583l-0.414,-0.546l-0.471,-0.508l-0.527,-0.452l-0.546,-0.395l-0.602,-0.358l-0.622,-0.283l-0.64,-0.225l-0.659,-0.17l-0.677,-0.094l-0.697,-0.038l-12.443,0l0,6.664l10.222,0l0.301,0.038l0.301,0.113l0.264,0.169l0.207,0.226l0.151,0.283l0.094,0.301l0.019,0.301l-0.057,0.32l-0.132,0.283l-0.188,0.244l-0.245,0.189l-0.546,0.376l-0.489,0.452l-0.452,0.47l-0.395,0.528l-0.339,0.583l-0.264,0.584l-0.207,0.64l-0.15,0.64l-0.057,0.659l0,0.659l0.057,0.64l0.132,0.659l1.073,3.991l-48.7,-0l-2.428,-6.665l10.278,-2.277l0.376,-0.113l0.339,-0.189l0.301,-0.226l0.264,-0.282l0.207,-0.32l0.151,-0.339l0.094,-0.376l0.019,-0.377l-0.038,-0.376l-0.113,-0.377l-0.169,-0.339l-0.226,-0.32l-0.264,-0.263l-0.32,-0.207l-0.339,-0.17l-0.376,-0.094l-0.377,-0.038l-23.004,0l-0.225,0.038l-0.208,0.094l-0.187,0.132l-0.133,0.188l-0.094,0.207l-0.037,0.226l0.037,0.226l0.208,0.734l0.301,0.716l0.357,0.659l0.414,0.64l0.49,0.602l0.527,0.546l0.584,0.489l0.64,0.433l0.658,0.377l0.697,0.301l0.734,0.245l0.735,0.169l0.752,0.094l2.052,5.648l-10.523,18.242l-1.298,-0.509l-1.337,-0.452l-1.337,-0.357l-1.355,-0.301l-1.374,-0.226l-1.394,-0.151l-1.393,-0.094l-1.393,-0l-1.393,0.056l-1.393,0.151l-1.374,0.207l-1.374,0.282l-1.337,0.339l-1.336,0.433l-1.299,0.49l-1.28,0.564l-1.261,0.622l-1.205,0.677l-1.167,0.753l-1.149,0.81l-1.091,0.885l-1.036,0.922l-0.997,0.979l-0.941,1.017l-0.886,1.091l-0.828,1.111l-0.772,1.167l-0.696,1.205l-0.64,1.243l-0.584,1.261l-0.508,1.299l-0.452,1.318l-0.357,1.355l-0.301,1.355l-0.227,1.375l-0.169,1.393l-0.075,1.393l-0.019,1.393l0.057,1.393l0.131,1.393l0.208,1.374l0.282,1.356l0.358,1.355l0.414,1.337l0.489,1.299l0.546,1.28l0.621,1.242l0.697,1.224l0.734,1.167l0.809,1.148l0.885,1.092l0.923,1.035l0.96,0.998l1.035,0.941l1.073,0.904l1.129,0.828l1.148,0.772l1.206,0.697l1.242,0.659l1.261,0.564l1.299,0.527l1.318,0.433l1.355,0.377l1.356,0.301l1.374,0.245l1.393,0.15l1.393,0.095l1.393,0.018l1.393,-0.056l1.374,-0.132l1.393,-0.207l1.355,-0.263l1.356,-0.358l1.337,-0.414l1.298,-0.49l1.28,-0.546l1.262,-0.621l1.204,-0.678l1.187,-0.753l1.129,-0.809l1.111,-0.847l1.035,-0.923l0.997,-0.979l0.942,-1.035l0.904,-1.073l0.828,-1.111l0.772,-1.167l0.715,-1.186l0.659,-1.242l0.583,-1.262l0.508,-1.299l0.452,-1.317l0.377,-1.337l0.301,-1.374l0.245,-1.374l0.151,-1.375l2.616,0l0.245,0.923l0.338,0.885l0.396,0.866l0.47,0.828l0.546,0.791l0.621,0.734l0.659,0.677l0.735,0.603l0.771,0.565l-2.296,4.913l-4.669,-0l0,3.558l3.012,-0l0.32,0.376l0.377,0.339l0.414,0.264l0.452,0.188l0.489,0.113l0.508,0.057l0.49,-0.057l0.489,-0.113l0.452,-0.188l0.433,-0.264l0.358,-0.339l0.32,-0.376l3.012,-0l-0,-3.558l-3.012,-0l1.675,-3.596l0.904,0.226l0.903,0.151l0.923,0.094l0.941,0l0.922,-0.075l0.923,-0.151l0.884,-0.226l0.885,-0.301l0.847,-0.376l0.829,-0.452l0.771,-0.509l0.735,-0.564l0.677,-0.64l0.621,-0.678l0.565,-0.734l0.509,-0.791l0.432,-0.809l0.358,-0.866l0.301,-0.885l0.207,-0.904l0.151,-0.903l0.056,-0.942l0,-0.922l-0.094,-0.922l-0.169,-0.904l-0.245,-0.904l30.91,-21.63l0.866,3.219l-1.129,0.847l-1.073,0.885l-1.017,0.96l-0.979,0.998l-0.922,1.054l-0.847,1.092l-0.81,1.148l-0.753,1.186l-0.677,1.224l-0.603,1.242l-0.564,1.299l-0.471,1.299l-0.414,1.337l-0.339,1.355l-0.264,1.375l-0.207,1.393l-0.131,1.393l-0.038,1.393l0.019,1.393l0.094,1.393l0.169,1.393l0.245,1.374l0.301,1.356l0.396,1.355l0.451,1.318l0.509,1.299l0.602,1.261l0.64,1.242l0.734,1.205l0.772,1.149l0.847,1.129l0.885,1.073l0.96,1.017l0.998,0.979l1.054,0.903l1.111,0.866l1.129,0.81l1.186,0.734l1.224,0.678l1.261,0.621l1.28,0.546l1.318,0.47l1.336,0.415l1.356,0.338l1.374,0.264l1.393,0.207l1.374,0.113l1.412,0.056l1.393,-0.018l1.393,-0.095l1.393,-0.169l1.374,-0.245l1.356,-0.32l1.355,-0.376l1.318,-0.452l1.299,-0.527l1.261,-0.603l1.242,-0.64l1.186,-0.734l1.167,-0.772l1.111,-0.847l1.073,-0.903l1.017,-0.942l0.978,-1.016l0.923,-1.054l0.847,-1.092l0.809,-1.149l0.735,-1.186l0.677,-1.223l0.622,-1.261l0.545,-1.281l0.471,-1.317l0.414,-1.337l0.339,-1.355l0.264,-1.375l0.188,-1.374l0.132,-1.393l0.037,-1.412l-0.019,-1.393Zm-91.224,-7.643l-0.734,0.621l-0.697,0.678l-0.621,0.753l-0.546,0.791l-0.489,0.828l-0.415,0.866l-0.338,0.904l-0.245,0.941l-2.616,-0l-0.151,-1.374l-0.245,-1.356l-0.301,-1.355l-0.377,-1.337l-0.433,-1.318l-0.508,-1.28l-0.584,-1.261l-0.639,-1.224l-0.697,-1.186l-0.772,-1.167l-0.809,-1.11l-0.885,-1.073l-0.941,-1.017l-0.979,-0.96l-1.035,-0.922l-1.073,-0.866l7.736,-13.404l9.394,25.828Zm-15.512,3.031l0.321,1.111l0.263,1.11l0.188,1.13l-13.253,-0l6.815,-11.803l0.847,0.771l0.791,0.81l0.753,0.866l0.697,0.922l0.639,0.941l0.584,0.998l0.527,1.017l0.452,1.054l0.376,1.073Zm29.386,5.798l-0.038,0.697l-0.094,0.696l-0.17,0.678l-0.244,0.659l-0.301,0.621l-0.358,0.602l-0.414,0.565l-0.471,0.508l-0.508,0.471l-0.565,0.414l-0.602,0.358l-0.622,0.301l-0.658,0.245l-0.678,0.169l-0.697,0.094l-0.696,0.038l-0.697,-0.038l-0.696,-0.094l-0.678,-0.169l-0.659,-0.245l-0.621,-0.301l-0.602,-0.358l-0.565,-0.414l-0.508,-0.471l-0.471,-0.508l-0.414,-0.565l-0.358,-0.602l-0.301,-0.621l-0.245,-0.659l-0.169,-0.678l-0.094,-0.696l-0.038,-0.697l0.038,-0.696l0.094,-0.697l0.169,-0.678l0.245,-0.658l0.301,-0.622l0.358,-0.602l0.414,-0.565l0.471,-0.508l0.508,-0.471l0.565,-0.414l0.602,-0.358l0.621,-0.301l0.659,-0.245l0.678,-0.169l0.696,-0.094l0.697,-0.038l0.696,0.038l0.697,0.094l0.678,0.169l0.658,0.245l0.622,0.301l0.602,0.358l0.565,0.414l0.508,0.471l0.471,0.508l0.414,0.565l0.358,0.602l0.301,0.622l0.244,0.658l0.17,0.678l0.094,0.697l0.038,0.696Zm-48.154,2.447l19.54,0l-0.188,1.168l-0.263,1.148l-0.34,1.129l-0.414,1.092l-0.47,1.092l-0.546,1.036l-0.602,1.016l-0.678,0.979l-0.734,0.922l-0.791,0.866l-0.828,0.829l-0.904,0.772l-0.941,0.715l-0.979,0.659l-1.017,0.583l-1.054,0.527l-1.092,0.452l-1.11,0.396l-1.13,0.32l-1.167,0.226l-1.167,0.188l-1.167,0.094l-1.186,0.019l-1.167,-0.057l-1.167,-0.132l-1.168,-0.188l-1.148,-0.282l-1.129,-0.339l-1.111,-0.414l-1.073,-0.49l-1.035,-0.546l-1.017,-0.621l-0.96,-0.677l-0.922,-0.735l-0.866,-0.79l-0.81,-0.847l-0.772,-0.904l-0.715,-0.941l-0.64,-0.998l-0.584,-1.017l-0.508,-1.054l-0.452,-1.092l-0.376,-1.129l-0.301,-1.13l-0.245,-1.148l-0.15,-1.167l-0.094,-1.186l-0.019,-1.186l0.056,-1.167l0.15,-1.167l0.208,-1.168l0.282,-1.148l0.358,-1.111l0.414,-1.11l0.489,-1.073l0.565,-1.036l0.621,-0.997l0.697,-0.961l0.734,-0.922l0.809,-0.866l0.848,-0.809l0.903,-0.753l0.942,-0.697l0.997,-0.64l1.035,-0.565l1.054,-0.508l1.093,-0.452l1.129,-0.358l1.148,-0.301l1.148,-0.226l1.168,-0.15l1.185,-0.094l1.168,-0l1.186,0.075l1.167,0.151l1.148,0.207l1.148,0.301l1.13,0.357l-9.45,16.36l-0.188,0.376l-0.095,0.414l-0.037,0.433l0.037,0.414l0.095,0.414l0.188,0.396l0.245,0.339l0.301,0.301l0.358,0.245l0.376,0.188l0.414,0.113l0.433,0.037Zm116.45,-8.678l0.357,1.111l0.283,1.148l0.226,1.148l0.131,1.168l0.076,1.167l-0.019,1.167l-0.075,1.186l-0.151,1.148l-0.226,1.149l-0.301,1.148l-0.358,1.111l-0.452,1.091l-0.489,1.055l-0.584,1.016l-0.621,0.998l-0.696,0.941l-0.753,0.904l-0.81,0.847l-0.866,0.791l-0.903,0.753l-0.941,0.677l-0.998,0.622l-1.036,0.564l-1.054,0.49l-1.11,0.433l-1.111,0.357l-1.13,0.283l-1.167,0.207l-1.148,0.15l-1.186,0.076l-1.167,-0.019l-1.167,-0.075l-1.167,-0.151l-1.149,-0.226l-1.129,-0.301l-1.111,-0.358l-1.092,-0.433l-1.054,-0.508l-1.035,-0.565l-0.979,-0.64l-0.96,-0.696l-0.885,-0.753l-0.866,-0.81l-0.79,-0.847l-0.753,-0.904l-0.678,-0.96l-0.621,-0.997l-0.565,-1.017l-0.49,-1.073l-0.432,-1.092l-0.358,-1.111l-0.283,-1.148l-0.225,-1.148l-0.132,-1.167l-0.075,-1.168l-0,-1.167l0.094,-1.167l0.15,-1.167l0.226,-1.148l0.282,-1.149l0.377,-1.11l0.433,-1.092l0.508,-1.054l0.565,-1.017l0.621,-0.998l0.697,-0.941l0.753,-0.904l0.809,-0.847l1.506,5.591l0.283,0.96l0.376,0.942l0.414,0.903l0.49,0.885l0.564,0.828l0.603,0.791l0.659,0.753l0.715,0.715l0.772,0.64l0.809,0.603l0.847,0.546l0.866,0.47l0.923,0.415l0.941,0.338l0.96,0.283l0.979,0.226l0.433,0.037l0.433,-0.037l0.414,-0.094l0.395,-0.17l0.358,-0.226l0.32,-0.282l0.282,-0.339l0.226,-0.358l0.151,-0.414l0.094,-0.414l0.019,-0.433l-0.057,-0.414l-0.113,-0.414l-0.188,-0.396l-0.245,-0.357l-0.282,-0.32l-0.358,-0.245l-0.96,-0.678l-0.941,-0.753l-0.885,-0.809l-0.809,-0.847l-0.772,-0.923l-0.697,-0.96l-0.621,-1.016l-0.564,-1.036l-0.509,-1.092l-0.414,-1.11l-0.339,-1.149l-1.223,-4.574l1.091,-0.433l1.111,-0.339l1.148,-0.301l1.149,-0.207l1.167,-0.132l1.167,-0.075l1.167,0.018l1.167,0.076l1.167,0.15l1.149,0.226l1.148,0.301l1.111,0.377l1.073,0.433l1.073,0.508l1.016,0.565l0.979,0.64l0.96,0.697l0.885,0.753l0.866,0.809l0.791,0.847l0.734,0.904l0.696,0.96l0.621,0.998l0.546,1.035l0.509,1.054l0.414,1.092Zm-68.635,-2.579l-0.716,-0.508l2.297,-4.914l4.669,0l-0,-3.558l-3.012,0l-0.302,-0.376l-0.376,-0.339l-0.433,-0.264l-0.452,-0.188l-0.489,-0.132l-0.49,-0.037l-0.508,0.037l-0.489,0.132l-0.452,0.188l-0.414,0.264l-0.377,0.339l-0.32,0.376l-3.012,0l0,3.558l3.012,0l-1.675,3.596l-0.904,-0.245l-0.941,-0.15l-0.941,-0.076l-0.942,0l-8.904,-24.472l48.06,-0l0.998,3.727l-32.887,23.042Z" style="fill:#fff;"/><path d="M90.95,302.975l0.395,-0.211l0.29,-0.29l0.238,-0.368l0.105,-0.396l0,-0.447l-0.132,-0.396l-0.211,-0.368l-0.633,-0.633l-0.58,-0.685l-0.474,-0.737l-0.396,-0.817l-0.29,-0.843l-0.211,-0.869l-0.106,-0.87l0,-0.896l0.106,-0.895l0.185,-0.87l0.29,-0.843l0.395,-0.817l0.475,-0.737l0.554,-0.711l0.633,-0.633l0.712,-0.553l0.764,-0.474l0.791,-0.369l0.844,-0.29l0.897,-0.184l0.87,-0.106l0.897,0l0.896,0.106l0.87,0.21l0.844,0.317l0.791,0.395l0.739,0.474l0.712,0.58l0.606,0.632l0.554,0.711l0.475,0.764l0.369,0.817l0.264,0.843l0.184,0.869l0.079,0.896l0,0.896l-0.132,0.869l-0.211,0.87l-0.316,0.843l-0.396,0.79l-0.501,0.738l-0.58,0.685l-0.659,0.632l-0.237,0.263l-0.211,0.343l-0.106,0.342l-0.026,0.396l0.053,0.368l0.131,0.343l0.211,0.316l0.291,0.263l0.342,0.185l0.343,0.105l1.451,0.211l1.476,0.132l1.451,0.052l1.476,-0.052l1.451,-0.106l1.45,-0.21l2.085,-4.668l0.104,-0.022l0.527,-0.026l12.183,-52.559l0.211,-0.738l0.29,-0.711l0.396,-0.685l0.475,-0.632l0.527,-0.553l0.58,-0.527l0.659,-0.422l1.846,-1.027l1.873,-0.949l1.925,-0.843l1.977,-0.79l1.978,-0.685l2.031,-0.58l0.422,-0.105l0.395,-0.211l0.343,-0.316l0.264,-0.369l0.158,-0.395l0.053,-0.448l-0.053,-0.448l-0.132,-0.421l-0.237,-0.369l-0.95,-1.344l-0.87,-1.396l-0.791,-1.423l-0.712,-1.475l-0.448,-1.001l-0.343,-1.054l-0.264,-1.054l-0.158,-1.08l-0.026,-1.106l0.079,-1.107l0.158,-1.08l0.29,-1.054l0.369,-1.027l0.501,-1.001l0.58,-0.922l0.66,-0.87l0.738,-0.817l0.818,-0.711l0.896,-0.659l0.95,-0.553l1.002,-0.448l1.028,-0.368l1.081,-0.238l1.081,-0.158l1.108,-0.026l1.081,0.053l1.108,0.184l1.054,0.264l1.029,0.395l0.976,0.474l0.949,0.58l0.87,0.658l0.818,0.738l0.712,0.817l0.659,0.895l0.554,0.949l0.448,1.001l0.369,1.027l0.264,1.054l0.158,1.107l0.026,1.08l-0.052,1.106l-0.185,1.08l-0.264,1.054l-0.369,1.028l-0.791,1.712l-0.87,1.66l-1.002,1.607l-1.081,1.554l-0.211,0.343l-0.132,0.421l-0.027,0.422l0.053,0.421l0.158,0.396l0.238,0.342l0.29,0.29l0.369,0.237l0.422,0.132l1.82,0.421l1.819,0.527l1.793,0.606l1.741,0.685l1.714,0.79l1.661,0.87l1.635,0.948l1.582,1.028l1.53,1.106l1.45,1.186l0.686,0.685l0.606,0.764l0.501,0.816l0.369,0.896l0.264,0.922l4.14,20.26l0.238,27.583l-0.027,0.685l0.079,0.659l0.132,0.658l0.264,0.633l0.316,0.579l0.185,0.633l0.105,0.658l0.027,0.685l-0.079,0.659l-0.185,0.632l-0.264,0.632l-0.342,0.554l-0.449,0.526l-0.474,0.448l-0.554,0.369l-0.607,0.29l-0.633,0.211l-0.659,0.105l-0.685,0l-0.66,-0.053l-0.633,-0.184l-0.606,-0.263l-0.58,-0.343l-0.528,-0.421l-0.448,-0.475l-0.369,-0.553l-0.317,-0.606l-0.211,-0.632l-0.105,-0.659l-0.026,-0.658l0.079,-0.685l0.158,-0.633l0.343,-0.711l0.263,-0.738l0.211,-0.737l0.264,-2.24l0.185,-2.239l0.079,-2.266l-0.027,-2.239l-0.131,-2.239l-0.238,-2.24l-0.316,-2.239l-0.422,-2.213l-0.527,-2.187l-0.607,-2.16l-0.738,-2.134l-0.791,-2.108l-0.897,-2.055l-1.002,-2.028l-1.081,-1.976l-1.161,-1.923l-1.239,-1.871l3.455,35.092l0.158,2.16l0.105,2.187l0,2.16l-0.079,2.187l-1.055,18.257l-4.931,39.597l1.292,2.16l0.211,0.317l0.158,0.342l0.079,0.343l-0.026,0.395l-0.079,0.342l-0.185,0.343l-0.211,0.29l-0.316,0.237l-0.316,0.158l-0.37,0.079l-0.369,-0l-0.369,-0.079l-0.343,-0.132l-0.29,-0.237l-5.749,-5.348l-0.342,-0.369l-0.238,-0.474l-0.132,-0.501l0,-0.5l0.396,-4.321l0.264,-4.321l0.184,-4.32l0.079,-4.321l-0.026,-4.32l-0.132,-4.347l-0.211,-4.321l-0.316,-4.321l-1.53,-20.47l-0.817,3.767l-0.765,3.768l-0.659,3.767l-0.554,3.794l-0.475,3.82l-0.422,7.14l-0.316,7.113l-0.211,7.166l-0.132,7.139l-0.053,7.14l-0.052,0.527l-0.211,0.5l-0.29,0.448l-0.396,0.343l-8.57,6.059l-0.343,0.184l-0.369,0.079l-0.396,0l-0.369,-0.105l-0.316,-0.211l-0.291,-0.263l-0.184,-0.343l-0.106,-0.368l-0.026,-0.369l0.105,-0.396l0.185,-0.342l2.848,-3.846l-4.641,-55.536l1.134,-44.734l-14.847,38.2l0.449,0.132l0.422,0.237l0.369,0.316l0.29,0.369l0.211,0.422l0.132,0.447l0.026,0.475l-0.053,0.474l-0.158,0.448l-0.237,0.421l-0.317,0.343l-1.925,1.343l-1.951,1.239l-2.004,1.159l-2.084,1.08l-2.109,0.975l-2.136,0.895l-2.189,0.817l-0.29,0.158l-0.237,0.211l-0.159,0.29l-0.052,0.342l0.026,0.316l6.461,26.662l0.132,0.843l-0,0.843l-0.079,0.843l-0.211,0.817l-0.317,0.79l-0.422,0.738l-0.501,0.685l-0.606,0.606l-0.66,0.5l-0.738,0.448l-0.791,0.316l-2.321,14.49l-0.052,0.553l0.105,0.58l0.185,0.553l0.316,0.474l1.872,2.398l0.185,0.316l0.105,0.316l0,0.369l-0.079,0.316l-0.184,0.316l-0.238,0.264l-0.29,0.158l-0.342,0.105l-0.343,0.026l-0.343,-0.079l-0.29,-0.158l-5.142,-3.635l-0.396,-0.343l-0.316,-0.448l-0.185,-0.5l-0.053,-0.527l-0.026,-17.362l-0.026,-0.21l-0.106,-0.211l-0.185,-0.106l-0.237,-0.052l-0.211,0.052l-0.184,0.106l-1.161,0.975l-0.422,0.421l-0.316,0.501l-0.264,0.553l-0.132,0.579l-2.769,14.201l-0.158,0.632l-0.263,0.606l-0.343,0.553l-0.422,0.501l-0.501,0.421l-0.554,0.369l-2.953,1.923l-0.317,0.132l-0.369,0.053l-0.343,-0.079l-0.29,-0.185l-0.237,-0.237l-0.132,-0.342l-0.053,-0.343l0.079,-0.342l0.158,-0.29l0.818,-1.028l0.29,-0.395l0.185,-0.421l0.105,-0.475l0,-20.944l-0.791,-0.29l-0.264,-0.132l-0.211,-0.184l-0.121,-0.217l-0.037,-0.573l0.712,-3.899l0.607,-3.9l0.448,-3.951l0.158,-1.607l0.079,-1.634l-0.053,-1.607l-0.158,-1.633l-0.263,-1.581l-0.37,-1.581l-0.474,-1.554l-2.004,2.819l-1.767,11.513l0.052,0.421l0.159,0.395l0.211,0.369l0.29,0.29l0.395,0.29l0.317,0.369l0.237,0.395l0.132,0.448l0.053,0.474l-0.053,0.474l-0.132,0.474l-0.237,0.422l-0.29,0.342l-0.396,0.29l-0.554,0.29l-0.58,0.184l-0.606,0.106l-0.633,-0l-0.449,-0.053l-0.632,-0.184l-0.607,-0.264l-0.554,-0.369l-0.501,-0.447l-0.422,-0.527l-0.316,-0.58l-0.211,-0.632l-0.211,-2.872l-0.106,-2.898l0.027,-2.898l0.132,-2.871l0.29,-3.373l0.422,-3.345l0.501,-3.346l0.263,-1.212l0.37,-1.186l0.448,-1.133l0.554,-1.106l0.659,-1.054l0.738,-1.001l0.818,-0.922l0.896,-0.869l0.976,-0.764l1.029,-0.685l1.081,-0.606l1.134,-0.501Z" style="fill:#fff;"/><path d="M131.006,139.607l0.905,0.175l0.904,0.058l0.904,-0.029l0.875,-0.117l0.876,-0.262l0.846,-0.321l0.787,-0.437l0.73,-0.525l0.7,-0.613l0.583,-0.671l0.525,-0.758l0.817,-1.809l0.7,-1.866l0.584,-1.896l0.466,-1.955l0.351,-1.954l0.233,-1.983l0.087,-2.013l0.03,-1.663l0.116,-1.633l0.234,-1.663l0.35,-1.633l0.437,-1.575l0.555,-1.575l0.671,-1.517l0.758,-1.488l0.846,-1.429l0.963,-1.371l1.021,-1.283l0.787,-1.08l0.876,-1.02l0.962,-0.934l1.051,-0.817l1.108,-0.758l1.167,-0.642l1.225,-0.525l1.284,-0.408l1.283,-0.321l2.363,-0.321l2.363,-0.233l2.393,-0.088l2.363,0l2.392,0.146l2.363,0.263l2.159,-1.021l2.217,-0.904l2.246,-0.788l2.275,-0.671l2.305,-0.554l2.363,-0.467l2.363,-0.321l2.363,-0.204l2.392,-0.058l2.363,0.029l2.392,0.146l2.363,0.292l2.334,0.379l2.334,0.525l2.305,0.612l2.246,0.759l2.246,0.846l0.263,0.087l0.291,-0.058l0.263,-0.146l0.175,-0.233l0.088,-0.263l-0.03,-0.292l-0.583,-2.479l-0.496,-2.508l-0.35,-2.509l-0.263,-2.538l-0.116,-2.537l-0.029,-2.538l0.087,-2.538l0.233,-2.537l0.321,-2.509l0.438,-2.508l0.554,-2.48l0.671,-2.45l0.788,-2.421l0.875,-2.391l0.992,-2.334l5.689,-5.717l0.291,-0.204l0.234,-0.263l0.175,-0.35l0.029,-0.35l-0.058,-0.379l-0.146,-0.321l-1.43,-4.725l0,-1.225l-1.079,-0.321l0.467,-5.134l0.116,-0.875l0.263,-0.875l0.35,-0.817l0.467,-0.758l0.554,-0.7l0.642,-0.642l0.729,-0.525l0.788,-0.437l0.817,-0.321l0.875,-0.204l0.904,-0.088l0.875,0.029l0.905,0.146l0.846,0.234l0.816,0.379l0.759,0.466l0.7,0.584l0.613,0.642l0.525,0.729l0.408,0.787l0.321,0.846l0.846,2.946l2.246,1.634l-0.145,0.408l-2.83,0l-0,4.492l-1.284,2.333l-2.071,1.313l-0.175,0.146l-0.117,0.204l-0.029,0.233l0,0.788l0.029,0.321l0.117,0.321l0.204,0.262l0.234,0.234l1.254,0.845l1.604,2.13l0.759,2.567l0.671,2.625l0.583,2.625l0.438,2.625l0.35,2.654l0.263,2.684l0.145,2.683l0.024,2.188l-0.07,0l0.076,0.496l0.058,0.467l0.204,0.408l0.321,0.35l8.373,6.855l0.525,0.35l0.612,0.233l0.613,0.117l0.642,-0.03l3.5,0.846l0.292,0.146l0.292,0l0.321,-0.058l0.262,-0.175l14.528,-12.018l1.751,-1.137l1.779,-1.079l1.838,-0.963l1.926,-0.846l1.925,-0.729l1.984,-0.642l2.013,-0.525l2.042,-0.408l2.071,-0.292l2.071,-0.146l2.101,-0.058l2.071,0.058l2.071,0.175l2.071,0.292l8.431,-3.267l0.321,-0.058l0.321,0.058l0.263,0.175l0.174,0.263l0.059,0.321l-0.059,0.32l-1.779,2.305l3.209,1.954l-2.392,0.029l-0.321,0.029l-0.292,0.175l-0.233,0.234l-0.146,0.291l-0.029,0.321l0.058,0.321l2.217,6.184l0.263,0.904l0.116,0.963l-0.028,0.933l-0.205,2.363l-0.088,2.362l0,2.363l0.147,2.363l0.203,2.333l0.35,2.334l0.438,2.333l0.555,2.304l0.642,2.246l0.087,0.467l0,0.467l-0.087,0.466l-0.175,0.409l-0.672,1.371l-0.612,1.4l-0.526,1.429l-0.174,0.321l-0.234,0.262l-0.321,0.175l-0.35,0.088l-0.35,-0l-0.846,-0.233l-0.787,-0.321l-0.73,-0.438l-0.671,-0.525l-0.584,-0.642l-0.612,0.788l-0.496,0.875l-0.525,-0.379l-0.496,-0.467l-0.438,-0.525l-0.35,-0.583l-0.262,-0.613l-0.175,-0.671l-0.117,-0.67l0,-0.671l0.204,-3.296l-0.029,-0.409l-0.116,-0.379l-0.234,-0.321l-0.291,-0.262l-0.38,-0.146l-1.05,-0.35l-1.05,-0.438l-0.992,-0.525l-0.933,-0.612l-0.876,-0.7l-0.816,-0.759l-0.759,-0.846l-0.204,-0.175l-0.234,-0.116l-0.233,-0.029l-0.262,0.029l-0.234,0.116l-0.204,0.175l-0.117,0.234l-0.058,0.262l-0.263,2.1l-0.379,2.071l-0.467,2.042l-0.612,2.042l-0.7,1.983l-0.846,1.926l-0.934,1.895l-1.05,1.838l-1.138,1.779l-1.254,1.692l-0.205,0.379l-0.145,0.409l-0.03,0.408l0,2.013l-0.116,1.983l-0.204,1.984l-0.321,1.983l-0.409,1.954l-0.525,1.925l-0.642,1.926l-0.146,0.554l-0.029,0.583l0.088,0.584l0.175,0.554l0.262,0.496l0.38,0.466l13.302,13.768l3.005,5.454l0.525,3.267l1.4,3.238l1.488,3.179l1.634,3.121l1.75,3.063l0.35,0.729l0.234,0.788l0.087,0.817l-0.058,0.816l-0.38,1.955l-0.496,1.925l-0.612,1.866l-0.759,1.838l-0.845,1.779l-0.963,1.721l-1.08,1.663l-0.7,0.087l-0.962,-0.991l-0.846,-1.08l-0.759,-1.137l-0.642,-1.196l-0.495,-1.283l-0.38,-1.313l-0.262,-1.342l3.588,-2.654l0.233,-0.175l0.146,-0.292l0.029,-0.321l-0.087,-0.291l-0.467,-0.73l-0.496,-0.67l-0.583,-0.642l-0.204,-0.467l-0.263,-1.808l-0.379,-1.809l-0.496,-1.779l-0.613,-1.75l-0.729,-1.692l-0.846,-1.633l-0.963,-1.605l-1.05,-1.487l-2.917,-3.005l-3.005,-2.887l-3.063,-2.83l-3.151,-2.741l-3.209,-2.655l-3.296,-2.567l-0.321,-0.204l-0.35,-0.087l-0.38,-0.029l-0.379,0.058l-0.35,0.175l-0.292,0.233l-0.816,0.904l-0.759,0.992l-0.642,1.05l-0.554,1.079l-0.467,1.167l-0.35,1.167l-0.233,1.225l-0.117,1.225l-0.029,1.225l-2.217,4.726l-3.413,4.871l-5.397,9.1l-0.292,0.613l-0.204,0.641l-0.117,0.671l-0.029,0.671l0.058,2.509l0.029,0.991l0.175,1.021l0.234,0.963l0.379,0.933l0.467,0.905l0.554,0.845l3.734,6.009l-0.379,1.079l-1.138,0.467l-1.196,0.35l-1.196,0.292l-1.225,0.146l-1.226,0.058l-1.225,-0.029l-1.225,-0.146l-1.225,-0.233l-1.167,-0.35l-1.167,-0.438l2.217,-3.413l0.204,-0.525l0.088,-0.554l-0.059,-0.554l-0.145,-0.525l-0.292,-0.467l-0.379,-0.408l-0.438,-0.292l-0.525,-0.204l-1.43,-2.304l2.976,-5.513l0.35,-1.225l0.263,-1.284l0.146,-1.254l-0,-3.15l0.116,-1.867l0.234,-1.838l0.32,-1.837l0.467,-1.809l0.555,-1.779l0.671,-1.721l0.787,-1.692l0.875,-1.662l0.963,-1.575l1.079,-1.517l-0.291,-1.75l-0.175,-1.75l-0.088,-1.75l0,-1.751l0.088,-1.75l0.204,-1.75l-2.742,0.817l-2.743,0.7l-2.8,0.613l-2.801,0.495l-2.829,0.38l-2.83,0.262l-2.83,0.175l-2.859,0.058l-2.83,-0.058l-2.859,-0.175l-2.829,-0.262l-2.83,-0.38l-2.801,-0.495l-2.771,-0.613l-2.771,-0.7l-2.714,-0.817l-2.713,-0.904l-2.654,-1.021l-2.597,-1.137l-0.291,-0.059l-0.292,0.029l-0.263,0.146l-0.175,0.234l-3.004,3.15l-0.292,0.233l-0.234,0.292l-0.145,0.35l-0.088,0.35l0,0.379l-2.976,13.038l-0.262,0.525l-0.175,0.555l-0.029,0.583l0.058,0.554l2.13,14.584l0.116,0.73l0.234,0.7l0.321,0.641l0.437,0.584l0.525,0.525l0.584,0.437l1.488,0.963l1.429,1.05l1.371,1.138l1.284,1.225l1.225,1.312l1.109,1.371l1.021,1.459l0.962,1.516l0.817,1.575l0.759,1.605l-0.584,1.75l-9.452,-0.263l-1.108,-6.417l0.029,-0.379l-0.088,-0.35l-0.204,-0.321l-0.292,-0.233l-0.321,-0.146l-2.858,0.087l-0.496,0l-0.496,-0.087l-0.438,-0.233l-0.379,-0.321l-0.321,-0.409l-0.175,-0.466l-0.233,-2.538l-0.351,-2.567l-0.437,-2.508l-0.584,-2.509l-0.7,-2.479l-0.817,-2.421l-0.933,-2.392l-1.05,-2.363l-1.167,-2.275l-1.255,-2.246l-0.233,-3.937l2.655,-5.251l0.116,-0.291l0,-0.321l-0.087,-0.321l-0.204,-0.263l-0.263,-0.175l-0.292,-0.116l-0.35,0.029l-0.291,0.116l-12.982,5.834l-0.234,0.146l-0.204,0.233l-0.117,0.263l-1.371,5.367l-2.071,2.829l-0.642,0.467l-0.525,0.612l-0.408,0.671l-1.342,12.514l-0.088,0.875l0.029,0.875l0.088,0.875l0.175,0.846l0.204,0.554l0.146,0.583l0.029,0.584l-0.087,0.583l-0.175,0.583l-0.263,0.525l-0.525,0.934l-0.642,0.875l-0.729,0.787l-0.788,0.7l-0.875,0.642l-0.933,0.525l-0.992,0.409l-1.021,0.32l-1.051,0.205l-1.079,0.087l-1.079,0l-1.051,-0.146l-0.641,-11.025l1.021,0.495l1.05,0.38l1.079,0.291l0.438,0.088l0.408,-0.029l0.438,-0.146l0.35,-0.234l0.263,-0.35l0.204,-0.379l0.058,-0.437l-0.058,-0.438l-0.146,-0.408l0.496,-0.321l0.467,-0.408l0.408,-0.467l0.321,-0.525l0.233,-0.554l0.175,-0.584l0.204,-4.375l0.117,-4.375l0.029,-4.376l-0.058,-4.404l-0.204,-4.375l-0,-0.584l0.087,-0.583l0.205,-0.554l0.32,-0.496l0.438,-0.438l0.496,-0.32l1.254,-0.671l1.226,-0.73l1.137,-0.845l0.525,-1.08l0.409,-1.079l0.292,-1.167l0.145,-1.166l0.059,-1.167l-0.117,-1.167l-0.233,-1.167l-0.35,-1.137l-0.788,-1.809l-0.729,-1.866l-0.584,-1.926l-0.525,-1.925l-0.379,-1.954l-0.292,-1.983l-0.175,-1.984l-0.058,-2.013l0.058,-1.983l0.146,-1.983l0.263,-1.984l0.379,-1.983l0.496,-1.925l0.583,-1.926l0.7,-1.866l0.788,-1.838l-1.254,0.204l-1.226,0.292l-1.167,0.408l-1.167,0.496l-1.079,0.613l-1.05,0.729l-0.963,0.787l-0.875,0.905l-0.817,0.962l-0.7,1.05l-0.613,1.109l-0.525,1.137l-0.408,1.196l-0.263,1.225l-0.204,1.254l-0.058,1.255l0.175,1.779l0.058,1.779l-0.058,1.809l-0.175,1.779l-0.292,1.75l-0.408,1.75l-0.496,1.721l-0.584,1.692l-0.729,1.663l-0.817,1.575l-0.904,1.546l-0.992,1.487l-1.109,1.429l-1.167,1.342l-1.254,1.284l-1.342,1.195l-0.992,0.526l-1.021,0.466l-1.05,0.321l-1.109,0.204l-1.108,0.117l-1.109,-0.029l-1.108,-0.146l-1.08,-0.233l-1.05,-0.38l-1.021,-0.466l-0.934,-0.584l-0.875,-0.671l-0.817,-0.787l-0.729,-0.846Zm105.313,-52.299l-0.291,-0.088l-0.321,0.029l-0.292,0.117l-0.233,0.175l-0.146,0.263l-0.088,0.291l0.03,0.292l0.116,0.292l3.793,7.438l0.175,0.291l0.262,0.234l0.321,0.175l0.35,0.029l0.35,-0.058l0.321,-0.146l4.668,-2.888l0.146,-0.146l0.116,-0.204l0.03,-0.204l-0.088,-0.204l-0.117,-0.175l-0.204,-0.088l-2.188,-1.983l-0.175,-0.263l-0.233,-0.146l-6.302,-3.033Z" style="fill:#fff;"/></g></svg>