<?xml version="1.0" encoding="UTF-8" standalone="no"?><!DOCTYPE svg PUBLIC "-//W3C//DTD SVG 1.1//EN" "http://www.w3.org/Graphics/SVG/1.1/DTD/svg11.dtd"><svg width="100%" height="100%" viewBox="0 0 454 454" version="1.1" xmlns="http://www.w3.org/2000/svg" xmlns:xlink="http://www.w3.org/1999/xlink" xml:space="preserve" xmlns:serif="http://www.serif.com/" style="fill-rule:evenodd;clip-rule:evenodd;stroke-linejoin:round;stroke-miterlimit:2;"><g transform="matrix(50,0,0,50,321.022,262.709)"></g><text x="133.4px" y="262.709px" style="font-family:'ArialMT', 'Arial', sans-serif;font-size:50px;">sw=38.4</text><g id="_956-Route-for-use-by-Pedestrians-and-Cycles-Only" serif:id="956 Route for use by Pedestrians and Cycles Only"><circle cx="226.772" cy="226.772" r="226.772" style="fill:#fff;"/><path d="M226.772,0c125.158,0 226.771,101.613 226.771,226.772c0,125.158 -101.613,226.771 -226.771,226.771c-125.159,0 -226.772,-101.613 -226.772,-226.771c0,-125.159 101.613,-226.772 226.772,-226.772Zm-0,1.181c-124.507,0 -225.591,101.084 -225.591,225.591c0,124.506 101.084,225.59 225.591,225.59c124.506,0 225.59,-101.084 225.59,-225.59c0,-124.507 -101.084,-225.591 -225.59,-225.591Z" style="fill:#0079c1;"/><circle cx="226.772" cy="226.772" r="217.701" style="fill:#0079c1;"/><path d="M98.3,143.107l0.16,-2.369l0.288,-2.336l0.416,-2.368l0.544,-2.304l0.672,-2.272l0.768,-2.241l0.896,-2.208l0.992,-2.176l1.12,-2.08l1.216,-2.048l1.344,-1.952l1.44,-1.889l1.536,-1.824l1.601,-1.76l1.728,-1.632l1.792,-1.568l1.856,-1.44l1.952,-1.376l2.016,-1.249l2.08,-1.152l2.144,-1.056l2.177,-0.896l2.24,-0.832l2.272,-0.672l2.304,-0.576l2.336,-0.448l2.368,-0.32l2.368,-0.224l2.369,-0.064l2.368,0.032l2.368,0.16l2.368,0.32l2.336,0.416l2.336,0.544l2.272,0.64l2.241,0.768l9.824,-36.643l0.128,-0.672l-0.032,-0.704l-0.128,-0.704l-0.256,-0.64l-0.384,-0.576l-0.48,-0.512l-0.576,-0.416l-0.96,-0.64l-0.928,-0.737l-0.832,-0.8l-0.736,-0.896l-0.672,-0.992l-0.544,-0.992l-0.48,-1.088l-0.352,-1.12l-0.256,-1.12l-0.128,-1.152l-0.032,-1.184l0.096,-1.152l0.192,-1.153l0.32,-1.12l0.416,-1.088l0.512,-1.056l0.608,-0.992l0.704,-0.928l0.8,-0.864l0.896,-0.768l0.928,-0.672l1.024,-0.608l1.056,-0.48l1.088,-0.384l1.12,-0.288l1.152,-0.16l1.185,-0.064l21.153,-0l-0,11.329l-17.377,-0l-0.512,0.064l-0.512,0.192l-0.448,0.288l-0.352,0.384l-0.256,0.48l-0.16,0.512l-0.032,0.512l0.096,0.544l0.224,0.48l0.32,0.416l0.416,0.32l0.928,0.64l0.832,0.768l0.768,0.8l0.672,0.896l0.576,0.992l0.448,0.992l0.352,1.088l0.256,1.089l0.096,1.12l0,1.12l-0.096,1.088l-0.224,1.12l-1.824,6.785l82.789,-0l4.128,-11.329l-17.473,-3.873l-0.64,-0.192l-0.576,-0.32l-0.512,-0.384l-0.448,-0.48l-0.352,-0.544l-0.256,-0.576l-0.16,-0.64l-0.032,-0.64l0.064,-0.64l0.192,-0.64l0.288,-0.576l0.384,-0.544l0.448,-0.448l0.544,-0.352l0.576,-0.288l0.64,-0.16l0.64,-0.064l39.107,-0l0.383,0.064l0.353,0.16l0.319,0.224l0.225,0.32l0.16,0.352l0.064,0.384l-0.064,0.384l-0.353,1.248l-0.511,1.216l-0.608,1.12l-0.704,1.088l-0.832,1.024l-0.896,0.928l-0.992,0.832l-1.089,0.736l-1.119,0.641l-1.185,0.512l-1.248,0.416l-1.248,0.288l-1.28,0.16l-3.489,9.6l17.89,31.011l2.208,-0.864l2.272,-0.768l2.272,-0.608l2.305,-0.512l2.336,-0.384l2.368,-0.256l2.368,-0.16l2.368,-0l2.368,0.096l2.369,0.256l2.336,0.352l2.336,0.48l2.272,0.576l2.272,0.736l2.208,0.832l2.176,0.96l2.145,1.056l2.048,1.152l1.983,1.281l1.953,1.376l1.856,1.504l1.76,1.568l1.696,1.664l1.6,1.728l1.505,1.856l1.407,1.889l1.313,1.984l1.183,2.048l1.089,2.112l0.992,2.144l0.864,2.208l0.768,2.241l0.608,2.304l0.512,2.304l0.384,2.336l0.288,2.368l0.128,2.369l0.032,2.368l-0.096,2.368l-0.224,2.368l-0.352,2.336l-0.48,2.305l-0.609,2.304l-0.704,2.272l-0.832,2.208l-0.927,2.176l-1.056,2.113l-1.185,2.08l-1.247,1.984l-1.376,1.952l-1.505,1.856l-1.568,1.76l-1.632,1.697l-1.76,1.6l-1.824,1.536l-1.921,1.408l-1.951,1.312l-2.049,1.184l-2.112,1.12l-2.144,0.96l-2.208,0.896l-2.24,0.737l-2.304,0.64l-2.305,0.512l-2.335,0.416l-2.369,0.256l-2.368,0.16l-2.368,0.032l-2.368,-0.096l-2.336,-0.224l-2.368,-0.352l-2.304,-0.448l-2.305,-0.608l-2.272,-0.704l-2.208,-0.833l-2.176,-0.928l-2.145,-1.056l-2.047,-1.152l-2.017,-1.28l-1.92,-1.376l-1.888,-1.44l-1.76,-1.568l-1.696,-1.664l-1.6,-1.761l-1.537,-1.824l-1.408,-1.888l-1.312,-1.984l-1.216,-2.016l-1.119,-2.112l-0.992,-2.145l-0.864,-2.208l-0.769,-2.24l-0.64,-2.272l-0.512,-2.336l-0.416,-2.337l-0.256,-2.336l-4.448,0l-0.416,1.568l-0.576,1.504l-0.672,1.473l-0.8,1.408l-0.928,1.344l-1.056,1.248l-1.12,1.152l-1.248,1.024l-1.312,0.96l3.904,8.353l7.936,-0l-0,6.048l-5.12,0l-0.544,0.64l-0.64,0.577l-0.704,0.448l-0.768,0.32l-0.832,0.192l-0.864,0.096l-0.832,-0.096l-0.832,-0.192l-0.768,-0.32l-0.737,-0.448l-0.608,-0.577l-0.544,-0.64l-5.12,0l0,-6.048l5.12,-0l-2.848,-6.113l-1.536,0.384l-1.536,0.256l-1.568,0.16l-1.6,0l-1.568,-0.128l-1.568,-0.256l-1.504,-0.384l-1.505,-0.512l-1.44,-0.64l-1.408,-0.768l-1.312,-0.864l-1.248,-0.96l-1.152,-1.088l-1.056,-1.152l-0.96,-1.248l-0.864,-1.344l-0.736,-1.377l-0.608,-1.472l-0.512,-1.504l-0.352,-1.536l-0.256,-1.536l-0.096,-1.6l-0,-1.568l0.16,-1.568l0.288,-1.537l0.416,-1.536l-52.548,-36.771l-1.472,5.473l1.92,1.44l1.825,1.504l1.728,1.632l1.664,1.696l1.568,1.792l1.44,1.856l1.376,1.953l1.28,2.016l1.152,2.08l1.024,2.112l0.96,2.208l0.8,2.209l0.704,2.272l0.576,2.304l0.448,2.336l0.352,2.368l0.225,2.369l0.064,2.368l-0.032,2.368l-0.161,2.368l-0.288,2.368l-0.416,2.337l-0.512,2.304l-0.672,2.304l-0.768,2.24l-0.864,2.208l-1.024,2.145l-1.088,2.112l-1.248,2.048l-1.312,1.952l-1.44,1.92l-1.504,1.824l-1.632,1.729l-1.696,1.664l-1.793,1.536l-1.888,1.472l-1.92,1.376l-2.016,1.248l-2.08,1.152l-2.144,1.056l-2.176,0.928l-2.24,0.801l-2.273,0.704l-2.304,0.576l-2.336,0.448l-2.368,0.352l-2.336,0.192l-2.4,0.096l-2.369,-0.032l-2.368,-0.16l-2.368,-0.288l-2.336,-0.416l-2.304,-0.544l-2.304,-0.64l-2.24,-0.769l-2.209,-0.896l-2.144,-1.024l-2.112,-1.088l-2.016,-1.248l-1.984,-1.312l-1.888,-1.44l-1.824,-1.536l-1.728,-1.6l-1.665,-1.729l-1.568,-1.792l-1.44,-1.856l-1.376,-1.952l-1.248,-2.016l-1.152,-2.08l-1.056,-2.145l-0.928,-2.176l-0.8,-2.24l-0.704,-2.272l-0.576,-2.304l-0.448,-2.337l-0.32,-2.336l-0.224,-2.368l-0.064,-2.4l0.032,-2.368Zm155.082,-12.994l1.248,1.057l1.184,1.152l1.056,1.28l0.928,1.344l0.832,1.408l0.704,1.472l0.576,1.536l0.416,1.6l4.448,0l0.256,-2.336l0.416,-2.304l0.512,-2.304l0.64,-2.272l0.737,-2.241l0.864,-2.176l0.992,-2.144l1.087,-2.08l1.184,-2.016l1.312,-1.984l1.377,-1.889l1.504,-1.824l1.6,-1.728l1.664,-1.632l1.76,-1.568l1.824,-1.472l-13.152,-22.786l-15.969,43.907Zm26.369,5.153l-0.544,1.888l-0.448,1.888l-0.32,1.92l22.53,0l-11.585,-20.065l-1.441,1.312l-1.344,1.376l-1.279,1.472l-1.185,1.568l-1.087,1.6l-0.993,1.696l-0.896,1.729l-0.768,1.792l-0.64,1.824Zm-49.955,9.857l0.064,1.184l0.16,1.184l0.288,1.152l0.416,1.12l0.512,1.056l0.608,1.024l0.704,0.96l0.8,0.865l0.864,0.8l0.96,0.704l1.025,0.608l1.056,0.512l1.12,0.416l1.152,0.288l1.184,0.16l1.184,0.064l1.184,-0.064l1.184,-0.16l1.152,-0.288l1.12,-0.416l1.056,-0.512l1.024,-0.608l0.96,-0.704l0.864,-0.8l0.8,-0.865l0.705,-0.96l0.608,-1.024l0.512,-1.056l0.416,-1.12l0.288,-1.152l0.16,-1.184l0.064,-1.184l-0.064,-1.184l-0.16,-1.184l-0.288,-1.153l-0.416,-1.12l-0.512,-1.056l-0.608,-1.024l-0.705,-0.96l-0.8,-0.864l-0.864,-0.8l-0.96,-0.704l-1.024,-0.608l-1.056,-0.512l-1.12,-0.416l-1.152,-0.288l-1.184,-0.16l-1.184,-0.064l-1.184,0.064l-1.184,0.16l-1.152,0.288l-1.12,0.416l-1.056,0.512l-1.025,0.608l-0.96,0.704l-0.864,0.8l-0.8,0.864l-0.704,0.96l-0.608,1.024l-0.512,1.056l-0.416,1.12l-0.288,1.153l-0.16,1.184l-0.064,1.184Zm81.861,4.16l-33.218,0l0.32,1.984l0.448,1.952l0.576,1.921l0.704,1.856l0.8,1.856l0.928,1.76l1.024,1.728l1.153,1.664l1.247,1.569l1.345,1.472l1.408,1.408l1.536,1.312l1.6,1.216l1.664,1.12l1.728,0.992l1.792,0.896l1.857,0.768l1.888,0.672l1.919,0.544l1.985,0.384l1.983,0.321l1.985,0.16l2.016,0.032l1.984,-0.096l1.984,-0.224l1.985,-0.321l1.952,-0.48l1.92,-0.576l1.888,-0.704l1.824,-0.832l1.76,-0.928l1.728,-1.056l1.632,-1.152l1.569,-1.248l1.471,-1.344l1.377,-1.44l1.312,-1.536l1.215,-1.601l1.089,-1.696l0.992,-1.728l0.864,-1.792l0.768,-1.856l0.64,-1.92l0.512,-1.921l0.416,-1.952l0.256,-1.984l0.16,-2.016l0.032,-2.016l-0.096,-1.984l-0.256,-1.985l-0.352,-1.984l-0.48,-1.952l-0.608,-1.888l-0.704,-1.888l-0.832,-1.824l-0.96,-1.761l-1.056,-1.696l-1.185,-1.632l-1.247,-1.568l-1.376,-1.472l-1.441,-1.376l-1.536,-1.28l-1.6,-1.184l-1.696,-1.089l-1.76,-0.96l-1.792,-0.864l-1.857,-0.768l-1.919,-0.608l-1.952,-0.512l-1.952,-0.384l-1.985,-0.256l-2.016,-0.16l-1.984,0l-2.016,0.128l-1.984,0.256l-1.953,0.352l-1.951,0.512l-1.921,0.608l16.065,27.811l0.321,0.64l0.16,0.704l0.064,0.736l-0.064,0.704l-0.16,0.704l-0.321,0.672l-0.415,0.576l-0.513,0.512l-0.608,0.416l-0.64,0.32l-0.704,0.192l-0.736,0.064Zm-197.964,-14.753l-0.608,1.888l-0.48,1.952l-0.384,1.952l-0.224,1.985l-0.128,1.984l0.032,1.984l0.128,2.016l0.256,1.952l0.384,1.952l0.512,1.953l0.608,1.888l0.768,1.856l0.832,1.792l0.992,1.728l1.056,1.696l1.184,1.6l1.28,1.537l1.376,1.44l1.472,1.344l1.536,1.28l1.6,1.152l1.697,1.056l1.76,0.96l1.792,0.832l1.888,0.736l1.888,0.608l1.92,0.48l1.984,0.353l1.952,0.256l2.017,0.128l1.984,-0.032l1.984,-0.128l1.984,-0.256l1.952,-0.385l1.92,-0.512l1.888,-0.608l1.856,-0.736l1.793,-0.864l1.76,-0.96l1.664,-1.088l1.632,-1.184l1.504,-1.28l1.472,-1.376l1.344,-1.44l1.28,-1.537l1.152,-1.632l1.056,-1.696l0.96,-1.728l0.832,-1.824l0.737,-1.856l0.608,-1.888l0.48,-1.953l0.384,-1.952l0.224,-1.984l0.128,-1.984l-0,-1.984l-0.16,-1.984l-0.256,-1.985l-0.384,-1.952l-0.48,-1.952l-0.64,-1.888l-0.737,-1.856l-0.864,-1.792l-0.96,-1.729l-1.056,-1.696l-1.184,-1.6l-1.28,-1.536l-1.376,-1.44l-2.56,9.505l-0.48,1.632l-0.64,1.6l-0.704,1.536l-0.832,1.504l-0.96,1.408l-1.024,1.344l-1.12,1.281l-1.217,1.216l-1.312,1.088l-1.376,1.024l-1.44,0.928l-1.472,0.8l-1.568,0.704l-1.6,0.576l-1.632,0.48l-1.664,0.384l-0.736,0.064l-0.736,-0.064l-0.704,-0.16l-0.673,-0.288l-0.608,-0.384l-0.544,-0.48l-0.48,-0.576l-0.384,-0.608l-0.256,-0.704l-0.16,-0.704l-0.032,-0.736l0.096,-0.704l0.192,-0.704l0.32,-0.672l0.416,-0.608l0.48,-0.545l0.608,-0.416l1.633,-1.152l1.6,-1.28l1.504,-1.376l1.376,-1.44l1.312,-1.568l1.184,-1.632l1.056,-1.728l0.96,-1.761l0.864,-1.856l0.704,-1.888l0.576,-1.952l2.08,-7.777l-1.856,-0.736l-1.888,-0.576l-1.952,-0.512l-1.952,-0.352l-1.984,-0.224l-1.984,-0.128l-1.984,0.032l-1.985,0.128l-1.984,0.256l-1.952,0.384l-1.952,0.512l-1.888,0.64l-1.824,0.736l-1.824,0.864l-1.728,0.96l-1.665,1.089l-1.632,1.184l-1.504,1.28l-1.472,1.376l-1.344,1.44l-1.248,1.536l-1.184,1.632l-1.056,1.696l-0.928,1.761l-0.864,1.792l-0.704,1.856Zm116.679,-4.385l1.216,-0.864l-3.904,-8.352l-7.937,-0l0,-6.049l5.121,0l0.512,-0.64l0.64,-0.576l0.736,-0.448l0.768,-0.32l0.832,-0.224l0.832,-0.064l0.864,0.064l0.832,0.224l0.768,0.32l0.704,0.448l0.64,0.576l0.544,0.64l5.121,0l-0,6.049l-5.121,-0l2.849,6.112l1.536,-0.416l1.6,-0.256l1.6,-0.128l1.6,0l15.137,-41.603l-81.701,-0l-1.696,6.336l55.907,39.171Z" style="fill:#fff;"/><path d="M172.695,328.292l0.534,-0.285l0.392,-0.391l0.32,-0.498l0.143,-0.533l-0,-0.605l-0.178,-0.534l-0.285,-0.498l-0.854,-0.853l-0.784,-0.925l-0.64,-0.996l-0.534,-1.102l-0.392,-1.138l-0.285,-1.174l-0.142,-1.174l-0,-1.209l0.142,-1.209l0.249,-1.174l0.392,-1.138l0.534,-1.103l0.641,-0.995l0.747,-0.961l0.855,-0.853l0.961,-0.747l1.032,-0.64l1.068,-0.498l1.14,-0.391l1.21,-0.249l1.175,-0.143l1.21,0l1.211,0.143l1.174,0.284l1.14,0.427l1.068,0.533l0.996,0.641l0.962,0.782l0.818,0.854l0.748,0.96l0.641,1.031l0.498,1.103l0.356,1.138l0.249,1.174l0.107,1.209l0,1.209l-0.178,1.174l-0.285,1.173l-0.427,1.139l-0.534,1.067l-0.676,0.995l-0.783,0.925l-0.89,0.854l-0.321,0.355l-0.285,0.463l-0.142,0.462l-0.036,0.534l0.072,0.498l0.178,0.462l0.284,0.427l0.392,0.355l0.463,0.249l0.463,0.143l1.958,0.284l1.993,0.178l1.958,0.071l1.994,-0.071l1.958,-0.142l1.958,-0.285l2.814,-6.301l0.14,-0.03l0.712,-0.035l16.448,-70.954l0.284,-0.996l0.392,-0.961l0.534,-0.924l0.641,-0.854l0.712,-0.747l0.783,-0.711l0.89,-0.569l2.492,-1.387l2.528,-1.281l2.598,-1.138l2.67,-1.067l2.67,-0.924l2.742,-0.783l0.569,-0.142l0.534,-0.285l0.463,-0.426l0.356,-0.498l0.214,-0.534l0.071,-0.604l-0.071,-0.605l-0.178,-0.569l-0.321,-0.498l-1.281,-1.814l-1.175,-1.885l-1.068,-1.921l-0.961,-1.991l-0.606,-1.352l-0.462,-1.422l-0.356,-1.423l-0.214,-1.458l-0.036,-1.494l0.107,-1.494l0.214,-1.458l0.391,-1.423l0.499,-1.387l0.676,-1.351l0.783,-1.245l0.89,-1.174l0.997,-1.102l1.104,-0.961l1.21,-0.889l1.282,-0.747l1.353,-0.604l1.388,-0.498l1.46,-0.32l1.459,-0.214l1.495,-0.035l1.46,0.071l1.495,0.249l1.424,0.356l1.389,0.533l1.317,0.64l1.281,0.783l1.175,0.889l1.104,0.996l0.961,1.102l0.89,1.21l0.748,1.28l0.605,1.351l0.498,1.387l0.356,1.423l0.214,1.494l0.035,1.458l-0.071,1.494l-0.249,1.458l-0.356,1.423l-0.498,1.387l-1.068,2.312l-1.175,2.24l-1.353,2.17l-1.46,2.098l-0.284,0.463l-0.178,0.569l-0.036,0.569l0.071,0.569l0.214,0.533l0.32,0.463l0.392,0.391l0.498,0.32l0.57,0.178l2.456,0.569l2.457,0.711l2.42,0.818l2.35,0.925l2.314,1.067l2.243,1.173l2.207,1.281l2.136,1.387l2.065,1.494l1.958,1.6l0.925,0.925l0.819,1.031l0.677,1.103l0.498,1.209l0.356,1.245l5.589,27.35l0.321,37.238l-0.036,0.925l0.107,0.889l0.178,0.889l0.356,0.853l0.427,0.783l0.249,0.854l0.143,0.889l0.035,0.924l-0.107,0.89l-0.249,0.853l-0.356,0.854l-0.463,0.747l-0.605,0.711l-0.641,0.605l-0.747,0.497l-0.819,0.392l-0.854,0.284l-0.89,0.142l-0.926,0l-0.89,-0.071l-0.854,-0.249l-0.819,-0.355l-0.783,-0.463l-0.712,-0.569l-0.606,-0.64l-0.498,-0.747l-0.427,-0.818l-0.285,-0.853l-0.142,-0.89l-0.036,-0.889l0.107,-0.924l0.213,-0.854l0.463,-0.96l0.356,-0.996l0.285,-0.996l0.356,-3.023l0.249,-3.023l0.107,-3.059l-0.036,-3.023l-0.178,-3.023l-0.32,-3.023l-0.427,-3.023l-0.57,-2.988l-0.712,-2.952l-0.819,-2.916l-0.996,-2.881l-1.068,-2.845l-1.211,-2.775l-1.353,-2.738l-1.459,-2.668l-1.567,-2.596l-1.673,-2.525l4.664,47.374l0.213,2.916l0.143,2.952l-0,2.917l-0.107,2.952l-1.424,24.647l-6.657,53.456l1.744,2.916l0.285,0.427l0.214,0.462l0.106,0.463l-0.035,0.533l-0.107,0.462l-0.249,0.463l-0.285,0.391l-0.427,0.32l-0.427,0.214l-0.499,0.106l-0.498,0l-0.499,-0.106l-0.462,-0.178l-0.392,-0.32l-7.761,-7.22l-0.463,-0.498l-0.32,-0.64l-0.178,-0.676l0,-0.676l0.534,-5.833l0.356,-5.833l0.249,-5.832l0.107,-5.833l-0.036,-5.833l-0.178,-5.868l-0.284,-5.833l-0.428,-5.833l-2.064,-27.635l-1.104,5.086l-1.032,5.086l-0.89,5.086l-0.748,5.121l-0.641,5.157l-0.569,9.639l-0.428,9.603l-0.284,9.674l-0.178,9.638l-0.072,9.638l-0.071,0.712l-0.285,0.676l-0.391,0.604l-0.534,0.463l-11.57,8.18l-0.463,0.249l-0.498,0.106l-0.534,0l-0.499,-0.142l-0.427,-0.284l-0.392,-0.356l-0.249,-0.462l-0.142,-0.498l-0.036,-0.498l0.143,-0.534l0.249,-0.462l3.845,-5.193l-6.266,-74.973l1.531,-60.391l-20.043,51.571l0.605,0.177l0.57,0.321l0.498,0.426l0.392,0.498l0.285,0.569l0.178,0.605l0.035,0.64l-0.071,0.64l-0.214,0.605l-0.32,0.569l-0.427,0.462l-2.599,1.814l-2.634,1.672l-2.706,1.565l-2.812,1.458l-2.848,1.316l-2.884,1.209l-2.955,1.103l-0.391,0.213l-0.321,0.285l-0.213,0.391l-0.071,0.462l0.035,0.427l8.722,35.993l0.178,1.138l0,1.138l-0.107,1.138l-0.285,1.103l-0.427,1.067l-0.569,0.996l-0.677,0.924l-0.819,0.818l-0.89,0.676l-0.996,0.605l-1.068,0.426l-3.133,19.562l-0.071,0.747l0.142,0.782l0.249,0.747l0.428,0.64l2.527,3.237l0.249,0.426l0.143,0.427l-0,0.498l-0.107,0.427l-0.249,0.427l-0.321,0.355l-0.391,0.214l-0.463,0.142l-0.463,0.036l-0.463,-0.107l-0.391,-0.213l-6.942,-4.909l-0.534,-0.462l-0.427,-0.605l-0.25,-0.675l-0.071,-0.712l-0.035,-23.438l-0.036,-0.284l-0.142,-0.285l-0.25,-0.142l-0.32,-0.071l-0.285,0.071l-0.249,0.142l-1.566,1.316l-0.57,0.569l-0.427,0.676l-0.356,0.747l-0.178,0.782l-3.738,19.171l-0.214,0.853l-0.356,0.818l-0.463,0.747l-0.569,0.676l-0.677,0.569l-0.747,0.498l-3.987,2.596l-0.428,0.178l-0.498,0.071l-0.463,-0.107l-0.391,-0.249l-0.321,-0.32l-0.178,-0.462l-0.071,-0.462l0.107,-0.463l0.213,-0.391l1.104,-1.387l0.392,-0.534l0.249,-0.569l0.142,-0.64l0,-28.275l-1.068,-0.391l-0.356,-0.178l-0.285,-0.249l-0.163,-0.293l-0.05,-0.774l0.961,-5.264l0.819,-5.263l0.605,-5.335l0.214,-2.17l0.106,-2.205l-0.071,-2.169l-0.213,-2.206l-0.356,-2.134l-0.499,-2.133l-0.641,-2.099l-2.705,3.806l-2.385,15.542l0.071,0.569l0.213,0.534l0.285,0.498l0.392,0.391l0.534,0.391l0.427,0.498l0.32,0.533l0.178,0.605l0.072,0.64l-0.072,0.64l-0.178,0.641l-0.32,0.569l-0.392,0.462l-0.534,0.391l-0.747,0.391l-0.783,0.249l-0.819,0.143l-0.855,-0l-0.605,-0.071l-0.854,-0.249l-0.819,-0.356l-0.748,-0.498l-0.676,-0.605l-0.57,-0.711l-0.427,-0.782l-0.285,-0.854l-0.284,-3.877l-0.143,-3.912l0.036,-3.912l0.178,-3.877l0.391,-4.552l0.57,-4.517l0.676,-4.517l0.356,-1.636l0.499,-1.601l0.605,-1.529l0.748,-1.494l0.89,-1.422l0.996,-1.352l1.104,-1.245l1.21,-1.173l1.318,-1.032l1.388,-0.925l1.46,-0.818l1.53,-0.675Z" style="fill:#fff;"/></g></svg>