<?xml version="1.0" encoding="UTF-8" standalone="no"?><!DOCTYPE svg PUBLIC "-//W3C//DTD SVG 1.1//EN" "http://www.w3.org/Graphics/SVG/1.1/DTD/svg11.dtd"><svg width="100%" height="100%" viewBox="0 0 454 454" version="1.1" xmlns="http://www.w3.org/2000/svg" xmlns:xlink="http://www.w3.org/1999/xlink" xml:space="preserve" xmlns:serif="http://www.serif.com/" style="fill-rule:evenodd;clip-rule:evenodd;stroke-linejoin:round;stroke-miterlimit:2;"><g transform="matrix(50,0,0,50,321.022,262.709)"></g><text x="133.4px" y="262.709px" style="font-family:'ArialMT', 'Arial', sans-serif;font-size:50px;">sw=38.4</text><g id="_957-Segregated-Pedestrian-and-Cycle-Route" serif:id="957 Segregated Pedestrian and Cycle Route"><circle cx="226.772" cy="226.772" r="226.772" style="fill:#fff;"/><path d="M226.772,0c125.158,0 226.771,101.613 226.771,226.772c0,125.158 -101.613,226.771 -226.771,226.771c-125.159,0 -226.772,-101.613 -226.772,-226.771c-0,-125.159 101.613,-226.772 226.772,-226.772Zm-0,1.181c-124.507,0 -225.591,101.084 -225.591,225.591c0,124.506 101.084,225.59 225.591,225.59c124.506,0 225.59,-101.084 225.59,-225.59c0,-124.507 -101.084,-225.591 -225.59,-225.591Z" style="fill:#0079c1;"/><circle cx="226.772" cy="226.772" r="217.701" style="fill:#0079c1;"/><path d="M36.292,264.453l0.128,-1.894l0.23,-1.869l0.333,-1.895l0.435,-1.843l0.538,-1.818l0.614,-1.792l0.717,-1.766l0.794,-1.741l0.896,-1.665l0.973,-1.638l1.075,-1.562l1.152,-1.51l1.229,-1.46l1.28,-1.408l1.382,-1.306l1.434,-1.254l1.485,-1.152l1.562,-1.101l1.613,-0.999l1.664,-0.921l1.715,-0.845l1.741,-0.717l1.792,-0.666l1.818,-0.537l1.843,-0.461l1.869,-0.359l1.894,-0.256l1.895,-0.179l1.894,-0.051l1.895,0.026l1.895,0.128l1.894,0.256l1.869,0.333l1.869,0.435l1.818,0.512l1.792,0.614l7.859,-29.314l0.103,-0.538l-0.026,-0.563l-0.102,-0.563l-0.205,-0.512l-0.307,-0.461l-0.384,-0.41l-0.461,-0.333l-0.768,-0.512l-0.743,-0.589l-0.665,-0.64l-0.589,-0.717l-0.538,-0.793l-0.435,-0.794l-0.384,-0.87l-0.282,-0.896l-0.204,-0.897l-0.103,-0.921l-0.025,-0.948l0.076,-0.921l0.154,-0.922l0.256,-0.896l0.333,-0.87l0.41,-0.845l0.486,-0.794l0.563,-0.742l0.64,-0.692l0.717,-0.614l0.743,-0.538l0.819,-0.486l0.845,-0.384l0.87,-0.308l0.896,-0.23l0.922,-0.128l0.947,-0.051l16.923,-0l-0,9.063l-13.902,0l-0.41,0.051l-0.409,0.154l-0.359,0.23l-0.281,0.308l-0.205,0.384l-0.128,0.409l-0.026,0.41l0.077,0.435l0.179,0.384l0.256,0.333l0.333,0.256l0.743,0.512l0.665,0.614l0.615,0.64l0.537,0.717l0.461,0.794l0.359,0.794l0.281,0.87l0.205,0.871l0.077,0.896l-0,0.896l-0.077,0.87l-0.179,0.896l-1.459,5.428l66.231,0l3.303,-9.063l-13.979,-3.098l-0.512,-0.154l-0.461,-0.256l-0.409,-0.307l-0.359,-0.384l-0.281,-0.435l-0.205,-0.461l-0.128,-0.512l-0.026,-0.512l0.051,-0.512l0.154,-0.512l0.23,-0.461l0.308,-0.435l0.358,-0.359l0.435,-0.281l0.461,-0.231l0.512,-0.128l0.512,-0.051l31.285,0l0.307,0.051l0.282,0.128l0.256,0.179l0.179,0.256l0.128,0.282l0.052,0.307l-0.052,0.308l-0.282,0.998l-0.409,0.973l-0.486,0.896l-0.564,0.87l-0.665,0.82l-0.717,0.742l-0.794,0.666l-0.871,0.589l-0.895,0.512l-0.948,0.409l-0.998,0.333l-0.999,0.231l-1.023,0.128l-2.791,7.68l14.311,24.809l1.766,-0.691l1.818,-0.615l1.818,-0.486l1.844,-0.41l1.868,-0.307l1.895,-0.205l1.895,-0.128l1.894,0l1.895,0.077l1.894,0.205l1.869,0.281l1.869,0.384l1.818,0.461l1.817,0.589l1.767,0.666l1.741,0.768l1.715,0.845l1.639,0.921l1.586,1.024l1.563,1.101l1.484,1.204l1.409,1.254l1.356,1.331l1.28,1.383l1.204,1.485l1.126,1.51l1.05,1.588l0.947,1.638l0.871,1.69l0.793,1.715l0.692,1.767l0.614,1.792l0.486,1.843l0.41,1.844l0.307,1.869l0.23,1.894l0.103,1.895l0.025,1.894l-0.077,1.895l-0.178,1.895l-0.282,1.869l-0.384,1.843l-0.487,1.843l-0.563,1.818l-0.666,1.767l-0.742,1.741l-0.845,1.689l-0.947,1.664l-0.998,1.588l-1.101,1.561l-1.204,1.485l-1.254,1.409l-1.306,1.356l-1.408,1.281l-1.459,1.228l-1.536,1.127l-1.562,1.05l-1.639,0.947l-1.689,0.896l-1.715,0.768l-1.767,0.717l-1.792,0.589l-1.843,0.512l-1.844,0.409l-1.868,0.333l-1.895,0.205l-1.895,0.128l-1.894,0.026l-1.895,-0.077l-1.868,-0.179l-1.895,-0.282l-1.843,-0.358l-1.844,-0.487l-1.818,-0.563l-1.766,-0.666l-1.741,-0.742l-1.716,-0.845l-1.638,-0.922l-1.613,-1.024l-1.536,-1.101l-1.511,-1.152l-1.408,-1.254l-1.356,-1.332l-1.28,-1.408l-1.229,-1.459l-1.127,-1.511l-1.05,-1.587l-0.972,-1.613l-0.896,-1.69l-0.794,-1.715l-0.691,-1.767l-0.614,-1.792l-0.513,-1.817l-0.409,-1.869l-0.333,-1.869l-0.205,-1.869l-3.558,-0l-0.333,1.254l-0.461,1.203l-0.538,1.178l-0.64,1.127l-0.742,1.075l-0.845,0.998l-0.896,0.922l-0.998,0.819l-1.05,0.768l3.123,6.683l6.349,-0l0,4.838l-4.096,0l-0.435,0.513l-0.512,0.46l-0.563,0.359l-0.615,0.256l-0.665,0.153l-0.692,0.077l-0.665,-0.077l-0.666,-0.153l-0.614,-0.256l-0.589,-0.359l-0.487,-0.46l-0.435,-0.513l-4.096,0l-0,-4.838l4.096,-0l-2.278,-4.89l-1.229,0.307l-1.229,0.205l-1.255,0.128l-1.28,-0l-1.254,-0.103l-1.255,-0.205l-1.203,-0.307l-1.203,-0.409l-1.152,-0.512l-1.127,-0.615l-1.049,-0.691l-0.999,-0.768l-0.922,-0.871l-0.844,-0.921l-0.768,-0.999l-0.692,-1.075l-0.589,-1.101l-0.486,-1.178l-0.41,-1.203l-0.281,-1.229l-0.205,-1.229l-0.077,-1.28l0,-1.254l0.128,-1.255l0.231,-1.229l0.332,-1.229l-42.037,-29.417l-1.178,4.378l1.536,1.152l1.459,1.204l1.383,1.305l1.331,1.357l1.254,1.434l1.153,1.485l1.1,1.562l1.025,1.613l0.921,1.664l0.819,1.689l0.768,1.767l0.641,1.767l0.563,1.817l0.461,1.844l0.358,1.869l0.282,1.894l0.179,1.895l0.051,1.894l-0.026,1.895l-0.128,1.894l-0.23,1.895l-0.333,1.869l-0.409,1.843l-0.538,1.844l-0.615,1.792l-0.691,1.766l-0.819,1.716l-0.87,1.69l-0.999,1.638l-1.05,1.562l-1.152,1.536l-1.203,1.459l-1.306,1.383l-1.357,1.331l-1.433,1.229l-1.511,1.178l-1.536,1.101l-1.613,0.998l-1.664,0.922l-1.715,0.845l-1.741,0.742l-1.792,0.64l-1.818,0.563l-1.843,0.461l-1.869,0.359l-1.895,0.281l-1.869,0.154l-1.92,0.077l-1.894,-0.026l-1.895,-0.128l-1.894,-0.23l-1.869,-0.333l-1.843,-0.435l-1.844,-0.512l-1.792,-0.615l-1.766,-0.717l-1.716,-0.819l-1.689,-0.87l-1.613,-0.999l-1.588,-1.05l-1.51,-1.152l-1.459,-1.229l-1.383,-1.28l-1.331,-1.382l-1.255,-1.434l-1.152,-1.485l-1.101,-1.562l-0.998,-1.613l-0.922,-1.664l-0.845,-1.715l-0.742,-1.741l-0.64,-1.792l-0.563,-1.818l-0.461,-1.843l-0.359,-1.869l-0.256,-1.869l-0.179,-1.895l-0.051,-1.92l0.026,-1.895Zm124.065,-10.394l0.999,0.845l0.947,0.922l0.845,1.024l0.742,1.075l0.666,1.126l0.563,1.178l0.461,1.229l0.333,1.28l3.558,0l0.205,-1.869l0.333,-1.843l0.409,-1.844l0.513,-1.817l0.588,-1.792l0.692,-1.741l0.793,-1.716l0.87,-1.664l0.948,-1.613l1.049,-1.587l1.102,-1.511l1.203,-1.459l1.28,-1.383l1.331,-1.305l1.408,-1.255l1.459,-1.178l-10.522,-18.228l-12.775,35.126Zm21.096,4.122l-0.436,1.51l-0.358,1.511l-0.256,1.536l18.024,0l-9.268,-16.052l-1.153,1.049l-1.075,1.101l-1.023,1.178l-0.948,1.254l-0.87,1.28l-0.794,1.357l-0.717,1.383l-0.614,1.434l-0.512,1.459Zm-39.964,7.885l0.051,0.948l0.128,0.947l0.23,0.922l0.333,0.896l0.41,0.845l0.486,0.819l0.563,0.768l0.64,0.691l0.692,0.64l0.768,0.563l0.819,0.487l0.845,0.41l0.896,0.332l0.922,0.231l0.947,0.128l0.947,0.051l0.947,-0.051l0.948,-0.128l0.921,-0.231l0.896,-0.332l0.845,-0.41l0.819,-0.487l0.769,-0.563l0.691,-0.64l0.64,-0.691l0.563,-0.768l0.486,-0.819l0.41,-0.845l0.333,-0.896l0.23,-0.922l0.128,-0.947l0.052,-0.948l-0.052,-0.947l-0.128,-0.947l-0.23,-0.922l-0.333,-0.896l-0.41,-0.845l-0.486,-0.819l-0.563,-0.768l-0.64,-0.691l-0.691,-0.64l-0.769,-0.564l-0.819,-0.486l-0.845,-0.41l-0.896,-0.333l-0.921,-0.23l-0.948,-0.128l-0.947,-0.051l-0.947,0.051l-0.947,0.128l-0.922,0.23l-0.896,0.333l-0.845,0.41l-0.819,0.486l-0.768,0.564l-0.692,0.64l-0.64,0.691l-0.563,0.768l-0.486,0.819l-0.41,0.845l-0.333,0.896l-0.23,0.922l-0.128,0.947l-0.051,0.947Zm65.489,3.329l-26.575,-0l0.256,1.587l0.358,1.562l0.461,1.536l0.564,1.485l0.64,1.485l0.742,1.408l0.819,1.382l0.922,1.332l0.998,1.254l1.076,1.178l1.126,1.126l1.229,1.05l1.28,0.973l1.332,0.896l1.382,0.794l1.433,0.717l1.486,0.614l1.51,0.538l1.536,0.435l1.588,0.307l1.586,0.256l1.588,0.128l1.613,0.026l1.587,-0.077l1.587,-0.179l1.588,-0.256l1.562,-0.384l1.536,-0.461l1.51,-0.563l1.459,-0.666l1.408,-0.742l1.383,-0.845l1.305,-0.922l1.255,-0.999l1.178,-1.075l1.101,-1.152l1.049,-1.229l0.973,-1.28l0.871,-1.357l0.793,-1.382l0.692,-1.434l0.614,-1.485l0.512,-1.536l0.409,-1.536l0.334,-1.562l0.204,-1.587l0.128,-1.613l0.026,-1.613l-0.077,-1.588l-0.205,-1.587l-0.281,-1.587l-0.384,-1.562l-0.487,-1.511l-0.563,-1.51l-0.666,-1.459l-0.768,-1.409l-0.844,-1.356l-0.948,-1.306l-0.998,-1.255l-1.101,-1.177l-1.153,-1.101l-1.228,-1.024l-1.281,-0.948l-1.356,-0.87l-1.408,-0.768l-1.434,-0.691l-1.485,-0.615l-1.536,-0.486l-1.561,-0.41l-1.562,-0.307l-1.587,-0.205l-1.613,-0.128l-1.588,-0l-1.613,0.102l-1.587,0.205l-1.562,0.282l-1.561,0.409l-1.537,0.487l12.852,22.248l0.257,0.512l0.128,0.564l0.051,0.588l-0.051,0.564l-0.128,0.563l-0.257,0.538l-0.332,0.46l-0.41,0.41l-0.487,0.333l-0.511,0.256l-0.563,0.153l-0.589,0.052Zm-158.372,-11.803l-0.486,1.511l-0.384,1.561l-0.308,1.562l-0.179,1.587l-0.102,1.588l0.025,1.587l0.103,1.613l0.205,1.562l0.307,1.561l0.409,1.562l0.487,1.511l0.614,1.485l0.666,1.433l0.794,1.383l0.844,1.357l0.948,1.28l1.024,1.229l1.101,1.152l1.177,1.075l1.229,1.024l1.28,0.922l1.357,0.845l1.408,0.768l1.434,0.666l1.51,0.588l1.511,0.487l1.536,0.384l1.587,0.282l1.562,0.204l1.613,0.103l1.587,-0.026l1.587,-0.102l1.588,-0.205l1.561,-0.307l1.537,-0.41l1.51,-0.486l1.485,-0.589l1.434,-0.691l1.408,-0.769l1.331,-0.87l1.306,-0.947l1.203,-1.024l1.178,-1.101l1.075,-1.152l1.024,-1.229l0.922,-1.306l0.845,-1.357l0.768,-1.382l0.665,-1.46l0.589,-1.485l0.486,-1.51l0.384,-1.562l0.308,-1.562l0.179,-1.587l0.102,-1.587l0,-1.588l-0.128,-1.587l-0.204,-1.587l-0.308,-1.562l-0.384,-1.562l-0.512,-1.51l-0.589,-1.485l-0.691,-1.434l-0.768,-1.383l-0.845,-1.356l-0.947,-1.281l-1.024,-1.228l-1.101,-1.153l-2.048,7.604l-0.384,1.306l-0.512,1.28l-0.563,1.229l-0.666,1.203l-0.768,1.127l-0.819,1.075l-0.896,1.024l-0.973,0.973l-1.05,0.871l-1.101,0.819l-1.152,0.742l-1.178,0.64l-1.254,0.564l-1.28,0.46l-1.306,0.384l-1.331,0.308l-0.589,0.051l-0.589,-0.051l-0.563,-0.128l-0.538,-0.231l-0.486,-0.307l-0.435,-0.384l-0.384,-0.461l-0.307,-0.486l-0.205,-0.564l-0.128,-0.563l-0.026,-0.589l0.077,-0.563l0.153,-0.563l0.257,-0.538l0.332,-0.486l0.384,-0.435l0.487,-0.333l1.305,-0.922l1.281,-1.024l1.203,-1.101l1.101,-1.152l1.049,-1.255l0.948,-1.305l0.844,-1.383l0.769,-1.408l0.691,-1.485l0.563,-1.51l0.461,-1.562l1.664,-6.221l-1.485,-0.589l-1.51,-0.461l-1.562,-0.41l-1.562,-0.281l-1.587,-0.18l-1.587,-0.102l-1.588,0.026l-1.587,0.102l-1.587,0.205l-1.562,0.307l-1.562,0.41l-1.51,0.512l-1.46,0.589l-1.459,0.691l-1.382,0.768l-1.332,0.87l-1.305,0.948l-1.204,1.024l-1.177,1.101l-1.076,1.152l-0.998,1.229l-0.947,1.305l-0.845,1.357l-0.743,1.408l-0.691,1.434l-0.563,1.485Zm93.344,-3.507l0.972,-0.692l-3.123,-6.682l-6.349,0l-0,-4.839l4.096,0l0.41,-0.512l0.512,-0.461l0.589,-0.358l0.614,-0.256l0.666,-0.179l0.665,-0.051l0.692,0.051l0.665,0.179l0.615,0.256l0.563,0.358l0.512,0.461l0.435,0.512l4.096,0l0,4.839l-4.096,0l2.279,4.89l1.229,-0.333l1.28,-0.205l1.28,-0.102l1.28,0l12.109,-33.283l-65.361,0l-1.357,5.069l44.727,31.338Z" style="fill:#fff;"/><path d="M409.218,222.289l-0.48,-0.256l-0.353,-0.352l-0.288,-0.448l-0.128,-0.48l-0,-0.544l0.16,-0.481l0.256,-0.448l0.769,-0.768l0.705,-0.832l0.577,-0.897l0.48,-0.992l0.353,-1.024l0.256,-1.056l0.128,-1.057l0,-1.088l-0.128,-1.088l-0.224,-1.057l-0.353,-1.024l-0.48,-0.992l-0.577,-0.897l-0.673,-0.864l-0.769,-0.768l-0.865,-0.672l-0.929,-0.576l-0.961,-0.449l-1.026,-0.352l-1.089,-0.224l-1.057,-0.128l-1.09,0l-1.089,0.128l-1.057,0.256l-1.026,0.385l-0.961,0.48l-0.897,0.576l-0.865,0.704l-0.737,0.768l-0.673,0.865l-0.576,0.928l-0.449,0.992l-0.32,1.024l-0.225,1.057l-0.096,1.088l0,1.088l0.16,1.057l0.257,1.056l0.384,1.024l0.481,0.961l0.609,0.896l0.704,0.832l0.801,0.768l0.289,0.32l0.256,0.416l0.128,0.417l0.032,0.48l-0.064,0.448l-0.16,0.416l-0.256,0.384l-0.353,0.32l-0.416,0.224l-0.417,0.128l-1.762,0.256l-1.794,0.16l-1.762,0.064l-1.795,-0.064l-1.762,-0.128l-1.762,-0.256l-2.533,-5.671l-0.126,-0.026l-0.641,-0.032l-14.803,-63.859l-0.256,-0.896l-0.352,-0.865l-0.481,-0.832l-0.577,-0.768l-0.64,-0.672l-0.705,-0.641l-0.801,-0.512l-2.243,-1.248l-2.275,-1.152l-2.339,-1.025l-2.403,-0.96l-2.403,-0.832l-2.467,-0.704l-0.513,-0.129l-0.48,-0.256l-0.417,-0.384l-0.32,-0.448l-0.192,-0.48l-0.064,-0.544l0.064,-0.544l0.16,-0.512l0.288,-0.449l1.154,-1.632l1.057,-1.697l0.961,-1.728l0.865,-1.793l0.545,-1.216l0.416,-1.28l0.321,-1.281l0.192,-1.312l0.032,-1.344l-0.096,-1.345l-0.192,-1.312l-0.353,-1.281l-0.448,-1.248l-0.609,-1.216l-0.705,-1.121l-0.801,-1.056l-0.897,-0.992l-0.993,-0.865l-1.09,-0.8l-1.153,-0.672l-1.218,-0.544l-1.249,-0.448l-1.314,-0.288l-1.313,-0.192l-1.346,-0.032l-1.314,0.064l-1.345,0.224l-1.282,0.32l-1.249,0.48l-1.186,0.576l-1.153,0.704l-1.058,0.8l-0.993,0.897l-0.865,0.992l-0.801,1.088l-0.673,1.153l-0.545,1.216l-0.448,1.248l-0.321,1.281l-0.192,1.344l-0.032,1.313l0.064,1.344l0.225,1.312l0.32,1.281l0.449,1.248l0.961,2.081l1.057,2.016l1.218,1.953l1.313,1.888l0.257,0.417l0.16,0.512l0.032,0.512l-0.064,0.512l-0.193,0.48l-0.288,0.416l-0.352,0.352l-0.449,0.288l-0.513,0.161l-2.21,0.512l-2.211,0.64l-2.179,0.736l-2.114,0.832l-2.083,0.961l-2.019,1.056l-1.986,1.152l-1.922,1.249l-1.859,1.344l-1.762,1.44l-0.833,0.833l-0.737,0.928l-0.609,0.992l-0.448,1.089l-0.321,1.12l-5.03,24.615l-0.288,33.514l0.032,0.832l-0.096,0.801l-0.161,0.8l-0.32,0.768l-0.384,0.704l-0.225,0.768l-0.128,0.801l-0.032,0.832l0.096,0.8l0.225,0.768l0.32,0.769l0.416,0.672l0.545,0.64l0.577,0.544l0.673,0.448l0.737,0.352l0.769,0.256l0.801,0.129l0.833,-0l0.801,-0.065l0.769,-0.224l0.736,-0.32l0.705,-0.416l0.641,-0.512l0.545,-0.576l0.448,-0.672l0.385,-0.737l0.256,-0.768l0.128,-0.8l0.032,-0.8l-0.096,-0.832l-0.192,-0.769l-0.417,-0.864l-0.32,-0.896l-0.256,-0.896l-0.321,-2.721l-0.224,-2.721l-0.096,-2.753l0.032,-2.721l0.16,-2.72l0.289,-2.721l0.384,-2.721l0.513,-2.689l0.64,-2.657l0.737,-2.624l0.898,-2.593l0.961,-2.561l1.089,-2.497l1.218,-2.464l1.313,-2.401l1.41,-2.337l1.506,-2.273l-4.197,42.637l-0.193,2.625l-0.128,2.657l0,2.624l0.096,2.657l1.282,22.183l5.991,48.11l-1.57,2.625l-0.256,0.384l-0.192,0.416l-0.096,0.416l0.032,0.48l0.096,0.416l0.224,0.416l0.257,0.353l0.384,0.288l0.385,0.192l0.448,0.096l0.449,-0l0.448,-0.096l0.417,-0.16l0.352,-0.288l6.985,-6.498l0.416,-0.448l0.289,-0.577l0.16,-0.608l-0,-0.608l-0.481,-5.25l-0.32,-5.249l-0.224,-5.25l-0.096,-5.249l0.032,-5.25l0.16,-5.281l0.256,-5.25l0.385,-5.249l1.858,-24.872l0.993,4.578l0.929,4.577l0.801,4.577l0.673,4.61l0.577,4.641l0.512,8.675l0.385,8.642l0.256,8.707l0.16,8.674l0.065,8.675l0.064,0.64l0.256,0.608l0.352,0.544l0.481,0.416l10.413,7.363l0.417,0.224l0.448,0.096l0.481,-0l0.448,-0.128l0.385,-0.256l0.352,-0.32l0.224,-0.417l0.129,-0.448l0.032,-0.448l-0.129,-0.48l-0.224,-0.416l-3.46,-4.674l5.639,-67.475l-1.378,-54.352l18.039,46.413l-0.545,0.16l-0.513,0.288l-0.448,0.384l-0.353,0.449l-0.256,0.512l-0.16,0.544l-0.032,0.576l0.064,0.576l0.192,0.544l0.288,0.513l0.385,0.416l2.339,1.632l2.371,1.505l2.435,1.408l2.531,1.312l2.563,1.185l2.595,1.088l2.66,0.992l0.352,0.192l0.289,0.257l0.192,0.352l0.064,0.416l-0.032,0.384l-7.85,32.393l-0.16,1.025l-0,1.024l0.096,1.024l0.256,0.993l0.385,0.96l0.512,0.896l0.609,0.832l0.737,0.737l0.801,0.608l0.897,0.544l0.961,0.384l2.82,17.605l0.064,0.672l-0.128,0.705l-0.224,0.672l-0.385,0.576l-2.275,2.913l-0.224,0.384l-0.128,0.384l-0,0.448l0.096,0.384l0.224,0.385l0.289,0.32l0.352,0.192l0.417,0.128l0.416,0.032l0.417,-0.096l0.352,-0.192l6.248,-4.418l0.48,-0.416l0.385,-0.544l0.224,-0.608l0.064,-0.64l0.032,-21.095l0.032,-0.256l0.128,-0.256l0.225,-0.128l0.288,-0.064l0.256,0.064l0.225,0.128l1.409,1.185l0.513,0.512l0.385,0.608l0.32,0.672l0.16,0.704l3.364,17.253l0.193,0.769l0.32,0.736l0.417,0.672l0.512,0.608l0.609,0.512l0.673,0.449l3.588,2.336l0.385,0.16l0.448,0.064l0.417,-0.096l0.352,-0.224l0.289,-0.288l0.16,-0.416l0.064,-0.416l-0.096,-0.416l-0.192,-0.352l-0.994,-1.249l-0.352,-0.48l-0.224,-0.512l-0.129,-0.576l0,-25.448l0.962,-0.352l0.32,-0.16l0.257,-0.224l0.146,-0.264l0.046,-0.696l-0.865,-4.738l-0.737,-4.737l-0.545,-4.801l-0.192,-1.953l-0.096,-1.985l0.064,-1.952l0.192,-1.985l0.32,-1.92l0.449,-1.921l0.577,-1.888l2.435,3.425l2.146,13.988l-0.064,0.512l-0.192,0.48l-0.256,0.448l-0.353,0.352l-0.48,0.352l-0.385,0.449l-0.288,0.48l-0.16,0.544l-0.065,0.576l0.065,0.576l0.16,0.576l0.288,0.512l0.353,0.417l0.48,0.352l0.673,0.352l0.705,0.224l0.737,0.128l0.769,-0l0.544,-0.064l0.769,-0.224l0.737,-0.32l0.673,-0.448l0.609,-0.545l0.513,-0.64l0.384,-0.704l0.256,-0.768l0.257,-3.489l0.128,-3.521l-0.032,-3.521l-0.16,-3.489l-0.353,-4.098l-0.513,-4.065l-0.608,-4.065l-0.321,-1.472l-0.448,-1.441l-0.545,-1.376l-0.673,-1.345l-0.801,-1.28l-0.897,-1.216l-0.993,-1.121l-1.089,-1.056l-1.186,-0.928l-1.249,-0.832l-1.314,-0.737l-1.378,-0.608Z" style="fill:#fff;"/><rect x="263.038" y="30.219" width="15.118" height="393.071" style="fill:#fff;"/></g></svg>