<?xml version="1.0" encoding="UTF-8" standalone="no"?><!DOCTYPE svg PUBLIC "-//W3C//DTD SVG 1.1//EN" "http://www.w3.org/Graphics/SVG/1.1/DTD/svg11.dtd"><svg width="100%" height="100%" viewBox="0 0 780 756" version="1.1" xmlns="http://www.w3.org/2000/svg" xmlns:xlink="http://www.w3.org/1999/xlink" xml:space="preserve" xmlns:serif="http://www.serif.com/" style="fill-rule:evenodd;clip-rule:evenodd;stroke-linejoin:round;stroke-miterlimit:2;"><g transform="matrix(64.5901,0,0,64.5901,693.485,377.164)"></g><text x="504.982px" y="377.164px" style="font-family:'ArialMT', 'Arial', sans-serif;font-size:64.59px;">sw=64</text><rect id="Cycle" x="0" y="0" width="779.528" height="755.906" style="fill:none;"/><clipPath id="_clip1"><rect x="0" y="0" width="779.528" height="755.906"/></clipPath><g clip-path="url(#_clip1)"><g><path d="M779.528,35.433c-0,-19.556 -15.877,-35.433 -35.434,-35.433l-708.661,0c-19.556,0 -35.433,15.877 -35.433,35.433l0,685.039c0,19.556 15.877,35.434 35.433,35.434l708.661,-0c19.557,-0 35.434,-15.878 35.434,-35.434l-0,-685.039Z" style="fill:#fff;"/><path d="M779.528,35.433l-0,685.039c-0,19.556 -15.877,35.434 -35.434,35.434l-708.661,-0c-19.556,-0 -35.433,-15.878 -35.433,-35.434l0,-685.039c0,-19.556 15.877,-35.433 35.433,-35.433l708.661,0c19.557,0 35.434,15.877 35.434,35.433Zm-1.182,0c0,-18.904 -15.347,-34.252 -34.252,-34.252l-708.661,0c-18.904,0 -34.252,15.348 -34.252,34.252l0,685.039c0,18.905 15.348,34.252 34.252,34.252l708.661,0c18.905,0 34.252,-15.347 34.252,-34.252l0,-685.039Z" style="fill:#0079c1;"/><path d="M596.457,17.717l-0,206.692l35.433,0l-0,-206.692l112.204,-0c9.779,-0 17.717,7.938 17.717,17.716l0,685.039c0,9.778 -7.938,17.717 -17.717,17.717l-708.661,-0c-9.778,-0 -17.716,-7.939 -17.716,-17.717l-0,-685.039c-0,-9.778 7.938,-17.716 17.716,-17.716l561.024,-0Z" style="fill:#0079c1;"/><clipPath id="_clip2"><rect id="S24-Cycle-W.afdesign" serif:id="S24 Cycle W.afdesign" x="70.866" y="59.055" width="401.575" height="236.22"/></clipPath><g clip-path="url(#_clip2)"><path d="M311.382,249.172l2.051,-1.501l1.95,-1.6l1.75,-1.8l1.65,-1.95l1.45,-2.1l1.25,-2.2l1.05,-2.301l0.9,-2.35l0.651,-2.45l6.949,0l0.401,3.65l0.65,3.651l0.799,3.65l1.001,3.55l1.2,3.501l1.351,3.45l1.55,3.35l1.749,3.3l1.9,3.151l2.05,3.1l2.201,2.95l2.401,2.85l2.5,2.751l2.649,2.6l2.75,2.45l2.952,2.25l2.999,2.151l3.151,2l3.2,1.8l3.351,1.65l3.399,1.45l3.45,1.3l3.551,1.1l3.601,0.95l3.6,0.7l3.7,0.551l3.651,0.35l3.7,0.15l3.7,-0.05l3.701,-0.25l3.7,-0.4l3.65,-0.651l3.601,-0.8l3.599,-1l3.5,-1.15l3.452,-1.4l3.349,-1.5l3.3,-1.75l3.201,-1.85l3.05,-2.051l3.001,-2.2l2.85,-2.4l2.75,-2.5l2.55,-2.65l2.45,-2.751l2.351,-2.9l2.15,-3.05l1.95,-3.1l1.851,-3.251l1.65,-3.3l1.449,-3.4l1.3,-3.451l1.1,-3.55l0.951,-3.6l0.749,-3.6l0.551,-3.651l0.35,-3.7l0.15,-3.7l-0.05,-3.701l-0.2,-3.7l-0.45,-3.7l-0.601,-3.651l-0.799,-3.6l-0.95,-3.6l-1.2,-3.501l-1.35,-3.45l-1.55,-3.35l-1.701,-3.301l-1.85,-3.2l-2.051,-3.1l-2.199,-2.95l-2.351,-2.901l-2.5,-2.7l-2.65,-2.6l-2.751,-2.45l-2.899,-2.35l-3.051,-2.151l-3.1,-2l-3.2,-1.8l-3.35,-1.65l-3.4,-1.5l-3.452,-1.3l-3.549,-1.15l-3.55,-0.901l-3.651,-0.75l-3.65,-0.55l-3.7,-0.4l-3.701,-0.15l-3.7,0l-3.7,0.25l-3.701,0.4l-3.65,0.6l-3.601,0.8l-3.55,0.951l-3.551,1.2l-3.449,1.35l-27.953,-48.454l5.451,-15.002l1.999,-0.25l1.951,-0.45l1.95,-0.65l1.851,-0.8l1.749,-1l1.701,-1.15l1.55,-1.3l1.4,-1.45l1.3,-1.6l1.1,-1.701l0.95,-1.75l0.8,-1.9l0.551,-1.95l0.1,-0.6l-0.1,-0.6l-0.251,-0.55l-0.35,-0.5l-0.5,-0.35l-0.55,-0.25l-0.6,-0.1l-61.105,-0l-1,0.1l-1,0.25l-0.9,0.45l-0.85,0.55l-0.7,0.7l-0.6,0.85l-0.45,0.9l-0.3,1l-0.1,1l0.05,1l0.25,1l0.4,0.9l0.55,0.85l0.7,0.751l0.8,0.6l0.9,0.5l1,0.3l27.302,6.05l-6.451,17.702l-129.36,-0l2.85,-10.601l0.35,-1.75l0.15,-1.7l-0,-1.751l-0.15,-1.75l-0.4,-1.7l-0.55,-1.7l-0.7,-1.55l-0.9,-1.55l-1.051,-1.4l-1.2,-1.251l-1.3,-1.2l-1.45,-1l-0.65,-0.5l-0.5,-0.65l-0.35,-0.75l-0.15,-0.85l0.05,-0.8l0.25,-0.8l0.4,-0.75l0.55,-0.6l0.7,-0.45l0.8,-0.3l0.8,-0.1l27.153,-0l-0,-17.702l-33.053,0l-1.85,0.1l-1.801,0.25l-1.75,0.45l-1.7,0.6l-1.65,0.75l-1.6,0.95l-1.45,1.05l-1.4,1.201l-1.25,1.35l-1.101,1.45l-0.95,1.55l-0.8,1.65l-0.65,1.7l-0.5,1.75l-0.3,1.801l-0.15,1.8l0.05,1.85l0.2,1.8l0.4,1.75l0.55,1.75l0.75,1.7l0.85,1.551l1.05,1.55l1.151,1.4l1.3,1.25l1.45,1.15l1.5,1l0.9,0.65l0.75,0.8l0.6,0.9l0.4,1l0.2,1.101l0.05,1.1l-0.2,1.05l-15.351,57.255l-3.5,-1.2l-3.551,-1l-3.65,-0.851l-3.65,-0.65l-3.701,-0.5l-3.7,-0.25l-3.7,-0.05l-3.701,0.1l-3.7,0.35l-3.7,0.5l-3.651,0.7l-3.6,0.901l-3.55,1.05l-3.501,1.3l-3.4,1.4l-3.35,1.65l-3.25,1.8l-3.151,1.95l-3.05,2.151l-2.9,2.25l-2.8,2.45l-2.701,2.55l-2.5,2.75l-2.4,2.851l-2.25,2.95l-2.1,3.05l-1.901,3.2l-1.75,3.251l-1.55,3.4l-1.4,3.45l-1.2,3.501l-1.05,3.55l-0.85,3.6l-0.65,3.701l-0.45,3.65l-0.25,3.7l-0.05,3.7l0.1,3.751l0.35,3.7l0.5,3.65l0.7,3.651l0.9,3.6l1.1,3.55l1.25,3.501l1.45,3.4l1.65,3.35l1.8,3.251l1.951,3.15l2.15,3.05l2.25,2.9l2.45,2.801l2.6,2.7l2.701,2.5l2.85,2.4l2.95,2.25l3.1,2.051l3.151,1.95l3.3,1.7l3.35,1.6l3.451,1.4l3.5,1.2l3.6,1l3.6,0.85l3.651,0.651l3.7,0.45l3.7,0.25l3.701,0.05l3.75,-0.15l3.65,-0.3l3.701,-0.55l3.65,-0.701l3.6,-0.9l3.551,-1.1l3.5,-1.25l3.4,-1.45l3.351,-1.65l3.25,-1.8l3.15,-1.95l3,-2.151l2.951,-2.3l2.8,-2.4l2.65,-2.6l2.55,-2.7l2.351,-2.851l2.25,-3l2.05,-3.05l1.95,-3.201l1.7,-3.3l1.6,-3.35l1.35,-3.45l1.201,-3.501l1.05,-3.6l0.8,-3.6l0.65,-3.651l0.45,-3.7l0.25,-3.7l0.05,-3.701l-0.1,-3.7l-0.35,-3.7l-0.55,-3.701l-0.7,-3.65l-0.9,-3.6l-1.1,-3.551l-1.251,-3.45l-1.5,-3.45l-1.6,-3.3l-1.8,-3.251l-2,-3.15l-2.15,-3.05l-2.251,-2.9l-2.45,-2.801l-2.6,-2.65l-2.7,-2.55l-2.85,-2.35l-3.001,-2.251l2.3,-8.55l82.108,57.455l-0.65,2.4l-0.451,2.4l-0.25,2.45l0,2.451l0.15,2.5l0.4,2.4l0.551,2.4l0.8,2.35l0.95,2.301l1.15,2.15l1.35,2.1l1.5,1.95l1.65,1.8l1.8,1.7l1.951,1.501l2.05,1.35l2.2,1.2l2.25,1l2.35,0.8l2.35,0.6l2.451,0.4l2.45,0.2l2.5,0l2.45,-0.25l2.401,-0.4l2.4,-0.6l4.45,9.551l-8.001,-0l0,9.451l8.001,-0l0.85,1l0.95,0.9l1.15,0.7l1.2,0.5l1.301,0.3l1.3,0.15l1.35,-0.15l1.3,-0.3l1.2,-0.5l1.1,-0.7l1,-0.9l0.85,-1l8,-0l0,-9.451l-12.4,-0l-6.101,-13.051Zm50.305,4.75l1.949,2.45l2.101,2.3l2.2,2.201l2.401,2.05l2.5,1.9l2.6,1.75l2.7,1.55l2.8,1.4l2.901,1.2l2.95,1.051l2.999,0.85l3.101,0.6l3.1,0.5l3.101,0.25l3.149,0.05l3.102,-0.15l3.099,-0.35l3.101,-0.5l3.05,-0.75l3.001,-0.9l2.95,-1.101l2.849,-1.3l2.751,-1.45l2.701,-1.65l2.549,-1.8l2.451,-1.95l2.299,-2.1l2.151,-2.251l2.051,-2.4l1.899,-2.5l1.701,-2.65l1.55,-2.701l1.35,-2.8l1.2,-2.9l1,-3l0.8,-3.001l0.65,-3.05l0.4,-3.1l0.25,-3.15l0.05,-3.151l-0.15,-3.1l-0.4,-3.1l-0.55,-3.1l-0.75,-3.051l-0.951,-2.95l-1.1,-2.95l-1.3,-2.85l-1.499,-2.751l-1.65,-2.65l-1.851,-2.55l-1.95,-2.45l-2.15,-2.301l-2.251,-2.15l-2.4,-2l-2.5,-1.85l-2.65,-1.7l-2.75,-1.5l-2.8,-1.35l-2.901,-1.201l-3,-0.95l-3.05,-0.8l-3.05,-0.6l-3.1,-0.4l-3.151,-0.25l-3.1,0l-3.15,0.2l-3.1,0.4l-3.052,0.55l-3.049,0.8l-3.001,0.95l25.102,43.454l0.501,1l0.25,1.1l0.1,1.15l-0.1,1.101l-0.25,1.1l-0.501,1.05l-0.649,0.9l-0.801,0.8l-0.95,0.65l-0.999,0.5l-1.1,0.3l-1.151,0.1l-51.905,0l0.501,3.1l0.699,3.051l0.901,3l1.1,2.9l1.25,2.9l1.45,2.751l1.6,2.7l1.801,2.6Zm-203.818,-63.005l3.25,-12.152l-2.9,-1.15l-2.95,-0.9l-3.05,-0.8l-3.051,-0.55l-3.1,-0.35l-3.1,-0.2l-3.1,0.05l-3.101,0.2l-3.1,0.4l-3.05,0.6l-3.051,0.8l-2.95,1l-2.85,1.151l-2.85,1.35l-2.701,1.5l-2.6,1.7l-2.55,1.85l-2.35,2l-2.3,2.15l-2.101,2.251l-1.95,2.4l-1.85,2.55l-1.65,2.65l-1.45,2.751l-1.35,2.8l-1.1,2.9l-0.95,2.95l-0.751,3.051l-0.6,3.05l-0.35,3.1l-0.2,3.1l0.05,3.101l0.2,3.15l0.4,3.05l0.601,3.05l0.8,3.051l0.95,2.95l1.2,2.9l1.3,2.8l1.55,2.701l1.65,2.65l1.85,2.5l2,2.4l2.151,2.251l2.3,2.1l2.4,2l2.5,1.8l2.651,1.65l2.75,1.5l2.8,1.3l2.95,1.151l2.951,0.95l3,0.75l3.1,0.55l3.05,0.4l3.151,0.2l3.1,-0.05l3.1,-0.2l3.1,-0.4l3.051,-0.6l3,-0.8l2.95,-0.951l2.9,-1.15l2.801,-1.35l2.75,-1.5l2.6,-1.7l2.55,-1.85l2.351,-2l2.3,-2.151l2.1,-2.25l2,-2.4l1.8,-2.55l1.65,-2.65l1.501,-2.701l1.3,-2.85l1.15,-2.9l0.95,-2.95l0.75,-3.051l0.6,-3.05l0.35,-3.1l0.2,-3.1l-0,-3.101l-0.25,-3.1l-0.4,-3.1l-0.6,-3.051l-0.75,-3.05l-1,-2.95l-1.15,-2.9l-1.35,-2.801l-1.501,-2.7l-1.65,-2.65l-1.85,-2.5l-2,-2.4l-2.15,-2.251l-4.001,14.852l-0.75,2.55l-1,2.5l-1.1,2.4l-1.3,2.351l-1.5,2.2l-1.6,2.1l-1.75,2l-1.901,1.9l-2.05,1.7l-2.15,1.601l-2.25,1.45l-2.3,1.25l-2.451,1.1l-2.5,0.9l-2.55,0.75l-2.6,0.6l-1.15,0.1l-1.15,-0.1l-1.1,-0.25l-1.051,-0.45l-0.95,-0.6l-0.85,-0.75l-0.75,-0.9l-0.6,-0.95l-0.4,-1.1l-0.25,-1.1l-0.05,-1.151l0.15,-1.1l0.3,-1.1l0.5,-1.05l0.65,-0.95l0.75,-0.85l0.95,-0.65l2.551,-1.8l2.5,-2l2.35,-2.151l2.15,-2.25l2.05,-2.45l1.851,-2.55l1.65,-2.7l1.5,-2.751l1.35,-2.9l1.1,-2.95l0.9,-3.05Zm156.214,31.652l-0.25,-1.85l-0.45,-1.8l-0.65,-1.75l-0.801,-1.65l-0.95,-1.6l-1.1,-1.501l-1.25,-1.35l-1.35,-1.25l-1.5,-1.1l-1.6,-0.95l-1.65,-0.8l-1.751,-0.65l-1.8,-0.45l-1.85,-0.25l-1.85,-0.1l-1.85,0.1l-1.85,0.25l-1.8,0.45l-1.751,0.65l-1.65,0.8l-1.6,0.95l-1.5,1.1l-1.35,1.25l-1.25,1.35l-1.1,1.501l-0.95,1.6l-0.801,1.65l-0.65,1.75l-0.45,1.8l-0.25,1.85l-0.1,1.85l0.1,1.851l0.25,1.85l0.45,1.8l0.65,1.75l0.801,1.65l0.95,1.6l1.1,1.5l1.25,1.351l1.35,1.25l1.5,1.1l1.6,0.95l1.65,0.8l1.751,0.65l1.8,0.45l1.85,0.25l1.85,0.1l1.85,-0.1l1.85,-0.25l1.8,-0.45l1.751,-0.65l1.65,-0.8l1.6,-0.95l1.5,-1.1l1.35,-1.25l1.25,-1.351l1.1,-1.5l0.95,-1.6l0.801,-1.65l0.65,-1.75l0.45,-1.8l0.25,-1.85l0.1,-1.851l-0.1,-1.85Zm73.506,-4.65l-18.102,-31.353l-2.251,2.05l-2.1,2.151l-1.999,2.3l-1.851,2.45l-1.699,2.5l-1.551,2.65l-1.4,2.701l-1.2,2.8l-1,2.85l-0.851,2.95l-0.699,2.951l-0.501,3l35.204,-0Zm-28.853,-49.954l-2.851,2.3l-2.749,2.45l-2.6,2.55l-2.5,2.7l-2.351,2.851l-2.151,2.95l-2.05,3.1l-1.85,3.15l-1.699,3.251l-1.55,3.35l-1.351,3.4l-1.15,3.501l-1.001,3.55l-0.799,3.6l-0.65,3.601l-0.401,3.65l-6.949,-0l-0.651,-2.5l-0.9,-2.401l-1.1,-2.3l-1.3,-2.2l-1.45,-2.1l-1.65,-2l-1.85,-1.8l-1.95,-1.651l24.952,-68.606l20.551,35.604Zm-98.058,18.651l12.401,0l6.101,13.051l-1.901,1.35l-87.357,-61.205l2.65,-9.901l127.661,0l-23.652,65.006l-2.5,-0l-2.5,0.2l-2.501,0.4l-2.4,0.65l-4.45,-9.551l8.001,0l-0,-9.451l-8.001,0l-0.85,-1l-1,-0.9l-1.1,-0.7l-1.2,-0.5l-1.301,-0.35l-1.35,-0.1l-1.3,0.1l-1.3,0.35l-1.2,0.5l-1.15,0.7l-1,0.9l-0.8,1l-8.001,0l0,9.451Z" style="fill:#fff;"/></g><g><path d="M127.777,621.228l-72.382,60.736l22.776,27.143l72.382,-60.736l-22.776,-27.143Z" style="fill:#fff;"/><path d="M236.351,530.124l-72.383,60.736l22.776,27.143l72.383,-60.736l-22.776,-27.143Z" style="fill:#fff;"/><path d="M344.924,439.02l-72.382,60.736l22.776,27.143l72.382,-60.735l-22.776,-27.144Z" style="fill:#fff;"/><path d="M453.497,347.916l-72.382,60.736l22.776,27.144l72.382,-60.736l-22.776,-27.144Z" style="fill:#fff;"/><path d="M562.07,256.813l-72.382,60.736l22.776,27.143l72.382,-60.736l-22.776,-27.143Z" style="fill:#fff;"/></g></g></g></svg>