<?xml version="1.0" encoding="UTF-8" standalone="no"?><!DOCTYPE svg PUBLIC "-//W3C//DTD SVG 1.1//EN" "http://www.w3.org/Graphics/SVG/1.1/DTD/svg11.dtd"><svg width="100%" height="100%" viewBox="0 0 780 1117" version="1.1" xmlns="http://www.w3.org/2000/svg" xmlns:xlink="http://www.w3.org/1999/xlink" xml:space="preserve" xmlns:serif="http://www.serif.com/" style="fill-rule:evenodd;clip-rule:evenodd;stroke-linejoin:round;stroke-miterlimit:2;"><g transform="matrix(64.5901,0,0,64.5901,511.249,580.889)"></g><text x="268.878px" y="580.889px" style="font-family:'ArialMT', 'Arial', sans-serif;font-size:64.59px;">sw=94.5</text><rect id="Artboard1" x="0" y="0" width="779.528" height="1116.14" style="fill:none;"/><clipPath id="_clip1"><rect id="Artboard11" serif:id="Artboard1" x="0" y="0" width="779.528" height="1116.14"/></clipPath><g clip-path="url(#_clip1)"><path d="M780.528,35.433c-0,-19.556 -15.877,-35.433 -35.434,-35.433l-708.661,0c-19.556,0 -35.433,15.877 -35.433,35.433l-0,1045.28c-0,19.556 15.877,35.433 35.433,35.433l708.661,-0c19.557,-0 35.434,-15.877 35.434,-35.433l-0,-1045.28Z" style="fill:#fff;"/><path d="M780.528,35.433l-0,1045.28c-0,19.556 -15.877,35.433 -35.434,35.433l-708.661,-0c-19.556,-0 -35.433,-15.877 -35.433,-35.433l-0,-1045.28c-0,-19.556 15.877,-35.433 35.433,-35.433l708.661,0c19.557,0 35.434,15.877 35.434,35.433Zm-1.182,0c0,-18.904 -15.347,-34.252 -34.252,-34.252l-708.661,0c-18.904,0 -34.252,15.348 -34.252,34.252l0,1045.28c0,18.904 15.348,34.252 34.252,34.252l708.661,-0c18.905,-0 34.252,-15.348 34.252,-34.252l0,-1045.28Z" style="fill:#0079c1;"/><path d="M762.811,785.433c0,-9.778 -7.938,-17.716 -17.717,-17.716l-708.661,-0c-9.778,-0 -17.716,7.938 -17.716,17.716l-0,295.276c-0,9.778 7.938,17.716 17.716,17.716l708.661,0c9.779,0 17.717,-7.938 17.717,-17.716l0,-295.276Z" style="fill:#0079c1;"/><path d="M597.457,17.717l-561.024,-0c-9.778,-0 -17.716,7.938 -17.716,17.716l-0,696.85c-0,9.778 7.938,17.717 17.716,17.717l561.024,0l-0,-732.283Z" style="fill:#0079c1;"/><path d="M632.89,17.717l112.204,-0c9.779,-0 17.717,7.938 17.717,17.716l0,696.85c0,9.778 -7.938,17.717 -17.717,17.717l-112.204,0l-0,-732.283Z" style="fill:#0079c1;"/><rect x="71.866" y="242.126" width="52.441" height="94.488" style="fill:#0079c1;"/><path d="M118.228,305.561l-4.537,7.431c-3.337,-0.313 -5.788,-1.851 -7.352,-4.615c-1.356,1.2 -3.051,2.229 -5.085,3.09c-2.033,0.86 -4.51,1.29 -7.43,1.29c-2.138,0 -4.172,-0.286 -6.101,-0.86c-1.93,-0.574 -3.611,-1.421 -5.045,-2.542c-1.434,-1.121 -2.582,-2.529 -3.442,-4.224c-0.86,-1.695 -1.291,-3.663 -1.291,-5.905c0,-3.286 0.652,-5.893 1.956,-7.822c1.303,-1.93 2.842,-3.403 4.615,-4.42c1.773,-1.016 3.585,-1.681 5.436,-1.994c1.851,-0.313 3.324,-0.522 4.419,-0.626c0.626,-0.052 1.369,-0.117 2.229,-0.195c0.861,-0.079 1.747,-0.157 2.66,-0.235c0.912,-0.078 1.812,-0.144 2.698,-0.196c0.887,-0.052 1.669,-0.104 2.347,-0.156l0,-1.799c0,-2.347 -0.561,-4.081 -1.682,-5.202c-1.121,-1.121 -2.933,-1.681 -5.436,-1.681c-2.294,-0 -4.484,0.286 -6.57,0.86c-2.086,0.574 -4.172,1.486 -6.258,2.738l-3.676,-8.057c2.816,-1.669 5.632,-2.868 8.448,-3.598c2.815,-0.73 5.762,-1.095 8.838,-1.095c5.371,0 9.426,1.369 12.163,4.107c2.738,2.737 4.107,6.896 4.107,12.475l-0,16.974c-0,1.669 0.3,2.985 0.899,3.95c0.6,0.965 1.63,1.734 3.09,2.307Zm-14.001,-6.961l-0,-7.118c-0.991,0.052 -2.164,0.117 -3.52,0.196c-1.356,0.078 -2.503,0.169 -3.442,0.273c-1.043,0.105 -2.099,0.248 -3.168,0.43c-1.069,0.183 -2.046,0.496 -2.933,0.939c-0.886,0.443 -1.616,1.069 -2.19,1.877c-0.573,0.809 -0.86,1.917 -0.86,3.325c-0,1.043 0.221,1.929 0.665,2.659c0.443,0.73 1.029,1.356 1.76,1.877c0.73,0.522 1.551,0.9 2.463,1.135c0.913,0.234 1.812,0.352 2.699,0.352c2.816,-0 4.941,-0.548 6.375,-1.643c1.434,-1.095 2.151,-2.529 2.151,-4.302Z" style="fill:#fff;fill-rule:nonzero;"/><rect x="216.906" y="242.126" width="52.913" height="94.488" style="fill:#0079c1;"/><path d="M263.035,312.992l-10.939,0l0,-30.951c0,-2.713 -0.664,-4.777 -1.992,-6.19c-1.329,-1.413 -3.265,-2.12 -5.809,-2.12c-2.714,0 -5.017,0.82 -6.911,2.459c-1.894,1.64 -2.841,3.986 -2.841,7.038l0,29.764l-10.854,0l0,-66.142l10.854,0l0,21.878c1.414,-1.583 3.265,-2.855 5.555,-3.816c2.289,-0.961 4.508,-1.441 6.656,-1.441c2.601,-0 4.918,0.395 6.953,1.187c2.036,0.791 3.746,1.908 5.131,3.349c1.385,1.442 2.431,3.166 3.137,5.173c0.707,2.007 1.06,4.226 1.06,6.656l0,33.156Z" style="fill:#fff;fill-rule:nonzero;"/><rect x="484.307" y="242.126" width="56.22" height="94.488" style="fill:#0079c1;"/><path d="M532.386,311.583l-10.776,-0l-0.083,-3.067c-1.437,1.437 -3.095,2.528 -4.974,3.274c-1.879,0.746 -3.979,1.119 -6.3,1.119c-3.261,0 -6.19,-0.718 -8.787,-2.155c-2.598,-1.437 -4.822,-3.302 -6.673,-5.596c-1.852,-2.293 -3.275,-4.89 -4.269,-7.792c-0.995,-2.901 -1.493,-5.844 -1.493,-8.828c0,-3.261 0.429,-6.425 1.285,-9.492c0.857,-3.067 2.169,-5.775 3.938,-8.123c1.768,-2.349 4.007,-4.228 6.714,-5.637c2.708,-1.41 5.886,-2.114 9.533,-2.114c2.156,-0 4.214,0.331 6.176,0.995c1.962,0.663 3.661,1.685 5.098,3.067l0,-20.393l10.611,0l-0,64.742Zm-10.445,-16.911l0,-12.932c0,-1.326 -0.318,-2.514 -0.953,-3.564c-0.636,-1.05 -1.437,-1.921 -2.404,-2.611c-0.967,-0.691 -2.031,-1.23 -3.192,-1.617c-1.16,-0.387 -2.265,-0.58 -3.315,-0.58c-1.99,-0 -3.745,0.387 -5.264,1.16c-1.52,0.774 -2.791,1.824 -3.814,3.151c-1.022,1.326 -1.796,2.901 -2.321,4.725c-0.525,1.823 -0.787,3.785 -0.787,5.885c-0,1.713 0.262,3.44 0.787,5.181c0.525,1.741 1.285,3.302 2.28,4.684c0.995,1.381 2.238,2.5 3.73,3.357c1.492,0.857 3.206,1.285 5.14,1.285c0.884,-0 1.92,-0.166 3.108,-0.497c1.189,-0.332 2.294,-0.829 3.316,-1.493c1.023,-0.663 1.893,-1.505 2.611,-2.528c0.719,-1.022 1.078,-2.224 1.078,-3.606Z" style="fill:#fff;fill-rule:nonzero;"/><rect x="124.307" y="242.126" width="54.331" height="94.488" style="fill:#0079c1;"/><path d="M170.41,311.619l-10.417,0l-0,-3.715c-1.4,1.508 -3.15,2.733 -5.25,3.675c-2.1,0.942 -4.226,1.413 -6.38,1.413c-2.584,0 -4.872,-0.39 -6.864,-1.171c-1.992,-0.781 -3.648,-1.871 -4.967,-3.271c-1.319,-1.399 -2.315,-3.042 -2.988,-4.926c-0.673,-1.884 -1.01,-3.93 -1.01,-6.138l0,-31.738l10.418,0l0,28.912c0,2.853 0.673,4.993 2.019,6.42c1.346,1.427 3.258,2.14 5.734,2.14c1.131,0 2.248,-0.161 3.352,-0.484c1.103,-0.323 2.099,-0.862 2.988,-1.615c0.888,-0.754 1.602,-1.71 2.14,-2.867c0.538,-1.158 0.808,-2.598 0.808,-4.321l-0,-28.185l10.417,0l0,45.871Z" style="fill:#fff;fill-rule:nonzero;"/><rect x="386.039" y="242.126" width="45.827" height="94.488" style="fill:#0079c1;"/><path d="M427.356,299.101c-0,2.407 -0.51,4.487 -1.53,6.239c-1.021,1.753 -2.381,3.192 -4.081,4.317c-1.701,1.125 -3.649,1.962 -5.847,2.511c-2.197,0.549 -4.473,0.824 -6.828,0.824c-3.453,0 -6.736,-0.51 -9.849,-1.53c-3.113,-1.02 -6.003,-2.708 -8.671,-5.062l6.278,-7.142c1.883,1.675 3.976,2.865 6.278,3.571c2.302,0.706 4.369,1.06 6.2,1.06c2.354,-0 4.172,-0.354 5.454,-1.06c1.282,-0.706 1.923,-1.87 1.923,-3.492c-0,-1.099 -0.563,-2.041 -1.687,-2.825c-1.125,-0.785 -2.603,-1.413 -4.434,-1.884l-7.77,-1.962c-1.412,-0.314 -2.786,-0.798 -4.12,-1.452c-1.334,-0.654 -2.537,-1.491 -3.61,-2.511c-1.072,-1.02 -1.923,-2.237 -2.551,-3.649c-0.627,-1.413 -0.941,-3.035 -0.941,-4.866c-0,-2.407 0.493,-4.512 1.48,-6.317c0.987,-1.805 2.298,-3.31 3.934,-4.513c1.635,-1.203 3.509,-2.106 5.622,-2.707c2.112,-0.602 4.267,-0.903 6.464,-0.903c3.192,0 6.266,0.484 9.222,1.452c2.956,0.968 5.663,2.446 8.122,4.434l-6.043,6.828c-1.36,-0.942 -2.969,-1.792 -4.826,-2.551c-1.857,-0.759 -3.806,-1.138 -5.847,-1.138c-2.249,0 -4.081,0.432 -5.493,1.295c-1.413,0.863 -2.119,2.053 -2.119,3.571c-0,0.732 0.302,1.491 0.905,2.276c0.604,0.784 1.929,1.438 3.975,1.962l8.188,2.04c1.574,0.419 3.096,0.955 4.566,1.609c1.469,0.654 2.768,1.491 3.897,2.511c1.128,1.02 2.034,2.263 2.716,3.728c0.682,1.465 1.023,3.244 1.023,5.336Z" style="fill:#fff;fill-rule:nonzero;"/><rect x="322.732" y="242.126" width="37.795" height="94.488" style="fill:#0079c1;"/><path d="M354.007,276.748l-1.456,-0.081c-1.618,-0.054 -3.195,0.175 -4.732,0.687c-1.537,0.513 -2.913,1.254 -4.126,2.225c-1.214,0.971 -2.184,2.157 -2.913,3.56c-0.728,1.402 -1.092,2.993 -1.092,4.773l0,25.159l-10.435,-0l-0,-45.95l10.435,-0l0,5.582c1.834,-2.643 3.87,-4.503 6.108,-5.582c2.238,-1.079 4.975,-1.483 8.211,-1.214l0,10.841Z" style="fill:#fff;fill-rule:nonzero;"/><rect x="269.819" y="242.126" width="52.913" height="94.488" style="fill:#0079c1;"/><path d="M317.543,289.919c0,3.349 -0.497,6.436 -1.491,9.261c-0.994,2.825 -2.42,5.258 -4.277,7.298c-1.857,2.041 -4.094,3.637 -6.71,4.788c-2.616,1.151 -5.519,1.726 -8.711,1.726c-3.244,0 -6.174,-0.575 -8.79,-1.726c-2.615,-1.151 -4.852,-2.747 -6.709,-4.788c-1.858,-2.04 -3.297,-4.473 -4.317,-7.298c-1.02,-2.825 -1.53,-5.912 -1.53,-9.261c-0,-3.453 0.471,-6.657 1.413,-9.613c0.941,-2.956 2.315,-5.52 4.12,-7.691c1.805,-2.171 4.028,-3.859 6.67,-5.062c2.642,-1.203 5.69,-1.805 9.143,-1.805c3.401,0 6.422,0.615 9.064,1.844c2.642,1.23 4.866,2.93 6.671,5.101c1.805,2.172 3.165,4.722 4.081,7.652c0.915,2.93 1.373,6.121 1.373,9.574Zm-9.966,0c-0,-1.935 -0.262,-3.819 -0.785,-5.65c-0.523,-1.831 -1.269,-3.44 -2.237,-4.826c-0.968,-1.387 -2.145,-2.499 -3.531,-3.336c-1.387,-0.837 -2.943,-1.255 -4.67,-1.255c-1.779,-0 -3.375,0.418 -4.787,1.255c-1.413,0.837 -2.603,1.949 -3.571,3.336c-0.968,1.386 -1.7,2.995 -2.197,4.826c-0.497,1.831 -0.746,3.715 -0.746,5.65c0,1.989 0.262,3.833 0.785,5.533c0.523,1.701 1.269,3.179 2.237,4.434c0.967,1.256 2.145,2.237 3.531,2.943c1.387,0.706 2.969,1.06 4.748,1.06c1.727,-0 3.283,-0.354 4.67,-1.06c1.386,-0.706 2.563,-1.687 3.531,-2.943c0.968,-1.255 1.714,-2.733 2.237,-4.434c0.523,-1.7 0.785,-3.544 0.785,-5.533Z" style="fill:#fff;fill-rule:nonzero;"/><rect x="431.866" y="242.126" width="52.441" height="94.488" style="fill:#0079c1;"/><path d="M478.578,291.339l-0.079,1.811l-30.236,-0c0.157,3.149 1.246,5.735 3.267,7.756c2.021,2.021 4.685,3.031 7.992,3.031c2.153,0 4.069,-0.328 5.748,-0.984c1.68,-0.656 3.281,-1.693 4.804,-3.11l5.669,6.771c-2.1,1.995 -4.528,3.557 -7.284,4.685c-2.755,1.129 -5.708,1.693 -8.858,1.693c-3.569,0 -6.719,-0.617 -9.449,-1.85c-2.729,-1.234 -5.026,-2.927 -6.889,-5.079c-1.864,-2.152 -3.281,-4.672 -4.252,-7.559c-0.971,-2.887 -1.457,-6.011 -1.457,-9.37c-0,-3.307 0.459,-6.378 1.378,-9.213c0.919,-2.834 2.257,-5.302 4.016,-7.401c1.758,-2.1 3.924,-3.754 6.496,-4.961c2.572,-1.207 5.485,-1.811 8.74,-1.811c3.622,0 6.745,0.669 9.37,2.008c2.625,1.338 4.79,3.163 6.496,5.472c1.706,2.31 2.927,5.013 3.661,8.111c0.735,3.097 1.024,6.43 0.867,10Zm-10.079,-5.906c0.052,-1.575 -0.171,-3.018 -0.669,-4.331c-0.499,-1.312 -1.208,-2.441 -2.126,-3.385c-0.919,-0.945 -2.021,-1.68 -3.308,-2.205c-1.286,-0.525 -2.69,-0.788 -4.212,-0.788c-1.522,0 -2.9,0.289 -4.134,0.867c-1.234,0.577 -2.283,1.351 -3.15,2.322c-0.866,0.972 -1.548,2.113 -2.047,3.426c-0.499,1.312 -0.748,2.677 -0.748,4.094l20.394,0Z" style="fill:#fff;fill-rule:nonzero;"/><rect x="178.638" y="242.126" width="38.268" height="94.488" style="fill:#0079c1;"/><path d="M213.534,311.394c-1.283,0.335 -2.774,0.683 -4.474,1.046c-1.7,0.362 -3.721,0.543 -6.062,0.543c-1.45,0 -2.955,-0.153 -4.516,-0.46c-1.56,-0.306 -2.982,-0.892 -4.264,-1.756c-1.282,-0.864 -2.327,-2.062 -3.136,-3.595c-0.808,-1.533 -1.212,-3.498 -1.212,-5.895l-0,-28.263l-7.86,-0l-0,-9.031l7.86,-0l-0,-12.375l10.619,-4.767l0,17.142l12.292,-0l0,9.031l-12.292,-0l0,24.082c0,2.229 0.377,3.79 1.129,4.682c0.753,0.892 2.3,1.338 4.641,1.338c1.895,0 3.735,-0.334 5.519,-1.003l1.756,9.281Z" style="fill:#fff;fill-rule:nonzero;"/><rect x="360.528" y="242.126" width="25.512" height="94.488" style="fill:#0079c1;"/><path d="M379.656,253.181c0,1.777 -0.611,3.291 -1.833,4.54c-1.221,1.25 -2.721,1.875 -4.498,1.875c-1.777,-0 -3.29,-0.625 -4.54,-1.875c-1.249,-1.249 -1.874,-2.763 -1.874,-4.54c-0,-1.777 0.625,-3.276 1.874,-4.498c1.25,-1.222 2.763,-1.833 4.54,-1.833c1.777,0 3.277,0.611 4.498,1.833c1.222,1.222 1.833,2.721 1.833,4.498Zm-1,59.811l-10.662,0l-0,-47.315l10.662,-0l0,47.315Z" style="fill:#fff;fill-rule:nonzero;"/><rect x="226.354" y="336.614" width="52.913" height="94.488" style="fill:#0079c1;"/><path d="M272.484,407.48l-10.939,0l0,-30.951c0,-2.713 -0.664,-4.777 -1.993,-6.19c-1.328,-1.413 -3.264,-2.12 -5.808,-2.12c-2.714,0 -5.017,0.82 -6.911,2.459c-1.894,1.64 -2.841,3.986 -2.841,7.039l0,29.763l-10.854,0l0,-66.141l10.854,-0l0,21.877c1.413,-1.583 3.265,-2.855 5.554,-3.816c2.29,-0.961 4.509,-1.441 6.657,-1.441c2.6,-0 4.918,0.396 6.953,1.187c2.035,0.791 3.745,1.908 5.13,3.349c1.386,1.442 2.431,3.166 3.138,5.173c0.707,2.007 1.06,4.226 1.06,6.657l-0,33.155Z" style="fill:#fff;fill-rule:nonzero;"/><rect x="127.614" y="336.614" width="46.299" height="94.488" style="fill:#0079c1;"/><path d="M172.098,360.236l-14.971,47.244l-12.809,0l-14.889,-47.244l11.229,0l10.147,33.354l10.065,-33.354l11.228,0Z" style="fill:#fff;fill-rule:nonzero;"/><rect x="438.953" y="336.614" width="45.827" height="94.488" style="fill:#0079c1;"/><path d="M480.269,393.59c0,2.406 -0.51,4.486 -1.53,6.239c-1.02,1.752 -2.38,3.191 -4.081,4.316c-1.7,1.125 -3.649,1.962 -5.847,2.511c-2.197,0.55 -4.473,0.824 -6.827,0.824c-3.453,0 -6.736,-0.51 -9.849,-1.53c-3.113,-1.02 -6.004,-2.708 -8.672,-5.062l6.278,-7.141c1.884,1.674 3.976,2.864 6.278,3.57c2.303,0.707 4.369,1.06 6.2,1.06c2.355,-0 4.173,-0.353 5.455,-1.06c1.281,-0.706 1.922,-1.87 1.922,-3.492c0,-1.099 -0.562,-2.04 -1.687,-2.825c-1.125,-0.785 -2.603,-1.413 -4.434,-1.884l-7.769,-1.962c-1.413,-0.314 -2.786,-0.797 -4.121,-1.451c-1.334,-0.654 -2.537,-1.492 -3.61,-2.512c-1.072,-1.02 -1.922,-2.236 -2.55,-3.649c-0.628,-1.413 -0.942,-3.035 -0.942,-4.866c0,-2.406 0.493,-4.512 1.48,-6.317c0.987,-1.805 2.298,-3.309 3.934,-4.513c1.636,-1.203 3.51,-2.106 5.622,-2.707c2.113,-0.602 4.267,-0.903 6.465,-0.903c3.191,0 6.265,0.484 9.221,1.452c2.956,0.968 5.664,2.446 8.123,4.434l-6.043,6.828c-1.361,-0.942 -2.969,-1.792 -4.827,-2.551c-1.857,-0.758 -3.806,-1.138 -5.846,-1.138c-2.25,0 -4.081,0.432 -5.494,1.295c-1.412,0.863 -2.119,2.054 -2.119,3.571c0,0.732 0.302,1.491 0.906,2.276c0.604,0.785 1.928,1.439 3.975,1.962l8.187,2.04c1.575,0.419 3.097,0.955 4.566,1.609c1.469,0.654 2.768,1.491 3.897,2.511c1.129,1.021 2.034,2.263 2.716,3.728c0.682,1.465 1.023,3.244 1.023,5.337Z" style="fill:#fff;fill-rule:nonzero;"/><rect x="173.913" y="336.614" width="52.441" height="94.488" style="fill:#0079c1;"/><path d="M220.625,385.827l-0.079,1.811l-30.236,-0c0.157,3.149 1.247,5.735 3.268,7.756c2.021,2.021 4.685,3.031 7.992,3.031c2.152,0 4.068,-0.328 5.748,-0.984c1.68,-0.656 3.281,-1.693 4.803,-3.11l5.669,6.771c-2.1,1.995 -4.527,3.557 -7.283,4.685c-2.756,1.129 -5.709,1.693 -8.859,1.693c-3.569,0 -6.719,-0.616 -9.448,-1.85c-2.73,-1.234 -5.027,-2.927 -6.89,-5.079c-1.864,-2.152 -3.281,-4.672 -4.252,-7.559c-0.971,-2.887 -1.457,-6.01 -1.457,-9.37c0,-3.307 0.46,-6.378 1.378,-9.213c0.919,-2.834 2.257,-5.301 4.016,-7.401c1.758,-2.1 3.924,-3.753 6.496,-4.961c2.572,-1.207 5.486,-1.811 8.74,-1.811c3.622,0 6.746,0.67 9.37,2.008c2.625,1.339 4.79,3.163 6.496,5.473c1.706,2.309 2.927,5.013 3.662,8.11c0.735,3.097 1.023,6.43 0.866,10Zm-10.079,-5.906c0.053,-1.575 -0.171,-3.018 -0.669,-4.33c-0.499,-1.313 -1.208,-2.441 -2.126,-3.386c-0.919,-0.945 -2.021,-1.68 -3.307,-2.205c-1.286,-0.525 -2.691,-0.787 -4.213,-0.787c-1.522,-0 -2.9,0.288 -4.134,0.866c-1.233,0.577 -2.283,1.351 -3.149,2.323c-0.866,0.971 -1.549,2.112 -2.048,3.425c-0.498,1.312 -0.748,2.677 -0.748,4.094l20.394,0Z" style="fill:#fff;fill-rule:nonzero;"/><rect x="386.512" y="336.614" width="52.441" height="94.488" style="fill:#0079c1;"/><path d="M433.223,385.827l-0.078,1.811l-30.237,-0c0.158,3.149 1.247,5.735 3.268,7.756c2.021,2.021 4.685,3.031 7.992,3.031c2.152,0 4.068,-0.328 5.748,-0.984c1.68,-0.656 3.281,-1.693 4.803,-3.11l5.67,6.771c-2.1,1.995 -4.528,3.557 -7.284,4.685c-2.756,1.129 -5.709,1.693 -8.858,1.693c-3.57,0 -6.719,-0.616 -9.449,-1.85c-2.73,-1.234 -5.026,-2.927 -6.89,-5.079c-1.863,-2.152 -3.281,-4.672 -4.252,-7.559c-0.971,-2.887 -1.456,-6.01 -1.456,-9.37c-0,-3.307 0.459,-6.378 1.378,-9.213c0.918,-2.834 2.257,-5.301 4.015,-7.401c1.759,-2.1 3.924,-3.753 6.496,-4.961c2.573,-1.207 5.486,-1.811 8.741,-1.811c3.622,0 6.745,0.67 9.37,2.008c2.624,1.339 4.79,3.163 6.496,5.473c1.706,2.309 2.926,5.013 3.661,8.11c0.735,3.097 1.024,6.43 0.866,10Zm-10.078,-5.906c0.052,-1.575 -0.171,-3.018 -0.67,-4.33c-0.498,-1.313 -1.207,-2.441 -2.126,-3.386c-0.918,-0.945 -2.021,-1.68 -3.307,-2.205c-1.286,-0.525 -2.69,-0.787 -4.212,-0.787c-1.523,-0 -2.901,0.288 -4.134,0.866c-1.234,0.577 -2.284,1.351 -3.15,2.323c-0.866,0.971 -1.548,2.112 -2.047,3.425c-0.499,1.312 -0.748,2.677 -0.748,4.094l20.394,0Z" style="fill:#fff;fill-rule:nonzero;"/><rect x="304.78" y="336.614" width="52.441" height="94.488" style="fill:#0079c1;"/><path d="M350.737,372.165l-8.554,4.159c-1.046,-2.092 -2.354,-3.793 -3.924,-5.101c-1.569,-1.308 -3.584,-1.962 -6.043,-1.962c-1.883,0 -3.505,0.445 -4.865,1.334c-1.361,0.89 -2.472,2.041 -3.336,3.453c-0.863,1.413 -1.491,2.996 -1.883,4.748c-0.392,1.753 -0.589,3.493 -0.589,5.219c0,1.779 0.223,3.532 0.667,5.258c0.445,1.727 1.125,3.27 2.041,4.631c0.915,1.36 2.053,2.459 3.414,3.296c1.36,0.837 2.956,1.255 4.787,1.255c2.302,0 4.303,-0.667 6.003,-2.001c1.701,-1.334 2.996,-2.995 3.885,-4.983l8.319,4.159c-0.942,1.727 -2.027,3.309 -3.257,4.748c-1.229,1.439 -2.59,2.681 -4.081,3.728c-1.491,1.046 -3.126,1.87 -4.905,2.472c-1.779,0.601 -3.688,0.902 -5.729,0.902c-3.505,0 -6.592,-0.614 -9.26,-1.844c-2.668,-1.229 -4.905,-2.904 -6.71,-5.023c-1.805,-2.118 -3.165,-4.617 -4.081,-7.494c-0.916,-2.878 -1.373,-5.965 -1.373,-9.261c-0,-2.982 0.431,-5.886 1.295,-8.711c0.863,-2.825 2.158,-5.349 3.884,-7.573c1.727,-2.224 3.911,-4.002 6.553,-5.337c2.642,-1.334 5.742,-2.001 9.3,-2.001c4.29,0 7.979,1.047 11.065,3.139c3.087,2.093 5.546,5.023 7.377,8.79Z" style="fill:#fff;fill-rule:nonzero;"/><rect x="357.22" y="336.614" width="29.291" height="94.488" style="fill:#0079c1;"/><path d="M384.15,406.309c-1.439,0.388 -2.822,0.678 -4.15,0.872c-1.328,0.193 -2.711,0.29 -4.149,0.29c-4.592,0 -7.884,-1.189 -9.876,-3.568c-1.992,-2.379 -2.987,-5.643 -2.987,-9.793l-0,-52.781l10.539,0l0,51.287c0,3.375 1.577,5.063 4.73,5.063c0.886,-0 1.646,-0.042 2.283,-0.125c0.636,-0.083 1.424,-0.263 2.365,-0.539l1.245,9.294Z" style="fill:#fff;fill-rule:nonzero;"/><rect x="279.268" y="336.614" width="25.512" height="94.488" style="fill:#0079c1;"/><path d="M298.396,347.67c0,1.777 -0.611,3.29 -1.832,4.539c-1.222,1.25 -2.722,1.875 -4.499,1.875c-1.777,-0 -3.29,-0.625 -4.54,-1.875c-1.249,-1.249 -1.874,-2.762 -1.874,-4.539c0,-1.778 0.625,-3.277 1.874,-4.499c1.25,-1.222 2.763,-1.832 4.54,-1.832c1.777,-0 3.277,0.61 4.499,1.832c1.221,1.222 1.832,2.721 1.832,4.499Zm-0.999,59.81l-10.663,0l-0,-47.315l10.663,-0l-0,47.315Z" style="fill:#fff;fill-rule:nonzero;"/><clipPath id="_clip2"><rect id="S23-Motorcycle.afdesign" serif:id="S23 Motorcycle.afdesign" x="71.866" y="442.913" width="212.598" height="141.732"/></clipPath><g clip-path="url(#_clip2)"><rect id="S23-Motorcycle-W" serif:id="S23 Motorcycle W" x="71.866" y="442.913" width="212.598" height="141.732" style="fill:none;"/><clipPath id="_clip3"><rect x="71.866" y="442.913" width="212.598" height="141.732"/></clipPath><g clip-path="url(#_clip3)"><path d="M103.773,514.514l2.125,-0l2.156,0.094l2.125,0.25l2.126,0.344l2.093,0.468l2.063,0.594l2.031,0.719l-1.812,3.125l-1.907,-0.656l-1.968,-0.531l-1.969,-0.407l-2,-0.281l-2,-0.156l-2.032,-0.031l-2,0.093l-2.031,0.188l-1.969,0.344l-1.969,0.437l-1.937,0.563l-1.906,0.687l-1.875,0.782l-1.782,0.906l-1.75,1.031l-1.687,1.125l-1.625,1.219l-1.532,1.313l-1.437,1.406l-1.375,1.469l-1.25,1.594l-1.188,1.625l-1.062,1.719l-0.969,1.782l-0.844,1.812l-0.75,1.875l-0.625,1.938l-0.531,1.938l-0.375,1.969l-0.281,2l-0.157,2.031l-0.031,2.001l0.094,2.031l0.219,2l0.343,2l0.469,1.969l0.563,1.938l0.687,1.875l0.813,1.875l0.937,1.782l1,1.75l1.125,1.656l1.25,1.625l1.313,1.501l1.406,1.469l1.5,1.343l1.563,1.251l1.656,1.187l1.719,1.063l1.781,0.937l1.844,0.844l1.875,0.75l1.906,0.625l1.969,0.5l1.969,0.375l2,0.25l2.031,0.157l2.031,-0l2,-0.094l2,-0.25l2.001,-0.344l1.968,-0.469l1.938,-0.562l1.875,-0.719l1.844,-0.813l1.812,-0.937l1.719,-1.032l1.656,-1.125l1.625,-1.25l1.5,-1.312l1.438,-1.438l1.344,-1.5l1.25,-1.563l1.156,-1.656l1.063,-1.719l0.937,-1.813l0.844,-1.813l0.719,-1.906l0.625,-1.906l0.468,-1.969l0.375,-1.969l0.25,-2l0.125,-2.032l0,-2.031l-0.093,-2.001l-0.25,-2l-0.344,-2l-0.5,-1.938l-0.594,-1.937l-0.719,-1.907l-0.812,-1.844l-0.938,-1.781l-1.031,-1.719l-1.156,-1.656l-1.25,-1.594l-1.344,-1.532l-1.406,-1.406l-1.532,-1.344l1.813,-3.125l1.625,1.406l1.562,1.5l1.469,1.563l1.344,1.688l1.281,1.719l1.157,1.812l1.062,1.875l0.938,1.938l0.843,1.969l0.719,2.031l0.594,2.094l0.469,2.094l0.343,2.126l0.219,2.125l0.094,2.156l-0.031,2.157l-0,1.344l0.156,1.343l0.25,1.313l0.375,1.281l0.531,1.251l0.594,1.187l0.75,1.125l0.844,1.063l0.906,0.969l1.031,0.875l1.094,0.781l1.156,0.656l1.219,0.563l1.281,0.437l1.313,0.313l1.312,0.188l1.344,0.062l59.595,0l1.032,1.719l1.125,1.625l1.218,1.594l1.313,1.469l1.406,1.438l1.469,1.312l1.563,1.25l1.625,1.125l1.718,1.063l1.75,0.938l1.813,0.812l1.844,0.75l1.906,0.594l1.906,0.5l1.969,0.375l1.969,0.281l1.969,0.125l2,0.032l2,-0.094l1.969,-0.188l1.968,-0.343l1.938,-0.438l1.906,-0.562l1.875,-0.688l1.844,-0.781l1.781,-0.875l1.719,-1.001l1.656,-1.093l1.594,-1.219l1.5,-1.282l1.437,-1.375l1.375,-1.469l1.251,-1.531l1.156,-1.625l1.094,-1.657l0.969,-1.75l0.843,-1.781l0.75,-1.844l0.657,-1.875l0.531,-1.938l0.406,-1.938l0.313,-1.969l0.156,-2l0.062,-1.969l6.376,0l-0.063,-2.219l-0.156,-2.187l-0.313,-2.188l-0.437,-2.157l-0.531,-2.156l-0.689,-2.094l-0.781,-2.063l-0.874,-2l-1,-1.969l-1.126,-1.906l-1.218,-1.844l-1.313,-1.782l-1.406,-1.687l-1.5,-1.625l-1.594,-1.501l-1.657,-1.437l-1.749,-1.344l-1.844,-1.25l-1.875,-1.125l-1.969,-1.032l-2,-0.937l-0,-2.469l-0.062,-0.938l-0.156,-0.906l-0.313,-0.875l-0.406,-0.844l-0.532,-0.75l-0.593,-0.719l-0.688,-0.594l-0.781,-0.531l-0.844,-0.406l-0.875,-0.282l-0.906,-0.187l-0.906,-0.063l-31.189,0l0,-2.031l-0.062,-1.313l-0.188,-1.312l-0.312,-1.282l-0.406,-1.25l-0.563,-1.187l-0.625,-1.157l-0.75,-1.094l-0.844,-1l-16.75,-18.158l-16.344,-6.969l-2.844,-0l0,-4.844l0.719,-1l0.656,-1.094l0.531,-1.125l0.407,-1.188l0.281,-1.188l0.187,-1.25l0.063,-1.25l-0.094,-1.25l-0.187,-1.219l-0.313,-1.219l-0.406,-1.187l-0.563,-1.125l-0.625,-1.063l-0.75,-1l-0.843,-0.907l-0.938,-0.843l-1,-0.75l-1.094,-0.625l-1.125,-0.532l-1.187,-0.406l-1.188,-0.313l-1.25,-0.187l-1.25,-0.063l-1.25,0.094l-1.219,0.188l-1.218,0.281l-1.188,0.437l-1.125,0.532l-1.063,0.656l-1,0.75l-0.937,0.813l-0.844,0.937l-0.719,1l-0.656,1.094l-0.531,1.125l-0.406,1.157l-0.313,1.219l-0.187,1.25l-0.063,1.25l0,1.406l2.844,0l-0,8.501l0.062,0.906l0.157,0.875l0.281,0.844l0.375,0.813l0.5,0.75l0.562,0.688l0.657,0.625l0.75,0.5l0.781,0.437l0.844,0.313l0.844,0.218l0.906,0.094l0.906,0l0.875,-0.125l0,0.813l-0.031,0.5l-0.125,0.469l-0.219,0.437l-8.844,15.22l-10.281,8.22l-0.5,0.344l-0.594,0.25l-0.594,0.156l-0.625,0.031l-0.594,-0.062l-0.593,-0.188l-0.563,-0.281l-0.5,-0.375l-0.437,-0.438l-0.344,-0.531l-0.219,-0.562l-0.156,-0.594l-0.031,-0.625l0.062,-0.625l6.594,-30.91l-0,-0.343l-0.063,-0.313l-0.187,-0.281l-0.25,-0.219l-0.313,-0.125l-0.343,0l-0.313,0.063l-0.281,0.187l-0.219,0.25l-14.563,24.252l-0.968,1.563l-1.094,1.438l-1.188,1.406l-1.25,1.313l-1.344,1.25l-1.437,1.125l-1.5,1.062l-1.531,0.938l-1.625,0.844l-1.688,0.75l-1.688,0.625l-1.75,0.531l-1.781,0.407l-1.812,0.281l-1.813,0.187l-1.812,0.063l-7.907,-0l0,13.47Zm142.941,17.095l-1.563,-0.093l-1.531,0.031l2.594,7.126l1.219,0.187l1.218,0.344l1.157,0.406l1.125,0.563l1.062,0.656l0.969,0.75l0.937,0.844l0.813,0.906l0.719,1l0.656,1.094l0.5,1.125l0.437,1.157l0.282,1.219l0.187,1.218l0.063,1.25l-0.063,1.251l-0.187,1.218l-0.313,1.219l-0.406,1.157l-0.531,1.125l-0.657,1.062l-0.75,1.001l-0.812,0.937l-0.938,0.813l-0.968,0.75l-1.094,0.656l-1.094,0.531l-1.187,0.438l-1.188,0.281l-1.25,0.219l-1.219,0.062l-1.25,-0.062l-1.219,-0.156l-1.218,-0.313l-1.188,-0.406l-1.125,-0.5l-1.062,-0.625l-1,-0.75l-0.938,-0.813l-0.844,-0.906l-0.781,-1l-0.656,-1.032l-0.532,-1.125l-0.437,-1.156l-0.313,-1.219l-0.218,-1.219l-0.094,-1.25l0.062,-1.219l0.157,-1.25l0.25,-1.219l0.406,-1.156l0.5,-1.157l0.625,-1.062l0.719,-1.032l0.812,-0.937l-2.594,-7.126l-1.218,0.969l-1.125,1.063l-1.032,1.156l-0.968,1.219l-0.844,1.313l-0.75,1.343l-0.625,1.407l-0.531,1.469l-0.407,1.5l-0.281,1.5l-0.187,1.563l-0.032,1.531l0.063,1.563l0.187,1.531l0.313,1.531l0.406,1.469l0.563,1.469l0.656,1.407l0.75,1.343l0.875,1.282l0.937,1.219l1.063,1.125l1.156,1.062l1.219,0.969l1.281,0.844l1.344,0.75l1.406,0.656l1.469,0.532l1.469,0.437l1.531,0.313l1.531,0.187l1.563,0.063l1.531,-0.063l1.563,-0.187l1.5,-0.281l1.5,-0.438l1.469,-0.531l1.406,-0.625l1.344,-0.75l1.312,-0.875l1.219,-0.938l1.125,-1.031l1.063,-1.157l0.968,-1.187l0.875,-1.282l0.782,-1.344l0.655,-1.406l0.563,-1.469l0.407,-1.469l0.343,-1.531l0.188,-1.532l0.062,-1.562l-0.031,-1.532l-0.157,-1.531l-0.28,-1.531l-0.407,-1.501l-0.531,-1.468l-0.625,-1.407l-0.75,-1.375l-0.844,-1.281l-0.938,-1.25l-1.03,-1.157l-1.126,-1.062l-1.187,-0.969l-1.281,-0.875l-1.344,-0.782l-1.406,-0.687l-1.438,-0.563l-1.469,-0.437l-1.531,-0.313l-1.531,-0.219Zm-140.003,-0.031l-1.532,-0.062l-1.562,0.062l-1.531,0.188l-1.532,0.281l-1.5,0.437l-1.437,0.532l-1.407,0.625l-1.343,0.781l-1.313,0.844l-1.219,0.969l-1.125,1.031l-1.062,1.125l-0.969,1.219l-0.875,1.281l-0.75,1.376l-0.656,1.375l-0.563,1.469l-0.406,1.5l-0.313,1.5l-0.218,1.531l-0.063,1.563l0.063,1.531l0.156,1.563l0.281,1.5l0.406,1.5l0.532,1.469l0.625,1.407l0.75,1.375l0.844,1.281l0.968,1.25l1.032,1.125l1.125,1.063l1.187,1l1.281,0.875l1.344,0.781l1.406,0.657l1.438,0.562l1.5,0.438l1.5,0.312l1.563,0.219l1.531,0.094l1.562,-0.063l1.532,-0.156l1.531,-0.281l1.5,-0.375l1.469,-0.531l1.406,-0.594l1.375,-0.75l1.281,-0.844l1.25,-0.938l1.157,-1.031l1.062,-1.094l1,-1.219l0.875,-1.25l0.782,-1.344l0.687,-1.406l0.563,-1.438l0.468,-1.469l0.344,-1.531l0.219,-1.532l0.094,-1.531l-0.032,-1.563l-0.156,-1.531l-0.25,-1.531l-0.375,-1.501l-0.5,-1.468l-0.625,-1.438l-0.719,-1.344l-0.812,-1.313l-0.938,-1.25l-1.031,-1.187l-3.781,6.594l0.625,1.063l0.531,1.125l0.437,1.156l0.282,1.219l0.187,1.219l0.063,1.25l-0.063,1.25l-0.156,1.219l-0.313,1.219l-0.406,1.156l-0.531,1.125l-0.625,1.063l-0.75,1.031l-0.813,0.907l-0.937,0.843l-0.969,0.75l-1.062,0.657l-1.126,0.531l-1.156,0.438l-1.219,0.312l-1.218,0.188l-1.25,0.093l-1.25,-0.062l-1.219,-0.156l-1.219,-0.282l-1.156,-0.406l-1.157,-0.5l-1.062,-0.625l-1,-0.719l-0.938,-0.844l-0.875,-0.906l-0.75,-0.969l-0.656,-1.062l-0.562,-1.094l-0.438,-1.157l-0.312,-1.218l-0.219,-1.219l-0.094,-1.25l0.031,-1.219l0.157,-1.25l0.281,-1.219l0.375,-1.188l0.5,-1.125l0.625,-1.094l0.687,-1l0.813,-0.938l0.906,-0.875l0.969,-0.781l1.062,-0.656l1.094,-0.563l1.157,-0.469l1.187,-0.343l1.219,-0.219l1.25,-0.094l1.25,0l3.781,-6.563l-1.5,-0.313l-1.562,-0.156Zm115.69,-7.813l-0.375,-0.063l-12.657,0l0,21.377l0.063,0.438l0.218,0.375l0.313,0.281l0.406,0.188l0.406,0.031l0.438,-0.094l0.375,-0.219l0.281,-0.312l0.156,-0.406l0.438,-2.001l0.531,-1.968l0.688,-1.938l0.781,-1.875l0.906,-1.844l1,-1.782l1.125,-1.687l1.219,-1.657l1.313,-1.531l1.437,-1.5l1.5,-1.375l0.25,-0.282l0.156,-0.343l0.063,-0.376l-0.031,-0.375l-0.125,-0.375l-0.219,-0.312l-0.313,-0.219l-0.343,-0.156Zm-43.814,-27.784l-0.406,-1.313l-26.938,15.596l26.938,8.5l8.5,-13.47l-5.375,-4.438l-0.812,-1.125l-1.907,-3.75Z" style="fill:#fff;"/></g></g><clipPath id="_clip4"><rect id="S24-Cycle.afdesign" serif:id="S24 Cycle.afdesign" x="343.52" y="466.535" width="200.792" height="118.11"/></clipPath><g clip-path="url(#_clip4)"><rect id="S24-Cycle-W" serif:id="S24 Cycle W" x="343.52" y="466.535" width="200.792" height="118.11" style="fill:none;"/><clipPath id="_clip5"><rect x="343.52" y="466.535" width="200.792" height="118.11"/></clipPath><g clip-path="url(#_clip5)"><path d="M463.78,561.594l1.025,-0.75l0.975,-0.8l0.875,-0.901l0.825,-0.975l0.725,-1.05l0.626,-1.1l0.525,-1.15l0.45,-1.175l0.325,-1.225l3.475,-0l0.2,1.825l0.325,1.825l0.4,1.825l0.5,1.776l0.6,1.75l0.675,1.725l0.775,1.675l0.875,1.65l0.95,1.575l1.025,1.55l1.1,1.475l1.201,1.426l1.25,1.375l1.325,1.3l1.375,1.225l1.475,1.125l1.5,1.075l1.575,1l1.6,0.9l1.676,0.825l1.699,0.725l1.726,0.651l1.775,0.55l1.8,0.475l1.8,0.35l1.851,0.275l1.825,0.175l1.85,0.075l1.85,-0.025l1.85,-0.125l1.85,-0.2l1.825,-0.325l1.801,-0.4l1.8,-0.5l1.75,-0.576l1.725,-0.7l1.675,-0.75l1.65,-0.875l1.601,-0.925l1.524,-1.025l1.501,-1.1l1.425,-1.2l1.375,-1.25l1.275,-1.325l1.225,-1.375l1.175,-1.451l1.076,-1.525l0.974,-1.55l0.926,-1.625l0.825,-1.65l0.724,-1.7l0.651,-1.725l0.55,-1.776l0.475,-1.8l0.375,-1.8l0.275,-1.825l0.175,-1.85l0.075,-1.85l-0.025,-1.851l-0.1,-1.85l-0.225,-1.85l-0.3,-1.825l-0.4,-1.8l-0.475,-1.8l-0.6,-1.75l-0.675,-1.726l-0.775,-1.675l-0.851,-1.65l-0.924,-1.6l-1.026,-1.55l-1.1,-1.475l-1.175,-1.45l-1.25,-1.351l-1.325,-1.3l-1.375,-1.225l-1.45,-1.175l-1.526,-1.075l-1.549,-1l-1.601,-0.9l-1.675,-0.825l-1.7,-0.75l-1.725,-0.65l-1.775,-0.575l-1.775,-0.45l-1.825,-0.375l-1.826,-0.275l-1.85,-0.2l-1.85,-0.075l-1.85,-0l-1.85,0.125l-1.85,0.2l-1.826,0.3l-1.8,0.4l-1.775,0.475l-1.775,0.6l-1.725,0.675l-13.977,-24.227l2.726,-7.501l1,-0.125l0.975,-0.225l0.975,-0.325l0.925,-0.4l0.875,-0.5l0.85,-0.575l0.775,-0.65l0.7,-0.725l0.651,-0.8l0.55,-0.85l0.475,-0.876l0.399,-0.95l0.276,-0.975l0.05,-0.3l-0.05,-0.3l-0.125,-0.275l-0.176,-0.25l-0.249,-0.175l-0.276,-0.125l-0.299,-0.05l-30.553,0l-0.5,0.05l-0.5,0.125l-0.45,0.225l-0.425,0.275l-0.35,0.35l-0.3,0.425l-0.225,0.45l-0.15,0.5l-0.05,0.5l0.025,0.5l0.125,0.501l0.2,0.45l0.275,0.425l0.35,0.375l0.4,0.3l0.45,0.25l0.5,0.15l13.651,3.025l-3.226,8.851l-64.68,-0l1.425,-5.301l0.175,-0.875l0.075,-0.85l0,-0.875l-0.075,-0.875l-0.2,-0.85l-0.275,-0.85l-0.35,-0.775l-0.45,-0.775l-0.525,-0.7l-0.6,-0.625l-0.65,-0.6l-0.725,-0.501l-0.325,-0.25l-0.25,-0.325l-0.175,-0.375l-0.075,-0.425l0.025,-0.4l0.125,-0.4l0.2,-0.375l0.275,-0.3l0.35,-0.225l0.4,-0.15l0.4,-0.05l13.576,0l0,-8.851l-16.526,0l-0.925,0.05l-0.9,0.125l-0.875,0.225l-0.851,0.3l-0.825,0.376l-0.8,0.475l-0.725,0.525l-0.7,0.6l-0.625,0.675l-0.55,0.725l-0.475,0.775l-0.4,0.825l-0.325,0.85l-0.25,0.875l-0.15,0.9l-0.075,0.9l0.025,0.925l0.1,0.9l0.2,0.875l0.275,0.876l0.375,0.85l0.425,0.775l0.525,0.775l0.575,0.7l0.65,0.625l0.725,0.575l0.75,0.5l0.45,0.325l0.375,0.4l0.3,0.45l0.2,0.5l0.101,0.55l0.025,0.55l-0.1,0.525l-7.676,28.628l-1.75,-0.6l-1.775,-0.5l-1.826,-0.425l-1.825,-0.325l-1.85,-0.25l-1.85,-0.125l-1.85,-0.025l-1.85,0.05l-1.851,0.175l-1.85,0.25l-1.825,0.35l-1.8,0.45l-1.775,0.525l-1.75,0.65l-1.701,0.7l-1.675,0.825l-1.625,0.9l-1.575,0.975l-1.525,1.075l-1.45,1.125l-1.4,1.225l-1.35,1.275l-1.251,1.376l-1.2,1.425l-1.125,1.475l-1.05,1.525l-0.95,1.6l-0.875,1.625l-0.775,1.7l-0.7,1.726l-0.6,1.75l-0.525,1.775l-0.425,1.8l-0.325,1.85l-0.225,1.825l-0.125,1.85l-0.025,1.851l0.05,1.875l0.175,1.85l0.25,1.825l0.35,1.825l0.45,1.8l0.55,1.776l0.625,1.75l0.725,1.7l0.825,1.675l0.9,1.625l0.975,1.575l1.075,1.525l1.125,1.451l1.225,1.4l1.301,1.35l1.35,1.25l1.425,1.2l1.475,1.125l1.55,1.025l1.575,0.975l1.65,0.85l1.676,0.8l1.725,0.7l1.75,0.601l1.8,0.5l1.8,0.425l1.825,0.325l1.85,0.225l1.851,0.125l1.85,0.025l1.875,-0.075l1.825,-0.15l1.85,-0.275l1.825,-0.35l1.801,-0.45l1.775,-0.55l1.75,-0.626l1.7,-0.725l1.675,-0.825l1.625,-0.9l1.575,-0.975l1.501,-1.075l1.475,-1.15l1.4,-1.2l1.325,-1.3l1.275,-1.35l1.175,-1.425l1.125,-1.501l1.025,-1.525l0.975,-1.6l0.851,-1.65l0.8,-1.675l0.675,-1.725l0.6,-1.75l0.525,-1.801l0.4,-1.8l0.325,-1.825l0.225,-1.85l0.125,-1.85l0.025,-1.85l-0.05,-1.851l-0.175,-1.85l-0.275,-1.85l-0.35,-1.825l-0.45,-1.8l-0.55,-1.775l-0.625,-1.726l-0.75,-1.725l-0.801,-1.65l-0.9,-1.625l-1,-1.575l-1.075,-1.525l-1.125,-1.45l-1.225,-1.4l-1.3,-1.326l-1.35,-1.275l-1.425,-1.175l-1.5,-1.125l1.15,-4.275l41.053,28.727l-0.325,1.2l-0.225,1.2l-0.125,1.226l0,1.225l0.075,1.25l0.2,1.2l0.275,1.2l0.4,1.175l0.475,1.15l0.575,1.075l0.675,1.05l0.75,0.975l0.825,0.9l0.901,0.851l0.975,0.75l1.025,0.675l1.1,0.6l1.125,0.5l1.175,0.4l1.175,0.3l1.225,0.2l1.225,0.1l1.25,-0l1.226,-0.125l1.2,-0.2l1.2,-0.3l2.225,4.775l-4,0l-0,4.726l4,-0l0.425,0.5l0.475,0.45l0.575,0.35l0.6,0.25l0.65,0.15l0.65,0.075l0.675,-0.075l0.65,-0.15l0.6,-0.25l0.55,-0.35l0.501,-0.45l0.425,-0.5l3.999,-0l0,-4.726l-6.2,0l-3.05,-6.525Zm25.152,2.375l0.975,1.225l1.05,1.15l1.101,1.1l1.2,1.025l1.25,0.95l1.3,0.875l1.35,0.775l1.4,0.701l1.45,0.6l1.475,0.525l1.5,0.425l1.551,0.3l1.549,0.25l1.551,0.125l1.575,0.025l1.55,-0.075l1.55,-0.175l1.55,-0.25l1.526,-0.375l1.5,-0.45l1.475,-0.55l1.425,-0.65l1.375,-0.726l1.35,-0.825l1.275,-0.9l1.225,-0.975l1.15,-1.05l1.076,-1.125l1.025,-1.2l0.949,-1.25l0.851,-1.325l0.775,-1.35l0.675,-1.401l0.6,-1.45l0.5,-1.5l0.4,-1.5l0.325,-1.525l0.2,-1.55l0.125,-1.575l0.025,-1.575l-0.075,-1.551l-0.2,-1.55l-0.275,-1.55l-0.375,-1.525l-0.475,-1.475l-0.55,-1.475l-0.65,-1.425l-0.75,-1.375l-0.825,-1.326l-0.926,-1.275l-0.974,-1.225l-1.075,-1.15l-1.126,-1.075l-1.2,-1l-1.25,-0.925l-1.325,-0.85l-1.375,-0.75l-1.4,-0.675l-1.451,-0.6l-1.499,-0.475l-1.526,-0.4l-1.525,-0.301l-1.55,-0.2l-1.575,-0.125l-1.55,0l-1.575,0.1l-1.55,0.2l-1.526,0.275l-1.525,0.401l-1.5,0.475l12.551,21.726l0.25,0.501l0.125,0.55l0.05,0.575l-0.05,0.55l-0.125,0.55l-0.25,0.525l-0.325,0.45l-0.4,0.4l-0.475,0.325l-0.5,0.25l-0.55,0.15l-0.575,0.05l-25.953,-0l0.251,1.55l0.35,1.525l0.45,1.5l0.55,1.45l0.625,1.451l0.725,1.375l0.8,1.35l0.9,1.3Zm-101.909,-31.503l1.626,-6.075l-1.451,-0.575l-1.475,-0.45l-1.525,-0.401l-1.525,-0.275l-1.55,-0.175l-1.55,-0.1l-1.55,0.025l-1.55,0.1l-1.551,0.2l-1.525,0.301l-1.525,0.4l-1.475,0.5l-1.425,0.575l-1.425,0.675l-1.35,0.75l-1.3,0.85l-1.276,0.925l-1.175,1l-1.15,1.075l-1.05,1.125l-0.975,1.2l-0.925,1.275l-0.825,1.326l-0.725,1.375l-0.675,1.4l-0.55,1.45l-0.475,1.475l-0.375,1.525l-0.3,1.525l-0.175,1.55l-0.1,1.551l0.025,1.55l0.1,1.575l0.2,1.525l0.3,1.525l0.4,1.525l0.475,1.475l0.6,1.45l0.65,1.401l0.775,1.35l0.825,1.325l0.925,1.25l1,1.2l1.075,1.125l1.15,1.05l1.2,1l1.251,0.9l1.325,0.825l1.375,0.751l1.4,0.65l1.475,0.575l1.475,0.475l1.5,0.375l1.55,0.275l1.526,0.2l1.575,0.1l1.55,-0.025l1.55,-0.1l1.55,-0.2l1.525,-0.3l1.5,-0.4l1.475,-0.475l1.451,-0.575l1.4,-0.675l1.375,-0.751l1.3,-0.85l1.275,-0.925l1.175,-1l1.15,-1.075l1.05,-1.125l1,-1.2l0.901,-1.275l0.825,-1.325l0.75,-1.35l0.65,-1.426l0.575,-1.45l0.475,-1.475l0.375,-1.525l0.3,-1.525l0.175,-1.55l0.1,-1.55l-0,-1.55l-0.125,-1.551l-0.2,-1.55l-0.3,-1.525l-0.375,-1.525l-0.5,-1.475l-0.575,-1.45l-0.675,-1.4l-0.75,-1.351l-0.825,-1.325l-0.926,-1.25l-1,-1.2l-1.075,-1.125l-2,7.426l-0.375,1.275l-0.5,1.25l-0.55,1.2l-0.65,1.175l-0.75,1.1l-0.8,1.05l-0.875,1l-0.95,0.95l-1.025,0.851l-1.076,0.8l-1.125,0.725l-1.15,0.625l-1.225,0.55l-1.25,0.45l-1.275,0.375l-1.3,0.3l-0.575,0.05l-0.575,-0.05l-0.55,-0.125l-0.525,-0.225l-0.475,-0.3l-0.425,-0.375l-0.375,-0.45l-0.301,-0.475l-0.2,-0.55l-0.125,-0.55l-0.025,-0.575l0.075,-0.55l0.15,-0.551l0.25,-0.525l0.326,-0.475l0.375,-0.425l0.475,-0.325l1.275,-0.9l1.25,-1l1.175,-1.075l1.075,-1.125l1.025,-1.225l0.925,-1.275l0.825,-1.35l0.75,-1.375l0.675,-1.451l0.55,-1.475l0.45,-1.525Zm78.107,15.827l-0.125,-0.926l-0.225,-0.9l-0.325,-0.875l-0.4,-0.825l-0.475,-0.8l-0.55,-0.75l-0.625,-0.675l-0.675,-0.625l-0.75,-0.55l-0.8,-0.475l-0.825,-0.4l-0.875,-0.325l-0.9,-0.225l-0.926,-0.125l-0.925,-0.05l-0.925,0.05l-0.925,0.125l-0.9,0.225l-0.875,0.325l-0.825,0.4l-0.8,0.475l-0.75,0.55l-0.675,0.625l-0.625,0.675l-0.55,0.75l-0.475,0.8l-0.4,0.825l-0.325,0.875l-0.225,0.9l-0.125,0.926l-0.05,0.925l0.05,0.925l0.125,0.925l0.225,0.9l0.325,0.875l0.4,0.825l0.475,0.8l0.55,0.75l0.625,0.675l0.675,0.625l0.75,0.55l0.8,0.475l0.825,0.4l0.875,0.325l0.9,0.225l0.925,0.125l0.925,0.05l0.925,-0.05l0.926,-0.125l0.9,-0.225l0.875,-0.325l0.825,-0.4l0.8,-0.475l0.75,-0.55l0.675,-0.625l0.625,-0.675l0.55,-0.75l0.475,-0.8l0.4,-0.825l0.325,-0.875l0.225,-0.9l0.125,-0.925l0.05,-0.925l-0.05,-0.925Zm36.753,-2.326l-9.05,-15.676l-1.126,1.025l-1.05,1.075l-1,1.15l-0.925,1.225l-0.85,1.25l-0.775,1.326l-0.7,1.35l-0.6,1.4l-0.5,1.425l-0.425,1.475l-0.35,1.475l-0.251,1.5l17.602,0Zm-14.426,-24.977l-1.425,1.15l-1.375,1.225l-1.3,1.275l-1.25,1.351l-1.175,1.425l-1.076,1.475l-1.025,1.55l-0.925,1.575l-0.85,1.625l-0.775,1.675l-0.675,1.701l-0.575,1.75l-0.5,1.775l-0.4,1.8l-0.325,1.8l-0.2,1.825l-3.475,0l-0.325,-1.25l-0.45,-1.2l-0.55,-1.15l-0.651,-1.1l-0.725,-1.05l-0.825,-1l-0.925,-0.9l-0.975,-0.825l12.476,-34.303l10.276,17.801Zm-49.029,9.326l6.2,-0l3.051,6.526l-0.95,0.675l-43.679,-30.603l1.325,-4.95l63.83,-0l-11.826,32.502l-1.25,0l-1.25,0.1l-1.25,0.2l-1.2,0.325l-2.225,-4.775l4,-0l0,-4.725l-4,-0l-0.425,-0.5l-0.5,-0.451l-0.55,-0.35l-0.6,-0.25l-0.65,-0.175l-0.675,-0.05l-0.651,0.05l-0.65,0.175l-0.6,0.25l-0.575,0.35l-0.5,0.451l-0.4,0.5l-4,-0l-0,4.725Z" style="fill:#fff;"/></g></g><rect x="110.134" y="614.173" width="52.441" height="94.488" style="fill:#0079c1;"/><path d="M156.496,677.609l-4.537,7.43c-3.337,-0.313 -5.788,-1.851 -7.353,-4.615c-1.355,1.2 -3.05,2.23 -5.084,3.09c-2.033,0.861 -4.51,1.291 -7.431,1.291c-2.138,-0 -4.171,-0.287 -6.101,-0.861c-1.929,-0.573 -3.611,-1.421 -5.045,-2.542c-1.434,-1.121 -2.581,-2.529 -3.441,-4.224c-0.861,-1.694 -1.291,-3.663 -1.291,-5.905c0,-3.285 0.652,-5.893 1.955,-7.822c1.304,-1.929 2.842,-3.403 4.615,-4.419c1.773,-1.017 3.585,-1.682 5.437,-1.995c1.851,-0.313 3.324,-0.521 4.419,-0.626c0.626,-0.052 1.369,-0.117 2.229,-0.195c0.861,-0.078 1.747,-0.157 2.66,-0.235c0.912,-0.078 1.812,-0.143 2.698,-0.195c0.887,-0.053 1.669,-0.105 2.347,-0.157l-0,-1.799c-0,-2.346 -0.561,-4.08 -1.682,-5.201c-1.121,-1.122 -2.933,-1.682 -5.436,-1.682c-2.295,-0 -4.485,0.287 -6.571,0.86c-2.085,0.574 -4.171,1.486 -6.257,2.738l-3.676,-8.057c2.816,-1.668 5.631,-2.868 8.447,-3.598c2.816,-0.73 5.762,-1.095 8.839,-1.095c5.371,0 9.425,1.369 12.163,4.107c2.738,2.737 4.106,6.896 4.106,12.476l0,16.973c0,1.669 0.3,2.985 0.9,3.95c0.6,0.965 1.63,1.734 3.09,2.308Zm-14.002,-6.962l0,-7.118c-0.99,0.052 -2.164,0.118 -3.519,0.196c-1.356,0.078 -2.503,0.169 -3.442,0.274c-1.043,0.104 -2.099,0.247 -3.168,0.43c-1.069,0.182 -2.047,0.495 -2.933,0.938c-0.887,0.444 -1.617,1.069 -2.19,1.878c-0.574,0.808 -0.861,1.916 -0.861,3.324c0,1.043 0.222,1.929 0.665,2.659c0.444,0.73 1.03,1.356 1.76,1.878c0.73,0.521 1.552,0.899 2.464,1.134c0.913,0.234 1.812,0.352 2.699,0.352c2.816,-0 4.94,-0.548 6.374,-1.643c1.434,-1.095 2.151,-2.529 2.151,-4.302Z" style="fill:#fff;fill-rule:nonzero;"/><rect x="162.575" y="614.173" width="49.134" height="94.488" style="fill:#0079c1;"/><path d="M209.599,685.039l-12.143,0l-10.397,-16.136l-10.397,16.136l-11.978,0l16.552,-24.869l-14.805,-22.375l12.06,0l8.651,13.392l8.567,-13.392l12.06,0l-14.805,22.292l16.635,24.952Z" style="fill:#fff;fill-rule:nonzero;"/><rect x="71.866" y="614.173" width="38.268" height="94.488" style="fill:#0079c1;"/><path d="M106.762,683.442c-1.282,0.334 -2.773,0.682 -4.474,1.045c-1.7,0.362 -3.721,0.543 -6.062,0.543c-1.449,0 -2.954,-0.153 -4.515,-0.46c-1.561,-0.306 -2.983,-0.892 -4.265,-1.756c-1.282,-0.864 -2.327,-2.062 -3.135,-3.595c-0.809,-1.533 -1.213,-3.498 -1.213,-5.895l0,-28.263l-7.86,-0l0,-9.031l7.86,0l0,-12.375l10.62,-4.766l-0,17.141l12.291,0l0,9.031l-12.291,-0l-0,24.082c-0,2.23 0.376,3.791 1.128,4.682c0.753,0.892 2.3,1.338 4.641,1.338c1.896,0 3.735,-0.334 5.519,-1.003l1.756,9.282Z" style="fill:#fff;fill-rule:nonzero;"/><rect x="211.709" y="614.173" width="25.512" height="94.488" style="fill:#0079c1;"/><path d="M230.837,625.229c0,1.777 -0.611,3.29 -1.832,4.54c-1.222,1.249 -2.722,1.874 -4.499,1.874c-1.777,-0 -3.29,-0.625 -4.54,-1.874c-1.249,-1.25 -1.874,-2.763 -1.874,-4.54c-0,-1.778 0.625,-3.277 1.874,-4.499c1.25,-1.221 2.763,-1.832 4.54,-1.832c1.777,-0 3.277,0.611 4.499,1.832c1.221,1.222 1.832,2.721 1.832,4.499Zm-0.999,59.81l-10.663,0l-0,-47.315l10.663,-0l-0,47.315Z" style="fill:#fff;fill-rule:nonzero;"/><clipPath id="_clip6"><rect id="S25-BUS.afdesign" serif:id="S25 BUS.afdesign" x="71.866" y="59.043" width="472.441" height="153.567"/></clipPath><g clip-path="url(#_clip6)"><rect id="S24-BUS-LOCAL-LEFT-W" serif:id="S24 BUS LOCAL LEFT W" x="71.866" y="59.043" width="472.441" height="153.567" style="fill:none;"/><clipPath id="_clip7"><rect x="71.866" y="59.043" width="472.441" height="153.567"/></clipPath><g clip-path="url(#_clip7)"><path d="M423.431,210.837l2.062,-1.001l2,-1.188l1.875,-1.375l1.688,-1.563l1.563,-1.75l1.375,-1.813l1.187,-2.001l0.999,-2.125l0.813,-2.189l0.562,-2.251l0.313,-2.251l0.125,-2.312l-0.125,-2.313l-0.313,-2.314l-0.562,-2.25l-0.813,-2.188l-0.999,-2.126l-1.187,-1.939l-1.375,-1.874l-1.563,-1.751l-1.688,-1.563l-1.875,-1.376l-2,-1.187l-2.062,-1l-2.188,-0.751l-2.25,-0.563l-2.313,-0.375l-2.312,-0.062l-2.312,0.062l-2.313,0.375l-2.25,0.563l-2.188,0.751l-2.062,1l-2,1.187l-1.875,1.376l-1.687,1.563l-1.563,1.751l-1.375,1.874l-1.188,1.939l-1,2.126l-0.811,2.188l-0.563,2.25l-0.313,2.314l-0.124,2.313l0.124,2.312l0.313,2.251l0.563,2.251l0.811,2.189l1,2.125l1.188,2.001l1.375,1.813l1.563,1.75l1.687,1.563l1.875,1.375l2,1.188l2.062,1.001l2.188,0.75l2.25,0.562l2.313,0.375l2.312,0.063l2.312,-0.063l2.313,-0.375l2.25,-0.562l2.188,-0.75Zm-254.314,-0l2.187,0.75l2.25,0.562l2.312,0.375l2.313,0.063l2.313,-0.063l2.25,-0.375l2.249,-0.562l2.188,-0.75l2.125,-1.001l2,-1.188l1.813,-1.375l1.749,-1.563l1.563,-1.75l1.375,-1.813l1.188,-2.001l1,-2.125l0.75,-2.189l0.562,-2.251l0.375,-2.251l0.125,-2.312l-0.125,-2.313l-0.375,-2.314l-0.562,-2.25l-0.75,-2.188l-1,-2.126l-1.188,-1.939l-1.375,-1.874l-1.563,-1.751l-1.749,-1.563l-1.813,-1.376l-2,-1.187l-2.125,-1l-2.188,-0.751l-2.249,-0.563l-2.25,-0.375l-2.313,-0.062l-2.313,0.062l-2.312,0.375l-2.25,0.563l-2.187,0.751l-2.125,1l-1.938,1.187l-1.875,1.376l-1.751,1.563l-1.561,1.751l-1.375,1.874l-1.188,1.939l-1,2.126l-0.75,2.188l-0.563,2.25l-0.375,2.314l-0.062,2.313l0.062,2.312l0.375,2.251l0.563,2.251l0.75,2.189l1,2.125l1.188,2.001l1.375,1.813l1.561,1.75l1.751,1.563l1.875,1.375l1.938,1.188l2.125,1.001Zm12.375,-10.504l1.563,-0.625l1.499,-0.75l1.312,-1.062l1.188,-1.189l1.063,-1.312l0.75,-1.501l0.625,-1.563l0.375,-1.688l0.125,-1.625l-0.125,-1.688l-0.375,-1.688l-0.625,-1.563l-0.75,-1.5l-1.063,-1.314l-1.188,-1.187l-1.312,-1.001l-1.499,-0.813l-1.563,-0.625l-1.688,-0.312l-1.625,-0.125l-1.688,0.125l-1.687,0.312l-1.563,0.625l-1.499,0.813l-1.313,1.001l-1.187,1.187l-1,1.314l-0.813,1.5l-0.625,1.563l-0.313,1.688l-0.124,1.688l0.124,1.625l0.313,1.688l0.625,1.563l0.813,1.501l1,1.312l1.187,1.189l1.313,1.062l1.499,0.75l1.563,0.625l1.687,0.375l1.688,0.126l1.625,-0.126l1.688,-0.375Zm228.001,-0.625l1.563,0.625l1.625,0.375l1.687,0.126l1.687,-0.126l1.625,-0.375l1.626,-0.625l1.437,-0.75l1.375,-1.062l1.188,-1.189l1,-1.312l0.812,-1.501l0.562,-1.563l0.375,-1.688l0.125,-1.625l-0.125,-1.688l-0.375,-1.688l-0.562,-1.563l-0.812,-1.5l-1,-1.314l-1.188,-1.187l-1.375,-1.001l-1.437,-0.813l-1.626,-0.625l-1.625,-0.312l-1.687,-0.125l-1.687,0.125l-1.625,0.312l-1.563,0.625l-1.5,0.813l-1.375,1.001l-1.188,1.187l-1,1.314l-0.812,1.5l-0.563,1.563l-0.374,1.688l-0.126,1.688l0.126,1.625l0.374,1.688l0.563,1.563l0.812,1.501l1,1.312l1.188,1.189l1.375,1.062l1.5,0.75Zm-337.502,-14.879l0.313,1.688l0.562,1.625l0.749,1.563l1,1.5l1.125,1.251l1.313,1.188l1.438,0.938l1.562,0.75l1.626,0.563l1.75,0.375l1.686,0.125l64.439,-0l-0.562,-2.751l-0.313,-2.689l-0.062,-2.813l0.25,-2.75l0.437,-2.688l0.688,-2.689l0.999,-2.563l1.188,-2.501l1.437,-2.376l1.625,-2.187l1.813,-2.064l2.063,-1.876l2.186,-1.687l2.313,-1.501l2.5,-1.25l2.563,-1l2.625,-0.751l2.75,-0.5l2.687,-0.25l2.813,-0l2.751,0.25l2.686,0.5l2.626,0.751l2.625,1l2.438,1.25l2.311,1.501l2.188,1.687l2.063,1.876l1.812,2.064l1.626,2.187l1.437,2.376l1.187,2.501l1,2.563l0.687,2.689l0.5,2.688l0.188,2.75l-0.063,2.813l-0.312,2.689l-0.563,2.751l179.064,-0l-0.562,-2.751l-0.313,-2.689l-0.062,-2.813l0.187,-2.75l0.5,-2.688l0.688,-2.689l0.938,-2.563l1.187,-2.501l1.438,-2.376l1.624,-2.187l1.875,-2.064l2,-1.876l2.188,-1.687l2.375,-1.501l2.438,-1.25l2.562,-1l2.688,-0.751l2.687,-0.5l2.751,-0.25l2.749,-0l2.75,0.25l2.75,0.5l2.626,0.751l2.561,1l2.501,1.25l2.312,1.501l2.188,1.687l2,1.876l1.874,2.064l1.626,2.187l1.437,2.376l1.188,2.501l0.938,2.563l0.75,2.689l0.437,2.688l0.188,2.75l-0,2.813l-0.313,2.689l-0.562,2.751l101.313,-19.193l0,-88.651l-0.126,-2.688l-0.375,-2.687l-0.624,-2.689l-0.876,-2.563l-1.125,-2.501l-1.312,-2.376l-1.563,-2.25l-1.687,-2.126l-1.939,-1.938l-2.123,-1.75l-2.251,-1.501l-2.375,-1.313l-2.501,-1.126l-2.561,-0.875l-2.687,-0.625l-2.689,-0.375l-2.749,-0.125l-426.941,0l-1.25,0.125l-1.25,0.313l-1.124,0.5l-1,0.687l-0.938,0.876l-0.75,1l-0.562,1.125l-0.376,1.189l-0.125,1.25l-2.687,63.831l-1.125,0.125l-1.126,0.312l-1,0.563l-0.937,0.687l-0.687,0.939l-0.562,0.999l-0.313,1.125l-0.125,1.126l0,47.264l0.125,1.75Zm55.251,-101.716l-1.063,-0.314l-1.188,-0.124l-17.688,-0l-1.187,0.124l-1.062,0.314l-1.063,0.562l-0.875,0.75l-0.75,0.875l-0.562,1.001l-0.313,1.125l-0.125,1.125l0,87.15l0.125,1.126l0.313,1.125l0.562,1l0.75,0.938l0.875,0.75l1.063,0.5l1.062,0.375l1.187,0.063l17.688,-0l1.188,-0.063l1.063,-0.375l1.061,-0.5l0.875,-0.75l0.75,-0.938l0.5,-1l0.375,-1.125l0.125,-1.126l0,-87.15l-0.125,-1.125l-0.375,-1.125l-0.5,-1.001l-0.75,-0.875l-0.875,-0.75l-1.061,-0.562Zm393.438,40.886l1.127,-0.124l1.125,-0.313l0.998,-0.563l0.938,-0.688l0.687,-0.937l0.564,-1l0.375,-1.126l0.061,-1.125l-0,-17.756l-0.124,-2.126l-0.375,-2.062l-0.626,-2.063l-0.874,-1.939l-1.125,-1.875l-1.313,-1.688l-1.5,-1.5l-1.688,-1.314l-1.811,-1.124l-2.001,-0.875l-2,-0.625l-2.125,-0.376l-2.124,-0.125l-41.364,-0l-1.126,0.125l-1.125,0.313l-0.999,0.563l-0.937,0.75l-0.75,0.874l-0.5,1.001l-0.375,1.125l-0.063,1.125l-0,29.572l0.063,1.125l0.375,1.126l0.5,1l0.75,0.937l0.937,0.687l0.999,0.564l1.125,0.312l1.126,0.125l53.175,0Zm-311.832,-0.124l1.125,-0.313l1,-0.563l0.938,-0.688l0.687,-0.937l0.563,-1l0.313,-1.126l0.124,-1.125l0,-29.572l-0.124,-1.125l-0.313,-1.125l-0.563,-1.001l-0.687,-0.875l-0.938,-0.75l-1,-0.562l-1.125,-0.314l-1.125,-0.124l-50.231,-0l-1.188,0.124l-1.063,0.314l-1.062,0.562l-0.875,0.75l-0.751,0.875l-0.5,1.001l-0.375,1.125l-0.125,1.125l0,29.572l0.125,1.125l0.375,1.126l0.5,1l0.751,0.937l0.875,0.687l1.062,0.564l1.063,0.312l1.188,0.125l50.231,0l1.125,-0.124Z" style="fill:#fff;"/><path d="M330.455,125.922l0.669,1.5l1.171,1.84l1.5,1.66l1.75,1.25l2.08,0.84l1.83,0.25l1.92,-0.25l2,-0.84l1.75,-1.25l1.5,-1.66l1.25,-1.84l1,-2.66l12,4.5l-0.251,0.5l-1.17,2.75l-1.5,2.5l-1.75,2.25l-2.08,2.079l-2.34,1.75l-2.33,1.25l-2.33,0.921l-2.5,0.75l-2.59,0.409l-2.58,0.17l-2.58,-0.17l-2.5,-0.409l-2.5,-0.75l-2.42,-0.921l-2.25,-1.25l-2.33,-1.75l-2.079,-2.079l-1.84,-2.25l-1.5,-2.5l-1.16,-2.75l-0.17,-0.5l-0.831,-3.34l-0.499,-3.41l-0.17,-3.42l0.17,-3.41l0.499,-3.34l0.831,-3.33l0.17,-0.58l1.16,-2.67l1.5,-2.499l1.84,-2.33l2.079,-2l2.33,-1.84l2.25,-1.16l2.42,-1.001l2.5,-0.669l2.5,-0.5l2.58,-0.17l2.58,0.17l2.59,0.5l2.5,0.669l2.33,1.001l2.33,1.16l2.34,1.84l2.08,2l1.75,2.33l1.5,2.499l1.17,2.67l0.251,0.58l-12,4.42l-1,-2.67l-1.25,-1.83l-1.5,-1.59l-1.75,-1.25l-2,-0.83l-1.92,-0.25l-1.83,0.25l-2.08,0.83l-1.75,1.25l-1.5,1.59l-1.171,1.83l-0.669,1.58l-0.5,1.59l-0.25,2.58l-0.161,2.58l0.161,2.67l0.25,2.58l0.5,1.58Zm-46.319,-32.361c-0.862,0 -1.742,0.064 -2.59,0.161c-0.84,0.096 -1.677,0.228 -2.5,0.42c-0.834,0.195 -1.682,0.472 -2.5,0.75c-0.814,0.277 -1.633,0.56 -2.41,0.92c-0.777,0.36 -1.533,0.773 -2.25,1.24c-0.765,0.499 -1.605,1.111 -2.34,1.75c-0.737,0.64 -1.428,1.367 -2.08,2.09c-0.647,0.718 -1.281,1.454 -1.83,2.25c-0.555,0.805 -1.055,1.705 -1.5,2.58c-0.44,0.866 -0.949,2.142 -1.17,2.67c-0.068,0.161 -0.117,0.33 -0.161,0.5c-0.167,0.638 -0.617,2.207 -0.84,3.33c-0.223,1.125 -0.388,2.281 -0.499,3.42c-0.111,1.132 -0.17,2.271 -0.17,3.409c-0,1.139 0.058,2.284 0.17,3.42c0.111,1.139 0.276,2.3 0.499,3.41c0.221,1.097 0.673,2.61 0.84,3.25c0.051,0.198 0.083,0.402 0.161,0.591c0.221,0.542 0.725,1.8 1.17,2.66c0.445,0.86 0.949,1.699 1.5,2.5c0.555,0.806 1.178,1.603 1.83,2.34c0.65,0.734 1.343,1.441 2.08,2.08c0.736,0.638 1.575,1.265 2.34,1.75c0.713,0.452 1.485,0.803 2.25,1.16c0.777,0.361 1.592,0.718 2.41,1.009c0.818,0.292 1.666,0.546 2.5,0.74c0.823,0.191 1.66,0.323 2.5,0.42c0.848,0.099 1.728,0.17 2.59,0.17c0.861,0 1.723,-0.072 2.58,-0.17c0.86,-0.098 1.733,-0.227 2.58,-0.42c0.846,-0.194 1.681,-0.448 2.5,-0.74c0.82,-0.291 1.641,-0.648 2.419,-1.009c0.766,-0.356 1.538,-0.708 2.25,-1.16c0.764,-0.485 1.597,-1.113 2.33,-1.75c0.735,-0.639 1.43,-1.347 2.08,-2.08c0.654,-0.737 1.284,-1.534 1.84,-2.34c0.552,-0.8 1.057,-1.64 1.5,-2.5c0.443,-0.86 0.938,-2.118 1.16,-2.66c0.078,-0.19 0.119,-0.392 0.17,-0.591c0.167,-0.64 0.612,-2.153 0.831,-3.25c0.221,-1.11 0.4,-2.271 0.499,-3.41c0.099,-1.136 0.095,-2.281 0.095,-3.42c-0,-1.137 0.004,-2.277 -0.095,-3.409c-0.099,-1.139 -0.278,-2.295 -0.499,-3.42c-0.222,-1.123 -0.664,-2.692 -0.831,-3.33c-0.044,-0.17 -0.102,-0.338 -0.17,-0.5c-0.222,-0.528 -0.721,-1.804 -1.16,-2.67c-0.443,-0.875 -0.943,-1.775 -1.5,-2.58c-0.551,-0.797 -1.19,-1.531 -1.84,-2.25c-0.653,-0.723 -1.345,-1.45 -2.08,-2.09c-0.732,-0.638 -1.566,-1.251 -2.33,-1.75c-0.717,-0.468 -1.472,-0.88 -2.25,-1.24c-0.778,-0.36 -1.602,-0.642 -2.419,-0.92c-0.82,-0.278 -1.654,-0.555 -2.5,-0.75c-0.847,-0.195 -1.72,-0.323 -2.58,-0.42c-0.857,-0.097 -1.719,-0.161 -2.58,-0.161Zm105.228,0l-3.08,0.161l-3,0.58l-3.75,1.09l-3.67,1.41l-3.5,1.67l-3.41,1.92l6.33,9.66l2.58,-1.58l2.67,-1.25l2.83,-1.001l2.92,-0.75l3,-0.42l1.66,-0.083l1.75,0.33l1.58,0.589l0.92,0.58l0.75,0.83l0.499,0.92l0.17,1.08l0,3l-4.17,0.17l-4.079,0.5l-4.08,0.75l-4,1.079l-3.92,1.42l-1.66,1l-1.59,1.25l-1.42,1.5l-1.16,1.58l-0.92,1.83l-0.66,1.92l-0.341,2l-0.082,2l0.17,2l0.49,1.92l0.759,1.91l1.001,1.75l1.24,1.59l1.42,1.41l1.67,1.17l2.41,1.16l2.59,0.92l2.75,0.59l2.75,0.329l2.75,-0.082l2.659,-0.341l2.67,-0.66l1.42,-0.67l1.33,-0.83l1.08,-1l0.92,-1.25l1,1.33l1.25,1l1.42,0.75l2.58,1.001l2.66,0.579l2.75,0.33l4.59,-10.08l-1.09,0l-1.08,-0.159l-1.079,-0.5l-0.84,-0.67l-0.66,-0.92l-0.421,-1l-0.17,-1.16l0,-22.33l-0.16,-1.839l-0.421,-1.83l-0.75,-1.67l-0.92,-1.58l-1.25,-1.5l-1.41,-1.171l-1.59,-1l-2.25,-0.99l-2.41,-0.84l-2.92,-0.83l-3.08,-0.421l-2.995,-0.151Zm-135.388,37.531l-2.5,0.33l-2.5,0.094l-0.92,-0.094l-0.75,-0.41l-0.66,-0.67l-0.42,-0.75l-0.17,-0.92l-0,-52.069l-12.91,-0l-0,57.319l0.161,1.75l0.499,1.67l0.75,1.58l1.001,1.5l1.249,1.25l1.421,1l1.669,0.67l1.66,0.499l1.75,0.17l4.08,-0.34l4,-0.499l4,-0.75l-1.41,-11.33Zm190.807,-0.041l-2.5,0.329l-2.5,0.095l-0.92,-0.095l-0.75,-0.41l-0.661,-0.669l-0.42,-0.75l-0.17,-0.921l-0,-52.069l-12.91,0l0,57.319l0.161,1.75l0.499,1.67l0.75,1.58l1.001,1.5l1.25,1.25l1.42,1.001l1.67,0.669l1.66,0.5l1.75,0.17l4.08,-0.34l3.999,-0.5l4,-0.75l-1.409,-11.329Zm-48.17,-9.42l0,6.75l-0.17,1.249l-0.58,1.171l-0.75,1l-1.09,0.75l-1.16,0.421l-2.33,0.329l-2.34,0l-2.329,-0.329l-1.171,-0.421l-1,-0.75l-0.831,-0.92l-0.58,-1.079l-0.34,-1.08l0,-1.17l0.34,-1.171l0.58,-0.91l0.831,-0.84l1,-0.58l3.92,-1l2.28,-0.471l1.72,-0.36l4,-0.589Zm-112.477,-16.74c0.625,-0 1.291,0.079 1.91,0.25c0.651,0.181 1.375,0.471 2,0.831c0.625,0.36 1.208,0.843 1.75,1.33c0.541,0.486 1.043,1.022 1.5,1.59c0.458,0.57 0.93,1.275 1.25,1.83c0.273,0.474 0.488,0.986 0.669,1.5c0.182,0.513 0.326,1.043 0.421,1.579c0.125,0.709 0.261,1.795 0.329,2.67c0.068,0.858 0.083,1.72 0.083,2.58c-0,0.86 -0.015,1.723 -0.083,2.58c-0.068,0.875 -0.204,1.962 -0.329,2.67c-0.095,0.537 -0.239,1.067 -0.421,1.58c-0.181,0.514 -0.397,1.025 -0.669,1.5c-0.32,0.557 -0.792,1.27 -1.25,1.84c-0.455,0.566 -0.959,1.096 -1.5,1.58c-0.542,0.485 -1.125,0.983 -1.75,1.33c-0.623,0.345 -1.349,0.568 -2,0.75c-0.623,0.174 -1.285,0.34 -1.91,0.34c-0.624,0 -1.24,-0.17 -1.84,-0.34c-0.64,-0.182 -1.375,-0.41 -2,-0.75c-0.639,-0.347 -1.275,-0.845 -1.83,-1.33c-0.547,-0.478 -1.055,-1.01 -1.5,-1.58c-0.445,-0.57 -0.866,-1.283 -1.171,-1.84c-0.262,-0.479 -0.48,-0.986 -0.66,-1.5c-0.18,-0.513 -0.326,-1.043 -0.42,-1.58c-0.125,-0.708 -0.247,-1.795 -0.33,-2.67c-0.082,-0.858 -0.17,-1.72 -0.17,-2.58c0,-0.86 0.088,-1.722 0.17,-2.58c0.083,-0.875 0.205,-1.961 0.33,-2.67c0.094,-0.536 0.24,-1.066 0.42,-1.579c0.18,-0.514 0.397,-1.022 0.66,-1.5c0.305,-0.555 0.726,-1.26 1.171,-1.83c0.445,-0.57 0.952,-1.11 1.5,-1.59c0.555,-0.487 1.191,-0.97 1.83,-1.33c0.628,-0.355 1.36,-0.65 2,-0.831c0.596,-0.167 1.221,-0.25 1.84,-0.25Z" style="fill:#010001;"/></g></g><rect x="518.087" y="797.244" width="37.795" height="94.488" style="fill:#0079c1;"/><path d="M549.362,821.026c-6.391,-0.486 -10.679,1.537 -14.319,6.795l-0,-5.582l-10.436,-0l-0,45.95l10.436,-0l-0,-25.159c-0,-7.119 6.472,-11.407 12.862,-11.245l1.457,0.081l-0,-10.84Z" style="fill:#fff;fill-rule:nonzero;"/><rect x="555.882" y="797.244" width="25.512" height="94.488" style="fill:#0079c1;"/><path d="M575.01,808.299c0,1.778 -0.61,3.291 -1.832,4.54c-1.222,1.25 -2.721,1.875 -4.499,1.875c-1.777,-0 -3.29,-0.625 -4.54,-1.875c-1.249,-1.249 -1.874,-2.762 -1.874,-4.54c0,-1.777 0.625,-3.276 1.874,-4.498c1.25,-1.222 2.763,-1.832 4.54,-1.832c1.778,-0 3.277,0.61 4.499,1.832c1.222,1.222 1.832,2.721 1.832,4.498Zm-0.999,59.811l-10.663,0l0,-47.315l10.663,-0l-0,47.315Z" style="fill:#fff;fill-rule:nonzero;"/><rect x="461.866" y="797.244" width="56.22" height="94.488" style="fill:#0079c1;"/><path d="M513.447,801.953l-41.381,0l0,66.142l11.363,-0l-0,-28.407l27.389,-0l0,-10.176l-27.389,0l-0,-17.383l30.018,-0l0,-10.176Z" style="fill:#fff;fill-rule:nonzero;"/><rect x="287.063" y="797.244" width="52.913" height="94.488" style="fill:#0079c1;"/><path d="M324.821,845.038c-0,7.926 -4.238,13.969 -11.223,13.969c-7.063,-0 -11.301,-6.043 -11.301,-13.969c0,-7.848 4.16,-15.068 11.301,-15.068c6.985,-0 11.223,7.22 11.223,15.068Zm9.966,-0c0,-13.734 -7.534,-24.172 -21.189,-24.172c-13.734,0 -21.346,10.281 -21.346,24.172c-0,13.419 8.476,23.072 21.346,23.072c12.871,0 21.189,-9.731 21.189,-23.072Z" style="fill:#fff;fill-rule:nonzero;"/><rect x="339.976" y="797.244" width="52.913" height="94.488" style="fill:#0079c1;"/><path d="M385.552,836.239c0,-8.818 -5.42,-15.452 -15.856,-15.452c-4.287,0 -8.898,2.023 -11.649,5.016l0,-3.721l-10.436,-0l0,45.949l10.436,0l0,-28.233c0,-6.795 4.854,-9.222 9.303,-9.222c4.935,-0 7.767,2.831 7.767,8.494l-0,28.961l10.435,0l0,-31.792Z" style="fill:#fff;fill-rule:nonzero;"/><rect x="200.134" y="797.244" width="86.929" height="94.488" style="fill:#0079c1;"/><path d="M275.609,801.969l-11.362,-0l-20.606,28.576l-20.691,-28.576l-11.362,-0l-0,66.141l11.362,0l0,-46.977l20.691,28.661l20.606,-28.661l-0,46.977l11.362,0l0,-66.141Z" style="fill:#fff;fill-rule:nonzero;"/><rect id="path1698" x="410.606" y="797.244" width="33.543" height="94.488" style="fill:#0079c1;"/><rect x="415.331" y="836.105" width="18.148" height="7.673" style="fill:#fff;fill-rule:nonzero;"/><rect x="575.37" y="986.22" width="53.858" height="94.488" style="fill:#0079c1;"/><path d="M612.929,1034.58c0,8.499 -4.219,15.399 -12.16,15.399c-4.219,0 -9.431,-3.282 -9.431,-8.667l0,-12.369c0,-5.638 4.716,-8.752 9.679,-8.752c7.693,0 11.912,7.405 11.912,14.389Zm10.837,0c-0,-12.706 -7.28,-24.738 -20.598,-24.738c-4.798,-0 -8.769,1.598 -11.747,4.712l0,-3.366l-10.588,-0l-0,63.614l10.588,0l0,-19.269c3.061,3.197 7.197,4.88 11.747,4.88c12.656,0 20.598,-11.612 20.598,-25.833Z" style="fill:#fff;fill-rule:nonzero;"/><rect x="629.228" y="986.22" width="77.48" height="94.488" style="fill:#0079c1;"/><path d="M699.074,1025.54c-0,-9.87 -5.906,-15.775 -16.18,-15.775c-5.096,-0 -9.627,1.941 -12.782,5.743c-3.074,-4.125 -6.876,-5.662 -11.892,-5.662c-3.964,-0 -8.656,1.779 -11.002,5.015l0,-3.802l-10.355,0l0,45.95l10.355,-0l0,-28.233c0,-5.34 4.45,-9.223 9.142,-9.223c3.964,0 6.391,2.67 6.391,7.443l0.081,30.013l10.354,-0l0,-28.314c0,-5.259 4.773,-9.061 8.737,-9.061c3.641,0 6.796,2.589 6.796,7.443l-0,29.932l10.355,-0l-0,-31.469Z" style="fill:#fff;fill-rule:nonzero;"/><rect id="path16981" serif:id="path1698" x="299.937" y="986.22" width="33.543" height="94.488" style="fill:#0079c1;"/><rect x="304.661" y="1025.08" width="18.148" height="7.673" style="fill:#fff;fill-rule:nonzero;"/><rect x="74.819" y="986.22" width="60" height="94.488" style="fill:#0079c1;"/><path d="M111.014,1034.53l-21.203,-0l21.203,-30.188l-0,30.188Zm18.997,-0l-7.633,-0l-0,-43.586l-13.994,-0l-30.022,42.738l0,11.023l32.482,0l-0,12.381l11.534,-0l-0,-12.381l7.633,0l-0,-10.175Z" style="fill:#fff;fill-rule:nonzero;"/><rect x="437.181" y="986.22" width="60" height="94.488" style="fill:#0079c1;"/><path d="M486.388,1037.79c-0,-6.786 -2.862,-12.754 -7.932,-15.125c4.661,-2.453 7.359,-7.195 7.359,-13.245c0,-11.119 -7.604,-18.477 -20.278,-18.477c-12.347,-0 -19.952,5.641 -22.814,16.76l10.14,2.453c1.308,-5.233 4.987,-8.83 11.611,-8.83c7.032,0 10.466,3.516 10.466,8.748c0,6.704 -6.296,8.666 -11.856,8.748l-1.799,0l-0,9.157c6.459,-0.736 14.309,0.654 14.309,9.484c0,6.704 -4.415,9.647 -11.039,9.647c-6.623,0 -11.284,-4.496 -12.183,-10.955l-10.466,2.371c2.125,11.364 10.221,18.559 23.631,18.559c13.246,-0 20.851,-7.522 20.851,-19.295Z" style="fill:#fff;fill-rule:nonzero;"/><rect id="path16982" serif:id="path1698" x="134.819" y="986.22" width="26.457" height="94.488" style="fill:#0079c1;"/><path d="M154.512,1050.7c0,-3.565 -2.901,-6.383 -6.465,-6.383c-3.564,0 -6.465,2.818 -6.465,6.383c0,3.564 2.901,6.464 6.465,6.464c3.564,0 6.465,-2.9 6.465,-6.464Z" style="fill:#fff;fill-rule:nonzero;"/><rect id="path16983" serif:id="path1698" x="410.724" y="986.22" width="26.457" height="94.488" style="fill:#0079c1;"/><path d="M430.418,1050.7c-0,-3.565 -2.901,-6.383 -6.465,-6.383c-3.564,0 -6.465,2.818 -6.465,6.383c-0,3.564 2.901,6.464 6.465,6.464c3.564,0 6.465,-2.9 6.465,-6.464Z" style="fill:#fff;fill-rule:nonzero;"/><rect x="161.276" y="986.22" width="60.472" height="94.488" style="fill:#0079c1;"/><path d="M205.297,1023.81c-0,9.216 -2.04,23.406 -13.459,23.406c-11.501,0 -14.111,-14.435 -14.111,-23.569c-0,-10.195 3.997,-22.999 13.785,-22.999c9.788,0 13.785,12.967 13.785,23.162Zm10.93,-0.082c-0,-16.392 -8.076,-32.785 -24.715,-32.785c-16.885,-0 -24.715,16.311 -24.715,32.704c0,16.474 8.238,33.438 25.041,33.438c16.803,-0 24.389,-16.964 24.389,-33.357Z" style="fill:#fff;fill-rule:nonzero;"/><rect x="221.748" y="986.22" width="60.472" height="94.488" style="fill:#0079c1;"/><path d="M265.769,1023.81c0,9.216 -2.039,23.406 -13.458,23.406c-11.501,0 -14.112,-14.435 -14.112,-23.569c0,-10.195 3.997,-22.999 13.785,-22.999c9.788,0 13.785,12.967 13.785,23.162Zm10.93,-0.082c0,-16.392 -8.075,-32.785 -24.715,-32.785c-16.884,-0 -24.715,16.311 -24.715,32.704c0,16.474 8.239,33.438 25.042,33.438c16.802,-0 24.388,-16.964 24.388,-33.357Z" style="fill:#fff;fill-rule:nonzero;"/><rect x="497.181" y="986.22" width="60.472" height="94.488" style="fill:#0079c1;"/><path d="M541.202,1023.81c0,9.216 -2.039,23.406 -13.458,23.406c-11.501,0 -14.111,-14.435 -14.111,-23.569c-0,-10.195 3.996,-22.999 13.784,-22.999c9.788,0 13.785,12.967 13.785,23.162Zm10.93,-0.082c0,-16.392 -8.075,-32.785 -24.715,-32.785c-16.884,-0 -24.714,16.311 -24.714,32.704c-0,16.474 8.238,33.438 25.041,33.438c16.802,-0 24.388,-16.964 24.388,-33.357Z" style="fill:#fff;fill-rule:nonzero;"/><rect x="351.197" y="986.22" width="59.528" height="94.488" style="fill:#0079c1;"/><path d="M393.277,1034.74c0,7.422 -4.812,12.478 -11.827,12.478c-6.852,0 -11.746,-5.056 -11.746,-12.478c0,-7.34 4.976,-12.396 11.746,-12.396c7.015,-0 11.827,5.056 11.827,12.396Zm10.522,0.082c0,-12.723 -7.748,-22.02 -20.962,-22.02c-4.894,-0 -10.522,2.447 -13.785,6.443c-0,-12.56 5.546,-18.84 13.214,-18.84c4.078,0 7.667,2.121 9.38,5.22l8.972,-4.567c-3.181,-6.198 -9.38,-10.113 -17.781,-10.113c-17.945,-0 -24.715,16.393 -24.715,33.601c-0,17.29 5.954,32.541 24.715,32.541c13.132,-0 20.962,-9.624 20.962,-22.265Z" style="fill:#fff;fill-rule:nonzero;"/><rect x="442.614" y="891.732" width="52.441" height="94.488" style="fill:#0079c1;"/><path d="M474.975,948.206c-0,3.52 -2.894,5.945 -8.526,5.945c-3.598,-0 -7.587,-1.956 -7.587,-6.023c-0,-5.554 5.006,-6.179 9.151,-6.57c1.878,-0.157 5.006,-0.391 6.962,-0.47l-0,7.118Zm14.001,6.962c-2.894,-1.095 -3.989,-2.973 -3.989,-6.258l-0,-16.973c-0,-11.107 -5.632,-16.583 -16.27,-16.583c-6.101,0 -11.654,1.408 -17.286,4.693l3.676,8.057c4.146,-2.503 8.291,-3.598 12.828,-3.598c5.006,-0 7.118,2.268 7.118,6.883l0,1.799c-2.738,0.157 -7.431,0.548 -9.934,0.782c-4.38,0.391 -16.426,1.721 -16.426,14.862c0,8.917 7.353,13.532 15.879,13.532c5.788,-0 9.777,-1.956 12.515,-4.38c1.486,2.659 3.989,4.302 7.352,4.614l4.537,-7.43Z" style="fill:#fff;fill-rule:nonzero;"/><rect x="495.055" y="891.732" width="77.48" height="94.488" style="fill:#0079c1;"/><path d="M564.9,931.051c0,-9.87 -5.905,-15.775 -16.179,-15.775c-5.097,-0 -9.627,1.941 -12.782,5.743c-3.074,-4.125 -6.876,-5.663 -11.892,-5.663c-3.964,0 -8.656,1.78 -11.002,5.016l0,-3.802l-10.355,-0l0,45.95l10.355,-0l0,-28.234c0,-5.339 4.449,-9.222 9.141,-9.222c3.964,0 6.391,2.67 6.391,7.443l0.081,30.013l10.355,-0l0,-28.314c0,-5.259 4.773,-9.061 8.737,-9.061c3.64,0 6.795,2.589 6.795,7.443l0,29.932l10.355,-0l0,-31.469Z" style="fill:#fff;fill-rule:nonzero;"/><rect id="path16984" serif:id="path1698" x="275.843" y="891.732" width="33.543" height="94.488" style="fill:#0079c1;"/><rect x="280.567" y="930.593" width="18.148" height="7.673" style="fill:#fff;fill-rule:nonzero;"/><rect x="364.425" y="891.732" width="60.472" height="94.488" style="fill:#0079c1;"/><path d="M408.446,929.324c0,9.215 -2.039,23.406 -13.458,23.406c-11.501,0 -14.111,-14.435 -14.111,-23.569c-0,-10.195 3.996,-22.999 13.784,-22.999c9.788,-0 13.785,12.967 13.785,23.162Zm10.93,-0.082c0,-16.393 -8.075,-32.785 -24.715,-32.785c-16.884,-0 -24.714,16.311 -24.714,32.704c-0,16.474 8.238,33.437 25.041,33.437c16.802,0 24.388,-16.963 24.388,-33.356Z" style="fill:#fff;fill-rule:nonzero;"/><rect x="208.992" y="891.732" width="49.134" height="94.488" style="fill:#0079c1;"/><path d="M256.118,896.457l-45.118,-0l-0,10.175l32.566,0l-23.576,55.966l12.382,0l23.746,-55.626l0,-10.515Z" style="fill:#fff;fill-rule:nonzero;"/><rect x="327.102" y="891.732" width="37.323" height="94.488" style="fill:#0079c1;"/><path d="M354.216,896.457l-9.668,-0c-0.254,3.307 -1.018,5.935 -3.392,7.716c-2.46,1.866 -6.191,2.375 -9.329,2.459l-0,8.734l11.025,0l-0,47.232l11.364,0l0,-66.141Z" style="fill:#fff;fill-rule:nonzero;"/></g></svg>