<?xml version="1.0" encoding="UTF-8" standalone="no"?><!DOCTYPE svg PUBLIC "-//W3C//DTD SVG 1.1//EN" "http://www.w3.org/Graphics/SVG/1.1/DTD/svg11.dtd"><svg width="100%" height="100%" viewBox="0 0 780 703" version="1.1" xmlns="http://www.w3.org/2000/svg" xmlns:xlink="http://www.w3.org/1999/xlink" xml:space="preserve" xmlns:serif="http://www.serif.com/" style="fill-rule:evenodd;clip-rule:evenodd;stroke-linejoin:round;stroke-miterlimit:2;"><g transform="matrix(64.5901,0,0,64.5901,511.249,374.196)"></g><text x="268.878px" y="374.196px" style="font-family:'ArialMT', 'Arial', sans-serif;font-size:64.59px;">sw=59.5</text><rect id="Artboard1" x="0" y="0" width="779.528" height="702.756" style="fill:none;"/><clipPath id="_clip1"><rect id="Artboard11" serif:id="Artboard1" x="0" y="0" width="779.528" height="702.756"/></clipPath><g clip-path="url(#_clip1)"><path d="M780.528,35.433c-0,-19.556 -15.877,-35.433 -35.434,-35.433l-708.661,0c-19.556,0 -35.433,15.877 -35.433,35.433l0,631.89c0,19.556 15.877,35.433 35.433,35.433l708.661,-0c19.557,-0 35.434,-15.877 35.434,-35.433l-0,-631.89Z" style="fill:#fff;"/><path d="M780.528,35.433l-0,631.89c-0,19.556 -15.877,35.433 -35.434,35.433l-708.661,-0c-19.556,-0 -35.433,-15.877 -35.433,-35.433l0,-631.89c0,-19.556 15.877,-35.433 35.433,-35.433l708.661,0c19.557,0 35.434,15.877 35.434,35.433Zm-1.182,0c0,-18.904 -15.347,-34.252 -34.252,-34.252l-708.661,0c-18.904,0 -34.252,15.348 -34.252,34.252l0,631.89c0,18.904 15.348,34.252 34.252,34.252l708.661,-0c18.905,-0 34.252,-15.348 34.252,-34.252l0,-631.89Z" style="fill:#0079c1;"/><path d="M597.457,17.717l-561.024,-0c-9.778,-0 -17.716,7.938 -17.716,17.716l-0,283.465c-0,9.778 7.938,17.716 17.716,17.716l561.024,0l-0,-318.897Z" style="fill:#0079c1;"/><path d="M632.89,17.717l112.204,-0c9.779,-0 17.717,7.938 17.717,17.716l0,283.465c0,9.778 -7.938,17.716 -17.717,17.716l-112.204,0l-0,-318.897Z" style="fill:#0079c1;"/><clipPath id="_clip2"><rect id="S24-Cycle-W.afdesign" serif:id="S24 Cycle W.afdesign" x="107.299" y="59.055" width="401.575" height="236.22"/></clipPath><g clip-path="url(#_clip2)"><path d="M347.815,249.172l2.051,-1.501l1.95,-1.6l1.75,-1.8l1.65,-1.95l1.45,-2.1l1.25,-2.2l1.05,-2.301l0.901,-2.35l0.65,-2.45l6.949,0l0.401,3.65l0.65,3.651l0.8,3.65l1,3.55l1.201,3.501l1.35,3.45l1.55,3.35l1.749,3.3l1.9,3.151l2.05,3.1l2.201,2.95l2.401,2.85l2.5,2.751l2.649,2.6l2.751,2.45l2.951,2.25l2.999,2.151l3.151,2l3.2,1.8l3.351,1.65l3.399,1.45l3.45,1.3l3.551,1.1l3.601,0.95l3.6,0.7l3.701,0.551l3.65,0.35l3.7,0.15l3.701,-0.05l3.7,-0.25l3.7,-0.4l3.65,-0.651l3.601,-0.8l3.599,-1l3.501,-1.15l3.451,-1.4l3.349,-1.5l3.3,-1.75l3.202,-1.85l3.049,-2.051l3.001,-2.2l2.85,-2.4l2.75,-2.5l2.55,-2.65l2.45,-2.751l2.351,-2.9l2.15,-3.05l1.95,-3.1l1.851,-3.251l1.65,-3.3l1.449,-3.4l1.3,-3.451l1.1,-3.55l0.951,-3.6l0.75,-3.6l0.55,-3.651l0.35,-3.7l0.15,-3.7l-0.05,-3.701l-0.2,-3.7l-0.45,-3.7l-0.601,-3.651l-0.799,-3.6l-0.95,-3.6l-1.2,-3.501l-1.35,-3.45l-1.55,-3.35l-1.701,-3.301l-1.849,-3.2l-2.052,-3.1l-2.199,-2.95l-2.351,-2.901l-2.5,-2.7l-2.65,-2.6l-2.751,-2.45l-2.899,-2.35l-3.051,-2.151l-3.1,-2l-3.2,-1.8l-3.35,-1.65l-3.4,-1.5l-3.452,-1.3l-3.549,-1.15l-3.55,-0.901l-3.651,-0.75l-3.65,-0.55l-3.7,-0.4l-3.701,-0.15l-3.7,0l-3.7,0.25l-3.701,0.4l-3.65,0.6l-3.601,0.8l-3.55,0.951l-3.551,1.2l-3.449,1.35l-27.953,-48.454l5.451,-15.002l1.999,-0.25l1.951,-0.45l1.95,-0.65l1.851,-0.8l1.749,-1l1.701,-1.15l1.55,-1.3l1.4,-1.45l1.3,-1.6l1.1,-1.701l0.95,-1.75l0.8,-1.9l0.551,-1.95l0.1,-0.6l-0.1,-0.6l-0.25,-0.55l-0.351,-0.5l-0.5,-0.35l-0.55,-0.25l-0.6,-0.1l-61.105,-0l-1,0.1l-1,0.25l-0.9,0.45l-0.85,0.55l-0.7,0.7l-0.6,0.85l-0.45,0.9l-0.3,1l-0.1,1l0.05,1l0.25,1l0.4,0.9l0.55,0.85l0.7,0.751l0.8,0.6l0.9,0.5l1,0.3l27.302,6.05l-6.451,17.702l-129.36,-0l2.85,-10.601l0.35,-1.75l0.15,-1.7l-0,-1.751l-0.15,-1.75l-0.4,-1.7l-0.55,-1.7l-0.7,-1.55l-0.9,-1.55l-1.05,-1.4l-1.201,-1.251l-1.3,-1.2l-1.45,-1l-0.65,-0.5l-0.5,-0.65l-0.35,-0.75l-0.15,-0.85l0.05,-0.8l0.25,-0.8l0.4,-0.75l0.55,-0.6l0.7,-0.45l0.8,-0.3l0.8,-0.1l27.153,-0l-0,-17.702l-33.053,0l-1.85,0.1l-1.8,0.25l-1.751,0.45l-1.7,0.6l-1.65,0.75l-1.6,0.95l-1.45,1.05l-1.4,1.201l-1.25,1.35l-1.1,1.45l-0.951,1.55l-0.8,1.65l-0.65,1.7l-0.5,1.75l-0.3,1.801l-0.15,1.8l0.05,1.85l0.2,1.8l0.4,1.75l0.55,1.75l0.75,1.7l0.85,1.551l1.051,1.55l1.15,1.4l1.3,1.25l1.45,1.15l1.5,1l0.9,0.65l0.75,0.8l0.6,0.9l0.4,1l0.2,1.101l0.05,1.1l-0.2,1.05l-15.351,57.255l-3.5,-1.2l-3.551,-1l-3.65,-0.851l-3.65,-0.65l-3.701,-0.5l-3.7,-0.25l-3.7,-0.05l-3.701,0.1l-3.7,0.35l-3.7,0.5l-3.651,0.7l-3.6,0.901l-3.55,1.05l-3.5,1.3l-3.401,1.4l-3.35,1.65l-3.25,1.8l-3.151,1.95l-3.05,2.151l-2.9,2.25l-2.8,2.45l-2.701,2.55l-2.5,2.75l-2.4,2.851l-2.25,2.95l-2.1,3.05l-1.901,3.2l-1.75,3.251l-1.55,3.4l-1.4,3.45l-1.2,3.501l-1.05,3.55l-0.85,3.6l-0.65,3.701l-0.45,3.65l-0.25,3.7l-0.05,3.7l0.1,3.751l0.35,3.7l0.5,3.65l0.7,3.651l0.9,3.6l1.1,3.55l1.25,3.501l1.45,3.4l1.65,3.35l1.8,3.251l1.951,3.15l2.15,3.05l2.25,2.9l2.45,2.801l2.6,2.7l2.701,2.5l2.85,2.4l2.95,2.25l3.1,2.051l3.151,1.95l3.3,1.7l3.35,1.6l3.451,1.4l3.5,1.2l3.6,1l3.601,0.85l3.65,0.651l3.7,0.45l3.701,0.25l3.7,0.05l3.75,-0.15l3.65,-0.3l3.701,-0.55l3.65,-0.701l3.6,-0.9l3.551,-1.1l3.5,-1.25l3.4,-1.45l3.351,-1.65l3.25,-1.8l3.15,-1.95l3,-2.151l2.951,-2.3l2.8,-2.4l2.65,-2.6l2.55,-2.7l2.351,-2.851l2.25,-3l2.05,-3.05l1.95,-3.201l1.7,-3.3l1.6,-3.35l1.351,-3.45l1.2,-3.501l1.05,-3.6l0.8,-3.6l0.65,-3.651l0.45,-3.7l0.25,-3.7l0.05,-3.701l-0.1,-3.7l-0.35,-3.7l-0.55,-3.701l-0.7,-3.65l-0.9,-3.6l-1.1,-3.551l-1.251,-3.45l-1.5,-3.45l-1.6,-3.3l-1.8,-3.251l-2,-3.15l-2.15,-3.05l-2.25,-2.9l-2.451,-2.801l-2.6,-2.65l-2.7,-2.55l-2.85,-2.35l-3.001,-2.251l2.301,-8.55l82.107,57.455l-0.65,2.4l-0.45,2.4l-0.25,2.45l-0,2.451l0.15,2.5l0.4,2.4l0.55,2.4l0.8,2.35l0.95,2.301l1.15,2.15l1.35,2.1l1.5,1.95l1.65,1.8l1.8,1.7l1.951,1.501l2.05,1.35l2.2,1.2l2.25,1l2.35,0.8l2.351,0.6l2.45,0.4l2.45,0.2l2.5,0l2.45,-0.25l2.401,-0.4l2.4,-0.6l4.45,9.551l-8,-0l-0,9.451l8,-0l0.85,1l0.95,0.9l1.15,0.7l1.201,0.5l1.3,0.3l1.3,0.15l1.35,-0.15l1.3,-0.3l1.2,-0.5l1.1,-0.7l1,-0.9l0.85,-1l8,-0l0,-9.451l-12.4,-0l-6.101,-13.051Zm50.305,4.75l1.949,2.45l2.101,2.3l2.2,2.201l2.401,2.05l2.5,1.9l2.6,1.75l2.7,1.55l2.8,1.4l2.901,1.2l2.95,1.051l2.999,0.85l3.102,0.6l3.099,0.5l3.101,0.25l3.15,0.05l3.101,-0.15l3.099,-0.35l3.101,-0.5l3.05,-0.75l3.001,-0.9l2.95,-1.101l2.849,-1.3l2.751,-1.45l2.701,-1.65l2.549,-1.8l2.451,-1.95l2.299,-2.1l2.151,-2.251l2.051,-2.4l1.899,-2.5l1.701,-2.65l1.55,-2.701l1.35,-2.8l1.2,-2.9l1,-3l0.8,-3.001l0.651,-3.05l0.399,-3.1l0.25,-3.15l0.05,-3.151l-0.15,-3.1l-0.399,-3.1l-0.551,-3.1l-0.75,-3.051l-0.95,-2.95l-1.101,-2.95l-1.3,-2.85l-1.499,-2.751l-1.65,-2.65l-1.851,-2.55l-1.949,-2.45l-2.151,-2.301l-2.251,-2.15l-2.4,-2l-2.5,-1.85l-2.649,-1.7l-2.751,-1.5l-2.8,-1.35l-2.901,-1.201l-2.999,-0.95l-3.051,-0.8l-3.05,-0.6l-3.1,-0.4l-3.151,-0.25l-3.1,0l-3.15,0.2l-3.1,0.4l-3.051,0.55l-3.05,0.8l-3.001,0.95l25.102,43.454l0.501,1l0.25,1.1l0.1,1.15l-0.1,1.101l-0.25,1.1l-0.501,1.05l-0.649,0.9l-0.801,0.8l-0.95,0.65l-0.999,0.5l-1.1,0.3l-1.15,0.1l-51.906,0l0.501,3.1l0.699,3.051l0.901,3l1.1,2.9l1.25,2.9l1.451,2.751l1.599,2.7l1.801,2.6Zm-203.818,-63.005l3.25,-12.152l-2.9,-1.15l-2.95,-0.9l-3.05,-0.8l-3.051,-0.55l-3.1,-0.35l-3.1,-0.2l-3.1,0.05l-3.101,0.2l-3.1,0.4l-3.05,0.6l-3.05,0.8l-2.951,1l-2.85,1.151l-2.85,1.35l-2.7,1.5l-2.601,1.7l-2.55,1.85l-2.35,2l-2.3,2.15l-2.1,2.251l-1.951,2.4l-1.85,2.55l-1.65,2.65l-1.45,2.751l-1.35,2.8l-1.1,2.9l-0.95,2.95l-0.75,3.051l-0.6,3.05l-0.351,3.1l-0.2,3.1l0.05,3.101l0.2,3.15l0.401,3.05l0.6,3.05l0.8,3.051l0.95,2.95l1.2,2.9l1.3,2.8l1.55,2.701l1.65,2.65l1.85,2.5l2.001,2.4l2.15,2.251l2.3,2.1l2.4,2l2.5,1.8l2.651,1.65l2.75,1.5l2.8,1.3l2.95,1.151l2.951,0.95l3,0.75l3.1,0.55l3.05,0.4l3.151,0.2l3.1,-0.05l3.1,-0.2l3.1,-0.4l3.051,-0.6l3,-0.8l2.95,-0.951l2.9,-1.15l2.801,-1.35l2.75,-1.5l2.6,-1.7l2.55,-1.85l2.351,-2l2.3,-2.151l2.1,-2.25l2,-2.4l1.8,-2.55l1.65,-2.65l1.501,-2.701l1.3,-2.85l1.15,-2.9l0.95,-2.95l0.75,-3.051l0.6,-3.05l0.35,-3.1l0.2,-3.1l0,-3.101l-0.25,-3.1l-0.4,-3.1l-0.6,-3.051l-0.75,-3.05l-1,-2.95l-1.15,-2.9l-1.35,-2.801l-1.501,-2.7l-1.65,-2.65l-1.85,-2.5l-2,-2.4l-2.15,-2.251l-4.001,14.852l-0.75,2.55l-1,2.5l-1.1,2.4l-1.3,2.351l-1.5,2.2l-1.6,2.1l-1.75,2l-1.9,1.9l-2.051,1.7l-2.15,1.601l-2.25,1.45l-2.3,1.25l-2.45,1.1l-2.501,0.9l-2.55,0.75l-2.6,0.6l-1.15,0.1l-1.15,-0.1l-1.1,-0.25l-1.051,-0.45l-0.95,-0.6l-0.85,-0.75l-0.75,-0.9l-0.6,-0.95l-0.4,-1.1l-0.25,-1.1l-0.05,-1.151l0.15,-1.1l0.3,-1.1l0.5,-1.05l0.65,-0.95l0.75,-0.85l0.95,-0.65l2.551,-1.8l2.5,-2l2.35,-2.151l2.15,-2.25l2.05,-2.45l1.851,-2.55l1.65,-2.7l1.5,-2.751l1.35,-2.9l1.1,-2.95l0.9,-3.05Zm156.214,31.652l-0.25,-1.85l-0.45,-1.8l-0.65,-1.75l-0.8,-1.65l-0.951,-1.6l-1.1,-1.501l-1.25,-1.35l-1.35,-1.25l-1.5,-1.1l-1.6,-0.95l-1.65,-0.8l-1.75,-0.65l-1.801,-0.45l-1.85,-0.25l-1.85,-0.1l-1.85,0.1l-1.85,0.25l-1.8,0.45l-1.751,0.65l-1.65,0.8l-1.6,0.95l-1.5,1.1l-1.35,1.25l-1.25,1.35l-1.1,1.501l-0.95,1.6l-0.8,1.65l-0.65,1.75l-0.451,1.8l-0.25,1.85l-0.1,1.85l0.1,1.851l0.25,1.85l0.451,1.8l0.65,1.75l0.8,1.65l0.95,1.6l1.1,1.5l1.25,1.351l1.35,1.25l1.5,1.1l1.6,0.95l1.65,0.8l1.751,0.65l1.8,0.45l1.85,0.25l1.85,0.1l1.85,-0.1l1.85,-0.25l1.801,-0.45l1.75,-0.65l1.65,-0.8l1.6,-0.95l1.5,-1.1l1.35,-1.25l1.25,-1.351l1.1,-1.5l0.951,-1.6l0.8,-1.65l0.65,-1.75l0.45,-1.8l0.25,-1.85l0.1,-1.851l-0.1,-1.85Zm73.506,-4.65l-18.101,-31.353l-2.252,2.05l-2.1,2.151l-1.999,2.3l-1.851,2.45l-1.699,2.5l-1.55,2.65l-1.401,2.701l-1.2,2.8l-1,2.85l-0.851,2.95l-0.699,2.951l-0.501,3l35.204,-0Zm-28.853,-49.954l-2.851,2.3l-2.749,2.45l-2.6,2.55l-2.5,2.7l-2.351,2.851l-2.151,2.95l-2.05,3.1l-1.85,3.15l-1.699,3.251l-1.55,3.35l-1.35,3.4l-1.151,3.501l-1,3.55l-0.8,3.6l-0.65,3.601l-0.401,3.65l-6.949,-0l-0.65,-2.5l-0.901,-2.401l-1.1,-2.3l-1.3,-2.2l-1.45,-2.1l-1.65,-2l-1.85,-1.8l-1.95,-1.651l24.952,-68.606l20.551,35.604Zm-98.058,18.651l12.401,0l6.101,13.051l-1.9,1.35l-87.358,-61.205l2.65,-9.901l127.661,0l-23.652,65.006l-2.5,-0l-2.5,0.2l-2.5,0.4l-2.401,0.65l-4.45,-9.551l8.001,0l-0,-9.451l-8.001,0l-0.85,-1l-1,-0.9l-1.1,-0.7l-1.2,-0.5l-1.301,-0.35l-1.35,-0.1l-1.3,0.1l-1.3,0.35l-1.2,0.5l-1.15,0.7l-1,0.9l-0.8,1l-8.001,0l0,9.451Z" style="fill:#fff;"/></g><path d="M762.811,372.047c0,-9.778 -7.938,-17.716 -17.717,-17.716l-708.661,-0c-9.778,-0 -17.716,7.938 -17.716,17.716l-0,295.276c-0,9.778 7.938,17.716 17.716,17.716l708.661,0c9.779,0 17.717,-7.938 17.717,-17.716l0,-295.276Z" style="fill:#0079c1;"/><rect x="442.614" y="478.346" width="52.441" height="94.488" style="fill:#0079c1;"/><path d="M474.975,534.82c-0,3.52 -2.894,5.945 -8.526,5.945c-3.598,-0 -7.587,-1.955 -7.587,-6.023c-0,-5.553 5.006,-6.179 9.151,-6.57c1.878,-0.157 5.006,-0.391 6.962,-0.47l-0,7.118Zm14.001,6.962c-2.894,-1.095 -3.989,-2.972 -3.989,-6.258l-0,-16.973c-0,-11.107 -5.632,-16.582 -16.27,-16.582c-6.101,-0 -11.654,1.407 -17.286,4.693l3.676,8.056c4.146,-2.503 8.291,-3.598 12.828,-3.598c5.006,0 7.118,2.268 7.118,6.883l0,1.799c-2.738,0.157 -7.431,0.548 -9.934,0.783c-4.38,0.391 -16.426,1.72 -16.426,14.861c0,8.917 7.353,13.532 15.879,13.532c5.788,-0 9.777,-1.956 12.515,-4.38c1.486,2.659 3.989,4.302 7.352,4.615l4.537,-7.431Z" style="fill:#fff;fill-rule:nonzero;"/><rect x="495.055" y="478.346" width="77.48" height="94.488" style="fill:#0079c1;"/><path d="M564.9,517.665c0,-9.87 -5.905,-15.775 -16.179,-15.775c-5.097,-0 -9.627,1.941 -12.782,5.743c-3.074,-4.125 -6.876,-5.662 -11.892,-5.662c-3.964,-0 -8.656,1.779 -11.002,5.015l0,-3.802l-10.355,0l0,45.95l10.355,-0l0,-28.233c0,-5.34 4.449,-9.223 9.141,-9.223c3.964,0 6.391,2.67 6.391,7.443l0.081,30.013l10.355,-0l0,-28.314c0,-5.259 4.773,-9.061 8.737,-9.061c3.64,0 6.795,2.589 6.795,7.443l0,29.932l10.355,-0l0,-31.469Z" style="fill:#fff;fill-rule:nonzero;"/><rect id="path1698" x="275.843" y="478.346" width="33.543" height="94.488" style="fill:#0079c1;"/><rect x="280.567" y="517.207" width="18.148" height="7.673" style="fill:#fff;fill-rule:nonzero;"/><rect x="364.425" y="478.346" width="60.472" height="94.488" style="fill:#0079c1;"/><path d="M408.446,515.938c0,9.216 -2.039,23.406 -13.458,23.406c-11.501,0 -14.111,-14.435 -14.111,-23.569c-0,-10.195 3.996,-22.999 13.784,-22.999c9.788,0 13.785,12.967 13.785,23.162Zm10.93,-0.082c0,-16.392 -8.075,-32.785 -24.715,-32.785c-16.884,-0 -24.714,16.311 -24.714,32.704c-0,16.474 8.238,33.438 25.041,33.438c16.802,-0 24.388,-16.964 24.388,-33.357Z" style="fill:#fff;fill-rule:nonzero;"/><rect x="208.992" y="478.346" width="49.134" height="94.488" style="fill:#0079c1;"/><path d="M256.118,483.071l-45.118,-0l-0,10.176l32.566,-0l-23.576,55.966l12.382,-0l23.746,-55.627l0,-10.515Z" style="fill:#fff;fill-rule:nonzero;"/><rect x="327.102" y="478.346" width="37.323" height="94.488" style="fill:#0079c1;"/><path d="M354.216,483.071l-9.668,-0c-0.254,3.307 -1.018,5.936 -3.392,7.716c-2.46,1.866 -6.191,2.375 -9.329,2.46l-0,8.734l11.025,-0l-0,47.232l11.364,-0l0,-66.142Z" style="fill:#fff;fill-rule:nonzero;"/><rect x="575.37" y="572.835" width="53.858" height="94.488" style="fill:#0079c1;"/><path d="M612.929,621.196c0,8.498 -4.219,15.398 -12.16,15.398c-4.219,0 -9.431,-3.281 -9.431,-8.667l0,-12.369c0,-5.638 4.716,-8.751 9.679,-8.751c7.693,-0 11.912,7.404 11.912,14.389Zm10.837,-0c-0,-12.706 -7.28,-24.739 -20.598,-24.739c-4.798,-0 -8.769,1.598 -11.747,4.712l0,-3.366l-10.588,0l-0,63.614l10.588,0l0,-19.269c3.061,3.197 7.197,4.88 11.747,4.88c12.656,0 20.598,-11.612 20.598,-25.832Z" style="fill:#fff;fill-rule:nonzero;"/><rect x="629.228" y="572.835" width="77.48" height="94.488" style="fill:#0079c1;"/><path d="M699.074,612.153c-0,-9.87 -5.906,-15.775 -16.18,-15.775c-5.096,-0 -9.627,1.941 -12.782,5.744c-3.074,-4.126 -6.876,-5.663 -11.892,-5.663c-3.964,-0 -8.656,1.78 -11.002,5.015l0,-3.802l-10.355,0l0,45.95l10.355,0l0,-28.233c0,-5.339 4.45,-9.222 9.142,-9.222c3.964,-0 6.391,2.669 6.391,7.442l0.081,30.013l10.354,0l0,-28.314c0,-5.258 4.773,-9.061 8.737,-9.061c3.641,0 6.796,2.589 6.796,7.443l-0,29.932l10.355,0l-0,-31.469Z" style="fill:#fff;fill-rule:nonzero;"/><rect id="path16981" serif:id="path1698" x="299.937" y="572.835" width="33.543" height="94.488" style="fill:#0079c1;"/><rect x="304.661" y="611.696" width="18.148" height="7.673" style="fill:#fff;fill-rule:nonzero;"/><rect x="74.819" y="572.835" width="60" height="94.488" style="fill:#0079c1;"/><path d="M111.014,621.145l-21.203,-0l21.203,-30.188l-0,30.188Zm18.997,-0l-7.633,-0l-0,-43.586l-13.994,0l-30.022,42.738l0,11.023l32.482,0l-0,12.381l11.534,-0l-0,-12.381l7.633,0l-0,-10.175Z" style="fill:#fff;fill-rule:nonzero;"/><rect x="437.181" y="572.835" width="60" height="94.488" style="fill:#0079c1;"/><path d="M486.388,624.406c-0,-6.786 -2.862,-12.754 -7.932,-15.125c4.661,-2.453 7.359,-7.195 7.359,-13.245c0,-11.119 -7.604,-18.477 -20.278,-18.477c-12.347,0 -19.952,5.641 -22.814,16.76l10.14,2.453c1.308,-5.232 4.987,-8.83 11.611,-8.83c7.032,0 10.466,3.516 10.466,8.748c0,6.704 -6.296,8.667 -11.856,8.748l-1.799,0l-0,9.157c6.459,-0.736 14.309,0.654 14.309,9.484c0,6.704 -4.415,9.647 -11.039,9.647c-6.623,0 -11.284,-4.496 -12.183,-10.955l-10.466,2.371c2.125,11.364 10.221,18.559 23.631,18.559c13.246,-0 20.851,-7.522 20.851,-19.295Z" style="fill:#fff;fill-rule:nonzero;"/><rect id="path16982" serif:id="path1698" x="134.819" y="572.835" width="26.457" height="94.488" style="fill:#0079c1;"/><path d="M154.512,637.319c0,-3.564 -2.901,-6.382 -6.465,-6.382c-3.564,-0 -6.465,2.818 -6.465,6.382c0,3.564 2.901,6.465 6.465,6.465c3.564,-0 6.465,-2.901 6.465,-6.465Z" style="fill:#fff;fill-rule:nonzero;"/><rect id="path16983" serif:id="path1698" x="410.724" y="572.835" width="26.457" height="94.488" style="fill:#0079c1;"/><path d="M430.418,637.319c-0,-3.564 -2.901,-6.382 -6.465,-6.382c-3.564,-0 -6.465,2.818 -6.465,6.382c-0,3.564 2.901,6.465 6.465,6.465c3.564,-0 6.465,-2.901 6.465,-6.465Z" style="fill:#fff;fill-rule:nonzero;"/><rect x="161.276" y="572.835" width="60.472" height="94.488" style="fill:#0079c1;"/><path d="M205.297,610.426c-0,9.216 -2.04,23.407 -13.459,23.407c-11.501,-0 -14.111,-14.436 -14.111,-23.57c-0,-10.195 3.997,-22.999 13.785,-22.999c9.788,0 13.785,12.968 13.785,23.162Zm10.93,-0.082c-0,-16.392 -8.076,-32.785 -24.715,-32.785c-16.885,0 -24.715,16.311 -24.715,32.704c0,16.474 8.238,33.438 25.041,33.438c16.803,-0 24.389,-16.964 24.389,-33.357Z" style="fill:#fff;fill-rule:nonzero;"/><rect x="221.748" y="572.835" width="60.472" height="94.488" style="fill:#0079c1;"/><path d="M265.769,610.426c0,9.216 -2.039,23.407 -13.458,23.407c-11.501,-0 -14.112,-14.436 -14.112,-23.57c0,-10.195 3.997,-22.999 13.785,-22.999c9.788,0 13.785,12.968 13.785,23.162Zm10.93,-0.082c0,-16.392 -8.075,-32.785 -24.715,-32.785c-16.884,0 -24.715,16.311 -24.715,32.704c0,16.474 8.239,33.438 25.042,33.438c16.802,-0 24.388,-16.964 24.388,-33.357Z" style="fill:#fff;fill-rule:nonzero;"/><rect x="497.181" y="572.835" width="60.472" height="94.488" style="fill:#0079c1;"/><path d="M541.202,610.426c0,9.216 -2.039,23.407 -13.458,23.407c-11.501,-0 -14.111,-14.436 -14.111,-23.57c-0,-10.195 3.996,-22.999 13.784,-22.999c9.788,0 13.785,12.968 13.785,23.162Zm10.93,-0.082c0,-16.392 -8.075,-32.785 -24.715,-32.785c-16.884,0 -24.714,16.311 -24.714,32.704c-0,16.474 8.238,33.438 25.041,33.438c16.802,-0 24.388,-16.964 24.388,-33.357Z" style="fill:#fff;fill-rule:nonzero;"/><rect x="351.197" y="572.835" width="59.528" height="94.488" style="fill:#0079c1;"/><path d="M393.277,621.355c0,7.421 -4.812,12.478 -11.827,12.478c-6.852,-0 -11.746,-5.057 -11.746,-12.478c0,-7.341 4.976,-12.397 11.746,-12.397c7.015,0 11.827,5.056 11.827,12.397Zm10.522,0.081c0,-12.723 -7.748,-22.02 -20.962,-22.02c-4.894,0 -10.522,2.447 -13.785,6.443c-0,-12.56 5.546,-18.839 13.214,-18.839c4.078,-0 7.667,2.12 9.38,5.219l8.972,-4.567c-3.181,-6.198 -9.38,-10.113 -17.781,-10.113c-17.945,0 -24.715,16.393 -24.715,33.601c-0,17.29 5.954,32.541 24.715,32.541c13.132,-0 20.962,-9.624 20.962,-22.265Z" style="fill:#fff;fill-rule:nonzero;"/><rect x="518.087" y="383.858" width="37.795" height="94.488" style="fill:#0079c1;"/><path d="M549.362,407.64c-6.391,-0.486 -10.679,1.537 -14.319,6.795l-0,-5.582l-10.436,0l-0,45.95l10.436,-0l-0,-25.159c-0,-7.119 6.472,-11.407 12.862,-11.245l1.457,0.081l-0,-10.84Z" style="fill:#fff;fill-rule:nonzero;"/><rect x="555.882" y="383.858" width="25.512" height="94.488" style="fill:#0079c1;"/><path d="M575.01,394.914c0,1.777 -0.61,3.29 -1.832,4.54c-1.222,1.249 -2.721,1.874 -4.499,1.874c-1.777,-0 -3.29,-0.625 -4.54,-1.874c-1.249,-1.25 -1.874,-2.763 -1.874,-4.54c0,-1.777 0.625,-3.277 1.874,-4.499c1.25,-1.221 2.763,-1.832 4.54,-1.832c1.778,-0 3.277,0.611 4.499,1.832c1.222,1.222 1.832,2.722 1.832,4.499Zm-0.999,59.81l-10.663,0l0,-47.315l10.663,-0l-0,47.315Z" style="fill:#fff;fill-rule:nonzero;"/><rect x="461.866" y="383.858" width="56.22" height="94.488" style="fill:#0079c1;"/><path d="M513.447,388.567l-41.381,0l0,66.142l11.363,0l-0,-28.407l27.389,0l0,-10.176l-27.389,0l-0,-17.383l30.018,-0l0,-10.176Z" style="fill:#fff;fill-rule:nonzero;"/><rect x="287.063" y="383.858" width="52.913" height="94.488" style="fill:#0079c1;"/><path d="M324.821,431.652c-0,7.926 -4.238,13.969 -11.223,13.969c-7.063,-0 -11.301,-6.043 -11.301,-13.969c0,-7.848 4.16,-15.068 11.301,-15.068c6.985,-0 11.223,7.22 11.223,15.068Zm9.966,-0c0,-13.734 -7.534,-24.172 -21.189,-24.172c-13.734,0 -21.346,10.281 -21.346,24.172c-0,13.42 8.476,23.072 21.346,23.072c12.871,0 21.189,-9.731 21.189,-23.072Z" style="fill:#fff;fill-rule:nonzero;"/><rect x="339.976" y="383.858" width="52.913" height="94.488" style="fill:#0079c1;"/><path d="M385.552,422.853c0,-8.818 -5.42,-15.451 -15.856,-15.451c-4.287,-0 -8.898,2.022 -11.649,5.015l0,-3.721l-10.436,-0l0,45.95l10.436,-0l0,-28.234c0,-6.795 4.854,-9.222 9.303,-9.222c4.935,0 7.767,2.832 7.767,8.494l-0,28.962l10.435,-0l0,-31.793Z" style="fill:#fff;fill-rule:nonzero;"/><rect x="200.134" y="383.858" width="86.929" height="94.488" style="fill:#0079c1;"/><path d="M275.609,388.583l-11.362,-0l-20.606,28.576l-20.691,-28.576l-11.362,-0l-0,66.141l11.362,0l0,-46.977l20.691,28.661l20.606,-28.661l-0,46.977l11.362,0l0,-66.141Z" style="fill:#fff;fill-rule:nonzero;"/><rect id="path16984" serif:id="path1698" x="410.606" y="383.858" width="33.543" height="94.488" style="fill:#0079c1;"/><rect x="415.331" y="422.719" width="18.148" height="7.673" style="fill:#fff;fill-rule:nonzero;"/></g></svg>