<?xml version="1.0" encoding="UTF-8" standalone="no"?><!DOCTYPE svg PUBLIC "-//W3C//DTD SVG 1.1//EN" "http://www.w3.org/Graphics/SVG/1.1/DTD/svg11.dtd"><svg width="100%" height="100%" viewBox="0 0 615 449" version="1.1" xmlns="http://www.w3.org/2000/svg" xmlns:xlink="http://www.w3.org/1999/xlink" xml:space="preserve" xmlns:serif="http://www.serif.com/" style="fill-rule:evenodd;clip-rule:evenodd;stroke-linejoin:round;stroke-miterlimit:2;"><g transform="matrix(50,0,0,50,380.378,260.347)"></g><text x="234.455px" y="260.347px" style="font-family:'ArialMT', 'Arial', sans-serif;font-size:50px;">sw=38</text><g id="_960.2-Contr-Flow-Pedal-Cycles" serif:id="960.2 Contr-Flow Pedal Cycles"><path d="M614.173,35.433l0,377.953c0,19.556 -15.877,35.433 -35.433,35.433l-543.307,-0c-19.556,-0 -35.433,-15.877 -35.433,-35.433l0,-377.953c0,-19.556 15.877,-35.433 35.433,-35.433l543.307,0c19.556,0 35.433,15.877 35.433,35.433Z" style="fill:#fff;"/><path d="M614.173,35.433l0,377.953c0,19.556 -15.877,35.433 -35.433,35.433l-543.307,-0c-19.556,-0 -35.433,-15.877 -35.433,-35.433l0,-377.953c0,-19.556 15.877,-35.433 35.433,-35.433l543.307,0c19.556,0 35.433,15.877 35.433,35.433Zm-1.181,0c0,-18.904 -15.348,-34.252 -34.252,-34.252l-543.307,0c-18.904,0 -34.252,15.348 -34.252,34.252l0,377.953c0,18.904 15.348,34.252 34.252,34.252l543.307,-0c18.904,-0 34.252,-15.348 34.252,-34.252l0,-377.953Z" style="fill:#0079c1;"/><path d="M596.457,35.433l-0,377.953c-0,9.778 -7.939,17.716 -17.717,17.716l-543.307,0c-9.778,0 -17.716,-7.938 -17.716,-17.716l-0,-377.953c-0,-9.778 7.938,-17.716 17.716,-17.716l543.307,-0c9.778,-0 17.717,7.938 17.717,17.716Z" style="fill:#0079c1;"/><path d="M122.047,181.102l0,149.607l-31.496,-0l0,-149.607l-31.496,31.496l0,-47.244l47.244,-47.244l47.244,47.244l0,47.244l-31.496,-31.496Z" style="fill:#fff;"/><path d="M394.029,359.58l-0,-99.737l20.997,-0l0,99.737l20.998,-20.997l-0,31.496l-31.496,31.496l-31.497,-31.496l0,-31.496l20.998,20.997Z" style="fill:#fff;"/><path d="M253.975,180.716l0.187,-2.776l0.338,-2.737l0.487,-2.776l0.638,-2.7l0.787,-2.663l0.9,-2.625l1.05,-2.587l1.163,-2.551l1.312,-2.437l1.426,-2.401l1.575,-2.287l1.687,-2.213l1.8,-2.138l1.875,-2.062l2.026,-1.913l2.1,-1.838l2.175,-1.687l2.288,-1.613l2.362,-1.463l2.438,-1.35l2.512,-1.237l2.551,-1.05l2.625,-0.976l2.662,-0.787l2.701,-0.675l2.737,-0.525l2.776,-0.375l2.775,-0.263l2.775,-0.075l2.775,0.038l2.775,0.187l2.775,0.375l2.738,0.488l2.738,0.637l2.662,0.75l2.626,0.901l11.513,-42.942l0.15,-0.787l-0.038,-0.825l-0.15,-0.825l-0.3,-0.75l-0.45,-0.676l-0.562,-0.6l-0.675,-0.487l-1.125,-0.75l-1.088,-0.863l-0.975,-0.937l-0.863,-1.05l-0.787,-1.163l-0.638,-1.163l-0.562,-1.275l-0.413,-1.312l-0.3,-1.313l-0.15,-1.35l-0.037,-1.388l0.112,-1.35l0.225,-1.35l0.375,-1.313l0.488,-1.275l0.6,-1.237l0.712,-1.163l0.825,-1.087l0.938,-1.013l1.05,-0.9l1.088,-0.788l1.2,-0.712l1.237,-0.563l1.275,-0.45l1.313,-0.337l1.35,-0.188l1.388,-0.075l24.789,0l-0,13.276l-20.364,0l-0.6,0.075l-0.6,0.225l-0.525,0.338l-0.413,0.45l-0.3,0.562l-0.187,0.6l-0.038,0.601l0.113,0.637l0.262,0.563l0.375,0.487l0.488,0.375l1.087,0.75l0.975,0.9l0.901,0.938l0.787,1.05l0.675,1.163l0.525,1.162l0.413,1.275l0.3,1.275l0.112,1.313l0,1.313l-0.112,1.275l-0.263,1.312l-2.137,7.951l97.018,0l4.838,-13.276l-20.476,-4.538l-0.75,-0.225l-0.675,-0.375l-0.6,-0.45l-0.525,-0.563l-0.413,-0.637l-0.3,-0.675l-0.187,-0.75l-0.038,-0.75l0.075,-0.75l0.225,-0.75l0.338,-0.676l0.45,-0.637l0.525,-0.525l0.637,-0.413l0.675,-0.337l0.75,-0.188l0.75,-0.075l45.828,0l0.45,0.075l0.413,0.188l0.374,0.262l0.263,0.375l0.188,0.413l0.075,0.45l-0.075,0.45l-0.413,1.463l-0.6,1.425l-0.712,1.312l-0.825,1.275l-0.975,1.201l-1.05,1.087l-1.163,0.975l-1.276,0.863l-1.312,0.75l-1.388,0.6l-1.462,0.487l-1.463,0.338l-1.5,0.187l-4.088,11.251l20.965,36.341l2.587,-1.012l2.662,-0.901l2.663,-0.712l2.701,-0.6l2.737,-0.45l2.776,-0.3l2.775,-0.188l2.775,0l2.775,0.113l2.775,0.3l2.738,0.412l2.738,0.563l2.662,0.675l2.662,0.863l2.589,0.975l2.55,1.125l2.512,1.237l2.401,1.35l2.324,1.501l2.288,1.612l2.175,1.763l2.063,1.838l1.987,1.95l1.875,2.025l1.764,2.175l1.649,2.213l1.538,2.325l1.387,2.4l1.276,2.475l1.162,2.513l1.013,2.588l0.9,2.625l0.713,2.7l0.599,2.7l0.451,2.738l0.337,2.775l0.15,2.776l0.037,2.775l-0.112,2.775l-0.262,2.775l-0.413,2.738l-0.562,2.7l-0.714,2.701l-0.825,2.662l-0.975,2.588l-1.087,2.55l-1.237,2.476l-1.388,2.437l-1.462,2.325l-1.613,2.288l-1.763,2.175l-1.838,2.063l-1.912,1.988l-2.062,1.875l-2.138,1.8l-2.251,1.65l-2.287,1.538l-2.401,1.387l-2.475,1.313l-2.512,1.125l-2.588,1.05l-2.625,0.863l-2.7,0.75l-2.701,0.6l-2.737,0.487l-2.775,0.3l-2.775,0.188l-2.775,0.037l-2.775,-0.112l-2.738,-0.263l-2.775,-0.412l-2.7,-0.525l-2.701,-0.713l-2.663,-0.825l-2.588,-0.975l-2.549,-1.087l-2.513,-1.238l-2.4,-1.35l-2.363,-1.5l-2.25,-1.613l-2.213,-1.688l-2.063,-1.837l-1.987,-1.95l-1.875,-2.063l-1.8,-2.138l-1.651,-2.212l-1.537,-2.326l-1.425,-2.362l-1.312,-2.476l-1.163,-2.512l-1.012,-2.588l-0.9,-2.625l-0.751,-2.663l-0.599,-2.738l-0.488,-2.737l-0.301,-2.738l-5.212,-0l-0.487,1.837l-0.675,1.763l-0.788,1.725l-0.938,1.65l-1.087,1.576l-1.238,1.462l-1.312,1.35l-1.463,1.2l-1.537,1.125l4.575,9.789l9.3,-0l-0,7.088l-6,-0l-0.638,0.75l-0.75,0.675l-0.825,0.525l-0.9,0.375l-0.975,0.225l-1.012,0.113l-0.975,-0.113l-0.975,-0.225l-0.9,-0.375l-0.863,-0.525l-0.713,-0.675l-0.637,-0.75l-6.001,-0l0,-7.088l6.001,-0l-3.338,-7.163l-1.8,0.45l-1.8,0.3l-1.838,0.187l-1.875,0l-1.837,-0.15l-1.838,-0.3l-1.763,-0.45l-1.762,-0.6l-1.688,-0.75l-1.65,-0.9l-1.538,-1.013l-1.462,-1.125l-1.35,-1.275l-1.238,-1.35l-1.125,-1.463l-1.012,-1.575l-0.863,-1.612l-0.713,-1.725l-0.6,-1.763l-0.412,-1.8l-0.3,-1.8l-0.113,-1.876l0,-1.837l0.188,-1.838l0.337,-1.8l0.488,-1.8l-61.579,-43.091l-1.725,6.413l2.25,1.687l2.138,1.763l2.025,1.913l1.95,1.987l1.838,2.1l1.687,2.176l1.613,2.287l1.5,2.363l1.35,2.438l1.2,2.475l1.125,2.588l0.938,2.587l0.825,2.663l0.675,2.7l0.525,2.738l0.412,2.775l0.263,2.776l0.075,2.775l-0.038,2.775l-0.187,2.775l-0.338,2.776l-0.487,2.737l-0.6,2.701l-0.788,2.7l-0.9,2.625l-1.012,2.588l-1.201,2.512l-1.275,2.476l-1.462,2.4l-1.538,2.288l-1.687,2.25l-1.763,2.137l-1.913,2.026l-1.987,1.95l-2.1,1.8l-2.213,1.725l-2.25,1.613l-2.363,1.462l-2.438,1.35l-2.512,1.238l-2.55,1.088l-2.626,0.937l-2.662,0.825l-2.7,0.675l-2.738,0.525l-2.775,0.413l-2.738,0.225l-2.813,0.112l-2.775,-0.037l-2.775,-0.188l-2.775,-0.337l-2.738,-0.488l-2.7,-0.637l-2.7,-0.75l-2.625,-0.9l-2.588,-1.05l-2.513,-1.201l-2.475,-1.275l-2.362,-1.462l-2.326,-1.538l-2.212,-1.688l-2.138,-1.8l-2.025,-1.875l-1.95,-2.025l-1.838,-2.1l-1.687,-2.175l-1.613,-2.288l-1.463,-2.363l-1.35,-2.438l-1.237,-2.512l-1.088,-2.55l-0.937,-2.626l-0.825,-2.662l-0.675,-2.701l-0.525,-2.737l-0.375,-2.738l-0.263,-2.775l-0.075,-2.813l0.038,-2.775Zm181.736,-15.227l1.463,1.238l1.387,1.35l1.238,1.5l1.087,1.575l0.976,1.65l0.825,1.726l0.675,1.8l0.487,1.875l5.212,-0l0.301,-2.738l0.488,-2.7l0.599,-2.7l0.751,-2.663l0.862,-2.625l1.013,-2.55l1.162,-2.513l1.275,-2.438l1.387,-2.363l1.538,-2.325l1.613,-2.212l1.763,-2.138l1.875,-2.025l1.95,-1.913l2.062,-1.838l2.138,-1.725l-15.413,-26.702l-18.714,51.454Zm30.902,6.038l-0.638,2.213l-0.524,2.213l-0.376,2.25l26.402,-0l-13.576,-23.515l-1.688,1.538l-1.575,1.613l-1.499,1.725l-1.389,1.837l-1.274,1.876l-1.163,1.987l-1.05,2.025l-0.9,2.101l-0.75,2.137Zm-58.541,11.551l0.075,1.388l0.187,1.388l0.338,1.35l0.487,1.312l0.6,1.238l0.713,1.2l0.825,1.125l0.938,1.013l1.012,0.937l1.125,0.825l1.2,0.713l1.238,0.6l1.312,0.488l1.351,0.337l1.387,0.188l1.388,0.075l1.387,-0.075l1.388,-0.188l1.35,-0.337l1.313,-0.488l1.237,-0.6l1.2,-0.713l1.125,-0.825l1.013,-0.937l0.937,-1.013l0.826,-1.125l0.712,-1.2l0.6,-1.238l0.488,-1.312l0.337,-1.35l0.188,-1.388l0.075,-1.388l-0.075,-1.387l-0.188,-1.388l-0.337,-1.35l-0.488,-1.313l-0.6,-1.237l-0.712,-1.2l-0.826,-1.125l-0.937,-1.013l-1.013,-0.938l-1.125,-0.825l-1.2,-0.712l-1.237,-0.6l-1.313,-0.488l-1.35,-0.337l-1.388,-0.188l-1.387,-0.075l-1.388,0.075l-1.387,0.188l-1.351,0.337l-1.312,0.488l-1.238,0.6l-1.2,0.712l-1.125,0.825l-1.012,0.938l-0.938,1.013l-0.825,1.125l-0.713,1.2l-0.6,1.237l-0.487,1.313l-0.338,1.35l-0.187,1.388l-0.075,1.387Zm95.931,4.876l-38.928,-0l0.376,2.325l0.524,2.288l0.676,2.25l0.825,2.175l0.937,2.175l1.088,2.063l1.199,2.025l1.351,1.95l1.462,1.838l1.576,1.725l1.65,1.65l1.8,1.538l1.875,1.425l1.95,1.313l2.025,1.162l2.1,1.05l2.175,0.9l2.213,0.788l2.25,0.638l2.325,0.45l2.325,0.375l2.326,0.187l2.362,0.038l2.326,-0.113l2.324,-0.262l2.326,-0.375l2.287,-0.563l2.251,-0.675l2.212,-0.825l2.137,-0.975l2.063,-1.088l2.026,-1.237l1.912,-1.351l1.838,-1.462l1.724,-1.575l1.614,-1.688l1.537,-1.8l1.425,-1.875l1.275,-1.988l1.163,-2.025l1.013,-2.1l0.9,-2.176l0.75,-2.25l0.599,-2.25l0.488,-2.288l0.3,-2.325l0.187,-2.362l0.038,-2.363l-0.113,-2.325l-0.299,-2.326l-0.413,-2.325l-0.562,-2.288l-0.714,-2.212l-0.825,-2.213l-0.975,-2.138l-1.124,-2.062l-1.238,-1.988l-1.388,-1.913l-1.462,-1.837l-1.612,-1.725l-1.689,-1.613l-1.8,-1.5l-1.875,-1.388l-1.987,-1.275l-2.063,-1.125l-2.1,-1.013l-2.175,-0.9l-2.25,-0.712l-2.288,-0.6l-2.287,-0.45l-2.325,-0.3l-2.363,-0.188l-2.325,0l-2.363,0.15l-2.325,0.3l-2.288,0.413l-2.287,0.6l-2.251,0.712l18.826,32.591l0.376,0.75l0.187,0.825l0.075,0.862l-0.075,0.825l-0.187,0.826l-0.376,0.787l-0.487,0.675l-0.6,0.6l-0.713,0.488l-0.749,0.375l-0.825,0.225l-0.863,0.075Zm-231.99,-17.289l-0.712,2.212l-0.563,2.288l-0.45,2.288l-0.262,2.325l-0.15,2.325l0.037,2.325l0.15,2.363l0.3,2.288l0.45,2.288l0.6,2.287l0.713,2.213l0.9,2.175l0.975,2.1l1.162,2.026l1.238,1.987l1.388,1.875l1.5,1.801l1.612,1.687l1.725,1.575l1.8,1.5l1.876,1.351l1.987,1.237l2.063,1.125l2.1,0.975l2.213,0.863l2.212,0.712l2.25,0.563l2.326,0.413l2.287,0.3l2.363,0.15l2.325,-0.038l2.325,-0.15l2.325,-0.3l2.288,-0.45l2.25,-0.6l2.213,-0.713l2.175,-0.862l2.1,-1.013l2.063,-1.125l1.95,-1.275l1.912,-1.388l1.763,-1.5l1.725,-1.612l1.575,-1.688l1.5,-1.8l1.35,-1.913l1.238,-1.988l1.125,-2.025l0.975,-2.137l0.863,-2.176l0.712,-2.212l0.563,-2.288l0.45,-2.288l0.262,-2.325l0.15,-2.325l0,-2.325l-0.187,-2.325l-0.3,-2.326l-0.45,-2.287l-0.563,-2.288l-0.75,-2.213l-0.862,-2.175l-1.013,-2.1l-1.125,-2.025l-1.238,-1.988l-1.387,-1.875l-1.5,-1.8l-1.613,-1.688l-3,11.139l-0.563,1.912l-0.75,1.875l-0.825,1.801l-0.975,1.762l-1.125,1.65l-1.2,1.575l-1.313,1.501l-1.425,1.425l-1.537,1.275l-1.613,1.2l-1.687,1.088l-1.726,0.937l-1.837,0.825l-1.875,0.675l-1.913,0.563l-1.95,0.45l-0.863,0.075l-0.862,-0.075l-0.825,-0.188l-0.788,-0.337l-0.712,-0.45l-0.638,-0.563l-0.562,-0.675l-0.45,-0.712l-0.3,-0.826l-0.188,-0.825l-0.037,-0.862l0.112,-0.825l0.225,-0.825l0.375,-0.788l0.488,-0.712l0.562,-0.638l0.713,-0.488l1.912,-1.35l1.875,-1.5l1.763,-1.612l1.613,-1.688l1.537,-1.838l1.388,-1.912l1.237,-2.026l1.126,-2.062l1.012,-2.175l0.825,-2.213l0.675,-2.288l2.438,-9.113l-2.175,-0.863l-2.213,-0.675l-2.288,-0.6l-2.287,-0.412l-2.325,-0.263l-2.326,-0.15l-2.325,0.038l-2.325,0.15l-2.325,0.3l-2.288,0.45l-2.287,0.6l-2.213,0.75l-2.138,0.862l-2.137,1.013l-2.025,1.125l-1.95,1.275l-1.913,1.388l-1.763,1.5l-1.725,1.613l-1.575,1.687l-1.462,1.8l-1.388,1.913l-1.238,1.988l-1.087,2.062l-1.013,2.101l-0.825,2.175Zm136.734,-5.138l1.425,-1.013l-4.575,-9.788l-9.301,-0l0,-7.088l6,-0l0.601,-0.75l0.75,-0.675l0.862,-0.525l0.9,-0.375l0.975,-0.263l0.975,-0.075l1.013,0.075l0.975,0.263l0.9,0.375l0.825,0.525l0.75,0.675l0.638,0.75l6,-0l0,7.088l-6,-0l3.337,7.163l1.8,-0.488l1.876,-0.3l1.875,-0.15l1.875,0l17.738,-48.754l-95.743,0l-1.988,7.426l65.517,45.904Z" style="fill:#fff;"/></g></svg>