<?xml version="1.0" encoding="UTF-8" standalone="no"?><!DOCTYPE svg PUBLIC "-//W3C//DTD SVG 1.1//EN" "http://www.w3.org/Graphics/SVG/1.1/DTD/svg11.dtd"><svg width="100%" height="100%" viewBox="0 0 945 426" version="1.1" xmlns="http://www.w3.org/2000/svg" xmlns:xlink="http://www.w3.org/1999/xlink" xml:space="preserve" xmlns:serif="http://www.serif.com/" style="fill-rule:evenodd;clip-rule:evenodd;stroke-linejoin:round;stroke-miterlimit:2;"><g transform="matrix(50,0,0,50,545.781,230.25)"></g><text x="399.858px" y="230.25px" style="font-family:'ArialMT', 'Arial', sans-serif;font-size:50px;">sw=36</text><g id="_960-Contra-flow-Bus-and-Cycle-Lane" serif:id="960 Contra-flow Bus and Cycle Lane"><path d="M944.882,35.433l-0,354.331c-0,19.556 -15.877,35.433 -35.433,35.433l-874.016,-0c-19.556,-0 -35.433,-15.877 -35.433,-35.433l-0,-354.331c-0,-19.556 15.877,-35.433 35.433,-35.433l874.016,0c19.556,0 35.433,15.877 35.433,35.433Z" style="fill:#fff;"/><path d="M944.882,35.433l-0,354.331c-0,19.556 -15.877,35.433 -35.433,35.433l-874.016,-0c-19.556,-0 -35.433,-15.877 -35.433,-35.433l-0,-354.331c-0,-19.556 15.877,-35.433 35.433,-35.433l874.016,0c19.556,0 35.433,15.877 35.433,35.433Zm-1.181,0c-0,-18.904 -15.348,-34.252 -34.252,-34.252l-874.016,0c-18.904,0 -34.252,15.348 -34.252,34.252l0,354.331c0,18.904 15.348,34.252 34.252,34.252l874.016,-0c18.904,-0 34.252,-15.348 34.252,-34.252l-0,-354.331Z" style="fill:#0079c1;"/><path d="M336.614,17.717l0,389.763l-301.181,0c-9.778,0 -17.716,-7.938 -17.716,-17.716l-0,-354.331c-0,-9.778 7.938,-17.716 17.716,-17.716l301.181,-0Z" style="fill:#0079c1;"/><path d="M927.165,35.433l0,354.331c0,9.778 -7.938,17.716 -17.716,17.716l-537.402,0l0,-389.763l537.402,-0c9.778,-0 17.716,7.938 17.716,17.716Z" style="fill:#0079c1;"/><path d="M116.142,169.291l-0,149.607l-31.496,-0l-0,-149.607l-31.496,31.496l-0,-47.244l47.244,-47.244l47.244,47.244l-0,47.244l-31.496,-31.496Z" style="fill:#fff;"/><path d="M269.685,169.291l0,149.607l-31.496,-0l-0,-149.607l-31.496,31.496l-0,-47.244l47.244,-47.244l47.244,47.244l0,47.244l-31.496,-31.496Z" style="fill:#fff;"/><path d="M783.332,196.407l0.563,-2.751l0.312,-2.689l0,-2.813l-0.187,-2.75l-0.438,-2.688l-0.75,-2.689l-0.937,-2.563l-1.188,-2.501l-1.438,-2.376l-1.625,-2.187l-1.874,-2.064l-2,-1.876l-2.188,-1.687l-2.313,-1.501l-2.5,-1.25l-2.562,-1l-2.625,-0.751l-2.75,-0.5l-2.75,-0.25l-2.75,-0l-2.75,0.25l-2.688,0.5l-2.688,0.751l-2.561,1l-2.438,1.25l-2.375,1.501l-2.188,1.687l-2,1.876l-1.875,2.064l-1.625,2.187l-1.437,2.376l-1.188,2.501l-0.937,2.563l-0.688,2.689l-0.5,2.688l-0.188,2.75l0.063,2.813l0.313,2.689l0.562,2.751l-179.064,-0l0.563,-2.751l0.312,-2.689l0.063,-2.813l-0.188,-2.75l-0.5,-2.688l-0.688,-2.689l-1,-2.563l-1.186,-2.501l-1.438,-2.376l-1.625,-2.187l-1.813,-2.064l-2.062,-1.876l-2.188,-1.687l-2.312,-1.501l-2.438,-1.25l-2.625,-1l-2.625,-0.751l-2.687,-0.5l-2.75,-0.25l-2.813,-0l-2.688,0.25l-2.749,0.5l-2.625,0.751l-2.563,1l-2.5,1.25l-2.313,1.501l-2.187,1.687l-2.062,1.876l-1.813,2.064l-1.625,2.187l-1.438,2.376l-1.188,2.501l-0.999,2.563l-0.687,2.689l-0.438,2.688l-0.25,2.75l0.063,2.813l0.312,2.689l0.563,2.751l-64.439,-0l-1.687,-0.125l-1.75,-0.375l-1.625,-0.563l-1.563,-0.75l-1.437,-0.938l-1.313,-1.188l-1.125,-1.251l-1,-1.5l-0.749,-1.563l-0.563,-1.625l-0.312,-1.689l-0.125,-1.749l-0,-47.264l0.125,-1.126l0.312,-1.125l0.563,-1l0.686,-0.938l0.938,-0.688l1,-0.562l1.125,-0.313l1.125,-0.124l2.688,-63.832l0.125,-1.25l0.375,-1.188l0.563,-1.125l0.75,-1l0.937,-0.876l1,-0.687l1.125,-0.5l1.25,-0.313l1.25,-0.125l426.94,0l2.749,0.125l2.689,0.375l2.688,0.625l2.561,0.875l2.501,1.126l2.374,1.312l2.252,1.501l2.123,1.75l1.938,1.939l1.688,2.126l1.563,2.25l1.311,2.376l1.125,2.5l0.877,2.564l0.624,2.688l0.375,2.688l0.126,2.688l-0,88.651l-101.314,19.193Zm-287.44,-0.563l-0.562,-2.251l-0.375,-2.251l-0.063,-2.312l0.063,-2.314l0.375,-2.313l0.562,-2.25l0.751,-2.188l1,-2.126l1.187,-1.939l1.375,-1.875l1.562,-1.751l1.75,-1.562l1.875,-1.376l1.938,-1.187l2.125,-1l2.188,-0.751l2.249,-0.563l2.313,-0.375l2.313,-0.062l2.312,0.062l2.251,0.375l2.249,0.563l2.188,0.751l2.125,1l2,1.187l1.813,1.376l1.749,1.562l1.562,1.751l1.376,1.875l1.187,1.939l1,2.126l0.75,2.188l0.563,2.25l0.375,2.313l0.125,2.314l-0.125,2.312l-0.375,2.251l-0.563,2.251l-0.75,2.188l-1,2.125l-1.187,2.001l-1.376,1.814l-1.562,1.75l-1.749,1.563l-1.813,1.375l-2,1.188l-2.125,1.001l-2.188,0.749l-2.249,0.563l-2.251,0.375l-2.312,0.062l-2.313,-0.062l-2.313,-0.375l-2.249,-0.563l-2.188,-0.749l-2.125,-1.001l-1.938,-1.188l-1.875,-1.375l-1.75,-1.563l-1.562,-1.75l-1.375,-1.814l-1.187,-2.001l-1,-2.125l-0.751,-2.188Zm236.19,0l-0.562,-2.251l-0.313,-2.251l-0.125,-2.312l0.125,-2.314l0.313,-2.313l0.562,-2.25l0.812,-2.188l1,-2.126l1.187,-1.939l1.376,-1.875l1.562,-1.751l1.688,-1.562l1.875,-1.376l1.999,-1.187l2.063,-1l2.188,-0.751l2.25,-0.563l2.313,-0.375l2.311,-0.062l2.313,0.062l2.313,0.375l2.25,0.563l2.188,0.751l2.061,1l2.001,1.187l1.875,1.376l1.688,1.562l1.562,1.751l1.375,1.875l1.188,1.939l0.999,2.126l0.813,2.188l0.562,2.25l0.313,2.313l0.125,2.314l-0.125,2.312l-0.313,2.251l-0.562,2.251l-0.813,2.188l-0.999,2.125l-1.188,2.001l-1.375,1.814l-1.562,1.75l-1.688,1.563l-1.875,1.375l-2.001,1.188l-2.061,1.001l-2.188,0.749l-2.25,0.563l-2.313,0.375l-2.313,0.062l-2.311,-0.062l-2.313,-0.375l-2.25,-0.563l-2.188,-0.749l-2.063,-1.001l-1.999,-1.188l-1.875,-1.375l-1.688,-1.563l-1.562,-1.75l-1.376,-1.814l-1.187,-2.001l-1,-2.125l-0.812,-2.188Zm-223.502,-0.437l1,1.312l1.188,1.188l1.313,1.063l1.499,0.75l1.562,0.625l1.688,0.375l1.688,0.126l1.625,-0.126l1.688,-0.375l1.562,-0.625l1.499,-0.75l1.313,-1.063l1.188,-1.188l1.062,-1.312l0.75,-1.501l0.625,-1.563l0.375,-1.688l0.125,-1.625l-0.125,-1.689l-0.375,-1.687l-0.625,-1.564l-0.75,-1.499l-1.062,-1.314l-1.188,-1.187l-1.313,-1.001l-1.499,-0.813l-1.562,-0.625l-1.688,-0.312l-1.625,-0.125l-1.688,0.125l-1.688,0.312l-1.562,0.625l-1.499,0.813l-1.313,1.001l-1.188,1.187l-1,1.314l-0.812,1.499l-0.625,1.564l-0.313,1.687l-0.125,1.689l0.125,1.625l0.313,1.688l0.625,1.563l0.812,1.501Zm236.189,-0l1,1.312l1.188,1.188l1.375,1.063l1.5,0.75l1.563,0.625l1.625,0.375l1.686,0.126l1.688,-0.126l1.625,-0.375l1.625,-0.625l1.438,-0.75l1.375,-1.063l1.188,-1.188l1,-1.312l0.811,-1.501l0.563,-1.563l0.375,-1.688l0.125,-1.625l-0.125,-1.689l-0.375,-1.687l-0.563,-1.564l-0.811,-1.499l-1,-1.314l-1.188,-1.187l-1.375,-1.001l-1.438,-0.813l-1.625,-0.625l-1.625,-0.312l-1.688,-0.125l-1.686,0.125l-1.625,0.312l-1.563,0.625l-1.5,0.813l-1.375,1.001l-1.188,1.187l-1,1.314l-0.813,1.499l-0.562,1.564l-0.374,1.687l-0.126,1.689l0.126,1.625l0.374,1.688l0.562,1.563l0.813,1.501Zm-176.064,-71.396l1.125,-0.125l1.125,-0.312l1,-0.564l0.938,-0.687l0.688,-0.938l0.562,-1l0.313,-1.126l0.125,-1.125l-0,-29.571l-0.125,-1.125l-0.313,-1.125l-0.562,-1.001l-0.688,-0.875l-0.938,-0.75l-1,-0.562l-1.125,-0.314l-1.125,-0.125l-70.875,0l-1.187,0.125l-1.063,0.314l-1.063,0.562l-0.875,0.75l-0.75,0.875l-0.5,1.001l-0.375,1.125l-0.125,1.125l0,29.571l0.125,1.125l0.375,1.126l0.5,1l0.75,0.938l0.875,0.687l1.063,0.564l1.063,0.312l1.187,0.125l70.875,0Zm26.563,-41.325l-1.187,0.125l-1.063,0.314l-1.063,0.562l-0.875,0.75l-0.751,0.875l-0.499,1.001l-0.375,1.125l-0.125,1.125l0,29.571l0.125,1.125l0.375,1.126l0.499,1l0.751,0.938l0.875,0.687l1.063,0.564l1.063,0.312l1.187,0.125l70.875,0l1.125,-0.125l1.125,-0.312l1,-0.564l0.938,-0.687l0.688,-0.938l0.562,-1l0.313,-1.126l0.125,-1.125l-0,-29.571l-0.125,-1.125l-0.313,-1.125l-0.562,-1.001l-0.688,-0.875l-0.938,-0.75l-1,-0.562l-1.125,-0.314l-1.125,-0.125l-70.875,0Zm265.751,41.325l1.126,-0.125l1.126,-0.312l0.998,-0.564l0.938,-0.687l0.687,-0.938l0.563,-1l0.375,-1.126l0.062,-1.125l-0,-17.755l-0.124,-2.126l-0.375,-2.062l-0.626,-2.064l-0.874,-1.938l-1.125,-1.875l-1.313,-1.688l-1.5,-1.5l-1.688,-1.314l-1.812,-1.125l-2,-0.875l-2,-0.625l-2.125,-0.376l-2.124,-0.125l-59.064,0l-1.125,0.125l-1.125,0.314l-0.999,0.562l-0.938,0.75l-0.75,0.875l-0.5,1.001l-0.375,1.125l-0.062,1.125l-0,29.571l0.062,1.125l0.375,1.126l0.5,1l0.75,0.938l0.938,0.687l0.999,0.564l1.125,0.312l1.125,0.125l70.875,0Zm-419.314,51.702l0.125,1.126l0.312,1.125l0.563,1l0.75,0.938l0.875,0.75l1.062,0.5l1.063,0.375l1.187,0.063l17.688,-0l1.188,-0.063l1.062,-0.375l1.062,-0.5l0.875,-0.75l0.75,-0.938l0.5,-1l0.375,-1.125l0.125,-1.126l0,-87.15l-0.125,-1.125l-0.375,-1.125l-0.5,-1.001l-0.75,-0.875l-0.875,-0.75l-1.062,-0.562l-1.062,-0.314l-1.188,-0.125l-17.688,0l-1.187,0.125l-1.063,0.314l-1.062,0.562l-0.875,0.75l-0.75,0.875l-0.563,1.001l-0.312,1.125l-0.125,1.125l-0,87.15Zm251.001,-93.027l-1.125,0.125l-1.125,0.314l-1.063,0.562l-0.875,0.75l-0.749,0.875l-0.5,1.001l-0.375,1.125l-0.125,1.125l0,29.571l0.125,1.125l0.375,1.126l0.5,1l0.749,0.938l0.875,0.687l1.063,0.564l1.125,0.312l1.125,0.125l70.876,0l1.125,-0.125l1.124,-0.312l1.001,-0.564l0.937,-0.687l0.688,-0.938l0.562,-1l0.313,-1.126l0.125,-1.125l-0,-29.571l-0.125,-1.125l-0.313,-1.125l-0.562,-1.001l-0.688,-0.875l-0.937,-0.75l-1.001,-0.562l-1.124,-0.314l-1.125,-0.125l-70.876,0Z" style="fill:#fff;"/><path d="M738.32,335.958l0,-99.738l20.998,0l-0,99.738l20.997,-20.997l-0,31.496l-31.496,31.496l-31.496,-31.496l-0,-31.496l20.997,20.997Z" style="fill:#fff;"/><rect x="336.614" y="5.906" width="35.433" height="413.386" style="fill:#fff;"/><path d="M412.23,329.139l0.125,-1.851l0.225,-1.825l0.325,-1.85l0.425,-1.8l0.525,-1.775l0.6,-1.75l0.7,-1.726l0.775,-1.7l0.875,-1.625l0.95,-1.6l1.05,-1.525l1.125,-1.475l1.2,-1.425l1.25,-1.375l1.35,-1.276l1.401,-1.225l1.45,-1.125l1.525,-1.075l1.575,-0.975l1.625,-0.9l1.675,-0.825l1.7,-0.7l1.75,-0.65l1.775,-0.525l1.8,-0.45l1.826,-0.35l1.85,-0.25l1.85,-0.175l1.85,-0.05l1.85,0.025l1.85,0.125l1.85,0.25l1.825,0.325l1.826,0.425l1.775,0.5l1.75,0.6l7.675,-28.628l0.1,-0.525l-0.025,-0.55l-0.1,-0.55l-0.2,-0.5l-0.3,-0.45l-0.375,-0.4l-0.45,-0.325l-0.75,-0.5l-0.725,-0.575l-0.65,-0.625l-0.575,-0.7l-0.525,-0.775l-0.425,-0.775l-0.375,-0.85l-0.275,-0.875l-0.2,-0.876l-0.1,-0.9l-0.025,-0.925l0.075,-0.9l0.15,-0.9l0.25,-0.875l0.325,-0.85l0.4,-0.825l0.475,-0.775l0.55,-0.725l0.625,-0.675l0.7,-0.6l0.725,-0.525l0.8,-0.475l0.825,-0.375l0.85,-0.3l0.875,-0.225l0.9,-0.125l0.925,-0.051l16.527,0l-0,8.851l-13.576,0l-0.4,0.05l-0.4,0.15l-0.35,0.225l-0.275,0.3l-0.2,0.375l-0.125,0.4l-0.025,0.4l0.075,0.425l0.175,0.375l0.25,0.326l0.325,0.25l0.725,0.5l0.65,0.6l0.6,0.625l0.525,0.7l0.45,0.775l0.35,0.775l0.275,0.85l0.2,0.85l0.075,0.875l-0,0.875l-0.075,0.85l-0.175,0.875l-1.425,5.301l64.678,-0l3.226,-8.851l-13.651,-3.025l-0.5,-0.15l-0.45,-0.25l-0.4,-0.3l-0.35,-0.375l-0.275,-0.425l-0.2,-0.45l-0.125,-0.5l-0.025,-0.5l0.05,-0.501l0.15,-0.5l0.225,-0.45l0.3,-0.425l0.35,-0.35l0.425,-0.275l0.45,-0.225l0.5,-0.125l0.5,-0.05l30.552,0l0.3,0.05l0.275,0.125l0.25,0.175l0.175,0.25l0.125,0.275l0.05,0.3l-0.05,0.3l-0.275,0.975l-0.4,0.951l-0.475,0.875l-0.55,0.85l-0.65,0.8l-0.7,0.725l-0.775,0.65l-0.85,0.575l-0.875,0.5l-0.926,0.4l-0.974,0.325l-0.976,0.225l-0.999,0.125l-2.726,7.501l13.976,24.227l1.725,-0.675l1.775,-0.6l1.775,-0.475l1.801,-0.4l1.825,-0.3l1.85,-0.2l1.85,-0.125l1.85,-0l1.85,0.075l1.851,0.2l1.825,0.275l1.825,0.375l1.775,0.45l1.775,0.575l1.725,0.65l1.7,0.75l1.675,0.825l1.6,0.9l1.55,1l1.526,1.075l1.449,1.175l1.376,1.225l1.324,1.301l1.251,1.35l1.175,1.45l1.1,1.475l1.025,1.55l0.925,1.6l0.85,1.65l0.775,1.675l0.675,1.726l0.6,1.75l0.475,1.8l0.4,1.8l0.301,1.825l0.224,1.85l0.1,1.851l0.025,1.85l-0.075,1.85l-0.174,1.85l-0.276,1.825l-0.375,1.8l-0.475,1.801l-0.55,1.775l-0.65,1.725l-0.725,1.7l-0.825,1.65l-0.925,1.625l-0.975,1.55l-1.075,1.526l-1.175,1.45l-1.225,1.375l-1.276,1.325l-1.374,1.25l-1.425,1.2l-1.501,1.1l-1.525,1.025l-1.6,0.925l-1.65,0.875l-1.675,0.75l-1.725,0.701l-1.75,0.575l-1.8,0.5l-1.801,0.4l-1.824,0.325l-1.851,0.2l-1.85,0.125l-1.85,0.025l-1.85,-0.075l-1.825,-0.175l-1.85,-0.275l-1.8,-0.35l-1.801,-0.475l-1.775,-0.55l-1.725,-0.65l-1.7,-0.726l-1.675,-0.825l-1.6,-0.9l-1.575,-1l-1.5,-1.075l-1.476,-1.125l-1.375,-1.225l-1.324,-1.3l-1.25,-1.375l-1.201,-1.425l-1.1,-1.476l-1.025,-1.55l-0.95,-1.575l-0.875,-1.65l-0.775,-1.675l-0.675,-1.725l-0.6,-1.75l-0.5,-1.776l-0.4,-1.825l-0.325,-1.825l-0.2,-1.825l-3.475,-0l-0.325,1.225l-0.45,1.175l-0.525,1.15l-0.625,1.1l-0.725,1.05l-0.825,0.976l-0.875,0.9l-0.976,0.8l-1.025,0.75l3.051,6.525l6.2,0l-0,4.726l-4,-0l-0.425,0.5l-0.5,0.45l-0.55,0.35l-0.6,0.25l-0.65,0.15l-0.675,0.075l-0.651,-0.075l-0.65,-0.15l-0.6,-0.25l-0.575,-0.35l-0.475,-0.45l-0.425,-0.5l-4,-0l0,-4.726l4,0l-2.225,-4.775l-1.2,0.3l-1.2,0.2l-1.225,0.125l-1.25,-0l-1.225,-0.1l-1.225,-0.2l-1.175,-0.3l-1.175,-0.4l-1.126,-0.5l-1.1,-0.6l-1.025,-0.675l-0.975,-0.75l-0.9,-0.85l-0.825,-0.901l-0.75,-0.975l-0.675,-1.05l-0.575,-1.075l-0.475,-1.15l-0.4,-1.175l-0.275,-1.2l-0.2,-1.2l-0.075,-1.25l-0,-1.225l0.125,-1.226l0.225,-1.2l0.325,-1.2l-41.053,-28.727l-1.15,4.275l1.5,1.125l1.425,1.175l1.351,1.275l1.3,1.326l1.225,1.4l1.125,1.45l1.075,1.525l1,1.575l0.9,1.625l0.8,1.65l0.75,1.726l0.625,1.725l0.55,1.775l0.45,1.8l0.35,1.825l0.275,1.85l0.175,1.85l0.05,1.851l-0.025,1.85l-0.125,1.85l-0.225,1.85l-0.325,1.825l-0.4,1.8l-0.525,1.801l-0.6,1.75l-0.675,1.725l-0.8,1.675l-0.85,1.65l-0.975,1.6l-1.025,1.525l-1.125,1.501l-1.175,1.425l-1.275,1.35l-1.325,1.3l-1.401,1.2l-1.475,1.15l-1.5,1.075l-1.575,0.975l-1.625,0.9l-1.675,0.825l-1.7,0.726l-1.75,0.625l-1.775,0.55l-1.801,0.45l-1.825,0.35l-1.85,0.275l-1.825,0.15l-1.875,0.075l-1.85,-0.025l-1.85,-0.125l-1.85,-0.225l-1.825,-0.325l-1.801,-0.425l-1.8,-0.5l-1.75,-0.6l-1.725,-0.701l-1.675,-0.8l-1.65,-0.85l-1.575,-0.975l-1.55,-1.025l-1.475,-1.125l-1.426,-1.2l-1.35,-1.25l-1.3,-1.35l-1.225,-1.4l-1.125,-1.451l-1.075,-1.525l-0.975,-1.575l-0.9,-1.625l-0.825,-1.675l-0.725,-1.7l-0.625,-1.75l-0.55,-1.776l-0.45,-1.8l-0.35,-1.825l-0.25,-1.825l-0.175,-1.85l-0.05,-1.875l0.025,-1.85Zm121.157,-10.151l0.976,0.825l0.925,0.9l0.825,1l0.725,1.05l0.65,1.1l0.55,1.15l0.45,1.2l0.325,1.25l3.475,0l0.2,-1.825l0.325,-1.8l0.4,-1.8l0.5,-1.775l0.575,-1.75l0.675,-1.701l0.775,-1.675l0.85,-1.625l0.925,-1.575l1.025,-1.55l1.075,-1.475l1.176,-1.425l1.25,-1.35l1.3,-1.276l1.374,-1.225l1.425,-1.15l-10.275,-17.801l-12.476,34.303Zm20.602,4.025l-0.426,1.475l-0.349,1.475l-0.251,1.5l17.602,0l-9.051,-15.676l-1.125,1.025l-1.05,1.075l-1,1.15l-0.925,1.225l-0.85,1.251l-0.775,1.325l-0.7,1.35l-0.6,1.4l-0.5,1.425Zm-39.028,7.701l0.05,0.925l0.125,0.925l0.225,0.9l0.325,0.875l0.4,0.825l0.475,0.8l0.55,0.75l0.625,0.675l0.676,0.625l0.75,0.55l0.8,0.475l0.825,0.4l0.875,0.325l0.9,0.225l0.925,0.125l0.925,0.05l0.925,-0.05l0.925,-0.125l0.9,-0.225l0.875,-0.325l0.825,-0.4l0.8,-0.475l0.75,-0.55l0.675,-0.625l0.625,-0.675l0.55,-0.75l0.475,-0.8l0.4,-0.825l0.325,-0.875l0.225,-0.9l0.125,-0.925l0.05,-0.925l-0.05,-0.925l-0.125,-0.925l-0.225,-0.901l-0.325,-0.875l-0.4,-0.825l-0.475,-0.8l-0.55,-0.75l-0.625,-0.675l-0.675,-0.625l-0.75,-0.55l-0.8,-0.475l-0.825,-0.4l-0.875,-0.325l-0.9,-0.225l-0.925,-0.125l-0.925,-0.05l-0.925,0.05l-0.925,0.125l-0.9,0.225l-0.875,0.325l-0.825,0.4l-0.8,0.475l-0.75,0.55l-0.676,0.625l-0.625,0.675l-0.55,0.75l-0.475,0.8l-0.4,0.825l-0.325,0.875l-0.225,0.901l-0.125,0.925l-0.05,0.925Zm63.954,3.25l-25.952,-0l0.251,1.55l0.349,1.525l0.451,1.5l0.55,1.45l0.625,1.451l0.725,1.375l0.8,1.35l0.9,1.3l0.975,1.225l1.05,1.15l1.1,1.1l1.2,1.025l1.25,0.95l1.3,0.875l1.351,0.776l1.399,0.7l1.451,0.6l1.475,0.525l1.499,0.425l1.551,0.3l1.55,0.25l1.55,0.125l1.575,0.025l1.55,-0.075l1.55,-0.175l1.551,-0.25l1.525,-0.375l1.5,-0.45l1.475,-0.55l1.425,-0.65l1.375,-0.725l1.35,-0.826l1.275,-0.9l1.225,-0.975l1.15,-1.05l1.075,-1.125l1.026,-1.2l0.949,-1.25l0.851,-1.325l0.775,-1.35l0.675,-1.4l0.6,-1.451l0.5,-1.5l0.399,-1.5l0.326,-1.525l0.199,-1.55l0.125,-1.575l0.025,-1.575l-0.075,-1.551l-0.199,-1.55l-0.275,-1.55l-0.375,-1.525l-0.476,-1.475l-0.55,-1.475l-0.65,-1.425l-0.749,-1.375l-0.825,-1.326l-0.926,-1.275l-0.975,-1.225l-1.075,-1.15l-1.125,-1.075l-1.2,-1l-1.25,-0.925l-1.325,-0.85l-1.375,-0.75l-1.4,-0.675l-1.451,-0.6l-1.499,-0.475l-1.525,-0.4l-1.525,-0.3l-1.551,-0.2l-1.575,-0.125l-1.55,-0l-1.575,0.1l-1.55,0.2l-1.525,0.275l-1.525,0.4l-1.501,0.475l12.551,21.727l0.251,0.5l0.125,0.55l0.05,0.575l-0.05,0.55l-0.125,0.55l-0.251,0.525l-0.324,0.45l-0.401,0.4l-0.475,0.325l-0.5,0.25l-0.55,0.15l-0.575,0.05Zm-154.66,-11.526l-0.475,1.475l-0.375,1.525l-0.3,1.525l-0.175,1.55l-0.1,1.551l0.025,1.55l0.1,1.575l0.2,1.525l0.3,1.525l0.4,1.525l0.475,1.475l0.601,1.451l0.65,1.4l0.775,1.35l0.825,1.325l0.925,1.25l1,1.2l1.075,1.125l1.15,1.05l1.2,1l1.25,0.9l1.325,0.826l1.375,0.75l1.4,0.65l1.475,0.575l1.476,0.475l1.5,0.375l1.55,0.275l1.525,0.2l1.575,0.1l1.55,-0.025l1.55,-0.1l1.55,-0.2l1.525,-0.3l1.5,-0.4l1.476,-0.475l1.45,-0.575l1.4,-0.675l1.375,-0.75l1.3,-0.851l1.275,-0.925l1.175,-1l1.15,-1.075l1.05,-1.125l1,-1.2l0.9,-1.275l0.825,-1.325l0.75,-1.35l0.65,-1.425l0.575,-1.451l0.476,-1.475l0.375,-1.525l0.3,-1.525l0.175,-1.55l0.1,-1.55l-0,-1.55l-0.125,-1.551l-0.2,-1.55l-0.3,-1.525l-0.375,-1.525l-0.501,-1.475l-0.575,-1.45l-0.675,-1.4l-0.75,-1.35l-0.825,-1.326l-0.925,-1.25l-1,-1.2l-1.075,-1.125l-2,7.426l-0.375,1.275l-0.5,1.25l-0.55,1.2l-0.65,1.175l-0.75,1.1l-0.8,1.05l-0.875,1l-0.95,0.951l-1.025,0.85l-1.076,0.8l-1.125,0.725l-1.15,0.625l-1.225,0.55l-1.25,0.45l-1.275,0.375l-1.3,0.3l-0.575,0.05l-0.575,-0.05l-0.55,-0.125l-0.525,-0.225l-0.475,-0.3l-0.425,-0.375l-0.375,-0.45l-0.3,-0.475l-0.2,-0.55l-0.125,-0.55l-0.025,-0.575l0.075,-0.55l0.15,-0.55l0.25,-0.525l0.325,-0.476l0.375,-0.425l0.475,-0.325l1.275,-0.9l1.25,-1l1.175,-1.075l1.075,-1.125l1.025,-1.225l0.925,-1.275l0.825,-1.35l0.75,-1.375l0.675,-1.451l0.55,-1.475l0.451,-1.525l1.625,-6.075l-1.45,-0.575l-1.476,-0.45l-1.525,-0.4l-1.525,-0.275l-1.55,-0.175l-1.55,-0.1l-1.55,0.025l-1.55,0.1l-1.55,0.2l-1.525,0.3l-1.525,0.4l-1.476,0.5l-1.425,0.575l-1.425,0.675l-1.35,0.75l-1.3,0.85l-1.275,0.925l-1.175,1l-1.15,1.075l-1.05,1.125l-0.975,1.2l-0.925,1.275l-0.825,1.326l-0.725,1.375l-0.675,1.4l-0.551,1.45Zm91.156,-3.425l0.95,-0.675l-3.05,-6.526l-6.2,0l-0,-4.725l4,-0l0.4,-0.5l0.5,-0.45l0.575,-0.35l0.6,-0.251l0.65,-0.175l0.65,-0.05l0.675,0.05l0.65,0.175l0.6,0.251l0.55,0.35l0.5,0.45l0.425,0.5l4.001,-0l-0,4.725l-4.001,0l2.226,4.775l1.2,-0.325l1.25,-0.2l1.25,-0.1l1.25,0l11.826,-32.502l-63.829,-0l-1.325,4.95l43.677,30.603Z" style="fill:#fff;"/></g></svg>