<?xml version="1.0" encoding="UTF-8" standalone="no"?><!DOCTYPE svg PUBLIC "-//W3C//DTD SVG 1.1//EN" "http://www.w3.org/Graphics/SVG/1.1/DTD/svg11.dtd"><svg width="100%" height="100%" viewBox="0 0 780 449" version="1.1" xmlns="http://www.w3.org/2000/svg" xmlns:xlink="http://www.w3.org/1999/xlink" xml:space="preserve" xmlns:serif="http://www.serif.com/" style="fill-rule:evenodd;clip-rule:evenodd;stroke-linejoin:round;stroke-miterlimit:2;"><g transform="matrix(50,0,0,50,463.055,242.061)"></g><text x="317.132px" y="242.061px" style="font-family:'ArialMT', 'Arial', sans-serif;font-size:50px;">sw=38</text><g id="_960.1-Contra-flow-Cycle-Lane" serif:id="960.1 Contra-flow Cycle Lane"><path d="M779.528,35.433l-0,377.953c-0,19.556 -15.877,35.433 -35.434,35.433l-708.661,-0c-19.556,-0 -35.433,-15.877 -35.433,-35.433l0,-377.953c0,-19.556 15.877,-35.433 35.433,-35.433l708.661,0c19.557,0 35.434,15.877 35.434,35.433Z" style="fill:#fff;"/><path d="M779.528,35.433l-0,377.953c-0,19.556 -15.877,35.433 -35.434,35.433l-708.661,-0c-19.556,-0 -35.433,-15.877 -35.433,-35.433l0,-377.953c0,-19.556 15.877,-35.433 35.433,-35.433l708.661,0c19.557,0 35.434,15.877 35.434,35.433Zm-1.182,0c0,-18.904 -15.347,-34.252 -34.252,-34.252l-708.661,0c-18.904,0 -34.252,15.348 -34.252,34.252l0,377.953c0,18.904 15.348,34.252 34.252,34.252l708.661,-0c18.905,-0 34.252,-15.348 34.252,-34.252l0,-377.953Z" style="fill:#0079c1;"/><path d="M336.614,17.717l0,413.385l-301.181,0c-9.778,0 -17.716,-7.938 -17.716,-17.716l-0,-377.953c-0,-9.778 7.938,-17.716 17.716,-17.716l301.181,-0Z" style="fill:#0079c1;"/><path d="M761.811,35.433l0,377.953c0,9.778 -7.938,17.716 -17.717,17.716l-372.047,0l0,-413.385l372.047,-0c9.779,-0 17.717,7.938 17.717,17.716Z" style="fill:#0079c1;"/><path d="M116.142,181.102l-0,149.607l-31.496,-0l-0,-149.607l-31.496,31.496l-0,-47.244l47.244,-47.244l47.244,47.244l-0,47.244l-31.496,-31.496Z" style="fill:#fff;"/><path d="M269.685,181.102l0,149.607l-31.496,-0l-0,-149.607l-31.496,31.496l-0,-47.244l47.244,-47.244l47.244,47.244l0,47.244l-31.496,-31.496Z" style="fill:#fff;"/><path d="M556.43,359.58l0,-99.737l20.998,-0l-0,99.737l20.997,-20.997l0,31.496l-31.496,31.496l-31.496,-31.496l0,-31.496l20.997,20.997Z" style="fill:#fff;"/><rect x="336.614" y="17.717" width="35.433" height="413.386" style="fill:#fff;"/><path d="M416.376,180.716l0.188,-2.776l0.337,-2.737l0.488,-2.776l0.637,-2.7l0.788,-2.663l0.9,-2.625l1.05,-2.587l1.162,-2.551l1.313,-2.437l1.425,-2.401l1.575,-2.287l1.688,-2.213l1.8,-2.138l1.875,-2.062l2.025,-1.913l2.1,-1.838l2.175,-1.687l2.288,-1.613l2.363,-1.463l2.437,-1.35l2.513,-1.237l2.55,-1.05l2.625,-0.976l2.663,-0.787l2.7,-0.675l2.738,-0.525l2.775,-0.375l2.775,-0.263l2.775,-0.075l2.776,0.038l2.775,0.187l2.775,0.375l2.738,0.488l2.737,0.637l2.663,0.75l2.625,0.901l11.513,-42.942l0.15,-0.787l-0.037,-0.825l-0.15,-0.825l-0.3,-0.75l-0.45,-0.676l-0.563,-0.6l-0.675,-0.487l-1.125,-0.75l-1.087,-0.863l-0.975,-0.937l-0.863,-1.05l-0.788,-1.163l-0.637,-1.163l-0.563,-1.275l-0.412,-1.312l-0.3,-1.313l-0.15,-1.35l-0.038,-1.388l0.113,-1.35l0.225,-1.35l0.375,-1.313l0.487,-1.275l0.6,-1.237l0.713,-1.163l0.825,-1.087l0.938,-1.013l1.05,-0.9l1.087,-0.788l1.2,-0.712l1.238,-0.563l1.275,-0.45l1.313,-0.337l1.35,-0.188l1.387,-0.075l24.789,0l0,13.276l-20.363,0l-0.601,0.075l-0.6,0.225l-0.525,0.338l-0.412,0.45l-0.3,0.562l-0.188,0.6l-0.037,0.601l0.112,0.637l0.263,0.563l0.375,0.487l0.487,0.375l1.088,0.75l0.975,0.9l0.9,0.938l0.788,1.05l0.675,1.163l0.525,1.162l0.412,1.275l0.3,1.275l0.113,1.313l-0,1.313l-0.113,1.275l-0.262,1.312l-2.138,7.951l97.018,0l4.839,-13.276l-20.477,-4.538l-0.75,-0.225l-0.675,-0.375l-0.6,-0.45l-0.525,-0.563l-0.412,-0.637l-0.3,-0.675l-0.188,-0.75l-0.037,-0.75l0.075,-0.75l0.225,-0.75l0.337,-0.676l0.45,-0.637l0.525,-0.525l0.638,-0.413l0.675,-0.337l0.75,-0.188l0.75,-0.075l45.828,0l0.449,0.075l0.413,0.188l0.375,0.262l0.263,0.375l0.187,0.413l0.075,0.45l-0.075,0.45l-0.413,1.463l-0.599,1.425l-0.713,1.312l-0.825,1.275l-0.975,1.201l-1.05,1.087l-1.162,0.975l-1.276,0.863l-1.312,0.75l-1.388,0.6l-1.462,0.487l-1.464,0.338l-1.499,0.187l-4.088,11.251l20.964,36.341l2.587,-1.012l2.663,-0.901l2.662,-0.712l2.701,-0.6l2.738,-0.45l2.775,-0.3l2.775,-0.188l2.775,0l2.776,0.113l2.775,0.3l2.738,0.412l2.737,0.563l2.663,0.675l2.662,0.863l2.588,0.975l2.55,1.125l2.513,1.237l2.4,1.35l2.325,1.501l2.288,1.612l2.174,1.763l2.064,1.838l1.987,1.95l1.875,2.025l1.763,2.175l1.65,2.213l1.538,2.325l1.387,2.4l1.275,2.475l1.163,2.513l1.013,2.588l0.9,2.625l0.712,2.7l0.6,2.7l0.45,2.738l0.337,2.775l0.15,2.776l0.038,2.775l-0.113,2.775l-0.262,2.775l-0.413,2.738l-0.562,2.7l-0.713,2.701l-0.825,2.662l-0.975,2.588l-1.087,2.55l-1.238,2.476l-1.388,2.437l-1.462,2.325l-1.612,2.288l-1.764,2.175l-1.837,2.063l-1.913,1.988l-2.062,1.875l-2.137,1.8l-2.251,1.65l-2.287,1.538l-2.401,1.387l-2.475,1.313l-2.512,1.125l-2.589,1.05l-2.625,0.863l-2.699,0.75l-2.701,0.6l-2.737,0.487l-2.775,0.3l-2.775,0.188l-2.776,0.037l-2.775,-0.112l-2.737,-0.263l-2.776,-0.412l-2.7,-0.525l-2.701,-0.713l-2.662,-0.825l-2.588,-0.975l-2.55,-1.087l-2.513,-1.238l-2.399,-1.35l-2.364,-1.5l-2.249,-1.613l-2.213,-1.688l-2.063,-1.837l-1.987,-1.95l-1.875,-2.063l-1.801,-2.138l-1.65,-2.212l-1.538,-2.326l-1.425,-2.362l-1.312,-2.476l-1.162,-2.512l-1.013,-2.588l-0.9,-2.625l-0.75,-2.663l-0.6,-2.738l-0.487,-2.737l-0.301,-2.738l-5.212,-0l-0.488,1.837l-0.675,1.763l-0.787,1.725l-0.938,1.65l-1.088,1.576l-1.237,1.462l-1.313,1.35l-1.462,1.2l-1.538,1.125l4.575,9.789l9.3,-0l0,7.088l-5.999,-0l-0.638,0.75l-0.75,0.675l-0.825,0.525l-0.9,0.375l-0.975,0.225l-1.013,0.113l-0.975,-0.113l-0.975,-0.225l-0.9,-0.375l-0.862,-0.525l-0.713,-0.675l-0.638,-0.75l-6,-0l0,-7.088l6,-0l-3.337,-7.163l-1.8,0.45l-1.8,0.3l-1.838,0.187l-1.875,0l-1.838,-0.15l-1.837,-0.3l-1.763,-0.45l-1.763,-0.6l-1.687,-0.75l-1.65,-0.9l-1.538,-1.013l-1.463,-1.125l-1.35,-1.275l-1.237,-1.35l-1.125,-1.463l-1.013,-1.575l-0.862,-1.612l-0.713,-1.725l-0.6,-1.763l-0.413,-1.8l-0.3,-1.8l-0.112,-1.876l-0,-1.837l0.187,-1.838l0.338,-1.8l0.487,-1.8l-61.578,-43.091l-1.726,6.413l2.251,1.687l2.137,1.763l2.025,1.913l1.95,1.987l1.838,2.1l1.688,2.176l1.612,2.287l1.5,2.363l1.35,2.438l1.201,2.475l1.125,2.588l0.937,2.587l0.825,2.663l0.675,2.7l0.525,2.738l0.413,2.775l0.262,2.776l0.075,2.775l-0.037,2.775l-0.188,2.775l-0.337,2.776l-0.488,2.737l-0.6,2.701l-0.787,2.7l-0.9,2.625l-1.013,2.588l-1.2,2.512l-1.275,2.476l-1.463,2.4l-1.537,2.288l-1.688,2.25l-1.762,2.137l-1.913,2.026l-1.988,1.95l-2.1,1.8l-2.213,1.725l-2.25,1.613l-2.362,1.462l-2.438,1.35l-2.513,1.238l-2.55,1.088l-2.625,0.937l-2.663,0.825l-2.7,0.675l-2.737,0.525l-2.776,0.413l-2.737,0.225l-2.813,0.112l-2.775,-0.037l-2.775,-0.188l-2.776,-0.337l-2.737,-0.488l-2.7,-0.637l-2.701,-0.75l-2.625,-0.9l-2.587,-1.05l-2.513,-1.201l-2.475,-1.275l-2.363,-1.462l-2.325,-1.538l-2.213,-1.688l-2.137,-1.8l-2.025,-1.875l-1.951,-2.025l-1.837,-2.1l-1.688,-2.175l-1.612,-2.288l-1.463,-2.363l-1.35,-2.438l-1.238,-2.512l-1.087,-2.55l-0.938,-2.626l-0.825,-2.662l-0.675,-2.701l-0.525,-2.737l-0.375,-2.738l-0.262,-2.775l-0.075,-2.813l0.037,-2.775Zm181.737,-15.227l1.462,1.238l1.388,1.35l1.237,1.5l1.088,1.575l0.975,1.65l0.825,1.726l0.675,1.8l0.488,1.875l5.212,-0l0.301,-2.738l0.487,-2.7l0.6,-2.7l0.75,-2.663l0.863,-2.625l1.012,-2.55l1.163,-2.513l1.274,-2.438l1.388,-2.363l1.538,-2.325l1.613,-2.212l1.762,-2.138l1.875,-2.025l1.951,-1.913l2.062,-1.838l2.137,-1.725l-15.413,-26.702l-18.713,51.454Zm30.902,6.038l-0.639,2.213l-0.524,2.213l-0.376,2.25l26.403,-0l-13.576,-23.515l-1.688,1.538l-1.575,1.613l-1.5,1.725l-1.388,1.837l-1.275,1.876l-1.162,1.987l-1.05,2.025l-0.9,2.101l-0.75,2.137Zm-58.542,11.551l0.075,1.388l0.188,1.388l0.337,1.35l0.488,1.312l0.6,1.238l0.713,1.2l0.825,1.125l0.937,1.013l1.013,0.937l1.125,0.825l1.2,0.713l1.237,0.6l1.313,0.488l1.35,0.337l1.388,0.188l1.387,0.075l1.388,-0.075l1.388,-0.188l1.35,-0.337l1.312,-0.488l1.238,-0.6l1.2,-0.713l1.125,-0.825l1.012,-0.937l0.938,-1.013l0.825,-1.125l0.713,-1.2l0.6,-1.238l0.487,-1.312l0.338,-1.35l0.187,-1.388l0.075,-1.388l-0.075,-1.387l-0.187,-1.388l-0.338,-1.35l-0.487,-1.313l-0.6,-1.237l-0.713,-1.2l-0.825,-1.125l-0.938,-1.013l-1.012,-0.938l-1.125,-0.825l-1.2,-0.712l-1.238,-0.6l-1.312,-0.488l-1.35,-0.337l-1.388,-0.188l-1.388,-0.075l-1.387,0.075l-1.388,0.188l-1.35,0.337l-1.313,0.488l-1.237,0.6l-1.2,0.712l-1.125,0.825l-1.013,0.938l-0.937,1.013l-0.825,1.125l-0.713,1.2l-0.6,1.237l-0.488,1.313l-0.337,1.35l-0.188,1.388l-0.075,1.387Zm95.932,4.876l-38.929,-0l0.376,2.325l0.524,2.288l0.676,2.25l0.825,2.175l0.938,2.175l1.087,2.063l1.2,2.025l1.351,1.95l1.461,1.838l1.576,1.725l1.65,1.65l1.8,1.538l1.876,1.425l1.95,1.313l2.025,1.162l2.099,1.05l2.176,0.9l2.213,0.788l2.249,0.638l2.326,0.45l2.325,0.375l2.325,0.187l2.362,0.038l2.326,-0.113l2.325,-0.262l2.325,-0.375l2.288,-0.563l2.25,-0.675l2.213,-0.825l2.137,-0.975l2.062,-1.088l2.026,-1.237l1.912,-1.351l1.838,-1.462l1.725,-1.575l1.613,-1.688l1.538,-1.8l1.424,-1.875l1.276,-1.988l1.163,-2.025l1.012,-2.1l0.9,-2.176l0.75,-2.25l0.6,-2.25l0.488,-2.288l0.299,-2.325l0.188,-2.362l0.037,-2.363l-0.112,-2.325l-0.3,-2.326l-0.412,-2.325l-0.563,-2.288l-0.713,-2.212l-0.825,-2.213l-0.975,-2.138l-1.125,-2.062l-1.237,-1.988l-1.388,-1.913l-1.462,-1.837l-1.613,-1.725l-1.688,-1.613l-1.8,-1.5l-1.875,-1.388l-1.987,-1.275l-2.063,-1.125l-2.1,-1.013l-2.176,-0.9l-2.249,-0.712l-2.288,-0.6l-2.288,-0.45l-2.325,-0.3l-2.363,-0.188l-2.325,0l-2.362,0.15l-2.325,0.3l-2.289,0.413l-2.287,0.6l-2.251,0.712l18.827,32.591l0.375,0.75l0.188,0.825l0.075,0.862l-0.075,0.825l-0.188,0.826l-0.375,0.787l-0.487,0.675l-0.601,0.6l-0.712,0.488l-0.75,0.375l-0.825,0.225l-0.862,0.075Zm-231.99,-17.289l-0.713,2.212l-0.562,2.288l-0.45,2.288l-0.263,2.325l-0.15,2.325l0.038,2.325l0.15,2.363l0.3,2.288l0.45,2.288l0.6,2.287l0.712,2.213l0.9,2.175l0.975,2.1l1.163,2.026l1.238,1.987l1.387,1.875l1.5,1.801l1.613,1.687l1.725,1.575l1.8,1.5l1.875,1.351l1.988,1.237l2.062,1.125l2.101,0.975l2.212,0.863l2.213,0.712l2.25,0.563l2.325,0.413l2.288,0.3l2.362,0.15l2.326,-0.038l2.325,-0.15l2.325,-0.3l2.288,-0.45l2.25,-0.6l2.212,-0.713l2.175,-0.862l2.101,-1.013l2.062,-1.125l1.95,-1.275l1.913,-1.388l1.763,-1.5l1.725,-1.612l1.575,-1.688l1.5,-1.8l1.35,-1.913l1.238,-1.988l1.125,-2.025l0.975,-2.137l0.862,-2.176l0.713,-2.212l0.562,-2.288l0.45,-2.288l0.263,-2.325l0.15,-2.325l-0,-2.325l-0.188,-2.325l-0.3,-2.326l-0.45,-2.287l-0.562,-2.288l-0.75,-2.213l-0.863,-2.175l-1.012,-2.1l-1.125,-2.025l-1.238,-1.988l-1.388,-1.875l-1.5,-1.8l-1.612,-1.688l-3.001,11.139l-0.562,1.912l-0.75,1.875l-0.825,1.801l-0.975,1.762l-1.125,1.65l-1.2,1.575l-1.313,1.501l-1.425,1.425l-1.538,1.275l-1.612,1.2l-1.688,1.088l-1.725,0.937l-1.838,0.825l-1.875,0.675l-1.912,0.563l-1.95,0.45l-0.863,0.075l-0.863,-0.075l-0.825,-0.188l-0.787,-0.337l-0.713,-0.45l-0.637,-0.563l-0.563,-0.675l-0.45,-0.712l-0.3,-0.826l-0.187,-0.825l-0.038,-0.862l0.113,-0.825l0.225,-0.825l0.375,-0.788l0.487,-0.712l0.563,-0.638l0.712,-0.488l1.913,-1.35l1.875,-1.5l1.763,-1.612l1.612,-1.688l1.538,-1.838l1.387,-1.912l1.238,-2.026l1.125,-2.062l1.013,-2.175l0.825,-2.213l0.675,-2.288l2.437,-9.113l-2.175,-0.863l-2.212,-0.675l-2.288,-0.6l-2.288,-0.412l-2.325,-0.263l-2.325,-0.15l-2.325,0.038l-2.325,0.15l-2.325,0.3l-2.288,0.45l-2.288,0.6l-2.212,0.75l-2.138,0.862l-2.138,1.013l-2.025,1.125l-1.95,1.275l-1.912,1.388l-1.763,1.5l-1.725,1.613l-1.575,1.687l-1.463,1.8l-1.387,1.913l-1.238,1.988l-1.088,2.062l-1.012,2.101l-0.825,2.175Zm136.733,-5.138l1.426,-1.013l-4.576,-9.788l-9.3,-0l-0,-7.088l6,-0l0.6,-0.75l0.75,-0.675l0.863,-0.525l0.9,-0.375l0.975,-0.263l0.975,-0.075l1.012,0.075l0.976,0.263l0.9,0.375l0.825,0.525l0.75,0.675l0.637,0.75l6.001,-0l-0,7.088l-6.001,-0l3.338,7.163l1.8,-0.488l1.875,-0.3l1.875,-0.15l1.875,0l17.739,-48.754l-95.744,0l-1.987,7.426l65.516,45.904Z" style="fill:#fff;"/></g></svg>