<?xml version="1.0" encoding="UTF-8" standalone="no"?><!DOCTYPE svg PUBLIC "-//W3C//DTD SVG 1.1//EN" "http://www.w3.org/Graphics/SVG/1.1/DTD/svg11.dtd"><svg width="100%" height="100%" viewBox="0 0 567 733" version="1.1" xmlns="http://www.w3.org/2000/svg" xmlns:xlink="http://www.w3.org/1999/xlink" xml:space="preserve" xmlns:serif="http://www.serif.com/" style="fill-rule:evenodd;clip-rule:evenodd;stroke-linejoin:round;stroke-miterlimit:2;"><g transform="matrix(64.5901,0,0,64.5901,378.426,388.96)"></g><text x="189.923px" y="388.96px" style="font-family:'ArialMT', 'Arial', sans-serif;font-size:64.59px;">sw=62</text><rect id="Bus-Cycle-Right" serif:id="Bus Cycle Right" x="0" y="0" width="566.929" height="732.283" style="fill:none;"/><clipPath id="_clip1"><rect x="0" y="0" width="566.929" height="732.283"/></clipPath><g clip-path="url(#_clip1)"><path d="M566.929,35.433c0,-19.556 -15.877,-35.433 -35.433,-35.433l-496.063,-0c-19.556,-0 -35.433,15.877 -35.433,35.433l0,661.417c0,19.556 15.877,35.433 35.433,35.433l496.063,0c19.556,0 35.433,-15.877 35.433,-35.433l0,-661.417Z"/><path d="M549.213,35.433c-0,-9.778 -7.939,-17.716 -17.717,-17.716l-496.063,-0c-9.778,-0 -17.716,7.938 -17.716,17.716l-0,661.417c-0,9.778 7.938,17.717 17.716,17.717l496.063,-0c9.778,-0 17.717,-7.939 17.717,-17.717l-0,-661.417Z" style="fill:#fff;"/><clipPath id="_clip2"><polygon id="_16sw-Arrow-90--Black.afdesign" serif:id="16sw Arrow 90° Black.afdesign" points="377.953,478.34 377.953,383.852 188.976,383.852 188.976,478.34 377.953,478.34 "/></clipPath><g clip-path="url(#_clip2)"><path d="M188.976,415.381l0,31.52l126.288,-0l-31.339,31.439l47.009,0l47.019,-47.199l-47.019,-47.289l-47.009,-0l31.339,31.529l-126.288,0Z" style="fill:#010001;"/></g><rect id="path1698" x="302.189" y="507.874" width="167.647" height="94.488" style="fill:#fff;"/><path id="path1752" d="M327.018,529.624l-3.08,0.16l-3,0.58l-3.749,1.09l-3.67,1.41l-3.5,1.67l-3.41,1.92l6.33,9.66l2.58,-1.58l2.669,-1.25l2.83,-1l2.92,-0.75l3,-0.421l1.66,-0.082l1.75,0.329l1.58,0.589l0.92,0.58l0.75,0.831l0.5,0.92l0.17,1.079l0,3l-4.17,0.17l-4.08,0.5l-4.08,0.75l-4,1.079l-3.92,1.42l-1.66,1.001l-1.589,1.25l-1.42,1.5l-1.16,1.58l-0.92,1.83l-0.661,1.92l-0.34,2l-0.082,2l0.17,1.999l0.49,1.92l0.759,1.91l1.001,1.75l1.24,1.59l1.42,1.41l1.67,1.171l2.409,1.16l2.59,0.92l2.75,0.589l2.75,0.33l2.75,-0.083l2.66,-0.34l2.67,-0.66l1.42,-0.67l1.33,-0.83l1.08,-1.001l0.92,-1.25l1,1.33l1.25,1.001l1.42,0.75l2.58,1l2.66,0.58l2.75,0.329l4.59,-10.08l-1.09,0l-1.08,-0.159l-1.08,-0.5l-0.839,-0.669l-0.661,-0.92l-0.42,-1.001l-0.17,-1.16l-0,-22.329l-0.161,-1.84l-0.42,-1.83l-0.75,-1.67l-0.92,-1.58l-1.25,-1.5l-1.41,-1.17l-1.59,-1.001l-2.25,-0.99l-2.41,-0.839l-2.92,-0.831l-3.08,-0.42l-2.996,-0.151Zm122.818,-17l0,21.16l-2.16,-1.42l-2.25,-1.16l-2.42,-0.84l-2.41,-0.58l-2.59,-0.25l-2.5,0.094l-2.5,0.33l-2.5,0.66l-2.33,0.92l-2.25,1.25l-2.079,1.42l-2.13,2.04l-1.71,2.21l-1.25,2.37l-1.33,3.46l-0.831,3.33l-0.58,3.42l-0.25,3.42l0.161,3.409l0.42,3.42l0.83,3.33l1.091,3.25l1.24,2.5l1.5,2.25l1.839,2.08l2.081,1.75l2.329,1.42l2.75,1.08l2.92,0.75l2.92,0.34l2.91,-0l2.92,-0.421l2.83,-0.75l2,-0.75l1.75,-1.17l1.58,-1.41l-0,3.25l12.92,-0l-0,-66.159l-12.921,-0.003Zm-61.74,17.746l2.75,0.5l2.41,0.84l2.33,1.159l2.09,1.42l1.91,1.67l1.67,1.91l1.42,2.17l1.079,2.5l0.75,2.58l0.421,2.67l0.16,2.75l0,28.16l-12.91,-0l0,-28.08l-0.079,-1.666l-0.34,-1.67l-0.75,-1.58l-1,-1.34l-1.25,-1.079l-1.75,-0.75l-1.91,-0.33l-1.92,0.083l-1.83,0.329l-1.84,0.75l-1.5,1.001l-1.33,1.25l-1.001,1.5l-0.669,1.59l-0.161,1.66l0,28.329l-12.92,0l0,-47.159l12.92,0l0,3.33l1.91,-1.5l2.09,-1.25l2.16,-0.909l2.34,-0.591l2.33,-0.329l2.42,0.082Zm-53.828,27.323l0,6.75l-0.17,1.25l-0.58,1.17l-0.75,1.001l-1.09,0.75l-1.16,0.42l-2.33,0.33l-2.34,-0l-2.33,-0.33l-1.17,-0.42l-1.001,-0.75l-0.83,-0.92l-0.58,-1.08l-0.34,-1.079l0,-1.171l0.34,-1.17l0.58,-0.911l0.83,-0.84l1.001,-0.58l3.92,-1l2.28,-0.47l1.72,-0.36l4,-0.59Zm105.658,-16.74l1.91,0.251l1.92,0.58l1.67,0.92l1.58,1.16l1.08,1.25l0.839,1.34l0.58,1.5l0.33,1.66l-0,10.169l-0.16,1.25l-0.34,1.25l-0.58,1.08l-0.75,1.079l-1.33,1.42l-1.5,1.171l-1.67,0.83l-1.83,0.58l-1.92,0.25l-1.91,-0.16l-1.839,-0.421l-1.5,-0.58l-1.41,-0.839l-1.171,-1.08l-1,-1.25l-0.75,-1.42l-0.831,-2.5l-0.42,-2.66l-0.251,-2.58l0.171,-2.67l0.409,-2.58l0.75,-2.59l0.75,-1.659l0.84,-1.25l1.16,-1.091l1.59,-1.079l1.75,-0.75l1.91,-0.5l1.923,-0.081Z" style="fill:#010001;fill-rule:nonzero;"/><rect id="path1638" x="97.094" y="507.874" width="69.829" height="94.488" style="fill:#fff;"/><path id="path1640" d="M108.183,512.624l0,66.069l32.41,-0l2.91,-0.33l2.75,-0.58l2.749,-1.079l2.59,-1.34l2.33,-1.67l1.92,-1.91l1.66,-2.17l1.34,-2.41l0.91,-2.59l0.589,-2.66l0.161,-2.75l-0.083,-2.34l-0.34,-2.24l-0.58,-2.25l-0.75,-2.17l-1.169,-1.92l-1.41,-1.75l-1.67,-1.58l-1.83,-1.25l-2,-1l1.75,-1.171l1.58,-1.5l1.25,-1.66l1.09,-1.84l0.74,-1.999l0.5,-2.08l0.17,-2.17l-0.17,-2.16l-0.5,-2.09l-0.83,-2.16l-1.079,-2.17l-1.42,-1.91l-1.58,-1.84l-1.83,-1.5l-2,-1.33l-2.09,-1.08l-2.33,-0.75l-2.33,-0.499l-2.34,-0.17l-31.068,-0.001Zm13.58,12.58l14.99,-0l1.59,0.17l1.5,0.499l1.33,0.831l1.079,1.079l0.84,1.34l0.5,1.5l0.16,1.58l-0.16,1.5l-0.5,1.5l-0.84,1.33l-1.079,1.09l-1.33,0.91l-1.5,0.499l-1.59,0.17l-14.99,0l-0,-13.998Zm-0,24.419l15.66,0l1.58,0.083l1.59,0.5l1.41,0.75l1.25,1.079l1,1.25l0.75,1.42l0.5,1.5l0.17,1.66l-0.17,1.59l-0.5,1.58l-0.75,1.42l-1,1.25l-1.25,1l-1.41,0.75l-1.59,0.5l-1.58,0.159l-15.66,0l-0,-16.491Z" style="fill:#010001;fill-rule:nonzero;"/><rect id="path1666" x="166.922" y="507.874" width="57.575" height="94.488" style="fill:#fff;"/><path id="path1668" d="M173.253,531.456l12.921,0l-12.921,0l12.921,0l-0,28.163l0.159,1.67l0.341,1.66l0.66,1.5l1,1.42l1.34,1.081l1.75,0.749l1.83,0.251l1.92,-0l1.91,-0.41l1.751,-0.671l1.58,-1l1.25,-1.25l1.09,-1.5l0.58,-1.58l0.171,-1.67l-0,-28.413l12.911,0l-0,47.244l-12.911,0l-0,-3.33l-1.841,1.5l-2.08,1.16l-2.25,0.92l-2.25,0.67l-2.41,0.25l-2.421,0l-2.75,-0.5l-2.42,-0.84l-2.25,-1.16l-2.16,-1.42l-1.841,-1.67l-1.75,-1.91l-1.41,-2.171l-1,-2.5l-0.751,-2.58l-0.5,-2.75l-0.17,-2.67l0.001,-28.243Z" style="fill:#010001;fill-rule:nonzero;"/><rect id="path1674" x="224.497" y="507.874" width="48.164" height="94.488" style="fill:#fff;"/><path id="path1676" d="M237.248,564.539l2,1.58l2.161,1.25l2.34,1l2.41,0.671l2.5,0.33l2.25,-0l1.591,-0.581l1.33,-0.92l0.75,-0.749l0.5,-1l0.08,-1.081l-0.25,-1.09l-0.58,-0.91l-0.83,-0.671l-3.25,-1.25l-3.341,-0.67l-3,-0.5l-4.08,-1l-2,-0.66l-1.831,-1l-1.67,-1.25l-1.5,-1.421l-1.25,-1.58l-1.08,-1.75l-0.67,-2.09l-0.41,-2.16l-0,-2.17l0.25,-2.16l0.58,-2.171l0.92,-1.92l1.25,-1.83l1.411,-1.58l1.59,-1.42l1.83,-1.171l1.91,-0.91l2.09,-0.59l3,-0.66l3.001,-0.34l3.08,-0l3.08,0.249l3.09,0.59l2.501,0.75l2.41,1l2.34,1.33l2.24,1.42l2,1.75l-7.99,8.491l-2.25,-1.83l-2.501,-1.5l-2.67,-1.16l-1.5,-0.42l-1.58,-0.249l-1.59,-0l-1.66,0.42l-1.501,0.749l-1.34,1l-0.66,0.83l-0.34,0.92l0.09,1.081l0.33,0.91l0.58,0.841l1,0.58l5.501,1.081l5,0.67l1.92,0.33l0.081,-0l1.92,0.67l1.83,0.83l1.84,1.09l1.66,1.41l1.421,1.59l1.159,1.75l0.841,1.911l0.58,2.09l0.33,2.08l-0.083,2.17l-0.329,2.08l-0.671,2.08l-1.08,2.091l-1.34,1.91l-1.58,1.75l-1.831,1.5l-2,1.17l-3.25,1.001l-3.33,0.659l-3.421,0.341l-3.33,-0l-3.42,-0.341l-3.331,-0.659l-3,-0.92l-2.92,-1.25l-2.66,-1.58l-2.501,-1.841l-2.34,-2.16l9.421,-8.67l1.752,1.839Z" style="fill:#010001;fill-rule:nonzero;"/><path d="M324.805,236.208l0.925,0.05l0.9,0.125l0.875,0.225l0.85,0.3l0.825,0.375l0.801,0.475l0.725,0.525l0.7,0.6l0.625,0.675l0.55,0.725l0.475,0.775l0.4,0.825l0.325,0.85l0.25,0.876l0.15,0.899l0.075,0.901l-0.025,0.925l-0.1,0.9l-0.2,0.875l-0.275,0.875l-0.375,0.85l-0.426,0.775l-0.524,0.775l-0.575,0.7l-0.651,0.625l-0.725,0.575l-0.75,0.5l-0.45,0.325l-0.375,0.4l-0.3,0.45l-0.199,0.501l-0.101,0.55l-0.025,0.55l0.101,0.525l7.675,28.627l1.75,-0.6l1.775,-0.5l1.826,-0.425l1.825,-0.325l1.85,-0.25l1.85,-0.125l1.85,-0.025l1.85,0.05l1.85,0.175l1.85,0.25l1.825,0.35l1.801,0.45l1.775,0.525l1.75,0.65l1.7,0.7l1.675,0.825l1.626,0.9l1.574,0.975l1.526,1.076l1.45,1.124l1.4,1.226l1.35,1.275l1.25,1.375l1.2,1.425l1.125,1.475l1.051,1.525l0.949,1.6l0.876,1.625l0.774,1.701l0.7,1.725l0.601,1.75l0.524,1.775l0.426,1.8l0.325,1.85l0.225,1.825l0.125,1.851l0.025,1.85l-0.05,1.875l-0.175,1.85l-0.25,1.825l-0.35,1.825l-0.45,1.8l-0.55,1.775l-0.625,1.75l-0.725,1.701l-0.826,1.675l-0.899,1.625l-0.976,1.575l-1.075,1.525l-1.125,1.45l-1.225,1.401l-1.3,1.35l-1.35,1.25l-1.425,1.2l-1.476,1.125l-1.549,1.025l-1.576,0.975l-1.65,0.85l-1.675,0.8l-1.725,0.7l-1.75,0.6l-1.8,0.5l-1.801,0.425l-1.825,0.326l-1.85,0.225l-1.85,0.124l-1.85,0.025l-1.875,-0.075l-1.825,-0.149l-1.85,-0.276l-1.825,-0.349l-1.801,-0.451l-1.775,-0.55l-1.75,-0.625l-1.7,-0.725l-1.675,-0.825l-1.626,-0.9l-1.574,-0.975l-1.501,-1.075l-1.475,-1.15l-1.4,-1.2l-1.325,-1.301l-1.275,-1.349l-1.175,-1.425l-1.125,-1.501l-1.026,-1.525l-0.974,-1.6l-0.851,-1.65l-0.8,-1.675l-0.675,-1.726l-0.6,-1.75l-0.525,-1.8l-0.4,-1.8l-0.325,-1.825l-0.225,-1.85l-0.125,-1.85l-0.025,-1.85l0.05,-1.85l0.175,-1.851l0.275,-1.85l0.35,-1.825l0.45,-1.8l0.55,-1.775l0.625,-1.725l0.75,-1.725l0.801,-1.651l0.899,-1.625l1.001,-1.575l1.075,-1.525l1.125,-1.45l1.225,-1.401l1.3,-1.324l1.35,-1.275l1.425,-1.176l1.5,-1.125l-1.15,-4.275l-41.053,28.727l0.325,1.2l0.225,1.2l0.125,1.225l0,1.225l-0.075,1.25l-0.2,1.201l-0.275,1.2l-0.4,1.175l-0.475,1.15l-0.575,1.075l-0.675,1.05l-0.75,0.975l-0.826,0.9l-0.899,0.85l-0.976,0.751l-1.025,0.675l-1.1,0.6l-1.125,0.5l-1.175,0.399l-1.175,0.301l-1.225,0.2l-1.225,0.1l-1.251,0l-1.225,-0.125l-1.2,-0.2l-1.2,-0.3l-2.225,4.775l4,0l0,4.725l-4,0l-0.425,0.501l-0.475,0.45l-0.575,0.35l-0.6,0.25l-0.65,0.15l-0.65,0.074l-0.675,-0.074l-0.65,-0.15l-0.6,-0.25l-0.55,-0.35l-0.5,-0.45l-0.426,-0.501l-3.999,0l-0,-4.725l6.2,0l3.05,-6.526l-1.025,-0.749l-0.975,-0.8l-0.875,-0.901l-0.825,-0.975l-0.725,-1.049l-0.625,-1.101l-0.525,-1.15l-0.45,-1.175l-0.326,-1.225l-3.475,-0l-0.2,1.825l-0.325,1.825l-0.399,1.825l-0.501,1.776l-0.6,1.75l-0.675,1.725l-0.775,1.675l-0.875,1.65l-0.95,1.575l-1.025,1.551l-1.1,1.474l-1.2,1.426l-1.25,1.375l-1.326,1.3l-1.374,1.225l-1.476,1.125l-1.5,1.075l-1.575,1l-1.6,0.9l-1.676,0.825l-1.699,0.726l-1.725,0.65l-1.776,0.55l-1.8,0.475l-1.8,0.349l-1.85,0.276l-1.826,0.175l-1.85,0.075l-1.85,-0.025l-1.85,-0.125l-1.85,-0.201l-1.825,-0.324l-1.8,-0.401l-1.8,-0.5l-1.75,-0.575l-1.726,-0.7l-1.674,-0.75l-1.65,-0.875l-1.601,-0.925l-1.525,-1.025l-1.501,-1.1l-1.425,-1.2l-1.374,-1.25l-1.276,-1.325l-1.225,-1.375l-1.175,-1.451l-1.075,-1.524l-0.974,-1.551l-0.926,-1.625l-0.825,-1.65l-0.725,-1.7l-0.65,-1.725l-0.55,-1.775l-0.476,-1.8l-0.374,-1.801l-0.275,-1.825l-0.175,-1.85l-0.075,-1.85l0.025,-1.851l0.1,-1.85l0.225,-1.85l0.3,-1.825l0.399,-1.8l0.476,-1.8l0.6,-1.75l0.675,-1.726l0.775,-1.675l0.851,-1.65l0.924,-1.6l1.026,-1.55l1.099,-1.475l1.176,-1.45l1.25,-1.35l1.324,-1.3l1.376,-1.225l1.45,-1.175l1.525,-1.076l1.55,-1l1.6,-0.9l1.675,-0.825l1.701,-0.75l1.725,-0.65l1.775,-0.575l1.775,-0.45l1.825,-0.375l1.825,-0.275l1.85,-0.2l1.85,-0.075l1.851,-0l1.85,0.125l1.85,0.2l1.825,0.3l1.8,0.4l1.776,0.475l1.775,0.6l1.724,0.675l13.977,-24.227l-2.726,-7.501l-0.999,-0.125l-0.975,-0.224l-0.975,-0.326l-0.926,-0.4l-0.874,-0.5l-0.851,-0.575l-0.775,-0.65l-0.7,-0.725l-0.65,-0.8l-0.55,-0.85l-0.475,-0.875l-0.4,-0.95l-0.276,-0.975l-0.049,-0.3l0.049,-0.3l0.126,-0.276l0.175,-0.249l0.25,-0.175l0.275,-0.126l0.3,-0.05l30.552,0l0.5,0.05l0.5,0.126l0.45,0.225l0.426,0.275l0.349,0.35l0.301,0.425l0.224,0.45l0.15,0.5l0.05,0.5l-0.025,0.5l-0.125,0.5l-0.2,0.45l-0.275,0.425l-0.35,0.375l-0.4,0.3l-0.45,0.25l-0.5,0.15l-13.651,3.025l3.226,8.851l64.68,0l-1.426,-5.3l-0.175,-0.875l-0.074,-0.851l-0,-0.874l0.074,-0.876l0.201,-0.85l0.275,-0.85l0.35,-0.775l0.449,-0.775l0.526,-0.7l0.6,-0.625l1.375,-1.1l0.325,-0.25l0.25,-0.325l0.175,-0.375l0.075,-0.425l-0.025,-0.4l-0.125,-0.4l-0.2,-0.375l-0.275,-0.3l-0.35,-0.225l-0.4,-0.151l-0.4,-0.05l-13.576,0l-0,-8.85l16.526,-0Zm23.002,57.88l-1.55,0.1l-1.551,0.175l-1.524,0.275l-1.526,0.4l-1.474,0.45l-1.451,0.575l1.625,6.075l0.451,1.526l0.55,1.474l0.675,1.451l0.749,1.375l0.826,1.35l0.925,1.275l1.025,1.225l1.075,1.125l1.175,1.075l1.25,1l1.275,0.9l0.475,0.325l0.375,0.426l0.325,0.475l0.25,0.524l0.15,0.55l0.075,0.55l-0.025,0.576l-0.125,0.55l-0.2,0.55l-0.3,0.475l-0.375,0.45l-0.425,0.375l-0.475,0.3l-0.525,0.225l-0.55,0.125l-0.575,0.05l-0.575,-0.05l-1.3,-0.3l-1.276,-0.375l-1.25,-0.45l-1.225,-0.55l-1.15,-0.625l-1.125,-0.726l-1.075,-0.799l-1.025,-0.85l-0.95,-0.95l-0.875,-1.001l-0.8,-1.05l-0.75,-1.1l-0.65,-1.175l-0.55,-1.2l-0.5,-1.25l-0.375,-1.275l-2.001,-7.426l-1.075,1.126l-0.999,1.2l-0.926,1.25l-0.825,1.325l-0.75,1.35l-0.675,1.4l-0.575,1.45l-0.5,1.475l-0.375,1.525l-0.3,1.526l-0.2,1.549l-0.125,1.551l-0,1.55l0.1,1.55l0.175,1.55l0.3,1.525l0.375,1.525l0.475,1.475l0.575,1.451l0.65,1.424l0.75,1.351l0.825,1.325l0.9,1.275l1,1.2l1.051,1.125l1.15,1.075l1.175,1l1.275,0.926l1.3,0.849l1.375,0.751l1.4,0.675l1.45,0.575l1.476,0.475l1.499,0.4l1.526,0.3l1.55,0.2l1.55,0.1l1.55,0.025l1.575,-0.1l1.525,-0.2l1.55,-0.275l1.5,-0.375l1.476,-0.475l1.475,-0.575l1.4,-0.65l1.375,-0.751l1.325,-0.825l1.25,-0.9l1.2,-1l1.15,-1.05l1.076,-1.125l0.999,-1.2l0.926,-1.25l0.824,-1.325l0.776,-1.35l0.65,-1.401l0.6,-1.449l0.475,-1.476l0.4,-1.525l0.3,-1.525l0.2,-1.525l0.1,-1.575l0.025,-1.551l-0.1,-1.549l-0.175,-1.551l-0.3,-1.525l-0.375,-1.525l-0.475,-1.475l-0.55,-1.45l-0.675,-1.4l-0.725,-1.375l-0.826,-1.326l-0.924,-1.275l-0.976,-1.2l-1.05,-1.125l-1.15,-1.075l-1.175,-1l-1.275,-0.925l-1.3,-0.85l-1.35,-0.75l-1.425,-0.675l-1.425,-0.575l-1.475,-0.5l-1.526,-0.4l-1.525,-0.301l-1.55,-0.199l-1.55,-0.1l-1.55,-0.025Zm-128.611,-0l-1.55,-0l-1.575,0.125l-1.55,0.199l-1.525,0.301l-1.526,0.4l-1.499,0.475l-1.451,0.6l-1.4,0.675l-1.375,0.75l-1.325,0.85l-1.25,0.925l-1.2,1l-1.125,1.075l-1.075,1.15l-0.975,1.225l-0.926,1.275l-0.824,1.326l-0.75,1.375l-0.65,1.425l-0.55,1.475l-0.476,1.475l-0.375,1.526l-0.275,1.549l-0.2,1.551l-0.074,1.55l0.025,1.575l0.125,1.575l0.199,1.55l0.325,1.525l0.4,1.5l0.5,1.5l0.6,1.451l0.675,1.4l0.776,1.35l0.85,1.325l0.95,1.25l1.025,1.2l1.075,1.125l1.15,1.05l1.226,0.976l1.274,0.899l1.351,0.826l1.375,0.725l1.424,0.65l1.476,0.55l1.5,0.45l1.525,0.374l1.55,0.251l1.55,0.175l1.55,0.074l1.575,-0.025l1.551,-0.124l1.55,-0.25l1.55,-0.3l1.5,-0.426l1.475,-0.524l1.45,-0.601l1.4,-0.7l1.35,-0.775l1.3,-0.875l1.25,-0.95l1.201,-1.025l1.1,-1.1l1.05,-1.15l0.975,-1.225l0.9,-1.3l0.8,-1.35l0.725,-1.375l0.625,-1.451l0.551,-1.449l0.449,-1.501l0.35,-1.525l0.25,-1.55l-25.952,-0l-0.575,-0.05l-0.55,-0.15l-0.499,-0.25l-0.476,-0.325l-0.4,-0.4l-0.324,-0.45l-0.251,-0.525l-0.125,-0.55l-0.05,-0.55l0.05,-0.575l0.125,-0.55l0.251,-0.5l6.275,-10.864l6.275,-10.863l-1.5,-0.475l-1.525,-0.4l-1.525,-0.275l-1.55,-0.2l-1.576,-0.1Zm52.455,15.351l-0.925,0.05l-0.926,0.125l-0.899,0.225l-0.876,0.325l-0.825,0.4l-0.8,0.475l-0.75,0.55l-0.675,0.625l-0.625,0.675l-0.55,0.75l-0.475,0.8l-0.4,0.825l-0.325,0.876l-0.225,0.899l-0.125,0.926l-0.05,0.925l0.05,0.925l0.125,0.925l0.225,0.9l0.325,0.875l0.4,0.825l0.475,0.8l0.55,0.75l0.625,0.676l0.675,0.625l0.75,0.55l0.8,0.474l0.825,0.4l0.876,0.326l0.899,0.224l0.926,0.125l0.925,0.05l0.925,-0.05l0.925,-0.125l0.9,-0.224l0.875,-0.326l0.825,-0.4l0.8,-0.474l0.75,-0.55l0.675,-0.625l0.625,-0.676l0.551,-0.75l0.474,-0.8l0.4,-0.825l0.326,-0.875l0.224,-0.9l0.125,-0.925l0.05,-0.925l-0.05,-0.925l-0.125,-0.926l-0.224,-0.899l-0.326,-0.876l-0.4,-0.825l-0.474,-0.8l-0.551,-0.75l-0.625,-0.675l-0.675,-0.625l-0.75,-0.55l-0.8,-0.475l-0.825,-0.4l-0.875,-0.325l-0.9,-0.225l-0.925,-0.125l-0.925,-0.05Zm-37.103,-9.476l-9.051,15.677l17.602,-0l-0.251,-1.501l-0.349,-1.475l-0.425,-1.475l-0.501,-1.425l-0.6,-1.4l-0.7,-1.35l-0.775,-1.326l-0.849,-1.25l-0.926,-1.225l-1,-1.15l-1.05,-1.075l-1.125,-1.025Zm15.651,-27.102l-10.275,17.801l1.424,1.151l1.375,1.225l1.3,1.275l1.25,1.35l1.176,1.425l1.075,1.475l1.025,1.55l0.925,1.575l0.85,1.625l0.775,1.676l0.675,1.7l0.575,1.75l0.501,1.775l0.399,1.8l0.325,1.8l0.201,1.826l3.474,-0l0.326,-1.25l0.45,-1.201l0.55,-1.15l0.65,-1.1l0.725,-1.05l0.825,-1l0.925,-0.9l0.975,-0.825l-12.476,-34.303Zm72.806,-1.225l-63.83,-0l11.825,32.503l1.251,-0l1.25,0.1l1.25,0.199l1.2,0.326l2.225,-4.776l-4,0l-0,-4.725l4,-0l0.425,-0.5l0.5,-0.45l0.55,-0.35l0.6,-0.25l0.65,-0.175l0.675,-0.05l0.65,0.05l0.65,0.175l0.6,0.25l0.575,0.35l0.501,0.45l0.4,0.5l4,-0l0,4.725l-6.201,0l-3.05,6.526l0.951,0.675l43.678,-30.603l-1.325,-4.95Z"/><rect id="path1750" x="404.049" y="602.358" width="57.159" height="94.488" style="fill:#fff;"/><path id="path17521" serif:id="path1752" d="M440.628,643.437l-0.34,-1.669l-0.75,-1.58l-1,-1.34l-1.25,-1.08l-1.75,-0.75l-1.91,-0.329l-1.92,0.082l-1.83,0.33l-1.84,0.75l-1.5,1l-1.33,1.25l-1,1.5l-0.67,1.59l-0.161,1.66l0,28.329l-12.919,0l-0,-47.159l12.919,0l0,3.33l1.91,-1.5l2.09,-1.25l2.16,-0.909l2.34,-0.591l2.33,-0.329l2.42,0.082l2.75,0.5l2.41,0.84l2.33,1.16l2.09,1.42l1.91,1.67l1.67,1.91l1.42,2.17l1.079,2.499l0.75,2.58l0.421,2.67l0.161,2.75l-0,28.16l-12.91,-0l12.91,-0l-12.91,-0l-0,-28.08l-0.08,-1.666Z" style="fill:#010001;fill-rule:nonzero;"/><rect id="path1806" x="461.208" y="602.362" width="52.909" height="94.488" style="fill:#fff;"/><path id="path1808" d="M486.708,624.772l-2.42,0.17l-2.41,0.41l-2.34,0.75l-2.25,1.09l-2.08,1.25l-2.25,1.66l-2.08,2l-1.75,2.25l-1.42,2.42l-1.171,3l-0.83,3.17l-0.499,3.159l-0.171,3.25l0.251,3.25l0.59,3.17l0.91,3.08l1.169,3l1.08,2.17l1.42,2l1.5,1.83l1.83,1.67l1.92,1.41l2.08,1.25l2.25,0.92l2.339,0.67l2.99,0.58l3.09,0.25l3.08,-0.083l3.08,-0.34l3,-0.66l2.34,-0.84l2.16,-1.079l2,-1.42l1.83,-1.67l1.67,-1.83l-8,-8.08l-1.83,1.67l-2.08,1.33l-2.25,1l-2.17,0.58l-2.17,0.17l-2.16,-0.082l-2.17,-0.421l-2.08,-0.75l-1.42,-0.92l-1.249,-1.16l-1.001,-1.34l-0.75,-1.5l-0.41,-1.66l-0.17,-1.67l31.5,0l-0.17,-3.92l-0.421,-3.91l-0.83,-3.83l-1.171,-3.75l-1.079,-2.499l-1.42,-2.25l-1.66,-2.17l-2,-1.83l-2.17,-1.59l-2.08,-1.25l-2.25,-0.91l-2.42,-0.669l-2.42,-0.421l-2.407,-0.075Zm-0.251,10.75l1.66,-0l1.67,0.329l1.58,0.589l1.42,0.831l1.33,1.079l1.09,1.25l0.83,1.42l0.58,1.58l0.251,1.67l-19.16,0l0.25,-1.67l0.58,-1.58l0.84,-1.42l1.08,-1.25l1.33,-1.079l1.42,-0.831l1.58,-0.589l1.669,-0.329Z" style="fill:#010001;fill-rule:nonzero;"/><rect id="path1742" x="319.971" y="602.362" width="30.749" height="94.488" style="fill:#fff;"/><path id="path1744" d="M346.89,661.601l-2.5,0.33l-2.5,0.094l-0.92,-0.094l-0.75,-0.41l-0.66,-0.67l-0.421,-0.75l-0.17,-0.92l0,-52.069l-12.909,0l-0,57.319l0.16,1.75l0.5,1.67l0.75,1.58l1,1.5l1.25,1.25l1.42,1l1.67,0.67l1.66,0.499l1.75,0.17l4.08,-0.34l4,-0.499l4,-0.75l-1.41,-11.33Z" style="fill:#010001;fill-rule:nonzero;"/><rect id="path16981" serif:id="path1698" x="350.72" y="602.358" width="53.329" height="94.488" style="fill:#fff;"/><path id="path1700" d="M375.55,624.108l-3.08,0.16l-3,0.58l-3.75,1.09l-3.67,1.41l-3.5,1.67l-3.41,1.92l6.33,9.66l2.58,-1.58l2.67,-1.25l2.83,-1l2.92,-0.75l3,-0.421l1.659,-0.082l1.751,0.329l1.579,0.59l0.921,0.58l0.75,0.83l0.499,0.92l0.17,1.079l0,3l-4.17,0.171l-4.08,0.499l-4.08,0.75l-3.999,1.08l-3.92,1.42l-1.66,1l-1.59,1.25l-1.42,1.5l-1.16,1.58l-0.92,1.83l-0.66,1.92l-0.341,2l-0.082,2l0.17,2l0.49,1.92l0.759,1.91l1.001,1.75l1.24,1.59l1.42,1.41l1.67,1.17l2.41,1.16l2.59,0.92l2.75,0.589l2.75,0.33l2.749,-0.083l2.66,-0.34l2.67,-0.66l1.42,-0.67l1.33,-0.83l1.08,-1.001l0.92,-1.25l1,1.33l1.25,1.001l1.42,0.75l2.58,1l2.66,0.58l2.75,0.33l4.59,-10.08l-1.09,-0l-1.08,-0.16l-1.079,-0.499l-0.84,-0.67l-0.66,-0.92l-0.421,-1l-0.17,-1.16l0,-22.33l-0.16,-1.84l-0.421,-1.83l-0.75,-1.67l-0.92,-1.58l-1.25,-1.5l-1.41,-1.17l-1.59,-1.001l-2.25,-0.989l-2.41,-0.84l-2.92,-0.83l-3.08,-0.421l-2.995,-0.151Zm7.249,28.069l0,6.75l-0.17,1.25l-0.58,1.171l-0.75,1l-1.09,0.75l-1.16,0.42l-2.33,0.33l-2.34,-0l-2.329,-0.33l-1.171,-0.42l-1,-0.75l-0.831,-0.92l-0.58,-1.08l-0.34,-1.079l0,-1.171l0.34,-1.17l0.58,-0.911l0.831,-0.839l1,-0.58l3.92,-1.001l2.28,-0.47l1.72,-0.36l4,-0.59Z" style="fill:#010001;fill-rule:nonzero;"/><rect id="path18061" serif:id="path1806" x="237.534" y="602.358" width="52.909" height="94.488" style="fill:#fff;"/><path id="path18081" serif:id="path1808" d="M263.034,624.768l-2.42,0.17l-2.41,0.41l-2.34,0.75l-2.25,1.09l-2.08,1.25l-2.25,1.66l-2.08,2l-1.75,2.25l-1.42,2.42l-1.17,3l-0.831,3.17l-0.499,3.16l-0.17,3.249l0.25,3.25l0.59,3.17l0.91,3.08l1.169,3l1.08,2.17l1.42,2l1.5,1.83l1.83,1.67l1.92,1.41l2.08,1.25l2.25,0.92l2.339,0.67l2.99,0.58l3.09,0.25l3.08,-0.083l3.08,-0.34l3,-0.66l2.34,-0.84l2.16,-1.079l2,-1.42l1.83,-1.67l1.67,-1.83l-8,-8.08l-1.83,1.67l-2.08,1.33l-2.25,1l-2.17,0.58l-2.17,0.17l-2.16,-0.082l-2.169,-0.421l-2.081,-0.75l-1.419,-0.92l-1.25,-1.16l-1.001,-1.34l-0.75,-1.5l-0.41,-1.66l-0.17,-1.67l31.5,0l-0.17,-3.92l-0.421,-3.91l-0.83,-3.829l-1.171,-3.75l-1.079,-2.5l-1.42,-2.25l-1.66,-2.17l-2,-1.83l-2.17,-1.59l-2.08,-1.25l-2.25,-0.91l-2.42,-0.669l-2.42,-0.421l-2.407,-0.075Zm-0.251,10.75l1.66,-0l1.67,0.329l1.58,0.589l1.42,0.831l1.33,1.079l1.09,1.25l0.83,1.42l0.58,1.58l0.251,1.67l-19.16,0l0.251,-1.67l0.579,-1.58l0.84,-1.42l1.08,-1.25l1.33,-1.079l1.42,-0.831l1.58,-0.589l1.669,-0.329Z" style="fill:#010001;fill-rule:nonzero;"/><rect id="path17421" serif:id="path1742" x="206.785" y="602.358" width="30.749" height="94.488" style="fill:#fff;"/><path id="path17441" serif:id="path1744" d="M233.704,661.597l-2.5,0.33l-2.5,0.094l-0.92,-0.094l-0.75,-0.41l-0.66,-0.67l-0.421,-0.75l-0.17,-0.92l0,-52.069l-12.909,0l-0,57.319l0.16,1.75l0.5,1.67l0.75,1.58l1,1.5l1.25,1.25l1.42,1l1.67,0.67l1.66,0.499l1.75,0.171l4.08,-0.341l4,-0.499l4,-0.75l-1.41,-11.33Z" style="fill:#010001;fill-rule:nonzero;"/><rect id="path1798" x="155.296" y="602.358" width="51.489" height="94.488" style="fill:#fff;"/><path id="path1800" d="M172.705,656.427l0.67,1.5l1.17,1.84l1.5,1.66l1.75,1.25l2.08,0.84l1.83,0.25l1.92,-0.25l2,-0.84l1.75,-1.25l1.5,-1.66l1.25,-1.84l1,-2.66l12,4.5l-0.25,0.5l-1.171,2.75l-1.5,2.5l-1.75,2.25l-2.079,2.08l-2.34,1.75l-2.33,1.25l-2.33,0.92l-2.5,0.75l-2.59,0.409l-2.58,0.171l-2.58,-0.171l-2.5,-0.409l-2.5,-0.75l-2.42,-0.92l-2.25,-1.25l-2.33,-1.75l-2.08,-2.08l-1.84,-2.25l-1.5,-2.5l-1.16,-2.75l-0.17,-0.5l-0.83,-3.34l-0.5,-3.41l-0.17,-3.42l0.17,-3.41l0.5,-3.339l0.83,-3.33l0.17,-0.58l1.16,-2.67l1.5,-2.5l1.84,-2.33l2.08,-2l2.33,-1.84l2.25,-1.16l2.42,-1.001l2.5,-0.669l2.5,-0.5l2.58,-0.17l2.58,0.17l2.59,0.5l2.5,0.669l2.33,1.001l2.33,1.16l2.34,1.84l2.079,2l1.75,2.33l1.5,2.5l1.171,2.67l0.25,0.58l-12,4.419l-1,-2.669l-1.25,-1.83l-1.5,-1.59l-1.75,-1.25l-2,-0.831l-1.92,-0.25l-1.83,0.25l-2.08,0.831l-1.75,1.25l-1.5,1.59l-1.17,1.83l-0.67,1.58l-0.499,1.589l-0.251,2.58l-0.16,2.58l0.16,2.67l0.251,2.58l0.499,1.58Z" style="fill:#010001;fill-rule:nonzero;"/><rect id="path17981" serif:id="path1798" x="52.812" y="602.358" width="51.489" height="94.488" style="fill:#fff;"/><path id="path18001" serif:id="path1800" d="M70.222,656.427l0.669,1.5l1.171,1.84l1.5,1.66l1.75,1.25l2.08,0.84l1.83,0.25l1.92,-0.25l2,-0.84l1.75,-1.25l1.5,-1.66l1.25,-1.84l1,-2.66l12,4.5l-0.251,0.5l-1.17,2.75l-1.5,2.5l-1.75,2.25l-2.08,2.08l-2.34,1.75l-2.33,1.25l-2.33,0.92l-2.5,0.75l-2.59,0.409l-2.58,0.171l-2.58,-0.171l-2.5,-0.409l-2.5,-0.75l-2.42,-0.92l-2.25,-1.25l-2.33,-1.75l-2.079,-2.08l-1.84,-2.25l-1.5,-2.5l-1.16,-2.75l-0.17,-0.5l-0.831,-3.34l-0.499,-3.41l-0.17,-3.42l0.17,-3.41l0.499,-3.339l0.831,-3.33l0.17,-0.58l1.16,-2.67l1.5,-2.5l1.84,-2.33l2.079,-2l2.33,-1.84l2.25,-1.16l2.42,-1.001l2.5,-0.669l2.5,-0.5l2.58,-0.17l2.58,0.17l2.59,0.5l2.5,0.669l2.33,1.001l2.33,1.16l2.34,1.84l2.08,2l1.75,2.33l1.5,2.5l1.17,2.67l0.251,0.58l-12,4.419l-1,-2.669l-1.25,-1.83l-1.5,-1.59l-1.75,-1.25l-2,-0.831l-1.92,-0.25l-1.83,0.25l-2.08,0.831l-1.75,1.25l-1.5,1.59l-1.171,1.83l-0.669,1.58l-0.5,1.589l-0.25,2.58l-0.161,2.58l0.161,2.67l0.25,2.58l0.5,1.58Z" style="fill:#010001;fill-rule:nonzero;"/><rect id="path1762" x="104.301" y="602.358" width="50.995" height="94.488" style="fill:#fff;"/><path id="path1764" d="M118.212,688.516l-4.58,-0.41l-4.5,-0.75l1.58,-11.341l6.67,0.92l1.081,-0.083l1,-0.34l1,-0.581l0.751,-0.749l0.5,-0.92l0.34,-1.081l0,-1.079l-0.17,-1.09l-16.161,-45.074l12.991,0l10.251,28.582l10.251,-28.582l13.081,0l-20.082,55.995l-0.751,1.58l-1,1.5l-1.25,1.25l-1.41,1l-1.59,0.75l-1.75,0.42l-1.75,0.17l-4.502,-0.087Z" style="fill:#010001;fill-rule:nonzero;"/><rect id="S24-BUS-RIGHT-B" serif:id="S24 BUS RIGHT B" x="47.244" y="47.244" width="472.441" height="153.543" style="fill:none;"/><g id="S24-BUS-RIGHT-B1" serif:id="S24 BUS RIGHT B"><path d="M390.246,172.592c0.094,-0.375 0.344,-1.511 0.562,-2.25c0.219,-0.74 0.461,-1.474 0.75,-2.189c0.292,-0.719 0.636,-1.448 1.001,-2.126c0.359,-0.667 0.764,-1.309 1.187,-1.938c0.427,-0.636 0.887,-1.273 1.375,-1.875c0.49,-0.604 1.011,-1.199 1.563,-1.751c0.552,-0.552 1.155,-1.073 1.749,-1.562c0.585,-0.483 1.183,-0.953 1.813,-1.376c0.635,-0.428 1.315,-0.825 2,-1.188c0.688,-0.364 1.406,-0.708 2.125,-1c0.715,-0.29 1.449,-0.532 2.188,-0.751c0.739,-0.219 1.499,-0.406 2.249,-0.562c0.745,-0.155 1.493,-0.303 2.25,-0.375c0.761,-0.073 1.542,-0.063 2.313,-0.063c0.771,0 1.545,-0.01 2.313,0.063c0.771,0.073 1.552,0.219 2.313,0.375c0.757,0.155 1.509,0.343 2.249,0.562c0.739,0.219 1.473,0.461 2.187,0.751c0.719,0.292 1.449,0.636 2.126,1c0.667,0.359 1.309,0.765 1.937,1.188c0.636,0.427 1.273,0.887 1.876,1.376c0.604,0.489 1.198,1.01 1.75,1.562c0.552,0.552 1.072,1.147 1.561,1.751c0.488,0.602 0.948,1.239 1.375,1.875c0.423,0.629 0.829,1.271 1.188,1.938c0.365,0.678 0.709,1.407 1,2.126c0.29,0.715 0.55,1.521 0.75,2.189c0.18,0.597 0.361,1.441 0.454,1.816c0.037,0.144 0.083,0.287 0.109,0.434c0.08,0.457 0.302,1.542 0.375,2.313c0.073,0.768 0.062,1.542 0.062,2.313c0,0.771 0.011,1.552 -0.062,2.313c-0.073,0.757 -0.22,1.506 -0.375,2.251c-0.156,0.75 -0.344,1.511 -0.563,2.251c-0.218,0.739 -0.46,1.473 -0.75,2.188c-0.291,0.719 -0.635,1.437 -1,2.125c-0.363,0.685 -0.76,1.365 -1.188,2.001c-0.423,0.63 -0.892,1.228 -1.375,1.813c-0.489,0.594 -1.009,1.198 -1.561,1.75c-0.552,0.552 -1.146,1.074 -1.75,1.564c-0.603,0.488 -1.24,0.947 -1.876,1.375c-0.628,0.422 -1.27,0.828 -1.937,1.187c-0.677,0.365 -1.407,0.709 -2.126,1.001c-0.714,0.29 -1.448,0.531 -2.187,0.75c-0.74,0.219 -1.492,0.407 -2.249,0.562c-0.761,0.157 -1.542,0.302 -2.313,0.375c-0.768,0.073 -1.542,0.063 -2.313,0.063c-0.771,-0 -1.552,0.01 -2.313,-0.063c-0.757,-0.072 -1.505,-0.219 -2.25,-0.375c-0.75,-0.156 -1.51,-0.343 -2.249,-0.562c-0.739,-0.219 -1.474,-0.46 -2.188,-0.75c-0.719,-0.292 -1.437,-0.636 -2.125,-1.001c-0.685,-0.363 -1.365,-0.76 -2,-1.187c-0.63,-0.423 -1.228,-0.893 -1.813,-1.375c-0.594,-0.49 -1.197,-1.012 -1.749,-1.564c-0.552,-0.552 -1.073,-1.156 -1.563,-1.75c-0.482,-0.585 -0.952,-1.183 -1.375,-1.813c-0.427,-0.636 -0.824,-1.316 -1.187,-2.001c-0.365,-0.688 -0.709,-1.406 -1.001,-2.125c-0.29,-0.715 -0.531,-1.449 -0.75,-2.188c-0.218,-0.74 -0.406,-1.501 -0.562,-2.251c-0.155,-0.745 -0.292,-1.495 -0.375,-2.251c-0.084,-0.761 -0.125,-1.542 -0.125,-2.313c-0,-0.771 0.042,-1.545 0.125,-2.313c0.083,-0.771 0.312,-1.928 0.375,-2.313Zm-236.189,-0c0.094,-0.375 0.344,-1.511 0.563,-2.25c0.218,-0.74 0.46,-1.474 0.75,-2.189c0.291,-0.719 0.635,-1.448 1,-2.126c0.359,-0.667 0.765,-1.309 1.187,-1.938c0.428,-0.636 0.888,-1.273 1.376,-1.875c0.489,-0.604 1.01,-1.199 1.562,-1.751c0.552,-0.552 1.156,-1.073 1.749,-1.562c0.586,-0.483 1.184,-0.953 1.813,-1.376c0.636,-0.428 1.315,-0.825 2,-1.188c0.688,-0.364 1.407,-0.708 2.125,-1c0.715,-0.29 1.449,-0.532 2.188,-0.751c0.74,-0.219 1.499,-0.406 2.249,-0.562c0.745,-0.155 1.494,-0.303 2.251,-0.375c0.76,-0.073 1.541,-0.063 2.312,-0.063c0.771,0 1.545,-0.01 2.313,0.063c0.771,0.073 1.553,0.219 2.313,0.375c0.757,0.155 1.51,0.343 2.249,0.562c0.739,0.219 1.473,0.461 2.188,0.751c0.719,0.292 1.448,0.636 2.125,1c0.667,0.359 1.309,0.765 1.938,1.188c0.635,0.427 1.273,0.887 1.875,1.376c0.604,0.489 1.198,1.01 1.75,1.562c0.552,0.552 1.072,1.147 1.562,1.751c0.487,0.602 0.948,1.239 1.375,1.875c0.422,0.629 0.828,1.271 1.187,1.938c0.365,0.678 0.709,1.407 1.001,2.126c0.289,0.715 0.549,1.521 0.75,2.189c0.179,0.597 0.36,1.441 0.454,1.816c0.036,0.144 0.082,0.287 0.108,0.434c0.081,0.457 0.302,1.542 0.375,2.313c0.073,0.768 0.063,1.542 0.063,2.313c-0,0.771 0.01,1.552 -0.063,2.313c-0.072,0.757 -0.22,1.506 -0.375,2.251c-0.156,0.75 -0.344,1.511 -0.562,2.251c-0.219,0.739 -0.461,1.473 -0.75,2.188c-0.292,0.719 -0.636,1.437 -1.001,2.125c-0.363,0.685 -0.76,1.365 -1.187,2.001c-0.423,0.63 -0.893,1.228 -1.375,1.813c-0.49,0.594 -1.01,1.198 -1.562,1.75c-0.552,0.552 -1.146,1.074 -1.75,1.564c-0.602,0.488 -1.24,0.947 -1.875,1.375c-0.629,0.422 -1.271,0.828 -1.938,1.187c-0.677,0.365 -1.406,0.709 -2.125,1.001c-0.715,0.29 -1.449,0.531 -2.188,0.75c-0.739,0.219 -1.492,0.407 -2.249,0.562c-0.76,0.157 -1.542,0.302 -2.313,0.375c-0.768,0.073 -1.542,0.063 -2.313,0.063c-0.771,-0 -1.552,0.01 -2.312,-0.063c-0.757,-0.072 -1.506,-0.219 -2.251,-0.375c-0.75,-0.156 -1.509,-0.343 -2.249,-0.562c-0.739,-0.219 -1.473,-0.46 -2.188,-0.75c-0.718,-0.292 -1.437,-0.636 -2.125,-1.001c-0.685,-0.363 -1.364,-0.76 -2,-1.187c-0.629,-0.423 -1.228,-0.893 -1.813,-1.375c-0.593,-0.49 -1.197,-1.012 -1.749,-1.564c-0.552,-0.552 -1.073,-1.156 -1.562,-1.75c-0.483,-0.585 -0.952,-1.183 -1.376,-1.813c-0.427,-0.636 -0.824,-1.316 -1.187,-2.001c-0.365,-0.688 -0.709,-1.406 -1,-2.125c-0.29,-0.715 -0.532,-1.449 -0.75,-2.188c-0.219,-0.74 -0.407,-1.501 -0.563,-2.251c-0.155,-0.745 -0.292,-1.495 -0.375,-2.251c-0.083,-0.761 -0.125,-1.542 -0.125,-2.313c0,-0.771 0.042,-1.545 0.125,-2.313c0.083,-0.771 0.313,-1.928 0.375,-2.313Zm25.665,-6.94c0.274,0.084 0.565,0.096 0.836,0.188c0.399,0.135 1.055,0.386 1.562,0.625c0.511,0.239 1.031,0.51 1.499,0.812c0.463,0.298 0.899,0.639 1.313,1.001c0.417,0.365 0.823,0.771 1.188,1.188c0.362,0.414 0.752,0.952 1,1.313c0.185,0.27 0.311,0.575 0.488,0.851c0,0 0.221,0.43 0.324,0.649c0.112,0.237 0.209,0.523 0.345,0.772c-0,0 0.215,0.519 0.28,0.792c0.099,0.413 0.24,1.124 0.313,1.687c0.073,0.56 0.125,1.136 0.125,1.688c0,0.544 -0.054,1.087 -0.125,1.625c-0.073,0.553 -0.156,1.147 -0.313,1.689c-0.155,0.539 -0.386,1.054 -0.625,1.562c-0.239,0.511 -0.51,1.032 -0.812,1.501c-0.298,0.462 -0.638,0.899 -1,1.313c-0.365,0.416 -0.772,0.813 -1.188,1.188c-0.417,0.375 -0.849,0.762 -1.313,1.062c-0.46,0.298 -0.498,0.25 -1.47,0.739l-0.029,0.011c-0.273,0.11 -0.521,0.209 -1.552,0.623l-0.01,0.002c-0.248,0.057 -0.974,0.217 -1.458,0.333c-0,0 -0.152,0.036 -0.23,0.042c-0.32,0.028 -1.343,0.108 -1.688,0.126c-0.127,0.007 -0.381,-0.015 -0.381,-0.015c-0.776,-0.074 -0.833,-0.043 -1.244,-0.111c-0.488,-0.081 -1.146,-0.208 -1.687,-0.375c-0.537,-0.165 -1.303,-0.52 -1.563,-0.625l-0,0c-1,-0.5 -1.031,-0.448 -1.499,-0.75c-0.469,-0.302 -0.896,-0.687 -1.313,-1.062c-0.416,-0.375 -0.974,-0.972 -1.188,-1.188c-0.033,-0.034 -0.094,-0.108 -0.094,-0.108c-0.32,-0.404 -0.692,-0.77 -0.968,-1.205c-0.286,-0.451 -0.521,-0.991 -0.75,-1.501c-0.229,-0.51 -0.46,-1.026 -0.625,-1.562c-0.167,-0.542 -0.292,-1.136 -0.375,-1.689c-0.081,-0.537 -0.125,-1.081 -0.125,-1.625c-0,-0.552 0.104,-1.407 0.125,-1.688c0.062,-0.281 0.208,-1.146 0.375,-1.687c0.475,-1.22 0.396,-1.053 0.625,-1.564c0.229,-0.51 0.448,-1.031 0.75,-1.5c0.302,-0.469 0.885,-1.094 1.062,-1.313l0.001,-0c0.792,-0.793 0.77,-0.823 1.187,-1.188c0.414,-0.362 0.85,-0.703 1.313,-1.001c0.468,-0.302 0.989,-0.573 1.499,-0.812c0.508,-0.239 1.302,-0.521 1.563,-0.625l-0,-0c1.159,-0.215 1.271,-0.246 1.687,-0.313c0.269,-0.043 0.542,-0.041 0.811,-0.089l0.814,-0.036c1.5,0.091 1.265,0.084 1.688,0.125c0.286,0.028 0.564,0.105 0.852,0.125Zm241.538,20.314l-0.138,0.13l-1.029,0.816c-0,0 -0.222,0.179 -0.346,0.246c-0.308,0.167 -0.99,0.521 -1.5,0.75c-0.511,0.23 -1.171,0.485 -1.563,0.625c-0.258,0.092 -0.792,0.215 -0.792,0.215l-0.013,0.004l-0.82,0.156l-0.84,0.095l-0.847,0.031c-0.562,-0.042 -1.135,-0.042 -1.688,-0.126c-0.549,-0.083 -1.093,-0.211 -1.625,-0.375c-0.541,-0.166 -1.114,-0.395 -1.625,-0.625c-0.493,-0.221 -0.983,-0.457 -1.438,-0.75c-0.468,-0.302 -1.133,-0.875 -1.375,-1.062l-0.024,-0.019c-0.769,-0.774 -0.817,-0.769 -1.163,-1.169c-0.353,-0.408 -0.83,-1.09 -1,-1.313l-0.007,-0.009c-0.55,-1.021 -0.672,-1.245 -0.805,-1.492l-0.002,-0.003c-0.307,-0.768 -0.561,-1.559 -0.561,-1.559l-0.068,-0.267c-0.265,-1.061 -0.238,-0.942 -0.307,-1.422c-0.072,-0.508 -0.125,-1.081 -0.125,-1.625c0,-0.552 0.084,-1.309 0.125,-1.688l0.196,-0.949l0.179,-0.738l0.101,-0.299l0.147,-0.435l0.315,-0.83l0.132,-0.266l0.301,-0.592l0.379,-0.642c0.166,-0.219 0.775,-1.032 1,-1.313c0.106,-0.133 0.348,-0.374 0.348,-0.374c0.381,-0.48 0.538,-0.567 0.839,-0.814c0.369,-0.302 1.146,-0.834 1.375,-1.001l0.001,0c0.958,-0.541 0.939,-0.578 1.437,-0.812c0.511,-0.24 1.354,-0.521 1.625,-0.625c0.542,-0.104 1.198,-0.245 1.625,-0.313c0.311,-0.049 0.628,-0.046 0.94,-0.094c0.37,-0.048 0.499,-0.04 0.748,-0.031c0.406,0.016 1.135,0.052 1.687,0.125c0.547,0.073 1.096,0.157 1.625,0.313c0.531,0.156 1.055,0.386 1.563,0.625c0.51,0.239 1.02,0.51 1.5,0.812c0.479,0.302 0.948,0.636 1.375,1.001c0.426,0.364 0.823,0.771 1.187,1.188c0.363,0.414 0.703,0.851 1.001,1.313c0.302,0.469 0.583,0.989 0.812,1.5c0.227,0.505 0.409,1.031 0.563,1.564c0.156,0.541 0.29,1.124 0.374,1.687c0.082,0.558 0.126,1.136 0.126,1.688c-0,0.544 -0.045,1.088 -0.126,1.625c-0.084,0.553 -0.218,1.147 -0.374,1.689c-0.154,0.532 -0.336,1.057 -0.563,1.562c-0.229,0.511 -0.51,1.032 -0.812,1.501c-0.298,0.462 -0.659,0.917 -1.001,1.313c-0.324,0.375 -0.702,0.702 -1.049,1.058Zm98.3,-12.937l-0.313,1.688l-0.562,1.625l-0.749,1.564l-1,1.5l-1.125,1.251l-1.313,1.187l-1.438,0.939l-1.562,0.75l-1.625,0.562l-1.751,0.375l-1.686,0.125l-64.439,0l0.562,-2.751l0.313,-2.688l0.062,-2.814l-0.25,-2.749l-0.437,-2.689l-0.688,-2.688l-0.999,-2.564l-1.187,-2.501l-1.438,-2.376l-1.625,-2.187l-1.813,-2.063l-2.063,-1.876l-2.186,-1.688l-2.313,-1.501l-2.5,-1.25l-2.563,-1l-2.625,-0.751l-2.749,-0.499l-2.688,-0.25l-2.813,-0l-2.75,0.25l-2.687,0.499l-2.625,0.751l-2.626,1l-2.437,1.25l-2.312,1.501l-2.188,1.688l-2.062,1.876l-1.813,2.063l-1.625,2.187l-1.438,2.376l-1.187,2.501l-1,2.564l-0.687,2.688l-0.5,2.689l-0.188,2.749l0.063,2.814l0.312,2.688l0.563,2.751l-179.064,0l0.562,-2.751l0.313,-2.688l0.062,-2.814l-0.187,-2.749l-0.5,-2.689l-0.688,-2.688l-0.937,-2.564l-1.188,-2.501l-1.438,-2.376l-1.624,-2.187l-1.875,-2.063l-2,-1.876l-2.188,-1.688l-2.375,-1.501l-2.438,-1.25l-2.562,-1l-2.687,-0.751l-2.688,-0.499l-2.75,-0.25l-2.75,-0l-2.75,0.25l-2.75,0.499l-2.626,0.751l-2.561,1l-2.501,1.25l-2.312,1.501l-2.188,1.688l-2,1.876l-1.874,2.063l-1.626,2.187l-1.437,2.376l-1.188,2.501l-0.937,2.564l-0.75,2.688l-0.438,2.689l-0.188,2.749l0,2.814l0.313,2.688l0.563,2.751l-101.314,-19.193l0,-88.65l0.126,-2.689l0.375,-2.687l0.624,-2.688l0.876,-2.564l1.125,-2.501l1.312,-2.375l1.563,-2.25l1.687,-2.126l1.939,-1.939l2.123,-1.75l2.252,-1.501l2.374,-1.312l2.501,-1.126l2.561,-0.875l2.687,-0.625l2.689,-0.375l2.75,-0.125l426.94,0l1.25,0.125l1.25,0.313l1.124,0.5l1,0.687l0.938,0.876l0.75,1l0.563,1.125l0.375,1.188l0.125,1.25l2.687,63.831l1.126,0.125l1.125,0.313l1,0.562l0.937,0.688l0.687,0.938l0.562,1l0.313,1.125l0.125,1.126l0,47.263l-0.125,1.75Zm-35.312,-60.829l-17.688,-0l-1.188,-0.063l-1.062,-0.374l-1.062,-0.5l-0.875,-0.75l-0.75,-0.939l-0.5,-1l-0.375,-1.125l-0.125,-1.126l-0,-29.571l0.125,-1.125l0.375,-1.125l0.5,-1.001l0.75,-0.875l0.875,-0.75l1.062,-0.562l1.062,-0.314l1.188,-0.125l17.688,0l1.187,0.125l1.062,0.314l1.063,0.562l0.875,0.75l0.75,0.875l0.563,1.001l0.312,1.125l0.125,1.125l0,29.571l-0.125,1.126l-0.312,1.125l-0.563,1l-0.75,0.939l-0.875,0.75l-1.063,0.5l-1.062,0.374l-1.187,0.063Zm-50.188,-0l-70.875,-0l-1.125,-0.125l-1.126,-0.312l-1,-0.564l-0.937,-0.687l-0.688,-0.938l-0.562,-1l-0.313,-1.126l-0.125,-1.125l0,-29.571l0.125,-1.125l0.313,-1.125l0.562,-1.001l0.688,-0.875l0.937,-0.75l1,-0.562l1.126,-0.314l1.125,-0.125l70.875,0l1.187,0.125l1.063,0.314l1.062,0.562l0.876,0.75l0.75,0.875l0.5,1.001l0.375,1.125l0.125,1.125l-0,29.571l-0.125,1.125l-0.375,1.126l-0.5,1l-0.75,0.938l-0.876,0.687l-1.062,0.564l-1.063,0.312l-1.187,0.125Zm-194.877,-0l-70.876,-0l-1.125,-0.125l-1.124,-0.312l-1,-0.564l-0.937,-0.687l-0.688,-0.938l-0.563,-1l-0.312,-1.126l-0.125,-1.125l-0,-29.571l0.125,-1.125l0.312,-1.125l0.563,-1.001l0.688,-0.875l0.937,-0.75l1,-0.562l1.124,-0.314l1.125,-0.125l70.876,0l1.126,0.125l1.125,0.314l1.062,0.562l0.875,0.75l0.749,0.875l0.5,1.001l0.376,1.125l0.125,1.125l-0,29.571l-0.125,1.125l-0.376,1.126l-0.5,1l-0.749,0.938l-0.875,0.687l-1.062,0.564l-1.125,0.312l-1.126,0.125Zm97.439,-0l-70.875,-0l-1.126,-0.125l-1.125,-0.312l-1,-0.564l-0.937,-0.687l-0.688,-0.938l-0.562,-1l-0.313,-1.126l-0.125,-1.125l0,-29.571l0.125,-1.125l0.313,-1.125l0.562,-1.001l0.688,-0.875l0.937,-0.75l1,-0.562l1.125,-0.314l1.126,-0.125l70.875,0l1.187,0.125l1.063,0.314l1.062,0.562l0.875,0.75l0.752,0.875l0.499,1.001l0.375,1.125l0.125,1.125l-0,29.571l-0.125,1.125l-0.375,1.126l-0.499,1l-0.752,0.938l-0.875,0.687l-1.062,0.564l-1.063,0.312l-1.187,0.125Zm-194.877,-0l-70.875,-0l-1.126,-0.125l-1.125,-0.312l-0.998,-0.564l-0.938,-0.687l-0.687,-0.938l-0.564,-1l-0.375,-1.126l-0.061,-1.125l-0,-17.755l0.124,-2.126l0.375,-2.062l0.626,-2.064l0.874,-1.938l1.125,-1.875l1.313,-1.689l1.5,-1.5l1.688,-1.313l1.811,-1.125l2,-0.875l2.001,-0.625l2.125,-0.376l2.124,-0.125l59.063,0l1.126,0.125l1.125,0.314l0.999,0.562l0.937,0.75l0.75,0.875l0.5,1.001l0.375,1.125l0.063,1.125l-0,29.571l-0.063,1.125l-0.375,1.126l-0.5,1l-0.75,0.938l-0.937,0.687l-0.999,0.564l-1.125,0.312l-1.126,0.125Z"/></g></g></svg>