<?xml version="1.0" encoding="UTF-8" standalone="no"?><!DOCTYPE svg PUBLIC "-//W3C//DTD SVG 1.1//EN" "http://www.w3.org/Graphics/SVG/1.1/DTD/svg11.dtd"><svg width="100%" height="100%" viewBox="0 0 746 709" version="1.1" xmlns="http://www.w3.org/2000/svg" xmlns:xlink="http://www.w3.org/1999/xlink" xml:space="preserve" xmlns:serif="http://www.serif.com/" style="fill-rule:evenodd;clip-rule:evenodd;stroke-linejoin:round;stroke-miterlimit:2;"><g transform="matrix(64.5901,0,0,64.5901,456.405,400.566)"></g><text x="267.902px" y="400.566px" style="font-family:'ArialMT', 'Arial', sans-serif;font-size:64.59px;">sw=60</text><rect id="Bus-Left-Times" serif:id="Bus Left Times" x="0" y="0" width="745.276" height="708.661" style="fill:none;"/><clipPath id="_clip1"><rect x="0" y="0" width="745.276" height="708.661"/></clipPath><g clip-path="url(#_clip1)"><path d="M745.276,35.433c-0,-19.556 -15.877,-35.433 -35.433,-35.433l-674.41,0c-19.556,0 -35.433,15.877 -35.433,35.433l-0,637.795c-0,19.556 15.877,35.433 35.433,35.433l674.41,0c19.556,0 35.433,-15.877 35.433,-35.433l-0,-637.795Z"/><path d="M727.559,35.433c0,-9.778 -7.938,-17.716 -17.716,-17.716l-674.41,-0c-9.778,-0 -17.716,7.938 -17.716,17.716l-0,637.795c-0,9.778 7.938,17.717 17.716,17.717l674.41,-0c9.778,-0 17.716,-7.939 17.716,-17.717l0,-637.795Z" style="fill:#fff;"/><rect x="176.22" y="354.331" width="68.976" height="94.488" style="fill:#fff;"/><path d="M221.732,404.506c0,5.258 -4.07,8.226 -9.073,8.226l-13.992,-0l0,-16.197l13.568,0c5.088,0 9.497,2.629 9.497,7.971Zm-1.95,-27.05c-0,4.834 -2.714,7.632 -8.48,7.632l-12.635,-0l0,-13.992l13.314,0c3.815,0 7.801,2.12 7.801,6.36Zm16.875,28.068c-0,-7.971 -3.477,-13.313 -9.498,-16.196c3.477,-1.781 6.784,-7.208 6.784,-12.042c0,-10.175 -8.564,-18.231 -20.69,-18.231l-28.492,0l-0,66.142l29.085,-0c12.211,-0 22.811,-6.445 22.811,-19.673Z" style="fill-rule:nonzero;"/><rect id="path1698" x="245.197" y="354.331" width="56.693" height="94.488" style="fill:#fff;"/><path d="M294.268,378.044l-13.234,-0l0,28.69c0,5.804 -4.161,7.794 -8.323,7.794c-4.328,0 -6.742,-2.156 -6.742,-7.048l0,-29.436l-13.233,-0l-0,32.172c-0,9.205 5.909,16.253 17.228,16.253c3.746,-0 8.24,-1.659 11.07,-4.312l0,2.985l13.234,0l-0,-47.098Z" style="fill-rule:nonzero;"/><rect id="path16981" serif:id="path1698" x="301.89" y="354.331" width="47.244" height="94.488" style="fill:#fff;"/><path d="M345.014,410.893c-0,-8.711 -6.592,-11.929 -13.028,-13.498l-8.161,-1.962c-3.767,-0.942 -4.003,-2.355 -4.003,-3.061c0,-1.883 2.041,-3.845 6.435,-3.845c4.081,-0 7.456,1.255 10.83,3.845l7.063,-8.162c-4.473,-3.845 -10.359,-6.199 -18.52,-6.199c-10.987,-0 -18.757,6.278 -18.757,14.832c0,7.769 6.278,11.615 12.086,12.949l7.769,1.883c3.767,0.864 5.258,2.355 5.258,3.454c0,1.961 -1.569,3.531 -6.2,3.531c-3.374,0 -8.318,-0.863 -12.713,-4.552l-7.063,8.162c5.493,4.552 11.929,6.985 19.855,6.985c12.557,-0 19.149,-6.043 19.149,-14.362Z" style="fill-rule:nonzero;"/><rect id="path16982" serif:id="path1698" x="408.425" y="354.331" width="52.441" height="94.488" style="fill:#fff;"/><path d="M456.127,416.013l-5.214,9.184c-1.817,-0.104 -3.464,-0.558 -4.943,-1.362c-1.479,-0.804 -2.685,-1.855 -3.619,-3.152c-1.453,1.349 -3.152,2.36 -5.098,3.035c-1.946,0.675 -4.32,1.012 -7.122,1.012c-2.231,-0 -4.371,-0.286 -6.421,-0.856c-2.049,-0.571 -3.852,-1.44 -5.409,-2.608c-1.557,-1.167 -2.802,-2.607 -3.736,-4.319c-0.934,-1.713 -1.401,-3.736 -1.401,-6.071c0,-2.283 0.337,-4.229 1.012,-5.838c0.674,-1.608 1.531,-2.97 2.568,-4.086c1.038,-1.115 2.218,-2.011 3.542,-2.685c1.323,-0.675 2.633,-1.193 3.93,-1.557c1.297,-0.363 2.517,-0.622 3.658,-0.778c1.142,-0.156 2.05,-0.259 2.724,-0.311c1.09,-0.104 2.478,-0.221 4.164,-0.351c1.687,-0.129 3.23,-0.246 4.631,-0.35l0,-0.622c0,-1.92 -0.441,-3.308 -1.323,-4.165c-0.882,-0.856 -2.413,-1.284 -4.592,-1.284c-2.283,0 -4.462,0.273 -6.538,0.817c-2.075,0.545 -4.358,1.544 -6.849,2.997l-4.592,-9.729c3.165,-1.764 6.265,-3.035 9.301,-3.814c3.035,-0.778 6.188,-1.167 9.457,-1.167c5.655,-0 9.962,1.401 12.92,4.203c2.957,2.802 4.436,7.005 4.436,12.608l0,14.555c0,1.972 0.337,3.464 1.012,4.475c0.674,1.012 1.842,1.752 3.502,2.219Zm-16.811,-5.838l-0,-5.526c-0.934,0.052 -1.92,0.104 -2.958,0.156c-1.038,0.052 -1.92,0.13 -2.646,0.233c-0.882,0.104 -1.803,0.208 -2.763,0.312c-0.96,0.103 -1.829,0.324 -2.608,0.661c-0.778,0.338 -1.427,0.817 -1.946,1.44c-0.518,0.623 -0.778,1.505 -0.778,2.646c0,1.505 0.649,2.647 1.946,3.425c1.297,0.778 2.776,1.168 4.436,1.168c2.647,-0 4.528,-0.442 5.643,-1.324c1.116,-0.882 1.674,-1.945 1.674,-3.191Z" style="fill-rule:nonzero;"/><rect id="path16983" serif:id="path1698" x="460.866" y="354.331" width="56.22" height="94.488" style="fill:#fff;"/><path d="M509.749,392.828c0,-9.26 -5.923,-16.352 -17.269,-16.352c-3.754,0 -8.259,1.669 -11.095,4.339l-0,-3.004l-13.265,0l0,47.386l13.265,-0l-0,-28.949c-0,-5.756 4.171,-7.758 8.342,-7.758c4.338,-0 6.758,2.169 6.758,7.091l-0,29.616l13.264,-0l0,-32.369Z" style="fill-rule:nonzero;"/><rect id="path16984" serif:id="path1698" x="517.087" y="354.331" width="51.969" height="94.488" style="fill:#fff;"/><path d="M564.73,403.543l-0.158,1.969l-30.472,-0c0.052,1.26 0.367,2.428 0.945,3.504c0.577,1.076 1.338,2.021 2.283,2.834c0.945,0.814 2.034,1.444 3.268,1.89c1.233,0.446 2.533,0.669 3.898,0.669c3.937,0 7.322,-1.312 10.157,-3.937l6.614,8.111c-2.257,2.152 -4.737,3.792 -7.441,4.921c-2.703,1.129 -5.787,1.693 -9.252,1.693c-3.727,-0 -7.034,-0.617 -9.921,-1.851c-2.887,-1.233 -5.315,-2.939 -7.283,-5.118c-1.969,-2.178 -3.465,-4.711 -4.489,-7.598c-1.023,-2.887 -1.535,-5.984 -1.535,-9.291c-0,-3.203 0.485,-6.234 1.457,-9.095c0.971,-2.861 2.375,-5.341 4.212,-7.441c1.837,-2.1 4.121,-3.766 6.851,-5c2.729,-1.233 5.826,-1.85 9.291,-1.85c3.832,-0 7.165,0.682 10,2.047c2.835,1.365 5.144,3.202 6.929,5.512c1.785,2.31 3.058,5.026 3.819,8.149c0.761,3.124 1.037,6.418 0.827,9.882Zm-12.362,-6.85c-0,-2.415 -0.88,-4.396 -2.638,-5.945c-1.759,-1.549 -3.924,-2.323 -6.496,-2.323c-2.468,0 -4.515,0.827 -6.142,2.481c-1.627,1.653 -2.572,3.582 -2.835,5.787l18.111,-0Z" style="fill-rule:nonzero;"/><rect id="path16985" serif:id="path1698" x="378.661" y="354.331" width="29.764" height="94.488" style="fill:#fff;"/><path d="M405.916,412.417c-1.825,0.664 -3.319,0.913 -4.979,0.913c-2.739,-0 -4.066,-1.494 -4.066,-4.316l-0,-49.959l-13.03,0l0,52.117c0,8.465 4.067,14.025 14.108,14.025c3.071,-0 6.473,-0.498 9.295,-1.411l-1.328,-11.369Z" style="fill-rule:nonzero;"/><rect id="path16986" serif:id="path1698" x="265.157" y="460.63" width="54.331" height="94.488" style="fill:#fff;"/><path d="M302.447,508.423c-0,7.22 -4.003,12.165 -10.046,12.165c-6.121,-0 -10.123,-5.023 -10.123,-12.165c-0,-7.298 4.002,-13.263 10.123,-13.263c5.965,0 10.046,5.965 10.046,13.263Zm12.321,0c-0,-13.498 -7.848,-24.171 -22.367,-24.171c-14.597,-0 -22.523,10.516 -22.523,24.171c-0,13.263 8.868,23.073 22.523,23.073c13.656,0 22.367,-9.888 22.367,-23.073Z" style="fill-rule:nonzero;"/><rect id="path16987" serif:id="path1698" x="319.488" y="460.63" width="56.22" height="94.488" style="fill:#fff;"/><path d="M368.371,499.127c0,-9.26 -5.923,-16.351 -17.269,-16.351c-3.754,-0 -8.259,1.668 -11.095,4.338l-0,-3.004l-13.265,0l0,47.386l13.265,0l-0,-28.949c-0,-5.756 4.171,-7.758 8.342,-7.758c4.338,-0 6.758,2.169 6.758,7.091l-0,29.616l13.264,0l0,-32.369Z" style="fill-rule:nonzero;"/><rect x="177.283" y="460.63" width="87.874" height="94.488" style="fill:#fff;"/><path d="M255.388,465.354l-13.998,0l-20.256,27.559l-20.257,-27.559l-13.824,0l0,66.142l13.737,0l-0,-42.738l20.344,26.711l20.256,-26.711l-0.086,42.738l14.084,0l-0,-66.142Z" style="fill-rule:nonzero;"/><rect id="path16988" serif:id="path1698" x="542.008" y="460.63" width="25.984" height="94.488" style="fill:#fff;"/><path d="M560.793,484.24l-13.146,0l0,47.256l13.146,0l-0,-47.256Zm0.832,-11.481c-0,-4.077 -3.328,-7.405 -7.405,-7.405c-4.16,0 -7.488,3.328 -7.488,7.405c0,4.16 3.328,7.488 7.488,7.488c4.077,-0 7.405,-3.328 7.405,-7.488Z" style="fill-rule:nonzero;"/><rect id="path16989" serif:id="path1698" x="501.85" y="460.63" width="40.157" height="94.488" style="fill:#fff;"/><path d="M535.845,483.174c-6.813,-0.747 -11.548,1.496 -14.705,5.982l-0,-4.902l-13.21,0l0,47.189l13.21,0l-0,-24.923c-0,-7.81 5.815,-11.216 12.794,-10.635l1.911,0.167l-0,-12.878Z" style="fill-rule:nonzero;"/><rect x="444.685" y="460.63" width="57.165" height="94.488" style="fill:#fff;"/><path d="M499.573,465.354l-43.416,0l-0,66.142l13.652,0l0,-27.474l26.796,-0l0,-12.465l-26.881,-0l0,-13.229l29.849,0l-0,-12.974Z" style="fill-rule:nonzero;"/><rect id="path169810" serif:id="path1698" x="393.425" y="460.63" width="33.543" height="94.488" style="fill:#fff;"/><rect x="398.15" y="498.425" width="18.898" height="9.449" style="fill-rule:nonzero;"/><rect x="325.984" y="578.74" width="60.945" height="94.488" style="fill:#fff;"/><path d="M366.742,606.056c-0,6.524 -4.599,10.765 -10.787,10.765c-6.355,-0 -10.703,-4.241 -10.703,-10.765c0,-6.443 4.348,-10.684 10.703,-10.684c6.271,-0 10.787,4.241 10.787,10.684Zm14.465,9.868c0,-16.556 -6.187,-32.541 -26.673,-32.541c-14.299,0 -22.828,9.95 -22.828,22.591c0,12.886 8.446,22.509 22.828,22.509c4.515,0 9.365,-1.794 12.709,-4.648c-0.585,9.786 -5.937,14.027 -12.041,14.027c-4.097,0 -7.023,-1.794 -9.197,-5.382l-11.539,5.545c4.18,7.504 11.037,11.5 20.068,11.5c19.649,-0 26.673,-16.882 26.673,-33.601Z" style="fill-rule:nonzero;"/><rect x="47.244" y="578.74" width="50.551" height="94.488" style="fill:#fff;"/><path d="M96.515,584.606l-47.991,0l0,12.381l32.255,-0l-23.648,53.761l15.65,0l23.734,-54.016l0,-12.126Z" style="fill-rule:nonzero;"/><rect x="413.386" y="578.74" width="64.252" height="94.488" style="fill:#fff;"/><path d="M466.644,629.821c-0,-6.05 -2.515,-11.773 -7.209,-14.635c4.191,-2.534 6.622,-7.276 6.622,-12.672c0,-11.528 -8.55,-19.049 -22.213,-19.049c-13.16,-0 -21.543,5.804 -24.979,18.313l12.992,2.943c1.509,-5.723 4.778,-8.748 10.981,-8.748c6.622,0 9.388,2.944 9.388,7.195c0,5.233 -5.197,7.031 -10.897,7.113l-3.101,-0l-0,11.528c8.047,-0.9 14.585,0.49 14.585,7.685c-0,5.478 -3.604,8.012 -9.891,8.012c-6.119,0 -10.394,-3.842 -11.4,-10.792l-13.412,2.862c2.515,12.672 11.4,20.03 25.818,20.03c14.166,0 22.716,-7.767 22.716,-19.785Z" style="fill-rule:nonzero;"/><rect x="477.638" y="578.74" width="68.504" height="94.488" style="fill:#fff;"/><path d="M524.683,616.25c0,7.911 -1.672,21.286 -12.459,21.286c-10.786,0 -13.128,-13.375 -13.128,-21.449c0,-7.422 2.927,-20.878 12.794,-20.878c9.866,-0 12.793,13.619 12.793,21.041Zm13.88,-0.082c0,-15.74 -8.361,-32.785 -26.673,-32.785c-18.563,0 -26.674,16.882 -26.674,32.785c0,15.822 8.111,33.357 27.008,33.357c18.563,-0 26.339,-17.616 26.339,-33.357Z" style="fill-rule:nonzero;"/><rect x="124.252" y="578.74" width="64.252" height="94.488" style="fill:#fff;"/><path d="M177.51,629.821c-0,-6.05 -2.515,-11.773 -7.209,-14.635c4.191,-2.534 6.622,-7.276 6.622,-12.672c0,-11.528 -8.55,-19.049 -22.213,-19.049c-13.16,-0 -21.542,5.804 -24.979,18.313l12.992,2.943c1.509,-5.723 4.778,-8.748 10.981,-8.748c6.622,0 9.388,2.944 9.388,7.195c0,5.233 -5.197,7.031 -10.897,7.113l-3.101,-0l-0,11.528c8.047,-0.9 14.585,0.49 14.585,7.685c0,5.478 -3.604,8.012 -9.891,8.012c-6.119,0 -10.394,-3.842 -11.4,-10.792l-13.412,2.862c2.515,12.672 11.4,20.03 25.818,20.03c14.166,0 22.716,-7.767 22.716,-19.785Z" style="fill-rule:nonzero;"/><rect x="188.504" y="578.74" width="68.504" height="94.488" style="fill:#fff;"/><path d="M235.549,616.25c0,7.911 -1.672,21.286 -12.459,21.286c-10.786,0 -13.127,-13.375 -13.127,-21.449c-0,-7.422 2.926,-20.878 12.793,-20.878c9.867,-0 12.793,13.619 12.793,21.041Zm13.881,-0.082c-0,-15.74 -8.362,-32.785 -26.674,-32.785c-18.563,0 -26.674,16.882 -26.674,32.785c0,15.822 8.111,33.357 27.008,33.357c18.563,-0 26.34,-17.616 26.34,-33.357Z" style="fill-rule:nonzero;"/><rect id="path169811" serif:id="path1698" x="386.929" y="578.74" width="26.457" height="94.488" style="fill:#fff;"/><path d="M407.244,642.478c0,-3.895 -3.15,-7.045 -7.045,-7.045c-3.979,0 -7.128,3.15 -7.128,7.045c-0,3.979 3.149,7.128 7.128,7.128c3.895,0 7.045,-3.149 7.045,-7.128Z" style="fill-rule:nonzero;"/><rect id="path169812" serif:id="path1698" x="97.795" y="578.74" width="26.457" height="94.488" style="fill:#fff;"/><path d="M118.11,642.478c0,-3.895 -3.149,-7.045 -7.045,-7.045c-3.978,0 -7.128,3.15 -7.128,7.045c0,3.979 3.15,7.128 7.128,7.128c3.896,0 7.045,-3.149 7.045,-7.128Z" style="fill-rule:nonzero;"/><rect id="path169813" serif:id="path1698" x="563.858" y="578.74" width="52.441" height="94.488" style="fill:#fff;"/><path d="M611.56,640.422l-5.214,9.184c-1.816,-0.103 -3.464,-0.557 -4.943,-1.362c-1.478,-0.804 -2.685,-1.855 -3.619,-3.152c-1.453,1.349 -3.152,2.361 -5.098,3.035c-1.946,0.675 -4.32,1.012 -7.122,1.012c-2.231,0 -4.371,-0.285 -6.421,-0.856c-2.049,-0.571 -3.852,-1.44 -5.409,-2.607c-1.557,-1.168 -2.802,-2.608 -3.736,-4.32c-0.934,-1.712 -1.401,-3.736 -1.401,-6.071c0,-2.283 0.337,-4.229 1.012,-5.837c0.674,-1.609 1.531,-2.971 2.568,-4.086c1.038,-1.116 2.219,-2.011 3.542,-2.686c1.323,-0.674 2.633,-1.193 3.93,-1.556c1.297,-0.363 2.517,-0.623 3.658,-0.779c1.142,-0.155 2.05,-0.259 2.724,-0.311c1.09,-0.104 2.478,-0.22 4.164,-0.35c1.687,-0.13 3.231,-0.247 4.631,-0.35l0,-0.623c0,-1.92 -0.441,-3.308 -1.323,-4.164c-0.882,-0.856 -2.412,-1.284 -4.592,-1.284c-2.283,-0 -4.462,0.272 -6.538,0.817c-2.075,0.545 -4.358,1.544 -6.849,2.996l-4.592,-9.729c3.165,-1.764 6.266,-3.035 9.301,-3.813c3.035,-0.779 6.188,-1.168 9.457,-1.168c5.655,0 9.962,1.401 12.92,4.203c2.957,2.802 4.436,7.005 4.436,12.609l0,14.555c0,1.971 0.337,3.463 1.012,4.475c0.675,1.012 1.842,1.751 3.502,2.218Zm-16.811,-5.837l-0,-5.526c-0.934,0.052 -1.92,0.103 -2.958,0.155c-1.038,0.052 -1.92,0.13 -2.646,0.234c-0.882,0.104 -1.803,0.207 -2.763,0.311c-0.96,0.104 -1.829,0.324 -2.608,0.662c-0.778,0.337 -1.427,0.817 -1.945,1.44c-0.519,0.622 -0.779,1.504 -0.779,2.646c0,1.505 0.649,2.646 1.946,3.424c1.297,0.779 2.776,1.168 4.436,1.168c2.647,-0 4.528,-0.441 5.643,-1.323c1.116,-0.882 1.674,-1.946 1.674,-3.191Z" style="fill-rule:nonzero;"/><rect id="path169814" serif:id="path1698" x="616.299" y="578.74" width="81.732" height="94.488" style="fill:#fff;"/><path d="M690.494,618.405c-0,-11.095 -6.341,-17.519 -17.102,-17.519c-6.341,-0 -10.846,2.085 -13.932,6.257c-2.587,-4.088 -7.258,-6.174 -12.347,-6.174c-3.504,0 -7.342,1.502 -10.095,4.172l0,-2.92l-13.181,-0l-0,47.385l13.181,0l0,-28.031c0,-6.173 3.838,-8.676 8.009,-8.676c3.254,0 5.506,2.169 5.506,6.924l0.083,29.783l13.182,0l-0,-28.114c-0,-5.673 4.171,-8.509 7.591,-8.509c3.504,-0 5.924,2.252 5.924,6.924l-0,29.699l13.181,0l-0,-31.201Z" style="fill-rule:nonzero;"/><rect id="path169815" serif:id="path1698" x="274.724" y="578.74" width="33.543" height="94.488" style="fill:#fff;"/><rect x="279.449" y="616.535" width="18.898" height="9.449" style="fill-rule:nonzero;"/><clipPath id="_clip2"><rect id="S25-BUS.afdesign" serif:id="S25 BUS.afdesign" x="136.417" y="47.244" width="472.441" height="153.543"/></clipPath><g clip-path="url(#_clip2)"><rect id="S24-BUS-LEFT-B" serif:id="S24 BUS LEFT B" x="136.417" y="47.244" width="472.441" height="153.543" style="fill:none;"/><clipPath id="_clip3"><rect x="136.417" y="47.244" width="472.441" height="153.543"/></clipPath><g clip-path="url(#_clip3)"><path d="M265.857,172.592c-0.094,-0.375 -0.344,-1.511 -0.563,-2.25c-0.219,-0.74 -0.46,-1.474 -0.75,-2.189c-0.292,-0.719 -0.636,-1.448 -1,-2.126c-0.359,-0.667 -0.765,-1.309 -1.188,-1.938c-0.427,-0.636 -0.887,-1.273 -1.375,-1.875c-0.49,-0.604 -1.011,-1.199 -1.563,-1.751c-0.552,-0.552 -1.155,-1.073 -1.749,-1.562c-0.585,-0.483 -1.183,-0.953 -1.812,-1.376c-0.636,-0.428 -1.316,-0.825 -2.001,-1.188c-0.687,-0.364 -1.406,-0.708 -2.125,-1c-0.714,-0.29 -1.448,-0.532 -2.188,-0.751c-0.739,-0.219 -1.499,-0.406 -2.249,-0.562c-0.744,-0.155 -1.493,-0.303 -2.25,-0.375c-0.76,-0.073 -1.542,-0.063 -2.313,-0.063c-0.771,0 -1.545,-0.01 -2.312,0.063c-0.771,0.073 -1.553,0.219 -2.313,0.375c-0.757,0.155 -1.51,0.343 -2.249,0.562c-0.74,0.219 -1.474,0.461 -2.188,0.751c-0.719,0.292 -1.448,0.636 -2.125,1c-0.667,0.359 -1.309,0.765 -1.938,1.188c-0.635,0.427 -1.273,0.887 -1.875,1.376c-0.604,0.489 -1.198,1.01 -1.75,1.562c-0.552,0.552 -1.073,1.147 -1.562,1.751c-0.488,0.602 -0.948,1.239 -1.375,1.875c-0.423,0.629 -0.829,1.271 -1.188,1.938c-0.364,0.678 -0.708,1.407 -1,2.126c-0.29,0.715 -0.549,1.521 -0.75,2.189c-0.18,0.597 -0.36,1.441 -0.454,1.816c-0.036,0.144 -0.083,0.287 -0.108,0.434c-0.081,0.457 -0.303,1.542 -0.376,2.313c-0.072,0.768 -0.062,1.542 -0.062,2.313c-0,0.771 -0.01,1.552 0.062,2.313c0.073,0.757 0.22,1.506 0.376,2.251c0.156,0.75 0.343,1.511 0.562,2.251c0.219,0.739 0.46,1.473 0.75,2.188c0.292,0.719 0.636,1.437 1,2.125c0.364,0.685 0.761,1.365 1.188,2.001c0.423,0.63 0.893,1.228 1.375,1.813c0.489,0.594 1.01,1.198 1.562,1.75c0.552,0.552 1.146,1.074 1.75,1.564c0.602,0.488 1.24,0.947 1.875,1.375c0.629,0.422 1.271,0.828 1.938,1.187c0.677,0.365 1.406,0.709 2.125,1.001c0.714,0.29 1.448,0.531 2.188,0.75c0.739,0.219 1.492,0.407 2.249,0.562c0.76,0.157 1.542,0.302 2.313,0.375c0.767,0.073 1.541,0.063 2.312,0.063c0.771,-0 1.553,0.01 2.313,-0.063c0.757,-0.072 1.506,-0.219 2.25,-0.375c0.75,-0.156 1.51,-0.343 2.249,-0.562c0.74,-0.219 1.474,-0.46 2.188,-0.75c0.719,-0.292 1.438,-0.636 2.125,-1.001c0.685,-0.363 1.365,-0.76 2.001,-1.187c0.629,-0.423 1.227,-0.893 1.812,-1.375c0.594,-0.49 1.197,-1.012 1.749,-1.564c0.552,-0.552 1.073,-1.156 1.563,-1.75c0.483,-0.585 0.952,-1.183 1.375,-1.813c0.427,-0.636 0.824,-1.316 1.188,-2.001c0.364,-0.688 0.708,-1.406 1,-2.125c0.29,-0.715 0.531,-1.449 0.75,-2.188c0.219,-0.74 0.406,-1.501 0.563,-2.251c0.155,-0.745 0.292,-1.495 0.375,-2.251c0.083,-0.761 0.125,-1.542 0.125,-2.313c-0,-0.771 -0.042,-1.545 -0.125,-2.313c-0.084,-0.771 -0.313,-1.928 -0.375,-2.313Zm236.188,-0c-0.093,-0.375 -0.344,-1.511 -0.562,-2.25c-0.219,-0.74 -0.46,-1.474 -0.75,-2.189c-0.292,-0.719 -0.636,-1.448 -1,-2.126c-0.36,-0.667 -0.765,-1.309 -1.188,-1.938c-0.427,-0.636 -0.887,-1.273 -1.375,-1.875c-0.49,-0.604 -1.011,-1.199 -1.563,-1.751c-0.552,-0.552 -1.155,-1.073 -1.749,-1.562c-0.585,-0.483 -1.183,-0.953 -1.813,-1.376c-0.635,-0.428 -1.315,-0.825 -2,-1.188c-0.687,-0.364 -1.406,-0.708 -2.125,-1c-0.715,-0.29 -1.449,-0.532 -2.188,-0.751c-0.739,-0.219 -1.499,-0.406 -2.249,-0.562c-0.744,-0.155 -1.493,-0.303 -2.25,-0.375c-0.761,-0.073 -1.542,-0.063 -2.313,-0.063c-0.771,0 -1.545,-0.01 -2.313,0.063c-0.771,0.073 -1.552,0.219 -2.312,0.375c-0.757,0.155 -1.51,0.343 -2.25,0.562c-0.739,0.219 -1.473,0.461 -2.187,0.751c-0.719,0.292 -1.448,0.636 -2.126,1c-0.667,0.359 -1.309,0.765 -1.937,1.188c-0.636,0.427 -1.273,0.887 -1.875,1.376c-0.605,0.489 -1.199,1.01 -1.751,1.562c-0.552,0.552 -1.072,1.147 -1.561,1.751c-0.488,0.602 -0.948,1.239 -1.375,1.875c-0.423,0.629 -0.829,1.271 -1.188,1.938c-0.365,0.678 -0.708,1.407 -1,2.126c-0.29,0.715 -0.55,1.521 -0.75,2.189c-0.18,0.597 -0.361,1.441 -0.454,1.816c-0.036,0.144 -0.083,0.287 -0.109,0.434c-0.08,0.457 -0.302,1.542 -0.375,2.313c-0.072,0.768 -0.062,1.542 -0.062,2.313c-0,0.771 -0.011,1.552 0.062,2.313c0.073,0.757 0.22,1.506 0.375,2.251c0.156,0.75 0.344,1.511 0.563,2.251c0.218,0.739 0.46,1.473 0.75,2.188c0.292,0.719 0.635,1.437 1,2.125c0.363,0.685 0.76,1.365 1.188,2.001c0.423,0.63 0.892,1.228 1.375,1.813c0.489,0.594 1.009,1.198 1.561,1.75c0.552,0.552 1.146,1.074 1.751,1.564c0.602,0.488 1.239,0.947 1.875,1.375c0.628,0.422 1.27,0.828 1.937,1.187c0.678,0.365 1.407,0.709 2.126,1.001c0.714,0.29 1.448,0.531 2.187,0.75c0.74,0.219 1.493,0.407 2.25,0.562c0.76,0.157 1.541,0.302 2.312,0.375c0.768,0.073 1.542,0.063 2.313,0.063c0.771,-0 1.552,0.01 2.313,-0.063c0.757,-0.072 1.506,-0.219 2.25,-0.375c0.75,-0.156 1.51,-0.343 2.249,-0.562c0.739,-0.219 1.474,-0.46 2.188,-0.75c0.719,-0.292 1.438,-0.636 2.125,-1.001c0.685,-0.363 1.365,-0.76 2,-1.187c0.63,-0.423 1.228,-0.893 1.813,-1.375c0.594,-0.49 1.197,-1.012 1.749,-1.564c0.552,-0.552 1.073,-1.156 1.563,-1.75c0.482,-0.585 0.952,-1.183 1.375,-1.813c0.427,-0.636 0.824,-1.316 1.188,-2.001c0.364,-0.688 0.708,-1.406 1,-2.125c0.29,-0.715 0.531,-1.449 0.75,-2.188c0.218,-0.74 0.406,-1.501 0.562,-2.251c0.155,-0.745 0.292,-1.495 0.375,-2.251c0.084,-0.761 0.125,-1.542 0.125,-2.313c0,-0.771 -0.042,-1.545 -0.125,-2.313c-0.083,-0.771 -0.312,-1.928 -0.375,-2.313Zm-25.664,-6.94c-0.275,0.084 -0.566,0.096 -0.836,0.188c-0.4,0.135 -1.055,0.386 -1.563,0.625c-0.51,0.239 -1.03,0.51 -1.499,0.812c-0.463,0.298 -0.899,0.639 -1.313,1.001c-0.416,0.365 -0.823,0.771 -1.187,1.188c-0.363,0.414 -0.752,0.952 -1,1.313c-0.186,0.27 -0.312,0.575 -0.489,0.851c0,0 -0.221,0.43 -0.324,0.649c-0.112,0.237 -0.209,0.523 -0.344,0.772c-0,0 -0.216,0.519 -0.281,0.792c-0.099,0.413 -0.24,1.124 -0.313,1.687c-0.072,0.56 -0.125,1.136 -0.125,1.688c0,0.544 0.054,1.087 0.125,1.625c0.073,0.553 0.157,1.147 0.313,1.689c0.155,0.539 0.387,1.054 0.625,1.562c0.24,0.511 0.51,1.032 0.813,1.501c0.297,0.462 0.637,0.899 1,1.313c0.364,0.416 0.771,0.813 1.187,1.188c0.417,0.375 0.849,0.762 1.313,1.062c0.46,0.298 0.499,0.25 1.47,0.739l0.029,0.011c0.273,0.11 0.521,0.209 1.553,0.623l0.01,0.002c0.248,0.057 0.973,0.217 1.458,0.333c-0,0 0.152,0.036 0.229,0.042c0.32,0.028 1.343,0.108 1.688,0.126c0.127,0.007 0.382,-0.015 0.382,-0.015c0.775,-0.074 0.833,-0.043 1.243,-0.111c0.489,-0.081 1.146,-0.208 1.688,-0.375c0.536,-0.165 1.302,-0.52 1.562,-0.625l0.001,0c1,-0.5 1.03,-0.448 1.499,-0.75c0.468,-0.302 0.896,-0.687 1.312,-1.062c0.416,-0.375 0.974,-0.972 1.188,-1.188c0.033,-0.034 0.094,-0.108 0.094,-0.108c0.32,-0.404 0.692,-0.77 0.968,-1.205c0.287,-0.451 0.521,-0.991 0.751,-1.501c0.229,-0.51 0.46,-1.026 0.625,-1.562c0.166,-0.542 0.291,-1.136 0.375,-1.689c0.081,-0.537 0.125,-1.081 0.125,-1.625c-0,-0.552 -0.105,-1.407 -0.125,-1.688c-0.063,-0.281 -0.209,-1.146 -0.375,-1.687c-0.476,-1.22 -0.396,-1.053 -0.625,-1.564c-0.229,-0.51 -0.448,-1.031 -0.751,-1.5c-0.302,-0.469 -0.885,-1.094 -1.062,-1.313l-0,-0c-0.793,-0.793 -0.771,-0.823 -1.188,-1.188c-0.414,-0.362 -0.85,-0.703 -1.312,-1.001c-0.469,-0.302 -0.989,-0.573 -1.5,-0.812c-0.507,-0.239 -1.302,-0.521 -1.562,-0.625l-0,-0c-1.16,-0.215 -1.271,-0.246 -1.688,-0.313c-0.268,-0.043 -0.542,-0.041 -0.811,-0.089l-0.814,-0.036c-1.5,0.091 -1.264,0.084 -1.688,0.125c-0.285,0.028 -0.564,0.105 -0.851,0.125Zm-241.539,20.314l0.139,0.13l1.029,0.816c-0,0 0.221,0.179 0.346,0.246c0.307,0.167 0.99,0.521 1.5,0.75c0.51,0.23 1.17,0.485 1.562,0.625c0.258,0.092 0.792,0.215 0.792,0.215l0.014,0.004l0.82,0.156l0.839,0.095l0.847,0.031c0.563,-0.042 1.136,-0.042 1.688,-0.126c0.55,-0.083 1.094,-0.211 1.625,-0.375c0.542,-0.166 1.115,-0.395 1.625,-0.625c0.493,-0.221 0.984,-0.457 1.438,-0.75c0.469,-0.302 1.134,-0.875 1.375,-1.062l0.025,-0.019c0.768,-0.774 0.817,-0.769 1.163,-1.169c0.352,-0.408 0.83,-1.09 1,-1.313l0.007,-0.009c0.55,-1.021 0.672,-1.245 0.804,-1.492l0.002,-0.003c0.307,-0.768 0.561,-1.559 0.561,-1.559l0.068,-0.267c0.265,-1.061 0.239,-0.942 0.307,-1.422c0.072,-0.508 0.125,-1.081 0.125,-1.625c-0,-0.552 -0.083,-1.309 -0.125,-1.688l-0.195,-0.949l-0.18,-0.738l-0.1,-0.299l-0.148,-0.435l-0.315,-0.83l-0.131,-0.266l-0.302,-0.592l-0.378,-0.642c-0.167,-0.219 -0.776,-1.032 -1,-1.313c-0.107,-0.133 -0.348,-0.374 -0.348,-0.374c-0.382,-0.48 -0.538,-0.567 -0.84,-0.814c-0.369,-0.302 -1.146,-0.834 -1.375,-1.001l-0,0c-0.959,-0.541 -0.94,-0.578 -1.438,-0.812c-0.51,-0.24 -1.354,-0.521 -1.625,-0.625c-0.542,-0.104 -1.198,-0.245 -1.625,-0.313c-0.311,-0.049 -0.627,-0.046 -0.939,-0.094c-0.371,-0.048 -0.499,-0.04 -0.749,-0.031c-0.406,0.016 -1.134,0.052 -1.686,0.125c-0.547,0.073 -1.096,0.157 -1.626,0.313c-0.531,0.156 -1.054,0.386 -1.562,0.625c-0.511,0.239 -1.021,0.51 -1.5,0.812c-0.48,0.302 -0.948,0.636 -1.375,1.001c-0.426,0.364 -0.823,0.771 -1.188,1.188c-0.362,0.414 -0.702,0.851 -1,1.313c-0.302,0.469 -0.584,0.989 -0.813,1.5c-0.227,0.505 -0.409,1.031 -0.562,1.564c-0.156,0.541 -0.291,1.124 -0.374,1.687c-0.083,0.558 -0.126,1.136 -0.126,1.688c-0,0.544 0.045,1.088 0.126,1.625c0.083,0.553 0.218,1.147 0.374,1.689c0.153,0.532 0.336,1.057 0.562,1.562c0.229,0.511 0.511,1.032 0.813,1.501c0.298,0.462 0.658,0.917 1,1.313c0.325,0.375 0.702,0.702 1.049,1.058Zm-98.3,-12.937l0.313,1.688l0.562,1.625l0.749,1.564l1.001,1.5l1.125,1.251l1.312,1.187l1.438,0.939l1.563,0.75l1.625,0.562l1.75,0.375l1.687,0.125l64.438,0l-0.562,-2.751l-0.313,-2.688l-0.062,-2.814l0.25,-2.749l0.437,-2.689l0.688,-2.688l0.999,-2.564l1.188,-2.501l1.437,-2.376l1.626,-2.187l1.812,-2.063l2.063,-1.876l2.187,-1.688l2.312,-1.501l2.501,-1.25l2.562,-1l2.626,-0.751l2.749,-0.499l2.688,-0.25l2.812,-0l2.751,0.25l2.686,0.499l2.626,0.751l2.625,1l2.438,1.25l2.311,1.501l2.188,1.688l2.063,1.876l1.813,2.063l1.625,2.187l1.437,2.376l1.187,2.501l1,2.564l0.688,2.688l0.5,2.689l0.187,2.749l-0.062,2.814l-0.313,2.688l-0.562,2.751l179.064,0l-0.563,-2.751l-0.312,-2.688l-0.063,-2.814l0.188,-2.749l0.5,-2.689l0.687,-2.688l0.938,-2.564l1.187,-2.501l1.438,-2.376l1.624,-2.187l1.875,-2.063l2.001,-1.876l2.187,-1.688l2.376,-1.501l2.437,-1.25l2.562,-1l2.688,-0.751l2.688,-0.499l2.75,-0.25l2.749,-0l2.75,0.25l2.751,0.499l2.625,0.751l2.562,1l2.5,1.25l2.313,1.501l2.187,1.688l2.001,1.876l1.874,2.063l1.625,2.187l1.438,2.376l1.187,2.501l0.938,2.564l0.75,2.688l0.437,2.689l0.188,2.749l-0,2.814l-0.313,2.688l-0.562,2.751l101.313,-19.193l0,-88.65l-0.126,-2.689l-0.375,-2.687l-0.624,-2.688l-0.876,-2.564l-1.125,-2.501l-1.312,-2.375l-1.562,-2.25l-1.688,-2.126l-1.939,-1.939l-2.123,-1.75l-2.251,-1.501l-2.374,-1.312l-2.502,-1.126l-2.56,-0.875l-2.688,-0.625l-2.689,-0.375l-2.749,-0.125l-426.941,0l-1.25,0.125l-1.25,0.313l-1.124,0.5l-1,0.687l-0.938,0.876l-0.75,1l-0.562,1.125l-0.375,1.188l-0.125,1.25l-2.688,63.831l-1.125,0.125l-1.125,0.313l-1,0.562l-0.938,0.688l-0.687,0.938l-0.562,1l-0.313,1.125l-0.125,1.126l0,47.263l0.125,1.75Zm35.312,-3.251l17.689,0l1.187,-0.062l1.063,-0.375l1.061,-0.5l0.875,-0.75l0.751,-0.939l0.5,-1l0.375,-1.125l0.125,-1.126l-0,-87.149l-0.125,-1.125l-0.375,-1.125l-0.5,-1.001l-0.751,-0.875l-0.875,-0.75l-1.061,-0.562l-1.063,-0.314l-1.187,-0.125l-17.689,0l-1.186,0.125l-1.063,0.314l-1.063,0.562l-0.875,0.75l-0.75,0.875l-0.562,1.001l-0.313,1.125l-0.125,1.125l0,87.149l0.125,1.126l0.313,1.125l0.562,1l0.75,0.939l0.875,0.75l1.063,0.5l1.063,0.375l1.186,0.062Zm50.189,-57.578l70.875,-0l1.125,-0.125l1.125,-0.312l1,-0.564l0.938,-0.687l0.687,-0.938l0.563,-1l0.312,-1.126l0.125,-1.125l0,-29.571l-0.125,-1.125l-0.312,-1.125l-0.563,-1.001l-0.687,-0.875l-0.938,-0.75l-1,-0.562l-1.125,-0.314l-1.125,-0.125l-70.875,0l-1.188,0.125l-1.062,0.314l-1.063,0.562l-0.875,0.75l-0.75,0.875l-0.5,1.001l-0.375,1.125l-0.125,1.125l-0,29.571l0.125,1.125l0.375,1.126l0.5,1l0.75,0.938l0.875,0.687l1.063,0.564l1.062,0.312l1.188,0.125Zm194.876,-0l70.876,-0l1.125,-0.125l1.124,-0.312l1,-0.564l0.938,-0.687l0.687,-0.938l0.563,-1l0.312,-1.126l0.125,-1.125l0,-29.571l-0.125,-1.125l-0.312,-1.125l-0.563,-1.001l-0.687,-0.875l-0.938,-0.75l-1,-0.562l-1.124,-0.314l-1.125,-0.125l-70.876,0l-1.125,0.125l-1.125,0.314l-1.063,0.562l-0.875,0.75l-0.749,0.875l-0.5,1.001l-0.375,1.125l-0.125,1.125l-0,29.571l0.125,1.125l0.375,1.126l0.5,1l0.749,0.938l0.875,0.687l1.063,0.564l1.125,0.312l1.125,0.125Zm-97.438,-0l70.875,-0l1.125,-0.125l1.125,-0.312l1,-0.564l0.938,-0.687l0.687,-0.938l0.563,-1l0.312,-1.126l0.125,-1.125l0,-29.571l-0.125,-1.125l-0.312,-1.125l-0.563,-1.001l-0.687,-0.875l-0.938,-0.75l-1,-0.562l-1.125,-0.314l-1.125,-0.125l-70.875,0l-1.188,0.125l-1.062,0.314l-1.063,0.562l-0.875,0.75l-0.751,0.875l-0.499,1.001l-0.375,1.125l-0.125,1.125l-0,29.571l0.125,1.125l0.375,1.126l0.499,1l0.751,0.938l0.875,0.687l1.063,0.564l1.062,0.312l1.188,0.125Zm194.876,-0l70.875,-0l1.126,-0.125l1.125,-0.312l0.998,-0.564l0.939,-0.687l0.686,-0.938l0.564,-1l0.375,-1.126l0.061,-1.125l0,-17.755l-0.124,-2.126l-0.375,-2.062l-0.626,-2.064l-0.874,-1.938l-1.125,-1.875l-1.312,-1.689l-1.501,-1.5l-1.687,-1.313l-1.812,-1.125l-2,-0.875l-2,-0.625l-2.126,-0.376l-2.124,-0.125l-59.063,0l-1.125,0.125l-1.125,0.314l-0.999,0.562l-0.938,0.75l-0.75,0.875l-0.5,1.001l-0.375,1.125l-0.063,1.125l0,29.571l0.063,1.125l0.375,1.126l0.5,1l0.75,0.938l0.938,0.687l0.999,0.564l1.125,0.312l1.125,0.125Z"/></g></g><clipPath id="_clip4"><polygon id="S0x1-16sw-Arrow-90--B.afdesign" serif:id="S0x1 16sw Arrow 90° B.afdesign" points="278.15,324.803 278.15,230.315 467.126,230.315 467.126,324.803 278.15,324.803 "/></clipPath><g clip-path="url(#_clip4)"><path d="M341.142,293.307l31.496,31.496l-47.244,0l-47.244,-47.244l47.244,-47.244l47.244,-0l-31.496,31.496l125.984,0l-0,31.496l-125.984,0Z"/></g></g></svg>