<?xml version="1.0" encoding="UTF-8" standalone="no"?><!DOCTYPE svg PUBLIC "-//W3C//DTD SVG 1.1//EN" "http://www.w3.org/Graphics/SVG/1.1/DTD/svg11.dtd"><svg width="100%" height="100%" viewBox="0 0 577 520" version="1.1" xmlns="http://www.w3.org/2000/svg" xmlns:xlink="http://www.w3.org/1999/xlink" xml:space="preserve" xmlns:serif="http://www.serif.com/" style="fill-rule:evenodd;clip-rule:evenodd;stroke-linejoin:round;stroke-miterlimit:2;"><g transform="matrix(64.5901,0,0,64.5901,383.091,306.077)"></g><text x="194.588px" y="306.077px" style="font-family:'ArialMT', 'Arial', sans-serif;font-size:64.59px;">sw=44</text><clipPath id="_clip1"><rect x="0" y="0" width="576.543" height="519.685"/></clipPath><g clip-path="url(#_clip1)"><rect id="Cycle-Left" serif:id="Cycle Left" x="0" y="0" width="576.543" height="519.685" style="fill:none;"/><clipPath id="_clip2"><rect x="0" y="0" width="576.543" height="519.685"/></clipPath><g clip-path="url(#_clip2)"><g><path d="M576.519,35.433c0,-19.556 -15.877,-35.433 -35.433,-35.433l-505.676,0c-19.556,0 -35.433,15.877 -35.433,35.433l-0,448.819c-0,19.556 15.877,35.433 35.433,35.433l505.676,0c19.556,0 35.433,-15.877 35.433,-35.433l0,-448.819Z"/><path d="M558.803,35.434c-0,-9.778 -7.939,-17.717 -17.717,-17.717l-505.676,0c-9.778,0 -17.717,7.939 -17.717,17.717l0,448.817c0,9.778 7.939,17.717 17.717,17.717l505.676,-0c9.778,-0 17.717,-7.939 17.717,-17.717l-0,-448.817Z" style="fill:#fff;"/><path d="M222.103,47.237l-1.48,0.08l-1.44,0.201l-1.4,0.36l-1.36,0.479l-1.32,0.601l-1.28,0.76l-1.161,0.84l-1.12,0.96l-1,1.08l-0.88,1.16l-0.76,1.241l-0.64,1.319l-0.52,1.361l-0.399,1.4l-0.241,1.44l-0.12,1.441l0.04,1.479l0.16,1.441l0.32,1.399l0.44,1.401l0.6,1.36l0.681,1.24l0.839,1.24l0.92,1.121l1.041,1l1.16,0.92l1.2,0.8l0.72,0.52l0.6,0.64l0.48,0.72l0.319,0.801l0.161,0.879l0.04,0.88l-0.161,0.84l-12.28,45.805l-2.801,-0.96l-2.84,-0.8l-2.92,-0.679l-2.92,-0.521l-2.96,-0.399l-2.961,-0.201l-2.96,-0.04l-2.96,0.081l-2.96,0.279l-2.96,0.4l-2.921,0.56l-2.88,0.721l-2.84,0.84l-2.801,1.04l-2.72,1.12l-2.68,1.32l-2.6,1.44l-2.52,1.56l-2.441,1.721l-2.319,1.8l-2.241,1.96l-2.16,2.04l-2,2.201l-1.92,2.279l-1.8,2.361l-1.681,2.441l-1.52,2.559l-1.4,2.6l-1.24,2.721l-1.12,2.76l-0.96,2.801l-0.84,2.84l-0.681,2.88l-0.519,2.96l-0.36,2.921l-0.201,2.961l-0.04,2.96l0.08,3l0.281,2.961l0.4,2.92l0.56,2.92l0.719,2.88l0.88,2.841l1.001,2.8l1.16,2.721l1.32,2.68l1.44,2.6l1.56,2.52l1.72,2.44l1.8,2.321l1.96,2.24l2.081,2.161l2.16,2l2.28,1.92l2.361,1.8l2.48,1.64l2.52,1.561l2.64,1.359l2.68,1.281l2.76,1.12l2.801,0.96l2.88,0.8l2.88,0.68l2.921,0.52l2.96,0.361l2.96,0.199l2.96,0.04l3,-0.12l2.921,-0.24l2.96,-0.44l2.92,-0.56l2.88,-0.721l2.841,-0.88l2.8,-1l2.72,-1.16l2.68,-1.319l2.601,-1.441l2.52,-1.56l2.4,-1.72l2.361,-1.841l2.239,-1.92l2.12,-2.08l2.041,-2.16l1.88,-2.28l1.8,-2.401l1.64,-2.44l1.56,-2.56l1.36,-2.64l1.281,-2.68l1.08,-2.761l0.96,-2.801l0.84,-2.88l0.64,-2.88l0.52,-2.92l0.36,-2.961l0.2,-2.96l0.04,-2.96l-0.08,-2.96l-0.28,-2.961l-0.44,-2.96l-0.561,-2.921l-0.719,-2.88l-0.88,-2.841l-1,-2.76l-1.201,-2.76l-1.28,-2.641l-1.44,-2.6l-1.6,-2.52l-1.72,-2.44l-1.8,-2.321l-1.96,-2.24l-2.081,-2.12l-2.16,-2.04l-2.28,-1.881l-2.4,-1.8l1.84,-6.841l65.685,45.966l-0.519,1.92l-0.361,1.92l-0.2,1.96l-0,1.96l0.12,2.001l0.32,1.92l0.441,1.921l0.64,1.88l0.759,1.84l0.92,1.72l1.081,1.68l1.2,1.56l1.32,1.44l1.44,1.361l1.561,1.2l1.639,1.08l1.76,0.96l1.8,0.8l1.881,0.64l1.88,0.48l1.96,0.321l1.96,0.16l2.001,-0l1.96,-0.2l1.92,-0.321l1.92,-0.479l3.56,7.64l-6.4,0l-0,7.561l6.4,-0l0.68,0.801l0.76,0.719l0.92,0.56l0.96,0.4l1.04,0.241l1.041,0.119l1.08,-0.119l1.04,-0.241l0.96,-0.4l0.88,-0.56l0.8,-0.719l0.68,-0.801l6.399,-0l0,-7.561l-9.919,0l-4.881,-10.441l1.64,-1.2l1.561,-1.28l1.399,-1.441l1.321,-1.559l1.16,-1.68l1,-1.761l0.84,-1.84l0.72,-1.88l0.52,-1.961l5.56,0l0.321,2.921l0.519,2.92l0.64,2.92l0.801,2.841l0.96,2.8l1.08,2.76l1.24,2.68l1.4,2.641l1.52,2.52l1.639,2.481l1.761,2.36l1.92,2.28l2.001,2.201l2.12,2.08l2.199,1.96l2.362,1.8l2.399,1.72l2.521,1.601l2.56,1.439l2.681,1.321l2.719,1.16l2.76,1.04l2.841,0.88l2.88,0.76l2.88,0.56l2.96,0.44l2.921,0.281l2.96,0.12l2.961,-0.04l2.96,-0.201l2.96,-0.32l2.919,-0.519l2.881,-0.641l2.88,-0.8l2.801,-0.92l2.761,-1.12l2.678,-1.201l2.64,-1.399l2.562,-1.481l2.44,-1.64l2.4,-1.76l2.281,-1.92l2.199,-2l2.04,-2.12l1.96,-2.201l1.88,-2.32l1.721,-2.44l1.559,-2.481l1.482,-2.6l1.319,-2.641l1.16,-2.72l1.039,-2.76l0.881,-2.84l0.761,-2.88l0.599,-2.881l0.44,-2.921l0.281,-2.96l0.119,-2.96l-0.04,-2.961l-0.16,-2.96l-0.36,-2.96l-0.48,-2.92l-0.639,-2.881l-0.761,-2.88l-0.96,-2.8l-1.08,-2.761l-1.239,-2.68l-1.362,-2.64l-1.479,-2.561l-1.641,-2.48l-1.759,-2.36l-1.881,-2.321l-2,-2.159l-2.12,-2.081l-2.201,-1.96l-2.32,-1.88l-2.44,-1.721l-2.48,-1.6l-2.56,-1.44l-2.68,-1.32l-2.72,-1.2l-2.761,-1.04l-2.84,-0.92l-2.84,-0.721l-2.92,-0.6l-2.92,-0.439l-2.96,-0.32l-2.96,-0.121l-2.962,0l-2.96,0.201l-2.96,0.319l-2.92,0.481l-2.88,0.639l-2.841,0.761l-2.84,0.96l-2.759,1.079l-22.364,-38.764l4.362,-12.001l1.599,-0.2l1.561,-0.36l1.559,-0.52l1.481,-0.64l1.399,-0.8l1.362,-0.92l1.239,-1.04l1.12,-1.16l1.041,-1.281l0.88,-1.359l0.76,-1.401l0.639,-1.521l0.441,-1.559l0.08,-0.48l-0.08,-0.48l-0.2,-0.441l-0.281,-0.399l-0.399,-0.281l-0.441,-0.2l-0.479,-0.08l-48.884,-0l-0.8,0.08l-0.8,0.2l-0.72,0.361l-0.681,0.439l-0.559,0.561l-0.481,0.68l-0.359,0.719l-0.24,0.801l-0.08,0.8l0.04,0.8l0.2,0.8l0.32,0.72l0.44,0.68l0.56,0.6l0.64,0.481l0.72,0.399l0.8,0.24l21.842,4.841l-5.161,14.162l-103.488,-0l2.28,-8.481l0.28,-1.4l0.12,-1.361l-0,-1.4l-0.12,-1.4l-0.32,-1.361l-0.44,-1.359l-0.56,-1.24l-0.72,-1.241l-0.841,-1.12l-0.96,-1l-2.199,-1.76l-0.521,-0.401l-0.399,-0.519l-0.28,-0.6l-0.12,-0.681l0.04,-0.639l0.2,-0.64l0.319,-0.601l0.441,-0.479l0.559,-0.361l0.641,-0.24l0.64,-0.08l21.721,-0l0,-14.162l-26.442,0Zm-36.802,92.611l2.479,0.161l2.481,0.28l2.44,0.439l2.44,0.64l2.36,0.721l2.32,0.92l-2.599,9.721l-0.721,2.44l-0.88,2.36l-1.08,2.321l-1.2,2.2l-1.32,2.16l-1.481,2.041l-1.639,1.96l-1.72,1.8l-1.88,1.72l-2.001,1.6l-2.04,1.44l-0.761,0.52l-0.599,0.681l-0.52,0.759l-0.4,0.84l-0.24,0.88l-0.121,0.88l0.04,0.921l0.201,0.88l0.32,0.88l0.48,0.76l0.6,0.72l0.68,0.601l0.76,0.479l0.84,0.361l0.881,0.2l0.92,0.08l0.92,-0.08l2.08,-0.481l2.04,-0.599l2,-0.721l1.96,-0.88l1.84,-1l1.8,-1.161l1.72,-1.279l1.641,-1.361l1.52,-1.519l1.4,-1.601l1.279,-1.68l1.201,-1.76l1.04,-1.88l0.88,-1.92l0.8,-2.001l0.6,-2.04l3.201,-11.882l1.72,1.801l1.599,1.92l1.481,2.001l1.32,2.12l1.2,2.159l1.08,2.241l0.92,2.32l0.801,2.36l0.599,2.441l0.48,2.441l0.32,2.479l0.201,2.481l-0,2.48l-0.161,2.481l-0.28,2.479l-0.479,2.441l-0.601,2.44l-0.76,2.36l-0.92,2.321l-1.04,2.28l-1.2,2.16l-1.32,2.12l-1.44,2.041l-1.6,1.92l-1.681,1.8l-1.84,1.721l-1.88,1.599l-2.04,1.481l-2.08,1.36l-2.201,1.2l-2.239,1.08l-2.321,0.92l-2.36,0.76l-2.4,0.641l-2.44,0.479l-2.48,0.321l-2.481,0.16l-2.48,0.04l-2.52,-0.16l-2.44,-0.321l-2.481,-0.439l-2.399,-0.601l-2.361,-0.76l-2.36,-0.92l-2.241,-1.04l-2.199,-1.2l-2.12,-1.321l-2.001,-1.439l-1.92,-1.601l-1.84,-1.68l-1.72,-1.8l-1.6,-1.92l-1.481,-2l-1.319,-2.121l-1.241,-2.16l-1.04,-2.241l-0.96,-2.319l-0.76,-2.361l-0.64,-2.441l-0.48,-2.439l-0.32,-2.441l-0.16,-2.52l-0.04,-2.481l0.16,-2.479l0.28,-2.481l0.48,-2.44l0.6,-2.441l0.76,-2.359l0.88,-2.321l1.08,-2.24l1.16,-2.201l1.321,-2.12l1.48,-2.04l1.56,-1.92l1.68,-1.8l1.84,-1.72l1.88,-1.6l2.04,-1.481l2.081,-1.36l2.16,-1.2l2.28,-1.08l2.28,-0.92l2.36,-0.801l2.441,-0.64l2.44,-0.48l2.48,-0.319l2.48,-0.161l2.481,-0.04Zm205.776,0l2.48,0l2.521,0.201l2.479,0.319l2.441,0.48l2.441,0.64l2.398,0.761l2.322,0.96l2.24,1.08l2.2,1.2l2.12,1.36l2,1.48l1.92,1.601l1.801,1.72l1.72,1.84l1.56,1.96l1.48,2.04l1.32,2.12l1.2,2.201l1.04,2.28l0.88,2.36l0.761,2.361l0.599,2.44l0.441,2.48l0.319,2.481l0.119,2.48l-0.04,2.52l-0.199,2.52l-0.319,2.481l-0.521,2.44l-0.639,2.4l-0.8,2.4l-0.96,2.321l-1.081,2.24l-1.24,2.161l-1.36,2.119l-1.52,2.001l-1.641,1.92l-1.72,1.8l-1.84,1.68l-1.961,1.561l-2.039,1.44l-2.161,1.32l-2.2,1.16l-2.279,1.04l-2.361,0.88l-2.4,0.72l-2.44,0.6l-2.481,0.4l-2.479,0.281l-2.481,0.119l-2.52,-0.04l-2.48,-0.199l-2.48,-0.401l-2.481,-0.479l-2.399,-0.681l-2.361,-0.84l-2.32,-0.96l-2.24,-1.12l-2.16,-1.241l-2.08,-1.399l-2.001,-1.521l-1.92,-1.64l-1.761,-1.76l-1.679,-1.84l-1.56,-1.96l-1.441,-2.08l-1.28,-2.161l-1.159,-2.2l-1,-2.321l-0.881,-2.319l-0.72,-2.401l-0.56,-2.441l-0.4,-2.48l41.524,0l0.92,-0.08l0.88,-0.239l0.799,-0.4l0.76,-0.521l0.641,-0.64l0.519,-0.719l0.401,-0.84l0.199,-0.88l0.08,-0.881l-0.08,-0.92l-0.199,-0.88l-0.401,-0.8l-10.04,-17.382l-10.041,-17.382l2.401,-0.76l2.439,-0.64l2.441,-0.44l2.48,-0.32l2.52,-0.161Zm-83.927,24.563l1.48,0.08l1.481,0.2l1.439,0.36l1.401,0.52l1.32,0.641l1.28,0.76l1.2,0.88l1.08,1l1,1.08l0.88,1.2l0.761,1.28l0.64,1.32l0.519,1.401l0.361,1.439l0.2,1.481l0.08,1.48l-0.08,1.48l-0.2,1.48l-0.361,1.44l-0.519,1.4l-0.64,1.321l-0.761,1.28l-0.88,1.2l-1,1.08l-1.08,1.001l-1.2,0.88l-1.28,0.759l-1.32,0.64l-1.401,0.521l-1.439,0.359l-1.481,0.2l-1.48,0.08l-1.48,-0.08l-1.48,-0.2l-1.44,-0.359l-1.4,-0.521l-1.32,-0.64l-1.281,-0.759l-1.2,-0.88l-1.079,-1.001l-1,-1.08l-0.881,-1.2l-0.76,-1.28l-0.64,-1.321l-0.52,-1.4l-0.36,-1.44l-0.2,-1.48l-0.08,-1.48l0.08,-1.48l0.2,-1.481l0.36,-1.439l0.52,-1.401l0.64,-1.32l0.76,-1.28l0.881,-1.2l1,-1.08l1.079,-1l1.2,-0.88l1.281,-0.76l1.32,-0.641l1.4,-0.52l1.44,-0.36l1.48,-0.2l1.48,-0.08Zm59.365,-15.161l14.481,25.083l-28.163,-0l0.401,-2.401l0.559,-2.36l0.681,-2.36l0.801,-2.281l0.96,-2.24l1.12,-2.161l1.239,-2.12l1.36,-2l1.481,-1.96l1.599,-1.84l1.681,-1.72l1.8,-1.64Zm-25.042,-43.365l16.44,28.482l-2.279,1.841l-2.199,1.961l-2.081,2.04l-2,2.159l-1.881,2.281l-1.72,2.36l-1.641,2.48l-1.479,2.521l-1.36,2.6l-1.24,2.681l-1.08,2.72l-0.92,2.8l-0.801,2.84l-0.64,2.88l-0.519,2.881l-0.322,2.921l-5.559,-0l-0.52,-2l-0.72,-1.922l-0.88,-1.84l-1.04,-1.76l-1.16,-1.679l-1.321,-1.601l-1.479,-1.44l-1.561,-1.32l19.962,-54.886Zm-116.489,-1.961l102.128,0l-18.921,52.006l-2.001,0l-2,0.16l-2,0.32l-1.92,0.52l-3.561,-7.64l6.401,-0l0,-7.562l-6.401,0l-0.68,-0.799l-0.799,-0.72l-0.88,-0.561l-0.96,-0.399l-1.041,-0.281l-1.08,-0.08l-1.04,0.08l-1.04,0.281l-0.96,0.399l-0.92,0.561l-0.801,0.72l-0.64,0.799l-6.4,0l-0,7.562l9.921,-0l4.881,10.441l-1.521,1.08l-69.886,-48.966l2.121,-7.921Z"/><g><g><g><rect id="path1750" x="419.207" y="389.76" width="57.159" height="94.491" style="fill:#fff;"/><path id="path1752" d="M455.787,430.84l-0.341,-1.67l-0.75,-1.58l-1,-1.34l-1.25,-1.079l-1.75,-0.75l-1.91,-0.33l-1.92,0.083l-1.83,0.329l-1.84,0.75l-1.5,1.001l-1.33,1.25l-1,1.5l-0.67,1.59l-0.16,1.66l-0,28.33l-12.92,0l-0,-47.161l12.92,0l-0,3.33l1.91,-1.5l2.09,-1.25l2.16,-0.909l2.339,-0.591l2.33,-0.329l2.42,0.083l2.75,0.499l2.41,0.84l2.33,1.16l2.09,1.42l1.91,1.67l1.67,1.91l1.42,2.17l1.08,2.5l0.75,2.58l0.42,2.67l0.161,2.75l-0,28.16l-12.91,0l12.91,0l-12.91,0l-0,-28.08l-0.079,-1.666Z" style="fill:#010001;fill-rule:nonzero;"/></g><g><rect id="path1806" x="476.366" y="389.764" width="52.909" height="94.491" style="fill:#fff;"/><path id="path1808" d="M501.866,412.174l-2.42,0.17l-2.41,0.41l-2.34,0.75l-2.25,1.09l-2.08,1.25l-2.25,1.66l-2.08,2l-1.75,2.25l-1.42,2.42l-1.17,3l-0.831,3.17l-0.499,3.16l-0.17,3.25l0.25,3.25l0.591,3.17l0.909,3.08l1.169,3l1.08,2.17l1.42,2l1.5,1.83l1.83,1.67l1.92,1.411l2.08,1.25l2.25,0.92l2.34,0.669l2.99,0.58l3.09,0.251l3.079,-0.083l3.08,-0.34l3,-0.66l2.34,-0.84l2.16,-1.08l2,-1.42l1.83,-1.67l1.67,-1.83l-8,-8.08l-1.83,1.67l-2.08,1.33l-2.25,1.001l-2.169,0.579l-2.17,0.171l-2.16,-0.083l-2.17,-0.421l-2.08,-0.75l-1.42,-0.92l-1.25,-1.16l-1.001,-1.34l-0.75,-1.5l-0.409,-1.66l-0.171,-1.67l31.5,0l-0.17,-3.92l-0.421,-3.91l-0.83,-3.83l-1.17,-3.75l-1.08,-2.5l-1.42,-2.25l-1.66,-2.17l-2,-1.83l-2.17,-1.59l-2.08,-1.25l-2.25,-0.91l-2.42,-0.669l-2.42,-0.421l-2.407,-0.075Zm-0.251,10.75l1.66,-0l1.67,0.329l1.58,0.59l1.42,0.83l1.33,1.08l1.09,1.25l0.831,1.42l0.58,1.58l0.25,1.67l-19.16,-0l0.251,-1.67l0.58,-1.58l0.839,-1.42l1.08,-1.25l1.33,-1.08l1.42,-0.83l1.58,-0.59l1.669,-0.329Z" style="fill:#010001;fill-rule:nonzero;"/></g><g><rect id="path1742" x="335.129" y="389.764" width="30.749" height="94.491" style="fill:#fff;"/><path id="path1744" d="M362.048,449.004l-2.5,0.33l-2.5,0.094l-0.92,-0.094l-0.75,-0.41l-0.66,-0.67l-0.42,-0.75l-0.17,-0.92l-0,-52.071l-12.91,0l-0,57.321l0.161,1.75l0.499,1.67l0.75,1.58l1.001,1.5l1.25,1.25l1.42,1.001l1.67,0.669l1.659,0.5l1.75,0.17l4.08,-0.34l4,-0.5l4,-0.75l-1.41,-11.33Z" style="fill:#010001;fill-rule:nonzero;"/></g><g><rect id="path1698" x="365.878" y="389.76" width="53.329" height="94.491" style="fill:#fff;"/><path id="path1700" d="M390.708,411.51l-3.08,0.16l-3,0.58l-3.75,1.091l-3.67,1.41l-3.5,1.67l-3.41,1.92l6.33,9.66l2.58,-1.58l2.67,-1.25l2.83,-1.001l2.92,-0.75l3,-0.42l1.66,-0.083l1.75,0.33l1.58,0.589l0.92,0.58l0.75,0.83l0.499,0.92l0.171,1.08l-0,3l-4.17,0.17l-4.08,0.5l-4.08,0.75l-4,1.079l-3.92,1.42l-1.66,1.001l-1.59,1.25l-1.42,1.5l-1.16,1.58l-0.92,1.83l-0.66,1.92l-0.34,2l-0.083,2l0.17,2l0.49,1.92l0.76,1.91l1,1.75l1.24,1.59l1.42,1.41l1.67,1.171l2.41,1.16l2.59,0.92l2.75,0.589l2.75,0.33l2.75,-0.083l2.66,-0.34l2.67,-0.661l1.42,-0.669l1.33,-0.831l1.079,-1l0.92,-1.25l1.001,1.33l1.249,1l1.421,0.75l2.579,1.001l2.66,0.58l2.75,0.329l4.59,-10.08l-1.09,0l-1.079,-0.159l-1.08,-0.5l-0.84,-0.67l-0.66,-0.92l-0.42,-1l-0.171,-1.16l0,-22.33l-0.16,-1.84l-0.421,-1.83l-0.75,-1.67l-0.92,-1.58l-1.25,-1.501l-1.41,-1.17l-1.59,-1l-2.25,-0.99l-2.409,-0.84l-2.92,-0.83l-3.08,-0.421l-2.996,-0.151Zm7.25,28.07l-0,6.75l-0.17,1.25l-0.58,1.171l-0.75,1l-1.091,0.75l-1.159,0.421l-2.33,0.329l-2.34,0l-2.33,-0.329l-1.171,-0.421l-1,-0.75l-0.83,-0.92l-0.58,-1.079l-0.34,-1.08l-0,-1.171l0.34,-1.17l0.58,-0.911l0.83,-0.839l1,-0.58l3.92,-1.001l2.28,-0.47l1.72,-0.36l4.001,-0.59Z" style="fill:#010001;fill-rule:nonzero;"/></g></g><g><g><rect id="path18061" serif:id="path1806" x="252.692" y="389.76" width="52.909" height="94.491" style="fill:#fff;"/><path id="path18081" serif:id="path1808" d="M278.192,412.17l-2.42,0.17l-2.41,0.41l-2.34,0.75l-2.25,1.09l-2.08,1.25l-2.25,1.66l-2.08,2l-1.75,2.25l-1.42,2.42l-1.17,3l-0.831,3.17l-0.499,3.16l-0.17,3.25l0.25,3.25l0.591,3.17l0.909,3.08l1.169,3l1.08,2.17l1.42,2l1.5,1.831l1.83,1.67l1.92,1.41l2.08,1.25l2.25,0.92l2.34,0.669l2.99,0.58l3.09,0.251l3.08,-0.083l3.079,-0.34l3,-0.66l2.34,-0.84l2.16,-1.08l2,-1.42l1.83,-1.67l1.67,-1.83l-8,-8.08l-1.83,1.67l-2.079,1.33l-2.25,1.001l-2.17,0.58l-2.17,0.17l-2.16,-0.083l-2.17,-0.421l-2.08,-0.75l-1.42,-0.92l-1.25,-1.16l-1.001,-1.34l-0.75,-1.5l-0.409,-1.66l-0.17,-1.67l31.499,0l-0.17,-3.92l-0.421,-3.91l-0.83,-3.83l-1.17,-3.75l-1.08,-2.5l-1.42,-2.25l-1.66,-2.17l-2,-1.83l-2.17,-1.59l-2.08,-1.25l-2.25,-0.91l-2.42,-0.669l-2.419,-0.421l-2.408,-0.075Zm-0.251,10.75l1.66,-0l1.67,0.33l1.58,0.589l1.42,0.83l1.33,1.08l1.09,1.25l0.831,1.42l0.58,1.58l0.25,1.67l-19.16,-0l0.251,-1.67l0.58,-1.58l0.84,-1.42l1.079,-1.25l1.33,-1.08l1.42,-0.83l1.58,-0.589l1.669,-0.33Z" style="fill:#010001;fill-rule:nonzero;"/></g><g><rect id="path17421" serif:id="path1742" x="221.943" y="389.76" width="30.749" height="94.491" style="fill:#fff;"/><path id="path17441" serif:id="path1744" d="M248.862,449l-2.5,0.33l-2.499,0.094l-0.921,-0.094l-0.75,-0.41l-0.66,-0.67l-0.42,-0.75l-0.17,-0.92l-0,-52.07l-12.91,-0l-0,57.32l0.161,1.75l0.499,1.67l0.75,1.58l1.001,1.5l1.25,1.25l1.42,1.001l1.67,0.669l1.659,0.5l1.751,0.17l4.079,-0.34l4,-0.5l4,-0.75l-1.41,-11.33Z" style="fill:#010001;fill-rule:nonzero;"/></g><g><rect id="path1798" x="170.454" y="389.76" width="51.489" height="94.491" style="fill:#fff;"/><path id="path1800" d="M187.863,443.83l0.67,1.5l1.171,1.84l1.5,1.66l1.75,1.25l2.079,0.84l1.83,0.251l1.92,-0.251l2,-0.84l1.75,-1.25l1.5,-1.66l1.25,-1.84l1.001,-2.66l11.999,4.5l-0.25,0.5l-1.17,2.75l-1.5,2.5l-1.75,2.25l-2.08,2.08l-2.34,1.75l-2.33,1.25l-2.33,0.92l-2.5,0.75l-2.59,0.41l-2.58,0.17l-2.58,-0.17l-2.5,-0.41l-2.5,-0.75l-2.42,-0.92l-2.25,-1.25l-2.33,-1.75l-2.08,-2.08l-1.84,-2.25l-1.5,-2.5l-1.159,-2.75l-0.171,-0.5l-0.83,-3.34l-0.499,-3.41l-0.171,-3.42l0.171,-3.41l0.499,-3.34l0.83,-3.33l0.171,-0.58l1.159,-2.67l1.5,-2.5l1.84,-2.33l2.08,-2l2.33,-1.84l2.25,-1.16l2.42,-1l2.5,-0.67l2.5,-0.5l2.58,-0.17l2.58,0.17l2.59,0.5l2.5,0.67l2.33,1l2.33,1.16l2.34,1.84l2.08,2l1.75,2.33l1.5,2.5l1.17,2.67l0.25,0.58l-11.999,4.42l-1.001,-2.67l-1.25,-1.83l-1.5,-1.59l-1.75,-1.25l-2,-0.83l-1.92,-0.251l-1.83,0.251l-2.079,0.83l-1.75,1.25l-1.5,1.59l-1.171,1.83l-0.67,1.58l-0.499,1.59l-0.251,2.58l-0.16,2.58l0.16,2.67l0.251,2.58l0.499,1.58Z" style="fill:#010001;fill-rule:nonzero;"/></g><g><rect id="path1762" x="119.459" y="389.76" width="50.995" height="94.491" style="fill:#fff;"/><path id="path1764" d="M133.371,475.92l-4.581,-0.41l-4.5,-0.75l1.58,-11.341l6.67,0.92l1.081,-0.083l1,-0.341l1,-0.58l0.751,-0.75l0.5,-0.92l0.341,-1.08l-0,-1.08l-0.171,-1.09l-16.161,-45.075l12.991,0l10.251,28.583l10.251,-28.583l13.081,0l-20.082,55.997l-0.75,1.58l-1,1.5l-1.251,1.25l-1.41,1l-1.59,0.75l-1.75,0.42l-1.75,0.17l-4.501,-0.087Z" style="fill:#010001;fill-rule:nonzero;"/></g><g id="C"><rect id="path1622" x="47.221" y="389.76" width="72.239" height="94.491" style="fill:#fff;"/><path id="path1624" d="M87.38,449.09l2.25,-0.42l2.17,-0.75l1.91,-1.08l1.83,-1.34l1.5,-1.58l1.34,-1.75l1.079,-1.92l0.75,-2.08l0.5,-2.17l13.5,5.42l-1.171,3l-1.41,2.83l-1.67,2.75l-2.17,2.67l-2.41,2.5l-2.67,2l-2.92,1.67l-3,1.411l-3.159,1l-3.33,0.67l-3.34,0.25l-3.75,0l-3.33,-0.25l-3.25,-0.67l-3.17,-1l-3.08,-1.411l-2.83,-1.67l-2.67,-2l-2.5,-2.58l-2.25,-2.75l-1.91,-3l-1.59,-3.17l-1.25,-3.33l-1,-3.42l-0.58,-3.5l-0.25,-3.5l-0,-4.75l0.25,-3.58l0.58,-3.5l1,-3.42l1.25,-3.25l1.59,-3.16l1.91,-3l2.25,-2.83l2.5,-2.5l2.67,-2l2.83,-1.75l3.08,-1.34l3.17,-1.001l3.25,-0.66l3.33,-0.25l3.75,-0l3.34,0.25l3.33,0.66l3.159,1.001l3,1.34l2.92,1.75l2.67,2l2.5,2.5l2.16,2.83l2.34,4.08l1.83,4.33l-13.5,5.34l-0.579,-2.25l-0.84,-2.25l-1.16,-2l-1.5,-1.92l-1.75,-1.58l-1.92,-1.34l-1.91,-0.831l-1.92,-0.579l-2,-0.33l-2,-0.17l-2.08,0.17l-2.09,0.33l-2,0.669l-1.91,0.831l-1.75,1.079l-1.59,1.42l-1.41,1.5l-1.17,1.75l-1,1.83l-0.67,1.92l-0.83,3.41l-0.421,3.42l-0.083,3.42l0.083,3.5l0.421,3.41l0.83,3.331l0.67,2l1,1.84l1.17,1.75l1.41,1.5l1.59,1.33l1.75,1.17l1.91,0.831l2,0.579l2.09,0.421l2.08,0.083l2.251,-0.164Z" style="fill:#010001;fill-rule:nonzero;"/></g></g></g><clipPath id="_clip3"><polygon id="_16sw-Arrow-90--Black.afdesign" serif:id="16sw Arrow 90° Black.afdesign" points="193.76,360.231 193.76,265.74 382.736,265.74 382.736,360.231 193.76,360.231 "/></clipPath><g clip-path="url(#_clip3)"><path d="M382.736,297.27l0,31.521l-126.287,-0l31.339,31.44l-47.009,0l-47.019,-47.201l47.019,-47.29l47.009,-0l-31.339,31.53l126.287,0Z" style="fill:#010001;"/></g></g></g></g></svg>