<?xml version="1.0" encoding="UTF-8" standalone="no"?><!DOCTYPE svg PUBLIC "-//W3C//DTD SVG 1.1//EN" "http://www.w3.org/Graphics/SVG/1.1/DTD/svg11.dtd"><svg width="100%" height="100%" viewBox="0 0 697 508" version="1.1" xmlns="http://www.w3.org/2000/svg" xmlns:xlink="http://www.w3.org/1999/xlink" xml:space="preserve" xmlns:serif="http://www.serif.com/" style="fill-rule:evenodd;clip-rule:evenodd;stroke-linejoin:round;stroke-miterlimit:2;"><g transform="matrix(64.5901,0,0,64.5901,443.073,276.739)"></g><text x="254.57px" y="276.739px" style="font-family:'ArialMT', 'Arial', sans-serif;font-size:64.59px;">sw=43</text><rect id="C-Lane-R" serif:id="C Lane R" x="0" y="0" width="696.697" height="507.874" style="fill:none;"/><clipPath id="_clip1"><rect x="0" y="0" width="696.697" height="507.874"/></clipPath><g clip-path="url(#_clip1)"><path d="M696.694,35.433c-0,-19.556 -15.878,-35.433 -35.434,-35.433l-625.827,-0c-19.556,-0 -35.433,15.877 -35.433,35.433l-0,437.008c-0,19.556 15.877,35.433 35.433,35.433l625.827,0c19.556,0 35.434,-15.877 35.434,-35.433l-0,-437.008Z" style="fill:#fff;"/><path d="M696.694,35.433l-0,437.008c-0,19.556 -15.878,35.433 -35.434,35.433l-625.827,0c-19.556,0 -35.433,-15.877 -35.433,-35.433l-0,-437.008c-0,-19.556 15.877,-35.433 35.433,-35.433l625.827,-0c19.556,-0 35.434,15.877 35.434,35.433Zm-1.182,0c0,-18.904 -15.347,-34.252 -34.252,-34.252l-625.827,0c-18.904,0 -34.252,15.348 -34.252,34.252l0,437.008c0,18.904 15.348,34.252 34.252,34.252l625.827,-0c18.905,-0 34.252,-15.348 34.252,-34.252l0,-437.008Z" style="fill:#0079c1;"/><path d="M678.977,37.795c-0,-9.778 -7.939,-17.716 -17.717,-17.716l-625.827,-0c-9.778,-0 -17.716,7.938 -17.716,17.716l-0,437.008c-0,9.778 7.938,17.717 17.716,17.717l625.827,-0c9.778,-0 17.717,-7.939 17.717,-17.717l-0,-437.008Z" style="fill:#0079c1;"/><rect x="584.449" y="53.15" width="62.362" height="94.488" style="fill:#0079c1;"/><path d="M637.253,113.84l-31.883,0l-0,-18.146l27.389,-0l0,-10.176l-27.389,-0l-0,-17.468l30.018,-0l-0,-10.176l-41.381,0l-0,66.142l43.246,-0l0,-10.176Z" style="fill:#fff;fill-rule:nonzero;"/><rect x="440.827" y="53.15" width="64.252" height="94.488" style="fill:#0079c1;"/><path d="M462.862,101.969l10.006,-31.969l10.176,31.969l-20.182,-0Zm17.044,-44.095l-14.076,0l-21.284,66.142l11.363,-0l3.985,-12.381l26.287,0l3.816,12.381l11.363,-0l-21.454,-66.142Z" style="fill:#fff;fill-rule:nonzero;"/><rect x="390.276" y="53.15" width="50.551" height="94.488" style="fill:#0079c1;"/><path d="M438.465,113.84l-26.966,0l0,-55.966l-11.362,0l-0,66.142l38.328,-0l-0,-10.176Z" style="fill:#fff;fill-rule:nonzero;"/><rect x="505.079" y="53.15" width="79.37" height="94.488" style="fill:#0079c1;"/><path d="M572.662,57.874l-11.362,0l-0,47.062l-32.563,-47.062l-11.871,0l-0,66.142l11.363,-0l-0,-47.063l32.562,47.063l11.871,-0l0,-66.142Z" style="fill:#fff;fill-rule:nonzero;"/><rect x="49.882" y="53.15" width="69.921" height="94.488" style="fill:#0079c1;"/><path d="M113.419,74.409c-3.561,-11.871 -13.737,-19.164 -27.219,-19.164c-19.843,0 -29.934,15.942 -29.934,34.767c0,18.062 10.176,34.004 29.934,34.004c13.822,-0 22.556,-6.53 27.05,-18.825l-10.43,-3.477c-2.459,7.632 -8.395,12.126 -16.451,12.126c-14.076,0 -18.486,-11.532 -18.486,-24.082c0,-12.974 5.088,-24.422 19.249,-24.422c8.565,0 13.992,6.19 16.027,12.72l10.26,-3.647Z" style="fill:#fff;fill-rule:nonzero;"/><rect x="177.914" y="53.15" width="69.921" height="94.488" style="fill:#0079c1;"/><path d="M241.451,74.409c-3.562,-11.871 -13.737,-19.164 -27.22,-19.164c-19.842,0 -29.933,15.942 -29.933,34.767c-0,18.062 10.175,34.004 29.933,34.004c13.822,-0 22.556,-6.53 27.05,-18.825l-10.43,-3.477c-2.459,7.632 -8.395,12.126 -16.45,12.126c-14.077,0 -18.486,-11.532 -18.486,-24.082c-0,-12.974 5.088,-24.422 19.249,-24.422c8.564,0 13.991,6.19 16.026,12.72l10.261,-3.647Z" style="fill:#fff;fill-rule:nonzero;"/><rect x="298.386" y="53.15" width="62.362" height="94.488" style="fill:#0079c1;"/><path d="M351.19,113.84l-31.883,0l-0,-18.146l27.389,-0l0,-10.176l-27.389,-0l-0,-17.468l30.018,-0l-0,-10.176l-41.381,0l-0,66.142l43.246,-0l0,-10.176Z" style="fill:#fff;fill-rule:nonzero;"/><rect x="247.835" y="53.15" width="50.551" height="94.488" style="fill:#0079c1;"/><path d="M296.024,113.84l-26.966,0l0,-55.966l-11.362,0l-0,66.142l38.328,-0l-0,-10.176Z" style="fill:#fff;fill-rule:nonzero;"/><rect x="119.803" y="53.15" width="58.11" height="94.488" style="fill:#0079c1;"/><path d="M163.698,57.874l-14.839,27.729l-14.84,-27.729l-12.041,0l21.199,39.6l0,26.542l11.363,-0l-0,-26.542l21.199,-39.6l-12.041,0Z" style="fill:#fff;fill-rule:nonzero;"/><rect id="rect2555" x="98.738" y="383.858" width="74.573" height="94.488" style="fill:#0079c1;"/><path id="path1026" d="M136.899,386.525l-4.416,0.249l-4.333,0.667l-2.748,0.918l-2.667,1.249l-2.5,1.499l-2.417,1.751l-2.166,1.917l-1.917,2.249l-1.749,2.332l-1.583,2.667l-1.334,2.917l-1.082,2.915l-0.751,3.084l-0.665,3.499l-0.334,3.582l-0.167,3.668l0.167,3.582l0.334,3.582l0.665,3.585l0.751,3.082l1.082,2.917l1.334,2.831l1.583,2.751l1.749,2.333l1.917,2.166l2.166,2l2.417,1.75l2.5,1.499l2.667,1.167l2.748,0.999l4.333,0.668l4.416,0.166l4.417,-0.166l4.333,-0.668l2.833,-0.999l2.582,-1.167l2.583,-1.499l2.334,-1.75l2.166,-2l2,-2.166l1.666,-2.333l1.666,-2.751l1.251,-2.831l1.082,-2.917l0.751,-3.082l0.667,-3.585l0.415,-3.582l0.167,-3.582l-0.167,-3.668l-0.415,-3.582l-0.667,-3.499l-0.751,-3.084l-1.082,-2.915l-1.251,-2.917l-1.666,-2.667l-1.666,-2.332l-2,-2.249l-2.166,-1.917l-2.334,-1.751l-2.583,-1.499l-2.582,-1.249l-2.833,-0.918l-4.333,-0.667l-4.417,-0.249Zm0,10.082l2.584,0.167l2.417,0.499l2.416,0.834l2.331,1.082l2.167,1.334l1.668,1.499l1.499,1.667l1.249,1.916l1.001,2.083l0.999,3.417l0.751,3.499l0.417,3.499l0.083,3.585l-0.083,3.582l-0.417,3.499l-0.751,3.501l-0.999,3.415l-1.001,2.083l-1.249,1.833l-1.499,1.75l-1.668,1.418l-2.167,1.415l-2.331,1.083l-2.416,0.75l-2.417,0.501l-2.584,0.167l-2.5,-0.167l-2.498,-0.501l-2.417,-0.75l-2.333,-1.083l-2.083,-1.415l-1.749,-1.418l-1.502,-1.75l-1.249,-1.833l-0.917,-2.083l-1.082,-3.415l-0.668,-3.501l-0.417,-3.499l-0.164,-3.582l0.164,-3.585l0.417,-3.499l0.668,-3.499l1.082,-3.417l0.917,-2.083l1.249,-1.916l1.502,-1.667l1.749,-1.499l2.083,-1.334l2.333,-1.082l2.417,-0.834l2.498,-0.499l2.5,-0.167Z" style="fill:#fff;fill-rule:nonzero;"/><rect id="rect25551" serif:id="rect2555" x="173.311" y="383.858" width="74.573" height="94.488" style="fill:#0079c1;"/><path id="path10261" serif:id="path1026" d="M211.473,386.525l-4.417,0.249l-4.333,0.667l-2.748,0.918l-2.667,1.249l-2.5,1.499l-2.417,1.751l-2.166,1.917l-1.916,2.249l-1.75,2.332l-1.582,2.667l-1.335,2.917l-1.082,2.915l-0.751,3.084l-0.665,3.499l-0.334,3.582l-0.166,3.668l0.166,3.582l0.334,3.582l0.665,3.585l0.751,3.082l1.082,2.917l1.335,2.831l1.582,2.751l1.75,2.333l1.916,2.166l2.166,2l2.417,1.75l2.5,1.499l2.667,1.167l2.748,0.999l4.333,0.668l4.417,0.166l4.416,-0.166l4.333,-0.668l2.834,-0.999l2.581,-1.167l2.584,-1.499l2.333,-1.75l2.166,-2l2,-2.166l1.666,-2.333l1.666,-2.751l1.251,-2.831l1.083,-2.917l0.75,-3.082l0.667,-3.585l0.415,-3.582l0.167,-3.582l-0.167,-3.668l-0.415,-3.582l-0.667,-3.499l-0.75,-3.084l-1.083,-2.915l-1.251,-2.917l-1.666,-2.667l-1.666,-2.332l-2,-2.249l-2.166,-1.917l-2.333,-1.751l-2.584,-1.499l-2.581,-1.249l-2.834,-0.918l-4.333,-0.667l-4.416,-0.249Zm-0,10.082l2.583,0.167l2.417,0.499l2.417,0.834l2.331,1.082l2.166,1.334l1.668,1.499l1.5,1.667l1.249,1.916l1.001,2.083l0.998,3.417l0.751,3.499l0.417,3.499l0.083,3.585l-0.083,3.582l-0.417,3.499l-0.751,3.501l-0.998,3.415l-1.001,2.083l-1.249,1.833l-1.5,1.75l-1.668,1.418l-2.166,1.415l-2.331,1.083l-2.417,0.75l-2.417,0.501l-2.583,0.167l-2.5,-0.167l-2.498,-0.501l-2.417,-0.75l-2.333,-1.083l-2.084,-1.415l-1.749,-1.418l-1.501,-1.75l-1.249,-1.833l-0.918,-2.083l-1.082,-3.415l-0.667,-3.501l-0.417,-3.499l-0.165,-3.582l0.165,-3.585l0.417,-3.499l0.667,-3.499l1.082,-3.417l0.918,-2.083l1.249,-1.916l1.501,-1.667l1.749,-1.499l2.084,-1.334l2.333,-1.082l2.417,-0.834l2.498,-0.499l2.5,-0.167Z" style="fill:#fff;fill-rule:nonzero;"/><rect id="rect2429-0-8-6-0-2" x="47.244" y="383.858" width="51.494" height="94.488" style="fill:#0079c1;"/><path id="path980" d="M59.326,454.767l37.162,-0l-0,-10.082l-25.83,-0l-0,-56.077l-11.332,0l-0,66.159Z" style="fill:#fff;fill-rule:nonzero;"/><rect id="rect2429-0-8-6-0-1" x="247.884" y="383.858" width="66.158" height="94.488" style="fill:#0079c1;"/><path id="path986" d="M287.963,414.604l22.414,-25.996l-13.332,-0l-25.747,29.913l0,-29.913l-11.332,-0l0,66.158l11.332,0l0,-20.831l9.166,-10.582l18.247,31.413l12.582,0l-23.33,-40.162Z" style="fill:#fff;fill-rule:nonzero;"/><rect id="rect2587-3-3" x="597.039" y="383.858" width="52.411" height="94.488" style="fill:#0079c1;"/><path id="path968" d="M628.951,454.766l0,-56.076l18.248,-0l0,-10.082l-47.827,-0l-0,10.082l18.247,-0l0,56.076l11.332,0Z" style="fill:#fff;fill-rule:nonzero;"/><rect id="rect2587" x="343.57" y="383.858" width="67.492" height="94.488" style="fill:#0079c1;"/><path id="path1074" d="M355.568,388.609l-0,66.157l11.333,0l-0,-25.83l11.664,-0l12.916,25.83l11.998,0l-13.665,-27.33l2.167,-0.667l2.083,-0.999l1.833,-1.418l1.583,-1.582l1.251,-1.917l1.332,-2.333l0.917,-2.5l0.666,-2.665l0.333,-2.667l-0.083,-2.667l-0.417,-2.664l-0.666,-2.584l-1.084,-2.5l-1.249,-2.25l-1.499,-2.083l-1.752,-1.833l-1.999,-1.582l-2.167,-1.418l-2.331,-1.083l-2.417,-0.75l-2.5,-0.501l-2.583,-0.165l-25.664,0.001Zm11.333,10.081l14.498,0l1.666,0.167l1.666,0.415l1.585,0.667l1.332,1.001l1.249,1.249l1.001,1.416l0.667,1.501l0.415,1.666l0.167,1.667l0,1.832l-0.25,1.833l-0.582,1.666l-0.918,1.585l-1.165,1.416l-1.418,1.165l-0.832,0.501l-0.918,0.333l-0.998,0.084l-17.165,-0l-0,-20.164Z" style="fill:#fff;fill-rule:nonzero;"/><rect id="rect2429-0-8-6-0" x="411.062" y="383.862" width="35.412" height="94.488" style="fill:#0079c1;"/><rect id="path998" x="423.144" y="388.612" width="11.332" height="66.158" style="fill:#fff;fill-rule:nonzero;"/><rect id="rect2429-0-8-6" x="520.548" y="383.858" width="76.49" height="94.488" style="fill:#0079c1;"/><path id="path1002" d="M573.542,414.438l-29.58,-0l-0,-25.83l-11.332,-0l0,66.158l11.332,0l-0,-30.246l29.58,-0l-0,30.246l11.332,0l-0,-66.158l-11.332,-0l-0,25.83Z" style="fill:#fff;fill-rule:nonzero;"/><rect id="rect2429-0-8" x="446.474" y="383.858" width="74.074" height="94.488" style="fill:#0079c1;"/><path id="path1008" d="M475.221,387.441l-2.75,1l-2.666,1.167l-2.5,1.499l-2.333,1.75l-2.167,2l-1.999,2.166l-1.75,2.333l-1.583,2.75l-1.333,2.833l-1,2.916l-0.75,3.083l-0,0l-0.667,3.583l-0.416,3.583l-0.167,3.583l0.167,3.583l0.416,3.666l0.667,3.5l-0,-0l0.75,3.082l1,2.917l1.333,2.833l1.583,2.749l1.75,2.333l1.999,2.167l2.167,2l2.333,1.749l2.5,1.5l2.666,1.25l2.75,0.917l4.416,0.666l4.416,0.25l-0,0l3.166,-0.166l3.25,-0.334l2.083,-0.583l1.916,-0.833l1.75,-1.167l1.666,-1.333l1.417,-1.583l1.25,-1.667l-0,5.583l10.082,0l-0,-37.162l-28.997,0l0,10.082l18.915,0l-0,6.583l-0.167,1.833l-0.5,1.75l-0.833,1.583l-1.083,1.499l-1.25,1.25l-0.833,0.667l-2.167,1.333l-2.249,1.083l-2.417,0.833l-2.5,0.5l-2.499,0.167l-2.583,-0.167l-2.5,-0.5l-2.416,-0.833l-2.25,-1.083l-2.166,-1.333l-1.75,-1.5l-1.5,-1.666l-1.167,-1.917l-0.999,-2.083l-1,-3.416l-0.75,-3.5l-0.417,-3.499l-0.083,-3.583l0.083,-3.583l0.417,-3.5l0.75,-3.499l1,-3.416l0.999,-2.083l1.167,-1.834l1.5,-1.749l1.75,-1.5l2.166,-1.333l2.25,-1.084l2.416,-0.833l2.5,-0.416l2.583,-0.167l2.499,0.167l2.5,0.416l2.417,0.833l2.249,1.084l2.167,1.333l1.666,1.416l1.417,1.583l1.166,1.75l1,1.917l9.499,-5l-1.667,-2.833l-1.749,-2.333l-1.917,-2.166l-2.25,-2l-2.333,-1.75l-2.499,-1.499l-2.667,-1.167l-2.749,-1l-0,-0l-4.416,-0.667l-4.333,-0.166l-4.416,0.166l-4.416,0.667l-0,0Z" style="fill:#fff;fill-rule:nonzero;"/><clipPath id="_clip2"><rect id="S24-Cycle-W.afdesign" serif:id="S24 Cycle W.afdesign" x="187.717" y="159.449" width="321.26" height="188.976"/></clipPath><g clip-path="url(#_clip2)"><path d="M380.13,311.542l1.64,-1.2l1.56,-1.28l1.4,-1.44l1.32,-1.56l1.16,-1.681l1.001,-1.76l0.84,-1.84l0.72,-1.88l0.52,-1.96l5.56,-0l0.32,2.92l0.52,2.92l0.64,2.92l0.8,2.841l0.96,2.8l1.081,2.76l1.24,2.68l1.399,2.641l1.52,2.52l1.64,2.48l1.761,2.36l1.92,2.281l2.001,2.2l2.119,2.08l2.2,1.96l2.361,1.8l2.4,1.72l2.521,1.601l2.559,1.44l2.681,1.32l2.72,1.16l2.76,1.04l2.84,0.88l2.881,0.76l2.88,0.56l2.961,0.44l2.92,0.28l2.96,0.12l2.96,-0.04l2.961,-0.2l2.96,-0.32l2.919,-0.52l2.881,-0.64l2.88,-0.8l2.8,-0.92l2.761,-1.12l2.68,-1.2l2.64,-1.4l2.561,-1.481l2.439,-1.64l2.401,-1.76l2.28,-1.92l2.2,-2l2.04,-2.12l1.96,-2.201l1.881,-2.32l1.72,-2.44l1.56,-2.48l1.48,-2.6l1.321,-2.641l1.159,-2.72l1.04,-2.76l0.88,-2.84l0.761,-2.881l0.599,-2.88l0.441,-2.92l0.279,-2.96l0.12,-2.961l-0.04,-2.96l-0.16,-2.96l-0.359,-2.96l-0.481,-2.921l-0.639,-2.88l-0.76,-2.88l-0.96,-2.8l-1.08,-2.761l-1.24,-2.68l-1.361,-2.64l-1.48,-2.56l-1.641,-2.481l-1.759,-2.36l-1.881,-2.32l-2,-2.16l-2.12,-2.08l-2.2,-1.96l-2.32,-1.881l-2.441,-1.72l-2.479,-1.6l-2.561,-1.44l-2.68,-1.32l-2.72,-1.2l-2.761,-1.04l-2.84,-0.92l-2.84,-0.721l-2.92,-0.6l-2.92,-0.44l-2.961,-0.32l-2.96,-0.12l-2.96,0l-2.96,0.2l-2.961,0.32l-2.92,0.48l-2.881,0.641l-2.84,0.76l-2.84,0.96l-2.76,1.08l-22.362,-38.764l4.361,-12.001l1.599,-0.2l1.561,-0.36l1.559,-0.52l1.481,-0.64l1.4,-0.8l1.36,-0.92l1.241,-1.04l1.12,-1.16l1.04,-1.28l0.88,-1.36l0.76,-1.4l0.639,-1.521l0.441,-1.56l0.08,-0.48l-0.08,-0.48l-0.2,-0.44l-0.281,-0.4l-0.399,-0.28l-0.441,-0.2l-0.479,-0.08l-48.884,0l-0.801,0.08l-0.8,0.2l-0.72,0.36l-0.68,0.44l-0.56,0.56l-0.48,0.68l-0.36,0.72l-0.24,0.8l-0.08,0.8l0.04,0.801l0.2,0.8l0.32,0.72l0.44,0.68l0.56,0.6l0.64,0.48l0.72,0.4l0.8,0.24l21.842,4.84l-5.161,14.162l-103.488,-0l2.28,-8.481l0.28,-1.4l0.12,-1.36l0,-1.401l-0.12,-1.4l-0.32,-1.36l-0.44,-1.36l-0.56,-1.24l-0.72,-1.24l-0.84,-1.12l-0.96,-1l-1.04,-0.96l-1.16,-0.8l-0.52,-0.401l-0.4,-0.52l-0.28,-0.6l-0.12,-0.68l0.04,-0.64l0.2,-0.64l0.32,-0.6l0.44,-0.48l0.56,-0.36l0.64,-0.24l0.64,-0.08l21.722,0l-0,-14.161l-26.443,-0l-1.48,0.08l-1.44,0.2l-1.4,0.36l-1.36,0.48l-1.32,0.6l-1.28,0.76l-1.16,0.84l-1.121,0.96l-1,1.08l-0.88,1.16l-0.76,1.24l-0.64,1.321l-0.52,1.36l-0.4,1.4l-0.24,1.44l-0.12,1.44l0.04,1.48l0.16,1.44l0.32,1.4l0.44,1.401l0.6,1.36l0.68,1.24l0.84,1.24l0.92,1.12l1.04,1l1.161,0.92l1.2,0.8l0.72,0.52l0.6,0.64l0.48,0.72l0.32,0.8l0.16,0.881l0.04,0.88l-0.16,0.84l-12.281,45.804l-2.8,-0.96l-2.841,-0.8l-2.92,-0.681l-2.92,-0.52l-2.96,-0.4l-2.961,-0.2l-2.96,-0.04l-2.96,0.08l-2.96,0.28l-2.961,0.4l-2.92,0.56l-2.88,0.721l-2.84,0.84l-2.801,1.04l-2.72,1.12l-2.68,1.32l-2.6,1.44l-2.521,1.56l-2.44,1.72l-2.32,1.8l-2.24,1.961l-2.16,2.04l-2.001,2.2l-1.92,2.28l-1.8,2.36l-1.68,2.441l-1.52,2.56l-1.4,2.6l-1.24,2.72l-1.121,2.761l-0.96,2.8l-0.84,2.84l-0.68,2.88l-0.52,2.961l-0.36,2.92l-0.2,2.96l-0.04,2.96l0.08,3.001l0.28,2.96l0.4,2.92l0.56,2.92l0.72,2.881l0.88,2.84l1.001,2.8l1.16,2.72l1.32,2.681l1.44,2.6l1.56,2.52l1.72,2.44l1.8,2.32l1.96,2.241l2.081,2.16l2.16,2l2.28,1.92l2.36,1.8l2.48,1.64l2.521,1.561l2.64,1.36l2.68,1.28l2.76,1.12l2.801,0.96l2.88,0.8l2.88,0.68l2.92,0.52l2.961,0.36l2.96,0.2l2.96,0.04l3,-0.12l2.921,-0.24l2.96,-0.44l2.92,-0.56l2.88,-0.72l2.841,-0.88l2.8,-1l2.72,-1.16l2.68,-1.32l2.601,-1.44l2.52,-1.561l2.4,-1.72l2.36,-1.84l2.24,-1.92l2.121,-2.08l2.04,-2.16l1.88,-2.281l1.8,-2.4l1.64,-2.44l1.56,-2.56l1.36,-2.641l1.281,-2.68l1.08,-2.76l0.96,-2.8l0.84,-2.88l0.64,-2.881l0.52,-2.92l0.36,-2.96l0.2,-2.961l0.04,-2.96l-0.08,-2.96l-0.28,-2.96l-0.44,-2.961l-0.56,-2.92l-0.72,-2.88l-0.88,-2.84l-1,-2.761l-1.2,-2.76l-1.281,-2.64l-1.44,-2.6l-1.6,-2.52l-1.72,-2.441l-1.8,-2.32l-1.96,-2.24l-2.08,-2.12l-2.161,-2.04l-2.28,-1.881l-2.4,-1.8l1.84,-6.84l65.686,45.964l-0.52,1.92l-0.36,1.92l-0.2,1.96l-0,1.96l0.12,2.001l0.32,1.92l0.44,1.92l0.64,1.88l0.76,1.84l0.92,1.72l1.08,1.68l1.2,1.561l1.32,1.44l1.44,1.36l1.561,1.2l1.64,1.08l1.76,0.96l1.8,0.8l1.88,0.64l1.88,0.48l1.96,0.32l1.961,0.16l2,0l1.96,-0.2l1.92,-0.32l1.92,-0.48l3.561,7.641l-6.401,-0l0,7.561l6.401,-0l0.68,0.8l0.76,0.72l0.92,0.56l0.96,0.4l1.04,0.24l1.04,0.12l1.08,-0.12l1.04,-0.24l0.96,-0.4l0.88,-0.56l0.801,-0.72l0.68,-0.8l6.399,-0l0,-7.561l-9.92,-0l-4.88,-10.441Zm40.243,3.8l1.56,1.96l1.681,1.841l1.76,1.76l1.92,1.64l2,1.52l2.08,1.4l2.16,1.24l2.24,1.12l2.321,0.96l2.36,0.841l2.4,0.68l2.48,0.48l2.48,0.4l2.481,0.2l2.519,0.04l2.481,-0.12l2.48,-0.28l2.481,-0.4l2.44,-0.6l2.4,-0.72l2.36,-0.881l2.28,-1.04l2.2,-1.16l2.161,-1.32l2.04,-1.44l1.96,-1.56l1.84,-1.68l1.721,-1.8l1.64,-1.921l1.519,-2l1.361,-2.12l1.24,-2.16l1.08,-2.24l0.96,-2.321l0.8,-2.4l0.64,-2.4l0.52,-2.44l0.32,-2.48l0.2,-2.521l0.04,-2.52l-0.12,-2.48l-0.319,-2.48l-0.441,-2.48l-0.6,-2.441l-0.76,-2.36l-0.88,-2.36l-1.04,-2.28l-1.2,-2.2l-1.32,-2.121l-1.481,-2.04l-1.559,-1.96l-1.72,-1.84l-1.801,-1.72l-1.92,-1.6l-2.001,-1.481l-2.119,-1.36l-2.2,-1.2l-2.241,-1.08l-2.32,-0.96l-2.4,-0.76l-2.44,-0.64l-2.44,-0.48l-2.481,-0.32l-2.52,-0.2l-2.48,-0l-2.52,0.16l-2.48,0.32l-2.441,0.44l-2.44,0.64l-2.401,0.76l20.082,34.763l0.401,0.8l0.2,0.88l0.08,0.92l-0.08,0.88l-0.2,0.88l-0.401,0.841l-0.519,0.72l-0.641,0.64l-0.76,0.52l-0.8,0.4l-0.88,0.24l-0.92,0.08l-41.524,-0l0.401,2.48l0.559,2.44l0.721,2.4l0.88,2.321l1,2.32l1.16,2.2l1.28,2.16l1.44,2.08Zm-163.054,-50.404l2.6,-9.721l-2.32,-0.92l-2.36,-0.72l-2.44,-0.64l-2.44,-0.44l-2.481,-0.28l-2.48,-0.16l-2.48,0.04l-2.48,0.16l-2.48,0.32l-2.441,0.48l-2.44,0.64l-2.36,0.8l-2.28,0.92l-2.28,1.08l-2.161,1.2l-2.08,1.36l-2.04,1.481l-1.88,1.6l-1.84,1.72l-1.681,1.8l-1.56,1.92l-1.48,2.04l-1.32,2.121l-1.16,2.2l-1.08,2.24l-0.88,2.32l-0.76,2.36l-0.6,2.441l-0.48,2.44l-0.28,2.48l-0.16,2.48l0.04,2.48l0.16,2.521l0.32,2.44l0.48,2.44l0.64,2.44l0.76,2.36l0.96,2.321l1.04,2.24l1.24,2.16l1.32,2.12l1.48,2l1.601,1.921l1.72,1.8l1.84,1.68l1.92,1.6l2,1.44l2.12,1.32l2.201,1.2l2.24,1.04l2.36,0.921l2.36,0.76l2.4,0.6l2.481,0.44l2.44,0.32l2.52,0.16l2.48,-0.04l2.48,-0.16l2.481,-0.32l2.44,-0.48l2.4,-0.64l2.36,-0.76l2.32,-0.921l2.241,-1.08l2.2,-1.2l2.08,-1.36l2.04,-1.48l1.88,-1.6l1.841,-1.72l1.68,-1.8l1.6,-1.921l1.44,-2.04l1.32,-2.12l1.2,-2.16l1.04,-2.28l0.92,-2.321l0.76,-2.36l0.6,-2.44l0.48,-2.44l0.281,-2.48l0.16,-2.481l-0,-2.48l-0.2,-2.48l-0.321,-2.48l-0.48,-2.44l-0.6,-2.441l-0.8,-2.36l-0.92,-2.32l-1.08,-2.24l-1.2,-2.16l-1.32,-2.121l-1.48,-2l-1.6,-1.92l-1.72,-1.8l-3.201,11.881l-0.6,2.04l-0.8,2l-0.88,1.92l-1.04,1.881l-1.2,1.76l-1.28,1.68l-1.4,1.6l-1.521,1.52l-1.64,1.36l-1.72,1.28l-1.8,1.16l-1.84,1.001l-1.96,0.88l-2,0.72l-2.041,0.6l-2.08,0.48l-0.92,0.08l-0.92,-0.08l-0.88,-0.2l-0.84,-0.36l-0.76,-0.48l-0.68,-0.6l-0.6,-0.72l-0.48,-0.761l-0.32,-0.88l-0.2,-0.88l-0.04,-0.92l0.12,-0.88l0.24,-0.88l0.4,-0.84l0.52,-0.76l0.6,-0.68l0.76,-0.52l2.04,-1.44l2,-1.6l1.88,-1.721l1.72,-1.8l1.641,-1.96l1.48,-2.04l1.32,-2.16l1.2,-2.2l1.08,-2.321l0.88,-2.36l0.72,-2.44Zm124.971,25.322l-0.2,-1.48l-0.36,-1.44l-0.52,-1.4l-0.64,-1.32l-0.76,-1.28l-0.88,-1.201l-1,-1.08l-1.08,-1l-1.201,-0.88l-1.28,-0.76l-1.32,-0.64l-1.4,-0.52l-1.44,-0.36l-1.48,-0.2l-1.48,-0.08l-1.48,0.08l-1.481,0.2l-1.44,0.36l-1.4,0.52l-1.32,0.64l-1.28,0.76l-1.2,0.88l-1.08,1l-1,1.08l-0.88,1.201l-0.76,1.28l-0.64,1.32l-0.521,1.4l-0.36,1.44l-0.2,1.48l-0.08,1.48l0.08,1.48l0.2,1.481l0.36,1.44l0.521,1.4l0.64,1.32l0.76,1.28l0.88,1.2l1,1.08l1.08,1l1.2,0.88l1.28,0.76l1.32,0.64l1.4,0.521l1.44,0.36l1.481,0.2l1.48,0.08l1.48,-0.08l1.48,-0.2l1.44,-0.36l1.4,-0.521l1.32,-0.64l1.28,-0.76l1.201,-0.88l1.08,-1l1,-1.08l0.88,-1.2l0.76,-1.28l0.64,-1.32l0.52,-1.4l0.36,-1.44l0.2,-1.481l0.08,-1.48l-0.08,-1.48Zm58.805,-3.72l-14.481,-25.082l-1.801,1.64l-1.68,1.72l-1.6,1.84l-1.48,1.96l-1.36,2l-1.24,2.121l-1.12,2.16l-0.96,2.24l-0.8,2.28l-0.681,2.36l-0.559,2.361l-0.401,2.4l28.163,-0Zm-23.083,-39.964l-2.28,1.841l-2.199,1.96l-2.08,2.04l-2.001,2.16l-1.88,2.28l-1.721,2.36l-1.64,2.481l-1.48,2.52l-1.359,2.6l-1.24,2.68l-1.081,2.721l-0.92,2.8l-0.8,2.84l-0.64,2.88l-0.52,2.881l-0.32,2.92l-5.56,-0l-0.52,-2l-0.72,-1.921l-0.88,-1.84l-1.041,-1.76l-1.16,-1.68l-1.32,-1.6l-1.48,-1.44l-1.56,-1.32l19.962,-54.885l16.44,28.482Zm-78.446,14.922l9.921,-0l4.881,10.441l-1.521,1.08l-69.886,-48.965l2.121,-7.92l102.128,-0l-18.921,52.004l-2,0l-2.001,0.16l-2,0.32l-1.92,0.52l-3.56,-7.64l6.4,-0l0,-7.561l-6.4,0l-0.68,-0.8l-0.8,-0.72l-0.88,-0.56l-0.96,-0.4l-1.041,-0.28l-1.08,-0.08l-1.04,0.08l-1.04,0.28l-0.96,0.4l-0.92,0.56l-0.8,0.72l-0.64,0.8l-6.401,0l0,7.561Z" style="fill:#fff;"/></g></g></svg>