<?xml version="1.0" encoding="UTF-8" standalone="no"?><!DOCTYPE svg PUBLIC "-//W3C//DTD SVG 1.1//EN" "http://www.w3.org/Graphics/SVG/1.1/DTD/svg11.dtd"><svg width="100%" height="100%" viewBox="0 0 697 473" version="1.1" xmlns="http://www.w3.org/2000/svg" xmlns:xlink="http://www.w3.org/1999/xlink" xml:space="preserve" xmlns:serif="http://www.serif.com/" style="fill-rule:evenodd;clip-rule:evenodd;stroke-linejoin:round;stroke-miterlimit:2;"><g transform="matrix(64.5901,0,0,64.5901,443.152,259.038)"></g><text x="254.649px" y="259.038px" style="font-family:'ArialMT', 'Arial', sans-serif;font-size:64.59px;">sw=40</text><rect id="Bus-R" serif:id="Bus R" x="0" y="0" width="696.697" height="472.441" style="fill:none;"/><clipPath id="_clip1"><rect x="0" y="0" width="696.697" height="472.441"/></clipPath><g clip-path="url(#_clip1)"><path d="M698.275,36.907c0,-19.556 -15.877,-35.433 -35.433,-35.433l-625.827,-0c-19.556,-0 -35.433,15.877 -35.433,35.433l-0,401.575c-0,19.556 15.877,35.433 35.433,35.433l625.827,-0c19.556,-0 35.433,-15.877 35.433,-35.433l0,-401.575Z" style="fill:#fff;"/><path d="M698.275,36.907l0,401.575c0,19.556 -15.877,35.433 -35.433,35.433l-625.827,-0c-19.556,-0 -35.433,-15.877 -35.433,-35.433l-0,-401.575c-0,-19.556 15.877,-35.433 35.433,-35.433l625.827,-0c19.556,-0 35.433,15.877 35.433,35.433Zm-1.181,-0c-0,-18.904 -15.348,-34.252 -34.252,-34.252l-625.827,-0c-18.905,-0 -34.252,15.348 -34.252,34.252l-0,401.575c-0,18.904 15.347,34.251 34.252,34.251l625.827,0c18.904,0 34.252,-15.347 34.252,-34.251l-0,-401.575Z" style="fill:#0079c1;"/><path d="M680.559,36.907c-0,-9.778 -7.939,-17.717 -17.717,-17.717l-625.827,0c-9.778,0 -17.717,7.939 -17.717,17.717l0,401.575c0,9.778 7.939,17.716 17.717,17.716l625.827,0c9.778,0 17.717,-7.938 17.717,-17.716l-0,-401.575Z" style="fill:#0079c1;"/><rect x="103.432" y="52.261" width="69.449" height="94.488" style="fill:#0079c1;"/><path d="M152.827,102.776c-0,6.02 -4.24,10.006 -10.939,10.006l-15.688,-0l0,-20.436l15.603,-0c6.699,-0 11.024,4.579 11.024,10.43Zm-3.477,-27.559c-0,4.07 -2.29,8.225 -8.141,8.225l-15.009,0l0,-16.281l14.84,0c5.851,0 8.31,3.986 8.31,8.056Zm14.755,28.746c-0,-8.988 -3.986,-14.924 -11.194,-16.79c4.579,-2.205 7.463,-7.377 7.463,-13.483c-0,-10.345 -7.717,-16.705 -18.486,-16.705l-27.051,0l0,66.142l29.425,0c12.211,0 19.843,-8.056 19.843,-19.164Z" style="fill:#fff;fill-rule:nonzero;"/><rect x="245.637" y="52.261" width="64.724" height="94.488" style="fill:#0079c1;"/><path d="M303.989,106.422c0,-10.599 -5.935,-16.705 -18.824,-19.927l-8.395,-2.12c-7.123,-1.781 -11.363,-4.155 -11.363,-9.158c-0,-5.258 5.851,-8.056 12.55,-8.056c5.851,0 11.956,2.205 15.348,7.208l8.734,-7.208c-5.512,-7.547 -15.009,-10.176 -24.082,-10.176c-15.009,0 -24.083,8.226 -24.083,18.741c0,12.38 9.243,16.959 18.486,19.164l9.582,2.289c5.258,1.272 10.515,3.647 10.515,9.837c0,5.427 -5.173,8.479 -13.907,8.479c-6.359,0 -14.076,-4.239 -17.722,-9.412l-8.819,7.377c6.699,7.802 16.027,12.211 26.626,12.211c16.366,0 25.354,-7.547 25.354,-19.249Z" style="fill:#fff;fill-rule:nonzero;"/><rect x="172.881" y="52.261" width="72.756" height="94.488" style="fill:#0079c1;"/><path d="M235.122,56.985l-11.617,0c-0,7.632 0.085,42.738 0.085,42.738c-0,9.921 -6.699,14.585 -14.161,14.585c-7.632,0 -14.161,-4.748 -14.161,-14.585l-0,-42.738l-11.872,0l-0,42.823c-0,16.959 12.295,24.846 25.863,24.846c13.313,-0 25.863,-7.887 25.863,-24.931l0,-42.738Z" style="fill:#fff;fill-rule:nonzero;"/><rect x="534.062" y="52.261" width="62.362" height="94.488" style="fill:#0079c1;"/><path d="M586.867,112.952l-31.884,-0l-0,-18.147l27.389,-0l0,-10.176l-27.389,0l-0,-17.468l30.018,0l0,-10.176l-41.381,0l0,66.142l43.247,0l-0,-10.175Z" style="fill:#fff;fill-rule:nonzero;"/><rect x="390.44" y="52.261" width="64.252" height="94.488" style="fill:#0079c1;"/><path d="M412.475,101.08l10.006,-31.969l10.176,31.969l-20.182,-0Zm17.044,-44.095l-14.076,0l-21.284,66.142l11.363,0l3.985,-12.38l26.287,-0l3.816,12.38l11.363,0l-21.454,-66.142Z" style="fill:#fff;fill-rule:nonzero;"/><rect x="339.889" y="52.261" width="50.551" height="94.488" style="fill:#0079c1;"/><path d="M388.078,112.952l-26.966,-0l0,-55.967l-11.362,0l-0,66.142l38.328,0l-0,-10.175Z" style="fill:#fff;fill-rule:nonzero;"/><rect x="454.692" y="52.261" width="79.37" height="94.488" style="fill:#0079c1;"/><path d="M522.275,56.985l-11.362,0l-0,47.063l-32.563,-47.063l-11.871,0l-0,66.142l11.363,0l-0,-47.062l32.562,47.062l11.871,0l0,-66.142Z" style="fill:#fff;fill-rule:nonzero;"/><clipPath id="_clip2"><rect id="S25-Bus--Left--W.afdesign" serif:id="S25 Bus (Left) W.afdesign" x="113.708" y="158.56" width="472.441" height="153.543"/></clipPath><g clip-path="url(#_clip2)"><path d="M243.147,283.908c-0.094,-0.375 -0.344,-1.51 -0.562,-2.25c-0.219,-0.74 -0.461,-1.474 -0.751,-2.189c-0.291,-0.719 -0.635,-1.448 -1,-2.126c-0.359,-0.667 -0.765,-1.309 -1.187,-1.938c-0.427,-0.636 -0.887,-1.273 -1.375,-1.875c-0.49,-0.604 -1.011,-1.199 -1.563,-1.751c-0.552,-0.552 -1.156,-1.073 -1.749,-1.562c-0.585,-0.483 -1.183,-0.953 -1.813,-1.376c-0.635,-0.427 -1.315,-0.824 -2,-1.188c-0.688,-0.364 -1.406,-0.708 -2.125,-1c-0.715,-0.29 -1.449,-0.532 -2.188,-0.751c-0.74,-0.219 -1.499,-0.406 -2.249,-0.562c-0.745,-0.155 -1.493,-0.302 -2.25,-0.375c-0.761,-0.073 -1.542,-0.063 -2.313,-0.063c-0.771,0 -1.545,-0.01 -2.313,0.063c-0.771,0.073 -1.552,0.219 -2.313,0.375c-0.757,0.155 -1.509,0.343 -2.249,0.562c-0.739,0.219 -1.473,0.461 -2.188,0.751c-0.718,0.292 -1.448,0.636 -2.125,1c-0.667,0.359 -1.309,0.765 -1.937,1.188c-0.636,0.427 -1.273,0.888 -1.876,1.376c-0.604,0.489 -1.198,1.01 -1.75,1.562c-0.552,0.552 -1.072,1.147 -1.561,1.751c-0.488,0.602 -0.948,1.239 -1.376,1.875c-0.422,0.629 -0.828,1.271 -1.187,1.938c-0.365,0.678 -0.709,1.407 -1,2.126c-0.29,0.715 -0.55,1.521 -0.75,2.189c-0.18,0.597 -0.361,1.441 -0.454,1.816c-0.037,0.144 -0.083,0.287 -0.109,0.434c-0.081,0.458 -0.302,1.542 -0.375,2.313c-0.073,0.768 -0.062,1.543 -0.062,2.314c-0,0.77 -0.011,1.551 0.062,2.312c0.073,0.757 0.22,1.506 0.375,2.251c0.156,0.75 0.344,1.511 0.563,2.251c0.218,0.739 0.46,1.474 0.75,2.188c0.291,0.719 0.635,1.437 1,2.125c0.363,0.685 0.76,1.365 1.187,2.001c0.423,0.63 0.893,1.228 1.376,1.813c0.489,0.594 1.009,1.198 1.561,1.75c0.552,0.553 1.146,1.074 1.75,1.564c0.602,0.488 1.24,0.948 1.876,1.375c0.628,0.422 1.27,0.828 1.937,1.187c0.677,0.365 1.407,0.709 2.125,1.001c0.715,0.29 1.449,0.531 2.188,0.75c0.74,0.219 1.492,0.407 2.249,0.563c0.761,0.156 1.542,0.302 2.313,0.375c0.768,0.072 1.542,0.062 2.313,0.062c0.771,0 1.552,0.01 2.313,-0.062c0.757,-0.073 1.505,-0.22 2.25,-0.375c0.75,-0.157 1.509,-0.344 2.249,-0.563c0.739,-0.219 1.473,-0.46 2.188,-0.75c0.719,-0.292 1.437,-0.636 2.125,-1.001c0.685,-0.363 1.365,-0.76 2,-1.187c0.63,-0.423 1.228,-0.893 1.813,-1.375c0.593,-0.49 1.197,-1.011 1.749,-1.564c0.552,-0.552 1.073,-1.156 1.563,-1.75c0.482,-0.585 0.952,-1.183 1.375,-1.813c0.427,-0.636 0.824,-1.316 1.187,-2.001c0.365,-0.688 0.709,-1.406 1,-2.125c0.29,-0.714 0.532,-1.449 0.751,-2.188c0.218,-0.74 0.406,-1.501 0.562,-2.251c0.155,-0.745 0.292,-1.495 0.375,-2.251c0.083,-0.761 0.125,-1.542 0.125,-2.312c0,-0.771 -0.042,-1.546 -0.125,-2.314c-0.083,-0.771 -0.312,-1.928 -0.375,-2.313Zm236.189,-0c-0.094,-0.375 -0.344,-1.51 -0.563,-2.25c-0.218,-0.74 -0.46,-1.474 -0.75,-2.189c-0.292,-0.719 -0.635,-1.448 -1,-2.126c-0.359,-0.667 -0.765,-1.309 -1.188,-1.938c-0.427,-0.636 -0.887,-1.273 -1.375,-1.875c-0.489,-0.604 -1.01,-1.199 -1.562,-1.751c-0.552,-0.552 -1.156,-1.073 -1.749,-1.562c-0.586,-0.483 -1.184,-0.953 -1.813,-1.376c-0.636,-0.427 -1.315,-0.824 -2,-1.188c-0.688,-0.364 -1.407,-0.708 -2.126,-1c-0.714,-0.29 -1.448,-0.532 -2.187,-0.751c-0.74,-0.219 -1.5,-0.406 -2.25,-0.562c-0.744,-0.155 -1.493,-0.302 -2.25,-0.375c-0.76,-0.073 -1.542,-0.063 -2.312,-0.063c-0.771,0 -1.545,-0.01 -2.313,0.063c-0.771,0.073 -1.553,0.219 -2.313,0.375c-0.757,0.155 -1.51,0.343 -2.249,0.562c-0.739,0.219 -1.473,0.461 -2.188,0.751c-0.719,0.292 -1.448,0.636 -2.125,1c-0.667,0.359 -1.309,0.765 -1.938,1.188c-0.635,0.427 -1.273,0.888 -1.875,1.376c-0.604,0.489 -1.198,1.01 -1.75,1.562c-0.552,0.552 -1.072,1.147 -1.562,1.751c-0.488,0.602 -0.948,1.239 -1.375,1.875c-0.423,0.629 -0.828,1.271 -1.188,1.938c-0.364,0.678 -0.708,1.407 -1,2.126c-0.29,0.715 -0.549,1.521 -0.75,2.189c-0.179,0.597 -0.36,1.441 -0.454,1.816c-0.036,0.144 -0.082,0.287 -0.108,0.434c-0.081,0.458 -0.302,1.542 -0.375,2.313c-0.073,0.768 -0.063,1.543 -0.063,2.314c0,0.77 -0.01,1.551 0.063,2.312c0.072,0.757 0.22,1.506 0.375,2.251c0.156,0.75 0.344,1.511 0.562,2.251c0.219,0.739 0.46,1.474 0.75,2.188c0.292,0.719 0.636,1.437 1,2.125c0.364,0.685 0.761,1.365 1.188,2.001c0.423,0.63 0.893,1.228 1.375,1.813c0.49,0.594 1.01,1.198 1.562,1.75c0.552,0.553 1.146,1.074 1.75,1.564c0.602,0.488 1.24,0.948 1.875,1.375c0.629,0.422 1.271,0.828 1.938,1.187c0.677,0.365 1.406,0.709 2.125,1.001c0.714,0.29 1.449,0.531 2.188,0.75c0.739,0.219 1.492,0.407 2.249,0.563c0.76,0.156 1.542,0.302 2.313,0.375c0.768,0.072 1.542,0.062 2.313,0.062c0.77,0 1.552,0.01 2.312,-0.062c0.757,-0.073 1.506,-0.22 2.25,-0.375c0.75,-0.157 1.51,-0.344 2.25,-0.563c0.739,-0.219 1.473,-0.46 2.187,-0.75c0.719,-0.292 1.438,-0.636 2.126,-1.001c0.685,-0.363 1.364,-0.76 2,-1.187c0.629,-0.423 1.228,-0.893 1.813,-1.375c0.593,-0.49 1.197,-1.011 1.749,-1.564c0.552,-0.552 1.073,-1.156 1.562,-1.75c0.483,-0.585 0.952,-1.183 1.375,-1.813c0.428,-0.636 0.825,-1.316 1.188,-2.001c0.365,-0.688 0.708,-1.406 1,-2.125c0.29,-0.714 0.532,-1.449 0.75,-2.188c0.219,-0.74 0.407,-1.501 0.563,-2.251c0.155,-0.745 0.292,-1.495 0.375,-2.251c0.083,-0.761 0.125,-1.542 0.125,-2.312c-0,-0.771 -0.042,-1.546 -0.125,-2.314c-0.083,-0.771 -0.313,-1.928 -0.375,-2.313Zm-25.665,-6.94c-0.275,0.084 -0.565,0.096 -0.836,0.188c-0.4,0.135 -1.055,0.387 -1.562,0.625c-0.511,0.239 -1.031,0.51 -1.5,0.812c-0.462,0.299 -0.898,0.639 -1.312,1.001c-0.417,0.365 -0.823,0.771 -1.188,1.188c-0.362,0.414 -0.752,0.952 -1,1.313c-0.185,0.27 -0.311,0.575 -0.488,0.852c-0,-0 -0.222,0.429 -0.325,0.648c-0.111,0.237 -0.209,0.523 -0.344,0.772c0,0 -0.215,0.519 -0.281,0.792c-0.098,0.413 -0.239,1.124 -0.312,1.687c-0.073,0.56 -0.125,1.136 -0.125,1.689c-0,0.543 0.054,1.086 0.125,1.624c0.073,0.553 0.156,1.147 0.312,1.689c0.156,0.539 0.387,1.054 0.625,1.562c0.24,0.511 0.511,1.032 0.813,1.501c0.298,0.463 0.638,0.899 1,1.313c0.365,0.417 0.772,0.813 1.188,1.188c0.416,0.375 0.849,0.762 1.312,1.063c0.461,0.298 0.499,0.249 1.471,0.738l0.029,0.012c0.273,0.109 0.52,0.208 1.552,0.622l0.01,0.003c0.248,0.056 0.973,0.216 1.458,0.332c0,0 0.152,0.036 0.23,0.043c0.319,0.028 1.343,0.107 1.688,0.126c0.127,0.006 0.381,-0.016 0.381,-0.016c0.775,-0.074 0.833,-0.042 1.244,-0.11c0.488,-0.081 1.146,-0.209 1.687,-0.375c0.537,-0.165 1.302,-0.521 1.563,-0.625l0,-0.001c1,-0.5 1.031,-0.447 1.499,-0.749c0.469,-0.302 0.896,-0.688 1.313,-1.063c0.416,-0.375 0.974,-0.972 1.187,-1.188c0.034,-0.034 0.095,-0.108 0.095,-0.108c0.32,-0.404 0.692,-0.77 0.968,-1.205c0.286,-0.451 0.521,-0.99 0.75,-1.501c0.229,-0.51 0.46,-1.026 0.625,-1.562c0.167,-0.542 0.292,-1.136 0.375,-1.689c0.081,-0.537 0.125,-1.081 0.125,-1.624c0,-0.553 -0.104,-1.408 -0.125,-1.689c-0.062,-0.281 -0.208,-1.146 -0.375,-1.687c-0.476,-1.22 -0.396,-1.053 -0.625,-1.564c-0.229,-0.51 -0.448,-1.031 -0.75,-1.5c-0.302,-0.469 -0.885,-1.094 -1.063,-1.313l0,-0c-0.792,-0.793 -0.771,-0.823 -1.187,-1.188c-0.414,-0.362 -0.85,-0.702 -1.313,-1.001c-0.468,-0.302 -0.989,-0.573 -1.499,-0.812c-0.508,-0.238 -1.302,-0.521 -1.563,-0.625l0,-0c-1.159,-0.215 -1.271,-0.246 -1.687,-0.313c-0.269,-0.043 -0.542,-0.041 -0.811,-0.089l-0.814,-0.036c-1.5,0.091 -1.265,0.084 -1.688,0.125c-0.286,0.029 -0.564,0.105 -0.852,0.125Zm-241.539,20.314l0.139,0.13l1.029,0.816c0,0 0.222,0.179 0.346,0.247c0.308,0.166 0.99,0.521 1.5,0.75c0.511,0.229 1.171,0.485 1.563,0.625c0.257,0.091 0.791,0.214 0.791,0.214l0.014,0.004l0.82,0.157l0.84,0.094l0.847,0.032c0.562,-0.042 1.135,-0.043 1.687,-0.126c0.55,-0.084 1.094,-0.212 1.626,-0.375c0.541,-0.167 1.114,-0.396 1.625,-0.625c0.493,-0.222 0.983,-0.458 1.437,-0.75c0.469,-0.302 1.134,-0.876 1.376,-1.063l0.024,-0.019c0.768,-0.774 0.817,-0.769 1.163,-1.169c0.353,-0.408 0.83,-1.09 1,-1.313l0.007,-0.009c0.55,-1.021 0.672,-1.244 0.805,-1.492l0.001,-0.003c0.308,-0.768 0.561,-1.559 0.561,-1.559l0.069,-0.267c0.265,-1.061 0.238,-0.941 0.306,-1.422c0.072,-0.507 0.125,-1.081 0.125,-1.624c0,-0.553 -0.083,-1.31 -0.125,-1.689l-0.195,-0.949l-0.18,-0.738l-0.1,-0.299l-0.147,-0.435l-0.315,-0.83l-0.132,-0.266l-0.301,-0.592l-0.379,-0.642c-0.166,-0.219 -0.775,-1.032 -1,-1.313c-0.106,-0.133 -0.348,-0.374 -0.348,-0.374c-0.381,-0.48 -0.538,-0.567 -0.839,-0.814c-0.37,-0.302 -1.146,-0.834 -1.376,-1.001l0,0c-0.958,-0.541 -0.939,-0.578 -1.437,-0.812c-0.511,-0.24 -1.355,-0.521 -1.625,-0.625c-0.542,-0.104 -1.198,-0.245 -1.626,-0.313c-0.31,-0.049 -0.627,-0.046 -0.939,-0.093c-0.37,-0.049 -0.499,-0.041 -0.748,-0.032c-0.406,0.016 -1.135,0.053 -1.687,0.125c-0.547,0.073 -1.096,0.157 -1.625,0.313c-0.531,0.156 -1.055,0.387 -1.563,0.625c-0.51,0.239 -1.021,0.51 -1.5,0.812c-0.479,0.303 -0.948,0.637 -1.375,1.001c-0.426,0.364 -0.823,0.771 -1.188,1.188c-0.362,0.414 -0.702,0.851 -1,1.313c-0.302,0.469 -0.583,0.99 -0.812,1.5c-0.227,0.505 -0.409,1.031 -0.563,1.564c-0.156,0.541 -0.29,1.124 -0.374,1.687c-0.083,0.558 -0.126,1.136 -0.126,1.689c0,0.543 0.045,1.087 0.126,1.624c0.084,0.553 0.218,1.147 0.374,1.689c0.153,0.532 0.336,1.057 0.563,1.562c0.229,0.511 0.51,1.032 0.812,1.501c0.298,0.463 0.659,0.918 1,1.313c0.325,0.376 0.703,0.702 1.049,1.058Zm-98.299,-12.937l0.312,1.689l0.563,1.625l0.749,1.563l1,1.5l1.125,1.251l1.313,1.187l1.437,0.939l1.563,0.75l1.625,0.562l1.75,0.375l1.687,0.125l64.439,0l-0.563,-2.751l-0.312,-2.688l-0.063,-2.813l0.25,-2.75l0.438,-2.689l0.688,-2.688l0.999,-2.564l1.187,-2.5l1.438,-2.376l1.625,-2.188l1.813,-2.063l2.062,-1.876l2.187,-1.688l2.313,-1.5l2.5,-1.25l2.563,-1l2.625,-0.751l2.749,-0.5l2.688,-0.25l2.813,-0l2.75,0.25l2.687,0.5l2.625,0.751l2.625,1l2.438,1.25l2.312,1.5l2.188,1.688l2.062,1.876l1.813,2.063l1.625,2.188l1.438,2.376l1.186,2.5l1.001,2.564l0.687,2.688l0.5,2.689l0.188,2.75l-0.063,2.813l-0.312,2.688l-0.563,2.751l179.064,0l-0.562,-2.751l-0.313,-2.688l-0.062,-2.813l0.187,-2.75l0.5,-2.689l0.688,-2.688l0.937,-2.564l1.188,-2.5l1.438,-2.376l1.624,-2.188l1.875,-2.063l2,-1.876l2.188,-1.688l2.375,-1.5l2.438,-1.25l2.562,-1l2.687,-0.751l2.688,-0.5l2.75,-0.25l2.75,-0l2.75,0.25l2.75,0.5l2.625,0.751l2.562,1l2.5,1.25l2.313,1.5l2.188,1.688l2,1.876l1.874,2.063l1.625,2.188l1.438,2.376l1.188,2.5l0.937,2.564l0.75,2.688l0.438,2.689l0.187,2.75l0,2.813l-0.312,2.688l-0.563,2.751l101.314,-19.193l-0,-88.65l-0.126,-2.688l-0.375,-2.688l-0.624,-2.688l-0.876,-2.564l-1.126,-2.5l-1.311,-2.376l-1.563,-2.25l-1.687,-2.126l-1.939,-1.939l-2.123,-1.749l-2.252,-1.501l-2.374,-1.313l-2.501,-1.126l-2.561,-0.875l-2.688,-0.625l-2.688,-0.375l-2.75,-0.125l-426.94,0l-1.25,0.125l-1.25,0.313l-1.124,0.5l-1.001,0.687l-0.937,0.876l-0.75,1l-0.563,1.125l-0.375,1.189l-0.125,1.249l-2.688,63.831l-1.125,0.125l-1.125,0.313l-1,0.562l-0.938,0.688l-0.686,0.938l-0.563,1l-0.312,1.125l-0.125,1.126l-0,47.263l0.125,1.75Zm35.312,-3.251l17.688,0l1.188,-0.062l1.062,-0.375l1.062,-0.5l0.875,-0.75l0.75,-0.939l0.5,-1l0.375,-1.124l0.125,-1.126l0,-87.15l-0.125,-1.125l-0.375,-1.125l-0.5,-1.001l-0.75,-0.875l-0.875,-0.75l-1.062,-0.562l-1.062,-0.314l-1.188,-0.125l-17.688,0l-1.187,0.125l-1.062,0.314l-1.063,0.562l-0.875,0.75l-0.75,0.875l-0.563,1.001l-0.312,1.125l-0.125,1.125l-0,87.15l0.125,1.126l0.312,1.124l0.563,1l0.75,0.939l0.875,0.75l1.063,0.5l1.062,0.375l1.187,0.062Zm50.188,-57.578l70.875,0l1.125,-0.125l1.125,-0.312l1.001,-0.564l0.937,-0.687l0.688,-0.938l0.562,-1l0.313,-1.126l0.125,-1.125l-0,-29.571l-0.125,-1.125l-0.313,-1.125l-0.562,-1.001l-0.688,-0.875l-0.937,-0.75l-1.001,-0.562l-1.125,-0.314l-1.125,-0.125l-70.875,0l-1.187,0.125l-1.063,0.314l-1.063,0.562l-0.875,0.75l-0.75,0.875l-0.5,1.001l-0.375,1.125l-0.125,1.125l0,29.571l0.125,1.125l0.375,1.126l0.5,1l0.75,0.938l0.875,0.687l1.063,0.564l1.063,0.312l1.187,0.125Zm194.876,0l70.876,0l1.126,-0.125l1.124,-0.312l1,-0.564l0.937,-0.687l0.688,-0.938l0.562,-1l0.313,-1.126l0.125,-1.125l-0,-29.571l-0.125,-1.125l-0.313,-1.125l-0.562,-1.001l-0.688,-0.875l-0.937,-0.75l-1,-0.562l-1.124,-0.314l-1.126,-0.125l-70.876,0l-1.125,0.125l-1.125,0.314l-1.062,0.562l-0.876,0.75l-0.749,0.875l-0.5,1.001l-0.375,1.125l-0.125,1.125l0,29.571l0.125,1.125l0.375,1.126l0.5,1l0.749,0.938l0.876,0.687l1.062,0.564l1.125,0.312l1.125,0.125Zm-97.438,0l70.875,0l1.125,-0.125l1.126,-0.312l1,-0.564l0.937,-0.687l0.688,-0.938l0.562,-1l0.313,-1.126l0.125,-1.125l-0,-29.571l-0.125,-1.125l-0.313,-1.125l-0.562,-1.001l-0.688,-0.875l-0.937,-0.75l-1,-0.562l-1.126,-0.314l-1.125,-0.125l-70.875,0l-1.187,0.125l-1.063,0.314l-1.063,0.562l-0.875,0.75l-0.751,0.875l-0.499,1.001l-0.375,1.125l-0.125,1.125l0,29.571l0.125,1.125l0.375,1.126l0.499,1l0.751,0.938l0.875,0.687l1.063,0.564l1.063,0.312l1.187,0.125Zm194.876,0l70.875,0l1.127,-0.125l1.125,-0.312l0.998,-0.564l0.938,-0.687l0.687,-0.938l0.563,-1l0.376,-1.126l0.061,-1.125l-0,-17.755l-0.124,-2.126l-0.375,-2.062l-0.626,-2.064l-0.874,-1.938l-1.125,-1.875l-1.313,-1.688l-1.5,-1.5l-1.688,-1.314l-1.811,-1.125l-2.001,-0.875l-2,-0.625l-2.125,-0.376l-2.124,-0.125l-59.064,0l-1.125,0.125l-1.125,0.314l-0.999,0.562l-0.937,0.75l-0.75,0.875l-0.501,1.001l-0.375,1.125l-0.062,1.125l-0,29.571l0.062,1.125l0.375,1.126l0.501,1l0.75,0.938l0.937,0.687l0.999,0.564l1.125,0.312l1.125,0.125Z" style="fill:#fff;"/></g><rect id="rect2555" x="100.319" y="347.537" width="74.573" height="94.488" style="fill:#0079c1;"/><path id="path1026" d="M138.481,350.204l-4.416,0.248l-4.333,0.667l-2.749,0.918l-2.667,1.249l-2.5,1.499l-2.416,1.752l-2.167,1.916l-1.916,2.25l-1.75,2.331l-1.582,2.667l-1.335,2.917l-1.082,2.915l-0.751,3.084l-0.665,3.499l-0.333,3.582l-0.167,3.668l0.167,3.582l0.333,3.583l0.665,3.584l0.751,3.082l1.082,2.917l1.335,2.832l1.582,2.75l1.75,2.333l1.916,2.167l2.167,1.999l2.416,1.75l2.5,1.499l2.667,1.168l2.749,0.999l4.333,0.667l4.416,0.167l4.416,-0.167l4.333,-0.667l2.834,-0.999l2.581,-1.168l2.584,-1.499l2.333,-1.75l2.167,-1.999l1.999,-2.167l1.666,-2.333l1.666,-2.75l1.251,-2.832l1.083,-2.917l0.75,-3.082l0.668,-3.584l0.415,-3.583l0.166,-3.582l-0.166,-3.668l-0.415,-3.582l-0.668,-3.499l-0.75,-3.084l-1.083,-2.915l-1.251,-2.917l-1.666,-2.667l-1.666,-2.331l-1.999,-2.25l-2.167,-1.916l-2.333,-1.752l-2.584,-1.499l-2.581,-1.249l-2.834,-0.918l-4.333,-0.667l-4.416,-0.248Zm-0,10.082l2.583,0.166l2.417,0.499l2.417,0.834l2.331,1.082l2.167,1.335l1.668,1.499l1.499,1.666l1.249,1.916l1.001,2.083l0.999,3.418l0.75,3.499l0.417,3.499l0.084,3.584l-0.084,3.582l-0.417,3.499l-0.75,3.501l-0.999,3.416l-1.001,2.083l-1.249,1.833l-1.499,1.749l-1.668,1.418l-2.167,1.416l-2.331,1.082l-2.417,0.751l-2.417,0.5l-2.583,0.167l-2.5,-0.167l-2.498,-0.5l-2.417,-0.751l-2.333,-1.082l-2.083,-1.416l-1.75,-1.418l-1.501,-1.749l-1.249,-1.833l-0.918,-2.083l-1.082,-3.416l-0.667,-3.501l-0.417,-3.499l-0.165,-3.582l0.165,-3.584l0.417,-3.499l0.667,-3.499l1.082,-3.418l0.918,-2.083l1.249,-1.916l1.501,-1.666l1.75,-1.499l2.083,-1.335l2.333,-1.082l2.417,-0.834l2.498,-0.499l2.5,-0.166Z" style="fill:#fff;fill-rule:nonzero;"/><rect id="rect25551" serif:id="rect2555" x="174.893" y="347.537" width="74.573" height="94.488" style="fill:#0079c1;"/><path id="path10261" serif:id="path1026" d="M213.054,350.204l-4.416,0.248l-4.333,0.667l-2.748,0.918l-2.667,1.249l-2.5,1.499l-2.417,1.752l-2.166,1.916l-1.917,2.25l-1.749,2.331l-1.583,2.667l-1.334,2.917l-1.083,2.915l-0.75,3.084l-0.665,3.499l-0.334,3.582l-0.167,3.668l0.167,3.582l0.334,3.583l0.665,3.584l0.75,3.082l1.083,2.917l1.334,2.832l1.583,2.75l1.749,2.333l1.917,2.167l2.166,1.999l2.417,1.75l2.5,1.499l2.667,1.168l2.748,0.999l4.333,0.667l4.416,0.167l4.417,-0.167l4.333,-0.667l2.833,-0.999l2.582,-1.168l2.583,-1.499l2.334,-1.75l2.166,-1.999l2,-2.167l1.666,-2.333l1.666,-2.75l1.251,-2.832l1.082,-2.917l0.751,-3.082l0.667,-3.584l0.415,-3.583l0.167,-3.582l-0.167,-3.668l-0.415,-3.582l-0.667,-3.499l-0.751,-3.084l-1.082,-2.915l-1.251,-2.917l-1.666,-2.667l-1.666,-2.331l-2,-2.25l-2.166,-1.916l-2.334,-1.752l-2.583,-1.499l-2.582,-1.249l-2.833,-0.918l-4.333,-0.667l-4.417,-0.248Zm0,10.082l2.584,0.166l2.416,0.499l2.417,0.834l2.331,1.082l2.167,1.335l1.668,1.499l1.499,1.666l1.249,1.916l1.001,2.083l0.999,3.418l0.751,3.499l0.417,3.499l0.083,3.584l-0.083,3.582l-0.417,3.499l-0.751,3.501l-0.999,3.416l-1.001,2.083l-1.249,1.833l-1.499,1.749l-1.668,1.418l-2.167,1.416l-2.331,1.082l-2.417,0.751l-2.416,0.5l-2.584,0.167l-2.5,-0.167l-2.498,-0.5l-2.417,-0.751l-2.333,-1.082l-2.083,-1.416l-1.749,-1.418l-1.502,-1.749l-1.249,-1.833l-0.917,-2.083l-1.082,-3.416l-0.668,-3.501l-0.417,-3.499l-0.164,-3.582l0.164,-3.584l0.417,-3.499l0.668,-3.499l1.082,-3.418l0.917,-2.083l1.249,-1.916l1.502,-1.666l1.749,-1.499l2.083,-1.335l2.333,-1.082l2.417,-0.834l2.498,-0.499l2.5,-0.166Z" style="fill:#fff;fill-rule:nonzero;"/><rect id="rect2429-0-8-6-0-2" x="48.826" y="347.537" width="51.494" height="94.488" style="fill:#0079c1;"/><path id="path980" d="M60.907,418.445l37.163,0l-0,-10.082l-25.831,0l0,-56.076l-11.332,-0l0,66.158Z" style="fill:#fff;fill-rule:nonzero;"/><rect id="rect2429-0-8-6-0-1" x="249.466" y="347.537" width="66.158" height="94.488" style="fill:#0079c1;"/><path id="path986" d="M289.544,378.283l22.414,-25.997l-13.332,0l-25.746,29.913l-0,-29.913l-11.332,0l-0,66.158l11.332,0l-0,-20.83l9.165,-10.582l18.248,31.412l12.582,0l-23.331,-40.161Z" style="fill:#fff;fill-rule:nonzero;"/><rect id="rect2587-3-3" x="598.62" y="347.537" width="52.411" height="94.488" style="fill:#0079c1;"/><path id="path968" d="M630.533,418.444l-0,-56.076l18.248,0l-0,-10.082l-47.828,0l0,10.082l18.248,0l-0,56.076l11.332,0Z" style="fill:#fff;fill-rule:nonzero;"/><rect id="rect2587" x="345.152" y="347.537" width="67.492" height="94.488" style="fill:#0079c1;"/><path id="path1074" d="M357.149,352.287l0,66.158l11.333,-0l0,-25.831l11.665,-0l12.915,25.831l11.998,-0l-13.664,-27.33l2.167,-0.668l2.083,-0.998l1.832,-1.418l1.583,-1.583l1.251,-1.916l1.333,-2.333l0.917,-2.501l0.665,-2.664l0.334,-2.667l-0.084,-2.667l-0.417,-2.665l-0.665,-2.584l-1.084,-2.5l-1.249,-2.25l-1.5,-2.083l-1.751,-1.832l-2,-1.583l-2.166,-1.418l-2.331,-1.082l-2.417,-0.751l-2.5,-0.5l-2.584,-0.165l-25.664,-0Zm11.333,10.082l14.498,-0l1.666,0.167l1.666,0.415l1.585,0.667l1.333,1.001l1.249,1.249l1,1.416l0.668,1.501l0.415,1.666l0.167,1.666l-0,1.833l-0.251,1.833l-0.582,1.666l-0.917,1.584l-1.166,1.416l-1.418,1.166l-0.832,0.5l-0.917,0.334l-0.999,0.083l-17.165,0l0,-20.163Z" style="fill:#fff;fill-rule:nonzero;"/><rect id="rect2429-0-8-6-0" x="412.643" y="347.541" width="35.412" height="94.488" style="fill:#0079c1;"/><rect id="path998" x="424.725" y="352.29" width="11.332" height="66.158" style="fill:#fff;fill-rule:nonzero;"/><rect id="rect2429-0-8-6" x="522.13" y="347.537" width="76.49" height="94.488" style="fill:#0079c1;"/><path id="path1002" d="M575.123,378.116l-29.579,0l-0,-25.83l-11.332,0l-0,66.158l11.332,0l-0,-30.246l29.579,0l0,30.246l11.332,0l0,-66.158l-11.332,0l0,25.83Z" style="fill:#fff;fill-rule:nonzero;"/><rect id="rect2429-0-8" x="448.056" y="347.537" width="74.074" height="94.488" style="fill:#0079c1;"/><path id="path1008" d="M476.802,351.119l-2.75,1l-2.666,1.167l-2.5,1.5l-2.333,1.749l-2.166,2l-2,2.167l-1.75,2.333l-1.583,2.749l-1.333,2.833l-1,2.917l-0.75,3.083l0,-0l-0.666,3.582l-0.417,3.583l-0.166,3.583l0.166,3.583l0.417,3.666l0.666,3.5l0,-0l0.75,3.083l1,2.916l1.333,2.833l1.583,2.75l1.75,2.333l2,2.166l2.166,2l2.333,1.75l2.5,1.5l2.666,1.249l2.75,0.917l4.416,0.667l4.416,0.249l0,0l3.167,-0.166l3.249,-0.333l2.083,-0.584l1.917,-0.833l1.749,-1.166l1.667,-1.334l1.416,-1.583l1.25,-1.666l0,5.582l10.082,0l0,-37.162l-28.996,0l-0,10.082l18.914,0l0,6.583l-0.166,1.833l-0.5,1.75l-0.834,1.583l-1.083,1.5l-1.25,1.25l-0.833,0.666l-2.166,1.333l-2.25,1.084l-2.416,0.833l-2.5,0.5l-2.5,0.166l-2.583,-0.166l-2.499,-0.5l-2.417,-0.833l-2.249,-1.084l-2.167,-1.333l-1.75,-1.5l-1.499,-1.666l-1.167,-1.916l-1,-2.084l-1,-3.416l-0.75,-3.499l-0.416,-3.5l-0.084,-3.583l0.084,-3.583l0.416,-3.499l0.75,-3.5l1,-3.416l1,-2.083l1.167,-1.833l1.499,-1.75l1.75,-1.5l2.167,-1.333l2.249,-1.083l2.417,-0.833l2.499,-0.417l2.583,-0.167l2.5,0.167l2.5,0.417l2.416,0.833l2.25,1.083l2.166,1.333l1.667,1.417l1.416,1.583l1.167,1.75l1,1.916l9.498,-4.999l-1.666,-2.833l-1.75,-2.333l-1.916,-2.167l-2.25,-2l-2.333,-1.749l-2.5,-1.5l-2.666,-1.167l-2.75,-1l0,0l-4.416,-0.666l-4.333,-0.167l-4.416,0.167l-4.416,0.666l0,0Z" style="fill:#fff;fill-rule:nonzero;"/></g></svg>