<?xml version="1.0" encoding="UTF-8" standalone="no"?><!DOCTYPE svg PUBLIC "-//W3C//DTD SVG 1.1//EN" "http://www.w3.org/Graphics/SVG/1.1/DTD/svg11.dtd"><svg width="100%" height="100%" viewBox="0 0 692 721" version="1.1" xmlns="http://www.w3.org/2000/svg" xmlns:xlink="http://www.w3.org/1999/xlink" xml:space="preserve" xmlns:serif="http://www.serif.com/" style="fill-rule:evenodd;clip-rule:evenodd;stroke-linejoin:round;stroke-miterlimit:2;"><g transform="matrix(64.5901,0,0,64.5901,444.896,383.054)"></g><text x="256.393px" y="383.054px" style="font-family:'ArialMT', 'Arial', sans-serif;font-size:64.59px;">sw=61</text><rect id="B---C-Lane-L" serif:id="B &amp; C Lane L" x="0" y="0" width="691.417" height="720.472" style="fill:none;"/><clipPath id="_clip1"><rect x="0" y="0" width="691.417" height="720.472"/></clipPath><g clip-path="url(#_clip1)"><path d="M691.417,35.433c0,-19.556 -15.877,-35.433 -35.433,-35.433l-620.551,0c-19.556,0 -35.433,15.877 -35.433,35.433l0,649.606c0,19.556 15.877,35.433 35.433,35.433l620.551,0c19.556,0 35.433,-15.877 35.433,-35.433l0,-649.606Z" style="fill:#fff;"/><path d="M691.417,35.433l0,649.606c0,19.556 -15.877,35.433 -35.433,35.433l-620.551,0c-19.556,0 -35.433,-15.877 -35.433,-35.433l0,-649.606c0,-19.556 15.877,-35.433 35.433,-35.433l620.551,0c19.556,0 35.433,15.877 35.433,35.433Zm-1.181,0c0,-18.904 -15.348,-34.252 -34.252,-34.252l-620.551,0c-18.904,0 -34.252,15.348 -34.252,34.252l0,649.606c0,18.905 15.348,34.252 34.252,34.252l620.551,0c18.904,0 34.252,-15.347 34.252,-34.252l0,-649.606Z" style="fill:#0079c1;"/><path d="M673.701,35.433c-0,-9.778 -7.939,-17.716 -17.717,-17.716l-620.551,-0c-9.778,-0 -17.716,7.938 -17.716,17.716l-0,649.606c-0,9.778 7.938,17.717 17.716,17.717l620.551,-0c9.778,-0 17.717,-7.939 17.717,-17.717l-0,-649.606Z" style="fill:#0079c1;"/><rect x="287.008" y="594.094" width="65.197" height="94.488" style="fill:#0079c1;"/><path d="M322.974,625.954l23.404,-27.135l-14.076,-0l-24.846,29.424l0,-29.424l-11.363,-0l0,66.142l11.363,-0l0,-21.2l8.31,-9.667l19.08,30.867l12.634,-0l-24.506,-39.007Z" style="fill:#fff;fill-rule:nonzero;"/><rect x="89.055" y="594.094" width="50.551" height="94.488" style="fill:#0079c1;"/><path d="M137.244,654.785l-26.965,-0l-0,-55.966l-11.363,-0l-0,66.142l38.328,-0l0,-10.176Z" style="fill:#fff;fill-rule:nonzero;"/><rect x="139.606" y="594.094" width="73.701" height="94.488" style="fill:#0079c1;"/><path d="M195.239,633.416c0,13.313 -4.409,24.082 -18.74,24.082c-14.246,0 -18.825,-10.769 -18.825,-24.082c0,-12.55 4.918,-24.421 18.825,-24.421c13.992,-0 18.74,11.786 18.74,24.421Zm11.363,0c0,-20.097 -10.176,-34.597 -30.188,-34.597c-20.181,-0 -30.103,14.331 -30.103,34.512c0,19.843 10.346,34.258 30.103,34.258c19.758,0 30.188,-14.33 30.188,-34.173Z" style="fill:#fff;fill-rule:nonzero;"/><rect x="213.307" y="594.094" width="73.701" height="94.488" style="fill:#0079c1;"/><path d="M268.94,633.416c0,13.313 -4.409,24.082 -18.74,24.082c-14.246,0 -18.825,-10.769 -18.825,-24.082c-0,-12.55 4.918,-24.421 18.825,-24.421c13.991,-0 18.74,11.786 18.74,24.421Zm11.363,0c-0,-20.097 -10.176,-34.597 -30.188,-34.597c-20.182,-0 -30.103,14.331 -30.103,34.512c0,19.843 10.345,34.258 30.103,34.258c19.758,0 30.188,-14.33 30.188,-34.173Z" style="fill:#fff;fill-rule:nonzero;"/><rect x="432.283" y="594.094" width="62.362" height="94.488" style="fill:#0079c1;"/><path d="M485.088,654.785l-31.884,-0l0,-18.147l27.39,0l-0,-10.175l-27.39,-0l0,-17.468l30.018,-0l0,-10.176l-41.381,-0l0,66.142l43.247,-0l-0,-10.176Z" style="fill:#fff;fill-rule:nonzero;"/><rect x="494.646" y="594.094" width="56.22" height="94.488" style="fill:#0079c1;"/><path d="M546.227,598.804l-41.381,-0l-0,66.141l11.362,0l0,-28.407l27.39,0l-0,-10.175l-27.39,-0l0,-17.384l30.019,0l-0,-10.175Z" style="fill:#fff;fill-rule:nonzero;"/><rect x="381.732" y="594.094" width="50.551" height="94.488" style="fill:#0079c1;"/><path d="M429.921,654.785l-26.965,-0l-0,-55.966l-11.363,-0l-0,66.142l38.328,-0l0,-10.176Z" style="fill:#fff;fill-rule:nonzero;"/><rect x="550.866" y="594.094" width="51.496" height="94.488" style="fill:#0079c1;"/><path d="M600.4,598.819l-47.571,-0l-0,10.176l18.061,-0l0,55.966l11.363,-0l0,-55.966l18.147,-0l-0,-10.176Z" style="fill:#fff;fill-rule:nonzero;"/><rect x="119.291" y="50.787" width="69.449" height="94.488" style="fill:#0079c1;"/><path d="M168.686,101.302c-0,6.021 -4.24,10.006 -10.939,10.006l-15.688,0l0,-20.436l15.603,0c6.699,0 11.024,4.579 11.024,10.43Zm-3.477,-27.559c-0,4.07 -2.29,8.226 -8.141,8.226l-15.009,-0l0,-16.282l14.84,0c5.851,0 8.31,3.986 8.31,8.056Zm14.755,28.746c-0,-8.988 -3.986,-14.924 -11.194,-16.789c4.579,-2.205 7.463,-7.378 7.463,-13.483c-0,-10.345 -7.717,-16.705 -18.486,-16.705l-27.05,-0l-0,66.142l29.424,-0c12.211,-0 19.843,-8.056 19.843,-19.165Z" style="fill:#fff;fill-rule:nonzero;"/><rect x="261.496" y="50.787" width="64.724" height="94.488" style="fill:#0079c1;"/><path d="M319.849,104.949c-0,-10.6 -5.936,-16.706 -18.825,-19.928l-8.395,-2.12c-7.123,-1.78 -11.363,-4.155 -11.363,-9.158c-0,-5.257 5.851,-8.056 12.55,-8.056c5.851,0 11.956,2.205 15.348,7.208l8.734,-7.208c-5.512,-7.546 -15.009,-10.175 -24.082,-10.175c-15.009,-0 -24.083,8.225 -24.083,18.74c0,12.38 9.243,16.959 18.486,19.164l9.582,2.29c5.258,1.272 10.515,3.646 10.515,9.836c0,5.427 -5.172,8.48 -13.907,8.48c-6.359,-0 -14.076,-4.24 -17.722,-9.413l-8.819,7.378c6.699,7.801 16.027,12.21 26.626,12.21c16.366,0 25.355,-7.546 25.355,-19.248Z" style="fill:#fff;fill-rule:nonzero;"/><rect x="188.74" y="50.787" width="72.756" height="94.488" style="fill:#0079c1;"/><path d="M250.981,55.512l-11.617,-0c0,7.632 0.085,42.738 0.085,42.738c-0,9.921 -6.699,14.585 -14.161,14.585c-7.632,-0 -14.161,-4.749 -14.161,-14.585l-0,-42.738l-11.872,-0l-0,42.822c-0,16.96 12.296,24.846 25.863,24.846c13.313,-0 25.863,-7.886 25.863,-24.93l0,-42.738Z" style="fill:#fff;fill-rule:nonzero;"/><rect x="499.37" y="50.787" width="72.756" height="94.488" style="fill:#0079c1;"/><path d="M551.266,88.159c-0,10.939 -5.088,23.319 -17.553,23.319l-13.483,-0l0,-45.791l13.992,0c11.362,0 17.044,12.72 17.044,22.472Zm11.363,-0c-0,-16.027 -8.904,-32.647 -29.425,-32.647l-24.337,-0l0,66.142l24.252,-0c20.606,-0 29.51,-15.688 29.51,-33.495Z" style="fill:#fff;fill-rule:nonzero;"/><rect x="355.748" y="50.787" width="64.252" height="94.488" style="fill:#0079c1;"/><path d="M377.783,99.606l10.006,-31.968l10.176,31.968l-20.182,0Zm17.044,-44.094l-14.076,-0l-21.284,66.142l11.363,-0l3.985,-12.381l26.287,0l3.816,12.381l11.363,-0l-21.454,-66.142Z" style="fill:#fff;fill-rule:nonzero;"/><rect x="420" y="50.787" width="79.37" height="94.488" style="fill:#0079c1;"/><path d="M487.583,55.512l-11.363,-0l0,47.062l-32.562,-47.062l-11.871,-0l-0,66.142l11.363,-0l-0,-47.063l32.562,47.063l11.871,-0l0,-66.142Z" style="fill:#fff;fill-rule:nonzero;"/><rect x="47.244" y="145.276" width="69.921" height="94.488" style="fill:#0079c1;"/><path d="M110.781,166.535c-3.561,-11.871 -13.737,-19.164 -27.22,-19.164c-19.842,0 -29.933,15.942 -29.933,34.767c0,18.062 10.176,34.004 29.933,34.004c13.822,-0 22.557,-6.53 27.051,-18.825l-10.43,-3.477c-2.459,7.632 -8.395,12.126 -16.451,12.126c-14.076,0 -18.486,-11.532 -18.486,-24.082c0,-12.974 5.088,-24.422 19.249,-24.422c8.565,0 13.992,6.19 16.027,12.72l10.26,-3.647Z" style="fill:#fff;fill-rule:nonzero;"/><rect x="175.276" y="145.276" width="69.921" height="94.488" style="fill:#0079c1;"/><path d="M238.813,166.535c-3.562,-11.871 -13.737,-19.164 -27.22,-19.164c-19.843,0 -29.933,15.942 -29.933,34.767c-0,18.062 10.175,34.004 29.933,34.004c13.822,-0 22.556,-6.53 27.05,-18.825l-10.43,-3.477c-2.459,7.632 -8.395,12.126 -16.45,12.126c-14.077,0 -18.486,-11.532 -18.486,-24.082c-0,-12.974 5.088,-24.422 19.249,-24.422c8.564,0 13.991,6.19 16.026,12.72l10.261,-3.647Z" style="fill:#fff;fill-rule:nonzero;"/><rect x="295.748" y="145.276" width="62.362" height="94.488" style="fill:#0079c1;"/><path d="M348.552,205.966l-31.883,0l-0,-18.146l27.389,-0l0,-10.176l-27.389,-0l-0,-17.468l30.018,-0l-0,-10.176l-41.381,0l-0,66.142l43.246,-0l0,-10.176Z" style="fill:#fff;fill-rule:nonzero;"/><rect x="245.197" y="145.276" width="50.551" height="94.488" style="fill:#0079c1;"/><path d="M293.386,205.966l-26.966,0l0,-55.966l-11.362,0l-0,66.142l38.328,-0l-0,-10.176Z" style="fill:#fff;fill-rule:nonzero;"/><rect x="117.165" y="145.276" width="58.11" height="94.488" style="fill:#0079c1;"/><path d="M161.06,150l-14.84,27.729l-14.839,-27.729l-12.041,-0l21.199,39.6l0,26.542l11.363,-0l-0,-26.542l21.199,-39.6l-12.041,-0Z" style="fill:#fff;fill-rule:nonzero;"/><rect x="581.811" y="145.276" width="62.362" height="94.488" style="fill:#0079c1;"/><path d="M634.615,205.966l-31.883,0l-0,-18.146l27.389,-0l0,-10.176l-27.389,-0l-0,-17.468l30.018,-0l-0,-10.176l-41.381,0l-0,66.142l43.246,-0l0,-10.176Z" style="fill:#fff;fill-rule:nonzero;"/><rect x="438.189" y="145.276" width="64.252" height="94.488" style="fill:#0079c1;"/><path d="M460.224,194.094l10.006,-31.968l10.176,31.968l-20.182,0Zm17.044,-44.094l-14.076,0l-21.284,66.142l11.363,-0l3.985,-12.381l26.287,0l3.816,12.381l11.363,-0l-21.454,-66.142Z" style="fill:#fff;fill-rule:nonzero;"/><rect x="387.638" y="145.276" width="50.551" height="94.488" style="fill:#0079c1;"/><path d="M435.827,205.966l-26.966,0l0,-55.966l-11.363,0l0,66.142l38.329,-0l-0,-10.176Z" style="fill:#fff;fill-rule:nonzero;"/><rect x="502.441" y="145.276" width="79.37" height="94.488" style="fill:#0079c1;"/><path d="M570.024,150l-11.363,-0l0,47.062l-32.562,-47.062l-11.871,-0l-0,66.142l11.363,-0l-0,-47.063l32.562,47.063l11.871,-0l0,-66.142Z" style="fill:#fff;fill-rule:nonzero;"/><clipPath id="_clip2"><rect id="S24-Cycle-W.afdesign" serif:id="S24 Cycle W.afdesign" x="245.315" y="440.551" width="200.787" height="118.11"/></clipPath><g clip-path="url(#_clip2)"><path d="M325.844,535.609l-1.025,-0.75l-0.975,-0.8l-0.875,-0.9l-0.825,-0.975l-0.725,-1.05l-0.625,-1.1l-0.525,-1.15l-0.45,-1.175l-0.325,-1.225l-3.475,-0l-0.201,1.825l-0.325,1.825l-0.399,1.825l-0.501,1.775l-0.6,1.75l-0.675,1.726l-0.775,1.675l-0.875,1.65l-0.95,1.575l-1.025,1.55l-1.1,1.475l-1.2,1.425l-1.25,1.375l-1.325,1.301l-1.375,1.225l-1.476,1.125l-1.5,1.075l-1.575,1l-1.6,0.9l-1.675,0.825l-1.7,0.725l-1.725,0.65l-1.775,0.55l-1.801,0.475l-1.8,0.35l-1.85,0.275l-1.825,0.175l-1.851,0.075l-1.85,-0.025l-1.85,-0.125l-1.85,-0.2l-1.825,-0.325l-1.8,-0.4l-1.8,-0.5l-1.75,-0.575l-1.726,-0.7l-1.675,-0.75l-1.65,-0.875l-1.6,-0.925l-1.525,-1.025l-1.501,-1.1l-1.425,-1.2l-1.374,-1.25l-1.276,-1.326l-1.225,-1.375l-1.175,-1.45l-1.075,-1.525l-0.975,-1.55l-0.925,-1.625l-0.825,-1.65l-0.725,-1.701l-0.65,-1.725l-0.55,-1.775l-0.476,-1.8l-0.374,-1.8l-0.276,-1.825l-0.174,-1.85l-0.075,-1.851l0.025,-1.85l0.1,-1.85l0.224,-1.85l0.301,-1.825l0.399,-1.8l0.475,-1.801l0.6,-1.75l0.675,-1.725l0.776,-1.675l0.85,-1.65l0.925,-1.6l1.025,-1.55l1.1,-1.476l1.175,-1.45l1.251,-1.35l1.324,-1.3l1.376,-1.225l1.449,-1.175l1.526,-1.075l1.55,-1l1.6,-0.9l1.675,-0.825l1.7,-0.75l1.726,-0.651l1.774,-0.575l1.776,-0.45l1.825,-0.375l1.825,-0.275l1.85,-0.2l1.85,-0.075l1.85,0l1.851,0.125l1.85,0.2l1.825,0.3l1.8,0.4l1.776,0.475l1.775,0.6l1.725,0.676l13.976,-24.228l-2.726,-7.5l-0.999,-0.125l-0.976,-0.225l-0.974,-0.325l-0.926,-0.4l-0.875,-0.5l-0.85,-0.575l-0.775,-0.65l-0.7,-0.726l-0.65,-0.8l-0.55,-0.85l-0.475,-0.875l-0.4,-0.95l-0.275,-0.975l-0.05,-0.3l0.05,-0.3l0.125,-0.275l0.175,-0.25l0.25,-0.175l0.275,-0.125l0.3,-0.05l30.552,-0l0.5,0.05l0.501,0.125l0.45,0.225l0.425,0.275l0.35,0.35l0.3,0.425l0.225,0.45l0.15,0.5l0.05,0.5l-0.025,0.5l-0.125,0.5l-0.2,0.45l-0.275,0.425l-0.35,0.375l-0.4,0.3l-0.45,0.25l-0.501,0.15l-13.651,3.026l3.226,8.85l64.68,0l-1.425,-5.3l-0.175,-0.875l-0.075,-0.85l0,-0.875l0.075,-0.875l0.2,-0.85l0.275,-0.85l0.35,-0.775l0.45,-0.776l0.525,-0.7l0.6,-0.625l0.65,-0.6l0.725,-0.5l0.325,-0.25l0.25,-0.325l0.175,-0.375l0.075,-0.425l-0.025,-0.4l-0.125,-0.4l-0.2,-0.375l-0.275,-0.3l-0.35,-0.225l-0.4,-0.15l-0.4,-0.05l-13.576,-0l0,-8.851l16.527,0l0.925,0.05l0.9,0.125l0.875,0.225l0.85,0.3l0.825,0.375l0.8,0.475l0.725,0.525l0.7,0.6l0.625,0.675l0.55,0.726l0.475,0.775l0.4,0.825l0.325,0.85l0.25,0.875l0.15,0.9l0.075,0.9l-0.025,0.925l-0.1,0.9l-0.2,0.875l-0.275,0.875l-0.375,0.85l-0.425,0.775l-0.525,0.775l-0.575,0.701l-0.65,0.625l-0.725,0.575l-0.75,0.5l-0.45,0.325l-0.375,0.4l-0.3,0.45l-0.2,0.5l-0.1,0.55l-0.025,0.55l0.1,0.525l7.676,28.627l1.75,-0.6l1.775,-0.5l1.825,-0.425l1.825,-0.325l1.85,-0.25l1.85,-0.125l1.851,-0.025l1.85,0.05l1.85,0.175l1.85,0.25l1.825,0.35l1.8,0.45l1.776,0.525l1.75,0.65l1.7,0.701l1.675,0.825l1.625,0.9l1.575,0.975l1.525,1.075l1.451,1.125l1.4,1.225l1.35,1.275l1.25,1.375l1.2,1.425l1.125,1.476l1.05,1.525l0.95,1.6l0.875,1.625l0.775,1.7l0.7,1.725l0.601,1.75l0.525,1.776l0.425,1.8l0.325,1.85l0.225,1.825l0.125,1.85l0.025,1.85l-0.05,1.876l-0.175,1.85l-0.25,1.825l-0.35,1.825l-0.45,1.8l-0.551,1.775l-0.625,1.75l-0.725,1.701l-0.825,1.675l-0.9,1.625l-0.975,1.575l-1.075,1.525l-1.125,1.45l-1.225,1.4l-1.3,1.351l-1.35,1.25l-1.426,1.2l-1.475,1.125l-1.55,1.025l-1.575,0.975l-1.65,0.85l-1.675,0.8l-1.725,0.7l-1.75,0.6l-1.801,0.5l-1.8,0.425l-1.825,0.325l-1.85,0.225l-1.85,0.125l-1.85,0.025l-1.876,-0.075l-1.825,-0.15l-1.85,-0.275l-1.825,-0.35l-1.8,-0.45l-1.775,-0.55l-1.751,-0.625l-1.7,-0.725l-1.675,-0.825l-1.625,-0.9l-1.575,-0.975l-1.5,-1.075l-1.475,-1.15l-1.4,-1.2l-1.326,-1.301l-1.275,-1.35l-1.175,-1.425l-1.125,-1.5l-1.025,-1.525l-0.975,-1.6l-0.85,-1.65l-0.8,-1.675l-0.675,-1.726l-0.6,-1.75l-0.525,-1.8l-0.4,-1.8l-0.325,-1.825l-0.225,-1.85l-0.125,-1.851l-0.025,-1.85l0.05,-1.85l0.175,-1.85l0.275,-1.85l0.35,-1.825l0.45,-1.8l0.55,-1.776l0.625,-1.725l0.75,-1.725l0.8,-1.65l0.9,-1.625l1,-1.575l1.075,-1.525l1.125,-1.451l1.225,-1.4l1.3,-1.325l1.351,-1.275l1.425,-1.175l1.5,-1.125l-1.15,-4.276l-41.054,28.728l0.325,1.2l0.225,1.2l0.125,1.225l0,1.225l-0.075,1.25l-0.2,1.201l-0.275,1.2l-0.4,1.175l-0.475,1.15l-0.575,1.075l-0.675,1.05l-0.75,0.975l-0.825,0.9l-0.9,0.85l-0.975,0.75l-1.025,0.675l-1.101,0.6l-1.125,0.501l-1.175,0.4l-1.175,0.3l-1.225,0.2l-1.225,0.1l-1.25,-0l-1.225,-0.125l-1.2,-0.2l-1.2,-0.3l-2.226,4.775l4.001,-0l-0,4.725l-4.001,0l-0.425,0.5l-0.475,0.45l-0.575,0.351l-0.6,0.25l-0.65,0.15l-0.65,0.075l-0.675,-0.075l-0.65,-0.15l-0.6,-0.25l-0.55,-0.351l-0.5,-0.45l-0.425,-0.5l-4,0l-0,-4.725l6.2,-0l3.05,-6.526Zm-25.152,2.376l-0.975,1.225l-1.05,1.15l-1.1,1.1l-1.2,1.025l-1.25,0.95l-1.301,0.875l-1.35,0.775l-1.399,0.7l-1.451,0.6l-1.475,0.525l-1.5,0.425l-1.55,0.3l-1.55,0.25l-1.551,0.125l-1.574,0.025l-1.551,-0.075l-1.55,-0.175l-1.55,-0.25l-1.525,-0.375l-1.5,-0.45l-1.475,-0.55l-1.425,-0.65l-1.375,-0.725l-1.351,-0.825l-1.275,-0.9l-1.225,-0.975l-1.15,-1.05l-1.075,-1.125l-1.025,-1.2l-0.95,-1.25l-0.851,-1.326l-0.775,-1.35l-0.675,-1.4l-0.6,-1.45l-0.5,-1.5l-0.399,-1.5l-0.326,-1.525l-0.199,-1.55l-0.125,-1.576l-0.025,-1.575l0.075,-1.55l0.199,-1.55l0.275,-1.55l0.375,-1.525l0.476,-1.475l0.55,-1.475l0.65,-1.426l0.749,-1.375l0.826,-1.325l0.925,-1.275l0.975,-1.225l1.075,-1.15l1.125,-1.075l1.2,-1l1.251,-0.925l1.324,-0.85l1.375,-0.751l1.4,-0.675l1.451,-0.6l1.5,-0.475l1.525,-0.4l1.525,-0.3l1.55,-0.2l1.575,-0.125l1.55,0l1.576,0.1l1.55,0.2l1.525,0.275l1.525,0.4l1.5,0.475l-12.551,21.727l-0.25,0.5l-0.125,0.55l-0.05,0.575l0.05,0.55l0.125,0.55l0.25,0.525l0.325,0.451l0.4,0.4l0.475,0.325l0.5,0.25l0.55,0.15l0.575,0.05l25.953,-0l-0.251,1.55l-0.349,1.525l-0.451,1.5l-0.55,1.45l-0.625,1.45l-0.725,1.375l-0.799,1.351l-0.901,1.3Zm101.909,-31.503l-1.625,-6.076l1.45,-0.575l1.475,-0.45l1.525,-0.4l1.525,-0.275l1.55,-0.175l1.551,-0.1l1.55,0.025l1.55,0.1l1.55,0.2l1.525,0.3l1.525,0.4l1.475,0.5l1.425,0.575l1.426,0.675l1.35,0.751l1.3,0.85l1.275,0.925l1.175,1l1.15,1.075l1.05,1.125l0.975,1.2l0.925,1.275l0.825,1.325l0.726,1.375l0.675,1.401l0.55,1.45l0.475,1.475l0.375,1.525l0.3,1.525l0.175,1.55l0.1,1.55l-0.025,1.55l-0.1,1.576l-0.2,1.525l-0.3,1.525l-0.4,1.525l-0.475,1.475l-0.6,1.45l-0.651,1.4l-0.775,1.35l-0.825,1.326l-0.925,1.25l-1,1.2l-1.075,1.125l-1.15,1.05l-1.2,1l-1.25,0.9l-1.325,0.825l-1.375,0.75l-1.401,0.65l-1.475,0.575l-1.475,0.475l-1.5,0.375l-1.55,0.275l-1.525,0.2l-1.575,0.1l-1.55,-0.025l-1.551,-0.1l-1.55,-0.2l-1.525,-0.3l-1.5,-0.4l-1.475,-0.475l-1.45,-0.575l-1.4,-0.675l-1.376,-0.75l-1.3,-0.85l-1.275,-0.925l-1.175,-1l-1.15,-1.075l-1.05,-1.125l-1,-1.2l-0.9,-1.275l-0.825,-1.326l-0.75,-1.35l-0.65,-1.425l-0.575,-1.45l-0.475,-1.475l-0.376,-1.525l-0.3,-1.525l-0.175,-1.55l-0.1,-1.551l0,-1.55l0.125,-1.55l0.2,-1.55l0.3,-1.525l0.376,-1.525l0.5,-1.475l0.575,-1.451l0.675,-1.4l0.75,-1.35l0.825,-1.325l0.925,-1.25l1,-1.2l1.075,-1.125l2,7.425l0.375,1.276l0.5,1.25l0.55,1.2l0.65,1.175l0.75,1.1l0.801,1.05l0.875,1l0.95,0.95l1.025,0.85l1.075,0.8l1.125,0.725l1.15,0.626l1.225,0.55l1.25,0.45l1.275,0.375l1.301,0.3l0.575,0.05l0.575,-0.05l0.55,-0.125l0.525,-0.225l0.475,-0.3l0.425,-0.375l0.375,-0.45l0.3,-0.476l0.2,-0.55l0.125,-0.55l0.025,-0.575l-0.075,-0.55l-0.15,-0.55l-0.25,-0.525l-0.325,-0.475l-0.375,-0.425l-0.475,-0.325l-1.275,-0.9l-1.25,-1l-1.176,-1.075l-1.075,-1.125l-1.025,-1.225l-0.925,-1.275l-0.825,-1.351l-0.75,-1.375l-0.675,-1.45l-0.55,-1.475l-0.45,-1.525Zm-78.107,15.826l0.125,-0.925l0.225,-0.9l0.325,-0.875l0.4,-0.825l0.475,-0.8l0.55,-0.75l0.625,-0.675l0.675,-0.625l0.75,-0.55l0.801,-0.475l0.825,-0.4l0.875,-0.325l0.9,-0.225l0.925,-0.125l0.925,-0.05l0.925,0.05l0.925,0.125l0.9,0.225l0.875,0.325l0.825,0.4l0.8,0.475l0.75,0.55l0.676,0.625l0.625,0.675l0.55,0.75l0.475,0.8l0.4,0.825l0.325,0.875l0.225,0.9l0.125,0.925l0.05,0.925l-0.05,0.925l-0.125,0.926l-0.225,0.9l-0.325,0.875l-0.4,0.825l-0.475,0.8l-0.55,0.75l-0.625,0.675l-0.676,0.625l-0.75,0.55l-0.8,0.475l-0.825,0.4l-0.875,0.325l-0.9,0.225l-0.925,0.125l-0.925,0.05l-0.925,-0.05l-0.925,-0.125l-0.9,-0.225l-0.875,-0.325l-0.825,-0.4l-0.801,-0.475l-0.75,-0.55l-0.675,-0.625l-0.625,-0.675l-0.55,-0.75l-0.475,-0.8l-0.4,-0.825l-0.325,-0.875l-0.225,-0.9l-0.125,-0.926l-0.05,-0.925l0.05,-0.925Zm-36.753,-2.325l9.051,-15.676l1.125,1.025l1.05,1.075l1,1.15l0.925,1.225l0.85,1.25l0.775,1.325l0.7,1.35l0.6,1.401l0.5,1.425l0.426,1.475l0.349,1.475l0.251,1.5l-17.602,0Zm14.427,-24.977l1.425,1.15l1.374,1.225l1.301,1.275l1.25,1.35l1.175,1.425l1.075,1.476l1.025,1.55l0.925,1.575l0.85,1.625l0.775,1.675l0.675,1.7l0.575,1.75l0.501,1.776l0.399,1.8l0.325,1.8l0.201,1.825l3.475,0l0.325,-1.25l0.45,-1.2l0.55,-1.15l0.65,-1.1l0.725,-1.05l0.825,-1.001l0.925,-0.9l0.975,-0.825l-12.476,-34.303l-10.275,17.802Zm49.028,9.326l-6.2,-0l-3.05,6.525l0.95,0.675l43.678,-30.602l-1.325,-4.951l-63.83,0l11.826,32.503l1.25,0l1.25,0.1l1.25,0.2l1.2,0.325l2.225,-4.775l-4,-0l0,-4.726l4,0l0.426,-0.5l0.5,-0.45l0.55,-0.35l0.6,-0.25l0.65,-0.175l0.675,-0.05l0.65,0.05l0.65,0.175l0.6,0.25l0.575,0.35l0.5,0.45l0.4,0.5l4,0l0,4.726Z" style="fill:#fff;"/></g><clipPath id="_clip3"><rect id="S25-Bus--Right--W.afdesign" serif:id="S25 Bus (Right) W.afdesign" x="109.488" y="251.575" width="472.441" height="153.543"/></clipPath><g clip-path="url(#_clip3)"><path d="M452.49,376.922c0.094,-0.375 0.344,-1.51 0.562,-2.25c0.219,-0.739 0.461,-1.473 0.751,-2.188c0.291,-0.719 0.635,-1.449 1,-2.126c0.359,-0.667 0.765,-1.309 1.187,-1.938c0.427,-0.636 0.887,-1.273 1.375,-1.875c0.49,-0.605 1.011,-1.199 1.563,-1.751c0.552,-0.553 1.156,-1.073 1.749,-1.563c0.585,-0.482 1.183,-0.952 1.813,-1.376c0.635,-0.427 1.315,-0.824 2,-1.187c0.688,-0.365 1.406,-0.708 2.125,-1c0.715,-0.29 1.449,-0.532 2.188,-0.751c0.739,-0.219 1.499,-0.406 2.249,-0.563c0.745,-0.155 1.493,-0.302 2.25,-0.374c0.761,-0.073 1.542,-0.063 2.313,-0.063c0.771,0 1.545,-0.01 2.313,0.063c0.771,0.072 1.552,0.218 2.313,0.374c0.757,0.156 1.509,0.344 2.249,0.563c0.739,0.219 1.473,0.461 2.188,0.751c0.718,0.292 1.448,0.635 2.125,1c0.667,0.359 1.309,0.765 1.937,1.187c0.636,0.428 1.273,0.888 1.876,1.376c0.604,0.49 1.198,1.01 1.75,1.563c0.552,0.552 1.072,1.146 1.561,1.751c0.488,0.602 0.948,1.239 1.376,1.875c0.422,0.629 0.828,1.271 1.187,1.938c0.365,0.677 0.709,1.407 1,2.126c0.29,0.715 0.55,1.521 0.75,2.188c0.18,0.598 0.361,1.441 0.454,1.816c0.037,0.145 0.083,0.287 0.109,0.434c0.081,0.458 0.302,1.543 0.375,2.314c0.073,0.768 0.062,1.542 0.062,2.313c0,0.771 0.011,1.552 -0.062,2.312c-0.073,0.758 -0.22,1.507 -0.375,2.251c-0.156,0.751 -0.344,1.511 -0.563,2.251c-0.218,0.74 -0.46,1.474 -0.75,2.189c-0.291,0.719 -0.635,1.437 -1,2.125c-0.363,0.685 -0.76,1.365 -1.187,2.001c-0.423,0.629 -0.893,1.228 -1.376,1.813c-0.489,0.594 -1.009,1.198 -1.561,1.75c-0.552,0.552 -1.146,1.074 -1.75,1.563c-0.602,0.488 -1.24,0.948 -1.876,1.375c-0.628,0.423 -1.27,0.828 -1.937,1.188c-0.677,0.364 -1.407,0.709 -2.125,1.001c-0.715,0.29 -1.449,0.531 -2.188,0.75c-0.74,0.218 -1.492,0.407 -2.249,0.562c-0.761,0.156 -1.542,0.302 -2.313,0.375c-0.768,0.073 -1.542,0.063 -2.313,0.063c-0.771,-0 -1.552,0.01 -2.313,-0.063c-0.757,-0.072 -1.505,-0.22 -2.25,-0.375c-0.75,-0.156 -1.51,-0.344 -2.249,-0.562c-0.739,-0.219 -1.473,-0.46 -2.188,-0.75c-0.719,-0.292 -1.437,-0.637 -2.125,-1.001c-0.685,-0.364 -1.365,-0.761 -2,-1.188c-0.63,-0.423 -1.228,-0.892 -1.813,-1.375c-0.593,-0.489 -1.197,-1.011 -1.749,-1.563c-0.552,-0.552 -1.073,-1.156 -1.563,-1.75c-0.482,-0.585 -0.952,-1.184 -1.375,-1.813c-0.427,-0.636 -0.824,-1.316 -1.187,-2.001c-0.365,-0.688 -0.709,-1.406 -1,-2.125c-0.29,-0.715 -0.532,-1.449 -0.751,-2.189c-0.218,-0.74 -0.406,-1.5 -0.562,-2.251c-0.155,-0.744 -0.292,-1.494 -0.375,-2.251c-0.084,-0.76 -0.125,-1.541 -0.125,-2.312c-0,-0.771 0.042,-1.546 0.125,-2.313c0.083,-0.771 0.312,-1.928 0.375,-2.314Zm-236.189,0c0.094,-0.375 0.344,-1.51 0.563,-2.25c0.218,-0.739 0.46,-1.473 0.75,-2.188c0.292,-0.719 0.635,-1.449 1,-2.126c0.359,-0.667 0.765,-1.309 1.188,-1.938c0.427,-0.636 0.887,-1.273 1.375,-1.875c0.489,-0.605 1.01,-1.199 1.562,-1.751c0.552,-0.553 1.156,-1.073 1.749,-1.563c0.586,-0.482 1.184,-0.952 1.813,-1.376c0.636,-0.427 1.315,-0.824 2,-1.187c0.688,-0.365 1.407,-0.708 2.126,-1c0.714,-0.29 1.448,-0.532 2.187,-0.751c0.74,-0.219 1.5,-0.406 2.249,-0.563c0.745,-0.155 1.494,-0.302 2.251,-0.374c0.76,-0.073 1.542,-0.063 2.312,-0.063c0.771,0 1.545,-0.01 2.313,0.063c0.771,0.072 1.553,0.218 2.313,0.374c0.757,0.156 1.51,0.344 2.249,0.563c0.739,0.219 1.473,0.461 2.188,0.751c0.719,0.292 1.448,0.635 2.125,1c0.667,0.359 1.309,0.765 1.938,1.187c0.635,0.428 1.273,0.888 1.875,1.376c0.604,0.49 1.198,1.01 1.75,1.563c0.552,0.552 1.072,1.146 1.562,1.751c0.488,0.602 0.948,1.239 1.375,1.875c0.423,0.629 0.828,1.271 1.188,1.938c0.364,0.677 0.708,1.407 1,2.126c0.289,0.715 0.549,1.521 0.75,2.188c0.179,0.598 0.36,1.441 0.454,1.816c0.036,0.145 0.082,0.287 0.108,0.434c0.081,0.458 0.302,1.543 0.375,2.314c0.073,0.768 0.063,1.542 0.063,2.313c-0,0.771 0.01,1.552 -0.063,2.312c-0.072,0.758 -0.22,1.507 -0.375,2.251c-0.156,0.751 -0.344,1.511 -0.562,2.251c-0.219,0.74 -0.46,1.474 -0.75,2.189c-0.292,0.719 -0.636,1.437 -1,2.125c-0.364,0.685 -0.761,1.365 -1.188,2.001c-0.423,0.629 -0.893,1.228 -1.375,1.813c-0.49,0.594 -1.01,1.198 -1.562,1.75c-0.552,0.552 -1.146,1.074 -1.75,1.563c-0.602,0.488 -1.24,0.948 -1.875,1.375c-0.629,0.423 -1.271,0.828 -1.938,1.188c-0.677,0.364 -1.406,0.709 -2.125,1.001c-0.714,0.29 -1.449,0.531 -2.188,0.75c-0.739,0.218 -1.492,0.407 -2.249,0.562c-0.76,0.156 -1.542,0.302 -2.313,0.375c-0.768,0.073 -1.542,0.063 -2.313,0.063c-0.77,-0 -1.552,0.01 -2.312,-0.063c-0.757,-0.072 -1.506,-0.22 -2.251,-0.375c-0.749,-0.156 -1.509,-0.344 -2.249,-0.562c-0.739,-0.219 -1.473,-0.46 -2.187,-0.75c-0.719,-0.292 -1.438,-0.637 -2.126,-1.001c-0.685,-0.364 -1.364,-0.761 -2,-1.188c-0.629,-0.423 -1.228,-0.892 -1.813,-1.375c-0.593,-0.489 -1.197,-1.011 -1.749,-1.563c-0.552,-0.552 -1.073,-1.156 -1.562,-1.75c-0.483,-0.585 -0.952,-1.184 -1.375,-1.813c-0.428,-0.636 -0.825,-1.316 -1.188,-2.001c-0.365,-0.688 -0.708,-1.406 -1,-2.125c-0.29,-0.715 -0.532,-1.449 -0.75,-2.189c-0.219,-0.74 -0.407,-1.5 -0.563,-2.251c-0.155,-0.744 -0.292,-1.494 -0.375,-2.251c-0.083,-0.76 -0.125,-1.541 -0.125,-2.312c0,-0.771 0.042,-1.546 0.125,-2.313c0.083,-0.771 0.313,-1.928 0.375,-2.314Zm25.665,-6.939c0.275,0.084 0.565,0.096 0.836,0.188c0.4,0.135 1.055,0.386 1.562,0.624c0.511,0.24 1.031,0.511 1.5,0.813c0.462,0.298 0.898,0.639 1.312,1.001c0.417,0.365 0.823,0.771 1.188,1.187c0.362,0.415 0.752,0.953 1,1.314c0.185,0.269 0.311,0.575 0.488,0.851c0,0 0.222,0.43 0.325,0.649c0.111,0.237 0.209,0.523 0.344,0.772c-0,-0 0.215,0.519 0.281,0.791c0.098,0.413 0.239,1.125 0.312,1.688c0.073,0.559 0.125,1.136 0.125,1.688c0,0.543 -0.054,1.086 -0.125,1.625c-0.073,0.552 -0.156,1.147 -0.312,1.688c-0.156,0.539 -0.387,1.055 -0.625,1.563c-0.24,0.51 -0.511,1.032 -0.813,1.501c-0.298,0.462 -0.638,0.898 -1,1.312c-0.365,0.417 -0.772,0.814 -1.188,1.189c-0.417,0.375 -0.849,0.762 -1.312,1.062c-0.461,0.298 -0.499,0.25 -1.471,0.739l-0.029,0.011c-0.273,0.11 -0.52,0.208 -1.552,0.623l-0.01,0.002c-0.248,0.057 -0.973,0.216 -1.458,0.333c-0,-0 -0.152,0.035 -0.23,0.042c-0.319,0.028 -1.343,0.108 -1.688,0.126c-0.127,0.007 -0.381,-0.015 -0.381,-0.015c-0.775,-0.075 -0.833,-0.043 -1.244,-0.111c-0.488,-0.081 -1.146,-0.208 -1.687,-0.375c-0.537,-0.165 -1.302,-0.521 -1.563,-0.625l-0,-0c-1,-0.5 -1.031,-0.448 -1.499,-0.75c-0.469,-0.302 -0.896,-0.687 -1.313,-1.062c-0.416,-0.375 -0.974,-0.973 -1.187,-1.189c-0.034,-0.034 -0.095,-0.108 -0.095,-0.108c-0.32,-0.404 -0.692,-0.769 -0.968,-1.204c-0.286,-0.451 -0.521,-0.991 -0.75,-1.501c-0.229,-0.511 -0.46,-1.026 -0.625,-1.563c-0.167,-0.541 -0.292,-1.136 -0.375,-1.688c-0.081,-0.537 -0.125,-1.082 -0.125,-1.625c-0,-0.552 0.104,-1.407 0.125,-1.688c0.062,-0.282 0.208,-1.146 0.375,-1.688c0.476,-1.22 0.396,-1.053 0.625,-1.563c0.229,-0.51 0.448,-1.031 0.75,-1.5c0.302,-0.469 0.885,-1.095 1.063,-1.314l-0,0c0.792,-0.792 0.771,-0.822 1.187,-1.187c0.414,-0.362 0.85,-0.703 1.313,-1.001c0.468,-0.302 0.989,-0.573 1.499,-0.813c0.508,-0.238 1.302,-0.52 1.563,-0.624l-0,-0c1.159,-0.215 1.271,-0.246 1.687,-0.313c0.269,-0.043 0.542,-0.042 0.811,-0.089l0.814,-0.036c1.5,0.09 1.265,0.083 1.688,0.125c0.286,0.028 0.564,0.104 0.852,0.125Zm241.539,20.314l-0.139,0.13l-1.029,0.816c-0,-0 -0.222,0.179 -0.346,0.246c-0.308,0.166 -0.99,0.521 -1.5,0.75c-0.511,0.229 -1.171,0.485 -1.563,0.625c-0.257,0.092 -0.791,0.215 -0.791,0.215l-0.014,0.004l-0.82,0.156l-0.84,0.094l-0.847,0.032c-0.562,-0.042 -1.135,-0.042 -1.687,-0.126c-0.55,-0.083 -1.094,-0.211 -1.626,-0.375c-0.541,-0.167 -1.114,-0.396 -1.625,-0.625c-0.493,-0.221 -0.983,-0.457 -1.437,-0.75c-0.469,-0.302 -1.134,-0.876 -1.376,-1.062l-0.024,-0.019c-0.768,-0.775 -0.817,-0.77 -1.163,-1.17c-0.353,-0.407 -0.83,-1.089 -1,-1.312l-0.007,-0.009c-0.55,-1.021 -0.672,-1.245 -0.805,-1.492l-0.001,-0.003c-0.308,-0.768 -0.561,-1.56 -0.561,-1.56l-0.069,-0.266c-0.265,-1.061 -0.238,-0.942 -0.306,-1.422c-0.072,-0.508 -0.125,-1.082 -0.125,-1.625c-0,-0.552 0.083,-1.31 0.125,-1.688l0.195,-0.95l0.18,-0.738l0.1,-0.299l0.147,-0.434l0.315,-0.83l0.132,-0.266l0.301,-0.592l0.379,-0.642c0.166,-0.219 0.775,-1.032 1,-1.314c0.106,-0.133 0.348,-0.374 0.348,-0.374c0.381,-0.479 0.538,-0.566 0.839,-0.813c0.37,-0.302 1.146,-0.834 1.376,-1.001l-0,-0c0.958,-0.542 0.939,-0.579 1.437,-0.813c0.511,-0.239 1.354,-0.52 1.625,-0.624c0.542,-0.105 1.198,-0.245 1.626,-0.313c0.31,-0.049 0.627,-0.046 0.939,-0.094c0.37,-0.048 0.499,-0.041 0.748,-0.031c0.406,0.016 1.135,0.052 1.687,0.125c0.547,0.072 1.096,0.157 1.625,0.313c0.531,0.156 1.055,0.386 1.563,0.624c0.51,0.24 1.021,0.511 1.5,0.813c0.479,0.302 0.948,0.636 1.375,1.001c0.426,0.363 0.823,0.771 1.188,1.187c0.362,0.415 0.702,0.851 1,1.314c0.302,0.469 0.583,0.989 0.812,1.5c0.227,0.505 0.409,1.031 0.563,1.563c0.156,0.542 0.29,1.125 0.374,1.688c0.083,0.558 0.126,1.136 0.126,1.688c-0,0.543 -0.045,1.088 -0.126,1.625c-0.084,0.552 -0.218,1.147 -0.374,1.688c-0.153,0.532 -0.336,1.058 -0.563,1.563c-0.229,0.51 -0.51,1.032 -0.812,1.501c-0.298,0.462 -0.659,0.917 -1,1.312c-0.325,0.376 -0.703,0.703 -1.049,1.059Zm98.299,-12.937l-0.312,1.688l-0.563,1.625l-0.749,1.564l-1,1.499l-1.125,1.251l-1.313,1.188l-1.438,0.938l-1.562,0.75l-1.625,0.563l-1.751,0.375l-1.686,0.125l-64.439,-0l0.563,-2.751l0.312,-2.689l0.063,-2.813l-0.25,-2.75l-0.438,-2.688l-0.688,-2.689l-0.999,-2.563l-1.187,-2.501l-1.438,-2.376l-1.625,-2.187l-1.813,-2.064l-2.062,-1.876l-2.187,-1.687l-2.313,-1.501l-2.5,-1.25l-2.563,-1l-2.625,-0.751l-2.749,-0.5l-2.688,-0.25l-2.813,0l-2.75,0.25l-2.687,0.5l-2.625,0.751l-2.625,1l-2.438,1.25l-2.312,1.501l-2.188,1.687l-2.062,1.876l-1.813,2.064l-1.625,2.187l-1.438,2.376l-1.186,2.501l-1.001,2.563l-0.687,2.689l-0.5,2.688l-0.188,2.75l0.063,2.813l0.312,2.689l0.563,2.751l-179.064,-0l0.562,-2.751l0.313,-2.689l0.062,-2.813l-0.187,-2.75l-0.5,-2.688l-0.688,-2.689l-0.937,-2.563l-1.188,-2.501l-1.438,-2.376l-1.624,-2.187l-1.875,-2.064l-2,-1.876l-2.188,-1.687l-2.375,-1.501l-2.438,-1.25l-2.562,-1l-2.687,-0.751l-2.688,-0.5l-2.75,-0.25l-2.75,0l-2.75,0.25l-2.75,0.5l-2.625,0.751l-2.562,1l-2.5,1.25l-2.313,1.501l-2.188,1.687l-2,1.876l-1.874,2.064l-1.625,2.187l-1.438,2.376l-1.188,2.501l-0.937,2.563l-0.75,2.689l-0.438,2.688l-0.187,2.75l-0,2.813l0.312,2.689l0.563,2.751l-101.314,-19.193l0,-88.65l0.126,-2.689l0.375,-2.687l0.624,-2.689l0.876,-2.563l1.126,-2.501l1.311,-2.376l1.563,-2.25l1.687,-2.126l1.939,-1.938l2.123,-1.75l2.252,-1.501l2.374,-1.312l2.501,-1.126l2.561,-0.875l2.688,-0.625l2.688,-0.375l2.75,-0.125l426.94,-0l1.25,0.125l1.25,0.312l1.124,0.5l1.001,0.688l0.937,0.876l0.75,1l0.563,1.125l0.375,1.188l0.125,1.25l2.688,63.831l1.125,0.125l1.125,0.312l1,0.563l0.938,0.687l0.686,0.939l0.563,1l0.312,1.125l0.125,1.126l0,47.263l-0.125,1.75Zm-35.312,-60.829l-17.688,-0l-1.188,-0.063l-1.062,-0.375l-1.062,-0.5l-0.875,-0.75l-0.75,-0.938l-0.5,-1l-0.375,-1.125l-0.125,-1.126l-0,-29.571l0.125,-1.125l0.375,-1.125l0.5,-1.001l0.75,-0.875l0.875,-0.75l1.062,-0.563l1.062,-0.313l1.188,-0.125l17.688,-0l1.187,0.125l1.062,0.313l1.063,0.563l0.875,0.75l0.75,0.875l0.563,1.001l0.312,1.125l0.125,1.125l0,29.571l-0.125,1.126l-0.312,1.125l-0.563,1l-0.75,0.938l-0.875,0.75l-1.063,0.5l-1.062,0.375l-1.187,0.063Zm-50.188,-0l-70.875,-0l-1.125,-0.125l-1.125,-0.313l-1.001,-0.563l-0.937,-0.688l-0.688,-0.937l-0.562,-1l-0.313,-1.126l-0.125,-1.125l0,-29.571l0.125,-1.125l0.313,-1.125l0.562,-1.001l0.688,-0.875l0.937,-0.75l1.001,-0.563l1.125,-0.313l1.125,-0.125l70.875,-0l1.187,0.125l1.063,0.313l1.063,0.563l0.875,0.75l0.75,0.875l0.5,1.001l0.375,1.125l0.125,1.125l-0,29.571l-0.125,1.125l-0.375,1.126l-0.5,1l-0.75,0.937l-0.875,0.688l-1.063,0.563l-1.063,0.313l-1.187,0.125Zm-194.876,-0l-70.876,-0l-1.126,-0.125l-1.124,-0.313l-1,-0.563l-0.937,-0.688l-0.688,-0.937l-0.562,-1l-0.313,-1.126l-0.125,-1.125l0,-29.571l0.125,-1.125l0.313,-1.125l0.562,-1.001l0.688,-0.875l0.937,-0.75l1,-0.563l1.124,-0.313l1.126,-0.125l70.876,-0l1.125,0.125l1.125,0.313l1.062,0.563l0.876,0.75l0.749,0.875l0.5,1.001l0.375,1.125l0.125,1.125l-0,29.571l-0.125,1.125l-0.375,1.126l-0.5,1l-0.749,0.937l-0.876,0.688l-1.062,0.563l-1.125,0.313l-1.125,0.125Zm97.438,-0l-70.875,-0l-1.125,-0.125l-1.126,-0.313l-1,-0.563l-0.937,-0.688l-0.688,-0.937l-0.562,-1l-0.313,-1.126l-0.125,-1.125l0,-29.571l0.125,-1.125l0.313,-1.125l0.562,-1.001l0.688,-0.875l0.937,-0.75l1,-0.563l1.126,-0.313l1.125,-0.125l70.875,-0l1.187,0.125l1.063,0.313l1.062,0.563l0.876,0.75l0.751,0.875l0.499,1.001l0.375,1.125l0.125,1.125l-0,29.571l-0.125,1.125l-0.375,1.126l-0.499,1l-0.751,0.937l-0.876,0.688l-1.062,0.563l-1.063,0.313l-1.187,0.125Zm-194.876,-0l-70.875,-0l-1.127,-0.125l-1.125,-0.313l-0.998,-0.563l-0.938,-0.688l-0.687,-0.937l-0.563,-1l-0.376,-1.126l-0.061,-1.125l0,-17.755l0.124,-2.126l0.375,-2.063l0.626,-2.063l0.874,-1.939l1.125,-1.874l1.313,-1.689l1.5,-1.5l1.688,-1.313l1.811,-1.125l2.001,-0.875l2,-0.625l2.125,-0.376l2.124,-0.125l59.064,-0l1.125,0.125l1.125,0.313l0.999,0.563l0.937,0.75l0.75,0.875l0.501,1.001l0.375,1.125l0.062,1.125l0,29.571l-0.062,1.125l-0.375,1.126l-0.501,1l-0.75,0.937l-0.937,0.688l-0.999,0.563l-1.125,0.313l-1.125,0.125Z" style="fill:#fff;"/></g></g></svg>