<?xml version="1.0" encoding="UTF-8" standalone="no"?><!DOCTYPE svg PUBLIC "-//W3C//DTD SVG 1.1//EN" "http://www.w3.org/Graphics/SVG/1.1/DTD/svg11.dtd"><svg width="100%" height="100%" viewBox="0 0 658 650" version="1.1" xmlns="http://www.w3.org/2000/svg" xmlns:xlink="http://www.w3.org/1999/xlink" xml:space="preserve" xmlns:serif="http://www.serif.com/" style="fill-rule:evenodd;clip-rule:evenodd;stroke-linejoin:round;stroke-miterlimit:2;"><g transform="matrix(64.5901,0,0,64.5901,423.252,347.211)"></g><text x="234.749px" y="347.211px" style="font-family:'ArialMT', 'Arial', sans-serif;font-size:64.59px;">sw=55</text><g><path d="M657.402,35.433c-0,-19.556 -15.877,-35.433 -35.433,-35.433l-586.536,0c-19.556,0 -35.433,15.877 -35.433,35.433l0,578.74c0,19.556 15.877,35.433 35.433,35.433l586.536,0c19.556,0 35.433,-15.877 35.433,-35.433l-0,-578.74Z" style="fill:#fff;"/><path d="M657.402,35.433l-0,578.74c-0,19.556 -15.877,35.433 -35.433,35.433l-586.536,0c-19.556,0 -35.433,-15.877 -35.433,-35.433l0,-578.74c0,-19.556 15.877,-35.433 35.433,-35.433l586.536,0c19.556,0 35.433,15.877 35.433,35.433Zm-1.182,0c0,-18.904 -15.347,-34.252 -34.251,-34.252l-586.536,0c-18.904,0 -34.252,15.348 -34.252,34.252l0,578.74c0,18.904 15.348,34.252 34.252,34.252l586.536,0c18.904,0 34.251,-15.348 34.251,-34.252l0,-578.74Z" style="fill:#0079c1;"/><path d="M639.685,35.433c0,-9.778 -7.938,-17.716 -17.716,-17.716l-586.536,-0c-9.778,-0 -17.716,7.938 -17.716,17.716l-0,578.74c-0,9.778 7.938,17.717 17.716,17.717l586.536,-0c9.778,-0 17.716,-7.939 17.716,-17.717l0,-578.74Z" style="fill:#0079c1;"/><rect x="245.197" y="428.74" width="65.197" height="94.488" style="fill:#0079c1;"/><path d="M281.163,460.6l23.404,-27.135l-14.076,-0l-24.846,29.424l0,-29.424l-11.363,-0l0,66.141l11.363,0l0,-21.199l8.31,-9.667l19.08,30.866l12.634,0l-24.506,-39.006Z" style="fill:#fff;fill-rule:nonzero;"/><rect x="47.244" y="428.74" width="50.551" height="94.488" style="fill:#0079c1;"/><path d="M95.433,489.431l-26.965,-0l-0,-55.966l-11.363,-0l-0,66.141l38.328,0l0,-10.175Z" style="fill:#fff;fill-rule:nonzero;"/><rect x="97.795" y="428.74" width="73.701" height="94.488" style="fill:#0079c1;"/><path d="M153.428,468.062c0,13.313 -4.409,24.082 -18.74,24.082c-14.246,0 -18.825,-10.769 -18.825,-24.082c0,-12.55 4.918,-24.422 18.825,-24.422c13.992,0 18.74,11.787 18.74,24.422Zm11.363,-0c0,-20.097 -10.176,-34.597 -30.188,-34.597c-20.181,-0 -30.103,14.33 -30.103,34.512c0,19.843 10.346,34.258 30.103,34.258c19.758,0 30.188,-14.331 30.188,-34.173Z" style="fill:#fff;fill-rule:nonzero;"/><rect x="171.496" y="428.74" width="73.701" height="94.488" style="fill:#0079c1;"/><path d="M227.129,468.062c0,13.313 -4.409,24.082 -18.74,24.082c-14.246,0 -18.825,-10.769 -18.825,-24.082c-0,-12.55 4.918,-24.422 18.825,-24.422c13.991,0 18.74,11.787 18.74,24.422Zm11.363,-0c-0,-20.097 -10.176,-34.597 -30.188,-34.597c-20.182,-0 -30.103,14.33 -30.103,34.512c0,19.843 10.345,34.258 30.103,34.258c19.758,0 30.188,-14.331 30.188,-34.173Z" style="fill:#fff;fill-rule:nonzero;"/><rect x="339.921" y="428.74" width="69.449" height="94.488" style="fill:#0079c1;"/><path d="M389.316,479.255c-0,6.021 -4.24,10.006 -10.939,10.006l-15.688,0l0,-20.436l15.603,-0c6.699,-0 11.024,4.579 11.024,10.43Zm-3.477,-27.559c-0,4.07 -2.29,8.225 -8.141,8.225l-15.009,0l0,-16.281l14.84,0c5.851,0 8.31,3.986 8.31,8.056Zm14.755,28.746c-0,-8.988 -3.986,-14.924 -11.194,-16.79c4.579,-2.204 7.463,-7.377 7.463,-13.482c-0,-10.346 -7.717,-16.705 -18.486,-16.705l-27.051,-0l0,66.141l29.425,0c12.211,0 19.843,-8.055 19.843,-19.164Z" style="fill:#fff;fill-rule:nonzero;"/><rect x="534.567" y="428.74" width="75.591" height="94.488" style="fill:#0079c1;"/><path d="M598.353,433.449l-11.363,0l-0,26.033l-29.255,-0l-0,-26.033l-11.363,0l-0,66.142l11.363,-0l-0,-30.273l29.255,0l-0,30.273l11.363,-0l-0,-66.142Z" style="fill:#fff;fill-rule:nonzero;"/><rect x="409.37" y="428.74" width="73.701" height="94.488" style="fill:#0079c1;"/><path d="M465.003,468.062c0,13.313 -4.409,24.082 -18.74,24.082c-14.246,0 -18.825,-10.769 -18.825,-24.082c-0,-12.55 4.918,-24.422 18.825,-24.422c13.991,0 18.74,11.787 18.74,24.422Zm11.363,-0c-0,-20.097 -10.176,-34.597 -30.188,-34.597c-20.182,-0 -30.103,14.33 -30.103,34.512c0,19.843 10.345,34.258 30.103,34.258c19.758,0 30.188,-14.331 30.188,-34.173Z" style="fill:#fff;fill-rule:nonzero;"/><rect x="483.071" y="428.74" width="51.496" height="94.488" style="fill:#0079c1;"/><path d="M532.604,433.465l-47.571,-0l0,10.175l18.062,0l0,55.966l11.363,0l-0,-55.966l18.146,0l0,-10.175Z" style="fill:#fff;fill-rule:nonzero;"/><rect x="278.386" y="523.228" width="64.252" height="94.488" style="fill:#0079c1;"/><path d="M300.421,572.047l10.006,-31.968l10.176,31.968l-20.182,0Zm17.044,-44.094l-14.076,-0l-21.284,66.141l11.363,0l3.985,-12.38l26.287,0l3.816,12.38l11.363,0l-21.454,-66.141Z" style="fill:#fff;fill-rule:nonzero;"/><rect x="400.748" y="523.228" width="64.724" height="94.488" style="fill:#0079c1;"/><path d="M459.101,577.389c-0,-10.599 -5.936,-16.705 -18.825,-19.927l-8.395,-2.12c-7.123,-1.781 -11.363,-4.155 -11.363,-9.158c-0,-5.257 5.851,-8.056 12.55,-8.056c5.851,0 11.956,2.205 15.348,7.208l8.734,-7.208c-5.512,-7.547 -15.009,-10.175 -24.082,-10.175c-15.009,-0 -24.083,8.225 -24.083,18.74c0,12.38 9.243,16.959 18.486,19.164l9.582,2.29c5.258,1.272 10.515,3.646 10.515,9.836c0,5.427 -5.172,8.48 -13.907,8.48c-6.359,-0 -14.076,-4.24 -17.722,-9.413l-8.819,7.378c6.699,7.801 16.027,12.21 26.626,12.21c16.366,0 25.355,-7.547 25.355,-19.249Z" style="fill:#fff;fill-rule:nonzero;"/><rect x="191.929" y="523.228" width="86.457" height="94.488" style="fill:#0079c1;"/><path d="M262.462,527.953l-10.684,47.147l-10.685,-47.147l-11.871,-0l-10.685,46.893l-10.684,-46.893l-11.533,-0l15.264,66.141l12.804,0l10.769,-47.74l10.77,47.74l12.719,0l15.349,-66.141l-11.533,-0Z" style="fill:#fff;fill-rule:nonzero;"/><rect x="342.638" y="523.228" width="58.11" height="94.488" style="fill:#0079c1;"/><path d="M386.532,527.953l-14.839,27.728l-14.84,-27.728l-12.041,-0l21.2,39.6l-0,26.541l11.362,0l0,-26.541l21.2,-39.6l-12.042,-0Z" style="fill:#fff;fill-rule:nonzero;"/><rect x="207.756" y="50.787" width="64.252" height="94.488" style="fill:#0079c1;"/><path d="M229.791,99.606l10.006,-31.968l10.176,31.968l-20.182,0Zm17.044,-44.094l-14.076,-0l-21.284,66.142l11.363,-0l3.985,-12.381l26.287,0l3.816,12.381l11.363,-0l-21.454,-66.142Z" style="fill:#fff;fill-rule:nonzero;"/><rect x="445.394" y="50.787" width="64.252" height="94.488" style="fill:#0079c1;"/><path d="M467.429,99.606l10.006,-31.968l10.176,31.968l-20.182,0Zm17.044,-44.094l-14.076,-0l-21.284,66.142l11.362,-0l3.986,-12.381l26.287,0l3.816,12.381l11.363,-0l-21.454,-66.142Z" style="fill:#fff;fill-rule:nonzero;"/><rect x="272.008" y="50.787" width="86.929" height="94.488" style="fill:#0079c1;"/><path d="M347.483,55.512l-11.362,-0l-20.606,28.576l-20.691,-28.576l-11.362,-0l-0,66.142l11.362,-0l0,-46.978l20.691,28.661l20.606,-28.661l-0,46.978l11.362,-0l0,-66.142Z" style="fill:#fff;fill-rule:nonzero;"/><rect x="141.142" y="50.787" width="66.614" height="94.488" style="fill:#0079c1;"/><path d="M184.794,75.694c0,5.935 -4.07,10.09 -10.091,10.09l-13.822,-0.084l0,-20.013l13.992,0c5.936,0 9.921,4.156 9.921,10.007Zm-0.848,18.824c4.918,-1.611 12.126,-6.529 12.126,-18.231c0,-11.956 -6.699,-20.775 -21.03,-20.775l-25.524,-0l0,66.142l11.363,-0l0,-25.779l11.448,0l14.415,25.779l12.55,-0l-15.348,-27.136Z" style="fill:#fff;fill-rule:nonzero;"/><rect x="89.646" y="50.787" width="51.496" height="94.488" style="fill:#0079c1;"/><path d="M139.179,55.512l-47.571,-0l0,10.175l18.062,0l-0,55.967l11.363,-0l-0,-55.967l18.146,0l0,-10.175Z" style="fill:#fff;fill-rule:nonzero;"/><rect x="358.937" y="50.787" width="86.457" height="94.488" style="fill:#0079c1;"/><path d="M429.47,55.512l-10.684,47.147l-10.685,-47.147l-11.871,-0l-10.685,46.893l-10.684,-46.893l-11.533,-0l15.264,66.142l12.804,-0l10.769,-47.741l10.77,47.741l12.719,-0l15.348,-66.142l-11.532,-0Z" style="fill:#fff;fill-rule:nonzero;"/><rect x="509.646" y="50.787" width="58.11" height="94.488" style="fill:#0079c1;"/><path d="M553.54,55.512l-14.839,27.728l-14.84,-27.728l-12.041,-0l21.199,39.6l0,26.542l11.363,-0l0,-26.542l21.199,-39.6l-12.041,-0Z" style="fill:#fff;fill-rule:nonzero;"/><clipPath id="_clip1"><rect id="S26-Tram-W.afdesign" serif:id="S26 Tram W.afdesign" x="92.48" y="157.087" width="472.441" height="236.22"/></clipPath><g clip-path="url(#_clip1)"><path d="M378.275,230.243l-0.95,-0.8l-1.05,-0.65l-1.15,-0.45l-1.2,-0.3l-1.25,-0.1l-32.949,-0l39.348,-27.553l-40.498,-28.352l-0,-8.651l-0.1,-1.1l-0.3,-1.05l-0.45,-1l-0.65,-0.9l-0.75,-0.75l-0.9,-0.65l-1,-0.45l-1.05,-0.3l-1.1,-0.1l-7.1,-0l-1.1,0.1l-1.05,0.3l-1,0.45l-0.9,0.65l-0.8,0.75l-0.6,0.9l-0.45,1l-0.3,1.05l-0.1,1.1l-0,8.651l-40.499,28.352l39.349,27.553l-32.999,-0l-1.2,0.1l-1.2,0.3l-1.15,0.45l-1.05,0.65l-0.95,0.8l-5.6,5.6l-155.497,0l-1.5,0.1l-1.5,0.25l-1.45,0.451l-1.4,0.6l-1.3,0.8l-1.2,0.95l-1.05,1.05l-0.95,1.2l-0.8,1.3l-0.6,1.4l-0.45,1.45l-13.4,53.405l0,70.906l39.4,0l-0,7.851l23.599,-0l0.1,1.75l0.3,1.75l0.5,1.7l0.65,1.65l0.9,1.55l1,1.401l1.2,1.35l1.3,1.15l1.45,1.05l1.55,0.85l1.6,0.65l1.7,0.5l1.75,0.3l1.75,0.1l1.75,-0.1l1.75,-0.3l1.7,-0.5l1.65,-0.65l1.55,-0.85l1.45,-1.05l1.3,-1.15l1.15,-1.35l1.05,-1.401l0.85,-1.55l0.7,-1.65l0.45,-1.7l0.3,-1.75l0.1,-1.75l23.649,-0l0.1,1.75l0.3,1.75l0.45,1.7l0.7,1.65l0.85,1.55l1,1.401l1.2,1.35l1.3,1.15l1.45,1.05l1.55,0.85l1.65,0.65l1.7,0.5l1.7,0.3l1.8,0.1l1.75,-0.1l1.75,-0.3l1.7,-0.5l1.6,-0.65l1.55,-0.85l1.45,-1.05l1.3,-1.15l1.2,-1.35l0.999,-1.401l0.85,-1.55l0.7,-1.65l0.5,-1.7l0.3,-1.75l0.1,-1.75l173.196,-0l0.1,1.75l0.301,1.75l0.5,1.7l0.649,1.65l0.851,1.55l1.05,1.401l1.15,1.35l1.35,1.15l1.45,1.05l1.499,0.85l1.65,0.65l1.701,0.5l1.749,0.3l1.751,0.1l1.749,-0.1l1.751,-0.3l1.7,-0.5l1.649,-0.65l1.551,-0.85l1.399,-1.05l1.351,-1.15l1.149,-1.35l1.05,-1.401l0.85,-1.55l0.651,-1.65l0.5,-1.7l0.299,-1.75l0.1,-1.75l23.599,-0l0.1,1.75l0.301,1.75l0.5,1.7l0.699,1.65l0.85,1.55l1.001,1.401l1.2,1.35l1.3,1.15l1.449,1.05l1.551,0.85l1.6,0.65l1.7,0.5l1.749,0.3l1.751,0.1l1.799,-0.1l1.751,-0.3l1.65,-0.5l1.649,-0.65l1.551,-0.85l1.45,-1.05l1.3,-1.15l1.2,-1.35l0.999,-1.401l0.85,-1.55l0.7,-1.65l0.5,-1.7l0.25,-1.75l0.1,-1.75l23.649,-0l0,-7.851l39.35,0l0,-70.906l-13.35,-53.405l-0.449,-1.45l-0.651,-1.4l-0.75,-1.3l-0.949,-1.2l-1.1,-1.05l-1.2,-0.95l-1.3,-0.8l-1.35,-0.6l-1.45,-0.451l-1.501,-0.25l-1.499,-0.1l-155.547,0l-5.55,-5.6Zm-177.097,131.561l18.9,0l1.05,-0.1l1.1,-0.25l1,-0.5l0.9,-0.6l0.75,-0.8l0.65,-0.9l0.45,-1l0.3,-1.05l0.1,-1.1l-0,-93.708l-0.1,-1.05l-0.3,-1.1l-0.45,-1.001l-0.65,-0.9l-0.75,-0.75l-0.9,-0.65l-1,-0.45l-1.1,-0.3l-1.05,-0.1l-18.9,0l-1.1,0.1l-1.05,0.3l-1,0.45l-0.9,0.65l-0.8,0.75l-0.6,0.9l-0.5,1.001l-0.25,1.1l-0.1,1.05l0,93.708l0.1,1.1l0.25,1.05l0.5,1l0.6,0.9l0.8,0.8l0.9,0.6l1,0.5l1.05,0.25l1.1,0.1Zm-41.549,-0.35l1.05,0.25l1.1,0.1l18.9,0l1.1,-0.1l1.05,-0.25l1,-0.5l0.9,-0.6l0.8,-0.8l0.6,-0.9l0.5,-1l0.25,-1.05l0.1,-1.1l-0,-93.708l-0.1,-1.05l-0.25,-1.1l-0.5,-1.001l-0.6,-0.9l-0.8,-0.75l-0.9,-0.65l-1,-0.45l-1.05,-0.3l-1.1,-0.1l-18.9,0l-1.1,0.1l-1.05,0.3l-1,0.45l-0.9,0.65l-0.75,0.75l-0.65,0.9l-0.45,1.001l-0.3,1.1l-0.1,1.05l0,93.708l0.1,1.1l0.3,1.05l0.45,1l0.65,0.9l0.75,0.8l0.9,0.6l1,0.5Zm337.093,-105.859l-1.099,-0.1l-18.901,0l-1.05,0.1l-1.099,0.3l-1,0.45l-0.9,0.65l-0.751,0.75l-0.649,0.9l-0.45,1.001l-0.301,1.1l-0.1,1.05l0,93.708l0.1,1.1l0.301,1.05l0.45,1l0.649,0.9l0.751,0.8l0.9,0.6l1,0.5l1.099,0.25l1.05,0.1l18.901,0l1.099,-0.1l1.1,-0.25l0.951,-0.5l0.9,-0.6l0.799,-0.8l0.65,-0.9l0.45,-1l0.25,-1.05l0.1,-1.1l-0,-93.708l-0.1,-1.05l-0.25,-1.1l-0.45,-1.001l-0.65,-0.9l-0.799,-0.75l-0.9,-0.65l-0.951,-0.45l-1.1,-0.3Zm-39.349,0l-1.1,-0.1l-19.999,0.1l-1.05,0.3l-1.001,0.45l-0.899,0.65l-0.75,0.75l-0.651,0.9l-0.449,1.001l-0.3,1.1l-0.1,1.05l0.1,94.808l0.3,1.05l0.449,1l0.651,0.9l0.75,0.8l0.899,0.6l1.001,0.5l1.05,0.25l1.1,0.1l19.999,-0.1l1.05,-0.25l0.999,-0.5l0.9,-0.6l0.801,-0.8l0.599,-0.9l0.451,-1l0.3,-1.05l0.1,-1.1l-0.1,-94.758l-0.3,-1.1l-0.451,-1.001l-0.599,-0.9l-0.801,-0.75l-0.9,-0.65l-0.999,-0.45l-1.05,-0.3Zm-154.747,40.954l0.8,0.8l0.9,0.65l1,0.45l1.05,0.3l1.1,0.05l42.499,-0l1.1,-0.05l1.05,-0.3l1,-0.45l0.9,-0.65l0.8,-0.8l0.6,-0.9l0.45,-0.95l0.3,-1.101l0.1,-1.1l0,-30.702l-0.1,-1.05l-0.3,-1.1l-0.45,-1.001l-0.6,-0.9l-0.8,-0.75l-0.9,-0.65l-1,-0.45l-1.05,-0.3l-1.1,-0.1l-42.499,0l-1.1,0.1l-1.05,0.3l-1,0.45l-0.9,0.65l-0.8,0.75l-0.6,0.9l-0.5,1.001l-0.25,1.1l-0.1,1.05l0,30.702l0.1,1.1l0.25,1.101l0.5,0.95l0.6,0.9Zm-17.599,2.25l1.1,-0.05l1.05,-0.3l1,-0.45l0.9,-0.65l0.75,-0.8l0.65,-0.9l0.45,-0.95l0.3,-1.101l0.1,-1.1l-0,-30.702l-0.1,-1.05l-0.3,-1.1l-0.45,-1.001l-0.65,-0.9l-0.75,-0.75l-0.9,-0.65l-1,-0.45l-1.05,-0.3l-1.1,-0.1l-42.55,0l-1.05,0.1l-1.1,0.3l-0.999,0.45l-0.9,0.65l-0.75,0.75l-0.65,0.9l-0.45,1.001l-0.3,1.1l-0.1,1.05l-0,30.702l0.1,1.1l0.3,1.101l0.45,0.95l0.65,0.9l0.75,0.8l0.9,0.65l0.999,0.45l1.1,0.3l1.05,0.05l42.55,-0Zm129.897,-0l1.1,-0.05l1.05,-0.3l0.999,-0.45l0.901,-0.65l0.8,-0.8l0.599,-0.9l0.5,-0.95l0.251,-1.101l0.1,-1.1l0,-30.702l-0.1,-1.05l-0.251,-1.1l-0.5,-1.001l-0.599,-0.9l-0.8,-0.75l-0.901,-0.65l-0.999,-0.45l-1.05,-0.3l-1.1,-0.1l-42.499,0l-1.1,0.1l-1.05,0.3l-1,0.45l-0.9,0.65l-0.8,0.75l-0.6,0.9l-0.5,1.001l-0.25,1.1l-0.1,1.05l0,30.702l0.1,1.1l0.25,1.101l0.5,0.95l0.6,0.9l0.8,0.8l0.9,0.65l1,0.45l1.05,0.3l1.1,0.05l42.499,-0Zm-278.345,-0l1.1,-0.05l1.05,-0.3l1,-0.45l0.9,-0.65l0.8,-0.8l0.6,-0.9l0.5,-0.95l0.25,-1.101l0.1,-1.1l0,-30.702l-0.1,-1.05l-0.25,-1.1l-0.5,-1.001l-0.6,-0.9l-0.8,-0.75l-0.9,-0.65l-1,-0.45l-1.05,-0.3l-1.1,-0.1l-12.099,0l-1.05,0.1l-1,0.25l-0.95,0.45l-0.9,0.55l-0.75,0.7l-0.65,0.85l-0.5,0.9l-0.3,1.001l-7.7,30.702l-0.15,1.15l-0,1.1l0.25,1.151l0.45,1.05l0.6,0.95l0.8,0.85l0.9,0.65l1.05,0.5l1.1,0.3l1.1,0.1l19.799,-0Zm377.942,-6.301l0.101,1.1l0.3,1.101l0.449,0.95l0.651,0.9l0.749,0.8l0.901,0.65l1,0.45l1.05,0.3l1.1,0.05l19.8,-0l1.15,-0.1l1.099,-0.3l1.051,-0.5l0.9,-0.65l0.8,-0.85l0.6,-0.95l0.45,-1.05l0.2,-1.151l0.049,-1.1l-0.2,-1.15l-7.65,-30.702l-0.349,-1.001l-0.5,-0.9l-0.6,-0.85l-0.801,-0.7l-0.85,-0.55l-0.949,-0.45l-1.05,-0.25l-1.001,-0.1l-12.149,0l-1.1,0.1l-1.05,0.3l-1,0.45l-0.901,0.65l-0.749,0.75l-0.651,0.9l-0.449,1.001l-0.3,1.1l-0.101,1.05l0,30.702Zm-146.446,-92.108l-39.349,-27.552l-39.399,27.552l39.399,27.553l39.349,-27.553Z" style="fill:#fff;"/></g></g></svg>