<?xml version="1.0" encoding="UTF-8" standalone="no"?><!DOCTYPE svg PUBLIC "-//W3C//DTD SVG 1.1//EN" "http://www.w3.org/Graphics/SVG/1.1/DTD/svg11.dtd"><svg width="100%" height="100%" viewBox="0 0 467 272" version="1.1" xmlns="http://www.w3.org/2000/svg" xmlns:xlink="http://www.w3.org/1999/xlink" xml:space="preserve" xmlns:serif="http://www.serif.com/" style="fill-rule:evenodd;clip-rule:evenodd;stroke-linejoin:round;stroke-miterlimit:2;"><g transform="matrix(64.5901,0,0,64.5901,327.992,135.007)"></g><text x="139.489px" y="135.007px" style="font-family:'ArialMT', 'Arial', sans-serif;font-size:64.59px;">sw=23</text><clipPath id="_clip1"><rect x="0" y="0" width="466.535" height="271.654"/></clipPath><g clip-path="url(#_clip1)"><path d="M466.535,35.433c0,-19.556 -15.877,-35.433 -35.433,-35.433l-395.669,0c-19.556,0 -35.433,15.877 -35.433,35.433l-0,200.787c-0,19.557 15.877,35.434 35.433,35.434l395.669,-0c19.556,-0 35.433,-15.877 35.433,-35.434l0,-200.787Z" style="fill:#fff;"/><path d="M466.535,35.433l0,200.787c0,19.557 -15.877,35.434 -35.433,35.434l-395.669,-0c-19.556,-0 -35.433,-15.877 -35.433,-35.434l-0,-200.787c-0,-19.556 15.877,-35.433 35.433,-35.433l395.669,0c19.556,0 35.433,15.877 35.433,35.433Zm-1.181,0c0,-18.904 -15.347,-34.252 -34.252,-34.252l-395.669,0c-18.904,0 -34.252,15.348 -34.252,34.252l0,200.787c0,18.905 15.348,34.252 34.252,34.252l395.669,0c18.905,0 34.252,-15.347 34.252,-34.252l0,-200.787Z" style="fill:#0079c1;"/><path d="M448.819,35.433c-0,-9.778 -7.939,-17.716 -17.717,-17.716l-395.669,-0c-9.778,-0 -17.716,7.938 -17.716,17.716l-0,200.787c-0,9.778 7.938,17.717 17.716,17.717l395.669,0c9.778,0 17.717,-7.939 17.717,-17.717l-0,-200.787Z" style="fill:#0079c1;"/><rect x="261.496" y="141.732" width="52.441" height="94.488" style="fill:#0079c1;"/><path d="M293.857,198.206c-0,3.52 -2.894,5.945 -8.526,5.945c-3.598,-0 -7.587,-1.956 -7.587,-6.023c-0,-5.554 5.006,-6.179 9.151,-6.57c1.877,-0.157 5.006,-0.391 6.962,-0.47l-0,7.118Zm14.001,6.962c-2.894,-1.095 -3.989,-2.973 -3.989,-6.258l-0,-16.973c-0,-11.107 -5.632,-16.583 -16.27,-16.583c-6.101,0 -11.654,1.408 -17.286,4.693l3.676,8.057c4.146,-2.503 8.291,-3.598 12.828,-3.598c5.006,-0 7.118,2.268 7.118,6.883l-0,1.799c-2.738,0.157 -7.431,0.548 -9.934,0.782c-4.38,0.391 -16.426,1.721 -16.426,14.862c0,8.917 7.353,13.532 15.879,13.532c5.788,-0 9.777,-1.956 12.515,-4.38c1.486,2.659 3.989,4.302 7.352,4.614l4.537,-7.43Z" style="fill:#fff;fill-rule:nonzero;"/><rect x="313.937" y="141.732" width="52.913" height="94.488" style="fill:#0079c1;"/><path d="M359.513,180.727c-0,-8.818 -5.42,-15.451 -15.856,-15.451c-4.287,-0 -8.899,2.022 -11.649,5.015l-0,-3.721l-10.436,-0l0,45.95l10.436,-0l-0,-28.234c-0,-6.795 4.854,-9.222 9.303,-9.222c4.935,0 7.766,2.832 7.766,8.494l0,28.962l10.436,-0l-0,-31.793Z" style="fill:#fff;fill-rule:nonzero;"/><rect x="366.85" y="141.732" width="52.441" height="94.488" style="fill:#0079c1;"/><path d="M383.089,185.039c0,-5.748 4.095,-10.708 10.079,-10.708c6.063,-0 10.473,4.33 10.315,10.708l-20.394,0Zm30.473,5.906c0.63,-14.252 -5.906,-25.591 -20.394,-25.591c-13.071,0 -20.63,10.237 -20.63,23.386c0,13.386 7.874,23.858 22.047,23.858c6.221,0 11.969,-2.362 16.142,-6.378l-5.669,-6.771c-3.071,2.834 -6.299,4.094 -10.551,4.094c-6.614,0 -10.945,-4.488 -11.26,-10.787l30.236,-0l0.079,-1.811Z" style="fill:#fff;fill-rule:nonzero;"/><rect x="232.205" y="141.732" width="29.291" height="94.488" style="fill:#0079c1;"/><path d="M257.889,202.133c-1.826,0.498 -2.905,0.664 -4.647,0.664c-3.154,-0 -4.731,-1.577 -4.731,-5.063l0,-51.286l-10.539,-0l-0,52.78c-0,8.299 3.651,13.361 12.863,13.361c2.905,0 5.477,-0.415 8.299,-1.161l-1.245,-9.295Z" style="fill:#fff;fill-rule:nonzero;"/><rect x="47.244" y="141.732" width="55.276" height="94.488" style="fill:#0079c1;"/><path d="M85.493,187.895c-0,6.881 -4.228,14.507 -11.937,14.507c-3.648,0 -9.616,-2.57 -9.616,-8.124l-0,-12.931c-0,-5.306 5.139,-8.373 9.367,-8.373c7.958,0 12.186,6.549 12.186,14.921Zm10.859,0.166c-0,-13.346 -7.792,-25.2 -20.641,-25.2c-4.477,-0 -8.373,1.409 -11.688,4.559l-0,-20.972l-10.611,-0l-0,64.658l10.611,0l-0,-3.316c3.067,3.316 6.88,4.808 11.273,4.808c13.678,0 21.056,-12.185 21.056,-24.537Z" style="fill:#fff;fill-rule:nonzero;"/><rect x="102.52" y="141.732" width="54.331" height="94.488" style="fill:#0079c1;"/><path d="M148.623,165.354l-10.418,0l0,28.185c0,6.784 -4.845,9.288 -9.287,9.288c-4.926,-0 -7.753,-2.908 -7.753,-8.561l-0,-28.912l-10.418,0l0,31.739c0,8.802 5.411,15.505 15.829,15.505c4.28,0 8.883,-2.099 11.629,-5.087l0,3.715l10.418,-0l0,-45.872Z" style="fill:#fff;fill-rule:nonzero;"/><rect x="156.85" y="141.732" width="45.827" height="94.488" style="fill:#0079c1;"/><path d="M198.167,198.708c0,-8.319 -5.886,-11.537 -12.164,-13.185l-8.162,-2.04c-4.081,-1.02 -4.866,-2.747 -4.866,-4.238c0,-3.061 3.14,-4.866 7.613,-4.866c4.081,0 7.926,1.805 10.673,3.689l6.043,-6.828c-4.866,-3.924 -10.987,-5.886 -17.344,-5.886c-8.79,0 -17.579,4.788 -17.579,14.44c-0,7.299 5.572,11.144 11.222,12.478l7.77,1.962c3.61,0.942 6.121,2.512 6.121,4.709c-0,3.218 -2.747,4.552 -7.377,4.552c-3.61,-0 -8.711,-1.334 -12.478,-4.63l-6.278,7.141c5.258,4.63 11.614,6.592 18.52,6.592c9.339,0 18.286,-4.316 18.286,-13.89Z" style="fill:#fff;fill-rule:nonzero;"/><rect x="342.52" y="47.244" width="35.433" height="94.488" style="fill:#0079c1;"/><path d="M375.234,52.799c-2.409,-0.581 -4.819,-0.83 -7.229,-0.83c-10.137,-0 -15.206,5.068 -15.206,15.538l0,3.324l-7.561,-0l0,8.974l7.561,-0l0,38.305l10.553,0l0,-38.305l8.559,-0l-0,-8.974l-8.642,-0l-0.166,-1.579c-0.249,-4.487 1.163,-7.811 7.063,-7.811c1.495,0 3.157,0.332 4.154,0.748l0.914,-9.39Z" style="fill:#fff;fill-rule:nonzero;"/><rect x="289.606" y="47.244" width="52.913" height="94.488" style="fill:#0079c1;"/><path d="M327.364,95.038c-0,7.926 -4.238,13.969 -11.223,13.969c-7.063,-0 -11.3,-6.043 -11.3,-13.969c-0,-7.848 4.159,-15.068 11.3,-15.068c6.985,-0 11.223,7.22 11.223,15.068Zm9.967,-0c-0,-13.734 -7.534,-24.172 -21.19,-24.172c-13.733,0 -21.346,10.281 -21.346,24.172c0,13.419 8.476,23.072 21.346,23.072c12.871,0 21.19,-9.731 21.19,-23.072Z" style="fill:#fff;fill-rule:nonzero;"/><rect x="203.858" y="47.244" width="56.22" height="94.488" style="fill:#0079c1;"/><path d="M241.492,99.79c0,5.554 -6.466,8.124 -10.113,8.124c-7.709,0 -11.937,-7.626 -11.937,-14.507c0,-8.372 4.228,-14.921 12.186,-14.921c4.227,0 9.864,3.067 9.864,8.373l0,12.931Zm10.445,-47.831l-10.61,0l-0,20.393c-2.902,-2.736 -6.964,-4.062 -11.274,-4.062c-14.673,-0 -21.47,12.268 -21.47,25.366c-0,11.854 8.289,24.371 21.221,24.371c4.642,0 8.455,-1.575 11.274,-4.393l0.083,3.067l10.776,0l0,-64.742Z" style="fill:#fff;fill-rule:nonzero;"/><rect x="150.945" y="47.244" width="52.913" height="94.488" style="fill:#0079c1;"/><path d="M196.521,86.239c-0,-8.818 -5.42,-15.452 -15.856,-15.452c-4.288,0 -8.899,2.023 -11.649,5.016l-0,-3.721l-10.436,-0l-0,45.949l10.436,0l-0,-28.233c-0,-6.795 4.854,-9.222 9.303,-9.222c4.935,-0 7.766,2.831 7.766,8.494l0,28.961l10.436,0l-0,-31.792Z" style="fill:#fff;fill-rule:nonzero;"/><rect x="88.583" y="47.244" width="62.362" height="94.488" style="fill:#0079c1;"/><path d="M141.387,107.935l-31.884,-0l0,-18.147l27.39,0l-0,-10.176l-27.39,0l0,-17.468l30.019,0l-0,-10.175l-41.381,-0l-0,66.141l43.246,0l0,-10.175Z" style="fill:#fff;fill-rule:nonzero;"/></g></svg>