<?xml version="1.0" encoding="UTF-8" standalone="no"?><!DOCTYPE svg PUBLIC "-//W3C//DTD SVG 1.1//EN" "http://www.w3.org/Graphics/SVG/1.1/DTD/svg11.dtd"><svg width="100%" height="100%" viewBox="0 0 469 508" version="1.1" xmlns="http://www.w3.org/2000/svg" xmlns:xlink="http://www.w3.org/1999/xlink" xml:space="preserve" xmlns:serif="http://www.serif.com/" style="fill-rule:evenodd;clip-rule:evenodd;stroke-linejoin:round;stroke-miterlimit:2;"><g transform="matrix(64.5901,0,0,64.5901,328.937,300.361)"></g><text x="140.434px" y="300.361px" style="font-family:'ArialMT', 'Arial', sans-serif;font-size:64.59px;">sw=43</text><clipPath id="_clip1"><rect x="0" y="0" width="468.425" height="507.874"/></clipPath><g clip-path="url(#_clip1)"><path d="M468.425,35.433c0,-19.556 -15.877,-35.433 -35.433,-35.433l-397.559,0c-19.556,0 -35.433,15.877 -35.433,35.433l0,437.008c0,19.556 15.877,35.433 35.433,35.433l397.559,0c19.556,0 35.433,-15.877 35.433,-35.433l0,-437.008Z" style="fill:#fff;"/><path d="M468.425,35.433l0,437.008c0,19.556 -15.877,35.433 -35.433,35.433l-397.559,0c-19.556,0 -35.433,-15.877 -35.433,-35.433l0,-437.008c0,-19.556 15.877,-35.433 35.433,-35.433l397.559,0c19.556,0 35.433,15.877 35.433,35.433Zm-1.181,0c0,-18.904 -15.348,-34.252 -34.252,-34.252l-397.559,0c-18.904,0 -34.252,15.348 -34.252,34.252l0,437.008c0,18.904 15.348,34.252 34.252,34.252l397.559,-0c18.904,-0 34.252,-15.348 34.252,-34.252l0,-437.008Z" style="fill:#0079c1;"/><path d="M450.709,35.433c-0,-9.778 -7.939,-17.716 -17.717,-17.716l-397.559,-0c-9.778,-0 -17.716,7.938 -17.716,17.716l-0,437.008c-0,9.778 7.938,17.716 17.716,17.716l397.559,0c9.778,0 17.717,-7.938 17.717,-17.716l-0,-437.008Z" style="fill:#0079c1;"/><rect x="188.976" y="51.969" width="72.756" height="94.488" style="fill:#0079c1;"/><path d="M240.872,89.34c0,10.939 -5.088,23.319 -17.553,23.319l-13.483,-0l0,-45.79l13.992,-0c11.363,-0 17.044,12.719 17.044,22.471Zm11.363,-0c0,-16.027 -8.904,-32.647 -29.425,-32.647l-24.336,-0l-0,66.142l24.252,-0c20.605,-0 29.509,-15.688 29.509,-33.495Z" style="fill:#fff;fill-rule:nonzero;"/><rect x="47.244" y="51.969" width="62.362" height="94.488" style="fill:#0079c1;"/><path d="M100.048,112.659l-31.883,-0l-0,-18.147l27.389,0l0,-10.175l-27.389,-0l-0,-17.468l30.018,-0l-0,-10.176l-41.381,-0l-0,66.142l43.246,-0l0,-10.176Z" style="fill:#fff;fill-rule:nonzero;"/><rect x="109.606" y="51.969" width="79.37" height="94.488" style="fill:#0079c1;"/><path d="M177.19,56.693l-11.363,-0l-0,47.062l-32.562,-47.062l-11.872,-0l0,66.142l11.363,-0l-0,-47.063l32.562,47.063l11.872,-0l-0,-66.142Z" style="fill:#fff;fill-rule:nonzero;"/><rect x="364.961" y="51.969" width="56.22" height="94.488" style="fill:#0079c1;"/><path d="M416.541,56.678l-41.38,-0l-0,66.141l11.362,0l0,-28.407l27.39,0l-0,-10.175l-27.39,-0l0,-17.384l30.018,0l0,-10.175Z" style="fill:#fff;fill-rule:nonzero;"/><rect x="291.26" y="51.969" width="73.701" height="94.488" style="fill:#0079c1;"/><path d="M346.893,91.29c-0,13.313 -4.41,24.083 -18.74,24.083c-14.246,-0 -18.825,-10.77 -18.825,-24.083c-0,-12.55 4.918,-24.421 18.825,-24.421c13.991,-0 18.74,11.786 18.74,24.421Zm11.363,0c-0,-20.097 -10.176,-34.597 -30.188,-34.597c-20.182,-0 -30.103,14.331 -30.103,34.512c-0,19.843 10.345,34.258 30.103,34.258c19.758,0 30.188,-14.33 30.188,-34.173Z" style="fill:#fff;fill-rule:nonzero;"/><rect x="335.315" y="382.677" width="62.362" height="94.488" style="fill:#0079c1;"/><path d="M388.119,443.368l-31.883,-0l-0,-18.147l27.389,0l0,-10.176l-27.389,0l-0,-17.468l30.018,0l-0,-10.175l-41.381,-0l-0,66.141l43.246,0l0,-10.175Z" style="fill:#fff;fill-rule:nonzero;"/><rect x="137.362" y="382.677" width="73.701" height="94.488" style="fill:#0079c1;"/><path d="M192.995,421.999c0,13.313 -4.409,24.082 -18.74,24.082c-14.246,0 -18.825,-10.769 -18.825,-24.082c0,-12.55 4.918,-24.422 18.825,-24.422c13.992,0 18.74,11.787 18.74,24.422Zm11.363,-0c-0,-20.097 -10.176,-34.597 -30.188,-34.597c-20.182,-0 -30.103,14.33 -30.103,34.512c0,19.843 10.345,34.258 30.103,34.258c19.758,0 30.188,-14.331 30.188,-34.173Z" style="fill:#fff;fill-rule:nonzero;"/><rect x="70.748" y="382.677" width="66.614" height="94.488" style="fill:#0079c1;"/><path d="M114.4,407.583c0,5.936 -4.07,10.091 -10.09,10.091l-13.822,-0.085l-0,-20.012l13.991,0c5.936,0 9.921,4.155 9.921,10.006Zm-0.848,18.825c4.919,-1.611 12.126,-6.529 12.126,-18.231c0,-11.957 -6.699,-20.775 -21.029,-20.775l-25.524,-0l-0,66.141l11.363,0l-0,-25.778l11.447,-0l14.416,25.778l12.55,0l-15.349,-27.135Z" style="fill:#fff;fill-rule:nonzero;"/><rect x="283.819" y="382.677" width="51.496" height="94.488" style="fill:#0079c1;"/><path d="M333.353,387.402l-47.572,-0l0,10.175l18.062,0l0,55.966l11.363,0l-0,-55.966l18.147,0l-0,-10.175Z" style="fill:#fff;fill-rule:nonzero;"/><rect x="211.063" y="382.677" width="72.756" height="94.488" style="fill:#0079c1;"/><path d="M273.304,387.402l-11.617,-0c-0,7.631 0.085,42.737 0.085,42.737c-0,9.922 -6.699,14.585 -14.161,14.585c-7.632,0 -14.162,-4.748 -14.162,-14.585l0,-42.737l-11.871,-0l-0,42.822c-0,16.96 12.295,24.846 25.863,24.846c13.313,-0 25.863,-7.886 25.863,-24.931l0,-42.737Z" style="fill:#fff;fill-rule:nonzero;"/><clipPath id="_clip2"><rect id="S24-Cycle-W.afdesign" serif:id="S24 Cycle W.afdesign" x="73.583" y="158.268" width="321.26" height="188.976"/></clipPath><g clip-path="url(#_clip2)"><path d="M265.996,310.361l1.64,-1.2l1.56,-1.28l1.4,-1.44l1.32,-1.561l1.16,-1.68l1,-1.76l0.84,-1.84l0.721,-1.88l0.52,-1.96l5.559,-0l0.321,2.92l0.52,2.92l0.64,2.92l0.8,2.841l0.96,2.8l1.08,2.76l1.241,2.68l1.399,2.641l1.52,2.52l1.64,2.48l1.76,2.36l1.921,2.28l2,2.201l2.12,2.08l2.2,1.96l2.361,1.8l2.4,1.72l2.52,1.6l2.56,1.441l2.681,1.32l2.719,1.16l2.761,1.04l2.84,0.88l2.881,0.76l2.88,0.56l2.96,0.44l2.921,0.28l2.96,0.12l2.96,-0.04l2.96,-0.2l2.961,-0.32l2.919,-0.52l2.881,-0.64l2.88,-0.8l2.8,-0.92l2.761,-1.12l2.679,-1.2l2.641,-1.401l2.561,-1.48l2.439,-1.64l2.401,-1.76l2.28,-1.92l2.2,-2l2.04,-2.12l1.96,-2.201l1.881,-2.32l1.72,-2.44l1.559,-2.48l1.481,-2.601l1.32,-2.64l1.16,-2.72l1.04,-2.76l0.88,-2.84l0.761,-2.881l0.599,-2.88l0.441,-2.92l0.279,-2.96l0.12,-2.961l-0.04,-2.96l-0.16,-2.96l-0.359,-2.961l-0.481,-2.92l-0.639,-2.88l-0.76,-2.88l-0.96,-2.8l-1.081,-2.761l-1.24,-2.68l-1.36,-2.64l-1.48,-2.56l-1.641,-2.481l-1.759,-2.36l-1.881,-2.32l-2,-2.16l-2.12,-2.08l-2.201,-1.961l-2.319,-1.88l-2.441,-1.72l-2.48,-1.6l-2.56,-1.44l-2.68,-1.32l-2.72,-1.2l-2.761,-1.04l-2.84,-0.921l-2.84,-0.72l-2.92,-0.6l-2.92,-0.44l-2.961,-0.32l-2.96,-0.12l-2.96,0l-2.96,0.2l-2.961,0.32l-2.92,0.48l-2.881,0.64l-2.84,0.76l-2.84,0.961l-2.76,1.08l-22.363,-38.764l4.361,-12.001l1.6,-0.2l1.561,-0.36l1.559,-0.52l1.481,-0.64l1.399,-0.8l1.361,-0.92l1.24,-1.04l1.12,-1.16l1.041,-1.28l0.88,-1.36l0.76,-1.401l0.639,-1.52l0.441,-1.56l0.08,-0.48l-0.08,-0.48l-0.2,-0.44l-0.281,-0.4l-0.399,-0.28l-0.441,-0.2l-0.479,-0.08l-48.885,-0l-0.8,0.08l-0.8,0.2l-0.72,0.36l-0.68,0.44l-0.56,0.56l-0.48,0.68l-0.36,0.72l-0.24,0.8l-0.08,0.8l0.04,0.8l0.2,0.8l0.32,0.721l0.44,0.68l0.56,0.6l0.64,0.48l0.72,0.4l0.8,0.24l21.842,4.84l-5.161,14.161l-103.488,0l2.28,-8.48l0.28,-1.4l0.12,-1.361l0,-1.4l-0.12,-1.4l-0.32,-1.36l-0.44,-1.36l-0.56,-1.24l-0.72,-1.24l-0.84,-1.12l-0.96,-1l-1.04,-0.961l-1.161,-0.8l-0.52,-0.4l-0.4,-0.52l-0.28,-0.6l-0.12,-0.68l0.04,-0.64l0.2,-0.64l0.32,-0.6l0.44,-0.48l0.56,-0.36l0.641,-0.24l0.64,-0.08l21.721,-0l0,-14.161l-26.442,-0l-1.48,0.08l-1.44,0.2l-1.4,0.36l-1.36,0.48l-1.32,0.6l-1.281,0.76l-1.16,0.84l-1.12,0.96l-1,1.08l-0.88,1.16l-0.76,1.24l-0.64,1.321l-0.52,1.36l-0.4,1.4l-0.24,1.44l-0.12,1.44l0.04,1.48l0.16,1.44l0.32,1.4l0.44,1.4l0.6,1.361l0.68,1.24l0.84,1.24l0.92,1.12l1.04,1l1.16,0.92l1.201,0.8l0.72,0.52l0.6,0.64l0.48,0.72l0.32,0.8l0.16,0.88l0.04,0.881l-0.16,0.84l-12.281,45.804l-2.801,-0.961l-2.84,-0.8l-2.92,-0.68l-2.92,-0.52l-2.961,-0.4l-2.96,-0.2l-2.96,-0.04l-2.96,0.08l-2.961,0.28l-2.96,0.4l-2.92,0.56l-2.88,0.72l-2.841,0.841l-2.8,1.04l-2.72,1.12l-2.68,1.32l-2.601,1.44l-2.52,1.56l-2.44,1.72l-2.32,1.8l-2.24,1.961l-2.161,2.04l-2,2.2l-1.92,2.28l-1.8,2.36l-1.68,2.441l-1.52,2.56l-1.4,2.6l-1.241,2.72l-1.12,2.76l-0.96,2.801l-0.84,2.84l-0.68,2.88l-0.52,2.96l-0.36,2.921l-0.2,2.96l-0.04,2.96l0.08,3l0.28,2.961l0.4,2.92l0.56,2.92l0.72,2.88l0.88,2.841l1,2.8l1.16,2.72l1.321,2.68l1.44,2.601l1.56,2.52l1.72,2.44l1.8,2.32l1.96,2.24l2.08,2.161l2.161,2l2.28,1.92l2.36,1.8l2.48,1.64l2.521,1.56l2.64,1.361l2.68,1.28l2.76,1.12l2.8,0.96l2.881,0.8l2.88,0.68l2.92,0.52l2.96,0.36l2.961,0.2l2.96,0.04l3,-0.12l2.92,-0.24l2.961,-0.44l2.92,-0.56l2.88,-0.72l2.84,-0.88l2.801,-1l2.72,-1.16l2.68,-1.32l2.6,-1.441l2.521,-1.56l2.4,-1.72l2.36,-1.84l2.24,-1.92l2.12,-2.08l2.041,-2.161l1.88,-2.28l1.8,-2.4l1.64,-2.44l1.56,-2.56l1.36,-2.641l1.28,-2.68l1.081,-2.76l0.96,-2.8l0.84,-2.881l0.64,-2.88l0.52,-2.92l0.36,-2.96l0.2,-2.961l0.04,-2.96l-0.08,-2.96l-0.28,-2.96l-0.44,-2.961l-0.56,-2.92l-0.72,-2.88l-0.88,-2.84l-1.001,-2.761l-1.2,-2.76l-1.28,-2.64l-1.44,-2.6l-1.6,-2.521l-1.72,-2.44l-1.8,-2.32l-1.96,-2.24l-2.081,-2.12l-2.16,-2.041l-2.28,-1.88l-2.4,-1.8l1.84,-6.84l65.686,45.964l-0.52,1.92l-0.36,1.92l-0.2,1.96l-0,1.96l0.12,2l0.32,1.921l0.44,1.92l0.64,1.88l0.76,1.84l0.92,1.72l1.08,1.68l1.2,1.56l1.32,1.441l1.44,1.36l1.56,1.2l1.641,1.08l1.76,0.96l1.8,0.8l1.88,0.64l1.88,0.48l1.96,0.32l1.96,0.16l2.001,0l1.96,-0.2l1.92,-0.32l1.92,-0.48l3.56,7.641l-6.4,-0l-0,7.56l6.4,0l0.681,0.801l0.76,0.72l0.92,0.56l0.96,0.4l1.04,0.24l1.04,0.12l1.08,-0.12l1.04,-0.24l0.96,-0.4l0.88,-0.56l0.8,-0.72l0.68,-0.801l6.4,0l0,-7.56l-9.92,-0l-4.88,-10.441Zm40.243,3.8l1.56,1.96l1.68,1.841l1.761,1.76l1.92,1.64l2,1.52l2.08,1.4l2.16,1.24l2.24,1.12l2.321,0.96l2.36,0.84l2.399,0.681l2.481,0.48l2.48,0.4l2.481,0.2l2.519,0.04l2.481,-0.12l2.48,-0.28l2.481,-0.4l2.44,-0.601l2.4,-0.72l2.36,-0.88l2.28,-1.04l2.2,-1.16l2.161,-1.32l2.039,-1.44l1.961,-1.56l1.84,-1.68l1.72,-1.801l1.641,-1.92l1.519,-2l1.361,-2.12l1.24,-2.16l1.08,-2.24l0.96,-2.321l0.8,-2.4l0.64,-2.4l0.52,-2.44l0.32,-2.48l0.2,-2.521l0.04,-2.52l-0.12,-2.48l-0.32,-2.48l-0.44,-2.481l-0.6,-2.44l-0.76,-2.36l-0.881,-2.36l-1.04,-2.28l-1.199,-2.201l-1.32,-2.12l-1.481,-2.04l-1.559,-1.96l-1.721,-1.84l-1.8,-1.72l-1.921,-1.601l-2,-1.48l-2.119,-1.36l-2.2,-1.2l-2.241,-1.08l-2.321,-0.96l-2.399,-0.76l-2.44,-0.64l-2.441,-0.48l-2.48,-0.32l-2.52,-0.2l-2.48,-0l-2.52,0.16l-2.481,0.32l-2.44,0.44l-2.44,0.64l-2.401,0.76l20.082,34.763l0.401,0.8l0.2,0.88l0.08,0.92l-0.08,0.88l-0.2,0.88l-0.401,0.84l-0.52,0.72l-0.64,0.641l-0.76,0.52l-0.8,0.4l-0.88,0.24l-0.92,0.08l-41.524,-0l0.401,2.48l0.559,2.44l0.721,2.4l0.88,2.32l1,2.321l1.16,2.2l1.279,2.16l1.441,2.08Zm-163.054,-50.404l2.6,-9.721l-2.32,-0.92l-2.36,-0.72l-2.44,-0.64l-2.441,-0.44l-2.48,-0.28l-2.48,-0.16l-2.48,0.04l-2.48,0.16l-2.481,0.32l-2.44,0.48l-2.44,0.64l-2.36,0.8l-2.28,0.92l-2.281,1.08l-2.16,1.2l-2.08,1.36l-2.04,1.48l-1.88,1.601l-1.841,1.72l-1.68,1.8l-1.56,1.92l-1.48,2.04l-1.32,2.12l-1.16,2.201l-1.08,2.24l-0.88,2.32l-0.76,2.36l-0.6,2.44l-0.48,2.441l-0.281,2.48l-0.16,2.48l0.04,2.48l0.161,2.521l0.32,2.44l0.48,2.44l0.64,2.44l0.76,2.36l0.96,2.321l1.04,2.24l1.24,2.16l1.32,2.12l1.48,2l1.6,1.92l1.721,1.801l1.84,1.68l1.92,1.6l2,1.44l2.12,1.32l2.2,1.2l2.241,1.04l2.36,0.92l2.36,0.76l2.4,0.601l2.48,0.44l2.441,0.32l2.52,0.16l2.48,-0.04l2.48,-0.16l2.48,-0.32l2.441,-0.48l2.4,-0.641l2.36,-0.76l2.32,-0.92l2.24,-1.08l2.201,-1.2l2.08,-1.36l2.04,-1.48l1.88,-1.6l1.84,-1.72l1.681,-1.801l1.6,-1.92l1.44,-2.04l1.32,-2.12l1.2,-2.16l1.04,-2.28l0.92,-2.321l0.76,-2.36l0.6,-2.44l0.48,-2.44l0.28,-2.481l0.16,-2.48l0,-2.48l-0.2,-2.48l-0.32,-2.48l-0.48,-2.441l-0.6,-2.44l-0.8,-2.36l-0.92,-2.32l-1.08,-2.24l-1.2,-2.161l-1.32,-2.12l-1.48,-2l-1.601,-1.92l-1.72,-1.8l-3.2,11.881l-0.6,2.04l-0.8,2l-0.88,1.92l-1.04,1.88l-1.2,1.761l-1.28,1.68l-1.401,1.6l-1.52,1.52l-1.64,1.36l-1.72,1.28l-1.8,1.16l-1.84,1l-1.96,0.881l-2.001,0.72l-2.04,0.6l-2.08,0.48l-0.92,0.08l-0.92,-0.08l-0.88,-0.2l-0.84,-0.36l-0.76,-0.48l-0.68,-0.6l-0.6,-0.721l-0.481,-0.76l-0.32,-0.88l-0.2,-0.88l-0.04,-0.92l0.12,-0.88l0.24,-0.88l0.4,-0.84l0.521,-0.76l0.6,-0.68l0.76,-0.52l2.04,-1.44l2,-1.6l1.88,-1.721l1.72,-1.8l1.64,-1.96l1.481,-2.04l1.32,-2.16l1.2,-2.201l1.08,-2.32l0.88,-2.36l0.72,-2.44Zm124.971,25.322l-0.2,-1.48l-0.36,-1.44l-0.52,-1.4l-0.64,-1.32l-0.76,-1.281l-0.88,-1.2l-1.001,-1.08l-1.08,-1l-1.2,-0.88l-1.28,-0.76l-1.32,-0.64l-1.4,-0.52l-1.44,-0.36l-1.48,-0.2l-1.48,-0.08l-1.481,0.08l-1.48,0.2l-1.44,0.36l-1.4,0.52l-1.32,0.64l-1.28,0.76l-1.2,0.88l-1.08,1l-1,1.08l-0.881,1.2l-0.76,1.281l-0.64,1.32l-0.52,1.4l-0.36,1.44l-0.2,1.48l-0.08,1.48l0.08,1.48l0.2,1.48l0.36,1.441l0.52,1.4l0.64,1.32l0.76,1.28l0.881,1.2l1,1.08l1.08,1l1.2,0.88l1.28,0.76l1.32,0.64l1.4,0.52l1.44,0.36l1.48,0.2l1.481,0.08l1.48,-0.08l1.48,-0.2l1.44,-0.36l1.4,-0.52l1.32,-0.64l1.28,-0.76l1.2,-0.88l1.08,-1l1.001,-1.08l0.88,-1.2l0.76,-1.28l0.64,-1.32l0.52,-1.4l0.36,-1.441l0.2,-1.48l0.08,-1.48l-0.08,-1.48Zm58.805,-3.72l-14.481,-25.082l-1.801,1.64l-1.68,1.72l-1.6,1.84l-1.481,1.96l-1.359,2l-1.24,2.121l-1.12,2.16l-0.96,2.24l-0.8,2.28l-0.681,2.36l-0.559,2.361l-0.401,2.4l28.163,-0Zm-23.083,-39.964l-2.28,1.84l-2.199,1.961l-2.081,2.04l-2,2.16l-1.88,2.28l-1.721,2.36l-1.64,2.481l-1.48,2.52l-1.359,2.6l-1.241,2.68l-1.08,2.72l-0.92,2.801l-0.8,2.84l-0.64,2.88l-0.52,2.88l-0.321,2.921l-5.559,-0l-0.52,-2l-0.721,-1.921l-0.88,-1.84l-1.04,-1.76l-1.16,-1.68l-1.32,-1.6l-1.48,-1.44l-1.56,-1.32l19.962,-54.885l16.44,28.482Zm-78.446,14.922l9.921,-0l4.88,10.44l-1.52,1.081l-69.886,-48.965l2.12,-7.92l102.129,-0l-18.921,52.004l-2.001,0l-2,0.16l-2,0.32l-1.92,0.52l-3.56,-7.64l6.4,-0l0,-7.561l-6.4,-0l-0.68,-0.8l-0.8,-0.72l-0.881,-0.56l-0.96,-0.4l-1.04,-0.28l-1.08,-0.08l-1.04,0.08l-1.04,0.28l-0.96,0.4l-0.92,0.56l-0.8,0.72l-0.64,0.8l-6.401,-0l0,7.561Z" style="fill:#fff;"/></g></g></svg>