<?xml version="1.0" encoding="UTF-8" standalone="no"?><!DOCTYPE svg PUBLIC "-//W3C//DTD SVG 1.1//EN" "http://www.w3.org/Graphics/SVG/1.1/DTD/svg11.dtd"><svg width="100%" height="100%" viewBox="0 0 806 367" version="1.1" xmlns="http://www.w3.org/2000/svg" xmlns:xlink="http://www.w3.org/1999/xlink" xml:space="preserve" xmlns:serif="http://www.serif.com/" style="fill-rule:evenodd;clip-rule:evenodd;stroke-linejoin:round;stroke-miterlimit:2;"><g transform="matrix(64.5901,0,0,64.5901,501.707,205.873)"></g><text x="313.204px" y="205.873px" style="font-family:'ArialMT', 'Arial', sans-serif;font-size:64.59px;">sw=31</text><rect id="Cyclists-Rejoin-Carriageway" serif:id="Cyclists Rejoin Carriageway" x="0" y="0" width="805.039" height="366.142" style="fill:none;"/><clipPath id="_clip1"><rect x="0" y="0" width="805.039" height="366.142"/></clipPath><g clip-path="url(#_clip1)"><path d="M805.039,35.433c0,-19.556 -15.877,-35.433 -35.433,-35.433l-734.173,-0c-19.556,-0 -35.433,15.877 -35.433,35.433l0,295.276c0,19.556 15.877,35.433 35.433,35.433l734.173,-0c19.556,-0 35.433,-15.877 35.433,-35.433l0,-295.276Z" style="fill:#fff;"/><path d="M805.039,35.433l0,295.276c0,19.556 -15.877,35.433 -35.433,35.433l-734.173,-0c-19.556,-0 -35.433,-15.877 -35.433,-35.433l0,-295.276c0,-19.556 15.877,-35.433 35.433,-35.433l734.173,-0c19.556,-0 35.433,15.877 35.433,35.433Zm-1.181,0c0,-18.904 -15.348,-34.252 -34.252,-34.252l-734.173,0c-18.904,0 -34.252,15.348 -34.252,34.252l0,295.276c0,18.904 15.348,34.252 34.252,34.252l734.173,-0c18.904,-0 34.252,-15.348 34.252,-34.252l0,-295.276Z" style="fill:#0079c1;"/><path d="M787.323,35.433c-0,-9.778 -7.939,-17.716 -17.717,-17.716l-734.173,-0c-9.778,-0 -17.716,7.938 -17.716,17.716l-0,295.276c-0,9.778 7.938,17.716 17.716,17.716l734.173,0c9.778,0 17.717,-7.938 17.717,-17.716l-0,-295.276Z" style="fill:#0079c1;"/><rect x="170.551" y="50.787" width="69.921" height="94.488" style="fill:#0079c1;"/><path d="M234.088,72.047c-3.561,-11.871 -13.737,-19.164 -27.219,-19.164c-19.843,0 -29.934,15.942 -29.934,34.767c0,18.062 10.176,34.004 29.934,34.004c13.821,-0 22.556,-6.53 27.05,-18.825l-10.43,-3.477c-2.459,7.632 -8.395,12.126 -16.451,12.126c-14.076,-0 -18.486,-11.533 -18.486,-24.082c0,-12.974 5.088,-24.422 19.249,-24.422c8.565,-0 13.992,6.19 16.027,12.72l10.26,-3.647Z" style="fill:#fff;fill-rule:nonzero;"/><rect x="298.583" y="50.787" width="69.921" height="94.488" style="fill:#0079c1;"/><path d="M362.12,72.047c-3.562,-11.871 -13.737,-19.164 -27.22,-19.164c-19.842,0 -29.933,15.942 -29.933,34.767c-0,18.062 10.175,34.004 29.933,34.004c13.822,-0 22.556,-6.53 27.05,-18.825l-10.43,-3.477c-2.459,7.632 -8.395,12.126 -16.45,12.126c-14.077,-0 -18.486,-11.533 -18.486,-24.082c-0,-12.974 5.088,-24.422 19.249,-24.422c8.564,-0 13.991,6.19 16.026,12.72l10.261,-3.647Z" style="fill:#fff;fill-rule:nonzero;"/><rect x="419.055" y="50.787" width="34.488" height="94.488" style="fill:#0079c1;"/><rect x="430.618" y="55.512" width="11.448" height="66.142" style="fill:#fff;fill-rule:nonzero;"/><rect x="368.504" y="50.787" width="50.551" height="94.488" style="fill:#0079c1;"/><path d="M416.693,111.478l-26.966,-0l0,-55.966l-11.362,-0l-0,66.142l38.328,-0l-0,-10.176Z" style="fill:#fff;fill-rule:nonzero;"/><rect x="453.543" y="50.787" width="64.724" height="94.488" style="fill:#0079c1;"/><path d="M511.896,104.949c-0,-10.6 -5.936,-16.706 -18.825,-19.928l-8.395,-2.12c-7.123,-1.78 -11.363,-4.155 -11.363,-9.158c0,-5.257 5.851,-8.056 12.55,-8.056c5.851,0 11.956,2.205 15.348,7.208l8.734,-7.208c-5.511,-7.546 -15.009,-10.175 -24.082,-10.175c-15.009,-0 -24.082,8.225 -24.082,18.74c-0,12.38 9.243,16.959 18.485,19.164l9.583,2.29c5.257,1.272 10.514,3.646 10.514,9.836c0,5.427 -5.172,8.48 -13.906,8.48c-6.36,-0 -14.077,-4.24 -17.723,-9.413l-8.819,7.378c6.699,7.801 16.027,12.21 26.626,12.21c16.366,0 25.355,-7.546 25.355,-19.248Z" style="fill:#fff;fill-rule:nonzero;"/><rect x="569.764" y="50.787" width="64.724" height="94.488" style="fill:#0079c1;"/><path d="M628.116,104.949c0,-10.6 -5.936,-16.706 -18.825,-19.928l-8.395,-2.12c-7.123,-1.78 -11.362,-4.155 -11.362,-9.158c-0,-5.257 5.851,-8.056 12.55,-8.056c5.851,0 11.956,2.205 15.348,7.208l8.734,-7.208c-5.512,-7.546 -15.009,-10.175 -24.082,-10.175c-15.01,-0 -24.083,8.225 -24.083,18.74c0,12.38 9.243,16.959 18.486,19.164l9.582,2.29c5.257,1.272 10.515,3.646 10.515,9.836c-0,5.427 -5.173,8.48 -13.907,8.48c-6.36,-0 -14.076,-4.24 -17.722,-9.413l-8.819,7.378c6.699,7.801 16.026,12.21 26.626,12.21c16.366,0 25.354,-7.546 25.354,-19.248Z" style="fill:#fff;fill-rule:nonzero;"/><rect x="518.268" y="50.787" width="51.496" height="94.488" style="fill:#0079c1;"/><path d="M567.801,55.512l-47.571,-0l0,10.175l18.062,0l-0,55.967l11.363,-0l-0,-55.967l18.146,0l0,-10.175Z" style="fill:#fff;fill-rule:nonzero;"/><rect x="240.472" y="50.787" width="58.11" height="94.488" style="fill:#0079c1;"/><path d="M284.367,55.512l-14.839,27.728l-14.84,-27.728l-12.041,-0l21.199,39.6l0,26.542l11.363,-0l-0,-26.542l21.199,-39.6l-12.041,-0Z" style="fill:#fff;fill-rule:nonzero;"/><rect x="288.898" y="145.276" width="62.362" height="94.488" style="fill:#0079c1;"/><path d="M341.702,205.966l-31.884,0l0,-18.146l27.39,-0l-0,-10.176l-27.39,-0l0,-17.468l30.018,-0l0,-10.176l-41.381,0l0,66.142l43.247,-0l-0,-10.176Z" style="fill:#fff;fill-rule:nonzero;"/><rect x="468.898" y="145.276" width="34.488" height="94.488" style="fill:#0079c1;"/><rect x="480.46" y="150" width="11.448" height="66.142" style="fill:#fff;fill-rule:nonzero;"/><rect x="351.26" y="145.276" width="43.937" height="94.488" style="fill:#0079c1;"/><path d="M384.743,149.917l-11.287,0l0,47.635c0,6.058 -2.489,8.382 -7.469,8.382c-2.904,0 -6.639,-0.913 -9.543,-2.158l-2.822,10.208c3.9,1.328 8.714,2.158 13.112,2.158c12.697,-0 18.009,-5.312 18.009,-16.847l-0,-49.378Z" style="fill:#fff;fill-rule:nonzero;"/><rect x="503.386" y="145.276" width="79.37" height="94.488" style="fill:#0079c1;"/><path d="M570.969,150l-11.363,0l0,47.062l-32.562,-47.062l-11.871,0l-0,66.142l11.362,-0l0,-47.063l32.562,47.063l11.872,-0l0,-66.142Z" style="fill:#fff;fill-rule:nonzero;"/><rect x="395.197" y="145.276" width="73.701" height="94.488" style="fill:#0079c1;"/><path d="M450.83,184.597c-0,13.313 -4.41,24.083 -18.74,24.083c-14.246,-0 -18.825,-10.77 -18.825,-24.083c-0,-12.55 4.918,-24.421 18.825,-24.421c13.991,-0 18.74,11.786 18.74,24.421Zm11.363,0c-0,-20.097 -10.176,-34.597 -30.188,-34.597c-20.182,0 -30.103,14.331 -30.103,34.512c-0,19.843 10.345,34.258 30.103,34.258c19.758,0 30.188,-14.33 30.188,-34.173Z" style="fill:#fff;fill-rule:nonzero;"/><rect x="222.283" y="145.276" width="66.614" height="94.488" style="fill:#0079c1;"/><path d="M265.936,170.182c-0,5.936 -4.07,10.091 -10.091,10.091l-13.822,-0.085l-0,-20.012l13.992,-0c5.935,-0 9.921,4.155 9.921,10.006Zm-0.848,18.825c4.918,-1.611 12.126,-6.53 12.126,-18.232c-0,-11.956 -6.699,-20.775 -21.03,-20.775l-25.524,0l0,66.142l11.363,-0l-0,-25.779l11.448,0l14.415,25.779l12.55,-0l-15.348,-27.135Z" style="fill:#fff;fill-rule:nonzero;"/><rect x="349.134" y="239.764" width="64.252" height="94.488" style="fill:#0079c1;"/><path d="M371.169,288.583l10.006,-31.969l10.176,31.969l-20.182,-0Zm17.044,-44.095l-14.076,0l-21.284,66.142l11.363,-0l3.985,-12.38l26.287,-0l3.816,12.38l11.363,-0l-21.454,-66.142Z" style="fill:#fff;fill-rule:nonzero;"/><rect x="635.433" y="239.764" width="64.252" height="94.488" style="fill:#0079c1;"/><path d="M657.468,288.583l10.006,-31.969l10.176,31.969l-20.182,-0Zm17.044,-44.095l-14.076,0l-21.284,66.142l11.363,-0l3.985,-12.38l26.287,-0l3.816,12.38l11.363,-0l-21.454,-66.142Z" style="fill:#fff;fill-rule:nonzero;"/><rect x="248.031" y="239.764" width="66.614" height="94.488" style="fill:#0079c1;"/><path d="M291.684,264.67c-0,5.936 -4.07,10.091 -10.091,10.091l-13.822,-0.085l0,-20.012l13.992,-0c5.935,-0 9.921,4.155 9.921,10.006Zm-0.848,18.825c4.918,-1.611 12.126,-6.53 12.126,-18.232c-0,-11.956 -6.699,-20.775 -21.03,-20.775l-25.524,0l0,66.142l11.363,-0l0,-25.778l11.448,-0l14.415,25.778l12.55,-0l-15.348,-27.135Z" style="fill:#fff;fill-rule:nonzero;"/><rect x="47.244" y="239.764" width="69.921" height="94.488" style="fill:#0079c1;"/><path d="M110.781,261.024c-3.561,-11.872 -13.737,-19.165 -27.22,-19.165c-19.842,0 -29.933,15.942 -29.933,34.767c0,18.062 10.176,34.004 29.933,34.004c13.822,-0 22.556,-6.529 27.051,-18.825l-10.43,-3.477c-2.459,7.632 -8.395,12.126 -16.451,12.126c-14.076,0 -18.486,-11.532 -18.486,-24.082c0,-12.974 5.088,-24.422 19.249,-24.422c8.565,0 13.992,6.191 16.027,12.72l10.26,-3.646Z" style="fill:#fff;fill-rule:nonzero;"/><rect x="486.614" y="239.764" width="62.362" height="94.488" style="fill:#0079c1;"/><path d="M539.419,300.454l-31.884,0l-0,-18.146l27.389,-0l0,-10.176l-27.389,0l-0,-17.468l30.018,-0l-0,-10.176l-41.381,0l-0,66.142l43.247,-0l-0,-10.176Z" style="fill:#fff;fill-rule:nonzero;"/><rect x="117.165" y="239.764" width="64.252" height="94.488" style="fill:#0079c1;"/><path d="M139.2,288.583l10.007,-31.969l10.175,31.969l-20.182,-0Zm17.045,-44.095l-14.077,0l-21.284,66.142l11.363,-0l3.986,-12.38l26.287,-0l3.816,12.38l11.362,-0l-21.453,-66.142Z" style="fill:#fff;fill-rule:nonzero;"/><rect x="413.386" y="239.764" width="73.228" height="94.488" style="fill:#0079c1;"/><path d="M477.695,273.963l-26.527,0l-0,9.775l17.017,-0l0,3.007c-0.083,9.022 -5.505,15.371 -15.849,15.371c-13.848,0 -18.853,-11.278 -18.853,-23.391c-0,-12.197 5.172,-24.31 18.853,-24.31c7.09,-0 12.763,3.759 15.933,9.941l9.176,-4.678c-4.922,-9.775 -13.931,-15.288 -26.11,-15.288c-20.021,-0 -29.03,16.708 -29.03,34.252c-0,16.791 9.176,33.416 29.197,33.416c7.507,-0 13.68,-3.175 16.767,-7.602l-0,6.182l9.426,-0l0,-36.675Z" style="fill:#fff;fill-rule:nonzero;"/><rect x="314.646" y="239.764" width="34.488" height="94.488" style="fill:#0079c1;"/><rect x="326.208" y="244.488" width="11.448" height="66.142" style="fill:#fff;fill-rule:nonzero;"/><rect x="181.417" y="239.764" width="66.614" height="94.488" style="fill:#0079c1;"/><path d="M225.07,264.67c-0,5.936 -4.071,10.091 -10.091,10.091l-13.822,-0.085l-0,-20.012l13.991,-0c5.936,-0 9.922,4.155 9.922,10.006Zm-0.848,18.825c4.918,-1.611 12.126,-6.53 12.126,-18.232c-0,-11.956 -6.699,-20.775 -21.03,-20.775l-25.524,0l0,66.142l11.363,-0l-0,-25.778l11.447,-0l14.416,25.778l12.55,-0l-15.348,-27.135Z" style="fill:#fff;fill-rule:nonzero;"/><rect x="548.976" y="239.764" width="86.457" height="94.488" style="fill:#0079c1;"/><path d="M619.509,244.488l-10.684,47.147l-10.684,-47.147l-11.872,0l-10.685,46.893l-10.684,-46.893l-11.532,0l15.263,66.142l12.804,-0l10.77,-47.741l10.769,47.741l12.72,-0l15.348,-66.142l-11.533,0Z" style="fill:#fff;fill-rule:nonzero;"/><rect x="699.685" y="239.764" width="58.11" height="94.488" style="fill:#0079c1;"/><path d="M743.58,244.488l-14.84,27.729l-14.839,-27.729l-12.042,0l21.2,39.6l-0,26.542l11.363,-0l-0,-26.542l21.199,-39.6l-12.041,0Z" style="fill:#fff;fill-rule:nonzero;"/></g></svg>