<?xml version="1.0" encoding="UTF-8" standalone="no"?><!DOCTYPE svg PUBLIC "-//W3C//DTD SVG 1.1//EN" "http://www.w3.org/Graphics/SVG/1.1/DTD/svg11.dtd"><svg width="100%" height="100%" viewBox="0 0 1032 691" version="1.1" xmlns="http://www.w3.org/2000/svg" xmlns:xlink="http://www.w3.org/1999/xlink" xml:space="preserve" xmlns:serif="http://www.serif.com/" style="fill-rule:evenodd;clip-rule:evenodd;stroke-linejoin:round;stroke-miterlimit:2;"><path d="M907.442,596.183c16.119,0 29.553,-13.423 29.553,-29.147l-0,-443.116c-0,-16.108 -13.434,-29.542 -29.553,-29.542l-783.884,0c-15.735,0 -29.169,13.434 -29.169,29.542l-0,443.116c-0,15.724 13.434,29.147 29.169,29.147l783.884,0" style="fill:#333;"/><path d="M936.995,276.231l94.772,-0l0,-138.11l-94.772,-0l-0,138.11Zm-52.574,-181.853l-0,-94.378l-147.72,0l0,94.378l147.72,0Zm-295.056,0l0,-94.378l-147.336,0l0,94.378l147.336,0Zm-294.682,0l-0,-94.378l-147.336,0l-0,94.378l147.336,0Zm-200.294,43.743l-94.378,-0l-0,138.11l94.378,-0l-0,-138.11Zm-0,276.22l-94.378,0l-0,138.494l94.378,-0l-0,-138.494Zm52.958,181.842l-0,94.762l147.336,-0l-0,-94.762l-147.336,0Zm294.682,0l0,94.762l147.336,-0l0,-94.762l-147.336,0Zm294.672,0l0,94.762l147.72,-0l-0,-94.762l-147.72,0Zm200.294,-43.348l94.772,-0l0,-138.494l-94.772,0l-0,138.494Z" style="fill:#fff;"/><path d="M936.995,138.121l94.772,-0l0,-108.963c0,-15.724 -13.434,-29.158 -29.552,-29.158l-117.794,-0l-0,94.378l23.021,0c16.119,0 29.553,13.434 29.553,29.542l-0,14.201Zm-200.294,-43.743l0,-94.378l-147.336,0l0,94.378l147.336,0Zm-294.682,0l-0,-94.378l-147.336,0l-0,94.378l147.336,0Zm-294.672,0l-0,-94.378l-117.805,-0c-16.108,-0 -29.542,13.434 -29.542,29.158l0,108.963l94.389,-0l-0,-14.201c-0,-16.108 13.434,-29.542 29.169,-29.542l23.789,0Zm-52.958,181.853l-94.378,-0l-0,138.11l94.378,0l-0,-138.11Zm-0,276.604l-94.389,-0l0,108.568c0,16.119 13.434,29.542 29.542,29.542l117.805,-0l-0,-94.762l-23.789,0c-15.735,0 -29.169,-13.423 -29.169,-29.147l-0,-14.201Zm200.294,43.348l-0,94.762l147.336,-0l-0,-94.762l-147.336,0Zm294.682,0l0,94.762l147.336,-0l0,-94.762l-147.336,0Zm295.056,0l-0,94.762l117.794,-0c16.118,-0 29.552,-13.423 29.552,-29.542l0,-108.568l-94.772,-0l-0,14.201c-0,15.724 -13.434,29.147 -29.553,29.147l-23.021,0Zm52.574,-181.842l94.772,0l0,-138.11l-94.772,-0l-0,138.11Z" style="fill:#e31837;"/><circle cx="736.701" cy="256.661" r="94.484" style="fill:#262626;"/><circle cx="295.354" cy="256.661" r="94.484" style="fill:#262626;"/><circle cx="516.027" cy="433.869" r="94.484" style="fill:#262626;"/><circle cx="736.701" cy="256.661" r="75.587"/><circle cx="295.354" cy="256.661" r="75.587"/><circle cx="516.027" cy="433.869" r="75.587" style="fill:#ffd200;"/></svg>