<?xml version="1.0" encoding="UTF-8" standalone="no"?><!DOCTYPE svg PUBLIC "-//W3C//DTD SVG 1.1//EN" "http://www.w3.org/Graphics/SVG/1.1/DTD/svg11.dtd"><svg width="100%" height="100%" viewBox="0 0 1032 691" version="1.1" xmlns="http://www.w3.org/2000/svg" xmlns:xlink="http://www.w3.org/1999/xlink" xml:space="preserve" xmlns:serif="http://www.serif.com/" style="fill-rule:evenodd;clip-rule:evenodd;stroke-linejoin:round;stroke-miterlimit:2;"><g transform="matrix(50,0,0,50,609.927,363.136)"></g><text x="422.304px" y="363.136px" style="font-family:'ArialMT', 'Arial', sans-serif;font-size:50px;">sw=58.5</text><g><path d="M124.325,596.183c-16.119,0 -29.553,-13.423 -29.553,-29.147l0,-443.116c0,-16.108 13.434,-29.542 29.553,-29.542l783.884,0c15.735,0 29.169,13.434 29.169,29.542l0,443.116c0,15.724 -13.434,29.147 -29.169,29.147l-783.884,0" style="fill:#333;"/><path d="M94.772,276.231l-94.772,-0l0,-138.11l94.772,-0l0,138.11Zm52.575,-181.853l-0,-94.378l147.719,0l0,94.378l-147.719,0Zm295.055,0l0,-94.378l147.336,0l-0,94.378l-147.336,0Zm294.683,0l-0,-94.378l147.336,0l-0,94.378l-147.336,0Zm200.293,43.743l94.378,-0l0,138.11l-94.378,-0l0,-138.11Zm0,276.22l94.378,0l0,138.494l-94.378,-0l0,-138.494Zm-52.957,181.842l-0,94.762l-147.336,-0l-0,-94.762l147.336,0Zm-294.683,0l-0,94.762l-147.336,-0l0,-94.762l147.336,0Zm-294.672,0l0,94.762l-147.719,-0l-0,-94.762l147.719,0Zm-200.294,-43.348l-94.772,-0l-0,-138.494l94.772,0l0,138.494Z" style="fill:#fff;"/><path d="M94.772,138.121l-94.772,-0l0,-108.963c0,-15.724 13.434,-29.158 29.552,-29.158l117.795,-0l-0,94.378l-23.022,0c-16.119,0 -29.553,13.434 -29.553,29.542l0,14.201Zm200.294,-43.743l0,-94.378l147.336,0l0,94.378l-147.336,0Zm294.683,0l-0,-94.378l147.336,0l-0,94.378l-147.336,0Zm294.672,0l-0,-94.378l117.804,-0c16.108,-0 29.542,13.434 29.542,29.158l0,108.963l-94.389,-0l0,-14.201c0,-16.108 -13.434,-29.542 -29.169,-29.542l-23.788,0Zm52.957,181.853l94.378,-0l0,138.11l-94.378,0l0,-138.11Zm0,276.604l94.389,-0l0,108.568c0,16.119 -13.434,29.542 -29.542,29.542l-117.804,-0l-0,-94.762l23.788,0c15.735,0 29.169,-13.423 29.169,-29.147l0,-14.201Zm-200.293,43.348l-0,94.762l-147.336,-0l-0,-94.762l147.336,0Zm-294.683,0l0,94.762l-147.336,-0l0,-94.762l147.336,0Zm-295.055,0l-0,94.762l-117.795,-0c-16.118,-0 -29.552,-13.423 -29.552,-29.542l-0,-108.568l94.772,-0l0,14.201c0,15.724 13.434,29.147 29.553,29.147l23.022,0Zm-52.575,-181.842l-94.772,0l-0,-138.11l94.772,-0l0,138.11Z" style="fill:#e31837;"/><circle cx="295.066" cy="256.661" r="94.484" style="fill:#262626;"/><circle cx="736.413" cy="256.661" r="94.484" style="fill:#262626;"/><circle cx="515.74" cy="433.869" r="94.484" style="fill:#262626;"/><circle cx="295.066" cy="256.661" r="75.587" style="fill:#e31837;"/><circle cx="736.413" cy="256.661" r="75.587"/><circle cx="515.74" cy="433.869" r="75.587"/></g></svg>