<?xml version="1.0" encoding="UTF-8" standalone="no"?><!DOCTYPE svg PUBLIC "-//W3C//DTD SVG 1.1//EN" "http://www.w3.org/Graphics/SVG/1.1/DTD/svg11.dtd"><svg width="100%" height="100%" viewBox="0 0 454 454" version="1.1" xmlns="http://www.w3.org/2000/svg" xmlns:xlink="http://www.w3.org/1999/xlink" xml:space="preserve" xmlns:serif="http://www.serif.com/" style="fill-rule:evenodd;clip-rule:evenodd;stroke-linejoin:round;stroke-miterlimit:2;"><g transform="matrix(50,0,0,50,321.022,244.423)"></g><text x="133.4px" y="244.423px" style="font-family:'ArialMT', 'Arial', sans-serif;font-size:50px;">sw=38.4</text><g id="_601.1-STOP" serif:id="601.1 STOP"><path d="M132.84,0l187.864,0l132.839,132.84l0,187.864l-132.839,132.839l-187.864,0l-132.84,-132.839l0,-187.864l132.84,-132.84Z" style="fill:#fff;"/><path d="M132.84,0l187.864,0l132.839,132.84l0,187.864l-132.839,132.839l-187.864,0l-132.84,-132.839l0,-187.864l132.84,-132.84Zm0.489,1.181l-132.148,132.148l0,186.885l132.148,132.148l186.885,0l132.148,-132.148l0,-186.885l-132.148,-132.148l-186.885,0Z" style="fill:#e31837;"/><path d="M139.102,15.118l175.34,0l123.983,123.984l0,175.339l-123.984,123.984l-175.339,0l-123.984,-123.984l0,-175.339l123.984,-123.984Z" style="fill:#e31837;"/><g><g><rect x="211.654" y="169.323" width="117.921" height="151.181" style="fill:#e31837;"/><path d="M301.066,229.667c-0,21.584 -7.149,39.044 -30.383,39.044c-23.097,-0 -30.521,-17.46 -30.521,-39.044c0,-20.347 7.974,-39.595 30.521,-39.595c22.684,0 30.383,19.11 30.383,39.595Zm18.422,-0c0,-32.583 -16.497,-56.092 -48.943,-56.092c-32.72,-0 -48.805,23.234 -48.805,55.954c0,32.17 16.773,55.542 48.805,55.542c32.033,-0 48.943,-23.234 48.943,-55.404Z" style="fill:#fff;fill-rule:nonzero;"/></g><g><rect x="329.575" y="169.323" width="98.268" height="151.181" style="fill:#e31837;"/><path d="M402.878,210.801c0,10.582 -6.105,17.095 -16.416,17.095l-19.809,-0l-0,-34.733l19.673,-0c10.447,-0 16.552,7.055 16.552,17.638Zm18.181,-0.136c-0,-18.994 -10.176,-33.783 -32.291,-33.783l-40.296,-0l0,105.827l18.181,-0l-0,-38.532l22.115,-0c22.522,-0 32.291,-15.196 32.291,-33.512Z" style="fill:#fff;fill-rule:nonzero;"/></g><g><rect x="25.701" y="169.323" width="103.559" height="151.181" style="fill:#e31837;"/><path d="M118.036,255.242c-0,-17.206 -9.636,-27.117 -30.559,-32.348l-13.627,-3.441c-11.562,-2.891 -18.445,-6.745 -18.445,-14.866c0,-8.535 9.498,-13.077 20.372,-13.077c9.498,0 19.409,3.579 24.915,11.7l14.178,-11.7c-8.948,-12.251 -24.364,-16.518 -39.093,-16.518c-24.364,0 -39.092,13.352 -39.092,30.421c-0,20.096 15.004,27.53 30.007,31.108l15.555,3.717c8.534,2.065 17.068,5.919 17.068,15.967c0,8.81 -8.396,13.765 -22.574,13.765c-10.324,0 -22.85,-6.882 -28.769,-15.279l-14.315,11.976c10.874,12.663 26.015,19.821 43.221,19.821c26.567,0 41.158,-12.251 41.158,-31.246Z" style="fill:#fff;fill-rule:nonzero;"/></g><g><rect x="129.26" y="169.323" width="82.394" height="151.181" style="fill:#e31837;"/><path d="M208.514,176.882l-76.114,-0l-0,16.281l28.899,-0l-0,89.546l18.18,-0l0,-89.546l29.035,-0l-0,-16.281Z" style="fill:#fff;fill-rule:nonzero;"/></g></g></g></svg>