<?xml version="1.0" encoding="UTF-8" standalone="no"?><!DOCTYPE svg PUBLIC "-//W3C//DTD SVG 1.1//EN" "http://www.w3.org/Graphics/SVG/1.1/DTD/svg11.dtd"><svg width="100%" height="100%" viewBox="0 0 514 454" version="1.1" xmlns="http://www.w3.org/2000/svg" xmlns:xlink="http://www.w3.org/1999/xlink" xml:space="preserve" xmlns:serif="http://www.serif.com/" style="fill-rule:evenodd;clip-rule:evenodd;stroke-linejoin:round;stroke-miterlimit:2;"><g transform="matrix(50,0,0,50,350.88,262.709)"></g><text x="163.258px" y="262.709px" style="font-family:'ArialMT', 'Arial', sans-serif;font-size:50px;">sw=38.4</text><g id="_770-Level-Crossing-with-Gate-or-Barrier" serif:id="770 Level Crossing with Gate or Barrier"><path d="M227.178,17.004c6.076,-10.522 17.302,-17.004 29.452,-17.004c12.149,0 23.376,6.482 29.452,17.004c54.065,93.625 168.545,291.872 222.619,385.514c6.077,10.524 6.079,23.491 0.003,34.016c-6.075,10.525 -17.303,17.009 -29.455,17.009l-445.238,0c-12.152,0 -23.38,-6.484 -29.455,-17.009c-6.076,-10.525 -6.074,-23.492 0.003,-34.016c54.074,-93.642 168.554,-291.889 222.619,-385.514Z" style="fill:#e31837;"/><path d="M256.665,56.708l202.961,351.496l-405.922,-0l202.961,-351.496Z" style="fill:#fff;"/><path d="M148.612,393.086l0,-18.366l-7.601,-0l0,-18.286l7.601,0l0,-50.487l-7.601,0l0,-18.366l7.601,-0l0,-10.68l14.322,-18.366l14.402,18.366l-0,10.68l18.082,-0l-0,-10.68l14.401,-18.366l14.322,18.366l0,10.68l18.162,-0l0,-10.68l14.402,-18.366l14.322,18.366l-0,10.68l18.162,-0l-0,-10.68l14.401,-18.366l14.322,18.366l0,10.68l18.162,-0l0,-10.68l14.322,-18.366l14.402,18.366l-0,10.68l7.52,-0l0,18.366l-7.52,0l-0,50.487l7.52,0l0,18.286l-7.52,-0l-0,18.366l-28.724,-0l0,-18.366l-18.162,-0l0,18.366l-28.723,-0l-0,-18.366l-18.162,-0l-0,18.366l-28.724,-0l0,-18.366l-18.162,-0l0,18.366l-28.723,-0l-0,-18.366l-18.082,-0l-0,18.366l-28.724,-0Zm46.806,-87.139l-0,50.487l-18.082,0l-0,-50.487l18.082,0Zm46.885,0l0,50.487l-18.162,0l0,-50.487l18.162,0Zm93.771,0l0,50.487l-18.162,0l0,-50.487l18.162,0Zm-46.885,0l-0,50.487l-18.162,0l-0,-50.487l18.162,0Z"/></g></svg>