<?xml version="1.0" encoding="UTF-8" standalone="no"?><!DOCTYPE svg PUBLIC "-//W3C//DTD SVG 1.1//EN" "http://www.w3.org/Graphics/SVG/1.1/DTD/svg11.dtd"><svg width="100%" height="100%" viewBox="0 0 514 454" version="1.1" xmlns="http://www.w3.org/2000/svg" xmlns:xlink="http://www.w3.org/1999/xlink" xml:space="preserve" xmlns:serif="http://www.serif.com/" style="fill-rule:evenodd;clip-rule:evenodd;stroke-linejoin:round;stroke-miterlimit:2;"><g transform="matrix(50,0,0,50,350.88,244.423)"></g><text x="163.258px" y="244.423px" style="font-family:'ArialMT', 'Arial', sans-serif;font-size:50px;">sw=38.4</text><g id="_7701Level-Crossing-without-Gate-or-Barrier" serif:id="7701Level Crossing without Gate or Barrier"><path d="M227.178,17.004c6.076,-10.522 17.302,-17.004 29.452,-17.004c12.149,0 23.376,6.482 29.452,17.004c54.065,93.625 168.545,291.872 222.619,385.514c6.077,10.524 6.079,23.491 0.003,34.016c-6.075,10.525 -17.303,17.009 -29.455,17.009l-445.238,0c-12.152,0 -23.38,-6.484 -29.455,-17.009c-6.076,-10.525 -6.074,-23.492 0.003,-34.016c54.074,-93.642 168.554,-291.889 222.619,-385.514Z" style="fill:#e31837;"/><path d="M256.665,56.708l202.961,351.496l-405.922,-0l202.961,-351.496Z" style="fill:#fff;"/><path d="M321.482,360.639c-8.942,-0 -16.202,7.269 -16.202,16.223c-0,8.954 7.26,16.224 16.202,16.224c8.943,-0 16.203,-7.27 16.203,-16.224c0,-8.954 -7.26,-16.223 -16.203,-16.223Zm29.473,-69.761l13.769,-0l0,50.126l9.818,0l-0,17.68l-74.753,-0l0.748,1.872l0.541,1.955l0.416,1.996l0.25,1.997l0.083,2.039l-0.083,2.038l-0.25,1.997l-0.416,1.996l-0.582,1.914l-0.749,1.913l-0.873,1.831l-1.04,1.705l-1.207,1.664l-1.289,1.539l-1.456,1.456l-1.539,1.29l-1.664,1.206l-1.748,0.999l-1.788,0.915l-1.914,0.749l-1.955,0.54l-1.955,0.416l-2.039,0.25l-1.996,0.125l-2.039,-0.125l-1.996,-0.25l-1.997,-0.416l-1.955,-0.54l-1.872,-0.749l-1.831,-0.915l-1.747,-0.999l-1.664,-1.206l-1.539,-1.29l-1.456,-1.456l-1.289,-1.539l-1.165,-1.664l-1.04,-1.705l-0.915,-1.831l-0.749,-1.913l-0.582,-1.914l-0.416,-1.996l-0.25,-1.997l-0.083,-2.038l0.083,-2.039l0.25,-1.997l0.416,-1.996l0.582,-1.955l0.707,-1.872l-8.028,-0l0.748,1.872l0.583,1.955l0.416,1.996l0.249,1.997l0.084,2.039l-0.125,2.038l-0.25,1.997l-0.416,1.996l-0.582,1.914l-0.707,1.913l-0.916,1.831l-1.04,1.705l-1.164,1.664l-1.331,1.539l-1.415,1.456l-1.581,1.29l-1.622,1.206l-1.747,0.999l-1.83,0.915l-1.872,0.749l-1.956,0.54l-1.996,0.416l-1.997,0.25l-2.038,0.125l-2.039,-0.125l-1.996,-0.25l-1.997,-0.416l-1.955,-0.54l-1.872,-0.749l-1.831,-0.915l-1.747,-0.999l-1.622,-1.206l-1.581,-1.29l-1.414,-1.456l-1.331,-1.539l-1.166,-1.664l-1.04,-1.705l-0.914,-1.831l-0.707,-1.913l-0.583,-1.914l-0.416,-1.996l-0.249,-1.997l-0.125,-2.038l0.083,-2.039l0.25,-1.997l0.416,-1.996l0.582,-1.955l0.749,-1.872l-8.029,-0l0.707,1.872l0.583,1.955l0.416,1.996l0.249,1.997l0.083,2.039l-0.083,2.038l-0.249,1.997l-0.416,1.996l-0.583,1.914l-0.748,1.913l-0.874,1.831l-1.04,1.705l-1.206,1.664l-1.29,1.539l-1.456,1.456l-1.539,1.29l-1.664,1.206l-1.747,0.999l-1.831,0.915l-1.871,0.749l-1.956,0.54l-1.955,0.416l-2.038,0.25l-2.038,0.125l-1.997,-0.125l-2.039,-0.25l-1.955,-0.416l-1.955,-0.54l-1.913,-0.749l-1.789,-0.915l-1.747,-0.999l-1.664,-1.206l-1.539,-1.29l-1.456,-1.456l-1.29,-1.539l-1.206,-1.664l-1.04,-1.705l-0.874,-1.831l-0.749,-1.913l-0.582,-1.914l-0.416,-1.996l-0.25,-1.997l-0.083,-2.038l0.083,-2.039l0.25,-1.997l0.416,-1.996l0.582,-1.955l0.708,-1.872l-9.901,-0l0,-34.403l27.497,0l-0,-29.452l-17.68,0l0,-19.676l46.175,0l0,15.725l41.266,-0l0,-2.954l0.083,-1.539l0.25,-1.539l0.416,-1.456l0.541,-1.456l0.707,-1.373l0.832,-1.289l0.998,-1.207l1.082,-1.081l1.206,-0.999l1.29,-0.832l14.726,0l1.289,0.832l1.207,0.999l1.081,1.081l0.957,1.207l0.874,1.289l0.665,1.373l0.582,1.456l0.375,1.456l0.249,1.539l0.084,1.539l-0,2.954l61.899,-0l-0,-3.911l-0.042,-0.79l-0.249,-0.749l-0.375,-0.666l-0.457,-0.582l-0.624,-0.499l-0.666,-0.374l-0.749,-0.208l-0.749,-0.084l0,-7.862l31.449,0l0,7.862l-0.79,0.083l-0.707,0.208l-0.708,0.375l-0.582,0.499l-0.499,0.582l-0.375,0.666l-0.208,0.749l-0.083,0.79l0,3.911Zm22.131,85.984l-0.083,-1.58l-0.251,-1.581l-0.374,-1.539l-0.54,-1.498l-0.666,-1.456l-0.832,-1.373l-0.956,-1.248l-1.04,-1.206l-1.207,-1.04l-1.248,-0.957l-1.372,-0.832l-1.456,-0.665l-1.498,-0.541l-1.539,-0.374l-1.581,-0.25l-1.581,-0.083l-1.58,0.083l-1.581,0.25l-1.539,0.374l-1.498,0.541l-1.456,0.665l-1.373,0.832l-1.248,0.957l-1.206,1.04l-1.04,1.206l-0.957,1.248l-0.832,1.373l-0.665,1.456l-0.541,1.498l-0.374,1.539l-0.25,1.581l-0.083,1.58l0.083,1.581l0.25,1.581l0.374,1.539l0.541,1.497l0.665,1.415l0.832,1.373l0.957,1.289l1.04,1.165l1.206,1.082l1.248,0.956l1.373,0.791l1.456,0.707l1.498,0.541l1.539,0.374l1.581,0.25l1.58,0.083l1.581,-0.083l1.581,-0.25l1.539,-0.374l1.498,-0.541l1.456,-0.707l1.372,-0.791l1.248,-0.956l1.207,-1.082l1.04,-1.165l0.956,-1.289l0.832,-1.373l0.666,-1.415l0.54,-1.497l0.374,-1.539l0.251,-1.581l0.083,-1.581Zm-51.666,-121.052l0.998,-0.416l1.04,-0.208l1.082,-0.083l1.082,0.124l1.04,0.25l0.956,0.416l0.915,0.582l0.791,0.707l0.707,0.791l0.541,0.915l0.416,0.998l0.249,1.04l0.084,1.082l-0,11.19l15.724,-0l-0,-9.817l-0.083,-3.162l-0.25,-3.12l-0.416,-3.12l-0.582,-3.078l-0.749,-3.037l-0.915,-3.036l-1.082,-2.954l-1.206,-2.87l-1.373,-2.829l-1.539,-2.746l-1.664,-2.662l-1.789,-2.579l-1.955,-2.454l-2.038,-2.371l-2.205,-2.247l-2.329,-2.121l-2.413,-1.997l-2.496,-1.872l-2.621,-1.747l-2.704,-1.581l-2.787,-1.456l-2.87,-1.289l-2.912,-1.165l-2.995,-0.957l-1.415,-2.038l-1.539,-1.955l-1.705,-1.789l-1.789,-1.706l-1.914,-1.58l-2.038,-1.415l-2.121,-1.289l-2.205,-1.124l-2.247,-0.998l-2.329,-0.79l-2.413,-0.666l-2.413,-0.458l-2.454,-0.332l-2.496,-0.125l-2.454,0.042l-2.496,0.208l-1.373,-1.831l-1.497,-1.705l-1.623,-1.581l-1.747,-1.498l-1.83,-1.372l-1.914,-1.248l-1.997,-1.123l-2.079,-0.957l-2.122,-0.832l-2.163,-0.666l-2.246,-0.541l-2.247,-0.374l-2.246,-0.208l-2.288,-0.083l-2.288,0.083l-2.288,0.25l-2.246,0.416l-2.205,0.54l-2.163,0.708l-2.122,0.873l-2.08,0.999l-1.955,1.123l-1.913,1.248l-1.789,1.414l-1.747,1.498l-1.581,1.622l-1.498,1.747l-1.372,1.83l-1.248,1.914l-1.082,1.997l-0.957,2.08l-0.832,2.121l-0.665,2.163l-0.541,2.247l-0.374,2.246l-0.208,2.246l-0.084,2.288l0.125,2.288l0.25,2.288l0.374,2.246l0.583,2.205l0.707,2.163l0.832,2.122l0.998,2.038l1.165,1.997l1.248,1.914l1.414,1.788l1.498,1.706l1.622,1.622l1.747,1.498l1.831,1.331l1.913,1.248l1.997,1.123l2.08,0.957l2.121,0.79l2.205,0.666l2.205,0.541l2.246,0.374l2.288,0.208l2.288,0.042l2.288,-0.084l2.246,-0.249l2.247,-0.416l2.246,-0.583l1.331,1.706l1.456,1.539l1.581,1.456l1.705,1.29l1.789,1.206l1.872,1.04l1.914,0.874l2.038,0.748l2.038,0.583l2.122,0.416l2.121,0.249l2.122,0.083l2.163,-0.083l2.122,-0.249l2.08,-0.416l2.08,-0.583l1.996,-0.748l1.955,-0.874l1.872,-1.04l1.04,1.539l1.124,1.498l1.289,1.373l1.373,1.248l1.497,1.123l1.581,0.998l1.664,0.874l1.747,0.707l1.789,0.541l1.83,0.416l1.831,0.249l1.872,0.042l1.872,-0.083l1.872,-0.208l1.83,-0.416l1.789,-0.583l1.705,-0.707l1.664,-0.832l1.581,-0.998l0.915,-0.541Z"/></g></svg>