<?xml version="1.0" encoding="UTF-8" standalone="no"?><!DOCTYPE svg PUBLIC "-//W3C//DTD SVG 1.1//EN" "http://www.w3.org/Graphics/SVG/1.1/DTD/svg11.dtd"><svg width="100%" height="100%" viewBox="0 0 612 726" version="1.1" xmlns="http://www.w3.org/2000/svg" xmlns:xlink="http://www.w3.org/1999/xlink" xml:space="preserve" xmlns:serif="http://www.serif.com/" style="fill-rule:evenodd;clip-rule:evenodd;stroke-linejoin:round;stroke-miterlimit:2;"><g transform="matrix(50,0,0,50,399.83,168.254)"></g><text x="212.208px" y="168.254px" style="font-family:'ArialMT', 'Arial', sans-serif;font-size:50px;">sw=61.4</text><g><path d="M611.575,35.433l-0,654.331c-0,19.556 -15.877,35.433 -35.433,35.433l-540.709,-0c-19.556,-0 -35.433,-15.877 -35.433,-35.433l0,-654.331c0,-19.556 15.877,-35.433 35.433,-35.433l540.709,0c19.556,0 35.433,15.877 35.433,35.433Z"/><path d="M593.858,35.433l0,654.331c0,9.778 -7.938,17.716 -17.716,17.716l-540.709,0c-9.778,0 -17.716,-7.938 -17.716,-17.716l-0,-654.331c-0,-9.778 7.938,-17.716 17.716,-17.716l540.709,-0c9.778,-0 17.716,7.938 17.716,17.716Z" style="fill:#fff;"/><rect id="Wig-Wag" serif:id="Wig Wag" x="50.669" y="47.244" width="510.236" height="302.362" style="fill:none;"/><path d="M560.906,62.598c-0,-8.474 -6.881,-15.354 -15.355,-15.354l-479.527,0c-8.475,0 -15.355,6.88 -15.355,15.354l0,271.654c0,8.474 6.88,15.354 15.355,15.354l479.527,0c8.474,0 15.355,-6.88 15.355,-15.354l-0,-271.654Z"/><circle cx="305.787" cy="261.024" r="53.15" style="fill:#fff;"/><circle cx="305.787" cy="261.024" r="49.016" style="fill:#ffd200;"/><circle cx="453.425" cy="144.094" r="56.693" style="fill:#fff;"/><circle cx="453.425" cy="144.094" r="50.787" style="fill:#e31837;"/><circle cx="158.15" cy="144.094" r="56.693" style="fill:#fff;"/><circle cx="158.15" cy="144.094" r="50.787" style="fill:#e31837;"/><clipPath id="_clip1"><rect id="P563---P773.afdesign" serif:id="P563 &amp; P773.afdesign" x="47.244" y="387.402" width="517.087" height="302.362"/></clipPath><g clip-path="url(#_clip1)"><rect id="STOP-when-lights-show" serif:id="STOP when lights show" x="47.244" y="387.402" width="517.087" height="302.362" style="fill:none;"/><rect x="230.953" y="387.402" width="66.898" height="113.386" style="fill:#fff;"/><path d="M295.7,393.071l-62.492,-0l-0,15.67l22.847,0l0,63.7l16.797,-0l0,-63.7l22.848,0l-0,-15.67Z" style="fill-rule:nonzero;"/><rect x="148.181" y="387.402" width="82.772" height="113.386" style="fill:#fff;"/><path d="M222.368,450.002c0,-12.249 -6.63,-20.284 -23.81,-24.301l-9.945,-2.352c-8.54,-1.96 -11.956,-4.409 -11.956,-8.329c0,-3.919 4.521,-7.055 12.96,-7.055c7.434,0 14.065,3.332 17.883,8.525l13.361,-9.995c-7.032,-8.525 -17.782,-13.424 -31.244,-13.424c-20.595,-0 -30.641,10.191 -30.641,22.537c-0,14.992 12.357,20.284 23.508,22.733l11.353,2.548c6.228,1.372 10.85,3.821 10.85,9.113c-0,4.801 -4.421,7.839 -13.663,7.447c-8.037,-0.294 -16.476,-4.312 -21.399,-11.073l-12.859,10.093c7.936,9.897 21.398,15.972 34.157,15.972c21.6,-0 31.445,-9.799 31.445,-22.439Z" style="fill-rule:nonzero;"/><rect x="387.425" y="387.402" width="75.969" height="113.386" style="fill:#fff;"/><path d="M442.719,419.121c0,6.614 -4.173,10.379 -10.85,10.379l-14.397,-0l-0,-20.962l14.293,-0c6.677,-0 10.954,4.07 10.954,10.583Zm17.84,-0c0,-14.348 -8.45,-26.05 -26.916,-26.05l-33.072,-0l-0,79.37l16.901,-0l-0,-27.474l16.171,-0c18.779,-0 26.916,-12.008 26.916,-25.846Z" style="fill-rule:nonzero;"/><rect x="297.85" y="387.402" width="89.575" height="113.386" style="fill:#fff;"/><path d="M362.856,433.001c0,14.288 -5.017,24.564 -20.168,24.564c-15.051,0 -20.269,-10.276 -20.269,-24.564c0,-13.604 5.619,-24.956 20.269,-24.956c14.75,-0 20.168,11.254 20.168,24.956Zm17.459,-0c0,-22.803 -12.542,-39.93 -37.727,-39.93c-25.386,-0 -37.628,16.931 -37.628,39.832c0,22.509 12.844,39.538 37.628,39.538c24.884,-0 37.727,-16.931 37.727,-39.44Z" style="fill-rule:nonzero;"/><rect id="path1698" x="214.488" y="595.276" width="39.685" height="94.488" style="fill:#fff;"/><path d="M248.892,653.101c-2.057,0.822 -4.443,1.316 -6.335,1.316c-3.126,0 -4.442,-1.152 -4.442,-5.594l-0,-20.237l11.928,0.082l0,-10.942l-11.928,0l-0,-17.933l-12.916,5.84l0,12.093l-7.486,0l0,10.942l7.486,-0.082l0,24.268c0,9.214 5.43,13.08 14.15,13.08c4.771,0 8.885,-0.905 11.599,-2.139l-2.056,-10.694Z" style="fill-rule:nonzero;"/><rect id="path16981" serif:id="path1698" x="77.008" y="595.276" width="25.984" height="94.488" style="fill:#fff;"/><path d="M95.793,618.886l-13.146,-0l0,47.256l13.146,-0l-0,-47.256Zm0.832,-11.481c-0,-4.077 -3.328,-7.405 -7.405,-7.405c-4.16,-0 -7.488,3.328 -7.488,7.405c0,4.159 3.328,7.487 7.488,7.487c4.077,0 7.405,-3.328 7.405,-7.487Z" style="fill-rule:nonzero;"/><rect id="path16982" serif:id="path1698" x="158.268" y="595.276" width="56.22" height="94.488" style="fill:#fff;"/><path d="M207.28,633.664c0,-9.921 -6.19,-16.959 -17.383,-16.959c-3.816,0 -8.14,1.442 -11.108,3.901l-0,-20.606l-13.398,-0l-0,66.142l13.398,-0l-0,-29.594c-0,-5.258 3.476,-8.226 8.31,-8.226c4.324,0 6.699,2.459 6.699,6.869l-0,30.951l13.482,-0l0,-32.478Z" style="fill-rule:nonzero;"/><rect id="path16983" serif:id="path1698" x="102.992" y="595.276" width="55.276" height="94.488" style="fill:#fff;"/><path d="M137.641,641.058c-0,5.742 -2.507,10.514 -8.573,10.514c-6.147,-0 -8.654,-4.772 -8.654,-10.514c0,-5.662 2.831,-10.433 8.654,-10.433c5.985,-0 8.573,4.771 8.573,10.433Zm12.212,-20.866l-12.455,-0l0,2.749c-2.022,-2.426 -5.904,-4.043 -10.19,-4.043c-11.242,-0 -19.491,10.028 -19.491,21.917c-0,12.94 6.874,22.484 19.895,22.484c3.478,-0 7.36,-1.375 9.786,-3.478l0,3.963c0,5.014 -4.448,6.308 -8.734,6.308c-4.61,0 -8.735,-1.051 -14.073,-3.639l-4.367,10.029c5.014,2.992 12.131,5.014 18.359,5.014c11.161,0 21.27,-3.801 21.27,-16.984l0,-44.32Z" style="fill-rule:nonzero;"/><rect id="path16984" serif:id="path1698" x="254.173" y="595.276" width="47.244" height="94.488" style="fill:#fff;"/><path d="M297.297,651.838c0,-8.711 -6.592,-11.929 -13.027,-13.498l-8.162,-1.962c-3.767,-0.942 -4.002,-2.355 -4.002,-3.061c-0,-1.883 2.04,-3.845 6.435,-3.845c4.081,-0 7.455,1.255 10.83,3.845l7.063,-8.162c-4.473,-3.845 -10.359,-6.2 -18.521,-6.2c-10.987,0 -18.756,6.279 -18.756,14.833c-0,7.769 6.278,11.615 12.085,12.949l7.77,1.883c3.767,0.864 5.258,2.355 5.258,3.453c-0,1.962 -1.57,3.532 -6.2,3.532c-3.375,-0 -8.319,-0.863 -12.714,-4.552l-7.063,8.162c5.494,4.552 11.929,6.985 19.855,6.985c12.557,-0 19.149,-6.043 19.149,-14.362Z" style="fill-rule:nonzero;"/><rect id="path16985" serif:id="path1698" x="47.244" y="595.276" width="29.764" height="94.488" style="fill:#fff;"/><path d="M74.499,653.362c-1.826,0.663 -3.32,0.912 -4.979,0.912c-2.739,0 -4.067,-1.493 -4.067,-4.315l0,-49.959l-13.029,-0l0,52.117c0,8.465 4.066,14.025 14.108,14.025c3.071,-0 6.473,-0.498 9.295,-1.411l-1.328,-11.369Z" style="fill-rule:nonzero;"/><rect id="path16986" serif:id="path1698" x="378.189" y="595.276" width="56.22" height="94.488" style="fill:#fff;"/><path d="M427.202,633.664c-0,-9.921 -6.19,-16.959 -17.384,-16.959c-3.816,0 -8.14,1.442 -11.108,3.901l-0,-20.606l-13.398,-0l-0,66.142l13.398,-0l-0,-29.594c-0,-5.258 3.477,-8.226 8.31,-8.226c4.325,0 6.699,2.459 6.699,6.869l-0,30.951l13.483,-0l-0,-32.478Z" style="fill-rule:nonzero;"/><rect id="path16987" serif:id="path1698" x="488.74" y="595.276" width="75.591" height="94.488" style="fill:#fff;"/><path d="M544.37,618.898l-6.908,26.117l-5.993,-26.117l-13.899,-0l-5.993,26.117l-6.908,-26.117l-13.567,-0l13.733,47.244l13.151,-0l6.492,-26.7l6.575,26.7l13.151,-0l13.733,-47.244l-13.567,-0Z" style="fill-rule:nonzero;"/><rect id="path16988" serif:id="path1698" x="330.945" y="595.276" width="47.244" height="94.488" style="fill:#fff;"/><path d="M374.069,651.838c-0,-8.711 -6.592,-11.929 -13.028,-13.498l-8.161,-1.962c-3.767,-0.942 -4.003,-2.355 -4.003,-3.061c0,-1.883 2.041,-3.845 6.435,-3.845c4.081,-0 7.456,1.255 10.831,3.845l7.063,-8.162c-4.474,-3.845 -10.36,-6.2 -18.521,-6.2c-10.987,0 -18.757,6.279 -18.757,14.833c0,7.769 6.279,11.615 12.086,12.949l7.769,1.883c3.767,0.864 5.258,2.355 5.258,3.453c0,1.962 -1.569,3.532 -6.199,3.532c-3.375,-0 -8.319,-0.863 -12.714,-4.552l-7.063,8.162c5.494,4.552 11.929,6.985 19.855,6.985c12.557,-0 19.149,-6.043 19.149,-14.362Z" style="fill-rule:nonzero;"/><rect id="path16989" serif:id="path1698" x="434.409" y="595.276" width="54.331" height="94.488" style="fill:#fff;"/><path d="M471.699,643.069c-0,7.22 -4.003,12.164 -10.046,12.164c-6.121,0 -10.123,-5.022 -10.123,-12.164c-0,-7.298 4.002,-13.263 10.123,-13.263c5.965,0 10.046,5.965 10.046,13.263Zm12.321,0c-0,-13.498 -7.848,-24.171 -22.367,-24.171c-14.597,-0 -22.523,10.516 -22.523,24.171c-0,13.263 8.868,23.073 22.523,23.073c13.656,-0 22.367,-9.889 22.367,-23.073Z" style="fill-rule:nonzero;"/><rect id="path169810" serif:id="path1698" x="261.378" y="500.787" width="56.22" height="94.488" style="fill:#fff;"/><path d="M310.391,539.176c-0,-9.921 -6.191,-16.959 -17.384,-16.959c-3.816,-0 -8.14,1.441 -11.108,3.901l-0,-20.606l-13.398,-0l-0,66.142l13.398,-0l-0,-29.595c-0,-5.257 3.477,-8.225 8.31,-8.225c4.325,0 6.699,2.459 6.699,6.869l-0,30.951l13.483,-0l-0,-32.478Z" style="fill-rule:nonzero;"/><rect id="path169811" serif:id="path1698" x="185.787" y="500.787" width="75.591" height="94.488" style="fill:#fff;"/><path d="M241.417,524.409l-6.908,26.118l-5.992,-26.118l-13.9,0l-5.993,26.118l-6.908,-26.118l-13.566,0l13.733,47.245l13.15,-0l6.492,-26.7l6.575,26.7l13.151,-0l13.733,-47.245l-13.567,0Z" style="fill-rule:nonzero;"/><rect id="path169812" serif:id="path1698" x="369.567" y="500.787" width="56.22" height="94.488" style="fill:#fff;"/><path d="M418.45,539.284c0,-9.26 -5.923,-16.351 -17.269,-16.351c-3.754,0 -8.259,1.669 -11.096,4.338l0,-3.003l-13.264,-0l-0,47.386l13.264,-0l0,-28.949c0,-5.756 4.172,-7.759 8.343,-7.759c4.338,0 6.757,2.169 6.757,7.092l0,29.616l13.265,-0l0,-32.37Z" style="fill-rule:nonzero;"/><rect id="path169813" serif:id="path1698" x="317.598" y="500.787" width="51.969" height="94.488" style="fill:#fff;"/><path d="M365.242,550l-0.158,1.969l-30.472,-0c0.052,1.259 0.367,2.427 0.945,3.503c0.577,1.077 1.338,2.021 2.283,2.835c0.945,0.814 2.034,1.444 3.268,1.89c1.233,0.446 2.532,0.669 3.897,0.669c3.937,0 7.323,-1.312 10.158,-3.937l6.614,8.11c-2.257,2.153 -4.738,3.793 -7.441,4.922c-2.703,1.128 -5.787,1.693 -9.252,1.693c-3.727,-0 -7.034,-0.617 -9.921,-1.851c-2.887,-1.233 -5.315,-2.939 -7.284,-5.118c-1.968,-2.178 -3.464,-4.711 -4.488,-7.598c-1.023,-2.888 -1.535,-5.985 -1.535,-9.292c-0,-3.202 0.485,-6.233 1.456,-9.094c0.972,-2.861 2.376,-5.341 4.213,-7.441c1.837,-2.1 4.121,-3.767 6.85,-5c2.73,-1.234 5.827,-1.851 9.292,-1.851c3.832,0 7.165,0.683 10,2.048c2.834,1.365 5.144,3.202 6.929,5.512c1.785,2.309 3.058,5.026 3.819,8.149c0.761,3.123 1.037,6.417 0.827,9.882Zm-12.363,-6.85c0,-2.415 -0.879,-4.397 -2.637,-5.945c-1.759,-1.549 -3.924,-2.323 -6.497,-2.323c-2.467,-0 -4.514,0.827 -6.141,2.48c-1.628,1.654 -2.572,3.583 -2.835,5.788l18.11,-0Z" style="fill-rule:nonzero;"/></g></g></svg>