<?xml version="1.0" encoding="UTF-8" standalone="no"?><!DOCTYPE svg PUBLIC "-//W3C//DTD SVG 1.1//EN" "http://www.w3.org/Graphics/SVG/1.1/DTD/svg11.dtd"><svg width="100%" height="100%" viewBox="0 0 928 461" version="1.1" xmlns="http://www.w3.org/2000/svg" xmlns:xlink="http://www.w3.org/1999/xlink" xml:space="preserve" xmlns:serif="http://www.serif.com/" style="fill-rule:evenodd;clip-rule:evenodd;stroke-linejoin:round;stroke-miterlimit:2;"><g transform="matrix(50,0,0,50,424.513,266.252)"></g><text x="278.59px" y="266.252px" style="font-family:'ArialMT', 'Arial', sans-serif;font-size:50px;">sw=39</text><g><path d="M927.15,35.433c0,-19.556 -15.877,-35.433 -35.433,-35.433l-856.284,0c-19.556,0 -35.433,15.877 -35.433,35.433l0,389.764c0,19.556 15.877,35.433 35.433,35.433l856.284,-0c19.556,-0 35.433,-15.877 35.433,-35.433l0,-389.764Z"/><path d="M909.434,35.433c-0,-9.778 -7.939,-17.716 -17.717,-17.716l-856.284,-0c-9.778,-0 -17.716,7.938 -17.716,17.716l-0,389.764c-0,9.778 7.938,17.716 17.716,17.716l856.284,0c9.778,0 17.717,-7.938 17.717,-17.716l-0,-389.764Z" style="fill:#fff;"/><g><g><g id="I"><rect id="path1654" x="764.259" y="47.244" width="35.409" height="94.488" style="fill:#fff;"/><rect id="path1656" x="775.258" y="51.994" width="13.5" height="66.159" style="fill:#010001;fill-rule:nonzero;"/></g><g id="T"><rect id="path1570" x="568.782" y="47.244" width="56.659" height="94.488" style="fill:#fff;"/><path id="path1572" d="M571.532,51.994l0,12.91l18.75,-0l-0,53.249l13.58,-0l-0,-53.249l18.749,-0l0,-12.91l-51.079,0Z" style="fill:#010001;fill-rule:nonzero;"/></g><g id="A"><rect id="path1634" x="696.27" y="47.244" width="67.989" height="94.488" style="fill:#fff;"/><path id="path1636" d="M721.599,51.994l-22.079,66.069l14.83,-0l3.589,-11.66l24.91,-0l3.58,11.66l14.83,-0l-22.08,-66.069l-17.58,0Zm8.75,13.83l8.92,28.909l-17.75,0l8.83,-28.909Z" style="fill:#010001;fill-rule:nonzero;"/></g><g id="R"><rect id="path1614" x="625.441" y="47.244" width="70.829" height="94.488" style="fill:#fff;"/><path id="path1616" d="M636.611,51.994l0,66.159l13.49,-0l-0,-25.83l8.84,0l15.079,25.83l15.75,-0l-15.83,-27l2.41,-1.079l2.34,-1.42l2.08,-1.67l1.83,-1.99l1.58,-2.17l1.25,-2.33l1.001,-2.5l0.59,-2.59l0.25,-2.66l-0.094,-2.75l-0.5,-2.59l-0.75,-2.58l-1.159,-2.42l-1.5,-2.25l-1.67,-2.08l-2,-1.75l-2.25,-1.5l-2.42,-1.25l-2.49,-0.83l-2.67,-0.59l-2.67,-0.161l-30.487,0.001Zm13.49,12.25l15.75,-0l1.589,0.159l1.41,0.5l1.42,0.67l1.17,1l1,1.17l0.66,1.41l0.5,1.42l0.17,1.58l-0.17,1.5l-0.5,1.5l-0.66,1.34l-1,1.25l-1.17,0.911l-1.42,0.75l-1.41,0.499l-1.589,0.095l-15.75,-0l-0,-15.754Z" style="fill:#010001;fill-rule:nonzero;"/></g><g id="_-N" serif:id=" N"><rect id="path1590" x="799.668" y="47.244" width="80.238" height="94.488" style="fill:#fff;"/><path id="path1592" d="M826.077,51.994l-15.409,0l-0,66.159l13.499,-0l0,-44.749l29.58,44.749l15.49,-0l-0,-66.159l-13.58,0l-0,44.739l-29.58,-44.739Z" style="fill:#010001;fill-rule:nonzero;"/></g></g><g><g id="H"><rect id="path1630" x="327.699" y="47.244" width="76.069" height="94.488" style="fill:#fff;"/><path id="path1632" d="M379.438,77.154l-0,-25.24l13.58,0l-0,66.159l-13.58,-0l-0,-28l-26.75,0l0,28l-13.58,-0l0,-66.159l13.58,0l0,25.24l26.75,-0Z" style="fill:#010001;fill-rule:nonzero;"/></g><g id="E"><rect id="path1642" x="403.267" y="47.244" width="65.159" height="94.488" style="fill:#fff;"/><path id="path1644" d="M460.176,105.153l-32.409,-0l-0,-14.5l27.079,0l0,-12.25l-27.079,0l-0,-13.579l29.909,-0l0,-12.83l-43.499,0l0,66.069l45.999,-0l0,-12.91Z" style="fill:#010001;fill-rule:nonzero;"/></g><g id="A1" serif:id="A"><rect id="path16341" serif:id="path1634" x="47.244" y="47.244" width="67.989" height="94.488" style="fill:#fff;"/><path id="path16361" serif:id="path1636" d="M72.574,51.994l-22.08,66.069l14.83,-0l3.59,-11.66l24.909,-0l3.58,11.66l14.83,-0l-22.08,-66.069l-17.579,0Zm8.75,13.83l8.919,28.909l-17.749,0l8.83,-28.909Z" style="fill:#010001;fill-rule:nonzero;"/></g><g id="T1" serif:id="T"><rect id="path15701" serif:id="path1570" x="271.04" y="47.244" width="56.659" height="94.488" style="fill:#fff;"/><path id="path15721" serif:id="path1572" d="M273.79,51.994l-0,12.91l18.749,-0l0,53.249l13.58,-0l0,-53.249l18.75,-0l-0,-12.91l-51.079,0Z" style="fill:#010001;fill-rule:nonzero;"/></g><g id="R1" serif:id="R"><rect id="path16141" serif:id="path1614" x="468.426" y="47.244" width="70.829" height="94.488" style="fill:#fff;"/><path id="path16161" serif:id="path1616" d="M479.596,51.994l-0,66.159l13.49,-0l-0,-25.83l8.839,0l15.08,25.83l15.75,-0l-15.83,-27l2.41,-1.079l2.34,-1.42l2.08,-1.67l1.83,-1.99l1.58,-2.17l1.25,-2.33l1,-2.5l0.591,-2.59l0.25,-2.66l-0.094,-2.75l-0.5,-2.59l-0.75,-2.58l-1.16,-2.42l-1.5,-2.25l-1.67,-2.08l-2,-1.75l-2.25,-1.5l-2.42,-1.25l-2.489,-0.83l-2.67,-0.59l-2.67,-0.161l-30.487,0.001Zm13.49,12.25l15.749,-0l1.59,0.159l1.41,0.5l1.42,0.67l1.17,1l1,1.17l0.66,1.41l0.5,1.42l0.17,1.58l-0.17,1.5l-0.5,1.5l-0.66,1.34l-1,1.25l-1.17,0.911l-1.42,0.75l-1.41,0.499l-1.59,0.095l-15.749,-0l-0,-15.754Z" style="fill:#010001;fill-rule:nonzero;"/></g><g id="O"><rect id="path1594" x="195.471" y="47.244" width="75.569" height="94.488" style="fill:#fff;"/><path id="path1596" d="M231.461,50.414l-3.33,0.33l-3.25,0.58l-3.16,1.079l-3.09,1.34l-2.83,1.67l-2.67,1.99l-2.5,2.59l-2.16,2.75l-1.92,3l-1.67,3.16l-1.25,3.34l-0.909,3.41l-0.67,3.5l-0.25,3.499l-0,4.75l0.25,3.58l0.67,3.5l0.909,3.42l1.25,3.33l1.67,3.17l1.92,2.92l2.16,2.83l2.5,2.5l2.67,2l2.83,1.75l3.09,1.33l3.16,1l3.25,0.67l3.33,0.329l3.839,0l3.25,-0.329l3.33,-0.67l3.17,-1l3,-1.33l2.91,-1.75l2.67,-2l2.5,-2.5l2.16,-2.83l1.92,-2.92l1.58,-3.17l1.34,-3.33l0.909,-3.42l0.591,-3.5l0.25,-3.58l0,-4.75l-0.25,-3.499l-0.591,-3.5l-0.909,-3.41l-1.34,-3.34l-1.58,-3.16l-1.92,-3l-2.16,-2.75l-2.5,-2.59l-2.67,-1.99l-2.91,-1.67l-3,-1.34l-3.17,-1.079l-3.33,-0.58l-3.25,-0.33l-3.839,0Zm1.919,12.91l2.08,0.082l2.09,0.421l2,0.58l1.91,0.84l1.75,1.159l1.59,1.34l1.41,1.58l1.171,1.67l0.92,1.83l0.66,2l0.83,3.33l0.511,3.42l0.082,3.5l-0.082,3.41l-0.511,3.42l-0.83,3.42l-0.66,1.91l-0.92,1.92l-1.171,1.67l-1.41,1.58l-1.59,1.33l-1.75,1.09l-1.91,0.83l-2,0.66l-2.09,0.341l-2.08,0.16l-2.079,-0.16l-2.09,-0.341l-2,-0.66l-1.91,-0.83l-1.75,-1.09l-1.58,-1.33l-1.42,-1.58l-1.171,-1.67l-0.909,-1.92l-0.75,-1.91l-0.75,-3.42l-0.5,-3.42l-0.094,-3.41l0.094,-3.5l0.5,-3.42l0.75,-3.33l0.75,-2l0.909,-1.83l1.171,-1.67l1.42,-1.58l1.58,-1.34l1.75,-1.159l1.91,-0.84l2,-0.58l2.09,-0.421l2.079,-0.082Z" style="fill:#010001;fill-rule:nonzero;"/></g><g id="_-N1" serif:id=" N"><rect id="path15901" serif:id="path1590" x="115.233" y="47.244" width="80.238" height="94.488" style="fill:#fff;"/><path id="path15921" serif:id="path1592" d="M141.642,51.994l-15.409,0l-0,66.159l13.499,-0l0,-44.749l29.58,44.749l15.489,-0l0,-66.159l-13.579,0l-0,44.739l-29.58,-44.739Z" style="fill:#010001;fill-rule:nonzero;"/></g></g></g><g><g id="M"><rect id="path1574" x="397.996" y="141.732" width="88.738" height="94.488" style="fill:#fff;"/><path id="path1576" d="M422.496,212.641l-0,-47.909l20,28.989l19.989,-28.989l0,47.909l13.5,-0l0,-66.159l-17.33,0l-16.159,23.41l-16.17,-23.41l-17.41,0l0,66.159l13.58,-0Z" style="fill:#010001;fill-rule:nonzero;"/></g><g id="I1" serif:id="I"><rect id="path16541" serif:id="path1654" x="486.735" y="141.732" width="35.409" height="94.488" style="fill:#fff;"/><rect id="path16561" serif:id="path1656" x="497.735" y="146.482" width="13.5" height="66.159" style="fill:#010001;fill-rule:nonzero;"/></g><g id="G"><rect id="path1626" x="602.383" y="141.732" width="74.579" height="94.488" style="fill:#fff;"/><path id="path1628" d="M653.632,164.982l-1.59,-2l-1.83,-1.84l-2.08,-1.49l-1.92,-0.75l-1.91,-0.591l-2,-0.329l-2,-0.17l-2.09,0.17l-2.08,0.329l-2,0.67l-1.92,0.83l-1.75,1.08l-1.58,1.34l-1.42,1.58l-1.16,1.67l-0.92,1.91l-0.75,1.92l-0.75,3.33l-0.499,3.5l-0.083,3.42l0.083,3.5l0.499,3.409l0.75,3.34l0.75,2l0.92,1.83l1.16,1.67l1.42,1.58l1.58,1.33l1.75,1.09l1.92,0.91l2,0.59l2.08,0.33l2.09,0.17l2.25,-0.17l2.25,-0.421l2.16,-0.75l2.08,-1.159l1.84,-1.42l1.58,-1.67l1.33,-1.91l0.92,-2.5l0.58,-2.5l0.094,-2.67l-16.67,-0l0,-11.58l29,0l-0,38.079l-12.33,0l-0,-4.75l-1.92,1.83l-2.25,1.59l-2.33,1.25l-2.59,0.91l-2.58,0.58l-2.66,0.17l-2.67,-0l-3.33,-0.33l-3.25,-0.669l-3.17,-1.001l-3.08,-1.33l-2.839,-1.67l-2.66,-2l-2.5,-2.58l-2.17,-2.75l-2,-3l-1.58,-3.169l-1.25,-3.33l-1.001,-3.42l-0.579,-3.49l-0.251,-3.5l0,-4.75l0.251,-3.59l0.579,-3.5l1.001,-3.41l1.25,-3.34l1.58,-3.16l2,-3l2.17,-2.75l2.5,-2.5l2.66,-1.999l2.839,-1.751l3.08,-1.329l3.17,-1.001l3.25,-0.67l3.33,-0.329l3.75,-0l3.33,0.329l3.33,0.67l3.17,1.001l3,1.329l2.92,1.751l2.66,1.999l2.5,2.5l2.17,2.83l2.25,4l-12.67,6l-1.164,-2.328Z" style="fill:#010001;fill-rule:nonzero;"/></g><g id="C"><rect id="path1622" x="250.189" y="141.732" width="72.239" height="94.488" style="fill:#fff;"/><path id="path1624" d="M290.349,201.061l2.249,-0.42l2.17,-0.75l1.91,-1.08l1.83,-1.34l1.5,-1.58l1.34,-1.75l1.08,-1.92l0.75,-2.08l0.499,-2.17l13.5,5.42l-1.17,3l-1.41,2.83l-1.67,2.75l-2.17,2.67l-2.41,2.5l-2.67,2l-2.92,1.67l-3,1.41l-3.16,1l-3.33,0.67l-3.34,0.25l-3.75,0l-3.33,-0.25l-3.25,-0.67l-3.169,-1l-3.08,-1.41l-2.83,-1.67l-2.67,-2l-2.5,-2.58l-2.25,-2.75l-1.91,-3l-1.59,-3.17l-1.25,-3.33l-1.001,-3.42l-0.58,-3.5l-0.25,-3.499l0,-4.75l0.25,-3.58l0.58,-3.5l1.001,-3.42l1.25,-3.25l1.59,-3.16l1.91,-3l2.25,-2.83l2.5,-2.5l2.67,-2l2.83,-1.75l3.08,-1.34l3.169,-1l3.25,-0.66l3.33,-0.251l3.75,0l3.34,0.251l3.33,0.66l3.16,1l3,1.34l2.92,1.75l2.67,2l2.5,2.5l2.16,2.83l2.34,4.08l1.83,4.33l-13.5,5.34l-0.58,-2.25l-0.84,-2.25l-1.16,-2l-1.5,-1.92l-1.75,-1.58l-1.919,-1.34l-1.91,-0.83l-1.92,-0.58l-2,-0.33l-2,-0.17l-2.08,0.17l-2.09,0.33l-2,0.669l-1.91,0.831l-1.75,1.079l-1.59,1.42l-1.41,1.5l-1.171,1.75l-1,1.83l-0.67,1.92l-0.83,3.41l-0.42,3.42l-0.083,3.42l0.083,3.5l0.42,3.41l0.83,3.33l0.67,2l1,1.84l1.171,1.75l1.41,1.5l1.59,1.33l1.75,1.17l1.91,0.83l2,0.58l2.09,0.421l2.08,0.082l2.251,-0.163Z" style="fill:#010001;fill-rule:nonzero;"/></g><g id="O1" serif:id="O"><rect id="path15941" serif:id="path1594" x="322.428" y="141.732" width="75.569" height="94.488" style="fill:#fff;"/><path id="path15961" serif:id="path1596" d="M358.417,144.902l-3.33,0.33l-3.25,0.58l-3.16,1.079l-3.089,1.34l-2.83,1.67l-2.67,1.99l-2.5,2.59l-2.16,2.75l-1.92,3l-1.67,3.16l-1.25,3.34l-0.91,3.41l-0.669,3.5l-0.251,3.5l0,4.75l0.251,3.58l0.669,3.499l0.91,3.42l1.25,3.33l1.67,3.17l1.92,2.92l2.16,2.83l2.5,2.5l2.67,2l2.83,1.75l3.089,1.33l3.16,1l3.25,0.67l3.33,0.33l3.84,-0l3.25,-0.33l3.33,-0.67l3.17,-1l3,-1.33l2.91,-1.75l2.67,-2l2.5,-2.5l2.16,-2.83l1.92,-2.92l1.58,-3.17l1.34,-3.33l0.909,-3.42l0.591,-3.499l0.25,-3.58l0,-4.75l-0.25,-3.5l-0.591,-3.5l-0.909,-3.41l-1.34,-3.34l-1.58,-3.16l-1.92,-3l-2.16,-2.75l-2.5,-2.59l-2.67,-1.99l-2.91,-1.67l-3,-1.34l-3.17,-1.079l-3.33,-0.58l-3.25,-0.33l-3.84,0Zm1.92,12.91l2.08,0.083l2.09,0.42l2,0.58l1.91,0.84l1.75,1.16l1.59,1.34l1.41,1.58l1.17,1.669l0.921,1.83l0.66,2l0.83,3.33l0.51,3.42l0.083,3.5l-0.083,3.41l-0.51,3.42l-0.83,3.42l-0.66,1.91l-0.921,1.92l-1.17,1.67l-1.41,1.58l-1.59,1.33l-1.75,1.09l-1.91,0.83l-2,0.661l-2.09,0.34l-2.08,0.16l-2.08,-0.16l-2.09,-0.34l-2,-0.661l-1.91,-0.83l-1.75,-1.09l-1.58,-1.33l-1.42,-1.58l-1.17,-1.67l-0.909,-1.92l-0.75,-1.91l-0.75,-3.42l-0.5,-3.42l-0.095,-3.41l0.095,-3.5l0.5,-3.42l0.75,-3.33l0.75,-2l0.909,-1.83l1.17,-1.669l1.42,-1.58l1.58,-1.34l1.75,-1.16l1.91,-0.84l2,-0.58l2.09,-0.42l2.08,-0.083Z" style="fill:#010001;fill-rule:nonzero;"/></g><g id="_-N2" serif:id=" N"><rect id="path15902" serif:id="path1590" x="522.144" y="141.732" width="80.238" height="94.488" style="fill:#fff;"/><path id="path15922" serif:id="path1592" d="M548.554,146.482l-15.41,0l0,66.159l13.5,-0l-0,-44.749l29.579,44.749l15.49,-0l-0,-66.159l-13.58,0l0,44.739l-29.579,-44.739Z" style="fill:#010001;fill-rule:nonzero;"/></g></g><g><g><g><g><rect id="path1754" x="119.617" y="330.709" width="55.239" height="94.488" style="fill:#fff;"/><path id="path1756" d="M145.947,352.458l-2.59,0.161l-2.5,0.42l-2.5,0.75l-2.41,0.92l-2.25,1.24l-2.34,1.75l-2.08,2.09l-1.83,2.25l-1.5,2.58l-1.17,2.67l-0.161,0.5l-0.84,3.33l-0.499,3.42l-0.17,3.41l0.17,3.42l0.499,3.409l0.84,3.25l0.161,0.591l1.17,2.66l1.5,2.5l1.83,2.34l2.08,2.08l2.34,1.75l2.25,1.16l2.41,1.009l2.5,0.74l2.5,0.42l2.59,0.17l2.58,-0.17l2.58,-0.42l2.5,-0.74l2.42,-1.009l2.25,-1.16l2.33,-1.75l2.079,-2.08l1.84,-2.34l1.5,-2.5l1.16,-2.66l0.17,-0.591l0.831,-3.25l0.499,-3.409l0.095,-3.42l-0.095,-3.41l-0.499,-3.42l-0.831,-3.33l-0.17,-0.5l-1.16,-2.67l-1.5,-2.58l-1.84,-2.25l-2.079,-2.09l-2.33,-1.75l-2.25,-1.24l-2.42,-0.92l-2.5,-0.75l-2.58,-0.42l-2.58,-0.161Zm-0,11.33l1.91,0.25l2,0.831l1.75,1.33l1.5,1.59l1.25,1.83l0.669,1.5l0.421,1.58l0.329,2.67l0.083,2.579l-0.083,2.58l-0.329,2.67l-0.421,1.58l-0.669,1.5l-1.25,1.84l-1.5,1.58l-1.75,1.33l-2,0.75l-1.91,0.34l-1.84,-0.34l-2,-0.75l-1.83,-1.33l-1.5,-1.58l-1.171,-1.84l-0.66,-1.5l-0.42,-1.58l-0.33,-2.67l-0.17,-2.58l0.17,-2.579l0.33,-2.67l0.42,-1.58l0.66,-1.5l1.171,-1.83l1.5,-1.59l1.83,-1.33l2,-0.831l1.84,-0.25Z" style="fill:#010001;fill-rule:nonzero;"/></g><g><rect id="path1750" x="174.856" y="330.709" width="57.159" height="94.488" style="fill:#fff;"/><path id="path1752" d="M211.435,371.788l-0.34,-1.67l-0.75,-1.58l-1,-1.34l-1.25,-1.08l-1.75,-0.75l-1.91,-0.329l-1.92,0.083l-1.83,0.329l-1.84,0.75l-1.5,1.001l-1.33,1.249l-1,1.5l-0.67,1.59l-0.16,1.66l-0,28.33l-12.92,-0l-0,-47.159l12.92,-0l-0,3.33l1.909,-1.5l2.09,-1.25l2.16,-0.91l2.34,-0.59l2.33,-0.33l2.42,0.083l2.75,0.499l2.41,0.84l2.33,1.16l2.09,1.42l1.91,1.67l1.67,1.91l1.42,2.17l1.08,2.5l0.75,2.58l0.42,2.67l0.161,2.75l-0,28.159l-12.91,0l12.91,0l-12.91,0l-0,-28.079l-0.08,-1.666Z" style="fill:#010001;fill-rule:nonzero;"/></g><g><rect id="path17501" serif:id="path1750" x="299.518" y="330.709" width="57.159" height="94.488" style="fill:#fff;"/><path id="path17521" serif:id="path1752" d="M336.098,371.788l-0.341,-1.67l-0.75,-1.58l-1,-1.34l-1.25,-1.08l-1.75,-0.75l-1.91,-0.329l-1.92,0.083l-1.83,0.329l-1.84,0.75l-1.5,1.001l-1.33,1.249l-1,1.5l-0.67,1.59l-0.16,1.66l-0,28.33l-12.92,-0l-0,-47.159l12.92,-0l-0,3.33l1.91,-1.5l2.09,-1.25l2.16,-0.91l2.339,-0.59l2.33,-0.33l2.42,0.083l2.75,0.499l2.41,0.84l2.33,1.16l2.09,1.42l1.91,1.67l1.67,1.91l1.42,2.17l1.08,2.5l0.75,2.58l0.42,2.67l0.161,2.75l-0,28.159l-12.91,0l12.91,0l-12.91,0l-0,-28.079l-0.079,-1.666Z" style="fill:#010001;fill-rule:nonzero;"/></g><g><rect id="path1790" x="272.599" y="330.709" width="26.92" height="94.488" style="fill:#fff;"/><path id="path1792" d="M285.348,334.959l-1.419,0.159l-1.41,0.421l-1.25,0.669l-1.171,0.91l-0.92,1.17l-0.66,1.25l-0.421,1.42l-0.17,1.41l0.17,1.42l0.421,1.42l0.66,1.33l0.92,1.08l1.171,0.92l1.25,0.66l1.41,0.42l1.419,0.17l1.421,-0.17l1.41,-0.42l1.249,-0.66l1.171,-0.92l0.92,-1.08l0.66,-1.33l0.421,-1.42l0.17,-1.42l-0.17,-1.41l-0.421,-1.42l-0.66,-1.25l-0.92,-1.17l-1.171,-0.91l-1.249,-0.669l-1.41,-0.421l-1.421,-0.159Zm-6.499,19.409l-0,47.239l12.919,0l0,-47.239l-12.919,0Z" style="fill:#010001;fill-rule:nonzero;"/></g><g><rect id="path1806" x="414.252" y="330.709" width="52.909" height="94.488" style="fill:#fff;"/><path id="path1808" d="M439.752,353.118l-2.42,0.17l-2.41,0.41l-2.34,0.75l-2.25,1.09l-2.08,1.25l-2.25,1.66l-2.08,2l-1.75,2.25l-1.42,2.42l-1.17,3l-0.831,3.17l-0.499,3.16l-0.17,3.25l0.25,3.25l0.591,3.17l0.909,3.08l1.169,3l1.08,2.17l1.42,1.999l1.5,1.83l1.83,1.67l1.92,1.41l2.08,1.25l2.25,0.92l2.34,0.67l2.99,0.58l3.09,0.25l3.079,-0.082l3.08,-0.34l3,-0.661l2.34,-0.839l2.16,-1.08l2,-1.42l1.83,-1.67l1.67,-1.83l-8,-8.08l-1.83,1.67l-2.08,1.33l-2.25,1.001l-2.169,0.58l-2.17,0.17l-2.16,-0.083l-2.17,-0.42l-2.08,-0.75l-1.42,-0.921l-1.25,-1.159l-1.001,-1.34l-0.75,-1.5l-0.409,-1.66l-0.171,-1.67l31.5,-0l-0.17,-3.92l-0.421,-3.91l-0.83,-3.83l-1.171,-3.75l-1.079,-2.5l-1.42,-2.25l-1.66,-2.17l-2,-1.83l-2.17,-1.59l-2.08,-1.25l-2.25,-0.909l-2.42,-0.67l-2.42,-0.42l-2.407,-0.076Zm-0.251,10.75l1.66,-0l1.67,0.33l1.58,0.589l1.42,0.83l1.33,1.08l1.09,1.25l0.831,1.42l0.58,1.58l0.25,1.67l-19.16,-0l0.251,-1.67l0.58,-1.58l0.839,-1.42l1.08,-1.25l1.33,-1.08l1.42,-0.83l1.58,-0.589l1.669,-0.33Z" style="fill:#010001;fill-rule:nonzero;"/></g><g><rect id="path1798" x="68.128" y="330.709" width="51.489" height="94.488" style="fill:#fff;"/><path id="path1800" d="M85.538,384.778l0.67,1.5l1.17,1.84l1.5,1.659l1.75,1.25l2.08,0.84l1.83,0.251l1.92,-0.251l2,-0.84l1.75,-1.25l1.5,-1.659l1.25,-1.84l1,-2.66l12,4.5l-0.251,0.499l-1.17,2.75l-1.5,2.5l-1.75,2.25l-2.08,2.08l-2.34,1.75l-2.33,1.25l-2.33,0.92l-2.5,0.75l-2.59,0.41l-2.58,0.17l-2.58,-0.17l-2.5,-0.41l-2.499,-0.75l-2.42,-0.92l-2.25,-1.25l-2.33,-1.75l-2.08,-2.08l-1.84,-2.25l-1.5,-2.5l-1.16,-2.75l-0.17,-0.499l-0.83,-3.34l-0.5,-3.41l-0.17,-3.42l0.17,-3.41l0.5,-3.34l0.83,-3.33l0.17,-0.58l1.16,-2.67l1.5,-2.5l1.84,-2.33l2.08,-2l2.33,-1.84l2.25,-1.16l2.42,-1l2.499,-0.67l2.5,-0.499l2.58,-0.17l2.58,0.17l2.59,0.499l2.5,0.67l2.33,1l2.33,1.16l2.34,1.84l2.08,2l1.75,2.33l1.5,2.5l1.17,2.67l0.251,0.58l-12,4.42l-1,-2.67l-1.25,-1.83l-1.5,-1.59l-1.75,-1.25l-2,-0.83l-1.92,-0.251l-1.83,0.251l-2.08,0.83l-1.75,1.25l-1.5,1.59l-1.17,1.83l-0.67,1.58l-0.5,1.59l-0.25,2.58l-0.161,2.58l0.161,2.67l0.25,2.58l0.5,1.58Z" style="fill:#010001;fill-rule:nonzero;"/></g><g><rect id="path1666" x="356.677" y="330.709" width="57.575" height="94.488" style="fill:#fff;"/><path id="path1668" d="M363.008,354.291l12.921,-0l-12.921,-0l12.921,-0l-0,28.162l0.159,1.67l0.341,1.66l0.66,1.501l1,1.42l1.34,1.08l1.75,0.75l1.83,0.25l1.92,0l1.911,-0.41l1.75,-0.67l1.58,-1l1.25,-1.25l1.09,-1.501l0.58,-1.58l0.171,-1.67l-0,-28.412l12.911,-0l-0,47.244l-12.911,-0l-0,-3.331l-1.84,1.501l-2.081,1.159l-2.25,0.92l-2.25,0.67l-2.41,0.251l-2.42,0l-2.751,-0.5l-2.42,-0.841l-2.25,-1.159l-2.16,-1.42l-1.84,-1.671l-1.751,-1.91l-1.41,-2.17l-1,-2.5l-0.751,-2.58l-0.5,-2.75l-0.17,-2.671l0.001,-28.242Z" style="fill:#010001;fill-rule:nonzero;"/></g><g><rect id="path1670" x="232.015" y="330.709" width="40.584" height="94.488" style="fill:#fff;"/><path id="path1672" d="M262.018,391.284l2.41,-0.41l2.34,-0.671l2.83,10.751l-3.5,1.001l-3.58,0.659l-3.59,0.341l-3.661,0.082l-3.59,-0.329l-1.75,-0.341l-1.74,-0.749l-1.501,-1.001l-1.34,-1.25l-1.08,-1.41l-0.751,-1.67l-0.5,-1.75l-0.17,-1.83l-0,-28.003l-7.581,0l0,-10.751l7.581,0l-0,-14.741l12.921,-3.75l-0,18.491l12.001,0l-0,10.751l-12.001,0l-0,23.002l0.083,1l0.419,0.92l0.581,0.751l0.83,0.58l0.919,0.42l0.92,0.083l2.5,-0.176Z" style="fill:#010001;fill-rule:nonzero;"/></g></g><g><g><rect id="path1682" x="782.511" y="330.709" width="76.497" height="94.488" style="fill:#fff;"/><path id="path1684" d="M819.754,372.372l-6.911,29.163l-15.081,-0l-13.251,-47.244l12.751,-0l8.411,29.912l7.08,-29.912l14.092,-0l7.08,29.912l8.331,-29.912l12.831,-0l-13.251,47.244l-15.162,-0l-6.92,-29.163Z" style="fill:#010001;fill-rule:nonzero;"/></g><g><rect id="path1794" x="670.203" y="330.709" width="57.069" height="94.488" style="fill:#fff;"/><path id="path1796" d="M705.692,368.618l-1,-1.42l-1.25,-1.08l-1.75,-0.75l-1.91,-0.329l-1.92,0.083l-1.83,0.42l-1.84,0.66l-1.5,1.001l-1.33,1.25l-1,1.5l-0.67,1.59l-0.161,1.66l0,28.419l-12.919,0l-0,-66.159l12.919,0l0,22.24l1.91,-1.5l2,-1.16l2.25,-0.92l2.34,-0.67l2.33,-0.25l2.42,-0l2.75,0.499l2.41,0.84l2.33,1.16l2.09,1.42l1.91,1.67l1.67,1.91l1.42,2.17l1.079,2.5l0.75,2.58l0.421,2.67l0.16,2.75l0,28.249l-12.909,0l12.909,0l-12.909,0l-0,-28.169l-0.095,-1.66l-0.41,-1.67l-0.665,-1.504Z" style="fill:#010001;fill-rule:nonzero;"/></g><g><rect id="path17541" serif:id="path1754" x="727.272" y="330.709" width="55.239" height="94.488" style="fill:#fff;"/><path id="path17561" serif:id="path1756" d="M753.601,352.458l-2.59,0.161l-2.5,0.42l-2.5,0.75l-2.41,0.92l-2.25,1.24l-2.34,1.75l-2.079,2.09l-1.83,2.25l-1.5,2.58l-1.171,2.67l-0.16,0.5l-0.84,3.33l-0.5,3.42l-0.17,3.41l0.17,3.42l0.5,3.409l0.84,3.25l0.16,0.591l1.171,2.66l1.5,2.5l1.83,2.34l2.079,2.08l2.34,1.75l2.25,1.16l2.41,1.009l2.5,0.74l2.5,0.42l2.59,0.17l2.58,-0.17l2.58,-0.42l2.5,-0.74l2.42,-1.009l2.25,-1.16l2.33,-1.75l2.08,-2.08l1.84,-2.34l1.5,-2.5l1.16,-2.66l0.17,-0.591l0.83,-3.25l0.5,-3.409l0.094,-3.42l-0.094,-3.41l-0.5,-3.42l-0.83,-3.33l-0.17,-0.5l-1.16,-2.67l-1.5,-2.58l-1.84,-2.25l-2.08,-2.09l-2.33,-1.75l-2.25,-1.24l-2.42,-0.92l-2.5,-0.75l-2.58,-0.42l-2.58,-0.161Zm0,11.33l1.91,0.25l2,0.831l1.75,1.33l1.5,1.59l1.25,1.83l0.67,1.5l0.42,1.58l0.33,2.67l0.082,2.579l-0.082,2.58l-0.33,2.67l-0.42,1.58l-0.67,1.5l-1.25,1.84l-1.5,1.58l-1.75,1.33l-2,0.75l-1.91,0.34l-1.84,-0.34l-2,-0.75l-1.83,-1.33l-1.5,-1.58l-1.17,-1.84l-0.66,-1.5l-0.421,-1.58l-0.329,-2.67l-0.17,-2.58l0.17,-2.579l0.329,-2.67l0.421,-1.58l0.66,-1.5l1.17,-1.83l1.5,-1.59l1.83,-1.33l2,-0.831l1.84,-0.25Z" style="fill:#010001;fill-rule:nonzero;"/></g><g><rect id="path1674" x="622.039" y="330.709" width="48.164" height="94.488" style="fill:#fff;"/><path id="path1676" d="M634.79,387.374l2,1.58l2.16,1.25l2.34,1l2.411,0.67l2.5,0.33l2.25,0l1.59,-0.58l1.33,-0.92l0.75,-0.75l0.501,-1l0.08,-1.08l-0.25,-1.09l-0.58,-0.911l-0.83,-0.67l-3.251,-1.25l-3.34,-0.67l-3,-0.501l-4.08,-1l-2.001,-0.659l-1.83,-1.001l-1.67,-1.25l-1.5,-1.42l-1.25,-1.58l-1.08,-1.75l-0.67,-2.09l-0.41,-2.16l-0,-2.171l0.25,-2.16l0.58,-2.17l0.92,-1.92l1.25,-1.83l1.41,-1.58l1.59,-1.421l1.831,-1.17l1.91,-0.91l2.09,-0.59l3,-0.66l3,-0.34l3.081,-0l3.08,0.249l3.09,0.59l2.5,0.749l2.411,1.001l2.34,1.33l2.24,1.42l2,1.75l-7.991,8.491l-2.25,-1.83l-2.5,-1.5l-2.67,-1.16l-1.5,-0.42l-1.58,-0.249l-1.591,-0l-1.66,0.419l-1.5,0.75l-1.34,1l-0.66,0.83l-0.34,0.92l0.09,1.08l0.33,0.911l0.58,0.84l1,0.581l5.501,1.08l5,0.671l1.92,0.329l0.081,0l1.92,0.671l1.83,0.83l1.84,1.09l1.66,1.41l1.42,1.59l1.16,1.75l0.841,1.91l0.58,2.09l0.33,2.081l-0.083,2.17l-0.33,2.08l-0.67,2.08l-1.081,2.09l-1.34,1.91l-1.58,1.751l-1.83,1.5l-2,1.17l-3.25,1l-3.331,0.66l-3.42,0.34l-3.33,0l-3.421,-0.34l-3.33,-0.66l-3,-0.92l-2.92,-1.25l-2.661,-1.58l-2.5,-1.84l-2.34,-2.16l9.421,-8.671l1.752,1.84Z" style="fill:#010001;fill-rule:nonzero;"/></g></g><g><g><rect id="path17542" serif:id="path1754" x="537.272" y="330.709" width="55.239" height="94.488" style="fill:#fff;"/><path id="path17562" serif:id="path1756" d="M563.602,352.458l-2.59,0.161l-2.5,0.42l-2.5,0.75l-2.41,0.92l-2.25,1.24l-2.34,1.75l-2.08,2.09l-1.83,2.25l-1.5,2.58l-1.17,2.67l-0.161,0.5l-0.84,3.33l-0.499,3.42l-0.17,3.41l0.17,3.42l0.499,3.409l0.84,3.25l0.161,0.591l1.17,2.66l1.5,2.5l1.83,2.34l2.08,2.08l2.34,1.75l2.25,1.16l2.41,1.009l2.5,0.74l2.5,0.42l2.59,0.17l2.58,-0.17l2.58,-0.42l2.5,-0.74l2.42,-1.009l2.25,-1.16l2.33,-1.75l2.08,-2.08l1.839,-2.34l1.5,-2.5l1.16,-2.66l0.17,-0.591l0.831,-3.25l0.499,-3.409l0.095,-3.42l-0.095,-3.41l-0.499,-3.42l-0.831,-3.33l-0.17,-0.5l-1.16,-2.67l-1.5,-2.58l-1.839,-2.25l-2.08,-2.09l-2.33,-1.75l-2.25,-1.24l-2.42,-0.92l-2.5,-0.75l-2.58,-0.42l-2.58,-0.161Zm-0,11.33l1.91,0.25l2,0.831l1.75,1.33l1.5,1.59l1.25,1.83l0.669,1.5l0.421,1.58l0.329,2.67l0.083,2.579l-0.083,2.58l-0.329,2.67l-0.421,1.58l-0.669,1.5l-1.25,1.84l-1.5,1.58l-1.75,1.33l-2,0.75l-1.91,0.34l-1.84,-0.34l-2,-0.75l-1.83,-1.33l-1.5,-1.58l-1.17,-1.84l-0.661,-1.5l-0.42,-1.58l-0.33,-2.67l-0.17,-2.58l0.17,-2.579l0.33,-2.67l0.42,-1.58l0.661,-1.5l1.17,-1.83l1.5,-1.59l1.83,-1.33l2,-0.831l1.84,-0.25Z" style="fill:#010001;fill-rule:nonzero;"/></g><g><rect id="path16701" serif:id="path1670" x="496.689" y="330.709" width="40.584" height="94.488" style="fill:#fff;"/><path id="path16721" serif:id="path1672" d="M526.691,391.284l2.411,-0.41l2.34,-0.671l2.83,10.751l-3.5,1.001l-3.58,0.659l-3.591,0.341l-3.66,0.082l-3.59,-0.329l-1.751,-0.341l-1.74,-0.749l-1.5,-1.001l-1.34,-1.25l-1.081,-1.41l-0.75,-1.67l-0.5,-1.75l-0.171,-1.83l0,-28.003l-7.58,0l-0,-10.751l7.58,0l0,-14.741l12.921,-3.75l0,18.491l12.002,0l-0,10.751l-12.002,0l0,23.002l0.083,1l0.42,0.92l0.58,0.751l0.83,0.58l0.92,0.42l0.92,0.083l2.499,-0.176Z" style="fill:#010001;fill-rule:nonzero;"/></g></g></g><g><g><g><rect id="path1742" x="381.094" y="236.22" width="30.749" height="94.488" style="fill:#fff;"/><path id="path1744" d="M408.013,295.459l-2.5,0.33l-2.5,0.094l-0.92,-0.094l-0.75,-0.41l-0.66,-0.67l-0.42,-0.75l-0.171,-0.92l0,-52.069l-12.909,0l-0,57.319l0.16,1.75l0.5,1.67l0.75,1.58l1,1.5l1.25,1.25l1.42,1l1.67,0.67l1.66,0.5l1.75,0.17l4.08,-0.34l4,-0.5l4,-0.75l-1.41,-11.33Z" style="fill:#010001;fill-rule:nonzero;"/></g><g><rect id="path17901" serif:id="path1790" x="411.843" y="236.22" width="26.92" height="94.488" style="fill:#fff;"/><path id="path17921" serif:id="path1792" d="M424.593,240.47l-1.42,0.16l-1.41,0.42l-1.25,0.67l-1.17,0.909l-0.921,1.171l-0.66,1.25l-0.42,1.42l-0.17,1.41l0.17,1.42l0.42,1.42l0.66,1.33l0.921,1.079l1.17,0.92l1.25,0.661l1.41,0.42l1.42,0.17l1.42,-0.17l1.41,-0.42l1.25,-0.661l1.17,-0.92l0.92,-1.079l0.661,-1.33l0.42,-1.42l0.17,-1.42l-0.17,-1.41l-0.42,-1.42l-0.661,-1.25l-0.92,-1.171l-1.17,-0.909l-1.25,-0.67l-1.41,-0.42l-1.42,-0.16Zm-6.5,19.41l0,47.239l12.92,0l-0,-47.239l-12.92,-0Z" style="fill:#010001;fill-rule:nonzero;"/></g><g><rect id="path17941" serif:id="path1794" x="494.922" y="236.22" width="57.069" height="94.488" style="fill:#fff;"/><path id="path17961" serif:id="path1796" d="M530.411,274.13l-1,-1.42l-1.251,-1.08l-1.749,-0.75l-1.91,-0.329l-1.92,0.082l-1.83,0.421l-1.84,0.66l-1.5,1.001l-1.33,1.249l-1.001,1.5l-0.669,1.59l-0.161,1.66l0,28.42l-12.92,-0l0,-66.159l12.92,0l0,22.24l1.91,-1.5l2,-1.16l2.25,-0.92l2.34,-0.67l2.33,-0.25l2.42,-0l2.75,0.499l2.41,0.84l2.33,1.16l2.09,1.42l1.91,1.67l1.67,1.91l1.42,2.17l1.079,2.5l0.75,2.58l0.421,2.67l0.16,2.75l0,28.249l-12.91,0l12.91,0l-12.91,0l0,-28.169l-0.094,-1.66l-0.41,-1.67l-0.665,-1.504Z" style="fill:#010001;fill-rule:nonzero;"/></g><g><rect id="path1810" x="438.763" y="236.22" width="56.159" height="94.488" style="fill:#fff;"/><path id="path1812" d="M463.092,259.21l-2.84,0.17l-2.75,0.5l-2.66,0.92l-1.92,0.909l-1.83,1.171l-1.749,1.33l-1.5,1.59l-1.34,1.66l-1.33,2.42l-1.001,2.58l-0.83,2.589l-0.67,2.58l-0.41,2.67l-0.094,2.75l0.25,2.66l0.5,2.67l0.75,2.58l1,2.33l1.25,2.25l1.5,2.09l1.84,1.83l1.99,1.58l2.34,1.42l2.5,1.079l2.66,0.75l2.67,0.33l2.92,0.17l2.91,-0.329l2.84,-0.58l2.16,-0.75l2.09,-1.091l-0,2.501l-0.17,1.419l-0.5,1.33l-0.75,1.171l-1,1l-1.171,0.75l-1.33,0.421l-3.5,0.329l-3.92,-0.094l-3.909,-0.49l-2.42,-0.591l-2.42,-0.75l-2.25,-1.08l-2.16,-1.339l-6.08,10.419l3.83,1.83l4,1.42l4,1.171l4.16,0.909l3.249,0.251l3.34,0.094l3.25,-0.25l3.33,-0.59l2.67,-0.66l2.58,-1l2.41,-1.34l2.25,-1.66l1.59,-1.59l1.25,-1.83l1.079,-2l0.75,-2.08l0.5,-2.17l0.17,-2.25l0,-45.409l-12.83,-0l0,2.42l-1.749,-1.171l-1.92,-0.83l-2,-0.5l-2.75,-0.499l-2.825,-0.09Zm1.66,11.25l2.09,0.17l1.91,0.58l1.92,0.84l1.08,0.75l1,1l0.75,1.16l0.5,1.25l0.34,1.33l-0,7.51l-0.34,1.74l-0.5,1.75l-0.58,1.26l-0.83,1.079l-1.09,0.83l-1.16,0.67l-1.75,0.58l-1.75,0.25l-1.84,0l-1.75,-0.25l-1.75,-0.5l-1.41,-0.669l-1.34,-0.91l-1.08,-1.17l-0.83,-1.33l-0.499,-1.42l-0.5,-1.91l-0.25,-2l0.082,-2l0.251,-1.92l0.579,-2.17l0.921,-2l0.669,-1.25l0.92,-1.079l1.08,-0.831l1.16,-0.669l2,-0.5l1.997,-0.171Z" style="fill:#010001;fill-rule:nonzero;"/></g><g><rect id="path16702" serif:id="path1670" x="551.99" y="236.22" width="40.584" height="94.488" style="fill:#fff;"/><path id="path16722" serif:id="path1672" d="M581.993,296.796l2.41,-0.41l2.341,-0.671l2.83,10.751l-3.5,1l-3.581,0.66l-3.59,0.34l-3.66,0.083l-3.591,-0.33l-1.75,-0.34l-1.74,-0.75l-1.5,-1l-1.34,-1.25l-1.081,-1.41l-0.751,-1.67l-0.5,-1.75l-0.17,-1.831l0,-28.002l-7.581,-0l0,-10.751l7.581,0l0,-14.741l12.921,-3.751l0,18.492l12.001,0l0,10.751l-12.001,-0l0,23.002l0.083,1l0.42,0.92l0.58,0.751l0.83,0.58l0.92,0.42l0.92,0.083l2.499,-0.176Z" style="fill:#010001;fill-rule:nonzero;"/></g><g><rect id="path16741" serif:id="path1674" x="592.574" y="236.22" width="48.164" height="94.488" style="fill:#fff;"/><path id="path16761" serif:id="path1676" d="M605.325,292.885l2,1.58l2.161,1.251l2.34,1l2.41,0.67l2.5,0.33l2.25,0l1.591,-0.58l1.33,-0.92l0.75,-0.75l0.5,-1l0.08,-1.08l-0.25,-1.09l-0.58,-0.911l-0.83,-0.67l-3.25,-1.25l-3.341,-0.671l-3,-0.5l-4.08,-1l-2,-0.66l-1.831,-1l-1.67,-1.25l-1.5,-1.42l-1.25,-1.58l-1.08,-1.75l-0.67,-2.09l-0.41,-2.161l-0,-2.17l0.25,-2.16l0.58,-2.17l0.92,-1.92l1.25,-1.831l1.411,-1.58l1.59,-1.42l1.83,-1.17l1.91,-0.911l2.09,-0.589l3,-0.66l3.001,-0.341l3.08,0l3.08,0.25l3.09,0.59l2.501,0.749l2.41,1l2.34,1.331l2.24,1.42l2,1.75l-7.99,8.491l-2.25,-1.831l-2.501,-1.5l-2.67,-1.159l-1.5,-0.42l-1.58,-0.25l-1.59,0l-1.66,0.42l-1.501,0.75l-1.34,1l-0.66,0.83l-0.34,0.92l0.09,1.08l0.33,0.91l0.58,0.841l1,0.58l5.501,1.081l5,0.67l1.92,0.33l0.081,0l1.92,0.67l1.83,0.83l1.84,1.09l1.66,1.411l1.421,1.59l1.159,1.75l0.841,1.91l0.58,2.09l0.33,2.08l-0.083,2.17l-0.329,2.081l-0.671,2.08l-1.08,2.09l-1.34,1.91l-1.58,1.75l-1.831,1.5l-2,1.171l-3.25,1l-3.33,0.66l-3.421,0.34l-3.33,0l-3.42,-0.34l-3.331,-0.66l-3,-0.92l-2.92,-1.25l-2.66,-1.58l-2.501,-1.84l-2.34,-2.16l9.421,-8.671l1.752,1.839Z" style="fill:#010001;fill-rule:nonzero;"/></g></g><g><g><rect id="path17902" serif:id="path1790" x="286.397" y="236.22" width="26.92" height="94.488" style="fill:#fff;"/><path id="path17922" serif:id="path1792" d="M299.147,240.47l-1.42,0.16l-1.41,0.42l-1.25,0.67l-1.17,0.909l-0.92,1.171l-0.661,1.25l-0.42,1.42l-0.17,1.41l0.17,1.42l0.42,1.42l0.661,1.33l0.92,1.079l1.17,0.92l1.25,0.661l1.41,0.42l1.42,0.17l1.42,-0.17l1.41,-0.42l1.25,-0.661l1.171,-0.92l0.92,-1.079l0.66,-1.33l0.42,-1.42l0.17,-1.42l-0.17,-1.41l-0.42,-1.42l-0.66,-1.25l-0.92,-1.171l-1.171,-0.909l-1.25,-0.67l-1.41,-0.42l-1.42,-0.16Zm-6.5,19.41l0,47.239l12.92,0l-0,-47.239l-12.92,-0Z" style="fill:#010001;fill-rule:nonzero;"/></g><g><rect id="path1814" x="313.317" y="236.22" width="38.249" height="94.488" style="fill:#fff;"/><path id="path1816" d="M336.736,259.55l9.16,0l0,10.66l-9.16,-0l0,36.919l-12.919,0l-0,-36.919l-7.58,-0l-0,-10.66l7.58,0l-0,-6.92l0.17,-1.91l0.41,-1.92l0.839,-1.75l1.001,-1.67l1.33,-1.41l1.5,-1.25l1.67,-1l1.83,-0.67l1.92,-0.329l3.66,-0.095l3.67,0.17l3.58,0.421l3.579,0.75l-2.329,10.5l-3,-0.341l-3.17,0l-0.91,0.095l-0.92,0.41l-0.83,0.59l-0.58,0.75l-0.421,0.911l-0.094,1l0.014,3.668Z" style="fill:#010001;fill-rule:nonzero;"/></g></g></g></g></g></svg>