<?xml version="1.0" encoding="UTF-8" standalone="no"?><!DOCTYPE svg PUBLIC "-//W3C//DTD SVG 1.1//EN" "http://www.w3.org/Graphics/SVG/1.1/DTD/svg11.dtd"><svg width="100%" height="100%" viewBox="0 0 333 318" version="1.1" xmlns="http://www.w3.org/2000/svg" xmlns:xlink="http://www.w3.org/1999/xlink" xml:space="preserve" xmlns:serif="http://www.serif.com/" style="fill-rule:evenodd;clip-rule:evenodd;stroke-linejoin:round;stroke-miterlimit:2;"><g transform="matrix(50,0,0,50,274.344,176.404)"></g><text x="58.914px" y="176.404px" style="font-family:'ArialMT', 'Arial', sans-serif;font-size:50px;">sw=26.88</text><g id="_778-Open-Railway-Level-Crossing" serif:id="778 Open Railway Level Crossing"><path d="M332.598,30.236l0,257.008c0,16.688 -13.548,30.236 -30.236,30.236l-272.126,0c-16.688,0 -30.236,-13.548 -30.236,-30.236l0,-257.008c0,-16.688 13.548,-30.236 30.236,-30.236l272.126,0c16.688,0 30.236,13.548 30.236,30.236Z"/><path d="M317.48,30.236l0,257.008c0,8.344 -6.774,15.118 -15.118,15.118l-272.126,0c-8.344,0 -15.118,-6.774 -15.118,-15.118l0,-257.008c0,-8.344 6.774,-15.118 15.118,-15.118l272.126,0c8.344,0 15.118,6.774 15.118,15.118Z" style="fill:#fff;"/><path d="M175.73,160.241l0.09,1.657l-0,3.181l66.666,0l-0,-4.211l-0.045,-0.851l-0.269,-0.806l-0.403,-0.717l-0.493,-0.627l-0.672,-0.538l-0.717,-0.403l-0.806,-0.224l-0.807,-0.09l0,-8.467l33.871,0l-0,8.467l-0.852,0.09l-0.761,0.224l-0.762,0.403l-0.627,0.538l-0.538,0.627l-0.403,0.717l-0.224,0.806l-0.09,0.851l0,4.211l14.83,0l-0,53.983l10.573,-0l0,19.039l-80.509,0l0.806,2.016l0.582,2.106l0.448,2.15l0.269,2.15l0.09,2.195l-0.09,2.196l-0.269,2.15l-0.448,2.15l-0.627,2.061l-0.806,2.061l-0.941,1.971l-1.12,1.837l-1.299,1.792l-1.389,1.657l-1.568,1.568l-1.658,1.389l-1.792,1.299l-1.882,1.075l-1.926,0.986l-2.061,0.806l-2.106,0.582l-2.106,0.448l-2.195,0.269l-2.15,0.135l-2.196,-0.135l-2.15,-0.269l-2.151,-0.448l-2.105,-0.582l-2.017,-0.806l-1.971,-0.986l-1.882,-1.075l-1.792,-1.299l-1.657,-1.389l-1.568,-1.568l-1.389,-1.657l-1.255,-1.792l-1.12,-1.837l-0.985,-1.971l-0.807,-2.061l-0.627,-2.061l-0.448,-2.15l-0.269,-2.15l-0.09,-2.196l0.09,-2.195l0.269,-2.15l0.448,-2.15l0.627,-2.106l0.762,-2.016l-8.647,0l0.806,2.016l0.628,2.106l0.448,2.15l0.268,2.15l0.09,2.195l-0.134,2.196l-0.269,2.15l-0.448,2.15l-0.627,2.061l-0.762,2.061l-0.986,1.971l-1.12,1.837l-1.254,1.792l-1.434,1.657l-1.523,1.568l-1.703,1.389l-1.747,1.299l-1.882,1.075l-1.971,0.986l-2.016,0.806l-2.106,0.582l-2.15,0.448l-2.151,0.269l-2.195,0.135l-2.195,-0.135l-2.151,-0.269l-2.151,-0.448l-2.105,-0.582l-2.016,-0.806l-1.972,-0.986l-1.881,-1.075l-1.748,-1.299l-1.702,-1.389l-1.523,-1.568l-1.434,-1.657l-1.255,-1.792l-1.12,-1.837l-0.985,-1.971l-0.762,-2.061l-0.627,-2.061l-0.448,-2.15l-0.269,-2.15l-0.134,-2.196l0.089,-2.195l0.269,-2.15l0.448,-2.15l0.627,-2.106l0.807,-2.016l-8.647,0l0.762,2.016l0.627,2.106l0.448,2.15l0.269,2.15l0.089,2.195l-0.089,2.196l-0.269,2.15l-0.448,2.15l-0.627,2.061l-0.807,2.061l-0.941,1.971l-1.12,1.837l-1.299,1.792l-1.389,1.657l-1.568,1.568l-1.658,1.389l-1.792,1.299l-1.881,1.075l-1.972,0.986l-2.016,0.806l-2.106,0.582l-2.105,0.448l-2.196,0.269l-2.195,0.135l-2.15,-0.135l-2.196,-0.269l-2.105,-0.448l-2.106,-0.582l-2.061,-0.806l-1.927,-0.986l-1.881,-1.075l-1.792,-1.299l-1.658,-1.389l-1.568,-1.568l-1.389,-1.657l-1.299,-1.792l-1.12,-1.837l-0.941,-1.971l-0.807,-2.061l-0.627,-2.061l-0.448,-2.15l-0.269,-2.15l-0.089,-2.196l0.089,-2.195l0.269,-2.15l0.448,-2.15l0.627,-2.106l0.762,-2.016l-10.663,0l0,-37.048l29.614,-0l0,-31.718l-19.041,0l0,-21.19l49.731,0l-0,16.934l44.444,0l-0,-3.181l0.089,-1.657l0.269,-1.658l0.448,-1.568l0.583,-1.568l0.761,-1.478l0.896,-1.389l1.076,-1.299l1.165,-1.165l1.299,-1.075l1.389,-0.896l15.86,0l1.389,0.896l1.299,1.075l1.165,1.165l1.03,1.299l0.941,1.389l0.717,1.478l0.627,1.568l0.403,1.568l0.269,1.658Zm-51.254,-104.426l1.613,-1.881l1.703,-1.748l1.881,-1.612l1.927,-1.523l2.061,-1.344l2.105,-1.21l2.241,-1.075l2.284,-0.941l2.33,-0.762l2.375,-0.582l2.419,-0.448l2.464,-0.269l2.464,-0.089l2.464,0.089l2.42,0.224l2.419,0.403l2.419,0.583l2.33,0.717l2.285,0.896l2.24,1.03l2.151,1.21l2.061,1.344l1.971,1.478l1.882,1.613l1.747,1.702l1.613,1.837l1.478,1.971l2.688,-0.224l2.644,-0.045l2.688,0.134l2.643,0.359l2.599,0.493l2.598,0.716l2.509,0.852l2.419,1.075l2.375,1.209l2.285,1.389l2.195,1.523l2.061,1.703l1.927,1.836l1.837,1.927l1.657,2.105l1.523,2.195l3.226,1.031l3.136,1.254l3.092,1.389l3.002,1.568l2.912,1.702l2.822,1.882l2.688,2.016l2.599,2.15l2.509,2.285l2.374,2.419l2.196,2.553l2.105,2.644l1.927,2.777l1.792,2.867l1.658,2.957l1.478,3.046l1.299,3.091l1.165,3.181l0.986,3.27l0.806,3.271l0.628,3.315l0.448,3.36l0.268,3.36l0.09,3.404l0,10.573l-16.935,-0l-0,-12.051l-0.09,-1.165l-0.269,-1.12l-0.448,-1.075l-0.582,-0.986l-0.762,-0.851l-0.851,-0.761l-0.986,-0.628l-1.03,-0.448l-1.12,-0.268l-1.165,-0.135l-1.165,0.09l-1.12,0.224l-1.075,0.448l-0.986,0.582l-1.702,1.075l-1.792,0.896l-1.837,0.762l-1.927,0.627l-1.971,0.448l-2.016,0.224l-2.016,0.09l-2.016,-0.045l-1.972,-0.269l-1.971,-0.448l-1.927,-0.582l-1.881,-0.762l-1.792,-0.941l-1.703,-1.075l-1.613,-1.209l-1.478,-1.344l-1.389,-1.479l-1.21,-1.612l-1.12,-1.658l-2.016,1.12l-2.106,0.941l-2.15,0.806l-2.24,0.627l-2.24,0.448l-2.285,0.269l-2.33,0.09l-2.285,-0.09l-2.285,-0.269l-2.285,-0.448l-2.195,-0.627l-2.195,-0.806l-2.061,-0.941l-2.016,-1.12l-1.927,-1.299l-1.837,-1.389l-1.702,-1.568l-1.568,-1.657l-1.434,-1.837l-2.419,0.627l-2.42,0.448l-2.419,0.269l-2.464,0.089l-2.464,-0.044l-2.464,-0.224l-2.42,-0.404l-2.374,-0.582l-2.375,-0.717l-2.285,-0.851l-2.24,-1.03l-2.15,-1.21l-2.061,-1.344l-1.971,-1.433l-1.882,-1.613l-1.747,-1.747l-1.613,-1.837l-1.524,-1.926l-1.344,-2.061l-1.254,-2.15l-1.075,-2.196l-0.896,-2.284l-0.762,-2.33l-0.627,-2.374l-0.404,-2.419l-0.268,-2.464l-0.135,-2.464l0.09,-2.464l0.224,-2.419l0.403,-2.419l0.583,-2.419l0.716,-2.33l0.896,-2.285l1.031,-2.24l1.165,-2.15l1.344,-2.061l1.478,-1.971Zm111.67,184.392c9.631,-0 17.45,7.828 17.45,17.471c0,9.643 -7.819,17.472 -17.45,17.472c-9.631,-0 -17.45,-7.829 -17.45,-17.472c-0,-9.643 7.819,-17.471 17.45,-17.471Zm55.577,17.471l-0.089,1.702l-0.27,1.703l-0.403,1.657l-0.582,1.613l-0.717,1.523l-0.896,1.479l-1.03,1.388l-1.12,1.255l-1.3,1.165l-1.344,1.03l-1.478,0.851l-1.568,0.762l-1.613,0.582l-1.658,0.403l-1.702,0.269l-1.703,0.09l-1.702,-0.09l-1.703,-0.269l-1.657,-0.403l-1.613,-0.582l-1.568,-0.762l-1.479,-0.851l-1.344,-1.03l-1.299,-1.165l-1.12,-1.255l-1.031,-1.388l-0.896,-1.479l-0.716,-1.523l-0.583,-1.613l-0.403,-1.657l-0.269,-1.703l-0.09,-1.702l0.09,-1.702l0.269,-1.703l0.403,-1.657l0.583,-1.613l0.716,-1.568l0.896,-1.478l1.031,-1.344l1.12,-1.299l1.299,-1.12l1.344,-1.031l1.479,-0.896l1.568,-0.716l1.613,-0.583l1.657,-0.403l1.703,-0.269l1.702,-0.089l1.703,0.089l1.702,0.269l1.658,0.403l1.613,0.583l1.568,0.716l1.478,0.896l1.344,1.031l1.3,1.12l1.12,1.299l1.03,1.344l0.896,1.478l0.717,1.568l0.582,1.613l0.403,1.657l0.27,1.703l0.089,1.702Z"/></g></svg>