<?xml version="1.0" encoding="UTF-8" standalone="no"?><!DOCTYPE svg PUBLIC "-//W3C//DTD SVG 1.1//EN" "http://www.w3.org/Graphics/SVG/1.1/DTD/svg11.dtd"><svg width="100%" height="100%" viewBox="0 0 363 227" version="1.1" xmlns="http://www.w3.org/2000/svg" xmlns:xlink="http://www.w3.org/1999/xlink" xml:space="preserve" xmlns:serif="http://www.serif.com/" style="fill-rule:evenodd;clip-rule:evenodd;stroke-linejoin:round;stroke-miterlimit:2;"><g transform="matrix(50,0,0,50,275.778,149.323)"></g><text x="88.156px" y="149.323px" style="font-family:'ArialMT', 'Arial', sans-serif;font-size:50px;">sw=19.2</text><g id="_778.1-Open-Tramway-Level-Crossing" serif:id="778.1 Open Tramway Level Crossing"><path d="M362.835,30.236l-0,166.299c-0,16.688 -13.549,30.237 -30.237,30.237l-302.362,-0c-16.688,-0 -30.236,-13.549 -30.236,-30.237l0,-166.299c0,-16.688 13.548,-30.236 30.236,-30.236l302.362,0c16.688,0 30.237,13.548 30.237,30.236Z"/><path d="M347.717,30.236l-0,166.299c-0,8.344 -6.775,15.119 -15.119,15.119l-302.362,-0c-8.344,-0 -15.118,-6.775 -15.118,-15.119l0,-166.299c0,-8.344 6.774,-15.118 15.118,-15.118l302.362,0c8.344,0 15.119,6.774 15.119,15.118Z" style="fill:#fff;"/><path d="M47.368,92.433l0.271,-0.872l0.361,-0.843l0.481,-0.782l0.572,-0.722l0.631,-0.632l0.722,-0.571l0.782,-0.481l0.843,-0.361l0.872,-0.271l0.902,-0.151l0.903,-0.06l93.547,0l3.369,-3.369l0.571,-0.481l0.632,-0.391l0.692,-0.271l0.722,-0.181l0.721,-0.06l19.853,0l-23.673,-16.575l24.365,-17.057l-0,-5.205l0.06,-0.661l0.18,-0.632l0.271,-0.602l0.361,-0.541l0.481,-0.451l0.542,-0.392l0.601,-0.27l0.632,-0.181l0.662,-0.06l4.271,0l0.662,0.06l0.631,0.181l0.602,0.27l0.541,0.392l0.452,0.451l0.391,0.541l0.27,0.602l0.181,0.632l0.06,0.661l0,5.205l24.364,17.057l-23.672,16.575l19.822,0l0.752,0.06l0.722,0.181l0.692,0.271l0.632,0.391l0.571,0.481l3.339,3.369l93.577,0l0.902,0.06l0.903,0.151l0.872,0.271l0.812,0.361l0.782,0.481l0.722,0.571l0.662,0.632l0.571,0.722l0.451,0.782l0.392,0.843l0.27,0.872l8.032,32.128l-0,42.657l-23.673,0l-0,4.723l-14.228,0l-0.06,1.053l-0.151,1.053l-0.3,1.023l-0.421,0.993l-0.512,0.932l-0.601,0.842l-0.722,0.813l-0.782,0.692l-0.872,0.631l-0.933,0.512l-0.992,0.391l-0.993,0.301l-1.053,0.18l-1.083,0.06l-1.053,-0.06l-1.052,-0.18l-1.023,-0.301l-0.962,-0.391l-0.933,-0.512l-0.872,-0.631l-0.782,-0.692l-0.722,-0.813l-0.602,-0.842l-0.512,-0.932l-0.42,-0.993l-0.301,-1.023l-0.181,-1.053l-0.06,-1.053l-14.198,0l-0.06,1.053l-0.18,1.053l-0.3,1.023l-0.392,0.993l-0.511,0.932l-0.632,0.842l-0.691,0.813l-0.813,0.692l-0.842,0.631l-0.933,0.512l-0.992,0.391l-1.022,0.301l-1.054,0.18l-1.052,0.06l-1.053,-0.06l-1.053,-0.18l-1.023,-0.301l-0.992,-0.391l-0.902,-0.512l-0.873,-0.631l-0.812,-0.692l-0.692,-0.813l-0.631,-0.842l-0.512,-0.932l-0.391,-0.993l-0.3,-1.023l-0.181,-1.053l-0.061,-1.053l-104.194,0l-0.06,1.053l-0.181,1.053l-0.301,1.023l-0.421,0.993l-0.511,0.932l-0.602,0.842l-0.722,0.813l-0.782,0.692l-0.872,0.631l-0.932,0.512l-0.963,0.391l-1.023,0.301l-1.052,0.18l-1.053,0.06l-1.083,-0.06l-1.023,-0.18l-1.022,-0.301l-0.993,-0.391l-0.933,-0.512l-0.872,-0.631l-0.782,-0.692l-0.722,-0.813l-0.601,-0.842l-0.512,-0.932l-0.421,-0.993l-0.271,-1.023l-0.18,-1.053l-0.06,-1.053l-14.228,0l-0.06,1.053l-0.18,1.053l-0.271,1.023l-0.421,0.993l-0.512,0.932l-0.631,0.842l-0.692,0.813l-0.782,0.692l-0.872,0.631l-0.933,0.512l-0.993,0.391l-1.022,0.301l-1.053,0.18l-1.053,0.06l-1.053,-0.06l-1.052,-0.18l-1.023,-0.301l-0.963,-0.391l-0.932,-0.512l-0.872,-0.631l-0.782,-0.692l-0.722,-0.813l-0.602,-0.842l-0.541,-0.932l-0.391,-0.993l-0.301,-1.023l-0.181,-1.053l-0.06,-1.053l-14.197,0l-0,-4.723l-23.703,0l0,-42.657l8.061,-32.128Zm249.63,6.077l-0.662,0.06l-0.632,0.18l-0.601,0.271l-0.542,0.391l-0.451,0.451l-0.392,0.542l-0.27,0.602l-0.18,0.661l-0.061,0.632l-0,18.471l0.061,0.662l0.18,0.661l0.27,0.572l0.392,0.541l0.451,0.482l0.542,0.391l0.601,0.271l0.632,0.18l0.662,0.03l11.911,0l0.692,-0.06l0.661,-0.18l0.632,-0.301l0.542,-0.391l0.481,-0.512l0.361,-0.571l0.271,-0.632l0.12,-0.692l0.029,-0.662l-0.12,-0.692l-4.602,-18.47l-0.21,-0.602l-0.301,-0.542l-0.361,-0.511l-0.482,-0.421l-0.511,-0.331l-0.571,-0.271l-0.632,-0.15l-0.602,-0.06l-7.308,-0Zm-50.203,-0l-0.662,0.06l-0.631,0.18l-0.603,0.271l-0.54,0.391l-0.452,0.451l-0.391,0.542l-0.27,0.602l-0.181,0.661l-0.06,0.632l-0,56.375l0.06,0.662l0.181,0.631l0.27,0.602l0.391,0.542l0.452,0.481l0.54,0.361l0.603,0.301l0.631,0.15l0.662,0.06l11.37,0l0.662,-0.06l0.631,-0.15l0.601,-0.301l0.542,-0.361l0.482,-0.481l0.36,-0.542l0.271,-0.602l0.181,-0.631l0.06,-0.662l-0,-56.375l-0.06,-0.632l-0.181,-0.661l-0.271,-0.602l-0.36,-0.542l-0.482,-0.451l-0.542,-0.391l-0.601,-0.271l-0.631,-0.18l-0.662,-0.06l-11.37,-0Zm23.672,-0l-0.632,0.06l-0.661,0.18l-0.602,0.271l-0.541,0.391l-0.452,0.451l-0.39,0.542l-0.271,0.602l-0.181,0.661l-0.06,0.632l-0,56.375l0.06,0.662l0.181,0.631l0.271,0.602l0.39,0.542l0.452,0.481l0.541,0.361l0.602,0.301l0.661,0.15l0.632,0.06l11.37,0l0.662,-0.06l0.661,-0.15l0.572,-0.301l0.542,-0.361l0.481,-0.481l0.391,-0.542l0.27,-0.602l0.151,-0.631l0.06,-0.662l-0,-56.375l-0.06,-0.632l-0.151,-0.661l-0.27,-0.602l-0.391,-0.542l-0.481,-0.451l-0.542,-0.391l-0.572,-0.271l-0.661,-0.18l-0.662,-0.06l-11.37,-0Zm-62.745,26.051l25.567,0l0.662,-0.03l0.632,-0.18l0.601,-0.271l0.542,-0.391l0.481,-0.482l0.36,-0.541l0.301,-0.572l0.151,-0.661l0.06,-0.662l0,-18.471l-0.06,-0.632l-0.151,-0.661l-0.301,-0.602l-0.36,-0.542l-0.481,-0.451l-0.542,-0.391l-0.601,-0.271l-0.632,-0.18l-0.662,-0.06l-25.567,-0l-0.662,0.06l-0.632,0.18l-0.601,0.271l-0.542,0.391l-0.481,0.451l-0.361,0.542l-0.301,0.602l-0.15,0.661l-0.06,0.632l-0,18.471l0.06,0.662l0.15,0.661l0.301,0.572l0.361,0.541l0.481,0.482l0.542,0.391l0.601,0.271l0.632,0.18l0.662,0.03Zm-152.834,-23.163l-4.632,18.47l-0.09,0.692l-0,0.662l0.15,0.692l0.271,0.632l0.361,0.571l0.481,0.512l0.542,0.391l0.631,0.301l0.662,0.18l0.662,0.06l11.911,0l0.662,-0.03l0.632,-0.18l0.601,-0.271l0.542,-0.391l0.481,-0.482l0.361,-0.541l0.301,-0.572l0.15,-0.661l0.06,-0.662l0,-18.471l-0.06,-0.632l-0.15,-0.661l-0.301,-0.602l-0.361,-0.542l-0.481,-0.451l-0.542,-0.391l-0.601,-0.271l-0.632,-0.18l-0.662,-0.06l-7.279,-0l-0.632,0.06l-0.601,0.15l-0.572,0.271l-0.541,0.331l-0.451,0.421l-0.392,0.511l-0.3,0.542l-0.181,0.602Zm74.657,23.163l25.598,0l0.662,-0.03l0.631,-0.18l0.602,-0.271l0.541,-0.391l0.452,-0.482l0.391,-0.541l0.27,-0.572l0.181,-0.661l0.06,-0.662l-0,-18.471l-0.06,-0.632l-0.181,-0.661l-0.27,-0.602l-0.391,-0.542l-0.452,-0.451l-0.541,-0.391l-0.602,-0.271l-0.631,-0.18l-0.662,-0.06l-25.598,-0l-0.631,0.06l-0.662,0.18l-0.602,0.271l-0.541,0.391l-0.451,0.451l-0.391,0.542l-0.271,0.602l-0.18,0.661l-0.061,0.632l0,18.471l0.061,0.662l0.18,0.661l0.271,0.572l0.391,0.541l0.451,0.482l0.541,0.391l0.602,0.271l0.662,0.18l0.631,0.03Zm39.104,0l25.567,0l0.662,-0.03l0.632,-0.18l0.601,-0.271l0.542,-0.391l0.481,-0.482l0.361,-0.541l0.27,-0.572l0.181,-0.661l0.06,-0.662l0,-18.471l-0.06,-0.632l-0.181,-0.661l-0.27,-0.602l-0.361,-0.542l-0.481,-0.451l-0.542,-0.391l-0.601,-0.271l-0.632,-0.18l-0.662,-0.06l-25.567,-0l-0.662,0.06l-0.632,0.18l-0.601,0.271l-0.542,0.391l-0.481,0.451l-0.361,0.542l-0.301,0.602l-0.15,0.661l-0.06,0.632l-0,18.471l0.06,0.662l0.15,0.661l0.301,0.572l0.361,0.541l0.481,0.482l0.542,0.391l0.601,0.271l0.632,0.18l0.662,0.03Zm-67.739,-22.261l-0,56.375l0.06,0.662l0.15,0.631l0.301,0.602l0.361,0.542l0.481,0.481l0.542,0.361l0.601,0.301l0.632,0.15l0.662,0.06l11.37,0l0.631,-0.06l0.662,-0.15l0.602,-0.301l0.541,-0.361l0.451,-0.481l0.391,-0.542l0.271,-0.602l0.181,-0.631l0.06,-0.662l-0,-56.375l-0.06,-0.632l-0.181,-0.661l-0.271,-0.602l-0.391,-0.542l-0.451,-0.451l-0.541,-0.391l-0.602,-0.271l-0.662,-0.18l-0.631,-0.06l-11.37,-0l-0.662,0.06l-0.632,0.18l-0.601,0.271l-0.542,0.391l-0.481,0.451l-0.361,0.542l-0.301,0.602l-0.15,0.661l-0.06,0.632Zm-4.753,56.375l0,-56.375l-0.06,-0.632l-0.15,-0.661l-0.301,-0.602l-0.361,-0.542l-0.481,-0.451l-0.542,-0.391l-0.601,-0.271l-0.632,-0.18l-0.662,-0.06l-11.37,-0l-0.662,0.06l-0.631,0.18l-0.602,0.271l-0.541,0.391l-0.451,0.451l-0.391,0.542l-0.271,0.602l-0.181,0.661l-0.06,0.632l0,56.375l0.06,0.662l0.181,0.631l0.271,0.602l0.391,0.542l0.451,0.481l0.541,0.361l0.602,0.301l0.631,0.15l0.662,0.06l11.37,0l0.662,-0.06l0.632,-0.15l0.601,-0.301l0.542,-0.361l0.481,-0.481l0.361,-0.542l0.301,-0.602l0.15,-0.631l0.06,-0.662Zm85.275,-109.892l-23.702,16.576l23.702,16.575l23.673,-16.575l-23.673,-16.576Z"/></g></svg>