<?xml version="1.0" encoding="UTF-8" standalone="no"?><!DOCTYPE svg PUBLIC "-//W3C//DTD SVG 1.1//EN" "http://www.w3.org/Graphics/SVG/1.1/DTD/svg11.dtd"><svg width="100%" height="100%" viewBox="0 0 514 454" version="1.1" xmlns="http://www.w3.org/2000/svg" xmlns:xlink="http://www.w3.org/1999/xlink" xml:space="preserve" xmlns:serif="http://www.serif.com/" style="fill-rule:evenodd;clip-rule:evenodd;stroke-linejoin:round;stroke-miterlimit:2;"><g transform="matrix(50,0,0,50,350.88,262.709)"></g><text x="163.258px" y="262.709px" style="font-family:'ArialMT', 'Arial', sans-serif;font-size:50px;">sw=38.4</text><g id="_779-Overhead-Cables" serif:id="779 Overhead Cables"><path d="M227.178,17.004c6.076,-10.522 17.302,-17.004 29.452,-17.004c12.149,0 23.376,6.482 29.452,17.004c54.065,93.625 168.545,291.872 222.619,385.514c6.077,10.524 6.079,23.491 0.003,34.016c-6.075,10.525 -17.303,17.009 -29.455,17.009l-445.238,0c-12.152,0 -23.38,-6.484 -29.455,-17.009c-6.076,-10.525 -6.074,-23.492 0.003,-34.016c54.074,-93.642 168.554,-291.889 222.619,-385.514Z" style="fill:#e31837;"/><path d="M256.665,56.708l202.961,351.496l-405.922,-0l202.961,-351.496Z" style="fill:#fff;"/><path d="M266.949,292.51c0.013,-0.294 -0.003,-0.596 -0.08,-0.88c-0.08,-0.293 -0.227,-0.627 -0.4,-0.88c-0.17,-0.249 -0.397,-0.461 -0.64,-0.64c-0.253,-0.187 -0.587,-0.373 -0.88,-0.48c-0.28,-0.102 -0.582,-0.147 -0.88,-0.16c-0.306,-0.013 -0.96,0.08 -0.96,0.08l-127.424,35.525l120.945,-132.34l-25.597,76.652c0,-0 -0.16,0.653 -0.16,0.96c0,0.298 0.07,0.596 0.16,0.88c0.094,0.293 0.227,0.627 0.4,0.88c0.171,0.249 0.402,0.455 0.64,0.64c0.24,0.187 0.508,0.374 0.8,0.48c0.293,0.107 0.653,0.147 0.96,0.16c0.294,0.013 0.88,-0.08 0.88,-0.08l112.626,-31.444l-115.666,151.223l35.116,-99.615c-0,-0 0.147,-0.654 0.16,-0.961Zm7.839,-136.581c0,0 0.36,-0.12 0.48,-0.24c0.12,-0.12 0.2,-0.306 0.24,-0.48c0.04,-0.173 0.04,-0.4 0,-0.56c-0.038,-0.151 -0.124,-0.297 -0.24,-0.4c-0.12,-0.107 -0.48,-0.24 -0.48,-0.24l-6.879,-1.84c-0,-0 -0.36,-0.2 -0.48,-0.32c-0.11,-0.11 -0.202,-0.249 -0.24,-0.4c-0.04,-0.16 -0.04,-0.4 0,-0.56c0.038,-0.151 0.13,-0.29 0.24,-0.4c0.12,-0.12 0.48,-0.32 0.48,-0.32l6.879,-1.841c0,0 0.36,-0.12 0.48,-0.24c0.12,-0.12 0.2,-0.32 0.24,-0.48c0.039,-0.155 0.039,-0.325 0,-0.48c-0.04,-0.16 -0.12,-0.36 -0.24,-0.48c-0.12,-0.12 -0.48,-0.24 -0.48,-0.24l-6.879,-1.84c-0,-0 -0.36,-0.12 -0.48,-0.24c-0.12,-0.12 -0.2,-0.32 -0.24,-0.48c-0.039,-0.156 -0.039,-0.325 0,-0.481c0.04,-0.16 0.12,-0.36 0.24,-0.48c0.12,-0.12 0.48,-0.24 0.48,-0.24l6.879,-1.84c0,0 0.36,-0.12 0.48,-0.24c0.12,-0.12 0.2,-0.307 0.24,-0.48c0.04,-0.173 0.04,-0.4 0,-0.56c-0.038,-0.151 -0.124,-0.297 -0.24,-0.4c-0.12,-0.107 -0.48,-0.24 -0.48,-0.24l-6.879,-1.84c-0,-0 -0.36,-0.201 -0.48,-0.321c-0.11,-0.11 -0.202,-0.249 -0.24,-0.4c-0.04,-0.16 -0.04,-0.4 0,-0.56c0.038,-0.151 0.13,-0.29 0.24,-0.4c0.12,-0.12 0.48,-0.32 0.48,-0.32l6.879,-1.84c0,-0 0.36,-0.12 0.48,-0.24c0.12,-0.12 0.2,-0.32 0.24,-0.48c0.039,-0.155 0.039,-0.325 0,-0.48c-0.04,-0.16 -0.12,-0.36 -0.24,-0.48c-0.12,-0.12 -0.48,-0.24 -0.48,-0.24l-6.879,-1.841c-0,0 -0.36,-0.12 -0.48,-0.24c-0.12,-0.12 -0.2,-0.32 -0.24,-0.48c-0.039,-0.155 -0.039,-0.325 0,-0.48c0.04,-0.16 0.12,-0.36 0.24,-0.48c0.12,-0.12 0.48,-0.24 0.48,-0.24l6.879,-1.84c0,-0 0.36,-0.12 0.48,-0.24c0.12,-0.12 0.2,-0.32 0.24,-0.48c0.039,-0.156 0.039,-0.325 0,-0.48c-0.04,-0.16 -0.12,-0.36 -0.24,-0.48c-0.12,-0.121 -0.48,-0.241 -0.48,-0.241l-6.879,-1.84c-0,0 -0.36,-0.2 -0.48,-0.32c-0.11,-0.11 -0.202,-0.249 -0.24,-0.4c-0.04,-0.16 -0.04,-0.4 0,-0.56c0.038,-0.151 0.13,-0.29 0.24,-0.4c0.12,-0.12 0.48,-0.32 0.48,-0.32l6.879,-1.84c0,-0 0.36,-0.134 0.48,-0.24c0.116,-0.104 0.202,-0.25 0.24,-0.401c0.04,-0.16 0.04,-0.386 0,-0.56c-0.04,-0.173 -0.12,-0.36 -0.24,-0.48c-0.12,-0.12 -0.48,-0.24 -0.48,-0.24c0,0 -0.91,-0.254 -1.36,-0.4c-0.453,-0.146 -0.933,-0.28 -1.36,-0.48c-0.422,-0.198 -0.822,-0.446 -1.199,-0.72c-0.387,-0.28 -0.8,-0.613 -1.12,-0.96c-0.311,-0.337 -0.564,-0.727 -0.8,-1.12c-0.24,-0.4 -0.467,-0.84 -0.64,-1.28c-0.173,-0.44 -0.303,-0.898 -0.4,-1.361c-0.187,-0.893 -0.72,-4 -0.72,-4l-21.117,-0l-0.72,4c-0,0 -0.227,0.921 -0.4,1.361c-0.173,0.44 -0.387,0.88 -0.64,1.28c-0.253,0.4 -0.56,0.773 -0.88,1.12c-0.32,0.347 -0.667,0.68 -1.04,0.96c-0.373,0.28 -0.777,0.522 -1.2,0.72c-0.426,0.2 -0.906,0.334 -1.36,0.48c-0.449,0.146 -1.359,0.4 -1.359,0.4c-0,0 -0.36,0.12 -0.48,0.24c-0.12,0.12 -0.2,0.307 -0.24,0.48c-0.04,0.174 -0.04,0.4 -0,0.56c0.037,0.151 0.124,0.297 0.24,0.401c0.12,0.106 0.48,0.24 0.48,0.24l6.879,1.84c-0,-0 0.293,0.2 0.4,0.32c0.103,0.116 0.202,0.249 0.24,0.4c0.04,0.16 0.04,0.4 -0,0.56c-0.038,0.151 -0.137,0.284 -0.24,0.4c-0.107,0.12 -0.4,0.32 -0.4,0.32l-6.879,1.84c-0,0 -0.36,0.12 -0.48,0.241c-0.12,0.12 -0.2,0.32 -0.24,0.48c-0.039,0.155 -0.039,0.324 -0,0.48c0.04,0.16 0.12,0.36 0.24,0.48c0.12,0.12 0.48,0.24 0.48,0.24l6.879,1.84c-0,0 0.296,0.124 0.4,0.24c0.106,0.12 0.2,0.32 0.24,0.48c0.039,0.155 0.039,0.325 -0,0.48c-0.04,0.16 -0.134,0.36 -0.24,0.48c-0.104,0.117 -0.4,0.24 -0.4,0.24l-6.879,1.841c-0,-0 -0.36,0.12 -0.48,0.24c-0.12,0.12 -0.2,0.32 -0.24,0.48c-0.039,0.155 -0.039,0.325 -0,0.48c0.04,0.16 0.12,0.36 0.24,0.48c0.12,0.12 0.48,0.24 0.48,0.24l6.879,1.84c-0,0 0.293,0.2 0.4,0.32c0.103,0.116 0.202,0.249 0.24,0.4c0.04,0.16 0.04,0.4 -0,0.56c-0.038,0.151 -0.137,0.284 -0.24,0.4c-0.107,0.12 -0.4,0.321 -0.4,0.321l-6.879,1.84c-0,-0 -0.36,0.133 -0.48,0.24c-0.116,0.103 -0.203,0.249 -0.24,0.4c-0.04,0.16 -0.04,0.387 -0,0.56c0.04,0.173 0.12,0.36 0.24,0.48c0.12,0.12 0.48,0.24 0.48,0.24l6.879,1.84c-0,0 0.296,0.124 0.4,0.24c0.106,0.12 0.2,0.32 0.24,0.48c0.039,0.156 0.039,0.325 -0,0.481c-0.04,0.16 -0.134,0.36 -0.24,0.48c-0.104,0.116 -0.4,0.24 -0.4,0.24l-6.879,1.84c-0,-0 -0.36,0.12 -0.48,0.24c-0.12,0.12 -0.2,0.32 -0.24,0.48c-0.039,0.155 -0.039,0.325 -0,0.48c0.04,0.16 0.12,0.36 0.24,0.48c0.12,0.12 0.48,0.24 0.48,0.24l6.879,1.841c-0,-0 0.293,0.2 0.4,0.32c0.103,0.116 0.202,0.249 0.24,0.4c0.04,0.16 0.04,0.4 -0,0.56c-0.038,0.151 -0.137,0.284 -0.24,0.4c-0.107,0.12 -0.4,0.32 -0.4,0.32l-6.879,1.84c-0,0 -0.36,0.133 -0.48,0.24c-0.116,0.103 -0.203,0.249 -0.24,0.4c-0.04,0.16 -0.04,0.387 -0,0.56c0.04,0.174 0.12,0.36 0.24,0.48c0.12,0.12 0.48,0.24 0.48,0.24l6.879,1.841c-0,-0 0.296,0.123 0.4,0.24c0.106,0.12 0.2,0.32 0.24,0.48c0.039,0.155 0.039,0.325 -0,0.48c-0.04,0.16 -0.134,0.36 -0.24,0.48c-0.104,0.116 -0.4,0.24 -0.4,0.24l-6.879,1.84c-0,0 -0.36,0.12 -0.48,0.24c-0.12,0.12 -0.2,0.32 -0.24,0.48c-0.039,0.156 -0.039,0.325 -0,0.48c0.04,0.16 0.12,0.361 0.24,0.481c0.12,0.12 0.48,0.24 0.48,0.24l6.879,1.84c-0,-0 0.296,0.124 0.4,0.24c0.106,0.12 0.186,0.32 0.24,0.48c0.051,0.154 0.106,0.32 0.08,0.48c-0.027,0.16 -0.24,0.48 -0.24,0.48c-0,0 -1.067,1.187 -1.52,1.84c-0.453,0.654 -0.84,1.374 -1.2,2.081c-0.358,0.702 -0.695,1.418 -0.96,2.16c-0.267,0.747 -0.64,2.32 -0.64,2.32l7.519,0c0,0 0.2,1.774 0.4,2.641c0.2,0.867 0.48,1.733 0.8,2.56c0.319,0.824 0.683,1.633 1.12,2.401c0.44,0.773 0.973,1.533 1.52,2.24c0.543,0.702 1.133,1.373 1.76,2c0.626,0.627 1.999,1.76 1.999,1.76c0,0 1.373,-1.133 2,-1.76c0.627,-0.627 1.227,-1.293 1.76,-2c0.533,-0.707 1.001,-1.469 1.44,-2.24c0.44,-0.774 0.88,-1.574 1.199,-2.401c0.32,-0.827 0.534,-1.694 0.72,-2.56c0.187,-0.867 0.4,-2.641 0.4,-2.641l7.599,0c0,0 -0.373,-1.573 -0.64,-2.32c-0.265,-0.742 -0.602,-1.458 -0.959,-2.16c-0.36,-0.707 -0.747,-1.427 -1.2,-2.081c-0.454,-0.653 -1.52,-1.84 -1.52,-1.84c-0,0 -0.2,-0.32 -0.24,-0.48c-0.039,-0.155 -0.053,-0.333 -0,-0.48c0.053,-0.147 0.2,-0.28 0.32,-0.4c0.12,-0.12 0.4,-0.32 0.4,-0.32l6.879,-1.84c-0,-0 0.36,-0.12 0.48,-0.24c0.12,-0.12 0.2,-0.321 0.24,-0.481c0.039,-0.155 0.039,-0.324 -0,-0.48c-0.04,-0.16 -0.12,-0.36 -0.24,-0.48c-0.12,-0.12 -0.48,-0.24 -0.48,-0.24l-6.879,-1.84c-0,-0 -0.36,-0.12 -0.48,-0.24c-0.12,-0.12 -0.2,-0.32 -0.24,-0.48c-0.039,-0.155 -0.039,-0.325 -0,-0.48c0.04,-0.16 0.12,-0.36 0.24,-0.48c0.12,-0.12 0.48,-0.24 0.48,-0.24l6.879,-1.841Z"/></g></svg>