<?xml version="1.0" encoding="UTF-8" standalone="no"?><!DOCTYPE svg PUBLIC "-//W3C//DTD SVG 1.1//EN" "http://www.w3.org/Graphics/SVG/1.1/DTD/svg11.dtd"><svg width="100%" height="100%" viewBox="0 0 757 284" version="1.1" xmlns="http://www.w3.org/2000/svg" xmlns:xlink="http://www.w3.org/1999/xlink" xml:space="preserve" xmlns:serif="http://www.serif.com/" style="fill-rule:evenodd;clip-rule:evenodd;stroke-linejoin:round;stroke-miterlimit:2;"><g transform="matrix(50,0,0,50,451.703,159.41)"></g><text x="305.78px" y="159.41px" style="font-family:'ArialMT', 'Arial', sans-serif;font-size:50px;">sw=24</text><rect id="_14FT-3IN-4.3M" serif:id="14FT 3IN 4.3M" x="0" y="0" width="756.604" height="283.469" style="fill:none;"/><g><path d="M756.604,35.433c0,-19.556 -15.877,-35.433 -35.433,-35.433l-685.738,0c-19.556,0 -35.433,15.877 -35.433,35.433l0,212.602c0,19.556 15.877,35.434 35.433,35.434l685.738,-0c19.556,-0 35.433,-15.878 35.433,-35.434l0,-212.602Z"/><path d="M738.888,35.435c-0,-9.778 -7.939,-17.716 -17.717,-17.716l-685.738,-0c-9.778,-0 -17.716,7.938 -17.716,17.716l-0,212.602c-0,9.778 7.938,17.717 17.716,17.717l685.738,-0c9.778,-0 17.717,-7.939 17.717,-17.717l-0,-212.602Z" style="fill:#fff;"/><g><g><g><rect id="path1806" x="272.428" y="47.246" width="52.909" height="94.488" style="fill:#fff;"/><path id="path1808" d="M297.927,69.656l-2.42,0.17l-2.41,0.41l-2.34,0.75l-2.249,1.09l-2.08,1.25l-2.25,1.66l-2.08,2l-1.75,2.25l-1.42,2.419l-1.171,3l-0.83,3.17l-0.5,3.16l-0.17,3.25l0.251,3.25l0.59,3.17l0.91,3.08l1.169,3l1.08,2.17l1.42,2l1.499,1.83l1.83,1.67l1.92,1.41l2.08,1.25l2.25,0.92l2.34,0.67l2.99,0.579l3.09,0.251l3.08,-0.083l3.08,-0.34l3,-0.66l2.34,-0.84l2.16,-1.079l2,-1.421l1.83,-1.669l1.67,-1.83l-8,-8.08l-1.83,1.67l-2.08,1.33l-2.25,1l-2.17,0.58l-2.17,0.17l-2.16,-0.083l-2.17,-0.42l-2.08,-0.75l-1.42,-0.92l-1.25,-1.16l-1,-1.34l-0.75,-1.5l-0.41,-1.66l-0.17,-1.67l31.499,0l-0.17,-3.92l-0.42,-3.91l-0.83,-3.83l-1.171,-3.75l-1.079,-2.5l-1.42,-2.25l-1.66,-2.169l-2,-1.83l-2.17,-1.59l-2.08,-1.25l-2.25,-0.91l-2.42,-0.669l-2.42,-0.421l-2.408,-0.075Zm-0.25,10.749l1.66,0l1.67,0.33l1.58,0.589l1.42,0.831l1.33,1.079l1.09,1.25l0.83,1.42l0.58,1.58l0.251,1.67l-19.16,0l0.25,-1.67l0.58,-1.58l0.84,-1.42l1.08,-1.25l1.329,-1.079l1.42,-0.831l1.58,-0.589l1.67,-0.33Z" style="fill:#010001;fill-rule:nonzero;"/></g><g id="S"><rect id="path1618" x="111.031" y="47.246" width="69.819" height="94.488" style="fill:#fff;"/><path id="path1620" d="M152.52,92.655l1.5,0.58l1.25,0.84l1.08,1.16l0.75,1.34l0.42,1.41l0.083,1.59l-0.251,1.5l-0.66,1.41l-0.92,1.25l-1.42,1.17l-1.58,0.909l-1.75,0.67l-1.83,0.33l-4.5,-0l-2.58,-0.33l-2.5,-0.499l-2.42,-0.831l-2.42,-1.079l-2.83,-1.84l-2.669,-2l-2.41,-2.33l-11.5,8.83l2.42,2.5l2.58,2.33l2.75,2.09l2.91,1.829l3.169,1.5l3.581,1.171l3.749,0.83l3.75,0.58l3.75,0.251l3.83,-0.083l3.75,-0.33l3.75,-0.669l3.67,-1.001l2.5,-1l2.33,-1.33l2.17,-1.67l1.92,-1.92l1.66,-2.16l1.34,-2.34l0.99,-2.49l0.669,-2.67l0.251,-2.67l-0.083,-2.66l-0.421,-2.75l-0.75,-2.59l-1.159,-2.409l-1.5,-2l-1.75,-1.75l-1.84,-1.59l-2.08,-1.41l-2.17,-1.171l-2.08,-0.83l-2.17,-0.67l-15.49,-3.83l-1.09,-0.42l-1,-0.66l-0.831,-0.92l-0.669,-1.001l-0.33,-1.079l-0.17,-1.17l0.094,-1.17l0.41,-1.16l0.59,-1l1.33,-1.34l1.5,-1.001l1.75,-0.75l1.83,-0.41l1.84,-0.17l2.739,0.17l2.67,0.41l2.67,0.75l2.5,0.92l2.41,1.25l2.34,1.5l2.08,1.75l10.25,-9.33l-2.75,-2.42l-2.92,-2.08l-3.16,-1.839l-3.25,-1.58l-3.42,-1.16l-3.58,-0.92l-3.59,-0.5l-3.66,-0.17l-3.579,0.17l-3.59,0.5l-3.58,0.92l-2.58,1l-2.42,1.24l-2.25,1.59l-2.08,1.83l-1.84,2l-1.41,2l-1.09,2.17l-0.83,2.25l-0.58,2.33l-0.17,2.42l0.082,2.41l0.421,2.42l0.75,2.25l1,2.25l1.25,2l1.58,1.909l1.75,1.59l2.5,1.66l2.75,1.171l2.92,0.75l15.574,3.502Z" style="fill:#010001;fill-rule:nonzero;"/></g><g><rect id="path1814" x="234.179" y="47.246" width="38.249" height="94.488" style="fill:#fff;"/><path id="path1816" d="M257.598,70.576l9.16,-0l-0,10.659l-9.16,0l0,36.92l-12.92,-0l0,-36.92l-7.58,0l0,-10.659l7.58,-0l0,-6.92l0.17,-1.91l0.41,-1.92l0.84,-1.75l1,-1.67l1.331,-1.41l1.5,-1.25l1.669,-1l1.83,-0.67l1.92,-0.33l3.66,-0.094l3.67,0.17l3.58,0.42l3.58,0.75l-2.33,10.5l-3,-0.34l-3.17,0l-0.909,0.095l-0.92,0.409l-0.831,0.591l-0.579,0.75l-0.421,0.911l-0.094,1l0.014,3.668Z" style="fill:#010001;fill-rule:nonzero;"/></g><g><rect id="path1698" x="180.85" y="47.246" width="53.329" height="94.488" style="fill:#fff;"/><path id="path1700" d="M205.679,68.996l-3.08,0.16l-3,0.58l-3.75,1.09l-3.67,1.41l-3.5,1.67l-3.41,1.92l6.33,9.66l2.58,-1.58l2.67,-1.25l2.83,-1l2.92,-0.75l3,-0.421l1.66,-0.082l1.75,0.329l1.58,0.589l0.92,0.58l0.75,0.831l0.5,0.92l0.17,1.079l-0,3l-4.17,0.17l-4.08,0.5l-4.08,0.75l-4,1.08l-3.92,1.419l-1.66,1.001l-1.59,1.25l-1.42,1.5l-1.16,1.58l-0.92,1.83l-0.66,1.92l-0.34,2l-0.083,2l0.17,2l0.491,1.92l0.759,1.909l1,1.75l1.24,1.59l1.42,1.41l1.67,1.171l2.41,1.16l2.59,0.92l2.75,0.589l2.75,0.33l2.75,-0.083l2.66,-0.34l2.67,-0.66l1.42,-0.67l1.33,-0.83l1.079,-1.001l0.92,-1.25l1.001,1.33l1.25,1.001l1.42,0.75l2.58,1l2.66,0.58l2.75,0.329l4.589,-10.079l-1.09,-0l-1.079,-0.16l-1.08,-0.5l-0.84,-0.669l-0.66,-0.92l-0.42,-1.001l-0.17,-1.16l-0,-22.329l-0.161,-1.84l-0.42,-1.83l-0.75,-1.67l-0.92,-1.58l-1.25,-1.5l-1.41,-1.17l-1.59,-1.001l-2.25,-0.99l-2.41,-0.839l-2.92,-0.831l-3.08,-0.42l-2.996,-0.151Zm7.25,28.069l-0,6.75l-0.17,1.25l-0.58,1.17l-0.75,1.001l-1.09,0.75l-1.16,0.42l-2.33,0.33l-2.34,-0l-2.33,-0.33l-1.17,-0.42l-1.001,-0.75l-0.83,-0.92l-0.58,-1.08l-0.34,-1.079l-0,-1.171l0.34,-1.17l0.58,-0.911l0.83,-0.84l1.001,-0.58l3.919,-1l2.28,-0.47l1.72,-0.36l4.001,-0.59Z" style="fill:#010001;fill-rule:nonzero;"/></g></g><g><g><rect id="path18061" serif:id="path1806" x="411.933" y="47.246" width="52.909" height="94.488" style="fill:#fff;"/><path id="path18081" serif:id="path1808" d="M437.433,69.656l-2.42,0.17l-2.41,0.41l-2.34,0.75l-2.25,1.09l-2.08,1.25l-2.25,1.66l-2.08,2l-1.75,2.25l-1.42,2.419l-1.17,3l-0.831,3.17l-0.499,3.16l-0.17,3.25l0.25,3.25l0.591,3.17l0.909,3.08l1.169,3l1.08,2.17l1.42,2l1.5,1.83l1.83,1.67l1.92,1.41l2.08,1.25l2.25,0.92l2.34,0.67l2.99,0.579l3.09,0.251l3.079,-0.083l3.08,-0.34l3,-0.66l2.34,-0.84l2.16,-1.079l2,-1.421l1.83,-1.669l1.67,-1.83l-8,-8.08l-1.83,1.67l-2.08,1.33l-2.25,1l-2.169,0.58l-2.17,0.17l-2.16,-0.083l-2.17,-0.42l-2.08,-0.75l-1.42,-0.92l-1.25,-1.16l-1.001,-1.34l-0.75,-1.5l-0.409,-1.66l-0.171,-1.67l31.5,0l-0.17,-3.92l-0.421,-3.91l-0.83,-3.83l-1.17,-3.75l-1.08,-2.5l-1.42,-2.25l-1.66,-2.169l-2,-1.83l-2.17,-1.59l-2.08,-1.25l-2.25,-0.91l-2.42,-0.669l-2.42,-0.421l-2.407,-0.075Zm-0.251,10.749l1.66,0l1.67,0.33l1.58,0.589l1.42,0.831l1.33,1.079l1.09,1.25l0.831,1.42l0.58,1.58l0.25,1.67l-19.16,0l0.251,-1.67l0.58,-1.58l0.839,-1.42l1.08,-1.25l1.33,-1.079l1.42,-0.831l1.58,-0.589l1.669,-0.33Z" style="fill:#010001;fill-rule:nonzero;"/></g><g><rect id="path1790" x="464.842" y="47.242" width="26.92" height="94.488" style="fill:#fff;"/><path id="path1792" d="M477.592,51.492l-1.42,0.16l-1.41,0.42l-1.25,0.67l-1.17,0.909l-0.92,1.171l-0.661,1.25l-0.42,1.42l-0.17,1.409l0.17,1.421l0.42,1.419l0.661,1.33l0.92,1.08l1.17,0.92l1.25,0.66l1.41,0.421l1.42,0.17l1.42,-0.17l1.41,-0.421l1.25,-0.66l1.17,-0.92l0.921,-1.08l0.66,-1.33l0.42,-1.419l0.17,-1.421l-0.17,-1.409l-0.42,-1.42l-0.66,-1.25l-0.921,-1.171l-1.17,-0.909l-1.25,-0.67l-1.41,-0.42l-1.42,-0.16Zm-6.5,19.41l0,47.239l12.92,-0l-0,-47.239l-12.92,-0Z" style="fill:#010001;fill-rule:nonzero;"/></g><g><rect id="path1794" x="354.864" y="47.242" width="57.069" height="94.488" style="fill:#fff;"/><path id="path1796" d="M390.354,85.151l-1.001,-1.42l-1.25,-1.079l-1.75,-0.75l-1.91,-0.33l-1.92,0.083l-1.83,0.421l-1.84,0.66l-1.499,1l-1.331,1.25l-1,1.5l-0.67,1.59l-0.16,1.66l-0,28.42l-12.92,-0l0,-66.159l12.92,-0l-0,22.239l1.91,-1.5l2,-1.16l2.25,-0.92l2.34,-0.669l2.33,-0.251l2.42,0l2.749,0.5l2.41,0.84l2.33,1.16l2.09,1.419l1.91,1.67l1.67,1.91l1.42,2.17l1.08,2.5l0.75,2.58l0.42,2.67l0.161,2.75l-0,28.25l-12.91,-0l12.91,-0l-12.91,-0l0,-28.17l-0.094,-1.66l-0.41,-1.67l-0.665,-1.504Z" style="fill:#010001;fill-rule:nonzero;"/></g><g><rect id="path17941" serif:id="path1794" x="547.921" y="47.242" width="57.069" height="94.488" style="fill:#fff;"/><path id="path17961" serif:id="path1796" d="M583.41,85.151l-1,-1.42l-1.25,-1.079l-1.75,-0.75l-1.91,-0.33l-1.92,0.083l-1.83,0.421l-1.84,0.66l-1.5,1l-1.33,1.25l-1.001,1.5l-0.669,1.59l-0.161,1.66l0,28.42l-12.92,-0l0,-66.159l12.92,-0l0,22.239l1.91,-1.5l2,-1.16l2.25,-0.92l2.34,-0.669l2.33,-0.251l2.42,0l2.75,0.5l2.41,0.84l2.33,1.16l2.09,1.419l1.91,1.67l1.67,1.91l1.42,2.17l1.079,2.5l0.75,2.58l0.421,2.67l0.16,2.75l0,28.25l-12.91,-0l12.91,-0l-12.91,-0l0,-28.17l-0.094,-1.66l-0.41,-1.67l-0.665,-1.504Z" style="fill:#010001;fill-rule:nonzero;"/></g><g><rect id="path1810" x="491.762" y="47.242" width="56.159" height="94.488" style="fill:#fff;"/><path id="path1812" d="M516.091,70.232l-2.839,0.17l-2.751,0.499l-2.659,0.92l-1.92,0.91l-1.83,1.17l-1.75,1.33l-1.5,1.59l-1.34,1.66l-1.33,2.42l-1.001,2.58l-0.83,2.59l-0.67,2.58l-0.409,2.67l-0.095,2.75l0.25,2.66l0.5,2.67l0.75,2.58l1,2.33l1.25,2.25l1.5,2.09l1.84,1.83l1.99,1.58l2.34,1.42l2.5,1.079l2.66,0.75l2.67,0.33l2.92,0.17l2.91,-0.33l2.84,-0.58l2.16,-0.75l2.09,-1.09l-0,2.5l-0.17,1.42l-0.5,1.33l-0.75,1.17l-1,1.001l-1.171,0.75l-1.33,0.42l-3.5,0.33l-3.919,-0.095l-3.91,-0.49l-2.42,-0.59l-2.42,-0.75l-2.25,-1.08l-2.16,-1.34l-6.08,10.42l3.83,1.83l4,1.42l4,1.17l4.16,0.91l3.25,0.25l3.34,0.095l3.249,-0.251l3.33,-0.589l2.67,-0.66l2.58,-1.001l2.41,-1.34l2.25,-1.66l1.59,-1.59l1.25,-1.83l1.08,-2l0.75,-2.08l0.499,-2.169l0.17,-2.25l0,-45.41l-12.829,0l-0,2.42l-1.75,-1.17l-1.92,-0.83l-2,-0.5l-2.75,-0.5l-2.825,-0.089Zm1.66,11.249l2.09,0.171l1.91,0.579l1.92,0.84l1.08,0.75l1,1.001l0.75,1.159l0.5,1.25l0.34,1.33l-0,7.51l-0.34,1.74l-0.5,1.75l-0.58,1.26l-0.83,1.08l-1.09,0.83l-1.16,0.67l-1.75,0.58l-1.75,0.25l-1.84,0l-1.75,-0.25l-1.75,-0.5l-1.41,-0.67l-1.34,-0.909l-1.079,-1.171l-0.831,-1.33l-0.499,-1.42l-0.5,-1.91l-0.25,-1.999l0.082,-2l0.251,-1.92l0.58,-2.17l0.92,-2l0.669,-1.25l0.92,-1.08l1.08,-0.83l1.16,-0.67l2,-0.499l1.997,-0.172Z" style="fill:#010001;fill-rule:nonzero;"/></g><g><rect id="path1670" x="604.99" y="47.242" width="40.584" height="94.488" style="fill:#fff;"/><path id="path1672" d="M634.992,107.817l2.41,-0.41l2.341,-0.67l2.83,10.751l-3.5,1l-3.581,0.66l-3.59,0.34l-3.66,0.083l-3.591,-0.33l-1.75,-0.34l-1.74,-0.75l-1.5,-1l-1.34,-1.25l-1.081,-1.41l-0.75,-1.671l-0.5,-1.75l-0.171,-1.83l0,-28.002l-7.58,-0l-0,-10.751l7.58,-0l0,-14.741l12.921,-3.751l0,18.492l12.001,-0l0,10.751l-12.001,-0l0,23.002l0.083,1l0.42,0.92l0.58,0.75l0.83,0.581l0.92,0.419l0.92,0.083l2.499,-0.176Z" style="fill:#010001;fill-rule:nonzero;"/></g></g></g><g><g><g><rect id="path1878" x="87.823" y="153.545" width="66.159" height="94.488" style="fill:#fff;"/><path id="path1880" d="M121.983,158.295l-32.16,42.489l0,12.25l35.91,0l-0,11.33l13.579,-0l0,-11.33l8.5,0l0,-12.25l-8.5,0l0,-42.489l-17.329,0Zm3.75,14.83l-0,27.659l-20.91,0l20.91,-27.659Z" style="fill:#010001;fill-rule:nonzero;"/></g><g><rect id="path1858" x="196.481" y="153.545" width="65.159" height="94.488" style="fill:#fff;"/><path id="path1860" d="M201.651,176.875l0.58,-2.58l0.92,-2.59l1.16,-2.33l1.42,-2.25l1.67,-2.08l1.91,-1.84l2.17,-1.66l2.58,-1.5l2.84,-1.25l2.83,-1l3,-0.67l2.999,-0.33l3.08,-0.09l3,0.25l3,0.59l2.92,0.83l2.83,1.08l2.17,1.17l2,1.33l1.83,1.59l1.58,1.83l1.34,2l1.08,2.17l0.75,2.25l0.5,2.33l0.25,2.42l-0.25,2.66l-0.42,2.67l-0.75,2.58l-0.83,1.58l-1.17,1.42l-1.33,1.17l-1.5,0.91l-1.67,0.67l1.92,0.83l1.83,1.09l1.5,1.409l1.25,1.67l0.92,1.83l0.75,3.42l0.33,3.42l-0.17,3.41l-0.5,3.33l-0.58,2.25l-0.91,2.17l-1.09,2.08l-1.41,1.92l-1.59,1.67l-1.83,1.5l-2,1.16l-2.17,1l-2.25,0.67l-4.41,0.67l-4.42,0.25l-4.499,-0.09l-4.41,-0.5l-2.5,-0.58l-2.5,-0.83l-2.25,-1.09l-2.25,-1.41l-1.92,-1.67l-2.17,-2.67l-1.83,-2.91l-1.42,-3.09l-1.16,-3.25l-0.75,-3.33l13.5,-2.16l0.58,2.16l0.83,2.09l1.17,1.99l1.5,1.67l1.67,1.5l1.75,0.83l1.83,0.59l1.909,0.41l1.92,0.09l2.17,-0.09l2.16,-0.5l2,-0.91l1.92,-1.17l1.08,-1.25l0.84,-1.42l0.5,-1.66l0.16,-2.17l-0.08,-1.41l-0.33,-1.34l-0.67,-1.33l-0.83,-1.17l-1.09,-0.91l-1.16,-0.75l-1.92,-0.5l-2,-0.25l-8.329,-0.5l-0,-11.999l6.579,-0.5l2.25,-0.34l2.25,-0.66l1.67,-0.92l1.5,-1.25l0.83,-1.25l0.5,-1.41l0.17,-1.42l-0.17,-1.5l-0.5,-1.42l-1,-1.33l-1.17,-1.25l-1.41,-0.92l-1.5,-0.66l-2.25,-0.42l-2.25,-0.17l-2.25,0.17l-2.249,0.42l-2.17,0.66l-2.08,1l-1.42,1.17l-1.16,1.33l-0.84,1.59l-0.58,1.66l-0.33,1.84l-13.5,-1.92Z" style="fill:#010001;fill-rule:nonzero;"/></g><g><rect id="path1874" x="47.244" y="153.545" width="40.579" height="94.488" style="fill:#fff;"/><path id="path1876" d="M63.074,179.625l-11,-0l-0,-11.33l5.42,-0.5l1.67,-0.42l1.5,-0.75l1.33,-1.08l0.92,-1.42l0.66,-1.5l1.09,-4.42l11.99,0l-0,66.159l-13.58,-0l-0,-44.739Z" style="fill:#010001;fill-rule:nonzero;"/></g><g><rect id="path1766" x="153.982" y="153.545" width="42.499" height="94.488" style="fill:#fff;"/><path id="path1768" d="M167.732,154.295l-10.5,18.17l14.17,-0l10.499,-18.17l-14.169,0Zm-2.25,26.67l-0,11.33l22.669,-0l0,-11.33l-22.669,-0Z" style="fill:#010001;fill-rule:nonzero;"/></g><g><rect id="path1774" x="261.64" y="153.545" width="48.659" height="94.488" style="fill:#fff;"/><path id="path1776" d="M275.39,154.295l-10.5,18.17l14.16,-0l10.499,-18.17l-14.159,0Zm18.909,0l-10.499,18.17l14.169,-0l10.5,-18.17l-14.17,0Z" style="fill:#010001;fill-rule:nonzero;"/></g></g><g><g><rect id="path18781" serif:id="path1878" x="395.082" y="153.545" width="66.159" height="94.488" style="fill:#fff;"/><path id="path18801" serif:id="path1880" d="M429.242,158.295l-32.16,42.489l0,12.25l35.91,0l-0,11.33l13.579,-0l0,-11.33l8.5,0l0,-12.25l-8.5,0l0,-42.489l-17.329,0Zm3.75,14.83l-0,27.659l-20.91,0l20.91,-27.659Z" style="fill:#010001;fill-rule:nonzero;"/></g><g><rect id="path18581" serif:id="path1858" x="488.571" y="153.545" width="65.159" height="94.488" style="fill:#fff;"/><path id="path18601" serif:id="path1860" d="M493.74,176.875l0.58,-2.58l0.92,-2.59l1.16,-2.33l1.42,-2.25l1.67,-2.08l1.91,-1.84l2.17,-1.66l2.58,-1.5l2.84,-1.25l2.83,-1l3,-0.67l3,-0.33l3.08,-0.09l3,0.25l3,0.59l2.92,0.83l2.83,1.08l2.17,1.17l2,1.33l1.83,1.59l1.58,1.83l1.34,2l1.08,2.17l0.75,2.25l0.5,2.33l0.25,2.42l-0.25,2.66l-0.42,2.67l-0.75,2.58l-0.83,1.58l-1.17,1.42l-1.33,1.17l-1.5,0.91l-1.67,0.67l1.92,0.83l1.83,1.09l1.5,1.409l1.25,1.67l0.92,1.83l0.75,3.42l0.33,3.42l-0.17,3.41l-0.5,3.33l-0.58,2.25l-0.91,2.17l-1.09,2.08l-1.41,1.92l-1.59,1.67l-1.83,1.5l-2,1.16l-2.17,1l-2.25,0.67l-4.41,0.67l-4.42,0.25l-4.5,-0.09l-4.41,-0.5l-2.5,-0.58l-2.5,-0.83l-2.25,-1.09l-2.25,-1.41l-1.92,-1.67l-2.17,-2.67l-1.83,-2.91l-1.42,-3.09l-1.16,-3.25l-0.75,-3.33l13.5,-2.16l0.58,2.16l0.83,2.09l1.17,1.99l1.5,1.67l1.67,1.5l1.75,0.83l1.83,0.59l1.91,0.41l1.92,0.09l2.17,-0.09l2.16,-0.5l2,-0.91l1.92,-1.17l1.08,-1.25l0.84,-1.42l0.5,-1.66l0.16,-2.17l-0.08,-1.41l-0.33,-1.34l-0.67,-1.33l-0.83,-1.17l-1.09,-0.91l-1.16,-0.75l-1.92,-0.5l-2,-0.25l-8.33,-0.5l0,-11.999l6.58,-0.5l2.25,-0.34l2.25,-0.66l1.67,-0.92l1.5,-1.25l0.83,-1.25l0.5,-1.41l0.17,-1.42l-0.17,-1.5l-0.5,-1.42l-1,-1.33l-1.17,-1.25l-1.41,-0.92l-1.5,-0.66l-2.25,-0.42l-2.25,-0.17l-2.25,0.17l-2.25,0.42l-2.17,0.66l-2.08,1l-1.42,1.17l-1.16,1.33l-0.84,1.59l-0.58,1.66l-0.33,1.84l-13.5,-1.92Z" style="fill:#010001;fill-rule:nonzero;"/></g><g><rect id="path1722" x="461.241" y="153.545" width="27.33" height="94.488" style="fill:#fff;"/><path id="path1724" d="M482.411,219.704l-0.171,-1.58l-0.5,-1.5l-0.829,-1.33l-1.171,-1.09l-1.33,-0.83l-1.5,-0.58l-1.58,-0.17l-1.59,0.17l-1.41,0.58l-1.42,0.83l-1.08,1.09l-0.839,1.33l-0.5,1.5l-0.25,1.58l0.25,1.59l0.5,1.5l0.839,1.33l1.08,1.17l1.42,0.83l1.41,0.5l1.59,0.17l1.58,-0.17l1.5,-0.5l1.33,-0.83l1.171,-1.17l0.829,-1.33l0.5,-1.5l0.171,-1.59Z" style="fill:#010001;fill-rule:nonzero;"/></g><g><rect id="path1710" x="339.827" y="153.542" width="55.256" height="94.492" style="fill:#fff;"/><path id="path1712" d="M374.155,236.281l5.337,-9.175l-3.078,-1.998l-2.838,-2.169l-2.669,-2.419l-2.418,-2.658l-2.159,-2.838l-1.919,-3.078l-1.669,-3.168l-1.418,-3.338l-1.079,-3.418l-0.749,-3.498l-0.5,-3.588l-0.17,-3.578l0.17,-3.587l0.5,-3.588l0.749,-3.498l1.079,-3.418l1.418,-3.328l1.669,-3.168l1.919,-3.088l2.159,-2.828l2.418,-2.668l2.669,-2.419l2.838,-2.169l3.078,-1.918l-5.337,-9.165l-7.745,4.997l-3.168,2.339l-2.998,2.498l-2.748,2.838l-2.589,2.999l-2.248,3.168l-1.999,3.417l-1.749,3.498l-1.419,3.668l-1.17,3.748l-0.749,3.837l-0.5,3.918l-0.17,3.917l0.17,3.918l0.5,3.918l0.749,3.827l1.17,3.748l1.419,3.668l1.749,3.588l1.999,3.337l2.248,3.248l2.589,2.999l2.748,2.748l2.998,2.498l3.168,2.339l7.745,5.087Z" style="fill:#010001;fill-rule:nonzero;"/></g><g><rect id="path17101" serif:id="path1710" x="654.104" y="153.542" width="55.256" height="94.492" style="fill:#fff;"/><path id="path17121" serif:id="path1712" d="M675.031,236.281l-5.336,-9.175l3.078,-1.998l2.838,-2.169l2.668,-2.419l2.419,-2.658l2.159,-2.838l1.918,-3.078l1.669,-3.168l1.419,-3.338l1.079,-3.418l0.749,-3.498l0.5,-3.588l0.17,-3.578l-0.17,-3.587l-0.5,-3.588l-0.749,-3.498l-1.079,-3.418l-1.419,-3.328l-1.669,-3.168l-1.918,-3.088l-2.159,-2.828l-2.419,-2.668l-2.668,-2.419l-2.838,-2.169l-3.078,-1.918l5.336,-9.165l7.745,4.997l3.169,2.339l2.998,2.498l2.748,2.838l2.588,2.999l2.249,3.168l1.999,3.417l1.749,3.498l1.419,3.668l1.169,3.748l0.749,3.837l0.5,3.918l0.17,3.917l-0.17,3.918l-0.5,3.918l-0.749,3.827l-1.169,3.748l-1.419,3.668l-1.749,3.588l-1.999,3.337l-2.249,3.248l-2.588,2.999l-2.748,2.748l-2.998,2.498l-3.169,2.339l-7.745,5.087Z" style="fill:#010001;fill-rule:nonzero;"/></g><g><rect id="path1746" x="571.446" y="153.545" width="82.658" height="94.488" style="fill:#fff;"/><path id="path1748" d="M642.355,183.535l-1.67,-1.91l-1.92,-1.67l-2.08,-1.42l-2.25,-1.16l-2.41,-0.84l-2.75,-0.499l-2.09,-0.083l-2.08,0.25l-2.08,0.421l-1.92,0.66l-1.92,0.92l-1.75,1.25l-1.58,1.42l-1.42,1.66l-1.16,-1.83l-1.42,-1.5l-1.66,-1.25l-1.92,-0.92l-1.5,-0.5l-2.75,-0.499l-2.42,-0.083l-2.33,0.33l-2.329,0.59l-2.171,0.91l-2.079,1.25l-1.92,1.5l-0,-3.33l-12.91,-0l-0,47.159l12.91,-0l-0,-28.33l0.17,-1.66l0.66,-1.59l1,-1.5l1.34,-1.25l1.5,-1l2.66,-0.909l1.001,-0.095l0.92,0.095l0.42,0.082l1.75,0.75l1.25,1.08l1.001,1.34l0.66,1.58l0.42,1.67l0.083,1.66l-0,28.079l12.92,0l-0,-28.329l0.16,-1.66l0.59,-1.59l1.079,-1.5l1.33,-1.25l1.5,-1.001l2.67,-0.909l0.92,-0.095l1.001,0.095l0.329,0.083l1.75,0.75l1.25,1.079l1.08,1.34l0.669,1.58l0.33,1.67l0.094,1.66l0,28.079l12.91,0l-12.91,0l12.91,0l0,-28.159l-0.083,-2.75l-0.499,-2.67l-0.75,-2.58l-1.09,-2.5l-1.416,-2.171Z" style="fill:#010001;fill-rule:nonzero;"/></g></g></g></g></svg>