<?xml version="1.0" encoding="UTF-8" standalone="no"?><!DOCTYPE svg PUBLIC "-//W3C//DTD SVG 1.1//EN" "http://www.w3.org/Graphics/SVG/1.1/DTD/svg11.dtd"><svg width="100%" height="100%" viewBox="0 0 1001 461" version="1.1" xmlns="http://www.w3.org/2000/svg" xmlns:xlink="http://www.w3.org/1999/xlink" xml:space="preserve" xmlns:serif="http://www.serif.com/" style="fill-rule:evenodd;clip-rule:evenodd;stroke-linejoin:round;stroke-miterlimit:2;"><g transform="matrix(50,0,0,50,363.234,362.05)"></g><text x="217.311px" y="362.05px" style="font-family:'ArialMT', 'Arial', sans-serif;font-size:50px;">sw=39</text><rect id="LONG-LOW" serif:id="LONG LOW" x="0" y="0" width="1000.75" height="460.63" style="fill:none;"/><clipPath id="_clip1"><rect id="LONG-LOW1" serif:id="LONG LOW" x="0" y="0" width="1000.75" height="460.63"/></clipPath><g clip-path="url(#_clip1)"><g><path d="M1000.77,35.433c0,-19.556 -15.877,-35.433 -35.433,-35.433l-929.902,0c-19.556,0 -35.433,15.877 -35.433,35.433l0,389.764c0,19.556 15.877,35.433 35.433,35.433l929.902,-0c19.556,-0 35.433,-15.877 35.433,-35.433l0,-389.764Z" style="fill:#fff;"/><path d="M1000.77,35.433l0,389.764c0,19.556 -15.877,35.433 -35.433,35.433l-929.902,-0c-19.556,-0 -35.433,-15.877 -35.433,-35.433l-0,-389.764c-0,-19.556 15.877,-35.433 35.433,-35.433l929.902,0c19.556,0 35.433,15.877 35.433,35.433Zm-2.953,0c0,-17.926 -14.554,-32.48 -32.48,-32.48l-929.902,-0c-17.926,-0 -32.48,14.554 -32.48,32.48l-0,389.764c-0,17.926 14.554,32.48 32.48,32.48l929.902,0c17.926,0 32.48,-14.554 32.48,-32.48l0,-389.764Z" style="fill:#0079c1;"/><path d="M983.052,35.433c-0,-9.778 -7.939,-17.716 -17.717,-17.716l-929.902,-0c-9.778,-0 -17.716,7.938 -17.716,17.716l-0,389.764c-0,9.778 7.938,17.716 17.716,17.716l929.902,0c9.778,0 17.717,-7.938 17.717,-17.716l-0,-389.764Z" style="fill:#0079c1;"/><g><g><g><g><rect id="rect2555-7-1" x="223.805" y="47.244" width="62.327" height="94.488" style="fill:#0079c1;"/><path id="path1014" d="M247.886,118.069l-19.498,-66.075l11.332,-0l15.081,51.16l15.082,-51.16l11.415,-0l-19.581,66.075l-13.831,-0Z" style="fill:#fff;fill-rule:nonzero;"/></g><g><rect id="rect2587-3" x="416.866" y="47.244" width="65.574" height="94.488" style="fill:#0079c1;"/><path id="path1068" d="M474.109,99.071l-0,-2.416l-0.334,-2.5l-0.666,-2.333l-1,-2.25l-1.333,-2.083l-1.583,-1.833l-1.917,-1.666l-2.083,-1.25l-2.25,-1l-2.333,-0.667l-17.997,-4.166l-1.417,-0.417l-1.25,-0.833l-1.166,-1l-0.917,-1.25l-0.583,-1.333l-0.334,-1.5l-0.166,-1.583l0.166,-1.583l0.417,-1.5l0.833,-1.416l1,-1.167l1.25,-0.916l1.5,-0.667l2.25,-0.667l2.333,-0.416l2.333,-0.167l2.333,0.084l2.333,0.416l2.166,0.667l2,0.917l1.916,1.166l1.667,1.417l1.5,1.666l1.249,1.916l8.833,-7.165l-1.583,-2.167l-1.75,-1.916l-2.083,-1.75l-2.167,-1.5l-2.416,-1.166l-2.5,-0.917l-2.583,-0.583l-3.333,-0.583l-3.333,-0.25l-3.333,-0l-3.332,0.25l-3.333,0.666l-3.167,0.833l-2.333,1.084l-2.166,1.249l-1.916,1.584l-1.667,1.833l-1.5,2.083l-1.166,2.25l-0.833,2.333l-0.5,2.416l-0.25,2.416l0.166,2.417l0.417,2.333l0.75,2.333l1.083,2.166l1.25,2l1.583,1.833l1.833,1.666l1.916,1.334l2.167,1.083l2.249,0.833l17.832,4l1.499,0.499l1.334,0.834l1.249,1.083l1,1.25l0.667,1.416l0.416,1.583l0.084,1.584l-0.167,1.583l-0.5,1.499l-0.833,1.417l-1.083,1.166l-1.25,1l-0.833,0.5l-2.25,1l-2.333,0.667l-2.416,0.333l-2.417,0.167l-2.499,-0.25l-2.417,-0.417l-2.333,-0.75l-2.749,-1.666l-2.583,-2l-2.333,-2.166l-2,-2.5l-8.916,7.166l2.333,2.666l2.583,2.333l2.75,2.083l3,1.833l3.083,1.333l3.166,1.084l3.333,0.833l3.333,0.416l3.333,0.167l3.416,-0.167l3.333,-0.5l2.333,-0.499l2.25,-0.75l2.166,-1.084l2,-1.333l1.75,-1.583l1.666,-1.75l1.416,-1.999l1.167,-2.083l1,-2.25l0.916,-3.125l0.584,-3.291Z" style="fill:#fff;fill-rule:nonzero;"/></g><g><rect id="rect2429-0-8-6-0" x="188.393" y="47.244" width="35.412" height="94.488" style="fill:#0079c1;"/><rect id="path998" x="200.475" y="51.994" width="11.332" height="66.158" style="fill:#fff;fill-rule:nonzero;"/></g><g><rect id="rect2429" x="286.132" y="47.244" width="63.242" height="94.488" style="fill:#0079c1;"/><path id="path1098" d="M298.131,118.069l43.494,-0l0,-10.082l-32.079,-0l-0,-18.248l27.663,-0l0,-10.082l-27.663,-0l-0,-17.665l30.163,0l-0,-9.998l-41.578,-0l-0,66.075Z" style="fill:#fff;fill-rule:nonzero;"/></g><g><rect id="rect2410-8" x="47.244" y="47.244" width="73.657" height="94.488" style="fill:#0079c1;"/><path id="path1104" d="M59.66,51.994l-0,66.074l27.747,0c-0,0 1.894,-0.179 2.831,-0.334c0.925,-0.152 1.848,-0.331 2.751,-0.581c0.906,-0.251 1.8,-0.554 2.667,-0.918c0.858,-0.36 1.685,-0.795 2.498,-1.249c0.827,-0.463 1.643,-0.952 2.416,-1.501c0.757,-0.538 1.47,-1.136 2.167,-1.75c0.693,-0.61 1.381,-1.231 2,-1.916c0.756,-0.837 1.428,-1.748 2.083,-2.667c0.652,-0.916 1.275,-1.855 1.832,-2.831c0.555,-0.971 1.029,-1.987 1.502,-3.001c0.472,-1.014 0.945,-2.032 1.332,-3.082c0.392,-1.064 0.705,-2.156 0.999,-3.251c0.288,-1.073 0.556,-2.154 0.751,-3.248c0.195,-1.103 0.32,-2.219 0.417,-3.334c0.098,-1.136 0.167,-2.276 0.166,-3.416c-0,-1.112 -0.069,-2.224 -0.166,-3.332c-0.098,-1.116 -0.222,-2.231 -0.417,-3.334c-0.195,-1.095 -0.463,-2.176 -0.751,-3.249c-0.294,-1.095 -0.607,-2.187 -0.999,-3.251c-0.387,-1.05 -0.86,-2.067 -1.332,-3.082c-0.473,-1.013 -0.947,-2.029 -1.502,-3c-0.557,-0.976 -1.18,-1.916 -1.832,-2.832c-0.655,-0.919 -1.336,-1.822 -2.083,-2.667c-0.625,-0.706 -1.299,-1.369 -2,-1.999c-0.69,-0.621 -1.403,-1.222 -2.167,-1.75c-0.768,-0.531 -1.595,-0.972 -2.416,-1.418c-0.819,-0.444 -1.64,-0.888 -2.498,-1.249c-0.867,-0.364 -1.761,-0.666 -2.667,-0.917c-0.903,-0.25 -1.826,-0.43 -2.751,-0.582c-0.937,-0.154 -2.831,-0.334 -2.831,-0.334l-27.747,0.001Zm11.33,9.998l14.334,0c-0,0 1.562,0.11 2.331,0.25c0.762,0.139 1.518,0.33 2.25,0.584c0.716,0.249 1.407,0.571 2.083,0.916c0.688,0.35 1.366,0.727 2,1.167c0.648,0.451 1.254,0.963 1.832,1.5c0.562,0.521 1.11,1.064 1.585,1.666c0.473,0.598 0.878,1.25 1.249,1.916c0.508,0.912 0.928,1.871 1.333,2.834c0.401,0.956 0.78,1.925 1.084,2.917c0.31,1.011 0.541,2.045 0.75,3.082c0.207,1.02 0.387,2.048 0.499,3.083c0.11,1.023 0.166,2.054 0.167,3.082c0,1.058 -0.055,2.116 -0.167,3.168c-0.111,1.034 -0.289,2.062 -0.499,3.082c-0.207,1.009 -0.449,2.014 -0.75,3c-0.31,1.017 -0.671,2.019 -1.084,2.999c-0.396,0.938 -0.832,1.863 -1.333,2.75c-0.375,0.664 -0.783,1.312 -1.249,1.916c-0.48,0.623 -1.014,1.207 -1.585,1.75c-0.572,0.543 -1.184,1.049 -1.832,1.499c-0.634,0.44 -1.312,0.817 -2,1.168c-0.676,0.344 -1.362,0.679 -2.083,0.915c-0.73,0.239 -1.492,0.376 -2.25,0.5c-0.771,0.127 -2.331,0.251 -2.331,0.251l-14.334,-0l0,-45.995Z" style="fill:#fff;fill-rule:nonzero;"/></g><g><rect id="rect2587" x="120.902" y="47.244" width="67.492" height="94.488" style="fill:#0079c1;"/><path id="path1074" d="M132.899,51.994l0,66.158l11.333,0l-0,-25.831l11.664,0l12.916,25.831l11.998,0l-13.664,-27.33l2.166,-0.667l2.083,-0.999l1.833,-1.418l1.583,-1.582l1.251,-1.917l1.332,-2.333l0.918,-2.5l0.665,-2.665l0.333,-2.667l-0.083,-2.667l-0.417,-2.665l-0.665,-2.583l-1.085,-2.5l-1.249,-2.25l-1.499,-2.083l-1.751,-1.833l-2,-1.583l-2.167,-1.418l-2.331,-1.082l-2.416,-0.75l-2.501,-0.501l-2.583,-0.165l-25.664,0Zm11.333,10.082l14.498,0l1.666,0.167l1.666,0.415l1.585,0.667l1.332,1.001l1.249,1.249l1.001,1.416l0.667,1.501l0.415,1.666l0.167,1.666l0,1.833l-0.25,1.833l-0.582,1.666l-0.917,1.585l-1.166,1.416l-1.418,1.165l-0.832,0.501l-0.917,0.333l-0.999,0.084l-17.165,-0l-0,-20.164Z" style="fill:#fff;fill-rule:nonzero;"/></g><g><rect id="rect25871" serif:id="rect2587" x="349.374" y="47.244" width="67.492" height="94.488" style="fill:#0079c1;"/><path id="path10741" serif:id="path1074" d="M361.372,51.994l-0,66.158l11.333,0l-0,-25.831l11.664,0l12.916,25.831l11.998,0l-13.665,-27.33l2.167,-0.667l2.083,-0.999l1.833,-1.418l1.582,-1.582l1.252,-1.917l1.332,-2.333l0.917,-2.5l0.666,-2.665l0.333,-2.667l-0.083,-2.667l-0.417,-2.665l-0.666,-2.583l-1.084,-2.5l-1.249,-2.25l-1.499,-2.083l-1.752,-1.833l-1.999,-1.583l-2.167,-1.418l-2.331,-1.082l-2.417,-0.75l-2.5,-0.501l-2.583,-0.165l-25.664,0Zm11.333,10.082l14.498,0l1.666,0.167l1.666,0.415l1.585,0.667l1.332,1.001l1.249,1.249l1.001,1.416l0.667,1.501l0.415,1.666l0.167,1.666l-0,1.833l-0.25,1.833l-0.582,1.666l-0.918,1.585l-1.165,1.416l-1.418,1.165l-0.832,0.501l-0.918,0.333l-0.998,0.084l-17.165,-0l-0,-20.164Z" style="fill:#fff;fill-rule:nonzero;"/></g></g><g><g><rect id="rect2555" x="511.968" y="47.244" width="74.573" height="94.488" style="fill:#0079c1;"/><path id="path1026" d="M550.13,49.911l-4.417,0.249l-4.333,0.667l-2.748,0.917l-2.667,1.249l-2.5,1.5l-2.417,1.751l-2.166,1.916l-1.916,2.25l-1.75,2.332l-1.583,2.666l-1.334,2.918l-1.082,2.915l-0.751,3.084l-0.665,3.498l-0.334,3.583l-0.166,3.668l0.166,3.582l0.334,3.582l0.665,3.585l0.751,3.081l1.082,2.918l1.334,2.831l1.583,2.751l1.75,2.333l1.916,2.166l2.166,2l2.417,1.749l2.5,1.5l2.667,1.167l2.748,0.999l4.333,0.667l4.417,0.167l4.416,-0.167l4.333,-0.667l2.834,-0.999l2.581,-1.167l2.584,-1.5l2.333,-1.749l2.166,-2l2,-2.166l1.666,-2.333l1.666,-2.751l1.251,-2.831l1.082,-2.918l0.751,-3.081l0.667,-3.585l0.415,-3.582l0.167,-3.582l-0.167,-3.668l-0.415,-3.583l-0.667,-3.498l-0.751,-3.084l-1.082,-2.915l-1.251,-2.918l-1.666,-2.666l-1.666,-2.332l-2,-2.25l-2.166,-1.916l-2.333,-1.751l-2.584,-1.5l-2.581,-1.249l-2.834,-0.917l-4.333,-0.667l-4.416,-0.249Zm-0,10.082l2.583,0.167l2.417,0.498l2.416,0.834l2.332,1.083l2.166,1.334l1.668,1.499l1.5,1.666l1.249,1.917l1,2.083l0.999,3.417l0.751,3.499l0.417,3.499l0.083,3.584l-0.083,3.583l-0.417,3.499l-0.751,3.501l-0.999,3.415l-1,2.083l-1.249,1.833l-1.5,1.749l-1.668,1.418l-2.166,1.416l-2.332,1.082l-2.416,0.751l-2.417,0.501l-2.583,0.166l-2.501,-0.166l-2.498,-0.501l-2.416,-0.751l-2.334,-1.082l-2.083,-1.416l-1.749,-1.418l-1.501,-1.749l-1.249,-1.833l-0.918,-2.083l-1.082,-3.415l-0.667,-3.501l-0.417,-3.499l-0.165,-3.583l0.165,-3.584l0.417,-3.499l0.667,-3.499l1.082,-3.417l0.918,-2.083l1.249,-1.917l1.501,-1.666l1.749,-1.499l2.083,-1.334l2.334,-1.083l2.416,-0.834l2.498,-0.498l2.501,-0.167Z" style="fill:#fff;fill-rule:nonzero;"/></g><g><rect id="rect2429-0" x="586.541" y="47.244" width="57.076" height="94.488" style="fill:#0079c1;"/><path id="path1110" d="M598.54,118.069l11.332,-0l-0,-28.33l27.746,-0l0,-10.082l-27.746,-0l-0,-17.665l30.246,0l-0,-9.998l-41.578,-0l-0,66.075Z" style="fill:#fff;fill-rule:nonzero;"/></g></g><g><g><rect id="rect25551" serif:id="rect2555" x="724.639" y="47.244" width="74.573" height="94.488" style="fill:#0079c1;"/><path id="path10261" serif:id="path1026" d="M762.8,49.911l-4.416,0.249l-4.333,0.667l-2.748,0.917l-2.667,1.249l-2.5,1.5l-2.417,1.751l-2.167,1.916l-1.916,2.25l-1.749,2.332l-1.583,2.666l-1.334,2.918l-1.083,2.915l-0.75,3.084l-0.665,3.498l-0.334,3.583l-0.167,3.668l0.167,3.582l0.334,3.582l0.665,3.585l0.75,3.081l1.083,2.918l1.334,2.831l1.583,2.751l1.749,2.333l1.916,2.166l2.167,2l2.417,1.749l2.5,1.5l2.667,1.167l2.748,0.999l4.333,0.667l4.416,0.167l4.417,-0.167l4.333,-0.667l2.833,-0.999l2.582,-1.167l2.583,-1.5l2.334,-1.749l2.166,-2l2,-2.166l1.666,-2.333l1.666,-2.751l1.251,-2.831l1.082,-2.918l0.751,-3.081l0.667,-3.585l0.415,-3.582l0.167,-3.582l-0.167,-3.668l-0.415,-3.583l-0.667,-3.498l-0.751,-3.084l-1.082,-2.915l-1.251,-2.918l-1.666,-2.666l-1.666,-2.332l-2,-2.25l-2.166,-1.916l-2.334,-1.751l-2.583,-1.5l-2.582,-1.249l-2.833,-0.917l-4.333,-0.667l-4.417,-0.249Zm0,10.082l2.584,0.167l2.416,0.498l2.417,0.834l2.331,1.083l2.167,1.334l1.668,1.499l1.499,1.666l1.249,1.917l1.001,2.083l0.999,3.417l0.751,3.499l0.417,3.499l0.083,3.584l-0.083,3.583l-0.417,3.499l-0.751,3.501l-0.999,3.415l-1.001,2.083l-1.249,1.833l-1.499,1.749l-1.668,1.418l-2.167,1.416l-2.331,1.082l-2.417,0.751l-2.416,0.501l-2.584,0.166l-2.5,-0.166l-2.498,-0.501l-2.417,-0.751l-2.333,-1.082l-2.083,-1.416l-1.749,-1.418l-1.502,-1.749l-1.249,-1.833l-0.917,-2.083l-1.082,-3.415l-0.668,-3.501l-0.417,-3.499l-0.164,-3.583l0.164,-3.584l0.417,-3.499l0.668,-3.499l1.082,-3.417l0.917,-2.083l1.249,-1.917l1.502,-1.666l1.749,-1.499l2.083,-1.334l2.333,-1.083l2.417,-0.834l2.498,-0.498l2.5,-0.167Z" style="fill:#fff;fill-rule:nonzero;"/></g><g><rect id="rect2538-2" x="799.212" y="47.244" width="80.238" height="94.488" style="fill:#0079c1;"/><path id="path1032" d="M822.542,118.151l0,-47.91l32.163,47.91l12.582,0l-0,-66.158l-11.332,-0l-0,47.827l-32.08,-47.827l-12.665,-0l0,66.158l11.332,0Z" style="fill:#fff;fill-rule:nonzero;"/></g><g><rect id="rect2429-0-8-6-0-2" x="673.145" y="47.244" width="51.494" height="94.488" style="fill:#0079c1;"/><path id="path980" d="M685.227,118.153l37.162,-0l-0,-10.083l-25.83,0l-0,-56.076l-11.332,0l-0,66.159Z" style="fill:#fff;fill-rule:nonzero;"/></g><g><rect id="rect2429-0-8" x="879.45" y="47.244" width="74.074" height="94.488" style="fill:#0079c1;"/><path id="path1008" d="M908.196,50.827l-2.749,1l-2.667,1.166l-2.499,1.5l-2.333,1.75l-2.167,2l-2,2.166l-1.749,2.333l-1.583,2.75l-1.334,2.833l-1,2.916l-0.749,3.083l-0,0l-0.667,3.583l-0.417,3.583l-0.166,3.583l0.166,3.583l0.417,3.666l0.667,3.499l-0,0l0.749,3.083l1,2.917l1.334,2.833l1.583,2.749l1.749,2.333l2,2.167l2.167,1.999l2.333,1.75l2.499,1.5l2.667,1.25l2.749,0.916l4.416,0.667l4.417,0.25l-0,-0l3.166,-0.167l3.249,-0.333l2.083,-0.583l1.917,-0.833l1.75,-1.167l1.666,-1.333l1.417,-1.583l1.249,-1.667l0,5.583l10.083,-0l-0,-37.162l-28.997,-0l0,10.082l18.914,-0l0,6.582l-0.166,1.834l-0.5,1.749l-0.833,1.583l-1.084,1.5l-1.249,1.25l-0.834,0.667l-2.166,1.333l-2.25,1.083l-2.416,0.833l-2.5,0.5l-2.499,0.167l-2.583,-0.167l-2.5,-0.5l-2.417,-0.833l-2.249,-1.083l-2.167,-1.333l-1.749,-1.5l-1.5,-1.667l-1.167,-1.916l-1,-2.083l-0.999,-3.416l-0.75,-3.5l-0.417,-3.499l-0.083,-3.583l0.083,-3.583l0.417,-3.5l0.75,-3.499l0.999,-3.417l1,-2.083l1.167,-1.833l1.5,-1.75l1.749,-1.499l2.167,-1.334l2.249,-1.083l2.417,-0.833l2.5,-0.417l2.583,-0.166l2.499,0.166l2.5,0.417l2.416,0.833l2.25,1.083l2.166,1.334l1.667,1.416l1.416,1.583l1.167,1.75l1,1.916l9.499,-4.999l-1.667,-2.833l-1.75,-2.333l-1.916,-2.166l-2.25,-2l-2.333,-1.75l-2.5,-1.5l-2.666,-1.166l-2.75,-1l0,-0l-4.416,-0.667l-4.332,-0.166l-4.417,0.166l-4.416,0.667l0,-0Z" style="fill:#fff;fill-rule:nonzero;"/></g></g></g><g><g><g><rect id="rect2555-7-3" x="260.438" y="141.732" width="87.324" height="94.488" style="fill:#0079c1;"/><path id="path1050" d="M294.518,212.557l-12.582,-0l-15.415,-66.075l11.665,-0l10.582,45.661l10.499,-45.661l12.582,-0l10.498,45.661l10.666,-45.661l11.582,-0l-15.415,66.075l-12.582,-0l-10.999,-49.077l-11.081,49.077Z" style="fill:#fff;fill-rule:nonzero;"/></g><g><rect id="rect25552" serif:id="rect2555" x="185.865" y="141.732" width="74.573" height="94.488" style="fill:#0079c1;"/><path id="path10262" serif:id="path1026" d="M224.027,144.4l-4.417,0.248l-4.333,0.667l-2.748,0.918l-2.667,1.249l-2.5,1.499l-2.417,1.751l-2.166,1.917l-1.916,2.249l-1.75,2.332l-1.582,2.667l-1.335,2.917l-1.082,2.915l-0.751,3.084l-0.665,3.499l-0.334,3.582l-0.166,3.668l0.166,3.582l0.334,3.582l0.665,3.585l0.751,3.082l1.082,2.917l1.335,2.831l1.582,2.751l1.75,2.333l1.916,2.166l2.166,2l2.417,1.75l2.5,1.499l2.667,1.167l2.748,0.999l4.333,0.668l4.417,0.166l4.416,-0.166l4.333,-0.668l2.834,-0.999l2.581,-1.167l2.584,-1.499l2.333,-1.75l2.167,-2l1.999,-2.166l1.666,-2.333l1.666,-2.751l1.251,-2.831l1.083,-2.917l0.75,-3.082l0.667,-3.585l0.415,-3.582l0.167,-3.582l-0.167,-3.668l-0.415,-3.582l-0.667,-3.499l-0.75,-3.084l-1.083,-2.915l-1.251,-2.917l-1.666,-2.667l-1.666,-2.332l-1.999,-2.249l-2.167,-1.917l-2.333,-1.751l-2.584,-1.499l-2.581,-1.249l-2.834,-0.918l-4.333,-0.667l-4.416,-0.248Zm-0,10.081l2.583,0.167l2.417,0.499l2.417,0.834l2.331,1.082l2.166,1.334l1.668,1.5l1.5,1.666l1.249,1.916l1.001,2.083l0.998,3.417l0.751,3.499l0.417,3.499l0.083,3.585l-0.083,3.582l-0.417,3.499l-0.751,3.501l-0.998,3.415l-1.001,2.083l-1.249,1.833l-1.5,1.75l-1.668,1.418l-2.166,1.415l-2.331,1.083l-2.417,0.75l-2.417,0.501l-2.583,0.167l-2.5,-0.167l-2.498,-0.501l-2.417,-0.75l-2.333,-1.083l-2.083,-1.415l-1.75,-1.418l-1.501,-1.75l-1.249,-1.833l-0.918,-2.083l-1.082,-3.415l-0.667,-3.501l-0.417,-3.499l-0.165,-3.582l0.165,-3.585l0.417,-3.499l0.667,-3.499l1.082,-3.417l0.918,-2.083l1.249,-1.916l1.501,-1.666l1.75,-1.5l2.083,-1.334l2.333,-1.082l2.417,-0.834l2.498,-0.499l2.5,-0.167Z" style="fill:#fff;fill-rule:nonzero;"/></g><g><rect id="rect2429-0-8-6-0-21" serif:id="rect2429-0-8-6-0-2" x="134.372" y="141.732" width="51.494" height="94.488" style="fill:#0079c1;"/><path id="path9801" serif:id="path980" d="M146.453,212.641l37.162,-0l0,-10.082l-25.83,-0l0,-56.077l-11.332,0l0,66.159Z" style="fill:#fff;fill-rule:nonzero;"/></g></g><g><g><rect id="rect2555-7-11" serif:id="rect2555-7-1" x="377.29" y="141.732" width="62.327" height="94.488" style="fill:#0079c1;"/><path id="path10141" serif:id="path1014" d="M401.37,212.557l-19.498,-66.075l11.332,-0l15.082,51.16l15.081,-51.16l11.416,-0l-19.581,66.075l-13.832,-0Z" style="fill:#fff;fill-rule:nonzero;"/></g><g><rect id="rect2587-31" serif:id="rect2587-3" x="800.822" y="141.732" width="65.574" height="94.488" style="fill:#0079c1;"/><path id="path10681" serif:id="path1068" d="M858.065,193.559l0,-2.416l-0.333,-2.5l-0.667,-2.333l-1,-2.25l-1.333,-2.083l-1.583,-1.833l-1.917,-1.666l-2.083,-1.25l-2.249,-1l-2.333,-0.667l-17.998,-4.166l-1.417,-0.417l-1.249,-0.833l-1.167,-1l-0.917,-1.25l-0.583,-1.333l-0.333,-1.5l-0.167,-1.583l0.167,-1.583l0.416,-1.5l0.834,-1.416l0.999,-1.167l1.25,-0.916l1.5,-0.667l2.25,-0.666l2.333,-0.417l2.333,-0.166l2.333,0.083l2.333,0.417l2.166,0.666l2,0.917l1.917,1.166l1.666,1.417l1.5,1.666l1.25,1.917l8.832,-7.166l-1.583,-2.167l-1.75,-1.916l-2.083,-1.75l-2.166,-1.5l-2.417,-1.166l-2.499,-0.917l-2.584,-0.583l-3.332,-0.583l-3.333,-0.25l-3.333,-0l-3.333,0.25l-3.333,0.666l-3.166,0.834l-2.333,1.083l-2.167,1.25l-1.916,1.583l-1.667,1.833l-1.499,2.083l-1.167,2.25l-0.833,2.333l-0.5,2.416l-0.25,2.416l0.166,2.417l0.417,2.333l0.75,2.333l1.083,2.166l1.25,2l1.583,1.833l1.833,1.667l1.917,1.333l2.166,1.083l2.25,0.833l17.831,4l1.5,0.5l1.333,0.833l1.25,1.083l1,1.25l0.666,1.416l0.417,1.584l0.083,1.583l-0.166,1.583l-0.5,1.5l-0.834,1.416l-1.083,1.167l-1.25,1l-0.833,0.499l-2.25,1l-2.333,0.667l-2.416,0.333l-2.416,0.167l-2.5,-0.25l-2.416,-0.417l-2.333,-0.75l-2.75,-1.666l-2.583,-2l-2.333,-2.166l-2,-2.5l-8.915,7.166l2.333,2.666l2.583,2.333l2.749,2.083l3,1.833l3.083,1.334l3.166,1.083l3.333,0.833l3.333,0.417l3.333,0.166l3.416,-0.166l3.333,-0.5l2.333,-0.5l2.25,-0.75l2.166,-1.083l2,-1.334l1.75,-1.583l1.666,-1.749l1.417,-2l1.166,-2.083l1,-2.25l0.917,-3.125l0.583,-3.291Z" style="fill:#fff;fill-rule:nonzero;"/></g><g><rect id="rect2429-0-8-6-0-22" serif:id="rect2429-0-8-6-0-2" x="686.086" y="141.732" width="51.494" height="94.488" style="fill:#0079c1;"/><path id="path9802" serif:id="path980" d="M698.168,212.641l37.162,-0l0,-10.082l-25.83,-0l0,-56.077l-11.332,0l0,66.159Z" style="fill:#fff;fill-rule:nonzero;"/></g><g><rect id="rect2429-0-8-6-01" serif:id="rect2429-0-8-6-0" x="579.349" y="141.732" width="35.412" height="94.488" style="fill:#0079c1;"/><rect id="path9981" serif:id="path998" x="591.431" y="146.482" width="11.332" height="66.158" style="fill:#fff;fill-rule:nonzero;"/></g><g><rect id="rect2429-0-8-6" x="502.859" y="141.732" width="76.49" height="94.488" style="fill:#0079c1;"/><path id="path1002" d="M555.852,172.312l-29.58,-0l0,-25.83l-11.331,-0l-0,66.158l11.331,0l0,-30.246l29.58,-0l0,30.246l11.332,0l-0,-66.158l-11.332,-0l0,25.83Z" style="fill:#fff;fill-rule:nonzero;"/></g><g><rect id="rect24291" serif:id="rect2429" x="439.617" y="141.732" width="63.242" height="94.488" style="fill:#0079c1;"/><path id="path10981" serif:id="path1098" d="M451.615,212.557l43.495,-0l-0,-10.082l-32.08,-0l0,-18.248l27.664,-0l-0,-10.082l-27.664,-0l0,-17.665l30.163,0l0,-9.998l-41.578,-0l0,66.075Z" style="fill:#fff;fill-rule:nonzero;"/></g><g><rect id="rect24292" serif:id="rect2429" x="737.58" y="141.732" width="63.242" height="94.488" style="fill:#0079c1;"/><path id="path10982" serif:id="path1098" d="M749.579,212.557l43.494,-0l0,-10.082l-32.079,-0l-0,-18.248l27.663,-0l-0,-10.082l-27.663,-0l-0,-17.665l30.163,0l-0,-9.998l-41.578,-0l-0,66.075Z" style="fill:#fff;fill-rule:nonzero;"/></g><g><rect id="rect2410" x="614.761" y="141.732" width="71.325" height="94.488" style="fill:#0079c1;"/><path id="path1080" d="M639.259,159.813c-0.551,0.536 -1.039,1.135 -1.5,1.75c-0.457,0.61 -0.881,1.249 -1.25,1.917c-0.354,0.642 -0.66,1.312 -0.916,1.999c-0.415,1.112 -0.709,2.266 -1,3.417c-0.293,1.156 -0.556,2.322 -0.75,3.499c-0.196,1.186 -0.319,2.385 -0.417,3.583c-0.095,1.164 -0.166,2.332 -0.166,3.5c-0.001,1.195 0.069,2.391 0.166,3.582c0.098,1.199 0.218,2.398 0.417,3.583c0.193,1.15 0.461,2.287 0.75,3.417c0.294,1.149 0.593,2.301 1,3.416c0.26,0.713 0.555,1.416 0.916,2.083c0.363,0.671 0.785,1.312 1.25,1.916c0.456,0.593 0.965,1.145 1.5,1.667c0.55,0.536 1.133,1.041 1.75,1.5c0.661,0.491 1.36,0.936 2.083,1.333c0.751,0.412 1.538,0.762 2.333,1.083c0.79,0.319 1.594,0.61 2.416,0.833c0.82,0.223 1.658,0.388 2.5,0.5c0.828,0.11 1.665,0.167 2.5,0.167c0.807,-0.001 1.618,-0.044 2.416,-0.167c0.819,-0.126 1.624,-0.342 2.416,-0.583c0.765,-0.233 1.521,-0.504 2.25,-0.833c0.747,-0.338 1.48,-0.718 2.166,-1.167c0.679,-0.444 1.316,-0.955 1.917,-1.5c0.596,-0.541 1.146,-1.135 1.666,-1.749c0.539,-0.637 1.056,-1.295 1.5,-2c0.417,-0.663 0.77,-1.366 1.083,-2.083c0.33,-0.757 0.834,-2.333 0.834,-2.333l10.832,2.166c-0,0 -0.503,1.796 -0.834,2.666c-0.336,0.883 -0.743,1.739 -1.166,2.583c-0.412,0.823 -0.836,1.643 -1.333,2.417c-0.505,0.785 -1.08,1.523 -1.667,2.249c-0.581,0.72 -1.186,1.422 -1.833,2.083c-0.66,0.675 -1.356,1.316 -2.083,1.917c-0.719,0.594 -1.478,1.142 -2.25,1.666c-0.784,0.533 -1.582,1.049 -2.416,1.5c-0.809,0.438 -1.647,0.822 -2.5,1.167c-0.871,0.352 -1.764,0.652 -2.666,0.916c-0.905,0.265 -1.824,0.485 -2.75,0.667c-0.909,0.179 -1.826,0.333 -2.749,0.416c-0.941,0.085 -1.889,0.097 -2.833,0.084c-1.475,-0.02 -2.95,-0.096 -4.417,-0.25c-1.453,-0.153 -2.912,-0.323 -4.332,-0.667c-0.939,-0.227 -1.853,-0.558 -2.75,-0.916c-0.911,-0.364 -1.8,-0.789 -2.666,-1.25c-0.858,-0.457 -1.689,-0.965 -2.5,-1.5c-0.83,-0.548 -1.64,-1.128 -2.416,-1.75c-0.753,-0.603 -1.485,-1.234 -2.167,-1.916c-0.681,-0.682 -1.313,-1.414 -1.916,-2.167c-0.622,-0.776 -1.204,-1.585 -1.75,-2.416c-0.568,-0.864 -1.099,-1.753 -1.583,-2.666c-0.489,-0.922 -0.933,-1.869 -1.333,-2.833c-0.408,-0.982 -0.777,-1.982 -1.083,-3c-0.305,-1.012 -0.538,-2.047 -0.75,-3.083c-0.237,-1.158 -0.418,-2.328 -0.584,-3.499c-0.168,-1.191 -0.319,-2.385 -0.416,-3.583c-0.099,-1.22 -0.168,-2.443 -0.167,-3.666c0.001,-1.196 0.07,-2.392 0.167,-3.583c0.097,-1.199 0.25,-2.392 0.416,-3.583c0.168,-1.199 0.339,-2.398 0.584,-3.583c0.208,-1.01 0.449,-2.014 0.75,-3c0.309,-1.017 0.675,-2.017 1.083,-2.999c0.4,-0.964 0.85,-1.908 1.333,-2.833c0.489,-0.938 1.001,-1.867 1.583,-2.75c0.535,-0.812 1.136,-1.58 1.75,-2.333c0.609,-0.747 1.242,-1.477 1.916,-2.166c0.688,-0.703 1.406,-1.378 2.167,-2c0.769,-0.63 1.579,-1.212 2.416,-1.75c0.806,-0.518 1.649,-0.977 2.5,-1.416c0.872,-0.451 1.76,-0.874 2.666,-1.25c0.901,-0.374 1.805,-0.758 2.75,-1c1.415,-0.363 2.878,-0.528 4.332,-0.667c1.467,-0.14 2.944,-0.16 4.417,-0.166c0.944,-0.004 1.891,0.012 2.833,0.083c0.92,0.069 1.841,0.169 2.749,0.334c0.928,0.168 1.845,0.402 2.75,0.666c0.902,0.264 1.8,0.553 2.666,0.917c0.859,0.36 1.681,0.805 2.5,1.25c0.821,0.445 1.637,0.901 2.416,1.416c0.779,0.515 1.531,1.072 2.25,1.667c0.727,0.601 1.423,1.241 2.083,1.916c0.647,0.661 1.258,1.359 1.833,2.083c0.594,0.749 1.157,1.525 1.667,2.333c0.49,0.778 0.921,1.594 1.333,2.416c0.423,0.845 0.83,1.7 1.166,2.583c0.331,0.871 0.834,2.667 0.834,2.667l-10.832,2.166c-0,0 -0.51,-1.573 -0.834,-2.333c-0.317,-0.742 -0.651,-1.484 -1.083,-2.166c-0.433,-0.686 -0.969,-1.303 -1.5,-1.917c-0.526,-0.609 -1.07,-1.208 -1.666,-1.749c-0.601,-0.546 -1.238,-1.056 -1.917,-1.5c-0.686,-0.449 -1.424,-0.817 -2.166,-1.167c-0.732,-0.345 -1.475,-0.681 -2.25,-0.916c-0.787,-0.24 -1.601,-0.388 -2.416,-0.5c-0.8,-0.11 -1.609,-0.166 -2.416,-0.167c-0.835,-0.001 -1.672,0.057 -2.5,0.167c-0.842,0.112 -1.676,0.29 -2.5,0.5c-0.817,0.208 -1.629,0.446 -2.416,0.75c-0.8,0.308 -1.587,0.66 -2.333,1.083c-0.731,0.414 -1.409,0.916 -2.083,1.416c-0.603,0.448 -1.212,0.893 -1.75,1.416Z" style="fill:#fff;fill-rule:nonzero;"/></g></g></g></g><g><g><g><g><rect id="rect2467-3" x="355.509" y="330.709" width="37.829" height="94.488" style="fill:#0079c1;"/><path id="path3241" d="M380.089,354.372l-1.999,0.834l-1.833,1.166l-1.667,1.333l-1.5,1.667l0,-5l-10.332,0l0,47.244l10.332,0l0,-27.329l0.334,-1.834l0.666,-1.749l1,-1.667l1.25,-1.416l1.416,-1.167l1.667,-0.916l1.75,-0.667l3.249,-0.583l3.167,-0.167l-0,-10.748l-2.667,0.083l-2.666,0.416l-2.167,0.5Z" style="fill:#fff;fill-rule:nonzero;"/></g><g><rect id="rect2433-0-6" x="299.683" y="330.709" width="55.826" height="94.488" style="fill:#0079c1;"/><path id="path3851" d="M326.18,352.789c-0.917,-0 -1.848,0.069 -2.75,0.167c-0.895,0.096 -1.791,0.212 -2.667,0.417c-0.889,0.208 -1.804,0.512 -2.665,0.832c-0.852,0.316 -1.695,0.667 -2.5,1.084c-0.806,0.417 -1.584,0.902 -2.334,1.416c-0.75,0.514 -1.527,1.11 -2.166,1.666c-0.593,0.516 -1.154,1.072 -1.666,1.668c-0.514,0.597 -0.972,1.264 -1.416,1.916c-0.443,0.65 -0.876,1.319 -1.251,2c-0.372,0.674 -0.699,1.374 -0.999,2.083c-0.305,0.722 -0.609,1.482 -0.834,2.25c-0.264,0.902 -0.543,2.101 -0.751,3.165c-0.208,1.07 -0.387,2.168 -0.498,3.251c-0.11,1.079 -0.167,2.166 -0.167,3.249c0,1.083 0.07,2.179 0.167,3.248c0.096,1.061 0.209,2.123 0.415,3.168c0.208,1.055 0.57,2.262 0.834,3.165c0.222,0.759 0.459,1.528 0.751,2.25c0.288,0.714 0.633,1.405 0.999,2.083c0.375,0.694 0.792,1.43 1.251,2.083c0.453,0.646 0.971,1.249 1.499,1.833c0.527,0.583 1.079,1.145 1.666,1.668c0.639,0.569 1.416,1.222 2.166,1.749c0.744,0.524 1.528,1 2.334,1.416c0.805,0.417 1.652,0.765 2.5,1.084c0.846,0.32 1.709,0.624 2.583,0.832c0.875,0.209 1.771,0.321 2.665,0.417c0.903,0.098 1.834,0.167 2.75,0.167c0.917,0 1.848,-0.069 2.751,-0.167c0.894,-0.096 1.786,-0.225 2.665,-0.417c0.888,-0.194 1.805,-0.429 2.666,-0.748c0.862,-0.32 1.695,-0.737 2.501,-1.168c0.802,-0.429 1.583,-0.902 2.333,-1.416c0.75,-0.513 1.528,-1.11 2.166,-1.666c0.593,-0.515 1.139,-1.085 1.666,-1.668c0.528,-0.583 1.041,-1.194 1.5,-1.833c0.458,-0.638 0.877,-1.307 1.251,-1.999c0.375,-0.695 0.707,-1.431 0.999,-2.167c0.291,-0.735 0.528,-1.491 0.75,-2.25c0.264,-0.902 0.61,-2.11 0.832,-3.165c0.22,-1.046 0.391,-2.104 0.501,-3.167c0.111,-1.084 0.166,-2.236 0.166,-3.332c0,-1.085 -0.056,-2.17 -0.166,-3.249c-0.112,-1.083 -0.293,-2.181 -0.501,-3.251c-0.207,-1.064 -0.485,-2.263 -0.748,-3.165c-0.225,-0.768 -0.529,-1.528 -0.834,-2.25c-0.3,-0.709 -0.628,-1.409 -0.999,-2.083c-0.375,-0.681 -0.799,-1.356 -1.251,-2c-0.459,-0.652 -0.972,-1.319 -1.5,-1.916c-0.52,-0.589 -1.078,-1.146 -1.666,-1.668c-0.625,-0.556 -1.349,-1.164 -2.083,-1.666c-0.75,-0.514 -1.597,-0.999 -2.416,-1.416c-0.81,-0.412 -1.653,-0.765 -2.501,-1.084c-0.846,-0.319 -1.708,-0.624 -2.583,-0.832c-0.875,-0.208 -1.771,-0.321 -2.665,-0.417c-0.902,-0.098 -1.833,-0.167 -2.75,-0.167Zm-0,9.915c0.639,-0 1.284,0.057 1.916,0.167c0.639,0.111 1.305,0.292 1.916,0.5c0.601,0.205 1.191,0.451 1.75,0.751c0.569,0.305 1.152,0.679 1.666,1.082c0.511,0.4 0.987,0.849 1.418,1.334c0.43,0.487 0.832,1.042 1.165,1.583c0.326,0.529 0.612,1.086 0.834,1.666c0.278,0.722 0.61,1.764 0.832,2.667c0.222,0.903 0.404,1.822 0.501,2.748c0.097,0.931 0.083,1.903 0.083,2.834c0,0.917 0.014,1.838 -0.083,2.75c-0.097,0.917 -0.279,1.86 -0.501,2.749c-0.219,0.877 -0.554,1.861 -0.832,2.583c-0.231,0.603 -0.5,1.208 -0.834,1.75c-0.332,0.539 -0.738,1.033 -1.165,1.501c-0.431,0.472 -0.914,0.924 -1.418,1.332c-0.514,0.417 -1.097,0.847 -1.666,1.166c-0.554,0.31 -1.149,0.546 -1.75,0.751c-0.611,0.208 -1.277,0.403 -1.916,0.5c-0.632,0.096 -1.277,0.083 -1.916,0.083c-0.639,0 -1.284,0.013 -1.916,-0.083c-0.639,-0.097 -1.306,-0.292 -1.917,-0.5c-0.6,-0.205 -1.196,-0.441 -1.749,-0.751c-0.57,-0.319 -1.154,-0.749 -1.668,-1.166c-0.504,-0.408 -0.986,-0.86 -1.416,-1.332c-0.427,-0.469 -0.834,-0.962 -1.166,-1.501c-0.333,-0.542 -0.602,-1.147 -0.834,-1.75c-0.278,-0.722 -0.614,-1.705 -0.834,-2.583c-0.222,-0.889 -0.387,-1.832 -0.498,-2.749c-0.11,-0.911 -0.167,-1.832 -0.167,-2.75c0,-0.931 0.056,-1.903 0.167,-2.834c0.11,-0.924 0.276,-1.845 0.498,-2.748c0.222,-0.903 0.556,-1.945 0.834,-2.667c0.223,-0.579 0.509,-1.137 0.834,-1.666c0.334,-0.541 0.736,-1.096 1.166,-1.583c0.43,-0.485 0.905,-0.934 1.416,-1.334c0.514,-0.403 1.098,-0.777 1.668,-1.082c0.559,-0.3 1.149,-0.546 1.749,-0.751c0.611,-0.208 1.278,-0.389 1.917,-0.5c0.631,-0.11 1.277,-0.167 1.916,-0.167Z" style="fill:#fff;fill-rule:nonzero;"/></g><g><rect id="rect2324-5" x="264.271" y="330.709" width="35.412" height="94.488" style="fill:#0079c1;"/><path id="path3615" d="M274.686,345.457c0.02,-0.621 0.181,-1.25 0.333,-1.833c0.15,-0.57 0.337,-1.132 0.584,-1.667c0.25,-0.541 0.569,-1.097 0.916,-1.583c0.344,-0.48 0.742,-0.922 1.167,-1.333c0.43,-0.417 0.916,-0.833 1.416,-1.167c0.496,-0.33 1.038,-0.593 1.583,-0.833c0.695,-0.305 1.706,-0.712 2.583,-1c0.889,-0.291 1.834,-0.569 2.75,-0.75c0.906,-0.178 1.833,-0.264 2.75,-0.333c0.914,-0.069 1.833,-0.125 2.749,-0.083c0.917,0.041 1.839,0.181 2.75,0.333c0.917,0.153 2.75,0.583 2.75,0.583l-0.833,9.166c-0,-0 -1.556,-0.347 -2.334,-0.417c-0.774,-0.069 -1.558,-0.069 -2.333,0c-0.777,0.07 -1.763,0.278 -2.333,0.417c-0.375,0.091 -0.74,0.238 -1.083,0.416c-0.347,0.181 -0.694,0.417 -1,0.667c-0.304,0.249 -0.597,0.528 -0.833,0.833c-0.236,0.306 -0.417,0.653 -0.583,1c-0.167,0.347 -0.32,0.709 -0.417,1.083c-0.097,0.375 -0.166,1.167 -0.166,1.167l-0,4.166l8.582,-0l-0,8.832l-8.582,0l-0,38.412l-10.416,0l0,-38.412l-7.582,0l-0,-8.832l7.582,-0c0,-0 -0.055,-7.055 0,-8.832Z" style="fill:#fff;fill-rule:nonzero;"/></g><g><rect id="rect2324" x="212.777" y="330.709" width="51.494" height="94.488" style="fill:#0079c1;"/><path id="path3699" d="M237.523,353.122c-0.861,0.014 -1.728,0.113 -2.581,0.25c-0.861,0.139 -1.75,0.348 -2.584,0.584c-0.82,0.232 -1.631,0.502 -2.417,0.832c-0.791,0.334 -1.611,0.765 -2.333,1.168c-0.686,0.383 -1.367,0.782 -1.999,1.249c-0.639,0.472 -1.264,1.027 -1.833,1.583c-0.563,0.549 -1.109,1.123 -1.583,1.751c-0.555,0.736 -1.222,1.762 -1.749,2.665c-0.521,0.89 -0.99,1.812 -1.418,2.75c-0.431,0.945 -0.833,1.931 -1.166,2.917c-0.332,0.983 -0.625,1.985 -0.834,2.999c-0.208,1.014 -0.321,2.051 -0.417,3.084c-0.097,1.041 -0.165,2.124 -0.165,3.165c0,1.03 0.041,2.062 0.165,3.084c0.125,1.028 0.348,2.068 0.584,3.082c0.236,1.011 0.501,2.017 0.834,3c0.333,0.986 0.721,1.971 1.166,2.915c0.444,0.945 0.957,1.876 1.499,2.751c0.535,0.865 1.104,1.715 1.751,2.5c0.653,0.792 1.389,1.583 2.167,2.25c0.771,0.661 1.637,1.208 2.498,1.749c0.861,0.542 1.741,1.071 2.667,1.499c0.93,0.431 1.959,0.807 2.917,1.085c0.925,0.268 1.88,0.432 2.831,0.582c0.973,0.152 2.015,0.291 3.001,0.333c0.972,0.041 1.948,-0.001 2.917,-0.083c0.986,-0.084 2.027,-0.223 2.999,-0.417c0.958,-0.192 1.909,-0.432 2.833,-0.749c0.931,-0.319 1.858,-0.722 2.749,-1.168c1.083,-0.541 2.862,-1.555 3.751,-2.083c0.549,-0.326 1.073,-0.696 1.582,-1.082c0.514,-0.388 1.5,-1.249 1.5,-1.249l-6.5,-7.667c0,0 -1.142,0.976 -1.749,1.418c-0.611,0.444 -1.25,0.888 -1.917,1.249c-0.666,0.361 -1.374,0.679 -2.083,0.915c-0.703,0.235 -1.435,0.377 -2.166,0.501c-0.736,0.125 -1.556,0.208 -2.25,0.25c-0.638,0.038 -1.279,0.041 -1.916,-0c-0.653,-0.042 -1.375,-0.125 -2,-0.25c-0.595,-0.119 -1.183,-0.285 -1.749,-0.501c-0.583,-0.222 -1.208,-0.512 -1.75,-0.832c-0.532,-0.313 -1.031,-0.683 -1.501,-1.084c-0.472,-0.403 -0.944,-0.847 -1.333,-1.332c-0.388,-0.486 -0.707,-1.042 -0.998,-1.583c-0.289,-0.536 -0.546,-1.092 -0.751,-1.666c-0.208,-0.584 -0.403,-1.21 -0.5,-1.835c-0.098,-0.625 -0.084,-1.916 -0.084,-1.916l31.83,-0c0,-0 -0.014,-2.779 -0.083,-4.166c-0.07,-1.389 -0.167,-2.792 -0.334,-4.166c-0.166,-1.369 -0.473,-3.083 -0.667,-4.083c-0.126,-0.648 -0.294,-1.289 -0.499,-1.917c-0.208,-0.638 -0.472,-1.305 -0.75,-1.916c-0.273,-0.599 -0.584,-1.181 -0.918,-1.749c-0.375,-0.639 -0.847,-1.417 -1.332,-2.083c-0.486,-0.667 -1.027,-1.306 -1.583,-1.917c-0.554,-0.61 -1.124,-1.221 -1.749,-1.749c-0.624,-0.527 -1.312,-0.977 -2,-1.418c-0.694,-0.444 -1.43,-0.874 -2.166,-1.249c-0.732,-0.372 -1.477,-0.723 -2.25,-0.999c-0.778,-0.277 -1.6,-0.49 -2.417,-0.667c-0.833,-0.181 -1.722,-0.32 -2.583,-0.417c-0.858,-0.097 -1.723,-0.181 -2.584,-0.167Zm-0.167,9.417c0.611,-0.042 1.238,0.014 1.835,0.083c0.59,0.068 1.179,0.169 1.75,0.332c0.583,0.166 1.208,0.403 1.749,0.667c0.527,0.257 1.029,0.568 1.499,0.917c0.487,0.362 1.002,0.805 1.418,1.249c0.407,0.434 0.753,0.922 1.082,1.416c0.334,0.5 0.668,1.043 0.918,1.585c0.246,0.534 0.429,1.125 0.582,1.666c0.146,0.519 0.253,1.05 0.333,1.583c0.084,0.555 0.167,1.749 0.167,1.749l-21.331,0c-0,0 0.222,-1.625 0.417,-2.417c0.195,-0.791 0.445,-1.581 0.751,-2.331c0.304,-0.747 0.707,-1.569 1.082,-2.166c0.325,-0.519 0.737,-0.988 1.168,-1.418c0.43,-0.431 0.916,-0.833 1.415,-1.166c0.496,-0.331 1.034,-0.6 1.583,-0.834c0.555,-0.236 1.154,-0.431 1.749,-0.584c0.598,-0.152 1.222,-0.29 1.833,-0.331Z" style="fill:#fff;fill-rule:nonzero;"/></g><g><rect id="rect23241" serif:id="rect2324" x="393.338" y="330.709" width="51.494" height="94.488" style="fill:#0079c1;"/><path id="path36991" serif:id="path3699" d="M418.084,353.122c-0.861,0.014 -1.728,0.113 -2.582,0.25c-0.86,0.139 -1.75,0.348 -2.583,0.584c-0.82,0.232 -1.632,0.502 -2.417,0.832c-0.791,0.334 -1.611,0.765 -2.333,1.168c-0.686,0.383 -1.368,0.782 -2,1.249c-0.638,0.472 -1.263,1.027 -1.833,1.583c-0.563,0.549 -1.108,1.123 -1.582,1.751c-0.556,0.736 -1.222,1.762 -1.75,2.665c-0.52,0.89 -0.99,1.812 -1.418,2.75c-0.43,0.945 -0.832,1.931 -1.165,2.917c-0.332,0.983 -0.626,1.985 -0.834,2.999c-0.209,1.014 -0.321,2.051 -0.417,3.084c-0.097,1.041 -0.165,2.124 -0.165,3.165c0,1.03 0.041,2.062 0.165,3.084c0.125,1.028 0.347,2.068 0.584,3.082c0.235,1.011 0.501,2.017 0.834,3c0.333,0.986 0.721,1.971 1.165,2.915c0.444,0.945 0.958,1.876 1.5,2.751c0.535,0.865 1.104,1.715 1.751,2.5c0.653,0.792 1.389,1.583 2.166,2.25c0.772,0.661 1.638,1.208 2.499,1.749c0.86,0.542 1.741,1.071 2.666,1.499c0.931,0.431 1.959,0.807 2.918,1.085c0.925,0.268 1.879,0.432 2.831,0.582c0.972,0.152 2.015,0.291 3.001,0.333c0.972,0.041 1.948,-0.001 2.917,-0.083c0.986,-0.084 2.026,-0.223 2.998,-0.417c0.958,-0.192 1.91,-0.432 2.834,-0.749c0.93,-0.319 1.858,-0.722 2.748,-1.168c1.084,-0.541 2.863,-1.555 3.752,-2.083c0.549,-0.326 1.072,-0.696 1.582,-1.082c0.514,-0.388 1.499,-1.249 1.499,-1.249l-6.499,-7.667c-0,0 -1.142,0.976 -1.749,1.418c-0.611,0.444 -1.25,0.888 -1.917,1.249c-0.666,0.361 -1.375,0.679 -2.083,0.915c-0.703,0.235 -1.436,0.377 -2.166,0.501c-0.736,0.125 -1.556,0.208 -2.25,0.25c-0.638,0.038 -1.279,0.041 -1.916,-0c-0.653,-0.042 -1.375,-0.125 -2,-0.25c-0.595,-0.119 -1.183,-0.285 -1.75,-0.501c-0.583,-0.222 -1.207,-0.512 -1.749,-0.832c-0.532,-0.313 -1.032,-0.683 -1.501,-1.084c-0.473,-0.403 -0.944,-0.847 -1.333,-1.332c-0.388,-0.486 -0.707,-1.042 -0.999,-1.583c-0.288,-0.536 -0.545,-1.092 -0.75,-1.666c-0.209,-0.584 -0.403,-1.21 -0.501,-1.835c-0.097,-0.625 -0.083,-1.916 -0.083,-1.916l31.83,-0c-0,-0 -0.014,-2.779 -0.084,-4.166c-0.069,-1.389 -0.166,-2.792 -0.333,-4.166c-0.166,-1.369 -0.473,-3.083 -0.667,-4.083c-0.126,-0.648 -0.294,-1.289 -0.499,-1.917c-0.208,-0.638 -0.472,-1.305 -0.75,-1.916c-0.273,-0.599 -0.585,-1.181 -0.918,-1.749c-0.375,-0.639 -0.847,-1.417 -1.332,-2.083c-0.486,-0.667 -1.028,-1.306 -1.583,-1.917c-0.555,-0.61 -1.125,-1.221 -1.749,-1.749c-0.625,-0.527 -1.312,-0.977 -2,-1.418c-0.694,-0.444 -1.431,-0.874 -2.167,-1.249c-0.731,-0.372 -1.477,-0.723 -2.249,-0.999c-0.778,-0.277 -1.6,-0.49 -2.417,-0.667c-0.833,-0.181 -1.722,-0.32 -2.584,-0.417c-0.857,-0.097 -1.722,-0.181 -2.583,-0.167Zm-0.167,9.417c0.611,-0.042 1.238,0.014 1.835,0.083c0.59,0.068 1.179,0.169 1.749,0.332c0.584,0.166 1.208,0.403 1.75,0.667c0.527,0.257 1.029,0.568 1.499,0.917c0.486,0.362 1.001,0.805 1.418,1.249c0.406,0.434 0.753,0.922 1.082,1.416c0.334,0.5 0.668,1.043 0.918,1.585c0.246,0.534 0.429,1.125 0.582,1.666c0.146,0.519 0.253,1.05 0.333,1.583c0.084,0.555 0.167,1.749 0.167,1.749l-21.331,0c-0,0 0.222,-1.625 0.417,-2.417c0.194,-0.791 0.445,-1.581 0.75,-2.331c0.305,-0.747 0.708,-1.569 1.083,-2.166c0.325,-0.519 0.737,-0.988 1.167,-1.418c0.431,-0.431 0.916,-0.833 1.416,-1.166c0.496,-0.331 1.034,-0.6 1.583,-0.834c0.555,-0.236 1.154,-0.431 1.749,-0.584c0.597,-0.152 1.222,-0.29 1.833,-0.331Z" style="fill:#fff;fill-rule:nonzero;"/></g><g><rect id="rect2320" x="157.536" y="330.709" width="55.241" height="94.488" style="fill:#0079c1;"/><path id="path1044-1" d="M164.364,335.459l-0,66.074l10.415,0l0,-3.665c0,-0 0.55,0.451 0.834,0.665c0.445,0.333 1.208,0.945 1.833,1.334c0.612,0.381 1.262,0.699 1.916,0.999c0.667,0.306 1.375,0.612 2.083,0.834c0.708,0.222 1.445,0.362 2.167,0.501c0.717,0.137 1.444,0.276 2.166,0.331c0.72,0.055 1.447,0.054 2.167,0c0.736,-0.055 1.528,-0.193 2.25,-0.331c0.701,-0.135 1.401,-0.29 2.083,-0.501c0.764,-0.236 1.688,-0.559 2.5,-0.917c0.819,-0.361 1.651,-0.791 2.415,-1.249c0.753,-0.452 1.48,-0.951 2.166,-1.5c0.694,-0.555 1.388,-1.195 2,-1.835c0.6,-0.627 1.142,-1.308 1.668,-1.999c0.528,-0.695 1.057,-1.408 1.499,-2.167c0.444,-0.763 0.832,-1.595 1.166,-2.414c0.331,-0.814 0.602,-1.653 0.834,-2.5c0.277,-1.014 0.624,-2.388 0.832,-3.583c0.206,-1.185 0.333,-2.39 0.417,-3.584c0.083,-1.192 0.125,-2.389 0.083,-3.582c-0.041,-1.194 -0.154,-2.397 -0.333,-3.583c-0.181,-1.194 -0.471,-2.543 -0.749,-3.584c-0.242,-0.908 -0.57,-1.804 -0.917,-2.665c-0.344,-0.853 -0.722,-1.695 -1.166,-2.5c-0.445,-0.806 -1.015,-1.639 -1.501,-2.333c-0.443,-0.633 -0.898,-1.261 -1.416,-1.833c-0.528,-0.583 -1.153,-1.152 -1.75,-1.666c-0.585,-0.504 -1.192,-0.987 -1.833,-1.418c-0.68,-0.458 -1.475,-0.932 -2.249,-1.333c-0.778,-0.402 -1.598,-0.776 -2.417,-1.082c-0.815,-0.304 -1.655,-0.542 -2.5,-0.75c-0.847,-0.209 -1.776,-0.403 -2.582,-0.501c-0.745,-0.09 -1.5,-0.111 -2.25,-0.083c-0.763,0.028 -1.583,0.125 -2.333,0.25c-0.731,0.122 -1.458,0.283 -2.166,0.5c-0.722,0.222 -1.472,0.513 -2.167,0.832c-0.689,0.317 -1.354,0.686 -1.999,1.085c-0.653,0.402 -1.458,0.985 -1.917,1.332c-0.298,0.226 -0.834,0.751 -0.834,0.751l0,-22.33l-10.415,-0Zm20.997,27.828c0.586,0 1.174,0.057 1.75,0.167c0.583,0.111 1.18,0.292 1.749,0.501c0.57,0.208 1.131,0.461 1.668,0.75c0.542,0.292 1.111,0.624 1.583,0.999c0.461,0.367 0.864,0.805 1.249,1.251c0.445,0.514 1.015,1.18 1.418,1.833c0.403,0.653 0.694,1.376 0.999,2.083c0.305,0.708 0.626,1.421 0.834,2.167c0.208,0.749 0.32,1.567 0.417,2.331c0.095,0.746 0.165,1.498 0.165,2.25c-0,0.764 -0.069,1.559 -0.165,2.333c-0.097,0.778 -0.209,1.583 -0.417,2.333c-0.207,0.746 -0.529,1.458 -0.834,2.167c-0.305,0.707 -0.596,1.43 -0.999,2.083c-0.403,0.652 -0.973,1.319 -1.418,1.833c-0.385,0.445 -0.788,0.884 -1.249,1.251c-0.472,0.375 -1.041,0.707 -1.583,0.999c-0.537,0.288 -1.098,0.542 -1.668,0.75c-0.569,0.209 -1.166,0.39 -1.749,0.501c-0.576,0.109 -1.164,0.164 -1.75,0.164c-0.597,0 -1.235,-0.067 -1.832,-0.164c-0.592,-0.097 -1.183,-0.224 -1.75,-0.417c-0.569,-0.195 -1.13,-0.462 -1.666,-0.751c-0.542,-0.292 -1.098,-0.61 -1.585,-0.999c-0.486,-0.389 -0.931,-0.85 -1.332,-1.334c-0.403,-0.487 -0.777,-1.028 -1.082,-1.583c-0.306,-0.555 -0.571,-1.141 -0.751,-1.749c-0.181,-0.611 -0.334,-1.917 -0.334,-1.917l0,-10.916c0,0 0.153,-1.305 0.334,-1.916c0.18,-0.608 0.445,-1.194 0.751,-1.749c0.305,-0.556 0.679,-1.097 1.082,-1.583c0.401,-0.484 0.846,-0.945 1.332,-1.334c0.487,-0.389 1.043,-0.708 1.585,-0.999c0.536,-0.289 1.097,-0.556 1.666,-0.751c0.567,-0.194 1.158,-0.32 1.75,-0.417c0.597,-0.097 1.235,-0.167 1.832,-0.167Z" style="fill:#fff;fill-rule:nonzero;"/></g></g><g><g><rect id="rect2467-31" serif:id="rect2467-3" x="523.02" y="330.709" width="37.829" height="94.488" style="fill:#0079c1;"/><path id="path32411" serif:id="path3241" d="M547.6,354.372l-2,0.834l-1.833,1.166l-1.666,1.333l-1.5,1.667l-0,-5l-10.332,0l-0,47.244l10.332,0l-0,-27.329l0.333,-1.834l0.667,-1.749l1,-1.667l1.249,-1.416l1.417,-1.167l1.666,-0.916l1.75,-0.667l3.25,-0.583l3.166,-0.167l0,-10.748l-2.666,0.083l-2.667,0.416l-2.166,0.5Z" style="fill:#fff;fill-rule:nonzero;"/></g><g><rect id="rect2433-0-61" serif:id="rect2433-0-6" x="560.848" y="330.709" width="55.826" height="94.488" style="fill:#0079c1;"/><path id="path38511" serif:id="path3851" d="M587.345,352.789c-0.917,-0 -1.847,0.069 -2.75,0.167c-0.895,0.096 -1.791,0.212 -2.667,0.417c-0.889,0.208 -1.804,0.512 -2.665,0.832c-0.852,0.316 -1.695,0.667 -2.5,1.084c-0.806,0.417 -1.583,0.902 -2.333,1.416c-0.75,0.514 -1.528,1.11 -2.167,1.666c-0.593,0.516 -1.154,1.072 -1.666,1.668c-0.514,0.597 -0.971,1.264 -1.416,1.916c-0.442,0.65 -0.876,1.319 -1.251,2c-0.371,0.674 -0.699,1.374 -0.999,2.083c-0.305,0.722 -0.609,1.482 -0.834,2.25c-0.264,0.902 -0.543,2.101 -0.75,3.165c-0.208,1.07 -0.388,2.168 -0.499,3.251c-0.11,1.079 -0.167,2.166 -0.167,3.249c0,1.083 0.07,2.179 0.167,3.248c0.096,1.061 0.209,2.123 0.415,3.168c0.208,1.055 0.57,2.262 0.834,3.165c0.222,0.759 0.459,1.528 0.751,2.25c0.288,0.714 0.633,1.405 0.999,2.083c0.375,0.694 0.792,1.43 1.251,2.083c0.453,0.646 0.972,1.249 1.499,1.833c0.527,0.583 1.08,1.145 1.666,1.668c0.639,0.569 1.417,1.222 2.167,1.749c0.744,0.524 1.527,1 2.333,1.416c0.805,0.417 1.653,0.765 2.5,1.084c0.847,0.32 1.709,0.624 2.583,0.832c0.875,0.209 1.771,0.321 2.665,0.417c0.903,0.098 1.834,0.167 2.751,0.167c0.916,0 1.847,-0.069 2.75,-0.167c0.894,-0.096 1.786,-0.225 2.665,-0.417c0.888,-0.194 1.806,-0.429 2.667,-0.748c0.861,-0.32 1.694,-0.737 2.5,-1.168c0.802,-0.429 1.583,-0.902 2.333,-1.416c0.75,-0.513 1.528,-1.11 2.167,-1.666c0.593,-0.515 1.139,-1.085 1.666,-1.668c0.527,-0.583 1.041,-1.194 1.499,-1.833c0.458,-0.638 0.877,-1.307 1.251,-1.999c0.375,-0.695 0.707,-1.431 0.999,-2.167c0.291,-0.735 0.529,-1.491 0.75,-2.25c0.264,-0.902 0.61,-2.11 0.832,-3.165c0.221,-1.046 0.392,-2.104 0.501,-3.167c0.111,-1.084 0.167,-2.236 0.167,-3.332c-0,-1.085 -0.056,-2.17 -0.167,-3.249c-0.111,-1.083 -0.292,-2.181 -0.501,-3.251c-0.207,-1.064 -0.484,-2.263 -0.748,-3.165c-0.225,-0.768 -0.529,-1.528 -0.834,-2.25c-0.3,-0.709 -0.627,-1.409 -0.999,-2.083c-0.375,-0.681 -0.799,-1.356 -1.251,-2c-0.458,-0.652 -0.972,-1.319 -1.499,-1.916c-0.521,-0.589 -1.079,-1.146 -1.666,-1.668c-0.625,-0.556 -1.35,-1.164 -2.083,-1.666c-0.75,-0.514 -1.598,-0.999 -2.417,-1.416c-0.81,-0.412 -1.653,-0.765 -2.5,-1.084c-0.847,-0.319 -1.709,-0.624 -2.584,-0.832c-0.874,-0.208 -1.771,-0.321 -2.665,-0.417c-0.902,-0.098 -1.833,-0.167 -2.75,-0.167Zm0,9.915c0.639,-0 1.285,0.057 1.916,0.167c0.639,0.111 1.306,0.292 1.917,0.5c0.6,0.205 1.19,0.451 1.749,0.751c0.569,0.305 1.152,0.679 1.666,1.082c0.511,0.4 0.988,0.849 1.418,1.334c0.431,0.487 0.832,1.042 1.166,1.583c0.325,0.529 0.611,1.086 0.834,1.666c0.277,0.722 0.61,1.764 0.832,2.667c0.222,0.903 0.403,1.822 0.5,2.748c0.097,0.931 0.084,1.903 0.084,2.834c-0,0.917 0.013,1.838 -0.084,2.75c-0.097,0.917 -0.278,1.86 -0.5,2.749c-0.22,0.877 -0.555,1.861 -0.832,2.583c-0.232,0.603 -0.501,1.208 -0.834,1.75c-0.332,0.539 -0.739,1.033 -1.166,1.501c-0.431,0.472 -0.914,0.924 -1.418,1.332c-0.514,0.417 -1.097,0.847 -1.666,1.166c-0.553,0.31 -1.149,0.546 -1.749,0.751c-0.611,0.208 -1.278,0.403 -1.917,0.5c-0.632,0.096 -1.277,0.083 -1.916,0.083c-0.639,0 -1.284,0.013 -1.916,-0.083c-0.639,-0.097 -1.305,-0.292 -1.916,-0.5c-0.601,-0.205 -1.196,-0.441 -1.75,-0.751c-0.569,-0.319 -1.154,-0.749 -1.668,-1.166c-0.504,-0.408 -0.986,-0.86 -1.416,-1.332c-0.426,-0.469 -0.834,-0.962 -1.165,-1.501c-0.334,-0.542 -0.602,-1.147 -0.835,-1.75c-0.278,-0.722 -0.614,-1.705 -0.834,-2.583c-0.222,-0.889 -0.387,-1.832 -0.498,-2.749c-0.11,-0.911 -0.167,-1.832 -0.167,-2.75c0,-0.931 0.056,-1.903 0.167,-2.834c0.11,-0.924 0.276,-1.845 0.498,-2.748c0.223,-0.903 0.556,-1.945 0.834,-2.667c0.224,-0.579 0.509,-1.137 0.835,-1.666c0.333,-0.541 0.735,-1.096 1.165,-1.583c0.43,-0.485 0.906,-0.934 1.416,-1.334c0.514,-0.403 1.099,-0.777 1.668,-1.082c0.559,-0.3 1.149,-0.546 1.75,-0.751c0.611,-0.208 1.277,-0.389 1.916,-0.5c0.631,-0.11 1.277,-0.167 1.916,-0.167Z" style="fill:#fff;fill-rule:nonzero;"/></g><g><rect id="rect2433-0" x="733.913" y="330.709" width="52.993" height="94.488" style="fill:#0079c1;"/><path id="path1052" d="M751.244,401.616l-10.416,0l0,-47.244l10.416,0l-0,4.083c-0,0 1.069,-1.111 1.666,-1.583c0.597,-0.472 1.264,-0.861 1.917,-1.25c0.651,-0.388 1.305,-0.778 1.999,-1.083c0.695,-0.306 1.431,-0.542 2.167,-0.75c0.736,-0.208 1.5,-0.389 2.249,-0.5c0.744,-0.11 1.5,-0.153 2.25,-0.166c0.75,-0.014 1.504,-0 2.25,0.083c0.75,0.083 1.514,0.222 2.25,0.416c0.736,0.195 1.458,0.473 2.166,0.75c0.706,0.277 1.422,0.545 2.083,0.917c0.667,0.375 1.319,0.861 1.917,1.333c0.586,0.464 1.158,0.951 1.666,1.5c0.514,0.555 1,1.208 1.416,1.833c0.407,0.611 0.772,1.252 1.084,1.916c0.319,0.681 0.625,1.431 0.833,2.167c0.208,0.734 0.416,2.25 0.416,2.25l0,35.328l-10.415,0l0,-30.079c0,-0 -0.044,-1.177 -0.167,-1.75c-0.124,-0.583 -0.347,-1.194 -0.583,-1.75c-0.233,-0.548 -0.527,-1.111 -0.833,-1.583c-0.29,-0.448 -0.625,-0.875 -1,-1.25c-0.375,-0.375 -0.805,-0.722 -1.25,-1c-0.442,-0.276 -0.93,-0.486 -1.416,-0.666c-0.486,-0.181 -0.988,-0.334 -1.5,-0.417c-0.514,-0.083 -1.055,-0.111 -1.583,-0.083c-0.528,0.028 -1.068,0.108 -1.583,0.25c-0.556,0.153 -1.184,0.404 -1.75,0.667c-0.569,0.263 -1.153,0.569 -1.667,0.916c-0.506,0.343 -0.977,0.741 -1.416,1.167c-0.444,0.43 -0.889,0.902 -1.25,1.416c-0.361,0.514 -0.653,1.097 -0.916,1.667c-0.263,0.566 -0.5,1.152 -0.667,1.749c-0.167,0.597 -0.333,1.833 -0.333,1.833l-0,28.913Z" style="fill:#fff;fill-rule:nonzero;"/></g><g><rect id="rect2324-5-8-8-3" x="708.499" y="330.709" width="25.413" height="94.488" style="fill:#0079c1;"/><path id="path3289" d="M719.914,335.459c-0.471,-0 -0.957,-0.014 -1.415,0.083c-0.459,0.097 -0.918,0.29 -1.335,0.499c-0.413,0.206 -0.806,0.46 -1.165,0.75c-0.362,0.292 -0.71,0.64 -1.001,1.001c-0.29,0.359 -0.542,0.753 -0.749,1.166c-0.208,0.416 -0.403,0.874 -0.5,1.332c-0.098,0.459 -0.084,0.946 -0.084,1.418c0,0.472 -0.014,0.958 0.084,1.416c0.097,0.458 0.292,0.916 0.5,1.332c0.207,0.414 0.458,0.808 0.749,1.168c0.291,0.361 0.639,0.707 1.001,0.999c0.359,0.29 0.752,0.544 1.165,0.75c0.417,0.209 0.876,0.39 1.335,0.501c0.458,0.111 0.944,0.167 1.415,0.167c0.472,-0 0.958,-0.056 1.416,-0.167c0.459,-0.111 0.918,-0.292 1.335,-0.501c0.413,-0.206 0.806,-0.46 1.165,-0.75c0.361,-0.292 0.71,-0.638 1.001,-0.999c0.291,-0.36 0.542,-0.754 0.749,-1.168c0.208,-0.416 0.389,-0.874 0.5,-1.332c0.112,-0.458 0.167,-0.944 0.167,-1.416c0,-0.472 -0.055,-0.959 -0.167,-1.418c-0.111,-0.458 -0.292,-0.916 -0.5,-1.332c-0.207,-0.413 -0.459,-0.807 -0.749,-1.166c-0.291,-0.361 -0.64,-0.709 -1.001,-1.001c-0.359,-0.29 -0.752,-0.544 -1.165,-0.75c-0.417,-0.209 -0.876,-0.402 -1.335,-0.499c-0.458,-0.097 -0.944,-0.083 -1.416,-0.083Zm-5.167,18.831l0,47.243l10.334,0l0,-47.243l-10.334,-0Z" style="fill:#fff;fill-rule:nonzero;"/></g><g><rect id="rect2324-5-8" x="786.906" y="330.709" width="56.326" height="94.488" style="fill:#0079c1;"/><path id="path1060" d="M810.986,353.372c-0.757,0.055 -1.507,0.183 -2.25,0.334c-0.75,0.153 -1.517,0.335 -2.25,0.584c-0.736,0.25 -1.472,0.568 -2.167,0.915c-0.69,0.346 -1.366,0.727 -1.999,1.168c-0.639,0.444 -1.256,0.961 -1.833,1.499c-0.625,0.583 -1.321,1.294 -1.916,2c-0.598,0.708 -1.167,1.472 -1.667,2.25c-0.497,0.774 -0.932,1.588 -1.332,2.416c-0.403,0.833 -0.779,1.707 -1.084,2.582c-0.305,0.872 -0.541,1.778 -0.749,2.667c-0.206,0.88 -0.391,1.769 -0.5,2.667c-0.111,0.916 -0.167,1.889 -0.167,2.833c-0,0.945 0.071,1.891 0.167,2.832c0.097,0.958 0.209,1.973 0.417,2.917c0.206,0.935 0.512,1.846 0.832,2.749c0.319,0.902 0.683,1.795 1.084,2.666c0.403,0.875 0.833,1.764 1.332,2.584c0.498,0.816 1.071,1.586 1.667,2.333c0.597,0.75 1.291,1.556 1.916,2.167c0.564,0.551 1.194,1.055 1.833,1.499c0.634,0.441 1.311,0.82 2.001,1.166c0.695,0.347 1.429,0.667 2.165,0.917c0.733,0.249 1.5,0.431 2.25,0.584c0.743,0.151 1.493,0.278 2.25,0.333c0.763,0.056 1.557,0.056 2.333,0c0.778,-0.055 1.569,-0.18 2.333,-0.333c0.76,-0.152 1.516,-0.335 2.25,-0.584c0.736,-0.25 1.472,-0.57 2.166,-0.917c0.691,-0.346 1.361,-0.736 2,-1.166c0.639,-0.43 1.833,-1.416 1.833,-1.416l0,6.082c0,0 0.014,1.181 -0.083,1.75c-0.098,0.569 -0.265,1.152 -0.501,1.666c-0.234,0.511 -0.525,1.012 -0.915,1.416c-0.417,0.43 -1.027,0.82 -1.583,1.167c-0.556,0.348 -1.154,0.652 -1.751,0.916c-0.595,0.263 -1.208,0.5 -1.833,0.667c-0.625,0.167 -1.278,0.278 -1.916,0.334c-0.637,0.055 -1.278,0.011 -1.917,-0c-0.805,-0.014 -1.949,0.013 -2.917,-0.084c-0.972,-0.097 -1.957,-0.306 -2.915,-0.5c-0.951,-0.193 -1.904,-0.388 -2.834,-0.665c-0.93,-0.278 -1.848,-0.627 -2.748,-1.001c-0.902,-0.375 -2.667,-1.249 -2.667,-1.249l-3.832,8.914c-0,-0 2.096,1.057 3.165,1.501c1.063,0.442 2.152,0.822 3.251,1.166c1.111,0.347 2.277,0.667 3.415,0.917c1.128,0.248 2.271,0.431 3.416,0.582c1.152,0.153 2.334,0.292 3.501,0.334c1.166,0.041 2.334,-0.014 3.499,-0.084c1.166,-0.069 2.346,-0.167 3.498,-0.333c1.149,-0.166 2.571,-0.499 3.418,-0.666c0.556,-0.109 1.125,-0.18 1.666,-0.333c0.541,-0.153 1.083,-0.334 1.583,-0.584c0.499,-0.25 0.962,-0.583 1.416,-0.915c0.569,-0.417 1.391,-0.991 1.999,-1.585c0.611,-0.597 1.168,-1.305 1.668,-2c0.496,-0.688 0.932,-1.419 1.333,-2.166c0.402,-0.75 0.79,-1.54 1.082,-2.331c0.289,-0.785 0.516,-1.595 0.667,-2.417c0.153,-0.834 0.25,-2.584 0.25,-2.584l0,-47.243l-10.415,-0l0,3.582c0,0 -1.194,-1.055 -1.833,-1.499c-0.633,-0.441 -1.309,-0.823 -2,-1.168c-0.694,-0.347 -1.43,-0.665 -2.166,-0.915c-0.734,-0.249 -1.49,-0.432 -2.25,-0.584c-0.764,-0.153 -1.555,-0.278 -2.333,-0.334c-0.776,-0.055 -1.57,-0.055 -2.333,0Zm3.167,9.999c0.639,-0.014 1.347,-0 1.916,0.083c0.513,0.075 1.027,0.237 1.499,0.417c0.464,0.178 0.909,0.408 1.333,0.667c0.43,0.264 0.862,0.583 1.251,0.916c0.388,0.332 0.779,0.673 1.082,1.084c0.389,0.528 0.904,1.361 1.251,2.083c0.347,0.721 0.613,1.481 0.832,2.25c0.222,0.778 0.403,1.61 0.501,2.415c0.096,0.8 0.083,1.611 0.083,2.416c0,0.806 0.013,1.617 -0.083,2.417c-0.098,0.806 -0.279,1.639 -0.501,2.417c-0.219,0.769 -0.485,1.529 -0.832,2.25c-0.347,0.722 -0.862,1.541 -1.251,2.083c-0.309,0.43 -0.693,0.832 -1.082,1.165c-0.381,0.327 -0.821,0.584 -1.251,0.834c-0.43,0.25 -0.869,0.49 -1.333,0.668c-0.472,0.18 -0.986,0.34 -1.499,0.415c-0.569,0.083 -1.277,0.097 -1.916,0.083c-0.653,-0.014 -1.347,-0.07 -2,-0.167c-0.646,-0.096 -1.305,-0.207 -1.916,-0.415c-0.611,-0.208 -1.213,-0.475 -1.752,-0.834c-0.541,-0.361 -1.043,-0.843 -1.499,-1.332c-0.465,-0.5 -0.93,-1.071 -1.292,-1.668c-0.361,-0.598 -0.618,-1.278 -0.874,-1.917c-0.252,-0.627 -0.499,-1.263 -0.665,-1.916c-0.167,-0.652 -0.265,-1.327 -0.334,-2c-0.07,-0.68 -0.083,-1.388 -0.083,-2.083c-0,-0.694 0.013,-1.402 0.083,-2.083c0.069,-0.672 0.167,-1.347 0.334,-1.999c0.166,-0.653 0.413,-1.289 0.665,-1.917c0.256,-0.638 0.513,-1.319 0.874,-1.916c0.362,-0.597 0.827,-1.166 1.292,-1.666c0.456,-0.489 0.958,-0.985 1.499,-1.332c0.535,-0.343 1.151,-0.546 1.752,-0.751c0.611,-0.208 1.265,-0.39 1.916,-0.5c0.653,-0.112 1.347,-0.153 2,-0.167Z" style="fill:#fff;fill-rule:nonzero;"/></g><g><rect id="rect2318" x="474.359" y="330.709" width="48.661" height="94.488" style="fill:#0079c1;"/><path id="path3825" d="M518.854,390.035c0,-0 -0.847,1.597 -1.333,2.333c-0.481,0.727 -1.017,1.42 -1.583,2.083c-0.57,0.666 -1.195,1.319 -1.833,1.916c-0.634,0.593 -1.298,1.157 -2,1.667c-0.708,0.513 -1.486,0.986 -2.25,1.416c-0.757,0.427 -1.529,0.834 -2.333,1.167c-0.805,0.333 -1.652,0.611 -2.5,0.833c-0.847,0.222 -1.714,0.376 -2.583,0.5c-0.874,0.125 -1.791,0.236 -2.666,0.25c-0.863,0.013 -1.725,-0.072 -2.583,-0.167c-0.875,-0.097 -1.805,-0.236 -2.666,-0.417c-0.844,-0.176 -1.688,-0.377 -2.5,-0.666c-0.819,-0.292 -1.639,-0.681 -2.416,-1.083c-0.774,-0.401 -1.528,-0.847 -2.25,-1.333c-0.722,-0.487 -1.447,-0.987 -2.083,-1.584c-0.681,-0.638 -1.403,-1.458 -2,-2.249c-0.594,-0.788 -1.088,-1.647 -1.583,-2.5c-0.5,-0.861 -1,-1.764 -1.416,-2.666c-0.413,-0.895 -0.78,-1.813 -1.084,-2.75c-0.305,-0.944 -0.555,-1.944 -0.75,-2.916c-0.192,-0.963 -0.32,-1.939 -0.416,-2.917c-0.097,-0.986 -0.167,-1.999 -0.167,-2.999c0,-1 0.07,-2.003 0.167,-3c0.097,-1 0.222,-2.027 0.416,-2.999c0.192,-0.958 0.45,-1.904 0.75,-2.833c0.306,-0.945 0.667,-1.917 1.084,-2.833c0.416,-0.917 0.916,-1.82 1.416,-2.667c0.489,-0.829 1.003,-1.647 1.583,-2.416c0.597,-0.792 1.319,-1.68 2,-2.333c0.629,-0.604 1.361,-1.097 2.083,-1.583c0.722,-0.486 1.472,-0.945 2.25,-1.333c0.777,-0.389 1.597,-0.709 2.416,-1c0.819,-0.292 1.651,-0.559 2.5,-0.75c0.861,-0.195 1.791,-0.334 2.666,-0.417c0.858,-0.082 1.722,-0.097 2.583,-0.083c0.875,0.014 1.792,0.041 2.666,0.166c0.874,0.125 1.736,0.348 2.583,0.584c0.847,0.235 1.695,0.513 2.5,0.833c0.797,0.316 1.58,0.673 2.333,1.083c0.764,0.417 1.542,0.903 2.25,1.417c0.702,0.509 1.366,1.074 2,1.666c0.638,0.597 1.265,1.239 1.833,1.916c0.569,0.681 1.097,1.431 1.583,2.167c0.48,0.727 1.333,2.25 1.333,2.25l-8.749,4.332c0,0 -0.518,-1.131 -0.833,-1.666c-0.319,-0.542 -0.681,-1.097 -1.083,-1.583c-0.401,-0.484 -0.856,-0.924 -1.333,-1.333c-0.486,-0.417 -1.042,-0.834 -1.584,-1.167c-0.529,-0.325 -1.09,-0.6 -1.666,-0.833c-0.583,-0.236 -1.208,-0.445 -1.833,-0.583c-0.625,-0.139 -1.278,-0.236 -1.917,-0.25c-0.638,-0.014 -1.291,0.055 -1.916,0.166c-0.624,0.111 -1.24,0.279 -1.833,0.5c-0.597,0.222 -1.208,0.486 -1.75,0.833c-0.542,0.348 -1.028,0.806 -1.5,1.25c-0.472,0.445 -0.944,0.903 -1.333,1.417c-0.389,0.514 -0.711,1.087 -1,1.666c-0.292,0.584 -0.52,1.215 -0.75,1.833c-0.264,0.709 -0.627,1.59 -0.833,2.417c-0.209,0.833 -0.334,1.722 -0.417,2.583c-0.083,0.857 -0.083,1.722 -0.083,2.583c-0,0.861 -0,1.736 0.083,2.583c0.083,0.84 0.212,1.68 0.417,2.499c0.208,0.834 0.569,1.792 0.833,2.5c0.221,0.595 0.461,1.185 0.75,1.75c0.291,0.569 0.615,1.145 1,1.666c0.389,0.528 0.861,1.056 1.333,1.5c0.461,0.434 0.96,0.835 1.5,1.167c0.541,0.333 1.152,0.611 1.749,0.833c0.594,0.221 1.21,0.389 1.834,0.5c0.624,0.111 1.277,0.18 1.916,0.167c0.639,-0.014 1.291,-0.125 1.916,-0.25c0.621,-0.125 1.25,-0.264 1.833,-0.5c0.584,-0.236 1.127,-0.585 1.667,-0.917c0.542,-0.333 1.098,-0.667 1.583,-1.083c0.486,-0.417 0.931,-0.931 1.333,-1.417c0.394,-0.474 0.77,-0.968 1.083,-1.499c0.32,-0.542 0.834,-1.75 0.834,-1.75l8.749,4.333Z" style="fill:#fff;fill-rule:nonzero;"/></g><g><rect id="rect2467-3-8" x="616.675" y="330.709" width="45.912" height="94.488" style="fill:#0079c1;"/><path id="path1216" d="M641.005,383.537l-3.166,-0.667l-4.25,-1l-4.166,-1.333l-1.75,-1l-1.666,-1.166l-1.5,-1.5l-1.25,-1.667l-1,-1.916l-0.666,-2l-0.334,-2.083l-0.083,-2.166l0.25,-2.083l0.583,-2.083l0.917,-1.917l1.166,-1.833l1.417,-1.5l1.666,-1.416l1.833,-1.084l3,-1.084l3.083,-0.749l3.166,-0.334l3.166,0.084l3.167,0.416l3.332,1l3.167,1.5l2.999,1.833l2.75,2.083l-6.416,7.082l-2.166,-1.583l-2.25,-1.25l-2.416,-1.083l-2.583,-0.666l-1.667,-0.167l-1.666,0.084l-1.583,0.416l-1.584,0.667l-1.416,0.916l-0.75,0.667l-0.583,0.916l-0.333,1l-0.084,1l0.167,1.083l0.417,0.917l0.833,0.833l1,0.583l1.083,0.417l3.583,0.916l3.583,0.75l2.666,0.583l2.5,0.834l2.416,1.083l2.25,1.333l1.416,1.333l1.167,1.583l0.917,1.667l0.666,1.833l0.417,1.916l0.166,2.083l-0.083,2.167l-0.5,2.083l-0.667,2l-1.083,1.916l-1.25,1.667l-1.5,1.499l-1.999,1.5l-2.167,1.25l-2.583,0.75l-2.666,0.5l-2.666,0.25l-2.667,-0.084l-2.666,-0.333l-2.666,-0.667l-2.5,-0.916l-3.75,-2l-3.499,-2.25l-3.333,-2.583l6.582,-7.082l2.333,2l2.5,1.749l2,1.084l2.166,0.75l2.25,0.499l2.25,0.167l2.25,-0.167l2.249,-0.583l1.083,-0.416l0.917,-0.667l0.75,-0.833l0.5,-1.25l0.166,-1.416l-0.166,-1.25l-0.583,-1l-0.667,-0.75l-0.833,-0.666l-3.083,-0.999Z" style="fill:#fff;fill-rule:nonzero;"/></g><g><rect id="rect2467-3-81" serif:id="rect2467-3-8" x="662.587" y="330.709" width="45.912" height="94.488" style="fill:#0079c1;"/><path id="path12161" serif:id="path1216" d="M686.917,383.537l-3.166,-0.667l-4.249,-1l-4.166,-1.333l-1.75,-1l-1.667,-1.166l-1.499,-1.5l-1.25,-1.667l-1,-1.916l-0.667,-2l-0.333,-2.083l-0.084,-2.166l0.25,-2.083l0.584,-2.083l0.916,-1.917l1.167,-1.833l1.416,-1.5l1.667,-1.416l1.833,-1.084l2.999,-1.084l3.083,-0.749l3.166,-0.334l3.167,0.084l3.166,0.416l3.333,1l3.166,1.5l3,1.833l2.749,2.083l-6.416,7.082l-2.166,-1.583l-2.25,-1.25l-2.416,-1.083l-2.583,-0.666l-1.666,-0.167l-1.667,0.084l-1.583,0.416l-1.583,0.667l-1.416,0.916l-0.75,0.667l-0.583,0.916l-0.334,1l-0.083,1l0.166,1.083l0.417,0.917l0.833,0.833l1,0.583l1.083,0.417l3.583,0.916l3.583,0.75l2.667,0.583l2.499,0.834l2.417,1.083l2.249,1.333l1.417,1.333l1.166,1.583l0.917,1.667l0.667,1.833l0.416,1.916l0.167,2.083l-0.084,2.167l-0.5,2.083l-0.666,2l-1.084,1.916l-1.249,1.667l-1.5,1.499l-2,1.5l-2.166,1.25l-2.583,0.75l-2.667,0.5l-2.666,0.25l-2.666,-0.084l-2.667,-0.333l-2.666,-0.667l-2.5,-0.916l-3.749,-2l-3.5,-2.25l-3.333,-2.583l6.583,-7.082l2.333,2l2.5,1.749l1.999,1.084l2.167,0.75l2.249,0.499l2.25,0.167l2.25,-0.167l2.25,-0.583l1.083,-0.416l0.916,-0.667l0.75,-0.833l0.5,-1.25l0.167,-1.416l-0.167,-1.25l-0.583,-1l-0.667,-0.75l-0.833,-0.666l-3.083,-0.999Z" style="fill:#fff;fill-rule:nonzero;"/></g></g></g><g><g><rect id="rect2465" x="365.984" y="236.22" width="55.826" height="94.488" style="fill:#0079c1;"/><path id="path3143" d="M393.564,258.885c-0.726,0.041 -1.453,0.113 -2.167,0.25c-0.722,0.139 -1.472,0.36 -2.166,0.582c-0.678,0.217 -1.353,0.453 -2,0.75c-0.666,0.306 -1.375,0.696 -1.999,1.085c-0.609,0.378 -1.319,0.915 -1.75,1.249c-0.296,0.229 -0.834,0.75 -0.834,0.75l0,-3.751l-10.415,0l-0,62.077l10.415,-0.083l0,-18.166c0,-0 0.539,0.52 0.834,0.751c0.445,0.347 1.194,0.929 1.833,1.332c0.639,0.403 1.311,0.767 2,1.084c0.694,0.32 1.43,0.61 2.166,0.832c0.736,0.222 1.5,0.39 2.25,0.501c0.744,0.11 1.498,0.153 2.25,0.167c0.764,0.013 1.559,-0.005 2.333,-0.084c0.82,-0.083 1.737,-0.209 2.584,-0.417c0.847,-0.208 1.692,-0.526 2.498,-0.832c0.791,-0.3 1.576,-0.622 2.333,-1.001c0.778,-0.389 1.639,-0.874 2.333,-1.332c0.645,-0.425 1.254,-0.906 1.833,-1.416c0.584,-0.514 1.147,-1.079 1.668,-1.668c0.528,-0.598 1.032,-1.254 1.499,-1.916c0.5,-0.709 1.055,-1.528 1.5,-2.334c0.444,-0.804 0.834,-1.651 1.167,-2.498c0.332,-0.842 0.607,-1.707 0.832,-2.583c0.264,-1.028 0.57,-2.388 0.751,-3.583c0.179,-1.186 0.278,-2.385 0.334,-3.584c0.055,-1.208 0.069,-2.458 -0,-3.666c-0.069,-1.2 -0.209,-2.401 -0.417,-3.582c-0.209,-1.18 -0.557,-2.501 -0.834,-3.501c-0.235,-0.846 -0.502,-1.685 -0.832,-2.498c-0.334,-0.819 -0.724,-1.653 -1.168,-2.417c-0.442,-0.759 -0.966,-1.468 -1.499,-2.166c-0.542,-0.708 -1.125,-1.444 -1.75,-2.083c-0.619,-0.633 -1.305,-1.208 -2,-1.75c-0.692,-0.54 -1.416,-1.043 -2.166,-1.501c-0.75,-0.458 -1.528,-0.888 -2.333,-1.249c-0.806,-0.361 -1.723,-0.668 -2.5,-0.917c-0.712,-0.229 -1.445,-0.444 -2.167,-0.582c-0.714,-0.137 -1.441,-0.209 -2.166,-0.25c-0.736,-0.042 -1.514,-0.042 -2.25,-0Zm-0.417,10.498c0.611,0 1.235,0.056 1.833,0.167c0.597,0.111 1.182,0.306 1.751,0.501c0.566,0.193 1.143,0.376 1.666,0.665c0.528,0.291 1.027,0.709 1.499,1.084c0.462,0.367 0.947,0.719 1.333,1.166c0.444,0.513 0.932,1.25 1.334,1.916c0.403,0.667 0.777,1.375 1.083,2.083c0.302,0.702 0.542,1.431 0.75,2.167c0.209,0.736 0.39,1.489 0.501,2.249c0.111,0.764 0.166,1.556 0.166,2.334c0,0.777 -0.055,1.569 -0.166,2.333c-0.111,0.76 -0.295,1.51 -0.501,2.25c-0.208,0.75 -0.445,1.541 -0.75,2.25c-0.301,0.696 -0.685,1.354 -1.083,1.999c-0.402,0.653 -0.89,1.389 -1.334,1.917c-0.392,0.465 -0.861,0.874 -1.333,1.249c-0.47,0.374 -0.973,0.71 -1.499,1.001c-0.527,0.291 -1.096,0.554 -1.666,0.748c-0.568,0.194 -1.159,0.321 -1.751,0.417c-0.598,0.097 -1.222,0.153 -1.833,0.167c-0.611,0.014 -1.236,0.014 -1.833,-0.083c-0.597,-0.098 -1.18,-0.307 -1.75,-0.501c-0.565,-0.193 -1.138,-0.387 -1.666,-0.665c-0.527,-0.278 -1.03,-0.626 -1.499,-1.001c-0.486,-0.389 -1.001,-0.846 -1.418,-1.332c-0.416,-0.485 -0.79,-1.027 -1.082,-1.583c-0.29,-0.553 -0.503,-1.149 -0.667,-1.751c-0.167,-0.612 -0.334,-1.917 -0.334,-1.917l0,-10.914c0,0 0.167,-1.304 0.334,-1.916c0.164,-0.602 0.377,-1.198 0.667,-1.751c0.292,-0.556 0.666,-1.098 1.082,-1.583c0.417,-0.486 0.932,-0.943 1.418,-1.332c0.469,-0.376 0.974,-0.711 1.499,-1.001c0.528,-0.292 1.097,-0.555 1.666,-0.749c0.568,-0.193 1.158,-0.32 1.75,-0.417c0.597,-0.097 1.222,-0.167 1.833,-0.167Z" style="fill:#fff;fill-rule:nonzero;"/></g><g><rect id="rect2433-0-62" serif:id="rect2433-0-6" x="474.637" y="236.22" width="55.826" height="94.488" style="fill:#0079c1;"/><path id="path38512" serif:id="path3851" d="M501.134,258.301c-0.917,-0 -1.847,0.069 -2.75,0.167c-0.895,0.096 -1.791,0.211 -2.667,0.417c-0.889,0.208 -1.804,0.512 -2.665,0.832c-0.852,0.316 -1.695,0.667 -2.5,1.084c-0.806,0.417 -1.584,0.902 -2.334,1.416c-0.749,0.513 -1.527,1.11 -2.166,1.666c-0.593,0.516 -1.154,1.072 -1.666,1.668c-0.514,0.597 -0.971,1.263 -1.416,1.916c-0.442,0.65 -0.876,1.319 -1.251,2c-0.372,0.674 -0.699,1.374 -0.999,2.083c-0.305,0.722 -0.609,1.482 -0.834,2.25c-0.264,0.902 -0.543,2.101 -0.75,3.165c-0.209,1.069 -0.388,2.167 -0.499,3.251c-0.11,1.078 -0.167,2.166 -0.167,3.248c0,1.083 0.07,2.18 0.167,3.249c0.096,1.061 0.209,2.123 0.415,3.167c0.208,1.056 0.57,2.263 0.834,3.166c0.222,0.759 0.459,1.527 0.751,2.25c0.288,0.714 0.633,1.405 0.999,2.083c0.375,0.694 0.792,1.43 1.251,2.083c0.453,0.646 0.971,1.249 1.499,1.833c0.527,0.583 1.079,1.145 1.666,1.668c0.639,0.569 1.417,1.222 2.166,1.749c0.745,0.524 1.528,0.999 2.334,1.416c0.805,0.417 1.653,0.765 2.5,1.084c0.846,0.319 1.709,0.624 2.583,0.832c0.875,0.208 1.771,0.321 2.665,0.417c0.903,0.098 1.834,0.167 2.751,0.167c0.916,0 1.847,-0.069 2.75,-0.167c0.894,-0.096 1.786,-0.225 2.665,-0.417c0.888,-0.194 1.805,-0.429 2.667,-0.748c0.861,-0.32 1.694,-0.737 2.5,-1.168c0.802,-0.429 1.583,-0.902 2.333,-1.416c0.75,-0.513 1.528,-1.11 2.166,-1.666c0.593,-0.516 1.139,-1.085 1.667,-1.668c0.527,-0.583 1.04,-1.194 1.499,-1.833c0.458,-0.639 0.877,-1.308 1.251,-2c0.375,-0.694 0.707,-1.43 0.999,-2.166c0.291,-0.735 0.529,-1.491 0.75,-2.25c0.264,-0.902 0.61,-2.11 0.832,-3.165c0.22,-1.046 0.392,-2.104 0.501,-3.167c0.111,-1.084 0.167,-2.236 0.167,-3.333c-0,-1.084 -0.057,-2.17 -0.167,-3.248c-0.111,-1.084 -0.293,-2.182 -0.501,-3.251c-0.207,-1.064 -0.485,-2.263 -0.748,-3.165c-0.225,-0.768 -0.529,-1.528 -0.834,-2.25c-0.3,-0.709 -0.627,-1.409 -0.999,-2.083c-0.375,-0.681 -0.799,-1.357 -1.251,-2c-0.459,-0.653 -0.972,-1.319 -1.499,-1.916c-0.521,-0.589 -1.079,-1.146 -1.667,-1.668c-0.624,-0.556 -1.349,-1.164 -2.083,-1.666c-0.75,-0.514 -1.597,-0.999 -2.416,-1.416c-0.81,-0.412 -1.653,-0.765 -2.5,-1.084c-0.847,-0.32 -1.709,-0.624 -2.584,-0.832c-0.875,-0.209 -1.771,-0.321 -2.665,-0.417c-0.902,-0.098 -1.833,-0.167 -2.75,-0.167Zm-0,9.915c0.639,-0 1.285,0.057 1.916,0.166c0.639,0.112 1.306,0.292 1.916,0.501c0.601,0.205 1.191,0.45 1.75,0.751c0.569,0.305 1.152,0.679 1.666,1.082c0.511,0.4 0.988,0.848 1.418,1.334c0.43,0.486 0.832,1.041 1.165,1.583c0.326,0.529 0.612,1.086 0.835,1.666c0.277,0.722 0.609,1.764 0.832,2.667c0.222,0.902 0.403,1.822 0.5,2.748c0.097,0.93 0.083,1.903 0.083,2.834c0,0.917 0.014,1.838 -0.083,2.75c-0.097,0.917 -0.278,1.86 -0.5,2.748c-0.22,0.878 -0.555,1.862 -0.832,2.584c-0.232,0.603 -0.501,1.208 -0.835,1.749c-0.331,0.54 -0.738,1.033 -1.165,1.502c-0.431,0.472 -0.914,0.924 -1.418,1.332c-0.514,0.416 -1.097,0.846 -1.666,1.166c-0.553,0.31 -1.149,0.545 -1.75,0.75c-0.61,0.209 -1.277,0.403 -1.916,0.501c-0.632,0.096 -1.277,0.083 -1.916,0.083c-0.639,0 -1.284,0.013 -1.916,-0.083c-0.639,-0.098 -1.306,-0.292 -1.917,-0.501c-0.6,-0.205 -1.196,-0.44 -1.749,-0.75c-0.57,-0.32 -1.154,-0.75 -1.668,-1.166c-0.504,-0.408 -0.986,-0.86 -1.416,-1.332c-0.427,-0.469 -0.834,-0.962 -1.166,-1.502c-0.333,-0.541 -0.602,-1.146 -0.834,-1.749c-0.278,-0.722 -0.614,-1.706 -0.834,-2.584c-0.222,-0.888 -0.387,-1.831 -0.498,-2.748c-0.11,-0.912 -0.167,-1.832 -0.167,-2.75c0,-0.931 0.056,-1.904 0.167,-2.834c0.11,-0.924 0.276,-1.846 0.498,-2.748c0.222,-0.903 0.556,-1.945 0.834,-2.667c0.224,-0.58 0.509,-1.137 0.834,-1.666c0.334,-0.542 0.736,-1.097 1.166,-1.583c0.43,-0.485 0.905,-0.934 1.416,-1.334c0.514,-0.403 1.098,-0.777 1.668,-1.082c0.559,-0.3 1.149,-0.546 1.749,-0.751c0.611,-0.209 1.278,-0.389 1.917,-0.501c0.631,-0.109 1.277,-0.166 1.916,-0.166Z" style="fill:#fff;fill-rule:nonzero;"/></g><g><rect id="rect2433-01" serif:id="rect2433-0" x="530.463" y="236.22" width="52.993" height="94.488" style="fill:#0079c1;"/><path id="path10521" serif:id="path1052" d="M547.794,307.128l-10.415,0l-0,-47.244l10.415,0l0,4.083c0,-0 1.07,-1.111 1.667,-1.583c0.597,-0.472 1.264,-0.861 1.916,-1.25c0.652,-0.388 1.306,-0.778 2,-1.083c0.694,-0.306 1.431,-0.542 2.166,-0.75c0.736,-0.208 1.5,-0.389 2.25,-0.5c0.744,-0.11 1.5,-0.153 2.25,-0.167c0.75,-0.014 1.504,0.001 2.25,0.084c0.749,0.083 1.513,0.222 2.249,0.416c0.736,0.195 1.458,0.472 2.167,0.75c0.706,0.277 1.422,0.545 2.083,0.917c0.666,0.375 1.319,0.861 1.916,1.333c0.586,0.463 1.159,0.951 1.667,1.5c0.513,0.555 0.999,1.208 1.416,1.833c0.407,0.61 0.772,1.252 1.083,1.916c0.32,0.681 0.625,1.431 0.834,2.167c0.207,0.733 0.416,2.249 0.416,2.249l0,35.329l-10.415,0l-0,-30.079c-0,-0 -0.044,-1.177 -0.167,-1.75c-0.125,-0.583 -0.347,-1.194 -0.583,-1.75c-0.233,-0.549 -0.528,-1.111 -0.833,-1.583c-0.29,-0.448 -0.625,-0.875 -1,-1.25c-0.375,-0.375 -0.806,-0.722 -1.25,-1c-0.443,-0.276 -0.931,-0.486 -1.417,-0.666c-0.486,-0.181 -0.987,-0.334 -1.499,-0.417c-0.514,-0.083 -1.056,-0.111 -1.584,-0.083c-0.527,0.028 -1.068,0.108 -1.583,0.25c-0.555,0.152 -1.183,0.404 -1.749,0.666c-0.57,0.264 -1.153,0.57 -1.667,0.917c-0.507,0.342 -0.977,0.741 -1.416,1.166c-0.445,0.431 -0.889,0.903 -1.25,1.417c-0.361,0.514 -0.653,1.097 -0.917,1.666c-0.262,0.567 -0.5,1.153 -0.666,1.75c-0.167,0.597 -0.334,1.833 -0.334,1.833l0,28.913Z" style="fill:#fff;fill-rule:nonzero;"/></g><g><rect id="rect2324-5-8-8" x="421.811" y="236.22" width="52.827" height="94.488" style="fill:#0079c1;"/><path id="path3389" d="M456.806,275.216c-0.125,-0.584 -0.347,-1.195 -0.583,-1.75c-0.234,-0.549 -0.528,-1.111 -0.834,-1.583c-0.289,-0.448 -0.624,-0.875 -0.999,-1.25c-0.375,-0.375 -0.806,-0.722 -1.25,-1c-0.443,-0.277 -0.931,-0.486 -1.417,-0.667c-0.486,-0.18 -0.987,-0.333 -1.5,-0.416c-0.513,-0.084 -1.056,-0.125 -1.583,-0.084c-0.527,0.042 -1.063,0.191 -1.583,0.334c-0.555,0.152 -1.187,0.336 -1.75,0.583c-0.569,0.25 -1.152,0.569 -1.666,0.917c-0.507,0.342 -0.977,0.74 -1.417,1.166c-0.444,0.431 -0.888,0.903 -1.249,1.417c-0.361,0.513 -0.653,1.097 -0.917,1.666c-0.262,0.566 -0.666,1.75 -0.666,1.75l-0.334,1.833l0,28.913l-10.415,-0l-0,-66.075l10.415,-0l0,22.914c0,-0 1.07,-1.111 1.667,-1.583c0.597,-0.473 1.263,-0.861 1.916,-1.25c0.651,-0.388 1.306,-0.778 2,-1.084c0.694,-0.305 1.431,-0.541 2.166,-0.749c0.736,-0.209 1.5,-0.389 2.25,-0.5c0.744,-0.111 1.5,-0.153 2.25,-0.167c0.75,-0.014 1.504,0 2.249,0.083c0.75,0.084 1.514,0.223 2.25,0.417c0.736,0.194 1.46,0.459 2.167,0.75c0.708,0.291 1.416,0.625 2.083,1c0.664,0.374 1.319,0.791 1.916,1.25c0.593,0.455 1.159,0.951 1.666,1.499c0.514,0.556 1,1.209 1.417,1.833c0.407,0.611 0.771,1.253 1.083,1.917c0.32,0.68 0.616,1.433 0.833,2.166c0.397,1.343 0.417,2.25 0.417,2.25l0,35.329l-10.415,-0l-0,-30.08c-0,0 -0.044,-1.177 -0.167,-1.749Z" style="fill:#fff;fill-rule:nonzero;"/></g><g><rect id="rect23242" serif:id="rect2324" x="583.29" y="236.22" width="51.494" height="94.488" style="fill:#0079c1;"/><path id="path36992" serif:id="path3699" d="M608.036,258.634c-0.861,0.014 -1.728,0.112 -2.581,0.25c-0.861,0.139 -1.75,0.348 -2.584,0.584c-0.82,0.232 -1.631,0.501 -2.417,0.832c-0.791,0.333 -1.611,0.765 -2.333,1.168c-0.686,0.383 -1.367,0.782 -1.999,1.249c-0.639,0.472 -1.264,1.027 -1.833,1.582c-0.563,0.55 -1.109,1.124 -1.583,1.752c-0.555,0.736 -1.222,1.762 -1.749,2.665c-0.521,0.89 -0.99,1.812 -1.418,2.75c-0.431,0.945 -0.833,1.931 -1.166,2.917c-0.332,0.983 -0.625,1.985 -0.834,2.999c-0.208,1.013 -0.321,2.051 -0.417,3.084c-0.097,1.041 -0.165,2.123 -0.165,3.165c0,1.029 0.041,2.062 0.165,3.084c0.125,1.027 0.348,2.068 0.584,3.082c0.236,1.011 0.501,2.017 0.834,3c0.333,0.986 0.721,1.971 1.165,2.915c0.445,0.945 0.958,1.876 1.5,2.751c0.535,0.865 1.104,1.715 1.751,2.5c0.653,0.791 1.389,1.583 2.167,2.25c0.771,0.661 1.637,1.208 2.498,1.749c0.861,0.541 1.741,1.071 2.667,1.499c0.93,0.431 1.959,0.807 2.917,1.085c0.925,0.268 1.88,0.432 2.831,0.581c0.973,0.153 2.015,0.292 3.001,0.334c0.972,0.041 1.948,-0.001 2.917,-0.083c0.986,-0.084 2.027,-0.223 2.999,-0.417c0.958,-0.192 1.909,-0.432 2.833,-0.749c0.931,-0.319 1.858,-0.723 2.749,-1.168c1.083,-0.542 2.862,-1.555 3.751,-2.083c0.549,-0.326 1.073,-0.697 1.582,-1.082c0.514,-0.389 1.5,-1.249 1.5,-1.249l-6.5,-7.667c0,-0 -1.142,0.976 -1.749,1.418c-0.611,0.444 -1.25,0.888 -1.917,1.249c-0.666,0.36 -1.374,0.679 -2.083,0.915c-0.703,0.234 -1.435,0.376 -2.166,0.501c-0.736,0.125 -1.556,0.208 -2.25,0.25c-0.638,0.038 -1.279,0.041 -1.916,-0c-0.653,-0.042 -1.375,-0.125 -2,-0.25c-0.595,-0.119 -1.183,-0.285 -1.749,-0.501c-0.584,-0.222 -1.208,-0.512 -1.75,-0.832c-0.532,-0.313 -1.031,-0.684 -1.501,-1.084c-0.472,-0.403 -0.944,-0.847 -1.333,-1.333c-0.388,-0.485 -0.707,-1.041 -0.998,-1.582c-0.289,-0.536 -0.546,-1.093 -0.751,-1.666c-0.208,-0.584 -0.403,-1.21 -0.5,-1.835c-0.098,-0.625 -0.084,-1.916 -0.084,-1.916l31.83,-0c0,-0 -0.014,-2.779 -0.083,-4.167c-0.07,-1.388 -0.167,-2.791 -0.334,-4.166c-0.166,-1.369 -0.473,-3.083 -0.667,-4.082c-0.126,-0.648 -0.294,-1.289 -0.499,-1.917c-0.208,-0.638 -0.472,-1.305 -0.75,-1.916c-0.273,-0.599 -0.584,-1.182 -0.918,-1.749c-0.375,-0.639 -0.847,-1.417 -1.332,-2.083c-0.486,-0.667 -1.027,-1.306 -1.583,-1.917c-0.554,-0.61 -1.124,-1.221 -1.749,-1.749c-0.624,-0.528 -1.312,-0.978 -2,-1.418c-0.694,-0.445 -1.43,-0.874 -2.166,-1.249c-0.732,-0.372 -1.477,-0.723 -2.25,-0.999c-0.778,-0.278 -1.6,-0.49 -2.417,-0.667c-0.833,-0.181 -1.722,-0.32 -2.583,-0.417c-0.858,-0.097 -1.723,-0.181 -2.584,-0.167Zm-0.167,9.417c0.611,-0.042 1.238,0.014 1.835,0.083c0.59,0.068 1.179,0.169 1.75,0.332c0.583,0.166 1.208,0.403 1.749,0.667c0.527,0.257 1.029,0.568 1.499,0.917c0.487,0.361 1.002,0.805 1.418,1.249c0.407,0.433 0.753,0.922 1.082,1.416c0.334,0.5 0.668,1.043 0.918,1.585c0.246,0.534 0.429,1.124 0.582,1.666c0.146,0.519 0.253,1.049 0.333,1.582c0.084,0.556 0.167,1.75 0.167,1.75l-21.331,-0c-0,-0 0.222,-1.625 0.417,-2.417c0.195,-0.791 0.445,-1.581 0.751,-2.331c0.304,-0.748 0.707,-1.569 1.082,-2.166c0.325,-0.519 0.737,-0.988 1.168,-1.418c0.43,-0.431 0.916,-0.833 1.415,-1.166c0.496,-0.331 1.034,-0.601 1.583,-0.834c0.555,-0.236 1.154,-0.432 1.749,-0.584c0.598,-0.152 1.222,-0.29 1.833,-0.331Z" style="fill:#fff;fill-rule:nonzero;"/></g></g></g></g></g></svg>