<?xml version="1.0" encoding="UTF-8" standalone="no"?><!DOCTYPE svg PUBLIC "-//W3C//DTD SVG 1.1//EN" "http://www.w3.org/Graphics/SVG/1.1/DTD/svg11.dtd"><svg width="100%" height="100%" viewBox="0 0 773 715" version="1.1" xmlns="http://www.w3.org/2000/svg" xmlns:xlink="http://www.w3.org/1999/xlink" xml:space="preserve" xmlns:serif="http://www.serif.com/" style="fill-rule:evenodd;clip-rule:evenodd;stroke-linejoin:round;stroke-miterlimit:2;"><g transform="matrix(50,0,0,50,480.5,393.221)"></g><text x="292.878px" y="393.221px" style="font-family:'ArialMT', 'Arial', sans-serif;font-size:50px;">sw=60.5</text><clipPath id="_clip1"><rect x="0" y="-0" width="772.913" height="714.567"/></clipPath><g clip-path="url(#_clip1)"><rect id="Railway" x="0" y="0" width="772.913" height="714.567" style="fill:none;"/><clipPath id="_clip2"><rect x="0" y="0" width="772.913" height="714.567"/></clipPath><g clip-path="url(#_clip2)"><g><path d="M772.913,35.433c0,-19.556 -15.877,-35.433 -35.433,-35.433l-702.047,0c-19.556,0 -35.433,15.877 -35.433,35.433l0,643.701c0,19.556 15.877,35.433 35.433,35.433l702.047,-0c19.556,-0 35.433,-15.877 35.433,-35.433l0,-643.701Z" style="fill:#fff;"/><path d="M772.913,35.433l0,643.701c0,19.556 -15.877,35.433 -35.433,35.433l-702.047,-0c-19.556,-0 -35.433,-15.877 -35.433,-35.433l0,-643.701c0,-19.556 15.877,-35.433 35.433,-35.433l702.047,0c19.556,0 35.433,15.877 35.433,35.433Zm-1.181,0c0,-18.904 -15.348,-34.252 -34.252,-34.252l-702.047,0c-18.904,0 -34.252,15.348 -34.252,34.252l0,643.701c0,18.904 15.348,34.252 34.252,34.252l702.047,-0c18.904,-0 34.252,-15.348 34.252,-34.252l0,-643.701Z" style="fill:#0079c1;"/><path d="M755.197,289.37c-0,-9.778 -7.939,-17.716 -17.717,-17.716l-702.047,-0c-9.778,-0 -17.716,7.938 -17.716,17.716l-0,389.764c-0,9.778 7.938,17.716 17.716,17.716l702.047,0c9.778,0 17.717,-7.938 17.717,-17.716l-0,-389.764Z" style="fill:#0079c1;"/><path d="M755.197,35.433c-0,-9.778 -7.939,-17.716 -17.717,-17.716l-702.047,-0c-9.778,-0 -17.716,7.938 -17.716,17.716l-0,200.787c-0,9.778 7.938,17.717 17.716,17.717l702.047,0c9.778,0 17.717,-7.939 17.717,-17.717l-0,-200.787Z" style="fill:#0079c1;"/><g><g><rect x="102.52" y="50.787" width="62.362" height="94.488" style="fill:#0079c1;"/><path d="M155.324,121.654l-43.246,-0l-0,-66.142l41.296,-0l-0,10.175l-29.934,0l0,17.469l27.39,-0l-0,10.175l-27.39,0l0,18.147l31.884,-0l0,10.176Z" style="fill:#fff;fill-rule:nonzero;"/></g><g><rect x="594.803" y="50.787" width="75.591" height="94.488" style="fill:#0079c1;"/><path d="M658.589,121.638l-11.363,0l-0,-30.272l-29.255,-0l-0,30.272l-11.363,0l0,-66.142l11.363,0l-0,26.033l29.255,0l-0,-26.033l11.363,0l-0,66.142Z" style="fill:#fff;fill-rule:nonzero;"/></g><g><rect x="164.882" y="50.787" width="86.929" height="94.488" style="fill:#0079c1;"/><path d="M240.357,121.654l-11.362,-0l-0,-46.978l-20.606,28.661l-20.691,-28.661l0,46.978l-11.362,-0l-0,-66.142l11.362,-0l20.691,28.576l20.606,-28.576l11.362,-0l0,66.142Z" style="fill:#fff;fill-rule:nonzero;"/></g><g><rect x="402.992" y="50.787" width="73.701" height="94.488" style="fill:#0079c1;"/><path d="M469.988,90.109c-0,4.975 -0.65,9.554 -1.95,13.737c-1.301,4.183 -3.223,7.787 -5.767,10.812c-2.544,3.024 -5.695,5.384 -9.455,7.08c-3.759,1.696 -8.098,2.544 -13.016,2.544c-4.918,0 -9.257,-0.848 -13.016,-2.544c-3.76,-1.696 -6.911,-4.07 -9.455,-7.123c-2.544,-3.052 -4.452,-6.67 -5.724,-10.854c-1.272,-4.183 -1.908,-8.762 -1.908,-13.737c0,-5.031 0.622,-9.667 1.866,-13.906c1.243,-4.24 3.109,-7.887 5.596,-10.939c2.488,-3.053 5.625,-5.427 9.413,-7.123c3.787,-1.696 8.197,-2.544 13.228,-2.544c4.975,-0 9.356,0.862 13.144,2.586c3.787,1.724 6.939,4.113 9.455,7.165c2.515,3.053 4.409,6.699 5.681,10.939c1.272,4.24 1.908,8.876 1.908,13.907Zm-11.363,0c0,-3.166 -0.325,-6.218 -0.975,-9.158c-0.65,-2.94 -1.71,-5.54 -3.18,-7.801c-1.47,-2.262 -3.392,-4.071 -5.766,-5.427c-2.375,-1.357 -5.314,-2.036 -8.819,-2.036c-3.505,0 -6.445,0.679 -8.819,2.036c-2.374,1.356 -4.31,3.179 -5.809,5.469c-1.498,2.29 -2.572,4.904 -3.222,7.844c-0.65,2.939 -0.975,5.964 -0.975,9.073c-0,3.335 0.311,6.459 0.933,9.37c0.622,2.911 1.667,5.455 3.137,7.632c1.47,2.176 3.406,3.901 5.809,5.172c2.402,1.272 5.384,1.908 8.946,1.908c3.561,0 6.543,-0.636 8.946,-1.908c2.403,-1.271 4.325,-2.996 5.766,-5.172c1.442,-2.177 2.473,-4.721 3.095,-7.632c0.622,-2.911 0.933,-6.035 0.933,-9.37Z" style="fill:#fff;fill-rule:nonzero;"/></g><g><rect x="476.693" y="50.787" width="66.614" height="94.488" style="fill:#0079c1;"/><path d="M534.93,121.654l-12.572,-0l-14.45,-25.779l-11.476,0l0,25.779l-11.362,-0l-0,-66.142l25.57,-0c3.568,-0 6.682,0.523 9.344,1.569c2.662,1.045 4.857,2.487 6.585,4.324c1.727,1.837 3.016,4.028 3.865,6.572c0.849,2.544 1.274,5.314 1.274,8.31c0,2.94 -0.397,5.47 -1.19,7.589c-0.793,2.12 -1.799,3.901 -3.017,5.343c-1.219,1.441 -2.537,2.586 -3.953,3.434c-1.417,0.848 -2.749,1.47 -3.995,1.865l15.377,27.136Zm-14.585,-45.96c0,-2.94 -0.904,-5.343 -2.713,-7.208c-1.809,-1.866 -4.212,-2.799 -7.208,-2.799l-13.992,0l0,20.097l13.822,0c3.053,0 5.498,-0.932 7.335,-2.798c1.838,-1.865 2.756,-4.296 2.756,-7.292Z" style="fill:#fff;fill-rule:nonzero;"/></g><g><rect x="251.811" y="50.787" width="64.724" height="94.488" style="fill:#0079c1;"/><path d="M310.164,104.949c-0,2.939 -0.552,5.596 -1.654,7.97c-1.102,2.375 -2.728,4.396 -4.876,6.063c-2.148,1.668 -4.805,2.954 -7.971,3.859c-3.166,0.904 -6.784,1.356 -10.854,1.356c-5.314,0 -10.232,-1.06 -14.754,-3.179c-4.523,-2.12 -8.48,-5.131 -11.872,-9.031l8.819,-7.378c0.904,1.301 2.035,2.516 3.392,3.647c1.356,1.13 2.84,2.12 4.452,2.967c1.611,0.848 3.264,1.527 4.96,2.036c1.696,0.508 3.336,0.763 4.918,0.763c4.41,-0 7.83,-0.735 10.261,-2.205c2.431,-1.47 3.646,-3.561 3.646,-6.275c0,-1.526 -0.297,-2.841 -0.89,-3.943c-0.594,-1.102 -1.385,-2.035 -2.375,-2.798c-0.989,-0.763 -2.119,-1.385 -3.391,-1.866c-1.272,-0.48 -2.558,-0.89 -3.859,-1.229l-9.582,-2.29c-2.318,-0.565 -4.579,-1.314 -6.784,-2.247c-2.204,-0.933 -4.183,-2.134 -5.935,-3.604c-1.753,-1.47 -3.152,-3.279 -4.198,-5.427c-1.046,-2.148 -1.569,-4.777 -1.569,-7.886c0,-2.6 0.552,-5.045 1.654,-7.335c1.102,-2.29 2.685,-4.282 4.749,-5.978c2.063,-1.696 4.593,-3.025 7.589,-3.986c2.996,-0.961 6.36,-1.441 10.091,-1.441c2.261,-0 4.536,0.169 6.826,0.509c2.29,0.339 4.48,0.918 6.572,1.738c2.091,0.82 4.056,1.88 5.893,3.18c1.837,1.3 3.434,2.883 4.791,4.748l-8.734,7.208c-1.696,-2.544 -3.943,-4.381 -6.741,-5.512c-2.799,-1.13 -5.668,-1.696 -8.607,-1.696c-1.696,0 -3.293,0.17 -4.791,0.509c-1.498,0.339 -2.827,0.848 -3.986,1.527c-1.159,0.678 -2.077,1.526 -2.756,2.544c-0.678,1.017 -1.017,2.176 -1.017,3.476c-0,2.544 1.003,4.48 3.01,5.809c2.007,1.328 4.791,2.445 8.353,3.349l8.395,2.12c6.501,1.583 11.263,3.972 14.288,7.166c3.024,3.194 4.537,7.448 4.537,12.762Z" style="fill:#fff;fill-rule:nonzero;"/></g><g><rect x="543.307" y="50.787" width="51.496" height="94.488" style="fill:#0079c1;"/><path d="M592.841,65.687l-18.147,0l0,55.967l-11.363,-0l0,-55.967l-18.061,0l-0,-10.175l47.571,-0l-0,10.175Z" style="fill:#fff;fill-rule:nonzero;"/></g><g><rect x="316.535" y="50.787" width="86.457" height="94.488" style="fill:#0079c1;"/><path d="M398.601,55.512l-15.348,66.142l-12.72,-0l-10.769,-47.741l-10.769,47.741l-12.805,-0l-15.263,-66.142l11.532,-0l10.685,46.893l10.684,-46.893l11.872,-0l10.684,47.147l10.684,-47.147l11.533,-0Z" style="fill:#fff;fill-rule:nonzero;"/></g></g><g><g><rect x="123.071" y="145.276" width="69.921" height="94.488" style="fill:#0079c1;"/><path d="M186.608,166.535l-10.26,3.647c-0.509,-1.64 -1.23,-3.223 -2.163,-4.749c-0.932,-1.526 -2.063,-2.883 -3.392,-4.07c-1.328,-1.187 -2.869,-2.134 -4.621,-2.841c-1.752,-0.707 -3.703,-1.06 -5.851,-1.06c-3.561,0 -6.558,0.664 -8.988,1.993c-2.431,1.328 -4.41,3.109 -5.936,5.342c-1.527,2.233 -2.629,4.834 -3.307,7.801c-0.679,2.968 -1.018,6.063 -1.018,9.286c0,3.165 0.297,6.19 0.89,9.073c0.594,2.883 1.612,5.441 3.053,7.674c1.442,2.233 3.35,4.014 5.724,5.342c2.374,1.329 5.314,1.993 8.819,1.993c4.07,0 7.519,-1.06 10.345,-3.18c2.827,-2.12 4.862,-5.102 6.105,-8.946l10.431,3.477c-2.262,6.162 -5.597,10.84 -10.007,14.034c-4.409,3.194 -10.09,4.791 -17.044,4.791c-4.918,-0 -9.257,-0.919 -13.016,-2.756c-3.759,-1.837 -6.883,-4.325 -9.37,-7.462c-2.488,-3.138 -4.367,-6.756 -5.639,-10.854c-1.272,-4.099 -1.908,-8.409 -1.908,-12.932c-0,-4.692 0.622,-9.144 1.865,-13.355c1.244,-4.212 3.124,-7.901 5.639,-11.066c2.516,-3.166 5.639,-5.682 9.37,-7.547c3.732,-1.866 8.084,-2.799 13.059,-2.799c3.392,0 6.544,0.438 9.455,1.315c2.911,0.876 5.54,2.148 7.886,3.816c2.346,1.667 4.353,3.688 6.021,6.063c1.668,2.374 2.954,5.031 3.858,7.97Z" style="fill:#fff;fill-rule:nonzero;"/></g><g><rect x="576.614" y="145.276" width="73.228" height="94.488" style="fill:#0079c1;"/><path d="M640.924,216.149l-9.427,0l0,-6.182c-1.557,2.228 -3.795,4.052 -6.715,5.472c-2.92,1.421 -6.27,2.131 -10.052,2.131c-5.005,-0 -9.343,-0.947 -13.014,-2.841c-3.67,-1.893 -6.701,-4.413 -9.092,-7.56c-2.392,-3.147 -4.171,-6.725 -5.339,-10.735c-1.168,-4.01 -1.752,-8.104 -1.752,-12.281c0,-4.399 0.57,-8.66 1.71,-12.781c1.14,-4.122 2.906,-7.77 5.297,-10.944c2.392,-3.175 5.409,-5.723 9.051,-7.644c3.643,-1.922 7.967,-2.882 12.972,-2.882c6.117,-0 11.373,1.322 15.766,3.968c4.394,2.645 7.842,6.418 10.344,11.32l-9.176,4.678c-1.613,-3.119 -3.781,-5.556 -6.507,-7.31c-2.725,-1.754 -5.867,-2.632 -9.426,-2.632c-3.448,0 -6.368,0.697 -8.759,2.089c-2.391,1.392 -4.338,3.23 -5.839,5.514c-1.502,2.283 -2.586,4.873 -3.254,7.769c-0.667,2.896 -1.001,5.876 -1.001,8.939c0,3.007 0.334,5.917 1.001,8.73c0.668,2.812 1.752,5.305 3.254,7.477c1.501,2.172 3.448,3.912 5.839,5.221c2.391,1.309 5.311,1.963 8.759,1.963c5.172,0 9.093,-1.434 11.762,-4.302c2.67,-2.868 4.032,-6.558 4.088,-11.069l-0,-3.008l-17.018,0l0,-9.774l26.528,0l-0,36.674Z" style="fill:#fff;fill-rule:nonzero;"/></g><g><rect x="462.756" y="145.276" width="34.488" height="94.488" style="fill:#0079c1;"/><rect x="474.319" y="150" width="11.363" height="66.142" style="fill:#fff;fill-rule:nonzero;"/></g><g><rect x="497.244" y="145.276" width="79.37" height="94.488" style="fill:#0079c1;"/><path d="M564.827,216.142l-11.871,-0l-32.562,-47.063l-0,47.063l-11.363,-0l-0,-66.142l11.871,0l32.563,47.062l-0,-47.062l11.362,0l0,66.142Z" style="fill:#fff;fill-rule:nonzero;"/></g><g><rect x="259.606" y="145.276" width="73.701" height="94.488" style="fill:#0079c1;"/><path d="M326.602,184.597c0,4.975 -0.65,9.554 -1.95,13.737c-1.3,4.184 -3.223,7.788 -5.766,10.812c-2.544,3.024 -5.696,5.385 -9.455,7.081c-3.76,1.695 -8.098,2.543 -13.017,2.543c-4.918,0 -9.257,-0.848 -13.016,-2.543c-3.759,-1.696 -6.911,-4.071 -9.455,-7.123c-2.544,-3.053 -4.452,-6.671 -5.724,-10.854c-1.272,-4.184 -1.908,-8.763 -1.908,-13.738c0,-5.031 0.622,-9.666 1.866,-13.906c1.244,-4.24 3.109,-7.886 5.596,-10.939c2.488,-3.053 5.625,-5.427 9.413,-7.123c3.788,-1.696 8.197,-2.544 13.228,-2.544c4.975,0 9.356,0.862 13.144,2.586c3.787,1.725 6.939,4.113 9.455,7.166c2.515,3.052 4.409,6.699 5.681,10.938c1.272,4.24 1.908,8.876 1.908,13.907Zm-11.363,0c0,-3.166 -0.325,-6.218 -0.975,-9.158c-0.65,-2.94 -1.71,-5.54 -3.18,-7.801c-1.47,-2.261 -3.392,-4.07 -5.766,-5.427c-2.374,-1.357 -5.314,-2.035 -8.819,-2.035c-3.505,-0 -6.444,0.678 -8.819,2.035c-2.374,1.357 -4.31,3.18 -5.808,5.469c-1.498,2.29 -2.573,4.904 -3.223,7.844c-0.65,2.94 -0.975,5.964 -0.975,9.073c0,3.336 0.311,6.459 0.933,9.37c0.622,2.912 1.668,5.456 3.137,7.632c1.47,2.176 3.406,3.901 5.809,5.173c2.403,1.272 5.385,1.908 8.946,1.908c3.562,-0 6.544,-0.636 8.946,-1.908c2.403,-1.272 4.325,-2.997 5.766,-5.173c1.442,-2.176 2.474,-4.72 3.095,-7.632c0.622,-2.911 0.933,-6.034 0.933,-9.37Z" style="fill:#fff;fill-rule:nonzero;"/></g><g><rect x="192.992" y="145.276" width="66.614" height="94.488" style="fill:#0079c1;"/><path d="M251.23,216.142l-12.573,-0l-14.45,-25.779l-11.475,0l-0,25.779l-11.363,-0l-0,-66.142l25.57,0c3.568,0 6.683,0.523 9.344,1.569c2.662,1.046 4.857,2.487 6.585,4.324c1.728,1.838 3.016,4.028 3.865,6.572c0.85,2.544 1.274,5.314 1.274,8.31c0,2.94 -0.396,5.47 -1.19,7.59c-0.793,2.12 -1.799,3.9 -3.017,5.342c-1.219,1.441 -2.536,2.586 -3.953,3.434c-1.417,0.848 -2.749,1.47 -3.995,1.866l15.378,27.135Zm-14.586,-45.96c0,-2.94 -0.904,-5.343 -2.713,-7.208c-1.809,-1.866 -4.212,-2.798 -7.208,-2.798l-13.991,-0l-0,20.097l13.822,-0c3.052,-0 5.497,-0.933 7.335,-2.799c1.837,-1.865 2.755,-4.296 2.755,-7.292Z" style="fill:#fff;fill-rule:nonzero;"/></g><g><rect x="333.307" y="145.276" width="64.724" height="94.488" style="fill:#0079c1;"/><path d="M391.66,199.437c-0,2.939 -0.552,5.596 -1.654,7.971c-1.102,2.374 -2.728,4.395 -4.876,6.063c-2.148,1.667 -4.805,2.953 -7.971,3.858c-3.165,0.904 -6.783,1.357 -10.854,1.357c-5.314,-0 -10.232,-1.06 -14.754,-3.18c-4.523,-2.12 -8.48,-5.13 -11.872,-9.031l8.819,-7.377c0.904,1.3 2.035,2.515 3.392,3.646c1.357,1.13 2.84,2.12 4.452,2.968c1.611,0.848 3.264,1.526 4.96,2.035c1.696,0.509 3.336,0.763 4.918,0.763c4.41,-0 7.83,-0.735 10.261,-2.205c2.431,-1.47 3.646,-3.561 3.646,-6.275c0,-1.526 -0.297,-2.84 -0.89,-3.943c-0.594,-1.102 -1.385,-2.035 -2.374,-2.798c-0.99,-0.763 -2.12,-1.385 -3.392,-1.866c-1.272,-0.48 -2.558,-0.89 -3.859,-1.229l-9.582,-2.29c-2.318,-0.565 -4.579,-1.314 -6.783,-2.247c-2.205,-0.933 -4.184,-2.134 -5.936,-3.604c-1.753,-1.47 -3.152,-3.279 -4.198,-5.427c-1.046,-2.148 -1.568,-4.777 -1.568,-7.886c-0,-2.6 0.551,-5.045 1.653,-7.335c1.102,-2.289 2.685,-4.282 4.749,-5.978c2.063,-1.696 4.593,-3.024 7.589,-3.985c2.996,-0.961 6.36,-1.442 10.091,-1.442c2.261,0 4.537,0.17 6.826,0.509c2.29,0.339 4.48,0.918 6.572,1.738c2.091,0.82 4.056,1.88 5.893,3.18c1.838,1.3 3.435,2.883 4.791,4.749l-8.734,7.207c-1.696,-2.544 -3.943,-4.381 -6.741,-5.511c-2.799,-1.131 -5.667,-1.696 -8.607,-1.696c-1.696,-0 -3.293,0.169 -4.791,0.508c-1.498,0.34 -2.827,0.848 -3.986,1.527c-1.158,0.678 -2.077,1.526 -2.756,2.544c-0.678,1.017 -1.017,2.176 -1.017,3.476c-0,2.544 1.003,4.48 3.01,5.809c2.007,1.328 4.791,2.445 8.353,3.349l8.395,2.12c6.501,1.583 11.264,3.972 14.288,7.166c3.024,3.194 4.537,7.448 4.537,12.762Z" style="fill:#fff;fill-rule:nonzero;"/></g><g><rect x="398.031" y="145.276" width="64.724" height="94.488" style="fill:#0079c1;"/><path d="M456.384,199.437c0,2.939 -0.551,5.596 -1.654,7.971c-1.102,2.374 -2.727,4.395 -4.875,6.063c-2.149,1.667 -4.806,2.953 -7.971,3.858c-3.166,0.904 -6.784,1.357 -10.854,1.357c-5.314,-0 -10.233,-1.06 -14.755,-3.18c-4.523,-2.12 -8.48,-5.13 -11.872,-9.031l8.819,-7.377c0.905,1.3 2.035,2.515 3.392,3.646c1.357,1.13 2.841,2.12 4.452,2.968c1.611,0.848 3.265,1.526 4.961,2.035c1.696,0.509 3.335,0.763 4.918,0.763c4.409,-0 7.829,-0.735 10.26,-2.205c2.431,-1.47 3.647,-3.561 3.647,-6.275c-0,-1.526 -0.297,-2.84 -0.891,-3.943c-0.593,-1.102 -1.385,-2.035 -2.374,-2.798c-0.989,-0.763 -2.12,-1.385 -3.392,-1.866c-1.272,-0.48 -2.558,-0.89 -3.858,-1.229l-9.582,-2.29c-2.318,-0.565 -4.579,-1.314 -6.784,-2.247c-2.205,-0.933 -4.183,-2.134 -5.936,-3.604c-1.752,-1.47 -3.151,-3.279 -4.197,-5.427c-1.046,-2.148 -1.569,-4.777 -1.569,-7.886c-0,-2.6 0.551,-5.045 1.653,-7.335c1.103,-2.289 2.686,-4.282 4.749,-5.978c2.064,-1.696 4.593,-3.024 7.589,-3.985c2.997,-0.961 6.36,-1.442 10.091,-1.442c2.262,0 4.537,0.17 6.826,0.509c2.29,0.339 4.481,0.918 6.572,1.738c2.092,0.82 4.056,1.88 5.894,3.18c1.837,1.3 3.434,2.883 4.791,4.749l-8.734,7.207c-1.696,-2.544 -3.943,-4.381 -6.742,-5.511c-2.798,-1.131 -5.667,-1.696 -8.607,-1.696c-1.696,-0 -3.293,0.169 -4.791,0.508c-1.498,0.34 -2.826,0.848 -3.985,1.527c-1.159,0.678 -2.078,1.526 -2.756,2.544c-0.678,1.017 -1.018,2.176 -1.018,3.476c0,2.544 1.004,4.48 3.011,5.809c2.006,1.328 4.791,2.445 8.352,3.349l8.395,2.12c6.501,1.583 11.264,3.972 14.288,7.166c3.025,3.194 4.537,7.448 4.537,12.762Z" style="fill:#fff;fill-rule:nonzero;"/></g></g><g><g><g><rect x="233.74" y="304.724" width="69.921" height="94.488" style="fill:#0079c1;"/><path d="M297.277,325.984l-10.26,3.647c-0.509,-1.64 -1.23,-3.223 -2.162,-4.749c-0.933,-1.526 -2.064,-2.883 -3.392,-4.07c-1.329,-1.188 -2.869,-2.134 -4.622,-2.841c-1.752,-0.707 -3.702,-1.06 -5.851,-1.06c-3.561,-0 -6.557,0.664 -8.988,1.993c-2.431,1.328 -4.41,3.109 -5.936,5.342c-1.526,2.233 -2.629,4.833 -3.307,7.801c-0.678,2.968 -1.018,6.063 -1.018,9.286c0,3.165 0.297,6.19 0.891,9.073c0.593,2.883 1.611,5.441 3.052,7.674c1.442,2.233 3.35,4.014 5.724,5.342c2.375,1.329 5.314,1.993 8.819,1.993c4.07,-0 7.519,-1.06 10.345,-3.18c2.827,-2.12 4.862,-5.102 6.106,-8.946l10.43,3.477c-2.261,6.162 -5.597,10.839 -10.006,14.034c-4.41,3.194 -10.091,4.791 -17.044,4.791c-4.919,-0 -9.257,-0.919 -13.017,-2.756c-3.759,-1.838 -6.883,-4.325 -9.37,-7.462c-2.487,-3.138 -4.367,-6.756 -5.639,-10.855c-1.272,-4.098 -1.908,-8.409 -1.908,-12.931c0,-4.692 0.622,-9.144 1.866,-13.356c1.243,-4.211 3.123,-7.9 5.639,-11.066c2.515,-3.165 5.639,-5.681 9.37,-7.547c3.731,-1.865 8.084,-2.798 13.059,-2.798c3.391,0 6.543,0.438 9.454,1.314c2.912,0.877 5.54,2.149 7.887,3.816c2.346,1.668 4.352,3.689 6.02,6.063c1.668,2.375 2.954,5.032 3.858,7.971Z" style="fill:#fff;fill-rule:nonzero;"/></g><g><rect x="572.48" y="304.724" width="69.921" height="94.488" style="fill:#0079c1;"/><path d="M636.018,325.984l-10.261,3.647c-0.509,-1.64 -1.229,-3.223 -2.162,-4.749c-0.933,-1.526 -2.064,-2.883 -3.392,-4.07c-1.329,-1.188 -2.869,-2.134 -4.622,-2.841c-1.752,-0.707 -3.702,-1.06 -5.851,-1.06c-3.561,-0 -6.557,0.664 -8.988,1.993c-2.431,1.328 -4.409,3.109 -5.936,5.342c-1.526,2.233 -2.629,4.833 -3.307,7.801c-0.678,2.968 -1.017,6.063 -1.017,9.286c-0,3.165 0.296,6.19 0.89,9.073c0.593,2.883 1.611,5.441 3.053,7.674c1.441,2.233 3.349,4.014 5.723,5.342c2.375,1.329 5.314,1.993 8.819,1.993c4.071,-0 7.519,-1.06 10.346,-3.18c2.826,-2.12 4.861,-5.102 6.105,-8.946l10.43,3.477c-2.261,6.162 -5.597,10.839 -10.006,14.034c-4.41,3.194 -10.091,4.791 -17.044,4.791c-4.919,-0 -9.257,-0.919 -13.017,-2.756c-3.759,-1.838 -6.882,-4.325 -9.37,-7.462c-2.487,-3.138 -4.367,-6.756 -5.639,-10.855c-1.272,-4.098 -1.908,-8.409 -1.908,-12.931c0,-4.692 0.622,-9.144 1.866,-13.356c1.244,-4.211 3.123,-7.9 5.639,-11.066c2.516,-3.165 5.639,-5.681 9.37,-7.547c3.731,-1.865 8.084,-2.798 13.059,-2.798c3.392,0 6.543,0.438 9.455,1.314c2.911,0.877 5.54,2.149 7.886,3.816c2.346,1.668 4.353,3.689 6.02,6.063c1.668,2.375 2.954,5.032 3.859,7.971Z" style="fill:#fff;fill-rule:nonzero;"/></g><g><rect x="508.228" y="304.724" width="64.252" height="94.488" style="fill:#0079c1;"/><path d="M568.761,375.591l-11.362,-0l-3.816,-12.381l-26.287,0l-3.986,12.381l-11.363,-0l21.284,-66.142l14.077,-0l21.453,66.142Zm-18.316,-22.048l-10.175,-31.968l-10.007,31.968l20.182,0Z" style="fill:#fff;fill-rule:nonzero;"/></g><g><rect x="377.362" y="304.724" width="79.37" height="94.488" style="fill:#0079c1;"/><path d="M444.945,375.591l-11.871,-0l-32.562,-47.063l-0,47.063l-11.363,-0l0,-66.142l11.872,-0l32.562,47.062l-0,-47.062l11.362,-0l0,66.142Z" style="fill:#fff;fill-rule:nonzero;"/></g><g><rect x="303.661" y="304.724" width="73.701" height="94.488" style="fill:#0079c1;"/><path d="M370.657,344.046c0,4.975 -0.65,9.554 -1.95,13.737c-1.3,4.183 -3.222,7.787 -5.766,10.812c-2.544,3.024 -5.696,5.384 -9.455,7.08c-3.76,1.696 -8.098,2.544 -13.017,2.544c-4.918,0 -9.257,-0.848 -13.016,-2.544c-3.759,-1.696 -6.911,-4.07 -9.455,-7.123c-2.544,-3.052 -4.452,-6.67 -5.724,-10.854c-1.272,-4.183 -1.908,-8.762 -1.908,-13.737c0,-5.031 0.622,-9.667 1.866,-13.906c1.244,-4.24 3.109,-7.887 5.597,-10.939c2.487,-3.053 5.624,-5.427 9.412,-7.123c3.788,-1.696 8.197,-2.544 13.228,-2.544c4.975,-0 9.356,0.862 13.144,2.586c3.788,1.724 6.939,4.113 9.455,7.165c2.515,3.053 4.409,6.699 5.681,10.939c1.272,4.24 1.908,8.876 1.908,13.907Zm-11.363,0c0,-3.166 -0.325,-6.218 -0.975,-9.158c-0.65,-2.94 -1.71,-5.54 -3.18,-7.801c-1.47,-2.262 -3.392,-4.071 -5.766,-5.427c-2.374,-1.357 -5.314,-2.036 -8.819,-2.036c-3.505,0 -6.444,0.679 -8.819,2.036c-2.374,1.356 -4.31,3.179 -5.808,5.469c-1.498,2.29 -2.572,4.904 -3.223,7.844c-0.65,2.939 -0.975,5.964 -0.975,9.073c0,3.335 0.311,6.459 0.933,9.37c0.622,2.911 1.668,5.455 3.138,7.632c1.469,2.176 3.406,3.901 5.808,5.172c2.403,1.272 5.385,1.908 8.946,1.908c3.562,0 6.544,-0.636 8.946,-1.908c2.403,-1.271 4.325,-2.996 5.767,-5.172c1.441,-2.177 2.473,-4.721 3.095,-7.632c0.621,-2.911 0.932,-6.035 0.932,-9.37Z" style="fill:#fff;fill-rule:nonzero;"/></g><g><rect x="456.732" y="304.724" width="51.496" height="94.488" style="fill:#0079c1;"/><path d="M506.266,319.624l-18.147,0l0,55.967l-11.362,-0l-0,-55.967l-18.062,0l-0,-10.175l47.571,-0l-0,10.175Z" style="fill:#fff;fill-rule:nonzero;"/></g><g><rect x="642.402" y="304.724" width="51.496" height="94.488" style="fill:#0079c1;"/><path d="M691.935,319.624l-18.146,0l-0,55.967l-11.363,-0l-0,-55.967l-18.062,0l0,-10.175l47.571,-0l0,10.175Z" style="fill:#fff;fill-rule:nonzero;"/></g></g><g><g><rect x="130.512" y="304.724" width="73.701" height="94.488" style="fill:#0079c1;"/><path d="M197.508,344.046c-0,4.975 -0.651,9.554 -1.951,13.737c-1.3,4.183 -3.222,7.787 -5.766,10.812c-2.544,3.024 -5.696,5.384 -9.455,7.08c-3.759,1.696 -8.098,2.544 -13.016,2.544c-4.918,0 -9.257,-0.848 -13.017,-2.544c-3.759,-1.696 -6.911,-4.07 -9.454,-7.123c-2.544,-3.052 -4.452,-6.67 -5.724,-10.854c-1.272,-4.183 -1.908,-8.762 -1.908,-13.737c-0,-5.031 0.622,-9.667 1.865,-13.906c1.244,-4.24 3.11,-7.887 5.597,-10.939c2.487,-3.053 5.625,-5.427 9.412,-7.123c3.788,-1.696 8.198,-2.544 13.229,-2.544c4.975,-0 9.356,0.862 13.143,2.586c3.788,1.724 6.94,4.113 9.455,7.165c2.516,3.053 4.41,6.699 5.682,10.939c1.272,4.24 1.908,8.876 1.908,13.907Zm-11.363,0c-0,-3.166 -0.325,-6.218 -0.975,-9.158c-0.651,-2.94 -1.71,-5.54 -3.18,-7.801c-1.47,-2.262 -3.392,-4.071 -5.766,-5.427c-2.375,-1.357 -5.314,-2.036 -8.819,-2.036c-3.505,0 -6.445,0.679 -8.819,2.036c-2.375,1.356 -4.311,3.179 -5.809,5.469c-1.498,2.29 -2.572,4.904 -3.222,7.844c-0.65,2.939 -0.975,5.964 -0.975,9.073c-0,3.335 0.311,6.459 0.932,9.37c0.622,2.911 1.668,5.455 3.138,7.632c1.47,2.176 3.406,3.901 5.809,5.172c2.402,1.272 5.384,1.908 8.946,1.908c3.561,0 6.543,-0.636 8.946,-1.908c2.402,-1.271 4.324,-2.996 5.766,-5.172c1.441,-2.177 2.473,-4.721 3.095,-7.632c0.622,-2.911 0.933,-6.035 0.933,-9.37Z" style="fill:#fff;fill-rule:nonzero;"/></g><g><rect x="79.016" y="304.724" width="51.496" height="94.488" style="fill:#0079c1;"/><path d="M128.549,319.624l-18.146,0l-0,55.967l-11.363,-0l-0,-55.967l-18.062,0l0,-10.175l47.571,-0l0,10.175Z" style="fill:#fff;fill-rule:nonzero;"/></g></g></g><g><g><rect x="240.709" y="399.213" width="64.252" height="94.488" style="fill:#0079c1;"/><path d="M301.242,470.079l-11.363,-0l-3.816,-12.381l-26.287,0l-3.986,12.381l-11.362,-0l21.284,-66.142l14.076,0l21.454,66.142Zm-18.317,-22.048l-10.175,-31.968l-10.006,31.968l20.181,0Z" style="fill:#fff;fill-rule:nonzero;"/></g><g><rect x="476.457" y="399.213" width="64.252" height="94.488" style="fill:#0079c1;"/><path d="M536.99,470.079l-11.363,-0l-3.816,-12.381l-26.287,0l-3.986,12.381l-11.362,-0l21.284,-66.142l14.076,0l21.454,66.142Zm-18.316,-22.048l-10.176,-31.968l-10.006,31.968l20.182,0Z" style="fill:#fff;fill-rule:nonzero;"/></g><g><rect x="304.961" y="399.213" width="34.488" height="94.488" style="fill:#0079c1;"/><rect x="316.523" y="403.937" width="11.363" height="66.142" style="fill:#fff;fill-rule:nonzero;"/></g><g><rect x="339.449" y="399.213" width="50.551" height="94.488" style="fill:#0079c1;"/><path d="M387.638,470.079l-38.328,-0l-0,-66.142l11.362,0l0,55.966l26.966,0l-0,10.176Z" style="fill:#fff;fill-rule:nonzero;"/></g><g><rect x="174.094" y="399.213" width="66.614" height="94.488" style="fill:#0079c1;"/><path d="M232.332,470.079l-12.573,-0l-14.45,-25.779l-11.475,0l0,25.779l-11.363,-0l0,-66.142l25.571,0c3.567,0 6.682,0.523 9.344,1.569c2.662,1.046 4.856,2.487 6.584,4.324c1.728,1.838 3.016,4.028 3.866,6.572c0.849,2.544 1.274,5.314 1.274,8.31c-0,2.94 -0.397,5.47 -1.19,7.59c-0.793,2.12 -1.799,3.9 -3.018,5.342c-1.218,1.441 -2.536,2.586 -3.953,3.434c-1.417,0.848 -2.748,1.47 -3.995,1.866l15.378,27.135Zm-14.585,-45.96c-0,-2.94 -0.905,-5.343 -2.714,-7.208c-1.809,-1.866 -4.211,-2.798 -7.207,-2.798l-13.992,-0l0,20.097l13.822,-0c3.053,-0 5.498,-0.933 7.335,-2.799c1.837,-1.865 2.756,-4.296 2.756,-7.292Z" style="fill:#fff;fill-rule:nonzero;"/></g><g><rect x="390" y="399.213" width="86.457" height="94.488" style="fill:#0079c1;"/><path d="M472.065,403.937l-15.348,66.142l-12.719,-0l-10.77,-47.741l-10.769,47.741l-12.804,-0l-15.264,-66.142l11.533,0l10.684,46.893l10.685,-46.893l11.871,0l10.685,47.147l10.684,-47.147l11.532,0Z" style="fill:#fff;fill-rule:nonzero;"/></g><g><rect x="540.709" y="399.213" width="58.11" height="94.488" style="fill:#0079c1;"/><path d="M596.644,403.937l-21.199,39.6l0,26.542l-11.363,-0l0,-26.542l-21.199,-39.6l12.041,0l14.84,27.729l14.839,-27.729l12.041,0Z" style="fill:#fff;fill-rule:nonzero;"/></g></g><g><g><g><rect x="307.795" y="493.701" width="52.913" height="94.488" style="fill:#0079c1;"/></g><path d="M353.925,564.567l-10.939,-0l0,-30.951c0,-2.714 -0.664,-4.777 -1.993,-6.19c-1.328,-1.413 -3.264,-2.12 -5.808,-2.12c-2.714,-0 -5.017,0.82 -6.911,2.459c-1.894,1.639 -2.841,3.985 -2.841,7.038l0,29.764l-10.854,-0l0,-66.142l10.854,0l0,21.878c1.413,-1.583 3.265,-2.855 5.554,-3.816c2.29,-0.961 4.509,-1.442 6.657,-1.442c2.6,0 4.918,0.396 6.953,1.188c2.035,0.791 3.745,1.908 5.13,3.349c1.385,1.442 2.431,3.166 3.138,5.173c0.707,2.007 1.06,4.225 1.06,6.656l-0,33.156Z" style="fill:#fff;fill-rule:nonzero;"/></g><g><rect x="253.937" y="493.701" width="53.858" height="94.488" style="fill:#0079c1;"/><path d="M302.333,542.062c-0,3.534 -0.483,6.872 -1.448,10.013c-0.965,3.142 -2.33,5.89 -4.095,8.246c-1.764,2.356 -3.929,4.208 -6.493,5.554c-2.565,1.346 -5.419,2.02 -8.562,2.02c-2.317,-0 -4.467,-0.407 -6.453,-1.221c-1.985,-0.813 -3.75,-2.033 -5.294,-3.66l0,19.269l-10.589,0l0,-63.614l10.589,0l0,3.366c2.978,-3.141 6.894,-4.712 11.747,-4.712c3.309,-0 6.245,0.687 8.81,2.061c2.564,1.375 4.715,3.212 6.452,5.512c1.737,2.3 3.061,4.937 3.971,7.91c0.91,2.973 1.365,6.058 1.365,9.256Zm-10.837,-0c0,-1.739 -0.262,-3.464 -0.786,-5.175c-0.524,-1.711 -1.282,-3.254 -2.275,-4.628c-0.992,-1.375 -2.233,-2.483 -3.722,-3.324c-1.489,-0.841 -3.199,-1.262 -5.129,-1.262c-1.268,-0 -2.482,0.196 -3.64,0.589c-1.158,0.392 -2.178,0.953 -3.061,1.683c-0.882,0.729 -1.599,1.641 -2.15,2.734c-0.552,1.094 -0.828,2.343 -0.828,3.745l0,12.369c0,1.347 0.29,2.553 0.869,3.619c0.579,1.066 1.323,1.977 2.233,2.734c0.91,0.758 1.931,1.333 3.061,1.725c1.131,0.393 2.22,0.589 3.268,0.589c1.985,0 3.736,-0.406 5.253,-1.22c1.516,-0.813 2.785,-1.907 3.805,-3.281c1.02,-1.375 1.792,-3.002 2.316,-4.881c0.524,-1.879 0.786,-3.885 0.786,-6.016Z" style="fill:#fff;fill-rule:nonzero;"/></g><g><rect x="360.709" y="493.701" width="52.913" height="94.488" style="fill:#0079c1;"/><path d="M408.433,541.494c0,3.349 -0.497,6.435 -1.491,9.261c-0.994,2.825 -2.42,5.258 -4.277,7.298c-1.857,2.041 -4.094,3.636 -6.71,4.787c-2.616,1.151 -5.52,1.727 -8.711,1.727c-3.244,-0 -6.174,-0.576 -8.79,-1.727c-2.616,-1.151 -4.852,-2.746 -6.71,-4.787c-1.857,-2.04 -3.296,-4.473 -4.316,-7.298c-1.02,-2.826 -1.53,-5.912 -1.53,-9.261c-0,-3.453 0.471,-6.657 1.412,-9.613c0.942,-2.956 2.315,-5.52 4.12,-7.691c1.805,-2.172 4.029,-3.859 6.671,-5.062c2.642,-1.203 5.69,-1.805 9.143,-1.805c3.401,-0 6.422,0.615 9.064,1.844c2.642,1.23 4.866,2.93 6.671,5.101c1.805,2.171 3.165,4.722 4.081,7.652c0.915,2.93 1.373,6.121 1.373,9.574Zm-9.967,0c0,-1.936 -0.261,-3.819 -0.785,-5.65c-0.523,-1.831 -1.268,-3.44 -2.236,-4.827c-0.968,-1.386 -2.145,-2.498 -3.532,-3.335c-1.386,-0.837 -2.943,-1.256 -4.669,-1.256c-1.779,0 -3.375,0.419 -4.787,1.256c-1.413,0.837 -2.603,1.949 -3.571,3.335c-0.968,1.387 -1.701,2.996 -2.198,4.827c-0.497,1.831 -0.745,3.714 -0.745,5.65c-0,1.988 0.262,3.833 0.785,5.533c0.523,1.7 1.268,3.178 2.236,4.434c0.968,1.256 2.145,2.237 3.532,2.943c1.386,0.706 2.969,1.059 4.748,1.059c1.726,0 3.283,-0.353 4.669,-1.059c1.387,-0.706 2.564,-1.687 3.532,-2.943c0.968,-1.256 1.713,-2.734 2.236,-4.434c0.524,-1.7 0.785,-3.545 0.785,-5.533Z" style="fill:#fff;fill-rule:nonzero;"/></g><g><rect x="413.622" y="493.701" width="52.913" height="94.488" style="fill:#0079c1;"/><path d="M459.198,564.488l-10.436,0l0,-28.961c0,-2.858 -0.674,-4.989 -2.022,-6.391c-1.348,-1.402 -3.263,-2.103 -5.744,-2.103c-1.132,-0 -2.252,0.161 -3.357,0.485c-1.106,0.324 -2.103,0.849 -2.993,1.578c-0.89,0.728 -1.605,1.685 -2.144,2.871c-0.539,1.187 -0.809,2.616 -0.809,4.288l-0,28.233l-10.436,0l0,-45.95l10.436,0l-0,3.722c1.402,-1.51 3.155,-2.724 5.258,-3.641c2.104,-0.916 4.234,-1.375 6.391,-1.375c2.589,0 4.881,0.391 6.876,1.173c1.996,0.782 3.654,1.861 4.976,3.236c1.321,1.375 2.319,3.007 2.993,4.894c0.674,1.888 1.011,3.937 1.011,6.149l0,31.792Z" style="fill:#fff;fill-rule:nonzero;"/></g><g><rect x="466.535" y="493.701" width="52.441" height="94.488" style="fill:#0079c1;"/><path d="M513.247,542.913l-0.079,1.811l-30.236,0c0.157,3.15 1.247,5.735 3.268,7.756c2.021,2.021 4.685,3.032 7.992,3.032c2.152,-0 4.068,-0.328 5.748,-0.984c1.68,-0.657 3.281,-1.693 4.803,-3.111l5.669,6.772c-2.1,1.995 -4.527,3.556 -7.283,4.685c-2.756,1.129 -5.709,1.693 -8.859,1.693c-3.569,-0 -6.719,-0.617 -9.448,-1.85c-2.73,-1.234 -5.027,-2.927 -6.89,-5.079c-1.864,-2.152 -3.281,-4.672 -4.252,-7.559c-0.971,-2.887 -1.457,-6.011 -1.457,-9.37c0,-3.307 0.46,-6.378 1.378,-9.213c0.919,-2.835 2.257,-5.302 4.016,-7.402c1.758,-2.099 3.924,-3.753 6.496,-4.96c2.572,-1.207 5.486,-1.811 8.74,-1.811c3.622,-0 6.746,0.669 9.37,2.008c2.625,1.338 4.79,3.162 6.496,5.472c1.706,2.31 2.927,5.013 3.662,8.11c0.735,3.097 1.023,6.431 0.866,10Zm-10.079,-5.905c0.053,-1.575 -0.17,-3.018 -0.669,-4.331c-0.499,-1.312 -1.208,-2.441 -2.126,-3.386c-0.919,-0.945 -2.021,-1.679 -3.307,-2.204c-1.286,-0.525 -2.691,-0.788 -4.213,-0.788c-1.522,0 -2.9,0.289 -4.134,0.866c-1.233,0.578 -2.283,1.352 -3.149,2.323c-0.866,0.971 -1.549,2.113 -2.048,3.425c-0.498,1.313 -0.748,2.678 -0.748,4.095l20.394,-0Z" style="fill:#fff;fill-rule:nonzero;"/></g></g><g><g><g><rect x="47.244" y="588.189" width="60.472" height="94.488" style="fill:#0079c1;"/><path d="M102.195,625.699c0,4.078 -0.489,8.115 -1.468,12.111c-0.979,3.996 -2.461,7.571 -4.445,10.724c-1.985,3.154 -4.514,5.696 -7.586,7.626c-3.073,1.93 -6.702,2.895 -10.889,2.895c-4.188,0 -7.858,-0.965 -11.012,-2.895c-3.154,-1.93 -5.764,-4.472 -7.83,-7.626c-2.067,-3.153 -3.617,-6.728 -4.65,-10.724c-1.033,-3.996 -1.549,-8.061 -1.549,-12.193c-0,-4.078 0.489,-8.087 1.468,-12.029c0.979,-3.942 2.488,-7.435 4.527,-10.48c2.039,-3.045 4.608,-5.505 7.708,-7.381c3.099,-1.876 6.77,-2.814 11.011,-2.814c4.133,0 7.749,0.938 10.849,2.814c3.099,1.876 5.682,4.35 7.749,7.422c2.066,3.072 3.602,6.578 4.608,10.52c1.006,3.942 1.509,7.952 1.509,12.03Zm-10.93,0.081c0,-2.555 -0.258,-5.192 -0.775,-7.911c-0.516,-2.718 -1.332,-5.206 -2.447,-7.462c-1.115,-2.256 -2.542,-4.118 -4.282,-5.586c-1.74,-1.468 -3.834,-2.202 -6.281,-2.202c-2.447,-0 -4.54,0.72 -6.28,2.161c-1.74,1.441 -3.168,3.276 -4.283,5.505c-1.114,2.229 -1.93,4.703 -2.447,7.421c-0.516,2.719 -0.775,5.356 -0.775,7.911c0,2.284 0.191,4.798 0.571,7.544c0.381,2.746 1.102,5.301 2.162,7.666c1.06,2.366 2.501,4.35 4.323,5.954c1.822,1.604 4.174,2.406 7.056,2.406c2.827,-0 5.125,-0.789 6.892,-2.365c1.767,-1.577 3.14,-3.534 4.119,-5.872c0.979,-2.338 1.631,-4.88 1.958,-7.626c0.326,-2.745 0.489,-5.26 0.489,-7.544Z" style="fill:#fff;fill-rule:nonzero;"/></g></g><g><g><rect x="164.409" y="588.189" width="60.472" height="94.488" style="fill:#0079c1;"/><path d="M219.36,625.699c0,4.078 -0.489,8.115 -1.468,12.111c-0.979,3.996 -2.46,7.571 -4.445,10.724c-1.985,3.154 -4.514,5.696 -7.586,7.626c-3.072,1.93 -6.702,2.895 -10.889,2.895c-4.187,0 -7.858,-0.965 -11.012,-2.895c-3.154,-1.93 -5.764,-4.472 -7.83,-7.626c-2.066,-3.153 -3.616,-6.728 -4.649,-10.724c-1.034,-3.996 -1.55,-8.061 -1.55,-12.193c-0,-4.078 0.489,-8.087 1.468,-12.029c0.979,-3.942 2.488,-7.435 4.527,-10.48c2.039,-3.045 4.609,-5.505 7.708,-7.381c3.1,-1.876 6.77,-2.814 11.012,-2.814c4.132,0 7.749,0.938 10.848,2.814c3.1,1.876 5.683,4.35 7.749,7.422c2.066,3.072 3.602,6.578 4.608,10.52c1.006,3.942 1.509,7.952 1.509,12.03Zm-10.93,0.081c0,-2.555 -0.258,-5.192 -0.774,-7.911c-0.517,-2.718 -1.333,-5.206 -2.447,-7.462c-1.115,-2.256 -2.543,-4.118 -4.283,-5.586c-1.74,-1.468 -3.833,-2.202 -6.28,-2.202c-2.447,-0 -4.541,0.72 -6.281,2.161c-1.74,1.441 -3.168,3.276 -4.282,5.505c-1.115,2.229 -1.931,4.703 -2.447,7.421c-0.517,2.719 -0.775,5.356 -0.775,7.911c-0,2.284 0.19,4.798 0.571,7.544c0.38,2.746 1.101,5.301 2.161,7.666c1.061,2.366 2.502,4.35 4.323,5.954c1.822,1.604 4.174,2.406 7.056,2.406c2.828,-0 5.125,-0.789 6.892,-2.365c1.768,-1.577 3.141,-3.534 4.119,-5.872c0.979,-2.338 1.632,-4.88 1.958,-7.626c0.326,-2.745 0.489,-5.26 0.489,-7.544Z" style="fill:#fff;fill-rule:nonzero;"/></g></g><g><rect x="254.409" y="588.189" width="61.417" height="94.488" style="fill:#0079c1;"/><path d="M307.59,640.053c-0,2.881 -0.626,5.491 -1.876,7.829c-1.251,2.338 -2.909,4.336 -4.976,5.994c-2.066,1.659 -4.445,2.936 -7.137,3.833c-2.692,0.898 -5.479,1.346 -8.361,1.346c-2.882,0 -5.682,-0.448 -8.401,-1.346c-2.719,-0.897 -5.125,-2.174 -7.219,-3.833c-2.093,-1.658 -3.779,-3.656 -5.057,-5.994c-1.278,-2.338 -1.917,-4.948 -1.917,-7.829c0,-3.426 0.822,-6.484 2.466,-9.175c1.644,-2.692 3.78,-4.635 6.41,-5.832c-2.248,-1.305 -4.113,-3.126 -5.594,-5.464c-1.481,-2.338 -2.221,-4.975 -2.221,-7.911c-0,-2.827 0.612,-5.396 1.835,-7.707c1.224,-2.311 2.828,-4.281 4.812,-5.913c1.985,-1.631 4.269,-2.895 6.852,-3.792c2.583,-0.897 5.234,-1.346 7.953,-1.346c2.719,0 5.37,0.435 7.953,1.305c2.583,0.87 4.867,2.107 6.851,3.711c1.985,1.604 3.589,3.561 4.813,5.872c1.223,2.311 1.835,4.934 1.835,7.87c0,2.827 -0.734,5.396 -2.202,7.707c-1.469,2.311 -3.345,4.092 -5.628,5.342c2.61,1.305 4.73,3.317 6.362,6.035c1.631,2.719 2.447,5.818 2.447,9.298Zm-11.909,-28.137c0,-1.305 -0.284,-2.515 -0.853,-3.629c-0.569,-1.115 -1.327,-2.094 -2.275,-2.936c-0.948,-0.843 -2.072,-1.509 -3.372,-1.998c-1.3,-0.49 -2.681,-0.734 -4.144,-0.734c-1.463,-0 -2.83,0.244 -4.104,0.734c-1.273,0.489 -2.397,1.155 -3.372,1.998c-0.975,0.842 -1.733,1.821 -2.275,2.936c-0.542,1.114 -0.812,2.324 -0.812,3.629c-0,1.305 0.27,2.515 0.812,3.629c0.542,1.115 1.3,2.093 2.275,2.936c0.975,0.843 2.099,1.509 3.372,1.998c1.274,0.49 2.641,0.734 4.104,0.734c1.463,0 2.844,-0.244 4.144,-0.734c1.3,-0.489 2.424,-1.155 3.372,-1.998c0.948,-0.843 1.706,-1.821 2.275,-2.936c0.569,-1.114 0.853,-2.324 0.853,-3.629Zm1.305,27.566c0,-1.36 -0.312,-2.637 -0.935,-3.833c-0.623,-1.197 -1.463,-2.243 -2.519,-3.14c-1.057,-0.897 -2.29,-1.604 -3.699,-2.121c-1.409,-0.516 -2.926,-0.775 -4.552,-0.775c-1.625,0 -3.156,0.259 -4.592,0.775c-1.437,0.517 -2.683,1.224 -3.74,2.121c-1.056,0.897 -1.883,1.943 -2.479,3.14c-0.596,1.196 -0.894,2.473 -0.894,3.833c0,1.413 0.298,2.718 0.894,3.914c0.596,1.197 1.423,2.243 2.479,3.14c1.057,0.897 2.303,1.604 3.74,2.121c1.436,0.516 2.967,0.775 4.592,0.775c1.626,-0 3.143,-0.259 4.552,-0.775c1.409,-0.517 2.642,-1.224 3.699,-2.121c1.056,-0.897 1.896,-1.943 2.519,-3.14c0.623,-1.196 0.935,-2.501 0.935,-3.914Z" style="fill:#fff;fill-rule:nonzero;"/></g><g><rect x="676.535" y="588.189" width="49.134" height="94.488" style="fill:#0079c1;"/><path d="M723.661,603.428l-23.746,55.627l-12.382,0l23.577,-55.966l-32.567,0l0,-10.176l45.118,0l0,10.515Z" style="fill:#fff;fill-rule:nonzero;"/></g><g><rect x="617.008" y="588.189" width="59.528" height="94.488" style="fill:#0079c1;"/><path d="M669.61,636.79c0,3.154 -0.475,6.09 -1.427,8.808c-0.952,2.719 -2.325,5.07 -4.119,7.055c-1.795,1.985 -3.997,3.548 -6.607,4.689c-2.61,1.142 -5.547,1.713 -8.809,1.713c-4.677,0 -8.606,-0.883 -11.787,-2.65c-3.181,-1.767 -5.723,-4.146 -7.626,-7.137c-1.903,-2.99 -3.263,-6.442 -4.079,-10.357c-0.815,-3.915 -1.223,-8.047 -1.223,-12.397c-0,-4.295 0.449,-8.468 1.346,-12.518c0.897,-4.051 2.324,-7.64 4.282,-10.766c1.958,-3.126 4.5,-5.627 7.627,-7.503c3.126,-1.876 6.946,-2.814 11.46,-2.814c4.241,0 7.871,0.911 10.889,2.733c3.018,1.821 5.315,4.281 6.892,7.38l-8.972,4.567c-0.87,-1.576 -2.134,-2.84 -3.793,-3.792c-1.658,-0.951 -3.521,-1.427 -5.587,-1.427c-1.904,-0 -3.671,0.394 -5.302,1.182c-1.631,0.789 -3.032,1.971 -4.201,3.548c-1.169,1.577 -2.08,3.534 -2.732,5.872c-0.653,2.338 -0.979,5.084 -0.979,8.237c1.631,-2.011 3.725,-3.588 6.281,-4.73c2.555,-1.142 5.057,-1.713 7.504,-1.713c3.317,0 6.267,0.558 8.85,1.672c2.583,1.115 4.771,2.651 6.566,4.608c1.794,1.957 3.167,4.282 4.119,6.973c0.952,2.691 1.427,5.614 1.427,8.767Zm-10.522,-0.081c0,-3.697 -1.087,-6.688 -3.262,-8.971c-2.176,-2.284 -5.03,-3.426 -8.565,-3.426c-1.686,0 -3.249,0.299 -4.69,0.897c-1.441,0.599 -2.678,1.441 -3.711,2.529c-1.034,1.087 -1.849,2.392 -2.447,3.914c-0.599,1.523 -0.898,3.208 -0.898,5.057c0,1.848 0.286,3.534 0.857,5.056c0.571,1.523 1.387,2.841 2.447,3.956c1.06,1.114 2.297,1.971 3.711,2.569c1.414,0.598 2.991,0.897 4.731,0.897c3.535,-0 6.389,-1.142 8.565,-3.425c2.175,-2.284 3.262,-5.302 3.262,-9.053Z" style="fill:#fff;fill-rule:nonzero;"/></g><g><rect x="559.37" y="588.189" width="57.638" height="94.488" style="fill:#0079c1;"/><path d="M611.583,634.906c-0,3.374 -0.544,6.528 -1.631,9.46c-1.087,2.932 -2.606,5.491 -4.557,7.677c-1.951,2.185 -4.271,3.9 -6.96,5.145c-2.689,1.245 -5.61,1.867 -8.764,1.867c-6.032,0 -10.942,-1.328 -14.733,-3.983c-3.79,-2.656 -6.571,-6.169 -8.341,-10.54l10.458,-4.066c0.94,2.434 2.379,4.453 4.316,6.058c1.936,1.604 4.233,2.407 6.889,2.407c2.158,-0 3.998,-0.36 5.519,-1.079c1.522,-0.72 2.781,-1.702 3.777,-2.946c0.996,-1.245 1.729,-2.684 2.199,-4.316c0.47,-1.632 0.706,-3.333 0.706,-5.104c-0,-1.77 -0.291,-3.457 -0.872,-5.062c-0.581,-1.604 -1.411,-3.015 -2.49,-4.232c-1.079,-1.217 -2.365,-2.186 -3.859,-2.905c-1.494,-0.719 -3.182,-1.079 -5.063,-1.079c-2.269,0 -4.385,0.526 -6.35,1.577c-1.964,1.051 -3.444,2.6 -4.44,4.647l-10.79,-3.07l4.731,-32.449l36.993,0l-0,9.959l-27.033,-0l-1.826,12.199c1.438,-0.83 3.057,-1.48 4.855,-1.95c1.799,-0.47 3.611,-0.705 5.437,-0.705c3.264,-0 6.241,0.581 8.931,1.742c2.689,1.162 4.995,2.767 6.918,4.814c1.924,2.047 3.401,4.426 4.432,7.137c1.032,2.711 1.548,5.643 1.548,8.797Z" style="fill:#fff;fill-rule:nonzero;"/></g><g><rect x="499.37" y="588.189" width="60" height="94.488" style="fill:#0079c1;"/><path d="M554.562,646.675l-7.633,-0l0,12.38l-11.534,0l0,-12.38l-32.482,-0l0,-11.024l30.023,-42.738l13.993,0l0,43.586l7.633,0l-0,10.176Zm-18.997,-40.364l-21.202,30.188l21.202,0l-0,-30.188Z" style="fill:#fff;fill-rule:nonzero;"/></g><g><rect x="409.843" y="588.189" width="60" height="94.488" style="fill:#0079c1;"/><path d="M459.049,639.76c0,2.944 -0.463,5.601 -1.39,7.972c-0.927,2.371 -2.276,4.401 -4.048,6.091c-1.771,1.689 -3.952,2.984 -6.541,3.883c-2.589,0.899 -5.547,1.349 -8.872,1.349c-6.759,0 -12.115,-1.662 -16.067,-4.987c-3.953,-3.325 -6.474,-7.849 -7.564,-13.572l10.466,-2.371c0.436,3.271 1.745,5.914 3.925,7.931c2.181,2.016 4.934,3.025 8.259,3.025c3.325,-0 5.996,-0.763 8.013,-2.289c2.017,-1.527 3.026,-3.979 3.026,-7.359c-0,-2.18 -0.436,-3.938 -1.309,-5.273c-0.872,-1.335 -2.003,-2.344 -3.393,-3.025c-1.39,-0.681 -2.93,-1.09 -4.62,-1.226c-1.69,-0.137 -3.353,-0.123 -4.988,0.04l0,-9.156l1.799,-0c1.363,-0 2.753,-0.15 4.17,-0.45c1.418,-0.3 2.699,-0.777 3.843,-1.431c1.145,-0.654 2.072,-1.54 2.78,-2.657c0.709,-1.117 1.063,-2.521 1.063,-4.21c0,-2.617 -0.858,-4.729 -2.575,-6.337c-1.717,-1.607 -4.348,-2.411 -7.891,-2.411c-3.325,-0 -5.928,0.817 -7.809,2.452c-1.881,1.635 -3.148,3.761 -3.802,6.377l-10.139,-2.452c2.889,-11.174 10.493,-16.761 22.813,-16.761c3.162,0 5.996,0.436 8.504,1.309c2.508,0.872 4.634,2.125 6.378,3.76c1.744,1.635 3.08,3.584 4.007,5.846c0.926,2.262 1.39,4.783 1.39,7.563c-0,3.052 -0.641,5.709 -1.922,7.971c-1.281,2.262 -3.093,4.02 -5.437,5.273c2.562,1.199 4.524,3.162 5.887,5.887c1.363,2.725 2.044,5.805 2.044,9.238Z" style="fill:#fff;fill-rule:nonzero;"/></g><g><rect x="107.717" y="588.189" width="56.693" height="94.488" style="fill:#0079c1;"/><path d="M157.609,659.055l-42.99,0l-0,-9.996c1.388,-0.833 2.874,-1.763 4.457,-2.791c1.583,-1.027 3.208,-2.124 4.874,-3.29c1.666,-1.166 3.305,-2.36 4.915,-3.582c1.611,-1.222 3.139,-2.416 4.583,-3.582c1.055,-0.889 2.305,-1.999 3.749,-3.332c1.444,-1.333 2.832,-2.888 4.165,-4.665c1.333,-1.777 2.458,-3.763 3.375,-5.956c0.916,-2.194 1.374,-4.596 1.374,-7.206c0,-1.555 -0.18,-3.054 -0.541,-4.498c-0.361,-1.444 -0.958,-2.707 -1.792,-3.79c-0.833,-1.083 -1.902,-1.944 -3.207,-2.583c-1.305,-0.638 -2.902,-0.958 -4.791,-0.958c-2.11,0 -3.874,0.403 -5.29,1.208c-1.416,0.805 -2.541,1.874 -3.374,3.207c-0.833,1.333 -1.389,2.874 -1.666,4.624c-0.278,1.749 -0.278,3.568 -0,5.456l-10.831,-0l-0.084,-1.999c-0.111,-3.221 0.292,-6.206 1.209,-8.955c0.916,-2.749 2.291,-5.123 4.124,-7.123c1.832,-1.999 4.096,-3.554 6.79,-4.665c2.693,-1.11 5.762,-1.666 9.206,-1.666c3.443,0 6.512,0.542 9.206,1.625c2.694,1.083 4.957,2.582 6.79,4.498c1.833,1.916 3.235,4.207 4.207,6.872c0.972,2.666 1.458,5.609 1.458,8.83c0,4.499 -1.194,8.914 -3.582,13.245c-2.389,4.332 -5.832,8.497 -10.331,12.496c-2,1.777 -3.902,3.332 -5.707,4.665c-1.805,1.333 -3.763,2.638 -5.874,3.915l25.578,-0l-0,9.996Z" style="fill:#fff;fill-rule:nonzero;"/></g><g><rect x="353.15" y="588.189" width="56.693" height="94.488" style="fill:#0079c1;"/><path d="M403.042,659.055l-42.99,0l-0,-9.996c1.388,-0.833 2.874,-1.763 4.457,-2.791c1.583,-1.027 3.208,-2.124 4.874,-3.29c1.666,-1.166 3.305,-2.36 4.915,-3.582c1.611,-1.222 3.139,-2.416 4.583,-3.582c1.055,-0.889 2.305,-1.999 3.749,-3.332c1.444,-1.333 2.832,-2.888 4.165,-4.665c1.333,-1.777 2.458,-3.763 3.375,-5.956c0.916,-2.194 1.374,-4.596 1.374,-7.206c0,-1.555 -0.18,-3.054 -0.541,-4.498c-0.361,-1.444 -0.958,-2.707 -1.791,-3.79c-0.834,-1.083 -1.903,-1.944 -3.208,-2.583c-1.305,-0.638 -2.902,-0.958 -4.791,-0.958c-2.11,0 -3.874,0.403 -5.29,1.208c-1.416,0.805 -2.541,1.874 -3.374,3.207c-0.833,1.333 -1.389,2.874 -1.666,4.624c-0.278,1.749 -0.278,3.568 -0,5.456l-10.831,-0l-0.083,-1.999c-0.112,-3.221 0.291,-6.206 1.208,-8.955c0.916,-2.749 2.291,-5.123 4.124,-7.123c1.833,-1.999 4.096,-3.554 6.79,-4.665c2.693,-1.11 5.762,-1.666 9.206,-1.666c3.443,0 6.512,0.542 9.206,1.625c2.694,1.083 4.957,2.582 6.79,4.498c1.833,1.916 3.235,4.207 4.207,6.872c0.972,2.666 1.458,5.609 1.458,8.83c0,4.499 -1.194,8.914 -3.582,13.245c-2.389,4.332 -5.832,8.497 -10.331,12.496c-2,1.777 -3.902,3.332 -5.707,4.665c-1.805,1.333 -3.763,2.638 -5.874,3.915l25.578,-0l-0,9.996Z" style="fill:#fff;fill-rule:nonzero;"/></g><g><rect x="315.827" y="588.189" width="37.323" height="94.488" style="fill:#0079c1;"/><path d="M342.941,659.055l-11.365,0l0,-47.232l-11.025,0l0,-8.734c1.583,-0.056 3.223,-0.24 4.919,-0.551c1.696,-0.311 3.166,-0.947 4.41,-1.908c1.187,-0.905 2.021,-2.007 2.502,-3.307c0.481,-1.3 0.777,-2.77 0.89,-4.41l9.669,0l-0,66.142Z" style="fill:#fff;fill-rule:nonzero;"/></g></g></g></g></g></svg>