<?xml version="1.0" encoding="UTF-8" standalone="no"?><!DOCTYPE svg PUBLIC "-//W3C//DTD SVG 1.1//EN" "http://www.w3.org/Graphics/SVG/1.1/DTD/svg11.dtd"><svg width="100%" height="100%" viewBox="0 0 664 461" version="1.1" xmlns="http://www.w3.org/2000/svg" xmlns:xlink="http://www.w3.org/1999/xlink" xml:space="preserve" xmlns:serif="http://www.serif.com/" style="fill-rule:evenodd;clip-rule:evenodd;stroke-linejoin:round;stroke-miterlimit:2;"><g transform="matrix(50,0,0,50,404.826,247.966)"></g><text x="258.904px" y="247.966px" style="font-family:'ArialMT', 'Arial', sans-serif;font-size:50px;">sw=39</text><clipPath id="_clip1"><rect x="0" y="0" width="663.071" height="460.63"/></clipPath><g clip-path="url(#_clip1)"><rect id="Park-here-and-use-phone-at-crossing" serif:id="Park here and use phone at crossing" x="0" y="0" width="663.071" height="460.63" style="fill:none;"/><g><path d="M663.071,35.433c-0,-19.556 -15.877,-35.433 -35.433,-35.433l-592.205,0c-19.556,0 -35.433,15.877 -35.433,35.433l0,389.764c0,19.556 15.877,35.433 35.433,35.433l592.205,-0c19.556,-0 35.433,-15.877 35.433,-35.433l-0,-389.764Z"/><path d="M645.354,35.433c0,-9.778 -7.938,-17.716 -17.716,-17.716l-592.205,-0c-9.778,-0 -17.716,7.938 -17.716,17.716l-0,389.764c-0,9.778 7.938,17.716 17.716,17.716l592.205,0c9.778,0 17.716,-7.938 17.716,-17.716l0,-389.764Z" style="fill:#fff;"/><g><g><g><rect x="351.26" y="141.732" width="74.173" height="94.488" style="fill:#fff;"/><path d="M415.922,187.816c-0,4.255 -0.779,7.943 -2.337,11.065c-1.558,3.122 -3.64,5.691 -6.246,7.708c-2.606,2.017 -5.566,3.523 -8.88,4.518c-3.314,0.994 -6.728,1.491 -10.24,1.491c-3.569,0 -7.011,-0.497 -10.325,-1.491c-3.314,-0.995 -6.232,-2.501 -8.753,-4.518c-2.521,-2.017 -4.546,-4.572 -6.076,-7.666c-1.529,-3.095 -2.294,-6.769 -2.294,-11.024l-0,-41.442l14.276,-0l0,41.359c0,2.044 0.383,3.826 1.148,5.346c0.764,1.52 1.756,2.777 2.974,3.771c1.218,0.995 2.634,1.727 4.249,2.197c1.614,0.469 3.271,0.704 4.971,0.704c1.643,0 3.272,-0.235 4.886,-0.704c1.615,-0.47 3.045,-1.202 4.292,-2.197c1.246,-0.994 2.252,-2.238 3.016,-3.73c0.765,-1.491 1.148,-3.287 1.148,-5.387l-0.085,-41.359l14.276,-0l-0,41.359Z" style="fill-rule:nonzero;"/></g><g><rect x="494.409" y="141.732" width="64.252" height="94.488" style="fill:#fff;"/><path d="M549.431,212.598l-45.791,0l0,-66.141l43.247,-0l-0,13.058l-29.679,0l-0,13.314l26.88,-0l0,12.21l-26.88,0l-0,14.501l32.223,-0l-0,13.058Z" style="fill-rule:nonzero;"/></g><g><rect x="425.433" y="141.732" width="68.976" height="94.488" style="fill:#fff;"/><path d="M487.256,193.899c-0,2.613 -0.517,5.063 -1.549,7.349c-1.033,2.287 -2.623,4.274 -4.772,5.961c-2.149,1.688 -4.87,3.008 -8.163,3.96c-3.293,0.953 -7.2,1.429 -11.721,1.429c-2.679,0 -5.358,-0.313 -8.037,-0.939c-2.679,-0.626 -5.246,-1.51 -7.702,-2.653c-2.456,-1.144 -4.772,-2.532 -6.949,-4.165c-2.176,-1.633 -4.102,-3.484 -5.776,-5.553l10.716,-8.41c2.065,2.831 4.716,5.049 7.953,6.655c3.237,1.606 6.53,2.463 9.879,2.572c3.851,0.163 6.712,-0.327 8.581,-1.47c1.87,-1.143 2.805,-2.722 2.805,-4.736c0,-2.232 -0.851,-3.906 -2.553,-5.022c-1.703,-1.116 -3.865,-1.973 -6.489,-2.572l-9.46,-2.041c-2.344,-0.545 -4.674,-1.252 -6.991,-2.123c-2.316,-0.871 -4.409,-2.042 -6.279,-3.512c-1.869,-1.469 -3.39,-3.293 -4.562,-5.471c-1.172,-2.177 -1.758,-4.817 -1.758,-7.92c-0,-2.559 0.53,-4.981 1.59,-7.268c1.061,-2.286 2.651,-4.287 4.772,-6.001c2.121,-1.715 4.772,-3.063 7.954,-4.042c3.181,-0.98 6.921,-1.47 11.218,-1.47c5.637,-0 10.646,0.966 15.028,2.898c4.381,1.933 8.051,4.696 11.009,8.289l-11.135,8.329c-1.618,-2.178 -3.725,-3.906 -6.321,-5.186c-2.595,-1.279 -5.455,-1.919 -8.581,-1.919c-3.516,0 -6.195,0.572 -8.037,1.715c-1.842,1.143 -2.763,2.532 -2.763,4.165c0,1.633 0.768,2.994 2.303,4.083c1.534,1.088 4.088,2.041 7.66,2.858l8.288,1.959c7.144,1.688 12.237,4.206 15.279,7.554c3.042,3.347 4.563,7.58 4.563,12.697Z" style="fill-rule:nonzero;"/></g></g><g><g><rect x="250.866" y="141.732" width="70.866" height="94.488" style="fill:#fff;"/><path d="M317.008,179.188c-0,4.353 -0.594,8.537 -1.781,12.55c-1.187,4.014 -3.053,7.576 -5.596,10.685c-2.544,3.109 -5.781,5.582 -9.71,7.42c-3.929,1.837 -8.635,2.755 -14.118,2.755l-25.1,0l-0,-66.141l25.184,-0c5.427,-0 10.105,0.961 14.034,2.883c3.929,1.922 7.166,4.438 9.71,7.547c2.543,3.109 4.409,6.614 5.596,10.515c1.187,3.9 1.781,7.829 1.781,11.786Zm-14.755,-0.084c0,-2.262 -0.339,-4.579 -1.017,-6.954c-0.679,-2.374 -1.668,-4.522 -2.968,-6.444c-1.301,-1.922 -2.912,-3.505 -4.834,-4.749c-1.922,-1.244 -4.098,-1.866 -6.529,-1.866l-12.211,0l0,40.618l11.617,0c2.77,0 5.159,-0.593 7.166,-1.78c2.007,-1.188 3.66,-2.742 4.96,-4.664c1.301,-1.922 2.262,-4.127 2.883,-6.614c0.622,-2.488 0.933,-5.004 0.933,-7.547Z" style="fill-rule:nonzero;"/></g><g><rect x="104.409" y="141.732" width="67.087" height="94.488" style="fill:#fff;"/><path d="M168.607,212.598l-14.924,0l-3.477,-11.702l-24.506,0l-3.562,11.702l-14.839,0l21.708,-66.141l17.722,-0l21.878,66.141Zm-21.963,-23.404l-8.649,-28.661l-8.649,28.661l17.298,0Z" style="fill-rule:nonzero;"/></g><g><rect x="171.496" y="141.732" width="79.37" height="94.488" style="fill:#fff;"/><path d="M241.001,212.598l-14.491,0l-31.239,-43.331l0,43.331l-13.91,0l-0,-66.141l14.519,-0l31.211,43.416l0,-43.416l13.91,-0l0,66.141Z" style="fill-rule:nonzero;"/></g></g></g><g><g><g><rect x="417.402" y="47.244" width="64.252" height="94.488" style="fill:#fff;"/><path d="M472.423,118.11l-45.791,0l0,-66.141l43.247,-0l-0,13.058l-29.679,0l-0,13.313l26.881,0l-0,12.211l-26.881,0l-0,14.5l32.223,0l-0,13.059Z" style="fill-rule:nonzero;"/></g><g><rect x="551.575" y="47.244" width="64.252" height="94.488" style="fill:#fff;"/><path d="M606.596,118.11l-45.79,0l-0,-66.141l43.246,-0l0,13.058l-29.679,0l0,13.313l26.881,0l-0,12.211l-26.881,0l0,14.5l32.223,0l0,13.059Z" style="fill-rule:nonzero;"/></g><g><rect x="481.654" y="47.244" width="69.921" height="94.488" style="fill:#fff;"/><path d="M546.85,118.11l-16.779,0l-14.867,-24.506l-8.954,-0l-0,24.506l-15.128,0l0,-66.141l27.908,-0c3.941,-0 7.375,0.551 10.302,1.653c2.927,1.102 5.347,2.6 7.26,4.494c1.912,1.894 3.347,4.141 4.303,6.742c0.956,2.6 1.435,5.427 1.435,8.479c-0,2.657 -0.363,5.003 -1.087,7.039c-0.725,2.035 -1.652,3.773 -2.782,5.215c-1.13,1.441 -2.377,2.642 -3.739,3.603c-1.362,0.961 -2.709,1.725 -4.042,2.29l16.17,26.626Zm-19.3,-45.281c-0,-2.431 -0.783,-4.367 -2.348,-5.809c-1.564,-1.442 -3.651,-2.162 -6.259,-2.162l-12.693,-0l-0,15.857l12.693,0.085c2.608,-0 4.695,-0.735 6.259,-2.205c1.565,-1.47 2.348,-3.392 2.348,-5.766Z" style="fill-rule:nonzero;"/></g><g><rect x="342.283" y="47.244" width="75.118" height="94.488" style="fill:#fff;"/><path d="M406.653,118.607l-13.596,-0l-0,-28.068l-26.429,-0l0,28.068l-13.596,-0l-0,-66.142l13.596,-0l0,25.185l26.429,-0l-0,-25.185l13.596,-0l0,66.142Z" style="fill-rule:nonzero;"/></g></g><g><g><rect x="110.551" y="47.244" width="67.087" height="94.488" style="fill:#fff;"/><path d="M174.749,118.11l-14.925,0l-3.476,-11.702l-24.507,0l-3.561,11.702l-14.84,0l21.708,-66.141l17.723,-0l21.878,66.141Zm-21.963,-23.404l-8.649,-28.661l-8.649,28.661l17.298,0Z" style="fill-rule:nonzero;"/></g><g><rect x="177.638" y="47.244" width="69.921" height="94.488" style="fill:#fff;"/><path d="M242.835,118.11l-16.78,0l-14.866,-24.506l-8.955,-0l-0,24.506l-15.128,0l0,-66.141l27.908,-0c3.941,-0 7.375,0.551 10.302,1.653c2.927,1.102 5.347,2.6 7.26,4.494c1.912,1.894 3.347,4.141 4.303,6.742c0.957,2.6 1.435,5.427 1.435,8.479c-0,2.657 -0.362,5.003 -1.087,7.039c-0.724,2.035 -1.652,3.773 -2.782,5.215c-1.13,1.441 -2.376,2.642 -3.738,3.603c-1.362,0.961 -2.71,1.725 -4.043,2.29l16.171,26.626Zm-19.301,-45.281c0,-2.431 -0.782,-4.367 -2.347,-5.809c-1.565,-1.442 -3.652,-2.162 -6.26,-2.162l-12.693,-0l-0,15.857l12.693,0.085c2.608,-0 4.695,-0.735 6.26,-2.205c1.565,-1.47 2.347,-3.392 2.347,-5.766Z" style="fill-rule:nonzero;"/></g><g><rect x="47.244" y="47.244" width="63.307" height="94.488" style="fill:#fff;"/><path d="M108.189,73.677c-0,2.883 -0.435,5.624 -1.304,8.225c-0.87,2.6 -2.217,4.89 -4.043,6.868c-1.826,1.979 -4.158,3.548 -6.998,4.707c-2.84,1.159 -6.202,1.738 -10.085,1.738l-13.476,0l-0,22.895l-14.084,0l-0,-66.141l27.56,-0c3.825,-0 7.158,0.565 9.998,1.695c2.84,1.131 5.173,2.686 6.998,4.664c1.826,1.979 3.188,4.283 4.086,6.911c0.899,2.629 1.348,5.441 1.348,8.438Zm-14.867,-0c0,-2.714 -0.826,-4.862 -2.477,-6.445c-1.652,-1.583 -3.869,-2.374 -6.651,-2.374l-11.911,-0l-0,17.468l11.998,-0c2.782,-0 4.984,-0.749 6.607,-2.247c1.623,-1.498 2.434,-3.632 2.434,-6.402Z" style="fill-rule:nonzero;"/></g><g><rect x="247.559" y="47.244" width="65.197" height="94.488" style="fill:#fff;"/><path d="M311.575,118.11l-16.693,0l-19.126,-28.492l-5.217,5.597l0,22.895l-13.91,0l-0,-66.141l13.91,-0l0,24.251l21.561,-24.251l18.258,-0l-25.039,27.643l26.256,38.498Z" style="fill-rule:nonzero;"/></g></g></g><g><g><g><rect x="369.449" y="236.22" width="64.252" height="94.488" style="fill:#fff;"/><path d="M424.47,307.087l-45.79,-0l-0,-66.142l43.246,-0l0,13.059l-29.679,-0l0,13.313l26.881,-0l-0,12.211l-26.881,-0l0,14.5l32.223,-0l0,13.059Z" style="fill-rule:nonzero;"/></g><g><rect x="77.008" y="236.22" width="63.307" height="94.488" style="fill:#fff;"/><path d="M137.953,262.653c-0,2.883 -0.435,5.625 -1.304,8.225c-0.87,2.601 -2.217,4.89 -4.043,6.869c-1.826,1.978 -4.159,3.547 -6.999,4.706c-2.84,1.159 -6.201,1.738 -10.085,1.738l-13.475,0l-0,22.896l-14.084,-0l-0,-66.142l27.559,-0c3.826,-0 7.158,0.565 9.998,1.696c2.84,1.13 5.173,2.685 6.999,4.664c1.826,1.978 3.188,4.282 4.086,6.911c0.899,2.628 1.348,5.441 1.348,8.437Zm-14.867,-0c0,-2.714 -0.826,-4.862 -2.478,-6.445c-1.652,-1.583 -3.868,-2.374 -6.651,-2.374l-11.91,0l-0,17.468l11.997,0c2.782,0 4.985,-0.749 6.608,-2.247c1.623,-1.498 2.434,-3.632 2.434,-6.402Z" style="fill-rule:nonzero;"/></g><g><rect x="215.433" y="236.22" width="74.646" height="94.488" style="fill:#fff;"/><path d="M284.154,274.22c-0,4.676 -0.669,9.025 -2.007,13.049c-1.338,4.023 -3.317,7.503 -5.937,10.439c-2.62,2.936 -5.895,5.233 -9.825,6.891c-3.93,1.658 -8.487,2.488 -13.671,2.488c-5.184,-0 -9.727,-0.843 -13.629,-2.529c-3.902,-1.685 -7.164,-3.996 -9.783,-6.932c-2.62,-2.936 -4.599,-6.416 -5.937,-10.439c-1.338,-4.023 -2.007,-8.373 -2.007,-13.049c-0,-4.785 0.641,-9.202 1.923,-13.253c1.282,-4.05 3.219,-7.557 5.811,-10.52c2.593,-2.964 5.854,-5.274 9.784,-6.933c3.93,-1.658 8.542,-2.487 13.838,-2.487c5.24,-0 9.825,0.843 13.755,2.528c3.93,1.686 7.205,4.01 9.825,6.973c2.62,2.963 4.585,6.484 5.895,10.562c1.31,4.077 1.965,8.481 1.965,13.212Zm-14.549,-0c-0,-2.828 -0.293,-5.505 -0.878,-8.034c-0.586,-2.528 -1.547,-4.743 -2.885,-6.646c-1.338,-1.903 -3.08,-3.399 -5.226,-4.486c-2.146,-1.087 -4.752,-1.631 -7.818,-1.631c-3.066,-0 -5.672,0.557 -7.818,1.672c-2.147,1.114 -3.889,2.61 -5.226,4.485c-1.338,1.876 -2.314,4.078 -2.927,6.606c-0.613,2.529 -0.92,5.206 -0.92,8.034c0,2.99 0.293,5.736 0.878,8.237c0.585,2.501 1.547,4.662 2.885,6.483c1.338,1.822 3.08,3.235 5.226,4.241c2.146,1.006 4.78,1.509 7.902,1.509c3.177,0 5.839,-0.503 7.985,-1.509c2.146,-1.006 3.874,-2.419 5.184,-4.241c1.31,-1.821 2.244,-3.982 2.801,-6.483c0.558,-2.501 0.837,-5.247 0.837,-8.237Z" style="fill-rule:nonzero;"/></g><g><rect x="290.079" y="236.22" width="79.37" height="94.488" style="fill:#fff;"/><path d="M359.584,307.087l-14.492,-0l-31.238,-43.332l-0,43.332l-13.91,-0l-0,-66.142l14.518,-0l31.212,43.416l-0,-43.416l13.91,-0l0,66.142Z" style="fill-rule:nonzero;"/></g><g><rect x="140.315" y="236.22" width="75.118" height="94.488" style="fill:#fff;"/><path d="M204.685,307.583l-13.597,-0l0,-28.068l-26.428,0l-0,28.068l-13.597,-0l0,-66.142l13.597,0l-0,25.185l26.428,-0l0,-25.185l13.597,0l-0,66.142Z" style="fill-rule:nonzero;"/></g></g><g><g><rect x="463.228" y="236.22" width="67.087" height="94.488" style="fill:#fff;"/><path d="M527.426,307.087l-14.924,-0l-3.477,-11.702l-24.507,-0l-3.561,11.702l-14.839,-0l21.708,-66.142l17.722,-0l21.878,66.142Zm-21.963,-23.404l-8.649,-28.662l-8.649,28.662l17.298,-0Z" style="fill-rule:nonzero;"/></g><g><rect x="530.315" y="236.22" width="55.748" height="94.488" style="fill:#fff;"/><path d="M584.184,254.004l-19.04,-0l0,53.083l-13.91,-0l-0,-53.083l-19.04,-0l0,-13.059l51.99,-0l-0,13.059Z" style="fill-rule:nonzero;"/></g></g></g><g><g><rect x="62.953" y="330.709" width="67.087" height="94.488" style="fill:#fff;"/><path d="M125.775,355.496l-12.886,4.404c-1.142,-3.589 -2.909,-6.497 -5.301,-8.727c-2.393,-2.229 -5.41,-3.343 -9.053,-3.343c-3.045,-0 -5.641,0.53 -7.789,1.59c-2.147,1.06 -3.901,2.528 -5.26,4.404c-1.359,1.876 -2.338,4.078 -2.936,6.606c-0.598,2.528 -0.897,5.26 -0.897,8.196c-0,2.828 0.272,5.492 0.815,7.993c0.544,2.501 1.455,4.676 2.733,6.524c1.277,1.849 2.936,3.303 4.974,4.363c2.039,1.061 4.581,1.591 7.626,1.591c3.534,-0 6.552,-0.938 9.053,-2.814c2.501,-1.876 4.404,-4.771 5.709,-8.686l13.13,4.241c-2.555,6.688 -6.103,11.649 -10.643,14.884c-4.54,3.235 -10.344,4.853 -17.412,4.853c-5.057,-0 -9.488,-0.911 -13.294,-2.732c-3.806,-1.822 -6.973,-4.241 -9.501,-7.259c-2.528,-3.017 -4.431,-6.497 -5.709,-10.439c-1.278,-3.942 -1.916,-8.06 -1.916,-12.356c-0,-4.404 0.638,-8.631 1.916,-12.682c1.278,-4.05 3.181,-7.598 5.709,-10.643c2.528,-3.044 5.695,-5.477 9.501,-7.299c3.806,-1.821 8.237,-2.732 13.294,-2.732c6.851,0 12.75,1.713 17.697,5.138c4.948,3.425 8.428,8.4 10.44,14.925Z" style="fill-rule:nonzero;"/></g><g><rect x="274.606" y="330.709" width="68.976" height="94.488" style="fill:#fff;"/><path d="M336.429,382.875c-0,2.613 -0.516,5.063 -1.549,7.35c-1.032,2.286 -2.623,4.273 -4.772,5.96c-2.149,1.688 -4.87,3.008 -8.163,3.961c-3.293,0.952 -7.199,1.429 -11.72,1.429c-2.679,-0 -5.358,-0.313 -8.037,-0.939c-2.679,-0.626 -5.247,-1.511 -7.703,-2.654c-2.455,-1.143 -4.772,-2.531 -6.948,-4.165c-2.177,-1.633 -4.103,-3.484 -5.777,-5.552l10.716,-8.411c2.065,2.831 4.716,5.049 7.954,6.655c3.237,1.606 6.53,2.463 9.878,2.572c3.852,0.164 6.712,-0.326 8.582,-1.469c1.869,-1.144 2.804,-2.722 2.804,-4.737c0,-2.231 -0.851,-3.905 -2.553,-5.021c-1.702,-1.116 -3.865,-1.974 -6.488,-2.573l-9.461,-2.041c-2.344,-0.544 -4.674,-1.252 -6.99,-2.123c-2.317,-0.871 -4.41,-2.041 -6.279,-3.511c-1.87,-1.47 -3.391,-3.294 -4.563,-5.471c-1.172,-2.178 -1.758,-4.818 -1.758,-7.921c-0,-2.559 0.53,-4.981 1.591,-7.267c1.06,-2.287 2.651,-4.287 4.772,-6.002c2.12,-1.715 4.772,-3.062 7.953,-4.042c3.181,-0.98 6.921,-1.47 11.218,-1.47c5.637,0 10.647,0.966 15.028,2.899c4.381,1.932 8.051,4.695 11.009,8.288l-11.135,8.329c-1.618,-2.178 -3.725,-3.906 -6.32,-5.185c-2.596,-1.28 -5.456,-1.919 -8.582,-1.919c-3.516,-0 -6.195,0.571 -8.037,1.715c-1.842,1.143 -2.762,2.531 -2.762,4.164c-0,1.633 0.767,2.994 2.302,4.083c1.535,1.089 4.088,2.041 7.66,2.858l8.288,1.96c7.144,1.687 12.237,4.205 15.279,7.553c3.042,3.348 4.563,7.58 4.563,12.697Z" style="fill-rule:nonzero;"/></g><g><rect x="343.583" y="330.709" width="68.976" height="94.488" style="fill:#fff;"/><path d="M405.405,382.875c0,2.613 -0.516,5.063 -1.549,7.35c-1.032,2.286 -2.623,4.273 -4.772,5.96c-2.148,1.688 -4.869,3.008 -8.162,3.961c-3.293,0.952 -7.2,1.429 -11.721,1.429c-2.679,-0 -5.358,-0.313 -8.037,-0.939c-2.679,-0.626 -5.246,-1.511 -7.702,-2.654c-2.456,-1.143 -4.772,-2.531 -6.949,-4.165c-2.177,-1.633 -4.102,-3.484 -5.777,-5.552l10.717,-8.411c2.065,2.831 4.716,5.049 7.953,6.655c3.237,1.606 6.53,2.463 9.879,2.572c3.851,0.164 6.711,-0.326 8.581,-1.469c1.87,-1.144 2.805,-2.722 2.805,-4.737c-0,-2.231 -0.851,-3.905 -2.554,-5.021c-1.702,-1.116 -3.865,-1.974 -6.488,-2.573l-9.46,-2.041c-2.345,-0.544 -4.675,-1.252 -6.991,-2.123c-2.316,-0.871 -4.409,-2.041 -6.279,-3.511c-1.87,-1.47 -3.391,-3.294 -4.563,-5.471c-1.172,-2.178 -1.758,-4.818 -1.758,-7.921c0,-2.559 0.53,-4.981 1.591,-7.267c1.06,-2.287 2.651,-4.287 4.772,-6.002c2.121,-1.715 4.772,-3.062 7.953,-4.042c3.182,-0.98 6.921,-1.47 11.219,-1.47c5.637,0 10.646,0.966 15.027,2.899c4.382,1.932 8.051,4.695 11.01,8.288l-11.135,8.329c-1.619,-2.178 -3.726,-3.906 -6.321,-5.185c-2.595,-1.28 -5.456,-1.919 -8.581,-1.919c-3.516,-0 -6.196,0.571 -8.037,1.715c-1.842,1.143 -2.763,2.531 -2.763,4.164c-0,1.633 0.767,2.994 2.302,4.083c1.535,1.089 4.088,2.041 7.661,2.858l8.288,1.96c7.144,1.687 12.237,4.205 15.279,7.553c3.041,3.348 4.562,7.58 4.562,12.697Z" style="fill-rule:nonzero;"/></g><g><rect x="130.039" y="330.709" width="69.921" height="94.488" style="fill:#fff;"/><path d="M195.236,401.575l-16.779,-0l-14.867,-24.507l-8.955,0l0,24.507l-15.127,-0l-0,-66.142l27.908,0c3.941,0 7.375,0.551 10.302,1.654c2.927,1.102 5.347,2.6 7.259,4.494c1.913,1.894 3.348,4.141 4.304,6.741c0.956,2.601 1.434,5.427 1.434,8.48c0,2.657 -0.362,5.003 -1.086,7.038c-0.725,2.035 -1.652,3.774 -2.782,5.215c-1.131,1.442 -2.377,2.643 -3.739,3.604c-1.362,0.961 -2.709,1.724 -4.043,2.29l16.171,26.626Zm-19.3,-45.282c-0,-2.431 -0.783,-4.367 -2.348,-5.808c-1.565,-1.442 -3.651,-2.163 -6.259,-2.163l-12.694,0l0,15.857l12.694,0.085c2.608,0 4.694,-0.735 6.259,-2.205c1.565,-1.469 2.348,-3.392 2.348,-5.766Z" style="fill-rule:nonzero;"/></g><g><rect x="199.961" y="330.709" width="74.646" height="94.488" style="fill:#fff;"/><path d="M268.681,368.708c0,4.676 -0.669,9.025 -2.006,13.049c-1.338,4.023 -3.317,7.503 -5.937,10.439c-2.62,2.936 -5.895,5.233 -9.825,6.891c-3.93,1.659 -8.487,2.488 -13.671,2.488c-5.185,-0 -9.728,-0.843 -13.63,-2.528c-3.902,-1.686 -7.163,-3.997 -9.783,-6.933c-2.62,-2.936 -4.599,-6.415 -5.937,-10.439c-1.338,-4.023 -2.006,-8.373 -2.006,-13.049c-0,-4.784 0.641,-9.202 1.923,-13.253c1.282,-4.05 3.219,-7.557 5.811,-10.52c2.592,-2.963 5.853,-5.274 9.783,-6.932c3.93,-1.659 8.543,-2.488 13.839,-2.488c5.24,0 9.825,0.843 13.755,2.528c3.93,1.686 7.204,4.01 9.824,6.973c2.62,2.964 4.585,6.484 5.895,10.562c1.31,4.078 1.965,8.482 1.965,13.212Zm-14.549,-0c0,-2.827 -0.292,-5.505 -0.878,-8.033c-0.585,-2.529 -1.547,-4.744 -2.885,-6.647c-1.337,-1.903 -3.079,-3.398 -5.226,-4.486c-2.146,-1.087 -4.752,-1.631 -7.818,-1.631c-3.066,0 -5.672,0.557 -7.818,1.672c-2.146,1.115 -3.888,2.61 -5.226,4.486c-1.338,1.875 -2.313,4.077 -2.926,6.606c-0.614,2.528 -0.92,5.206 -0.92,8.033c-0,2.99 0.292,5.736 0.878,8.237c0.585,2.501 1.547,4.662 2.885,6.484c1.337,1.821 3.079,3.235 5.226,4.241c2.146,1.005 4.78,1.508 7.901,1.508c3.178,0 5.839,-0.503 7.986,-1.508c2.146,-1.006 3.874,-2.42 5.184,-4.241c1.31,-1.822 2.244,-3.983 2.801,-6.484c0.557,-2.501 0.836,-5.247 0.836,-8.237Z" style="fill-rule:nonzero;"/></g><g><rect x="447.047" y="330.709" width="79.37" height="94.488" style="fill:#fff;"/><path d="M516.553,401.575l-14.492,-0l-31.239,-43.332l0,43.332l-13.91,-0l0,-66.142l14.519,0l31.211,43.416l0,-43.416l13.911,0l-0,66.142Z" style="fill-rule:nonzero;"/></g><g><rect x="412.559" y="330.709" width="34.488" height="94.488" style="fill:#fff;"/><rect x="422.92" y="335.929" width="13.767" height="66.142" style="fill-rule:nonzero;"/></g><g><rect x="526.417" y="330.709" width="73.701" height="94.488" style="fill:#fff;"/><path d="M592.587,401.498l-12.744,0l-0,-4.239c-1.61,1.607 -3.804,2.937 -6.58,3.99c-2.777,1.053 -5.609,1.579 -8.496,1.579c-5.331,-0 -9.94,-0.97 -13.827,-2.909c-3.887,-1.939 -7.079,-4.474 -9.578,-7.605c-2.499,-3.131 -4.359,-6.677 -5.581,-10.639c-1.221,-3.962 -1.832,-7.993 -1.832,-12.093c-0,-4.266 0.597,-8.436 1.791,-12.509c1.193,-4.072 3.04,-7.715 5.539,-10.929c2.498,-3.214 5.677,-5.791 9.536,-7.73c3.86,-1.939 8.455,-2.909 13.785,-2.909c6.664,0 12.314,1.455 16.95,4.364c4.637,2.909 8.205,6.829 10.703,11.76l-12.16,5.901c-1.222,-2.881 -3.096,-5.153 -5.622,-6.815c-2.527,-1.662 -5.484,-2.493 -8.871,-2.493c-3.054,-0 -5.664,0.581 -7.83,1.745c-2.165,1.164 -3.942,2.729 -5.33,4.696c-1.389,1.967 -2.402,4.253 -3.04,6.857c-0.639,2.604 -0.958,5.319 -0.958,8.145c-0,2.771 0.305,5.403 0.916,7.896c0.611,2.494 1.61,4.682 2.998,6.566c1.389,1.884 3.166,3.366 5.331,4.447c2.166,1.08 4.803,1.621 7.913,1.621c4.72,-0 8.246,-1.192 10.578,-3.574c2.332,-2.383 3.526,-5.514 3.582,-9.392l-0,-1.663l-16.992,0l-0,-11.553l29.819,0l-0,37.485Z" style="fill-rule:nonzero;"/></g></g></g></g></svg>