<?xml version="1.0" encoding="UTF-8" standalone="no"?><!DOCTYPE svg PUBLIC "-//W3C//DTD SVG 1.1//EN" "http://www.w3.org/Graphics/SVG/1.1/DTD/svg11.dtd"><svg width="100%" height="100%" viewBox="0 0 233 473" version="1.1" xmlns="http://www.w3.org/2000/svg" xmlns:xlink="http://www.w3.org/1999/xlink" xml:space="preserve" xmlns:serif="http://www.serif.com/" style="fill-rule:evenodd;clip-rule:evenodd;stroke-linejoin:round;stroke-miterlimit:2;"><g transform="matrix(50,0,0,50,189.682,235.586)"></g><text x="43.759px" y="235.586px" style="font-family:'ArialMT', 'Arial', sans-serif;font-size:50px;">sw=40</text><rect id="Phone" x="-0" y="0" width="232.586" height="472.441" style="fill:none;"/><clipPath id="_clip1"><rect id="Phone1" serif:id="Phone" x="-0" y="0" width="232.586" height="472.441"/></clipPath><g clip-path="url(#_clip1)"><rect x="0.154" y="0" width="232.586" height="472.441" style="fill:#ffd200;"/><clipPath id="_clip2"><rect id="S41-Telephone.afdesign" serif:id="S41 Telephone.afdesign" x="32.861" y="16.354" width="159.903" height="439.733"/></clipPath><g clip-path="url(#_clip2)"><rect id="Phone-B" serif:id="Phone B" x="32.861" y="16.354" width="159.903" height="439.733" style="fill:none;"/><clipPath id="_clip3"><rect x="32.861" y="16.354" width="159.903" height="439.733"/></clipPath><g clip-path="url(#_clip3)"><path d="M114.612,117.443l-18.997,10.617l-1.694,0.773l-1.768,0.537l-1.848,0.31l-1.846,-0l-1.845,-0.155l-1.835,-0.556l-1.683,-0.707l-1.643,-0.948l-1.393,-1.14l-1.293,-1.334l-1.076,-1.535l-0.847,-1.693l-0.612,-1.77l-22.13,-82.383l-0.384,-1.845l-0.076,-1.925l0.154,-1.846l0.463,-1.847l0.693,-1.767l0.901,-1.709l1.228,-1.459l1.385,-1.308l1.539,-1.155l1.693,-0.849l1.769,-0.615l1.844,-0.385l33.149,-4.009l4,-0.386l3.998,0l3.999,0.231l3.925,0.612l3.922,0.845l3.844,1.155l3.695,1.376l3.625,1.674l3.46,1.997l3.302,2.242l3.139,2.483l2.919,2.694l2.768,2.923l2.539,3.075l2.229,3.309l4.15,6.845l3.844,7.075l3.537,7.155l3.229,7.383l2.919,7.385l2.691,7.614l2.305,7.694l3.303,11.846l2.997,11.997l2.766,12.077l2.458,12.08l2.074,12.153l1.842,12.232l1.534,12.231l1.305,12.308l0.92,12.308l0.688,12.385l0.307,12.306l0.071,12.387l-0.234,12.309l-0.54,12.385l-0.849,12.307l-1.156,12.31l-1.466,12.232l-1.695,12.231l-2.081,12.234l-2.309,12.078l-2.618,12.078l-2.927,12.002l-3.154,12.001l-2.232,7.538l-2.539,7.385l-2.85,7.387l-3.077,7.155l-3.384,7.155l-3.696,6.924l-3.914,6.778l-4.233,6.693l-2.459,3.386l-2.695,3.229l-2.922,3.001l-3.155,2.77l-3.309,2.619l-3.461,2.309l-3.691,2.154l-3.77,1.849l-3.844,1.537l-4,1.309l-4.076,1l-4.155,0.695l-4.154,0.464l-4.229,0.152l-4.23,-0.15l-4.152,-0.462l-4.154,-0.769l-4.075,-0.998l-3.923,-1.383l-3.934,-1.516l-26.991,-12.149l-1.817,-1.049l-1.69,-1.311l-1.531,-1.472l-1.231,-1.692l-1.075,-1.846l-0.768,-2.002l-0.462,-2.075l-0.152,-2.078l0.077,-2.154l0.461,-2.077l-3.692,-3.306l-0.761,-0.859l-0.546,-0.987l-0.306,-1.078l-0.077,-1.153l0.228,-1.078l0.461,-1.076l33.237,-57.71l0.615,-0.92l0.845,-0.692l0.999,-0.54l1.079,-0.308l1.064,-0.057l1.09,0.208l4.92,1.541l1.539,-1.387l1.769,-1.154l1.923,-0.924l2.077,-0.615l2.077,-0.387l2.076,0.002l2.154,0.228l1.985,0.641l2.01,0.825l1.793,1.035l21.914,15.692l3.848,-4.542l3.535,-4.77l3.31,-4.927l2.9,-5.168l2.771,-5.308l2.387,-5.383l2.079,-5.541l1.77,-5.694l1.54,-5.693l1.155,-5.846l0.77,-5.924l0.541,-5.848l0.155,-6l0.037,-145.699l-3.916,-20.54l-0.462,-1.845l-0.693,-1.692l-0.997,-1.618l-1.153,-1.462l-1.387,-1.304l-1.546,-1.06l-1.687,-0.854l-1.775,-0.605l-1.844,-0.309l-7.73,-0.92l-7.712,-0.85Z"/></g></g></g></svg>