<?xml version="1.0" encoding="UTF-8" standalone="no"?><!DOCTYPE svg PUBLIC "-//W3C//DTD SVG 1.1//EN" "http://www.w3.org/Graphics/SVG/1.1/DTD/svg11.dtd"><svg width="100%" height="100%" viewBox="0 0 328 532" version="1.1" xmlns="http://www.w3.org/2000/svg" xmlns:xlink="http://www.w3.org/1999/xlink" xml:space="preserve" xmlns:serif="http://www.serif.com/" style="fill-rule:evenodd;clip-rule:evenodd;stroke-linejoin:round;stroke-miterlimit:2;"><g transform="matrix(50,0,0,50,236.731,283.338)"></g><text x="90.808px" y="283.338px" style="font-family:'ArialMT', 'Arial', sans-serif;font-size:50px;">sw=45</text><rect id="L" x="0" y="0" width="327.075" height="531.496" style="fill:none;"/><clipPath id="_clip1"><rect id="L1" serif:id="L" x="0" y="0" width="327.075" height="531.496"/></clipPath><g clip-path="url(#_clip1)"><g><path d="M327.075,40.884c-0,-22.564 -18.32,-40.884 -40.885,-40.884l-245.306,0c-22.564,0 -40.884,18.32 -40.884,40.884l0,449.728c0,22.564 18.32,40.884 40.884,40.884l245.306,0c22.565,0 40.885,-18.32 40.885,-40.884l-0,-449.728Z"/><path d="M306.632,40.884c0,-11.282 -9.159,-20.442 -20.442,-20.442l-245.306,0c-11.282,0 -20.442,9.16 -20.442,20.442l0,449.728c0,11.282 9.16,20.442 20.442,20.442l245.306,-0c11.283,-0 20.442,-9.16 20.442,-20.442l0,-449.728Z" style="fill:#ffd200;"/><path id="S0x1-16sw-Arrow-90--B" serif:id="S0x1 16sw Arrow 90° B" d="M61.326,477.324l0,-102.21l204.422,-0l0,102.21l-204.422,0Z" style="fill:none;"/><path d="M129.467,409.184l34.07,-34.07l-51.105,-0l-51.106,51.105l51.106,51.105l51.105,0l-34.07,-34.07l136.281,0l0,-34.07l-136.281,-0Z"/><rect id="Phone-60-B" serif:id="Phone 60 B" x="63.371" y="55.194" width="200.333" height="286.19" style="fill:none;"/><clipPath id="_clip2"><rect x="63.371" y="55.194" width="200.333" height="286.19"/></clipPath><g clip-path="url(#_clip2)"><path d="M131.937,119.151l-7.93,13.303l-0.769,1.079l-0.899,0.96l-1.028,0.849l-1.138,0.656l-1.192,0.562l-1.329,0.31l-1.289,0.163l-1.35,0l-1.263,-0.206l-1.272,-0.363l-1.21,-0.563l-1.124,-0.742l-1.007,-0.873l-42.953,-42.9l-0.893,-1.001l-0.732,-1.159l-0.562,-1.192l-0.372,-1.304l-0.202,-1.335l-0.052,-1.374l0.238,-1.336l0.387,-1.299l0.538,-1.26l0.741,-1.125l0.872,-1.009l0.999,-0.893l19.003,-14.266l2.327,-1.661l2.465,-1.423l2.546,-1.281l2.637,-1.018l2.718,-0.875l2.78,-0.657l2.766,-0.466l2.83,-0.258l2.843,-0l2.833,0.206l2.818,0.414l2.758,0.622l2.746,0.817l2.659,0.991l2.551,1.247l4.993,2.741l4.887,2.993l4.725,3.151l4.617,3.402l4.427,3.513l4.368,3.735l4.158,3.922l6.251,6.126l6.116,6.327l6.002,6.46l5.813,6.57l5.603,6.752l5.488,6.884l5.298,6.992l5.183,7.121l4.947,7.258l4.831,7.389l4.568,7.475l4.451,7.609l4.236,7.67l4.074,7.825l3.856,7.887l3.668,7.998l3.449,8.061l3.308,8.141l3.071,8.281l2.874,8.265l2.685,8.375l2.467,8.439l2.326,8.519l1.307,5.44l1.063,5.455l0.872,5.567l0.649,5.505l0.461,5.613l0.186,5.582l-0,5.571l-0.228,5.631l-0.31,2.961l-0.512,2.95l-0.733,2.889l-0.959,2.83l-1.107,2.792l-1.311,2.654l-1.509,2.641l-1.665,2.481l-1.823,2.315l-1.999,2.23l-2.156,2.067l-2.313,1.906l-2.395,1.764l-2.552,1.599l-2.661,1.412l-2.723,1.193l-2.833,1.004l-2.867,0.835l-2.909,0.544l-2.965,0.465l-20.957,2.116l-1.493,0l-1.508,-0.207l-1.468,-0.362l-1.36,-0.605l-1.32,-0.755l-1.185,-0.961l-1.023,-1.114l-0.834,-1.227l-0.718,-1.355l-0.455,-1.444l-3.452,-0.724l-0.774,-0.259l-0.688,-0.414l-0.573,-0.555l-0.457,-0.684l-0.243,-0.745l-0.099,-0.827l-0.052,-47.394l0.052,-0.786l0.274,-0.727l0.424,-0.689l0.555,-0.573l0.636,-0.414l0.746,-0.259l3.58,-0.802l0.455,-1.402l0.68,-1.34l0.856,-1.255l1.061,-1.117l1.143,-0.978l1.28,-0.737l1.408,-0.626l1.452,-0.311l1.532,-0.207l1.473,0l19.089,1.873l0.756,-4.168l0.481,-4.197l0.286,-4.215l-0.051,-4.217l-0.181,-4.258l-0.445,-4.166l-0.69,-4.155l-0.935,-4.139l-1.077,-4.057l-1.369,-4.014l-1.632,-3.925l-1.748,-3.797l-2.04,-3.753l-51.822,-89.81l-9.722,-11.266l-0.941,-0.973l-1.029,-0.796l-1.19,-0.642l-1.231,-0.492l-1.319,-0.31l-1.33,-0.103l-1.343,0.075l-1.309,0.258l-1.247,0.466l-5.091,2.183l-5.055,2.22Z"/></g></g></g></svg>