<?xml version="1.0" encoding="UTF-8" standalone="no"?><!DOCTYPE svg PUBLIC "-//W3C//DTD SVG 1.1//EN" "http://www.w3.org/Graphics/SVG/1.1/DTD/svg11.dtd"><svg width="100%" height="100%" viewBox="0 0 514 454" version="1.1" xmlns="http://www.w3.org/2000/svg" xmlns:xlink="http://www.w3.org/1999/xlink" xml:space="preserve" xmlns:serif="http://www.serif.com/" style="fill-rule:evenodd;clip-rule:evenodd;stroke-linejoin:round;stroke-miterlimit:2;"><g transform="matrix(50,0,0,50,350.88,262.709)"></g><text x="163.258px" y="262.709px" style="font-family:'ArialMT', 'Arial', sans-serif;font-size:50px;">sw=38.4</text><g id="_589-Risk-of-Grounding" serif:id="589 Risk of Grounding"><path d="M227.178,17.004c6.076,-10.522 17.302,-17.004 29.452,-17.004c12.149,0 23.376,6.482 29.452,17.004c54.065,93.625 168.545,291.872 222.619,385.514c6.077,10.524 6.079,23.491 0.003,34.016c-6.075,10.525 -17.303,17.009 -29.455,17.009l-445.238,0c-12.152,0 -23.38,-6.484 -29.455,-17.009c-6.076,-10.525 -6.074,-23.492 0.003,-34.016c54.074,-93.642 168.554,-291.889 222.619,-385.514Z" style="fill:#e31837;"/><path d="M256.665,56.708l202.961,351.496l-405.922,-0l202.961,-351.496Z" style="fill:#fff;"/><path d="M286.483,327.991l2.358,0.355l2.67,0.512l2.634,0.659l2.56,0.804l2.561,0.951l2.487,1.061l2.414,1.207l2.377,1.317l37.454,22.494l2.707,1.536l2.779,1.427l2.853,1.243l2.926,1.134l2.963,0.988l2.999,0.841l3.036,0.658l3.073,0.549l3.109,0.366l3.108,0.256l3.11,0.073l28.163,-0l0,26.664l-290.304,-0l-0,-26.664l68.324,-0l3.036,-0.073l3.035,-0.22l3,-0.365l2.999,-0.513l2.963,-0.658l2.962,-0.768l2.89,-0.951l2.816,-1.061l2.816,-1.207l2.707,-1.316l2.67,-1.463l40.124,-23.336l2.378,-1.28l2.45,-1.171l2.524,-1.06l2.56,-0.878l2.597,-0.768l2.634,-0.622l2.67,-0.512l2.67,-0.329l2.706,-0.183l2.707,-0.073l2.707,0.109l2.654,0.216l0.364,0.051Zm-87.546,9.646l-0.073,-1.537l-0.219,-1.536l-0.329,-1.536l-0.476,-1.463l-0.585,-1.427l-0.695,-1.389l-0.841,-1.317l-0.951,-1.207l-1.061,-1.134l-1.134,-1.061l-1.207,-0.951l-1.317,-0.841l-1.39,-0.695l-1.426,-0.585l-1.463,-0.476l-1.536,-0.329l-1.536,-0.219l-1.537,-0.073l-1.572,0.073l-1.537,0.219l-1.499,0.329l-1.463,0.476l-1.463,0.585l-1.354,0.695l-1.316,0.841l-1.244,0.951l-1.134,1.061l-1.024,1.134l-0.951,1.207l-0.841,1.317l-0.732,1.389l-0.585,1.427l-0.475,1.463l-0.33,1.536l-0.182,1.536l-0.074,1.537l0.074,1.536l0.182,1.536l0.33,1.536l0.475,1.463l0.585,1.427l0.732,1.39l0.841,1.316l0.951,1.207l1.024,1.171l1.134,1.024l1.244,0.951l1.316,0.841l1.354,0.695l1.463,0.622l1.463,0.439l1.499,0.366l1.537,0.182l1.572,0.073l1.537,-0.073l1.536,-0.182l1.536,-0.366l1.463,-0.439l1.426,-0.622l1.39,-0.695l1.317,-0.841l1.207,-0.951l1.134,-1.024l1.061,-1.171l0.951,-1.207l0.841,-1.316l0.695,-1.39l0.585,-1.427l0.476,-1.463l0.329,-1.536l0.219,-1.536l0.073,-1.536Zm185.477,-0.11l-0.073,-1.536l-0.219,-1.537l-0.329,-1.499l-0.476,-1.5l-0.585,-1.426l-0.695,-1.39l-0.841,-1.28l-0.952,-1.244l-1.06,-1.134l-1.134,-1.06l-1.243,-0.951l-1.281,-0.805l-1.389,-0.732l-1.427,-0.585l-1.463,-0.475l-1.536,-0.33l-1.536,-0.219l-1.536,-0.037l-1.573,0.037l-1.537,0.219l-1.499,0.33l-1.463,0.475l-1.463,0.585l-1.353,0.732l-1.317,0.805l-1.244,0.951l-1.134,1.06l-1.06,1.134l-0.915,1.244l-0.841,1.28l-0.731,1.39l-0.586,1.426l-0.475,1.5l-0.329,1.499l-0.184,1.537l-0.073,1.536l0.073,1.573l0.184,1.536l0.329,1.499l0.475,1.5l0.586,1.427l0.731,1.353l0.841,1.317l0.915,1.243l1.06,1.134l1.134,1.061l1.244,0.914l1.317,0.841l1.353,0.732l1.463,0.585l1.463,0.476l1.499,0.329l1.537,0.183l1.573,0.073l1.536,-0.073l1.536,-0.183l1.536,-0.329l1.463,-0.476l1.427,-0.585l1.389,-0.732l1.281,-0.841l1.243,-0.914l1.134,-1.061l1.06,-1.134l0.952,-1.243l0.841,-1.317l0.695,-1.353l0.585,-1.427l0.476,-1.5l0.329,-1.499l0.219,-1.536l0.073,-1.573Zm-39.757,-1.353l-85.552,-12.034l-14.301,-31.273l-5.706,-0.768l5.889,5.743l-4.389,2.56l-1.134,-1.353l-1.207,-1.28l-1.317,-1.134l-1.39,-1.061l-1.499,-0.914l-1.573,-0.805l-1.61,-0.658l-1.682,-0.512l-1.719,-0.403l-1.719,-0.256l-1.756,-0.073l-1.756,0.037l-1.755,0.182l-1.719,0.33l-1.683,0.475l-1.646,0.622l-1.572,0.768l-1.537,0.878l-1.426,0.987l-1.353,1.098l-1.244,1.243l-1.17,1.317l-1.025,1.426l-0.914,1.5l-0.805,1.536l-0.658,1.646l-0.512,1.683l-0.366,1.682l-0.256,1.756l-0.073,1.756l0.037,1.755l0.219,1.719l0.329,1.719l0.476,1.683l0.622,1.646l-6.145,3.548l-1.098,-1.354l-1.207,-1.28l-1.316,-1.134l-1.427,-1.06l-1.499,-0.915l-1.537,-0.804l-1.645,-0.659l-1.646,-0.512l-1.719,-0.402l-1.756,-0.256l-1.719,-0.073l-1.756,0.036l-1.755,0.183l-1.72,0.329l-1.682,0.476l-1.646,0.622l-1.573,0.768l-1.536,0.878l-1.426,0.987l-1.354,1.097l-1.28,1.244l-1.134,1.317l-1.024,1.426l-0.951,1.5l-0.768,1.536l-0.658,1.646l-0.512,1.682l-0.403,1.683l-0.219,1.756l-0.11,1.755l0.073,1.756l0.183,1.719l0.366,1.719l0.475,1.683l0.622,1.645l-5.267,3.036l-13.094,-22.64l-0.439,-0.915l-0.366,-0.951l-0.219,-0.987l-0.11,-0.988l0.036,-1.024l3.109,-42.172l0.147,-1.28l0.292,-1.244l0.439,-1.207l0.549,-1.17l0.695,-1.061l0.804,-1.024l0.878,-0.915l0.988,-0.804l1.097,-0.695l19.495,-11.266l0.841,-0.402l0.951,-0.293l0.951,-0.183l0.951,0l0.951,0.11l0.951,0.256l0.878,0.366l0.841,0.512l0.732,0.622l0.658,0.695l0.549,0.804l18.617,32.26l10.717,-6.217l2.304,-16.752l45.684,6.218l7.608,18.434l5.998,-42.757l0.183,-0.769l0.293,-0.731l0.402,-0.695l0.512,-0.622l0.585,-0.549l0.659,-0.402l0.731,-0.329l0.768,-0.183l0.805,-0.073l0.805,0.037l63.679,8.961l0.804,0.146l0.732,0.293l0.694,0.402l0.586,0.512l0.549,0.622l0.438,0.658l0.292,0.732l0.22,0.768l0.074,0.804l-0.074,0.769l-7.278,51.974l5.888,0.841l1.5,-1.499l1.61,-1.39l1.681,-1.28l1.793,-1.171l1.828,-1.06l1.902,-0.915l1.976,-0.804l2.012,-0.659l2.085,-0.548l2.084,-0.403l2.085,-0.219l2.122,-0.147l2.121,0.037l2.121,0.183l2.122,0.292l2.084,0.439l2.048,0.586l1.976,0.695l1.975,0.877l1.866,0.951l1.829,1.098l1.755,1.207l1.645,1.316l1.573,1.427l1.464,1.536l1.389,1.646l1.244,1.719l1.134,1.792l1.024,1.829l0.915,1.939l0.768,1.975l0.622,2.048l0.511,2.048l0.366,2.085l0.22,2.121l0.073,2.122l-0.073,2.121l-0.183,2.122l-0.33,2.085l-10.095,-1.39l0.33,-1.719l0.146,-1.719l0.037,-1.719l-0.073,-1.72l-0.256,-1.719l-0.366,-1.682l-0.513,-1.646l-0.621,-1.609l-0.731,-1.537l-0.878,-1.499l-0.988,-1.427l-1.097,-1.316l-1.207,-1.281l-1.28,-1.133l-1.354,-1.061l-1.462,-0.915l-1.537,-0.804l-1.573,-0.695l-1.609,-0.585l-1.682,-0.439l-1.719,-0.293l-1.683,-0.183l-1.756,-0.036l-1.719,0.109l-1.719,0.22l-1.682,0.366l-1.646,0.512l-1.61,0.621l-1.536,0.732l-1.499,0.878l-1.427,0.987l-1.353,1.098l-1.244,1.17l-1.134,1.28l-1.06,1.39l-0.915,1.463l-0.841,1.5l-0.695,1.572l-0.548,1.646l-0.44,1.646l-0.328,1.719l-0.183,1.72Zm-163.496,-4.463c-3.27,0 -5.925,2.655 -5.925,5.926c0,3.27 2.655,5.925 5.925,5.925c3.271,-0 5.926,-2.655 5.926,-5.925c-0,-3.271 -2.655,-5.926 -5.926,-5.926Zm191.402,5.816l-0.073,-0.915l-0.219,-0.914l-0.365,-0.841l-0.476,-0.805l-0.622,-0.695l-0.695,-0.622l-0.804,-0.475l-0.841,-0.366l-0.915,-0.219l-0.914,-0.073l-0.951,0.073l-0.878,0.219l-0.878,0.366l-0.768,0.475l-0.732,0.622l-0.585,0.695l-0.512,0.805l-0.329,0.841l-0.22,0.914l-0.073,0.915l0.073,0.951l0.22,0.878l0.329,0.877l0.512,0.805l0.585,0.695l0.732,0.585l0.768,0.512l0.878,0.33l0.878,0.219l0.951,0.073l0.914,-0.073l0.915,-0.219l0.841,-0.33l0.804,-0.512l0.695,-0.585l0.622,-0.695l0.476,-0.805l0.365,-0.877l0.219,-0.878l0.073,-0.951Zm-131.124,-24.433l-0.073,-1.536l-0.183,-1.536l-0.366,-1.537l-0.439,-1.463l-0.585,-1.426l-0.732,-1.39l-0.841,-1.317l-0.951,-1.207l-1.024,-1.134l-1.17,-1.06l-1.207,-0.951l-1.317,-0.842l-1.39,-0.694l-1.427,-0.586l-1.463,-0.475l-1.536,-0.329l-1.536,-0.22l-1.536,-0.073l-1.536,0.073l-1.537,0.22l-1.536,0.329l-1.463,0.475l-1.426,0.586l-1.39,0.694l-1.317,0.842l-1.207,0.951l-1.17,1.06l-1.025,1.134l-0.95,1.207l-0.842,1.317l-0.695,1.39l-0.621,1.426l-0.439,1.463l-0.33,1.537l-0.219,1.536l-0.073,1.536l0.073,1.536l0.219,1.573l0.33,1.5l0.439,1.463l0.621,1.426l0.695,1.39l0.842,1.317l0.95,1.207l1.025,1.17l1.17,1.024l1.207,0.951l1.317,0.842l1.39,0.731l1.426,0.585l1.463,0.439l1.536,0.366l1.537,0.183l1.536,0.073l1.536,-0.073l1.536,-0.183l1.536,-0.366l1.463,-0.439l1.427,-0.585l1.39,-0.731l1.317,-0.842l1.207,-0.951l1.17,-1.024l1.024,-1.17l0.951,-1.207l0.841,-1.317l0.732,-1.39l0.585,-1.426l0.439,-1.463l0.366,-1.5l0.183,-1.573l0.073,-1.536Zm-11.851,0l-0.073,-0.914l-0.219,-0.915l-0.366,-0.841l-0.476,-0.805l-0.585,-0.695l-0.731,-0.621l-0.769,-0.476l-0.877,-0.366l-0.915,-0.219l-0.914,-0.073l-0.915,0.073l-0.914,0.219l-0.841,0.366l-0.805,0.476l-0.695,0.621l-0.622,0.695l-0.475,0.805l-0.366,0.841l-0.219,0.915l-0.073,0.914l0.073,0.914l0.219,0.915l0.366,0.878l0.475,0.768l0.622,0.731l0.695,0.585l0.805,0.476l0.841,0.366l0.914,0.219l0.915,0.073l0.914,-0.073l0.915,-0.219l0.877,-0.366l0.769,-0.476l0.731,-0.585l0.585,-0.731l0.476,-0.768l0.366,-0.878l0.219,-0.915l0.073,-0.914Zm-74.359,-29.883l-2.085,28.603l31.785,-18.398l-11.814,-20.519l-17.886,10.314Z"/></g></svg>