<?xml version="1.0" encoding="UTF-8" standalone="no"?><!DOCTYPE svg PUBLIC "-//W3C//DTD SVG 1.1//EN" "http://www.w3.org/Graphics/SVG/1.1/DTD/svg11.dtd"><svg width="100%" height="100%" viewBox="0 0 794 567" version="1.1" xmlns="http://www.w3.org/2000/svg" xmlns:xlink="http://www.w3.org/1999/xlink" xml:space="preserve" xmlns:serif="http://www.serif.com/" style="fill-rule:evenodd;clip-rule:evenodd;stroke-linejoin:round;stroke-miterlimit:2;"><g transform="matrix(50,0,0,50,470.141,301.128)"></g><text x="324.219px" y="301.128px" style="font-family:'ArialMT', 'Arial', sans-serif;font-size:50px;">sw=48</text><clipPath id="_clip1"><rect x="0" y="0" width="793.701" height="566.929"/></clipPath><g clip-path="url(#_clip1)"><path d="M793.701,37.795c-0,-20.86 -16.936,-37.795 -37.795,-37.795l-718.111,0c-20.86,0 -37.795,16.935 -37.795,37.795l-0,491.339c-0,20.86 16.935,37.795 37.795,37.795l718.111,0c20.859,0 37.795,-16.935 37.795,-37.795l-0,-491.339Z" style="fill:#fff;"/><path d="M793.701,37.795l-0,491.339c-0,20.86 -16.936,37.795 -37.795,37.795l-718.111,0c-20.86,0 -37.795,-16.935 -37.795,-37.795l-0,-491.339c-0,-20.86 16.935,-37.795 37.795,-37.795l718.111,-0c20.859,-0 37.795,16.935 37.795,37.795Zm-1.512,0c-0,-20.025 -16.258,-36.283 -36.283,-36.283l-718.111,-0c-20.025,-0 -36.283,16.258 -36.283,36.283l-0,491.339c-0,20.025 16.258,36.283 36.283,36.283l718.111,0c20.025,0 36.283,-16.258 36.283,-36.283l-0,-491.339Z" style="fill:#e31837;"/><path d="M774.826,37.795c-0,-10.43 -8.468,-18.897 -18.898,-18.897l-718.133,-0c-10.43,-0 -18.897,8.467 -18.897,18.897l-0,491.339c-0,10.43 8.467,18.897 18.897,18.897l718.133,0c10.43,0 18.898,-8.467 18.898,-18.897l-0,-491.339Z" style="fill:#e31837;"/><g><g><g><g><rect id="rect2555-7-3" x="424.933" y="56.693" width="87.324" height="94.488" style="fill:#e31837;"/><path id="path1050" d="M459.013,127.517l-12.582,0l-15.415,-66.075l11.665,0l10.582,45.661l10.499,-45.661l12.582,0l10.498,45.661l10.666,-45.661l11.582,0l-15.415,66.075l-12.582,0l-10.999,-49.077l-11.081,49.077Z" style="fill:#fff;fill-rule:nonzero;"/></g><g><rect id="rect2538-2" x="281.453" y="56.693" width="80.238" height="94.488" style="fill:#e31837;"/><path id="path1032" d="M304.784,127.6l-0,-47.911l32.162,47.911l12.582,0l0,-66.158l-11.332,-0l0,47.827l-32.079,-47.827l-12.665,-0l-0,66.158l11.332,0Z" style="fill:#fff;fill-rule:nonzero;"/></g><g><rect id="rect2429" x="361.691" y="56.693" width="63.242" height="94.488" style="fill:#e31837;"/><path id="path1098" d="M373.69,127.517l43.494,0l0,-10.082l-32.079,0l0,-18.247l27.663,-0l0,-10.082l-27.663,-0l0,-17.665l30.163,0l-0,-9.999l-41.578,0l-0,66.075Z" style="fill:#fff;fill-rule:nonzero;"/></g></g><g><g><rect id="rect24291" serif:id="rect2429" x="366.653" y="434.646" width="63.242" height="94.488" style="fill:#e31837;"/><path id="path10981" serif:id="path1098" d="M378.652,505.47l43.494,0l0,-10.082l-32.079,0l-0,-18.248l27.663,0l0,-10.082l-27.663,0l-0,-17.664l30.163,-0l-0,-9.999l-41.578,0l-0,66.075Z" style="fill:#fff;fill-rule:nonzero;"/></g><g><rect id="rect2429-0-8-6" x="290.163" y="434.646" width="76.49" height="94.488" style="fill:#e31837;"/><path id="path1002" d="M343.156,465.225l-29.58,0l0,-25.83l-11.332,0l0,66.159l11.332,-0l0,-30.247l29.58,0l0,30.247l11.332,-0l-0,-66.159l-11.332,0l0,25.83Z" style="fill:#fff;fill-rule:nonzero;"/></g><g><rect id="rect2410-8" x="495.052" y="434.646" width="73.657" height="94.488" style="fill:#e31837;"/><path id="path1104" d="M507.468,439.395l-0,66.075l27.747,-0c0,-0 1.894,-0.18 2.832,-0.334c0.924,-0.152 1.847,-0.332 2.75,-0.582c0.906,-0.251 1.8,-0.553 2.667,-0.917c0.858,-0.36 1.685,-0.795 2.498,-1.249c0.828,-0.463 1.644,-0.952 2.417,-1.502c0.756,-0.537 1.469,-1.136 2.166,-1.749c0.693,-0.61 1.381,-1.231 2,-1.916c0.756,-0.837 1.429,-1.748 2.083,-2.667c0.652,-0.916 1.275,-1.856 1.833,-2.832c0.555,-0.971 1.029,-1.987 1.501,-3c0.473,-1.015 0.945,-2.032 1.332,-3.082c0.392,-1.064 0.705,-2.156 0.999,-3.251c0.289,-1.073 0.557,-2.154 0.751,-3.249c0.196,-1.103 0.32,-2.218 0.417,-3.334c0.099,-1.135 0.167,-2.276 0.167,-3.415c-0.001,-1.113 -0.07,-2.225 -0.167,-3.333c-0.098,-1.115 -0.221,-2.231 -0.417,-3.334c-0.194,-1.094 -0.462,-2.175 -0.751,-3.248c-0.294,-1.095 -0.607,-2.187 -0.999,-3.251c-0.387,-1.05 -0.859,-2.067 -1.332,-3.082c-0.472,-1.014 -0.946,-2.029 -1.501,-3c-0.558,-0.977 -1.181,-1.916 -1.833,-2.832c-0.654,-0.919 -1.336,-1.822 -2.083,-2.667c-0.625,-0.706 -1.299,-1.369 -2,-2c-0.69,-0.62 -1.403,-1.221 -2.166,-1.749c-0.769,-0.531 -1.596,-0.973 -2.417,-1.418c-0.818,-0.444 -1.64,-0.889 -2.498,-1.249c-0.867,-0.364 -1.761,-0.667 -2.667,-0.918c-0.903,-0.249 -1.826,-0.429 -2.75,-0.581c-0.938,-0.155 -2.832,-0.334 -2.832,-0.334l-27.747,0Zm11.331,9.999l14.333,-0c-0,-0 1.562,0.11 2.331,0.25c0.762,0.139 1.518,0.33 2.25,0.584c0.717,0.249 1.407,0.571 2.083,0.915c0.688,0.351 1.366,0.728 2,1.168c0.648,0.45 1.254,0.962 1.833,1.499c0.562,0.521 1.109,1.065 1.584,1.666c0.473,0.598 0.878,1.25 1.249,1.916c0.509,0.912 0.929,1.872 1.333,2.834c0.402,0.957 0.78,1.925 1.084,2.917c0.31,1.011 0.541,2.046 0.751,3.082c0.206,1.021 0.387,2.049 0.498,3.084c0.11,1.023 0.166,2.053 0.167,3.082c0.001,1.057 -0.055,2.116 -0.167,3.167c-0.11,1.035 -0.289,2.063 -0.498,3.082c-0.208,1.01 -0.45,2.015 -0.751,3.001c-0.31,1.016 -0.671,2.019 -1.084,2.998c-0.396,0.939 -0.831,1.864 -1.333,2.75c-0.375,0.664 -0.783,1.313 -1.249,1.917c-0.48,0.623 -1.014,1.207 -1.584,1.749c-0.572,0.544 -1.185,1.049 -1.833,1.499c-0.634,0.441 -1.312,0.818 -2,1.168c-0.676,0.345 -1.362,0.68 -2.083,0.916c-0.73,0.238 -1.492,0.375 -2.25,0.5c-0.771,0.127 -2.331,0.25 -2.331,0.25l-14.333,0l-0,-45.994Z" style="fill:#fff;fill-rule:nonzero;"/></g><g><rect id="rect2367" x="225.005" y="434.646" width="65.157" height="94.488" style="fill:#e31837;"/><path id="path1092" d="M270.833,493.22l3.999,12.249l11.332,-0l-21.747,-66.075l-13.832,-0l-21.747,66.075l11.332,-0l4.082,-12.249l26.581,0Zm-3.167,-9.498l-20.331,-0l10.166,-30.913l10.165,30.913Z" style="fill:#fff;fill-rule:nonzero;"/></g><g><rect id="rect23671" serif:id="rect2367" x="429.895" y="434.646" width="65.157" height="94.488" style="fill:#e31837;"/><path id="path10921" serif:id="path1092" d="M475.722,493.22l4,12.249l11.332,-0l-21.748,-66.075l-13.831,-0l-21.747,66.075l11.331,-0l4.083,-12.249l26.58,0Zm-3.166,-9.498l-20.331,-0l10.166,-30.913l10.165,30.913Z" style="fill:#fff;fill-rule:nonzero;"/></g></g><g><g><rect id="rect2555-7-1" x="365.693" y="151.181" width="62.327" height="94.488" style="fill:#e31837;"/><path id="path1014" d="M389.773,222.006l-19.497,-66.075l11.332,-0l15.081,51.16l15.082,-51.16l11.415,-0l-19.581,66.075l-13.832,-0Z" style="fill:#fff;fill-rule:nonzero;"/></g><g><rect id="rect2429-0-8-6-0-2" x="250.957" y="151.181" width="51.494" height="94.488" style="fill:#e31837;"/><path id="path980" d="M263.039,222.09l37.162,-0l0,-10.083l-25.83,0l0,-56.076l-11.332,0l0,66.159Z" style="fill:#fff;fill-rule:nonzero;"/></g><g><rect id="rect2429-0-8-6-0-21" serif:id="rect2429-0-8-6-0-2" x="491.262" y="151.181" width="51.494" height="94.488" style="fill:#e31837;"/><path id="path9801" serif:id="path980" d="M503.344,222.09l37.162,-0l-0,-10.083l-25.83,0l-0,-56.076l-11.332,0l-0,66.159Z" style="fill:#fff;fill-rule:nonzero;"/></g><g><rect id="rect24292" serif:id="rect2429" x="302.451" y="151.181" width="63.242" height="94.488" style="fill:#e31837;"/><path id="path10982" serif:id="path1098" d="M314.45,222.006l43.494,-0l0,-10.082l-32.079,-0l-0,-18.248l27.663,-0l-0,-10.082l-27.663,-0l-0,-17.665l30.163,0l-0,-9.998l-41.578,-0l-0,66.075Z" style="fill:#fff;fill-rule:nonzero;"/></g><g><rect id="rect24293" serif:id="rect2429" x="428.02" y="151.181" width="63.242" height="94.488" style="fill:#e31837;"/><path id="path10983" serif:id="path1098" d="M440.018,222.006l43.495,-0l0,-10.082l-32.079,-0l-0,-18.248l27.663,-0l-0,-10.082l-27.663,-0l-0,-17.665l30.163,0l-0,-9.998l-41.579,-0l0,66.075Z" style="fill:#fff;fill-rule:nonzero;"/></g></g><g><g><rect id="rect2587-3-3" x="386.944" y="340.157" width="52.411" height="94.488" style="fill:#e31837;"/><path id="path968" d="M418.857,411.065l-0,-56.076l18.247,0l0,-10.082l-47.827,-0l-0,10.082l18.248,0l-0,56.076l11.332,0Z" style="fill:#fff;fill-rule:nonzero;"/></g><g><rect id="rect2587" x="439.355" y="340.157" width="67.492" height="94.488" style="fill:#e31837;"/><path id="path1074" d="M451.352,344.908l0,66.158l11.333,-0l0,-25.831l11.664,-0l12.916,25.831l11.998,-0l-13.664,-27.33l2.166,-0.668l2.083,-0.999l1.833,-1.417l1.583,-1.583l1.251,-1.916l1.332,-2.334l0.918,-2.5l0.665,-2.665l0.334,-2.666l-0.084,-2.667l-0.417,-2.665l-0.665,-2.584l-1.084,-2.5l-1.249,-2.25l-1.5,-2.083l-1.751,-1.833l-2,-1.582l-2.166,-1.418l-2.332,-1.082l-2.416,-0.751l-2.5,-0.5l-2.584,-0.165l-25.664,-0Zm11.333,10.082l14.498,-0l1.666,0.166l1.666,0.415l1.585,0.668l1.332,1.001l1.249,1.249l1.001,1.415l0.668,1.502l0.414,1.666l0.167,1.666l0,1.833l-0.25,1.832l-0.582,1.667l-0.917,1.584l-1.166,1.416l-1.418,1.166l-0.832,0.5l-0.917,0.334l-0.999,0.083l-17.165,-0l0,-20.163Z" style="fill:#fff;fill-rule:nonzero;"/></g><g><rect id="rect2555" x="506.846" y="340.157" width="74.573" height="94.488" style="fill:#e31837;"/><path id="path1026" d="M545.008,342.825l-4.416,0.248l-4.333,0.667l-2.749,0.918l-2.667,1.249l-2.5,1.499l-2.416,1.752l-2.167,1.916l-1.916,2.25l-1.75,2.331l-1.582,2.667l-1.335,2.917l-1.082,2.915l-0.75,3.084l-0.666,3.499l-0.333,3.582l-0.167,3.668l0.167,3.582l0.333,3.583l0.666,3.584l0.75,3.082l1.082,2.917l1.335,2.832l1.582,2.75l1.75,2.333l1.916,2.167l2.167,1.999l2.416,1.75l2.5,1.499l2.667,1.168l2.749,0.999l4.333,0.667l4.416,0.167l4.416,-0.167l4.333,-0.667l2.834,-0.999l2.581,-1.168l2.584,-1.499l2.333,-1.75l2.167,-1.999l1.999,-2.167l1.666,-2.333l1.666,-2.75l1.252,-2.832l1.082,-2.917l0.75,-3.082l0.668,-3.584l0.415,-3.583l0.166,-3.582l-0.166,-3.668l-0.415,-3.582l-0.668,-3.499l-0.75,-3.084l-1.082,-2.915l-1.252,-2.917l-1.666,-2.667l-1.666,-2.331l-1.999,-2.25l-2.167,-1.916l-2.333,-1.752l-2.584,-1.499l-2.581,-1.249l-2.834,-0.918l-4.333,-0.667l-4.416,-0.248Zm-0,10.081l2.583,0.167l2.417,0.499l2.417,0.834l2.331,1.082l2.167,1.334l1.668,1.5l1.499,1.666l1.249,1.916l1.001,2.083l0.999,3.418l0.75,3.499l0.417,3.498l0.084,3.585l-0.084,3.582l-0.417,3.499l-0.75,3.501l-0.999,3.416l-1.001,2.083l-1.249,1.832l-1.499,1.75l-1.668,1.418l-2.167,1.416l-2.331,1.082l-2.417,0.75l-2.417,0.501l-2.583,0.167l-2.5,-0.167l-2.498,-0.501l-2.417,-0.75l-2.333,-1.082l-2.083,-1.416l-1.75,-1.418l-1.501,-1.75l-1.249,-1.832l-0.917,-2.083l-1.083,-3.416l-0.667,-3.501l-0.417,-3.499l-0.165,-3.582l0.165,-3.585l0.417,-3.498l0.667,-3.499l1.083,-3.418l0.917,-2.083l1.249,-1.916l1.501,-1.666l1.75,-1.5l2.083,-1.334l2.333,-1.082l2.417,-0.834l2.498,-0.499l2.5,-0.167Z" style="fill:#fff;fill-rule:nonzero;"/></g><g><rect id="rect2538-21" serif:id="rect2538-2" x="306.706" y="340.157" width="80.238" height="94.488" style="fill:#e31837;"/><path id="path10321" serif:id="path1032" d="M330.036,411.065l0,-47.911l32.163,47.911l12.582,-0l-0,-66.159l-11.332,0l-0,47.828l-32.079,-47.828l-12.666,0l0,66.159l11.332,-0Z" style="fill:#fff;fill-rule:nonzero;"/></g><g><rect id="rect2429-0-8-6-0-22" serif:id="rect2429-0-8-6-0-2" x="581.42" y="340.157" width="51.494" height="94.488" style="fill:#e31837;"/><path id="path9802" serif:id="path980" d="M593.501,411.066l37.162,-0l0,-10.082l-25.83,-0l0,-56.076l-11.332,-0l0,66.158Z" style="fill:#fff;fill-rule:nonzero;"/></g><g><rect id="rect25551" serif:id="rect2555" x="232.133" y="340.157" width="74.573" height="94.488" style="fill:#e31837;"/><path id="path10261" serif:id="path1026" d="M270.294,342.825l-4.416,0.248l-4.333,0.667l-2.748,0.918l-2.667,1.249l-2.5,1.499l-2.417,1.752l-2.166,1.916l-1.917,2.25l-1.749,2.331l-1.583,2.667l-1.334,2.917l-1.083,2.915l-0.75,3.084l-0.665,3.499l-0.334,3.582l-0.167,3.668l0.167,3.582l0.334,3.583l0.665,3.584l0.75,3.082l1.083,2.917l1.334,2.832l1.583,2.75l1.749,2.333l1.917,2.167l2.166,1.999l2.417,1.75l2.5,1.499l2.667,1.168l2.748,0.999l4.333,0.667l4.416,0.167l4.417,-0.167l4.333,-0.667l2.833,-0.999l2.582,-1.168l2.583,-1.499l2.334,-1.75l2.166,-1.999l2,-2.167l1.666,-2.333l1.666,-2.75l1.251,-2.832l1.082,-2.917l0.751,-3.082l0.667,-3.584l0.415,-3.583l0.167,-3.582l-0.167,-3.668l-0.415,-3.582l-0.667,-3.499l-0.751,-3.084l-1.082,-2.915l-1.251,-2.917l-1.666,-2.667l-1.666,-2.331l-2,-2.25l-2.166,-1.916l-2.334,-1.752l-2.583,-1.499l-2.582,-1.249l-2.833,-0.918l-4.333,-0.667l-4.417,-0.248Zm0,10.081l2.584,0.167l2.416,0.499l2.417,0.834l2.331,1.082l2.167,1.334l1.668,1.5l1.499,1.666l1.249,1.916l1.001,2.083l0.999,3.418l0.751,3.499l0.417,3.498l0.083,3.585l-0.083,3.582l-0.417,3.499l-0.751,3.501l-0.999,3.416l-1.001,2.083l-1.249,1.832l-1.499,1.75l-1.668,1.418l-2.167,1.416l-2.331,1.082l-2.417,0.75l-2.416,0.501l-2.584,0.167l-2.5,-0.167l-2.498,-0.501l-2.417,-0.75l-2.333,-1.082l-2.083,-1.416l-1.749,-1.418l-1.502,-1.75l-1.249,-1.832l-0.917,-2.083l-1.082,-3.416l-0.668,-3.501l-0.417,-3.499l-0.164,-3.582l0.164,-3.585l0.417,-3.498l0.668,-3.499l1.082,-3.418l0.917,-2.083l1.249,-1.916l1.502,-1.666l1.749,-1.5l2.083,-1.334l2.333,-1.082l2.417,-0.834l2.498,-0.499l2.5,-0.167Z" style="fill:#fff;fill-rule:nonzero;"/></g><g><rect id="rect2410" x="160.808" y="340.157" width="71.325" height="94.488" style="fill:#e31837;"/><path id="path1080" d="M185.305,358.239c-0.551,0.535 -1.039,1.135 -1.5,1.749c-0.457,0.611 -0.881,1.249 -1.25,1.917c-0.354,0.642 -0.66,1.313 -0.916,2c-0.415,1.111 -0.709,2.266 -1,3.416c-0.293,1.156 -0.556,2.322 -0.75,3.499c-0.195,1.187 -0.318,2.385 -0.416,3.583c-0.096,1.164 -0.166,2.332 -0.167,3.5c-0.001,1.195 0.07,2.391 0.167,3.583c0.097,1.198 0.218,2.397 0.416,3.583c0.193,1.149 0.461,2.286 0.75,3.416c0.294,1.149 0.593,2.301 1,3.416c0.26,0.713 0.555,1.416 0.916,2.083c0.364,0.671 0.786,1.312 1.25,1.917c0.456,0.592 0.965,1.144 1.5,1.666c0.55,0.537 1.133,1.042 1.75,1.5c0.662,0.491 1.36,0.936 2.083,1.333c0.752,0.413 1.538,0.762 2.333,1.083c0.79,0.319 1.594,0.61 2.416,0.833c0.82,0.223 1.658,0.389 2.5,0.5c0.828,0.11 1.665,0.168 2.5,0.167c0.807,-0.001 1.618,-0.044 2.416,-0.167c0.819,-0.126 1.624,-0.341 2.416,-0.583c0.765,-0.233 1.521,-0.504 2.25,-0.833c0.748,-0.338 1.48,-0.718 2.167,-1.167c0.679,-0.444 1.315,-0.954 1.916,-1.499c0.596,-0.542 1.146,-1.135 1.666,-1.75c0.539,-0.636 1.057,-1.295 1.5,-2c0.417,-0.662 0.771,-1.366 1.083,-2.083c0.331,-0.757 0.834,-2.333 0.834,-2.333l10.832,2.166c-0,0 -0.502,1.796 -0.834,2.666c-0.335,0.883 -0.743,1.739 -1.166,2.583c-0.412,0.823 -0.836,1.643 -1.333,2.417c-0.505,0.785 -1.08,1.524 -1.667,2.25c-0.581,0.719 -1.186,1.421 -1.833,2.083c-0.66,0.674 -1.356,1.315 -2.083,1.916c-0.719,0.595 -1.478,1.142 -2.25,1.667c-0.784,0.532 -1.582,1.048 -2.416,1.499c-0.809,0.438 -1.647,0.822 -2.5,1.167c-0.871,0.352 -1.764,0.653 -2.666,0.916c-0.905,0.265 -1.824,0.485 -2.75,0.667c-0.909,0.179 -1.826,0.333 -2.749,0.417c-0.941,0.084 -1.889,0.096 -2.833,0.083c-1.475,-0.02 -2.95,-0.096 -4.416,-0.25c-1.454,-0.153 -2.913,-0.323 -4.333,-0.667c-0.939,-0.227 -1.853,-0.558 -2.75,-0.916c-0.911,-0.364 -1.8,-0.788 -2.666,-1.25c-0.858,-0.457 -1.689,-0.964 -2.5,-1.5c-0.83,-0.548 -1.64,-1.128 -2.416,-1.749c-0.753,-0.603 -1.485,-1.235 -2.167,-1.917c-0.681,-0.682 -1.313,-1.414 -1.916,-2.166c-0.622,-0.776 -1.204,-1.586 -1.75,-2.417c-0.567,-0.864 -1.098,-1.753 -1.583,-2.666c-0.489,-0.922 -0.933,-1.869 -1.333,-2.833c-0.407,-0.982 -0.777,-1.982 -1.083,-3c-0.305,-1.012 -0.538,-2.046 -0.75,-3.083c-0.237,-1.158 -0.418,-2.328 -0.583,-3.499c-0.169,-1.191 -0.32,-2.385 -0.417,-3.583c-0.099,-1.219 -0.167,-2.443 -0.167,-3.666c0.001,-1.196 0.07,-2.391 0.167,-3.583c0.097,-1.198 0.25,-2.392 0.417,-3.583c0.167,-1.198 0.339,-2.398 0.583,-3.583c0.208,-1.009 0.449,-2.014 0.75,-3c0.31,-1.016 0.676,-2.017 1.083,-2.999c0.4,-0.964 0.85,-1.908 1.333,-2.833c0.489,-0.938 1.001,-1.867 1.583,-2.75c0.535,-0.811 1.136,-1.579 1.75,-2.333c0.609,-0.747 1.242,-1.477 1.916,-2.166c0.688,-0.702 1.406,-1.377 2.167,-2c0.769,-0.63 1.58,-1.212 2.416,-1.75c0.806,-0.517 1.649,-0.977 2.5,-1.416c0.872,-0.451 1.76,-0.874 2.666,-1.25c0.901,-0.374 1.805,-0.758 2.75,-1c1.415,-0.363 2.878,-0.528 4.333,-0.667c1.466,-0.14 2.943,-0.16 4.416,-0.166c0.944,-0.004 1.891,0.012 2.833,0.083c0.92,0.07 1.841,0.169 2.749,0.334c0.928,0.168 1.845,0.402 2.75,0.666c0.902,0.264 1.8,0.553 2.666,0.917c0.859,0.361 1.681,0.806 2.5,1.25c0.821,0.445 1.637,0.902 2.416,1.416c0.779,0.515 1.531,1.072 2.25,1.667c0.727,0.601 1.423,1.242 2.083,1.916c0.647,0.661 1.258,1.359 1.833,2.083c0.595,0.749 1.157,1.525 1.667,2.333c0.49,0.779 0.921,1.594 1.333,2.417c0.423,0.844 0.831,1.7 1.166,2.583c0.332,0.87 0.834,2.666 0.834,2.666l-10.832,2.166c-0,0 -0.509,-1.573 -0.834,-2.333c-0.316,-0.742 -0.651,-1.484 -1.083,-2.166c-0.433,-0.686 -0.969,-1.303 -1.5,-1.917c-0.526,-0.609 -1.07,-1.208 -1.666,-1.749c-0.601,-0.545 -1.237,-1.056 -1.916,-1.5c-0.687,-0.449 -1.425,-0.817 -2.167,-1.167c-0.732,-0.345 -1.475,-0.68 -2.25,-0.916c-0.786,-0.239 -1.601,-0.388 -2.416,-0.5c-0.8,-0.11 -1.609,-0.166 -2.416,-0.167c-0.835,-0.001 -1.672,0.057 -2.5,0.167c-0.842,0.112 -1.676,0.29 -2.5,0.5c-0.817,0.208 -1.629,0.447 -2.416,0.75c-0.8,0.308 -1.587,0.66 -2.333,1.083c-0.73,0.414 -1.409,0.916 -2.083,1.417c-0.602,0.447 -1.212,0.893 -1.75,1.416Z" style="fill:#fff;fill-rule:nonzero;"/></g></g><g><g><rect id="rect2587-3" x="343.12" y="245.669" width="65.574" height="94.488" style="fill:#e31837;"/><path id="path1068" d="M400.363,297.496l-0,-2.416l-0.333,-2.5l-0.667,-2.333l-1,-2.25l-1.333,-2.083l-1.583,-1.833l-1.917,-1.666l-2.083,-1.25l-2.249,-1l-2.333,-0.667l-17.998,-4.166l-1.417,-0.417l-1.25,-0.833l-1.166,-1l-0.917,-1.25l-0.583,-1.333l-0.333,-1.5l-0.167,-1.583l0.167,-1.583l0.416,-1.5l0.833,-1.416l1,-1.167l1.25,-0.916l1.5,-0.667l2.25,-0.666l2.333,-0.417l2.333,-0.166l2.333,0.083l2.333,0.417l2.166,0.666l2,0.917l1.917,1.166l1.666,1.417l1.5,1.666l1.25,1.917l8.832,-7.166l-1.583,-2.167l-1.75,-1.916l-2.083,-1.75l-2.167,-1.5l-2.416,-1.166l-2.5,-0.917l-2.583,-0.583l-3.333,-0.583l-3.332,-0.25l-3.333,-0l-3.333,0.25l-3.333,0.666l-3.166,0.834l-2.333,1.083l-2.167,1.25l-1.916,1.583l-1.667,1.833l-1.5,2.083l-1.166,2.25l-0.833,2.333l-0.5,2.416l-0.25,2.416l0.166,2.417l0.417,2.333l0.75,2.333l1.083,2.166l1.25,2l1.583,1.833l1.833,1.667l1.917,1.333l2.166,1.083l2.25,0.833l17.831,4l1.5,0.5l1.333,0.833l1.25,1.083l0.999,1.25l0.667,1.416l0.417,1.584l0.083,1.583l-0.166,1.583l-0.5,1.5l-0.834,1.416l-1.083,1.167l-1.25,1l-0.833,0.499l-2.25,1l-2.333,0.667l-2.416,0.333l-2.416,0.167l-2.5,-0.25l-2.416,-0.417l-2.333,-0.75l-2.75,-1.666l-2.583,-2l-2.333,-2.166l-2,-2.5l-8.915,7.166l2.333,2.666l2.583,2.333l2.749,2.083l3,1.833l3.083,1.334l3.166,1.083l3.333,0.833l3.333,0.417l3.333,0.166l3.416,-0.166l3.333,-0.5l2.333,-0.5l2.25,-0.75l2.166,-1.083l2,-1.334l1.75,-1.583l1.666,-1.749l1.417,-2l1.166,-2.083l1,-2.25l0.917,-3.125l0.583,-3.291Z" style="fill:#fff;fill-rule:nonzero;"/></g><g><rect id="rect2587-31" serif:id="rect2587-3" x="408.694" y="245.669" width="65.574" height="94.488" style="fill:#e31837;"/><path id="path10681" serif:id="path1068" d="M465.937,297.496l0,-2.416l-0.333,-2.5l-0.667,-2.333l-0.999,-2.25l-1.334,-2.083l-1.583,-1.833l-1.916,-1.666l-2.083,-1.25l-2.25,-1l-2.333,-0.667l-17.998,-4.166l-1.416,-0.417l-1.25,-0.833l-1.167,-1l-0.916,-1.25l-0.583,-1.333l-0.334,-1.5l-0.166,-1.583l0.166,-1.583l0.417,-1.5l0.833,-1.416l1,-1.167l1.25,-0.916l1.5,-0.667l2.249,-0.666l2.333,-0.417l2.333,-0.166l2.333,0.083l2.333,0.417l2.167,0.666l2,0.917l1.916,1.166l1.666,1.417l1.5,1.666l1.25,1.917l8.832,-7.166l-1.583,-2.167l-1.75,-1.916l-2.083,-1.75l-2.166,-1.5l-2.416,-1.166l-2.5,-0.917l-2.583,-0.583l-3.333,-0.583l-3.333,-0.25l-3.333,-0l-3.333,0.25l-3.333,0.666l-3.166,0.834l-2.333,1.083l-2.166,1.25l-1.917,1.583l-1.666,1.833l-1.5,2.083l-1.167,2.25l-0.833,2.333l-0.5,2.416l-0.25,2.416l0.167,2.417l0.416,2.333l0.75,2.333l1.083,2.166l1.25,2l1.583,1.833l1.834,1.667l1.916,1.333l2.166,1.083l2.25,0.833l17.831,4l1.5,0.5l1.333,0.833l1.25,1.083l1,1.25l0.666,1.416l0.417,1.584l0.084,1.583l-0.167,1.583l-0.5,1.5l-0.833,1.416l-1.083,1.167l-1.25,1l-0.833,0.499l-2.25,1l-2.333,0.667l-2.417,0.333l-2.416,0.167l-2.5,-0.25l-2.416,-0.417l-2.333,-0.75l-2.75,-1.666l-2.583,-2l-2.333,-2.166l-1.999,-2.5l-8.916,7.166l2.333,2.666l2.583,2.333l2.75,2.083l2.999,1.833l3.083,1.334l3.167,1.083l3.332,0.833l3.333,0.417l3.333,0.166l3.417,-0.166l3.332,-0.5l2.334,-0.5l2.249,-0.75l2.167,-1.083l1.999,-1.334l1.75,-1.583l1.667,-1.749l1.416,-2l1.167,-2.083l0.999,-2.25l0.917,-3.125l0.583,-3.291Z" style="fill:#fff;fill-rule:nonzero;"/></g><g><rect id="rect25871" serif:id="rect2587" x="201.055" y="245.669" width="67.492" height="94.488" style="fill:#e31837;"/><path id="path10741" serif:id="path1074" d="M213.053,250.42l-0,66.158l11.332,-0l0,-25.831l11.665,-0l12.915,25.831l11.998,-0l-13.664,-27.331l2.167,-0.667l2.083,-0.999l1.833,-1.418l1.582,-1.582l1.251,-1.916l1.333,-2.334l0.917,-2.5l0.665,-2.665l0.334,-2.667l-0.084,-2.667l-0.417,-2.664l-0.665,-2.584l-1.084,-2.5l-1.249,-2.25l-1.499,-2.083l-1.752,-1.833l-1.999,-1.582l-2.167,-1.418l-2.331,-1.083l-2.417,-0.75l-2.5,-0.501l-2.583,-0.165l-25.664,0.001Zm11.332,10.081l14.499,0l1.666,0.167l1.666,0.415l1.584,0.667l1.333,1.001l1.249,1.249l1.001,1.416l0.667,1.501l0.415,1.667l0.167,1.666l-0,1.832l-0.251,1.833l-0.581,1.666l-0.918,1.585l-1.165,1.416l-1.418,1.166l-0.832,0.5l-0.918,0.333l-0.999,0.084l-17.165,-0l0,-20.164Z" style="fill:#fff;fill-rule:nonzero;"/></g><g><rect id="rect25552" serif:id="rect2555" x="268.547" y="245.669" width="74.573" height="94.488" style="fill:#e31837;"/><path id="path10262" serif:id="path1026" d="M306.708,248.337l-4.416,0.248l-4.333,0.667l-2.748,0.918l-2.667,1.249l-2.5,1.499l-2.417,1.751l-2.166,1.917l-1.917,2.249l-1.749,2.332l-1.583,2.667l-1.334,2.917l-1.082,2.915l-0.751,3.084l-0.665,3.499l-0.334,3.582l-0.167,3.668l0.167,3.582l0.334,3.582l0.665,3.585l0.751,3.082l1.082,2.917l1.334,2.831l1.583,2.751l1.749,2.333l1.917,2.166l2.166,2l2.417,1.75l2.5,1.499l2.667,1.168l2.748,0.998l4.333,0.668l4.416,0.166l4.417,-0.166l4.333,-0.668l2.833,-0.998l2.582,-1.168l2.583,-1.499l2.334,-1.75l2.166,-2l2,-2.166l1.666,-2.333l1.666,-2.751l1.251,-2.831l1.082,-2.917l0.751,-3.082l0.667,-3.585l0.415,-3.582l0.167,-3.582l-0.167,-3.668l-0.415,-3.582l-0.667,-3.499l-0.751,-3.084l-1.082,-2.915l-1.251,-2.917l-1.666,-2.667l-1.666,-2.332l-2,-2.249l-2.166,-1.917l-2.334,-1.751l-2.583,-1.499l-2.582,-1.249l-2.833,-0.918l-4.333,-0.667l-4.417,-0.248Zm0,10.081l2.584,0.167l2.417,0.499l2.416,0.834l2.331,1.082l2.167,1.334l1.668,1.5l1.499,1.666l1.249,1.916l1.001,2.083l0.999,3.417l0.751,3.499l0.417,3.499l0.083,3.585l-0.083,3.582l-0.417,3.499l-0.751,3.501l-0.999,3.415l-1.001,2.083l-1.249,1.833l-1.499,1.75l-1.668,1.418l-2.167,1.415l-2.331,1.083l-2.416,0.75l-2.417,0.501l-2.584,0.167l-2.5,-0.167l-2.498,-0.501l-2.417,-0.75l-2.333,-1.083l-2.083,-1.415l-1.749,-1.418l-1.502,-1.75l-1.249,-1.833l-0.917,-2.083l-1.082,-3.415l-0.668,-3.501l-0.417,-3.499l-0.164,-3.582l0.164,-3.585l0.417,-3.499l0.668,-3.499l1.082,-3.417l0.917,-2.083l1.249,-1.916l1.502,-1.666l1.749,-1.5l2.083,-1.334l2.333,-1.082l2.417,-0.834l2.498,-0.499l2.5,-0.167Z" style="fill:#fff;fill-rule:nonzero;"/></g><g><rect id="rect2538-22" serif:id="rect2538-2" x="509.681" y="245.669" width="80.238" height="94.488" style="fill:#e31837;"/><path id="path10322" serif:id="path1032" d="M533.012,316.576l-0,-47.91l32.162,47.91l12.582,0l0,-66.158l-11.332,0l0,47.827l-32.079,-47.827l-12.665,0l-0,66.158l11.332,0Z" style="fill:#fff;fill-rule:nonzero;"/></g><g><rect id="rect2429-0-8-6-0" x="474.269" y="245.669" width="35.412" height="94.488" style="fill:#e31837;"/><rect id="path998" x="486.351" y="250.419" width="11.332" height="66.158" style="fill:#fff;fill-rule:nonzero;"/></g><g><rect id="rect2429-0-8" x="589.919" y="245.669" width="74.074" height="94.488" style="fill:#e31837;"/><path id="path1008" d="M618.666,249.252l-2.75,1l-2.666,1.167l-2.5,1.499l-2.333,1.75l-2.166,2l-2,2.166l-1.75,2.333l-1.583,2.75l-1.333,2.833l-1,2.916l-0.75,3.083l-0,0l-0.667,3.583l-0.416,3.583l-0.167,3.583l0.167,3.583l0.416,3.666l0.667,3.5l-0,-0l0.75,3.083l1,2.916l1.333,2.833l1.583,2.749l1.75,2.333l2,2.167l2.166,2l2.333,1.749l2.5,1.5l2.666,1.25l2.75,0.917l4.416,0.666l4.416,0.25l-0,0l3.166,-0.166l3.25,-0.334l2.083,-0.583l1.916,-0.833l1.75,-1.167l1.666,-1.333l1.417,-1.583l1.25,-1.667l-0,5.583l10.082,0l-0,-37.162l-28.997,0l0,10.082l18.915,0l-0,6.583l-0.167,1.833l-0.5,1.75l-0.833,1.583l-1.083,1.499l-1.25,1.25l-0.833,0.667l-2.167,1.333l-2.249,1.083l-2.417,0.834l-2.499,0.499l-2.5,0.167l-2.583,-0.167l-2.5,-0.499l-2.416,-0.834l-2.25,-1.083l-2.166,-1.333l-1.75,-1.5l-1.5,-1.666l-1.166,-1.917l-1,-2.083l-1,-3.416l-0.75,-3.5l-0.417,-3.499l-0.083,-3.583l0.083,-3.583l0.417,-3.5l0.75,-3.499l1,-3.416l1,-2.083l1.166,-1.834l1.5,-1.749l1.75,-1.5l2.166,-1.333l2.25,-1.084l2.416,-0.833l2.5,-0.416l2.583,-0.167l2.5,0.167l2.499,0.416l2.417,0.833l2.249,1.084l2.167,1.333l1.666,1.416l1.417,1.583l1.166,1.75l1,1.917l9.499,-5l-1.667,-2.833l-1.749,-2.333l-1.917,-2.166l-2.25,-2l-2.333,-1.75l-2.499,-1.499l-2.667,-1.167l-2.749,-1l-0,-0l-4.416,-0.667l-4.333,-0.166l-4.416,0.166l-4.416,0.667l-0,0Z" style="fill:#fff;fill-rule:nonzero;"/></g><g><rect id="rect24101" serif:id="rect2410" x="129.73" y="245.669" width="71.325" height="94.488" style="fill:#e31837;"/><path id="path10801" serif:id="path1080" d="M154.228,263.75c-0.551,0.536 -1.039,1.135 -1.5,1.75c-0.458,0.61 -0.882,1.249 -1.25,1.917c-0.354,0.642 -0.66,1.312 -0.917,1.999c-0.415,1.112 -0.708,2.266 -0.999,3.417c-0.293,1.156 -0.556,2.322 -0.75,3.499c-0.196,1.186 -0.319,2.385 -0.417,3.583c-0.095,1.164 -0.166,2.332 -0.167,3.5c-0,1.195 0.07,2.391 0.167,3.582c0.097,1.199 0.218,2.398 0.417,3.583c0.192,1.15 0.461,2.287 0.75,3.417c0.294,1.149 0.593,2.301 0.999,3.416c0.26,0.713 0.556,1.416 0.917,2.083c0.363,0.671 0.785,1.312 1.25,1.916c0.455,0.593 0.965,1.145 1.5,1.667c0.549,0.536 1.133,1.041 1.749,1.5c0.662,0.491 1.361,0.936 2.083,1.333c0.752,0.412 1.538,0.762 2.334,1.083c0.79,0.319 1.594,0.61 2.416,0.833c0.82,0.223 1.657,0.388 2.5,0.5c0.827,0.11 1.664,0.167 2.499,0.167c0.808,-0.001 1.619,-0.044 2.417,-0.167c0.819,-0.126 1.623,-0.342 2.416,-0.583c0.765,-0.233 1.521,-0.504 2.25,-0.833c0.747,-0.338 1.48,-0.718 2.166,-1.167c0.679,-0.444 1.316,-0.955 1.917,-1.5c0.596,-0.541 1.146,-1.135 1.666,-1.749c0.538,-0.637 1.056,-1.295 1.5,-2c0.417,-0.663 0.77,-1.366 1.083,-2.083c0.33,-0.757 0.833,-2.333 0.833,-2.333l10.832,2.166c0,0 -0.502,1.796 -0.833,2.666c-0.336,0.883 -0.744,1.739 -1.167,2.583c-0.411,0.823 -0.836,1.643 -1.333,2.417c-0.504,0.785 -1.08,1.523 -1.666,2.249c-0.581,0.72 -1.187,1.422 -1.833,2.083c-0.66,0.675 -1.356,1.316 -2.083,1.917c-0.72,0.594 -1.478,1.142 -2.25,1.666c-0.784,0.533 -1.583,1.049 -2.416,1.5c-0.809,0.438 -1.648,0.822 -2.5,1.167c-0.872,0.352 -1.764,0.652 -2.666,0.916c-0.906,0.265 -1.825,0.485 -2.75,0.667c-0.91,0.179 -1.827,0.333 -2.75,0.416c-0.941,0.085 -1.888,0.097 -2.833,0.084c-1.474,-0.02 -2.95,-0.096 -4.416,-0.25c-1.453,-0.153 -2.912,-0.323 -4.333,-0.667c-0.939,-0.227 -1.852,-0.558 -2.749,-0.916c-0.912,-0.364 -1.8,-0.789 -2.667,-1.25c-0.857,-0.457 -1.688,-0.964 -2.499,-1.5c-0.83,-0.548 -1.641,-1.128 -2.417,-1.75c-0.752,-0.603 -1.484,-1.234 -2.166,-1.916c-0.682,-0.682 -1.314,-1.414 -1.917,-2.167c-0.621,-0.776 -1.203,-1.585 -1.749,-2.416c-0.568,-0.864 -1.099,-1.753 -1.583,-2.666c-0.49,-0.922 -0.934,-1.869 -1.334,-2.833c-0.407,-0.982 -0.776,-1.982 -1.083,-3c-0.305,-1.012 -0.538,-2.047 -0.75,-3.083c-0.237,-1.158 -0.417,-2.328 -0.583,-3.499c-0.168,-1.191 -0.32,-2.385 -0.417,-3.583c-0.098,-1.22 -0.167,-2.443 -0.166,-3.666c0,-1.196 0.07,-2.392 0.166,-3.583c0.098,-1.199 0.251,-2.392 0.417,-3.583c0.167,-1.199 0.339,-2.398 0.583,-3.583c0.208,-1.01 0.45,-2.014 0.75,-3c0.31,-1.017 0.676,-2.017 1.083,-2.999c0.4,-0.964 0.851,-1.908 1.334,-2.833c0.489,-0.938 1,-1.867 1.583,-2.75c0.535,-0.811 1.135,-1.58 1.749,-2.333c0.61,-0.747 1.242,-1.477 1.917,-2.166c0.687,-0.703 1.406,-1.378 2.166,-2c0.77,-0.63 1.58,-1.212 2.417,-1.75c0.805,-0.518 1.649,-0.977 2.499,-1.416c0.872,-0.451 1.76,-0.874 2.667,-1.25c0.9,-0.374 1.805,-0.758 2.749,-1c1.416,-0.363 2.878,-0.528 4.333,-0.667c1.467,-0.14 2.943,-0.16 4.416,-0.166c0.945,-0.004 1.891,0.012 2.833,0.083c0.921,0.07 1.841,0.169 2.75,0.334c0.928,0.168 1.844,0.402 2.75,0.666c0.902,0.264 1.799,0.553 2.666,0.917c0.859,0.36 1.681,0.805 2.5,1.25c0.82,0.445 1.637,0.901 2.416,1.416c0.779,0.515 1.53,1.072 2.25,1.667c0.727,0.601 1.423,1.241 2.083,1.916c0.646,0.661 1.258,1.359 1.833,2.083c0.594,0.749 1.157,1.525 1.666,2.333c0.491,0.778 0.922,1.594 1.333,2.416c0.423,0.845 0.831,1.7 1.167,2.583c0.331,0.871 0.833,2.667 0.833,2.667l-10.832,2.166c0,0 -0.509,-1.573 -0.833,-2.333c-0.317,-0.742 -0.652,-1.484 -1.083,-2.166c-0.434,-0.686 -0.97,-1.303 -1.5,-1.917c-0.527,-0.609 -1.07,-1.208 -1.666,-1.749c-0.601,-0.546 -1.238,-1.056 -1.917,-1.5c-0.686,-0.449 -1.424,-0.817 -2.166,-1.167c-0.733,-0.345 -1.475,-0.681 -2.25,-0.916c-0.787,-0.24 -1.602,-0.388 -2.416,-0.5c-0.8,-0.11 -1.609,-0.166 -2.417,-0.167c-0.835,-0.001 -1.672,0.057 -2.499,0.167c-0.843,0.112 -1.677,0.29 -2.5,0.5c-0.817,0.208 -1.63,0.446 -2.416,0.75c-0.801,0.308 -1.588,0.66 -2.334,1.083c-0.73,0.414 -1.408,0.916 -2.083,1.416c-0.602,0.448 -1.211,0.893 -1.749,1.416Z" style="fill:#fff;fill-rule:nonzero;"/></g></g></g></g></g></svg>