<?xml version="1.0" encoding="UTF-8" standalone="no"?><!DOCTYPE svg PUBLIC "-//W3C//DTD SVG 1.1//EN" "http://www.w3.org/Graphics/SVG/1.1/DTD/svg11.dtd"><svg width="100%" height="100%" viewBox="0 0 454 454" version="1.1" xmlns="http://www.w3.org/2000/svg" xmlns:xlink="http://www.w3.org/1999/xlink" xml:space="preserve" xmlns:serif="http://www.serif.com/" style="fill-rule:evenodd;clip-rule:evenodd;stroke-linejoin:round;stroke-miterlimit:2;"><g transform="matrix(50,0,0,50,321.022,262.709)"></g><text x="133.4px" y="262.709px" style="font-family:'ArialMT', 'Arial', sans-serif;font-size:50px;">sw=38.4</text><clipPath id="_clip1"><rect x="0" y="0" width="453.543" height="453.543"/></clipPath><g clip-path="url(#_clip1)"><rect id="_670-30" serif:id="670 30" x="0" y="0" width="453.543" height="453.543" style="fill:none;"/><clipPath id="_clip2"><rect x="0" y="0" width="453.543" height="453.543"/></clipPath><g clip-path="url(#_clip2)"><circle cx="226.772" cy="226.772" r="226.772" style="fill:#e31837;"/><circle cx="225.449" cy="225.449" r="181.417" style="fill:#fff;"/><path d="M308.109,142.28c23.146,-0.17 68.596,13.32 68.596,84.075c-0,70.925 -42.782,85.078 -68.596,85.078c-25.806,0 -68.596,-14.153 -68.596,-85.078c-0,-70.755 45.288,-84.245 68.596,-84.075Zm-126.873,80.242c1.497,0 19.151,-7.659 19.151,-32.794c-0,-25.305 -22.814,-47.618 -60.444,-47.618c-37.46,0 -60.274,18.318 -63.105,49.616l34.144,3.663c2.661,-15.148 10.312,-24.14 31.298,-24.14c21.14,-0 23.971,14.815 23.971,20.145c-0.332,14.484 -8.993,19.806 -36.126,19.806l-0,27.141c7.99,0.671 24.14,0.331 28.968,3.493c9.155,5.993 9.155,10.659 9.155,16.313c0,3.833 -0.331,22.821 -24.811,22.821c-24.472,0 -29.794,-13.319 -32.455,-25.814l-34.144,6.155c4.003,27.811 23.316,49.615 65.936,49.615c42.789,0 60.443,-28.629 60.443,-50.942c0,-22.474 -13.651,-35.794 -21.981,-37.46Zm126.873,-49.608c17.145,0 34.468,9.988 34.954,52.446c0.678,42.289 -15.48,55.269 -34.954,55.269c-19.482,-0 -35.632,-12.98 -35.139,-55.269c0.671,-42.458 17.824,-52.446 35.139,-52.446Z"/></g></g></svg>