<?xml version="1.0" encoding="UTF-8" standalone="no"?><!DOCTYPE svg PUBLIC "-//W3C//DTD SVG 1.1//EN" "http://www.w3.org/Graphics/SVG/1.1/DTD/svg11.dtd"><svg width="100%" height="100%" viewBox="0 0 2434 3446" version="1.1" xmlns="http://www.w3.org/2000/svg" xmlns:xlink="http://www.w3.org/1999/xlink" xml:space="preserve" xmlns:serif="http://www.serif.com/" style="fill-rule:evenodd;clip-rule:evenodd;stroke-linejoin:round;stroke-miterlimit:2;"><text x="912.596px" y="1796.04px" style="font-family:'ArialMT', 'Arial', sans-serif;font-size:208.333px;">sw=70</text><g><path d="M2168.19,888.875c-0.005,0 -0.005,0.004 -0.005,0.008c0.005,0.005 0.005,0.009 0.013,0.009l0.079,-0c38.967,0.108 88.617,0.108 128.013,0.108c73.646,0 133.35,59.704 133.35,133.35l-0,2289.18c-0,73.646 -59.704,133.35 -133.35,133.35l-2162.94,0c-73.646,0 -133.35,-59.704 -133.35,-133.35l0,-2289.18c0,-73.646 59.704,-133.35 133.35,-133.35l127.913,0c0.1,0 0.2,0 0.3,-0.004l-0.005,-0.108c34.259,-496.334 448.267,-888.888 953.263,-888.888c504.987,0 918.996,392.546 953.371,888.863l-0,0.012Z"/><path d="M325.821,955.675c-0,-490.65 398.346,-889 889,-889c490.654,-0 889,398.35 889,889l192.471,0c36.825,0 66.675,29.854 66.675,66.675l-0,2289.18c-0,36.821 -29.85,66.675 -66.675,66.675l-2162.94,0c-36.825,0 -66.675,-29.854 -66.675,-66.675l0,-2289.18c0,-36.821 29.85,-66.675 66.675,-66.675l192.471,0Z" style="fill:#fff;"/><circle cx="1214.82" cy="955.675" r="777.875" style="fill:#e31837;"/><circle cx="1210.28" cy="951.137" r="622.3" style="fill:#fff;"/><path d="M1493.83,665.85c79.396,-0.579 235.3,45.692 235.3,288.4c0,243.288 -146.75,291.833 -235.3,291.833c-88.521,0 -235.3,-48.545 -235.3,-291.833c0,-242.708 155.35,-288.979 235.3,-288.4Zm-435.2,275.25c5.133,0 65.692,-26.271 65.692,-112.492c-0,-86.8 -78.259,-163.337 -207.338,-163.337c-128.496,-0 -206.754,62.833 -216.462,170.192l117.121,12.566c9.129,-51.962 35.37,-82.808 107.358,-82.808c72.517,-0 82.225,50.821 82.225,69.104c-1.138,49.683 -30.846,67.938 -123.921,67.938l0,93.1c27.408,2.3 82.808,1.137 99.371,11.983c31.404,20.554 31.404,36.562 31.404,55.954c0,13.15 -1.142,78.283 -85.112,78.283c-83.942,0 -102.196,-45.691 -111.325,-88.55l-117.121,21.113c13.729,95.4 79.975,170.192 226.171,170.192c146.779,-0 207.337,-98.205 207.337,-174.742c0,-77.092 -46.829,-122.783 -75.4,-128.496Zm435.2,-170.167c58.813,0 118.233,34.263 119.9,179.905c2.329,145.054 -53.1,189.583 -119.9,189.583c-66.829,-0 -122.225,-44.529 -120.533,-189.583c2.304,-145.642 61.141,-179.905 120.533,-179.905Z"/><rect id="path1698" x="1768.23" y="1844.68" width="97.792" height="355.6" style="fill:#fff;"/><path d="M1838.92,1933.53l-49.471,-0l-0,177.845l49.471,0l-0,-177.845Zm3.131,-43.209c-0,-15.343 -12.524,-27.867 -27.867,-27.867c-15.655,0 -28.179,12.524 -28.179,27.867c-0,15.655 12.524,28.179 28.179,28.179c15.343,0 27.867,-12.524 27.867,-28.179Z" style="fill-rule:nonzero;"/><rect id="path16981" serif:id="path1698" x="1866.02" y="1844.68" width="190.246" height="355.6" style="fill:#fff;"/><path d="M1996.53,1933.34l-35.396,108.933l-35.708,-108.933l-51.997,-0l60.141,177.8l55.129,-0l60.141,-177.8l-52.31,-0Z" style="fill-rule:nonzero;"/><rect id="path16982" serif:id="path1698" x="1617.1" y="1844.68" width="151.129" height="355.6" style="fill:#fff;"/><path d="M1745.03,1929.52c-25.638,-2.814 -43.46,5.628 -55.341,22.512l-0,-18.447l-49.714,-0l0,177.592l49.714,0l-0,-93.799c-0,-29.39 21.886,-42.209 48.15,-40.02l7.191,0.625l-0,-48.463Z" style="fill-rule:nonzero;"/><rect id="path16983" serif:id="path1698" x="2056.26" y="1844.68" width="195.579" height="355.6" style="fill:#fff;"/><path d="M2235.56,2029.89l-0.592,7.408l-114.684,-0c0.2,4.742 1.384,9.137 3.559,13.187c2.171,4.05 5.037,7.604 8.591,10.667c3.559,3.063 7.659,5.433 12.301,7.113c4.641,1.679 9.533,2.52 14.666,2.52c14.817,0 27.559,-4.941 38.229,-14.816l24.892,30.521c-8.496,8.1 -17.829,14.274 -28.004,18.52c-10.175,4.246 -21.779,6.371 -34.821,6.371c-14.025,0 -26.471,-2.321 -37.337,-6.962c-10.863,-4.646 -20.001,-11.063 -27.409,-19.263c-7.408,-8.2 -13.041,-17.729 -16.891,-28.596c-3.855,-10.866 -5.78,-22.52 -5.78,-34.966c0,-12.054 1.83,-23.463 5.484,-34.229c3.654,-10.767 8.937,-20.101 15.854,-28.005c6.912,-7.9 15.508,-14.175 25.779,-18.816c10.275,-4.642 21.929,-6.963 34.967,-6.963c14.421,0 26.966,2.567 37.633,7.704c10.671,5.138 19.363,12.05 26.079,20.742c6.717,8.696 11.509,18.917 14.371,30.671c2.867,11.758 3.904,24.154 3.113,37.192Zm-46.525,-25.78c-0,-9.087 -3.309,-16.546 -9.925,-22.375c-6.621,-5.829 -14.767,-8.741 -24.45,-8.741c-9.284,-0 -16.988,3.112 -23.113,9.333c-6.125,6.225 -9.679,13.483 -10.667,21.783l68.155,0Z" style="fill-rule:nonzero;"/><rect id="path16984" serif:id="path1698" x="1405.51" y="1844.68" width="211.583" height="355.6" style="fill:#fff;"/><path d="M1597.28,2110.43l-50.166,0l-0,-9.525c-4.867,4.446 -10.742,8.046 -17.621,10.796c-6.879,2.754 -13.813,4.129 -20.796,4.129c-13.758,0 -25.929,-2.592 -36.512,-7.779c-10.584,-5.188 -19.475,-12.117 -26.671,-20.796c-7.196,-8.679 -12.7,-18.679 -16.509,-30.004c-3.812,-11.325 -5.716,-23.229 -5.716,-35.721c-0,-12.7 1.8,-24.871 5.396,-36.512c3.6,-11.642 8.945,-21.905 16.037,-30.796c7.088,-8.892 15.821,-16.034 26.192,-21.434c10.37,-5.396 22.329,-8.095 35.879,-8.095c7.408,-0 14.604,1.166 21.587,3.495c6.988,2.325 13.23,5.609 18.734,9.842l-0,-75.567l50.166,0l0,247.967Zm-49.85,-66.992l0,-46.67c0,-4.021 -0.954,-7.621 -2.866,-10.796c-1.917,-3.175 -4.359,-5.925 -7.338,-8.255c-2.975,-2.329 -6.325,-4.129 -10.046,-5.399c-3.72,-1.267 -7.387,-1.905 -10.995,-1.905c-13.396,0 -23.763,4.709 -31.096,14.13c-7.334,9.42 -11,21.537 -11,36.354c-0,6.775 0.958,13.071 2.87,18.891c1.913,5.821 4.626,10.846 8.13,15.08c3.508,4.233 7.812,7.62 12.916,10.162c5.105,2.538 10.842,3.808 17.221,3.808c3.188,0 6.696,-0.529 10.521,-1.587c3.825,-1.058 7.333,-2.646 10.521,-4.763c3.192,-2.116 5.846,-4.762 7.975,-7.937c2.125,-3.175 3.187,-6.879 3.187,-11.113Z" style="fill-rule:nonzero;"/><rect id="path16985" serif:id="path1698" x="723.646" y="1844.68" width="197.358" height="355.6" style="fill:#fff;"/><path d="M903.171,2076.82l-19.625,34.562c-6.833,-0.391 -13.034,-2.1 -18.6,-5.125c-5.567,-3.029 -10.104,-6.983 -13.621,-11.862c-5.467,5.075 -11.863,8.883 -19.188,11.421c-7.32,2.541 -16.254,3.808 -26.799,3.808c-8.396,-0 -16.455,-1.075 -24.167,-3.221c-7.713,-2.15 -14.5,-5.421 -20.359,-9.813c-5.858,-4.395 -10.541,-9.812 -14.058,-16.258c-3.516,-6.441 -5.271,-14.058 -5.271,-22.846c0,-8.591 1.267,-15.916 3.805,-21.97c2.541,-6.055 5.762,-11.18 9.666,-15.375c3.909,-4.2 8.35,-7.571 13.329,-10.109c4.98,-2.537 9.913,-4.491 14.792,-5.858c4.883,-1.367 9.471,-2.342 13.767,-2.929c4.296,-0.584 7.716,-0.975 10.254,-1.171c4.1,-0.392 9.325,-0.829 15.671,-1.317c6.346,-0.487 12.154,-0.929 17.429,-1.321l-0,-2.341c-0,-7.225 -1.663,-12.45 -4.979,-15.671c-3.321,-3.221 -9.084,-4.834 -17.284,-4.834c-8.591,0 -16.795,1.025 -24.604,3.075c-7.812,2.051 -16.404,5.809 -25.779,11.28l-17.279,-36.617c11.908,-6.638 23.579,-11.425 35,-14.354c11.425,-2.929 23.287,-4.392 35.592,-4.392c21.283,0 37.491,5.271 48.625,15.817c11.129,10.546 16.695,26.362 16.695,47.454l0,54.775c0,7.421 1.267,13.033 3.809,16.842c2.537,3.808 6.929,6.591 13.179,8.35Zm-63.271,-21.971l-0,-20.796c-3.513,0.196 -7.225,0.392 -11.129,0.583c-3.904,0.196 -7.225,0.492 -9.958,0.88c-3.321,0.391 -6.788,0.783 -10.4,1.175c-3.613,0.387 -6.884,1.216 -9.813,2.487c-2.929,1.271 -5.371,3.075 -7.321,5.421c-1.954,2.341 -2.929,5.662 -2.929,9.958c0,5.663 2.438,9.959 7.321,12.888c4.883,2.929 10.446,4.396 16.696,4.396c9.958,-0.001 17.037,-1.663 21.237,-4.984c4.2,-3.316 6.296,-7.321 6.296,-12.008Z" style="fill-rule:nonzero;"/><rect id="path16986" serif:id="path1698" x="921.004" y="1844.68" width="177.8" height="355.6" style="fill:#fff;"/><path d="M1083.3,2057.55c0,-32.783 -24.809,-44.893 -49.028,-50.8l-30.716,-7.384c-14.177,-3.544 -15.063,-8.86 -15.063,-11.518c-0,-7.089 7.679,-14.472 24.219,-14.472c15.358,-0 28.058,4.725 40.758,14.472l26.581,-30.717c-16.835,-14.472 -38.986,-23.332 -69.702,-23.332c-41.349,-0 -70.589,23.628 -70.589,55.821c0,29.24 23.628,43.712 45.484,48.733l29.24,7.088c14.176,3.249 19.788,8.861 19.788,12.995c0,7.384 -5.907,13.291 -23.333,13.291c-12.7,0 -31.307,-3.249 -47.846,-17.13l-26.582,30.716c20.675,17.131 44.893,26.286 74.724,26.286c47.256,0 72.065,-22.741 72.065,-54.049Z" style="fill-rule:nonzero;"/><rect id="path16987" serif:id="path1698" x="528.067" y="1844.68" width="195.579" height="355.6" style="fill:#fff;"/><path d="M707.371,2029.89l-0.596,7.408l-114.679,-0c0.196,4.742 1.383,9.137 3.554,13.187c2.175,4.05 5.038,7.604 8.596,10.667c3.554,3.063 7.654,5.433 12.296,7.113c4.641,1.679 9.533,2.52 14.67,2.52c14.817,0 27.559,-4.941 38.226,-14.816l24.891,30.521c-8.491,8.1 -17.829,14.274 -28.004,18.52c-10.171,4.246 -21.779,6.371 -34.817,6.371c-14.029,0 -26.475,-2.321 -37.337,-6.962c-10.867,-4.646 -20.004,-11.063 -27.413,-19.263c-7.408,-8.2 -13.037,-17.729 -16.891,-28.596c-3.85,-10.866 -5.78,-22.52 -5.78,-34.966c0,-12.054 1.83,-23.463 5.484,-34.229c3.654,-10.767 8.941,-20.101 15.854,-28.005c6.917,-7.9 15.508,-14.175 25.779,-18.816c10.275,-4.642 21.929,-6.963 34.971,-6.963c14.421,0 26.967,2.567 37.633,7.704c10.667,5.138 19.359,12.05 26.075,20.742c6.721,8.696 11.509,18.917 14.375,30.671c2.863,11.758 3.9,24.154 3.113,37.192Zm-46.525,-25.78c-0,-9.087 -3.309,-16.546 -9.929,-22.375c-6.617,-5.829 -14.767,-8.741 -24.446,-8.741c-9.288,-0 -16.992,3.112 -23.117,9.333c-6.121,6.225 -9.679,13.483 -10.667,21.783l68.159,0Z" style="fill-rule:nonzero;"/><rect id="path16988" serif:id="path1698" x="1098.8" y="1844.68" width="195.579" height="355.6" style="fill:#fff;"/><path d="M1278.11,2029.89l-0.591,7.408l-114.684,-0c0.2,4.742 1.384,9.137 3.559,13.187c2.17,4.05 5.037,7.604 8.591,10.667c3.559,3.063 7.655,5.433 12.3,7.113c4.642,1.679 9.53,2.52 14.667,2.52c14.817,0 27.558,-4.941 38.229,-14.816l24.892,30.521c-8.496,8.1 -17.829,14.274 -28.004,18.52c-10.175,4.246 -21.78,6.371 -34.821,6.371c-14.025,0 -26.471,-2.321 -37.338,-6.962c-10.866,-4.646 -20.004,-11.063 -27.412,-19.263c-7.409,-8.2 -13.038,-17.729 -16.888,-28.596c-3.854,-10.866 -5.779,-22.52 -5.779,-34.966c0,-12.054 1.825,-23.463 5.479,-34.229c3.659,-10.767 8.942,-20.101 15.854,-28.005c6.917,-7.9 15.509,-14.175 25.784,-18.816c10.271,-4.642 21.929,-6.963 34.966,-6.963c14.421,0 26.967,2.567 37.634,7.704c10.671,5.138 19.362,12.05 26.079,20.742c6.717,8.696 11.508,18.917 14.371,30.671c2.866,11.758 3.904,24.154 3.112,37.192Zm-46.525,-25.78c0,-9.087 -3.308,-16.546 -9.925,-22.375c-6.621,-5.829 -14.771,-8.741 -24.45,-8.741c-9.283,-0 -16.987,3.112 -23.112,9.333c-6.125,6.225 -9.679,13.483 -10.671,21.783l68.158,0Z" style="fill-rule:nonzero;"/><rect id="path16989" serif:id="path1698" x="416.054" y="1844.68" width="112.012" height="355.6" style="fill:#fff;"/><path d="M518.624,2063.28c-6.871,2.498 -12.493,3.435 -18.739,3.435c-10.307,0 -15.304,-5.621 -15.304,-16.24l0,-188.017l-49.034,-0l-0,196.137c-0,31.857 15.303,52.782 53.094,52.782c11.556,0 24.361,-1.874 34.98,-5.309l-4.997,-42.788Z" style="fill-rule:nonzero;"/><rect x="177.8" y="1844.68" width="238.254" height="355.6" style="fill:#fff;"/><path d="M351.211,1944.16c-0,20.744 -13.088,32.551 -34.028,32.551l-45.153,0l0,-65.74l44.826,-0c20.94,-0 34.355,12.765 34.355,33.189Zm55.95,0c-0,-44.997 -26.503,-81.697 -84.416,-81.697l-103.72,0l0,248.921l53.005,-0l0,-86.165l50.715,-0c58.895,-0 84.416,-37.657 84.416,-81.059Z" style="fill-rule:nonzero;"/><rect id="path169810" serif:id="path1698" x="848.554" y="2911.48" width="97.792" height="355.6" style="fill:#fff;"/><path d="M919.246,3000.34l-49.471,-0l-0,177.845l49.471,0l-0,-177.845Zm3.131,-43.209c-0,-15.342 -12.524,-27.867 -27.867,-27.867c-15.655,0 -28.179,12.525 -28.179,27.867c-0,15.655 12.524,28.18 28.179,28.18c15.343,-0 27.867,-12.525 27.867,-28.18Z" style="fill-rule:nonzero;"/><rect id="path169811" serif:id="path1698" x="1367.73" y="2911.48" width="208.025" height="355.6" style="fill:#fff;"/><path d="M1498.13,3083.78c0,21.611 -9.436,39.569 -32.264,39.569c-23.132,0 -32.568,-17.958 -32.568,-39.569c0,-21.306 10.653,-39.264 32.568,-39.264c22.524,-0 32.264,17.958 32.264,39.264Zm45.961,-78.528l-46.874,-0.001l-0,10.349c-7.609,-9.131 -22.219,-15.218 -38.351,-15.218c-42.308,-0.001 -73.355,37.742 -73.355,82.485c0,48.7 25.872,84.616 74.877,84.616c13.088,0 27.698,-5.174 36.829,-13.088l-0,14.915c-0,18.871 -16.741,23.741 -32.873,23.741c-17.349,-0 -32.872,-3.957 -52.961,-13.697l-16.436,37.743c18.871,11.261 45.656,18.871 69.093,18.871c42.004,-0 80.051,-14.306 80.051,-63.919l-0,-166.798Z" style="fill-rule:nonzero;"/><rect id="path169812" serif:id="path1698" x="1170.37" y="2911.48" width="197.358" height="355.6" style="fill:#fff;"/><path d="M1349.9,3143.62l-19.625,34.566c-6.838,-0.391 -13.038,-2.1 -18.6,-5.129c-5.567,-3.025 -10.108,-6.979 -13.621,-11.862c-5.471,5.079 -11.862,8.887 -19.187,11.425c-7.321,2.537 -16.259,3.808 -26.801,3.808c-8.399,0 -16.454,-1.075 -24.166,-3.225c-7.713,-2.146 -14.5,-5.417 -20.359,-9.813c-5.858,-4.391 -10.545,-9.812 -14.058,-16.254c-3.517,-6.446 -5.275,-14.062 -5.275,-22.85c0,-8.591 1.271,-15.912 3.808,-21.966c2.538,-6.055 5.763,-11.18 9.667,-15.38c3.904,-4.2 8.35,-7.566 13.329,-10.104c4.979,-2.541 9.909,-4.491 14.792,-5.858c4.879,-1.367 9.471,-2.346 13.767,-2.929c4.295,-0.588 7.712,-0.979 10.25,-1.171c4.104,-0.392 9.325,-0.833 15.67,-1.321c6.35,-0.487 12.159,-0.925 17.43,-1.317l-0,-2.345c-0,-7.225 -1.659,-12.446 -4.98,-15.671c-3.32,-3.221 -9.079,-4.834 -17.279,-4.834c-8.596,0 -16.796,1.025 -24.608,3.08c-7.808,2.05 -16.4,5.808 -25.775,11.275l-17.283,-36.613c11.912,-6.642 23.579,-11.425 35.004,-14.354c11.425,-2.929 23.287,-4.396 35.591,-4.396c21.284,0 37.492,5.275 48.621,15.821c11.134,10.542 16.696,26.362 16.696,47.45l0,54.775c0,7.421 1.271,13.037 3.808,16.846c2.542,3.804 6.934,6.587 13.184,8.346Zm-63.271,-21.967l0,-20.8c-3.517,0.196 -7.225,0.392 -11.129,0.587c-3.908,0.196 -7.225,0.488 -9.963,0.88c-3.316,0.391 -6.783,0.779 -10.396,1.17c-3.612,0.392 -6.883,1.221 -9.812,2.492c-2.929,1.267 -5.371,3.075 -7.325,5.417c-1.95,2.346 -2.929,5.662 -2.929,9.958c-0,5.663 2.442,9.963 7.325,12.892c4.879,2.929 10.446,4.391 16.696,4.391c9.958,0 17.037,-1.658 21.237,-4.979c4.196,-3.321 6.296,-7.325 6.296,-12.008Z" style="fill-rule:nonzero;"/><rect id="path169813" serif:id="path1698" x="658.304" y="2911.48" width="190.246" height="355.6" style="fill:#fff;"/><path d="M788.823,3000.14l-35.395,108.934l-35.708,-108.934l-51.997,0l60.141,177.8l55.129,0l60.14,-177.8l-52.31,0Z" style="fill-rule:nonzero;"/><rect id="path169814" serif:id="path1698" x="1575.75" y="2911.48" width="195.579" height="355.6" style="fill:#fff;"/><path d="M1755.06,3096.69l-0.591,7.408l-114.684,-0c0.2,4.742 1.384,9.137 3.559,13.187c2.17,4.05 5.037,7.609 8.591,10.671c3.555,3.063 7.655,5.434 12.3,7.113c4.642,1.679 9.53,2.516 14.667,2.516c14.817,0 27.558,-4.937 38.225,-14.816l24.896,30.521c-8.496,8.1 -17.833,14.275 -28.004,18.52c-10.175,4.25 -21.784,6.375 -34.821,6.375c-14.025,0 -26.471,-2.325 -37.338,-6.966c-10.866,-4.642 -20.004,-11.063 -27.412,-19.263c-7.409,-8.196 -13.038,-17.729 -16.892,-28.596c-3.85,-10.862 -5.775,-22.521 -5.775,-34.966c0,-12.05 1.825,-23.459 5.479,-34.225c3.659,-10.767 8.942,-20.105 15.855,-28.005c6.916,-7.904 15.508,-14.175 25.783,-18.816c10.271,-4.642 21.929,-6.967 34.966,-6.967c14.421,0 26.967,2.571 37.634,7.708c10.671,5.134 19.362,12.05 26.079,20.742c6.717,8.692 11.508,18.917 14.371,30.671c2.867,11.754 3.9,24.15 3.112,37.187Zm-46.525,-25.779c0,-9.087 -3.308,-16.546 -9.929,-22.375c-6.616,-5.825 -14.766,-8.741 -24.446,-8.741c-9.283,-0 -16.991,3.112 -23.112,9.337c-6.125,6.221 -9.683,13.483 -10.671,21.779l68.158,0Z" style="fill-rule:nonzero;"/><rect id="path169815" serif:id="path1698" x="946.342" y="2911.48" width="112.012" height="355.6" style="fill:#fff;"/><path d="M1048.92,3130.08c-6.871,2.498 -12.493,3.435 -18.74,3.435c-10.306,0 -15.303,-5.621 -15.303,-16.24l-0,-188.017l-49.035,-0l0,196.137c0,31.857 15.304,52.782 53.095,52.782c11.556,0 24.361,-1.874 34.98,-5.309l-4.997,-42.788Z" style="fill-rule:nonzero;"/><rect id="path169816" serif:id="path1698" x="1058.36" y="2911.48" width="112.013" height="355.6" style="fill:#fff;"/><path d="M1160.93,3130.08c-6.871,2.498 -12.493,3.435 -18.739,3.435c-10.307,0 -15.304,-5.621 -15.304,-16.24l0,-188.017l-49.034,-0l-0,196.137c-0,31.857 15.304,52.782 53.094,52.782c11.556,0 24.361,-1.874 34.98,-5.309l-4.997,-42.788Z" style="fill-rule:nonzero;"/><rect id="path169817" serif:id="path1698" x="689.421" y="2555.88" width="211.583" height="355.6" style="fill:#fff;"/><path d="M873.877,2700.35c-0,-37.338 -23.297,-63.826 -65.422,-63.826c-14.361,-0 -30.636,5.425 -41.806,14.68l0,-77.549l-50.422,0l-0,248.921l50.422,0l0,-111.376c0,-19.786 13.084,-30.955 31.275,-30.955c16.275,-0 25.211,9.254 25.211,25.849l0,116.482l50.742,0l-0,-122.226Z" style="fill-rule:nonzero;"/><rect id="path169818" serif:id="path1698" x="1677.99" y="2555.88" width="211.583" height="355.6" style="fill:#fff;"/><path d="M1862.45,2700.35c0,-37.338 -23.296,-63.826 -65.421,-63.826c-14.361,-0 -30.637,5.425 -41.806,14.68l-0,-77.549l-50.422,0l-0,248.921l50.422,0l-0,-111.376c-0,-19.786 13.084,-30.955 31.275,-30.955c16.275,-0 25.211,9.254 25.211,25.849l-0,116.482l50.741,0l0,-122.226Z" style="fill-rule:nonzero;"/><rect id="path169819" serif:id="path1698" x="1469.96" y="2555.88" width="208.025" height="355.6" style="fill:#fff;"/><path d="M1600.37,2728.18c-0,21.611 -9.436,39.569 -32.264,39.569c-23.133,-0 -32.568,-17.958 -32.568,-39.569c-0,-21.306 10.653,-39.264 32.568,-39.264c22.524,-0 32.264,17.958 32.264,39.264Zm45.96,-78.529l-46.874,0l0,10.349c-7.609,-9.131 -22.219,-15.219 -38.351,-15.219c-42.308,0 -73.354,37.743 -73.354,82.486c-0,48.7 25.872,84.616 74.876,84.616c13.088,0 27.698,-5.174 36.829,-13.088l0,14.914c0,18.872 -16.74,23.742 -32.872,23.742c-17.349,-0 -32.873,-3.957 -52.961,-13.697l-16.437,37.742c18.872,11.262 45.657,18.872 69.094,18.872c42.003,-0 80.05,-14.306 80.05,-63.919l0,-166.798Z" style="fill-rule:nonzero;"/><rect id="path169820" serif:id="path1698" x="1256.6" y="2555.88" width="213.362" height="355.6" style="fill:#fff;"/><path d="M1441.28,2645.12l-49.804,0l-0,107.974c-0,21.844 -15.662,29.334 -31.324,29.334c-16.288,-0 -25.372,-8.114 -25.372,-26.525l0,-110.783l-49.804,0l0,121.081c0,34.639 22.24,61.164 64.84,61.164c14.095,0 31.01,-6.241 41.66,-16.227l-0,11.234l49.804,0l-0,-177.252Z" style="fill-rule:nonzero;"/><rect id="path169821" serif:id="path1698" x="901.004" y="2555.88" width="151.129" height="355.6" style="fill:#fff;"/><path d="M1028.94,2640.72c-25.638,-2.814 -43.46,5.628 -55.341,22.512l-0,-18.447l-49.713,-0l-0,177.592l49.713,0l-0,-93.799c-0,-29.39 21.886,-42.209 48.15,-40.02l7.191,0.625l0,-48.463Z" style="fill-rule:nonzero;"/><rect id="path169822" serif:id="path1698" x="1052.13" y="2555.88" width="204.471" height="355.6" style="fill:#fff;"/><path d="M1192.47,2735.75c-0,27.173 -15.063,45.78 -37.805,45.78c-23.038,-0 -38.1,-18.903 -38.1,-45.78c-0,-27.467 15.062,-49.914 38.1,-49.914c22.446,0 37.805,22.447 37.805,49.914Zm46.37,0c-0,-50.8 -29.535,-90.967 -84.175,-90.967c-54.935,-0 -84.766,39.576 -84.766,90.967c0,49.915 33.375,86.833 84.766,86.833c51.391,0 84.175,-37.214 84.175,-86.833Z" style="fill-rule:nonzero;"/><rect id="path169823" serif:id="path1698" x="540.067" y="2555.88" width="149.354" height="355.6" style="fill:#fff;"/><path d="M669.545,2773.5c-7.741,3.096 -16.719,4.953 -23.84,4.953c-11.765,0 -16.719,-4.334 -16.719,-21.053l0,-76.162l44.893,0.309l0,-41.177l-44.893,-0l0,-67.494l-48.607,21.982l-0,45.512l-28.174,-0l-0,41.177l28.174,-0.309l-0,91.333c-0,34.675 20.433,49.227 53.251,49.227c17.958,-0 33.438,-3.406 43.655,-8.05l-7.74,-40.248Z" style="fill-rule:nonzero;"/><rect id="path169824" serif:id="path1698" x="1776.67" y="2200.28" width="188.467" height="355.6" style="fill:#fff;"/><path d="M1903.75,2289.04l-35.483,106.745l-35.483,-106.745l-51.668,0l60.694,175.833c0.312,1.868 1.245,3.735 1.557,5.291c0.622,1.867 0.622,3.112 0.622,4.046c0,5.913 -4.98,9.958 -16.496,9.958c-7.159,0 -16.497,-1.556 -25.834,-4.979l-8.093,39.523c10.894,3.424 24.9,5.913 36.106,5.913c10.582,0 23.344,-1.867 31.436,-5.601c10.894,-4.98 20.232,-14.627 26.457,-32.677l67.542,-197.307l-51.357,0Z" style="fill-rule:nonzero;"/><rect id="path169825" serif:id="path1698" x="654.75" y="2200.28" width="197.358" height="355.6" style="fill:#fff;"/><path d="M834.275,2432.42l-19.625,34.562c-6.837,-0.392 -13.037,-2.1 -18.6,-5.125c-5.567,-3.025 -10.108,-6.983 -13.621,-11.862c-5.471,5.075 -11.862,8.883 -19.187,11.421c-7.321,2.541 -16.259,3.808 -26.8,3.808c-8.4,-0 -16.454,-1.071 -24.167,-3.221c-7.712,-2.146 -14.5,-5.417 -20.358,-9.813c-5.859,-4.391 -10.546,-9.812 -14.059,-16.258c-3.516,-6.442 -5.275,-14.058 -5.275,-22.846c0,-8.591 1.271,-15.916 3.809,-21.97c2.537,-6.051 5.762,-11.18 9.666,-15.376c3.904,-4.2 8.35,-7.566 13.329,-10.108c4.98,-2.537 9.909,-4.492 14.792,-5.858c4.879,-1.367 9.471,-2.342 13.767,-2.929c4.296,-0.584 7.712,-0.975 10.25,-1.171c4.104,-0.392 9.325,-0.829 15.671,-1.317c6.35,-0.487 12.158,-0.929 17.429,-1.321l-0,-2.341c-0,-7.225 -1.659,-12.45 -4.979,-15.671c-3.321,-3.221 -9.079,-4.834 -17.284,-4.834c-8.591,0 -16.791,1.025 -24.604,3.075c-7.808,2.051 -16.404,5.813 -25.775,11.28l-17.283,-36.617c11.912,-6.637 23.579,-11.421 35.004,-14.35c11.425,-2.929 23.288,-4.396 35.588,-4.396c21.287,0 37.495,5.275 48.625,15.817c11.133,10.546 16.695,26.362 16.695,47.454l0,54.775c0,7.421 1.271,13.033 3.809,16.842c2.541,3.808 6.933,6.591 13.183,8.35Zm-63.271,-21.971l0,-20.796c-3.517,0.196 -7.225,0.392 -11.129,0.587c-3.908,0.192 -7.229,0.488 -9.962,0.876c-3.317,0.391 -6.784,0.783 -10.396,1.175c-3.613,0.387 -6.884,1.22 -9.813,2.487c-2.929,1.271 -5.371,3.075 -7.325,5.421c-1.954,2.341 -2.929,5.662 -2.929,9.958c-0,5.663 2.442,9.958 7.325,12.888c4.879,2.929 10.446,4.395 16.696,4.395c9.958,0 17.037,-1.662 21.237,-4.979c4.196,-3.321 6.296,-7.325 6.296,-12.012Z" style="fill-rule:nonzero;"/><rect id="path169826" serif:id="path1698" x="1339.28" y="2200.28" width="213.362" height="355.6" style="fill:#fff;"/><path d="M1523.96,2289.52l-49.804,0l-0,107.974c-0,21.844 -15.662,29.334 -31.324,29.334c-16.288,-0 -25.372,-8.114 -25.372,-26.525l0,-110.783l-49.804,0l0,121.081c0,34.639 22.24,61.164 64.84,61.164c14.095,0 31.01,-6.241 41.66,-16.227l-0,11.234l49.804,0l-0,-177.252Z" style="fill-rule:nonzero;"/><rect id="path169827" serif:id="path1698" x="852.108" y="2200.28" width="151.129" height="355.6" style="fill:#fff;"/><path d="M980.044,2285.12c-25.638,-2.814 -43.46,5.628 -55.341,22.512l0,-18.447l-49.713,-0l-0,177.592l49.713,0l0,-93.799c0,-29.39 21.886,-42.209 48.15,-40.02l7.191,0.625l0,-48.463Z" style="fill-rule:nonzero;"/><rect id="path169828" serif:id="path1698" x="1198.82" y="2200.28" width="140.463" height="355.6" style="fill:#fff;"/><path d="M1329.87,2223.38c-9.694,-3.439 -21.577,-5.316 -32.209,-5.316c-40.965,0 -61.917,20.639 -61.917,60.979l-0,10.32l-27.519,-0l0,40.652l27.519,0l-0,136.968l49.096,0l-0,-136.968l32.209,0l0,-40.652l-32.835,-0l-0.312,-4.378c-0.313,-16.574 6.566,-23.766 21.889,-23.766c6.567,-0 12.509,0.938 20.014,4.065l4.065,-41.904Z" style="fill-rule:nonzero;"/><rect id="path169829" serif:id="path1698" x="1003.24" y="2200.28" width="195.579" height="355.6" style="fill:#fff;"/><path d="M1182.54,2385.49l-0.596,7.408l-114.679,-0c0.196,4.742 1.383,9.137 3.554,13.187c2.175,4.05 5.037,7.605 8.596,10.667c3.554,3.063 7.654,5.433 12.296,7.113c4.645,1.679 9.533,2.52 14.67,2.52c14.817,0 27.559,-4.941 38.225,-14.816l24.892,30.521c-8.492,8.1 -17.829,14.275 -28,18.52c-10.175,4.246 -21.783,6.371 -34.821,6.371c-14.025,0 -26.471,-2.321 -37.337,-6.962c-10.867,-4.642 -20.005,-11.063 -27.413,-19.263c-7.408,-8.2 -13.037,-17.729 -16.892,-28.596c-3.85,-10.866 -5.775,-22.521 -5.775,-34.966c0,-12.05 1.825,-23.463 5.48,-34.23c3.654,-10.766 8.941,-20.1 15.854,-28c6.916,-7.904 15.508,-14.175 25.783,-18.82c10.271,-4.642 21.929,-6.963 34.967,-6.963c14.421,0 26.966,2.567 37.633,7.704c10.667,5.138 19.363,12.05 26.079,20.746c6.717,8.692 11.504,18.913 14.371,30.671c2.863,11.754 3.9,24.15 3.113,37.187Zm-46.525,-25.779c-0,-9.087 -3.309,-16.545 -9.929,-22.375c-6.617,-5.829 -14.767,-8.741 -24.446,-8.741c-9.288,-0 -16.992,3.112 -23.113,9.333c-6.125,6.225 -9.683,13.483 -10.671,21.783l68.159,0Z" style="fill-rule:nonzero;"/><rect id="path169830" serif:id="path1698" x="464.504" y="2200.28" width="190.246" height="355.6" style="fill:#fff;"/><path d="M638.188,2337.91l-38.688,18.608c-7.287,-17.721 -18.804,-26.583 -34.558,-26.583c-6.105,-0 -11.421,1.379 -15.946,4.133c-4.529,2.758 -8.321,6.4 -11.371,10.929c-3.054,4.529 -5.367,9.746 -6.942,15.654c-1.575,5.909 -2.362,11.913 -2.362,18.017c-0,6.3 0.837,12.304 2.508,18.017c1.675,5.708 4.138,10.729 7.383,15.062c3.25,4.333 7.188,7.825 11.817,10.483c4.625,2.659 9.892,3.988 15.8,3.988c7.483,-0 14.029,-2.067 19.642,-6.2c5.612,-4.138 10.483,-10.929 14.616,-20.379l38.101,18.9c-6.888,14.57 -16.538,26.287 -28.942,35.145c-12.404,8.863 -26.879,13.292 -43.417,13.292c-13.979,0 -26.271,-2.312 -36.871,-6.942c-10.6,-4.625 -19.42,-10.975 -26.466,-19.05c-7.046,-8.07 -12.379,-17.475 -16,-28.204c-3.617,-10.729 -5.429,-22.3 -5.429,-34.704c-0,-11.025 1.662,-21.854 4.991,-32.487c3.325,-10.634 8.413,-20.134 15.263,-28.5c6.85,-8.371 15.475,-15.113 25.875,-20.234c10.4,-5.121 22.787,-7.679 37.162,-7.679c17.129,0 32.192,4.479 45.188,13.438c12.996,8.958 22.546,20.725 28.646,35.296Z" style="fill-rule:nonzero;"/><rect id="path169831" serif:id="path1698" x="1552.64" y="2200.28" width="112.012" height="355.6" style="fill:#fff;"/><path d="M1655.21,2418.88c-6.872,2.498 -12.493,3.435 -18.74,3.435c-10.306,0 -15.303,-5.621 -15.303,-16.24l-0,-188.017l-49.035,-0l0,196.137c0,31.857 15.304,52.782 53.095,52.782c11.556,0 24.361,-1.874 34.98,-5.309l-4.997,-42.788Z" style="fill-rule:nonzero;"/><rect id="path169832" serif:id="path1698" x="1664.65" y="2200.28" width="112.013" height="355.6" style="fill:#fff;"/><path d="M1767.23,2418.88c-6.871,2.498 -12.493,3.435 -18.739,3.435c-10.307,0 -15.304,-5.621 -15.304,-16.24l0,-188.017l-49.034,-0l-0,196.137c-0,31.857 15.304,52.782 53.094,52.782c11.556,0 24.361,-1.874 34.98,-5.309l-4.997,-42.788Z" style="fill-rule:nonzero;"/></g></svg>