<?xml version="1.0" encoding="UTF-8" standalone="no"?><!DOCTYPE svg PUBLIC "-//W3C//DTD SVG 1.1//EN" "http://www.w3.org/Graphics/SVG/1.1/DTD/svg11.dtd"><svg width="100%" height="100%" viewBox="0 0 454 155" version="1.1" xmlns="http://www.w3.org/2000/svg" xmlns:xlink="http://www.w3.org/1999/xlink" xml:space="preserve" xmlns:serif="http://www.serif.com/" style="fill-rule:evenodd;clip-rule:evenodd;stroke-linejoin:round;stroke-miterlimit:2;"><g transform="matrix(50,0,0,50,300.099,94.919)"></g><text x="154.176px" y="94.919px" style="font-family:'ArialMT', 'Arial', sans-serif;font-size:50px;">sw=13</text><clipPath id="_clip1"><rect x="0" y="0" width="453.543" height="154.535"/></clipPath><g clip-path="url(#_clip1)"><path d="M453.543,21.563c0,-11.901 -9.662,-21.563 -21.563,-21.563l-410.437,-0c-11.901,-0 -21.563,9.662 -21.563,21.563l0,111.409c0,11.901 9.662,21.563 21.563,21.563l410.437,0c11.901,0 21.563,-9.662 21.563,-21.563l0,-111.409Z" style="fill:#ffd200;"/><path d="M442.762,21.563c-0,-5.95 -4.831,-10.781 -10.782,-10.781l-410.437,-0c-5.95,-0 -10.781,4.831 -10.781,10.781l-0,111.409c-0,5.951 4.831,10.782 10.781,10.782l410.437,-0c5.951,-0 10.782,-4.831 10.782,-10.782l-0,-111.409Z" style="fill:#00703c;"/><g><g><g><rect id="rect2429-0-2" x="243.962" y="28.751" width="34.734" height="57.502" style="fill:#00703c;"/><path id="path962" d="M274.487,31.641l0,6.136l-19.065,27.939l19.065,0l0,6.136l-27.432,-0l-0,-6.136l19.066,-27.939l-18.458,-0l0,-6.136l26.824,0Z" style="fill:#fff;fill-rule:nonzero;"/></g><g><rect id="rect2555" x="278.696" y="28.751" width="45.382" height="57.502" style="fill:#00703c;"/><path id="path1026" d="M301.92,30.374l-2.688,0.151l-2.637,0.406l-1.672,0.558l-1.623,0.761l-1.522,0.912l-1.47,1.066l-1.319,1.166l-1.166,1.369l-1.065,1.419l-0.963,1.623l-0.812,1.775l-0.659,1.774l-0.456,1.877l-0.405,2.129l-0.203,2.18l-0.102,2.232l0.102,2.18l0.203,2.18l0.405,2.182l0.456,1.875l0.659,1.775l0.812,1.724l0.963,1.673l1.065,1.42l1.166,1.319l1.319,1.217l1.47,1.064l1.522,0.913l1.623,0.71l1.672,0.608l2.637,0.406l2.688,0.102l2.687,-0.102l2.637,-0.406l1.725,-0.608l1.571,-0.71l1.572,-0.913l1.42,-1.064l1.318,-1.217l1.217,-1.319l1.014,-1.42l1.014,-1.673l0.761,-1.724l0.659,-1.775l0.457,-1.875l0.406,-2.182l0.252,-2.18l0.102,-2.18l-0.102,-2.232l-0.252,-2.18l-0.406,-2.129l-0.457,-1.877l-0.659,-1.774l-0.761,-1.775l-1.014,-1.623l-1.014,-1.419l-1.217,-1.369l-1.318,-1.166l-1.42,-1.066l-1.572,-0.912l-1.571,-0.761l-1.725,-0.558l-2.637,-0.406l-2.687,-0.151Zm-0,6.135l1.572,0.102l1.471,0.303l1.47,0.508l1.419,0.658l1.318,0.812l1.015,0.913l0.913,1.014l0.76,1.166l0.609,1.267l0.608,2.08l0.457,2.13l0.253,2.129l0.051,2.181l-0.051,2.18l-0.253,2.129l-0.457,2.131l-0.608,2.079l-0.609,1.267l-0.76,1.116l-0.913,1.064l-1.015,0.863l-1.318,0.862l-1.419,0.658l-1.47,0.457l-1.471,0.305l-1.572,0.101l-1.522,-0.101l-1.52,-0.305l-1.471,-0.457l-1.42,-0.658l-1.267,-0.862l-1.065,-0.863l-0.914,-1.064l-0.76,-1.116l-0.558,-1.267l-0.659,-2.079l-0.406,-2.131l-0.253,-2.129l-0.101,-2.18l0.101,-2.181l0.253,-2.129l0.406,-2.13l0.659,-2.08l0.558,-1.267l0.76,-1.166l0.914,-1.014l1.065,-0.913l1.267,-0.812l1.42,-0.658l1.471,-0.508l1.52,-0.303l1.522,-0.102Z" style="fill:#fff;fill-rule:nonzero;"/></g><g><rect id="rect2538-2" x="324.078" y="28.751" width="48.829" height="57.502" style="fill:#00703c;"/><path id="path1032" d="M338.276,71.902l0,-29.157l19.573,29.157l7.657,-0l-0,-40.261l-6.896,-0l-0,29.105l-19.523,-29.105l-7.707,-0l-0,40.261l6.896,-0Z" style="fill:#fff;fill-rule:nonzero;"/></g><g><rect id="rect2429" x="372.908" y="28.751" width="38.486" height="57.502" style="fill:#00703c;"/><path id="path1098" d="M380.209,71.852l26.469,-0l0,-6.136l-19.522,0l0,-11.105l16.835,0l-0,-6.135l-16.835,-0l0,-10.75l18.356,-0l0,-6.085l-25.303,0l0,40.211Z" style="fill:#fff;fill-rule:nonzero;"/></g></g><g><g><rect id="rect25551" serif:id="rect2555" x="88.678" y="28.751" width="45.382" height="57.502" style="fill:#00703c;"/><path id="path10261" serif:id="path1026" d="M111.902,30.374l-2.688,0.151l-2.637,0.406l-1.672,0.558l-1.623,0.761l-1.522,0.912l-1.47,1.066l-1.319,1.166l-1.166,1.369l-1.065,1.419l-0.963,1.623l-0.812,1.775l-0.658,1.774l-0.457,1.877l-0.405,2.129l-0.203,2.18l-0.102,2.232l0.102,2.18l0.203,2.18l0.405,2.182l0.457,1.875l0.658,1.775l0.812,1.724l0.963,1.673l1.065,1.42l1.166,1.319l1.319,1.217l1.47,1.064l1.522,0.913l1.623,0.71l1.672,0.608l2.637,0.406l2.688,0.102l2.687,-0.102l2.637,-0.406l1.725,-0.608l1.571,-0.71l1.572,-0.913l1.42,-1.064l1.318,-1.217l1.217,-1.319l1.014,-1.42l1.014,-1.673l0.761,-1.724l0.659,-1.775l0.457,-1.875l0.406,-2.182l0.252,-2.18l0.102,-2.18l-0.102,-2.232l-0.252,-2.18l-0.406,-2.129l-0.457,-1.877l-0.659,-1.774l-0.761,-1.775l-1.014,-1.623l-1.014,-1.419l-1.217,-1.369l-1.318,-1.166l-1.42,-1.066l-1.572,-0.912l-1.571,-0.761l-1.725,-0.558l-2.637,-0.406l-2.687,-0.151Zm-0,6.135l1.572,0.102l1.471,0.303l1.47,0.508l1.419,0.658l1.318,0.812l1.016,0.913l0.912,1.014l0.76,1.166l0.609,1.267l0.608,2.08l0.457,2.13l0.254,2.129l0.05,2.181l-0.05,2.18l-0.254,2.129l-0.457,2.131l-0.608,2.079l-0.609,1.267l-0.76,1.116l-0.912,1.064l-1.016,0.863l-1.318,0.862l-1.419,0.658l-1.47,0.457l-1.471,0.305l-1.572,0.101l-1.522,-0.101l-1.52,-0.305l-1.471,-0.457l-1.42,-0.658l-1.267,-0.862l-1.065,-0.863l-0.913,-1.064l-0.761,-1.116l-0.558,-1.267l-0.659,-2.079l-0.406,-2.131l-0.253,-2.129l-0.101,-2.18l0.101,-2.181l0.253,-2.129l0.406,-2.13l0.659,-2.08l0.558,-1.267l0.761,-1.166l0.913,-1.014l1.065,-0.913l1.267,-0.812l1.42,-0.658l1.471,-0.508l1.52,-0.303l1.522,-0.102Z" style="fill:#fff;fill-rule:nonzero;"/></g><g><rect id="rect2538" x="134.06" y="28.751" width="53.446" height="57.502" style="fill:#00703c;"/><path id="path974" d="M160.732,57.704l12.474,-16.581l0,30.779l6.896,0l0,-40.261l-7.859,0l-11.511,15.364l-11.51,-15.364l-7.86,0l0,40.261l6.896,0l0,-30.779l12.474,16.581Z" style="fill:#fff;fill-rule:nonzero;"/></g><g><rect id="rect2429-0-8-6" x="42.129" y="28.751" width="46.549" height="57.502" style="fill:#00703c;"/><path id="path1002" d="M74.379,47.36l-18.001,0l-0,-15.719l-6.896,0l-0,40.261l6.896,0l-0,-18.406l18.001,-0l-0,18.406l6.896,0l-0,-40.261l-6.896,0l-0,15.719Z" style="fill:#fff;fill-rule:nonzero;"/></g><g><rect id="rect24291" serif:id="rect2429" x="187.506" y="28.751" width="38.486" height="57.502" style="fill:#00703c;"/><path id="path10981" serif:id="path1098" d="M194.808,71.852l26.469,-0l-0,-6.136l-19.522,0l-0,-11.105l16.834,0l0,-6.135l-16.834,-0l-0,-10.75l18.356,-0l-0,-6.085l-25.303,0l-0,40.211Z" style="fill:#fff;fill-rule:nonzero;"/></g></g></g><g><g><g><rect id="rect2467-3" x="183.723" y="93.44" width="15.827" height="39.532" style="fill:#00703c;"/><path id="path3241" d="M194.007,103.34l-0.837,0.349l-0.767,0.488l-0.697,0.558l-0.628,0.697l0,-2.092l-4.322,0l-0,19.767l4.322,-0l0,-11.435l0.14,-0.767l0.279,-0.732l0.418,-0.697l0.523,-0.593l0.593,-0.488l0.697,-0.383l0.732,-0.279l1.359,-0.244l1.325,-0.07l0,-4.497l-1.115,0.035l-1.116,0.174l-0.906,0.209Z" style="fill:#fff;fill-rule:nonzero;"/></g><g><rect id="rect2324-5-8-8-3" x="199.55" y="93.44" width="10.633" height="39.532" style="fill:#00703c;"/><path id="path3289" d="M204.325,95.427c-0.197,0 -0.4,-0.005 -0.592,0.035c-0.192,0.041 -0.384,0.122 -0.558,0.209c-0.173,0.086 -0.338,0.192 -0.488,0.314c-0.151,0.122 -0.297,0.268 -0.419,0.419c-0.121,0.15 -0.226,0.314 -0.313,0.487c-0.087,0.174 -0.168,0.366 -0.209,0.558c-0.041,0.192 -0.035,0.395 -0.035,0.593c-0,0.198 -0.006,0.401 0.035,0.592c0.041,0.192 0.122,0.383 0.209,0.558c0.087,0.173 0.192,0.338 0.313,0.488c0.122,0.151 0.268,0.296 0.419,0.418c0.151,0.122 0.315,0.228 0.488,0.314c0.174,0.087 0.366,0.163 0.558,0.21c0.192,0.046 0.395,0.069 0.592,0.069c0.198,0 0.401,-0.023 0.593,-0.069c0.192,-0.047 0.384,-0.123 0.558,-0.21c0.173,-0.086 0.337,-0.192 0.488,-0.314c0.151,-0.122 0.297,-0.267 0.419,-0.418c0.121,-0.15 0.226,-0.315 0.313,-0.488c0.087,-0.175 0.163,-0.366 0.209,-0.558c0.047,-0.191 0.07,-0.394 0.07,-0.592c-0,-0.198 -0.023,-0.401 -0.07,-0.593c-0.046,-0.192 -0.122,-0.384 -0.209,-0.558c-0.087,-0.173 -0.192,-0.337 -0.313,-0.487c-0.122,-0.151 -0.268,-0.297 -0.419,-0.419c-0.151,-0.122 -0.315,-0.228 -0.488,-0.314c-0.174,-0.087 -0.366,-0.168 -0.558,-0.209c-0.192,-0.04 -0.395,-0.035 -0.593,-0.035Zm-2.161,7.879l-0,19.766l4.323,-0l0,-19.766l-4.323,-0Z" style="fill:#fff;fill-rule:nonzero;"/></g><g><rect id="rect2324" x="229.565" y="93.44" width="21.544" height="39.532" style="fill:#00703c;"/><path id="path3699" d="M239.918,102.817c-0.36,0.006 -0.723,0.047 -1.08,0.105c-0.36,0.058 -0.732,0.146 -1.081,0.244c-0.343,0.097 -0.682,0.21 -1.011,0.348c-0.331,0.14 -0.674,0.32 -0.976,0.489c-0.287,0.16 -0.572,0.327 -0.837,0.523c-0.267,0.197 -0.528,0.429 -0.766,0.662c-0.236,0.23 -0.464,0.47 -0.663,0.733c-0.232,0.307 -0.511,0.737 -0.732,1.114c-0.217,0.373 -0.414,0.758 -0.593,1.151c-0.18,0.395 -0.348,0.808 -0.487,1.221c-0.139,0.411 -0.262,0.83 -0.349,1.254c-0.088,0.424 -0.135,0.858 -0.175,1.29c-0.04,0.436 -0.069,0.889 -0.069,1.325c0,0.43 0.017,0.862 0.069,1.29c0.052,0.43 0.145,0.865 0.244,1.289c0.099,0.423 0.21,0.844 0.349,1.256c0.14,0.412 0.302,0.824 0.488,1.219c0.186,0.395 0.401,0.785 0.627,1.151c0.224,0.362 0.462,0.718 0.733,1.046c0.273,0.331 0.581,0.663 0.906,0.941c0.323,0.277 0.686,0.506 1.046,0.732c0.36,0.227 0.728,0.448 1.115,0.628c0.39,0.18 0.82,0.337 1.221,0.453c0.387,0.112 0.786,0.181 1.185,0.244c0.406,0.063 0.842,0.122 1.255,0.139c0.407,0.017 0.815,-0 1.22,-0.035c0.413,-0.035 0.848,-0.093 1.255,-0.174c0.401,-0.08 0.799,-0.181 1.186,-0.313c0.389,-0.134 0.777,-0.303 1.149,-0.489c0.454,-0.227 1.198,-0.651 1.57,-0.871c0.23,-0.137 0.449,-0.292 0.662,-0.453c0.215,-0.163 0.627,-0.523 0.627,-0.523l-2.719,-3.208c-0,0 -0.478,0.409 -0.732,0.594c-0.256,0.186 -0.523,0.371 -0.802,0.522c-0.279,0.151 -0.575,0.284 -0.871,0.383c-0.294,0.098 -0.601,0.158 -0.907,0.21c-0.308,0.052 -0.65,0.087 -0.941,0.104c-0.267,0.016 -0.535,0.017 -0.802,0c-0.273,-0.017 -0.575,-0.052 -0.836,-0.104c-0.249,-0.05 -0.495,-0.119 -0.732,-0.21c-0.244,-0.093 -0.506,-0.214 -0.732,-0.348c-0.223,-0.131 -0.432,-0.286 -0.628,-0.454c-0.198,-0.168 -0.395,-0.354 -0.558,-0.557c-0.162,-0.203 -0.296,-0.436 -0.418,-0.662c-0.121,-0.225 -0.228,-0.457 -0.314,-0.697c-0.087,-0.244 -0.168,-0.506 -0.209,-0.768c-0.041,-0.261 -0.035,-0.802 -0.035,-0.802l13.317,0c0,0 -0.006,-1.162 -0.035,-1.743c-0.029,-0.581 -0.07,-1.167 -0.139,-1.743c-0.07,-0.572 -0.198,-1.29 -0.28,-1.708c-0.052,-0.271 -0.123,-0.539 -0.208,-0.802c-0.087,-0.267 -0.198,-0.546 -0.314,-0.801c-0.114,-0.251 -0.245,-0.495 -0.384,-0.732c-0.157,-0.268 -0.354,-0.593 -0.557,-0.872c-0.204,-0.279 -0.43,-0.546 -0.663,-0.802c-0.232,-0.255 -0.47,-0.511 -0.732,-0.731c-0.261,-0.221 -0.548,-0.409 -0.836,-0.594c-0.291,-0.186 -0.599,-0.366 -0.907,-0.522c-0.306,-0.156 -0.618,-0.303 -0.941,-0.418c-0.325,-0.116 -0.669,-0.205 -1.011,-0.279c-0.349,-0.076 -0.721,-0.134 -1.081,-0.175c-0.359,-0.04 -0.721,-0.075 -1.081,-0.07Zm-0.07,3.94c0.256,-0.017 0.518,0.006 0.768,0.035c0.247,0.029 0.493,0.071 0.732,0.139c0.244,0.069 0.505,0.168 0.732,0.279c0.22,0.107 0.43,0.238 0.627,0.384c0.204,0.151 0.419,0.337 0.593,0.522c0.171,0.182 0.315,0.386 0.453,0.593c0.14,0.209 0.28,0.436 0.384,0.663c0.103,0.223 0.18,0.47 0.244,0.697c0.061,0.217 0.106,0.439 0.139,0.662c0.035,0.232 0.07,0.732 0.07,0.732l-8.925,-0c0,-0 0.093,-0.68 0.175,-1.011c0.081,-0.331 0.186,-0.662 0.314,-0.976c0.127,-0.312 0.296,-0.656 0.453,-0.906c0.136,-0.217 0.308,-0.413 0.488,-0.593c0.18,-0.18 0.383,-0.348 0.593,-0.488c0.207,-0.138 0.432,-0.251 0.662,-0.349c0.232,-0.099 0.482,-0.18 0.732,-0.244c0.249,-0.064 0.511,-0.122 0.766,-0.139Z" style="fill:#fff;fill-rule:nonzero;"/></g><g><rect id="rect2322" x="160.157" y="93.44" width="23.566" height="39.532" style="fill:#00703c;"/><path id="path3665" d="M175.565,95.427l0,9.343c0,-0 -0.226,-0.218 -0.349,-0.314c-0.186,-0.145 -0.498,-0.392 -0.767,-0.558c-0.273,-0.168 -0.581,-0.32 -0.871,-0.453c-0.284,-0.131 -0.573,-0.256 -0.872,-0.348c-0.302,-0.093 -0.623,-0.163 -0.941,-0.21c-0.319,-0.046 -0.656,-0.064 -0.975,-0.07c-0.314,-0.005 -0.629,0.003 -0.942,0.035c-0.337,0.035 -0.726,0.093 -1.081,0.175c-0.354,0.081 -0.705,0.187 -1.046,0.314c-0.342,0.128 -0.685,0.284 -1.011,0.453c-0.324,0.167 -0.656,0.365 -0.941,0.557c-0.268,0.181 -0.524,0.38 -0.767,0.593c-0.244,0.215 -0.479,0.451 -0.697,0.697c-0.221,0.25 -0.431,0.525 -0.627,0.802c-0.209,0.296 -0.442,0.639 -0.628,0.976c-0.186,0.337 -0.343,0.692 -0.488,1.046c-0.145,0.354 -0.289,0.71 -0.384,1.08c-0.11,0.43 -0.208,1 -0.278,1.5c-0.069,0.497 -0.116,0.999 -0.14,1.499c-0.023,0.499 -0.029,1 0,1.499c0.029,0.499 0.088,1.003 0.175,1.499c0.087,0.5 0.232,1.075 0.348,1.499c0.097,0.354 0.21,0.706 0.349,1.046c0.139,0.343 0.302,0.691 0.488,1.01c0.184,0.318 0.404,0.615 0.628,0.907c0.226,0.296 0.476,0.604 0.732,0.871c0.25,0.262 0.516,0.51 0.801,0.733c0.291,0.227 0.622,0.436 0.942,0.627c0.316,0.19 0.639,0.372 0.976,0.523c0.337,0.151 0.72,0.279 1.045,0.384c0.298,0.096 0.604,0.186 0.906,0.244c0.299,0.057 0.605,0.086 0.907,0.104c0.301,0.017 0.605,0.017 0.906,-0c0.308,-0.018 0.639,-0.046 0.942,-0.104c0.296,-0.057 0.584,-0.152 0.871,-0.244c0.291,-0.093 0.59,-0.188 0.872,-0.314c0.284,-0.128 0.575,-0.29 0.836,-0.453c0.255,-0.159 0.552,-0.384 0.732,-0.524c0.124,-0.095 0.349,-0.313 0.349,-0.313l0,1.534l4.358,-0l-0,-27.645l-4.358,0Zm-4.392,11.678c0.244,0 0.49,-0.004 0.732,0.035c0.249,0.041 0.522,0.128 0.766,0.21c0.238,0.079 0.477,0.163 0.698,0.279c0.221,0.116 0.431,0.261 0.628,0.418c0.203,0.162 0.418,0.354 0.592,0.558c0.174,0.203 0.332,0.43 0.454,0.662c0.121,0.231 0.209,0.48 0.278,0.732c0.069,0.256 0.139,0.802 0.139,0.802l0,4.567c0,-0 -0.07,0.546 -0.139,0.801c-0.069,0.252 -0.157,0.501 -0.278,0.732c-0.122,0.233 -0.28,0.459 -0.454,0.663c-0.174,0.203 -0.389,0.395 -0.592,0.558c-0.197,0.157 -0.408,0.296 -0.628,0.418c-0.221,0.122 -0.456,0.233 -0.698,0.314c-0.244,0.081 -0.517,0.134 -0.766,0.174c-0.242,0.04 -0.487,0.069 -0.732,0.069c-0.25,0 -0.517,-0.022 -0.767,-0.069c-0.25,-0.046 -0.494,-0.122 -0.732,-0.209c-0.238,-0.087 -0.476,-0.192 -0.697,-0.314c-0.22,-0.122 -0.431,-0.262 -0.628,-0.418c-0.198,-0.157 -0.391,-0.331 -0.558,-0.523c-0.186,-0.215 -0.391,-0.498 -0.557,-0.767c-0.169,-0.273 -0.326,-0.575 -0.454,-0.872c-0.127,-0.293 -0.228,-0.598 -0.314,-0.906c-0.087,-0.314 -0.162,-0.657 -0.208,-0.976c-0.046,-0.312 -0.07,-0.627 -0.07,-0.942c-0,-0.319 0.023,-0.657 0.07,-0.976c0.046,-0.318 0.122,-0.631 0.208,-0.94c0.087,-0.314 0.186,-0.645 0.314,-0.942c0.126,-0.291 0.287,-0.566 0.454,-0.836c0.168,-0.273 0.371,-0.581 0.557,-0.802c0.164,-0.195 0.36,-0.367 0.558,-0.524c0.197,-0.156 0.408,-0.296 0.628,-0.417c0.221,-0.122 0.459,-0.227 0.697,-0.314c0.238,-0.088 0.482,-0.169 0.732,-0.21c0.25,-0.041 0.517,-0.035 0.767,-0.035Z" style="fill:#fff;fill-rule:nonzero;"/></g><g><rect id="rect2594" x="210.182" y="93.44" width="19.383" height="39.532" style="fill:#00703c;"/><path id="path2108" d="M210.705,103.34l4.567,0l4.392,13.736l4.393,-13.736l4.567,0l-6.345,19.767l-5.264,-0l-6.31,-19.767Z" style="fill:#fff;fill-rule:nonzero;"/></g></g><g><g><rect id="rect2467-31" serif:id="rect2467-3" x="305.75" y="93.44" width="15.827" height="39.532" style="fill:#00703c;"/><path id="path32411" serif:id="path3241" d="M316.034,103.34l-0.837,0.349l-0.767,0.488l-0.697,0.558l-0.628,0.697l0,-2.092l-4.322,0l-0,19.767l4.322,-0l0,-11.435l0.14,-0.767l0.279,-0.732l0.418,-0.697l0.523,-0.593l0.593,-0.488l0.697,-0.383l0.732,-0.279l1.36,-0.244l1.324,-0.07l0,-4.497l-1.115,0.035l-1.116,0.174l-0.906,0.209Z" style="fill:#fff;fill-rule:nonzero;"/></g><g><rect id="rect2431" x="380.799" y="93.44" width="12.305" height="39.532" style="fill:#00703c;"/><path id="path3067" d="M390.629,119.412c0.43,-0.03 1.29,-0.175 1.29,-0.175l0.488,3.87c0,-0 -0.878,0.21 -1.324,0.279c-0.454,0.069 -0.936,0.122 -1.395,0.139c-0.453,0.017 -0.907,-0.006 -1.359,-0.035c-0.459,-0.029 -1.052,-0.093 -1.395,-0.139c-0.223,-0.031 -0.447,-0.072 -0.662,-0.14c-0.221,-0.069 -0.459,-0.168 -0.663,-0.279c-0.198,-0.107 -0.379,-0.245 -0.557,-0.383c-0.18,-0.14 -0.366,-0.285 -0.523,-0.453c-0.157,-0.169 -0.291,-0.366 -0.419,-0.558c-0.127,-0.191 -0.255,-0.384 -0.348,-0.593c-0.093,-0.209 -0.157,-0.441 -0.209,-0.662c-0.052,-0.218 -0.105,-0.662 -0.105,-0.662l0,-24.194l4.358,0l-0,21.928c-0,-0 0.058,0.679 0.104,0.906c0.033,0.159 0.089,0.316 0.175,0.453c0.087,0.14 0.22,0.279 0.348,0.384c0.125,0.102 0.267,0.191 0.419,0.244c0.151,0.052 0.323,0.063 0.488,0.069c0.296,0.012 0.86,0.029 1.289,0.001Z" style="fill:#fff;fill-rule:nonzero;"/></g><g><rect id="rect24311" serif:id="rect2431" x="393.105" y="93.44" width="12.305" height="39.532" style="fill:#00703c;"/><path id="path30671" serif:id="path3067" d="M402.935,119.412c0.43,-0.03 1.29,-0.175 1.29,-0.175l0.488,3.87c-0,-0 -0.879,0.21 -1.325,0.279c-0.453,0.069 -0.936,0.122 -1.395,0.139c-0.453,0.017 -0.907,-0.006 -1.359,-0.035c-0.459,-0.029 -1.052,-0.093 -1.395,-0.139c-0.223,-0.031 -0.447,-0.072 -0.662,-0.14c-0.221,-0.069 -0.459,-0.168 -0.662,-0.279c-0.199,-0.107 -0.38,-0.245 -0.558,-0.383c-0.18,-0.14 -0.366,-0.285 -0.523,-0.453c-0.157,-0.169 -0.29,-0.366 -0.418,-0.558c-0.127,-0.191 -0.256,-0.384 -0.349,-0.593c-0.093,-0.209 -0.157,-0.441 -0.209,-0.662c-0.052,-0.218 -0.105,-0.662 -0.105,-0.662l0,-24.194l4.358,0l-0,21.928c-0,-0 0.058,0.679 0.105,0.906c0.032,0.159 0.088,0.316 0.174,0.453c0.087,0.14 0.221,0.279 0.348,0.384c0.125,0.102 0.268,0.191 0.419,0.244c0.151,0.052 0.324,0.063 0.488,0.069c0.296,0.012 0.861,0.029 1.29,0.001Z" style="fill:#fff;fill-rule:nonzero;"/></g><g><rect id="rect2324-5" x="343.121" y="93.44" width="14.816" height="39.532" style="fill:#00703c;"/><path id="path3615" d="M347.478,99.61c0.009,-0.259 0.076,-0.523 0.14,-0.767c0.062,-0.238 0.141,-0.473 0.244,-0.697c0.104,-0.226 0.238,-0.459 0.383,-0.662c0.144,-0.201 0.311,-0.386 0.488,-0.558c0.181,-0.174 0.384,-0.349 0.593,-0.488c0.208,-0.138 0.434,-0.248 0.662,-0.349c0.291,-0.127 0.714,-0.298 1.081,-0.418c0.372,-0.122 0.767,-0.238 1.151,-0.314c0.379,-0.074 0.766,-0.11 1.15,-0.139c0.382,-0.029 0.767,-0.052 1.15,-0.035c0.384,0.017 0.77,0.076 1.151,0.139c0.383,0.064 1.15,0.244 1.15,0.244l-0.348,3.835c-0,0 -0.651,-0.145 -0.977,-0.174c-0.324,-0.029 -0.652,-0.029 -0.976,-0c-0.325,0.029 -0.738,0.116 -0.976,0.174c-0.157,0.039 -0.309,0.1 -0.453,0.174c-0.145,0.076 -0.29,0.175 -0.418,0.279c-0.127,0.104 -0.25,0.221 -0.349,0.349c-0.099,0.128 -0.174,0.273 -0.244,0.418c-0.07,0.146 -0.134,0.297 -0.174,0.453c-0.041,0.157 -0.07,0.489 -0.07,0.489l0,1.743l3.591,-0l-0,3.695l-3.591,-0l0,16.071l-4.358,-0l0,-16.071l-3.172,-0l0,-3.695l3.172,-0c0,-0 -0.023,-2.952 0,-3.696Z" style="fill:#fff;fill-rule:nonzero;"/></g><g><rect id="rect23241" serif:id="rect2324" x="321.577" y="93.44" width="21.544" height="39.532" style="fill:#00703c;"/><path id="path36991" serif:id="path3699" d="M331.93,102.817c-0.36,0.006 -0.723,0.047 -1.08,0.105c-0.36,0.058 -0.732,0.146 -1.081,0.244c-0.343,0.097 -0.682,0.21 -1.011,0.348c-0.331,0.14 -0.674,0.32 -0.976,0.489c-0.287,0.16 -0.572,0.327 -0.837,0.523c-0.267,0.197 -0.529,0.429 -0.767,0.662c-0.235,0.23 -0.464,0.47 -0.662,0.733c-0.232,0.307 -0.511,0.737 -0.732,1.114c-0.218,0.373 -0.414,0.758 -0.593,1.151c-0.18,0.395 -0.348,0.808 -0.488,1.221c-0.139,0.411 -0.261,0.83 -0.349,1.254c-0.087,0.424 -0.134,0.858 -0.174,1.29c-0.041,0.436 -0.069,0.889 -0.069,1.325c-0,0.43 0.017,0.862 0.069,1.29c0.052,0.43 0.145,0.865 0.244,1.289c0.099,0.423 0.21,0.844 0.349,1.256c0.14,0.412 0.302,0.824 0.488,1.219c0.186,0.395 0.4,0.785 0.627,1.151c0.224,0.362 0.462,0.718 0.733,1.046c0.273,0.331 0.581,0.663 0.906,0.941c0.323,0.277 0.685,0.506 1.045,0.732c0.361,0.227 0.729,0.448 1.116,0.628c0.39,0.18 0.82,0.337 1.221,0.453c0.387,0.112 0.786,0.181 1.184,0.244c0.407,0.063 0.843,0.122 1.256,0.139c0.406,0.017 0.815,-0 1.22,-0.035c0.413,-0.035 0.848,-0.093 1.255,-0.174c0.401,-0.08 0.799,-0.181 1.185,-0.313c0.39,-0.134 0.778,-0.303 1.15,-0.489c0.453,-0.227 1.198,-0.651 1.57,-0.871c0.23,-0.137 0.448,-0.292 0.662,-0.453c0.215,-0.163 0.627,-0.523 0.627,-0.523l-2.719,-3.208c-0,0 -0.478,0.409 -0.732,0.594c-0.256,0.186 -0.523,0.371 -0.802,0.522c-0.279,0.151 -0.575,0.284 -0.871,0.383c-0.295,0.098 -0.601,0.158 -0.907,0.21c-0.308,0.052 -0.651,0.087 -0.941,0.104c-0.267,0.016 -0.535,0.017 -0.802,0c-0.273,-0.017 -0.575,-0.052 -0.837,-0.104c-0.248,-0.05 -0.494,-0.119 -0.731,-0.21c-0.244,-0.093 -0.506,-0.214 -0.732,-0.348c-0.223,-0.131 -0.432,-0.286 -0.629,-0.454c-0.197,-0.168 -0.394,-0.354 -0.557,-0.557c-0.163,-0.203 -0.296,-0.436 -0.418,-0.662c-0.121,-0.225 -0.228,-0.457 -0.314,-0.697c-0.087,-0.244 -0.169,-0.506 -0.209,-0.768c-0.041,-0.261 -0.035,-0.802 -0.035,-0.802l13.317,0c-0,0 -0.006,-1.162 -0.035,-1.743c-0.029,-0.581 -0.07,-1.167 -0.14,-1.743c-0.069,-0.572 -0.197,-1.29 -0.279,-1.708c-0.052,-0.271 -0.123,-0.539 -0.208,-0.802c-0.087,-0.267 -0.198,-0.546 -0.314,-0.801c-0.114,-0.251 -0.245,-0.495 -0.384,-0.732c-0.157,-0.268 -0.355,-0.593 -0.558,-0.872c-0.203,-0.279 -0.429,-0.546 -0.662,-0.802c-0.232,-0.255 -0.47,-0.511 -0.732,-0.731c-0.261,-0.221 -0.548,-0.409 -0.836,-0.594c-0.291,-0.186 -0.599,-0.366 -0.907,-0.522c-0.306,-0.156 -0.618,-0.303 -0.941,-0.418c-0.326,-0.116 -0.669,-0.205 -1.011,-0.279c-0.349,-0.076 -0.721,-0.134 -1.081,-0.175c-0.359,-0.04 -0.721,-0.075 -1.081,-0.07Zm-0.07,3.94c0.256,-0.017 0.518,0.006 0.768,0.035c0.247,0.029 0.493,0.071 0.732,0.139c0.244,0.069 0.505,0.168 0.732,0.279c0.22,0.107 0.43,0.238 0.627,0.384c0.203,0.151 0.419,0.337 0.593,0.522c0.17,0.182 0.315,0.386 0.453,0.593c0.14,0.209 0.279,0.436 0.384,0.663c0.103,0.223 0.179,0.47 0.243,0.697c0.062,0.217 0.106,0.439 0.14,0.662c0.035,0.232 0.07,0.732 0.07,0.732l-8.925,-0c0,-0 0.093,-0.68 0.175,-1.011c0.081,-0.331 0.186,-0.662 0.314,-0.976c0.127,-0.312 0.296,-0.656 0.452,-0.906c0.137,-0.217 0.309,-0.413 0.489,-0.593c0.18,-0.18 0.383,-0.348 0.592,-0.488c0.208,-0.138 0.433,-0.251 0.662,-0.349c0.233,-0.099 0.483,-0.18 0.732,-0.244c0.25,-0.064 0.511,-0.122 0.767,-0.139Z" style="fill:#fff;fill-rule:nonzero;"/></g><g><rect id="rect2318" x="263.463" y="93.44" width="20.359" height="39.532" style="fill:#00703c;"/><path id="path3825" d="M282.079,118.261c-0,-0 -0.355,0.668 -0.558,0.976c-0.201,0.305 -0.425,0.594 -0.662,0.872c-0.239,0.278 -0.5,0.552 -0.767,0.801c-0.265,0.248 -0.543,0.484 -0.837,0.698c-0.296,0.215 -0.622,0.412 -0.941,0.592c-0.317,0.179 -0.64,0.349 -0.976,0.488c-0.337,0.14 -0.692,0.256 -1.046,0.349c-0.355,0.093 -0.718,0.157 -1.081,0.209c-0.366,0.052 -0.749,0.099 -1.115,0.105c-0.361,0.005 -0.722,-0.03 -1.081,-0.07c-0.366,-0.041 -0.755,-0.099 -1.116,-0.174c-0.353,-0.074 -0.706,-0.158 -1.045,-0.279c-0.343,-0.122 -0.686,-0.285 -1.011,-0.453c-0.324,-0.168 -0.64,-0.355 -0.942,-0.558c-0.302,-0.204 -0.605,-0.413 -0.871,-0.663c-0.285,-0.267 -0.587,-0.61 -0.837,-0.941c-0.248,-0.329 -0.455,-0.689 -0.662,-1.046c-0.209,-0.36 -0.419,-0.738 -0.593,-1.115c-0.173,-0.374 -0.326,-0.758 -0.453,-1.151c-0.128,-0.395 -0.232,-0.813 -0.314,-1.22c-0.08,-0.403 -0.134,-0.811 -0.174,-1.22c-0.041,-0.412 -0.07,-0.837 -0.07,-1.255c0,-0.418 0.029,-0.838 0.07,-1.255c0.041,-0.418 0.093,-0.848 0.174,-1.255c0.08,-0.401 0.188,-0.796 0.314,-1.185c0.128,-0.395 0.279,-0.802 0.453,-1.185c0.174,-0.384 0.384,-0.762 0.593,-1.116c0.205,-0.347 0.42,-0.689 0.662,-1.011c0.25,-0.331 0.552,-0.703 0.837,-0.976c0.263,-0.253 0.569,-0.459 0.871,-0.662c0.302,-0.204 0.616,-0.395 0.942,-0.558c0.325,-0.163 0.668,-0.296 1.011,-0.418c0.342,-0.122 0.69,-0.234 1.045,-0.314c0.361,-0.082 0.75,-0.14 1.116,-0.175c0.359,-0.034 0.72,-0.04 1.081,-0.034c0.366,0.005 0.749,0.017 1.115,0.069c0.366,0.053 0.726,0.146 1.081,0.244c0.354,0.099 0.709,0.215 1.046,0.349c0.333,0.132 0.661,0.281 0.976,0.453c0.319,0.174 0.645,0.378 0.941,0.593c0.294,0.213 0.572,0.449 0.837,0.697c0.267,0.25 0.529,0.518 0.767,0.802c0.238,0.284 0.459,0.598 0.662,0.906c0.201,0.305 0.558,0.941 0.558,0.941l-3.661,1.813c0,0 -0.216,-0.473 -0.348,-0.697c-0.134,-0.227 -0.285,-0.459 -0.453,-0.662c-0.168,-0.203 -0.359,-0.387 -0.558,-0.558c-0.204,-0.174 -0.436,-0.349 -0.663,-0.488c-0.221,-0.136 -0.456,-0.251 -0.697,-0.349c-0.244,-0.099 -0.505,-0.186 -0.767,-0.244c-0.261,-0.058 -0.534,-0.099 -0.802,-0.104c-0.267,-0.006 -0.54,0.023 -0.801,0.069c-0.261,0.047 -0.519,0.117 -0.767,0.209c-0.25,0.093 -0.506,0.204 -0.732,0.349c-0.227,0.145 -0.43,0.337 -0.628,0.523c-0.198,0.186 -0.395,0.378 -0.558,0.593c-0.162,0.215 -0.297,0.454 -0.418,0.697c-0.122,0.244 -0.217,0.508 -0.314,0.767c-0.11,0.296 -0.262,0.665 -0.348,1.011c-0.088,0.348 -0.14,0.72 -0.175,1.08c-0.035,0.359 -0.035,0.721 -0.035,1.081c0,0.36 0,0.726 0.035,1.081c0.035,0.352 0.089,0.703 0.175,1.046c0.087,0.348 0.238,0.749 0.348,1.045c0.093,0.249 0.193,0.496 0.314,0.733c0.122,0.238 0.257,0.479 0.418,0.697c0.163,0.221 0.36,0.441 0.558,0.627c0.193,0.182 0.402,0.349 0.627,0.488c0.227,0.14 0.483,0.256 0.733,0.349c0.248,0.092 0.506,0.163 0.766,0.209c0.262,0.047 0.535,0.076 0.802,0.07c0.268,-0.006 0.541,-0.052 0.802,-0.105c0.26,-0.052 0.523,-0.11 0.767,-0.209c0.244,-0.099 0.471,-0.244 0.697,-0.383c0.227,-0.14 0.46,-0.279 0.663,-0.454c0.203,-0.174 0.389,-0.389 0.557,-0.592c0.165,-0.199 0.323,-0.405 0.454,-0.628c0.133,-0.226 0.348,-0.732 0.348,-0.732l3.661,1.813Z" style="fill:#fff;fill-rule:nonzero;"/></g><g><rect id="rect2316" x="283.822" y="93.44" width="21.928" height="39.532" style="fill:#00703c;"/><path id="path3871" d="M294.384,102.852c-0.429,-0.005 -0.861,-0.004 -1.289,0.035c-0.511,0.047 -1.189,0.141 -1.778,0.245c-0.593,0.104 -1.197,0.226 -1.778,0.382c-0.578,0.157 -1.146,0.35 -1.708,0.559c-0.564,0.209 -1.674,0.697 -1.674,0.697l1.569,3.451c0,0 0.992,-0.414 1.499,-0.592c0.511,-0.18 1.046,-0.355 1.569,-0.489c0.516,-0.132 1.04,-0.238 1.568,-0.313c0.529,-0.075 1.226,-0.116 1.604,-0.14c0.22,-0.013 0.444,-0.028 0.663,0c0.221,0.029 0.453,0.099 0.662,0.175c0.205,0.074 0.406,0.168 0.592,0.278c0.186,0.111 0.39,0.268 0.524,0.384c0.105,0.092 0.21,0.191 0.278,0.313c0.081,0.145 0.163,0.373 0.209,0.559c0.046,0.181 0.07,0.557 0.07,0.557l0,1.603c0,0 -2.024,0.193 -3.033,0.315c-1.011,0.122 -2.376,0.319 -3.033,0.417c-0.304,0.046 -0.609,0.095 -0.906,0.175c-0.302,0.081 -0.622,0.192 -0.906,0.314c-0.277,0.119 -0.544,0.263 -0.802,0.418c-0.262,0.157 -0.523,0.337 -0.767,0.523c-0.243,0.185 -0.487,0.371 -0.697,0.593c-0.215,0.226 -0.419,0.499 -0.593,0.766c-0.174,0.266 -0.325,0.547 -0.453,0.837c-0.128,0.291 -0.239,0.599 -0.314,0.907c-0.076,0.307 -0.117,0.624 -0.14,0.941c-0.023,0.319 -0.029,0.656 0,0.976c0.029,0.318 0.093,0.633 0.175,0.941c0.081,0.308 0.186,0.616 0.314,0.907c0.128,0.29 0.279,0.571 0.453,0.836c0.174,0.268 0.378,0.535 0.593,0.767c0.212,0.23 0.451,0.435 0.697,0.627c0.267,0.21 0.593,0.437 0.906,0.629c0.314,0.191 0.64,0.377 0.976,0.522c0.337,0.145 0.697,0.25 1.046,0.349c0.344,0.098 0.691,0.192 1.046,0.244c0.36,0.052 0.749,0.069 1.115,0.069c0.361,0 0.724,-0.018 1.081,-0.069c0.36,-0.053 0.726,-0.145 1.08,-0.244c0.354,-0.099 0.709,-0.204 1.046,-0.349c0.337,-0.145 0.977,-0.522 0.977,-0.522l0.906,-0.629c-0,0 0.447,0.489 0.697,0.698c0.25,0.209 0.523,0.39 0.802,0.558c0.279,0.168 0.57,0.325 0.871,0.453c0.302,0.127 0.942,0.314 0.942,0.314l2.196,-3.312c0,0 -0.447,-0.198 -0.662,-0.314c-0.215,-0.116 -0.471,-0.267 -0.628,-0.383c-0.119,-0.088 -0.226,-0.198 -0.313,-0.314c-0.087,-0.116 -0.157,-0.25 -0.21,-0.384c-0.052,-0.134 -0.104,-0.418 -0.104,-0.418l-0,-9.866c-0,0 -0.076,-0.63 -0.14,-0.941c-0.064,-0.314 -0.14,-0.639 -0.244,-0.941c-0.104,-0.3 -0.232,-0.599 -0.383,-0.872c-0.15,-0.271 -0.335,-0.521 -0.523,-0.767c-0.192,-0.249 -0.401,-0.505 -0.628,-0.732c-0.226,-0.226 -0.476,-0.441 -0.732,-0.627c-0.253,-0.184 -0.524,-0.344 -0.801,-0.488c-0.279,-0.146 -0.565,-0.304 -0.872,-0.383c-0.36,-0.093 -0.858,-0.135 -1.289,-0.175c-0.436,-0.041 -0.89,-0.064 -1.326,-0.07Zm2.58,11.191l0,3.73c0,-0 -0.095,0.357 -0.174,0.522c-0.082,0.169 -0.192,0.344 -0.314,0.489c-0.121,0.145 -0.263,0.275 -0.418,0.383c-0.175,0.122 -0.411,0.246 -0.628,0.349c-0.22,0.105 -0.464,0.198 -0.697,0.279c-0.229,0.08 -0.465,0.162 -0.697,0.209c-0.229,0.045 -0.464,0.064 -0.698,0.069c-0.238,0.006 -0.493,-0.006 -0.731,-0.034c-0.236,-0.029 -0.471,-0.07 -0.698,-0.139c-0.226,-0.07 -0.452,-0.175 -0.662,-0.279c-0.205,-0.103 -0.43,-0.239 -0.593,-0.349c-0.136,-0.093 -0.273,-0.215 -0.383,-0.314c-0.098,-0.087 -0.203,-0.172 -0.279,-0.279c-0.087,-0.122 -0.19,-0.29 -0.244,-0.453c-0.064,-0.192 -0.122,-0.465 -0.14,-0.697c-0.017,-0.232 -0.006,-0.471 0.035,-0.697c0.041,-0.227 0.116,-0.465 0.209,-0.663c0.09,-0.189 0.216,-0.361 0.349,-0.523c0.134,-0.163 0.29,-0.325 0.453,-0.453c0.16,-0.125 0.338,-0.23 0.524,-0.314c0.191,-0.087 0.413,-0.154 0.627,-0.208c0.25,-0.064 0.579,-0.127 0.871,-0.175c0.5,-0.081 1.414,-0.239 2.126,-0.314c0.715,-0.075 2.162,-0.139 2.162,-0.139Z" style="fill:#fff;fill-rule:nonzero;"/></g><g><rect id="rect2596-6-8" x="405.41" y="93.44" width="19.383" height="39.532" style="fill:#00703c;"/><path id="path2246" d="M405.793,103.34l4.567,0l4.393,13.352l4.357,-13.352l4.602,0l-7.391,22.416c-1.368,4.952 -6.783,4.081 -9.308,3.486l0.733,-3.591c2.042,0.655 5.199,0.49 4.81,-1.708l-6.763,-20.603Z" style="fill:#fff;fill-rule:nonzero;"/></g><g><rect id="rect2592" x="358.035" y="93.44" width="22.765" height="39.532" style="fill:#00703c;"/><path id="path2064" d="M360.823,118.122l0,-14.781l4.323,-0l0,12.585c0.572,5.209 7.53,3.37 7.53,-0.489l0,-12.096l4.358,-0l-0,19.766l-4.358,-0l0,-1.708c-3.754,4.409 -11.853,1.003 -11.853,-3.277Z" style="fill:#fff;fill-rule:nonzero;"/></g></g><g><g><rect id="rect2465" x="28.731" y="93.44" width="23.357" height="39.532" style="fill:#00703c;"/><path id="path3143" d="M40.27,102.922c-0.304,0.017 -0.608,0.048 -0.907,0.105c-0.302,0.058 -0.616,0.15 -0.906,0.243c-0.284,0.091 -0.566,0.19 -0.837,0.314c-0.279,0.128 -0.575,0.291 -0.836,0.454c-0.255,0.158 -0.552,0.383 -0.732,0.523c-0.124,0.095 -0.349,0.314 -0.349,0.314l-0,-1.57l-4.358,0l0,25.972l4.358,-0.035l-0,-7.6c-0,0 0.225,0.218 0.349,0.314c0.186,0.145 0.499,0.389 0.766,0.558c0.268,0.168 0.549,0.321 0.837,0.453c0.291,0.134 0.599,0.256 0.907,0.348c0.307,0.093 0.627,0.163 0.941,0.21c0.311,0.046 0.627,0.064 0.941,0.07c0.32,0.005 0.652,-0.002 0.976,-0.035c0.343,-0.035 0.727,-0.088 1.081,-0.175c0.355,-0.087 0.709,-0.22 1.045,-0.348c0.331,-0.125 0.66,-0.26 0.977,-0.419c0.325,-0.162 0.685,-0.365 0.976,-0.557c0.269,-0.178 0.524,-0.379 0.767,-0.592c0.244,-0.216 0.48,-0.452 0.698,-0.698c0.22,-0.25 0.431,-0.525 0.627,-0.802c0.209,-0.296 0.441,-0.639 0.627,-0.976c0.186,-0.337 0.349,-0.691 0.489,-1.045c0.138,-0.353 0.254,-0.715 0.348,-1.081c0.11,-0.43 0.238,-0.999 0.314,-1.499c0.075,-0.497 0.116,-0.998 0.139,-1.5c0.024,-0.505 0.029,-1.028 0,-1.533c-0.029,-0.503 -0.087,-1.005 -0.174,-1.499c-0.087,-0.494 -0.233,-1.047 -0.349,-1.465c-0.098,-0.354 -0.21,-0.705 -0.348,-1.045c-0.14,-0.343 -0.303,-0.692 -0.489,-1.011c-0.184,-0.318 -0.404,-0.615 -0.627,-0.907c-0.226,-0.296 -0.47,-0.604 -0.732,-0.871c-0.259,-0.265 -0.546,-0.505 -0.837,-0.732c-0.289,-0.226 -0.592,-0.437 -0.906,-0.628c-0.314,-0.192 -0.639,-0.372 -0.976,-0.523c-0.337,-0.151 -0.721,-0.279 -1.046,-0.384c-0.298,-0.095 -0.604,-0.185 -0.907,-0.243c-0.298,-0.057 -0.602,-0.088 -0.906,-0.105c-0.308,-0.017 -0.633,-0.017 -0.941,0Zm-0.175,4.393c0.256,-0 0.517,0.023 0.767,0.07c0.25,0.046 0.495,0.128 0.733,0.209c0.237,0.081 0.478,0.157 0.697,0.278c0.221,0.122 0.43,0.297 0.627,0.454c0.193,0.153 0.396,0.301 0.558,0.488c0.186,0.214 0.39,0.523 0.558,0.801c0.168,0.279 0.325,0.576 0.453,0.872c0.126,0.293 0.227,0.599 0.314,0.906c0.087,0.308 0.163,0.623 0.209,0.942c0.047,0.319 0.07,0.65 0.07,0.976c-0,0.325 -0.023,0.656 -0.07,0.976c-0.046,0.318 -0.123,0.632 -0.209,0.941c-0.087,0.314 -0.186,0.645 -0.314,0.942c-0.126,0.291 -0.287,0.566 -0.453,0.836c-0.169,0.273 -0.372,0.581 -0.558,0.802c-0.164,0.195 -0.36,0.366 -0.558,0.523c-0.197,0.156 -0.407,0.297 -0.627,0.418c-0.221,0.122 -0.459,0.232 -0.697,0.313c-0.238,0.082 -0.485,0.135 -0.733,0.175c-0.25,0.041 -0.511,0.064 -0.767,0.07c-0.255,0.006 -0.517,0.006 -0.767,-0.035c-0.249,-0.041 -0.493,-0.128 -0.732,-0.21c-0.236,-0.08 -0.476,-0.162 -0.697,-0.278c-0.22,-0.116 -0.431,-0.262 -0.627,-0.419c-0.203,-0.162 -0.419,-0.354 -0.593,-0.557c-0.174,-0.203 -0.331,-0.43 -0.453,-0.662c-0.121,-0.232 -0.21,-0.481 -0.279,-0.733c-0.07,-0.256 -0.14,-0.802 -0.14,-0.802l0,-4.566c0,0 0.07,-0.546 0.14,-0.802c0.069,-0.252 0.158,-0.501 0.279,-0.732c0.122,-0.233 0.279,-0.46 0.453,-0.663c0.174,-0.203 0.39,-0.394 0.593,-0.557c0.196,-0.157 0.407,-0.297 0.627,-0.419c0.221,-0.122 0.459,-0.232 0.697,-0.313c0.238,-0.081 0.485,-0.134 0.732,-0.174c0.25,-0.041 0.512,-0.07 0.767,-0.07Z" style="fill:#fff;fill-rule:nonzero;"/></g><g><rect id="rect24312" serif:id="rect2431" x="52.088" y="93.44" width="12.305" height="39.532" style="fill:#00703c;"/><path id="path30672" serif:id="path3067" d="M61.918,119.412c0.43,-0.03 1.29,-0.175 1.29,-0.175l0.488,3.87c-0,-0 -0.879,0.21 -1.325,0.279c-0.453,0.069 -0.935,0.122 -1.394,0.139c-0.453,0.017 -0.908,-0.006 -1.36,-0.035c-0.459,-0.029 -1.052,-0.093 -1.394,-0.139c-0.224,-0.031 -0.448,-0.072 -0.663,-0.14c-0.221,-0.069 -0.459,-0.168 -0.662,-0.279c-0.198,-0.107 -0.379,-0.245 -0.558,-0.383c-0.18,-0.14 -0.366,-0.285 -0.523,-0.453c-0.157,-0.169 -0.29,-0.366 -0.418,-0.558c-0.127,-0.191 -0.256,-0.384 -0.349,-0.593c-0.093,-0.209 -0.157,-0.441 -0.209,-0.662c-0.051,-0.218 -0.105,-0.662 -0.105,-0.662l0,-24.194l4.358,0l0,21.928c0,-0 0.058,0.679 0.105,0.906c0.032,0.159 0.088,0.316 0.174,0.453c0.087,0.14 0.221,0.279 0.349,0.384c0.125,0.102 0.267,0.191 0.418,0.244c0.151,0.052 0.324,0.063 0.488,0.069c0.296,0.012 0.861,0.029 1.29,0.001Z" style="fill:#fff;fill-rule:nonzero;"/></g><g><rect id="rect23242" serif:id="rect2324" x="64.393" y="93.44" width="21.544" height="39.532" style="fill:#00703c;"/><path id="path36992" serif:id="path3699" d="M74.746,102.817c-0.36,0.006 -0.723,0.047 -1.08,0.105c-0.36,0.058 -0.732,0.146 -1.081,0.244c-0.343,0.097 -0.682,0.21 -1.011,0.348c-0.331,0.14 -0.674,0.32 -0.976,0.489c-0.287,0.16 -0.572,0.327 -0.837,0.523c-0.267,0.197 -0.528,0.429 -0.766,0.662c-0.236,0.23 -0.464,0.47 -0.663,0.733c-0.232,0.307 -0.511,0.737 -0.731,1.114c-0.218,0.373 -0.415,0.758 -0.594,1.151c-0.18,0.395 -0.348,0.808 -0.487,1.221c-0.139,0.411 -0.262,0.83 -0.349,1.254c-0.088,0.424 -0.135,0.858 -0.175,1.29c-0.04,0.436 -0.069,0.889 -0.069,1.325c0,0.43 0.017,0.862 0.069,1.29c0.052,0.43 0.146,0.865 0.244,1.289c0.099,0.423 0.21,0.844 0.349,1.256c0.14,0.412 0.302,0.824 0.488,1.219c0.186,0.395 0.401,0.785 0.627,1.151c0.224,0.362 0.462,0.718 0.733,1.046c0.273,0.331 0.581,0.663 0.907,0.941c0.322,0.277 0.685,0.506 1.045,0.732c0.36,0.227 0.728,0.448 1.116,0.628c0.389,0.18 0.819,0.337 1.22,0.453c0.387,0.112 0.786,0.181 1.185,0.244c0.406,0.063 0.842,0.122 1.255,0.139c0.407,0.017 0.815,-0 1.221,-0.035c0.412,-0.035 0.847,-0.093 1.254,-0.174c0.401,-0.08 0.799,-0.181 1.186,-0.313c0.389,-0.134 0.777,-0.303 1.149,-0.489c0.454,-0.227 1.198,-0.651 1.57,-0.871c0.23,-0.137 0.449,-0.292 0.662,-0.453c0.215,-0.163 0.627,-0.523 0.627,-0.523l-2.719,-3.208c0,0 -0.478,0.409 -0.732,0.594c-0.255,0.186 -0.523,0.371 -0.802,0.522c-0.278,0.151 -0.575,0.284 -0.871,0.383c-0.294,0.098 -0.601,0.158 -0.907,0.21c-0.308,0.052 -0.65,0.087 -0.941,0.104c-0.267,0.016 -0.535,0.017 -0.802,0c-0.273,-0.017 -0.575,-0.052 -0.836,-0.104c-0.249,-0.05 -0.495,-0.119 -0.732,-0.21c-0.244,-0.093 -0.505,-0.214 -0.732,-0.348c-0.223,-0.131 -0.432,-0.286 -0.628,-0.454c-0.198,-0.168 -0.395,-0.354 -0.558,-0.557c-0.162,-0.203 -0.296,-0.436 -0.418,-0.662c-0.12,-0.225 -0.228,-0.457 -0.314,-0.697c-0.087,-0.244 -0.168,-0.506 -0.209,-0.768c-0.041,-0.261 -0.035,-0.802 -0.035,-0.802l13.317,0c0,0 -0.006,-1.162 -0.035,-1.743c-0.029,-0.581 -0.069,-1.167 -0.139,-1.743c-0.07,-0.572 -0.198,-1.29 -0.279,-1.708c-0.053,-0.271 -0.123,-0.539 -0.209,-0.802c-0.087,-0.267 -0.198,-0.546 -0.314,-0.801c-0.114,-0.251 -0.244,-0.495 -0.384,-0.732c-0.157,-0.268 -0.354,-0.593 -0.557,-0.872c-0.204,-0.279 -0.43,-0.546 -0.662,-0.802c-0.233,-0.255 -0.471,-0.511 -0.732,-0.731c-0.262,-0.221 -0.549,-0.409 -0.837,-0.594c-0.291,-0.186 -0.599,-0.366 -0.906,-0.522c-0.306,-0.156 -0.618,-0.303 -0.942,-0.418c-0.325,-0.116 -0.669,-0.205 -1.011,-0.279c-0.349,-0.076 -0.72,-0.134 -1.081,-0.175c-0.359,-0.04 -0.72,-0.075 -1.081,-0.07Zm-0.069,3.94c0.255,-0.017 0.517,0.006 0.767,0.035c0.247,0.029 0.493,0.071 0.732,0.139c0.244,0.069 0.506,0.168 0.732,0.279c0.22,0.107 0.431,0.238 0.627,0.384c0.204,0.151 0.419,0.337 0.594,0.522c0.17,0.182 0.315,0.386 0.452,0.593c0.14,0.209 0.28,0.436 0.384,0.663c0.103,0.223 0.18,0.47 0.244,0.697c0.061,0.217 0.106,0.439 0.139,0.662c0.035,0.232 0.07,0.732 0.07,0.732l-8.925,-0c0,-0 0.093,-0.68 0.175,-1.011c0.081,-0.331 0.186,-0.662 0.314,-0.976c0.127,-0.312 0.296,-0.656 0.453,-0.906c0.136,-0.217 0.308,-0.413 0.488,-0.593c0.18,-0.18 0.384,-0.348 0.593,-0.488c0.207,-0.138 0.432,-0.251 0.662,-0.349c0.232,-0.099 0.483,-0.18 0.732,-0.244c0.25,-0.064 0.511,-0.122 0.767,-0.139Z" style="fill:#fff;fill-rule:nonzero;"/></g><g><rect id="rect23243" serif:id="rect2324" x="126.259" y="93.44" width="21.544" height="39.532" style="fill:#00703c;"/><path id="path36993" serif:id="path3699" d="M136.612,102.817c-0.36,0.006 -0.723,0.047 -1.08,0.105c-0.36,0.058 -0.732,0.146 -1.081,0.244c-0.343,0.097 -0.683,0.21 -1.011,0.348c-0.331,0.14 -0.674,0.32 -0.976,0.489c-0.287,0.16 -0.572,0.327 -0.837,0.523c-0.267,0.197 -0.529,0.429 -0.767,0.662c-0.235,0.23 -0.464,0.47 -0.662,0.733c-0.232,0.307 -0.511,0.737 -0.732,1.114c-0.218,0.373 -0.414,0.758 -0.593,1.151c-0.18,0.395 -0.348,0.808 -0.488,1.221c-0.139,0.411 -0.261,0.83 -0.349,1.254c-0.087,0.424 -0.134,0.858 -0.174,1.29c-0.041,0.436 -0.069,0.889 -0.069,1.325c-0,0.43 0.017,0.862 0.069,1.29c0.052,0.43 0.145,0.865 0.244,1.289c0.099,0.423 0.21,0.844 0.349,1.256c0.14,0.412 0.302,0.824 0.488,1.219c0.186,0.395 0.4,0.785 0.627,1.151c0.224,0.362 0.462,0.718 0.733,1.046c0.273,0.331 0.581,0.663 0.906,0.941c0.323,0.277 0.685,0.506 1.045,0.732c0.361,0.227 0.729,0.448 1.116,0.628c0.39,0.18 0.82,0.337 1.221,0.453c0.387,0.112 0.786,0.181 1.184,0.244c0.407,0.063 0.843,0.122 1.256,0.139c0.406,0.017 0.815,-0 1.22,-0.035c0.413,-0.035 0.848,-0.093 1.255,-0.174c0.401,-0.08 0.799,-0.181 1.185,-0.313c0.39,-0.134 0.778,-0.303 1.15,-0.489c0.453,-0.227 1.198,-0.651 1.57,-0.871c0.229,-0.137 0.448,-0.292 0.662,-0.453c0.215,-0.163 0.627,-0.523 0.627,-0.523l-2.719,-3.208c-0,0 -0.478,0.409 -0.732,0.594c-0.256,0.186 -0.523,0.371 -0.802,0.522c-0.279,0.151 -0.575,0.284 -0.871,0.383c-0.295,0.098 -0.601,0.158 -0.907,0.21c-0.308,0.052 -0.651,0.087 -0.941,0.104c-0.267,0.016 -0.535,0.017 -0.802,0c-0.273,-0.017 -0.575,-0.052 -0.837,-0.104c-0.248,-0.05 -0.494,-0.119 -0.732,-0.21c-0.244,-0.093 -0.505,-0.214 -0.731,-0.348c-0.223,-0.131 -0.432,-0.286 -0.629,-0.454c-0.197,-0.168 -0.394,-0.354 -0.557,-0.557c-0.163,-0.203 -0.296,-0.436 -0.418,-0.662c-0.121,-0.225 -0.228,-0.457 -0.314,-0.697c-0.087,-0.244 -0.169,-0.506 -0.209,-0.768c-0.041,-0.261 -0.035,-0.802 -0.035,-0.802l13.317,0c-0,0 -0.006,-1.162 -0.035,-1.743c-0.029,-0.581 -0.07,-1.167 -0.14,-1.743c-0.069,-0.572 -0.198,-1.29 -0.279,-1.708c-0.052,-0.271 -0.123,-0.539 -0.208,-0.802c-0.087,-0.267 -0.198,-0.546 -0.314,-0.801c-0.114,-0.251 -0.245,-0.495 -0.384,-0.732c-0.157,-0.268 -0.355,-0.593 -0.558,-0.872c-0.203,-0.279 -0.429,-0.546 -0.662,-0.802c-0.232,-0.255 -0.47,-0.511 -0.732,-0.731c-0.261,-0.221 -0.548,-0.409 -0.836,-0.594c-0.291,-0.186 -0.599,-0.366 -0.907,-0.522c-0.306,-0.156 -0.618,-0.303 -0.941,-0.418c-0.326,-0.116 -0.67,-0.205 -1.011,-0.279c-0.349,-0.076 -0.721,-0.134 -1.081,-0.175c-0.359,-0.04 -0.721,-0.075 -1.081,-0.07Zm-0.07,3.94c0.256,-0.017 0.518,0.006 0.768,0.035c0.247,0.029 0.493,0.071 0.732,0.139c0.244,0.069 0.505,0.168 0.732,0.279c0.22,0.107 0.43,0.238 0.627,0.384c0.203,0.151 0.419,0.337 0.593,0.522c0.17,0.182 0.315,0.386 0.453,0.593c0.139,0.209 0.279,0.436 0.384,0.663c0.103,0.223 0.179,0.47 0.243,0.697c0.061,0.217 0.106,0.439 0.14,0.662c0.035,0.232 0.07,0.732 0.07,0.732l-8.925,-0c0,-0 0.093,-0.68 0.175,-1.011c0.081,-0.331 0.186,-0.662 0.314,-0.976c0.127,-0.312 0.295,-0.656 0.452,-0.906c0.137,-0.217 0.309,-0.413 0.489,-0.593c0.18,-0.18 0.383,-0.348 0.592,-0.488c0.208,-0.138 0.433,-0.251 0.662,-0.349c0.233,-0.099 0.483,-0.18 0.732,-0.244c0.25,-0.064 0.511,-0.122 0.767,-0.139Z" style="fill:#fff;fill-rule:nonzero;"/></g><g><rect id="rect23161" serif:id="rect2316" x="85.937" y="93.44" width="21.928" height="39.532" style="fill:#00703c;"/><path id="path38711" serif:id="path3871" d="M96.5,102.852c-0.43,-0.005 -0.861,-0.004 -1.289,0.035c-0.512,0.047 -1.189,0.141 -1.778,0.245c-0.593,0.104 -1.197,0.226 -1.778,0.382c-0.579,0.157 -1.147,0.35 -1.708,0.559c-0.564,0.209 -1.675,0.697 -1.675,0.697l1.57,3.451c-0,0 0.992,-0.414 1.499,-0.592c0.511,-0.18 1.045,-0.355 1.568,-0.489c0.517,-0.132 1.041,-0.238 1.569,-0.313c0.528,-0.075 1.225,-0.116 1.603,-0.14c0.221,-0.013 0.444,-0.028 0.663,0c0.221,0.029 0.453,0.099 0.662,0.175c0.206,0.074 0.407,0.168 0.593,0.278c0.186,0.111 0.39,0.268 0.523,0.384c0.106,0.092 0.21,0.191 0.278,0.313c0.082,0.145 0.163,0.373 0.21,0.559c0.045,0.181 0.07,0.557 0.07,0.557l-0,1.603c-0,0 -2.024,0.193 -3.034,0.315c-1.011,0.122 -2.376,0.319 -3.032,0.417c-0.304,0.046 -0.609,0.095 -0.907,0.175c-0.302,0.081 -0.621,0.192 -0.906,0.314c-0.277,0.119 -0.543,0.263 -0.802,0.418c-0.261,0.157 -0.523,0.337 -0.767,0.523c-0.242,0.185 -0.487,0.371 -0.697,0.593c-0.215,0.226 -0.418,0.499 -0.593,0.766c-0.173,0.266 -0.325,0.547 -0.453,0.837c-0.127,0.291 -0.238,0.599 -0.314,0.907c-0.075,0.307 -0.116,0.624 -0.139,0.941c-0.023,0.319 -0.029,0.656 -0,0.976c0.029,0.318 0.093,0.633 0.174,0.941c0.082,0.308 0.186,0.616 0.314,0.907c0.128,0.29 0.28,0.571 0.453,0.836c0.174,0.268 0.378,0.535 0.593,0.767c0.213,0.23 0.451,0.435 0.697,0.627c0.268,0.21 0.593,0.437 0.907,0.629c0.314,0.191 0.639,0.377 0.976,0.522c0.337,0.145 0.697,0.25 1.045,0.349c0.345,0.098 0.692,0.192 1.046,0.244c0.36,0.052 0.75,0.069 1.116,0.069c0.361,0 0.723,-0.018 1.081,-0.069c0.36,-0.053 0.726,-0.145 1.08,-0.244c0.354,-0.099 0.709,-0.204 1.046,-0.349c0.337,-0.145 0.976,-0.522 0.976,-0.522l0.906,-0.629c0,0 0.448,0.489 0.698,0.698c0.249,0.209 0.523,0.39 0.801,0.558c0.279,0.168 0.57,0.325 0.872,0.453c0.302,0.127 0.941,0.314 0.941,0.314l2.197,-3.312c-0,0 -0.447,-0.198 -0.662,-0.314c-0.215,-0.116 -0.472,-0.267 -0.628,-0.383c-0.119,-0.088 -0.227,-0.198 -0.314,-0.314c-0.087,-0.116 -0.157,-0.25 -0.209,-0.384c-0.052,-0.134 -0.105,-0.418 -0.105,-0.418l0,-9.866c0,0 -0.076,-0.63 -0.139,-0.941c-0.064,-0.314 -0.14,-0.639 -0.245,-0.941c-0.103,-0.3 -0.232,-0.599 -0.383,-0.872c-0.149,-0.271 -0.335,-0.521 -0.523,-0.767c-0.192,-0.249 -0.401,-0.505 -0.627,-0.732c-0.227,-0.226 -0.477,-0.441 -0.732,-0.627c-0.253,-0.184 -0.524,-0.344 -0.802,-0.488c-0.279,-0.146 -0.564,-0.304 -0.871,-0.383c-0.361,-0.093 -0.858,-0.135 -1.29,-0.175c-0.436,-0.041 -0.889,-0.064 -1.325,-0.07Zm2.58,11.191l-0,3.73c-0,-0 -0.095,0.357 -0.175,0.522c-0.081,0.169 -0.191,0.344 -0.313,0.489c-0.122,0.145 -0.264,0.275 -0.419,0.383c-0.174,0.122 -0.411,0.246 -0.627,0.349c-0.221,0.105 -0.465,0.198 -0.697,0.279c-0.229,0.08 -0.465,0.162 -0.698,0.209c-0.229,0.045 -0.464,0.064 -0.697,0.069c-0.238,0.006 -0.494,-0.006 -0.732,-0.034c-0.235,-0.029 -0.471,-0.07 -0.697,-0.139c-0.227,-0.07 -0.453,-0.175 -0.662,-0.279c-0.205,-0.103 -0.431,-0.239 -0.593,-0.349c-0.137,-0.093 -0.273,-0.215 -0.383,-0.314c-0.098,-0.087 -0.203,-0.172 -0.28,-0.279c-0.087,-0.122 -0.189,-0.29 -0.244,-0.453c-0.064,-0.192 -0.122,-0.465 -0.139,-0.697c-0.018,-0.232 -0.006,-0.471 0.035,-0.697c0.04,-0.227 0.116,-0.465 0.209,-0.663c0.089,-0.189 0.216,-0.361 0.349,-0.523c0.133,-0.163 0.29,-0.325 0.453,-0.453c0.16,-0.125 0.338,-0.23 0.523,-0.314c0.192,-0.087 0.414,-0.154 0.627,-0.208c0.25,-0.064 0.579,-0.127 0.872,-0.175c0.499,-0.081 1.413,-0.239 2.126,-0.314c0.714,-0.075 2.162,-0.139 2.162,-0.139Z" style="fill:#fff;fill-rule:nonzero;"/></g><g><rect id="rect2467-3-8" x="107.05" y="93.44" width="19.209" height="39.532" style="fill:#00703c;"/><path id="path1216" d="M117.229,115.542l-1.325,-0.279l-1.777,-0.418l-1.744,-0.558l-0.732,-0.418l-0.697,-0.488l-0.627,-0.628l-0.523,-0.697l-0.419,-0.802l-0.278,-0.836l-0.14,-0.872l-0.035,-0.906l0.105,-0.872l0.244,-0.871l0.383,-0.802l0.488,-0.767l0.593,-0.627l0.697,-0.593l0.767,-0.453l1.255,-0.454l1.29,-0.314l1.325,-0.139l1.324,0.035l1.325,0.174l1.394,0.418l1.325,0.628l1.255,0.767l1.151,0.871l-2.685,2.964l-0.906,-0.663l-0.941,-0.523l-1.011,-0.453l-1.081,-0.279l-0.697,-0.069l-0.697,0.034l-0.663,0.175l-0.662,0.279l-0.593,0.383l-0.313,0.279l-0.244,0.383l-0.14,0.419l-0.035,0.418l0.07,0.453l0.174,0.384l0.349,0.348l0.418,0.244l0.453,0.175l1.499,0.383l1.499,0.314l1.116,0.244l1.046,0.349l1.011,0.453l0.941,0.557l0.593,0.558l0.488,0.663l0.383,0.697l0.279,0.767l0.174,0.802l0.07,0.871l-0.035,0.906l-0.209,0.872l-0.279,0.837l-0.453,0.801l-0.523,0.698l-0.628,0.627l-0.836,0.628l-0.907,0.523l-1.08,0.313l-1.116,0.21l-1.115,0.104l-1.116,-0.035l-1.115,-0.139l-1.116,-0.279l-1.046,-0.384l-1.569,-0.836l-1.464,-0.942l-1.394,-1.08l2.754,-2.963l0.976,0.836l1.046,0.732l0.836,0.453l0.907,0.314l0.941,0.209l0.941,0.07l0.942,-0.07l0.941,-0.244l0.453,-0.174l0.383,-0.279l0.314,-0.348l0.209,-0.523l0.07,-0.593l-0.07,-0.523l-0.244,-0.418l-0.279,-0.314l-0.348,-0.279l-1.29,-0.418Z" style="fill:#fff;fill-rule:nonzero;"/></g></g></g></g></svg>