<?xml version="1.0" encoding="UTF-8" standalone="no"?><!DOCTYPE svg PUBLIC "-//W3C//DTD SVG 1.1//EN" "http://www.w3.org/Graphics/SVG/1.1/DTD/svg11.dtd"><svg width="100%" height="100%" viewBox="0 0 454 454" version="1.1" xmlns="http://www.w3.org/2000/svg" xmlns:xlink="http://www.w3.org/1999/xlink" xml:space="preserve" xmlns:serif="http://www.serif.com/" style="fill-rule:evenodd;clip-rule:evenodd;stroke-linejoin:round;stroke-miterlimit:2;"><g transform="matrix(50,0,0,50,321.022,262.709)"></g><text x="133.4px" y="262.709px" style="font-family:'ArialMT', 'Arial', sans-serif;font-size:50px;">sw=38.4</text><clipPath id="_clip1"><rect x="0" y="0" width="453.543" height="453.543"/></clipPath><g clip-path="url(#_clip1)"><rect id="_670-20" serif:id="670 20" x="0" y="0" width="453.543" height="453.543" style="fill:none;"/><clipPath id="_clip2"><rect x="0" y="0" width="453.543" height="453.543"/></clipPath><g clip-path="url(#_clip2)"><circle cx="226.772" cy="226.772" r="226.772" style="fill:#e31837;"/><circle cx="225.449" cy="225.449" r="181.417" style="fill:#fff;"/><path d="M303.434,143.91c22.871,-0.333 67.284,13.056 67.284,82.452c-0,69.397 -41.965,83.278 -67.284,83.278c-25.303,-0 -67.268,-13.881 -67.268,-83.278c0,-69.396 44.579,-82.785 67.268,-82.452Zm0,29.872c16.993,-0 33.812,9.962 34.462,51.438c0.483,41.476 -15.346,54.207 -34.462,54.207c-19.093,0 -34.937,-12.731 -34.28,-54.207c0.484,-41.476 17.469,-51.438 34.28,-51.438"/><path d="M115.994,209.218l-33.139,0c-0.824,-29.062 15.829,-64.328 64.812,-64.328c47.684,0 58.133,41.143 58.133,55.516c0,14.523 -1.307,42.943 -61.072,79.517l59.44,0l0,28.73l-115.609,0l0,-29.872c50.623,-34.622 83.604,-52.089 83.604,-76.091c-0,-13.555 -11.266,-27.928 -29.392,-27.928c-18.126,0 -26.777,17.474 -26.777,34.456"/></g></g></svg>