<?xml version="1.0" encoding="UTF-8" standalone="no"?><!DOCTYPE svg PUBLIC "-//W3C//DTD SVG 1.1//EN" "http://www.w3.org/Graphics/SVG/1.1/DTD/svg11.dtd"><svg width="100%" height="100%" viewBox="0 0 454 155" version="1.1" xmlns="http://www.w3.org/2000/svg" xmlns:xlink="http://www.w3.org/1999/xlink" xml:space="preserve" xmlns:serif="http://www.serif.com/" style="fill-rule:evenodd;clip-rule:evenodd;stroke-linejoin:round;stroke-miterlimit:2;"><g transform="matrix(50,0,0,50,300.099,76.6329)"></g><text x="154.176px" y="76.633px" style="font-family:'ArialMT', 'Arial', sans-serif;font-size:50px;">sw=13</text><rect id="_01" serif:id="01" x="0" y="0" width="453.543" height="154.535" style="fill:none;"/><clipPath id="_clip1"><rect id="_011" serif:id="01" x="0" y="0" width="453.543" height="154.535"/></clipPath><g clip-path="url(#_clip1)"><path d="M453.563,21.563c0,-11.901 -9.662,-21.563 -21.563,-21.563l-410.437,-0c-11.901,-0 -21.563,9.662 -21.563,21.563l0,111.409c0,11.901 9.662,21.563 21.563,21.563l410.437,0c11.901,0 21.563,-9.662 21.563,-21.563l0,-111.409Z"/><path d="M442.782,21.563c-0,-5.95 -4.831,-10.781 -10.782,-10.781l-410.437,-0c-5.95,-0 -10.781,4.831 -10.781,10.781l-0,111.409c-0,5.951 4.831,10.782 10.781,10.782l410.437,-0c5.951,-0 10.782,-4.831 10.782,-10.782l-0,-111.409Z" style="fill:#fff;"/><g><g><g id="E"><rect id="path1642" x="254.655" y="41.329" width="29.74" height="43.126" style="fill:#fff;"/><path id="path1644" d="M280.629,67.76l-14.792,-0l-0,-6.618l12.359,-0l0,-5.591l-12.359,-0l-0,-6.198l13.651,-0l-0,-5.856l-19.854,0l0,30.155l20.995,0l-0,-5.892Z" style="fill:#010001;fill-rule:nonzero;"/></g><g id="M"><rect id="path1574" x="214.153" y="41.329" width="40.502" height="43.126" style="fill:#fff;"/><path id="path1576" d="M225.335,73.693l-0,-21.866l9.128,13.231l9.124,-13.231l-0,21.866l6.161,0l0,-30.196l-7.909,0l-7.376,10.685l-7.38,-10.685l-7.946,0l-0,30.196l6.198,0Z" style="fill:#010001;fill-rule:nonzero;"/></g><g id="H"><rect id="path1630" x="144.943" y="41.329" width="34.719" height="43.126" style="fill:#fff;"/><path id="path1632" d="M168.558,54.98l-0,-11.519l6.198,-0l-0,30.196l-6.198,-0l-0,-12.78l-12.209,0l-0,12.78l-6.199,-0l0,-30.196l6.199,-0l-0,11.519l12.209,0Z" style="fill:#010001;fill-rule:nonzero;"/></g><g id="O"><rect id="path1594" x="179.662" y="41.329" width="34.491" height="43.126" style="fill:#fff;"/><path id="path1596" d="M196.088,42.776l-1.52,0.15l-1.483,0.265l-1.442,0.493l-1.411,0.611l-1.291,0.763l-1.219,0.908l-1.141,1.182l-0.986,1.255l-0.876,1.369l-0.762,1.443l-0.571,1.524l-0.415,1.556l-0.306,1.598l-0.114,1.597l0,2.168l0.114,1.634l0.306,1.598l0.415,1.56l0.571,1.52l0.762,1.447l0.876,1.333l0.986,1.292l1.141,1.141l1.219,0.912l1.291,0.799l1.411,0.607l1.442,0.457l1.483,0.305l1.52,0.151l1.753,-0l1.483,-0.151l1.52,-0.305l1.447,-0.457l1.369,-0.607l1.328,-0.799l1.219,-0.912l1.141,-1.141l0.986,-1.292l0.876,-1.333l0.721,-1.447l0.612,-1.52l0.415,-1.56l0.269,-1.598l0.114,-1.634l0,-2.168l-0.114,-1.597l-0.269,-1.598l-0.415,-1.556l-0.612,-1.524l-0.721,-1.443l-0.876,-1.369l-0.986,-1.255l-1.141,-1.182l-1.219,-0.908l-1.328,-0.763l-1.369,-0.611l-1.447,-0.493l-1.52,-0.265l-1.483,-0.15l-1.753,0Zm0.876,5.892l0.95,0.038l0.954,0.192l0.912,0.265l0.872,0.383l0.799,0.529l0.726,0.612l0.643,0.721l0.534,0.762l0.42,0.835l0.302,0.913l0.379,1.52l0.233,1.561l0.037,1.597l-0.037,1.557l-0.233,1.561l-0.379,1.561l-0.302,0.871l-0.42,0.877l-0.534,0.762l-0.643,0.721l-0.726,0.607l-0.799,0.498l-0.872,0.379l-0.912,0.301l-0.954,0.155l-0.95,0.074l-0.949,-0.074l-0.954,-0.155l-0.913,-0.301l-0.871,-0.379l-0.799,-0.498l-0.721,-0.607l-0.648,-0.721l-0.535,-0.762l-0.415,-0.877l-0.342,-0.871l-0.342,-1.561l-0.228,-1.561l-0.043,-1.557l0.043,-1.597l0.228,-1.561l0.342,-1.52l0.342,-0.913l0.415,-0.835l0.535,-0.762l0.648,-0.721l0.721,-0.612l0.799,-0.529l0.871,-0.383l0.913,-0.265l0.954,-0.192l0.949,-0.038Z" style="fill:#010001;fill-rule:nonzero;"/></g></g><g><g id="E1" serif:id="E"><rect id="path16421" serif:id="path1642" x="395.073" y="41.329" width="29.74" height="43.126" style="fill:#fff;"/><path id="path16441" serif:id="path1644" d="M421.047,67.76l-14.792,-0l-0,-6.618l12.359,-0l0,-5.591l-12.359,-0l-0,-6.198l13.651,-0l-0,-5.856l-19.854,0l0,30.155l20.995,0l0,-5.892Z" style="fill:#010001;fill-rule:nonzero;"/></g><g id="Z"><rect id="path1578" x="297.871" y="41.329" width="26.088" height="43.126" style="fill:#fff;"/><path id="path1580" d="M300.226,49.659l0,-6.162l20.844,0l0,6.198l-13.578,17.8l13.994,0l-0,6.157l-21.789,0l-0,-6.157l13.573,-17.836l-13.044,-0Z" style="fill:#010001;fill-rule:nonzero;"/></g><g id="_-N" serif:id=" N"><rect id="path1590" x="358.45" y="41.329" width="36.622" height="43.126" style="fill:#fff;"/><path id="path1592" d="M370.504,43.497l-7.033,0l-0,30.196l6.161,0l0,-20.424l13.501,20.424l7.07,0l-0,-30.196l-6.198,0l-0,20.42l-13.501,-20.42Z" style="fill:#010001;fill-rule:nonzero;"/></g><g id="O1" serif:id="O"><rect id="path15941" serif:id="path1594" x="323.96" y="41.329" width="34.491" height="43.126" style="fill:#fff;"/><path id="path15961" serif:id="path1596" d="M340.386,42.776l-1.52,0.15l-1.483,0.265l-1.443,0.493l-1.41,0.611l-1.292,0.763l-1.218,0.908l-1.141,1.182l-0.986,1.255l-0.876,1.369l-0.763,1.443l-0.57,1.524l-0.415,1.556l-0.306,1.598l-0.114,1.597l-0,2.168l0.114,1.634l0.306,1.598l0.415,1.56l0.57,1.52l0.763,1.447l0.876,1.333l0.986,1.292l1.141,1.141l1.218,0.912l1.292,0.799l1.41,0.607l1.443,0.457l1.483,0.305l1.52,0.151l1.752,-0l1.484,-0.151l1.52,-0.305l1.446,-0.457l1.37,-0.607l1.328,-0.799l1.218,-0.912l1.141,-1.141l0.986,-1.292l0.877,-1.333l0.721,-1.447l0.611,-1.52l0.415,-1.56l0.27,-1.598l0.114,-1.634l0,-2.168l-0.114,-1.597l-0.27,-1.598l-0.415,-1.556l-0.611,-1.524l-0.721,-1.443l-0.877,-1.369l-0.986,-1.255l-1.141,-1.182l-1.218,-0.908l-1.328,-0.763l-1.37,-0.611l-1.446,-0.493l-1.52,-0.265l-1.484,-0.15l-1.752,0Zm0.876,5.892l0.949,0.038l0.954,0.192l0.913,0.265l0.872,0.383l0.799,0.529l0.725,0.612l0.644,0.721l0.534,0.762l0.42,0.835l0.301,0.913l0.379,1.52l0.233,1.561l0.038,1.597l-0.038,1.557l-0.233,1.561l-0.379,1.561l-0.301,0.871l-0.42,0.877l-0.534,0.762l-0.644,0.721l-0.725,0.607l-0.799,0.498l-0.872,0.379l-0.913,0.301l-0.954,0.155l-0.949,0.074l-0.949,-0.074l-0.954,-0.155l-0.913,-0.301l-0.872,-0.379l-0.798,-0.498l-0.722,-0.607l-0.648,-0.721l-0.534,-0.762l-0.415,-0.877l-0.342,-0.871l-0.343,-1.561l-0.228,-1.561l-0.043,-1.557l0.043,-1.597l0.228,-1.561l0.343,-1.52l0.342,-0.913l0.415,-0.835l0.534,-0.762l0.648,-0.721l0.722,-0.612l0.798,-0.529l0.872,-0.383l0.913,-0.265l0.954,-0.192l0.949,-0.038Z" style="fill:#010001;fill-rule:nonzero;"/></g></g></g><g><g id="E2" serif:id="E"><rect id="path16422" serif:id="path1642" x="230.306" y="91.643" width="24.783" height="35.938" style="fill:#fff;"/><path id="path16442" serif:id="path1644" d="M251.952,113.669l-12.327,-0l-0,-5.515l10.299,-0l0,-4.66l-10.299,0l-0,-5.165l11.376,0l-0,-4.879l-16.545,-0l-0,25.129l17.496,-0l-0,-4.91Z" style="fill:#010001;fill-rule:nonzero;"/></g><g id="D"><rect id="path1566" x="285.608" y="91.643" width="27.286" height="35.938" style="fill:#fff;"/><path id="path1568" d="M289.887,93.45l-0,25.129l9.474,-0l1.172,-0.061l1.205,-0.19l1.141,-0.316l1.111,-0.445l1.076,-0.54l0.982,-0.666l0.92,-0.761l0.856,-0.855l0.726,-0.951l0.635,-1.012l0.54,-1.08l0.411,-1.107l0.285,-1.171l0.19,-1.366l0.096,-1.361l-0,-1.362l-0.096,-1.396l-0.19,-1.362l-0.285,-1.141l-0.411,-1.141l-0.54,-1.08l-0.635,-1.011l-0.726,-0.921l-0.856,-0.856l-0.92,-0.791l-0.982,-0.635l-1.076,-0.57l-1.111,-0.442l-1.141,-0.285l-1.205,-0.19l-1.172,-0.065l-9.474,0.001Zm5.165,5.005l4.374,-0l0.886,0.065l0.856,0.22l0.825,0.32l0.791,0.441l0.696,0.54l0.605,0.665l0.506,0.731l0.38,0.791l0.285,0.856l0.221,1.205l0.095,1.202l0,1.236l-0.125,1.236l-0.255,1.206l-0.285,0.791l-0.411,0.791l-0.506,0.7l-0.604,0.601l-0.696,0.54l-0.761,0.411l-0.791,0.285l-0.856,0.19l-0.856,0.065l-4.374,-0l-0,-15.088Z" style="fill:#010001;fill-rule:nonzero;"/></g><g id="S"><rect id="path1618" x="312.894" y="91.643" width="26.555" height="35.938" style="fill:#fff;"/><path id="path1620" d="M328.674,108.914l0.57,0.221l0.476,0.319l0.41,0.441l0.286,0.51l0.16,0.536l0.031,0.605l-0.095,0.571l-0.251,0.536l-0.35,0.475l-0.54,0.446l-0.601,0.345l-0.666,0.255l-0.696,0.126l-1.711,-0l-0.982,-0.126l-0.951,-0.19l-0.92,-0.316l-0.92,-0.41l-1.077,-0.7l-1.015,-0.761l-0.917,-0.886l-4.374,3.358l0.921,0.951l0.981,0.887l1.046,0.794l1.107,0.696l1.205,0.571l1.362,0.445l1.426,0.316l1.426,0.221l1.427,0.095l1.456,-0.032l1.427,-0.125l1.426,-0.255l1.396,-0.38l0.951,-0.381l0.886,-0.506l0.825,-0.635l0.731,-0.73l0.631,-0.821l0.51,-0.891l0.376,-0.947l0.255,-1.015l0.095,-1.016l-0.031,-1.011l-0.16,-1.046l-0.286,-0.985l-0.441,-0.917l-0.57,-0.761l-0.666,-0.665l-0.7,-0.605l-0.791,-0.536l-0.825,-0.445l-0.791,-0.316l-0.826,-0.255l-5.891,-1.457l-0.415,-0.16l-0.38,-0.251l-0.316,-0.35l-0.255,-0.38l-0.125,-0.411l-0.065,-0.444l0.036,-0.446l0.156,-0.441l0.224,-0.38l0.506,-0.51l0.571,-0.38l0.665,-0.286l0.696,-0.156l0.7,-0.064l1.042,0.064l1.016,0.156l1.015,0.286l0.951,0.35l0.917,0.475l0.89,0.57l0.791,0.666l3.898,-3.549l-1.046,-0.92l-1.11,-0.791l-1.202,-0.7l-1.236,-0.601l-1.301,-0.441l-1.362,-0.35l-1.365,-0.19l-1.392,-0.065l-1.362,0.065l-1.365,0.19l-1.362,0.35l-0.981,0.381l-0.921,0.471l-0.855,0.605l-0.791,0.696l-0.7,0.761l-0.537,0.76l-0.414,0.826l-0.316,0.855l-0.221,0.887l-0.064,0.92l0.031,0.917l0.16,0.92l0.285,0.856l0.381,0.856l0.475,0.76l0.601,0.727l0.666,0.604l0.951,0.632l1.046,0.445l1.11,0.285l5.924,1.332Z" style="fill:#010001;fill-rule:nonzero;"/></g><g id="_-N1" serif:id=" N"><rect id="path15901" serif:id="path1590" x="255.089" y="91.643" width="30.519" height="35.938" style="fill:#fff;"/><path id="path15921" serif:id="path1592" d="M265.134,93.45l-5.861,-0l0,25.163l5.135,0l-0,-17.02l11.25,17.02l5.892,0l-0,-25.163l-5.165,-0l-0,17.016l-11.251,-17.016Z" style="fill:#010001;fill-rule:nonzero;"/></g></g><clipPath id="_clip2"><rect id="_670-20" serif:id="670 20" x="28.751" y="28.751" width="97.034" height="97.034"/></clipPath><g clip-path="url(#_clip2)"><g><circle cx="77.268" cy="77.268" r="48.517" style="fill:#e31837;"/><circle cx="76.985" cy="76.985" r="38.814" style="fill:#fff;"/></g><path d="M94.478,59.923c4.893,-0.071 14.395,2.794 14.395,17.641c-0,14.847 -8.978,17.817 -14.395,17.817c-5.414,-0 -14.392,-2.97 -14.392,-17.817c0,-14.847 9.538,-17.712 14.392,-17.641Zm0,6.391c3.636,0 7.234,2.132 7.373,11.005c0.103,8.874 -3.283,11.598 -7.373,11.598c-4.085,-0 -7.475,-2.724 -7.334,-11.598c0.103,-8.873 3.737,-11.005 7.334,-11.005"/><path d="M54.376,72.917l-7.09,0c-0.176,-6.217 3.386,-13.762 13.866,-13.762c10.202,-0 12.438,8.802 12.438,11.877c-0,3.107 -0.28,9.188 -13.067,17.013l12.717,-0l0,6.146l-24.734,0l0,-6.391c10.831,-7.407 17.887,-11.144 17.887,-16.279c-0,-2.9 -2.41,-5.975 -6.288,-5.975c-3.878,-0 -5.729,3.738 -5.729,7.371"/></g><path d="M147.484,9.593l-2.541,-2.542l-134.161,134.162l2.541,2.541l134.161,-134.161Zm-20.33,-0l-2.541,-2.542l-123.996,123.997l2.541,2.541l123.996,-123.996Zm40.66,-0l-2.541,-2.542l-144.327,144.327l2.542,2.541l144.326,-144.326Zm-30.495,-0l-2.541,-2.542l-129.079,129.079l2.541,2.541l129.079,-129.078Zm20.33,-0l-2.541,-2.542l-139.244,139.244l2.541,2.541l139.244,-139.243Z"/></g></svg>