<?xml version="1.0" encoding="UTF-8" standalone="no"?><!DOCTYPE svg PUBLIC "-//W3C//DTD SVG 1.1//EN" "http://www.w3.org/Graphics/SVG/1.1/DTD/svg11.dtd"><svg width="100%" height="100%" viewBox="0 0 454 454" version="1.1" xmlns="http://www.w3.org/2000/svg" xmlns:xlink="http://www.w3.org/1999/xlink" xml:space="preserve" xmlns:serif="http://www.serif.com/" style="fill-rule:evenodd;clip-rule:evenodd;stroke-linejoin:round;stroke-miterlimit:2;"><g transform="matrix(50,0,0,50,295.666,226.137)"></g><text x="108.044px" y="226.137px" style="font-family:'ArialMT', 'Arial', sans-serif;font-size:50px;">sw=38.4</text><g id="_670-Maximum-Speed-Limit" serif:id="670 Maximum Speed Limit"><circle cx="226.772" cy="226.772" r="226.772" style="fill:#e31837;"/><circle cx="226.772" cy="226.772" r="181.417" style="fill:#fff;"/><g><g><rect x="222.535" y="130.103" width="174.991" height="241.367" style="fill:none;"/><path d="M380.6,225.895c0,10.357 -1.327,20.786 -3.982,31.287c-2.654,10.501 -6.821,19.959 -12.499,28.374c-5.678,8.415 -12.904,15.284 -21.68,20.606c-8.775,5.322 -19.283,7.984 -31.524,7.984c-12.536,-0 -23.302,-2.626 -32.299,-7.876c-8.996,-5.251 -16.407,-12.083 -22.233,-20.498c-5.825,-8.415 -10.102,-17.873 -12.831,-28.374c-2.728,-10.501 -4.092,-21.002 -4.092,-31.503c-0,-10.501 1.364,-20.93 4.092,-31.287c2.729,-10.357 6.969,-19.635 12.721,-27.835c5.752,-8.199 13.089,-14.852 22.012,-19.958c8.922,-5.107 19.504,-7.66 31.745,-7.66c12.094,-0 22.565,2.553 31.414,7.66c8.849,5.106 16.186,11.795 22.012,20.066c5.825,8.272 10.139,17.586 12.941,27.943c2.802,10.357 4.203,20.714 4.203,31.071Zm-36.723,0.216c0,-4.891 -0.553,-10.537 -1.659,-16.938c-1.106,-6.402 -2.95,-12.479 -5.53,-18.233c-2.581,-5.754 -6.047,-10.609 -10.398,-14.565c-4.351,-3.956 -9.771,-5.933 -16.26,-5.933c-6.489,-0 -11.909,1.942 -16.26,5.825c-4.351,3.884 -7.816,8.667 -10.397,14.349c-2.581,5.682 -4.425,11.724 -5.531,18.125c-1.106,6.401 -1.659,12.047 -1.659,16.938c-0,5.323 0.479,11.292 1.438,17.909c0.958,6.617 2.691,12.803 5.199,18.557c2.507,5.754 6.046,10.572 10.618,14.456c4.572,3.884 10.398,5.826 17.477,5.826c7.079,0 12.794,-1.942 17.145,-5.826c4.351,-3.884 7.706,-8.702 10.065,-14.456c2.36,-5.754 3.909,-11.904 4.646,-18.449c0.738,-6.545 1.106,-12.407 1.106,-17.585Z" style="fill-rule:nonzero;"/></g><g><rect x="55.992" y="130.103" width="166.543" height="241.367" style="fill:none;"/><path d="M207.085,280.911l-18.878,0l0,30.326l-37.31,-0l0,-30.326l-82.837,0l-0,-31.408l77.951,-107.223l42.196,0l0,107.006l18.878,0l-0,31.625Zm-55.744,-91.843l-43.75,60.218l43.75,0l0,-60.218Z" style="fill-rule:nonzero;"/></g></g></g></svg>