<?xml version="1.0" encoding="UTF-8" standalone="no"?><!DOCTYPE svg PUBLIC "-//W3C//DTD SVG 1.1//EN" "http://www.w3.org/Graphics/SVG/1.1/DTD/svg11.dtd"><svg width="100%" height="100%" viewBox="0 0 454 454" version="1.1" xmlns="http://www.w3.org/2000/svg" xmlns:xlink="http://www.w3.org/1999/xlink" xml:space="preserve" xmlns:serif="http://www.serif.com/" style="fill-rule:evenodd;clip-rule:evenodd;stroke-linejoin:round;stroke-miterlimit:2;"><g transform="matrix(50,0,0,50,321.022,226.137)"></g><text x="133.4px" y="226.137px" style="font-family:'ArialMT', 'Arial', sans-serif;font-size:50px;">sw=38.4</text><g id="_671-National-Speed-Limit" serif:id="671 National Speed Limit"><circle cx="226.772" cy="226.772" r="226.772" style="fill:#fff;"/><path d="M226.772,0c125.158,0 226.771,101.613 226.771,226.772c0,125.158 -101.613,226.771 -226.771,226.771c-125.159,0 -226.772,-101.613 -226.772,-226.771c0,-125.159 101.613,-226.772 226.772,-226.772Zm-0,1.181c-124.507,0 -225.591,101.084 -225.591,225.591c0,124.506 101.084,225.59 225.591,225.59c124.506,0 225.59,-101.084 225.59,-225.59c0,-124.507 -101.084,-225.591 -225.59,-225.591Z"/><path d="M338.581,29.425c35.648,20.254 65.284,49.887 85.541,85.534l-309.163,309.163c-35.647,-20.257 -65.28,-49.893 -85.534,-85.541l309.156,-309.156Z"/><path d="M338.581,29.425c35.648,20.254 65.284,49.887 85.541,85.534l-309.163,309.163c-35.647,-20.257 -65.28,-49.893 -85.534,-85.541l309.156,-309.156Zm1.852,14.851l-296.157,296.157c17.394,27.85 40.983,51.441 68.831,68.838l296.163,-296.164c-17.396,-27.848 -40.987,-51.437 -68.837,-68.831Z"/></g></svg>