<?xml version="1.0" encoding="UTF-8" standalone="no"?><!DOCTYPE svg PUBLIC "-//W3C//DTD SVG 1.1//EN" "http://www.w3.org/Graphics/SVG/1.1/DTD/svg11.dtd"><svg width="100%" height="100%" viewBox="0 0 454 454" version="1.1" xmlns="http://www.w3.org/2000/svg" xmlns:xlink="http://www.w3.org/1999/xlink" xml:space="preserve" xmlns:serif="http://www.serif.com/" style="fill-rule:evenodd;clip-rule:evenodd;stroke-linejoin:round;stroke-miterlimit:2;"><g transform="matrix(50,0,0,50,321.022,262.709)"></g><text x="133.4px" y="262.709px" style="font-family:'ArialMT', 'Arial', sans-serif;font-size:50px;">sw=38.4</text><g id="_673-End-of-Minimum-Speed-Limit" serif:id="673 End of Minimum Speed Limit"><circle cx="226.772" cy="226.772" r="226.772" style="fill:#fff;"/><path d="M226.772,0c125.158,0 226.771,101.613 226.771,226.772c0,125.158 -101.613,226.771 -226.771,226.771c-125.159,0 -226.772,-101.613 -226.772,-226.771c0,-125.159 101.613,-226.772 226.772,-226.772Zm-0,1.181c-124.507,0 -225.591,101.084 -225.591,225.591c0,124.506 101.084,225.59 225.591,225.59c124.506,0 225.59,-101.084 225.59,-225.59c0,-124.507 -101.084,-225.591 -225.59,-225.591Z" style="fill:#0079c1;"/><circle cx="226.772" cy="226.772" r="217.701" style="fill:#0079c1;"/><g><g><rect x="222.223" y="105.814" width="201.071" height="302.362" style="fill:none;"/><path d="M368.439,226.083c0,30.544 -6.757,77.576 -44.599,77.576c-38.112,-0 -46.762,-47.843 -46.762,-78.117c-0,-33.787 13.245,-76.224 45.681,-76.224c32.435,-0 45.68,42.977 45.68,76.765Zm36.22,-0.27c0,-54.331 -26.759,-108.661 -81.9,-108.661c-55.952,0 -81.901,54.06 -81.901,108.39c-0,54.601 27.3,110.823 82.982,110.823c55.681,-0 80.819,-56.222 80.819,-110.552Z" style="fill:#fff;fill-rule:nonzero;"/></g><g><rect x="30.223" y="105.814" width="192" height="302.362" style="fill:none;"/><path d="M188.968,272.417c-0,-22.491 -9.484,-42.271 -26.284,-50.129c15.445,-8.129 24.387,-23.846 24.387,-43.897c0,-36.852 -25.2,-61.239 -67.2,-61.239c-40.916,0 -66.116,18.697 -75.6,55.549l33.6,8.129c4.336,-17.342 16.529,-29.265 38.478,-29.265c23.303,0 34.684,11.652 34.684,28.994c-0,22.219 -20.865,28.722 -39.291,28.993l-5.961,0l-0,30.348c21.406,-2.438 47.419,2.168 47.419,31.433c0,22.219 -14.632,31.974 -36.58,31.974c-21.949,-0 -37.394,-14.903 -40.374,-36.31l-34.684,7.858c7.045,37.665 33.871,61.51 78.309,61.51c43.897,-0 69.097,-24.929 69.097,-63.948Z" style="fill:#fff;fill-rule:nonzero;"/></g></g><clipPath id="_clip1"><path d="M403.146,82.442l-320.704,320.704l-32.07,-32.071l320.703,-320.703l32.071,32.07Z"/></clipPath><g clip-path="url(#_clip1)"><circle cx="226.772" cy="226.772" r="217.701" style="fill:#e31837;"/></g></g></svg>