<?xml version="1.0" encoding="UTF-8" standalone="no"?><!DOCTYPE svg PUBLIC "-//W3C//DTD SVG 1.1//EN" "http://www.w3.org/Graphics/SVG/1.1/DTD/svg11.dtd"><svg width="100%" height="100%" viewBox="0 0 493 957" version="1.1" xmlns="http://www.w3.org/2000/svg" xmlns:xlink="http://www.w3.org/1999/xlink" xml:space="preserve" xmlns:serif="http://www.serif.com/" style="fill-rule:evenodd;clip-rule:evenodd;stroke-linejoin:round;stroke-miterlimit:2;"><g transform="matrix(50,0,0,50,284.968,408.313)"></g><text x="139.045px" y="408.313px" style="font-family:'ArialMT', 'Arial', sans-serif;font-size:50px;">sw=81</text><rect id="_01" serif:id="01" x="0" y="0" width="492.86" height="956.693" style="fill:none;"/><clipPath id="_clip1"><rect id="_011" serif:id="01" x="0" y="0" width="492.86" height="956.693"/></clipPath><g clip-path="url(#_clip1)"><path d="M492.86,25.11c0,-13.859 -11.251,-25.11 -25.11,-25.11l-442.64,0c-13.859,0 -25.11,11.251 -25.11,25.11l-0,906.473c-0,13.858 11.251,25.11 25.11,25.11l442.64,-0c13.859,-0 25.11,-11.252 25.11,-25.11l0,-906.473Z"/><path d="M480.305,24.273c0,-6.929 -5.626,-12.555 -12.555,-12.555l-442.64,0c-6.929,0 -12.555,5.626 -12.555,12.555l-0,657.883c-0,6.93 5.626,12.555 12.555,12.555l442.64,0c6.929,0 12.555,-5.625 12.555,-12.555l0,-657.883Z" style="fill:#fff;"/><path d="M480.305,719.821c0,-6.929 -5.626,-12.555 -12.555,-12.555l-442.64,0c-6.929,0 -12.555,5.626 -12.555,12.555l-0,210.925c-0,6.929 5.626,12.555 12.555,12.555l442.64,-0c6.929,-0 12.555,-5.626 12.555,-12.555l0,-210.925Z" style="fill:#fff;"/><g><g><g id="E"><rect id="path1642" x="344.629" y="549.073" width="86.579" height="125.55" style="fill:#fff;"/><path id="path1644" d="M420.246,626.019l-43.064,-0l0,-19.266l35.982,-0l-0,-16.277l-35.982,-0l0,-18.044l39.742,-0l0,-17.047l-57.799,-0l-0,87.788l61.121,-0l-0,-17.154Z" style="fill:#010001;fill-rule:nonzero;"/></g><g id="Z"><rect id="path1578" x="61.652" y="549.073" width="75.949" height="125.55" style="fill:#fff;"/><path id="path1580" d="M68.508,573.322l0,-17.937l60.683,-0l-0,18.043l-39.529,51.82l40.738,0l0,17.925l-63.433,-0l0,-17.925l39.516,-51.926l-37.975,0Z" style="fill:#010001;fill-rule:nonzero;"/></g><g id="_-N" serif:id=" N"><rect id="path1590" x="238.013" y="549.073" width="106.616" height="125.55" style="fill:#fff;"/><path id="path1592" d="M273.104,555.385l-20.475,-0l-0,87.907l17.937,0l0,-59.46l39.304,59.46l20.581,0l0,-87.907l-18.044,-0l0,59.446l-39.303,-59.446Z" style="fill:#010001;fill-rule:nonzero;"/></g><g id="O"><rect id="path1594" x="137.602" y="549.073" width="100.411" height="125.55" style="fill:#fff;"/><path id="path1596" d="M185.422,553.285l-4.425,0.438l-4.318,0.771l-4.199,1.434l-4.105,1.78l-3.761,2.219l-3.547,2.645l-3.322,3.441l-2.87,3.654l-2.551,3.986l-2.219,4.199l-1.661,4.438l-1.208,4.531l-0.89,4.65l-0.333,4.651l0,6.311l0.333,4.757l0.89,4.65l1.208,4.545l1.661,4.424l2.219,4.212l2.551,3.88l2.87,3.76l3.322,3.322l3.547,2.657l3.761,2.326l4.105,1.767l4.199,1.329l4.318,0.89l4.425,0.438l5.102,-0l4.319,-0.438l4.424,-0.89l4.212,-1.329l3.986,-1.767l3.867,-2.326l3.548,-2.657l3.322,-3.322l2.869,-3.76l2.552,-3.88l2.099,-4.212l1.78,-4.424l1.209,-4.545l0.785,-4.65l0.332,-4.757l0,-6.311l-0.332,-4.651l-0.785,-4.65l-1.209,-4.531l-1.78,-4.438l-2.099,-4.199l-2.552,-3.986l-2.869,-3.654l-3.322,-3.441l-3.548,-2.645l-3.867,-2.219l-3.986,-1.78l-4.212,-1.434l-4.424,-0.771l-4.319,-0.438l-5.102,0Zm2.551,17.154l2.764,0.11l2.777,0.558l2.657,0.771l2.538,1.116l2.325,1.541l2.113,1.78l1.874,2.1l1.555,2.219l1.222,2.431l0.878,2.658l1.103,4.424l0.678,4.544l0.11,4.651l-0.11,4.531l-0.678,4.544l-1.103,4.544l-0.878,2.538l-1.222,2.551l-1.555,2.219l-1.874,2.1l-2.113,1.767l-2.325,1.448l-2.538,1.104l-2.657,0.877l-2.777,0.452l-2.764,0.213l-2.764,-0.213l-2.777,-0.452l-2.657,-0.877l-2.538,-1.104l-2.325,-1.448l-2.099,-1.767l-1.887,-2.1l-1.555,-2.219l-1.209,-2.551l-0.996,-2.538l-0.997,-4.544l-0.664,-4.544l-0.125,-4.531l0.125,-4.651l0.664,-4.544l0.997,-4.424l0.996,-2.658l1.209,-2.431l1.555,-2.219l1.887,-2.1l2.099,-1.78l2.325,-1.541l2.538,-1.116l2.657,-0.771l2.777,-0.558l2.764,-0.11Z" style="fill:#010001;fill-rule:nonzero;"/></g></g><g><g><rect id="path1754" x="266.175" y="441.1" width="58.718" height="100.44" style="fill:#fff;"/><path id="path1756" d="M294.163,464.219l-2.753,0.171l-2.658,0.447l-2.657,0.797l-2.562,0.978l-2.392,1.318l-2.487,1.861l-2.211,2.221l-1.945,2.392l-1.595,2.742l-1.244,2.839l-0.171,0.531l-0.892,3.539l-0.531,3.636l-0.181,3.624l0.181,3.636l0.531,3.625l0.892,3.454l0.171,0.628l1.244,2.828l1.595,2.657l1.945,2.487l2.211,2.211l2.487,1.861l2.392,1.232l2.562,1.074l2.657,0.786l2.658,0.447l2.753,0.181l2.742,-0.181l2.743,-0.447l2.657,-0.786l2.573,-1.074l2.391,-1.232l2.477,-1.861l2.211,-2.211l1.956,-2.487l1.594,-2.657l1.233,-2.828l0.181,-0.628l0.883,-3.454l0.531,-3.625l0.1,-3.636l-0.1,-3.624l-0.531,-3.636l-0.883,-3.539l-0.181,-0.531l-1.233,-2.839l-1.594,-2.742l-1.956,-2.392l-2.211,-2.221l-2.477,-1.861l-2.391,-1.318l-2.573,-0.978l-2.657,-0.797l-2.743,-0.447l-2.742,-0.171Zm-0,12.044l2.03,0.266l2.126,0.883l1.86,1.413l1.595,1.691l1.328,1.945l0.712,1.594l0.447,1.68l0.35,2.838l0.088,2.742l-0.088,2.743l-0.35,2.838l-0.447,1.68l-0.712,1.594l-1.328,1.956l-1.595,1.679l-1.86,1.414l-2.126,0.797l-2.03,0.362l-1.956,-0.362l-2.126,-0.797l-1.945,-1.414l-1.595,-1.679l-1.244,-1.956l-0.702,-1.594l-0.447,-1.68l-0.35,-2.838l-0.181,-2.743l0.181,-2.742l0.35,-2.838l0.447,-1.68l0.702,-1.594l1.244,-1.945l1.595,-1.691l1.945,-1.413l2.126,-0.883l1.956,-0.266Z" style="fill:#010001;fill-rule:nonzero;"/></g><g><rect id="path17541" serif:id="path1754" x="324.893" y="441.1" width="58.718" height="100.44" style="fill:#fff;"/><path id="path17561" serif:id="path1756" d="M352.881,464.219l-2.753,0.171l-2.657,0.447l-2.658,0.797l-2.561,0.978l-2.392,1.318l-2.488,1.861l-2.211,2.221l-1.945,2.392l-1.594,2.742l-1.244,2.839l-0.171,0.531l-0.893,3.539l-0.531,3.636l-0.181,3.624l0.181,3.636l0.531,3.625l0.893,3.454l0.171,0.628l1.244,2.828l1.594,2.657l1.945,2.487l2.211,2.211l2.488,1.861l2.392,1.232l2.561,1.074l2.658,0.786l2.657,0.447l2.753,0.181l2.743,-0.181l2.742,-0.447l2.658,-0.786l2.572,-1.074l2.392,-1.232l2.476,-1.861l2.211,-2.211l1.956,-2.487l1.595,-2.657l1.233,-2.828l0.18,-0.628l0.883,-3.454l0.531,-3.625l0.101,-3.636l-0.101,-3.624l-0.531,-3.636l-0.883,-3.539l-0.18,-0.531l-1.233,-2.839l-1.595,-2.742l-1.956,-2.392l-2.211,-2.221l-2.476,-1.861l-2.392,-1.318l-2.572,-0.978l-2.658,-0.797l-2.742,-0.447l-2.743,-0.171Zm0,12.044l2.031,0.266l2.125,0.883l1.861,1.413l1.594,1.691l1.329,1.945l0.712,1.594l0.447,1.68l0.35,2.838l0.088,2.742l-0.088,2.743l-0.35,2.838l-0.447,1.68l-0.712,1.594l-1.329,1.956l-1.594,1.679l-1.861,1.414l-2.125,0.797l-2.031,0.362l-1.956,-0.362l-2.126,-0.797l-1.945,-1.414l-1.594,-1.679l-1.244,-1.956l-0.702,-1.594l-0.447,-1.68l-0.351,-2.838l-0.18,-2.743l0.18,-2.742l0.351,-2.838l0.447,-1.68l0.702,-1.594l1.244,-1.945l1.594,-1.691l1.945,-1.413l2.126,-0.883l1.956,-0.266Z" style="fill:#010001;fill-rule:nonzero;"/></g><g id="S"><rect id="path1618" x="76.562" y="441.1" width="74.217" height="100.44" style="fill:#fff;"/><path id="path1620" d="M120.665,489.369l1.594,0.617l1.329,0.893l1.147,1.232l0.798,1.425l0.447,1.499l0.087,1.69l-0.266,1.594l-0.702,1.499l-0.978,1.329l-1.509,1.244l-1.679,0.967l-1.861,0.711l-1.945,0.351l-4.783,-0l-2.743,-0.351l-2.657,-0.531l-2.573,-0.882l-2.572,-1.148l-3.008,-1.956l-2.838,-2.126l-2.562,-2.476l-12.224,9.386l2.572,2.657l2.743,2.477l2.923,2.222l3.093,1.945l3.37,1.594l3.805,1.244l3.986,0.883l3.986,0.617l3.987,0.266l4.071,-0.088l3.986,-0.35l3.986,-0.712l3.901,-1.064l2.658,-1.063l2.476,-1.414l2.307,-1.775l2.041,-2.041l1.764,-2.296l1.425,-2.487l1.052,-2.647l0.712,-2.838l0.266,-2.838l-0.088,-2.828l-0.447,-2.923l-0.797,-2.753l-1.233,-2.562l-1.595,-2.126l-1.86,-1.86l-1.956,-1.69l-2.211,-1.499l-2.306,-1.244l-2.211,-0.883l-2.307,-0.712l-16.465,-4.071l-1.159,-0.447l-1.064,-0.702l-0.882,-0.978l-0.712,-1.063l-0.35,-1.147l-0.181,-1.243l0.1,-1.245l0.436,-1.233l0.626,-1.063l1.414,-1.424l1.595,-1.064l1.86,-0.797l1.945,-0.436l1.956,-0.18l2.913,0.18l2.838,0.436l2.838,0.797l2.657,0.978l2.562,1.329l2.487,1.594l2.211,1.861l10.896,-9.918l-2.923,-2.572l-3.104,-2.211l-3.359,-1.956l-3.455,-1.68l-3.635,-1.233l-3.806,-0.978l-3.816,-0.531l-3.89,-0.18l-3.806,0.18l-3.816,0.531l-3.805,0.978l-2.743,1.064l-2.572,1.318l-2.392,1.69l-2.211,1.945l-1.956,2.126l-1.498,2.126l-1.159,2.307l-0.883,2.392l-0.616,2.476l-0.181,2.573l0.088,2.561l0.447,2.573l0.797,2.392l1.063,2.391l1.329,2.126l1.68,2.03l1.86,1.691l2.657,1.764l2.923,1.244l3.104,0.797l16.556,3.723Z" style="fill:#010001;fill-rule:nonzero;"/></g><g><rect id="path1742" x="383.612" y="441.1" width="32.686" height="100.44" style="fill:#fff;"/><path id="path1744" d="M412.227,504.07l-2.658,0.351l-2.657,0.1l-0.978,-0.1l-0.797,-0.436l-0.702,-0.712l-0.447,-0.797l-0.181,-0.978l0,-55.349l-13.723,-0l0,60.929l0.171,1.861l0.531,1.775l0.797,1.679l1.064,1.595l1.328,1.328l1.51,1.064l1.775,0.712l1.765,0.531l1.86,0.181l4.337,-0.362l4.252,-0.531l4.252,-0.797l-1.499,-12.044Z" style="fill:#010001;fill-rule:nonzero;"/></g><g><rect id="path1794" x="205.511" y="441.1" width="60.664" height="100.44" style="fill:#fff;"/><path id="path1796" d="M243.236,481.397l-1.064,-1.509l-1.328,-1.148l-1.861,-0.797l-2.03,-0.35l-2.041,0.088l-1.945,0.447l-1.956,0.701l-1.594,1.064l-1.414,1.328l-1.063,1.595l-0.712,1.69l-0.171,1.765l-0,30.209l-13.734,0l0,-70.326l13.734,0l-0,23.641l2.03,-1.595l2.126,-1.233l2.392,-0.978l2.487,-0.712l2.477,-0.266l2.572,0l2.923,0.531l2.562,0.893l2.477,1.233l2.222,1.509l2.03,1.775l1.775,2.03l1.509,2.307l1.148,2.658l0.797,2.742l0.447,2.838l0.171,2.923l-0,30.029l-13.723,0l13.723,0l-13.723,0l-0,-29.944l-0.101,-1.764l-0.435,-1.775l-0.707,-1.599Z" style="fill:#010001;fill-rule:nonzero;"/></g><g><rect id="path1798" x="150.779" y="441.1" width="54.732" height="100.44" style="fill:#fff;"/><path id="path1800" d="M169.285,498.575l0.712,1.594l1.244,1.956l1.594,1.765l1.861,1.328l2.211,0.893l1.945,0.266l2.041,-0.266l2.126,-0.893l1.86,-1.328l1.594,-1.765l1.329,-1.956l1.063,-2.827l12.756,4.783l-0.266,0.531l-1.244,2.923l-1.595,2.658l-1.86,2.391l-2.211,2.211l-2.487,1.861l-2.477,1.328l-2.477,0.978l-2.657,0.798l-2.753,0.435l-2.743,0.181l-2.742,-0.181l-2.658,-0.435l-2.657,-0.798l-2.572,-0.978l-2.392,-1.328l-2.477,-1.861l-2.211,-2.211l-1.956,-2.391l-1.594,-2.658l-1.233,-2.923l-0.181,-0.531l-0.882,-3.55l-0.532,-3.625l-0.18,-3.635l0.18,-3.625l0.532,-3.55l0.882,-3.54l0.181,-0.617l1.233,-2.838l1.594,-2.657l1.956,-2.477l2.211,-2.126l2.477,-1.956l2.392,-1.233l2.572,-1.063l2.657,-0.712l2.658,-0.531l2.742,-0.181l2.743,0.181l2.753,0.531l2.657,0.712l2.477,1.063l2.477,1.233l2.487,1.956l2.211,2.126l1.86,2.477l1.595,2.657l1.244,2.838l0.266,0.617l-12.756,4.698l-1.063,-2.838l-1.329,-1.945l-1.594,-1.69l-1.86,-1.329l-2.126,-0.883l-2.041,-0.266l-1.945,0.266l-2.211,0.883l-1.861,1.329l-1.594,1.69l-1.244,1.945l-0.712,1.68l-0.531,1.69l-0.266,2.742l-0.171,2.743l0.171,2.838l0.266,2.742l0.531,1.68Z" style="fill:#010001;fill-rule:nonzero;"/></g></g></g><clipPath id="_clip2"><rect id="_670-20" serif:id="670 20" x="58.105" y="44.361" width="376.651" height="376.651"/></clipPath><g clip-path="url(#_clip2)"><g><circle cx="246.43" cy="232.686" r="188.325" style="fill:#e31837;"/><circle cx="245.331" cy="231.588" r="150.66" style="fill:#fff;"/></g><path d="M313.234,165.362c18.994,-0.276 55.876,10.843 55.876,68.474c0,57.631 -34.849,69.159 -55.876,69.159c-21.014,-0 -55.863,-11.528 -55.863,-69.159c-0,-57.631 37.02,-68.75 55.863,-68.474Zm0,24.808c14.112,-0 28.08,8.273 28.619,42.717c0.402,34.445 -12.744,45.017 -28.619,45.017c-15.856,0 -29.014,-10.572 -28.468,-45.017c0.402,-34.444 14.507,-42.717 28.468,-42.717"/><path d="M157.572,215.8l-27.521,0c-0.684,-24.135 13.146,-53.422 53.824,-53.422c39.6,0 48.278,34.168 48.278,46.104c-0,12.061 -1.086,35.663 -50.718,66.036l49.363,0l-0,23.859l-96.009,0l-0,-24.807c42.04,-28.753 69.429,-43.258 69.429,-63.191c-0,-11.257 -9.356,-23.193 -24.409,-23.193c-15.053,-0 -22.237,14.511 -22.237,28.614"/></g><g><g><g><rect id="path1854" x="137.99" y="797.663" width="46.113" height="62.775" style="fill:#fff;"/><path id="path1856" d="M159.695,799.656l-2.053,0.219l-1.934,0.445l-1.939,0.605l-1.827,0.89l-1.661,1.103l-1.601,1.275l-1.389,1.442l-1.329,1.993l-1.102,2.159l-0.891,2.266l-0.604,2.325l-0.558,2.717l-0.273,2.764l-0.06,2.823l0.06,2.771l0.273,2.763l0.558,2.771l0.604,2.325l0.891,2.212l1.102,2.159l1.329,2.047l1.389,1.441l1.601,1.276l1.661,1.05l1.827,0.883l1.939,0.665l1.934,0.392l2.053,0.219l2.657,-0l1.993,-0.219l1.933,-0.392l1.94,-0.665l1.827,-0.883l1.661,-1.05l1.601,-1.276l1.389,-1.441l1.329,-2.047l1.102,-2.159l0.891,-2.212l0.664,-2.325l0.498,-2.771l0.273,-2.763l0.059,-2.771l-0.059,-2.823l-0.273,-2.764l-0.498,-2.717l-0.664,-2.325l-0.891,-2.266l-1.102,-2.159l-1.329,-1.993l-1.389,-1.442l-1.601,-1.275l-1.661,-1.103l-1.827,-0.89l-1.94,-0.605l-1.933,-0.445l-1.993,-0.219l-2.657,-0Zm1.328,8.191l1.216,0.053l1.216,0.279l1.162,0.445l1.11,0.605l0.997,0.777l0.83,0.944l0.717,0.996l0.559,1.163l0.717,1.993l0.439,2.159l0.279,2.711l0.059,2.71l-0.059,2.711l-0.279,2.657l-0.439,2.159l-0.717,2.053l-0.559,1.103l-0.717,1.05l-0.83,0.89l-0.997,0.777l-1.11,0.605l-1.162,0.445l-1.216,0.272l-1.216,0.06l-1.275,-0.06l-1.216,-0.272l-1.163,-0.445l-1.109,-0.605l-0.997,-0.777l-0.83,-0.89l-0.718,-1.05l-0.558,-1.103l-0.717,-2.053l-0.385,-2.159l-0.28,-2.657l-0.112,-2.711l0.112,-2.71l0.28,-2.711l0.385,-2.159l0.717,-1.993l0.558,-1.163l0.718,-0.996l0.83,-0.944l0.997,-0.777l1.109,-0.605l1.163,-0.445l1.216,-0.279l1.275,-0.053Z" style="fill:#010001;fill-rule:nonzero;"/></g><g><rect id="path1862" x="32.643" y="797.663" width="43.901" height="62.775" style="fill:#fff;"/><path id="path1864" d="M55.51,800.041l-1.94,0.06l-1.827,0.272l-1.827,0.498l-1.774,0.612l-1.714,0.83l-1.607,0.997l-1.269,1.049l-1.11,1.216l-0.943,1.389l-0.771,1.435l-0.558,1.607l-0.325,1.608l-0.167,1.654l0.054,1.329l0.272,1.389l0.445,1.275l0.664,1.216l0.778,1.103l0.996,0.996l1.11,0.778l1.216,0.664l-1.382,0.611l-1.276,0.831l-1.109,1.049l-0.937,1.216l-0.664,1.329l-0.499,1.441l-0.279,1.774l-0.113,1.827l0.166,1.767l0.333,1.774l0.611,1.714l0.777,1.608l0.937,1.495l1.162,1.162l1.329,1.05l1.382,0.831l1.495,0.664l2.053,0.664l2.046,0.499l2.106,0.332l2.159,0.053l2.099,-0.053l2.106,-0.332l2.047,-0.499l2.046,-0.664l1.495,-0.664l1.441,-0.831l1.276,-1.05l1.163,-1.162l0.936,-1.495l0.778,-1.608l0.611,-1.714l0.332,-1.774l0.166,-1.767l-0.113,-1.827l-0.279,-1.774l-0.498,-1.441l-0.665,-1.329l-0.936,-1.216l-1.11,-1.049l-1.275,-0.831l-1.382,-0.611l1.216,-0.664l1.109,-0.778l0.997,-0.996l0.83,-1.103l0.611,-1.216l0.439,-1.275l0.279,-1.389l0.053,-1.329l-0.166,-1.654l-0.332,-1.608l-0.552,-1.607l-0.717,-1.435l-0.997,-1.389l-1.109,-1.216l-1.276,-1.049l-1.601,-0.997l-1.661,-0.83l-1.774,-0.612l-1.88,-0.498l-1.827,-0.272l-1.88,-0.06Zm0,8.138l1.269,0.054l1.216,0.279l1.222,0.445l0.884,0.438l0.777,0.664l0.498,0.725l0.386,0.83l0.226,0.884l0.106,0.883l-0.106,0.891l-0.226,0.883l-0.386,0.831l-0.498,0.717l-0.777,0.664l-0.884,0.446l-1.222,0.445l-1.216,0.272l-1.269,0.113l-1.275,-0.113l-1.276,-0.272l-1.216,-0.445l-0.883,-0.446l-0.725,-0.664l-0.551,-0.717l-0.385,-0.831l-0.226,-0.883l-0.106,-0.891l0.106,-0.883l0.226,-0.884l0.385,-0.83l0.551,-0.725l0.725,-0.664l0.883,-0.438l1.216,-0.445l1.276,-0.279l1.275,-0.054Zm0,17.938l1.827,0.219l1.767,0.386l1.608,0.724l0.777,0.664l0.605,0.831l0.445,0.936l0.219,0.997l0.113,0.996l-0.113,1.05l-0.219,0.943l-0.445,0.944l-0.605,0.83l-0.777,0.665l-1.608,0.717l-1.767,0.445l-1.827,0.166l-1.827,-0.166l-1.827,-0.445l-1.608,-0.717l-0.777,-0.665l-0.551,-0.83l-0.445,-0.944l-0.273,-0.943l-0.113,-1.05l0.113,-0.996l0.273,-0.997l0.445,-0.936l0.551,-0.831l0.777,-0.664l1.608,-0.724l1.827,-0.386l1.827,-0.219Z" style="fill:#010001;fill-rule:nonzero;"/></g><g><rect id="path1858" x="94.701" y="797.663" width="43.29" height="62.775" style="fill:#fff;"/><path id="path1860" d="M98.135,813.162l0.386,-1.714l0.611,-1.721l0.77,-1.548l0.944,-1.494l1.109,-1.382l1.269,-1.223l1.442,-1.103l1.714,-0.996l1.887,-0.831l1.88,-0.664l1.993,-0.445l1.993,-0.219l2.046,-0.06l1.993,0.166l1.993,0.392l1.94,0.551l1.88,0.718l1.442,0.777l1.329,0.884l1.216,1.056l1.049,1.216l0.891,1.329l0.717,1.441l0.498,1.495l0.332,1.548l0.167,1.608l-0.167,1.767l-0.279,1.774l-0.498,1.714l-0.551,1.05l-0.778,0.943l-0.883,0.777l-0.997,0.605l-1.109,0.445l1.275,0.551l1.216,0.724l0.997,0.937l0.83,1.11l0.611,1.215l0.499,2.273l0.219,2.272l-0.113,2.265l-0.332,2.212l-0.386,1.495l-0.604,1.442l-0.724,1.382l-0.937,1.275l-1.056,1.11l-1.216,0.996l-1.329,0.771l-1.442,0.664l-1.494,0.445l-2.93,0.446l-2.937,0.166l-2.989,-0.06l-2.93,-0.332l-1.661,-0.386l-1.661,-0.551l-1.495,-0.724l-1.494,-0.937l-1.276,-1.109l-1.442,-1.774l-1.215,-1.933l-0.944,-2.053l-0.77,-2.16l-0.499,-2.212l8.969,-1.435l0.385,1.435l0.552,1.389l0.777,1.322l0.997,1.109l1.109,0.997l1.163,0.551l1.216,0.392l1.268,0.273l1.276,0.059l1.442,-0.059l1.435,-0.333l1.328,-0.604l1.276,-0.777l0.718,-0.831l0.558,-0.943l0.332,-1.103l0.106,-1.442l-0.053,-0.937l-0.219,-0.89l-0.445,-0.883l-0.552,-0.778l-0.724,-0.604l-0.771,-0.499l-1.275,-0.332l-1.329,-0.166l-5.534,-0.332l-0,-7.972l4.371,-0.332l1.495,-0.226l1.495,-0.439l1.109,-0.611l0.997,-0.83l0.551,-0.831l0.333,-0.937l0.113,-0.943l-0.113,-0.997l-0.333,-0.943l-0.664,-0.884l-0.777,-0.83l-0.937,-0.611l-0.996,-0.439l-1.495,-0.279l-1.495,-0.113l-1.495,0.113l-1.495,0.279l-1.441,0.439l-1.382,0.664l-0.944,0.777l-0.77,0.884l-0.558,1.056l-0.386,1.103l-0.219,1.223l-8.969,-1.276Z" style="fill:#010001;fill-rule:nonzero;"/></g><g><rect id="path1722" x="76.544" y="797.663" width="18.157" height="62.775" style="fill:#fff;"/><path id="path1724" d="M90.608,841.616l-0.113,-1.049l-0.332,-0.997l-0.552,-0.883l-0.777,-0.724l-0.884,-0.552l-0.996,-0.385l-1.05,-0.113l-1.056,0.113l-0.937,0.385l-0.943,0.552l-0.718,0.724l-0.558,0.883l-0.332,0.997l-0.166,1.049l0.166,1.057l0.332,0.996l0.558,0.884l0.718,0.778l0.943,0.551l0.937,0.332l1.056,0.113l1.05,-0.113l0.996,-0.332l0.884,-0.551l0.777,-0.778l0.552,-0.884l0.332,-0.996l0.113,-1.057Z" style="fill:#010001;fill-rule:nonzero;"/></g><g><rect id="path17221" serif:id="path1722" x="271.582" y="797.663" width="18.157" height="62.775" style="fill:#fff;"/><path id="path17241" serif:id="path1724" d="M285.646,841.616l-0.113,-1.049l-0.332,-0.997l-0.552,-0.883l-0.777,-0.724l-0.884,-0.552l-0.996,-0.385l-1.05,-0.113l-1.056,0.113l-0.937,0.385l-0.943,0.552l-0.718,0.724l-0.558,0.883l-0.332,0.997l-0.166,1.049l0.166,1.057l0.332,0.996l0.558,0.884l0.718,0.778l0.943,0.551l0.937,0.332l1.056,0.113l1.05,-0.113l0.996,-0.332l0.884,-0.551l0.777,-0.778l0.552,-0.884l0.332,-0.996l0.113,-1.057Z" style="fill:#010001;fill-rule:nonzero;"/></g><g><rect id="path1770" x="195.873" y="797.663" width="22.867" height="62.775" style="fill:#fff;"/><rect id="path1772" x="199.474" y="822.41" width="13.619" height="6.644" style="fill:#010001;fill-rule:nonzero;"/></g><g><rect id="path1746" x="405.301" y="797.663" width="54.916" height="62.775" style="fill:#fff;"/><path id="path1748" d="M452.411,817.587l-1.11,-1.269l-1.275,-1.11l-1.382,-0.943l-1.495,-0.771l-1.601,-0.558l-1.827,-0.332l-1.388,-0.054l-1.382,0.166l-1.382,0.279l-1.276,0.439l-1.275,0.611l-1.163,0.831l-1.05,0.943l-0.943,1.103l-0.77,-1.216l-0.944,-0.997l-1.103,-0.83l-1.275,-0.611l-0.997,-0.332l-1.827,-0.332l-1.608,-0.055l-1.547,0.219l-1.548,0.392l-1.442,0.604l-1.382,0.831l-1.276,0.996l0,-2.212l-8.576,0l-0,31.331l8.576,0l0,-18.821l0.113,-1.103l0.439,-1.056l0.665,-0.997l0.89,-0.83l0.996,-0.665l1.768,-0.604l0.664,-0.063l0.612,0.063l0.279,0.055l1.163,0.498l0.83,0.717l0.665,0.891l0.438,1.049l0.28,1.11l0.055,1.103l-0,18.655l8.583,-0l0,-18.821l0.107,-1.103l0.391,-1.057l0.718,-0.996l0.883,-0.831l0.997,-0.664l1.774,-0.604l0.611,-0.063l0.664,0.063l0.219,0.055l1.163,0.498l0.83,0.717l0.718,0.89l0.445,1.05l0.219,1.109l0.062,1.103l0,18.655l8.577,0l-8.577,0l8.577,0l0,-18.708l-0.055,-1.827l-0.332,-1.774l-0.498,-1.714l-0.724,-1.661l-0.941,-1.442Z" style="fill:#010001;fill-rule:nonzero;"/></g><g><rect id="path1698" x="369.871" y="797.663" width="35.43" height="62.775" style="fill:#fff;"/><path id="path1700" d="M386.367,812.112l-2.046,0.107l-1.993,0.385l-2.491,0.725l-2.439,0.936l-2.325,1.11l-2.265,1.275l4.205,6.418l1.714,-1.05l1.774,-0.83l1.88,-0.665l1.94,-0.498l1.993,-0.279l1.103,-0.055l1.163,0.219l1.049,0.391l0.611,0.386l0.499,0.551l0.332,0.611l0.113,0.718l-0,1.993l-2.771,0.113l-2.71,0.332l-2.711,0.498l-2.657,0.717l-2.605,0.944l-1.102,0.664l-1.057,0.831l-0.943,0.996l-0.771,1.05l-0.611,1.216l-0.439,1.275l-0.226,1.329l-0.054,1.329l0.112,1.328l0.326,1.276l0.505,1.269l0.664,1.162l0.824,1.057l0.944,0.937l1.109,0.777l1.601,0.771l1.721,0.611l1.827,0.392l1.827,0.218l1.827,-0.054l1.767,-0.226l1.774,-0.439l0.943,-0.445l0.884,-0.552l0.717,-0.664l0.611,-0.831l0.665,0.884l0.83,0.664l0.944,0.499l1.714,0.664l1.767,0.386l1.827,0.219l3.049,-6.697l-0.724,-0l-0.717,-0.106l-0.717,-0.332l-0.558,-0.445l-0.439,-0.611l-0.279,-0.665l-0.113,-0.77l-0,-14.836l-0.107,-1.222l-0.279,-1.216l-0.499,-1.109l-0.611,-1.05l-0.83,-0.996l-0.937,-0.778l-1.056,-0.665l-1.495,-0.657l-1.601,-0.558l-1.94,-0.552l-2.046,-0.279l-1.991,-0.101Zm4.817,18.649l-0,4.484l-0.113,0.831l-0.386,0.777l-0.498,0.665l-0.724,0.498l-0.771,0.28l-1.548,0.219l-1.554,-0l-1.548,-0.219l-0.778,-0.28l-0.664,-0.498l-0.552,-0.611l-0.385,-0.718l-0.226,-0.717l-0,-0.777l0.226,-0.778l0.385,-0.605l0.552,-0.558l0.664,-0.385l2.604,-0.665l1.515,-0.312l1.143,-0.239l2.658,-0.392Z" style="fill:#010001;fill-rule:nonzero;"/></g><g><rect id="path1866" x="230.511" y="797.663" width="41.071" height="62.775" style="fill:#fff;"/><path id="path1868" d="M248.887,800.101l-2.046,0.166l-1.993,0.332l-1.993,0.551l-1.495,0.665l-1.329,0.883l-1.275,0.997l-1.103,1.163l-0.944,1.328l-0.777,1.382l-0.604,1.495l-0.612,2.385l-0.332,2.432l-0.053,2.438l0,1.774l0.219,1.714l0.332,1.66l0.552,1.661l0.724,1.548l0.997,1.382l1.102,1.223l1.276,1.049l1.382,0.884l1.441,0.777l1.608,0.552l1.601,0.392l1.608,0.166l1.993,-0l1.933,-0.226l1.94,-0.439l1.827,-0.664l1.774,-0.89l1.601,-1.05l-0.053,1.382l-0.219,1.388l-0.392,1.329l-0.605,1.269l-0.777,1.163l-0.884,1.049l-1.056,0.944l-1.156,0.551l-1.222,0.392l-1.276,0.166l-1.269,0l-1.275,-0.226l-1.269,-0.385l-0.944,-0.438l-0.83,-0.671l-0.664,-0.824l-0.499,-0.89l-0.332,-1.05l-8.304,3.096l0.445,1.388l0.551,1.329l0.777,1.216l0.884,1.109l0.997,1.05l1.162,0.83l1.216,0.778l1.329,0.551l1.993,0.664l2.385,0.333l2.431,0.166l2.439,-0.053l2.378,-0.28l1.382,-0.385l1.388,-0.498l1.601,-0.777l1.495,-0.997l1.389,-1.163l1.216,-1.328l1.049,-1.442l0.884,-1.548l0.724,-1.608l0.551,-1.654l0.665,-2.717l0.445,-2.711l0.219,-2.77l0.113,-2.764l-0.166,-2.77l-0.332,-2.764l-0.498,-2.717l-0.718,-2.711l-0.279,-0.883l-0.551,-1.661l-0.778,-1.555l-0.943,-1.435l-0.219,-0.279l-1.216,-1.441l-1.389,-1.269l-1.548,-1.057l-1.714,-0.883l-1.94,-0.612l-2.046,-0.385l-2.053,-0.219l-2.046,-0.053Zm1.223,8.132l1.435,0.112l1.381,0.386l1.276,0.664l1.163,0.831l0.943,1.056l0.551,1.05l0.386,1.109l0.226,1.156l0.106,1.169l-0.106,1.163l-0.226,1.163l-0.386,1.049l-0.551,1.05l-0.943,1.056l-1.163,0.884l-1.276,0.604l-1.381,0.392l-1.435,0.107l-1.11,-0.053l-1.056,-0.279l-1.05,-0.439l-0.884,-0.611l-0.83,-0.777l-0.664,-0.884l-0.552,-1.05l-0.392,-1.049l-0.219,-1.163l-0.053,-1.163l0.053,-1.169l0.219,-1.156l0.392,-1.109l0.552,-1.05l0.664,-0.89l0.83,-0.718l0.884,-0.611l1.05,-0.439l1.056,-0.279l1.11,-0.112Z" style="fill:#010001;fill-rule:nonzero;"/></g><g><rect id="path1882" x="316.698" y="797.663" width="41.403" height="62.775" style="fill:#fff;"/><path id="path1884" d="M342.767,823.181l-1.102,-0.831l-1.223,-0.664l-1.328,-0.386l-1.329,-0.113l-1.382,0.054l-1.329,0.332l-1.269,0.611l-1.109,0.777l-0.997,0.937l-0.777,1.163l-9.135,-1.435l3.322,-22.808l27.239,0l-0,8.139l-19.539,-0l-0.944,6.53l1.442,-0.883l1.495,-0.724l1.601,-0.552l1.661,-0.332l1.714,-0.113l1.661,0.06l1.72,0.272l1.602,0.498l1.554,0.665l1.435,0.89l1.329,0.99l1.329,1.276l1.162,1.381l0.997,1.495l0.724,1.495l0.438,1.555l0.333,2.378l0.113,2.438l-0.113,2.432l-0.273,2.385l-0.445,2.378l-0.498,1.601l-0.778,1.495l-0.883,1.389l-1.11,1.268l-1.215,1.163l-1.382,0.944l-1.495,0.777l-1.94,0.717l-1.993,0.552l-2.046,0.332l-2.106,0.113l-2.046,-0.113l-2.047,-0.332l-1.993,-0.552l-1.94,-0.777l-1.548,-0.83l-1.388,-0.937l-1.269,-1.163l-1.11,-1.275l-0.996,-1.442l-0.777,-1.495l-0.605,-1.601l-0.392,-1.661l8.697,-2.491l0.219,1.275l0.445,1.163l0.664,1.103l0.884,0.996l0.996,0.778l1.11,0.604l1.269,0.392l1.275,0.166l1.269,-0.059l1.223,-0.273l1.215,-0.498l1.05,-0.664l0.944,-0.891l0.777,-1.049l0.604,-1.163l0.446,-1.269l0.279,-1.276l0.053,-1.328l-0.113,-1.329l-0.273,-1.276l-0.777,-1.793l-1.276,-1.581Z" style="fill:#010001;fill-rule:nonzero;"/></g><g><rect id="path1874" x="289.738" y="797.663" width="26.96" height="62.775" style="fill:#fff;"/><path id="path1876" d="M300.255,814.989l-7.308,0l0,-7.527l3.601,-0.332l1.11,-0.279l0.996,-0.499l0.884,-0.717l0.611,-0.944l0.438,-0.996l0.725,-2.937l7.965,0l0,43.954l-9.022,0l0,-29.723Z" style="fill:#010001;fill-rule:nonzero;"/></g></g><g><g><rect id="path18821" serif:id="path1882" x="172.284" y="867.971" width="41.403" height="62.775" style="fill:#fff;"/><path id="path18841" serif:id="path1884" d="M198.354,893.489l-1.103,-0.831l-1.223,-0.664l-1.328,-0.385l-1.329,-0.113l-1.382,0.053l-1.329,0.332l-1.269,0.611l-1.109,0.777l-0.997,0.937l-0.777,1.163l-9.135,-1.435l3.322,-22.808l27.239,0l-0,8.139l-19.539,-0l-0.944,6.53l1.442,-0.883l1.495,-0.724l1.601,-0.552l1.661,-0.332l1.714,-0.113l1.661,0.06l1.721,0.272l1.601,0.499l1.554,0.664l1.435,0.89l1.329,0.99l1.329,1.276l1.162,1.382l0.997,1.494l0.724,1.495l0.438,1.555l0.333,2.378l0.113,2.438l-0.113,2.432l-0.273,2.385l-0.445,2.378l-0.498,1.601l-0.777,1.495l-0.884,1.389l-1.109,1.269l-1.216,1.162l-1.382,0.944l-1.495,0.777l-1.94,0.717l-1.993,0.552l-2.046,0.332l-2.106,0.113l-2.046,-0.113l-2.047,-0.332l-1.993,-0.552l-1.94,-0.777l-1.548,-0.83l-1.388,-0.937l-1.269,-1.163l-1.109,-1.275l-0.997,-1.442l-0.777,-1.495l-0.605,-1.601l-0.392,-1.661l8.697,-2.491l0.219,1.276l0.445,1.162l0.664,1.103l0.884,0.997l0.996,0.777l1.11,0.604l1.269,0.392l1.275,0.166l1.269,-0.059l1.223,-0.273l1.216,-0.498l1.049,-0.664l0.944,-0.891l0.777,-1.049l0.605,-1.163l0.445,-1.269l0.279,-1.275l0.053,-1.329l-0.113,-1.329l-0.273,-1.275l-0.777,-1.794l-1.275,-1.581Z" style="fill:#010001;fill-rule:nonzero;"/></g><g><rect id="path1878" x="260.095" y="867.971" width="43.954" height="62.775" style="fill:#fff;"/><path id="path1880" d="M282.789,871.126l-21.365,28.229l-0,8.138l23.857,0l-0,7.528l9.022,-0l-0,-7.528l5.647,0l-0,-8.138l-5.647,-0l-0,-28.229l-11.514,0Zm2.492,9.853l-0,18.376l-13.892,-0l13.892,-18.376Z" style="fill:#010001;fill-rule:nonzero;"/></g><g><rect id="path18581" serif:id="path1858" x="83.878" y="867.971" width="43.29" height="62.775" style="fill:#fff;"/><path id="path18601" serif:id="path1860" d="M87.313,883.47l0.385,-1.714l0.611,-1.721l0.771,-1.548l0.943,-1.494l1.11,-1.382l1.269,-1.223l1.442,-1.102l1.714,-0.997l1.886,-0.83l1.88,-0.665l1.994,-0.445l1.993,-0.219l2.046,-0.06l1.993,0.166l1.993,0.392l1.94,0.552l1.88,0.717l1.442,0.777l1.328,0.884l1.216,1.056l1.05,1.216l0.89,1.329l0.718,1.441l0.498,1.495l0.332,1.548l0.166,1.608l-0.166,1.767l-0.279,1.774l-0.498,1.714l-0.552,1.05l-0.777,0.943l-0.884,0.777l-0.996,0.605l-1.11,0.445l1.276,0.551l1.216,0.725l0.996,0.936l0.831,1.11l0.611,1.216l0.498,2.272l0.219,2.272l-0.112,2.265l-0.333,2.213l-0.385,1.494l-0.605,1.442l-0.724,1.382l-0.936,1.275l-1.057,1.11l-1.216,0.997l-1.328,0.77l-1.442,0.665l-1.495,0.445l-2.93,0.445l-2.936,0.166l-2.99,-0.06l-2.929,-0.332l-1.661,-0.385l-1.661,-0.552l-1.495,-0.724l-1.495,-0.937l-1.275,-1.109l-1.442,-1.774l-1.216,-1.933l-0.943,-2.053l-0.771,-2.159l-0.498,-2.213l8.969,-1.435l0.385,1.435l0.551,1.389l0.778,1.322l0.996,1.109l1.11,0.997l1.162,0.551l1.216,0.392l1.269,0.273l1.276,0.059l1.441,-0.059l1.435,-0.333l1.329,-0.604l1.276,-0.777l0.717,-0.831l0.558,-0.943l0.332,-1.103l0.107,-1.442l-0.053,-0.936l-0.22,-0.891l-0.445,-0.883l-0.551,-0.778l-0.724,-0.604l-0.771,-0.498l-1.276,-0.333l-1.328,-0.166l-5.534,-0.332l-0,-7.972l4.371,-0.332l1.495,-0.226l1.495,-0.439l1.109,-0.611l0.997,-0.83l0.551,-0.831l0.332,-0.937l0.113,-0.943l-0.113,-0.996l-0.332,-0.944l-0.664,-0.883l-0.778,-0.831l-0.936,-0.611l-0.997,-0.439l-1.495,-0.279l-1.494,-0.113l-1.495,0.113l-1.495,0.279l-1.442,0.439l-1.382,0.664l-0.943,0.778l-0.771,0.883l-0.558,1.056l-0.385,1.103l-0.219,1.223l-8.969,-1.276Z" style="fill:#010001;fill-rule:nonzero;"/></g><g><rect id="path18741" serif:id="path1874" x="145.325" y="867.971" width="26.96" height="62.775" style="fill:#fff;"/><path id="path18761" serif:id="path1876" d="M155.841,885.297l-7.308,0l0,-7.527l3.601,-0.332l1.11,-0.279l0.996,-0.499l0.884,-0.717l0.611,-0.943l0.439,-0.997l0.724,-2.936l7.965,-0l0,43.954l-9.022,-0l0,-29.724Z" style="fill:#010001;fill-rule:nonzero;"/></g><g><rect id="path17222" serif:id="path1722" x="127.168" y="867.971" width="18.157" height="62.775" style="fill:#fff;"/><path id="path17242" serif:id="path1724" d="M141.232,911.925l-0.113,-1.05l-0.332,-0.997l-0.551,-0.883l-0.778,-0.724l-0.884,-0.552l-0.996,-0.385l-1.05,-0.113l-1.056,0.113l-0.937,0.385l-0.943,0.552l-0.718,0.724l-0.558,0.883l-0.332,0.997l-0.166,1.05l0.166,1.056l0.332,0.996l0.558,0.884l0.718,0.778l0.943,0.551l0.937,0.332l1.056,0.113l1.05,-0.113l0.996,-0.332l0.884,-0.551l0.778,-0.778l0.551,-0.884l0.332,-0.996l0.113,-1.056Z" style="fill:#010001;fill-rule:nonzero;"/></g><g><rect id="path17701" serif:id="path1770" x="225.457" y="867.971" width="22.867" height="62.775" style="fill:#fff;"/><rect id="path17721" serif:id="path1772" x="229.058" y="892.718" width="13.619" height="6.644" style="fill:#010001;fill-rule:nonzero;"/></g><g><rect id="path1706" x="315.819" y="867.971" width="38.247" height="62.775" style="fill:#fff;"/><path id="path1708" d="M336.022,882.361l-1.661,0.166l-1.661,0.385l-1.548,0.558l-1.548,0.771l-1.388,0.89l-0,-1.442l-8.577,0l0,40.745l8.577,0l-0,-11.513l1.056,0.937l1.163,0.717l1.269,0.558l1.887,0.498l1.986,0.272l1.94,0l1.94,-0.218l1.88,-0.499l1.827,-0.717l1.548,-0.943l1.442,-1.216l1.215,-1.329l0.997,-1.548l0.778,-1.608l0.777,-2.159l0.491,-2.212l0.332,-2.272l0.063,-2.266l-0.113,-2.331l-0.385,-2.213l-0.611,-2.212l-0.771,-2.159l-0.611,-1.216l-0.717,-1.163l-0.891,-0.996l-1.269,-1.163l-1.388,-0.996l-1.435,-0.778l-1.608,-0.665l-1.608,-0.385l-1.654,-0.279l-1.724,0.001Zm-1.275,7.587l1.328,0.055l1.223,0.279l1.216,0.552l1.049,0.717l0.724,0.664l0.605,0.891l0.498,1.102l0.445,1.661l0.332,1.774l0.055,1.714l-0.106,1.774l-0.332,1.714l-0.498,1.714l-0.499,0.944l-0.664,0.83l-0.831,0.717l-0.89,0.558l-0.997,0.332l-1.268,0.332l-1.276,0.107l-1.216,-0.167l-1.222,-0.385l-1.156,-0.552l-0.997,-0.777l-0.837,-0.997l-0.491,-0.664l-0.392,-0.718l-0.219,-0.83l-0.113,-0.83l-0,-6.81l0.166,-1.05l0.392,-0.996l0.605,-0.944l0.724,-0.777l0.996,-0.771l1.156,-0.611l1.223,-0.385l1.267,-0.167Z" style="fill:#010001;fill-rule:nonzero;"/></g><g><rect id="path17461" serif:id="path1746" x="354.066" y="867.971" width="54.916" height="62.775" style="fill:#fff;"/><path id="path17481" serif:id="path1748" d="M401.176,887.895l-1.11,-1.269l-1.275,-1.11l-1.382,-0.943l-1.495,-0.771l-1.601,-0.557l-1.827,-0.332l-1.389,-0.055l-1.381,0.166l-1.382,0.279l-1.276,0.439l-1.275,0.611l-1.163,0.831l-1.05,0.943l-0.943,1.103l-0.771,-1.216l-0.943,-0.996l-1.103,-0.831l-1.276,-0.611l-0.996,-0.332l-1.827,-0.332l-1.608,-0.055l-1.548,0.219l-1.548,0.392l-1.441,0.605l-1.382,0.83l-1.276,0.997l0,-2.213l-8.577,0l0,31.331l8.577,0l0,-18.821l0.113,-1.103l0.439,-1.056l0.664,-0.997l0.891,-0.83l0.996,-0.665l1.767,-0.604l0.665,-0.063l0.611,0.063l0.28,0.055l1.162,0.498l0.831,0.718l0.664,0.89l0.439,1.05l0.279,1.109l0.055,1.103l0,18.655l8.584,-0l-0,-18.821l0.107,-1.103l0.391,-1.056l0.717,-0.997l0.884,-0.83l0.996,-0.665l1.774,-0.604l0.612,-0.063l0.664,0.063l0.219,0.055l1.163,0.498l0.83,0.717l0.717,0.89l0.445,1.05l0.219,1.11l0.063,1.102l0,18.656l8.577,-0l-8.577,-0l8.577,-0l-0,-18.709l-0.055,-1.827l-0.332,-1.774l-0.498,-1.714l-0.724,-1.66l-0.941,-1.443Z" style="fill:#010001;fill-rule:nonzero;"/></g></g><g><g><rect id="path17702" serif:id="path1770" x="259.933" y="727.354" width="22.867" height="62.775" style="fill:#fff;"/><rect id="path17722" serif:id="path1772" x="263.534" y="752.102" width="13.619" height="6.644" style="fill:#010001;fill-rule:nonzero;"/></g><g><g><rect id="path1786" x="333.15" y="727.354" width="27.292" height="62.775" style="fill:#fff;"/><path id="path1788" d="M346.105,774.404l-8.584,0l0,-31.331l8.584,0l-0,3.103l1.049,-1.057l1.163,-0.883l1.329,-0.778l1.441,-0.498l1.435,-0.332l1.495,-0.107l2.106,0l0,8.139l-2.936,-0l-1.216,0.106l-1.216,0.331l-1.109,0.558l-1.05,0.718l-0.83,0.83l-0.718,1.05l-0.557,1.109l-0.332,1.216l-0.055,1.222l0.001,16.604Z" style="fill:#010001;fill-rule:nonzero;"/></g><g><rect id="path1790" x="360.442" y="727.354" width="17.885" height="62.775" style="fill:#fff;"/><path id="path1792" d="M368.912,730.178l-0.943,0.106l-0.937,0.279l-0.83,0.445l-0.778,0.604l-0.611,0.778l-0.439,0.83l-0.279,0.944l-0.113,0.937l0.113,0.943l0.279,0.943l0.439,0.884l0.611,0.717l0.778,0.611l0.83,0.439l0.937,0.279l0.943,0.113l0.944,-0.113l0.936,-0.279l0.831,-0.439l0.777,-0.611l0.612,-0.717l0.438,-0.884l0.28,-0.943l0.113,-0.943l-0.113,-0.937l-0.28,-0.944l-0.438,-0.83l-0.612,-0.778l-0.777,-0.604l-0.831,-0.445l-0.936,-0.279l-0.944,-0.106Zm-4.318,12.895l-0,31.384l8.583,0l0,-31.384l-8.583,0Z" style="fill:#010001;fill-rule:nonzero;"/></g><g id="F"><rect id="path1662" x="294.571" y="727.354" width="38.579" height="62.775" style="fill:#fff;"/><path id="path1664" d="M310.841,774.404l-0,-18.21l17.991,0l-0,-8.138l-17.991,-0l-0,-9.022l19.877,-0l0,-8.524l-28.839,0l-0,43.894l8.962,0Z" style="fill:#010001;fill-rule:nonzero;"/></g></g><g><g><rect id="path17542" serif:id="path1754" x="173.489" y="727.354" width="36.699" height="62.775" style="fill:#fff;"/><path id="path17562" serif:id="path1756" d="M190.982,741.804l-1.721,0.107l-1.661,0.279l-1.661,0.499l-1.601,0.611l-1.495,0.824l-1.554,1.162l-1.382,1.389l-1.216,1.495l-0.997,1.714l-0.777,1.773l-0.107,0.332l-0.558,2.213l-0.332,2.272l-0.113,2.265l0.113,2.272l0.332,2.266l0.558,2.159l0.107,0.392l0.777,1.768l0.997,1.66l1.216,1.555l1.382,1.382l1.554,1.163l1.495,0.77l1.601,0.671l1.661,0.491l1.661,0.28l1.721,0.113l1.714,-0.113l1.714,-0.28l1.661,-0.491l1.607,-0.671l1.495,-0.77l1.548,-1.163l1.382,-1.382l1.222,-1.555l0.997,-1.66l0.77,-1.768l0.113,-0.392l0.552,-2.159l0.332,-2.266l0.063,-2.272l-0.063,-2.265l-0.332,-2.272l-0.552,-2.213l-0.113,-0.332l-0.77,-1.773l-0.997,-1.714l-1.222,-1.495l-1.382,-1.389l-1.548,-1.162l-1.495,-0.824l-1.607,-0.611l-1.661,-0.499l-1.714,-0.279l-1.714,-0.107Zm-0,7.527l1.268,0.167l1.329,0.551l1.163,0.884l0.996,1.056l0.831,1.216l0.445,0.997l0.279,1.049l0.219,1.774l0.055,1.714l-0.055,1.714l-0.219,1.774l-0.279,1.05l-0.445,0.996l-0.831,1.223l-0.996,1.049l-1.163,0.884l-1.329,0.498l-1.268,0.226l-1.223,-0.226l-1.329,-0.498l-1.215,-0.884l-0.997,-1.049l-0.778,-1.223l-0.438,-0.996l-0.28,-1.05l-0.218,-1.774l-0.113,-1.714l0.113,-1.714l0.218,-1.774l0.28,-1.049l0.438,-0.997l0.778,-1.216l0.997,-1.056l1.215,-0.884l1.329,-0.551l1.223,-0.167Z" style="fill:#010001;fill-rule:nonzero;"/></g><g><rect id="path1750" x="210.188" y="727.354" width="37.975" height="62.775" style="fill:#fff;"/><path id="path1752" d="M234.49,754.646l-0.226,-1.109l-0.498,-1.05l-0.665,-0.89l-0.83,-0.717l-1.163,-0.499l-1.269,-0.219l-1.275,0.055l-1.216,0.219l-1.222,0.499l-0.997,0.664l-0.883,0.831l-0.665,0.996l-0.445,1.056l-0.107,1.103l0,18.822l-8.583,-0l-0,-31.332l8.583,0l0,2.213l1.269,-0.997l1.389,-0.83l1.435,-0.604l1.554,-0.393l1.548,-0.219l1.608,0.055l1.827,0.332l1.601,0.558l1.548,0.771l1.389,0.943l1.268,1.109l1.11,1.269l0.943,1.442l0.718,1.661l0.498,1.714l0.279,1.774l0.107,1.827l-0,18.708l-8.577,0l8.577,0l-8.577,0l0,-18.655l-0.053,-1.107Z" style="fill:#010001;fill-rule:nonzero;"/></g><g id="M"><rect id="path1574" x="114.534" y="727.354" width="58.955" height="62.775" style="fill:#fff;"/><path id="path1576" d="M130.811,774.464l-0,-31.829l13.287,19.259l13.28,-19.259l0,31.829l8.969,0l0,-43.954l-11.513,0l-10.736,15.553l-10.743,-15.553l-11.566,0l-0,43.954l9.022,0Z" style="fill:#010001;fill-rule:nonzero;"/></g></g></g></g></g></svg>