<?xml version="1.0" encoding="UTF-8" standalone="no"?><!DOCTYPE svg PUBLIC "-//W3C//DTD SVG 1.1//EN" "http://www.w3.org/Graphics/SVG/1.1/DTD/svg11.dtd"><svg width="100%" height="100%" viewBox="0 0 492 753" version="1.1" xmlns="http://www.w3.org/2000/svg" xmlns:xlink="http://www.w3.org/1999/xlink" xml:space="preserve" xmlns:serif="http://www.serif.com/" style="fill-rule:evenodd;clip-rule:evenodd;stroke-linecap:round;stroke-linejoin:round;stroke-miterlimit:1.5;"><g transform="matrix(50,0,0,50,367.605,393.714)"></g><text x="138.284px" y="393.714px" style="font-family:'ArialMT', 'Arial', sans-serif;font-size:50px;">sw=63.68</text><clipPath id="_clip1"><rect x="0" y="0" width="491.339" height="752.126"/></clipPath><g clip-path="url(#_clip1)"><rect id="_02" serif:id="02" x="0" y="0" width="491.339" height="752.126" style="fill:none;"/><clipPath id="_clip2"><rect x="0" y="0" width="491.339" height="752.126"/></clipPath><g clip-path="url(#_clip2)"><g><path d="M491.339,22.677c-0,-12.516 -10.162,-22.677 -22.678,-22.677l-445.984,0c-12.516,0 -22.677,10.161 -22.677,22.677l0,706.772c0,12.516 10.161,22.677 22.677,22.677l445.984,-0c12.516,-0 22.678,-10.161 22.678,-22.677l-0,-706.772Z"/><g><path d="M480,22.677c-0,-6.258 -5.081,-11.338 -11.339,-11.338l-445.984,-0c-6.258,-0 -11.338,5.08 -11.338,11.338l-0,544.252c-0,6.258 5.08,11.339 11.338,11.339l445.984,-0c6.258,-0 11.339,-5.081 11.339,-11.339l-0,-544.252Z" style="fill:#fff;"/><g><clipPath id="_clip3"><rect id="_01-Max-Speed-20" serif:id="01 Max Speed 20" x="56.693" y="26.457" width="377.953" height="377.953"/></clipPath><g clip-path="url(#_clip3)"><g><circle cx="245.669" cy="215.433" r="188.976" style="fill:#e31837;"/><circle cx="244.567" cy="214.331" r="151.181" style="fill:#fff;"/></g><path d="M309.555,147.876c19.059,-0.277 56.069,10.88 56.069,68.711c0,57.83 -34.97,69.397 -56.069,69.397c-21.087,0 -56.057,-11.567 -56.057,-69.397c0,-57.831 37.149,-68.988 56.057,-68.711Zm-0,24.894c14.161,-0 28.176,8.302 28.718,42.865c0.403,34.563 -12.788,45.172 -28.718,45.172c-15.911,0 -29.115,-10.609 -28.567,-45.172c0.403,-34.563 14.558,-42.865 28.567,-42.865"/><path d="M153.354,198.489l-27.616,-0c-0.686,-24.219 13.191,-53.607 54.011,-53.607c39.736,-0 48.444,34.286 48.444,46.263c0,12.103 -1.089,35.786 -50.893,66.265l49.533,-0l0,23.941l-96.341,0l0,-24.893c42.186,-28.852 69.67,-43.408 69.67,-63.409c-0,-11.297 -9.388,-23.274 -24.493,-23.274c-15.105,0 -22.315,14.562 -22.315,28.714"/></g><g><g id="E"><rect id="path1642" x="340.266" y="442.205" width="83.403" height="120.945" style="fill:#fff;"/><path id="path1644" d="M413.109,516.328l-41.484,0l0,-18.56l34.662,0l-0,-15.679l-34.662,-0l0,-17.382l38.284,-0l0,-16.422l-55.679,-0l0,84.568l58.879,-0l0,-16.525Z" style="fill:#010001;fill-rule:nonzero;"/></g><g id="Z"><rect id="path1578" x="67.67" y="442.205" width="73.163" height="120.945" style="fill:#fff;"/><path id="path1580" d="M74.274,465.564l0,-17.279l58.457,-0l-0,17.382l-38.08,49.919l39.244,-0l0,17.267l-61.106,-0l0,-17.267l38.067,-50.022l-36.582,0Z" style="fill:#010001;fill-rule:nonzero;"/></g><g id="O"><rect id="path1594" x="140.833" y="442.205" width="96.728" height="120.945" style="fill:#fff;"/><path id="path1596" d="M186.899,446.262l-4.262,0.422l-4.16,0.742l-4.045,1.382l-3.955,1.715l-3.622,2.138l-3.418,2.547l-3.2,3.315l-2.764,3.52l-2.458,3.84l-2.138,4.045l-1.599,4.275l-1.165,4.365l-0.857,4.48l-0.32,4.479l-0,6.08l0.32,4.583l0.857,4.48l1.165,4.377l1.599,4.262l2.138,4.058l2.458,3.738l2.764,3.622l3.2,3.2l3.418,2.56l3.622,2.24l3.955,1.702l4.045,1.281l4.16,0.857l4.262,0.421l4.915,0l4.16,-0.421l4.263,-0.857l4.057,-1.281l3.84,-1.702l3.725,-2.24l3.417,-2.56l3.2,-3.2l2.765,-3.622l2.458,-3.738l2.022,-4.058l1.715,-4.262l1.164,-4.377l0.756,-4.48l0.321,-4.583l-0,-6.08l-0.321,-4.479l-0.756,-4.48l-1.164,-4.365l-1.715,-4.275l-2.022,-4.045l-2.458,-3.84l-2.765,-3.52l-3.2,-3.315l-3.417,-2.547l-3.725,-2.138l-3.84,-1.715l-4.057,-1.382l-4.263,-0.742l-4.16,-0.422l-4.915,0Zm2.458,16.525l2.662,0.105l2.675,0.539l2.56,0.742l2.445,1.075l2.24,1.484l2.035,1.716l1.805,2.022l1.498,2.138l1.178,2.342l0.845,2.56l1.063,4.262l0.653,4.378l0.106,4.48l-0.106,4.364l-0.653,4.378l-1.063,4.377l-0.845,2.445l-1.178,2.458l-1.498,2.137l-1.805,2.023l-2.035,1.702l-2.24,1.395l-2.445,1.063l-2.56,0.845l-2.675,0.436l-2.662,0.205l-2.663,-0.205l-2.675,-0.436l-2.56,-0.845l-2.444,-1.063l-2.24,-1.395l-2.023,-1.702l-1.817,-2.023l-1.499,-2.137l-1.164,-2.458l-0.96,-2.445l-0.96,-4.377l-0.639,-4.378l-0.121,-4.364l0.121,-4.48l0.639,-4.378l0.96,-4.262l0.96,-2.56l1.164,-2.342l1.499,-2.138l1.817,-2.022l2.023,-1.716l2.24,-1.484l2.444,-1.075l2.56,-0.742l2.675,-0.539l2.663,-0.105Z" style="fill:#010001;fill-rule:nonzero;"/></g><g id="_-N" serif:id=" N"><rect id="path1590" x="237.561" y="442.205" width="102.705" height="120.945" style="fill:#fff;"/><path id="path1592" d="M271.365,448.285l-19.725,-0l0,84.683l17.28,-0l-0,-57.279l37.862,57.279l19.827,-0l-0,-84.683l-17.383,-0l0,57.266l-37.861,-57.266Z" style="fill:#010001;fill-rule:nonzero;"/></g></g></g></g><path d="M480,600.945c-0,-6.258 -5.081,-11.339 -11.339,-11.339l-445.984,0c-6.258,0 -11.338,5.081 -11.338,11.339l-0,128.504c-0,6.258 5.08,11.338 11.338,11.338l445.984,0c6.258,0 11.339,-5.08 11.339,-11.338l-0,-128.504Z" style="fill:#fff;"/><g><g><path d="M32.424,656.551l1.422,-45.441c0.036,-0.772 -0.04,-1.366 -0.311,-1.65c2.544,-0.876 5.247,-1.173 8.122,-0.842l-0.02,3.452c3.45,-3.721 6.659,-5.199 9.174,-0.207c2.529,7.063 1.462,15.301 -1.978,17.697c-1.882,1.311 -5.864,0.494 -7.591,-1.575l-0.64,28.511l-8.178,0.055Zm13.602,-40.059c1.25,0 2.264,1.49 2.264,3.325c0,1.835 -1.014,3.325 -2.264,3.325c-1.25,0 -2.265,-1.49 -2.265,-3.325c0,-1.835 1.015,-3.325 2.265,-3.325Z" style="fill:#41639e;stroke:#000;stroke-width:1.15px;"/><path d="M54.876,607.732l7.841,0.221c-1.89,13.002 -2.576,25.6 -2.423,37.916c6.01,1.289 12.429,1.222 19.119,0.256l-1.058,9.947c-8.458,0.015 -17.013,0.419 -25.667,1.218c1.254,-15.779 1.907,-32.406 2.188,-49.558Z" style="fill:#41639e;stroke:#000;stroke-width:1.15px;"/><path d="M192.929,669.494c-0,-0 -2.339,-0.325 -3.465,-0.086c-1.127,0.239 -3.294,1.519 -3.294,1.519c-0,0 -0.586,11.711 -0.985,17.559c-0.427,6.255 -1.576,19.972 -1.576,19.972c2.533,-0.338 4.976,-0.357 7.314,-0.009c-0,-0 0.007,-14.524 0.341,-21.017c0.309,-5.997 1.665,-17.938 1.665,-17.938Z" style="fill:#5e9732;stroke:#000;stroke-width:1.15px;"/><path d="M189.89,713.11c-2.295,0.557 -4.693,0.548 -7.188,0c0.391,2.515 0.455,4.952 -0,7.266c2.344,-0.416 4.744,-0.387 7.188,-0c-0.426,-2.541 -0.47,-4.975 0,-7.266Z" style="fill:#5e9732;stroke:#000;stroke-width:1.15px;"/><path d="M166.745,671.245c-1.831,-0.824 -3.748,-1.125 -5.774,-0.773c0.764,5.284 0.988,10.719 0,16.493l0.239,19.252c0,-0 0.149,5.416 -0.096,7.056c-0.153,1.025 -1.083,1.723 -1.373,2.783c-0.177,0.646 -0.124,2.367 0.732,2.796c0.672,0.337 2.875,0.234 4.115,0.144c0.534,-0.039 1.008,-0.358 1.245,-0.839c1.02,-2.066 3.752,-7.6 3.752,-7.6l2.239,7.149c0.319,1.134 0.994,1.801 2.309,1.63c0,-0 1.393,-0.367 2.416,-0.636c0.634,-0.167 1.088,-0.724 1.125,-1.379c0.19,-3.44 0.763,-13.779 0.763,-13.779l0.381,-13.139l0.927,-11.918c0.152,-2.92 0.839,-5.481 1.867,-7.813c-1.651,-1.005 -3.416,-1.029 -5.262,-0.367c-0.882,1.961 -0.309,5.256 -0.688,7.858c-0.435,2.995 -1.632,6.693 -1.925,10.113c-0.408,4.769 -0.524,18.499 -0.524,18.499l-2.974,-3.721l-3.664,6.213c0,-0 -0.13,-12.39 0.811,-17.461c0.791,-4.265 0.624,-13.459 0.624,-13.459c0.139,-2.179 -0.237,-4.531 -1.265,-7.102Z" style="fill:#794400;stroke:#000;stroke-width:1.15px;"/><path d="M121.313,684.047l-11.937,-1.406l0.205,-4.714c4.049,1.755 8.25,2.621 12.688,2.102l0.492,-9.347c0,-0 -7.021,3.338 -9.671,1.757c-2.644,-1.577 -8.612,0.595 -8.612,0.595l-2.354,14.415c-0.223,1.767 0.295,2.824 1.706,3.023c2.081,-1.225 4.451,-1.212 7.018,-0.353c0.694,6.527 0.697,13.054 -0.399,19.582c0.028,2.638 -1.183,3.35 -3.023,3.086l-5.673,-1.308l-0.25,11.294l20.101,-1.587c0.726,-6.841 2.171,-11.272 1.003,-20.176c-0.741,-5.648 -2.223,-10.851 -1.294,-16.963Z" style="fill:#794400;stroke:#000;stroke-width:1.15px;"/><path d="M83.991,608.321c6.428,0.79 12.414,-0.019 17.87,-2.758l0.402,11.816l-6.387,-2.34c-1.799,-0.331 -3.107,0.345 -3.351,2.464l-1.166,8.846c2.358,0.121 4.716,-0.278 7.073,-1.411l-0.592,7.633c-2.072,-1.727 -4.425,-2.501 -6.995,-2.534l-1.4,13.773c5.765,0.736 11.374,0.823 16.457,-1.287l-1.459,12.887c-8.705,-0.7 -16.572,-0.373 -23.916,0.593c1.612,-8.304 3.861,-16.788 2.893,-25.337c-0.863,-7.626 -0.46,-14.842 0.571,-22.345Z" style="fill:#41639e;stroke:#000;stroke-width:1.15px;"/><path d="M165.911,606.647c-0.215,-0.026 -0.43,0.042 -0.591,0.185c-0.162,0.144 -0.254,0.35 -0.254,0.566c-0,14.964 -1.694,29.888 -4.772,44.78c-0.05,0.24 0.02,0.489 0.187,0.669c0.167,0.179 0.411,0.266 0.654,0.234c5.583,-0.745 8.887,0.807 13.074,1.529c5.096,0.878 9.914,1.569 13.517,0.809c0.298,-0.065 0.526,-0.303 0.58,-0.603c0.276,-1.531 1.123,-6.244 1.449,-8.06c0.072,-0.404 -0.19,-0.792 -0.592,-0.874c-6.513,-1.328 -12.854,-1.839 -18.723,-0.12c-0.234,0.07 -0.488,0.023 -0.68,-0.127c-0.193,-0.15 -0.302,-0.384 -0.292,-0.628c0.068,-1.655 0.2,-4.831 0.279,-6.73c0.011,-0.277 0.173,-0.525 0.422,-0.648c0.248,-0.122 0.544,-0.098 0.77,0.062c1.802,1.314 3.607,1.53 5.412,0.853c0.26,-0.099 0.444,-0.333 0.479,-0.608c0.232,-1.786 1.109,-8.617 1.395,-10.842c0.053,-0.41 -0.234,-0.786 -0.644,-0.844c-1.825,-0.249 -3.497,0.18 -5.014,1.301c-0.248,0.178 -0.578,0.189 -0.837,0.027c-0.259,-0.161 -0.395,-0.463 -0.344,-0.764c0.577,-3.444 1.668,-9.919 1.965,-11.682c0.047,-0.28 0.247,-0.51 0.518,-0.596c3.889,-1.197 8.194,-1.339 12.959,-1.476c0.214,-0.007 0.416,-0.104 0.554,-0.268c0.139,-0.164 0.201,-0.379 0.172,-0.592c-0.239,-1.769 -0.015,-3.659 0.765,-5.694c0.098,-0.259 0.047,-0.551 -0.134,-0.76c-0.181,-0.21 -0.463,-0.304 -0.733,-0.244c-6.987,1.505 -14.147,2.003 -21.541,1.145Z" style="fill:#41639e;stroke:#000;stroke-width:1.15px;"/><path d="M160.9,604.745l-0.827,5.59l-14.297,3.238l-0.524,4.822c-0,-0 9.779,-3.501 13.215,-4.73c0.249,-0.089 0.526,-0.042 0.732,0.125c0.205,0.166 0.308,0.428 0.272,0.69c-0.55,3.954 -2.243,16.266 -2.564,20.264c-0.494,6.142 0.092,18.486 0.092,18.486l-20.755,-0.157l-0.115,-11.173c4.147,-0.951 8.331,0.388 12.54,3.327c-0,-0 2.379,-10.509 2.915,-14.02c0.354,-2.323 0.298,-7.045 0.298,-7.045c0.201,-2.156 -0.866,-2.89 -3.466,-1.909l-8.264,3.18c-1.44,0.365 -2.207,-0.426 -2.092,-2.733l0.909,-15.783c-0,-0 8.024,0.194 11.351,-1.124c3.298,-1.307 10.58,-1.048 10.58,-1.048Z" style="fill:#41639e;stroke:#000;stroke-width:1.15px;"/><path d="M109.424,606.997c9.151,0.789 18.012,0.367 26.579,-1.295c-0,-0 -2.577,12.446 -3.308,18.752c-0.939,8.093 -2.326,29.802 -2.326,29.802c-2.94,0.428 -6.061,0.278 -9.585,-1.157c1.371,-10.145 2.719,-20.257 3.994,-31.399l-6.061,1.052c-1.295,10.37 -1.37,21.072 -1.966,31.745c-3.298,0.67 -6.774,0.891 -10.462,0.58c1.503,-15.934 3.836,-31.701 3.135,-48.08Zm15.056,5.611l-4.647,-0.057l-0.024,4.213l3.908,-0.039l0.763,-4.117Z" style="fill:#41639e;stroke:#000;stroke-width:1.15px;"/><path d="M40.977,714.509l3.393,0.161c-0.014,3.391 -1.574,4.302 -3.729,4.26c-2.383,-0.241 -4.192,-1.518 -3.848,-6.667l2.002,-28.859c0.826,-3.449 5.4,-5.591 7.63,-5.561c2.229,0.029 5.349,0.295 5.747,5.738l4.532,0.19l0.474,-4.821c0.385,-3.68 -0.619,-6.161 -4.32,-6.311l-11.547,-0.85c-5.295,-0.008 -6.998,3.152 -7.62,7.266l-3.445,35.081c-0.143,6.511 1.215,10.226 4.281,10.757c6.387,1.177 12.148,1.259 16.297,-1.487c0.842,-2.84 1.264,-5.647 0.841,-8.39l6.967,-0.108l-0.113,-6.171c-5.298,0.521 -10.774,0.501 -16.558,-0.448l-0.984,6.22Z" style="fill:#ffd200;stroke:#000;stroke-width:1.15px;"/><path d="M82.119,717.562l-0.248,-21.93l0.665,-11.458l1.061,-8.029c-0.074,-4.043 -1.842,-5.823 -5.806,-4.67c-4.674,2.081 -9.451,2.673 -14.32,1.911c0,-0 -0.496,10.051 -0.556,15.081c-0.068,5.708 0.444,13.883 0.148,19.164c-0.236,4.217 -1.921,12.523 -1.921,12.523c-0.247,1.507 0.194,2.435 1.439,2.687c0,-0 4.065,-0.501 8.317,-0.712c0.054,-0.003 0.107,-0.006 0.16,-0.008c2.384,-0.114 4.812,-0.135 6.602,0.078c0,0 2.769,0.521 3.566,-0.733c0.991,-1.559 0.893,-3.904 0.893,-3.904Zm-5.21,-24.784c-0.015,-0.378 -0.213,-0.724 -0.531,-0.926c-1.484,-0.935 -3.1,-1.334 -4.868,-1.121c-0.45,0.055 -0.825,0.375 -0.954,0.814c-0.982,3.448 -1.249,7.228 -1.206,11.152c0.005,0.433 0.251,0.826 0.635,1.017c1.287,0.644 2.437,0.74 3.94,0.343c0.388,-0.101 0.694,-0.399 0.808,-0.787c1.029,-3.472 2.307,-6.682 2.176,-10.492Z" style="fill:#ffd200;stroke:#000;stroke-width:1.15px;"/><path d="M157.722,672.553c-0.828,-2.713 -2.613,-3.628 -5.153,-3.125c-6.136,1.215 -6.199,-0.144 -8.223,0.665c-1.77,0.707 -3.833,1.948 -3.922,4.188c0,-0 0.38,11.648 -0.263,17.419c-0.777,6.986 0.147,23.443 0.147,23.443c-0.051,3.237 0.798,4.657 2.42,4.521l11.398,-0.093c2.483,-1.84 3.731,-5.134 3.414,-10.269l0.182,-36.749Zm-5.248,15.641c-0.047,-0.601 -0.545,-1.063 -1.142,-1.061c-1.202,-0.002 -2.323,1.287 -3.833,1.833c-0.353,0.12 -0.624,0.407 -0.727,0.768c-0.925,3.243 -0.619,5.382 -0.511,9.087c0.016,0.566 0.438,1.036 0.996,1.108c1.349,0.175 2.844,-0.697 4.364,-1.286c0.352,-0.132 0.616,-0.43 0.708,-0.796c0.835,-3.376 0.438,-5.954 0.145,-9.653Z" style="fill:#794400;stroke:#000;stroke-width:1.15px;"/><path d="M133.169,671.571c-0,-0 -0.891,-2.665 -3.042,-1.134c-0.809,0.576 -3.252,0.371 -3.252,0.371c0,-0 0.067,17.053 -0.822,25.405c-0.864,8.12 -0.792,24.488 -0.792,24.488c4.435,-1.269 8.743,-1.379 12.886,-0c0.419,-2.303 0.632,-4.939 0.565,-8.026c-2.368,-0.928 -4.5,-0.49 -6.479,0.837c0,-0 0.996,-19.072 1.152,-26.062c0.118,-5.292 -0.216,-15.879 -0.216,-15.879Z" style="fill:#794400;stroke:#000;stroke-width:1.15px;"/></g><g><g><path d="M310.343,668.273c-20.929,8.813 -47.245,15.878 -72.248,23.725c-7.759,2.435 -15.685,0.979 -23.074,4.775c-5.048,2.594 -10.881,4.25 -17.134,5.691c6.954,3.982 14.826,4.265 22.419,4.099c4.96,-0.109 10.926,-0.024 16.543,0.154c5.478,0.174 10.624,0.437 14.184,0.696c6.238,0.453 12.137,-3.131 18.316,-4.102c7.146,-1.122 17.201,-0.55 24.561,-2.632c7.108,-2.01 21.152,-1.097 21.152,-1.097l55.926,-8.282c6.08,-1.705 9.458,-3.032 15.139,-5.533c4.459,-1.962 10.236,-5.618 14.964,-7.365c3.886,-1.436 7.467,-2.574 11.504,-3.888c3.52,-1.147 7.694,-2.238 11.063,-4.327c5.377,-3.334 22.075,-12.369 22.075,-12.369c1.885,-1.451 3.629,-3.045 5.099,-4.915c0.953,-1.212 2.264,-2.503 2.95,-3.983c1.592,-0.47 2.473,-2.055 2.315,-5.269c4.234,-1.133 6.828,-2.774 3.466,-6.263c-1.159,-0.488 -2.723,-0.225 -3.889,-0.529c-1.036,-0.27 -1.674,-1.128 -2.716,-1.245c-1.991,-0.223 -4.284,-0.417 -6.297,-0.037c-2.254,-0.121 -4.425,0.256 -6.484,1.312c-3.06,1.335 -5.22,3.214 -6.821,5.432l-3.662,3.564c-1.741,3.166 -5.863,4.556 -8.685,5.738l-5.089,1.199c-1.961,0.499 -3.69,1.398 -4.97,3.074c-11.058,2.189 -21.715,5.138 -32.773,8.799l-67.834,3.578Z" style="fill:#794400;stroke:#000;stroke-width:1.15px;"/><path d="M326.424,702.991c-7.989,1.628 -14.208,-4.219 -16.18,-13.758c-1.763,-8.534 0.852,-20.256 0.913,-21.65c0.643,-14.741 10.42,-32.02 34.962,-33.488c18.085,-1.082 32.881,15.102 32.825,33.703c-0.06,19.932 -14.843,36.677 -32.825,33.703c-1.575,-0.26 -3.162,-0.367 -4.733,-0.526c-2.46,-0.258 -4.946,-0.039 -7.325,0.645c-2.441,0.708 -5.162,0.867 -7.637,1.371Z" style="fill:#794400;stroke:#000;stroke-width:1.15px;"/><path d="M363.11,647.94c-1.555,-0.869 -4.667,-2.608 -7.105,-3.213c-2.439,-0.605 -5.026,-0.679 -7.525,-0.418c-2.61,0.272 -5.633,0.796 -8.136,2.052c-2.803,1.406 -6.279,4.282 -8.685,6.388c-2.128,1.863 -4.114,3.947 -5.749,6.25c-1.635,2.304 -2.852,4.974 -4.061,7.572c-1.254,2.693 -3.028,5.735 -3.46,8.588c-0.429,2.825 -0.153,6.163 0.866,8.53c1.018,2.367 3.171,4.158 5.245,5.673c2.074,1.514 4.73,2.727 7.199,3.413c2.457,0.682 5.068,0.822 7.614,0.698c2.584,-0.125 5.362,-0.578 7.893,-1.449c3.22,-1.109 8.468,-3.314 11.423,-5.2c2.466,-1.573 4.726,-3.858 6.311,-6.114c1.547,-2.203 2.596,-4.931 3.2,-7.426c0.592,-2.446 1.008,-5.093 0.422,-7.541c-0.617,-2.585 -2.524,-6.046 -4.129,-7.967c-1.404,-1.68 -3.477,-2.792 -5.502,-3.56c-2.024,-0.769 -4.409,-1.193 -6.647,-1.051c-2.49,0.158 -5.833,0.564 -8.293,1.999c-2.772,1.617 -6.192,5.209 -8.337,7.702c-1.858,2.16 -3.626,4.843 -4.533,7.257c-0.852,2.271 -1.714,4.991 -0.906,7.227c0.809,2.237 3.047,5.466 5.76,6.195c2.763,0.741 7.465,-0.286 10.819,-1.744c3.391,-1.475 7.65,-5.236 9.527,-7.107c1.051,-1.048 1.78,-2.702 1.732,-4.117c-0.047,-1.414 -0.78,-3.378 -2.017,-4.369c-1.237,-0.991 -3.737,-1.418 -5.404,-1.576c-1.539,-0.146 -3.18,0.003 -4.597,0.628c-1.714,0.757 -4.55,2.428 -5.689,3.914c-1.037,1.355 -1.833,4.118 -1.141,5.005c0.692,0.887 3.606,0.783 5.292,0.316c1.686,-0.467 3.778,-2.234 4.824,-3.118" style="fill:none;stroke:#000;stroke-width:1.15px;"/></g><path d="M345.715,620.327l1.174,-0.856c-1.128,-0.705 -1.493,-1.564 -1.226,-2.549l5.418,-1.889c0.309,0.851 0.779,1.458 1.486,1.708c-1.069,0.873 -1.569,1.894 -1.404,3.089l-0.278,4.249c2.641,0.129 4.59,-0.605 5.908,-2.124l2.031,3.158c-2.506,2.266 -5.458,3.075 -8.898,2.282l-1.76,17.132c-0,0 1,0.164 1.852,0.303c0.693,0.113 1.218,0.69 1.264,1.391c0.073,1.081 0.168,2.501 0.168,2.501l-9.178,0.31c0.62,-9.412 1.498,-18.9 3.443,-28.705Z" style="fill:#794400;stroke:#000;stroke-width:1.15px;"/><path d="M347.753,626.342c0.65,0.804 1.484,1.161 2.483,1.111" style="fill:none;stroke:#000;stroke-width:1.15px;"/><path d="M344.174,631.336c0.14,0.221 1.554,0.374 2.893,0.363c0.89,-0.008 1.747,-0.088 2.172,-0.269" style="fill:none;stroke:#000;stroke-width:1.15px;"/><path d="M355.766,612.997l0.228,-2.337l-5.132,3.206c-3.979,-2.253 -6.249,1.313 -5.373,3.197l5.651,-1.992l4.626,-2.074Z" style="stroke:#000;stroke-width:1.15px;"/><path d="M450.836,652.079c-12.215,-4.346 -24.198,-8.209 -39.053,-12.351c-11.547,-3.219 -24.986,-5.507 -39.993,-10.41c-3.159,-1.032 -8.506,-1.869 -10.399,-3.405c-1.844,-1.498 -5.929,-4.865 -3.981,-4.472c6.523,1.316 28.467,6.012 47.08,10.758c15.615,3.981 28.867,8.234 28.867,8.234l0.143,0.071" style="fill:none;stroke:#000;stroke-width:3.44px;"/><path d="M346.558,619.924c0.277,0.303 3.984,0.122 4.331,-0.226" style="fill:none;stroke:#000;stroke-width:1.15px;"/><path d="M442.424,635.615c-0.721,-0.657 0.9,-6.367 1.327,-6.246" style="stroke:#000;stroke-width:1.15px;"/><ellipse cx="443.912" cy="627.627" rx="1.755" ry="1.769" style="stroke:#000;stroke-width:1.15px;"/><ellipse cx="446.727" cy="629.946" rx="1.464" ry="1.603" style="stroke:#000;stroke-width:1.15px;"/><path d="M446.1,635.409c-0.325,0 -0.111,-3.588 0.554,-3.588" style="fill:none;stroke:#000;stroke-width:1.15px;"/></g></g></g></g></g></svg>