<?xml version="1.0" encoding="UTF-8" standalone="no"?><!DOCTYPE svg PUBLIC "-//W3C//DTD SVG 1.1//EN" "http://www.w3.org/Graphics/SVG/1.1/DTD/svg11.dtd"><svg width="100%" height="100%" viewBox="0 0 454 707" version="1.1" xmlns="http://www.w3.org/2000/svg" xmlns:xlink="http://www.w3.org/1999/xlink" xml:space="preserve" xmlns:serif="http://www.serif.com/" style="fill-rule:evenodd;clip-rule:evenodd;stroke-linejoin:round;stroke-miterlimit:2;"><g transform="matrix(50,0,0,50,348.818,389.323)"></g><text x="119.496px" y="389.323px" style="font-family:'ArialMT', 'Arial', sans-serif;font-size:50px;">sw=59.84</text><clipPath id="_clip1"><rect x="0" y="0" width="453.543" height="706.772"/></clipPath><g clip-path="url(#_clip1)"><rect id="_30-SCZ" serif:id="30 SCZ" x="0" y="-0" width="453.543" height="706.772" style="fill:none;"/><clipPath id="_clip2"><rect x="0" y="-0" width="453.543" height="706.772"/></clipPath><g clip-path="url(#_clip2)"><path d="M453.543,22.677c0,-12.516 -10.161,-22.677 -22.677,-22.677l-408.189,-0c-12.516,-0 -22.677,10.161 -22.677,22.677l0,661.417c0,12.516 10.161,22.678 22.677,22.678l408.189,-0c12.516,-0 22.677,-10.162 22.677,-22.678l0,-661.417Z"/><path d="M442.205,464.882c-0,-6.258 -5.081,-11.339 -11.339,-11.339l-408.189,0c-6.258,0 -11.338,5.081 -11.338,11.339l-0,219.212c-0,6.258 5.08,11.339 11.338,11.339l408.189,0c6.258,0 11.339,-5.081 11.339,-11.339l-0,-219.212Z" style="fill:#fff;"/><g><g><g><g><rect id="path1754" x="324.193" y="480" width="35.353" height="60.472" style="fill:#fff;"/><path id="path1756" d="M341.043,493.92l-1.657,0.103l-1.6,0.269l-1.6,0.48l-1.542,0.588l-1.44,0.794l-1.498,1.12l-1.331,1.338l-1.171,1.44l-0.96,1.651l-0.749,1.709l-0.103,0.319l-0.538,2.131l-0.319,2.189l-0.109,2.182l0.109,2.189l0.319,2.183l0.538,2.08l0.103,0.378l0.749,1.702l0.96,1.6l1.171,1.498l1.331,1.331l1.498,1.12l1.44,0.742l1.542,0.646l1.6,0.473l1.6,0.27l1.657,0.108l1.652,-0.108l1.651,-0.27l1.6,-0.473l1.549,-0.646l1.44,-0.742l1.491,-1.12l1.331,-1.331l1.177,-1.498l0.96,-1.6l0.743,-1.702l0.109,-0.378l0.531,-2.08l0.32,-2.183l0.06,-2.189l-0.06,-2.182l-0.32,-2.189l-0.531,-2.131l-0.109,-0.319l-0.743,-1.709l-0.96,-1.651l-1.177,-1.44l-1.331,-1.338l-1.491,-1.12l-1.44,-0.794l-1.549,-0.588l-1.6,-0.48l-1.651,-0.269l-1.652,-0.103Zm0,7.251l1.223,0.16l1.28,0.531l1.12,0.852l0.96,1.017l0.8,1.171l0.428,0.96l0.269,1.011l0.211,1.709l0.053,1.651l-0.053,1.652l-0.211,1.708l-0.269,1.012l-0.428,0.96l-0.8,1.177l-0.96,1.011l-1.12,0.851l-1.28,0.48l-1.223,0.218l-1.177,-0.218l-1.28,-0.48l-1.171,-0.851l-0.96,-1.011l-0.749,-1.177l-0.423,-0.96l-0.269,-1.012l-0.211,-1.708l-0.109,-1.652l0.109,-1.651l0.211,-1.709l0.269,-1.011l0.423,-0.96l0.749,-1.171l0.96,-1.017l1.171,-0.852l1.28,-0.531l1.177,-0.16Z" style="fill:#010001;fill-rule:nonzero;"/></g><g><rect id="path17541" serif:id="path1754" x="359.545" y="480" width="35.353" height="60.472" style="fill:#fff;"/><path id="path17561" serif:id="path1756" d="M376.396,493.92l-1.657,0.103l-1.6,0.269l-1.6,0.48l-1.543,0.588l-1.44,0.794l-1.497,1.12l-1.331,1.338l-1.171,1.44l-0.96,1.651l-0.749,1.709l-0.103,0.319l-0.538,2.131l-0.319,2.189l-0.109,2.182l0.109,2.189l0.319,2.183l0.538,2.08l0.103,0.378l0.749,1.702l0.96,1.6l1.171,1.498l1.331,1.331l1.497,1.12l1.44,0.742l1.543,0.646l1.6,0.473l1.6,0.27l1.657,0.108l1.651,-0.108l1.652,-0.27l1.6,-0.473l1.548,-0.646l1.44,-0.742l1.492,-1.12l1.331,-1.331l1.177,-1.498l0.96,-1.6l0.743,-1.702l0.108,-0.378l0.532,-2.08l0.32,-2.183l0.06,-2.189l-0.06,-2.182l-0.32,-2.189l-0.532,-2.131l-0.108,-0.319l-0.743,-1.709l-0.96,-1.651l-1.177,-1.44l-1.331,-1.338l-1.492,-1.12l-1.44,-0.794l-1.548,-0.588l-1.6,-0.48l-1.652,-0.269l-1.651,-0.103Zm0,7.251l1.223,0.16l1.28,0.531l1.12,0.852l0.96,1.017l0.8,1.171l0.428,0.96l0.269,1.011l0.211,1.709l0.053,1.651l-0.053,1.652l-0.211,1.708l-0.269,1.012l-0.428,0.96l-0.8,1.177l-0.96,1.011l-1.12,0.851l-1.28,0.48l-1.223,0.218l-1.177,-0.218l-1.28,-0.48l-1.171,-0.851l-0.96,-1.011l-0.749,-1.177l-0.423,-0.96l-0.269,-1.012l-0.211,-1.708l-0.109,-1.652l0.109,-1.651l0.211,-1.709l0.269,-1.011l0.423,-0.96l0.749,-1.171l0.96,-1.017l1.171,-0.852l1.28,-0.531l1.177,-0.16Z" style="fill:#010001;fill-rule:nonzero;"/></g><g id="S"><rect id="path1618" x="210.032" y="480" width="44.684" height="60.472" style="fill:#fff;"/><path id="path1620" d="M236.585,509.062l0.96,0.371l0.8,0.537l0.691,0.743l0.48,0.857l0.269,0.903l0.053,1.017l-0.161,0.96l-0.422,0.903l-0.589,0.8l-0.909,0.749l-1.011,0.582l-1.12,0.428l-1.171,0.211l-2.88,0l-1.651,-0.211l-1.6,-0.319l-1.549,-0.532l-1.549,-0.691l-1.811,-1.177l-1.709,-1.28l-1.542,-1.491l-7.36,5.651l1.549,1.6l1.651,1.491l1.76,1.337l1.862,1.172l2.029,0.96l2.291,0.749l2.4,0.531l2.4,0.371l2.4,0.16l2.451,-0.052l2.4,-0.211l2.4,-0.429l2.349,-0.64l1.6,-0.64l1.491,-0.852l1.389,-1.068l1.229,-1.229l1.062,-1.382l0.858,-1.498l0.633,-1.594l0.429,-1.708l0.16,-1.709l-0.053,-1.703l-0.269,-1.76l-0.48,-1.657l-0.742,-1.542l-0.96,-1.28l-1.12,-1.12l-1.178,-1.018l-1.331,-0.902l-1.389,-0.749l-1.331,-0.532l-1.389,-0.428l-9.913,-2.452l-0.698,-0.269l-0.64,-0.422l-0.532,-0.589l-0.428,-0.64l-0.211,-0.691l-0.109,-0.749l0.061,-0.749l0.262,-0.742l0.377,-0.64l0.851,-0.858l0.96,-0.64l1.12,-0.48l1.171,-0.262l1.178,-0.109l1.753,0.109l1.709,0.262l1.709,0.48l1.6,0.589l1.542,0.8l1.498,0.96l1.331,1.12l6.56,-5.971l-1.76,-1.549l-1.869,-1.331l-2.022,-1.178l-2.08,-1.011l-2.189,-0.742l-2.291,-0.589l-2.298,-0.32l-2.342,-0.109l-2.291,0.109l-2.298,0.32l-2.291,0.589l-1.651,0.64l-1.549,0.794l-1.44,1.017l-1.331,1.171l-1.177,1.28l-0.903,1.28l-0.697,1.389l-0.532,1.44l-0.371,1.491l-0.109,1.549l0.053,1.542l0.269,1.549l0.48,1.44l0.64,1.44l0.8,1.28l1.012,1.222l1.12,1.018l1.6,1.062l1.759,0.749l1.869,0.48l9.968,2.242Z" style="fill:#010001;fill-rule:nonzero;"/></g><g><rect id="path1742" x="394.898" y="480" width="19.68" height="60.472" style="fill:#fff;"/><path id="path1744" d="M412.127,517.913l-1.6,0.211l-1.6,0.06l-0.589,-0.06l-0.48,-0.263l-0.422,-0.428l-0.27,-0.48l-0.108,-0.589l-0,-33.324l-8.263,-0l0,36.684l0.103,1.12l0.32,1.069l0.48,1.011l0.64,0.96l0.8,0.8l0.909,0.64l1.069,0.429l1.062,0.319l1.12,0.109l2.611,-0.217l2.56,-0.32l2.56,-0.48l-0.902,-7.251Z" style="fill:#010001;fill-rule:nonzero;"/></g><g><rect id="path1794" x="287.669" y="480" width="36.524" height="60.472" style="fill:#fff;"/><path id="path1796" d="M310.382,504.262l-0.641,-0.909l-0.8,-0.691l-1.12,-0.48l-1.222,-0.211l-1.229,0.053l-1.171,0.269l-1.177,0.423l-0.96,0.64l-0.852,0.8l-0.64,0.96l-0.428,1.018l-0.103,1.062l-0,18.189l-8.269,-0l0,-42.342l8.269,-0l-0,14.233l1.222,-0.96l1.28,-0.742l1.44,-0.589l1.498,-0.428l1.491,-0.161l1.549,0l1.76,0.32l1.542,0.537l1.491,0.743l1.338,0.909l1.222,1.068l1.069,1.223l0.909,1.389l0.69,1.599l0.48,1.652l0.27,1.708l0.102,1.76l0,18.08l-8.262,0l8.262,0l-8.262,0l0,-18.028l-0.06,-1.063l-0.263,-1.069l-0.425,-0.962Z" style="fill:#010001;fill-rule:nonzero;"/></g><g><rect id="path1798" x="254.716" y="480" width="32.953" height="60.472" style="fill:#fff;"/><path id="path1800" d="M265.858,514.604l0.428,0.96l0.749,1.178l0.96,1.062l1.12,0.8l1.332,0.537l1.171,0.161l1.229,-0.161l1.28,-0.537l1.119,-0.8l0.96,-1.062l0.8,-1.178l0.641,-1.702l7.68,2.88l-0.161,0.319l-0.749,1.76l-0.96,1.6l-1.12,1.44l-1.331,1.332l-1.498,1.12l-1.491,0.8l-1.491,0.588l-1.6,0.48l-1.657,0.263l-1.652,0.109l-1.651,-0.109l-1.6,-0.263l-1.6,-0.48l-1.548,-0.588l-1.44,-0.8l-1.492,-1.12l-1.331,-1.332l-1.177,-1.44l-0.96,-1.6l-0.743,-1.76l-0.108,-0.319l-0.532,-2.138l-0.32,-2.182l-0.108,-2.189l0.108,-2.182l0.32,-2.138l0.532,-2.131l0.108,-0.371l0.743,-1.709l0.96,-1.6l1.177,-1.491l1.331,-1.28l1.492,-1.178l1.44,-0.742l1.548,-0.64l1.6,-0.429l1.6,-0.32l1.651,-0.109l1.652,0.109l1.657,0.32l1.6,0.429l1.491,0.64l1.491,0.742l1.498,1.178l1.331,1.28l1.12,1.491l0.96,1.6l0.749,1.709l0.161,0.371l-7.68,2.829l-0.641,-1.709l-0.8,-1.171l-0.96,-1.018l-1.119,-0.8l-1.28,-0.531l-1.229,-0.16l-1.171,0.16l-1.332,0.531l-1.12,0.8l-0.96,1.018l-0.749,1.171l-0.428,1.011l-0.32,1.018l-0.16,1.651l-0.103,1.651l0.103,1.709l0.16,1.651l0.32,1.011Z" style="fill:#010001;fill-rule:nonzero;"/></g></g><g><g><rect id="path17542" serif:id="path1754" x="277.697" y="540.472" width="35.353" height="60.472" style="fill:#fff;"/><path id="path17562" serif:id="path1756" d="M294.548,554.392l-1.657,0.103l-1.6,0.269l-1.6,0.48l-1.543,0.589l-1.44,0.793l-1.497,1.12l-1.331,1.338l-1.171,1.44l-0.96,1.651l-0.75,1.709l-0.102,0.32l-0.538,2.131l-0.32,2.189l-0.108,2.182l0.108,2.189l0.32,2.182l0.538,2.08l0.102,0.378l0.75,1.702l0.96,1.6l1.171,1.498l1.331,1.331l1.497,1.12l1.44,0.742l1.543,0.647l1.6,0.473l1.6,0.269l1.657,0.109l1.651,-0.109l1.652,-0.269l1.6,-0.473l1.548,-0.647l1.44,-0.742l1.492,-1.12l1.331,-1.331l1.177,-1.498l0.96,-1.6l0.743,-1.702l0.108,-0.378l0.532,-2.08l0.32,-2.182l0.06,-2.189l-0.06,-2.182l-0.32,-2.189l-0.532,-2.131l-0.108,-0.32l-0.743,-1.709l-0.96,-1.651l-1.177,-1.44l-1.331,-1.338l-1.492,-1.12l-1.44,-0.793l-1.548,-0.589l-1.6,-0.48l-1.652,-0.269l-1.651,-0.103Zm0,7.251l1.223,0.16l1.28,0.532l1.12,0.851l0.96,1.018l0.8,1.171l0.428,0.96l0.269,1.011l0.211,1.709l0.053,1.651l-0.053,1.651l-0.211,1.709l-0.269,1.011l-0.428,0.96l-0.8,1.178l-0.96,1.011l-1.12,0.851l-1.28,0.48l-1.223,0.218l-1.177,-0.218l-1.28,-0.48l-1.171,-0.851l-0.96,-1.011l-0.749,-1.178l-0.423,-0.96l-0.269,-1.011l-0.211,-1.709l-0.109,-1.651l0.109,-1.651l0.211,-1.709l0.269,-1.011l0.423,-0.96l0.749,-1.171l0.96,-1.018l1.171,-0.851l1.28,-0.532l1.177,-0.16Z" style="fill:#010001;fill-rule:nonzero;"/></g><g><rect id="path1750" x="313.05" y="540.472" width="36.582" height="60.472" style="fill:#fff;"/><path id="path1752" d="M336.461,566.763l-0.218,-1.069l-0.48,-1.011l-0.64,-0.857l-0.8,-0.691l-1.12,-0.48l-1.222,-0.211l-1.229,0.053l-1.171,0.211l-1.178,0.48l-0.96,0.64l-0.851,0.8l-0.64,0.96l-0.429,1.017l-0.102,1.063l-0,18.131l-8.269,-0l-0,-30.182l8.269,-0l-0,2.131l1.222,-0.96l1.337,-0.8l1.383,-0.582l1.497,-0.378l1.492,-0.211l1.548,0.053l1.76,0.32l1.543,0.537l1.491,0.743l1.337,0.908l1.223,1.069l1.069,1.222l0.908,1.389l0.691,1.6l0.48,1.651l0.269,1.709l0.103,1.76l0,18.022l-8.262,0l8.262,0l-8.262,0l-0,-17.971l-0.051,-1.066Z" style="fill:#010001;fill-rule:nonzero;"/></g><g><rect id="path1806" x="349.632" y="540.472" width="33.862" height="60.472" style="fill:#fff;"/><path id="path1808" d="M365.952,554.815l-1.549,0.108l-1.542,0.263l-1.498,0.48l-1.44,0.697l-1.331,0.8l-1.44,1.063l-1.331,1.28l-1.12,1.44l-0.909,1.548l-0.749,1.92l-0.531,2.029l-0.32,2.023l-0.109,2.08l0.16,2.079l0.378,2.029l0.582,1.971l0.749,1.92l0.69,1.389l0.909,1.28l0.96,1.171l1.171,1.069l1.229,0.902l1.331,0.8l1.44,0.589l1.498,0.429l1.913,0.371l1.978,0.16l1.971,-0.053l1.971,-0.217l1.92,-0.423l1.498,-0.537l1.382,-0.691l1.28,-0.909l1.171,-1.069l1.069,-1.171l-5.12,-5.171l-1.171,1.069l-1.331,0.851l-1.44,0.64l-1.389,0.371l-1.389,0.109l-1.382,-0.053l-1.389,-0.269l-1.331,-0.48l-0.909,-0.589l-0.8,-0.742l-0.64,-0.858l-0.48,-0.96l-0.262,-1.062l-0.109,-1.069l20.16,0l-0.109,-2.509l-0.269,-2.502l-0.532,-2.451l-0.749,-2.4l-0.691,-1.6l-0.909,-1.44l-1.062,-1.389l-1.28,-1.171l-1.389,-1.017l-1.331,-0.8l-1.44,-0.582l-1.549,-0.429l-1.548,-0.269l-1.541,-0.048Zm-0.16,6.879l1.062,0l1.069,0.211l1.011,0.378l0.909,0.531l0.851,0.691l0.698,0.8l0.531,0.909l0.371,1.011l0.16,1.069l-12.262,-0l0.16,-1.069l0.372,-1.011l0.537,-0.909l0.691,-0.8l0.851,-0.691l0.909,-0.531l1.011,-0.378l1.069,-0.211Z" style="fill:#010001;fill-rule:nonzero;"/></g><g id="Z"><rect id="path1578" x="241.116" y="540.472" width="36.582" height="60.472" style="fill:#fff;"/><path id="path1580" d="M244.418,552.152l0,-8.64l29.228,0l0,8.691l-19.039,24.96l19.622,-0l-0,8.633l-30.553,0l-0,-8.633l19.033,-25.011l-18.291,0Z" style="fill:#010001;fill-rule:nonzero;"/></g></g></g><g><g id="E"><rect id="path1642" x="197.523" y="608.504" width="52.127" height="75.591" style="fill:#fff;"/><path id="path1644" d="M243.05,654.831l-25.927,0l-0,-11.6l21.663,0l0,-9.8l-21.663,0l-0,-10.863l23.927,-0l0,-10.264l-34.799,-0l-0,52.855l36.799,-0l0,-10.328Z" style="fill:#010001;fill-rule:nonzero;"/></g><g id="D"><rect id="path1566" x="313.841" y="608.504" width="57.391" height="75.591" style="fill:#fff;"/><path id="path1568" d="M322.841,612.304l-0,52.855l19.928,-0l2.464,-0.129l2.536,-0.399l2.4,-0.665l2.335,-0.936l2.264,-1.136l2.064,-1.4l1.936,-1.6l1.8,-1.8l1.528,-2l1.336,-2.128l1.136,-2.272l0.864,-2.328l0.6,-2.464l0.4,-2.872l0.2,-2.864l-0,-2.863l-0.2,-2.936l-0.4,-2.864l-0.6,-2.4l-0.864,-2.4l-1.136,-2.272l-1.336,-2.128l-1.528,-1.936l-1.8,-1.8l-1.936,-1.664l-2.064,-1.336l-2.264,-1.2l-2.335,-0.928l-2.4,-0.6l-2.536,-0.4l-2.464,-0.136l-19.928,0.001Zm10.864,10.528l9.199,-0l1.864,0.136l1.8,0.464l1.736,0.671l1.664,0.928l1.464,1.136l1.272,1.4l1.064,1.536l0.8,1.664l0.6,1.8l0.464,2.536l0.201,2.528l-0,2.6l-0.264,2.6l-0.536,2.536l-0.6,1.664l-0.863,1.664l-1.064,1.472l-1.272,1.264l-1.464,1.136l-1.6,0.863l-1.664,0.6l-1.8,0.4l-1.8,0.136l-9.2,0l-0.001,-31.734Z" style="fill:#010001;fill-rule:nonzero;"/></g><g id="S1" serif:id="S"><rect id="path16181" serif:id="path1618" x="371.232" y="608.504" width="55.855" height="75.591" style="fill:#fff;"/><path id="path16201" serif:id="path1620" d="M404.423,644.831l1.2,0.464l1,0.672l0.864,0.928l0.6,1.072l0.336,1.128l0.066,1.272l-0.2,1.2l-0.528,1.128l-0.736,1l-1.136,0.936l-1.264,0.728l-1.4,0.535l-1.464,0.264l-3.6,0l-2.064,-0.264l-2,-0.399l-1.936,-0.665l-1.936,-0.863l-2.264,-1.472l-2.136,-1.6l-1.928,-1.864l-9.2,7.064l1.936,2l2.064,1.864l2.2,1.672l2.328,1.464l2.536,1.2l2.864,0.936l3,0.664l3,0.464l3,0.201l3.064,-0.067l3,-0.263l3,-0.536l2.936,-0.8l2,-0.801l1.864,-1.064l1.735,-1.335l1.536,-1.536l1.328,-1.728l1.072,-1.872l0.792,-1.992l0.536,-2.136l0.2,-2.136l-0.066,-2.128l-0.336,-2.2l-0.6,-2.072l-0.928,-1.928l-1.2,-1.6l-1.4,-1.4l-1.472,-1.272l-1.664,-1.128l-1.736,-0.936l-1.664,-0.665l-1.736,-0.535l-12.392,-3.064l-0.872,-0.337l-0.8,-0.528l-0.664,-0.736l-0.536,-0.8l-0.264,-0.864l-0.136,-0.935l0.076,-0.937l0.328,-0.928l0.471,-0.8l1.064,-1.072l1.2,-0.8l1.4,-0.6l1.464,-0.328l1.472,-0.136l2.192,0.136l2.136,0.328l2.136,0.6l2,0.736l1.928,1l1.872,1.2l1.664,1.4l8.2,-7.464l-2.2,-1.936l-2.336,-1.664l-2.528,-1.472l-2.6,-1.264l-2.736,-0.928l-2.864,-0.736l-2.872,-0.399l-2.928,-0.137l-2.864,0.137l-2.872,0.399l-2.864,0.736l-2.064,0.801l-1.936,0.992l-1.8,1.272l-1.664,1.464l-1.472,1.599l-1.128,1.6l-0.872,1.736l-0.664,1.8l-0.464,1.864l-0.136,1.936l0.066,1.928l0.337,1.936l0.6,1.8l0.8,1.8l1,1.6l1.264,1.528l1.4,1.272l2,1.328l2.2,0.936l2.336,0.6l12.459,2.802Z" style="fill:#010001;fill-rule:nonzero;"/></g><g id="_-N" serif:id=" N"><rect id="path1590" x="249.65" y="608.504" width="64.191" height="75.591" style="fill:#fff;"/><path id="path1592" d="M270.778,612.304l-12.328,-0l-0,52.927l10.8,-0l-0,-35.799l23.663,35.799l12.392,-0l0,-52.927l-10.864,-0l0,35.791l-23.663,-35.791Z" style="fill:#010001;fill-rule:nonzero;"/></g></g></g><path d="M442.205,22.677c-0,-6.258 -5.081,-11.338 -11.339,-11.338l-408.189,-0c-6.258,-0 -11.338,5.08 -11.338,11.338l-0,408.189c-0,6.258 5.08,11.339 11.338,11.339l408.189,-0c6.258,-0 11.339,-5.081 11.339,-11.339l-0,-408.189Z" style="fill:#fff;"/><clipPath id="_clip3"><rect id="_670-30" serif:id="670 30" x="37.795" y="37.795" width="377.953" height="377.953"/></clipPath><g clip-path="url(#_clip3)"><g><circle cx="226.772" cy="226.772" r="188.976" style="fill:#e31837;"/><circle cx="225.669" cy="225.669" r="151.181" style="fill:#fff;"/></g><path d="M294.553,156.362c19.288,-0.142 57.163,11.1 57.163,70.063c0,59.104 -35.652,70.898 -57.163,70.898c-21.506,-0 -57.164,-11.794 -57.164,-70.898c0,-58.963 37.741,-70.205 57.164,-70.063Zm-105.727,66.868c1.246,0 15.958,-6.382 15.958,-27.328c0,-21.088 -19.011,-39.682 -50.37,-39.682c-31.216,0 -50.228,15.265 -52.587,41.347l28.453,3.052c2.218,-12.623 8.594,-20.117 26.082,-20.117c17.617,0 19.976,12.347 19.976,16.788c-0.277,12.07 -7.495,16.505 -30.105,16.505l-0,22.617c6.658,0.56 20.117,0.277 24.14,2.912c7.629,4.994 7.629,8.882 7.629,13.593c0,3.195 -0.276,19.018 -20.676,19.018c-20.394,0 -24.828,-11.099 -27.046,-21.511l-28.453,5.129c3.336,23.176 19.43,41.346 54.946,41.346c35.658,-0 50.37,-23.858 50.37,-42.452c0,-18.729 -11.376,-29.828 -18.317,-31.217Zm105.727,-41.339c14.287,-0 28.723,8.323 29.128,43.704c0.565,35.241 -12.9,46.058 -29.128,46.058c-16.235,-0 -29.694,-10.817 -29.283,-46.058c0.56,-35.381 14.854,-43.704 29.283,-43.704Z"/></g><rect id="_20-Ends" serif:id="20 Ends" x="26.457" y="498.898" width="151.181" height="151.181" style="fill:none;"/><clipPath id="_clip4"><rect x="26.457" y="498.898" width="151.181" height="151.181"/></clipPath><g clip-path="url(#_clip4)"><circle cx="102.047" cy="574.488" r="75.591" style="fill:#999;"/><circle cx="101.606" cy="574.047" r="60.472" style="fill:#fff;"/><path d="M128.861,547.465c7.624,-0.111 22.428,4.353 22.428,27.485c0,23.132 -13.988,27.759 -22.428,27.759c-8.434,-0 -22.422,-4.627 -22.422,-27.759c-0,-23.132 14.859,-27.596 22.422,-27.485Zm0,9.958c5.665,-0 11.271,3.321 11.487,17.146c0.162,13.825 -5.115,18.069 -11.487,18.069c-6.364,-0 -11.645,-4.244 -11.426,-18.069c0.161,-13.825 5.823,-17.146 11.426,-17.146" style="fill:#999;"/><path d="M66.381,567.71l-11.046,0c-0.275,-9.687 5.276,-21.442 21.604,-21.442c15.894,-0 19.378,13.714 19.378,18.505c-0,4.841 -0.436,14.314 -20.358,26.506l19.814,-0l-0,9.576l-38.537,0l0,-9.957c16.875,-11.541 27.868,-17.363 27.868,-25.364c0,-4.518 -3.755,-9.309 -9.797,-9.309c-6.042,0 -8.926,5.825 -8.926,11.485" style="fill:#999;"/><clipPath id="_clip5"><circle cx="102.047" cy="574.488" r="75.591"/></clipPath><g clip-path="url(#_clip5)"><path d="M165.119,530.659l-2.138,-2.138l-106.901,106.901l2.138,2.138l106.901,-106.901Zm-4.276,-4.276l-2.138,-2.138l-106.901,106.901l2.138,2.138l106.901,-106.901Zm-4.276,-4.276l-2.138,-2.138l-106.901,106.901l2.138,2.138l106.901,-106.901Zm-4.276,-4.276l-2.138,-2.138l-106.901,106.901l2.138,2.138l106.901,-106.901Zm-4.276,-4.276l-2.138,-2.139l-106.901,106.902l2.138,2.138l106.901,-106.901Z"/></g></g></g></g></svg>