<?xml version="1.0" encoding="UTF-8" standalone="no"?><!DOCTYPE svg PUBLIC "-//W3C//DTD SVG 1.1//EN" "http://www.w3.org/Graphics/SVG/1.1/DTD/svg11.dtd"><svg width="100%" height="100%" viewBox="0 0 454 700" version="1.1" xmlns="http://www.w3.org/2000/svg" xmlns:xlink="http://www.w3.org/1999/xlink" xml:space="preserve" xmlns:serif="http://www.serif.com/" style="fill-rule:evenodd;clip-rule:evenodd;stroke-linejoin:round;stroke-miterlimit:2;"><g transform="matrix(50,0,0,50,348.818,385.544)"></g><text x="119.496px" y="385.544px" style="font-family:'ArialMT', 'Arial', sans-serif;font-size:50px;">sw=59.84</text><clipPath id="_clip1"><rect x="0" y="-0" width="453.543" height="699.213"/></clipPath><g clip-path="url(#_clip1)"><rect id="_30" serif:id="30" x="0" y="-0" width="453.543" height="699.213" style="fill:none;"/><clipPath id="_clip2"><rect x="0" y="-0" width="453.543" height="699.213"/></clipPath><g clip-path="url(#_clip2)"><path d="M453.543,22.677c0,-12.516 -10.161,-22.677 -22.677,-22.677l-408.189,-0c-12.516,-0 -22.677,10.161 -22.677,22.677l-0,653.858c-0,12.516 10.161,22.678 22.677,22.678l408.189,-0c12.516,-0 22.677,-10.162 22.677,-22.678l0,-653.858Z"/><path d="M442.205,22.677c-0,-6.258 -5.081,-11.338 -11.339,-11.338l-408.189,-0c-6.258,-0 -11.338,5.08 -11.338,11.338l-0,461.103c-0,6.257 5.08,11.338 11.338,11.338l408.189,0c6.258,0 11.339,-5.081 11.339,-11.338l-0,-461.103Z" style="fill:#fff;"/><path d="M442.205,517.795c-0,-6.258 -5.081,-11.338 -11.339,-11.338l-408.189,-0c-6.258,-0 -11.338,5.08 -11.338,11.338l-0,158.74c-0,6.258 5.08,11.339 11.338,11.339l408.189,0c6.258,0 11.339,-5.081 11.339,-11.339l-0,-158.74Z" style="fill:#fff;"/><clipPath id="_clip3"><rect id="_670-30.afdesign" serif:id="670 30.afdesign" x="37.795" y="64.252" width="377.953" height="377.953"/></clipPath><g clip-path="url(#_clip3)"><g><circle cx="226.772" cy="253.228" r="188.976" style="fill:#e31837;"/><circle cx="225.669" cy="252.126" r="151.181" style="fill:#fff;"/></g><path d="M294.553,182.819c19.288,-0.142 57.163,11.099 57.163,70.062c0,59.105 -35.652,70.899 -57.163,70.899c-21.506,-0 -57.164,-11.794 -57.164,-70.899c0,-58.963 37.741,-70.204 57.164,-70.062Zm-105.727,66.868c1.246,-0 15.958,-6.382 15.958,-27.328c0,-21.088 -19.011,-39.682 -50.37,-39.682c-31.216,0 -50.228,15.265 -52.587,41.346l28.453,3.053c2.218,-12.623 8.594,-20.117 26.082,-20.117c17.617,0 19.976,12.347 19.976,16.788c-0.277,12.07 -7.495,16.505 -30.105,16.505l-0,22.617c6.658,0.559 20.117,0.276 24.14,2.912c7.629,4.994 7.629,8.882 7.629,13.593c0,3.194 -0.276,19.018 -20.676,19.018c-20.394,0 -24.828,-11.1 -27.046,-21.512l-28.453,5.129c3.336,23.177 19.43,41.346 54.946,41.346c35.658,0 50.37,-23.857 50.37,-42.451c0,-18.729 -11.376,-29.829 -18.317,-31.217Zm105.727,-41.34c14.287,0 28.723,8.324 29.128,43.705c0.565,35.24 -12.9,46.057 -29.128,46.057c-16.235,0 -29.694,-10.817 -29.283,-46.057c0.56,-35.381 14.854,-43.705 29.283,-43.705Z"/></g><g><g><rect id="path1754" x="273.918" y="532.913" width="35.353" height="60.472" style="fill:#fff;"/><path id="path1756" d="M290.769,546.833l-1.658,0.103l-1.6,0.269l-1.6,0.48l-1.542,0.589l-1.44,0.793l-1.498,1.12l-1.331,1.338l-1.171,1.44l-0.96,1.651l-0.749,1.709l-0.103,0.32l-0.537,2.131l-0.32,2.189l-0.109,2.182l0.109,2.189l0.32,2.182l0.537,2.08l0.103,0.378l0.749,1.702l0.96,1.6l1.171,1.498l1.331,1.331l1.498,1.12l1.44,0.742l1.542,0.647l1.6,0.473l1.6,0.269l1.658,0.109l1.651,-0.109l1.651,-0.269l1.6,-0.473l1.549,-0.647l1.44,-0.742l1.491,-1.12l1.331,-1.331l1.178,-1.498l0.96,-1.6l0.742,-1.702l0.109,-0.378l0.531,-2.08l0.32,-2.182l0.061,-2.189l-0.061,-2.182l-0.32,-2.189l-0.531,-2.131l-0.109,-0.32l-0.742,-1.709l-0.96,-1.651l-1.178,-1.44l-1.331,-1.338l-1.491,-1.12l-1.44,-0.793l-1.549,-0.589l-1.6,-0.48l-1.651,-0.269l-1.651,-0.103Zm-0,7.251l1.222,0.16l1.28,0.532l1.12,0.851l0.96,1.018l0.8,1.171l0.429,0.96l0.269,1.011l0.211,1.709l0.053,1.651l-0.053,1.651l-0.211,1.709l-0.269,1.011l-0.429,0.96l-0.8,1.178l-0.96,1.011l-1.12,0.851l-1.28,0.48l-1.222,0.218l-1.178,-0.218l-1.28,-0.48l-1.171,-0.851l-0.96,-1.011l-0.749,-1.178l-0.423,-0.96l-0.269,-1.011l-0.211,-1.709l-0.108,-1.651l0.108,-1.651l0.211,-1.709l0.269,-1.011l0.423,-0.96l0.749,-1.171l0.96,-1.018l1.171,-0.851l1.28,-0.532l1.178,-0.16Z" style="fill:#010001;fill-rule:nonzero;"/></g><g><rect id="path1750" x="309.271" y="532.913" width="36.582" height="60.472" style="fill:#fff;"/><path id="path1752" d="M332.682,559.204l-0.218,-1.069l-0.48,-1.011l-0.64,-0.857l-0.8,-0.691l-1.12,-0.48l-1.223,-0.211l-1.228,0.053l-1.172,0.211l-1.177,0.48l-0.96,0.64l-0.851,0.8l-0.641,0.96l-0.428,1.017l-0.103,1.063l-0,18.131l-8.269,-0l0,-30.182l8.269,-0l-0,2.131l1.222,-0.96l1.338,-0.8l1.382,-0.582l1.498,-0.378l1.491,-0.211l1.549,0.053l1.76,0.32l1.542,0.537l1.491,0.742l1.338,0.909l1.222,1.069l1.069,1.222l0.909,1.389l0.691,1.6l0.48,1.651l0.269,1.709l0.103,1.76l-0,18.022l-8.263,0l8.263,0l-8.263,0l0,-17.971l-0.05,-1.066Z" style="fill:#010001;fill-rule:nonzero;"/></g><g><rect id="path1806" x="345.853" y="532.913" width="33.862" height="60.472" style="fill:#fff;"/><path id="path1808" d="M362.172,547.255l-1.549,0.109l-1.542,0.263l-1.497,0.48l-1.44,0.697l-1.332,0.8l-1.44,1.063l-1.331,1.28l-1.12,1.44l-0.908,1.548l-0.75,1.92l-0.531,2.029l-0.32,2.023l-0.109,2.079l0.161,2.08l0.378,2.029l0.582,1.971l0.748,1.92l0.691,1.389l0.909,1.28l0.96,1.171l1.171,1.069l1.229,0.902l1.331,0.8l1.44,0.589l1.497,0.429l1.914,0.371l1.978,0.16l1.971,-0.053l1.971,-0.217l1.92,-0.423l1.497,-0.537l1.383,-0.691l1.28,-0.909l1.171,-1.069l1.069,-1.171l-5.12,-5.171l-1.171,1.069l-1.332,0.851l-1.44,0.64l-1.388,0.371l-1.389,0.109l-1.382,-0.053l-1.389,-0.269l-1.331,-0.48l-0.909,-0.589l-0.8,-0.742l-0.64,-0.858l-0.48,-0.96l-0.263,-1.062l-0.109,-1.069l20.16,0l-0.109,-2.509l-0.269,-2.502l-0.531,-2.451l-0.749,-2.4l-0.691,-1.6l-0.909,-1.44l-1.062,-1.389l-1.28,-1.171l-1.389,-1.017l-1.331,-0.8l-1.44,-0.583l-1.549,-0.428l-1.549,-0.269l-1.541,-0.049Zm-0.16,6.88l1.062,0l1.069,0.211l1.011,0.377l0.909,0.532l0.851,0.691l0.698,0.8l0.531,0.909l0.372,1.011l0.16,1.069l-12.262,-0l0.16,-1.069l0.371,-1.011l0.537,-0.909l0.691,-0.8l0.852,-0.691l0.908,-0.532l1.012,-0.377l1.068,-0.211Z" style="fill:#010001;fill-rule:nonzero;"/></g><g id="Z"><rect id="path1578" x="237.336" y="532.913" width="36.582" height="60.472" style="fill:#fff;"/><path id="path1580" d="M240.639,544.593l-0,-8.64l29.228,0l-0,8.691l-19.04,24.96l19.622,-0l0,8.633l-30.553,0l0,-8.633l19.033,-25.011l-18.29,0Z" style="fill:#010001;fill-rule:nonzero;"/></g></g><g><g id="E"><rect id="path1642" x="193.744" y="600.945" width="52.127" height="75.591" style="fill:#fff;"/><path id="path1644" d="M239.271,647.272l-25.928,-0l0,-11.6l21.664,0l-0,-9.8l-21.664,0l0,-10.863l23.928,-0l-0,-10.264l-34.8,-0l0,52.855l36.8,-0l-0,-10.328Z" style="fill:#010001;fill-rule:nonzero;"/></g><g id="D"><rect id="path1566" x="310.061" y="600.945" width="57.391" height="75.591" style="fill:#fff;"/><path id="path1568" d="M319.061,604.745l0,52.855l19.928,-0l2.464,-0.129l2.536,-0.399l2.4,-0.665l2.336,-0.936l2.264,-1.136l2.064,-1.4l1.936,-1.6l1.8,-1.8l1.528,-2l1.336,-2.128l1.136,-2.272l0.863,-2.328l0.6,-2.464l0.4,-2.872l0.2,-2.864l0,-2.864l-0.2,-2.935l-0.4,-2.864l-0.6,-2.4l-0.863,-2.4l-1.136,-2.272l-1.336,-2.128l-1.528,-1.936l-1.8,-1.8l-1.936,-1.664l-2.064,-1.336l-2.264,-1.2l-2.336,-0.928l-2.4,-0.6l-2.536,-0.4l-2.464,-0.136l-19.928,0.001Zm10.864,10.528l9.2,-0l1.864,0.136l1.8,0.464l1.736,0.671l1.664,0.928l1.464,1.136l1.272,1.4l1.064,1.536l0.8,1.664l0.6,1.8l0.464,2.536l0.2,2.528l0,2.6l-0.264,2.6l-0.535,2.536l-0.6,1.664l-0.864,1.664l-1.064,1.472l-1.272,1.264l-1.464,1.136l-1.6,0.863l-1.664,0.6l-1.8,0.4l-1.8,0.136l-9.2,0l-0.001,-31.734Z" style="fill:#010001;fill-rule:nonzero;"/></g><g id="S"><rect id="path1618" x="367.452" y="600.945" width="55.855" height="75.591" style="fill:#fff;"/><path id="path1620" d="M400.644,637.272l1.2,0.464l0.999,0.672l0.864,0.928l0.6,1.072l0.336,1.128l0.067,1.272l-0.201,1.2l-0.528,1.128l-0.736,1l-1.136,0.936l-1.264,0.728l-1.4,0.535l-1.464,0.264l-3.6,-0l-2.064,-0.264l-2,-0.399l-1.936,-0.665l-1.936,-0.863l-2.264,-1.472l-2.135,-1.6l-1.928,-1.864l-9.2,7.064l1.936,2l2.064,1.864l2.2,1.672l2.328,1.464l2.535,1.2l2.864,0.936l3,0.664l3,0.464l3,0.201l3.064,-0.067l3,-0.263l3,-0.536l2.936,-0.8l2,-0.801l1.864,-1.064l1.736,-1.336l1.536,-1.536l1.328,-1.727l1.072,-1.872l0.792,-1.992l0.535,-2.136l0.201,-2.136l-0.066,-2.128l-0.337,-2.2l-0.6,-2.072l-0.928,-1.928l-1.2,-1.6l-1.4,-1.4l-1.472,-1.272l-1.664,-1.128l-1.736,-0.936l-1.663,-0.665l-1.736,-0.535l-12.392,-3.064l-0.872,-0.337l-0.801,-0.528l-0.664,-0.736l-0.536,-0.8l-0.263,-0.864l-0.136,-0.935l0.075,-0.937l0.328,-0.928l0.472,-0.8l1.064,-1.072l1.2,-0.8l1.4,-0.6l1.464,-0.328l1.472,-0.136l2.191,0.136l2.136,0.328l2.136,0.6l2,0.736l1.928,1l1.872,1.2l1.664,1.4l8.2,-7.464l-2.2,-1.936l-2.336,-1.664l-2.528,-1.472l-2.6,-1.264l-2.736,-0.928l-2.864,-0.736l-2.872,-0.4l-2.928,-0.136l-2.863,0.136l-2.872,0.4l-2.864,0.736l-2.064,0.801l-1.936,0.992l-1.8,1.271l-1.664,1.464l-1.472,1.6l-1.128,1.6l-0.872,1.736l-0.665,1.8l-0.463,1.864l-0.137,1.936l0.067,1.928l0.336,1.936l0.6,1.8l0.8,1.8l1,1.6l1.264,1.528l1.4,1.272l2,1.328l2.2,0.936l2.336,0.6l12.46,2.802Z" style="fill:#010001;fill-rule:nonzero;"/></g><g id="_-N" serif:id=" N"><rect id="path1590" x="245.871" y="600.945" width="64.191" height="75.591" style="fill:#fff;"/><path id="path1592" d="M266.998,604.745l-12.328,-0l0,52.927l10.8,-0l0,-35.799l23.664,35.799l12.392,-0l-0,-52.927l-10.864,-0l-0,35.791l-23.664,-35.791Z" style="fill:#010001;fill-rule:nonzero;"/></g></g><rect id="_20-Ends" serif:id="20 Ends" x="26.457" y="521.575" width="151.181" height="151.181" style="fill:none;"/><clipPath id="_clip4"><rect x="26.457" y="521.575" width="151.181" height="151.181"/></clipPath><g clip-path="url(#_clip4)"><circle cx="102.047" cy="597.165" r="75.591" style="fill:#999;"/><circle cx="101.606" cy="596.724" r="60.472" style="fill:#fff;"/><path d="M128.861,570.143c7.624,-0.111 22.428,4.352 22.428,27.484c0,23.132 -13.988,27.759 -22.428,27.759c-8.434,-0 -22.422,-4.627 -22.422,-27.759c-0,-23.132 14.859,-27.595 22.422,-27.484Zm0,9.957c5.665,-0 11.271,3.321 11.487,17.146c0.162,13.825 -5.115,18.069 -11.487,18.069c-6.364,0 -11.645,-4.244 -11.426,-18.069c0.161,-13.825 5.823,-17.146 11.426,-17.146" style="fill:#999;"/><path d="M66.381,590.388l-11.046,-0c-0.275,-9.688 5.276,-21.443 21.604,-21.443c15.894,-0 19.378,13.714 19.378,18.505c-0,4.841 -0.436,14.315 -20.358,26.506l19.814,-0l-0,9.577l-38.537,-0l0,-9.958c16.875,-11.541 27.868,-17.363 27.868,-25.363c0,-4.519 -3.755,-9.31 -9.797,-9.31c-6.042,0 -8.926,5.825 -8.926,11.486" style="fill:#999;"/><clipPath id="_clip5"><circle cx="102.047" cy="597.165" r="75.591"/></clipPath><g clip-path="url(#_clip5)"><path d="M165.119,553.336l-2.138,-2.138l-106.901,106.901l2.138,2.138l106.901,-106.901Zm-4.276,-4.276l-2.138,-2.138l-106.901,106.901l2.138,2.138l106.901,-106.901Zm-4.276,-4.276l-2.138,-2.138l-106.901,106.901l2.138,2.138l106.901,-106.901Zm-4.276,-4.276l-2.138,-2.138l-106.901,106.901l2.138,2.138l106.901,-106.901Zm-4.276,-4.276l-2.138,-2.138l-106.901,106.901l2.138,2.138l106.901,-106.901Z"/></g></g></g></g></svg>