<?xml version="1.0" encoding="UTF-8" standalone="no"?><!DOCTYPE svg PUBLIC "-//W3C//DTD SVG 1.1//EN" "http://www.w3.org/Graphics/SVG/1.1/DTD/svg11.dtd"><svg width="100%" height="100%" viewBox="0 0 296 709" version="1.1" xmlns="http://www.w3.org/2000/svg" xmlns:xlink="http://www.w3.org/1999/xlink" xml:space="preserve" xmlns:serif="http://www.serif.com/" style="fill-rule:evenodd;clip-rule:evenodd;stroke-linejoin:round;stroke-miterlimit:2;"><rect x="0" y="0" width="295.276" height="708.661" style="fill:#999;"/><g transform="matrix(50,0,0,50,221.485,353.72)"></g><text x="75.562px" y="353.72px" style="font-family:'ArialMT', 'Arial', sans-serif;font-size:50px;">sw=50</text><ellipse cx="147.638" cy="354.331" rx="103.003" ry="295.276" style="fill:#fff;"/><ellipse cx="147.037" cy="352.608" rx="82.402" ry="236.22" style="fill:#999;"/><path d="M186.957,244.1c10.597,-0.352 31.219,17.193 31.219,109.6c-0,92.428 -19.427,110.867 -31.219,110.867c-11.729,-0 -31.215,-18.439 -31.215,-110.867c0,-92.407 20.685,-109.952 31.215,-109.6Zm-54.739,0.733l-0,137.446l9.587,-0l-0,38.345l-9.587,0l-0,36.889l-14.95,-0l-0,-36.889l-40.168,0l-0,-37.803l36.263,-137.988l18.855,0Zm54.739,39.059c7.821,0 15.708,13.204 15.957,68.361c0.252,55.167 -7.064,71.979 -15.957,71.979c-8.83,-0 -16.145,-16.812 -15.889,-71.979c0.252,-55.157 8.069,-68.361 15.889,-68.361Zm-93.4,98.387l23.711,-0l-0,-89.886l-23.711,89.886Z" style="fill:#fff;"/></svg>