<?xml version="1.0" encoding="UTF-8" standalone="no"?><!DOCTYPE svg PUBLIC "-//W3C//DTD SVG 1.1//EN" "http://www.w3.org/Graphics/SVG/1.1/DTD/svg11.dtd"><svg width="100%" height="100%" viewBox="0 0 148 499" version="1.1" xmlns="http://www.w3.org/2000/svg" xmlns:xlink="http://www.w3.org/1999/xlink" xml:space="preserve" xmlns:serif="http://www.serif.com/" style="fill-rule:evenodd;clip-rule:evenodd;stroke-linecap:round;stroke-linejoin:round;stroke-miterlimit:1.5;"><g id="scale-value" transform="matrix(6.12323e-17,1,-1,6.12323e-17,-20767.3,-64510.4)"><g transform="matrix(50,0,0,50,64868,-20823.4)"></g><text x="64652.6px" y="-20823.4px" style="font-family:'ArialMT', 'Arial', sans-serif;font-size:50px;">sw=42.24</text></g><g><path d="M147.402,73.701c-0,-40.677 -33.025,-73.701 -73.701,-73.701c-40.677,0 -73.701,33.024 -73.701,73.701l0,351.496c0,40.676 33.024,73.701 73.701,73.701c40.676,-0 73.701,-33.025 73.701,-73.701l-0,-351.496Z"/><g><circle cx="73.701" cy="425.197" r="58.583" style="fill:#333;"/><circle cx="73.701" cy="425.197" r="37.795" style="fill:none;stroke:#1a1a1a;stroke-width:11.34px;"/></g><g><circle cx="73.701" cy="73.701" r="58.583" style="fill:#faa634;"/><circle cx="73.701" cy="73.701" r="37.795" style="fill:#faa634;stroke:#ffd200;stroke-width:11.34px;"/></g></g></svg>