<?xml version="1.0" encoding="UTF-8" standalone="no"?><!DOCTYPE svg PUBLIC "-//W3C//DTD SVG 1.1//EN" "http://www.w3.org/Graphics/SVG/1.1/DTD/svg11.dtd"><svg width="100%" height="100%" viewBox="0 0 514 454" version="1.1" xmlns="http://www.w3.org/2000/svg" xmlns:xlink="http://www.w3.org/1999/xlink" xml:space="preserve" xmlns:serif="http://www.serif.com/" style="fill-rule:evenodd;clip-rule:evenodd;stroke-linejoin:round;stroke-miterlimit:2;"><g id="scale-value" transform="matrix(50,0,0,50,350.88,226.137)"></g><text x="163.258px" y="226.137px" style="font-family:'ArialMT', 'Arial', sans-serif;font-size:50px;">sw=38.4</text><g id="_501-Junction-ahead-Controlled-by-a-STOP-or-GIVE-WAY" serif:id="501 Junction ahead Controlled by a STOP or GIVE WAY"><path d="M286.082,436.54c-6.076,10.522 -17.303,17.003 -29.452,17.003c-12.15,0 -23.376,-6.481 -29.452,-17.003c-54.065,-93.625 -168.545,-291.873 -222.619,-385.514c-6.077,-10.524 -6.079,-23.492 -0.003,-34.017c6.075,-10.525 17.303,-17.009 29.455,-17.009l445.238,-0c12.152,-0 23.38,6.484 29.455,17.009c6.076,10.525 6.074,23.493 -0.003,34.017c-54.074,93.641 -168.554,291.889 -222.619,385.514Z" style="fill:#e31837;"/><path d="M256.595,396.835l-202.961,-351.496l405.922,0l-202.961,351.496Z" style="fill:#fff;"/></g></svg>