<?xml version="1.0" encoding="UTF-8" standalone="no"?><!DOCTYPE svg PUBLIC "-//W3C//DTD SVG 1.1//EN" "http://www.w3.org/Graphics/SVG/1.1/DTD/svg11.dtd"><svg width="100%" height="100%" viewBox="0 0 443 296" version="1.1" xmlns="http://www.w3.org/2000/svg" xmlns:xlink="http://www.w3.org/1999/xlink" xml:space="preserve" xmlns:serif="http://www.serif.com/" style="fill-rule:evenodd;clip-rule:evenodd;stroke-linejoin:round;stroke-miterlimit:2;"><g id="scale-value" transform="matrix(50,0,0,50,318.645,165.289)"></g><text x="172.722px" y="165.289px" style="font-family:'ArialMT', 'Arial', sans-serif;font-size:50px;">sw=25</text><g id="P502-Junction-ahead-Controlled-by-STOP" serif:id="P502 Junction ahead Controlled by STOP"><path d="M442.441,35.433l-0,224.41c-0,19.556 -15.877,35.433 -35.433,35.433l-371.575,-0c-19.556,-0 -35.433,-15.877 -35.433,-35.433l0,-224.41c0,-19.556 15.877,-35.433 35.433,-35.433l371.575,-0c19.556,-0 35.433,15.877 35.433,35.433Z"/><path d="M424.724,35.433l0,224.41c0,9.778 -7.938,17.716 -17.716,17.716l-371.575,0c-9.778,0 -17.716,-7.938 -17.716,-17.716l-0,-224.41c-0,-9.778 7.938,-17.716 17.716,-17.716l371.575,-0c9.778,-0 17.716,7.938 17.716,17.716Z" style="fill:#fff;"/><g><g><g><rect id="path1698" x="241.654" y="165.354" width="50.079" height="94.488" style="fill:#fff;"/><path d="M289.067,188.939l-17.947,52.427c-0.827,2.426 -1.847,4.314 -3.06,5.665c-1.213,1.35 -2.537,2.356 -3.97,3.018c-1.103,0.496 -2.412,0.868 -3.929,1.116c-1.516,0.248 -2.991,0.372 -4.424,0.372c-1.489,0 -3.102,-0.151 -4.839,-0.454c-1.736,-0.304 -3.322,-0.676 -4.755,-1.117l2.15,-10.502c1.268,0.441 2.495,0.772 3.681,0.993c1.185,0.22 2.246,0.33 3.184,0.33c1.543,0 2.66,-0.248 3.349,-0.744c0.689,-0.496 1.034,-1.13 1.034,-1.902l0,-0.413c0,-0.166 -0.055,-0.386 -0.165,-0.662c-0.056,-0.22 -0.124,-0.441 -0.207,-0.661c-0.083,-0.221 -0.152,-0.469 -0.207,-0.745l-16.127,-46.721l13.729,-0l9.428,28.364l9.428,-28.364l13.647,-0Z" style="fill-rule:nonzero;"/></g><g><rect id="path16981" serif:id="path1698" x="347.953" y="165.354" width="47.244" height="94.488" style="fill:#fff;"/><path d="M391.077,221.917c-0,2.092 -0.406,4.015 -1.217,5.768c-0.811,1.753 -2.027,3.27 -3.649,4.552c-1.622,1.281 -3.623,2.276 -6.004,2.982c-2.38,0.706 -5.14,1.059 -8.279,1.059c-3.976,0 -7.586,-0.588 -10.83,-1.765c-3.244,-1.178 -6.252,-2.917 -9.025,-5.219l7.063,-8.162c2.197,1.831 4.447,3.048 6.749,3.649c2.302,0.602 4.29,0.903 5.964,0.903c2.355,-0 3.977,-0.34 4.866,-1.021c0.89,-0.68 1.334,-1.517 1.334,-2.511c0,-0.575 -0.405,-1.19 -1.216,-1.844c-0.811,-0.654 -2.158,-1.19 -4.042,-1.609l-7.769,-1.883c-1.465,-0.314 -2.917,-0.811 -4.356,-1.491c-1.438,-0.681 -2.733,-1.544 -3.884,-2.59c-1.151,-1.047 -2.08,-2.302 -2.786,-3.767c-0.707,-1.465 -1.06,-3.166 -1.06,-5.101c0,-2.145 0.458,-4.12 1.374,-5.925c0.915,-1.805 2.21,-3.375 3.884,-4.709c1.674,-1.334 3.649,-2.368 5.925,-3.1c2.276,-0.733 4.801,-1.099 7.574,-1.099c4.08,0 7.625,0.55 10.633,1.648c3.009,1.099 5.638,2.616 7.887,4.552l-7.063,8.162c-1.674,-1.308 -3.387,-2.276 -5.14,-2.904c-1.753,-0.628 -3.649,-0.942 -5.69,-0.942c-2.197,0 -3.819,0.406 -4.865,1.217c-1.047,0.811 -1.57,1.687 -1.57,2.629c0,0.157 0.026,0.366 0.079,0.628c0.052,0.261 0.222,0.536 0.51,0.824c0.287,0.287 0.693,0.575 1.216,0.863c0.523,0.288 1.256,0.536 2.198,0.745l8.161,1.962c1.622,0.419 3.205,0.942 4.748,1.57c1.544,0.628 2.93,1.465 4.16,2.511c1.229,1.047 2.223,2.328 2.982,3.846c0.758,1.517 1.138,3.374 1.138,5.572Z" style="fill-rule:nonzero;"/></g><g><rect id="path16982" serif:id="path1698" x="291.732" y="165.354" width="56.22" height="94.488" style="fill:#fff;"/><path d="M342.688,235.967l-13.329,0l-0,-2.531c-1.294,1.182 -2.855,2.138 -4.682,2.869c-1.828,0.731 -3.67,1.097 -5.526,1.097c-3.656,-0 -6.89,-0.689 -9.702,-2.067c-2.812,-1.378 -5.175,-3.22 -7.087,-5.526c-1.912,-2.306 -3.374,-4.964 -4.387,-7.973c-1.012,-3.009 -1.518,-6.172 -1.518,-9.491c-0,-3.374 0.478,-6.608 1.434,-9.702c0.956,-3.093 2.376,-5.821 4.26,-8.183c1.884,-2.362 4.204,-4.26 6.96,-5.695c2.756,-1.434 5.934,-2.151 9.534,-2.151c1.968,0 3.88,0.31 5.736,0.928c1.856,0.619 3.516,1.491 4.978,2.615l-0,-20.078l13.329,-0l0,65.888Zm-13.245,-17.801l0,-12.401c0,-1.069 -0.254,-2.025 -0.762,-2.868c-0.509,-0.844 -1.158,-1.575 -1.949,-2.194c-0.791,-0.619 -1.681,-1.097 -2.67,-1.434c-0.988,-0.338 -1.962,-0.506 -2.922,-0.506c-3.559,-0 -6.313,1.251 -8.262,3.754c-1.949,2.503 -2.923,5.723 -2.923,9.66c0,1.799 0.254,3.473 0.763,5.019c0.508,1.547 1.228,2.883 2.16,4.008c0.932,1.124 2.076,2.024 3.432,2.699c1.356,0.675 2.881,1.013 4.575,1.013c0.848,-0 1.78,-0.141 2.796,-0.422c1.017,-0.281 1.949,-0.703 2.796,-1.266c0.847,-0.562 1.554,-1.265 2.119,-2.109c0.565,-0.843 0.847,-1.828 0.847,-2.953Z" style="fill-rule:nonzero;"/></g></g><g><g><rect x="86.929" y="165.354" width="68.504" height="94.488" style="fill:#fff;"/><path d="M147.855,202.783c-0,3.914 -0.502,7.856 -1.505,11.825c-1.004,3.969 -2.579,7.544 -4.725,10.725c-2.146,3.18 -4.877,5.777 -8.194,7.788c-3.317,2.012 -7.289,3.018 -11.915,3.018c-4.739,-0 -8.808,-0.992 -12.208,-2.977c-3.401,-1.984 -6.202,-4.567 -8.404,-7.748c-2.202,-3.18 -3.818,-6.755 -4.85,-10.724c-1.031,-3.969 -1.547,-7.938 -1.547,-11.907c0,-3.969 0.516,-7.911 1.547,-11.826c1.032,-3.915 2.634,-7.422 4.808,-10.521c2.174,-3.099 4.948,-5.613 8.32,-7.544c3.373,-1.93 7.372,-2.895 11.999,-2.895c4.571,0 8.529,0.965 11.874,2.895c3.344,1.931 6.118,4.459 8.319,7.585c2.202,3.126 3.833,6.647 4.892,10.562c1.059,3.914 1.589,7.829 1.589,11.744Zm-13.881,0.081c0,-1.848 -0.209,-3.982 -0.627,-6.402c-0.418,-2.419 -1.115,-4.717 -2.09,-6.891c-0.976,-2.175 -2.286,-4.01 -3.93,-5.505c-1.645,-1.496 -3.693,-2.243 -6.146,-2.243c-2.453,-0 -4.501,0.734 -6.146,2.202c-1.644,1.468 -2.954,3.276 -3.93,5.423c-0.975,2.148 -1.672,4.431 -2.09,6.851c-0.418,2.419 -0.627,4.553 -0.627,6.402c-0,2.012 0.181,4.268 0.543,6.769c0.363,2.501 1.018,4.839 1.965,7.014c0.948,2.175 2.286,3.996 4.014,5.464c1.728,1.468 3.93,2.202 6.606,2.202c2.675,0 4.835,-0.734 6.48,-2.202c1.644,-1.468 2.912,-3.289 3.804,-5.464c0.892,-2.175 1.478,-4.499 1.756,-6.973c0.279,-2.474 0.418,-4.689 0.418,-6.647Z" style="fill-rule:nonzero;"/></g><g><rect x="155.433" y="165.354" width="68.504" height="94.488" style="fill:#fff;"/><path d="M216.359,202.783c-0,3.914 -0.502,7.856 -1.505,11.825c-1.004,3.969 -2.579,7.544 -4.725,10.725c-2.146,3.18 -4.877,5.777 -8.194,7.788c-3.317,2.012 -7.289,3.018 -11.915,3.018c-4.739,-0 -8.808,-0.992 -12.208,-2.977c-3.401,-1.984 -6.202,-4.567 -8.404,-7.748c-2.202,-3.18 -3.818,-6.755 -4.85,-10.724c-1.031,-3.969 -1.547,-7.938 -1.547,-11.907c0,-3.969 0.516,-7.911 1.547,-11.826c1.032,-3.915 2.634,-7.422 4.808,-10.521c2.174,-3.099 4.948,-5.613 8.32,-7.544c3.373,-1.93 7.372,-2.895 11.999,-2.895c4.571,0 8.529,0.965 11.874,2.895c3.344,1.931 6.117,4.459 8.319,7.585c2.202,3.126 3.833,6.647 4.892,10.562c1.059,3.914 1.589,7.829 1.589,11.744Zm-13.881,0.081c0,-1.848 -0.209,-3.982 -0.627,-6.402c-0.418,-2.419 -1.115,-4.717 -2.09,-6.891c-0.976,-2.175 -2.286,-4.01 -3.93,-5.505c-1.645,-1.496 -3.693,-2.243 -6.146,-2.243c-2.453,-0 -4.501,0.734 -6.146,2.202c-1.644,1.468 -2.954,3.276 -3.93,5.423c-0.975,2.148 -1.672,4.431 -2.09,6.851c-0.418,2.419 -0.627,4.553 -0.627,6.402c-0,2.012 0.181,4.268 0.543,6.769c0.363,2.501 1.018,4.839 1.965,7.014c0.948,2.175 2.286,3.996 4.014,5.464c1.728,1.468 3.93,2.202 6.606,2.202c2.675,0 4.835,-0.734 6.48,-2.202c1.644,-1.468 2.912,-3.289 3.804,-5.464c0.892,-2.175 1.478,-4.499 1.756,-6.973c0.279,-2.474 0.418,-4.689 0.418,-6.647Z" style="fill-rule:nonzero;"/></g><g><rect x="47.244" y="165.354" width="39.685" height="94.488" style="fill:#fff;"/><path d="M76.522,236.22l-14.432,0l-0,-45.366l-11.303,0l0,-10.939c2.261,-0.113 4.246,-0.311 5.956,-0.593c1.71,-0.283 3.086,-0.792 4.129,-1.527c0.986,-0.735 1.696,-1.667 2.13,-2.798c0.435,-1.131 0.768,-2.77 1,-4.918l12.52,-0l-0,66.141Z" style="fill-rule:nonzero;"/></g></g></g><g><g><rect x="158.858" y="47.244" width="55.748" height="94.488" style="fill:#fff;"/><path d="M212.727,65.027l-19.04,0l0,53.083l-13.91,0l0,-53.083l-19.04,0l0,-13.058l51.99,-0l0,13.058Z" style="fill-rule:nonzero;"/></g><g><rect x="89.882" y="47.244" width="68.976" height="94.488" style="fill:#fff;"/><path d="M151.705,99.411c-0,2.613 -0.517,5.063 -1.549,7.349c-1.033,2.286 -2.624,4.273 -4.772,5.961c-2.149,1.687 -4.87,3.008 -8.163,3.96c-3.293,0.953 -7.2,1.429 -11.721,1.429c-2.679,0 -5.358,-0.313 -8.037,-0.939c-2.679,-0.626 -5.246,-1.51 -7.702,-2.654c-2.456,-1.143 -4.772,-2.531 -6.949,-4.164c-2.176,-1.633 -4.102,-3.484 -5.776,-5.553l10.716,-8.41c2.065,2.83 4.716,5.049 7.953,6.655c3.237,1.606 6.53,2.463 9.879,2.572c3.851,0.163 6.712,-0.327 8.581,-1.47c1.87,-1.143 2.805,-2.722 2.805,-4.736c-0,-2.232 -0.851,-3.906 -2.554,-5.022c-1.702,-1.116 -3.865,-1.973 -6.488,-2.572l-9.46,-2.042c-2.344,-0.544 -4.674,-1.252 -6.991,-2.123c-2.316,-0.871 -4.409,-2.041 -6.279,-3.511c-1.869,-1.47 -3.39,-3.293 -4.562,-5.471c-1.172,-2.177 -1.759,-4.818 -1.759,-7.921c0,-2.558 0.531,-4.981 1.591,-7.267c1.061,-2.286 2.651,-4.287 4.772,-6.002c2.121,-1.714 4.772,-3.062 7.954,-4.042c3.181,-0.98 6.92,-1.469 11.218,-1.469c5.637,-0 10.646,0.966 15.028,2.898c4.381,1.933 8.051,4.696 11.009,8.288l-11.135,8.329c-1.619,-2.177 -3.725,-3.906 -6.321,-5.185c-2.595,-1.279 -5.456,-1.919 -8.581,-1.919c-3.516,0 -6.195,0.572 -8.037,1.715c-1.842,1.143 -2.763,2.531 -2.763,4.165c0,1.633 0.768,2.994 2.302,4.082c1.535,1.089 4.089,2.042 7.661,2.858l8.288,1.96c7.144,1.688 12.237,4.205 15.279,7.553c3.042,3.348 4.563,7.581 4.563,12.698Z" style="fill-rule:nonzero;"/></g><g><rect x="289.252" y="47.244" width="63.307" height="94.488" style="fill:#fff;"/><path d="M350.197,73.677c-0,2.883 -0.435,5.624 -1.304,8.225c-0.87,2.6 -2.217,4.89 -4.043,6.868c-1.826,1.979 -4.159,3.548 -6.999,4.707c-2.84,1.159 -6.201,1.738 -10.085,1.738l-13.475,0l-0,22.895l-14.084,0l-0,-66.141l27.559,-0c3.826,-0 7.158,0.565 9.998,1.695c2.841,1.131 5.173,2.686 6.999,4.664c1.826,1.979 3.188,4.283 4.086,6.911c0.899,2.629 1.348,5.441 1.348,8.438Zm-14.867,-0c0,-2.714 -0.826,-4.862 -2.478,-6.445c-1.651,-1.583 -3.868,-2.374 -6.65,-2.374l-11.911,-0l-0,17.468l11.997,-0c2.783,-0 4.985,-0.749 6.608,-2.247c1.623,-1.498 2.434,-3.632 2.434,-6.402Z" style="fill-rule:nonzero;"/></g><g><rect x="214.606" y="47.244" width="74.646" height="94.488" style="fill:#fff;"/><path d="M283.327,85.243c0,4.676 -0.669,9.026 -2.007,13.049c-1.338,4.024 -3.316,7.503 -5.936,10.439c-2.62,2.936 -5.895,5.233 -9.825,6.892c-3.93,1.658 -8.487,2.487 -13.672,2.487c-5.184,0 -9.727,-0.843 -13.629,-2.528c-3.902,-1.685 -7.163,-3.996 -9.783,-6.932c-2.62,-2.936 -4.599,-6.416 -5.937,-10.439c-1.338,-4.024 -2.007,-8.373 -2.007,-13.049c0,-4.785 0.641,-9.203 1.923,-13.253c1.282,-4.051 3.22,-7.558 5.812,-10.521c2.592,-2.963 5.853,-5.274 9.783,-6.932c3.93,-1.658 8.543,-2.487 13.838,-2.487c5.24,-0 9.825,0.842 13.755,2.528c3.93,1.685 7.205,4.01 9.825,6.973c2.62,2.963 4.585,6.483 5.895,10.561c1.31,4.078 1.965,8.482 1.965,13.212Zm-14.549,0c-0,-2.827 -0.293,-5.505 -0.878,-8.033c-0.585,-2.528 -1.547,-4.744 -2.885,-6.647c-1.338,-1.903 -3.08,-3.398 -5.226,-4.485c-2.146,-1.088 -4.752,-1.631 -7.818,-1.631c-3.066,-0 -5.672,0.557 -7.818,1.671c-2.146,1.115 -3.888,2.61 -5.226,4.486c-1.338,1.876 -2.314,4.078 -2.927,6.606c-0.613,2.528 -0.92,5.206 -0.92,8.033c0,2.991 0.293,5.736 0.878,8.237c0.586,2.501 1.547,4.663 2.885,6.484c1.338,1.821 3.08,3.235 5.226,4.241c2.146,1.006 4.78,1.509 7.902,1.509c3.177,-0 5.839,-0.503 7.985,-1.509c2.146,-1.006 3.875,-2.42 5.185,-4.241c1.31,-1.821 2.243,-3.983 2.801,-6.484c0.557,-2.501 0.836,-5.246 0.836,-8.237Z" style="fill-rule:nonzero;"/></g></g></g></svg>