<?xml version="1.0" encoding="UTF-8" standalone="no"?><!DOCTYPE svg PUBLIC "-//W3C//DTD SVG 1.1//EN" "http://www.w3.org/Graphics/SVG/1.1/DTD/svg11.dtd"><svg width="100%" height="100%" viewBox="0 0 579 296" version="1.1" xmlns="http://www.w3.org/2000/svg" xmlns:xlink="http://www.w3.org/1999/xlink" xml:space="preserve" xmlns:serif="http://www.serif.com/" style="fill-rule:evenodd;clip-rule:evenodd;stroke-linejoin:round;stroke-miterlimit:2;"><g id="scale-value" transform="matrix(50,0,0,50,362.209,165.301)"></g><text x="216.286px" y="165.301px" style="font-family:'ArialMT', 'Arial', sans-serif;font-size:50px;">sw=25</text><g id="P503-Junction-ahead-Controlled-by-GIVE-WAY" serif:id="P503 Junction ahead Controlled by GIVE WAY"><path d="M578.031,35.433l0,224.41c0,19.556 -15.877,35.433 -35.433,35.433l-507.165,-0c-19.556,-0 -35.433,-15.877 -35.433,-35.433l0,-224.41c0,-19.556 15.877,-35.433 35.433,-35.433l507.165,-0c19.556,-0 35.433,15.877 35.433,35.433Z"/><path d="M560.315,35.433l-0,224.41c-0,9.778 -7.939,17.716 -17.717,17.716l-507.165,0c-9.778,0 -17.716,-7.938 -17.716,-17.716l-0,-224.41c-0,-9.778 7.938,-17.716 17.716,-17.716l507.165,-0c9.778,-0 17.717,7.938 17.717,17.716Z" style="fill:#fff;"/><g><g><g><rect id="path1698" x="286.063" y="165.354" width="50.079" height="94.488" style="fill:#fff;"/><path d="M333.476,188.939l-17.947,52.427c-0.827,2.426 -1.847,4.314 -3.06,5.665c-1.213,1.35 -2.536,2.356 -3.97,3.018c-1.103,0.496 -2.412,0.868 -3.928,1.116c-1.517,0.248 -2.991,0.372 -4.425,0.372c-1.489,0 -3.101,-0.151 -4.838,-0.454c-1.737,-0.304 -3.322,-0.676 -4.756,-1.117l2.151,-10.502c1.268,0.441 2.495,0.772 3.68,0.993c1.185,0.22 2.247,0.33 3.184,0.33c1.544,0 2.66,-0.248 3.35,-0.744c0.689,-0.496 1.033,-1.13 1.033,-1.902l0,-0.413c0,-0.166 -0.055,-0.386 -0.165,-0.662c-0.055,-0.22 -0.124,-0.441 -0.207,-0.661c-0.082,-0.221 -0.151,-0.469 -0.206,-0.745l-16.128,-46.721l13.729,-0l9.428,28.364l9.429,-28.364l13.646,-0Z" style="fill-rule:nonzero;"/></g><g><rect id="path16981" serif:id="path1698" x="392.362" y="165.354" width="47.244" height="94.488" style="fill:#fff;"/><path d="M435.486,221.917c0,2.092 -0.405,4.015 -1.216,5.768c-0.811,1.753 -2.028,3.27 -3.649,4.552c-1.622,1.281 -3.624,2.276 -6.004,2.982c-2.381,0.706 -5.14,1.059 -8.28,1.059c-3.976,0 -7.586,-0.588 -10.83,-1.765c-3.243,-1.178 -6.252,-2.917 -9.025,-5.219l7.063,-8.162c2.198,1.831 4.448,3.048 6.75,3.649c2.302,0.602 4.29,0.903 5.964,0.903c2.354,-0 3.976,-0.34 4.866,-1.021c0.889,-0.68 1.334,-1.517 1.334,-2.511c-0,-0.575 -0.406,-1.19 -1.217,-1.844c-0.811,-0.654 -2.158,-1.19 -4.041,-1.609l-7.77,-1.883c-1.465,-0.314 -2.916,-0.811 -4.355,-1.491c-1.439,-0.681 -2.734,-1.544 -3.885,-2.59c-1.151,-1.047 -2.08,-2.302 -2.786,-3.767c-0.706,-1.465 -1.059,-3.166 -1.059,-5.101c-0,-2.145 0.457,-4.12 1.373,-5.925c0.916,-1.805 2.21,-3.375 3.885,-4.709c1.674,-1.334 3.649,-2.368 5.925,-3.1c2.276,-0.733 4.8,-1.099 7.573,-1.099c4.081,0 7.625,0.55 10.634,1.648c3.008,1.099 5.637,2.616 7.887,4.552l-7.063,8.162c-1.674,-1.308 -3.388,-2.276 -5.141,-2.904c-1.752,-0.628 -3.649,-0.942 -5.689,-0.942c-2.198,0 -3.819,0.406 -4.866,1.217c-1.046,0.811 -1.569,1.687 -1.569,2.629c-0,0.157 0.026,0.366 0.078,0.628c0.052,0.261 0.222,0.536 0.51,0.824c0.288,0.287 0.693,0.575 1.217,0.863c0.523,0.288 1.255,0.536 2.197,0.745l8.162,1.962c1.622,0.419 3.204,0.942 4.748,1.57c1.543,0.628 2.93,1.465 4.159,2.511c1.23,1.047 2.224,2.328 2.982,3.846c0.759,1.517 1.138,3.374 1.138,5.572Z" style="fill-rule:nonzero;"/></g><g><rect id="path16982" serif:id="path1698" x="336.142" y="165.354" width="56.22" height="94.488" style="fill:#fff;"/><path d="M387.098,235.967l-13.33,0l0,-2.531c-1.293,1.182 -2.854,2.138 -4.682,2.869c-1.828,0.731 -3.67,1.097 -5.526,1.097c-3.656,-0 -6.89,-0.689 -9.702,-2.067c-2.812,-1.378 -5.174,-3.22 -7.086,-5.526c-1.913,-2.306 -3.375,-4.964 -4.387,-7.973c-1.013,-3.009 -1.519,-6.172 -1.519,-9.491c0,-3.374 0.478,-6.608 1.434,-9.702c0.956,-3.093 2.377,-5.821 4.261,-8.183c1.884,-2.362 4.204,-4.26 6.96,-5.695c2.756,-1.434 5.933,-2.151 9.533,-2.151c1.968,0 3.881,0.31 5.737,0.928c1.856,0.619 3.515,1.491 4.977,2.615l0,-20.078l13.33,-0l-0,65.888Zm-13.245,-17.801l-0,-12.401c-0,-1.069 -0.255,-2.025 -0.763,-2.868c-0.508,-0.844 -1.158,-1.575 -1.949,-2.194c-0.791,-0.619 -1.681,-1.097 -2.669,-1.434c-0.989,-0.338 -1.963,-0.506 -2.923,-0.506c-3.559,-0 -6.313,1.251 -8.261,3.754c-1.949,2.503 -2.924,5.723 -2.924,9.66c0,1.799 0.255,3.473 0.763,5.019c0.508,1.547 1.229,2.883 2.161,4.008c0.932,1.124 2.075,2.024 3.431,2.699c1.356,0.675 2.882,1.013 4.576,1.013c0.847,-0 1.779,-0.141 2.796,-0.422c1.017,-0.281 1.949,-0.703 2.796,-1.266c0.847,-0.562 1.553,-1.265 2.118,-2.109c0.565,-0.843 0.848,-1.828 0.848,-2.953Z" style="fill-rule:nonzero;"/></g></g><g><g><rect x="199.843" y="165.354" width="68.504" height="94.488" style="fill:#fff;"/><path d="M260.768,202.783c0,3.914 -0.502,7.856 -1.505,11.825c-1.003,3.969 -2.578,7.544 -4.724,10.725c-2.146,3.18 -4.878,5.777 -8.195,7.788c-3.316,2.012 -7.288,3.018 -11.915,3.018c-4.738,-0 -8.808,-0.992 -12.208,-2.977c-3.4,-1.984 -6.202,-4.567 -8.403,-7.748c-2.202,-3.18 -3.819,-6.755 -4.85,-10.724c-1.031,-3.969 -1.547,-7.938 -1.547,-11.907c-0,-3.969 0.516,-7.911 1.547,-11.826c1.031,-3.915 2.634,-7.422 4.808,-10.521c2.174,-3.099 4.947,-5.613 8.32,-7.544c3.372,-1.93 7.372,-2.895 11.998,-2.895c4.572,0 8.529,0.965 11.874,2.895c3.345,1.931 6.118,4.459 8.32,7.585c2.202,3.126 3.832,6.647 4.891,10.562c1.06,3.914 1.589,7.829 1.589,11.744Zm-13.88,0.081c-0,-1.848 -0.209,-3.982 -0.627,-6.402c-0.418,-2.419 -1.115,-4.717 -2.091,-6.891c-0.975,-2.175 -2.285,-4.01 -3.93,-5.505c-1.644,-1.496 -3.693,-2.243 -6.146,-2.243c-2.452,-0 -4.501,0.734 -6.145,2.202c-1.645,1.468 -2.955,3.276 -3.93,5.423c-0.976,2.148 -1.673,4.431 -2.091,6.851c-0.418,2.419 -0.627,4.553 -0.627,6.402c0,2.012 0.181,4.268 0.544,6.769c0.362,2.501 1.017,4.839 1.965,7.014c0.947,2.175 2.285,3.996 4.013,5.464c1.728,1.468 3.93,2.202 6.606,2.202c2.676,0 4.836,-0.734 6.48,-2.202c1.645,-1.468 2.913,-3.289 3.805,-5.464c0.892,-2.175 1.477,-4.499 1.756,-6.973c0.278,-2.474 0.418,-4.689 0.418,-6.647Z" style="fill-rule:nonzero;"/></g><g><rect x="138.425" y="165.354" width="61.417" height="94.488" style="fill:#fff;"/><path d="M194.216,211.375c-0,3.448 -0.594,6.685 -1.782,9.709c-1.189,3.025 -2.855,5.653 -4.999,7.886c-2.145,2.233 -4.695,4 -7.651,5.3c-2.956,1.3 -6.202,1.95 -9.737,1.95c-6.608,0 -12.041,-1.427 -16.301,-4.282c-4.26,-2.855 -7.492,-6.854 -9.694,-11.999l13.475,-5.003c1.16,2.827 2.667,4.989 4.521,6.487c1.855,1.498 4,2.248 6.434,2.248c1.97,-0 3.68,-0.297 5.129,-0.891c1.449,-0.593 2.637,-1.427 3.565,-2.501c0.927,-1.074 1.608,-2.318 2.043,-3.731c0.435,-1.414 0.652,-2.94 0.652,-4.579c-0,-1.64 -0.275,-3.166 -0.826,-4.58c-0.551,-1.413 -1.319,-2.642 -2.304,-3.688c-0.985,-1.046 -2.173,-1.866 -3.564,-2.459c-1.391,-0.594 -2.956,-0.891 -4.695,-0.891c-2.203,0 -4.231,0.509 -6.086,1.527c-1.855,1.017 -3.362,2.657 -4.521,4.918l-13.562,-3.731l5.216,-34.428l41.296,0l0,12.381l-28.429,-0l-1.391,8.988c2.84,-1.244 5.854,-1.865 9.042,-1.865c3.651,-0 6.969,0.607 9.954,1.823c2.985,1.215 5.521,2.869 7.608,4.96c2.086,2.092 3.709,4.551 4.868,7.378c1.159,2.826 1.739,5.851 1.739,9.073Z" style="fill-rule:nonzero;"/></g></g></g><g><g><g><rect x="470.315" y="47.244" width="60.472" height="94.488" style="fill:#fff;"/><path d="M530.198,51.969l-22.605,39.769l0,26.372l-13.91,0l-0,-26.372l-22.778,-39.769l15.736,-0l13.868,25.354l13.953,-25.354l15.736,-0Z" style="fill-rule:nonzero;"/></g><g><rect x="312.047" y="47.244" width="91.181" height="94.488" style="fill:#fff;"/><path d="M399.63,51.969l-16.519,66.141l-15.823,0l-9.65,-41.72l-9.65,41.72l-15.823,0l-16.519,-66.141l15.388,-0l9.564,40.278l9.65,-40.278l14.867,-0l9.563,40.448l9.563,-40.448l15.389,-0Z" style="fill-rule:nonzero;"/></g><g><rect x="403.228" y="47.244" width="67.087" height="94.488" style="fill:#fff;"/><path d="M467.426,118.11l-14.924,0l-3.477,-11.702l-24.507,0l-3.561,11.702l-14.839,0l21.708,-66.141l17.722,-0l21.878,66.141Zm-21.963,-23.404l-8.649,-28.661l-8.649,28.661l17.298,0Z" style="fill-rule:nonzero;"/></g></g><g><g><rect x="155.433" y="47.244" width="62.835" height="94.488" style="fill:#fff;"/><path d="M216.975,51.969l-19.996,66.141l-20.257,0l-19.996,-66.141l15.127,-0l15.041,50.03l14.953,-50.03l15.128,-0Z" style="fill-rule:nonzero;"/></g><g><rect x="218.268" y="47.244" width="64.252" height="94.488" style="fill:#fff;"/><path d="M273.289,118.11l-45.791,0l0,-66.141l43.247,-0l0,13.058l-29.679,0l0,13.313l26.881,0l-0,12.211l-26.881,0l0,14.5l32.223,0l-0,13.059Z" style="fill-rule:nonzero;"/></g><g><rect x="120.945" y="47.244" width="34.488" height="94.488" style="fill:#fff;"/><rect x="131.306" y="52.465" width="13.767" height="66.142" style="fill-rule:nonzero;"/></g><g><rect x="47.244" y="47.244" width="73.701" height="94.488" style="fill:#fff;"/><path d="M113.413,118.034l-12.743,-0l-0,-4.239c-1.611,1.607 -3.804,2.936 -6.58,3.989c-2.777,1.053 -5.609,1.579 -8.496,1.579c-5.331,0 -9.94,-0.969 -13.827,-2.909c-3.887,-1.939 -7.08,-4.474 -9.578,-7.605c-2.499,-3.13 -4.359,-6.677 -5.581,-10.638c-1.222,-3.962 -1.832,-7.993 -1.832,-12.093c-0,-4.267 0.596,-8.437 1.79,-12.509c1.194,-4.073 3.041,-7.716 5.539,-10.93c2.499,-3.214 5.678,-5.79 9.537,-7.729c3.859,-1.94 8.454,-2.909 13.785,-2.909c6.664,-0 12.314,1.454 16.95,4.363c4.637,2.909 8.204,6.829 10.703,11.761l-12.16,5.901c-1.222,-2.881 -3.096,-5.153 -5.623,-6.815c-2.526,-1.663 -5.483,-2.494 -8.87,-2.494c-3.054,0 -5.664,0.582 -7.83,1.745c-2.165,1.164 -3.942,2.729 -5.331,4.696c-1.388,1.967 -2.401,4.253 -3.04,6.857c-0.638,2.605 -0.958,5.32 -0.958,8.146c0,2.77 0.306,5.402 0.917,7.896c0.61,2.493 1.61,4.682 2.998,6.566c1.388,1.884 3.165,3.366 5.331,4.446c2.165,1.081 4.803,1.621 7.913,1.621c4.72,-0 8.246,-1.191 10.578,-3.574c2.332,-2.383 3.526,-5.513 3.581,-9.392l0,-1.662l-16.991,-0l-0,-11.553l29.818,-0l0,37.485Z" style="fill-rule:nonzero;"/></g></g></g></g></svg>