<?xml version="1.0" encoding="UTF-8" standalone="no"?><!DOCTYPE svg PUBLIC "-//W3C//DTD SVG 1.1//EN" "http://www.w3.org/Graphics/SVG/1.1/DTD/svg11.dtd"><svg width="100%" height="100%" viewBox="0 0 514 454" version="1.1" xmlns="http://www.w3.org/2000/svg" xmlns:xlink="http://www.w3.org/1999/xlink" xml:space="preserve" xmlns:serif="http://www.serif.com/" style="fill-rule:evenodd;clip-rule:evenodd;stroke-linejoin:round;stroke-miterlimit:2;"><g id="scale-value" transform="matrix(50,0,0,50,350.907,262.709)"></g><text x="163.285px" y="262.709px" style="font-family:'ArialMT', 'Arial', sans-serif;font-size:50px;">sw=38.4</text><g id="_508.1-Traffic-Merging" serif:id="508.1 Traffic Merging"><path d="M227.201,17.004c6.077,-10.522 17.305,-17.004 29.455,-17.004c12.151,0 23.379,6.482 29.456,17.004c54.07,93.625 168.562,291.872 222.642,385.514c6.078,10.524 6.079,23.491 0.003,34.016c-6.076,10.525 -17.306,17.009 -29.459,17.009l-445.283,0c-12.153,0 -23.383,-6.484 -29.459,-17.009c-6.076,-10.525 -6.075,-23.492 0.003,-34.016c54.08,-93.642 168.572,-291.889 222.642,-385.514Z" style="fill:#e31837;"/><path d="M256.621,56.706l202.954,351.484l-405.907,0l202.953,-351.484Z" style="fill:#fff;"/><path d="M226.386,306.147l-60.47,60.47l-26.725,-26.724c0,-0 52.649,-52.649 76.125,-76.125c7.088,-7.088 11.07,-16.701 11.07,-26.725l-0,-51.837l37.794,-37.794l-0,-0l37.794,37.794l-0,207.867l-75.588,-0l-0,-86.926Z"/></g></svg>