<?xml version="1.0" encoding="UTF-8" standalone="no"?><!DOCTYPE svg PUBLIC "-//W3C//DTD SVG 1.1//EN" "http://www.w3.org/Graphics/SVG/1.1/DTD/svg11.dtd"><svg width="100%" height="100%" viewBox="0 0 514 454" version="1.1" xmlns="http://www.w3.org/2000/svg" xmlns:xlink="http://www.w3.org/1999/xlink" xml:space="preserve" xmlns:serif="http://www.serif.com/" style="fill-rule:evenodd;clip-rule:evenodd;stroke-linejoin:round;stroke-miterlimit:2;"><g id="scale-value" transform="matrix(50,0,0,50,350.88,262.709)"></g><text x="163.258px" y="262.709px" style="font-family:'ArialMT', 'Arial', sans-serif;font-size:50px;">sw=38.4</text><g id="_510-Roundabout" serif:id="510 Roundabout"><path d="M227.178,17.004c6.076,-10.522 17.302,-17.004 29.452,-17.004c12.149,0 23.376,6.482 29.452,17.004c54.065,93.625 168.545,291.872 222.619,385.514c6.077,10.524 6.079,23.491 0.003,34.016c-6.075,10.525 -17.303,17.009 -29.455,17.009l-445.238,0c-12.152,0 -23.38,-6.484 -29.455,-17.009c-6.076,-10.525 -6.074,-23.492 0.003,-34.016c54.074,-93.642 168.554,-291.889 222.619,-385.514Z" style="fill:#e31837;"/><path d="M256.665,56.708l202.961,351.496l-405.922,-0l202.961,-351.496Z" style="fill:#fff;"/><g><path d="M197.047,315.064l-35.033,14.155c-4.908,-12.148 -7.431,-25.126 -7.431,-38.228c-0,-40.069 23.094,-74.745 56.699,-91.442c7.867,-3.91 16.311,-6.833 25.169,-8.61l20.144,16.903l-18.018,21.472c-7.564,2.214 -14.552,5.782 -20.683,10.425c-15.497,11.735 -25.516,30.333 -25.516,51.252c0,8.511 1.658,16.637 4.669,24.073Z"/><path d="M307.322,330.585l29.775,23.263c-8.066,10.324 -18.045,18.998 -29.391,25.549c-34.701,20.035 -76.278,17.372 -107.541,-3.381c-7.319,-4.859 -14.073,-10.71 -20.041,-17.493l4.566,-25.896l27.605,4.867c5.699,5.444 12.284,9.712 19.37,12.7c17.911,7.553 39.027,6.931 57.144,-3.529c7.37,-4.255 13.578,-9.754 18.513,-16.08Z"/><path d="M265.626,227.324l5.259,-37.417c12.974,1.823 25.475,6.128 36.821,12.678c34.702,20.035 53.185,57.373 50.843,94.824c-0.549,8.768 -2.239,17.543 -5.129,26.103l-24.71,8.993l-9.587,-26.34c1.865,-7.657 2.269,-15.493 1.313,-23.124c-2.414,-19.289 -13.511,-37.264 -31.627,-47.724c-7.371,-4.255 -15.237,-6.882 -23.183,-7.993Z"/></g></g></svg>