<?xml version="1.0" encoding="UTF-8" standalone="no"?><!DOCTYPE svg PUBLIC "-//W3C//DTD SVG 1.1//EN" "http://www.w3.org/Graphics/SVG/1.1/DTD/svg11.dtd"><svg width="100%" height="100%" viewBox="0 0 501 367" version="1.1" xmlns="http://www.w3.org/2000/svg" xmlns:xlink="http://www.w3.org/1999/xlink" xml:space="preserve" xmlns:serif="http://www.serif.com/" style="fill-rule:evenodd;clip-rule:evenodd;stroke-linejoin:round;stroke-miterlimit:2;"><g id="scale-value" transform="matrix(50,0,0,50,327.176,219.026)"></g><text x="181.253px" y="219.026px" style="font-family:'ArialMT', 'Arial', sans-serif;font-size:50px;">sw=31</text><g id="_511-Reduce-Speed-Now" serif:id="511 Reduce Speed Now"><path d="M500.787,35.433l0,295.311c0,19.556 -15.877,35.433 -35.433,35.433l-429.921,0c-19.556,0 -35.433,-15.877 -35.433,-35.433l0,-295.311c0,-19.556 15.877,-35.433 35.433,-35.433l429.921,0c19.556,0 35.433,15.877 35.433,35.433Z" style="fill:#fff;"/><path d="M500.787,35.433l0,295.311c0,19.556 -15.877,35.433 -35.433,35.433l-429.921,0c-19.556,0 -35.433,-15.877 -35.433,-35.433l0,-295.311c0,-19.556 15.877,-35.433 35.433,-35.433l429.921,-0c19.556,-0 35.433,15.877 35.433,35.433Zm-1,0c0,-19.004 -15.429,-34.433 -34.433,-34.433l-429.921,-0c-19.004,-0 -34.433,15.429 -34.433,34.433l-0,295.311c-0,19.004 15.429,34.433 34.433,34.433l429.921,0c19.004,0 34.433,-15.429 34.433,-34.433l0,-295.311Z" style="fill:#e31837;"/><path d="M483.071,35.433l-0,295.311c-0,9.778 -7.939,17.717 -17.717,17.717l-429.921,-0c-9.778,-0 -17.716,-7.939 -17.716,-17.717l-0,-295.311c-0,-9.778 7.938,-17.716 17.716,-17.716l429.921,-0c9.778,-0 17.717,7.938 17.717,17.716Z" style="fill:#e31837;"/><g><g><g><rect x="113.858" y="47.244" width="62.362" height="94.488" style="fill:#e31837;"/><path d="M169.093,107.97l-31.884,0l0,-18.147l27.39,0l-0,-10.175l-27.39,-0l0,-17.468l30.018,-0l0,-10.176l-41.381,-0l0,66.142l43.247,-0l-0,-10.176Z" style="fill:#fff;fill-rule:nonzero;"/></g><g><rect x="391.181" y="47.28" width="62.362" height="94.488" style="fill:#e31837;"/><path d="M446.416,108.005l-31.884,0l0,-18.146l27.39,-0l-0,-10.176l-27.39,0l0,-17.468l30.018,0l0,-10.176l-41.381,0l0,66.142l43.247,0l-0,-10.176Z" style="fill:#fff;fill-rule:nonzero;"/></g><g><rect x="321.732" y="47.28" width="69.449" height="94.453" style="fill:#e31837;"/><path d="M386.394,69.361c-3.609,-12.029 -13.92,-19.419 -27.582,-19.419c-20.107,0 -30.332,16.154 -30.332,35.229c0,18.302 10.311,34.456 30.332,34.456c14.005,0 22.856,-6.616 27.41,-19.075l-10.569,-3.523c-2.492,7.733 -8.507,12.287 -16.669,12.287c-14.264,0 -18.732,-11.686 -18.732,-24.402c-0,-13.147 5.155,-24.747 19.505,-24.747c8.678,0 14.177,6.273 16.24,12.889l10.397,-3.695Z" style="fill:#fff;fill-rule:nonzero;"/></g><g><rect x="176.22" y="47.244" width="72.756" height="94.488" style="fill:#e31837;"/><path d="M231.034,84.615c-0,10.939 -5.088,23.32 -17.553,23.32l-13.483,-0l-0,-45.791l13.991,0c11.363,0 17.045,12.72 17.045,22.471Zm11.362,0c0,-16.026 -8.903,-32.646 -29.424,-32.646l-24.337,-0l0,66.141l24.252,0c20.606,0 29.509,-15.687 29.509,-33.495Z" style="fill:#fff;fill-rule:nonzero;"/></g><g><rect x="47.244" y="47.244" width="66.614" height="94.488" style="fill:#e31837;"/><path d="M94.331,72.15c-0,5.936 -4.071,10.091 -10.091,10.091l-13.822,-0.085l-0,-20.012l13.991,0c5.936,0 9.922,4.155 9.922,10.006Zm-0.848,18.825c4.918,-1.611 12.126,-6.529 12.126,-18.231c-0,-11.957 -6.699,-20.775 -21.03,-20.775l-25.524,-0l0,66.141l11.363,0l-0,-25.778l11.448,-0l14.415,25.778l12.55,0l-15.348,-27.135Z" style="fill:#fff;fill-rule:nonzero;"/></g><g><rect x="248.976" y="47.244" width="72.756" height="94.488" style="fill:#e31837;"/><path d="M310.634,51.969l-11.355,-0c-0,7.459 0.083,41.773 0.083,41.773c-0,9.698 -6.548,14.256 -13.842,14.256c-7.459,0 -13.842,-4.641 -13.842,-14.256l0,-41.773l-11.603,-0l-0,41.856c-0,16.577 12.018,24.285 25.279,24.285c13.013,0 25.28,-7.708 25.28,-24.368l0,-41.773Z" style="fill:#fff;fill-rule:nonzero;"/></g></g><g><g><rect x="277.087" y="141.768" width="62.362" height="94.488" style="fill:#e31837;"/><path d="M332.321,202.494l-31.883,-0l-0,-18.147l27.389,0l0,-10.176l-27.389,0l-0,-17.468l30.018,0l-0,-10.175l-41.381,-0l-0,66.141l43.246,0l0,-10.175Z" style="fill:#fff;fill-rule:nonzero;"/></g><g><rect x="214.724" y="141.768" width="62.362" height="94.488" style="fill:#e31837;"/><path d="M269.959,202.494l-31.884,-0l0,-18.147l27.39,0l-0,-10.176l-27.39,0l0,-17.468l30.019,0l-0,-10.175l-41.381,-0l-0,66.141l43.246,0l0,-10.175Z" style="fill:#fff;fill-rule:nonzero;"/></g><g><rect x="339.449" y="141.768" width="72.756" height="94.488" style="fill:#e31837;"/><path d="M394.262,179.139c-0,10.939 -5.088,23.319 -17.553,23.319l-13.483,0l0,-45.79l13.992,-0c11.363,-0 17.044,12.719 17.044,22.471Zm11.363,0c-0,-16.027 -8.904,-32.647 -29.425,-32.647l-24.337,0l0,66.142l24.252,-0c20.606,-0 29.51,-15.688 29.51,-33.495Z" style="fill:#fff;fill-rule:nonzero;"/></g><g><rect x="153.307" y="141.768" width="61.417" height="94.488" style="fill:#e31837;"/><path d="M199.122,167.691c-0,6.615 -3.816,10.685 -10.261,10.685l-12.38,-0l-0,-21.708l12.295,-0c6.53,-0 10.346,4.409 10.346,11.023Zm11.363,-0.084c-0,-11.872 -6.36,-21.115 -20.182,-21.115l-25.185,0l0,66.142l11.363,-0l-0,-24.083l13.822,0c14.076,0 20.182,-9.497 20.182,-20.944Z" style="fill:#fff;fill-rule:nonzero;"/></g><g><rect x="88.583" y="141.768" width="64.724" height="94.488" style="fill:#e31837;"/><path d="M146.292,195.467c-0,-10.754 -6.022,-16.948 -19.099,-20.217l-8.517,-2.151c-7.227,-1.807 -11.528,-4.216 -11.528,-9.291c-0,-5.334 5.936,-8.173 12.732,-8.173c5.937,-0 12.131,2.237 15.572,7.312l8.861,-7.312c-5.592,-7.657 -15.227,-10.324 -24.433,-10.324c-15.227,0 -24.432,8.345 -24.432,19.013c-0,12.56 9.377,17.206 18.754,19.443l9.722,2.323c5.334,1.29 10.668,3.699 10.668,9.979c-0,5.506 -5.248,8.603 -14.109,8.603c-6.453,0 -14.281,-4.301 -17.981,-9.549l-8.947,7.485c6.796,7.914 16.26,12.388 27.014,12.388c16.604,0 25.723,-7.657 25.723,-19.529Z" style="fill:#fff;fill-rule:nonzero;"/></g></g><g><g><rect x="130.866" y="236.256" width="79.37" height="94.488" style="fill:#e31837;"/><path d="M198.449,240.98l-11.362,0l-0,47.063l-32.562,-47.063l-11.872,0l-0,66.142l11.363,0l-0,-47.062l32.562,47.062l11.871,0l0,-66.142Z" style="fill:#fff;fill-rule:nonzero;"/></g><g><rect x="209.764" y="236.256" width="73.701" height="94.488" style="fill:#e31837;"/><path d="M265.647,273.971c-0,13.49 -4.469,24.402 -18.99,24.402c-14.435,0 -19.075,-10.912 -19.075,-24.402c-0,-12.717 4.983,-24.747 19.075,-24.747c14.178,0 18.99,11.944 18.99,24.747Zm11.513,-0c0,-20.364 -10.311,-35.058 -30.589,-35.058c-20.45,0 -30.503,14.522 -30.503,34.972c-0,20.106 10.483,34.713 30.503,34.713c20.021,0 30.589,-14.521 30.589,-34.627Z" style="fill:#fff;fill-rule:nonzero;"/></g><g><rect x="283.465" y="236.256" width="86.457" height="94.488" style="fill:#e31837;"/><path d="M356.102,240.98l-10.684,47.147l-10.685,-47.147l-11.871,0l-10.685,46.893l-10.684,-46.893l-11.532,0l15.263,66.142l12.804,0l10.77,-47.741l10.769,47.741l12.719,0l15.349,-66.142l-11.533,0Z" style="fill:#fff;fill-rule:nonzero;"/></g></g></g></g></svg>