<?xml version="1.0" encoding="UTF-8" standalone="no"?><!DOCTYPE svg PUBLIC "-//W3C//DTD SVG 1.1//EN" "http://www.w3.org/Graphics/SVG/1.1/DTD/svg11.dtd"><svg width="100%" height="100%" viewBox="0 0 621 367" version="1.1" xmlns="http://www.w3.org/2000/svg" xmlns:xlink="http://www.w3.org/1999/xlink" xml:space="preserve" xmlns:serif="http://www.serif.com/" style="fill-rule:evenodd;clip-rule:evenodd;stroke-linejoin:round;stroke-miterlimit:2;"><g id="scale-value" transform="matrix(50,0,0,50,387.176,219.026)"></g><text x="241.253px" y="219.026px" style="font-family:'ArialMT', 'Arial', sans-serif;font-size:50px;">sw=31</text><g id="_511-Heavy-Plant-Crossing" serif:id="511 Heavy Plant Crossing"><path d="M620.787,35.433l0,295.311c0,19.556 -15.877,35.433 -35.433,35.433l-549.921,0c-19.556,0 -35.433,-15.877 -35.433,-35.433l0,-295.311c0,-19.556 15.877,-35.433 35.433,-35.433l549.921,0c19.556,0 35.433,15.877 35.433,35.433Z" style="fill:#fff;"/><path d="M620.787,35.433l0,295.311c0,19.556 -15.877,35.433 -35.433,35.433l-549.921,0c-19.556,0 -35.433,-15.877 -35.433,-35.433l0,-295.311c0,-19.556 15.877,-35.433 35.433,-35.433l549.921,-0c19.556,-0 35.433,15.877 35.433,35.433Zm-1,0c0,-19.004 -15.429,-34.433 -34.433,-34.433l-549.921,-0c-19.004,-0 -34.433,15.429 -34.433,34.433l-0,295.311c-0,19.004 15.429,34.433 34.433,34.433l549.921,0c19.004,0 34.433,-15.429 34.433,-34.433l0,-295.311Z" style="fill:#e31837;"/><path d="M603.071,35.433l-0,295.311c-0,9.778 -7.939,17.717 -17.717,17.717l-549.921,-0c-9.778,-0 -17.716,-7.939 -17.716,-17.717l-0,-295.311c-0,-9.778 7.938,-17.716 17.716,-17.716l549.921,-0c9.778,-0 17.717,7.938 17.717,17.716Z" style="fill:#e31837;"/><g><g><g><rect x="149.528" y="47.244" width="75.591" height="94.488" style="fill:#e31837;"/><path d="M213.313,51.969l-11.363,-0l0,26.032l-29.255,0l0,-26.032l-11.362,-0l-0,66.141l11.362,0l0,-30.272l29.255,-0l0,30.272l11.363,0l0,-66.141Z" style="fill:#fff;fill-rule:nonzero;"/></g><g><rect x="225.118" y="47.244" width="62.362" height="94.488" style="fill:#e31837;"/><path d="M280.353,107.97l-31.884,0l0,-18.147l27.39,0l-0,-10.175l-27.39,-0l0,-17.468l30.018,-0l0,-10.176l-41.381,-0l0,66.142l43.247,-0l-0,-10.176Z" style="fill:#fff;fill-rule:nonzero;"/></g><g><rect x="287.48" y="47.244" width="64.252" height="94.488" style="fill:#e31837;"/><path d="M309.515,96.063l10.007,-31.969l10.175,31.969l-20.182,-0Zm17.045,-44.094l-14.077,-0l-21.284,66.141l11.363,0l3.986,-12.38l26.287,-0l3.816,12.38l11.362,0l-21.453,-66.141Z" style="fill:#fff;fill-rule:nonzero;"/></g><g><rect x="351.732" y="47.244" width="61.417" height="94.488" style="fill:#e31837;"/><path d="M397.026,51.969l-14.585,51.726l-14.67,-51.726l-11.617,-0l19.334,66.141l13.906,0l19.334,-66.141l-11.702,-0Z" style="fill:#fff;fill-rule:nonzero;"/></g><g><rect x="413.15" y="47.244" width="58.11" height="94.488" style="fill:#e31837;"/><path d="M457.044,51.969l-14.839,27.728l-14.84,-27.728l-12.041,-0l21.199,39.6l0,26.541l11.363,0l0,-26.541l21.199,-39.6l-12.041,-0Z" style="fill:#fff;fill-rule:nonzero;"/></g></g><g><g><rect x="500.315" y="236.256" width="73.228" height="94.488" style="fill:#e31837;"/><path d="M564.111,269.38l-27.358,-0l0,10.065l17.551,0l-0,3.097c-0.086,9.292 -5.678,15.83 -16.346,15.83c-14.281,-0 -19.443,-11.614 -19.443,-24.089c-0,-12.56 5.334,-25.035 19.443,-25.035c7.312,0 13.163,3.872 16.432,10.238l9.463,-4.818c-5.076,-10.065 -14.367,-15.743 -26.928,-15.743c-20.647,-0 -29.938,17.206 -29.938,35.272c-0,17.292 9.463,34.413 30.11,34.413c7.743,-0 14.11,-3.27 17.293,-7.829l-0,6.366l9.721,0l0,-37.767Z" style="fill:#fff;fill-rule:nonzero;"/></g><g><rect x="47.244" y="236.256" width="69.449" height="94.453" style="fill:#e31837;"/><path d="M111.905,258.337c-3.608,-12.029 -13.919,-19.419 -27.582,-19.419c-20.106,0 -30.331,16.154 -30.331,35.23c0,18.302 10.311,34.456 30.331,34.456c14.006,-0 22.856,-6.617 27.411,-19.076l-10.569,-3.523c-2.492,7.734 -8.507,12.288 -16.67,12.288c-14.263,-0 -18.731,-11.686 -18.731,-24.403c-0,-13.147 5.155,-24.746 19.505,-24.746c8.678,-0 14.177,6.272 16.239,12.888l10.397,-3.695Z" style="fill:#fff;fill-rule:nonzero;"/></g><g><rect x="386.457" y="236.256" width="34.488" height="94.488" style="fill:#e31837;"/><rect x="397.977" y="240.98" width="11.448" height="66.142" style="fill:#fff;fill-rule:nonzero;"/></g><g><rect x="420.945" y="236.256" width="79.37" height="94.488" style="fill:#e31837;"/><path d="M488.528,240.98l-11.363,0l0,47.063l-32.562,-47.063l-11.871,0l-0,66.142l11.362,0l0,-47.062l32.563,47.062l11.871,0l0,-66.142Z" style="fill:#fff;fill-rule:nonzero;"/></g><g><rect x="183.307" y="236.22" width="73.701" height="94.488" style="fill:#e31837;"/><path d="M239.19,273.935c-0,13.49 -4.468,24.403 -18.99,24.403c-14.435,-0 -19.075,-10.913 -19.075,-24.403c0,-12.717 4.984,-24.746 19.075,-24.746c14.178,-0 18.99,11.943 18.99,24.746Zm11.514,0c-0,-20.364 -10.311,-35.057 -30.589,-35.057c-20.451,-0 -30.504,14.521 -30.504,34.971c0,20.107 10.483,34.714 30.504,34.714c20.02,-0 30.589,-14.521 30.589,-34.628Z" style="fill:#fff;fill-rule:nonzero;"/></g><g><rect x="116.693" y="236.22" width="66.614" height="94.488" style="fill:#e31837;"/><path d="M163.78,261.127c-0,5.935 -4.071,10.09 -10.091,10.09l-13.822,-0.084l-0,-20.012l13.991,-0c5.936,-0 9.922,4.155 9.922,10.006Zm-0.848,18.825c4.918,-1.612 12.126,-6.53 12.126,-18.232c-0,-11.956 -6.699,-20.775 -21.03,-20.775l-25.524,-0l-0,66.142l11.363,-0l-0,-25.779l11.447,0l14.416,25.779l12.55,-0l-15.348,-27.135Z" style="fill:#fff;fill-rule:nonzero;"/></g><g><rect x="257.008" y="236.22" width="64.724" height="94.488" style="fill:#e31837;"/><path d="M314.717,289.92c0,-10.754 -6.022,-16.948 -19.099,-20.217l-8.517,-2.151c-7.226,-1.807 -11.528,-4.216 -11.528,-9.292c0,-5.333 5.936,-8.173 12.733,-8.173c5.936,0 12.13,2.237 15.571,7.313l8.861,-7.313c-5.592,-7.656 -15.227,-10.323 -24.432,-10.323c-15.228,-0 -24.433,8.345 -24.433,19.013c-0,12.56 9.377,17.206 18.755,19.443l9.721,2.322c5.334,1.291 10.668,3.7 10.668,9.98c-0,5.506 -5.248,8.603 -14.109,8.603c-6.452,0 -14.281,-4.301 -17.981,-9.549l-8.947,7.484c6.797,7.915 16.26,12.389 27.014,12.389c16.604,-0 25.723,-7.657 25.723,-19.529Z" style="fill:#fff;fill-rule:nonzero;"/></g><g><rect x="321.732" y="236.256" width="64.724" height="94.488" style="fill:#e31837;"/><path d="M379.442,289.955c-0,-10.754 -6.023,-16.948 -19.099,-20.217l-8.517,-2.151c-7.227,-1.806 -11.529,-4.215 -11.529,-9.291c0,-5.334 5.937,-8.173 12.733,-8.173c5.936,-0 12.13,2.237 15.572,7.313l8.861,-7.313c-5.592,-7.657 -15.228,-10.324 -24.433,-10.324c-15.227,0 -24.433,8.345 -24.433,19.013c0,12.561 9.378,17.206 18.755,19.443l9.721,2.323c5.334,1.29 10.668,3.699 10.668,9.979c0,5.506 -5.248,8.604 -14.109,8.604c-6.452,-0 -14.281,-4.302 -17.98,-9.55l-8.947,7.485c6.796,7.915 16.259,12.388 27.013,12.388c16.604,0 25.724,-7.656 25.724,-19.529Z" style="fill:#fff;fill-rule:nonzero;"/></g></g><g><g><rect x="268.819" y="141.732" width="64.252" height="94.488" style="fill:#e31837;"/><path d="M290.854,190.551l10.006,-31.968l10.176,31.968l-20.182,0Zm17.044,-44.094l-14.076,-0l-21.284,66.141l11.363,0l3.985,-12.38l26.287,0l3.816,12.38l11.363,0l-21.454,-66.141Z" style="fill:#fff;fill-rule:nonzero;"/></g><g><rect x="218.268" y="141.732" width="50.551" height="94.488" style="fill:#e31837;"/><path d="M267.638,202.423l-26.966,-0l0,-55.966l-11.362,-0l-0,66.141l38.328,0l-0,-10.175Z" style="fill:#fff;fill-rule:nonzero;"/></g><g><rect x="333.071" y="141.732" width="79.37" height="94.488" style="fill:#e31837;"/><path d="M400.654,146.457l-11.363,-0l0,47.062l-32.562,-47.062l-11.871,-0l-0,66.141l11.362,0l0,-47.062l32.563,47.062l11.871,0l0,-66.141Z" style="fill:#fff;fill-rule:nonzero;"/></g><g><rect x="156.85" y="141.732" width="61.417" height="94.488" style="fill:#e31837;"/><path d="M202.665,167.656c0,6.614 -3.816,10.684 -10.26,10.684l-12.381,0l0,-21.708l12.296,0c6.529,0 10.345,4.41 10.345,11.024Zm11.363,-0.085c-0,-11.871 -6.36,-21.114 -20.182,-21.114l-25.185,-0l0,66.141l11.363,0l0,-24.082l13.822,0c14.076,0 20.182,-9.497 20.182,-20.945Z" style="fill:#fff;fill-rule:nonzero;"/></g><g><rect x="412.441" y="141.732" width="51.496" height="94.488" style="fill:#e31837;"/><path d="M461.975,146.457l-47.572,-0l0,10.175l18.062,0l0,55.966l11.363,0l-0,-55.966l18.147,0l-0,-10.175Z" style="fill:#fff;fill-rule:nonzero;"/></g></g></g></g></svg>