<?xml version="1.0" encoding="UTF-8" standalone="no"?><!DOCTYPE svg PUBLIC "-//W3C//DTD SVG 1.1//EN" "http://www.w3.org/Graphics/SVG/1.1/DTD/svg11.dtd"><svg width="100%" height="100%" viewBox="0 0 514 454" version="1.1" xmlns="http://www.w3.org/2000/svg" xmlns:xlink="http://www.w3.org/1999/xlink" xml:space="preserve" xmlns:serif="http://www.serif.com/" style="fill-rule:evenodd;clip-rule:evenodd;stroke-linejoin:round;stroke-miterlimit:2;"><g id="scale-value" transform="matrix(50,0,0,50,350.907,262.709)"></g><text x="163.285px" y="262.709px" style="font-family:'ArialMT', 'Arial', sans-serif;font-size:50px;">sw=38.4</text><g id="_512.3-Cross-Roads-on-a-Bend" serif:id="512.3 Cross Roads on a Bend"><path d="M227.201,17.004c6.077,-10.522 17.305,-17.004 29.455,-17.004c12.151,0 23.379,6.482 29.456,17.004c54.07,93.625 168.562,291.872 222.642,385.514c6.078,10.524 6.079,23.491 0.003,34.016c-6.076,10.525 -17.306,17.009 -29.459,17.009l-445.283,0c-12.153,0 -23.383,-6.484 -29.459,-17.009c-6.076,-10.525 -6.075,-23.492 0.003,-34.016c54.08,-93.642 168.572,-291.889 222.642,-385.514Z" style="fill:#e31837;"/><path d="M256.621,56.706l202.954,351.484l-405.907,0l202.953,-351.484Z" style="fill:#fff;"/><path d="M196.391,256.918l-33.473,-19.325l13.228,-22.912l33.477,19.328c11.569,-15.109 27.386,-27.027 46.112,-33.843c-0,0 19.264,-7.011 35.745,-13.01l31.487,14.682c-0,0 -0,0 -0,0l-14.683,31.487c-16.481,5.999 -35.745,13.01 -35.745,13.01c-7.583,2.76 -14.246,7.134 -19.658,12.649l34.549,19.947l-13.228,22.911l-34.551,-19.948c-1.26,4.538 -1.927,9.293 -1.927,14.162l0,97.017l-49.132,-0l-0,-97.017c-0,-13.723 2.745,-26.977 7.799,-39.138Z"/></g></svg>