<?xml version="1.0" encoding="UTF-8" standalone="no"?><!DOCTYPE svg PUBLIC "-//W3C//DTD SVG 1.1//EN" "http://www.w3.org/Graphics/SVG/1.1/DTD/svg11.dtd"><svg width="100%" height="100%" viewBox="0 0 514 454" version="1.1" xmlns="http://www.w3.org/2000/svg" xmlns:xlink="http://www.w3.org/1999/xlink" xml:space="preserve" xmlns:serif="http://www.serif.com/" style="fill-rule:evenodd;clip-rule:evenodd;stroke-linejoin:round;stroke-miterlimit:2;"><g id="scale-value" transform="matrix(50,0,0,50,350.88,262.709)"></g><text x="163.258px" y="262.709px" style="font-family:'ArialMT', 'Arial', sans-serif;font-size:50px;">sw=38.4</text><g><path d="M227.171,17.006c6.077,-10.523 17.306,-17.006 29.459,-17.006c12.152,-0 23.382,6.483 29.459,17.006c54.067,93.632 168.541,291.874 222.613,385.513c6.077,10.524 6.077,23.491 0.001,34.016c-6.077,10.525 -17.307,17.008 -29.46,17.008l-445.226,0c-12.153,0 -23.384,-6.483 -29.46,-17.008c-6.076,-10.525 -6.076,-23.492 0.001,-34.016c54.072,-93.639 168.546,-291.881 222.613,-385.513Z" style="fill:#e31837;"/><path d="M256.63,56.698l202.967,351.492l-405.935,-0l202.968,-351.492Z" style="fill:#fff;"/><path d="M286.44,369.223l0,-110.298c0,-16.464 -13.346,-29.81 -29.81,-29.81c-16.464,-0 -29.81,13.346 -29.81,29.81l-0,134.146l-23.849,-23.848l-23.848,23.848l-0,-134.146l0,-0.126c0.069,-42.749 34.744,-77.381 77.507,-77.381c42.806,-0 77.507,34.701 77.507,77.507l-0,110.298l-23.848,23.848l-23.849,-23.848l0,0Z"/></g></svg>