<?xml version="1.0" encoding="UTF-8" standalone="no"?><!DOCTYPE svg PUBLIC "-//W3C//DTD SVG 1.1//EN" "http://www.w3.org/Graphics/SVG/1.1/DTD/svg11.dtd"><svg width="100%" height="100%" viewBox="0 0 461 703" version="1.1" xmlns="http://www.w3.org/2000/svg" xmlns:xlink="http://www.w3.org/1999/xlink" xml:space="preserve" xmlns:serif="http://www.serif.com/" style="fill-rule:evenodd;clip-rule:evenodd;stroke-linejoin:round;stroke-miterlimit:2;"><g id="scale-value" transform="matrix(50,0,0,50,324.358,369.042)"></g><text x="136.736px" y="369.042px" style="font-family:'ArialMT', 'Arial', sans-serif;font-size:50px;">sw=59.5</text><g><path d="M460.63,35.433c-0,-19.556 -15.877,-35.433 -35.433,-35.433l-389.764,0c-19.556,0 -35.433,15.877 -35.433,35.433l0,631.89c0,19.556 15.877,35.433 35.433,35.433l389.764,-0c19.556,-0 35.433,-15.877 35.433,-35.433l-0,-631.89Z"/><g><path d="M442.913,35.433c0,-9.778 -7.938,-17.716 -17.716,-17.716l-389.764,-0c-9.778,-0 -17.716,7.938 -17.716,17.716l-0,377.953c-0,9.778 7.938,17.716 17.716,17.716l389.764,0c9.778,0 17.716,-7.938 17.716,-17.716l0,-377.953Z" style="fill:#fff;"/><path d="M442.913,466.535c0,-9.778 -7.938,-17.716 -17.716,-17.716l-389.764,-0c-9.778,-0 -17.716,7.938 -17.716,17.716l-0,200.788c-0,9.778 7.938,17.716 17.716,17.716l389.764,0c9.778,0 17.716,-7.938 17.716,-17.716l0,-200.788Z" style="fill:#fff;"/><g><g><g><rect id="path1786" x="274.019" y="478.346" width="41.079" height="94.488" style="fill:#fff;"/><path id="path1788" d="M293.519,549.165l-12.92,0l0,-47.159l12.92,-0l-0,4.67l1.58,-1.59l1.75,-1.33l2,-1.17l2.17,-0.75l2.16,-0.5l2.25,-0.161l3.17,0l-0,12.25l-4.42,0l-1.83,0.16l-1.83,0.499l-1.67,0.84l-1.58,1.079l-1.25,1.251l-1.08,1.579l-0.839,1.67l-0.5,1.83l-0.083,1.84l0.002,24.992Z" style="fill:#010001;fill-rule:nonzero;"/></g><g><rect id="path1806" x="221.11" y="478.346" width="52.909" height="94.488" style="fill:#fff;"/><path id="path1808" d="M246.61,500.756l-2.42,0.17l-2.41,0.41l-2.34,0.75l-2.25,1.09l-2.08,1.25l-2.25,1.66l-2.08,2l-1.75,2.25l-1.42,2.42l-1.17,3l-0.83,3.17l-0.5,3.16l-0.17,3.25l0.25,3.25l0.591,3.17l0.909,3.08l1.17,2.999l1.079,2.17l1.42,2l1.5,1.83l1.83,1.67l1.92,1.41l2.08,1.25l2.25,0.92l2.34,0.67l2.99,0.58l3.09,0.25l3.08,-0.082l3.08,-0.341l3,-0.66l2.339,-0.84l2.16,-1.079l2,-1.42l1.83,-1.67l1.67,-1.83l-7.999,-8.08l-1.83,1.67l-2.08,1.33l-2.25,1.001l-2.17,0.579l-2.17,0.171l-2.16,-0.083l-2.17,-0.421l-2.08,-0.75l-1.42,-0.92l-1.25,-1.16l-1,-1.34l-0.75,-1.5l-0.41,-1.66l-0.17,-1.67l31.499,0l-0.17,-3.919l-0.421,-3.91l-0.83,-3.83l-1.17,-3.75l-1.08,-2.5l-1.42,-2.25l-1.66,-2.17l-2,-1.83l-2.17,-1.59l-2.08,-1.25l-2.25,-0.909l-2.42,-0.67l-2.419,-0.421l-2.408,-0.075Zm-0.25,10.75l1.659,-0l1.67,0.329l1.58,0.59l1.42,0.83l1.33,1.08l1.09,1.249l0.831,1.421l0.58,1.579l0.25,1.67l-19.159,0l0.25,-1.67l0.58,-1.579l0.84,-1.421l1.079,-1.249l1.33,-1.08l1.42,-0.83l1.58,-0.59l1.67,-0.329Z" style="fill:#010001;fill-rule:nonzero;"/></g><g><rect id="path18061" serif:id="path1806" x="363.263" y="478.346" width="52.909" height="94.488" style="fill:#fff;"/><path id="path18081" serif:id="path1808" d="M388.762,500.756l-2.42,0.17l-2.41,0.41l-2.34,0.75l-2.25,1.09l-2.08,1.25l-2.25,1.66l-2.079,2l-1.75,2.25l-1.42,2.42l-1.171,3l-0.83,3.17l-0.5,3.16l-0.17,3.25l0.251,3.25l0.59,3.17l0.91,3.08l1.169,2.999l1.079,2.17l1.42,2l1.5,1.83l1.83,1.67l1.92,1.41l2.08,1.25l2.25,0.92l2.34,0.67l2.99,0.58l3.09,0.25l3.08,-0.082l3.08,-0.341l3,-0.66l2.34,-0.84l2.16,-1.079l2,-1.42l1.83,-1.67l1.67,-1.83l-8,-8.08l-1.83,1.67l-2.08,1.33l-2.25,1.001l-2.17,0.579l-2.17,0.171l-2.16,-0.083l-2.17,-0.421l-2.08,-0.75l-1.42,-0.92l-1.25,-1.16l-1,-1.34l-0.75,-1.5l-0.41,-1.66l-0.17,-1.67l31.499,0l-0.17,-3.919l-0.42,-3.91l-0.831,-3.83l-1.17,-3.75l-1.08,-2.5l-1.42,-2.25l-1.659,-2.17l-2,-1.83l-2.17,-1.59l-2.08,-1.25l-2.25,-0.909l-2.42,-0.67l-2.42,-0.421l-2.408,-0.075Zm-0.25,10.75l1.66,-0l1.67,0.329l1.58,0.59l1.42,0.83l1.33,1.08l1.09,1.249l0.83,1.421l0.58,1.579l0.25,1.67l-19.159,0l0.25,-1.67l0.58,-1.579l0.84,-1.421l1.079,-1.249l1.33,-1.08l1.42,-0.83l1.58,-0.59l1.67,-0.329Z" style="fill:#010001;fill-rule:nonzero;"/></g><g><rect id="path1818" x="112.447" y="478.346" width="57.159" height="94.488" style="fill:#fff;"/><path id="path1820" d="M149.606,483.096l0,21.16l-2.16,-1.42l-2.25,-1.16l-2.42,-0.84l-2.41,-0.58l-2.589,-0.25l-2.5,0.095l-2.5,0.329l-2.5,0.66l-2.33,0.92l-2.25,1.25l-2.08,1.42l-2.13,2.04l-1.71,2.21l-1.25,2.37l-1.33,3.46l-0.83,3.33l-0.58,3.42l-0.251,3.42l0.161,3.41l0.42,3.42l0.831,3.33l1.09,3.25l1.24,2.5l1.5,2.25l1.84,2.08l2.08,1.75l2.33,1.42l2.75,1.079l2.92,0.75l2.919,0.34l2.91,0l2.92,-0.42l2.83,-0.75l2,-0.75l1.75,-1.171l1.58,-1.409l0,3.249l12.92,0l0,-66.158l-12.921,-0.004Zm-9.91,28.33l1.91,0.25l1.92,0.58l1.67,0.92l1.58,1.16l1.08,1.25l0.84,1.34l0.58,1.5l0.329,1.66l0,10.17l-0.159,1.25l-0.341,1.25l-0.579,1.079l-0.75,1.08l-1.331,1.42l-1.499,1.17l-1.67,0.831l-1.83,0.58l-1.92,0.25l-1.91,-0.161l-1.84,-0.42l-1.5,-0.58l-1.41,-0.84l-1.171,-1.079l-1,-1.25l-0.75,-1.42l-0.83,-2.5l-0.421,-2.66l-0.25,-2.58l0.17,-2.67l0.41,-2.58l0.75,-2.59l0.75,-1.66l0.839,-1.25l1.16,-1.09l1.59,-1.08l1.75,-0.75l1.91,-0.499l1.923,-0.081Z" style="fill:#010001;fill-rule:nonzero;"/></g><g><rect id="path1678" x="169.606" y="478.346" width="51.505" height="94.488" style="fill:#fff;"/><path id="path1680" d="M171.606,501.929l16.422,47.244l14.411,-0l16.421,-47.244l-13.331,-0l-10.251,29.662l-10.331,-29.662l-13.341,-0Z" style="fill:#010001;fill-rule:nonzero;"/></g><g><rect id="path1674" x="315.098" y="478.346" width="48.164" height="94.488" style="fill:#fff;"/><path id="path1676" d="M327.85,535.011l2,1.58l2.16,1.251l2.34,1l2.41,0.67l2.501,0.33l2.25,0l1.59,-0.58l1.33,-0.92l0.75,-0.75l0.5,-1l0.081,-1.08l-0.25,-1.091l-0.58,-0.91l-0.831,-0.67l-3.25,-1.25l-3.34,-0.671l-3,-0.5l-4.081,-1l-2,-0.66l-1.83,-1l-1.67,-1.25l-1.5,-1.42l-1.25,-1.58l-1.081,-1.75l-0.67,-2.09l-0.41,-2.161l0,-2.17l0.25,-2.16l0.581,-2.17l0.92,-1.92l1.25,-1.831l1.41,-1.58l1.59,-1.42l1.83,-1.17l1.91,-0.911l2.091,-0.589l3,-0.66l3,-0.341l3.08,0l3.081,0.25l3.09,0.59l2.5,0.749l2.41,1l2.341,1.331l2.24,1.42l2,1.75l-7.991,8.491l-2.25,-1.831l-2.5,-1.5l-2.67,-1.159l-1.501,-0.42l-1.58,-0.25l-1.59,0l-1.66,0.42l-1.5,0.75l-1.34,1l-0.66,0.83l-0.34,0.92l0.09,1.08l0.33,0.91l0.58,0.841l1,0.58l5.5,1.081l5.001,0.67l1.92,0.33l0.08,0l1.92,0.67l1.831,0.83l1.84,1.09l1.66,1.411l1.42,1.59l1.16,1.75l0.84,1.91l0.581,2.09l0.33,2.08l-0.083,2.17l-0.33,2.081l-0.67,2.08l-1.081,2.09l-1.34,1.91l-1.58,1.75l-1.83,1.5l-2,1.171l-3.251,1l-3.33,0.66l-3.42,0.34l-3.331,0l-3.42,-0.34l-3.33,-0.66l-3,-0.92l-2.921,-1.25l-2.66,-1.58l-2.5,-1.84l-2.34,-2.16l9.42,-8.671l1.753,1.839Z" style="fill:#010001;fill-rule:nonzero;"/></g><g id="A"><rect id="path1634" x="44.458" y="478.346" width="67.989" height="94.488" style="fill:#fff;"/><path id="path1636" d="M69.788,483.096l-22.08,66.069l14.83,0l3.59,-11.66l24.909,0l3.58,11.66l14.83,0l-22.08,-66.069l-17.579,0Zm8.75,13.83l8.919,28.91l-17.749,-0l8.83,-28.91Z" style="fill:#010001;fill-rule:nonzero;"/></g></g></g><g><g><rect id="path1746" x="165.156" y="572.835" width="82.658" height="94.488" style="fill:#fff;"/><path id="path1748" d="M236.065,602.824l-1.67,-1.91l-1.92,-1.67l-2.08,-1.42l-2.25,-1.16l-2.41,-0.839l-2.75,-0.5l-2.09,-0.083l-2.08,0.251l-2.08,0.42l-1.92,0.66l-1.92,0.92l-1.75,1.25l-1.58,1.42l-1.42,1.66l-1.159,-1.83l-1.42,-1.5l-1.66,-1.25l-1.92,-0.92l-1.5,-0.499l-2.75,-0.5l-2.42,-0.083l-2.33,0.33l-2.33,0.591l-2.17,0.909l-2.08,1.25l-1.92,1.5l-0,-3.33l-12.91,-0l0,47.159l12.91,0l-0,-28.329l0.17,-1.66l0.66,-1.59l1.001,-1.5l1.34,-1.25l1.5,-1.001l2.66,-0.909l1,-0.095l0.92,0.095l0.421,0.083l1.75,0.75l1.25,1.079l1,1.34l0.66,1.58l0.421,1.67l0.082,1.66l0,28.079l12.92,0l0,-28.329l0.161,-1.66l0.589,-1.59l1.08,-1.5l1.329,-1.25l1.5,-1l2.67,-0.91l0.921,-0.094l1,0.094l0.329,0.083l1.75,0.75l1.25,1.08l1.08,1.339l0.67,1.58l0.329,1.67l0.095,1.66l-0,28.08l12.909,-0l-12.909,-0l12.909,-0l0,-28.16l-0.082,-2.75l-0.5,-2.67l-0.75,-2.579l-1.09,-2.5l-1.416,-2.172Z" style="fill:#010001;fill-rule:nonzero;"/></g><g><rect id="path1798" x="60.338" y="572.835" width="51.489" height="94.488" style="fill:#fff;"/><path id="path1800" d="M77.748,626.904l0.67,1.5l1.17,1.84l1.5,1.659l1.75,1.25l2.08,0.84l1.83,0.251l1.92,-0.251l2,-0.84l1.75,-1.25l1.5,-1.659l1.25,-1.84l1,-2.66l12,4.5l-0.251,0.499l-1.17,2.75l-1.5,2.5l-1.75,2.25l-2.08,2.08l-2.34,1.75l-2.33,1.25l-2.33,0.92l-2.5,0.75l-2.59,0.41l-2.58,0.17l-2.58,-0.17l-2.5,-0.41l-2.499,-0.75l-2.42,-0.92l-2.25,-1.25l-2.33,-1.75l-2.08,-2.08l-1.84,-2.25l-1.5,-2.5l-1.16,-2.75l-0.17,-0.499l-0.83,-3.34l-0.5,-3.41l-0.17,-3.42l0.17,-3.41l0.5,-3.34l0.83,-3.33l0.17,-0.58l1.16,-2.67l1.5,-2.5l1.84,-2.33l2.08,-2l2.33,-1.84l2.25,-1.16l2.42,-1l2.499,-0.67l2.5,-0.499l2.58,-0.171l2.58,0.171l2.59,0.499l2.5,0.67l2.33,1l2.33,1.16l2.34,1.84l2.08,2l1.75,2.33l1.5,2.5l1.17,2.67l0.251,0.58l-12,4.42l-1,-2.67l-1.25,-1.83l-1.5,-1.59l-1.75,-1.25l-2,-0.83l-1.92,-0.251l-1.83,0.251l-2.08,0.83l-1.75,1.25l-1.5,1.59l-1.17,1.83l-0.67,1.58l-0.5,1.59l-0.25,2.58l-0.161,2.58l0.161,2.67l0.25,2.58l0.5,1.58Z" style="fill:#010001;fill-rule:nonzero;"/></g><g><rect id="path1802" x="247.815" y="572.835" width="58.489" height="94.488" style="fill:#fff;"/><path id="path1804" d="M254.475,577.585l-0,66.148l12.919,0l0,-3.24l1.58,1.41l1.75,1.171l1.92,0.75l2.91,0.75l2.92,0.42l2.92,0l2.91,-0.34l2.92,-0.75l2.66,-1.079l2.42,-1.421l2.08,-1.749l1.84,-2.08l1.5,-2.25l1.159,-2.5l1.171,-3.25l0.75,-3.33l0.5,-3.42l0.082,-3.41l-0.17,-3.42l-0.58,-3.42l-0.909,-3.33l-1.171,-3.17l-0.83,-1.91l-1.17,-1.75l-1.33,-1.5l-1.92,-1.75l-2,-1.42l-2.25,-1.25l-2.33,-0.92l-2.5,-0.66l-2.5,-0.33l-2.58,-0.094l-2.5,0.25l-2.5,0.58l-2.34,0.84l-2.25,1.16l-2.16,1.42l0,-21.16l-12.921,0.004Zm22.749,28.329l2,0.083l1.83,0.499l1.83,0.75l1.59,1.08l1.079,1.09l0.921,1.25l0.75,1.66l0.75,2.59l0.409,2.58l0.095,2.67l-0.17,2.58l-0.5,2.66l-0.75,2.5l-0.75,1.42l-1,1.25l-1.25,1.079l-1.33,0.84l-1.5,0.58l-1.92,0.42l-1.83,0.161l-1.92,-0.251l-1.83,-0.579l-1.75,-0.831l-1.5,-1.17l-1.25,-1.42l-0.75,-1.08l-0.58,-1.079l-0.34,-1.25l-0.161,-1.25l0,-10.17l0.251,-1.66l0.58,-1.5l0.92,-1.34l1.079,-1.25l1.58,-1.16l1.67,-0.92l1.83,-0.58l1.917,-0.252Z" style="fill:#010001;fill-rule:nonzero;"/></g><g><rect id="path1698" x="111.827" y="572.835" width="53.329" height="94.488" style="fill:#fff;"/><path id="path1700" d="M136.657,594.584l-3.08,0.161l-3,0.58l-3.75,1.09l-3.67,1.41l-3.5,1.67l-3.41,1.92l6.33,9.66l2.58,-1.58l2.67,-1.25l2.83,-1.001l2.92,-0.75l3,-0.42l1.66,-0.083l1.75,0.33l1.58,0.589l0.92,0.58l0.75,0.83l0.499,0.92l0.17,1.08l0,3l-4.169,0.17l-4.08,0.5l-4.08,0.75l-4,1.079l-3.92,1.42l-1.66,1l-1.59,1.25l-1.42,1.5l-1.16,1.58l-0.92,1.83l-0.66,1.92l-0.34,2l-0.083,2l0.17,2l0.49,1.92l0.76,1.91l1,1.75l1.24,1.59l1.42,1.41l1.67,1.17l2.41,1.16l2.59,0.92l2.75,0.59l2.75,0.329l2.75,-0.082l2.66,-0.341l2.67,-0.66l1.42,-0.669l1.33,-0.831l1.079,-1l0.92,-1.25l1.001,1.33l1.249,1l1.42,0.75l2.58,1.001l2.66,0.579l2.75,0.33l4.59,-10.08l-1.09,0l-1.08,-0.159l-1.079,-0.5l-0.84,-0.67l-0.66,-0.92l-0.421,-1l-0.17,-1.16l0,-22.33l-0.16,-1.839l-0.421,-1.83l-0.75,-1.67l-0.92,-1.58l-1.25,-1.5l-1.41,-1.171l-1.59,-1l-2.25,-0.99l-2.41,-0.84l-2.919,-0.83l-3.08,-0.421l-2.996,-0.151Zm7.25,28.07l-0,6.75l-0.17,1.25l-0.58,1.17l-0.75,1l-1.091,0.75l-1.159,0.421l-2.33,0.329l-2.34,0l-2.33,-0.329l-1.171,-0.421l-1,-0.75l-0.83,-0.92l-0.58,-1.079l-0.34,-1.08l-0,-1.17l0.34,-1.171l0.58,-0.91l0.83,-0.84l1,-0.58l3.92,-1l2.28,-0.47l1.72,-0.361l4.001,-0.589Z" style="fill:#010001;fill-rule:nonzero;"/></g><g><rect id="path17861" serif:id="path1786" x="359.213" y="572.835" width="41.079" height="94.488" style="fill:#fff;"/><path id="path17881" serif:id="path1788" d="M378.712,643.653l-12.92,0l0,-47.159l12.92,0l0,4.67l1.58,-1.59l1.75,-1.33l2,-1.17l2.17,-0.75l2.16,-0.5l2.25,-0.161l3.17,0l-0,12.25l-4.42,0l-1.83,0.16l-1.83,0.499l-1.67,0.84l-1.58,1.08l-1.25,1.25l-1.079,1.58l-0.84,1.67l-0.5,1.829l-0.082,1.841l0.001,24.991Z" style="fill:#010001;fill-rule:nonzero;"/></g><g><rect id="path18062" serif:id="path1806" x="306.304" y="572.835" width="52.909" height="94.488" style="fill:#fff;"/><path id="path18082" serif:id="path1808" d="M331.803,595.244l-2.42,0.17l-2.41,0.41l-2.34,0.75l-2.25,1.09l-2.08,1.25l-2.25,1.66l-2.08,2l-1.75,2.25l-1.42,2.42l-1.17,3l-0.83,3.17l-0.5,3.16l-0.17,3.25l0.25,3.25l0.591,3.17l0.909,3.08l1.17,3l1.079,2.17l1.42,1.999l1.5,1.83l1.83,1.67l1.92,1.41l2.08,1.25l2.25,0.92l2.34,0.67l2.99,0.58l3.09,0.25l3.08,-0.082l3.08,-0.34l3,-0.661l2.34,-0.839l2.16,-1.08l2,-1.42l1.83,-1.67l1.67,-1.83l-8,-8.08l-1.83,1.67l-2.08,1.33l-2.25,1.001l-2.17,0.58l-2.17,0.17l-2.16,-0.083l-2.17,-0.42l-2.08,-0.75l-1.42,-0.921l-1.25,-1.159l-1,-1.34l-0.75,-1.5l-0.41,-1.66l-0.17,-1.67l31.499,-0l-0.17,-3.92l-0.42,-3.91l-0.831,-3.83l-1.17,-3.75l-1.08,-2.5l-1.42,-2.25l-1.66,-2.17l-2,-1.83l-2.17,-1.59l-2.079,-1.25l-2.25,-0.909l-2.42,-0.67l-2.42,-0.42l-2.408,-0.076Zm-0.25,10.75l1.66,-0l1.67,0.33l1.58,0.589l1.42,0.83l1.329,1.08l1.091,1.25l0.83,1.42l0.58,1.58l0.25,1.67l-19.159,-0l0.25,-1.67l0.58,-1.58l0.84,-1.42l1.079,-1.25l1.33,-1.08l1.42,-0.83l1.58,-0.589l1.67,-0.33Z" style="fill:#010001;fill-rule:nonzero;"/></g></g><path d="M333.061,392.213l-279.911,-0l-0,9.362l279.911,-0l-0,-9.362Zm-1.889,-77.337l-205.284,-74.626l65.78,-180.769c2.642,-7.432 9.6,-12.237 17.518,-12.237c2.17,0 4.324,0.24 6.245,1.201l179.808,65.294c7.437,2.651 12.241,9.602 12.241,17.531c0,2.154 -0.24,4.325 -1.201,6.479l-65.772,180.521l-9.126,-3.318l-2.636,16.043l-8.166,-1.441l-10.32,58.815l-0.337,-0.024c-0.448,2.13 -2.313,3.62 -4.467,3.62c-0.24,-0 -0.472,-0.016 -0.713,-0.057l-0.008,0.305l-18.006,-3.132l0.008,-0.28c-2.218,-0.344 -3.843,-2.266 -3.843,-4.509c-0,-0.248 0.016,-0.48 0.056,-0.712l-0.056,-0.008l4.564,-25.692l-9.128,-1.433l-4.323,25.691l-0.336,-0.032c-0.449,2.114 -2.306,3.62 -4.46,3.62c-0.24,-0 -0.48,-0.008 -0.721,-0.048l-0.008,0.048l-18.238,-3.115l0.008,-0.065c-2.218,-0.344 -3.851,-2.25 -3.851,-4.5c-0,-0.241 0.016,-0.473 0.056,-0.705l0.184,-0.016l2.642,-15.601l-2.162,-3.604l0.721,-4.565l-0,0.008l0.48,-2.634l0,-0.016l-25.684,-0.233c-0.152,0 -0.296,0.032 -0.433,0.105l-0.048,-0.105l-8.166,6.487l-0.032,-0.288c-0.392,0.336 -0.889,0.521 -1.401,0.521c-0.08,-0 -0.16,-0 -0.24,-0.016l-0,0.016l-4.324,-0.713l-4.083,-0.721l-0,-0.04c-0.873,-0.144 -1.625,-0.689 -2.05,-1.466l-0.112,0.065l-4.796,-8.169l-0.248,-0l-0.24,-0.232l-0,-0.241l-24.484,-8.401l-0.24,2.643l-0.961,4.549l0,0.008l-3.354,2.635l-2.642,15.368l-0.056,-0.016c-0.353,2.219 -2.258,3.868 -4.508,3.868c-0.312,0 -0.632,-0.048 -0.937,-0.112l-0.024,0.112l-18.006,-3.139l0.008,-0.296c-2.218,-0.353 -3.843,-2.251 -3.843,-4.501c-0,-0.24 0.016,-0.473 0.056,-0.705l-0.056,-0.016l4.555,-25.683l-9.119,-1.442l-4.323,25.692l-0.337,-0.024c-0.448,2.106 -2.305,3.619 -4.467,3.619c-0.232,0 -0.472,-0.016 -0.705,-0.056l-0.016,0.289l-17.998,-3.348l-0,-0.064c-2.21,-0.352 -3.843,-2.258 -3.843,-4.501c-0,-0.24 0.016,-0.48 0.056,-0.713l-0.056,-0.008l10.32,-59.063l-7.926,-1.433l2.65,-15.841l224.964,39.572Zm-42.282,34.363l4.323,-24.482l-8.879,-1.682l-4.323,24.73l8.879,1.434Zm-89.304,-20.158l-25.916,-0.48l0.232,-1.209l0.721,-4.317l-2.402,-3.604l2.882,-15.601l82.105,14.4l-2.882,15.608l-3.363,2.884l-0.72,4.076l-0.24,1.433l-22.811,-7.912l0.016,-0.048c-1.096,-0.393 -2.033,-1.129 -2.634,-2.138l0.225,0.024l-4.804,-7.44l-0.224,-0.016c-0.297,-0.577 -0.833,-0.993 -1.474,-1.13l0.016,0.185l-4.323,-0.961l-3.843,-0.481l-0.016,-0.16c-0.224,-0.056 -0.473,-0.08 -0.697,-0.08c-0.64,-0 -1.265,0.216 -1.777,0.609l0.096,0.112l-7.446,5.998l-0.721,0.248Zm-56.164,-5.526l-8.895,-1.681l4.323,-24.491l8.887,1.682l-4.315,24.49Z"/></g></g></svg>