<?xml version="1.0" encoding="UTF-8" standalone="no"?><!DOCTYPE svg PUBLIC "-//W3C//DTD SVG 1.1//EN" "http://www.w3.org/Graphics/SVG/1.1/DTD/svg11.dtd"><svg width="100%" height="100%" viewBox="0 0 467 272" version="1.1" xmlns="http://www.w3.org/2000/svg" xmlns:xlink="http://www.w3.org/1999/xlink" xml:space="preserve" xmlns:serif="http://www.serif.com/" style="fill-rule:evenodd;clip-rule:evenodd;stroke-linejoin:round;stroke-miterlimit:2;"><g id="scale-value" transform="matrix(50,0,0,50,306.428,153.478)"></g><text x="160.506px" y="153.478px" style="font-family:'ArialMT', 'Arial', sans-serif;font-size:50px;">sw=23</text><g id="_513.1-Adverse-Camber" serif:id="513.1 Adverse Camber"><path d="M466.202,35.433c-0,-19.556 -15.877,-35.433 -35.434,-35.433l-395.335,-0c-19.556,-0 -35.433,15.877 -35.433,35.433l-0,200.787c-0,19.557 15.877,35.434 35.433,35.434l395.335,-0c19.557,-0 35.434,-15.877 35.434,-35.434l-0,-200.787Z"/><path d="M448.485,35.433c0,-9.778 -7.938,-17.716 -17.717,-17.716l-395.335,-0c-9.778,-0 -17.716,7.938 -17.716,17.716l-0,200.787c-0,9.778 7.938,17.717 17.716,17.717l395.335,0c9.779,0 17.717,-7.939 17.717,-17.717l0,-200.787Z" style="fill:#fff;"/><g><g><g><rect id="path1786" x="276.805" y="47.244" width="41.079" height="94.488" style="fill:#fff;"/><path id="path1788" d="M296.305,118.063l-12.92,-0l0,-47.159l12.92,-0l-0,4.67l1.58,-1.59l1.75,-1.33l2,-1.171l2.17,-0.75l2.16,-0.499l2.25,-0.161l3.169,-0l0,12.25l-4.419,-0l-1.83,0.159l-1.83,0.5l-1.67,0.84l-1.58,1.079l-1.25,1.25l-1.08,1.58l-0.84,1.67l-0.499,1.83l-0.083,1.84l0.002,24.992Z" style="fill:#010001;fill-rule:nonzero;"/></g><g><rect id="path1806" x="223.896" y="47.244" width="52.909" height="94.488" style="fill:#fff;"/><path id="path1808" d="M249.396,69.654l-2.42,0.17l-2.41,0.41l-2.34,0.75l-2.25,1.09l-2.08,1.25l-2.25,1.66l-2.08,2l-1.75,2.25l-1.42,2.42l-1.17,3l-0.831,3.169l-0.499,3.16l-0.17,3.25l0.25,3.25l0.591,3.17l0.909,3.08l1.169,3l1.08,2.17l1.42,2l1.5,1.83l1.83,1.67l1.92,1.41l2.08,1.25l2.25,0.92l2.34,0.67l2.99,0.58l3.09,0.25l3.079,-0.083l3.08,-0.34l3,-0.66l2.34,-0.84l2.16,-1.079l2,-1.42l1.83,-1.67l1.67,-1.83l-8,-8.08l-1.83,1.67l-2.08,1.33l-2.25,1l-2.169,0.58l-2.17,0.17l-2.16,-0.083l-2.17,-0.42l-2.08,-0.75l-1.42,-0.92l-1.25,-1.16l-1.001,-1.34l-0.75,-1.5l-0.409,-1.66l-0.171,-1.67l31.5,0l-0.17,-3.92l-0.421,-3.91l-0.83,-3.83l-1.17,-3.75l-1.08,-2.5l-1.42,-2.25l-1.66,-2.169l-2,-1.83l-2.17,-1.59l-2.08,-1.25l-2.25,-0.91l-2.42,-0.669l-2.42,-0.421l-2.407,-0.075Zm-0.251,10.749l1.66,0l1.67,0.33l1.58,0.589l1.42,0.831l1.33,1.079l1.09,1.25l0.831,1.42l0.58,1.58l0.25,1.67l-19.16,0l0.251,-1.67l0.58,-1.58l0.839,-1.42l1.08,-1.25l1.33,-1.079l1.42,-0.831l1.58,-0.589l1.669,-0.33Z" style="fill:#010001;fill-rule:nonzero;"/></g><g><rect id="path18061" serif:id="path1806" x="366.048" y="47.244" width="52.909" height="94.488" style="fill:#fff;"/><path id="path18081" serif:id="path1808" d="M391.548,69.654l-2.42,0.17l-2.41,0.41l-2.34,0.75l-2.25,1.09l-2.08,1.25l-2.25,1.66l-2.08,2l-1.75,2.25l-1.42,2.42l-1.17,3l-0.83,3.169l-0.5,3.16l-0.17,3.25l0.25,3.25l0.591,3.17l0.909,3.08l1.17,3l1.079,2.17l1.42,2l1.5,1.83l1.83,1.67l1.92,1.41l2.08,1.25l2.25,0.92l2.34,0.67l2.99,0.58l3.09,0.25l3.08,-0.083l3.08,-0.34l3,-0.66l2.34,-0.84l2.16,-1.079l1.999,-1.42l1.83,-1.67l1.67,-1.83l-7.999,-8.08l-1.83,1.67l-2.08,1.33l-2.25,1l-2.17,0.58l-2.17,0.17l-2.16,-0.083l-2.17,-0.42l-2.08,-0.75l-1.42,-0.92l-1.25,-1.16l-1,-1.34l-0.75,-1.5l-0.41,-1.66l-0.17,-1.67l31.499,0l-0.17,-3.92l-0.42,-3.91l-0.831,-3.83l-1.17,-3.75l-1.08,-2.5l-1.42,-2.25l-1.66,-2.169l-2,-1.83l-2.17,-1.59l-2.08,-1.25l-2.25,-0.91l-2.42,-0.669l-2.419,-0.421l-2.408,-0.075Zm-0.25,10.749l1.659,0l1.67,0.33l1.58,0.589l1.42,0.831l1.33,1.079l1.091,1.25l0.83,1.42l0.58,1.58l0.25,1.67l-19.159,0l0.25,-1.67l0.58,-1.58l0.84,-1.42l1.079,-1.25l1.33,-1.079l1.42,-0.831l1.58,-0.589l1.67,-0.33Z" style="fill:#010001;fill-rule:nonzero;"/></g><g><rect id="path1818" x="115.233" y="47.244" width="57.159" height="94.488" style="fill:#fff;"/><path id="path1820" d="M152.392,51.994l0,21.16l-2.16,-1.42l-2.25,-1.16l-2.42,-0.84l-2.41,-0.58l-2.59,-0.25l-2.5,0.094l-2.5,0.33l-2.5,0.66l-2.329,0.92l-2.25,1.25l-2.08,1.42l-2.13,2.04l-1.71,2.21l-1.25,2.37l-1.33,3.46l-0.831,3.33l-0.58,3.42l-0.25,3.42l0.161,3.41l0.42,3.42l0.831,3.329l1.09,3.25l1.24,2.5l1.5,2.25l1.84,2.08l2.08,1.75l2.33,1.42l2.749,1.08l2.92,0.75l2.92,0.34l2.91,-0l2.92,-0.421l2.83,-0.75l2,-0.75l1.75,-1.17l1.58,-1.41l-0,3.25l12.92,0l-0,-66.159l-12.921,-0.003Zm-9.91,28.329l1.91,0.251l1.92,0.58l1.67,0.92l1.58,1.16l1.08,1.25l0.839,1.34l0.58,1.5l0.33,1.66l-0,10.169l-0.16,1.25l-0.34,1.25l-0.58,1.08l-0.75,1.079l-1.33,1.42l-1.5,1.171l-1.67,0.83l-1.83,0.58l-1.92,0.251l-1.91,-0.161l-1.839,-0.421l-1.5,-0.579l-1.41,-0.84l-1.171,-1.08l-1,-1.25l-0.75,-1.42l-0.831,-2.5l-0.42,-2.66l-0.25,-2.58l0.17,-2.67l0.409,-2.58l0.75,-2.589l0.75,-1.66l0.84,-1.25l1.16,-1.09l1.59,-1.08l1.75,-0.75l1.91,-0.5l1.923,-0.081Z" style="fill:#010001;fill-rule:nonzero;"/></g><g><rect id="path1678" x="172.392" y="47.244" width="51.505" height="94.488" style="fill:#fff;"/><path id="path1680" d="M174.392,70.826l16.421,47.244l14.412,0l16.421,-47.244l-13.331,0l-10.251,29.663l-10.331,-29.663l-13.341,0Z" style="fill:#010001;fill-rule:nonzero;"/></g><g><rect id="path1674" x="317.884" y="47.244" width="48.164" height="94.488" style="fill:#fff;"/><path id="path1676" d="M330.635,103.909l2.001,1.58l2.16,1.25l2.34,1l2.41,0.671l2.5,0.33l2.251,-0l1.59,-0.581l1.33,-0.92l0.75,-0.749l0.5,-1l0.08,-1.081l-0.25,-1.09l-0.58,-0.91l-0.83,-0.671l-3.25,-1.25l-3.34,-0.67l-3.001,-0.5l-4.08,-1l-2,-0.66l-1.83,-1l-1.67,-1.25l-1.501,-1.42l-1.25,-1.58l-1.08,-1.751l-0.67,-2.09l-0.41,-2.16l0,-2.17l0.25,-2.16l0.58,-2.171l0.92,-1.92l1.251,-1.83l1.41,-1.58l1.59,-1.42l1.83,-1.171l1.91,-0.91l2.09,-0.59l3.001,-0.66l3,-0.34l3.08,-0l3.08,0.249l3.091,0.59l2.5,0.75l2.41,1l2.34,1.33l2.241,1.42l2,1.75l-7.991,8.491l-2.25,-1.83l-2.5,-1.5l-2.671,-1.16l-1.5,-0.419l-1.58,-0.25l-1.59,0l-1.66,0.42l-1.5,0.749l-1.34,1l-0.661,0.83l-0.34,0.92l0.09,1.081l0.33,0.91l0.58,0.841l1.001,0.58l5.5,1.081l5,0.67l1.921,0.33l0.08,-0l1.92,0.67l1.83,0.83l1.84,1.09l1.661,1.41l1.42,1.59l1.16,1.75l0.84,1.911l0.581,2.09l0.329,2.08l-0.082,2.17l-0.33,2.08l-0.67,2.08l-1.081,2.091l-1.34,1.91l-1.58,1.75l-1.83,1.5l-2.001,1.17l-3.25,1.001l-3.33,0.659l-3.42,0.341l-3.331,-0l-3.42,-0.341l-3.33,-0.659l-3.001,-0.92l-2.92,-1.25l-2.66,-1.58l-2.5,-1.841l-2.341,-2.16l9.421,-8.67l1.752,1.839Z" style="fill:#010001;fill-rule:nonzero;"/></g><g id="A"><rect id="path1634" x="47.244" y="47.244" width="67.989" height="94.488" style="fill:#fff;"/><path id="path1636" d="M72.574,51.994l-22.08,66.069l14.83,-0l3.59,-11.66l24.909,-0l3.58,11.66l14.83,-0l-22.08,-66.069l-17.579,0Zm8.75,13.83l8.919,28.909l-17.749,0l8.83,-28.909Z" style="fill:#010001;fill-rule:nonzero;"/></g></g></g><g><g><rect id="path1746" x="167.942" y="141.732" width="82.658" height="94.488" style="fill:#fff;"/><path id="path1748" d="M238.851,171.722l-1.67,-1.91l-1.92,-1.67l-2.08,-1.42l-2.25,-1.16l-2.41,-0.84l-2.75,-0.499l-2.09,-0.083l-2.08,0.25l-2.08,0.421l-1.92,0.66l-1.92,0.92l-1.75,1.25l-1.58,1.42l-1.42,1.66l-1.16,-1.83l-1.42,-1.5l-1.66,-1.25l-1.92,-0.92l-1.5,-0.5l-2.749,-0.499l-2.42,-0.083l-2.33,0.33l-2.33,0.59l-2.17,0.91l-2.08,1.25l-1.92,1.5l-0,-3.33l-12.91,-0l0,47.159l12.91,-0l-0,-28.33l0.17,-1.66l0.66,-1.59l1,-1.5l1.34,-1.25l1.5,-1l2.66,-0.909l1.001,-0.095l0.92,0.095l0.42,0.082l1.75,0.75l1.25,1.08l1.001,1.34l0.66,1.58l0.42,1.67l0.083,1.66l0,28.079l12.92,0l-0,-28.329l0.16,-1.66l0.59,-1.59l1.079,-1.5l1.33,-1.25l1.5,-1.001l2.67,-0.909l0.92,-0.095l1.001,0.095l0.329,0.083l1.75,0.75l1.25,1.079l1.08,1.34l0.669,1.58l0.33,1.67l0.094,1.66l0,28.079l12.91,0l-12.91,0l12.91,0l0,-28.159l-0.082,-2.75l-0.5,-2.67l-0.75,-2.58l-1.09,-2.5l-1.416,-2.171Z" style="fill:#010001;fill-rule:nonzero;"/></g><g><rect id="path1798" x="63.124" y="141.732" width="51.489" height="94.488" style="fill:#fff;"/><path id="path1800" d="M80.534,195.801l0.669,1.5l1.171,1.84l1.5,1.66l1.75,1.25l2.08,0.84l1.83,0.25l1.92,-0.25l2,-0.84l1.75,-1.25l1.5,-1.66l1.25,-1.84l1,-2.66l12,4.5l-0.251,0.5l-1.17,2.75l-1.5,2.5l-1.75,2.25l-2.08,2.08l-2.34,1.75l-2.33,1.25l-2.33,0.92l-2.5,0.75l-2.59,0.41l-2.58,0.17l-2.58,-0.17l-2.5,-0.41l-2.5,-0.75l-2.42,-0.92l-2.25,-1.25l-2.33,-1.75l-2.079,-2.08l-1.84,-2.25l-1.5,-2.5l-1.16,-2.75l-0.17,-0.5l-0.831,-3.34l-0.499,-3.41l-0.17,-3.42l0.17,-3.41l0.499,-3.339l0.831,-3.33l0.17,-0.58l1.16,-2.67l1.5,-2.5l1.84,-2.33l2.079,-2l2.33,-1.84l2.25,-1.16l2.42,-1.001l2.5,-0.669l2.5,-0.5l2.58,-0.17l2.58,0.17l2.59,0.5l2.5,0.669l2.33,1.001l2.33,1.16l2.34,1.84l2.08,2l1.75,2.33l1.5,2.5l1.17,2.67l0.251,0.58l-12,4.419l-1,-2.669l-1.25,-1.83l-1.5,-1.59l-1.75,-1.25l-2,-0.831l-1.92,-0.25l-1.83,0.25l-2.08,0.831l-1.75,1.25l-1.5,1.59l-1.171,1.83l-0.669,1.58l-0.5,1.589l-0.25,2.58l-0.161,2.58l0.161,2.67l0.25,2.58l0.5,1.58Z" style="fill:#010001;fill-rule:nonzero;"/></g><g><rect id="path1802" x="250.6" y="141.732" width="58.489" height="94.488" style="fill:#fff;"/><path id="path1804" d="M257.26,146.482l0,66.149l12.92,-0l0,-3.24l1.58,1.41l1.75,1.17l1.92,0.75l2.91,0.75l2.92,0.421l2.92,-0l2.91,-0.34l2.92,-0.75l2.66,-1.08l2.42,-1.42l2.08,-1.75l1.839,-2.08l1.5,-2.25l1.16,-2.5l1.171,-3.25l0.75,-3.33l0.499,-3.42l0.083,-3.409l-0.17,-3.42l-0.58,-3.42l-0.909,-3.33l-1.171,-3.17l-0.83,-1.91l-1.171,-1.75l-1.33,-1.5l-1.92,-1.75l-2,-1.42l-2.25,-1.25l-2.329,-0.92l-2.5,-0.66l-2.5,-0.33l-2.58,-0.094l-2.5,0.25l-2.5,0.58l-2.34,0.84l-2.25,1.16l-2.16,1.419l-0,-21.159l-12.922,0.003Zm22.75,28.33l2,0.082l1.83,0.5l1.83,0.75l1.59,1.079l1.079,1.091l0.92,1.25l0.75,1.66l0.75,2.589l0.41,2.58l0.095,2.67l-0.17,2.58l-0.5,2.66l-0.75,2.5l-0.75,1.42l-1,1.25l-1.25,1.08l-1.33,0.839l-1.5,0.58l-1.92,0.421l-1.83,0.161l-1.92,-0.251l-1.83,-0.58l-1.75,-0.83l-1.5,-1.171l-1.25,-1.42l-0.75,-1.079l-0.58,-1.08l-0.34,-1.25l-0.161,-1.25l0,-10.169l0.251,-1.66l0.58,-1.5l0.92,-1.34l1.079,-1.25l1.58,-1.16l1.67,-0.92l1.83,-0.58l1.917,-0.252Z" style="fill:#010001;fill-rule:nonzero;"/></g><g><rect id="path1698" x="114.613" y="141.732" width="53.329" height="94.488" style="fill:#fff;"/><path id="path1700" d="M139.443,163.482l-3.08,0.16l-3,0.58l-3.75,1.091l-3.67,1.41l-3.5,1.669l-3.41,1.92l6.33,9.66l2.58,-1.58l2.67,-1.25l2.83,-1l2.92,-0.75l3,-0.421l1.66,-0.082l1.75,0.329l1.58,0.59l0.92,0.58l0.75,0.83l0.499,0.92l0.17,1.08l0,3l-4.17,0.17l-4.079,0.499l-4.08,0.75l-4,1.08l-3.92,1.42l-1.66,1l-1.59,1.25l-1.42,1.5l-1.16,1.58l-0.92,1.83l-0.66,1.92l-0.341,2l-0.082,2l0.17,2l0.49,1.92l0.759,1.91l1.001,1.75l1.24,1.59l1.42,1.41l1.67,1.17l2.41,1.16l2.59,0.92l2.75,0.589l2.75,0.33l2.75,-0.083l2.659,-0.34l2.67,-0.66l1.42,-0.67l1.33,-0.83l1.08,-1.001l0.92,-1.25l1,1.33l1.25,1.001l1.42,0.75l2.58,1l2.66,0.58l2.75,0.33l4.59,-10.08l-1.09,-0l-1.08,-0.16l-1.079,-0.499l-0.84,-0.67l-0.66,-0.92l-0.421,-1l-0.17,-1.16l0,-22.33l-0.16,-1.84l-0.421,-1.83l-0.75,-1.67l-0.92,-1.58l-1.25,-1.5l-1.41,-1.17l-1.59,-1.001l-2.25,-0.989l-2.41,-0.84l-2.92,-0.83l-3.08,-0.421l-2.995,-0.151Zm7.249,28.069l0,6.75l-0.17,1.25l-0.58,1.171l-0.75,1l-1.09,0.75l-1.16,0.42l-2.33,0.33l-2.34,0l-2.329,-0.33l-1.171,-0.42l-1,-0.75l-0.831,-0.92l-0.579,-1.08l-0.341,-1.079l0,-1.171l0.341,-1.17l0.579,-0.911l0.831,-0.839l1,-0.58l3.92,-1.001l2.28,-0.47l1.72,-0.36l4,-0.59Z" style="fill:#010001;fill-rule:nonzero;"/></g><g><rect id="path17861" serif:id="path1786" x="361.998" y="141.732" width="41.079" height="94.488" style="fill:#fff;"/><path id="path17881" serif:id="path1788" d="M381.498,212.551l-12.92,-0l0,-47.159l12.92,-0l-0,4.67l1.58,-1.59l1.75,-1.33l2,-1.171l2.17,-0.75l2.16,-0.499l2.25,-0.161l3.17,0l-0,12.25l-4.42,-0l-1.83,0.159l-1.83,0.5l-1.67,0.84l-1.58,1.079l-1.25,1.25l-1.08,1.58l-0.839,1.67l-0.5,1.83l-0.083,1.84l0.002,24.992Z" style="fill:#010001;fill-rule:nonzero;"/></g><g><rect id="path18062" serif:id="path1806" x="309.089" y="141.732" width="52.909" height="94.488" style="fill:#fff;"/><path id="path18082" serif:id="path1808" d="M334.589,164.142l-2.42,0.17l-2.41,0.41l-2.34,0.75l-2.25,1.09l-2.08,1.25l-2.25,1.66l-2.08,2l-1.75,2.25l-1.42,2.42l-1.17,3l-0.83,3.17l-0.5,3.16l-0.17,3.249l0.25,3.25l0.591,3.17l0.909,3.08l1.17,3l1.079,2.17l1.42,2l1.5,1.83l1.83,1.67l1.92,1.41l2.08,1.25l2.25,0.92l2.34,0.67l2.99,0.58l3.09,0.25l3.08,-0.083l3.08,-0.34l3,-0.66l2.339,-0.84l2.16,-1.079l2,-1.42l1.83,-1.67l1.67,-1.83l-8,-8.08l-1.83,1.67l-2.079,1.33l-2.25,1l-2.17,0.58l-2.17,0.17l-2.16,-0.082l-2.17,-0.421l-2.08,-0.75l-1.42,-0.92l-1.25,-1.16l-1.001,-1.34l-0.75,-1.5l-0.409,-1.66l-0.17,-1.67l31.499,0l-0.17,-3.92l-0.421,-3.91l-0.83,-3.829l-1.17,-3.75l-1.08,-2.5l-1.42,-2.25l-1.66,-2.17l-2,-1.83l-2.17,-1.59l-2.08,-1.25l-2.25,-0.91l-2.42,-0.669l-2.419,-0.421l-2.408,-0.075Zm-0.251,10.75l1.66,-0l1.67,0.329l1.58,0.59l1.42,0.83l1.33,1.079l1.09,1.25l0.831,1.42l0.58,1.58l0.25,1.67l-19.16,0l0.251,-1.67l0.58,-1.58l0.84,-1.42l1.079,-1.25l1.33,-1.079l1.42,-0.83l1.58,-0.59l1.669,-0.329Z" style="fill:#010001;fill-rule:nonzero;"/></g></g></g></svg>