<?xml version="1.0" encoding="UTF-8" standalone="no"?><!DOCTYPE svg PUBLIC "-//W3C//DTD SVG 1.1//EN" "http://www.w3.org/Graphics/SVG/1.1/DTD/svg11.dtd"><svg width="100%" height="100%" viewBox="0 0 514 454" version="1.1" xmlns="http://www.w3.org/2000/svg" xmlns:xlink="http://www.w3.org/1999/xlink" xml:space="preserve" xmlns:serif="http://www.serif.com/" style="fill-rule:evenodd;clip-rule:evenodd;stroke-linejoin:round;stroke-miterlimit:2;"><g id="scale-value" transform="matrix(50,0,0,50,350.88,335.368)"></g><text x="163.258px" y="335.368px" style="font-family:'ArialMT', 'Arial', sans-serif;font-size:50px;">sw=38.4</text><g id="_513-Double-Bends" serif:id="513 Double Bends"><path d="M286.082,17.004c-6.076,-10.522 -17.303,-17.004 -29.452,-17.004c-12.15,0 -23.376,6.482 -29.452,17.004c-54.065,93.625 -168.545,291.872 -222.619,385.514c-6.077,10.524 -6.079,23.491 -0.003,34.016c6.075,10.525 17.303,17.009 29.455,17.009l445.238,0c12.152,0 23.38,-6.484 29.455,-17.009c6.076,-10.525 6.074,-23.492 -0.003,-34.016c-54.074,-93.642 -168.554,-291.889 -222.619,-385.514Z" style="fill:#e31837;"/><path d="M256.595,56.708l-202.961,351.496l405.922,-0l-202.961,-351.496Z" style="fill:#fff;"/><path d="M265.321,347.442c11.093,9.989 27.026,12.512 40.662,6.441c13.637,-6.072 22.423,-19.601 22.423,-34.528l-0,-107.687l-22.677,-22.677l-0,0l-22.677,22.677l-0,90.709c-0,0 -32.909,-29.631 -65.419,-58.903c-11.094,-9.989 -27.026,-12.512 -40.663,-6.441c-13.637,6.072 -22.423,19.601 -22.423,34.528c0,56.922 0,121.525 0,121.525l45.355,-0l-0,-104.547c-0,-0 32.908,29.631 65.419,58.903Z"/></g></svg>