<?xml version="1.0" encoding="UTF-8" standalone="no"?><!DOCTYPE svg PUBLIC "-//W3C//DTD SVG 1.1//EN" "http://www.w3.org/Graphics/SVG/1.1/DTD/svg11.dtd"><svg width="100%" height="100%" viewBox="0 0 752 591" version="1.1" xmlns="http://www.w3.org/2000/svg" xmlns:xlink="http://www.w3.org/1999/xlink" xml:space="preserve" xmlns:serif="http://www.serif.com/" style="fill-rule:evenodd;clip-rule:evenodd;stroke-linejoin:round;stroke-miterlimit:2;"><g id="scale-value" transform="matrix(6.12323e-17,1,-1,6.12323e-17,-20401.2,-64678.8)"><g transform="matrix(50,0,0,50,65065.8,-20724.5)"></g><text x="64919.8px" y="-20724.5px" style="font-family:'ArialMT', 'Arial', sans-serif;font-size:50px;">sw=50</text></g><g><path d="M187.289,0l-60.742,0l-0,590.551l60.742,0l0,-590.551Zm-126.547,0l-60.742,0l-0,590.551l60.742,0l0,-590.551Zm63.274,0l-60.743,0l0,590.551l60.743,0l-0,-590.551Zm126.546,0l-60.742,0l0,590.551l60.742,0l0,-590.551Z"/><path d="M124.016,44.713l-39.652,39.651l39.652,39.652l-0,44.713l-39.652,-0l-21.091,-21.091l0,-126.547l21.091,-21.091l39.652,0l-0,44.713Zm44.713,124.016l-42.182,-0l-0,-42.182l42.182,42.182Zm-107.987,-145.107l0,121.485l-60.742,-60.743l60.742,-60.742Zm107.987,-23.622l-42.182,42.182l-0,-42.182l42.182,0Z" style="fill:#fff;"/></g><g><path d="M437.852,0l-60.743,0l0,590.551l60.743,0l-0,-590.551Zm-126.547,0l-60.743,0l0,590.551l60.743,0l-0,-590.551Zm63.273,0l-60.742,0l-0,590.551l60.742,0l0,-590.551Zm126.547,0l-60.743,0l0,590.551l60.743,0l-0,-590.551Z"/><path d="M374.578,44.713l-39.651,39.651l39.651,39.652l0,44.713l-39.651,-0l-21.091,-21.091l-0,-126.547l21.091,-21.091l39.651,0l0,44.713Zm44.713,124.016l-42.182,-0l0,-42.182l42.182,42.182Zm-107.986,-145.107l-0,121.485l-60.743,-60.743l60.743,-60.742Zm107.986,-23.622l-42.182,42.182l0,-42.182l42.182,0Z" style="fill:#fff;"/></g><g><path d="M688.414,0l-60.742,0l-0,590.551l60.742,0l-0,-590.551Zm-126.547,0l-60.742,0l-0,590.551l60.742,0l0,-590.551Zm63.274,0l-60.743,0l0,590.551l60.743,0l-0,-590.551Zm126.546,0l-60.742,0l-0,590.551l60.742,0l0,-590.551Z"/><path d="M625.141,44.713l-39.652,39.651l39.652,39.652l-0,44.713l-39.652,-0l-21.091,-21.091l0,-126.547l21.091,-21.091l39.652,0l-0,44.713Zm44.713,124.016l-42.182,-0l-0,-42.182l42.182,42.182Zm-107.987,-145.107l0,121.485l-60.742,-60.743l60.742,-60.742Zm107.987,-23.622l-42.182,42.182l-0,-42.182l42.182,0Z" style="fill:#fff;"/></g></svg>