<?xml version="1.0" encoding="UTF-8" standalone="no"?><!DOCTYPE svg PUBLIC "-//W3C//DTD SVG 1.1//EN" "http://www.w3.org/Graphics/SVG/1.1/DTD/svg11.dtd"><svg width="100%" height="100%" viewBox="0 0 568 272" version="1.1" xmlns="http://www.w3.org/2000/svg" xmlns:xlink="http://www.w3.org/1999/xlink" xml:space="preserve" xmlns:serif="http://www.serif.com/" style="fill-rule:evenodd;clip-rule:evenodd;stroke-linejoin:round;stroke-miterlimit:2;"><g id="scale-value" transform="matrix(50,0,0,50,356.923,153.478)"></g><text x="211px" y="153.478px" style="font-family:'ArialMT', 'Arial', sans-serif;font-size:50px;">sw=23</text><g id="_518-Single-file-traffic" serif:id="518 Single file traffic"><path d="M567.19,35.433c0,-19.556 -15.877,-35.433 -35.433,-35.433l-496.324,0c-19.556,0 -35.433,15.877 -35.433,35.433l-0,200.787c-0,19.557 15.877,35.434 35.433,35.434l496.324,-0c19.556,-0 35.433,-15.877 35.433,-35.434l0,-200.787Z"/><path d="M549.157,35.433c0,-9.778 -7.938,-17.716 -17.716,-17.716l-495.692,-0c-9.778,-0 -17.716,7.938 -17.716,17.716l-0,200.787c-0,9.778 7.938,17.717 17.716,17.717l495.692,0c9.778,0 17.716,-7.939 17.716,-17.717l0,-200.787Z" style="fill:#fff;"/><g><g><g><rect id="path1786" x="179.229" y="141.732" width="41.079" height="94.488" style="fill:#fff;"/><path id="path1788" d="M198.729,212.551l-12.92,-0l0,-47.159l12.92,-0l-0,4.67l1.58,-1.59l1.75,-1.33l2,-1.171l2.17,-0.75l2.16,-0.499l2.25,-0.161l3.17,0l-0,12.25l-4.42,-0l-1.83,0.159l-1.83,0.5l-1.67,0.84l-1.58,1.079l-1.25,1.25l-1.08,1.58l-0.839,1.67l-0.5,1.83l-0.083,1.84l0.002,24.992Z" style="fill:#010001;fill-rule:nonzero;"/></g><g><rect id="path1790" x="350.136" y="141.732" width="26.92" height="94.488" style="fill:#fff;"/><path id="path1792" d="M362.886,145.982l-1.42,0.16l-1.41,0.42l-1.25,0.67l-1.171,0.909l-0.92,1.171l-0.66,1.25l-0.42,1.42l-0.17,1.41l0.17,1.42l0.42,1.42l0.66,1.33l0.92,1.079l1.171,0.92l1.25,0.66l1.41,0.421l1.42,0.17l1.42,-0.17l1.41,-0.421l1.25,-0.66l1.17,-0.92l0.92,-1.079l0.661,-1.33l0.42,-1.42l0.17,-1.42l-0.17,-1.41l-0.42,-1.42l-0.661,-1.25l-0.92,-1.171l-1.17,-0.909l-1.25,-0.67l-1.41,-0.42l-1.42,-0.16Zm-6.5,19.41l-0,47.239l12.92,-0l-0,-47.239l-12.92,-0Z" style="fill:#010001;fill-rule:nonzero;"/></g><g><rect id="path1814" x="311.887" y="141.732" width="38.249" height="94.488" style="fill:#fff;"/><path id="path1816" d="M335.306,165.062l9.16,-0l0,10.66l-9.16,-0l0,36.919l-12.919,-0l-0,-36.919l-7.58,-0l-0,-10.66l7.58,-0l-0,-6.92l0.17,-1.91l0.409,-1.92l0.84,-1.75l1.001,-1.67l1.33,-1.41l1.5,-1.25l1.67,-1l1.83,-0.67l1.92,-0.329l3.659,-0.095l3.67,0.17l3.58,0.421l3.58,0.75l-2.33,10.499l-3,-0.34l-3.17,0l-0.909,0.095l-0.92,0.41l-0.83,0.59l-0.58,0.75l-0.421,0.911l-0.094,1l0.014,3.668Z" style="fill:#010001;fill-rule:nonzero;"/></g><g><rect id="path18141" serif:id="path1814" x="273.637" y="141.732" width="38.249" height="94.488" style="fill:#fff;"/><path id="path18161" serif:id="path1816" d="M297.057,165.062l9.16,-0l-0,10.66l-9.16,-0l0,36.919l-12.92,-0l0,-36.919l-7.58,-0l0,-10.66l7.58,-0l0,-6.92l0.17,-1.91l0.41,-1.92l0.84,-1.75l1,-1.67l1.33,-1.41l1.5,-1.25l1.67,-1l1.83,-0.67l1.92,-0.329l3.66,-0.095l3.67,0.17l3.58,0.421l3.58,0.75l-2.33,10.499l-3,-0.34l-3.17,0l-0.909,0.095l-0.92,0.41l-0.831,0.59l-0.58,0.75l-0.42,0.911l-0.095,1l0.015,3.668Z" style="fill:#010001;fill-rule:nonzero;"/></g><g><rect id="path1798" x="377.056" y="141.732" width="51.489" height="94.488" style="fill:#fff;"/><path id="path1800" d="M394.465,195.801l0.67,1.5l1.17,1.84l1.5,1.66l1.75,1.25l2.08,0.84l1.83,0.25l1.92,-0.25l2,-0.84l1.75,-1.25l1.5,-1.66l1.25,-1.84l1,-2.66l12,4.5l-0.25,0.5l-1.171,2.75l-1.5,2.5l-1.75,2.25l-2.08,2.08l-2.34,1.75l-2.33,1.25l-2.33,0.92l-2.499,0.75l-2.59,0.41l-2.58,0.17l-2.58,-0.17l-2.5,-0.41l-2.5,-0.75l-2.42,-0.92l-2.25,-1.25l-2.33,-1.75l-2.08,-2.08l-1.84,-2.25l-1.5,-2.5l-1.16,-2.75l-0.17,-0.5l-0.83,-3.34l-0.5,-3.41l-0.17,-3.42l0.17,-3.41l0.5,-3.339l0.83,-3.33l0.17,-0.58l1.16,-2.67l1.5,-2.5l1.84,-2.33l2.08,-2l2.33,-1.84l2.25,-1.16l2.42,-1.001l2.5,-0.669l2.5,-0.5l2.58,-0.17l2.58,0.17l2.59,0.5l2.499,0.669l2.33,1.001l2.33,1.16l2.34,1.84l2.08,2l1.75,2.33l1.5,2.5l1.171,2.67l0.25,0.58l-12,4.419l-1,-2.669l-1.25,-1.83l-1.5,-1.59l-1.75,-1.25l-2,-0.831l-1.92,-0.25l-1.83,0.25l-2.08,0.831l-1.75,1.25l-1.5,1.59l-1.17,1.83l-0.67,1.58l-0.499,1.589l-0.251,2.58l-0.161,2.58l0.161,2.67l0.251,2.58l0.499,1.58Z" style="fill:#010001;fill-rule:nonzero;"/></g><g><rect id="path1698" x="220.308" y="141.732" width="53.329" height="94.488" style="fill:#fff;"/><path id="path1700" d="M245.138,163.482l-3.08,0.16l-3,0.58l-3.75,1.091l-3.67,1.41l-3.5,1.669l-3.41,1.92l6.33,9.66l2.58,-1.58l2.67,-1.25l2.83,-1l2.92,-0.75l3,-0.421l1.66,-0.082l1.75,0.329l1.58,0.59l0.92,0.58l0.75,0.83l0.5,0.92l0.17,1.08l-0,3l-4.17,0.17l-4.08,0.499l-4.08,0.75l-4,1.08l-3.92,1.42l-1.66,1l-1.59,1.25l-1.42,1.5l-1.16,1.58l-0.92,1.83l-0.66,1.92l-0.34,2l-0.083,2l0.17,2l0.49,1.92l0.76,1.91l1,1.75l1.24,1.59l1.42,1.41l1.67,1.17l2.41,1.16l2.59,0.92l2.75,0.589l2.75,0.33l2.75,-0.083l2.66,-0.34l2.67,-0.66l1.42,-0.67l1.33,-0.83l1.079,-1.001l0.92,-1.25l1.001,1.33l1.25,1.001l1.42,0.75l2.58,1l2.659,0.58l2.75,0.33l4.59,-10.08l-1.09,-0l-1.079,-0.16l-1.08,-0.499l-0.84,-0.67l-0.66,-0.92l-0.42,-1l-0.17,-1.16l-0,-22.33l-0.161,-1.84l-0.421,-1.83l-0.75,-1.67l-0.92,-1.58l-1.25,-1.5l-1.41,-1.17l-1.589,-1.001l-2.25,-0.989l-2.41,-0.84l-2.92,-0.83l-3.08,-0.421l-2.996,-0.151Zm7.25,28.069l-0,6.75l-0.17,1.25l-0.58,1.171l-0.75,1l-1.09,0.75l-1.16,0.42l-2.33,0.33l-2.34,0l-2.33,-0.33l-1.171,-0.42l-1,-0.75l-0.83,-0.92l-0.58,-1.08l-0.34,-1.079l-0,-1.171l0.34,-1.17l0.58,-0.911l0.83,-0.839l1,-0.58l3.92,-1.001l2.28,-0.47l1.72,-0.36l4.001,-0.59Z" style="fill:#010001;fill-rule:nonzero;"/></g><g><rect id="path1670" x="138.646" y="141.732" width="40.584" height="94.488" style="fill:#fff;"/><path id="path1672" d="M168.648,202.308l2.411,-0.411l2.34,-0.67l2.83,10.751l-3.5,1l-3.581,0.66l-3.59,0.34l-3.66,0.083l-3.591,-0.33l-1.75,-0.34l-1.74,-0.75l-1.5,-1l-1.34,-1.25l-1.081,-1.41l-0.75,-1.67l-0.5,-1.751l-0.171,-1.83l0,-28.002l-7.58,-0l-0,-10.751l7.58,-0l0,-14.741l12.921,-3.751l0,18.492l12.002,-0l-0,10.751l-12.002,-0l0,23.002l0.083,1l0.42,0.92l0.58,0.75l0.83,0.581l0.92,0.42l0.92,0.082l2.499,-0.175Z" style="fill:#010001;fill-rule:nonzero;"/></g></g><g><g><g><rect id="path1750" x="144.299" y="47.244" width="57.159" height="94.488" style="fill:#fff;"/><path id="path1752" d="M180.878,88.323l-0.34,-1.67l-0.75,-1.58l-1.001,-1.34l-1.25,-1.079l-1.749,-0.75l-1.91,-0.33l-1.92,0.083l-1.83,0.33l-1.84,0.75l-1.5,1l-1.33,1.25l-1.001,1.5l-0.669,1.59l-0.161,1.66l0,28.329l-12.92,0l0,-47.159l12.92,0l0,3.33l1.91,-1.5l2.09,-1.25l2.16,-0.909l2.34,-0.591l2.33,-0.329l2.42,0.082l2.75,0.5l2.41,0.84l2.33,1.16l2.09,1.419l1.909,1.67l1.67,1.91l1.42,2.17l1.08,2.5l0.75,2.58l0.42,2.67l0.161,2.75l0,28.16l-12.91,-0l12.91,-0l-12.91,-0l0,-28.08l-0.079,-1.666Z" style="fill:#010001;fill-rule:nonzero;"/></g><g><rect id="path1806" x="288.366" y="47.244" width="52.909" height="94.488" style="fill:#fff;"/><path id="path1808" d="M313.865,69.654l-2.419,0.17l-2.41,0.41l-2.34,0.75l-2.25,1.09l-2.08,1.25l-2.25,1.66l-2.08,2l-1.75,2.25l-1.42,2.42l-1.171,3l-0.83,3.169l-0.499,3.16l-0.171,3.25l0.251,3.25l0.59,3.17l0.91,3.08l1.169,3l1.08,2.17l1.42,2l1.5,1.83l1.83,1.67l1.92,1.41l2.079,1.25l2.25,0.92l2.34,0.67l2.99,0.58l3.09,0.25l3.08,-0.083l3.08,-0.34l3,-0.66l2.34,-0.84l2.16,-1.079l2,-1.42l1.83,-1.67l1.67,-1.83l-8,-8.08l-1.83,1.67l-2.08,1.33l-2.25,1l-2.17,0.58l-2.17,0.17l-2.16,-0.083l-2.17,-0.42l-2.08,-0.75l-1.42,-0.92l-1.25,-1.16l-1,-1.34l-0.75,-1.5l-0.41,-1.66l-0.17,-1.67l31.5,0l-0.17,-3.92l-0.421,-3.91l-0.83,-3.83l-1.171,-3.75l-1.079,-2.5l-1.42,-2.25l-1.66,-2.169l-2,-1.83l-2.17,-1.59l-2.08,-1.25l-2.25,-0.91l-2.42,-0.669l-2.42,-0.421l-2.408,-0.075Zm-0.25,10.749l1.66,0l1.67,0.33l1.58,0.589l1.42,0.831l1.33,1.079l1.09,1.25l0.83,1.42l0.58,1.58l0.251,1.67l-19.16,0l0.25,-1.67l0.58,-1.58l0.84,-1.42l1.08,-1.25l1.33,-1.079l1.42,-0.831l1.58,-0.589l1.669,-0.33Z" style="fill:#010001;fill-rule:nonzero;"/></g><g id="S"><rect id="path1618" x="47.56" y="47.244" width="69.819" height="94.488" style="fill:#fff;"/><path id="path1620" d="M89.05,92.653l1.5,0.58l1.25,0.84l1.079,1.16l0.75,1.34l0.421,1.41l0.082,1.59l-0.25,1.5l-0.66,1.41l-0.92,1.25l-1.42,1.17l-1.58,0.909l-1.75,0.67l-1.83,0.33l-4.5,-0l-2.58,-0.33l-2.5,-0.499l-2.42,-0.831l-2.42,-1.079l-2.83,-1.84l-2.67,-2l-2.41,-2.33l-11.5,8.83l2.42,2.5l2.58,2.33l2.75,2.09l2.91,1.83l3.17,1.5l3.58,1.17l3.75,0.83l3.75,0.58l3.75,0.251l3.83,-0.083l3.75,-0.33l3.75,-0.669l3.67,-1.001l2.499,-1l2.33,-1.33l2.17,-1.67l1.92,-1.92l1.66,-2.16l1.34,-2.34l0.99,-2.49l0.67,-2.67l0.25,-2.67l-0.083,-2.66l-0.42,-2.75l-0.75,-2.59l-1.16,-2.409l-1.5,-2l-1.75,-1.75l-1.84,-1.59l-2.08,-1.41l-2.17,-1.171l-2.08,-0.83l-2.17,-0.67l-15.489,-3.83l-1.09,-0.42l-1.001,-0.66l-0.83,-0.92l-0.67,-1.001l-0.329,-1.079l-0.17,-1.17l0.094,-1.17l0.41,-1.16l0.589,-1l1.33,-1.34l1.5,-1.001l1.75,-0.75l1.83,-0.41l1.84,-0.17l2.74,0.17l2.67,0.41l2.67,0.75l2.5,0.92l2.41,1.25l2.34,1.5l2.08,1.75l10.25,-9.33l-2.75,-2.419l-2.92,-2.081l-3.16,-1.839l-3.25,-1.58l-3.42,-1.16l-3.58,-0.92l-3.59,-0.5l-3.66,-0.17l-3.58,0.17l-3.59,0.5l-3.58,0.92l-2.58,1l-2.42,1.24l-2.25,1.59l-2.08,1.83l-1.839,2l-1.41,2l-1.091,2.17l-0.83,2.25l-0.58,2.33l-0.17,2.42l0.083,2.41l0.42,2.42l0.75,2.25l1.001,2.25l1.25,2l1.58,1.91l1.75,1.59l2.499,1.659l2.75,1.171l2.92,0.75l15.575,3.502Z" style="fill:#010001;fill-rule:nonzero;"/></g><g><rect id="path1742" x="257.617" y="47.244" width="30.749" height="94.488" style="fill:#fff;"/><path id="path1744" d="M284.536,106.483l-2.5,0.33l-2.5,0.094l-0.92,-0.094l-0.75,-0.41l-0.66,-0.67l-0.421,-0.75l-0.17,-0.92l0,-52.069l-12.909,-0l-0,57.319l0.16,1.75l0.5,1.67l0.75,1.58l1,1.5l1.25,1.25l1.42,1l1.67,0.67l1.66,0.499l1.75,0.17l4.08,-0.34l4,-0.499l4,-0.75l-1.41,-11.33Z" style="fill:#010001;fill-rule:nonzero;"/></g><g><rect id="path17901" serif:id="path1790" x="117.379" y="47.244" width="26.92" height="94.488" style="fill:#fff;"/><path id="path17921" serif:id="path1792" d="M130.129,51.494l-1.42,0.16l-1.41,0.42l-1.25,0.67l-1.171,0.909l-0.92,1.171l-0.66,1.25l-0.42,1.42l-0.17,1.409l0.17,1.421l0.42,1.419l0.66,1.33l0.92,1.08l1.171,0.92l1.25,0.66l1.41,0.421l1.42,0.17l1.42,-0.17l1.41,-0.421l1.25,-0.66l1.17,-0.92l0.92,-1.08l0.661,-1.33l0.42,-1.419l0.17,-1.421l-0.17,-1.409l-0.42,-1.42l-0.661,-1.25l-0.92,-1.171l-1.17,-0.909l-1.25,-0.67l-1.41,-0.42l-1.42,-0.16Zm-6.5,19.41l-0,47.239l12.92,-0l-0,-47.239l-12.92,-0Z" style="fill:#010001;fill-rule:nonzero;"/></g><g><rect id="path1810" x="201.458" y="47.244" width="56.159" height="94.488" style="fill:#fff;"/><path id="path1812" d="M225.787,70.234l-2.84,0.17l-2.75,0.499l-2.66,0.92l-1.92,0.91l-1.83,1.17l-1.75,1.33l-1.5,1.59l-1.34,1.66l-1.329,2.42l-1.001,2.58l-0.83,2.59l-0.67,2.58l-0.41,2.67l-0.094,2.75l0.25,2.66l0.5,2.67l0.75,2.58l1,2.33l1.25,2.25l1.5,2.09l1.84,1.83l1.99,1.58l2.34,1.42l2.5,1.079l2.66,0.75l2.67,0.33l2.92,0.17l2.91,-0.33l2.84,-0.58l2.16,-0.75l2.09,-1.09l-0,2.5l-0.17,1.42l-0.5,1.33l-0.75,1.17l-1,1.001l-1.171,0.75l-1.33,0.42l-3.5,0.33l-3.92,-0.095l-3.91,-0.49l-2.42,-0.59l-2.419,-0.75l-2.25,-1.08l-2.16,-1.34l-6.08,10.42l3.83,1.83l4,1.42l3.999,1.17l4.16,0.91l3.25,0.25l3.34,0.095l3.25,-0.251l3.33,-0.589l2.67,-0.66l2.58,-1.001l2.41,-1.34l2.25,-1.66l1.59,-1.59l1.25,-1.83l1.079,-2l0.75,-2.08l0.5,-2.17l0.17,-2.25l0,-45.409l-12.83,0l0,2.42l-1.75,-1.17l-1.92,-0.83l-2,-0.5l-2.75,-0.5l-2.824,-0.089Zm1.66,11.249l2.09,0.171l1.91,0.579l1.92,0.84l1.079,0.75l1.001,1.001l0.75,1.159l0.499,1.25l0.341,1.33l-0,7.51l-0.341,1.74l-0.499,1.75l-0.58,1.26l-0.83,1.08l-1.091,0.83l-1.159,0.67l-1.75,0.58l-1.75,0.25l-1.84,-0l-1.75,-0.25l-1.75,-0.5l-1.41,-0.67l-1.34,-0.909l-1.08,-1.171l-0.83,-1.33l-0.5,-1.42l-0.499,-1.91l-0.251,-1.999l0.083,-2l0.25,-1.92l0.58,-2.17l0.92,-2l0.67,-1.25l0.92,-1.08l1.08,-0.83l1.16,-0.67l2,-0.499l1.997,-0.172Z" style="fill:#010001;fill-rule:nonzero;"/></g></g><g><g><rect id="path18061" serif:id="path1806" x="466.721" y="47.244" width="52.909" height="94.488" style="fill:#fff;"/><path id="path18081" serif:id="path1808" d="M492.22,69.654l-2.42,0.17l-2.41,0.41l-2.34,0.75l-2.249,1.09l-2.08,1.25l-2.25,1.66l-2.08,2l-1.75,2.25l-1.42,2.42l-1.171,3l-0.83,3.169l-0.5,3.16l-0.17,3.25l0.251,3.25l0.59,3.17l0.91,3.08l1.169,3l1.079,2.17l1.421,2l1.499,1.83l1.83,1.67l1.92,1.41l2.08,1.25l2.25,0.92l2.34,0.67l2.99,0.58l3.09,0.25l3.08,-0.083l3.08,-0.34l3,-0.66l2.34,-0.84l2.16,-1.079l2,-1.42l1.83,-1.67l1.67,-1.83l-8,-8.08l-1.83,1.67l-2.08,1.33l-2.25,1l-2.17,0.58l-2.17,0.17l-2.16,-0.083l-2.17,-0.42l-2.08,-0.75l-1.42,-0.92l-1.25,-1.16l-1,-1.34l-0.75,-1.5l-0.41,-1.66l-0.17,-1.67l31.499,0l-0.17,-3.92l-0.42,-3.91l-0.83,-3.83l-1.171,-3.75l-1.079,-2.5l-1.42,-2.25l-1.66,-2.169l-2,-1.83l-2.17,-1.59l-2.08,-1.25l-2.25,-0.91l-2.42,-0.669l-2.42,-0.421l-2.408,-0.075Zm-0.25,10.749l1.66,0l1.67,0.33l1.58,0.589l1.42,0.831l1.33,1.079l1.09,1.25l0.83,1.42l0.58,1.58l0.251,1.67l-19.16,0l0.25,-1.67l0.58,-1.58l0.84,-1.42l1.08,-1.25l1.329,-1.079l1.42,-0.831l1.58,-0.589l1.67,-0.33Z" style="fill:#010001;fill-rule:nonzero;"/></g><g><rect id="path17421" serif:id="path1742" x="435.971" y="47.244" width="30.749" height="94.488" style="fill:#fff;"/><path id="path17441" serif:id="path1744" d="M462.891,106.483l-2.5,0.33l-2.5,0.094l-0.92,-0.094l-0.75,-0.41l-0.66,-0.67l-0.421,-0.75l-0.17,-0.92l0,-52.069l-12.91,-0l0,57.319l0.161,1.75l0.5,1.67l0.75,1.58l1,1.5l1.25,1.25l1.42,1l1.67,0.67l1.66,0.499l1.75,0.17l4.08,-0.34l4,-0.499l4,-0.75l-1.41,-11.33Z" style="fill:#010001;fill-rule:nonzero;"/></g><g><rect id="path17902" serif:id="path1790" x="409.052" y="47.244" width="26.92" height="94.488" style="fill:#fff;"/><path id="path17922" serif:id="path1792" d="M421.802,51.494l-1.42,0.16l-1.41,0.42l-1.25,0.67l-1.171,0.909l-0.92,1.171l-0.66,1.25l-0.421,1.42l-0.17,1.409l0.17,1.421l0.421,1.419l0.66,1.33l0.92,1.08l1.171,0.92l1.25,0.66l1.41,0.421l1.42,0.17l1.42,-0.17l1.41,-0.421l1.25,-0.66l1.17,-0.92l0.92,-1.08l0.66,-1.33l0.421,-1.419l0.17,-1.421l-0.17,-1.409l-0.421,-1.42l-0.66,-1.25l-0.92,-1.171l-1.17,-0.909l-1.25,-0.67l-1.41,-0.42l-1.42,-0.16Zm-6.5,19.41l-0,47.239l12.919,-0l0,-47.239l-12.919,-0Z" style="fill:#010001;fill-rule:nonzero;"/></g><g><rect id="path18142" serif:id="path1814" x="370.803" y="47.244" width="38.249" height="94.488" style="fill:#fff;"/><path id="path18162" serif:id="path1816" d="M394.222,70.574l9.16,-0l-0,10.659l-9.16,0l0,36.92l-12.92,-0l0,-36.92l-7.58,0l0,-10.659l7.58,-0l0,-6.92l0.17,-1.91l0.41,-1.92l0.84,-1.75l1,-1.67l1.331,-1.41l1.5,-1.25l1.669,-1l1.83,-0.67l1.92,-0.33l3.66,-0.094l3.67,0.17l3.58,0.42l3.58,0.75l-2.33,10.5l-3,-0.34l-3.17,0l-0.909,0.095l-0.92,0.409l-0.831,0.591l-0.579,0.75l-0.421,0.911l-0.094,1l0.014,3.668Z" style="fill:#010001;fill-rule:nonzero;"/></g></g></g></g></g></svg>