<?xml version="1.0" encoding="UTF-8" standalone="no"?><!DOCTYPE svg PUBLIC "-//W3C//DTD SVG 1.1//EN" "http://www.w3.org/Graphics/SVG/1.1/DTD/svg11.dtd"><svg width="100%" height="100%" viewBox="0 0 659 272" version="1.1" xmlns="http://www.w3.org/2000/svg" xmlns:xlink="http://www.w3.org/1999/xlink" xml:space="preserve" xmlns:serif="http://www.serif.com/" style="fill-rule:evenodd;clip-rule:evenodd;stroke-linejoin:round;stroke-miterlimit:2;"><g id="scale-value" transform="matrix(50,0,0,50,397.652,153.478)"></g><text x="251.729px" y="153.478px" style="font-family:'ArialMT', 'Arial', sans-serif;font-size:50px;">sw=23</text><g id="_519-Single-track-road" serif:id="519 Single track road"><path d="M658.95,35.433c-0,-19.556 -15.877,-35.433 -35.433,-35.433l-588.084,0c-19.556,0 -35.433,15.877 -35.433,35.433l0,200.787c0,19.557 15.877,35.434 35.433,35.434l588.084,-0c19.556,-0 35.433,-15.877 35.433,-35.434l-0,-200.787Z"/><path d="M641.233,35.433c0,-9.778 -7.938,-17.716 -17.716,-17.716l-588.084,-0c-9.778,-0 -17.716,7.938 -17.716,17.716l-0,200.787c-0,9.778 7.938,17.717 17.716,17.717l588.084,0c9.778,0 17.716,-7.939 17.716,-17.717l0,-200.787Z" style="fill:#fff;"/><g><g><g><rect id="path1786" x="414.023" y="47.241" width="41.079" height="94.488" style="fill:#fff;"/><path id="path1788" d="M433.522,118.06l-12.92,-0l0,-47.16l12.92,0l0,4.67l1.58,-1.59l1.75,-1.33l2,-1.17l2.17,-0.75l2.16,-0.5l2.25,-0.16l3.17,-0l-0,12.25l-4.42,-0l-1.83,0.159l-1.83,0.5l-1.67,0.839l-1.58,1.08l-1.25,1.25l-1.079,1.58l-0.84,1.67l-0.5,1.83l-0.082,1.84l0.001,24.992Z" style="fill:#010001;fill-rule:nonzero;"/></g><g><rect id="path1738" x="559.92" y="47.241" width="54.739" height="94.488" style="fill:#fff;"/><path id="path1740" d="M595.919,118.06l-11.75,-18.41l-5.08,5.25l0,13.16l-12.92,-0l0,-66.069l12.92,-0l0,35.409l16.41,-16.5l17.25,0l-19.25,19.42l17.66,27.74l-15.24,-0Z" style="fill:#010001;fill-rule:nonzero;"/></g><g><rect id="path1798" x="508.431" y="47.241" width="51.489" height="94.488" style="fill:#fff;"/><path id="path1800" d="M525.84,101.31l0.67,1.5l1.17,1.84l1.5,1.66l1.75,1.25l2.08,0.839l1.83,0.251l1.92,-0.251l2,-0.839l1.75,-1.25l1.5,-1.66l1.25,-1.84l1,-2.66l12,4.5l-0.25,0.499l-1.171,2.75l-1.5,2.5l-1.75,2.25l-2.08,2.08l-2.34,1.75l-2.329,1.25l-2.33,0.92l-2.5,0.75l-2.59,0.41l-2.58,0.17l-2.58,-0.17l-2.5,-0.41l-2.5,-0.75l-2.42,-0.92l-2.25,-1.25l-2.33,-1.75l-2.08,-2.08l-1.84,-2.25l-1.5,-2.5l-1.16,-2.75l-0.17,-0.499l-0.83,-3.34l-0.5,-3.41l-0.17,-3.42l0.17,-3.41l0.5,-3.34l0.83,-3.33l0.17,-0.58l1.16,-2.67l1.5,-2.5l1.84,-2.33l2.08,-2l2.33,-1.84l2.25,-1.16l2.42,-1l2.5,-0.67l2.5,-0.499l2.58,-0.17l2.58,0.17l2.59,0.499l2.5,0.67l2.33,1l2.329,1.16l2.34,1.84l2.08,2l1.75,2.33l1.5,2.5l1.171,2.67l0.25,0.58l-12,4.42l-1,-2.67l-1.25,-1.83l-1.5,-1.59l-1.75,-1.25l-2,-0.83l-1.92,-0.25l-1.83,0.25l-2.08,0.83l-1.75,1.25l-1.5,1.59l-1.17,1.83l-0.67,1.58l-0.499,1.59l-0.251,2.58l-0.16,2.58l0.16,2.67l0.251,2.58l0.499,1.58Z" style="fill:#010001;fill-rule:nonzero;"/></g><g><rect id="path1698" x="455.102" y="47.241" width="53.329" height="94.488" style="fill:#fff;"/><path id="path1700" d="M479.931,68.99l-3.08,0.161l-3,0.58l-3.75,1.09l-3.67,1.41l-3.499,1.67l-3.41,1.92l6.329,9.66l2.58,-1.58l2.67,-1.25l2.83,-1l2.92,-0.75l3,-0.421l1.66,-0.083l1.75,0.33l1.58,0.589l0.92,0.58l0.75,0.831l0.5,0.92l0.17,1.079l-0,3l-4.17,0.17l-4.08,0.5l-4.08,0.75l-4,1.079l-3.92,1.42l-1.66,1.001l-1.59,1.25l-1.42,1.5l-1.159,1.58l-0.921,1.829l-0.66,1.92l-0.34,2l-0.083,2l0.17,2l0.491,1.92l0.759,1.91l1,1.75l1.24,1.59l1.42,1.41l1.67,1.171l2.41,1.16l2.59,0.92l2.75,0.589l2.75,0.33l2.75,-0.083l2.66,-0.34l2.67,-0.661l1.42,-0.669l1.33,-0.831l1.079,-1l0.921,-1.25l1,1.33l1.25,1l1.42,0.75l2.58,1.001l2.66,0.58l2.75,0.329l4.59,-10.08l-1.091,0l-1.079,-0.159l-1.08,-0.5l-0.839,-0.669l-0.661,-0.92l-0.42,-1.001l-0.17,-1.16l-0,-22.329l-0.161,-1.84l-0.42,-1.83l-0.75,-1.67l-0.92,-1.58l-1.25,-1.5l-1.41,-1.171l-1.59,-1l-2.25,-0.99l-2.41,-0.84l-2.92,-0.83l-3.08,-0.42l-2.996,-0.152Zm7.25,28.07l-0,6.75l-0.17,1.25l-0.58,1.17l-0.75,1.001l-1.09,0.75l-1.16,0.42l-2.33,0.33l-2.34,-0l-2.33,-0.33l-1.17,-0.42l-1.001,-0.75l-0.83,-0.92l-0.58,-1.08l-0.34,-1.08l-0,-1.17l0.34,-1.17l0.58,-0.911l0.83,-0.84l1.001,-0.58l3.92,-1l2.28,-0.47l1.719,-0.36l4.001,-0.59Z" style="fill:#010001;fill-rule:nonzero;"/></g><g><rect id="path1670" x="373.439" y="47.241" width="40.584" height="94.488" style="fill:#fff;"/><path id="path1672" d="M403.442,107.816l2.41,-0.41l2.34,-0.67l2.83,10.751l-3.5,1l-3.58,0.659l-3.591,0.341l-3.66,0.083l-3.59,-0.33l-1.75,-0.341l-1.741,-0.749l-1.5,-1l-1.34,-1.251l-1.08,-1.41l-0.751,-1.67l-0.5,-1.75l-0.17,-1.83l-0,-28.003l-7.581,0l-0,-10.751l7.581,0l-0,-14.741l12.921,-3.75l-0,18.491l12.001,0l-0,10.751l-12.001,0l-0,23.002l0.082,1.001l0.42,0.919l0.581,0.751l0.829,0.581l0.92,0.419l0.92,0.083l2.5,-0.176Z" style="fill:#010001;fill-rule:nonzero;"/></g></g><g><g><rect id="path1750" x="146.935" y="47.241" width="57.159" height="94.488" style="fill:#fff;"/><path id="path1752" d="M183.514,88.32l-0.34,-1.67l-0.75,-1.58l-1,-1.34l-1.25,-1.079l-1.75,-0.75l-1.91,-0.33l-1.92,0.083l-1.83,0.329l-1.84,0.75l-1.5,1.001l-1.33,1.25l-1,1.5l-0.67,1.59l-0.161,1.66l0,28.329l-12.919,0l-0,-47.159l12.919,-0l0,3.33l1.91,-1.5l2.09,-1.25l2.16,-0.909l2.34,-0.591l2.33,-0.33l2.42,0.083l2.75,0.5l2.41,0.839l2.33,1.16l2.09,1.42l1.91,1.67l1.67,1.91l1.42,2.17l1.079,2.5l0.75,2.58l0.421,2.67l0.161,2.75l-0,28.159l-12.91,0l12.91,0l-12.91,0l-0,-28.079l-0.08,-1.666Z" style="fill:#010001;fill-rule:nonzero;"/></g><g><rect id="path1806" x="291.002" y="47.241" width="52.909" height="94.488" style="fill:#fff;"/><path id="path1808" d="M316.502,69.65l-2.42,0.17l-2.41,0.41l-2.34,0.75l-2.25,1.09l-2.08,1.25l-2.25,1.66l-2.08,2l-1.75,2.25l-1.42,2.42l-1.17,3l-0.83,3.17l-0.5,3.16l-0.17,3.25l0.25,3.25l0.591,3.17l0.909,3.08l1.17,3l1.079,2.17l1.42,2l1.5,1.83l1.83,1.67l1.92,1.41l2.08,1.25l2.25,0.92l2.34,0.669l2.99,0.58l3.09,0.251l3.08,-0.083l3.08,-0.34l3,-0.66l2.339,-0.84l2.16,-1.08l2,-1.42l1.83,-1.67l1.67,-1.83l-7.999,-8.079l-1.83,1.669l-2.08,1.331l-2.25,1l-2.17,0.58l-2.17,0.17l-2.16,-0.083l-2.17,-0.42l-2.08,-0.75l-1.42,-0.92l-1.25,-1.16l-1,-1.34l-0.75,-1.5l-0.41,-1.66l-0.17,-1.67l31.499,-0l-0.17,-3.92l-0.421,-3.91l-0.83,-3.83l-1.17,-3.75l-1.08,-2.5l-1.42,-2.25l-1.66,-2.17l-2,-1.83l-2.17,-1.59l-2.08,-1.25l-2.25,-0.909l-2.42,-0.67l-2.419,-0.42l-2.408,-0.076Zm-0.251,10.75l1.66,0l1.67,0.33l1.58,0.589l1.42,0.83l1.33,1.08l1.09,1.25l0.831,1.42l0.58,1.58l0.25,1.67l-19.16,-0l0.251,-1.67l0.58,-1.58l0.84,-1.42l1.079,-1.25l1.33,-1.08l1.42,-0.83l1.58,-0.589l1.669,-0.33Z" style="fill:#010001;fill-rule:nonzero;"/></g><g id="S"><rect id="path1618" x="50.197" y="47.241" width="69.819" height="94.488" style="fill:#fff;"/><path id="path1620" d="M91.686,92.65l1.5,0.58l1.25,0.84l1.08,1.16l0.75,1.34l0.42,1.409l0.083,1.59l-0.251,1.5l-0.66,1.41l-0.92,1.25l-1.42,1.171l-1.58,0.909l-1.75,0.67l-1.83,0.329l-4.5,0l-2.58,-0.329l-2.5,-0.5l-2.42,-0.83l-2.42,-1.079l-2.83,-1.84l-2.669,-2l-2.41,-2.33l-11.5,8.829l2.42,2.501l2.58,2.329l2.75,2.09l2.91,1.83l3.169,1.5l3.58,1.171l3.75,0.83l3.75,0.58l3.75,0.25l3.83,-0.082l3.75,-0.33l3.75,-0.669l3.67,-1.001l2.5,-1l2.33,-1.33l2.17,-1.67l1.92,-1.92l1.66,-2.16l1.34,-2.34l0.989,-2.49l0.67,-2.67l0.251,-2.67l-0.083,-2.66l-0.421,-2.75l-0.75,-2.59l-1.159,-2.41l-1.5,-2l-1.75,-1.75l-1.84,-1.59l-2.08,-1.41l-2.17,-1.17l-2.08,-0.83l-2.17,-0.67l-15.49,-3.83l-1.09,-0.42l-1,-0.661l-0.831,-0.92l-0.669,-1l-0.33,-1.08l-0.17,-1.169l0.094,-1.17l0.41,-1.16l0.59,-1.001l1.33,-1.34l1.5,-1l1.75,-0.75l1.83,-0.41l1.84,-0.17l2.739,0.17l2.67,0.41l2.67,0.75l2.5,0.92l2.41,1.25l2.34,1.5l2.08,1.75l10.25,-9.33l-2.75,-2.42l-2.92,-2.08l-3.16,-1.84l-3.25,-1.58l-3.42,-1.159l-3.58,-0.921l-3.59,-0.499l-3.66,-0.17l-3.579,0.17l-3.59,0.499l-3.58,0.921l-2.58,1l-2.42,1.24l-2.25,1.59l-2.08,1.83l-1.84,2l-1.41,2l-1.09,2.17l-0.831,2.25l-0.579,2.33l-0.171,2.42l0.083,2.41l0.421,2.419l0.75,2.25l1,2.25l1.25,2l1.58,1.91l1.75,1.59l2.5,1.66l2.75,1.171l2.92,0.75l15.574,3.502Z" style="fill:#010001;fill-rule:nonzero;"/></g><g><rect id="path1742" x="260.253" y="47.241" width="30.749" height="94.488" style="fill:#fff;"/><path id="path1744" d="M287.172,106.48l-2.5,0.329l-2.499,0.095l-0.921,-0.095l-0.75,-0.41l-0.66,-0.669l-0.42,-0.75l-0.17,-0.92l-0,-52.069l-12.91,-0l0,57.319l0.161,1.75l0.499,1.669l0.75,1.58l1.001,1.5l1.25,1.25l1.42,1.001l1.67,0.669l1.66,0.5l1.75,0.17l4.079,-0.34l4,-0.5l4,-0.75l-1.41,-11.329Z" style="fill:#010001;fill-rule:nonzero;"/></g><g><rect id="path1790" x="120.015" y="47.241" width="26.92" height="94.488" style="fill:#fff;"/><path id="path1792" d="M132.765,51.491l-1.42,0.159l-1.41,0.421l-1.25,0.669l-1.17,0.91l-0.92,1.17l-0.66,1.25l-0.421,1.42l-0.17,1.41l0.17,1.42l0.421,1.42l0.66,1.33l0.92,1.08l1.17,0.92l1.25,0.66l1.41,0.421l1.42,0.17l1.42,-0.17l1.41,-0.421l1.25,-0.66l1.171,-0.92l0.92,-1.08l0.66,-1.33l0.42,-1.42l0.171,-1.42l-0.171,-1.41l-0.42,-1.42l-0.66,-1.25l-0.92,-1.17l-1.171,-0.91l-1.25,-0.669l-1.41,-0.421l-1.42,-0.159Zm-6.5,19.409l0,47.24l12.92,-0l0,-47.24l-12.92,0Z" style="fill:#010001;fill-rule:nonzero;"/></g><g><rect id="path1810" x="204.094" y="47.241" width="56.159" height="94.488" style="fill:#fff;"/><path id="path1812" d="M228.424,70.23l-2.84,0.171l-2.75,0.499l-2.66,0.92l-1.92,0.91l-1.83,1.17l-1.75,1.33l-1.5,1.59l-1.34,1.66l-1.33,2.42l-1,2.58l-0.831,2.59l-0.669,2.58l-0.41,2.67l-0.095,2.75l0.251,2.66l0.499,2.67l0.75,2.58l1.001,2.33l1.25,2.25l1.5,2.089l1.84,1.83l1.99,1.58l2.34,1.42l2.499,1.08l2.66,0.75l2.67,0.329l2.92,0.17l2.91,-0.329l2.84,-0.58l2.16,-0.75l2.09,-1.09l0,2.5l-0.17,1.42l-0.5,1.33l-0.75,1.17l-1,1.001l-1.17,0.75l-1.33,0.42l-3.5,0.33l-3.92,-0.095l-3.91,-0.49l-2.42,-0.591l-2.42,-0.75l-2.25,-1.079l-2.16,-1.34l-6.08,10.42l3.83,1.83l4,1.42l4,1.17l4.16,0.91l3.25,0.25l3.34,0.094l3.25,-0.25l3.33,-0.589l2.67,-0.661l2.579,-1l2.41,-1.34l2.25,-1.66l1.59,-1.59l1.25,-1.83l1.08,-2l0.75,-2.08l0.499,-2.17l0.17,-2.25l0,-45.409l-12.829,0l-0,2.42l-1.75,-1.17l-1.92,-0.831l-2,-0.499l-2.75,-0.5l-2.824,-0.09Zm1.659,11.25l2.09,0.17l1.91,0.58l1.92,0.84l1.08,0.75l1,1l0.75,1.16l0.5,1.25l0.34,1.33l0,7.51l-0.34,1.74l-0.5,1.75l-0.58,1.26l-0.83,1.079l-1.09,0.831l-1.16,0.669l-1.75,0.58l-1.75,0.251l-1.84,-0l-1.75,-0.251l-1.75,-0.499l-1.41,-0.67l-1.34,-0.909l-1.079,-1.171l-0.831,-1.33l-0.499,-1.42l-0.5,-1.91l-0.25,-2l0.082,-2l0.251,-1.92l0.58,-2.17l0.92,-2l0.67,-1.25l0.92,-1.079l1.079,-0.83l1.16,-0.67l2,-0.5l1.997,-0.171Z" style="fill:#010001;fill-rule:nonzero;"/></g></g></g><g><g><rect id="path17861" serif:id="path1786" x="229.025" y="141.732" width="41.079" height="94.488" style="fill:#fff;"/><path id="path17881" serif:id="path1788" d="M248.524,212.551l-12.919,-0l-0,-47.159l12.919,-0l0,4.67l1.58,-1.59l1.75,-1.33l2,-1.171l2.17,-0.75l2.16,-0.499l2.25,-0.161l3.17,0l0,12.25l-4.42,-0l-1.83,0.159l-1.83,0.5l-1.67,0.84l-1.58,1.079l-1.25,1.25l-1.079,1.58l-0.84,1.67l-0.5,1.83l-0.082,1.84l0.001,24.992Z" style="fill:#010001;fill-rule:nonzero;"/></g><g><rect id="path1754" x="270.104" y="141.74" width="55.239" height="94.488" style="fill:#fff;"/><path id="path1756" d="M296.433,163.49l-2.59,0.16l-2.5,0.421l-2.5,0.75l-2.409,0.92l-2.25,1.24l-2.34,1.75l-2.08,2.09l-1.83,2.25l-1.5,2.58l-1.171,2.67l-0.16,0.499l-0.84,3.33l-0.5,3.42l-0.17,3.41l0.17,3.42l0.5,3.41l0.84,3.25l0.16,0.59l1.171,2.66l1.5,2.5l1.83,2.34l2.08,2.08l2.34,1.75l2.25,1.16l2.409,1.01l2.5,0.739l2.5,0.421l2.59,0.17l2.58,-0.17l2.58,-0.421l2.5,-0.739l2.42,-1.01l2.25,-1.16l2.33,-1.75l2.08,-2.08l1.84,-2.34l1.5,-2.5l1.16,-2.66l0.17,-0.59l0.83,-3.25l0.5,-3.41l0.094,-3.42l-0.094,-3.41l-0.5,-3.42l-0.83,-3.33l-0.17,-0.499l-1.16,-2.67l-1.5,-2.58l-1.84,-2.25l-2.08,-2.09l-2.33,-1.75l-2.25,-1.24l-2.42,-0.92l-2.5,-0.75l-2.58,-0.421l-2.58,-0.16Zm0,11.33l1.91,0.25l2,0.83l1.75,1.33l1.5,1.59l1.25,1.83l0.67,1.5l0.42,1.58l0.33,2.67l0.083,2.58l-0.083,2.58l-0.33,2.67l-0.42,1.58l-0.67,1.5l-1.25,1.84l-1.5,1.58l-1.75,1.33l-2,0.75l-1.91,0.34l-1.84,-0.34l-2,-0.75l-1.83,-1.33l-1.5,-1.58l-1.17,-1.84l-0.66,-1.5l-0.421,-1.58l-0.329,-2.67l-0.17,-2.58l0.17,-2.58l0.329,-2.67l0.421,-1.58l0.66,-1.5l1.17,-1.83l1.5,-1.59l1.83,-1.33l2,-0.83l1.84,-0.25Z" style="fill:#010001;fill-rule:nonzero;"/></g><g><rect id="path1818" x="378.672" y="141.732" width="57.159" height="94.488" style="fill:#fff;"/><path id="path1820" d="M415.831,146.482l-0,21.16l-2.16,-1.42l-2.25,-1.16l-2.42,-0.84l-2.41,-0.58l-2.59,-0.25l-2.5,0.094l-2.5,0.33l-2.5,0.66l-2.33,0.92l-2.25,1.25l-2.079,1.42l-2.13,2.04l-1.71,2.21l-1.25,2.37l-1.33,3.46l-0.831,3.33l-0.58,3.42l-0.25,3.42l0.161,3.41l0.42,3.42l0.83,3.33l1.091,3.25l1.239,2.5l1.5,2.249l1.84,2.081l2.08,1.749l2.33,1.42l2.75,1.08l2.92,0.75l2.92,0.34l2.91,0l2.92,-0.42l2.83,-0.75l2,-0.75l1.75,-1.171l1.58,-1.41l-0,3.25l12.92,0l-0,-66.158l-12.921,-0.004Zm-9.91,28.33l1.91,0.25l1.92,0.58l1.67,0.92l1.58,1.16l1.08,1.25l0.839,1.34l0.58,1.5l0.33,1.66l-0,10.17l-0.16,1.25l-0.34,1.25l-0.58,1.079l-0.75,1.08l-1.33,1.42l-1.5,1.17l-1.67,0.83l-1.83,0.58l-1.92,0.251l-1.91,-0.161l-1.84,-0.42l-1.5,-0.58l-1.41,-0.84l-1.17,-1.08l-1,-1.25l-0.75,-1.42l-0.831,-2.5l-0.42,-2.659l-0.251,-2.58l0.171,-2.67l0.409,-2.58l0.75,-2.59l0.75,-1.66l0.84,-1.25l1.16,-1.09l1.59,-1.08l1.75,-0.75l1.91,-0.499l1.923,-0.081Z" style="fill:#010001;fill-rule:nonzero;"/></g><g><rect id="path16981" serif:id="path1698" x="325.343" y="141.732" width="53.329" height="94.488" style="fill:#fff;"/><path id="path17001" serif:id="path1700" d="M350.172,163.482l-3.08,0.16l-3,0.58l-3.75,1.091l-3.669,1.41l-3.5,1.669l-3.41,1.92l6.33,9.66l2.58,-1.58l2.669,-1.25l2.83,-1l2.92,-0.75l3,-0.421l1.66,-0.082l1.75,0.329l1.58,0.59l0.92,0.58l0.75,0.83l0.5,0.92l0.17,1.08l-0,3l-4.17,0.17l-4.08,0.499l-4.08,0.75l-4,1.08l-3.92,1.42l-1.66,1l-1.59,1.25l-1.42,1.5l-1.159,1.58l-0.92,1.83l-0.661,1.92l-0.34,2l-0.083,2l0.171,2l0.49,1.92l0.759,1.91l1.001,1.75l1.239,1.59l1.42,1.41l1.67,1.17l2.41,1.16l2.59,0.92l2.75,0.589l2.75,0.33l2.75,-0.083l2.66,-0.34l2.67,-0.66l1.42,-0.67l1.33,-0.83l1.08,-1.001l0.92,-1.25l1,1.33l1.25,1.001l1.42,0.75l2.58,1l2.66,0.58l2.75,0.33l4.59,-10.08l-1.091,-0l-1.079,-0.16l-1.08,-0.499l-0.839,-0.67l-0.661,-0.92l-0.42,-1l-0.17,-1.16l-0,-22.33l-0.161,-1.84l-0.42,-1.83l-0.75,-1.67l-0.92,-1.58l-1.25,-1.5l-1.41,-1.17l-1.59,-1.001l-2.25,-0.989l-2.41,-0.84l-2.92,-0.83l-3.08,-0.421l-2.996,-0.151Zm7.25,28.069l0,6.75l-0.17,1.25l-0.58,1.171l-0.75,1l-1.09,0.75l-1.16,0.42l-2.33,0.33l-2.34,0l-2.33,-0.33l-1.17,-0.42l-1.001,-0.75l-0.83,-0.92l-0.58,-1.08l-0.34,-1.079l-0,-1.171l0.34,-1.17l0.58,-0.911l0.83,-0.839l1.001,-0.58l3.92,-1.001l2.28,-0.47l1.72,-0.36l4,-0.59Z" style="fill:#010001;fill-rule:nonzero;"/></g></g></g></svg>