<?xml version="1.0" encoding="UTF-8" standalone="no"?><!DOCTYPE svg PUBLIC "-//W3C//DTD SVG 1.1//EN" "http://www.w3.org/Graphics/SVG/1.1/DTD/svg11.dtd"><svg width="100%" height="100%" viewBox="0 0 514 454" version="1.1" xmlns="http://www.w3.org/2000/svg" xmlns:xlink="http://www.w3.org/1999/xlink" xml:space="preserve" xmlns:serif="http://www.serif.com/" style="fill-rule:evenodd;clip-rule:evenodd;stroke-linejoin:round;stroke-miterlimit:2;"><g id="scale-value" transform="matrix(50,0,0,50,350.88,262.709)"></g><text x="163.258px" y="262.709px" style="font-family:'ArialMT', 'Arial', sans-serif;font-size:50px;">sw=38.4</text><g id="_520-Dual-Carriageway-Ends" serif:id="520 Dual Carriageway Ends"><path d="M227.178,17.004c6.076,-10.522 17.302,-17.004 29.452,-17.004c12.149,0 23.376,6.482 29.452,17.004c54.065,93.625 168.545,291.872 222.619,385.514c6.077,10.524 6.079,23.491 0.003,34.016c-6.075,10.525 -17.303,17.009 -29.455,17.009l-445.238,0c-12.152,0 -23.38,-6.484 -29.455,-17.009c-6.076,-10.525 -6.074,-23.492 0.003,-34.016c54.074,-93.642 168.554,-291.889 222.619,-385.514Z" style="fill:#e31837;"/><path d="M256.665,56.708l202.961,351.496l-405.922,-0l202.961,-351.496Z" style="fill:#fff;"/><path d="M263.157,260.71c-1.357,-2.302 -3.829,-3.717 -6.502,-3.72c-2.672,-0.004 -5.148,1.404 -6.511,3.703c-4.261,7.184 -9.635,16.246 -12.984,21.894c-2.077,3.501 -3.172,7.497 -3.172,11.567l-0,98.932l-45.355,-0l0,-101.212c0,-8.283 2.269,-16.408 6.559,-23.493c8.55,-14.119 23.27,-38.428 30.574,-50.489c2.86,-4.723 4.372,-10.14 4.372,-15.662l0,-73.711l52.914,-0l-0,73.712c-0,5.522 1.512,10.938 4.371,15.661c7.33,12.105 22.135,36.556 30.716,50.728c4.29,7.084 6.557,15.208 6.557,23.491c0,29.626 0,100.975 0,100.975l-45.354,-0c0,-0 0,-76.224 0,-98.733c0,-4.05 -1.085,-8.026 -3.141,-11.515c-3.355,-5.691 -8.766,-14.871 -13.044,-22.128Z"/></g></svg>