<?xml version="1.0" encoding="UTF-8" standalone="no"?><!DOCTYPE svg PUBLIC "-//W3C//DTD SVG 1.1//EN" "http://www.w3.org/Graphics/SVG/1.1/DTD/svg11.dtd"><svg width="100%" height="100%" viewBox="0 0 514 454" version="1.1" xmlns="http://www.w3.org/2000/svg" xmlns:xlink="http://www.w3.org/1999/xlink" xml:space="preserve" xmlns:serif="http://www.serif.com/" style="fill-rule:evenodd;clip-rule:evenodd;stroke-linejoin:round;stroke-miterlimit:2;"><g id="scale-value" transform="matrix(50,0,0,50,350.88,262.709)"></g><text x="163.258px" y="262.709px" style="font-family:'ArialMT', 'Arial', sans-serif;font-size:50px;">sw=38.4</text><g id="_523.1-Steep-Hill-Downwards" serif:id="523.1 Steep Hill Downwards"><path d="M227.178,17.004c6.076,-10.522 17.302,-17.004 29.452,-17.004c12.149,0 23.376,6.482 29.452,17.004c54.065,93.625 168.545,291.872 222.619,385.514c6.077,10.524 6.079,23.491 0.003,34.016c-6.075,10.525 -17.303,17.009 -29.455,17.009l-445.238,0c-12.152,0 -23.38,-6.484 -29.455,-17.009c-6.076,-10.525 -6.074,-23.492 0.003,-34.016c54.074,-93.642 168.554,-291.889 222.619,-385.514Z" style="fill:#e31837;"/><path d="M256.665,56.708l202.961,351.496l-405.922,-0l202.961,-351.496Z" style="fill:#fff;"/><path d="M157.545,258.556l-77.689,134.545l353.548,-0l-275.859,-134.545Z"/><g><g><path id="rect1305" d="M364.504,271.189l-65.223,-31.812l-39.764,81.529l65.222,31.811l39.765,-81.528Z" style="fill:none;"/><path id="path1315" d="M349.516,265.57l-73.462,38.216l7.621,3.717l73.461,-38.217l-7.62,-3.716Zm-34.405,-14.764c-0.252,-0.123 -0.507,-0.239 -0.767,-0.343c-0.572,-0.235 -1.161,-0.431 -1.759,-0.591c-0.612,-0.164 -1.233,-0.315 -1.864,-0.375c-0.593,-0.056 -1.196,-0.041 -1.789,0.016c-0.627,0.06 -1.246,0.191 -1.857,0.342c-0.605,0.149 -1.216,0.297 -1.783,0.554c-0.633,0.287 -1.212,0.686 -1.778,1.09c-0.574,0.408 -1.127,0.85 -1.632,1.34c-0.515,0.5 -0.968,1.062 -1.415,1.623c-0.574,0.72 -1.127,1.46 -1.625,2.235c-0.49,0.764 -0.937,1.557 -1.335,2.373c-0.398,0.816 -0.748,1.658 -1.049,2.515c-0.304,0.869 -0.551,1.76 -0.761,2.656c-0.157,0.674 -0.302,1.354 -0.372,2.043c-0.072,0.7 -0.076,1.407 -0.052,2.111c0.025,0.717 0.039,1.445 0.201,2.144c0.14,0.607 0.396,1.183 0.661,1.746c0.261,0.555 0.57,1.09 0.909,1.602c0.329,0.497 0.688,0.978 1.089,1.419c0.431,0.475 0.904,0.914 1.408,1.311c0.486,0.382 1.011,0.715 1.548,1.022c0.487,0.277 0.992,0.523 1.51,0.736c0.572,0.235 1.158,0.443 1.758,0.591c0.623,0.153 1.261,0.249 1.9,0.302c0.618,0.052 1.24,0.061 1.859,0.019c0.612,-0.042 1.226,-0.124 1.822,-0.27c0.586,-0.142 1.169,-0.325 1.712,-0.588c0.646,-0.313 1.232,-0.741 1.812,-1.163c0.57,-0.414 1.117,-0.861 1.634,-1.339c0.513,-0.476 1.011,-0.973 1.452,-1.517c0.577,-0.711 1.067,-1.492 1.55,-2.27c0.48,-0.771 0.939,-1.559 1.337,-2.375c0.398,-0.816 0.735,-1.661 1.048,-2.513c0.315,-0.861 0.624,-1.728 0.834,-2.62c0.166,-0.706 0.271,-1.428 0.336,-2.15c0.063,-0.701 0.081,-1.408 0.05,-2.112c-0.031,-0.694 -0.081,-1.394 -0.234,-2.072c-0.133,-0.588 -0.352,-1.157 -0.591,-1.711c-0.249,-0.578 -0.531,-1.146 -0.874,-1.673c-0.339,-0.52 -0.729,-1.008 -1.16,-1.455c-0.44,-0.456 -0.936,-0.856 -1.442,-1.238c-0.494,-0.372 -1.011,-0.716 -1.549,-1.022c-0.242,-0.14 -0.49,-0.27 -0.742,-0.393Zm-2.325,4.858c0.385,0.19 0.746,0.437 1.081,0.706c0.329,0.264 0.648,0.549 0.902,0.885c0.277,0.366 0.481,0.787 0.657,1.211c0.166,0.401 0.293,0.82 0.369,1.247c0.076,0.423 0.095,0.859 0.085,1.288c-0.012,0.481 -0.07,0.961 -0.164,1.433c-0.091,0.451 -0.232,0.891 -0.382,1.326c-0.393,1.136 -0.834,2.26 -1.362,3.34c-0.516,1.057 -1.124,2.07 -1.759,3.059c-0.263,0.41 -0.53,0.819 -0.845,1.19c-0.312,0.365 -0.657,0.705 -1.028,1.011c-0.332,0.272 -0.687,0.525 -1.067,0.726c-0.384,0.203 -0.789,0.371 -1.21,0.477c-0.431,0.108 -0.88,0.146 -1.324,0.156c-0.43,0.01 -0.869,0.005 -1.288,-0.094c-0.416,-0.098 -0.802,-0.303 -1.187,-0.489c-0.408,-0.199 -0.832,-0.384 -1.186,-0.668c-0.337,-0.269 -0.61,-0.612 -0.867,-0.958c-0.266,-0.355 -0.512,-0.733 -0.692,-1.139c-0.176,-0.396 -0.293,-0.819 -0.369,-1.247c-0.076,-0.423 -0.095,-0.858 -0.085,-1.288c0.012,-0.48 0.068,-0.961 0.164,-1.432c0.098,-0.477 0.254,-0.94 0.415,-1.399c0.389,-1.11 0.813,-2.213 1.328,-3.27c0.526,-1.081 1.14,-2.12 1.793,-3.13c0.25,-0.386 0.512,-0.767 0.812,-1.116c0.314,-0.364 0.657,-0.706 1.028,-1.011c0.332,-0.273 0.687,-0.526 1.067,-0.727c0.384,-0.203 0.792,-0.36 1.21,-0.476c0.442,-0.123 0.9,-0.221 1.359,-0.229c0.421,-0.007 0.843,0.068 1.253,0.166c0.444,0.106 0.882,0.251 1.292,0.452Zm18.538,39.359c-0.264,-0.129 -0.532,-0.246 -0.802,-0.36c-0.572,-0.235 -1.161,-0.434 -1.759,-0.591c-0.588,-0.154 -1.186,-0.282 -1.791,-0.341c-0.617,-0.062 -1.244,-0.071 -1.862,-0.018c-0.627,0.054 -1.245,0.189 -1.856,0.34c-0.605,0.149 -1.217,0.298 -1.784,0.555c-0.633,0.288 -1.212,0.687 -1.778,1.091c-0.574,0.408 -1.127,0.849 -1.632,1.34c-0.515,0.5 -0.968,1.062 -1.415,1.623c-0.574,0.72 -1.138,1.451 -1.624,2.233c-0.478,0.77 -0.867,1.595 -1.264,2.41c-0.398,0.815 -0.808,1.629 -1.121,2.48c-0.317,0.864 -0.55,1.758 -0.76,2.654c-0.158,0.674 -0.297,1.355 -0.373,2.043c-0.079,0.724 -0.113,1.455 -0.086,2.183c0.025,0.694 0.072,1.397 0.236,2.073c0.146,0.605 0.395,1.183 0.66,1.747c0.261,0.555 0.566,1.091 0.91,1.6c0.348,0.513 0.742,0.999 1.16,1.456c0.416,0.454 0.855,0.892 1.336,1.275c0.484,0.386 1.011,0.716 1.548,1.023c0.509,0.292 1.038,0.55 1.582,0.771c0.572,0.235 1.157,0.446 1.758,0.591c0.599,0.143 1.214,0.219 1.828,0.267c0.618,0.048 1.241,0.059 1.86,0.017c0.612,-0.042 1.226,-0.122 1.823,-0.267c0.586,-0.143 1.165,-0.333 1.711,-0.591c0.629,-0.297 1.214,-0.683 1.777,-1.091c0.59,-0.427 1.138,-0.912 1.668,-1.411c0.51,-0.48 1.012,-0.973 1.453,-1.517c0.577,-0.711 1.066,-1.49 1.55,-2.268c0.479,-0.771 0.938,-1.559 1.336,-2.375c0.398,-0.816 0.736,-1.663 1.049,-2.515c0.315,-0.861 0.623,-1.726 0.833,-2.618c0.166,-0.706 0.271,-1.428 0.336,-2.15c0.063,-0.701 0.081,-1.409 0.05,-2.112c-0.031,-0.695 -0.081,-1.394 -0.234,-2.072c-0.133,-0.588 -0.35,-1.158 -0.588,-1.712c-0.249,-0.578 -0.534,-1.145 -0.877,-1.673c-0.339,-0.519 -0.731,-1.007 -1.159,-1.456c-0.419,-0.44 -0.888,-0.832 -1.371,-1.201c-0.492,-0.375 -1.012,-0.716 -1.549,-1.022c-0.254,-0.146 -0.515,-0.283 -0.779,-0.411Zm-2.362,4.842c0.386,0.19 0.751,0.43 1.081,0.706c0.35,0.292 0.669,0.626 0.939,0.992c0.25,0.34 0.457,0.714 0.621,1.103c0.169,0.399 0.292,0.821 0.369,1.248c0.075,0.424 0.095,0.857 0.085,1.287c-0.012,0.48 -0.069,0.963 -0.165,1.434c-0.097,0.477 -0.256,0.939 -0.417,1.398c-0.389,1.11 -0.811,2.211 -1.327,3.268c-0.515,1.057 -1.123,2.068 -1.758,3.058c-0.263,0.41 -0.53,0.821 -0.846,1.191c-0.312,0.366 -0.656,0.706 -1.028,1.011c-0.332,0.273 -0.686,0.524 -1.066,0.725c-0.384,0.202 -0.792,0.365 -1.211,0.478c-0.407,0.11 -0.83,0.18 -1.252,0.191c-0.455,0.013 -0.914,-0.034 -1.359,-0.13c-0.42,-0.091 -0.835,-0.231 -1.222,-0.418c-0.41,-0.199 -0.803,-0.445 -1.151,-0.74c-0.329,-0.278 -0.61,-0.61 -0.868,-0.955c-0.265,-0.356 -0.512,-0.734 -0.692,-1.139c-0.175,-0.397 -0.292,-0.822 -0.368,-1.249c-0.076,-0.423 -0.107,-0.857 -0.085,-1.287c0.024,-0.472 0.141,-0.934 0.236,-1.397c0.098,-0.482 0.193,-0.967 0.343,-1.436c0.36,-1.119 0.812,-2.211 1.327,-3.268c0.516,-1.057 1.097,-2.085 1.759,-3.058c0.276,-0.406 0.6,-0.779 0.919,-1.153c0.306,-0.359 0.599,-0.738 0.956,-1.048c0.325,-0.281 0.686,-0.524 1.066,-0.725c0.384,-0.202 0.79,-0.372 1.211,-0.478c0.431,-0.108 0.879,-0.145 1.323,-0.155c0.43,-0.009 0.867,0.007 1.288,0.094c0.447,0.093 0.883,0.251 1.292,0.452Z" style="fill:#010001;fill-rule:nonzero;"/></g><g><path d="M299.281,239.377l-59.108,-28.829l-39.764,81.529l59.108,28.829l39.764,-81.529Z" style="fill:none;"/><path d="M276.991,268.483c-1.648,3.378 -3.739,6.568 -6.276,9.57c-2.536,3.002 -5.399,5.424 -8.589,7.265c-3.191,1.842 -6.64,2.932 -10.348,3.272c-3.709,0.34 -7.559,-0.463 -11.551,-2.41c-4.089,-1.994 -7.182,-4.563 -9.281,-7.706c-2.099,-3.144 -3.429,-6.551 -3.99,-10.222c-0.562,-3.671 -0.452,-7.436 0.328,-11.295c0.781,-3.858 2.006,-7.5 3.676,-10.925c1.671,-3.424 3.775,-6.609 6.312,-9.552c2.537,-2.944 5.396,-5.295 8.576,-7.055c3.18,-1.759 6.631,-2.761 10.353,-3.008c3.723,-0.246 7.58,0.605 11.572,2.552c3.944,1.924 6.953,4.422 9.026,7.495c2.074,3.073 3.403,6.421 3.987,10.046c0.584,3.624 0.51,7.348 -0.224,11.171c-0.733,3.823 -1.924,7.424 -3.571,10.802Zm-12.011,-5.771c0.778,-1.595 1.496,-3.525 2.153,-5.788c0.657,-2.264 1.023,-4.539 1.096,-6.826c0.074,-2.287 -0.284,-4.422 -1.074,-6.404c-0.789,-1.982 -2.242,-3.489 -4.359,-4.521c-2.116,-1.033 -4.193,-1.261 -6.229,-0.687c-2.037,0.575 -3.928,1.583 -5.674,3.026c-1.745,1.442 -3.307,3.12 -4.686,5.031c-1.379,1.912 -2.458,3.665 -3.236,5.26c-0.846,1.736 -1.64,3.759 -2.379,6.07c-0.74,2.31 -1.159,4.603 -1.257,6.878c-0.097,2.276 0.291,4.41 1.164,6.404c0.873,1.994 2.464,3.554 4.773,4.68c2.309,1.126 4.481,1.402 6.518,0.827c2.037,-0.574 3.897,-1.612 5.582,-3.113c1.685,-1.501 3.168,-3.261 4.45,-5.278c1.281,-2.017 2.334,-3.87 3.158,-5.559Z" style="fill-rule:nonzero;"/></g><g><path d="M240.173,210.548l-34.242,-16.7l-39.764,81.528l34.242,16.701l39.764,-81.529Z" style="fill:none;"/><path d="M201.37,267.315l-12.453,-6.074l19.092,-39.144l-9.752,-4.756l4.603,-9.439c1.998,0.854 3.794,1.519 5.389,1.994c1.594,0.476 2.996,0.616 4.205,0.421c1.16,-0.219 2.165,-0.725 3.016,-1.518c0.851,-0.792 1.828,-2.067 2.932,-3.823l10.802,5.269l-27.834,57.07Z" style="fill-rule:nonzero;"/></g></g></g></svg>