<?xml version="1.0" encoding="UTF-8" standalone="no"?><!DOCTYPE svg PUBLIC "-//W3C//DTD SVG 1.1//EN" "http://www.w3.org/Graphics/SVG/1.1/DTD/svg11.dtd"><svg width="100%" height="100%" viewBox="0 0 514 454" version="1.1" xmlns="http://www.w3.org/2000/svg" xmlns:xlink="http://www.w3.org/1999/xlink" xml:space="preserve" xmlns:serif="http://www.serif.com/" style="fill-rule:evenodd;clip-rule:evenodd;stroke-linejoin:round;stroke-miterlimit:2;"><g id="scale-value" transform="matrix(50,0,0,50,350.88,262.709)"></g><text x="163.258px" y="262.709px" style="font-family:'ArialMT', 'Arial', sans-serif;font-size:50px;">sw=38.4</text><g id="_524.1-Steep-Hill-Upwards" serif:id="524.1 Steep Hill Upwards"><path d="M227.178,17.004c6.076,-10.522 17.302,-17.004 29.452,-17.004c12.149,0 23.376,6.482 29.452,17.004c54.065,93.625 168.545,291.872 222.619,385.514c6.077,10.524 6.079,23.491 0.003,34.016c-6.075,10.525 -17.303,17.009 -29.455,17.009l-445.238,0c-12.152,0 -23.38,-6.484 -29.455,-17.009c-6.076,-10.525 -6.074,-23.492 0.003,-34.016c54.074,-93.642 168.554,-291.889 222.619,-385.514Z" style="fill:#e31837;"/><path d="M256.665,56.708l202.961,351.496l-405.922,-0l202.961,-351.496Z" style="fill:#fff;"/><path d="M355.785,258.541l77.689,134.545l-353.548,-0l275.859,-134.545Z"/><g><path id="rect1305" d="M315.756,189.757l-65.223,31.811l39.764,81.528l65.223,-31.811l-39.764,-81.528Z" style="fill:none;"/><path id="path1315" d="M302.101,198.108l-15.113,81.417l7.621,-3.717l15.112,-81.417l-7.62,3.717Zm-32.816,18.022c-0.252,0.123 -0.501,0.253 -0.743,0.393c-0.537,0.307 -1.054,0.65 -1.548,1.022c-0.506,0.382 -1.007,0.778 -1.443,1.238c-0.41,0.433 -0.768,0.918 -1.089,1.42c-0.338,0.531 -0.617,1.1 -0.874,1.674c-0.255,0.568 -0.515,1.14 -0.661,1.745c-0.164,0.676 -0.205,1.379 -0.236,2.073c-0.032,0.703 -0.024,1.411 0.051,2.111c0.077,0.714 0.241,1.417 0.408,2.115c0.214,0.895 0.457,1.787 0.761,2.655c0.301,0.857 0.65,1.698 1.048,2.514c0.398,0.816 0.846,1.61 1.336,2.375c0.497,0.775 1.047,1.517 1.625,2.234c0.434,0.54 0.881,1.072 1.38,1.552c0.508,0.488 1.062,0.926 1.631,1.34c0.581,0.422 1.163,0.859 1.814,1.162c0.565,0.263 1.176,0.416 1.783,0.554c0.598,0.136 1.21,0.222 1.822,0.27c0.594,0.046 1.194,0.06 1.789,0.015c0.639,-0.047 1.277,-0.149 1.899,-0.302c0.601,-0.148 1.187,-0.356 1.759,-0.591c0.518,-0.213 1.023,-0.459 1.509,-0.736c0.537,-0.307 1.062,-0.64 1.549,-1.022c0.503,-0.397 0.972,-0.84 1.407,-1.311c0.422,-0.455 0.812,-0.94 1.16,-1.454c0.344,-0.508 0.656,-1.042 0.909,-1.601c0.248,-0.55 0.463,-1.122 0.591,-1.712c0.151,-0.701 0.174,-1.426 0.199,-2.143c0.024,-0.704 0.009,-1.411 -0.05,-2.112c-0.059,-0.697 -0.144,-1.396 -0.301,-2.078c-0.205,-0.893 -0.519,-1.76 -0.834,-2.62c-0.313,-0.852 -0.651,-1.699 -1.049,-2.515c-0.398,-0.816 -0.856,-1.602 -1.336,-2.373c-0.483,-0.778 -0.977,-1.556 -1.55,-2.271c-0.454,-0.565 -0.959,-1.092 -1.488,-1.588c-0.513,-0.481 -1.059,-0.931 -1.633,-1.339c-0.566,-0.404 -1.148,-0.795 -1.777,-1.091c-0.546,-0.258 -1.128,-0.435 -1.712,-0.588c-0.609,-0.16 -1.23,-0.288 -1.857,-0.342c-0.618,-0.053 -1.243,-0.046 -1.86,0.018c-0.63,0.066 -1.251,0.211 -1.864,0.375c-0.597,0.16 -1.186,0.356 -1.758,0.591c-0.26,0.104 -0.516,0.22 -0.767,0.343Zm2.397,4.823c0.387,-0.187 0.803,-0.319 1.221,-0.418c0.411,-0.096 0.832,-0.173 1.253,-0.165c0.459,0.007 0.917,0.105 1.359,0.228c0.418,0.116 0.826,0.273 1.21,0.476c0.38,0.201 0.735,0.454 1.067,0.727c0.372,0.305 0.714,0.647 1.028,1.011c0.3,0.349 0.56,0.731 0.81,1.117c0.653,1.01 1.267,2.049 1.794,3.13c0.515,1.057 0.938,2.16 1.327,3.27c0.161,0.459 0.32,0.921 0.417,1.398c0.096,0.471 0.152,0.952 0.164,1.432c0.011,0.43 -0.009,0.865 -0.084,1.289c-0.077,0.427 -0.194,0.85 -0.37,1.247c-0.18,0.406 -0.426,0.783 -0.691,1.139c-0.258,0.345 -0.531,0.688 -0.868,0.957c-0.333,0.267 -0.732,0.446 -1.116,0.634c-0.408,0.199 -0.814,0.419 -1.257,0.524c-0.419,0.099 -0.857,0.103 -1.288,0.093c-0.444,-0.009 -0.893,-0.048 -1.323,-0.156c-0.421,-0.106 -0.827,-0.274 -1.211,-0.476c-0.38,-0.201 -0.734,-0.454 -1.067,-0.727c-0.371,-0.305 -0.715,-0.646 -1.027,-1.011c-0.316,-0.37 -0.584,-0.779 -0.847,-1.188c-0.635,-0.99 -1.243,-2.003 -1.76,-3.06c-0.527,-1.08 -0.968,-2.204 -1.362,-3.34c-0.15,-0.435 -0.29,-0.876 -0.379,-1.327c-0.094,-0.471 -0.153,-0.952 -0.164,-1.432c-0.011,-0.43 0.008,-0.865 0.084,-1.289c0.076,-0.427 0.203,-0.846 0.369,-1.247c0.176,-0.424 0.381,-0.844 0.657,-1.211c0.254,-0.336 0.572,-0.623 0.902,-0.885c0.357,-0.285 0.741,-0.541 1.152,-0.74Zm42.428,9.623c-0.264,0.129 -0.522,0.268 -0.778,0.411c-0.537,0.306 -1.056,0.647 -1.548,1.022c-0.483,0.369 -0.952,0.761 -1.372,1.201c-0.428,0.449 -0.821,0.937 -1.16,1.457c-0.343,0.527 -0.617,1.098 -0.875,1.672c-0.255,0.568 -0.514,1.142 -0.66,1.747c-0.164,0.676 -0.205,1.378 -0.236,2.073c-0.031,0.703 -0.024,1.411 0.051,2.111c0.078,0.713 0.241,1.416 0.408,2.115c0.215,0.895 0.443,1.789 0.76,2.653c0.313,0.852 0.723,1.665 1.121,2.481c0.398,0.815 0.786,1.639 1.264,2.41c0.486,0.782 1.047,1.515 1.624,2.232c0.434,0.54 0.885,1.068 1.38,1.552c0.522,0.509 1.077,0.985 1.667,1.412c0.563,0.408 1.145,0.803 1.779,1.09c0.566,0.257 1.176,0.418 1.783,0.556c0.598,0.136 1.208,0.225 1.821,0.267c0.618,0.043 1.244,0.031 1.862,-0.017c0.614,-0.048 1.229,-0.124 1.827,-0.268c0.602,-0.143 1.187,-0.356 1.759,-0.59c0.544,-0.221 1.073,-0.479 1.581,-0.772c0.538,-0.306 1.065,-0.637 1.549,-1.022c0.481,-0.383 0.92,-0.821 1.335,-1.275c0.419,-0.458 0.811,-0.942 1.159,-1.456c0.344,-0.508 0.659,-1.041 0.912,-1.6c0.248,-0.55 0.455,-1.124 0.588,-1.713c0.153,-0.678 0.209,-1.377 0.234,-2.072c0.027,-0.727 -0.018,-1.458 -0.085,-2.183c-0.064,-0.697 -0.144,-1.396 -0.301,-2.078c-0.205,-0.893 -0.518,-1.758 -0.833,-2.618c-0.313,-0.853 -0.651,-1.699 -1.049,-2.515c-0.398,-0.817 -0.857,-1.604 -1.336,-2.375c-0.484,-0.778 -0.977,-1.554 -1.55,-2.269c-0.454,-0.566 -0.958,-1.092 -1.488,-1.588c-0.513,-0.482 -1.059,-0.931 -1.633,-1.34c-0.566,-0.403 -1.148,-0.794 -1.777,-1.091c-0.545,-0.257 -1.127,-0.437 -1.711,-0.59c-0.609,-0.16 -1.231,-0.285 -1.858,-0.339c-0.618,-0.054 -1.243,-0.045 -1.86,0.016c-0.606,0.06 -1.203,0.188 -1.792,0.342c-0.598,0.156 -1.186,0.356 -1.758,0.59c-0.272,0.111 -0.54,0.233 -0.804,0.361Zm2.362,4.843c0.387,-0.187 0.801,-0.327 1.221,-0.418c0.446,-0.096 0.905,-0.142 1.361,-0.129c0.421,0.012 0.843,0.08 1.25,0.19c0.419,0.113 0.828,0.275 1.211,0.478c0.38,0.201 0.734,0.452 1.067,0.725c0.371,0.305 0.716,0.647 1.028,1.013c0.316,0.37 0.582,0.78 0.845,1.189c0.635,0.99 1.243,2.001 1.759,3.058c0.515,1.057 0.938,2.158 1.327,3.268c0.161,0.459 0.32,0.923 0.417,1.4c0.096,0.471 0.152,0.952 0.164,1.432c0.011,0.43 -0.01,0.863 -0.085,1.287c-0.077,0.427 -0.2,0.849 -0.369,1.248c-0.164,0.389 -0.369,0.765 -0.619,1.104c-0.271,0.367 -0.59,0.699 -0.94,0.991c-0.33,0.276 -0.696,0.516 -1.082,0.706c-0.409,0.201 -0.845,0.359 -1.291,0.452c-0.422,0.087 -0.857,0.105 -1.288,0.095c-0.443,-0.009 -0.893,-0.048 -1.323,-0.156c-0.421,-0.106 -0.828,-0.275 -1.211,-0.478c-0.38,-0.201 -0.742,-0.444 -1.067,-0.725c-0.357,-0.31 -0.649,-0.687 -0.955,-1.046c-0.319,-0.375 -0.643,-0.749 -0.92,-1.155c-0.661,-0.973 -1.243,-2.001 -1.758,-3.058c-0.516,-1.057 -0.968,-2.149 -1.327,-3.268c-0.15,-0.468 -0.245,-0.953 -0.343,-1.434c-0.095,-0.463 -0.213,-0.927 -0.237,-1.399c-0.022,-0.43 0.01,-0.864 0.085,-1.287c0.077,-0.427 0.193,-0.852 0.369,-1.249c0.179,-0.405 0.427,-0.781 0.692,-1.137c0.258,-0.345 0.539,-0.679 0.867,-0.957c0.349,-0.295 0.741,-0.541 1.152,-0.74Z" style="fill:#010001;fill-rule:nonzero;"/></g><g><path d="M250.533,221.568l-59.108,28.829l39.764,81.528l59.108,-28.829l-39.764,-81.528Z" style="fill:none;"/><path d="M259.745,257.052c1.648,3.378 2.874,6.99 3.678,10.837c0.805,3.847 0.95,7.594 0.437,11.242c-0.513,3.647 -1.777,7.037 -3.793,10.169c-2.015,3.131 -5.019,5.671 -9.011,7.618c-4.088,1.994 -8.017,2.85 -11.786,2.569c-3.769,-0.282 -7.273,-1.331 -10.511,-3.149c-3.239,-1.818 -6.138,-4.222 -8.698,-7.213c-2.56,-2.99 -4.676,-6.198 -6.346,-9.623c-1.67,-3.424 -2.884,-7.042 -3.642,-10.854c-0.758,-3.812 -0.851,-7.512 -0.279,-11.101c0.572,-3.589 1.906,-6.926 4.004,-10.011c2.098,-3.084 5.143,-5.6 9.135,-7.547c3.944,-1.924 7.765,-2.757 11.463,-2.499c3.698,0.258 7.155,1.272 10.371,3.043c3.215,1.771 6.104,4.122 8.665,7.054c2.561,2.932 4.666,6.087 6.313,9.465Zm-11.942,5.912c-0.778,-1.595 -1.856,-3.349 -3.235,-5.26c-1.379,-1.912 -2.947,-3.601 -4.704,-5.067c-1.757,-1.466 -3.66,-2.498 -5.708,-3.096c-2.048,-0.598 -4.13,-0.381 -6.247,0.651c-2.116,1.032 -3.575,2.528 -4.376,4.487c-0.801,1.958 -1.17,4.069 -1.108,6.333c0.062,2.264 0.422,4.527 1.079,6.791c0.658,2.263 1.375,4.193 2.153,5.788c0.847,1.735 1.953,3.606 3.318,5.612c1.365,2.005 2.914,3.747 4.647,5.225c1.733,1.477 3.654,2.486 5.763,3.025c2.108,0.54 4.317,0.246 6.626,-0.88c2.309,-1.126 3.864,-2.668 4.665,-4.627c0.801,-1.959 1.129,-4.064 0.983,-6.316c-0.146,-2.252 -0.619,-4.503 -1.419,-6.755c-0.801,-2.252 -1.613,-4.222 -2.437,-5.911Z" style="fill-rule:nonzero;"/></g><g><path d="M191.425,250.397l-50.955,24.852l39.764,81.529l50.955,-24.853l-39.764,-81.528Z" style="fill:none;"/><path d="M214.841,314.668l-40.383,19.696l-4.873,-9.99c0.952,-1.414 1.943,-2.935 2.973,-4.565c1.03,-1.629 2.06,-3.288 3.091,-4.977c1.031,-1.69 2.014,-3.385 2.948,-5.086c0.934,-1.701 1.806,-3.342 2.616,-4.924c0.582,-1.174 1.231,-2.617 1.947,-4.33c0.715,-1.714 1.286,-3.534 1.714,-5.463c0.428,-1.929 0.602,-3.942 0.522,-6.038c-0.08,-2.096 -0.611,-4.151 -1.593,-6.163c-1.191,-2.444 -2.811,-4.205 -4.857,-5.283c-2.046,-1.078 -4.494,-0.923 -7.343,0.467c-3.193,1.558 -4.891,3.75 -5.094,6.577c-0.202,2.828 0.844,5.906 3.137,9.236l-12.086,5.895l-1.406,-2.695c-1.453,-2.732 -2.328,-5.523 -2.624,-8.374c-0.296,-2.851 -0.023,-5.565 0.819,-8.14c0.842,-2.576 2.282,-4.984 4.322,-7.224c2.039,-2.24 4.68,-4.151 7.922,-5.733c3.194,-1.557 6.301,-2.48 9.323,-2.767c3.023,-0.288 5.82,-0.007 8.394,0.844c2.574,0.85 4.888,2.228 6.942,4.132c2.054,1.905 3.746,4.283 5.076,7.134c1.867,3.953 2.601,8.326 2.201,13.118c-0.399,4.792 -1.759,9.859 -4.079,15.202c-0.611,1.366 -1.34,2.833 -2.186,4.403c-0.846,1.569 -1.708,3.013 -2.586,4.33l20.045,-9.776l5.118,10.494Z" style="fill-rule:nonzero;"/></g></g></svg>