<?xml version="1.0" encoding="UTF-8" standalone="no"?><!DOCTYPE svg PUBLIC "-//W3C//DTD SVG 1.1//EN" "http://www.w3.org/Graphics/SVG/1.1/DTD/svg11.dtd"><svg width="100%" height="100%" viewBox="0 0 516 272" version="1.1" xmlns="http://www.w3.org/2000/svg" xmlns:xlink="http://www.w3.org/1999/xlink" xml:space="preserve" xmlns:serif="http://www.serif.com/" style="fill-rule:evenodd;clip-rule:evenodd;stroke-linejoin:round;stroke-miterlimit:2;"><g id="scale-value" transform="matrix(50,0,0,50,331.28,153.478)"></g><text x="185.358px" y="153.478px" style="font-family:'ArialMT', 'Arial', sans-serif;font-size:50px;">sw=23</text><clipPath id="_clip1"><rect x="0" y="0" width="515.906" height="271.654"/></clipPath><g clip-path="url(#_clip1)"><path d="M515.896,35.429c-0,-19.556 -15.877,-35.433 -35.433,-35.433l-445.02,0c-19.556,0 -35.433,15.877 -35.433,35.433l-0,200.795c-0,19.556 15.877,35.433 35.433,35.433l445.02,0c19.556,0 35.433,-15.877 35.433,-35.433l-0,-200.795Z"/><path d="M498.179,35.429c0,-9.778 -7.938,-17.716 -17.716,-17.716l-445.02,-0c-9.778,-0 -17.717,7.938 -17.717,17.716l0,200.795c0,9.778 7.939,17.717 17.717,17.717l445.02,-0c9.778,-0 17.716,-7.939 17.716,-17.717l0,-200.795Z" style="fill:#fff;"/><g><g><g><rect id="path1786" x="427.573" y="47.24" width="41.079" height="94.488" style="fill:#fff;"/><path id="path1788" d="M447.072,118.059l-12.92,-0l0,-47.159l12.92,-0l0,4.67l1.58,-1.59l1.75,-1.33l2,-1.171l2.17,-0.75l2.16,-0.499l2.25,-0.161l3.17,-0l-0,12.25l-4.42,-0l-1.83,0.159l-1.83,0.5l-1.67,0.84l-1.58,1.079l-1.25,1.25l-1.079,1.58l-0.84,1.67l-0.5,1.83l-0.082,1.84l0.001,24.992Z" style="fill:#010001;fill-rule:nonzero;"/></g><g><rect id="path1806" x="321.335" y="47.232" width="52.909" height="94.488" style="fill:#fff;"/><path id="path1808" d="M346.834,69.642l-2.42,0.17l-2.41,0.41l-2.34,0.75l-2.25,1.09l-2.08,1.25l-2.25,1.66l-2.079,2l-1.75,2.25l-1.42,2.42l-1.171,3l-0.83,3.17l-0.5,3.16l-0.17,3.249l0.251,3.25l0.59,3.17l0.91,3.08l1.169,3l1.079,2.17l1.42,2l1.5,1.83l1.83,1.67l1.92,1.41l2.08,1.25l2.25,0.92l2.34,0.67l2.99,0.58l3.09,0.25l3.08,-0.083l3.08,-0.34l3,-0.66l2.34,-0.84l2.16,-1.079l2,-1.42l1.83,-1.67l1.67,-1.83l-8,-8.08l-1.83,1.67l-2.08,1.33l-2.25,1l-2.17,0.58l-2.17,0.17l-2.16,-0.082l-2.17,-0.421l-2.08,-0.75l-1.42,-0.92l-1.25,-1.16l-1,-1.34l-0.75,-1.5l-0.41,-1.66l-0.17,-1.67l31.499,0l-0.17,-3.92l-0.42,-3.91l-0.831,-3.829l-1.17,-3.75l-1.08,-2.5l-1.42,-2.25l-1.659,-2.17l-2,-1.83l-2.17,-1.59l-2.08,-1.25l-2.25,-0.91l-2.42,-0.669l-2.42,-0.421l-2.408,-0.075Zm-0.25,10.75l1.66,-0l1.67,0.329l1.58,0.589l1.42,0.831l1.33,1.079l1.09,1.25l0.83,1.42l0.58,1.58l0.25,1.67l-19.159,0l0.25,-1.67l0.58,-1.58l0.84,-1.42l1.079,-1.25l1.33,-1.079l1.42,-0.831l1.58,-0.589l1.67,-0.329Z" style="fill:#010001;fill-rule:nonzero;"/></g><g><rect id="path1810" x="265.176" y="47.232" width="56.159" height="94.488" style="fill:#fff;"/><path id="path1812" d="M289.505,70.222l-2.84,0.17l-2.75,0.499l-2.66,0.921l-1.92,0.909l-1.83,1.17l-1.749,1.33l-1.5,1.59l-1.34,1.66l-1.33,2.42l-1.001,2.58l-0.83,2.59l-0.67,2.58l-0.41,2.67l-0.094,2.75l0.25,2.66l0.5,2.67l0.75,2.58l1,2.33l1.25,2.25l1.5,2.09l1.84,1.83l1.99,1.58l2.34,1.42l2.5,1.079l2.66,0.75l2.67,0.33l2.92,0.17l2.91,-0.33l2.84,-0.58l2.16,-0.75l2.09,-1.09l-0,2.5l-0.17,1.42l-0.5,1.33l-0.75,1.171l-1,1l-1.171,0.75l-1.33,0.42l-3.5,0.33l-3.92,-0.095l-3.909,-0.49l-2.42,-0.59l-2.42,-0.75l-2.25,-1.08l-2.16,-1.34l-6.08,10.42l3.83,1.83l4,1.42l4,1.17l4.16,0.91l3.249,0.25l3.34,0.095l3.25,-0.251l3.33,-0.589l2.67,-0.66l2.58,-1.001l2.41,-1.34l2.25,-1.66l1.59,-1.59l1.25,-1.829l1.079,-2l0.75,-2.08l0.5,-2.17l0.17,-2.25l0,-45.41l-12.83,0l0,2.42l-1.749,-1.17l-1.92,-0.83l-2,-0.5l-2.75,-0.5l-2.825,-0.089Zm1.66,11.25l2.09,0.17l1.91,0.58l1.92,0.839l1.08,0.75l1,1.001l0.75,1.16l0.5,1.25l0.34,1.33l-0,7.509l-0.34,1.74l-0.5,1.75l-0.58,1.26l-0.83,1.08l-1.09,0.83l-1.16,0.67l-1.75,0.58l-1.75,0.25l-1.84,0l-1.75,-0.25l-1.75,-0.5l-1.41,-0.67l-1.34,-0.909l-1.08,-1.17l-0.83,-1.33l-0.5,-1.42l-0.499,-1.91l-0.251,-2l0.083,-2l0.251,-1.92l0.579,-2.17l0.921,-2l0.669,-1.25l0.92,-1.08l1.08,-0.83l1.16,-0.67l2,-0.499l1.997,-0.171Z" style="fill:#010001;fill-rule:nonzero;"/></g><g><rect id="path1698" x="374.244" y="47.24" width="53.329" height="94.488" style="fill:#fff;"/><path id="path1700" d="M399.073,68.99l-3.08,0.16l-3,0.58l-3.75,1.09l-3.67,1.41l-3.499,1.67l-3.41,1.92l6.329,9.66l2.58,-1.58l2.67,-1.25l2.83,-1l2.92,-0.75l3,-0.421l1.66,-0.082l1.75,0.329l1.58,0.59l0.92,0.579l0.75,0.831l0.5,0.92l0.17,1.079l-0,3l-4.17,0.17l-4.08,0.5l-4.08,0.75l-4,1.08l-3.92,1.42l-1.66,1l-1.59,1.25l-1.42,1.5l-1.159,1.58l-0.921,1.83l-0.66,1.92l-0.34,2l-0.083,2l0.17,2l0.491,1.92l0.759,1.91l1,1.749l1.24,1.59l1.42,1.41l1.67,1.171l2.41,1.16l2.59,0.92l2.75,0.589l2.75,0.33l2.75,-0.083l2.66,-0.34l2.67,-0.66l1.42,-0.67l1.33,-0.83l1.079,-1.001l0.921,-1.25l1,1.33l1.25,1.001l1.42,0.75l2.58,1l2.66,0.58l2.75,0.329l4.59,-10.079l-1.091,-0l-1.079,-0.16l-1.08,-0.499l-0.839,-0.67l-0.661,-0.92l-0.42,-1.001l-0.17,-1.159l-0,-22.33l-0.161,-1.84l-0.42,-1.83l-0.75,-1.67l-0.92,-1.58l-1.25,-1.5l-1.41,-1.17l-1.59,-1.001l-2.25,-0.989l-2.41,-0.84l-2.92,-0.831l-3.08,-0.42l-2.996,-0.151Zm7.25,28.069l-0,6.75l-0.17,1.25l-0.58,1.17l-0.75,1.001l-1.09,0.75l-1.16,0.42l-2.33,0.33l-2.34,-0l-2.33,-0.33l-1.17,-0.42l-1.001,-0.75l-0.83,-0.92l-0.58,-1.08l-0.34,-1.079l-0,-1.171l0.34,-1.17l0.58,-0.911l0.83,-0.84l1.001,-0.58l3.92,-1l2.28,-0.47l1.719,-0.36l4.001,-0.59Z" style="fill:#010001;fill-rule:nonzero;"/></g></g><g><g><rect id="path1754" x="103.913" y="47.224" width="55.239" height="94.488" style="fill:#fff;"/><path id="path1756" d="M130.242,68.974l-2.59,0.161l-2.5,0.42l-2.5,0.75l-2.41,0.92l-2.25,1.24l-2.34,1.75l-2.08,2.09l-1.83,2.25l-1.499,2.58l-1.171,2.67l-0.161,0.499l-0.839,3.33l-0.5,3.42l-0.17,3.41l0.17,3.42l0.5,3.41l0.839,3.25l0.161,0.591l1.171,2.66l1.499,2.5l1.83,2.34l2.08,2.079l2.34,1.75l2.25,1.16l2.41,1.01l2.5,0.74l2.5,0.42l2.59,0.17l2.58,-0.17l2.58,-0.42l2.5,-0.74l2.42,-1.01l2.25,-1.16l2.33,-1.75l2.08,-2.079l1.84,-2.34l1.5,-2.5l1.16,-2.66l0.17,-0.591l0.83,-3.25l0.5,-3.41l0.094,-3.42l-0.094,-3.41l-0.5,-3.42l-0.83,-3.33l-0.17,-0.499l-1.16,-2.67l-1.5,-2.58l-1.84,-2.25l-2.08,-2.09l-2.33,-1.75l-2.25,-1.24l-2.42,-0.92l-2.5,-0.75l-2.58,-0.42l-2.58,-0.161Zm0,11.33l1.91,0.25l2,0.83l1.75,1.33l1.5,1.59l1.25,1.83l0.67,1.5l0.42,1.58l0.33,2.67l0.082,2.58l-0.082,2.58l-0.33,2.67l-0.42,1.58l-0.67,1.5l-1.25,1.84l-1.5,1.58l-1.75,1.33l-2,0.75l-1.91,0.34l-1.84,-0.34l-2,-0.75l-1.83,-1.33l-1.5,-1.58l-1.17,-1.84l-0.66,-1.5l-0.421,-1.58l-0.329,-2.67l-0.17,-2.58l0.17,-2.58l0.329,-2.67l0.421,-1.58l0.66,-1.5l1.17,-1.83l1.5,-1.59l1.83,-1.33l2,-0.83l1.84,-0.25Z" style="fill:#010001;fill-rule:nonzero;"/></g><g><rect id="path1682" x="159.152" y="47.224" width="76.497" height="94.488" style="fill:#fff;"/><path id="path1684" d="M196.395,88.888l-6.911,29.163l-15.081,-0l-13.251,-47.245l12.751,0l8.411,29.913l7.08,-29.913l14.091,0l7.081,29.913l8.331,-29.913l12.831,0l-13.251,47.245l-15.162,-0l-6.92,-29.163Z" style="fill:#010001;fill-rule:nonzero;"/></g><g id="L"><rect id="path1658" x="47.254" y="47.232" width="56.659" height="94.488" style="fill:#fff;"/><path id="path1660" d="M58.424,51.982l13.499,0l0,53.239l29.33,0l-0,12.92l-42.829,-0l-0,-66.159Z" style="fill:#010001;fill-rule:nonzero;"/></g></g></g><g><g><rect id="path17541" serif:id="path1754" x="220.665" y="141.736" width="55.239" height="94.488" style="fill:#fff;"/><path id="path17561" serif:id="path1756" d="M246.994,163.486l-2.59,0.16l-2.5,0.421l-2.5,0.75l-2.41,0.92l-2.25,1.24l-2.34,1.75l-2.08,2.09l-1.83,2.25l-1.5,2.58l-1.17,2.67l-0.161,0.499l-0.839,3.33l-0.5,3.42l-0.17,3.41l0.17,3.42l0.5,3.41l0.839,3.25l0.161,0.591l1.17,2.659l1.5,2.5l1.83,2.34l2.08,2.08l2.34,1.75l2.25,1.16l2.41,1.01l2.5,0.739l2.5,0.421l2.59,0.17l2.58,-0.17l2.58,-0.421l2.5,-0.739l2.42,-1.01l2.25,-1.16l2.33,-1.75l2.08,-2.08l1.84,-2.34l1.5,-2.5l1.159,-2.659l0.17,-0.591l0.831,-3.25l0.499,-3.41l0.095,-3.42l-0.095,-3.41l-0.499,-3.42l-0.831,-3.33l-0.17,-0.499l-1.159,-2.67l-1.5,-2.58l-1.84,-2.25l-2.08,-2.09l-2.33,-1.75l-2.25,-1.24l-2.42,-0.92l-2.5,-0.75l-2.58,-0.421l-2.58,-0.16Zm0,11.33l1.91,0.25l2,0.83l1.75,1.33l1.5,1.59l1.25,1.83l0.669,1.5l0.421,1.58l0.329,2.67l0.083,2.58l-0.083,2.58l-0.329,2.67l-0.421,1.58l-0.669,1.5l-1.25,1.84l-1.5,1.58l-1.75,1.33l-2,0.75l-1.91,0.34l-1.84,-0.34l-2,-0.75l-1.83,-1.33l-1.5,-1.58l-1.17,-1.84l-0.661,-1.5l-0.42,-1.58l-0.33,-2.67l-0.17,-2.58l0.17,-2.58l0.33,-2.67l0.42,-1.58l0.661,-1.5l1.17,-1.83l1.5,-1.59l1.83,-1.33l2,-0.83l1.84,-0.25Z" style="fill:#010001;fill-rule:nonzero;"/></g><g><rect id="path16821" serif:id="path1682" x="275.903" y="141.736" width="76.497" height="94.488" style="fill:#fff;"/><path id="path16841" serif:id="path1684" d="M313.147,183.4l-6.911,29.162l-15.081,0l-13.252,-47.244l12.752,0l8.41,29.913l7.081,-29.913l14.091,0l7.081,29.913l8.331,-29.913l12.831,0l-13.252,47.244l-15.161,0l-6.92,-29.162Z" style="fill:#010001;fill-rule:nonzero;"/></g><g><rect id="path1750" x="163.506" y="141.728" width="57.159" height="94.488" style="fill:#fff;"/><path id="path1752" d="M200.085,182.808l-0.34,-1.67l-0.75,-1.58l-1.001,-1.34l-1.25,-1.08l-1.75,-0.75l-1.91,-0.329l-1.92,0.082l-1.83,0.33l-1.839,0.75l-1.5,1l-1.33,1.25l-1.001,1.5l-0.669,1.59l-0.161,1.66l-0,28.33l-12.92,-0l0,-47.16l12.92,0l-0,3.33l1.91,-1.5l2.09,-1.25l2.16,-0.909l2.34,-0.591l2.33,-0.329l2.42,0.083l2.75,0.499l2.41,0.84l2.329,1.16l2.09,1.42l1.91,1.67l1.67,1.91l1.42,2.17l1.08,2.5l0.75,2.579l0.42,2.67l0.161,2.75l0,28.16l-12.91,-0l12.91,-0l-12.91,-0l0,-28.08l-0.079,-1.665Z" style="fill:#010001;fill-rule:nonzero;"/></g></g></g></svg>