<?xml version="1.0" encoding="UTF-8" standalone="no"?><!DOCTYPE svg PUBLIC "-//W3C//DTD SVG 1.1//EN" "http://www.w3.org/Graphics/SVG/1.1/DTD/svg11.dtd"><svg width="100%" height="100%" viewBox="0 0 634 272" version="1.1" xmlns="http://www.w3.org/2000/svg" xmlns:xlink="http://www.w3.org/1999/xlink" xml:space="preserve" xmlns:serif="http://www.serif.com/" style="fill-rule:evenodd;clip-rule:evenodd;stroke-linejoin:round;stroke-miterlimit:2;"><g id="scale-value" transform="matrix(50,0,0,50,390.204,171.768)"></g><text x="244.281px" y="171.768px" style="font-family:'ArialMT', 'Arial', sans-serif;font-size:50px;">sw=23</text><clipPath id="_clip1"><rect x="0" y="-0" width="633.753" height="271.661"/></clipPath><g clip-path="url(#_clip1)"><rect id="_527-500-yds" serif:id="527 500 yds" x="-0" y="-0" width="633.753" height="271.661" style="fill:none;"/><clipPath id="_clip2"><rect x="-0" y="-0" width="633.753" height="271.661"/></clipPath><g clip-path="url(#_clip2)"><g><path d="M633.753,35.433c0,-19.556 -15.877,-35.433 -35.433,-35.433l-562.887,-0c-19.556,-0 -35.433,15.877 -35.433,35.433l-0,200.795c-0,19.556 15.877,35.433 35.433,35.433l562.887,0c19.556,0 35.433,-15.877 35.433,-35.433l0,-200.795Z"/><path d="M616.037,35.433c-0,-9.778 -7.939,-17.716 -17.717,-17.716l-562.887,-0c-9.778,-0 -17.716,7.938 -17.716,17.716l-0,200.795c-0,9.778 7.938,17.717 17.716,17.717l562.887,-0c9.778,-0 17.717,-7.939 17.717,-17.717l-0,-200.795Z" style="fill:#fff;"/><g><g><g><rect id="path1818" x="481.186" y="141.748" width="57.159" height="94.488" style="fill:#fff;"/><path id="path1820" d="M518.345,146.498l0,21.16l-2.16,-1.42l-2.25,-1.16l-2.42,-0.84l-2.409,-0.58l-2.59,-0.25l-2.5,0.094l-2.5,0.33l-2.5,0.66l-2.33,0.92l-2.25,1.25l-2.08,1.42l-2.13,2.04l-1.71,2.21l-1.25,2.37l-1.33,3.46l-0.83,3.33l-0.58,3.42l-0.251,3.42l0.161,3.41l0.42,3.42l0.831,3.329l1.09,3.25l1.24,2.5l1.5,2.25l1.84,2.08l2.08,1.75l2.33,1.42l2.75,1.08l2.92,0.75l2.92,0.34l2.91,-0l2.92,-0.421l2.829,-0.75l2,-0.75l1.75,-1.17l1.58,-1.41l0,3.25l12.92,0l0,-66.159l-12.921,-0.003Zm-9.909,28.329l1.909,0.251l1.92,0.58l1.67,0.92l1.58,1.16l1.08,1.25l0.84,1.34l0.58,1.5l0.329,1.66l0,10.169l-0.159,1.25l-0.34,1.25l-0.58,1.08l-0.75,1.079l-1.33,1.42l-1.5,1.171l-1.67,0.83l-1.83,0.58l-1.92,0.251l-1.91,-0.161l-1.84,-0.421l-1.5,-0.579l-1.41,-0.84l-1.171,-1.08l-1,-1.25l-0.75,-1.42l-0.83,-2.5l-0.421,-2.66l-0.25,-2.58l0.17,-2.67l0.41,-2.58l0.75,-2.589l0.75,-1.66l0.839,-1.25l1.16,-1.091l1.59,-1.079l1.75,-0.75l1.91,-0.5l1.924,-0.081Z" style="fill:#010001;fill-rule:nonzero;"/></g><g><rect id="path1762" x="430.192" y="141.748" width="50.995" height="94.488" style="fill:#fff;"/><path id="path1764" d="M444.103,227.906l-4.581,-0.411l-4.5,-0.749l1.58,-11.341l6.671,0.92l1.08,-0.083l1,-0.341l1.001,-0.58l0.75,-0.75l0.5,-0.919l0.341,-1.081l-0,-1.079l-0.17,-1.09l-16.162,-45.074l12.991,-0l10.251,28.582l10.251,-28.582l13.081,-0l-20.081,55.995l-0.751,1.58l-1,1.5l-1.251,1.25l-1.41,1l-1.59,0.75l-1.75,0.419l-1.75,0.171l-4.501,-0.087Z" style="fill:#010001;fill-rule:nonzero;"/></g><g><rect id="path1674" x="538.345" y="141.748" width="48.164" height="94.488" style="fill:#fff;"/><path id="path1676" d="M551.096,198.413l2,1.58l2.16,1.25l2.341,1l2.41,0.671l2.5,0.33l2.25,-0l1.59,-0.581l1.33,-0.92l0.751,-0.749l0.5,-1l0.08,-1.081l-0.25,-1.09l-0.58,-0.91l-0.83,-0.671l-3.25,-1.25l-3.341,-0.67l-3,-0.5l-4.08,-1l-2.001,-0.66l-1.83,-1l-1.67,-1.25l-1.5,-1.42l-1.25,-1.58l-1.08,-1.751l-0.67,-2.09l-0.41,-2.16l-0,-2.17l0.25,-2.16l0.58,-2.171l0.92,-1.92l1.25,-1.83l1.41,-1.58l1.59,-1.42l1.831,-1.171l1.91,-0.91l2.09,-0.59l3,-0.66l3.001,-0.34l3.08,-0l3.08,0.249l3.09,0.59l2.501,0.75l2.41,1l2.34,1.33l2.24,1.42l2,1.75l-7.99,8.491l-2.251,-1.83l-2.5,-1.5l-2.67,-1.16l-1.5,-0.419l-1.58,-0.25l-1.59,0l-1.661,0.42l-1.5,0.749l-1.34,1l-0.66,0.83l-0.34,0.92l0.09,1.081l0.33,0.91l0.58,0.841l1,0.58l5.501,1.081l5,0.67l1.92,0.33l0.081,-0l1.92,0.67l1.83,0.83l1.84,1.09l1.66,1.41l1.42,1.59l1.16,1.75l0.841,1.911l0.58,2.09l0.33,2.08l-0.083,2.17l-0.33,2.08l-0.67,2.08l-1.08,2.091l-1.34,1.91l-1.581,1.75l-1.83,1.5l-2,1.17l-3.25,1.001l-3.331,0.659l-3.42,0.341l-3.33,-0l-3.42,-0.341l-3.331,-0.659l-3,-0.92l-2.92,-1.25l-2.66,-1.58l-2.501,-1.841l-2.34,-2.16l9.421,-8.67l1.752,1.839Z" style="fill:#010001;fill-rule:nonzero;"/></g></g><g><g><rect id="path1854" x="273.658" y="141.748" width="69.409" height="94.488" style="fill:#fff;"/><path id="path1856" d="M306.327,144.748l-3.09,0.33l-2.91,0.67l-2.92,0.91l-2.75,1.34l-2.5,1.66l-2.41,1.92l-2.09,2.17l-1.999,3l-1.66,3.25l-1.34,3.41l-0.91,3.5l-0.84,4.089l-0.41,4.16l-0.09,4.25l0.09,4.17l0.41,4.16l0.84,4.17l0.91,3.5l1.34,3.33l1.66,3.25l1.999,3.08l2.09,2.17l2.41,1.92l2.5,1.58l2.75,1.33l2.92,1l2.91,0.59l3.09,0.33l4,-0l3,-0.33l2.91,-0.59l2.92,-1l2.75,-1.33l2.5,-1.58l2.41,-1.92l2.09,-2.17l2,-3.08l1.66,-3.25l1.34,-3.33l1,-3.5l0.75,-4.17l0.409,-4.16l0.09,-4.17l-0.09,-4.25l-0.409,-4.16l-0.75,-4.089l-1,-3.5l-1.34,-3.41l-1.66,-3.25l-2,-3l-2.09,-2.17l-2.41,-1.92l-2.5,-1.66l-2.75,-1.34l-2.92,-0.91l-2.91,-0.67l-3,-0.33l-4,-0Zm2,12.33l1.83,0.08l1.83,0.42l1.75,0.67l1.67,0.91l1.5,1.17l1.25,1.42l1.08,1.5l0.84,1.75l1.08,3l0.66,3.25l0.42,4.079l0.09,4.08l-0.09,4.08l-0.42,4l-0.66,3.25l-1.08,3.09l-0.84,1.66l-1.08,1.58l-1.25,1.34l-1.5,1.17l-1.67,0.91l-1.75,0.67l-1.83,0.41l-1.83,0.09l-1.92,-0.09l-1.83,-0.41l-1.75,-0.67l-1.67,-0.91l-1.5,-1.17l-1.25,-1.34l-1.08,-1.58l-0.84,-1.66l-1.08,-3.09l-0.58,-3.25l-0.42,-4l-0.17,-4.08l0.17,-4.08l0.42,-4.079l0.58,-3.25l1.08,-3l0.84,-1.75l1.08,-1.5l1.25,-1.42l1.5,-1.17l1.67,-0.91l1.75,-0.67l1.83,-0.42l1.92,-0.08Z" style="fill:#010001;fill-rule:nonzero;"/></g><g><rect id="path18541" serif:id="path1854" x="343.066" y="141.748" width="69.409" height="94.488" style="fill:#fff;"/><path id="path18561" serif:id="path1856" d="M375.736,144.748l-3.09,0.33l-2.91,0.67l-2.92,0.91l-2.75,1.34l-2.5,1.66l-2.41,1.92l-2.09,2.17l-2,3l-1.66,3.25l-1.34,3.41l-0.91,3.5l-0.84,4.089l-0.41,4.16l-0.09,4.25l0.09,4.17l0.41,4.16l0.84,4.17l0.91,3.5l1.34,3.33l1.66,3.25l2,3.08l2.09,2.17l2.41,1.92l2.5,1.58l2.75,1.33l2.92,1l2.91,0.59l3.09,0.33l4,-0l3,-0.33l2.91,-0.59l2.919,-1l2.75,-1.33l2.5,-1.58l2.41,-1.92l2.09,-2.17l2,-3.08l1.66,-3.25l1.34,-3.33l1,-3.5l0.75,-4.17l0.41,-4.16l0.09,-4.17l-0.09,-4.25l-0.41,-4.16l-0.75,-4.089l-1,-3.5l-1.34,-3.41l-1.66,-3.25l-2,-3l-2.09,-2.17l-2.41,-1.92l-2.5,-1.66l-2.75,-1.34l-2.919,-0.91l-2.91,-0.67l-3,-0.33l-4,-0Zm2,12.33l1.83,0.08l1.83,0.42l1.75,0.67l1.67,0.91l1.5,1.17l1.249,1.42l1.08,1.5l0.84,1.75l1.08,3l0.66,3.25l0.42,4.079l0.09,4.08l-0.09,4.08l-0.42,4l-0.66,3.25l-1.08,3.09l-0.84,1.66l-1.08,1.58l-1.249,1.34l-1.5,1.17l-1.67,0.91l-1.75,0.67l-1.83,0.41l-1.83,0.09l-1.92,-0.09l-1.83,-0.41l-1.75,-0.67l-1.67,-0.91l-1.5,-1.17l-1.25,-1.34l-1.08,-1.58l-0.84,-1.66l-1.08,-3.09l-0.58,-3.25l-0.42,-4l-0.17,-4.08l0.17,-4.08l0.42,-4.079l0.58,-3.25l1.08,-3l0.84,-1.75l1.08,-1.5l1.25,-1.42l1.5,-1.17l1.67,-0.91l1.75,-0.67l1.83,-0.42l1.92,-0.08Z" style="fill:#010001;fill-rule:nonzero;"/></g><g><rect id="path1882" x="211.339" y="141.748" width="62.319" height="94.488" style="fill:#fff;"/><path id="path1884" d="M250.578,180.157l-1.66,-1.25l-1.84,-1l-2,-0.58l-2,-0.17l-2.08,0.08l-2,0.5l-1.91,0.92l-1.67,1.17l-1.499,1.41l-1.17,1.75l-13.75,-2.16l5,-34.329l40.999,-0l-0,12.25l-29.41,-0l-1.42,9.83l2.17,-1.33l2.25,-1.09l2.41,-0.83l2.5,-0.5l2.58,-0.17l2.5,0.09l2.59,0.41l2.41,0.75l2.34,1l2.16,1.34l2,1.49l2,1.919l1.75,2.08l1.5,2.25l1.09,2.25l0.66,2.34l0.5,3.58l0.17,3.67l-0.17,3.66l-0.41,3.59l-0.67,3.58l-0.75,2.41l-1.17,2.25l-1.33,2.09l-1.67,1.91l-1.83,1.75l-2.08,1.42l-2.25,1.17l-2.92,1.08l-3,0.83l-3.08,0.5l-3.17,0.17l-3.08,-0.17l-3.08,-0.5l-3,-0.83l-2.919,-1.17l-2.33,-1.25l-2.09,-1.41l-1.91,-1.75l-1.67,-1.92l-1.5,-2.17l-1.17,-2.25l-0.91,-2.41l-0.59,-2.5l13.09,-3.75l0.33,1.92l0.669,1.75l1,1.66l1.33,1.5l1.5,1.17l1.67,0.91l1.91,0.59l1.92,0.25l1.91,-0.09l1.84,-0.41l1.83,-0.75l1.58,-1l1.42,-1.34l1.17,-1.58l0.91,-1.75l0.67,-1.91l0.42,-1.92l0.08,-2l-0.17,-2l-0.41,-1.92l-1.17,-2.7l-1.92,-2.38Z" style="fill:#010001;fill-rule:nonzero;"/></g></g><g><g><rect id="path1786" x="140.732" y="141.74" width="41.079" height="94.488" style="fill:#fff;"/><path id="path1788" d="M160.232,212.559l-12.92,-0l0,-47.159l12.92,-0l-0,4.67l1.58,-1.59l1.75,-1.33l2,-1.171l2.17,-0.75l2.16,-0.499l2.25,-0.161l3.169,0l0,12.25l-4.419,-0l-1.83,0.159l-1.83,0.5l-1.67,0.84l-1.58,1.079l-1.25,1.25l-1.08,1.58l-0.839,1.67l-0.5,1.83l-0.083,1.84l0.002,24.992Z" style="fill:#010001;fill-rule:nonzero;"/></g><g><rect id="path1754" x="85.493" y="141.74" width="55.239" height="94.488" style="fill:#fff;"/><path id="path1756" d="M111.823,163.49l-2.59,0.16l-2.5,0.421l-2.5,0.75l-2.41,0.92l-2.25,1.24l-2.34,1.75l-2.08,2.09l-1.83,2.25l-1.5,2.58l-1.17,2.67l-0.161,0.499l-0.84,3.33l-0.499,3.42l-0.17,3.41l0.17,3.42l0.499,3.41l0.84,3.25l0.161,0.59l1.17,2.66l1.5,2.5l1.83,2.34l2.08,2.08l2.34,1.75l2.25,1.16l2.41,1.01l2.5,0.739l2.5,0.421l2.59,0.17l2.58,-0.17l2.58,-0.421l2.5,-0.739l2.42,-1.01l2.25,-1.16l2.33,-1.75l2.08,-2.08l1.839,-2.34l1.5,-2.5l1.16,-2.66l0.17,-0.59l0.831,-3.25l0.499,-3.41l0.095,-3.42l-0.095,-3.41l-0.499,-3.42l-0.831,-3.33l-0.17,-0.499l-1.16,-2.67l-1.5,-2.58l-1.839,-2.25l-2.08,-2.09l-2.33,-1.75l-2.25,-1.24l-2.42,-0.92l-2.5,-0.75l-2.58,-0.421l-2.58,-0.16Zm-0,11.33l1.91,0.25l2,0.83l1.75,1.33l1.5,1.59l1.25,1.83l0.669,1.5l0.421,1.58l0.329,2.67l0.083,2.58l-0.083,2.58l-0.329,2.67l-0.421,1.58l-0.669,1.5l-1.25,1.84l-1.5,1.58l-1.75,1.33l-2,0.75l-1.91,0.34l-1.84,-0.34l-2,-0.75l-1.83,-1.33l-1.5,-1.58l-1.17,-1.84l-0.661,-1.5l-0.42,-1.58l-0.33,-2.67l-0.17,-2.58l0.17,-2.58l0.33,-2.67l0.42,-1.58l0.661,-1.5l1.17,-1.83l1.5,-1.59l1.83,-1.33l2,-0.83l1.84,-0.25Z" style="fill:#010001;fill-rule:nonzero;"/></g><g><rect id="path1814" x="47.244" y="141.74" width="38.249" height="94.488" style="fill:#fff;"/><path id="path1816" d="M70.664,165.07l9.16,-0l-0,10.659l-9.16,0l-0,36.92l-12.92,-0l-0,-36.92l-7.58,0l0,-10.659l7.58,-0l-0,-6.92l0.17,-1.91l0.41,-1.92l0.84,-1.75l1,-1.67l1.33,-1.41l1.5,-1.25l1.67,-1l1.83,-0.67l1.92,-0.33l3.66,-0.094l3.67,0.17l3.58,0.42l3.58,0.75l-2.33,10.5l-3,-0.34l-3.17,0l-0.91,0.095l-0.92,0.41l-0.83,0.59l-0.58,0.75l-0.42,0.911l-0.095,1l0.015,3.668Z" style="fill:#010001;fill-rule:nonzero;"/></g></g></g><g><g><g><rect id="path17541" serif:id="path1754" x="162.837" y="47.244" width="55.239" height="94.488" style="fill:#fff;"/><path id="path17561" serif:id="path1756" d="M189.166,68.994l-2.59,0.16l-2.5,0.421l-2.5,0.75l-2.41,0.92l-2.25,1.24l-2.34,1.75l-2.08,2.09l-1.83,2.25l-1.5,2.58l-1.17,2.67l-0.161,0.499l-0.839,3.33l-0.5,3.42l-0.17,3.41l0.17,3.42l0.5,3.41l0.839,3.25l0.161,0.59l1.17,2.66l1.5,2.5l1.83,2.34l2.08,2.08l2.34,1.75l2.25,1.16l2.41,1.01l2.5,0.739l2.5,0.421l2.59,0.17l2.58,-0.17l2.58,-0.421l2.5,-0.739l2.42,-1.01l2.25,-1.16l2.33,-1.75l2.08,-2.08l1.84,-2.34l1.5,-2.5l1.159,-2.66l0.17,-0.59l0.831,-3.25l0.499,-3.41l0.095,-3.42l-0.095,-3.41l-0.499,-3.42l-0.831,-3.33l-0.17,-0.499l-1.159,-2.67l-1.5,-2.58l-1.84,-2.25l-2.08,-2.09l-2.33,-1.75l-2.25,-1.24l-2.42,-0.92l-2.5,-0.75l-2.58,-0.421l-2.58,-0.16Zm-0,11.329l1.91,0.251l2,0.83l1.75,1.33l1.5,1.59l1.25,1.83l0.669,1.5l0.421,1.58l0.329,2.67l0.083,2.58l-0.083,2.58l-0.329,2.67l-0.421,1.58l-0.669,1.5l-1.25,1.84l-1.5,1.58l-1.75,1.33l-2,0.75l-1.91,0.34l-1.84,-0.34l-2,-0.75l-1.83,-1.33l-1.5,-1.58l-1.17,-1.84l-0.661,-1.5l-0.42,-1.58l-0.33,-2.67l-0.17,-2.58l0.17,-2.58l0.33,-2.67l0.42,-1.58l0.661,-1.5l1.17,-1.83l1.5,-1.59l1.83,-1.33l2,-0.83l1.84,-0.251Z" style="fill:#010001;fill-rule:nonzero;"/></g><g><rect id="path1682" x="218.075" y="47.244" width="76.497" height="94.488" style="fill:#fff;"/><path id="path1684" d="M255.319,88.908l-6.911,29.162l-15.081,0l-13.252,-47.244l12.752,0l8.41,29.913l7.081,-29.913l14.091,0l7.081,29.913l8.331,-29.913l12.831,0l-13.252,47.244l-15.161,0l-6.92,-29.162Z" style="fill:#010001;fill-rule:nonzero;"/></g><g id="L"><rect id="path1658" x="106.178" y="47.252" width="56.659" height="94.488" style="fill:#fff;"/><path id="path1660" d="M117.347,52.002l13.5,-0l0,53.239l29.33,-0l-0,12.92l-42.83,-0l0,-66.159Z" style="fill:#010001;fill-rule:nonzero;"/></g></g><g><g><rect id="path17861" serif:id="path1786" x="486.496" y="47.252" width="41.079" height="94.488" style="fill:#fff;"/><path id="path17881" serif:id="path1788" d="M505.996,118.071l-12.92,-0l0,-47.16l12.92,0l-0,4.67l1.58,-1.59l1.75,-1.329l2,-1.171l2.17,-0.75l2.16,-0.5l2.25,-0.16l3.17,-0l-0,12.25l-4.42,-0l-1.83,0.159l-1.83,0.5l-1.67,0.839l-1.58,1.08l-1.25,1.25l-1.08,1.58l-0.839,1.67l-0.5,1.83l-0.083,1.84l0.002,24.992Z" style="fill:#010001;fill-rule:nonzero;"/></g><g><rect id="path1806" x="380.258" y="47.244" width="52.909" height="94.488" style="fill:#fff;"/><path id="path1808" d="M405.758,69.654l-2.42,0.17l-2.41,0.41l-2.34,0.75l-2.25,1.09l-2.08,1.25l-2.25,1.66l-2.08,2l-1.75,2.25l-1.42,2.42l-1.17,3l-0.83,3.169l-0.5,3.16l-0.17,3.25l0.25,3.25l0.591,3.17l0.909,3.08l1.17,3l1.079,2.17l1.42,2l1.5,1.83l1.83,1.67l1.92,1.41l2.08,1.25l2.25,0.92l2.34,0.67l2.99,0.58l3.09,0.25l3.08,-0.083l3.08,-0.34l3,-0.66l2.34,-0.84l2.16,-1.079l1.999,-1.42l1.83,-1.67l1.67,-1.83l-7.999,-8.08l-1.83,1.67l-2.08,1.33l-2.25,1l-2.17,0.58l-2.17,0.17l-2.16,-0.083l-2.17,-0.42l-2.08,-0.75l-1.42,-0.92l-1.25,-1.16l-1,-1.34l-0.75,-1.5l-0.41,-1.66l-0.17,-1.67l31.499,0l-0.17,-3.92l-0.42,-3.91l-0.831,-3.83l-1.17,-3.75l-1.08,-2.5l-1.42,-2.25l-1.66,-2.169l-2,-1.83l-2.17,-1.59l-2.08,-1.25l-2.25,-0.91l-2.42,-0.669l-2.419,-0.421l-2.408,-0.075Zm-0.25,10.749l1.66,0l1.669,0.33l1.58,0.589l1.42,0.831l1.33,1.079l1.091,1.25l0.83,1.42l0.58,1.58l0.25,1.67l-19.159,0l0.25,-1.67l0.58,-1.58l0.84,-1.42l1.079,-1.25l1.33,-1.079l1.42,-0.831l1.58,-0.589l1.67,-0.33Z" style="fill:#010001;fill-rule:nonzero;"/></g><g><rect id="path1810" x="324.1" y="47.244" width="56.159" height="94.488" style="fill:#fff;"/><path id="path1812" d="M348.429,70.234l-2.84,0.17l-2.75,0.499l-2.66,0.92l-1.92,0.91l-1.83,1.17l-1.75,1.33l-1.5,1.59l-1.34,1.66l-1.33,2.42l-1,2.58l-0.83,2.59l-0.67,2.58l-0.41,2.67l-0.094,2.75l0.25,2.66l0.5,2.67l0.75,2.58l1,2.33l1.25,2.25l1.5,2.09l1.84,1.83l1.99,1.58l2.34,1.42l2.5,1.079l2.66,0.75l2.67,0.33l2.92,0.17l2.91,-0.33l2.84,-0.58l2.16,-0.75l2.09,-1.09l-0,2.5l-0.171,1.42l-0.499,1.33l-0.75,1.17l-1.001,1.001l-1.17,0.75l-1.33,0.42l-3.5,0.33l-3.92,-0.095l-3.91,-0.49l-2.42,-0.59l-2.42,-0.75l-2.25,-1.08l-2.16,-1.34l-6.079,10.42l3.83,1.83l3.999,1.42l4,1.17l4.16,0.91l3.25,0.25l3.34,0.095l3.25,-0.251l3.33,-0.589l2.67,-0.66l2.58,-1.001l2.41,-1.34l2.25,-1.66l1.59,-1.59l1.25,-1.83l1.079,-2l0.75,-2.08l0.5,-2.17l0.17,-2.25l-0,-45.409l-12.83,0l0,2.42l-1.75,-1.17l-1.92,-0.83l-2,-0.5l-2.75,-0.5l-2.824,-0.089Zm1.66,11.249l2.09,0.171l1.91,0.579l1.92,0.84l1.079,0.75l1.001,1.001l0.75,1.159l0.499,1.25l0.341,1.33l-0,7.51l-0.341,1.74l-0.499,1.75l-0.58,1.26l-0.83,1.08l-1.091,0.83l-1.159,0.67l-1.75,0.58l-1.75,0.25l-1.84,-0l-1.75,-0.25l-1.75,-0.5l-1.41,-0.67l-1.34,-0.909l-1.08,-1.171l-0.83,-1.33l-0.5,-1.42l-0.499,-1.91l-0.251,-1.999l0.083,-2l0.25,-1.92l0.58,-2.17l0.92,-2l0.67,-1.25l0.92,-1.08l1.08,-0.83l1.16,-0.67l1.999,-0.499l1.998,-0.172Z" style="fill:#010001;fill-rule:nonzero;"/></g><g><rect id="path1698" x="433.167" y="47.252" width="53.329" height="94.488" style="fill:#fff;"/><path id="path1700" d="M457.997,69.002l-3.08,0.16l-3,0.58l-3.75,1.09l-3.67,1.41l-3.5,1.67l-3.41,1.92l6.33,9.66l2.58,-1.58l2.67,-1.25l2.83,-1l2.92,-0.75l3,-0.421l1.66,-0.083l1.75,0.33l1.58,0.589l0.92,0.58l0.75,0.831l0.5,0.92l0.17,1.079l-0,3l-4.17,0.17l-4.08,0.5l-4.08,0.75l-4,1.079l-3.92,1.42l-1.66,1.001l-1.59,1.25l-1.42,1.5l-1.16,1.58l-0.92,1.83l-0.66,1.92l-0.34,2l-0.083,1.999l0.17,2l0.49,1.92l0.76,1.91l1,1.75l1.24,1.59l1.42,1.41l1.67,1.171l2.41,1.16l2.59,0.92l2.75,0.589l2.75,0.33l2.75,-0.083l2.66,-0.34l2.67,-0.66l1.42,-0.67l1.33,-0.83l1.079,-1.001l0.92,-1.25l1.001,1.33l1.25,1.001l1.42,0.75l2.58,1l2.66,0.58l2.749,0.329l4.59,-10.08l-1.09,0l-1.079,-0.159l-1.08,-0.5l-0.84,-0.669l-0.66,-0.92l-0.42,-1.001l-0.17,-1.16l-0,-22.329l-0.161,-1.84l-0.42,-1.83l-0.75,-1.67l-0.921,-1.58l-1.25,-1.5l-1.41,-1.17l-1.589,-1.001l-2.25,-0.99l-2.41,-0.839l-2.92,-0.831l-3.08,-0.42l-2.996,-0.151Zm7.25,28.069l-0,6.75l-0.17,1.25l-0.58,1.17l-0.75,1.001l-1.09,0.75l-1.16,0.42l-2.33,0.33l-2.34,-0l-2.33,-0.33l-1.17,-0.42l-1.001,-0.75l-0.83,-0.92l-0.58,-1.08l-0.34,-1.079l-0,-1.171l0.34,-1.17l0.58,-0.911l0.83,-0.84l1.001,-0.58l3.919,-1l2.28,-0.47l1.72,-0.36l4.001,-0.59Z" style="fill:#010001;fill-rule:nonzero;"/></g></g></g></g></g></g></svg>