<?xml version="1.0" encoding="UTF-8" standalone="no"?><!DOCTYPE svg PUBLIC "-//W3C//DTD SVG 1.1//EN" "http://www.w3.org/Graphics/SVG/1.1/DTD/svg11.dtd"><svg width="100%" height="100%" viewBox="0 0 514 454" version="1.1" xmlns="http://www.w3.org/2000/svg" xmlns:xlink="http://www.w3.org/1999/xlink" xml:space="preserve" xmlns:serif="http://www.serif.com/" style="fill-rule:evenodd;clip-rule:evenodd;stroke-linejoin:round;stroke-miterlimit:2;"><g id="scale-value" transform="matrix(50,0,0,50,350.88,262.709)"></g><text x="163.258px" y="262.709px" style="font-family:'ArialMT', 'Arial', sans-serif;font-size:50px;">sw=38.4</text><g id="_528-Hump-Bridge" serif:id="528 Hump Bridge"><path d="M227.178,17.004c6.076,-10.522 17.302,-17.004 29.452,-17.004c12.149,0 23.376,6.482 29.452,17.004c54.065,93.625 168.545,291.872 222.619,385.514c6.077,10.524 6.079,23.491 0.003,34.016c-6.075,10.525 -17.303,17.009 -29.455,17.009l-445.238,0c-12.152,0 -23.38,-6.484 -29.455,-17.009c-6.076,-10.525 -6.074,-23.492 0.003,-34.016c54.074,-93.642 168.554,-291.889 222.619,-385.514Z" style="fill:#e31837;"/><path d="M256.665,56.708l202.961,351.496l-405.922,-0l202.961,-351.496Z" style="fill:#fff;"/><path d="M392.728,317.495l-0,60.473l-98.268,-0l0,-26.457c0,-14.952 -8.701,-27.888 -21.312,-34.016c-4.982,-2.421 -10.575,-3.779 -16.483,-3.779c-5.908,-0 -11.501,1.358 -16.483,3.779c-12.611,6.128 -21.312,19.064 -21.312,34.016l-0,26.457l-98.268,-0l-0,-60.473c-0,0 13.491,0 27.697,0c17.603,0 34.351,-7.592 45.952,-20.831c15.208,-17.36 37.543,-28.303 62.414,-28.303c22.021,0 42.055,8.58 56.938,22.575c18.023,17.039 41.885,26.533 66.688,26.533c7.287,0.026 12.437,0.026 12.437,0.026Z"/></g></svg>