<?xml version="1.0" encoding="UTF-8" standalone="no"?><!DOCTYPE svg PUBLIC "-//W3C//DTD SVG 1.1//EN" "http://www.w3.org/Graphics/SVG/1.1/DTD/svg11.dtd"><svg width="100%" height="100%" viewBox="0 0 514 454" version="1.1" xmlns="http://www.w3.org/2000/svg" xmlns:xlink="http://www.w3.org/1999/xlink" xml:space="preserve" xmlns:serif="http://www.serif.com/" style="fill-rule:evenodd;clip-rule:evenodd;stroke-linejoin:round;stroke-miterlimit:2;"><g id="scale-value" transform="matrix(50,0,0,50,350.88,262.709)"></g><text x="163.258px" y="262.709px" style="font-family:'ArialMT', 'Arial', sans-serif;font-size:50px;">sw=38.4</text><g id="_529.1-Tunnel-Ahead" serif:id="529.1 Tunnel Ahead"><path d="M227.178,17.004c6.076,-10.522 17.302,-17.004 29.452,-17.004c12.149,0 23.376,6.482 29.452,17.004c54.065,93.625 168.545,291.872 222.619,385.514c6.077,10.524 6.079,23.491 0.003,34.016c-6.075,10.525 -17.303,17.009 -29.455,17.009l-445.238,0c-12.152,0 -23.38,-6.484 -29.455,-17.009c-6.076,-10.525 -6.074,-23.492 0.003,-34.016c54.074,-93.642 168.554,-291.889 222.619,-385.514Z" style="fill:#e31837;"/><path d="M256.665,56.708l202.961,351.496l-405.922,-0l202.961,-351.496Z" style="fill:#fff;"/><path d="M327.514,211.665l34.908,60.484l-0,120.937l-211.654,-0l0,-120.937l34.908,-60.484l51.961,0l-0.608,-3.776l39.131,-0l-0.607,3.776l51.961,0Zm-7.423,49.7l23.804,-13.761l-16.797,-29.09l-20.989,26.754l13.982,16.097Zm-78.998,-29.09l-2.976,0.704l-2.911,0.864l-2.88,0.96l-2.816,1.088l-2.783,1.184l-2.752,1.344l-2.656,1.408l-2.623,1.568l-2.56,1.664l-2.464,1.761l-2.399,1.856l-2.304,1.952l-2.24,2.08l-2.112,2.144l-2.047,2.24l-1.952,2.336l-1.856,2.401l-1.76,2.496l-1.631,2.528l-1.536,2.624l-1.408,2.688l-1.312,2.752l-1.184,2.785l-1.056,2.848l-0.959,2.88l-0.832,2.912l-0.704,2.976l-0.576,2.977l-0.448,3.008l-0.32,3.008l-0.192,3.04l-0.064,3.041l-0,86.918l11.358,-0l0,-86.918l0.064,-2.817l0.192,-2.784l0.32,-2.752l0.448,-2.784l0.576,-2.72l0.704,-2.689l0.832,-2.688l0.928,-2.624l1.088,-2.592l1.184,-2.528l1.312,-2.465l1.407,-2.4l1.504,-2.336l1.632,-2.272l1.76,-2.208l1.824,-2.08l1.919,-2.016l2.016,-1.953l2.112,-1.824l2.207,-1.728l2.272,-1.632l2.336,-1.536l2.4,-1.408l2.463,-1.312l2.528,-1.184l2.592,-1.056l2.623,-0.96l2.656,-0.833l2.72,-0.704l2.719,-0.576l2.752,-0.448l2.784,-0.32l2.783,-0.192l2.816,-0.064l2.784,0.064l2.783,0.192l2.784,0.32l2.752,0.448l2.719,0.576l2.72,0.704l2.656,0.833l2.623,0.96l2.592,1.056l2.528,1.184l2.463,1.312l2.4,1.408l2.336,1.536l2.271,1.632l2.208,1.728l2.112,1.824l2.016,1.953l1.919,2.016l1.824,2.08l1.76,2.208l1.632,2.272l1.504,2.336l1.407,2.4l1.312,2.465l1.184,2.528l1.088,2.592l0.928,2.624l0.832,2.688l0.704,2.689l0.576,2.72l0.447,2.784l0.32,2.752l0.192,2.784l0.064,2.817l0,86.918l11.359,-0l-0,-86.918l-0.064,-3.041l-0.192,-3.04l-0.32,-3.008l-0.448,-3.008l-0.576,-2.977l-0.704,-2.976l-0.832,-2.912l-0.96,-2.88l-1.055,-2.848l-1.184,-2.785l-1.312,-2.752l-1.408,-2.688l-1.536,-2.624l-1.632,-2.528l-1.759,-2.496l-1.856,-2.401l-1.952,-2.336l-2.048,-2.24l-2.111,-2.144l-2.24,-2.08l-2.304,-1.952l-2.399,-1.856l-2.464,-1.761l-2.56,-1.664l-2.623,-1.568l-2.656,-1.408l-2.752,-1.344l-2.783,-1.184l-2.816,-1.088l-2.88,-0.96l-2.911,-0.864l-2.976,-0.704l-0.608,3.712l-2.944,-0.576l-2.975,-0.48l-2.976,-0.32l-3.007,-0.192l-2.976,-0.064l-3.008,0.064l-3.007,0.192l-2.976,0.32l-2.976,0.48l-2.943,0.576l-0.608,-3.712Zm62.104,10.592l21.469,-27.426l-22.717,0l-10.398,19.938l11.646,7.488Zm-93.204,0l2.783,-2.08l2.848,-1.92l2.976,-1.824l3.039,-1.664l-10.398,-19.938l-22.718,0l21.47,27.426Zm-28.989,63.301l-26.428,-0l-0,17.953l26.428,0l0,-17.953Zm0,-3.776l0.064,-2.881l0.16,-2.88l0.288,-2.848l0.384,-2.848l0.48,-2.848l0.608,-2.817l-28.412,-8.128l-0,25.25l26.428,-0Zm-26.428,25.505l-0,17.954l26.428,-0l0,-17.954l-26.428,0Zm26.428,21.73l-26.428,-0l-0,17.953l26.428,0l0,-17.953Zm12.095,-88.262l1.728,-2.528l1.791,-2.465l1.92,-2.368l1.984,-2.336l2.112,-2.208l2.175,-2.144l2.272,-2.048l-20.989,-26.754l-16.798,29.09l23.805,13.761Zm81.814,-45.924l-2.176,13.089l15.422,5.185l9.535,-18.274l-22.781,0Zm-90.997,66.181l0.928,-2.976l1.024,-2.912l1.152,-2.849l1.247,-2.816l1.376,-2.784l1.504,-2.688l-23.741,-13.697l-12.894,22.305l29.404,8.417Zm-2.912,89.734l-26.428,0l-0,17.954l26.428,-0l0,-17.954Zm57.273,-155.915l-22.781,0l9.535,18.274l2.976,-1.312l3.071,-1.152l3.072,-1.056l3.135,-0.897l3.168,-0.768l-2.176,-13.089Zm30.108,16.098l3.328,-19.874l-30.236,0l3.327,19.874l2.912,-0.416l2.944,-0.32l2.975,-0.16l2.976,-0.064l2.944,0.064l2.975,0.16l2.944,0.32l2.911,0.416Zm63.8,70.853l26.429,-0l0,-25.25l-28.413,8.128l1.984,17.122Zm-0,47.235l-0,17.953l26.429,0l-0,-17.953l-26.429,-0Zm-0,21.729l-0,17.954l26.429,-0l-0,-17.954l-26.429,0Zm-2.911,-89.734l29.404,-8.417l-12.894,-22.305l-23.741,13.697l7.231,17.025Zm29.34,46.275l-26.429,0l0,17.954l26.429,-0l0,-17.954Zm-26.429,-21.729l-0,17.953l26.429,0l-0,-17.953l-26.429,-0Z"/></g></svg>