<?xml version="1.0" encoding="UTF-8" standalone="no"?><!DOCTYPE svg PUBLIC "-//W3C//DTD SVG 1.1//EN" "http://www.w3.org/Graphics/SVG/1.1/DTD/svg11.dtd"><svg width="100%" height="100%" viewBox="0 0 514 454" version="1.1" xmlns="http://www.w3.org/2000/svg" xmlns:xlink="http://www.w3.org/1999/xlink" xml:space="preserve" xmlns:serif="http://www.serif.com/" style="fill-rule:evenodd;clip-rule:evenodd;stroke-linejoin:round;stroke-miterlimit:2;"><g id="scale-value" transform="matrix(50,0,0,50,350.88,262.709)"></g><text x="163.258px" y="262.709px" style="font-family:'ArialMT', 'Arial', sans-serif;font-size:50px;">sw=38.4</text><g id="_529-Opening-or-Swing-Bridge" serif:id="529 Opening or Swing Bridge"><path d="M227.178,17.004c6.076,-10.522 17.302,-17.004 29.452,-17.004c12.149,0 23.376,6.482 29.452,17.004c54.065,93.625 168.545,291.872 222.619,385.514c6.077,10.524 6.079,23.491 0.003,34.016c-6.075,10.525 -17.303,17.009 -29.455,17.009l-445.238,0c-12.152,0 -23.38,-6.484 -29.455,-17.009c-6.076,-10.525 -6.074,-23.492 0.003,-34.016c54.074,-93.642 168.554,-291.889 222.619,-385.514Z" style="fill:#e31837;"/><path d="M256.665,56.708l202.961,351.496l-405.922,-0l202.961,-351.496Z" style="fill:#fff;"/><path d="M154.618,377.968l-0,15.118l-75.591,-0l41.465,-71.811l34.126,-0l-0,22.677c0.656,-0 1.308,0.019 1.955,0.055c6.797,0.385 13.061,2.767 18.214,6.567c0.159,0.122 0.319,0.243 0.481,0.361c3.748,2.739 8.368,4.356 13.365,4.356c4.998,-0 9.618,-1.617 13.366,-4.356c0.162,-0.118 0.322,-0.239 0.481,-0.361c5.153,-3.8 11.417,-6.182 18.214,-6.567c0.647,-0.036 1.299,-0.055 1.955,-0.055c0.656,-0 1.308,0.019 1.955,0.055c6.798,0.385 13.061,2.767 18.214,6.567c0.159,0.122 0.32,0.243 0.482,0.361c3.721,2.72 8.303,4.333 13.26,4.355c4.957,-0.022 9.538,-1.635 13.26,-4.355c0.162,-0.118 0.323,-0.239 0.482,-0.361c5.152,-3.8 11.416,-6.182 18.214,-6.567c0.647,-0.036 1.298,-0.055 1.955,-0.055c0.656,-0 1.308,0.019 1.955,0.055c6.797,0.385 13.061,2.767 18.214,6.567c0.159,0.122 0.319,0.243 0.481,0.361c3.748,2.739 8.368,4.356 13.365,4.356c4.998,-0 9.618,-1.617 13.366,-4.356c0.162,-0.118 0.322,-0.239 0.481,-0.361c5.153,-3.8 11.417,-6.182 18.214,-6.567c0.647,-0.036 1.299,-0.055 1.955,-0.055c0.071,-0 0.141,0 0.21,0l0,-22.677l34.126,-0l41.465,71.811l-75.591,-0l0,-15.119c-0.07,0 -0.14,0.001 -0.21,0.001c-4.997,-0 -9.617,1.616 -13.365,4.355c-0.162,0.118 -0.323,0.239 -0.481,0.361c-5.153,3.801 -11.417,6.182 -18.214,6.567c-0.647,0.037 -1.299,0.055 -1.956,0.055c-0.656,0 -1.308,-0.018 -1.955,-0.055c-6.797,-0.385 -13.061,-2.766 -18.214,-6.566c-0.159,-0.123 -0.319,-0.244 -0.481,-0.362c-3.748,-2.739 -8.368,-4.355 -13.365,-4.355c-4.998,-0 -9.618,1.616 -13.366,4.355c-0.162,0.118 -0.322,0.239 -0.481,0.361c-5.153,3.801 -11.416,6.182 -18.214,6.567c-0.612,0.035 -1.229,0.053 -1.85,0.055c-0.621,-0.002 -1.238,-0.02 -1.85,-0.055c-6.798,-0.385 -13.061,-2.766 -18.214,-6.567c-0.159,-0.122 -0.32,-0.243 -0.482,-0.361c-3.748,-2.739 -8.367,-4.355 -13.365,-4.355c-4.997,-0 -9.617,1.616 -13.365,4.355c-0.162,0.118 -0.323,0.239 -0.481,0.362c-5.153,3.8 -11.417,6.181 -18.214,6.566c-0.647,0.037 -1.299,0.055 -1.956,0.055c-0.656,0 -1.308,-0.018 -1.955,-0.055c-6.797,-0.385 -13.061,-2.766 -18.214,-6.567c-0.159,-0.122 -0.319,-0.243 -0.481,-0.361c-3.748,-2.739 -8.368,-4.355 -13.365,-4.355Zm-0,-22.677l-0,11.338c0.656,0 1.308,0.019 1.955,0.055c6.797,0.386 13.061,2.767 18.214,6.567c0.159,0.123 0.319,0.243 0.481,0.362c3.748,2.738 8.368,4.355 13.365,4.355c4.998,-0 9.618,-1.617 13.366,-4.355c0.162,-0.119 0.322,-0.239 0.481,-0.362c5.153,-3.8 11.417,-6.181 18.214,-6.567c0.647,-0.036 1.299,-0.055 1.955,-0.055c0.656,0 1.308,0.019 1.955,0.055c6.798,0.386 13.061,2.767 18.214,6.567c0.159,0.123 0.32,0.243 0.482,0.362c3.721,2.719 8.303,4.332 13.26,4.354c4.957,-0.022 9.538,-1.635 13.26,-4.354c0.162,-0.119 0.323,-0.239 0.482,-0.362c5.152,-3.8 11.416,-6.181 18.214,-6.567c0.647,-0.036 1.298,-0.055 1.955,-0.055c0.656,0 1.308,0.019 1.955,0.055c6.797,0.386 13.061,2.767 18.214,6.567c0.159,0.123 0.319,0.243 0.481,0.362c3.748,2.738 8.368,4.355 13.365,4.355c4.998,-0 9.618,-1.617 13.366,-4.355c0.162,-0.119 0.322,-0.239 0.481,-0.362c5.153,-3.8 11.417,-6.181 18.214,-6.567c0.647,-0.036 1.299,-0.055 1.955,-0.055c0.071,0 0.141,0 0.21,0.001l0,-11.341c-0.07,0.001 -0.14,0.002 -0.21,0.002c-4.997,-0 -9.617,1.616 -13.365,4.355c-0.162,0.118 -0.323,0.239 -0.481,0.361c-5.153,3.801 -11.417,6.182 -18.214,6.567c-0.647,0.037 -1.299,0.055 -1.956,0.055c-0.656,0 -1.308,-0.018 -1.955,-0.055c-6.797,-0.385 -13.061,-2.766 -18.214,-6.567c-0.159,-0.122 -0.319,-0.243 -0.481,-0.361c-3.748,-2.739 -8.368,-4.355 -13.365,-4.355c-4.998,-0 -9.618,1.616 -13.366,4.355c-0.162,0.118 -0.322,0.239 -0.481,0.361c-5.153,3.801 -11.416,6.182 -18.214,6.567c-0.612,0.035 -1.229,0.053 -1.85,0.055c-0.621,-0.002 -1.238,-0.02 -1.85,-0.055c-6.798,-0.385 -13.061,-2.766 -18.214,-6.567c-0.159,-0.122 -0.32,-0.243 -0.482,-0.361c-3.748,-2.739 -8.367,-4.355 -13.365,-4.355c-4.997,-0 -9.617,1.616 -13.365,4.355c-0.162,0.118 -0.323,0.239 -0.481,0.361c-5.153,3.801 -11.417,6.182 -18.214,6.567c-0.647,0.037 -1.299,0.055 -1.956,0.055c-0.656,0 -1.308,-0.018 -1.955,-0.055c-6.797,-0.385 -13.061,-2.766 -18.214,-6.567c-0.159,-0.122 -0.319,-0.243 -0.481,-0.361c-3.748,-2.739 -8.368,-4.355 -13.365,-4.355Z"/><path d="M277.554,155.578l21.38,21.38l-144.316,144.317l-21.381,-21.38l144.317,-144.317Z"/></g></svg>