<?xml version="1.0" encoding="UTF-8" standalone="no"?><!DOCTYPE svg PUBLIC "-//W3C//DTD SVG 1.1//EN" "http://www.w3.org/Graphics/SVG/1.1/DTD/svg11.dtd"><svg width="100%" height="100%" viewBox="0 0 514 454" version="1.1" xmlns="http://www.w3.org/2000/svg" xmlns:xlink="http://www.w3.org/1999/xlink" xml:space="preserve" xmlns:serif="http://www.serif.com/" style="fill-rule:evenodd;clip-rule:evenodd;stroke-linejoin:round;stroke-miterlimit:2;"><g id="scale-value" transform="matrix(50,0,0,50,350.88,262.709)"></g><text x="163.258px" y="262.709px" style="font-family:'ArialMT', 'Arial', sans-serif;font-size:50px;">sw=38.4</text><g id="_530-Imperial" serif:id="530 Imperial"><path d="M227.178,17.004c6.076,-10.522 17.302,-17.004 29.452,-17.004c12.149,0 23.376,6.482 29.452,17.004c54.065,93.625 168.545,291.872 222.619,385.514c6.077,10.524 6.079,23.491 0.003,34.016c-6.075,10.525 -17.303,17.009 -29.455,17.009l-445.238,0c-12.152,0 -23.38,-6.484 -29.455,-17.009c-6.076,-10.525 -6.074,-23.492 0.003,-34.016c54.074,-93.642 168.554,-291.889 222.619,-385.514Z" style="fill:#e31837;"/><path d="M256.665,56.708l202.961,351.496l-405.922,-0l202.961,-351.496Z" style="fill:#fff;"/><path d="M256.665,268.411l-56.693,-98.195l0,-0.122l113.386,-0l-56.693,98.195"/><g><g><rect id="path1698" x="333.349" y="279.7" width="45.808" height="90.709" style="fill:none;"/><path id="path1768" d="M364.976,280.834l12.179,-0c0,-0 -9.655,16.708 -9.655,16.708c0,-0 -12.179,-0 -12.179,-0l9.655,-16.708Z" style="fill:#010001;fill-rule:nonzero;"/><path id="path17681" serif:id="path1768" d="M346.103,280.834l12.179,-0c-0,-0 -9.655,16.708 -9.655,16.708c-0,-0 -12.18,-0 -12.18,-0l9.656,-16.708Z" style="fill:#010001;fill-rule:nonzero;"/></g><g><rect id="path16981" serif:id="path1698" x="234.93" y="279.7" width="39.912" height="90.709" style="fill:none;"/><path id="path17682" serif:id="path1768" d="M248.49,308.686l21.408,0c-0.001,0 -0.001,9.565 -0.001,9.565c0,0 -21.407,0 -21.407,0l-0,-9.565Zm1.87,-27.852l12.179,-0c0,-0 -9.655,16.708 -9.655,16.708c0,-0 -12.179,-0 -12.179,-0l9.655,-16.708Z" style="fill:#010001;fill-rule:nonzero;"/></g><g><rect x="274.842" y="279.7" width="58.507" height="90.709" style="fill:none;"/><path d="M327.815,325.966c0,3.079 -0.494,5.937 -1.482,8.573c-0.988,2.636 -2.431,4.933 -4.327,6.89c-1.897,1.957 -4.194,3.497 -6.892,4.619c-2.698,1.122 -5.756,1.683 -9.175,1.683c-4.916,0 -9.003,-0.874 -12.262,-2.622c-3.258,-1.749 -5.876,-4.072 -7.852,-6.968c-1.977,-2.897 -3.38,-6.225 -4.208,-9.983c-0.828,-3.758 -1.242,-7.647 -1.242,-11.666c-0,-4.019 0.455,-7.959 1.365,-11.822c0.909,-3.862 2.368,-7.307 4.374,-10.335c2.007,-3.027 4.643,-5.467 7.907,-7.32c3.264,-1.853 7.251,-2.78 11.961,-2.78c4.388,0 8.187,0.94 11.398,2.819c3.211,1.879 5.833,4.619 7.867,8.221l-11.078,5.324c-2.087,-3.445 -5.003,-5.168 -8.749,-5.168c-2.997,0 -5.579,1.07 -7.747,3.21c-2.167,2.14 -3.438,5.507 -3.812,10.1c1.708,-1.409 3.643,-2.479 5.805,-3.21c2.163,-0.73 4.258,-1.096 6.287,-1.096c3.417,0 6.487,0.548 9.21,1.644c2.722,1.096 5.018,2.597 6.887,4.502c1.869,1.905 3.297,4.176 4.284,6.812c0.988,2.636 1.481,5.493 1.481,8.573Zm-12.843,-0.078c0,-3.132 -0.963,-5.625 -2.89,-7.477c-1.926,-1.853 -4.415,-2.78 -7.465,-2.78c-2.997,0 -5.459,0.927 -7.385,2.78c-1.927,1.852 -2.89,4.345 -2.89,7.477c0,3.131 0.963,5.637 2.89,7.516c1.926,1.879 4.388,2.818 7.385,2.818c3.05,0 5.539,-0.939 7.465,-2.818c1.927,-1.879 2.89,-4.385 2.89,-7.516Z" style="fill-rule:nonzero;"/></g><g><rect x="172.341" y="279.7" width="62.589" height="90.709" style="fill:none;"/><path d="M229.123,336.335l-7.094,-0l0,11.396l-14.021,0l-0,-11.396l-31.132,-0l0,-11.804l29.295,-40.296l15.858,0l0,40.215l7.094,-0l0,11.885Zm-20.948,-34.516l-16.442,22.631l16.442,-0l-0,-22.631Z" style="fill-rule:nonzero;"/></g><g><rect x="134.243" y="279.7" width="38.098" height="90.709" style="fill:none;"/><path d="M162.35,347.731l-13.855,0l-0,-43.551l-10.85,-0l-0,-10.502c2.17,-0.108 4.076,-0.298 5.717,-0.569c1.641,-0.272 2.963,-0.76 3.964,-1.466c0.946,-0.705 1.628,-1.601 2.045,-2.686c0.418,-1.085 0.737,-2.659 0.96,-4.722l12.019,0l-0,63.496Z" style="fill-rule:nonzero;"/></g></g><path d="M256.665,357.538l22.677,39.278l0,0.049l-45.354,0l22.677,-39.278"/></g></svg>