<?xml version="1.0" encoding="UTF-8" standalone="no"?><!DOCTYPE svg PUBLIC "-//W3C//DTD SVG 1.1//EN" "http://www.w3.org/Graphics/SVG/1.1/DTD/svg11.dtd"><svg width="100%" height="100%" viewBox="0 0 670 272" version="1.1" xmlns="http://www.w3.org/2000/svg" xmlns:xlink="http://www.w3.org/1999/xlink" xml:space="preserve" xmlns:serif="http://www.serif.com/" style="fill-rule:evenodd;clip-rule:evenodd;stroke-linejoin:round;stroke-miterlimit:2;"><g id="scale-value" transform="matrix(50,0,0,50,408.052,153.478)"></g><text x="262.129px" y="153.478px" style="font-family:'ArialMT', 'Arial', sans-serif;font-size:50px;">sw=23</text><g id="_530.1-Overhanging-Building" serif:id="530.1 Overhanging Building"><path d="M669.449,35.433l-0,200.787c-0,19.557 -15.877,35.434 -35.433,35.434l-598.583,-0c-19.556,-0 -35.433,-15.877 -35.433,-35.434l-0,-200.787c-0,-19.556 15.877,-35.433 35.433,-35.433l598.583,0c19.556,0 35.433,15.877 35.433,35.433Z"/><path d="M651.732,35.433l0,200.787c0,9.778 -7.938,17.717 -17.716,17.717l-598.583,0c-9.778,0 -17.716,-7.939 -17.716,-17.717l-0,-200.787c-0,-9.778 7.938,-17.716 17.716,-17.716l598.583,-0c9.778,-0 17.716,7.938 17.716,17.716Z" style="fill:#fff;"/><g><g><rect id="path1698" x="484.724" y="47.244" width="25.984" height="94.488" style="fill:#fff;"/><path d="M504.341,59.373c0,2.108 -0.721,3.883 -2.163,5.325c-1.442,1.442 -3.189,2.163 -5.241,2.163c-2.108,-0 -3.883,-0.721 -5.325,-2.163c-1.442,-1.442 -2.163,-3.217 -2.163,-5.325c-0,-2.052 0.721,-3.799 2.163,-5.241c1.442,-1.442 3.217,-2.163 5.325,-2.163c2.052,-0 3.799,0.721 5.241,2.163c1.442,1.442 2.163,3.189 2.163,5.241Zm-0.832,58.737l-13.145,0l-0,-47.256l13.145,0l0,47.256Z" style="fill-rule:nonzero;"/></g><g><rect id="path16981" serif:id="path1698" x="264.567" y="47.244" width="56.22" height="94.488" style="fill:#fff;"/><path d="M313.664,118.11l-13.567,0l-0,-30.951c-0,-2.204 -0.58,-3.9 -1.738,-5.088c-1.159,-1.187 -2.813,-1.78 -4.961,-1.78c-2.431,-0 -4.424,0.706 -5.978,2.12c-1.555,1.413 -2.332,3.448 -2.332,6.105l-0,29.594l-13.398,0l-0,-66.141l13.398,-0l0.026,20.605c1.473,-1.243 3.215,-2.205 5.226,-2.883c2.011,-0.678 3.98,-1.017 5.905,-1.017c2.776,-0 5.255,0.424 7.436,1.271c2.181,0.848 4.007,2.021 5.48,3.52c1.472,1.498 2.591,3.278 3.356,5.342c0.765,2.063 1.147,4.339 1.147,6.826l0,32.477Z" style="fill-rule:nonzero;"/></g><g><rect id="path16982" serif:id="path1698" x="429.449" y="47.244" width="55.276" height="94.488" style="fill:#fff;"/><path d="M476.31,116.48c-0,3.289 -0.58,6.026 -1.739,8.209c-1.159,2.184 -2.723,3.923 -4.691,5.217c-1.968,1.294 -4.232,2.211 -6.793,2.75c-2.562,0.539 -5.244,0.809 -8.048,0.809c-3.127,-0 -6.335,-0.459 -9.624,-1.375c-3.289,-0.917 -6.2,-2.13 -8.735,-3.64l4.368,-10.028c2.696,1.294 5.135,2.224 7.319,2.79c2.184,0.566 4.435,0.849 6.753,0.849c1.079,-0 2.143,-0.094 3.195,-0.283c1.051,-0.189 1.981,-0.526 2.79,-1.011c0.809,-0.485 1.469,-1.132 1.982,-1.941c0.512,-0.809 0.768,-1.833 0.768,-3.073l-0,-3.963c-1.24,1.078 -2.75,1.927 -4.529,2.547c-1.779,0.62 -3.532,0.93 -5.257,0.93c-3.235,0 -6.093,-0.566 -8.573,-1.698c-2.48,-1.132 -4.556,-2.696 -6.228,-4.691c-1.671,-1.995 -2.938,-4.367 -3.801,-7.117c-0.862,-2.75 -1.294,-5.742 -1.294,-8.977c0,-2.966 0.485,-5.783 1.456,-8.452c0.971,-2.669 2.332,-5.001 4.084,-6.996c1.753,-1.995 3.815,-3.572 6.187,-4.731c2.373,-1.159 4.961,-1.739 7.764,-1.739c2.157,0 4.139,0.364 5.945,1.092c1.806,0.728 3.221,1.712 4.246,2.952l-0,-2.75l12.455,0l-0,44.32Zm-12.212,-23.454c-0,-1.402 -0.162,-2.736 -0.486,-4.003c-0.323,-1.267 -0.835,-2.372 -1.536,-3.316c-0.701,-0.944 -1.591,-1.698 -2.669,-2.265c-1.079,-0.566 -2.373,-0.849 -3.882,-0.849c-1.456,0 -2.723,0.283 -3.802,0.849c-1.078,0.567 -1.981,1.321 -2.709,2.265c-0.728,0.944 -1.267,2.049 -1.617,3.316c-0.351,1.267 -0.526,2.601 -0.526,4.003c-0,1.456 0.162,2.818 0.485,4.085c0.324,1.267 0.836,2.372 1.537,3.316c0.701,0.943 1.59,1.698 2.669,2.264c1.078,0.566 2.399,0.849 3.963,0.849c1.509,0 2.803,-0.283 3.882,-0.849c1.078,-0.566 1.968,-1.321 2.669,-2.264c0.701,-0.944 1.213,-2.049 1.536,-3.316c0.324,-1.267 0.486,-2.629 0.486,-4.085Z" style="fill-rule:nonzero;"/></g><g><rect id="path16983" serif:id="path1698" x="566.929" y="47.244" width="55.276" height="94.488" style="fill:#fff;"/><path d="M613.79,116.48c0,3.289 -0.579,6.026 -1.739,8.209c-1.159,2.184 -2.722,3.923 -4.69,5.217c-1.968,1.294 -4.233,2.211 -6.794,2.75c-2.561,0.539 -5.244,0.809 -8.047,0.809c-3.128,-0 -6.336,-0.459 -9.625,-1.375c-3.289,-0.917 -6.2,-2.13 -8.734,-3.64l4.367,-10.028c2.696,1.294 5.136,2.224 7.319,2.79c2.184,0.566 4.435,0.849 6.754,0.849c1.078,-0 2.143,-0.094 3.194,-0.283c1.052,-0.189 1.982,-0.526 2.79,-1.011c0.809,-0.485 1.47,-1.132 1.982,-1.941c0.512,-0.809 0.768,-1.833 0.768,-3.073l0,-3.963c-1.24,1.078 -2.75,1.927 -4.529,2.547c-1.779,0.62 -3.531,0.93 -5.257,0.93c-3.235,0 -6.093,-0.566 -8.573,-1.698c-2.48,-1.132 -4.556,-2.696 -6.227,-4.691c-1.672,-1.995 -2.939,-4.367 -3.801,-7.117c-0.863,-2.75 -1.294,-5.742 -1.294,-8.977c-0,-2.966 0.485,-5.783 1.455,-8.452c0.971,-2.669 2.332,-5.001 4.085,-6.996c1.752,-1.995 3.814,-3.572 6.187,-4.731c2.372,-1.159 4.96,-1.739 7.764,-1.739c2.156,0 4.138,0.364 5.944,1.092c1.806,0.728 3.222,1.712 4.246,2.952l0,-2.75l12.455,0l0,44.32Zm-12.212,-23.454c-0,-1.402 -0.162,-2.736 -0.485,-4.003c-0.324,-1.267 -0.836,-2.372 -1.537,-3.316c-0.701,-0.944 -1.591,-1.698 -2.669,-2.265c-1.078,-0.566 -2.372,-0.849 -3.882,-0.849c-1.456,0 -2.723,0.283 -3.801,0.849c-1.079,0.567 -1.982,1.321 -2.71,2.265c-0.728,0.944 -1.267,2.049 -1.617,3.316c-0.351,1.267 -0.526,2.601 -0.526,4.003c0,1.456 0.162,2.818 0.485,4.085c0.324,1.267 0.836,2.372 1.537,3.316c0.701,0.943 1.591,1.698 2.669,2.264c1.078,0.566 2.399,0.849 3.963,0.849c1.51,0 2.804,-0.283 3.882,-0.849c1.078,-0.566 1.968,-1.321 2.669,-2.264c0.701,-0.944 1.213,-2.049 1.537,-3.316c0.323,-1.267 0.485,-2.629 0.485,-4.085Z" style="fill-rule:nonzero;"/></g><g><rect id="path16984" serif:id="path1698" x="320.787" y="47.244" width="52.441" height="94.488" style="fill:#fff;"/><path d="M368.49,108.926l-5.215,9.184c-1.816,-0.104 -3.464,-0.558 -4.943,-1.362c-1.478,-0.804 -2.685,-1.855 -3.619,-3.152c-1.453,1.349 -3.152,2.361 -5.098,3.035c-1.946,0.675 -4.319,1.012 -7.121,1.012c-2.232,0 -4.372,-0.285 -6.422,-0.856c-2.049,-0.571 -3.852,-1.44 -5.409,-2.607c-1.557,-1.168 -2.802,-2.608 -3.736,-4.32c-0.934,-1.712 -1.401,-3.736 -1.401,-6.071c0,-2.283 0.337,-4.229 1.012,-5.837c0.675,-1.609 1.531,-2.971 2.568,-4.086c1.038,-1.116 2.219,-2.011 3.542,-2.686c1.323,-0.674 2.633,-1.193 3.93,-1.556c1.298,-0.364 2.517,-0.623 3.658,-0.779c1.142,-0.155 2.05,-0.259 2.725,-0.311c1.089,-0.104 2.477,-0.22 4.164,-0.35c1.686,-0.13 3.23,-0.247 4.631,-0.35l-0,-0.623c-0,-1.92 -0.441,-3.308 -1.324,-4.164c-0.882,-0.856 -2.412,-1.284 -4.592,-1.284c-2.283,-0 -4.462,0.272 -6.538,0.817c-2.075,0.545 -4.358,1.544 -6.849,2.996l-4.592,-9.729c3.165,-1.764 6.266,-3.035 9.301,-3.813c3.036,-0.779 6.188,-1.168 9.457,-1.168c5.656,0 9.962,1.401 12.92,4.203c2.957,2.802 4.436,7.005 4.436,12.609l0,14.554c0,1.972 0.338,3.464 1.012,4.476c0.675,1.012 1.842,1.751 3.503,2.218Zm-16.812,-5.837l-0,-5.526c-0.934,0.051 -1.92,0.103 -2.958,0.155c-1.038,0.052 -1.92,0.13 -2.646,0.234c-0.882,0.103 -1.803,0.207 -2.763,0.311c-0.96,0.104 -1.829,0.324 -2.608,0.662c-0.778,0.337 -1.426,0.817 -1.945,1.44c-0.519,0.622 -0.779,1.504 -0.779,2.646c0,1.505 0.649,2.646 1.946,3.424c1.297,0.779 2.776,1.168 4.437,1.168c2.646,-0 4.527,-0.441 5.642,-1.323c1.116,-0.882 1.674,-1.946 1.674,-3.191Z" style="fill-rule:nonzero;"/></g><g><rect id="path16985" serif:id="path1698" x="121.89" y="47.244" width="50.551" height="94.488" style="fill:#fff;"/><path d="M170.47,70.801l-15.98,47.244l-14.649,0l-15.98,-47.244l13.816,0l9.488,28.946l9.405,-28.946l13.9,0Z" style="fill-rule:nonzero;"/></g><g><rect id="path16986" serif:id="path1698" x="224.409" y="47.244" width="40.157" height="94.488" style="fill:#fff;"/><path d="M258.487,82.666l-1.911,-0.166c-1.772,-0.167 -3.434,-0.07 -4.985,0.29c-1.55,0.36 -2.907,0.983 -4.07,1.87c-1.164,0.886 -2.077,2.035 -2.742,3.447c-0.665,1.413 -0.997,3.088 -0.997,5.027l0,24.923l-13.293,0l0,-47.188l13.293,-0l0,4.901c1.606,-2.271 3.6,-3.932 5.982,-4.984c2.381,-1.053 5.289,-1.385 8.723,-0.997l-0,12.877Z" style="fill-rule:nonzero;"/></g><g><rect id="path16987" serif:id="path1698" x="373.228" y="47.244" width="56.22" height="94.488" style="fill:#fff;"/><path d="M422.195,118.11l-13.348,0l-0,-29.616c-0,-2.503 -0.581,-4.31 -1.742,-5.422c-1.162,-1.113 -2.821,-1.669 -4.978,-1.669c-1.051,0 -2.075,0.139 -3.07,0.417c-0.996,0.278 -1.881,0.723 -2.655,1.335c-0.774,0.612 -1.396,1.404 -1.867,2.378c-0.47,0.973 -0.705,2.183 -0.705,3.629l0,28.948l-13.348,0l0,-47.385l13.348,-0l-0.057,3.003c1.449,-1.335 3.19,-2.392 5.224,-3.17c2.035,-0.779 3.999,-1.168 5.894,-1.168c2.842,-0 5.336,0.417 7.482,1.251c2.146,0.834 3.957,1.988 5.434,3.462c1.477,1.474 2.577,3.198 3.301,5.173c0.725,1.974 1.087,4.129 1.087,6.465l-0,32.369Z" style="fill-rule:nonzero;"/></g><g><rect id="path16988" serif:id="path1698" x="510.709" y="47.244" width="56.22" height="94.488" style="fill:#fff;"/><path d="M559.675,118.11l-13.348,0l0,-29.616c0,-2.503 -0.581,-4.31 -1.742,-5.422c-1.161,-1.113 -2.821,-1.669 -4.977,-1.669c-1.052,0 -2.075,0.139 -3.071,0.417c-0.995,0.278 -1.88,0.723 -2.655,1.335c-0.774,0.612 -1.396,1.404 -1.866,2.378c-0.47,0.973 -0.705,2.183 -0.705,3.629l-0,28.948l-13.348,0l-0,-47.385l13.348,-0l-0.058,3.003c1.449,-1.335 3.19,-2.392 5.225,-3.17c2.034,-0.779 3.999,-1.168 5.893,-1.168c2.843,-0 5.337,0.417 7.482,1.251c2.146,0.834 3.957,1.988 5.434,3.462c1.477,1.474 2.577,3.198 3.302,5.173c0.724,1.974 1.086,4.129 1.086,6.465l0,32.369Z" style="fill-rule:nonzero;"/></g><g><rect id="path16989" serif:id="path1698" x="172.441" y="47.244" width="51.969" height="94.488" style="fill:#fff;"/><path d="M220.084,96.457l-0.157,1.968l-30.473,0c0.053,1.26 0.368,2.428 0.945,3.504c0.577,1.076 1.339,2.021 2.283,2.835c0.945,0.813 2.035,1.443 3.268,1.89c1.234,0.446 2.533,0.669 3.898,0.669c3.937,-0 7.323,-1.313 10.157,-3.937l6.614,8.11c-2.257,2.152 -4.737,3.793 -7.44,4.921c-2.704,1.129 -5.788,1.693 -9.252,1.693c-3.727,0 -7.035,-0.617 -9.922,-1.85c-2.887,-1.234 -5.315,-2.94 -7.283,-5.118c-1.969,-2.179 -3.465,-4.712 -4.488,-7.599c-1.024,-2.887 -1.536,-5.984 -1.536,-9.291c0,-3.202 0.486,-6.234 1.457,-9.095c0.971,-2.86 2.375,-5.341 4.213,-7.44c1.837,-2.1 4.12,-3.767 6.85,-5c2.73,-1.234 5.827,-1.851 9.291,-1.851c3.832,0 7.166,0.683 10,2.047c2.835,1.365 5.145,3.202 6.929,5.512c1.785,2.31 3.058,5.026 3.819,8.15c0.761,3.123 1.037,6.417 0.827,9.882Zm-12.362,-6.851c-0,-2.414 -0.879,-4.396 -2.638,-5.945c-1.758,-1.548 -3.924,-2.322 -6.496,-2.322c-2.467,-0 -4.514,0.826 -6.142,2.48c-1.627,1.653 -2.572,3.583 -2.834,5.787l18.11,0Z" style="fill-rule:nonzero;"/></g><g><rect x="47.244" y="47.244" width="74.646" height="94.488" style="fill:#fff;"/><path d="M115.965,85.243c-0,4.676 -0.669,9.026 -2.007,13.049c-1.338,4.024 -3.317,7.503 -5.937,10.439c-2.62,2.936 -5.895,5.233 -9.825,6.892c-3.93,1.658 -8.487,2.487 -13.671,2.487c-5.184,0 -9.727,-0.843 -13.629,-2.528c-3.902,-1.685 -7.163,-3.996 -9.783,-6.932c-2.62,-2.936 -4.599,-6.416 -5.937,-10.439c-1.338,-4.024 -2.007,-8.373 -2.007,-13.049c-0,-4.785 0.641,-9.203 1.923,-13.253c1.282,-4.051 3.219,-7.558 5.812,-10.521c2.592,-2.963 5.853,-5.274 9.783,-6.932c3.93,-1.658 8.542,-2.487 13.838,-2.487c5.24,-0 9.825,0.842 13.755,2.528c3.93,1.685 7.205,4.01 9.825,6.973c2.62,2.963 4.585,6.483 5.895,10.561c1.31,4.078 1.965,8.482 1.965,13.212Zm-14.549,0c-0,-2.827 -0.293,-5.505 -0.878,-8.033c-0.586,-2.528 -1.547,-4.744 -2.885,-6.647c-1.338,-1.903 -3.08,-3.398 -5.226,-4.485c-2.146,-1.088 -4.752,-1.631 -7.818,-1.631c-3.066,-0 -5.672,0.557 -7.818,1.671c-2.147,1.115 -3.889,2.61 -5.226,4.486c-1.338,1.876 -2.314,4.078 -2.927,6.606c-0.613,2.528 -0.92,5.206 -0.92,8.033c0,2.991 0.293,5.736 0.878,8.237c0.586,2.501 1.547,4.663 2.885,6.484c1.338,1.821 3.08,3.235 5.226,4.241c2.146,1.006 4.78,1.509 7.902,1.509c3.177,-0 5.839,-0.503 7.985,-1.509c2.146,-1.006 3.874,-2.42 5.184,-4.241c1.31,-1.821 2.244,-3.983 2.801,-6.484c0.558,-2.501 0.837,-5.246 0.837,-8.237Z" style="fill-rule:nonzero;"/></g></g><g><g><rect id="path169810" serif:id="path1698" x="267.165" y="141.732" width="25.984" height="94.488" style="fill:#fff;"/><path d="M286.782,153.861c0,2.108 -0.721,3.883 -2.163,5.325c-1.442,1.442 -3.189,2.163 -5.241,2.163c-2.108,-0 -3.883,-0.721 -5.325,-2.163c-1.442,-1.442 -2.163,-3.217 -2.163,-5.325c-0,-2.052 0.721,-3.799 2.163,-5.241c1.442,-1.442 3.217,-2.163 5.325,-2.163c2.052,-0 3.799,0.721 5.241,2.163c1.442,1.442 2.163,3.189 2.163,5.241Zm-0.832,58.737l-13.145,0l-0,-47.256l13.145,0l0,47.256Z" style="fill-rule:nonzero;"/></g><g><rect id="path169811" serif:id="path1698" x="379.134" y="141.732" width="25.984" height="94.488" style="fill:#fff;"/><path d="M398.751,153.861c-0,2.108 -0.721,3.883 -2.164,5.325c-1.442,1.442 -3.189,2.163 -5.241,2.163c-2.108,-0 -3.883,-0.721 -5.325,-2.163c-1.442,-1.442 -2.163,-3.217 -2.163,-5.325c0,-2.052 0.721,-3.799 2.163,-5.241c1.442,-1.442 3.217,-2.163 5.325,-2.163c2.052,-0 3.799,0.721 5.241,2.163c1.443,1.442 2.164,3.189 2.164,5.241Zm-0.832,58.737l-13.146,0l0,-47.256l13.146,0l-0,47.256Z" style="fill-rule:nonzero;"/></g><g><rect id="path169812" serif:id="path1698" x="461.339" y="141.732" width="55.276" height="94.488" style="fill:#fff;"/><path d="M508.2,210.969c-0,3.289 -0.58,6.025 -1.739,8.209c-1.159,2.183 -2.723,3.922 -4.691,5.216c-1.968,1.294 -4.233,2.211 -6.794,2.75c-2.561,0.539 -5.243,0.809 -8.047,0.809c-3.127,-0 -6.335,-0.459 -9.624,-1.375c-3.289,-0.917 -6.201,-2.13 -8.735,-3.64l4.367,-10.028c2.696,1.294 5.136,2.224 7.32,2.79c2.183,0.566 4.435,0.849 6.753,0.849c1.078,0 2.143,-0.094 3.195,-0.283c1.051,-0.189 1.981,-0.526 2.79,-1.011c0.809,-0.485 1.469,-1.132 1.981,-1.941c0.513,-0.809 0.769,-1.833 0.769,-3.073l-0,-3.963c-1.24,1.078 -2.75,1.927 -4.529,2.547c-1.78,0.621 -3.532,0.931 -5.257,0.931c-3.235,-0 -6.093,-0.567 -8.573,-1.699c-2.481,-1.132 -4.556,-2.696 -6.228,-4.691c-1.671,-1.995 -2.938,-4.367 -3.801,-7.117c-0.863,-2.75 -1.294,-5.742 -1.294,-8.977c-0,-2.966 0.485,-5.783 1.456,-8.452c0.97,-2.669 2.332,-5.001 4.084,-6.996c1.752,-1.995 3.815,-3.572 6.187,-4.731c2.372,-1.159 4.961,-1.739 7.764,-1.739c2.157,0 4.138,0.364 5.945,1.092c1.806,0.728 3.221,1.712 4.246,2.952l-0,-2.75l12.455,0l-0,44.321Zm-12.213,-23.455c0,-1.401 -0.161,-2.736 -0.485,-4.003c-0.323,-1.267 -0.836,-2.372 -1.537,-3.316c-0.701,-0.943 -1.59,-1.698 -2.669,-2.264c-1.078,-0.567 -2.372,-0.85 -3.882,-0.85c-1.455,0 -2.722,0.283 -3.801,0.85c-1.078,0.566 -1.981,1.321 -2.709,2.264c-0.728,0.944 -1.267,2.049 -1.618,3.316c-0.35,1.267 -0.525,2.602 -0.525,4.003c-0,1.456 0.161,2.818 0.485,4.085c0.323,1.267 0.836,2.372 1.537,3.316c0.7,0.943 1.59,1.698 2.668,2.264c1.079,0.566 2.4,0.849 3.963,0.849c1.51,0 2.804,-0.283 3.882,-0.849c1.079,-0.566 1.968,-1.321 2.669,-2.264c0.701,-0.944 1.214,-2.049 1.537,-3.316c0.324,-1.267 0.485,-2.629 0.485,-4.085Z" style="fill-rule:nonzero;"/></g><g><rect id="path169813" serif:id="path1698" x="152.835" y="141.732" width="57.638" height="94.488" style="fill:#fff;"/><path d="M203.706,188.694c0,3.375 -0.49,6.581 -1.472,9.618c-0.982,3.037 -2.426,5.695 -4.334,7.972c-1.907,2.278 -4.277,4.092 -7.111,5.442c-2.833,1.35 -6.073,2.025 -9.719,2.025c-1.85,-0 -3.687,-0.366 -5.511,-1.097c-1.824,-0.731 -3.38,-1.687 -4.67,-2.868l-0,2.53l-13.33,0l0,-65.888l13.33,-0l-0.024,20.079c1.46,-1.125 3.102,-1.997 4.926,-2.616c1.824,-0.618 3.719,-0.928 5.684,-0.928c3.537,0 6.695,0.717 9.474,2.152c2.779,1.434 5.108,3.332 6.989,5.694c1.881,2.362 3.312,5.09 4.295,8.184c0.982,3.093 1.473,6.327 1.473,9.701Zm-13.498,-0.168c0,-3.937 -0.97,-7.157 -2.91,-9.66c-1.941,-2.503 -4.683,-3.754 -8.226,-3.754c-0.956,-0 -1.926,0.168 -2.911,0.506c-0.984,0.337 -1.87,0.815 -2.657,1.434c-0.787,0.619 -1.434,1.35 -1.94,2.194c-0.507,0.843 -0.76,1.799 -0.76,2.868l0,12.402c0,1.124 0.281,2.109 0.844,2.952c0.562,0.844 1.265,1.547 2.109,2.109c0.844,0.563 1.772,0.985 2.784,1.266c1.012,0.281 1.94,0.422 2.784,0.422c1.687,-0 3.206,-0.338 4.556,-1.013c1.35,-0.675 2.489,-1.588 3.417,-2.741c0.928,-1.153 1.645,-2.503 2.151,-4.05c0.506,-1.547 0.759,-3.192 0.759,-4.935Z" style="fill-rule:nonzero;"/></g><g><rect id="path169814" serif:id="path1698" x="210.472" y="141.732" width="56.693" height="94.488" style="fill:#fff;"/><path d="M259.627,212.544l-13.317,-0l-0,-2.986c-1.443,1.327 -3.177,2.378 -5.202,3.151c-2.026,0.774 -3.981,1.161 -5.868,1.161c-2.83,0 -5.313,-0.414 -7.449,-1.243c-2.136,-0.83 -3.94,-1.977 -5.41,-3.442c-1.471,-1.465 -2.566,-3.178 -3.288,-5.141c-0.721,-1.962 -1.082,-4.104 -1.082,-6.426l0,-32.173l13.317,0l0,29.437c0,2.487 0.579,4.284 1.738,5.389c1.159,1.106 2.814,1.659 4.966,1.659c1.049,-0 2.07,-0.138 3.063,-0.415c0.994,-0.276 1.876,-0.718 2.649,-1.326c0.772,-0.609 1.393,-1.396 1.862,-2.364c0.469,-0.967 0.704,-2.169 0.704,-3.607l-0,-28.773l13.317,0l-0,47.099Z" style="fill-rule:nonzero;"/></g><g><rect id="path169815" serif:id="path1698" x="405.118" y="141.732" width="56.22" height="94.488" style="fill:#fff;"/><path d="M454.085,212.598l-13.348,0l-0,-29.616c-0,-2.502 -0.581,-4.31 -1.743,-5.422c-1.161,-1.113 -2.82,-1.669 -4.977,-1.669c-1.052,0 -2.075,0.139 -3.07,0.417c-0.996,0.278 -1.881,0.723 -2.655,1.335c-0.774,0.612 -1.397,1.404 -1.867,2.378c-0.47,0.973 -0.705,2.183 -0.705,3.629l0,28.948l-13.348,0l-0,-47.385l13.348,-0l-0.057,3.003c1.448,-1.335 3.19,-2.391 5.224,-3.17c2.035,-0.779 3.999,-1.168 5.893,-1.168c2.843,-0 5.337,0.417 7.483,1.251c2.145,0.835 3.957,1.989 5.433,3.462c1.477,1.474 2.578,3.198 3.302,5.173c0.725,1.974 1.087,4.129 1.087,6.465l-0,32.369Z" style="fill-rule:nonzero;"/></g><g><rect id="path169816" serif:id="path1698" x="322.913" y="141.732" width="56.22" height="94.488" style="fill:#fff;"/><path d="M373.87,212.345l-13.33,0l-0,-2.531c-1.294,1.182 -2.854,2.138 -4.682,2.869c-1.828,0.731 -3.67,1.097 -5.526,1.097c-3.656,-0 -6.89,-0.689 -9.702,-2.067c-2.812,-1.378 -5.174,-3.22 -7.087,-5.526c-1.912,-2.306 -3.374,-4.964 -4.387,-7.973c-1.012,-3.009 -1.518,-6.172 -1.518,-9.491c-0,-3.374 0.478,-6.608 1.434,-9.702c0.956,-3.093 2.376,-5.821 4.26,-8.183c1.885,-2.362 4.205,-4.26 6.96,-5.695c2.756,-1.434 5.934,-2.151 9.534,-2.151c1.968,0 3.88,0.309 5.736,0.928c1.856,0.619 3.516,1.491 4.978,2.615l-0,-20.078l13.33,-0l-0,65.888Zm-13.246,-17.801l0,-12.401c0,-1.069 -0.254,-2.025 -0.762,-2.869c-0.509,-0.843 -1.158,-1.574 -1.949,-2.193c-0.791,-0.619 -1.681,-1.097 -2.67,-1.434c-0.988,-0.338 -1.962,-0.506 -2.922,-0.506c-3.559,-0 -6.313,1.251 -8.262,3.754c-1.949,2.503 -2.923,5.723 -2.923,9.66c0,1.799 0.254,3.473 0.763,5.019c0.508,1.547 1.228,2.883 2.16,4.008c0.932,1.124 2.076,2.024 3.432,2.699c1.356,0.675 2.881,1.013 4.576,1.013c0.847,-0 1.779,-0.141 2.795,-0.422c1.017,-0.281 1.949,-0.703 2.796,-1.266c0.848,-0.562 1.554,-1.265 2.119,-2.109c0.565,-0.843 0.847,-1.828 0.847,-2.953Z" style="fill-rule:nonzero;"/></g><g><rect id="path169817" serif:id="path1698" x="293.15" y="141.732" width="29.764" height="94.488" style="fill:#fff;"/><path d="M321.732,211.188c-1.438,0.442 -2.96,0.788 -4.564,1.037c-1.605,0.249 -3.181,0.373 -4.73,0.373c-2.49,0 -4.634,-0.332 -6.432,-0.995c-1.798,-0.664 -3.264,-1.605 -4.398,-2.822c-1.135,-1.217 -1.964,-2.697 -2.49,-4.44c-0.526,-1.743 -0.788,-3.665 -0.788,-5.768l-0,-52.116l13.029,-0l-0,49.959c-0,2.877 1.355,4.315 4.066,4.315c0.83,0 1.632,-0.069 2.407,-0.207c0.774,-0.139 1.632,-0.374 2.572,-0.706l1.328,11.37Z" style="fill-rule:nonzero;"/></g></g></g></svg>