<?xml version="1.0" encoding="UTF-8" standalone="no"?><!DOCTYPE svg PUBLIC "-//W3C//DTD SVG 1.1//EN" "http://www.w3.org/Graphics/SVG/1.1/DTD/svg11.dtd"><svg width="100%" height="100%" viewBox="0 0 514 454" version="1.1" xmlns="http://www.w3.org/2000/svg" xmlns:xlink="http://www.w3.org/1999/xlink" xml:space="preserve" xmlns:serif="http://www.serif.com/" style="fill-rule:evenodd;clip-rule:evenodd;stroke-linejoin:round;stroke-miterlimit:2;"><g id="scale-value" transform="matrix(50,0,0,50,350.88,262.709)"></g><text x="163.258px" y="262.709px" style="font-family:'ArialMT', 'Arial', sans-serif;font-size:50px;">sw=38.4</text><g id="_530-Metric" serif:id="530 Metric"><path d="M227.178,17.004c6.076,-10.522 17.302,-17.004 29.452,-17.004c12.149,0 23.376,6.482 29.452,17.004c54.065,93.625 168.545,291.872 222.619,385.514c6.077,10.524 6.079,23.491 0.003,34.016c-6.075,10.525 -17.303,17.009 -29.455,17.009l-445.238,0c-12.152,0 -23.38,-6.484 -29.455,-17.009c-6.076,-10.525 -6.074,-23.492 0.003,-34.016c54.074,-93.642 168.554,-291.889 222.619,-385.514Z" style="fill:#e31837;"/><path d="M256.665,56.708l202.961,351.496l-405.922,-0l202.961,-351.496Z" style="fill:#fff;"/><path d="M256.665,261.857l-52.913,-91.649l-0,-0.114l105.826,-0l-52.913,91.648"/><g><rect id="path1698" x="301.555" y="279.7" width="78.463" height="90.709" style="fill:none;"/><path d="M372.782,347.731l-12.654,0l0,-28.511c0,-2.242 -0.517,-3.911 -1.552,-5.006c-1.035,-1.094 -2.401,-1.641 -4.099,-1.641c-0.796,-0 -1.632,0.173 -2.507,0.52c-0.876,0.347 -1.658,0.854 -2.348,1.522c-0.69,0.667 -1.261,1.522 -1.712,2.563c-0.451,1.041 -0.676,2.229 -0.676,3.564l-0,26.989l-12.734,0l-0.08,-28.591c-0,-2.296 -0.494,-3.978 -1.482,-5.046c-0.988,-1.068 -2.256,-1.601 -3.804,-1.601c-1.014,-0 -1.976,0.16 -2.883,0.48c-0.908,0.32 -1.722,0.814 -2.443,1.482c-0.721,0.667 -1.295,1.521 -1.722,2.563c-0.427,1.041 -0.641,2.309 -0.641,3.804l0,26.909l-12.653,0l-0,-45.49l12.653,0l0,2.803c1.335,-1.281 2.857,-2.269 4.566,-2.963c1.708,-0.694 3.39,-1.041 5.045,-1.041c2.51,-0 4.819,0.494 6.928,1.482c2.109,0.987 3.777,2.469 5.005,4.444c2.937,-4.004 7.395,-6.006 13.375,-6.006c5.179,-0 9.21,1.468 12.093,4.405c2.884,2.936 4.325,7.074 4.325,12.413l0,29.953Z" style="fill-rule:nonzero;"/></g><g><rect id="path16981" serif:id="path1698" x="208.488" y="266.094" width="30.478" height="108.85" style="fill:none;"/><path d="M231.891,339.52c0,2.292 -0.796,4.233 -2.387,5.824c-1.591,1.592 -3.501,2.387 -5.729,2.387c-2.292,0 -4.233,-0.795 -5.824,-2.387c-1.592,-1.591 -2.387,-3.532 -2.387,-5.824c-0,-2.228 0.795,-4.138 2.387,-5.729c1.591,-1.591 3.532,-2.387 5.824,-2.387c2.228,-0 4.138,0.796 5.729,2.387c1.591,1.591 2.387,3.501 2.387,5.729Z" style="fill-rule:nonzero;"/></g><g><rect x="133.381" y="266.094" width="75.107" height="108.85" style="fill:none;"/><path d="M201.521,334.055l-8.513,0l-0,13.676l-16.826,0l-0,-13.676l-37.358,0l0,-14.164l35.154,-48.355l19.03,0l-0,48.257l8.513,0l-0,14.262Zm-25.139,-41.419l-19.731,27.157l19.731,0l-0,-27.157Z" style="fill-rule:nonzero;"/></g><g><rect x="238.966" y="279.7" width="62.589" height="90.709" style="fill:none;"/><path d="M295.749,336.335l-7.094,-0l-0,11.396l-14.022,0l0,-11.396l-31.131,-0l-0,-11.804l29.295,-40.296l15.858,0l-0,40.215l7.094,-0l0,11.885Zm-20.949,-34.516l-16.442,22.631l16.442,-0l0,-22.631Z" style="fill-rule:nonzero;"/></g><path d="M256.665,365.404l18.142,31.422l-0,0.039l-36.284,0l18.142,-31.422"/></g></svg>