<?xml version="1.0" encoding="UTF-8" standalone="no"?><!DOCTYPE svg PUBLIC "-//W3C//DTD SVG 1.1//EN" "http://www.w3.org/Graphics/SVG/1.1/DTD/svg11.dtd"><svg width="100%" height="100%" viewBox="0 0 514 454" version="1.1" xmlns="http://www.w3.org/2000/svg" xmlns:xlink="http://www.w3.org/1999/xlink" xml:space="preserve" xmlns:serif="http://www.serif.com/" style="fill-rule:evenodd;clip-rule:evenodd;stroke-linejoin:round;stroke-miterlimit:2;"><g id="scale-value" transform="matrix(50,0,0,50,350.88,262.709)"></g><text x="163.258px" y="262.709px" style="font-family:'ArialMT', 'Arial', sans-serif;font-size:50px;">sw=38.4</text><g id="_531.1-Metric" serif:id="531.1 Metric"><path d="M227.178,17.004c6.076,-10.522 17.302,-17.004 29.452,-17.004c12.149,0 23.376,6.482 29.452,17.004c54.065,93.625 168.545,291.872 222.619,385.514c6.077,10.524 6.079,23.491 0.003,34.016c-6.075,10.525 -17.303,17.009 -29.455,17.009l-445.238,0c-12.152,0 -23.38,-6.484 -29.455,-17.009c-6.076,-10.525 -6.074,-23.492 0.003,-34.016c54.074,-93.642 168.554,-291.889 222.619,-385.514Z" style="fill:#e31837;"/><path d="M256.665,56.708l202.961,351.496l-405.922,-0l202.961,-351.496Z" style="fill:#fff;"/><path d="M141.754,393.087l0,-65.209l0.056,0.256c28.684,-33.588 70.642,-52.927 114.816,-52.927c44.166,0 86.124,19.339 114.815,52.927l0.048,0.04l0,64.913l61.761,0l-61.761,-107.094l-0.088,0.12c-32.372,-26.508 -72.929,-40.99 -114.775,-40.99c-41.846,0 -82.403,14.482 -114.792,40.99l-0.08,-0.12l-61.744,107.094l61.744,0Zm155.955,-234.32l0.082,-0.144l0,0.144l-0.082,0l-40.659,70.674l-40.87,-70.674l81.529,0Z"/><g><g><g><rect id="path1698" x="293.916" y="328.834" width="65.386" height="75.591" style="fill:none;"/><path d="M353.272,385.527l-10.545,-0l-0,-23.76c-0,-1.869 -0.431,-3.259 -1.294,-4.171c-0.862,-0.912 -2.001,-1.368 -3.415,-1.368c-0.664,-0 -1.36,0.144 -2.09,0.433c-0.729,0.29 -1.382,0.712 -1.957,1.269c-0.574,0.556 -1.05,1.268 -1.426,2.135c-0.375,0.868 -0.563,1.858 -0.563,2.97l-0,22.492l-10.612,-0l-0.067,-23.827c0,-1.913 -0.411,-3.314 -1.234,-4.204c-0.823,-0.89 -1.88,-1.335 -3.171,-1.335c-0.845,-0 -1.646,0.133 -2.402,0.4c-0.757,0.267 -1.435,0.679 -2.036,1.235c-0.6,0.556 -1.079,1.268 -1.435,2.136c-0.356,0.867 -0.534,1.924 -0.534,3.17l0,22.425l-10.545,-0l0,-37.909l10.545,0l0,2.336c1.113,-1.068 2.381,-1.891 3.805,-2.469c1.423,-0.579 2.825,-0.868 4.204,-0.868c2.091,0 4.016,0.412 5.773,1.235c1.758,0.823 3.148,2.058 4.172,3.704c2.447,-3.337 6.162,-5.006 11.145,-5.006c4.316,0 7.675,1.224 10.078,3.671c2.403,2.447 3.604,5.895 3.604,10.345l-0,24.961Z" style="fill-rule:nonzero;"/></g><g><rect id="path16981" serif:id="path1698" x="216.36" y="317.495" width="25.398" height="90.709" style="fill:none;"/><path d="M235.863,378.684c-0,1.909 -0.663,3.527 -1.989,4.854c-1.327,1.326 -2.918,1.989 -4.775,1.989c-1.909,-0 -3.527,-0.663 -4.853,-1.989c-1.326,-1.327 -1.99,-2.945 -1.99,-4.854c0,-1.857 0.664,-3.448 1.99,-4.774c1.326,-1.326 2.944,-1.99 4.853,-1.99c1.857,0 3.448,0.664 4.775,1.99c1.326,1.326 1.989,2.917 1.989,4.774Z" style="fill-rule:nonzero;"/></g><g><rect x="154.678" y="317.495" width="61.682" height="90.709" style="fill:none;"/><path d="M205.806,366.533c0,2.878 -0.496,5.494 -1.489,7.849c-0.992,2.354 -2.427,4.356 -4.305,6.004c-1.877,1.648 -4.171,2.917 -6.88,3.806c-2.709,0.89 -5.78,1.335 -9.214,1.335c-6.92,-0 -12.459,-1.675 -16.617,-5.023c-4.157,-3.349 -6.853,-8.085 -8.087,-14.207l12.875,-2.747c0.483,3.349 1.69,5.913 3.621,7.692c1.932,1.779 4.373,2.669 7.323,2.669c3.058,-0 5.405,-0.615 7.041,-1.845c1.636,-1.229 2.455,-3.179 2.455,-5.847c-0,-1.727 -0.363,-3.126 -1.087,-4.199c-0.724,-1.073 -1.73,-1.884 -3.017,-2.433c-1.288,-0.55 -2.777,-0.864 -4.467,-0.942c-1.689,-0.079 -3.5,-0.013 -5.431,0.196l-0,-11.067l2.977,0c1.341,0 2.642,-0.13 3.903,-0.392c1.261,-0.262 2.374,-0.654 3.339,-1.177c0.966,-0.524 1.744,-1.217 2.334,-2.08c0.59,-0.864 0.885,-1.923 0.885,-3.179c0,-2.041 -0.697,-3.702 -2.092,-4.984c-1.395,-1.282 -3.702,-1.923 -6.92,-1.923c-3.005,0 -5.325,0.707 -6.961,2.119c-1.636,1.413 -2.83,3.506 -3.581,6.279l-12.473,-2.825c1.663,-6.018 4.493,-10.452 8.49,-13.304c3.996,-2.851 9.16,-4.277 15.49,-4.277c3.273,-0 6.223,0.431 8.852,1.295c2.629,0.863 4.868,2.093 6.719,3.689c1.851,1.596 3.273,3.518 4.265,5.768c0.993,2.25 1.489,4.762 1.489,7.535c-0,2.616 -0.55,4.997 -1.65,7.143c-1.1,2.145 -2.669,3.819 -4.707,5.023c2.253,1.36 3.97,3.309 5.15,5.847c1.18,2.538 1.77,5.272 1.77,8.202Z" style="fill-rule:nonzero;"/></g><g><rect x="241.759" y="328.834" width="52.157" height="75.591" style="fill:none;"/><path d="M287.337,369.933c-0,2.436 -0.546,4.611 -1.639,6.525c-1.093,1.913 -2.542,3.545 -4.348,4.893c-1.806,1.348 -3.88,2.381 -6.221,3.099c-2.341,0.718 -4.738,1.077 -7.191,1.077c-2.453,-0 -4.85,-0.359 -7.191,-1.077c-2.341,-0.718 -4.437,-1.751 -6.288,-3.099c-1.851,-1.348 -3.334,-2.99 -4.448,-4.926c-1.115,-1.936 -1.673,-4.1 -1.673,-6.492c0,-1.218 0.167,-2.436 0.502,-3.654c0.334,-1.217 0.803,-2.348 1.405,-3.392c0.602,-1.044 1.304,-1.968 2.107,-2.773c0.803,-0.805 1.65,-1.425 2.542,-1.86c-1.561,-1.087 -2.899,-2.533 -4.014,-4.338c-1.115,-1.805 -1.672,-3.752 -1.672,-5.84c-0,-2.392 0.535,-4.534 1.605,-6.426c1.071,-1.892 2.486,-3.513 4.248,-4.861c1.761,-1.348 3.757,-2.382 5.987,-3.099c2.23,-0.718 4.504,-1.077 6.823,-1.077c2.319,0 4.604,0.348 6.857,1.044c2.252,0.696 4.247,1.707 5.986,3.034c1.74,1.327 3.144,2.947 4.215,4.861c1.07,1.914 1.605,4.088 1.605,6.524c0,2.088 -0.546,4.024 -1.639,5.807c-1.092,1.783 -2.464,3.175 -4.114,4.176c1.918,1.044 3.49,2.653 4.716,4.828c1.227,2.175 1.84,4.523 1.84,7.046Zm-11.84,-21.661c-0,-0.826 -0.201,-1.62 -0.602,-2.381c-0.402,-0.762 -0.948,-1.425 -1.639,-1.99c-0.691,-0.566 -1.505,-1.012 -2.442,-1.338c-0.936,-0.326 -1.94,-0.489 -3.01,-0.489c-1.07,-0 -2.074,0.163 -3.01,0.489c-0.937,0.326 -1.75,0.772 -2.442,1.338c-0.691,0.565 -1.226,1.228 -1.605,1.99c-0.379,0.761 -0.569,1.555 -0.569,2.381c0,0.826 0.19,1.609 0.569,2.349c0.379,0.739 0.914,1.392 1.605,1.957c0.692,0.566 1.505,1.011 2.442,1.338c0.936,0.326 1.94,0.489 3.01,0.489c1.07,-0 2.074,-0.163 3.01,-0.489c0.937,-0.327 1.751,-0.772 2.442,-1.338c0.691,-0.565 1.237,-1.218 1.639,-1.957c0.401,-0.74 0.602,-1.523 0.602,-2.349Zm1.003,21.204c0,-0.869 -0.212,-1.707 -0.635,-2.511c-0.424,-0.805 -1.026,-1.512 -1.806,-2.121c-0.781,-0.609 -1.695,-1.087 -2.743,-1.435c-1.048,-0.348 -2.174,-0.522 -3.378,-0.522c-1.249,-0 -2.397,0.174 -3.445,0.522c-1.048,0.348 -1.951,0.826 -2.709,1.435c-0.758,0.609 -1.349,1.316 -1.773,2.121c-0.424,0.804 -0.635,1.642 -0.635,2.511c-0,0.87 0.211,1.708 0.635,2.512c0.424,0.805 1.015,1.512 1.773,2.121c0.758,0.609 1.661,1.098 2.709,1.468c1.048,0.37 2.196,0.554 3.445,0.554c1.204,0 2.33,-0.184 3.378,-0.554c1.048,-0.37 1.962,-0.859 2.743,-1.468c0.78,-0.609 1.382,-1.316 1.806,-2.121c0.423,-0.804 0.635,-1.642 0.635,-2.512Z" style="fill-rule:nonzero;"/></g></g></g></g></svg>