<?xml version="1.0" encoding="UTF-8" standalone="no"?><!DOCTYPE svg PUBLIC "-//W3C//DTD SVG 1.1//EN" "http://www.w3.org/Graphics/SVG/1.1/DTD/svg11.dtd"><svg width="100%" height="100%" viewBox="0 0 514 454" version="1.1" xmlns="http://www.w3.org/2000/svg" xmlns:xlink="http://www.w3.org/1999/xlink" xml:space="preserve" xmlns:serif="http://www.serif.com/" style="fill-rule:evenodd;clip-rule:evenodd;stroke-linejoin:round;stroke-miterlimit:2;"><g id="scale-value" transform="matrix(50,0,0,50,350.88,262.709)"></g><text x="163.258px" y="262.709px" style="font-family:'ArialMT', 'Arial', sans-serif;font-size:50px;">sw=38.4</text><g id="_531.1-Imperial" serif:id="531.1 Imperial"><path d="M227.178,17.004c6.076,-10.522 17.302,-17.004 29.452,-17.004c12.149,0 23.376,6.482 29.452,17.004c54.065,93.625 168.545,291.872 222.619,385.514c6.077,10.524 6.079,23.491 0.003,34.016c-6.075,10.525 -17.303,17.009 -29.455,17.009l-445.238,0c-12.152,0 -23.38,-6.484 -29.455,-17.009c-6.076,-10.525 -6.074,-23.492 0.003,-34.016c54.074,-93.642 168.554,-291.889 222.619,-385.514Z" style="fill:#e31837;"/><path d="M256.665,56.708l202.961,351.496l-405.922,-0l202.961,-351.496Z" style="fill:#fff;"/><path d="M141.754,393.086l0,-65.209l0.056,0.256c28.684,-33.589 70.642,-52.927 114.816,-52.927c44.166,-0 86.124,19.338 114.815,52.927l0.048,0.04l0,64.913l61.761,-0l-61.761,-107.095l-0.088,0.12c-32.372,-26.507 -72.929,-40.989 -114.775,-40.989c-41.846,-0 -82.403,14.482 -114.792,40.989l-0.08,-0.12l-61.744,107.095l61.744,-0Zm155.955,-234.32l0.082,-0.144l0,0.144l-0.082,0l-40.659,70.674l-40.87,-70.674l81.529,0Z"/><g><g><rect id="path1698" x="318.047" y="317.495" width="38.173" height="75.591" style="fill:#fff;"/><path id="path1768" d="M344.403,318.44l10.15,0c-0,0 -8.046,13.923 -8.046,13.923c-0,0 -10.15,0 -10.15,0l8.046,-13.923Z" style="fill:#010001;fill-rule:nonzero;"/><path id="path17681" serif:id="path1768" d="M328.675,318.44l10.15,0c-0,0 -8.046,13.923 -8.046,13.923c-0,0 -10.15,0 -10.15,0l8.046,-13.923Z" style="fill:#010001;fill-rule:nonzero;"/></g><g><rect id="path16981" serif:id="path1698" x="236.031" y="317.495" width="33.26" height="75.591" style="fill:#fff;"/><path id="path17682" serif:id="path1768" d="M247.332,341.651l17.839,-0c0,-0 0,7.97 0,7.97c0,0 -17.839,0 -17.839,0l-0,-7.97Zm1.558,-23.211l10.149,0c0,0 -8.046,13.923 -8.046,13.923c0,0 -10.149,0 -10.149,0l8.046,-13.923Z" style="fill:#010001;fill-rule:nonzero;"/></g><g><rect x="269.291" y="317.495" width="48.756" height="75.591" style="fill:#fff;"/><path d="M313.436,356.05c0,2.566 -0.412,4.948 -1.235,7.144c-0.824,2.197 -2.026,4.111 -3.606,5.742c-1.581,1.631 -3.495,2.914 -5.743,3.849c-2.248,0.936 -4.797,1.403 -7.646,1.403c-4.097,0 -7.503,-0.728 -10.218,-2.186c-2.716,-1.457 -4.897,-3.392 -6.544,-5.806c-1.647,-2.414 -2.816,-5.187 -3.506,-8.319c-0.691,-3.132 -1.036,-6.372 -1.036,-9.721c0,-3.35 0.379,-6.634 1.138,-9.852c0.758,-3.219 1.973,-6.09 3.645,-8.613c1.673,-2.522 3.869,-4.556 6.589,-6.1c2.721,-1.544 6.043,-2.316 9.967,-2.316c3.657,-0 6.823,0.783 9.499,2.349c2.676,1.565 4.861,3.849 6.556,6.85l-9.232,4.437c-1.739,-2.871 -4.169,-4.306 -7.291,-4.306c-2.497,-0 -4.649,0.891 -6.455,2.675c-1.806,1.783 -2.865,4.589 -3.178,8.416c1.424,-1.174 3.037,-2.066 4.839,-2.675c1.802,-0.609 3.548,-0.913 5.238,-0.913c2.848,-0 5.406,0.457 7.675,1.37c2.269,0.913 4.182,2.164 5.739,3.752c1.558,1.587 2.748,3.479 3.571,5.676c0.823,2.196 1.234,4.578 1.234,7.144Zm-10.703,-0.065c0,-2.61 -0.802,-4.687 -2.408,-6.231c-1.605,-1.544 -3.679,-2.316 -6.221,-2.316c-2.497,-0 -4.549,0.772 -6.154,2.316c-1.606,1.544 -2.408,3.621 -2.408,6.231c-0,2.61 0.802,4.698 2.408,6.263c1.605,1.566 3.657,2.349 6.154,2.349c2.542,0 4.616,-0.783 6.221,-2.349c1.606,-1.565 2.408,-3.653 2.408,-6.263Z" style="fill-rule:nonzero;"/></g><g><rect x="188.787" y="317.495" width="47.244" height="75.591" style="fill:#fff;"/><path d="M230.091,374.188l-37.442,0l-0,-9.263c1.23,-0.711 2.528,-1.488 3.894,-2.332c1.367,-0.845 2.745,-1.711 4.134,-2.599c1.389,-0.889 2.745,-1.8 4.065,-2.733c1.321,-0.933 2.574,-1.844 3.758,-2.732c0.866,-0.667 1.879,-1.511 3.041,-2.532c1.161,-1.022 2.255,-2.177 3.279,-3.466c1.025,-1.288 1.891,-2.732 2.597,-4.332c0.706,-1.599 1.059,-3.332 1.059,-5.198c-0,-2.265 -0.569,-4.176 -1.708,-5.731c-1.139,-1.555 -3.029,-2.332 -5.671,-2.332c-2.961,-0 -5.034,1.022 -6.218,3.065c-1.184,2.044 -1.526,4.732 -1.025,8.064l-11.205,-0l-0.068,-2.532c-0.092,-2.577 0.273,-4.987 1.093,-7.231c0.82,-2.244 2.015,-4.176 3.587,-5.798c1.571,-1.621 3.53,-2.899 5.876,-3.832c2.346,-0.933 5.022,-1.399 8.028,-1.399c2.961,-0 5.626,0.444 7.994,1.333c2.369,0.888 4.362,2.121 5.979,3.698c1.617,1.577 2.846,3.454 3.689,5.631c0.843,2.177 1.241,4.576 1.196,7.198c-0.046,3.643 -1.093,7.186 -3.143,10.629c-2.05,3.443 -4.92,6.742 -8.609,9.896c-0.957,0.8 -2.038,1.633 -3.246,2.499c-1.207,0.867 -2.38,1.633 -3.518,2.3l18.584,-0l0,9.729Z" style="fill-rule:nonzero;"/></g><g><rect x="157.039" y="317.495" width="31.748" height="75.591" style="fill:#fff;"/><path d="M180.461,374.188l-11.545,0l-0,-36.293l-9.042,0l0,-8.751c1.808,-0.09 3.396,-0.249 4.764,-0.475c1.368,-0.226 2.469,-0.633 3.304,-1.221c0.788,-0.588 1.356,-1.334 1.704,-2.239c0.348,-0.904 0.614,-2.216 0.8,-3.934l10.015,-0l0,52.913Z" style="fill-rule:nonzero;"/></g></g></g></svg>