<?xml version="1.0" encoding="UTF-8" standalone="no"?><!DOCTYPE svg PUBLIC "-//W3C//DTD SVG 1.1//EN" "http://www.w3.org/Graphics/SVG/1.1/DTD/svg11.dtd"><svg width="100%" height="100%" viewBox="0 0 582 674" version="1.1" xmlns="http://www.w3.org/2000/svg" xmlns:xlink="http://www.w3.org/1999/xlink" xml:space="preserve" xmlns:serif="http://www.serif.com/" style="fill-rule:evenodd;clip-rule:evenodd;stroke-linejoin:round;stroke-miterlimit:2;"><g id="scale-value" transform="matrix(50,0,0,50,364.233,353.973)"></g><text x="218.31px" y="353.973px" style="font-family:'ArialMT', 'Arial', sans-serif;font-size:50px;">sw=57</text><g id="_531.2-Arch-Bridge-Ahead" serif:id="531.2 Arch Bridge Ahead"><path d="M581.811,35.433l0,602.362c0,19.556 -15.877,35.433 -35.433,35.433l-510.945,0c-19.556,0 -35.433,-15.877 -35.433,-35.433l0,-602.362c0,-19.556 15.877,-35.433 35.433,-35.433l510.945,-0c19.556,-0 35.433,15.877 35.433,35.433Z"/><path d="M564.094,35.433l0,602.362c0,9.778 -7.938,17.717 -17.716,17.717l-510.945,-0c-9.778,-0 -17.716,-7.939 -17.716,-17.717l-0,-602.362c-0,-9.778 7.938,-17.716 17.716,-17.716l510.945,-0c9.778,-0 17.716,7.938 17.716,17.716Z" style="fill:#fff;"/><g><g><g><rect x="417.756" y="141.732" width="64.252" height="94.488" style="fill:#fff;"/><path d="M472.777,212.598l-45.79,0l-0,-66.141l43.246,-0l0,13.058l-29.679,0l0,13.314l26.881,-0l-0,12.21l-26.881,0l0,14.501l32.223,-0l0,13.058Z" style="fill-rule:nonzero;"/></g><g><rect x="273.189" y="141.732" width="70.866" height="94.488" style="fill:#fff;"/><path d="M339.331,179.188c-0,4.353 -0.594,8.537 -1.781,12.55c-1.187,4.014 -3.053,7.576 -5.597,10.685c-2.544,3.109 -5.78,5.582 -9.709,7.42c-3.929,1.837 -8.635,2.755 -14.119,2.755l-25.1,0l0,-66.141l25.185,-0c5.427,-0 10.105,0.961 14.034,2.883c3.929,1.922 7.165,4.438 9.709,7.547c2.544,3.109 4.41,6.614 5.597,10.515c1.187,3.9 1.781,7.829 1.781,11.786Zm-14.755,-0.084c0,-2.262 -0.339,-4.579 -1.018,-6.954c-0.678,-2.374 -1.667,-4.522 -2.967,-6.444c-1.301,-1.922 -2.912,-3.505 -4.834,-4.749c-1.922,-1.244 -4.098,-1.866 -6.529,-1.866l-12.211,0l-0,40.618l11.617,0c2.77,0 5.159,-0.593 7.166,-1.78c2.006,-1.188 3.66,-2.742 4.96,-4.664c1.3,-1.922 2.261,-4.127 2.883,-6.614c0.622,-2.488 0.933,-5.004 0.933,-7.547Z" style="fill-rule:nonzero;"/></g><g><rect x="99.803" y="141.732" width="68.976" height="94.488" style="fill:#fff;"/><path d="M160.239,192.925c0,3.336 -0.622,6.233 -1.865,8.692c-1.244,2.459 -2.898,4.494 -4.961,6.106c-2.063,1.611 -4.48,2.826 -7.25,3.646c-2.77,0.82 -5.681,1.229 -8.734,1.229l-29.086,0l0,-66.141l28.492,-0c3.053,-0 5.837,0.466 8.353,1.399c2.515,0.933 4.692,2.233 6.529,3.901c1.837,1.667 3.265,3.603 4.282,5.808c1.018,2.205 1.527,4.579 1.527,7.123c-0,1.187 -0.184,2.403 -0.551,3.646c-0.368,1.244 -0.877,2.417 -1.527,3.519c-0.65,1.103 -1.385,2.092 -2.205,2.968c-0.819,0.877 -1.653,1.541 -2.501,1.993c3.053,1.413 5.399,3.448 7.038,6.105c1.64,2.657 2.459,5.993 2.459,10.006Zm-16.874,-28.067c-0,-1.074 -0.226,-2.007 -0.679,-2.799c-0.452,-0.791 -1.046,-1.455 -1.78,-1.992c-0.735,-0.537 -1.569,-0.933 -2.502,-1.188c-0.933,-0.254 -1.88,-0.381 -2.841,-0.381l-13.313,-0l0,13.991l12.635,0c2.883,0 5.017,-0.664 6.402,-1.992c1.385,-1.329 2.078,-3.208 2.078,-5.639Zm1.95,27.05c-0,-2.657 -0.947,-4.65 -2.841,-5.978c-1.894,-1.329 -4.112,-1.993 -6.656,-1.993l-13.568,0l0,16.196l13.992,0c2.544,0 4.692,-0.706 6.444,-2.12c1.753,-1.413 2.629,-3.448 2.629,-6.105Z" style="fill-rule:nonzero;"/></g><g><rect x="168.78" y="141.732" width="69.921" height="94.488" style="fill:#fff;"/><path d="M233.976,212.598l-16.779,0l-14.867,-24.506l-8.954,0l-0,24.506l-15.128,0l0,-66.141l27.908,-0c3.941,-0 7.375,0.551 10.302,1.653c2.927,1.103 5.347,2.601 7.26,4.494c1.912,1.894 3.347,4.141 4.303,6.742c0.956,2.6 1.435,5.427 1.435,8.48c-0,2.657 -0.363,5.003 -1.087,7.038c-0.725,2.035 -1.652,3.773 -2.782,5.215c-1.131,1.441 -2.377,2.643 -3.739,3.604c-1.362,0.961 -2.709,1.724 -4.042,2.289l16.17,26.626Zm-19.3,-45.281c-0,-2.431 -0.783,-4.367 -2.348,-5.809c-1.564,-1.441 -3.651,-2.162 -6.259,-2.162l-12.693,-0l-0,15.857l12.693,0.085c2.608,-0 4.695,-0.735 6.259,-2.205c1.565,-1.47 2.348,-3.392 2.348,-5.766Z" style="fill-rule:nonzero;"/></g><g><rect x="238.701" y="141.732" width="34.488" height="94.488" style="fill:#fff;"/><rect x="249.062" y="146.953" width="13.767" height="66.142" style="fill-rule:nonzero;"/></g><g><rect x="344.055" y="141.732" width="73.701" height="94.488" style="fill:#fff;"/><path d="M410.224,212.522l-12.743,-0l-0,-4.239c-1.611,1.607 -3.804,2.937 -6.58,3.989c-2.777,1.053 -5.609,1.58 -8.496,1.58c-5.331,-0 -9.94,-0.97 -13.827,-2.909c-3.887,-1.94 -7.08,-4.475 -9.578,-7.605c-2.499,-3.131 -4.359,-6.677 -5.581,-10.639c-1.222,-3.962 -1.832,-7.993 -1.832,-12.093c-0,-4.267 0.597,-8.436 1.79,-12.509c1.194,-4.073 3.041,-7.716 5.539,-10.93c2.499,-3.213 5.678,-5.79 9.537,-7.729c3.86,-1.94 8.454,-2.909 13.785,-2.909c6.664,-0 12.314,1.454 16.95,4.363c4.637,2.909 8.205,6.829 10.703,11.761l-12.16,5.901c-1.222,-2.881 -3.096,-5.153 -5.623,-6.815c-2.526,-1.663 -5.483,-2.494 -8.87,-2.494c-3.054,0 -5.664,0.582 -7.83,1.746c-2.165,1.163 -3.942,2.729 -5.331,4.696c-1.388,1.967 -2.401,4.252 -3.04,6.857c-0.638,2.604 -0.958,5.319 -0.958,8.145c0,2.77 0.306,5.402 0.917,7.896c0.61,2.493 1.61,4.682 2.998,6.566c1.388,1.884 3.165,3.366 5.331,4.446c2.166,1.081 4.803,1.621 7.913,1.621c4.72,0 8.246,-1.191 10.578,-3.574c2.332,-2.382 3.526,-5.513 3.581,-9.392l0,-1.662l-16.991,-0l-0,-11.553l29.818,0l0,37.485Z" style="fill-rule:nonzero;"/></g></g><g><g><rect x="288.307" y="47.244" width="67.087" height="94.488" style="fill:#fff;"/><path d="M351.129,72.031l-12.886,4.404c-1.142,-3.588 -2.909,-6.497 -5.301,-8.726c-2.392,-2.229 -5.41,-3.344 -9.053,-3.344c-3.044,-0 -5.641,0.53 -7.788,1.59c-2.148,1.061 -3.901,2.529 -5.261,4.404c-1.359,1.876 -2.338,4.078 -2.936,6.606c-0.598,2.529 -0.897,5.261 -0.897,8.197c0,2.827 0.272,5.491 0.816,7.992c0.544,2.501 1.454,4.676 2.732,6.525c1.278,1.848 2.936,3.303 4.975,4.363c2.039,1.06 4.581,1.59 7.625,1.59c3.534,0 6.552,-0.938 9.053,-2.813c2.501,-1.876 4.404,-4.771 5.709,-8.686l13.13,4.241c-2.555,6.687 -6.103,11.649 -10.643,14.884c-4.54,3.235 -10.344,4.852 -17.412,4.852c-5.056,0 -9.487,-0.91 -13.293,-2.732c-3.806,-1.821 -6.973,-4.241 -9.502,-7.258c-2.528,-3.018 -4.431,-6.498 -5.709,-10.439c-1.277,-3.942 -1.916,-8.061 -1.916,-12.356c-0,-4.404 0.639,-8.632 1.916,-12.682c1.278,-4.051 3.181,-7.598 5.709,-10.643c2.529,-3.045 5.696,-5.478 9.502,-7.299c3.806,-1.822 8.237,-2.732 13.293,-2.732c6.851,-0 12.75,1.712 17.698,5.138c4.947,3.425 8.427,8.4 10.439,14.924Z" style="fill-rule:nonzero;"/></g><g><rect x="151.299" y="47.244" width="67.087" height="94.488" style="fill:#fff;"/><path d="M215.497,118.11l-14.925,0l-3.476,-11.702l-24.507,0l-3.561,11.702l-14.84,0l21.708,-66.141l17.723,-0l21.878,66.141Zm-21.963,-23.404l-8.649,-28.661l-8.649,28.661l17.298,0Z" style="fill-rule:nonzero;"/></g><g><rect x="218.386" y="47.244" width="69.921" height="94.488" style="fill:#fff;"/><path d="M283.583,118.11l-16.78,0l-14.866,-24.506l-8.955,-0l-0,24.506l-15.128,0l0,-66.141l27.908,-0c3.941,-0 7.375,0.551 10.302,1.653c2.927,1.102 5.347,2.6 7.26,4.494c1.912,1.894 3.347,4.141 4.303,6.742c0.957,2.6 1.435,5.427 1.435,8.479c-0,2.657 -0.362,5.003 -1.087,7.039c-0.724,2.035 -1.652,3.773 -2.782,5.215c-1.13,1.441 -2.376,2.642 -3.738,3.603c-1.362,0.961 -2.71,1.725 -4.043,2.29l16.171,26.626Zm-19.301,-45.281c0,-2.431 -0.782,-4.367 -2.347,-5.809c-1.565,-1.442 -3.652,-2.162 -6.26,-2.162l-12.693,-0l-0,15.857l12.693,0.085c2.608,-0 4.695,-0.735 6.26,-2.205c1.565,-1.47 2.347,-3.392 2.347,-5.766Z" style="fill-rule:nonzero;"/></g><g><rect x="355.394" y="47.244" width="75.118" height="94.488" style="fill:#fff;"/><path d="M419.763,118.607l-13.596,-0l-0,-28.068l-26.428,-0l-0,28.068l-13.597,-0l0,-66.142l13.597,-0l-0,25.185l26.428,-0l-0,-25.185l13.596,-0l0,66.142Z" style="fill-rule:nonzero;"/></g></g></g><g><g><rect id="path1698" x="259.724" y="259.843" width="25.984" height="94.488" style="fill:#fff;"/><path d="M279.341,271.971c0,2.108 -0.721,3.883 -2.163,5.325c-1.442,1.442 -3.189,2.163 -5.241,2.163c-2.108,0 -3.883,-0.721 -5.325,-2.163c-1.442,-1.442 -2.163,-3.217 -2.163,-5.325c-0,-2.052 0.721,-3.799 2.163,-5.241c1.442,-1.442 3.217,-2.163 5.325,-2.163c2.052,-0 3.799,0.721 5.241,2.163c1.442,1.442 2.163,3.189 2.163,5.241Zm-0.832,58.738l-13.145,-0l-0,-47.256l13.145,-0l0,47.256Z" style="fill-rule:nonzero;"/></g><g><rect id="path16981" serif:id="path1698" x="340.984" y="259.843" width="56.22" height="94.488" style="fill:#fff;"/><path d="M390.082,330.709l-13.568,-0l0,-30.951c0,-2.205 -0.579,-3.901 -1.738,-5.088c-1.159,-1.187 -2.813,-1.781 -4.961,-1.781c-2.431,0 -4.423,0.707 -5.978,2.12c-1.555,1.413 -2.332,3.448 -2.332,6.105l0,29.595l-13.398,-0l0,-66.142l13.398,-0l0.027,20.606c1.472,-1.244 3.214,-2.205 5.225,-2.883c2.012,-0.679 3.98,-1.018 5.906,-1.018c2.776,-0 5.254,0.424 7.435,1.272c2.181,0.848 4.008,2.021 5.48,3.519c1.473,1.498 2.591,3.279 3.356,5.342c0.765,2.064 1.148,4.339 1.148,6.826l-0,32.478Z" style="fill-rule:nonzero;"/></g><g><rect id="path16982" serif:id="path1698" x="285.709" y="259.843" width="55.276" height="94.488" style="fill:#fff;"/><path d="M332.57,329.079c-0,3.289 -0.58,6.025 -1.739,8.209c-1.159,2.184 -2.723,3.922 -4.691,5.216c-1.968,1.294 -4.232,2.211 -6.794,2.75c-2.561,0.539 -5.243,0.809 -8.047,0.809c-3.127,-0 -6.335,-0.458 -9.624,-1.375c-3.289,-0.917 -6.201,-2.13 -8.735,-3.639l4.368,-10.029c2.695,1.294 5.135,2.224 7.319,2.79c2.184,0.566 4.435,0.849 6.753,0.849c1.078,0 2.143,-0.094 3.195,-0.283c1.051,-0.188 1.981,-0.525 2.79,-1.011c0.809,-0.485 1.469,-1.132 1.981,-1.941c0.513,-0.808 0.769,-1.833 0.769,-3.073l-0,-3.963c-1.24,1.078 -2.75,1.928 -4.529,2.548c-1.78,0.62 -3.532,0.93 -5.257,0.93c-3.235,-0 -6.093,-0.566 -8.573,-1.699c-2.48,-1.132 -4.556,-2.696 -6.228,-4.69c-1.671,-1.995 -2.938,-4.368 -3.801,-7.118c-0.863,-2.749 -1.294,-5.742 -1.294,-8.977c0,-2.965 0.485,-5.783 1.456,-8.451c0.97,-2.669 2.332,-5.001 4.084,-6.996c1.752,-1.995 3.815,-3.572 6.187,-4.732c2.373,-1.159 4.961,-1.738 7.764,-1.738c2.157,-0 4.138,0.364 5.945,1.091c1.806,0.728 3.221,1.712 4.246,2.952l-0,-2.749l12.455,-0l-0,44.32Zm-12.213,-23.454c0,-1.402 -0.161,-2.737 -0.485,-4.004c-0.323,-1.267 -0.836,-2.372 -1.537,-3.316c-0.7,-0.943 -1.59,-1.698 -2.668,-2.264c-1.079,-0.566 -2.373,-0.849 -3.883,-0.849c-1.455,-0 -2.722,0.283 -3.801,0.849c-1.078,0.566 -1.981,1.321 -2.709,2.264c-0.728,0.944 -1.267,2.049 -1.618,3.316c-0.35,1.267 -0.525,2.602 -0.525,4.004c-0,1.456 0.161,2.817 0.485,4.084c0.323,1.267 0.836,2.372 1.537,3.316c0.701,0.943 1.59,1.698 2.669,2.264c1.078,0.567 2.399,0.85 3.962,0.85c1.51,-0 2.804,-0.283 3.883,-0.85c1.078,-0.566 1.968,-1.321 2.668,-2.264c0.701,-0.944 1.214,-2.049 1.537,-3.316c0.324,-1.267 0.485,-2.628 0.485,-4.084Z" style="fill-rule:nonzero;"/></g><g><rect x="184.606" y="259.843" width="75.118" height="94.488" style="fill:#fff;"/><path d="M248.976,331.205l-13.596,0l-0,-28.068l-26.429,0l0,28.068l-13.596,0l-0,-66.142l13.596,0l0,25.185l26.429,0l-0,-25.185l13.596,0l0,66.142Z" style="fill-rule:nonzero;"/></g></g><g><g><rect id="path16983" serif:id="path1698" x="267.52" y="354.331" width="25.984" height="94.488" style="fill:#fff;"/><path d="M287.136,366.46c0,2.107 -0.721,3.882 -2.163,5.324c-1.442,1.442 -3.189,2.163 -5.241,2.163c-2.108,0 -3.883,-0.721 -5.325,-2.163c-1.442,-1.442 -2.163,-3.217 -2.163,-5.324c0,-2.053 0.721,-3.8 2.163,-5.242c1.442,-1.442 3.217,-2.163 5.325,-2.163c2.052,0 3.799,0.721 5.241,2.163c1.442,1.442 2.163,3.189 2.163,5.242Zm-0.832,58.737l-13.145,-0l0,-47.256l13.145,-0l0,47.256Z" style="fill-rule:nonzero;"/></g><g><rect id="path16984" serif:id="path1698" x="211.299" y="354.331" width="56.22" height="94.488" style="fill:#fff;"/><path d="M260.397,425.197l-13.568,-0l0,-30.951c0,-2.205 -0.579,-3.901 -1.738,-5.088c-1.159,-1.187 -2.813,-1.781 -4.961,-1.781c-2.431,0 -4.423,0.707 -5.978,2.12c-1.555,1.414 -2.332,3.449 -2.332,6.106l0,29.594l-13.398,-0l0,-66.142l13.398,0l0.027,20.606c1.472,-1.244 3.214,-2.205 5.225,-2.883c2.012,-0.679 3.98,-1.018 5.906,-1.018c2.776,0 5.254,0.424 7.435,1.272c2.181,0.848 4.008,2.021 5.48,3.519c1.473,1.498 2.591,3.279 3.356,5.342c0.765,2.064 1.148,4.339 1.148,6.827l-0,32.477Z" style="fill-rule:nonzero;"/></g><g><rect id="path16985" serif:id="path1698" x="108.78" y="354.331" width="50.551" height="94.488" style="fill:#fff;"/><path d="M157.36,377.888l-15.981,47.244l-14.648,-0l-15.98,-47.244l13.816,-0l9.488,28.945l9.405,-28.945l13.9,-0Z" style="fill-rule:nonzero;"/></g><g><rect id="path16986" serif:id="path1698" x="425.787" y="354.331" width="47.244" height="94.488" style="fill:#fff;"/><path d="M468.911,410.893c0,2.093 -0.405,4.016 -1.216,5.768c-0.811,1.753 -2.027,3.27 -3.649,4.552c-1.622,1.282 -3.623,2.276 -6.004,2.982c-2.38,0.707 -5.14,1.06 -8.279,1.06c-3.977,-0 -7.587,-0.589 -10.83,-1.766c-3.244,-1.177 -6.253,-2.917 -9.025,-5.219l7.063,-8.162c2.197,1.831 4.447,3.048 6.749,3.65c2.302,0.601 4.29,0.902 5.964,0.902c2.354,0 3.976,-0.34 4.866,-1.02c0.889,-0.68 1.334,-1.517 1.334,-2.511c-0,-0.576 -0.406,-1.191 -1.216,-1.845c-0.811,-0.654 -2.159,-1.19 -4.042,-1.609l-7.77,-1.883c-1.464,-0.314 -2.916,-0.811 -4.355,-1.491c-1.439,-0.68 -2.734,-1.544 -3.885,-2.59c-1.151,-1.046 -2.079,-2.302 -2.786,-3.767c-0.706,-1.465 -1.059,-3.165 -1.059,-5.101c-0,-2.145 0.458,-4.12 1.373,-5.925c0.916,-1.805 2.211,-3.375 3.885,-4.709c1.674,-1.334 3.649,-2.367 5.925,-3.1c2.276,-0.732 4.8,-1.098 7.573,-1.098c4.081,-0 7.626,0.549 10.634,1.648c3.008,1.098 5.637,2.616 7.887,4.551l-7.063,8.162c-1.674,-1.308 -3.388,-2.276 -5.14,-2.904c-1.753,-0.627 -3.65,-0.941 -5.69,-0.941c-2.197,-0 -3.819,0.405 -4.866,1.216c-1.046,0.811 -1.569,1.687 -1.569,2.629c-0,0.157 0.026,0.366 0.078,0.628c0.053,0.262 0.223,0.536 0.51,0.824c0.288,0.288 0.694,0.576 1.217,0.863c0.523,0.288 1.255,0.537 2.197,0.746l8.162,1.962c1.622,0.418 3.204,0.942 4.748,1.569c1.543,0.628 2.93,1.465 4.159,2.512c1.23,1.046 2.224,2.328 2.982,3.845c0.759,1.517 1.138,3.375 1.138,5.572Z" style="fill-rule:nonzero;"/></g><g><rect id="path16987" serif:id="path1698" x="159.331" y="354.331" width="51.969" height="94.488" style="fill:#fff;"/><path d="M206.974,403.543l-0.158,1.969l-30.472,-0c0.052,1.26 0.367,2.428 0.945,3.504c0.577,1.076 1.338,2.021 2.283,2.834c0.945,0.814 2.034,1.444 3.268,1.89c1.234,0.446 2.533,0.669 3.898,0.669c3.937,0 7.322,-1.312 10.157,-3.937l6.614,8.111c-2.257,2.152 -4.737,3.792 -7.441,4.921c-2.703,1.129 -5.787,1.693 -9.252,1.693c-3.727,-0 -7.034,-0.617 -9.921,-1.851c-2.887,-1.233 -5.315,-2.939 -7.283,-5.118c-1.969,-2.178 -3.465,-4.711 -4.489,-7.598c-1.023,-2.887 -1.535,-5.984 -1.535,-9.291c-0,-3.203 0.486,-6.234 1.457,-9.095c0.971,-2.861 2.375,-5.341 4.212,-7.441c1.838,-2.1 4.121,-3.766 6.851,-5c2.729,-1.233 5.826,-1.85 9.291,-1.85c3.832,-0 7.165,0.682 10,2.047c2.835,1.365 5.144,3.202 6.929,5.512c1.785,2.31 3.058,5.026 3.819,8.149c0.761,3.124 1.037,6.418 0.827,9.882Zm-12.362,-6.85c-0,-2.415 -0.88,-4.396 -2.638,-5.945c-1.759,-1.549 -3.924,-2.323 -6.496,-2.323c-2.467,0 -4.515,0.827 -6.142,2.481c-1.627,1.653 -2.572,3.582 -2.835,5.787l18.111,-0Z" style="fill-rule:nonzero;"/></g><g><rect id="path16988" serif:id="path1698" x="373.819" y="354.331" width="51.969" height="94.488" style="fill:#fff;"/><path d="M421.462,403.543l-0.157,1.969l-30.473,-0c0.053,1.26 0.368,2.428 0.945,3.504c0.577,1.076 1.339,2.021 2.283,2.834c0.945,0.814 2.035,1.444 3.268,1.89c1.234,0.446 2.533,0.669 3.898,0.669c3.937,0 7.323,-1.312 10.157,-3.937l6.614,8.111c-2.257,2.152 -4.737,3.792 -7.44,4.921c-2.704,1.129 -5.788,1.693 -9.252,1.693c-3.728,-0 -7.035,-0.617 -9.922,-1.851c-2.887,-1.233 -5.315,-2.939 -7.283,-5.118c-1.969,-2.178 -3.465,-4.711 -4.488,-7.598c-1.024,-2.887 -1.536,-5.984 -1.536,-9.291c0,-3.203 0.486,-6.234 1.457,-9.095c0.971,-2.861 2.375,-5.341 4.212,-7.441c1.838,-2.1 4.121,-3.766 6.851,-5c2.73,-1.233 5.827,-1.85 9.291,-1.85c3.832,-0 7.166,0.682 10,2.047c2.835,1.365 5.145,3.202 6.929,5.512c1.785,2.31 3.058,5.026 3.819,8.149c0.761,3.124 1.037,6.418 0.827,9.882Zm-12.362,-6.85c-0,-2.415 -0.879,-4.396 -2.638,-5.945c-1.759,-1.549 -3.924,-2.323 -6.496,-2.323c-2.467,0 -4.514,0.827 -6.142,2.481c-1.627,1.653 -2.572,3.582 -2.834,5.787l18.11,-0Z" style="fill-rule:nonzero;"/></g><g><rect id="path16989" serif:id="path1698" x="293.504" y="354.331" width="50.551" height="94.488" style="fill:#fff;"/><path d="M339.655,390.902l-10.281,4.944c-1.936,-4.709 -4.996,-7.063 -9.182,-7.063c-1.622,-0 -3.034,0.366 -4.238,1.098c-1.203,0.733 -2.21,1.701 -3.021,2.904c-0.811,1.204 -1.426,2.59 -1.844,4.16c-0.419,1.569 -0.628,3.165 -0.628,4.787c-0,1.674 0.222,3.27 0.667,4.787c0.445,1.517 1.099,2.851 1.962,4.002c0.863,1.151 1.909,2.08 3.139,2.786c1.229,0.707 2.629,1.06 4.199,1.06c1.988,-0 3.727,-0.55 5.218,-1.648c1.491,-1.099 2.786,-2.904 3.885,-5.415l10.124,5.022c-1.831,3.872 -4.395,6.985 -7.691,9.339c-3.296,2.355 -7.142,3.532 -11.536,3.532c-3.715,-0 -6.981,-0.615 -9.797,-1.844c-2.817,-1.23 -5.161,-2.917 -7.033,-5.062c-1.872,-2.145 -3.289,-4.644 -4.251,-7.495c-0.962,-2.851 -1.443,-5.925 -1.443,-9.221c0,-2.93 0.442,-5.808 1.326,-8.633c0.883,-2.825 2.235,-5.349 4.056,-7.573c1.82,-2.224 4.111,-4.016 6.875,-5.376c2.763,-1.36 6.055,-2.04 9.874,-2.04c4.552,-0 8.554,1.19 12.007,3.571c3.453,2.38 5.991,5.506 7.613,9.378Z" style="fill-rule:nonzero;"/></g><g><rect id="path169810" serif:id="path1698" x="344.055" y="354.331" width="29.764" height="94.488" style="fill:#fff;"/><path d="M372.638,423.786c-1.439,0.443 -2.96,0.788 -4.565,1.037c-1.604,0.249 -3.181,0.374 -4.73,0.374c-2.49,-0 -4.633,-0.332 -6.432,-0.996c-1.798,-0.664 -3.264,-1.604 -4.398,-2.822c-1.134,-1.217 -1.964,-2.697 -2.49,-4.439c-0.525,-1.743 -0.788,-3.666 -0.788,-5.768l0,-52.117l13.029,0l0,49.959c0,2.877 1.356,4.316 4.067,4.316c0.83,-0 1.632,-0.07 2.406,-0.208c0.775,-0.138 1.632,-0.373 2.573,-0.705l1.328,11.369Z" style="fill-rule:nonzero;"/></g></g><g><g><g><rect id="path169811" serif:id="path1698" x="314.409" y="448.819" width="25.984" height="94.488" style="fill:#fff;"/><path d="M334.026,460.948c0,2.108 -0.721,3.882 -2.163,5.324c-1.442,1.443 -3.189,2.164 -5.241,2.164c-2.108,-0 -3.883,-0.721 -5.325,-2.164c-1.442,-1.442 -2.163,-3.216 -2.163,-5.324c-0,-2.052 0.721,-3.799 2.163,-5.242c1.442,-1.442 3.217,-2.163 5.325,-2.163c2.052,0 3.799,0.721 5.241,2.163c1.442,1.443 2.163,3.19 2.163,5.242Zm-0.832,58.737l-13.145,0l0,-47.256l13.145,0l0,47.256Z" style="fill-rule:nonzero;"/></g><g><rect id="path169812" serif:id="path1698" x="482.598" y="448.819" width="51.969" height="94.488" style="fill:#fff;"/><path d="M530.242,498.031l-0.158,1.969l-30.472,-0c0.052,1.26 0.367,2.428 0.945,3.504c0.577,1.076 1.338,2.021 2.283,2.835c0.945,0.813 2.034,1.443 3.268,1.889c1.233,0.447 2.532,0.67 3.897,0.67c3.937,-0 7.323,-1.313 10.158,-3.937l6.614,8.11c-2.257,2.152 -4.738,3.793 -7.441,4.921c-2.703,1.129 -5.787,1.693 -9.252,1.693c-3.727,0 -7.034,-0.617 -9.921,-1.85c-2.887,-1.234 -5.315,-2.94 -7.284,-5.118c-1.968,-2.179 -3.464,-4.712 -4.488,-7.599c-1.023,-2.887 -1.535,-5.984 -1.535,-9.291c-0,-3.202 0.485,-6.234 1.456,-9.095c0.972,-2.861 2.376,-5.341 4.213,-7.441c1.837,-2.099 4.121,-3.766 6.85,-5c2.73,-1.233 5.827,-1.85 9.292,-1.85c3.832,-0 7.165,0.682 10,2.047c2.834,1.365 5.144,3.202 6.929,5.512c1.785,2.31 3.058,5.026 3.819,8.15c0.761,3.123 1.037,6.417 0.827,9.881Zm-12.363,-6.85c0,-2.415 -0.879,-4.396 -2.637,-5.945c-1.759,-1.548 -3.924,-2.323 -6.497,-2.323c-2.467,0 -4.514,0.827 -6.141,2.481c-1.628,1.653 -2.572,3.582 -2.835,5.787l18.11,0Z" style="fill-rule:nonzero;"/></g><g><rect id="path169813" serif:id="path1698" x="452.835" y="448.819" width="29.764" height="94.488" style="fill:#fff;"/><path d="M481.417,518.274c-1.438,0.443 -2.96,0.789 -4.564,1.038c-1.604,0.249 -3.181,0.373 -4.73,0.373c-2.49,0 -4.634,-0.332 -6.432,-0.996c-1.798,-0.664 -3.264,-1.604 -4.398,-2.821c-1.135,-1.218 -1.964,-2.698 -2.49,-4.44c-0.526,-1.743 -0.788,-3.666 -0.788,-5.768l-0,-52.117l13.029,0l-0,49.959c-0,2.877 1.355,4.316 4.066,4.316c0.83,-0 1.632,-0.069 2.407,-0.208c0.774,-0.138 1.632,-0.373 2.573,-0.705l1.327,11.369Z" style="fill-rule:nonzero;"/></g><g><rect id="path169814" serif:id="path1698" x="232.677" y="448.819" width="81.732" height="94.488" style="fill:#fff;"/><path d="M306.872,519.685l-13.181,0l-0,-29.699c-0,-2.336 -0.539,-4.074 -1.617,-5.215c-1.078,-1.14 -2.502,-1.71 -4.27,-1.71c-0.829,0 -1.7,0.181 -2.612,0.543c-0.912,0.361 -1.727,0.889 -2.446,1.585c-0.718,0.695 -1.313,1.585 -1.782,2.669c-0.47,1.085 -0.705,2.322 -0.705,3.713l0,28.114l-13.265,0l-0.083,-29.783c-0,-2.391 -0.514,-4.143 -1.543,-5.256c-1.029,-1.112 -2.35,-1.668 -3.963,-1.668c-1.057,-0 -2.058,0.167 -3.003,0.5c-0.946,0.334 -1.794,0.849 -2.545,1.544c-0.751,0.695 -1.349,1.585 -1.794,2.669c-0.444,1.085 -0.667,2.406 -0.667,3.963l0,28.031l-13.181,0l-0,-47.386l13.181,0l0,2.92c1.39,-1.335 2.976,-2.363 4.755,-3.086c1.78,-0.723 3.532,-1.085 5.256,-1.085c2.614,-0 5.02,0.514 7.216,1.543c2.197,1.029 3.935,2.573 5.215,4.63c3.058,-4.171 7.702,-6.256 13.932,-6.256c5.394,-0 9.593,1.529 12.597,4.588c3.003,3.059 4.505,7.369 4.505,12.931l-0,31.201Z" style="fill-rule:nonzero;"/></g><g><rect id="path169815" serif:id="path1698" x="340.394" y="448.819" width="56.22" height="94.488" style="fill:#fff;"/><path d="M391.35,519.432l-13.33,-0l0,-2.531c-1.293,1.181 -2.854,2.137 -4.682,2.868c-1.828,0.732 -3.67,1.097 -5.526,1.097c-3.656,0 -6.89,-0.689 -9.702,-2.067c-2.812,-1.378 -5.174,-3.22 -7.086,-5.526c-1.913,-2.306 -3.375,-4.963 -4.387,-7.972c-1.013,-3.009 -1.519,-6.173 -1.519,-9.491c0,-3.375 0.478,-6.609 1.434,-9.702c0.956,-3.093 2.377,-5.821 4.261,-8.183c1.884,-2.363 4.204,-4.261 6.96,-5.695c2.756,-1.434 5.933,-2.151 9.533,-2.151c1.968,-0 3.881,0.309 5.737,0.928c1.856,0.618 3.515,1.49 4.977,2.615l0,-20.079l13.33,0l-0,65.889Zm-13.245,-17.801l-0,-12.402c-0,-1.068 -0.255,-2.024 -0.763,-2.868c-0.508,-0.844 -1.158,-1.575 -1.949,-2.193c-0.791,-0.619 -1.681,-1.097 -2.669,-1.435c-0.989,-0.337 -1.963,-0.506 -2.923,-0.506c-3.559,0 -6.313,1.252 -8.261,3.754c-1.949,2.503 -2.924,5.723 -2.924,9.66c0,1.8 0.255,3.473 0.763,5.02c0.508,1.547 1.229,2.882 2.161,4.007c0.931,1.125 2.075,2.025 3.431,2.7c1.356,0.675 2.882,1.012 4.576,1.012c0.847,0 1.779,-0.14 2.796,-0.422c1.017,-0.281 1.949,-0.703 2.796,-1.265c0.847,-0.563 1.553,-1.266 2.118,-2.109c0.565,-0.844 0.848,-1.828 0.848,-2.953Z" style="fill-rule:nonzero;"/></g><g><rect id="path169816" serif:id="path1698" x="396.614" y="448.819" width="56.22" height="94.488" style="fill:#fff;"/><path d="M447.57,519.432l-13.329,-0l-0,-2.531c-1.294,1.181 -2.855,2.137 -4.683,2.868c-1.827,0.732 -3.669,1.097 -5.525,1.097c-3.656,0 -6.89,-0.689 -9.702,-2.067c-2.812,-1.378 -5.175,-3.22 -7.087,-5.526c-1.912,-2.306 -3.374,-4.963 -4.387,-7.972c-1.012,-3.009 -1.518,-6.173 -1.518,-9.491c-0,-3.375 0.478,-6.609 1.434,-9.702c0.956,-3.093 2.376,-5.821 4.26,-8.183c1.884,-2.363 4.204,-4.261 6.96,-5.695c2.756,-1.434 5.934,-2.151 9.533,-2.151c1.969,-0 3.881,0.309 5.737,0.928c1.856,0.618 3.515,1.49 4.978,2.615l-0,-20.079l13.329,0l0,65.889Zm-13.245,-17.801l0,-12.402c0,-1.068 -0.254,-2.024 -0.762,-2.868c-0.509,-0.844 -1.159,-1.575 -1.949,-2.193c-0.791,-0.619 -1.681,-1.097 -2.67,-1.435c-0.988,-0.337 -1.963,-0.506 -2.922,-0.506c-3.559,0 -6.313,1.252 -8.262,3.754c-1.949,2.503 -2.923,5.723 -2.923,9.66c-0,1.8 0.254,3.473 0.762,5.02c0.509,1.547 1.229,2.882 2.161,4.007c0.932,1.125 2.076,2.025 3.432,2.7c1.356,0.675 2.881,1.012 4.575,1.012c0.848,0 1.779,-0.14 2.796,-0.422c1.017,-0.281 1.949,-0.703 2.796,-1.265c0.847,-0.563 1.553,-1.266 2.118,-2.109c0.566,-0.844 0.848,-1.828 0.848,-2.953Z" style="fill-rule:nonzero;"/></g></g><g><g><rect id="path169817" serif:id="path1698" x="103.937" y="448.819" width="47.244" height="94.488" style="fill:#fff;"/><path d="M147.061,505.381c-0,2.093 -0.405,4.016 -1.216,5.768c-0.811,1.753 -2.028,3.27 -3.65,4.552c-1.622,1.282 -3.623,2.276 -6.003,2.982c-2.381,0.707 -5.141,1.06 -8.28,1.06c-3.976,-0 -7.586,-0.589 -10.83,-1.766c-3.244,-1.177 -6.252,-2.917 -9.025,-5.219l7.063,-8.162c2.198,1.832 4.447,3.048 6.749,3.65c2.302,0.601 4.291,0.902 5.965,0.902c2.354,0 3.976,-0.34 4.865,-1.02c0.89,-0.68 1.335,-1.517 1.335,-2.511c-0,-0.576 -0.406,-1.191 -1.217,-1.845c-0.811,-0.654 -2.158,-1.19 -4.042,-1.608l-7.769,-1.884c-1.465,-0.314 -2.917,-0.811 -4.355,-1.491c-1.439,-0.68 -2.734,-1.543 -3.885,-2.59c-1.151,-1.046 -2.08,-2.302 -2.786,-3.767c-0.706,-1.465 -1.06,-3.165 -1.06,-5.101c0,-2.145 0.458,-4.12 1.374,-5.925c0.915,-1.805 2.21,-3.374 3.884,-4.709c1.675,-1.334 3.65,-2.367 5.926,-3.1c2.275,-0.732 4.8,-1.098 7.573,-1.098c4.081,-0 7.625,0.549 10.634,1.648c3.008,1.099 5.637,2.616 7.887,4.552l-7.063,8.161c-1.675,-1.308 -3.388,-2.276 -5.141,-2.903c-1.752,-0.628 -3.649,-0.942 -5.689,-0.942c-2.198,-0 -3.82,0.405 -4.866,1.216c-1.046,0.811 -1.57,1.688 -1.57,2.629c0,0.157 0.027,0.367 0.079,0.628c0.052,0.262 0.222,0.536 0.51,0.824c0.288,0.288 0.693,0.576 1.216,0.863c0.524,0.288 1.256,0.537 2.198,0.746l8.162,1.962c1.621,0.419 3.204,0.942 4.747,1.57c1.544,0.627 2.93,1.464 4.16,2.511c1.229,1.046 2.223,2.328 2.982,3.845c0.759,1.518 1.138,3.375 1.138,5.572Z" style="fill-rule:nonzero;"/></g><g><rect id="path169818" serif:id="path1698" x="151.181" y="448.819" width="51.969" height="94.488" style="fill:#fff;"/><path d="M198.824,498.031l-0.157,1.969l-30.473,0c0.053,1.26 0.368,2.428 0.945,3.504c0.578,1.076 1.339,2.021 2.284,2.835c0.945,0.813 2.034,1.443 3.267,1.889c1.234,0.447 2.533,0.67 3.898,0.67c3.937,-0 7.323,-1.313 10.157,-3.937l6.615,8.11c-2.258,2.152 -4.738,3.793 -7.441,4.921c-2.704,1.129 -5.788,1.693 -9.252,1.693c-3.727,0 -7.034,-0.617 -9.922,-1.85c-2.887,-1.234 -5.314,-2.94 -7.283,-5.118c-1.968,-2.179 -3.465,-4.712 -4.488,-7.599c-1.024,-2.887 -1.536,-5.984 -1.536,-9.291c0,-3.202 0.486,-6.234 1.457,-9.095c0.971,-2.861 2.375,-5.341 4.213,-7.441c1.837,-2.099 4.12,-3.766 6.85,-5c2.73,-1.233 5.827,-1.85 9.291,-1.85c3.832,-0 7.166,0.682 10,2.047c2.835,1.365 5.145,3.202 6.93,5.512c1.784,2.31 3.057,5.026 3.818,8.15c0.762,3.123 1.037,6.417 0.827,9.881Zm-12.362,-6.85c0,-2.415 -0.879,-4.396 -2.638,-5.945c-1.758,-1.548 -3.924,-2.323 -6.496,-2.323c-2.467,0 -4.514,0.827 -6.142,2.481c-1.627,1.653 -2.572,3.582 -2.834,5.787l18.11,0Z" style="fill-rule:nonzero;"/></g><g><rect id="path169819" serif:id="path1698" x="47.244" y="448.819" width="56.693" height="94.488" style="fill:#fff;"/><path d="M96.398,519.63l-13.317,0l0,-2.985c-1.442,1.327 -3.176,2.377 -5.202,3.151c-2.025,0.774 -3.981,1.161 -5.867,1.161c-2.83,-0 -5.313,-0.415 -7.45,-1.244c-2.136,-0.829 -3.939,-1.976 -5.41,-3.441c-1.47,-1.465 -2.566,-3.179 -3.287,-5.141c-0.721,-1.963 -1.082,-4.105 -1.082,-6.426l-0,-32.173l13.317,-0l-0,29.436c-0,2.488 0.579,4.284 1.738,5.39c1.159,1.106 2.814,1.658 4.966,1.658c1.049,0 2.07,-0.138 3.063,-0.414c0.993,-0.277 1.876,-0.719 2.648,-1.327c0.773,-0.608 1.394,-1.396 1.863,-2.363c0.469,-0.967 0.703,-2.17 0.703,-3.607l0,-28.773l13.317,-0l0,47.098Z" style="fill-rule:nonzero;"/></g></g></g><g><g><g><rect id="path169820" serif:id="path1698" x="344.409" y="543.307" width="52.441" height="94.488" style="fill:#fff;"/><path d="M392.112,604.989l-5.215,9.184c-1.816,-0.104 -3.464,-0.558 -4.943,-1.362c-1.478,-0.804 -2.685,-1.855 -3.619,-3.152c-1.453,1.349 -3.152,2.361 -5.098,3.035c-1.946,0.675 -4.319,1.012 -7.121,1.012c-2.232,0 -4.372,-0.285 -6.421,-0.856c-2.05,-0.571 -3.853,-1.44 -5.41,-2.607c-1.556,-1.168 -2.802,-2.608 -3.736,-4.32c-0.934,-1.712 -1.401,-3.736 -1.401,-6.071c0,-2.283 0.338,-4.229 1.012,-5.837c0.675,-1.609 1.531,-2.971 2.569,-4.086c1.037,-1.116 2.218,-2.011 3.541,-2.686c1.323,-0.674 2.633,-1.193 3.93,-1.556c1.298,-0.364 2.517,-0.623 3.659,-0.779c1.141,-0.155 2.049,-0.259 2.724,-0.311c1.089,-0.104 2.477,-0.221 4.164,-0.35c1.686,-0.13 3.23,-0.247 4.631,-0.35l-0,-0.623c-0,-1.92 -0.441,-3.308 -1.323,-4.164c-0.883,-0.856 -2.413,-1.284 -4.593,-1.284c-2.283,-0 -4.462,0.272 -6.537,0.817c-2.076,0.545 -4.359,1.544 -6.85,2.996l-4.592,-9.729c3.165,-1.764 6.266,-3.035 9.301,-3.813c3.036,-0.779 6.188,-1.168 9.457,-1.168c5.656,0 9.962,1.401 12.92,4.203c2.958,2.802 4.436,7.005 4.436,12.609l0,14.554c0,1.972 0.338,3.464 1.012,4.476c0.675,1.012 1.842,1.751 3.503,2.218Zm-16.812,-5.837l-0,-5.526c-0.934,0.051 -1.92,0.103 -2.958,0.155c-1.038,0.052 -1.92,0.13 -2.646,0.234c-0.882,0.103 -1.803,0.207 -2.763,0.311c-0.96,0.104 -1.829,0.324 -2.607,0.662c-0.779,0.337 -1.427,0.817 -1.946,1.44c-0.519,0.622 -0.779,1.504 -0.779,2.646c0,1.505 0.649,2.646 1.946,3.424c1.297,0.779 2.776,1.168 4.437,1.168c2.646,-0 4.527,-0.441 5.642,-1.323c1.116,-0.882 1.674,-1.946 1.674,-3.191Z" style="fill-rule:nonzero;"/></g><g><rect id="path169821" serif:id="path1698" x="249.921" y="543.307" width="40.157" height="94.488" style="fill:#fff;"/><path d="M283.999,578.729l-1.911,-0.166c-1.772,-0.167 -3.434,-0.07 -4.985,0.29c-1.551,0.36 -2.908,0.983 -4.071,1.87c-1.163,0.886 -2.077,2.035 -2.741,3.447c-0.665,1.413 -0.997,3.088 -0.997,5.027l-0,24.923l-13.293,0l0,-47.188l13.293,-0l-0,4.901c1.606,-2.271 3.6,-3.932 5.981,-4.984c2.382,-1.053 5.29,-1.385 8.724,-0.997l-0,12.877Z" style="fill-rule:nonzero;"/></g><g><rect id="path169822" serif:id="path1698" x="290.079" y="543.307" width="54.331" height="94.488" style="fill:#fff;"/><path d="M339.689,591.101c-0,3.296 -0.523,6.356 -1.57,9.182c-1.046,2.825 -2.537,5.258 -4.473,7.298c-1.936,2.04 -4.29,3.649 -7.063,4.826c-2.773,1.178 -5.86,1.766 -9.26,1.766c-3.401,0 -6.488,-0.575 -9.261,-1.726c-2.773,-1.151 -5.14,-2.76 -7.102,-4.827c-1.962,-2.066 -3.479,-4.512 -4.552,-7.337c-1.073,-2.826 -1.609,-5.886 -1.609,-9.182c0,-3.401 0.484,-6.58 1.452,-9.536c0.968,-2.956 2.407,-5.519 4.316,-7.691c1.91,-2.171 4.264,-3.871 7.063,-5.101c2.8,-1.229 6.03,-1.844 9.693,-1.844c3.61,0 6.814,0.628 9.613,1.884c2.799,1.255 5.141,2.969 7.024,5.14c1.884,2.171 3.309,4.735 4.277,7.691c0.968,2.956 1.452,6.108 1.452,9.457Zm-12.321,-0c-0,-1.832 -0.249,-3.545 -0.746,-5.141c-0.497,-1.596 -1.177,-2.995 -2.04,-4.198c-0.863,-1.204 -1.923,-2.159 -3.179,-2.865c-1.255,-0.706 -2.615,-1.059 -4.08,-1.059c-1.518,-0 -2.904,0.353 -4.16,1.059c-1.255,0.706 -2.328,1.661 -3.217,2.865c-0.89,1.203 -1.57,2.602 -2.041,4.198c-0.471,1.596 -0.706,3.309 -0.706,5.141c-0,3.61 0.915,6.539 2.747,8.789c1.831,2.25 4.29,3.375 7.377,3.375c3.034,-0 5.467,-1.125 7.298,-3.375c1.831,-2.25 2.747,-5.179 2.747,-8.789Z" style="fill-rule:nonzero;"/></g><g><rect id="path169823" serif:id="path1698" x="396.85" y="543.307" width="56.22" height="94.488" style="fill:#fff;"/><path d="M447.807,613.92l-13.33,0l-0,-2.531c-1.294,1.181 -2.854,2.137 -4.682,2.869c-1.828,0.731 -3.67,1.096 -5.526,1.096c-3.656,0 -6.89,-0.689 -9.702,-2.067c-2.812,-1.378 -5.174,-3.22 -7.087,-5.525c-1.912,-2.306 -3.374,-4.964 -4.387,-7.973c-1.012,-3.009 -1.518,-6.173 -1.518,-9.491c-0,-3.374 0.478,-6.608 1.434,-9.702c0.956,-3.093 2.376,-5.821 4.26,-8.183c1.885,-2.362 4.205,-4.261 6.96,-5.695c2.756,-1.434 5.934,-2.151 9.534,-2.151c1.968,-0 3.88,0.309 5.736,0.928c1.856,0.619 3.516,1.49 4.978,2.615l-0,-20.079l13.33,0l-0,65.889Zm-13.246,-17.801l0,-12.401c0,-1.069 -0.254,-2.025 -0.762,-2.869c-0.509,-0.843 -1.158,-1.575 -1.949,-2.193c-0.791,-0.619 -1.681,-1.097 -2.67,-1.434c-0.988,-0.338 -1.962,-0.507 -2.922,-0.507c-3.559,0 -6.313,1.252 -8.262,3.755c-1.949,2.502 -2.923,5.722 -2.923,9.659c0,1.8 0.254,3.473 0.763,5.02c0.508,1.547 1.228,2.882 2.16,4.007c0.932,1.125 2.076,2.025 3.432,2.7c1.356,0.675 2.881,1.012 4.576,1.012c0.847,0 1.779,-0.14 2.795,-0.421c1.017,-0.282 1.949,-0.703 2.796,-1.266c0.848,-0.562 1.554,-1.265 2.119,-2.109c0.565,-0.844 0.847,-1.828 0.847,-2.953Z" style="fill-rule:nonzero;"/></g></g><g><g><rect id="path169824" serif:id="path1698" x="128.74" y="543.307" width="54.331" height="94.488" style="fill:#fff;"/><path d="M178.35,591.101c0,3.296 -0.523,6.356 -1.569,9.182c-1.047,2.825 -2.538,5.258 -4.473,7.298c-1.936,2.04 -4.291,3.649 -7.064,4.826c-2.772,1.178 -5.859,1.766 -9.26,1.766c-3.401,0 -6.488,-0.575 -9.26,-1.726c-2.773,-1.151 -5.141,-2.76 -7.103,-4.827c-1.962,-2.066 -3.479,-4.512 -4.552,-7.337c-1.072,-2.826 -1.608,-5.886 -1.608,-9.182c-0,-3.401 0.484,-6.58 1.451,-9.536c0.968,-2.956 2.407,-5.519 4.317,-7.691c1.909,-2.171 4.264,-3.871 7.063,-5.101c2.799,-1.229 6.03,-1.844 9.692,-1.844c3.61,0 6.815,0.628 9.614,1.884c2.799,1.255 5.14,2.969 7.023,5.14c1.884,2.171 3.31,4.735 4.278,7.691c0.967,2.956 1.451,6.108 1.451,9.457Zm-12.321,-0c0,-1.832 -0.248,-3.545 -0.745,-5.141c-0.497,-1.596 -1.177,-2.995 -2.041,-4.198c-0.863,-1.204 -1.922,-2.159 -3.178,-2.865c-1.256,-0.706 -2.616,-1.059 -4.081,-1.059c-1.517,-0 -2.904,0.353 -4.159,1.059c-1.256,0.706 -2.329,1.661 -3.218,2.865c-0.889,1.203 -1.57,2.602 -2.04,4.198c-0.471,1.596 -0.707,3.309 -0.707,5.141c0,3.61 0.916,6.539 2.747,8.789c1.831,2.25 4.29,3.375 7.377,3.375c3.034,-0 5.467,-1.125 7.298,-3.375c1.832,-2.25 2.747,-5.179 2.747,-8.789Z" style="fill-rule:nonzero;"/></g><g><rect id="path169825" serif:id="path1698" x="183.071" y="543.307" width="37.323" height="94.488" style="fill:#fff;"/><path d="M217.894,549.444l-1.08,11.134c-0.998,-0.443 -1.912,-0.734 -2.742,-0.872c-0.831,-0.138 -1.69,-0.208 -2.576,-0.208c-2.05,0 -3.546,0.499 -4.487,1.496c-0.942,0.997 -1.385,2.604 -1.33,4.819l0.083,1.164l8.725,-0l0,10.802l-8.559,-0l0,36.394l-13.045,0l-0,-36.394l-7.312,-0l-0,-10.802l7.312,-0l-0,-2.742c-0,-10.802 5.484,-16.204 16.452,-16.204c1.441,0 2.909,0.125 4.404,0.374c1.496,0.25 2.881,0.596 4.155,1.039Z" style="fill-rule:nonzero;"/></g></g></g></g></svg>