<?xml version="1.0" encoding="UTF-8" standalone="no"?><!DOCTYPE svg PUBLIC "-//W3C//DTD SVG 1.1//EN" "http://www.w3.org/Graphics/SVG/1.1/DTD/svg11.dtd"><svg width="100%" height="100%" viewBox="0 0 527 272" version="1.1" xmlns="http://www.w3.org/2000/svg" xmlns:xlink="http://www.w3.org/1999/xlink" xml:space="preserve" xmlns:serif="http://www.serif.com/" style="fill-rule:evenodd;clip-rule:evenodd;stroke-linejoin:round;stroke-miterlimit:2;"><g id="scale-value" transform="matrix(50,0,0,50,336.486,153.478)"></g><text x="190.563px" y="153.478px" style="font-family:'ArialMT', 'Arial', sans-serif;font-size:50px;">sw=23</text><g id="_543.1-PTS" serif:id="543.1 PTS"><path d="M526.317,35.433c-0,-19.556 -15.877,-35.433 -35.433,-35.433l-455.451,0c-19.556,0 -35.433,15.877 -35.433,35.433l-0,200.787c-0,19.557 15.877,35.434 35.433,35.434l455.451,-0c19.556,-0 35.433,-15.877 35.433,-35.434l-0,-200.787Z"/><path d="M508.6,35.433c0,-9.778 -7.938,-17.716 -17.716,-17.716l-455.451,-0c-9.778,-0 -17.716,7.938 -17.716,17.716l-0,200.787c-0,9.778 7.938,17.717 17.716,17.717l455.451,0c9.778,0 17.716,-7.939 17.716,-17.717l0,-200.787Z" style="fill:#fff;"/><g><g><g><g><rect id="path1786" x="164.812" y="47.244" width="41.079" height="94.488" style="fill:#fff;"/><path id="path1788" d="M184.311,118.063l-12.919,-0l-0,-47.159l12.919,-0l0,4.67l1.58,-1.59l1.75,-1.33l2,-1.171l2.17,-0.75l2.16,-0.499l2.25,-0.161l3.17,-0l0,12.25l-4.42,-0l-1.83,0.159l-1.83,0.5l-1.67,0.84l-1.58,1.079l-1.25,1.25l-1.079,1.58l-0.84,1.67l-0.5,1.83l-0.082,1.84l0.001,24.992Z" style="fill:#010001;fill-rule:nonzero;"/></g><g><rect id="path1698" x="111.483" y="47.244" width="53.329" height="94.488" style="fill:#fff;"/><path id="path1700" d="M136.312,68.994l-3.08,0.16l-3,0.58l-3.749,1.09l-3.67,1.41l-3.5,1.67l-3.41,1.92l6.33,9.66l2.58,-1.58l2.67,-1.25l2.829,-1l2.92,-0.75l3,-0.421l1.66,-0.082l1.75,0.329l1.58,0.589l0.92,0.58l0.75,0.831l0.5,0.92l0.17,1.079l0,3l-4.17,0.17l-4.08,0.5l-4.08,0.75l-4,1.08l-3.919,1.419l-1.661,1.001l-1.589,1.25l-1.42,1.5l-1.16,1.58l-0.92,1.83l-0.661,1.92l-0.34,2l-0.082,2l0.17,2l0.49,1.92l0.759,1.91l1.001,1.749l1.24,1.59l1.42,1.41l1.67,1.171l2.409,1.16l2.59,0.92l2.75,0.589l2.75,0.33l2.75,-0.083l2.66,-0.34l2.67,-0.66l1.42,-0.67l1.33,-0.83l1.08,-1.001l0.92,-1.25l1,1.33l1.25,1.001l1.42,0.75l2.58,1l2.66,0.58l2.75,0.329l4.59,-10.079l-1.09,-0l-1.08,-0.16l-1.079,-0.499l-0.84,-0.67l-0.66,-0.92l-0.421,-1.001l-0.17,-1.159l-0,-22.33l-0.161,-1.84l-0.42,-1.83l-0.75,-1.67l-0.92,-1.58l-1.25,-1.5l-1.41,-1.17l-1.59,-1.001l-2.25,-0.99l-2.41,-0.839l-2.92,-0.831l-3.08,-0.42l-2.996,-0.151Zm7.25,28.069l0,6.75l-0.17,1.25l-0.58,1.17l-0.75,1.001l-1.09,0.75l-1.16,0.42l-2.33,0.33l-2.34,-0l-2.33,-0.33l-1.17,-0.42l-1.001,-0.75l-0.83,-0.92l-0.58,-1.08l-0.34,-1.079l0,-1.171l0.34,-1.17l0.58,-0.911l0.83,-0.84l1.001,-0.58l3.92,-1l2.28,-0.47l1.72,-0.36l4,-0.59Z" style="fill:#010001;fill-rule:nonzero;"/></g><g><rect id="path1670" x="205.891" y="47.244" width="40.584" height="94.488" style="fill:#fff;"/><path id="path1672" d="M235.894,107.819l2.41,-0.41l2.34,-0.67l2.83,10.751l-3.5,1l-3.58,0.66l-3.591,0.34l-3.66,0.083l-3.59,-0.33l-1.75,-0.34l-1.741,-0.75l-1.5,-1l-1.34,-1.25l-1.08,-1.41l-0.751,-1.671l-0.5,-1.75l-0.17,-1.83l-0,-28.002l-7.581,-0l-0,-10.751l7.581,-0l-0,-14.742l12.921,-3.75l-0,18.492l12.001,-0l-0,10.751l-12.001,-0l-0,23.002l0.082,1l0.42,0.92l0.581,0.75l0.829,0.581l0.92,0.419l0.92,0.083l2.5,-0.176Z" style="fill:#010001;fill-rule:nonzero;"/></g><g id="P"><rect id="path1606" x="47.244" y="47.244" width="64.239" height="94.488" style="fill:#fff;"/><path id="path1608" d="M58.584,51.994l-0,66.159l13.49,-0l-0,-23.33l14.999,0l2.58,-0.17l2.59,-0.5l2.41,-0.83l2.34,-1.17l2.25,-1.42l1.91,-1.66l1.75,-1.92l1.5,-2.16l1.169,-2.17l1.001,-2.25l0.75,-2.33l0.42,-2.42l0.083,-2.42l-0.083,-2.41l-0.42,-2.42l-0.75,-2.33l-1.001,-2.25l-1.169,-2.17l-1.5,-2.17l-1.75,-1.91l-1.91,-1.67l-2.25,-1.42l-2.34,-1.159l-2.41,-0.831l-2.59,-0.51l-2.58,-0.161l-28.489,0.002Zm13.49,12.25l13.419,-0l1.66,0.159l1.59,0.5l1.5,0.75l1.33,1l1.08,1.34l0.84,1.41l0.579,1.59l0.251,1.66l-0,1.59l-0.251,1.66l-0.579,1.5l-0.84,1.5l-1.08,1.25l-1.33,1l-1.5,0.75l-1.59,0.5l-1.66,0.17l-13.419,0l-0,-18.329Z" style="fill:#010001;fill-rule:nonzero;"/></g></g><g><g><rect id="path1806" x="426.164" y="47.244" width="52.909" height="94.488" style="fill:#fff;"/><path id="path1808" d="M451.663,69.654l-2.42,0.17l-2.41,0.41l-2.34,0.75l-2.25,1.09l-2.08,1.25l-2.25,1.66l-2.079,2l-1.75,2.25l-1.42,2.42l-1.171,3l-0.83,3.169l-0.5,3.16l-0.17,3.25l0.251,3.25l0.59,3.17l0.91,3.08l1.169,3l1.079,2.17l1.42,2l1.5,1.83l1.83,1.67l1.92,1.41l2.08,1.25l2.25,0.92l2.34,0.67l2.99,0.58l3.09,0.25l3.08,-0.083l3.08,-0.34l3,-0.66l2.34,-0.84l2.16,-1.079l2,-1.42l1.83,-1.67l1.67,-1.83l-8,-8.08l-1.83,1.67l-2.08,1.33l-2.25,1l-2.17,0.58l-2.17,0.17l-2.16,-0.083l-2.17,-0.42l-2.08,-0.75l-1.42,-0.92l-1.25,-1.16l-1,-1.34l-0.75,-1.5l-0.41,-1.66l-0.17,-1.67l31.499,0l-0.17,-3.92l-0.42,-3.91l-0.831,-3.83l-1.17,-3.75l-1.08,-2.5l-1.42,-2.25l-1.659,-2.169l-2,-1.83l-2.17,-1.59l-2.08,-1.25l-2.25,-0.91l-2.42,-0.669l-2.42,-0.421l-2.408,-0.075Zm-0.25,10.749l1.66,0l1.67,0.33l1.58,0.589l1.42,0.831l1.33,1.079l1.09,1.25l0.83,1.42l0.58,1.58l0.25,1.67l-19.159,0l0.25,-1.67l0.58,-1.58l0.84,-1.42l1.079,-1.25l1.33,-1.079l1.42,-0.831l1.58,-0.589l1.67,-0.33Z" style="fill:#010001;fill-rule:nonzero;"/></g><g><rect id="path1746" x="343.505" y="47.244" width="82.658" height="94.488" style="fill:#fff;"/><path id="path1748" d="M414.414,77.233l-1.67,-1.909l-1.92,-1.67l-2.08,-1.42l-2.25,-1.16l-2.41,-0.84l-2.75,-0.5l-2.09,-0.082l-2.08,0.25l-2.08,0.421l-1.92,0.66l-1.92,0.92l-1.75,1.25l-1.58,1.42l-1.42,1.66l-1.159,-1.83l-1.42,-1.5l-1.66,-1.25l-1.92,-0.92l-1.5,-0.5l-2.75,-0.499l-2.42,-0.083l-2.33,0.329l-2.33,0.591l-2.17,0.909l-2.08,1.25l-1.92,1.5l-0,-3.33l-12.91,0l0,47.16l12.91,-0l-0,-28.33l0.17,-1.66l0.66,-1.59l1.001,-1.5l1.34,-1.25l1.5,-1l2.66,-0.91l1,-0.094l0.92,0.094l0.421,0.083l1.75,0.75l1.25,1.08l1,1.34l0.66,1.58l0.421,1.669l0.082,1.66l0,28.08l12.92,-0l0,-28.33l0.161,-1.66l0.589,-1.59l1.08,-1.499l1.329,-1.25l1.5,-1.001l2.67,-0.909l0.921,-0.095l1,0.095l0.329,0.082l1.75,0.75l1.25,1.08l1.08,1.34l0.67,1.58l0.329,1.67l0.095,1.66l-0,28.079l12.909,0l-12.909,0l12.909,0l0,-28.159l-0.082,-2.75l-0.5,-2.67l-0.75,-2.58l-1.09,-2.5l-1.416,-2.172Z" style="fill:#010001;fill-rule:nonzero;"/></g><g><rect id="path1790" x="316.586" y="47.244" width="26.92" height="94.488" style="fill:#fff;"/><path id="path1792" d="M329.335,51.494l-1.419,0.16l-1.41,0.42l-1.25,0.67l-1.171,0.909l-0.92,1.171l-0.66,1.25l-0.421,1.42l-0.17,1.409l0.17,1.421l0.421,1.419l0.66,1.33l0.92,1.08l1.171,0.92l1.25,0.66l1.41,0.421l1.419,0.17l1.42,-0.17l1.41,-0.421l1.25,-0.66l1.171,-0.92l0.92,-1.08l0.66,-1.33l0.421,-1.419l0.17,-1.421l-0.17,-1.409l-0.421,-1.42l-0.66,-1.25l-0.92,-1.171l-1.171,-0.909l-1.25,-0.67l-1.41,-0.42l-1.42,-0.16Zm-6.499,19.41l-0,47.239l12.919,-0l0,-47.239l-12.919,-0Z" style="fill:#010001;fill-rule:nonzero;"/></g><g><rect id="path16701" serif:id="path1670" x="276.002" y="47.244" width="40.584" height="94.488" style="fill:#fff;"/><path id="path16721" serif:id="path1672" d="M306.005,107.819l2.41,-0.41l2.34,-0.67l2.83,10.751l-3.5,1l-3.58,0.66l-3.59,0.34l-3.661,0.083l-3.59,-0.33l-1.75,-0.34l-1.74,-0.75l-1.501,-1l-1.34,-1.25l-1.08,-1.41l-0.751,-1.671l-0.5,-1.75l-0.17,-1.83l-0,-28.002l-7.581,-0l0,-10.751l7.581,-0l-0,-14.742l12.921,-3.75l-0,18.492l12.001,-0l-0,10.751l-12.001,-0l-0,23.002l0.083,1l0.419,0.92l0.581,0.75l0.83,0.581l0.919,0.419l0.92,0.083l2.5,-0.176Z" style="fill:#010001;fill-rule:nonzero;"/></g></g></g><g><g><rect id="path1750" x="234.079" y="141.732" width="57.159" height="94.488" style="fill:#fff;"/><path id="path1752" d="M270.658,182.811l-0.34,-1.669l-0.75,-1.58l-1,-1.34l-1.25,-1.08l-1.75,-0.75l-1.91,-0.329l-1.92,0.082l-1.83,0.33l-1.84,0.75l-1.5,1l-1.33,1.25l-1,1.5l-0.67,1.59l-0.161,1.66l0,28.329l-12.919,0l-0,-47.159l12.919,0l0,3.33l1.91,-1.5l2.09,-1.25l2.16,-0.909l2.34,-0.591l2.33,-0.329l2.42,0.083l2.75,0.499l2.41,0.84l2.33,1.16l2.09,1.42l1.91,1.67l1.67,1.91l1.42,2.17l1.079,2.5l0.75,2.579l0.421,2.67l0.16,2.75l0,28.16l-12.909,-0l12.909,-0l-12.909,-0l-0,-28.08l-0.08,-1.666Z" style="fill:#010001;fill-rule:nonzero;"/></g><g><rect id="path1742" x="344.567" y="141.732" width="30.749" height="94.488" style="fill:#fff;"/><path id="path1744" d="M371.486,200.971l-2.5,0.33l-2.499,0.094l-0.921,-0.094l-0.75,-0.41l-0.66,-0.67l-0.42,-0.75l-0.17,-0.92l-0,-52.069l-12.91,0l-0,57.319l0.161,1.75l0.499,1.67l0.75,1.58l1.001,1.5l1.25,1.25l1.42,1l1.67,0.67l1.659,0.499l1.751,0.171l4.079,-0.341l4,-0.499l4,-0.75l-1.41,-11.33Z" style="fill:#010001;fill-rule:nonzero;"/></g><g><rect id="path1810" x="177.92" y="141.732" width="56.159" height="94.488" style="fill:#fff;"/><path id="path1812" d="M202.25,164.722l-2.84,0.17l-2.75,0.5l-2.66,0.92l-1.92,0.909l-1.83,1.171l-1.75,1.329l-1.5,1.59l-1.34,1.66l-1.33,2.42l-1,2.58l-0.831,2.59l-0.669,2.58l-0.41,2.67l-0.095,2.75l0.251,2.66l0.499,2.67l0.75,2.58l1.001,2.33l1.25,2.25l1.5,2.09l1.84,1.83l1.99,1.58l2.34,1.42l2.499,1.079l2.66,0.75l2.67,0.33l2.92,0.17l2.91,-0.33l2.84,-0.58l2.16,-0.75l2.09,-1.09l0,2.5l-0.17,1.42l-0.5,1.33l-0.75,1.171l-1,1l-1.171,0.75l-1.329,0.42l-3.5,0.33l-3.92,-0.094l-3.91,-0.491l-2.42,-0.59l-2.42,-0.75l-2.25,-1.08l-2.16,-1.34l-6.08,10.42l3.83,1.83l4,1.42l4,1.171l4.16,0.909l3.25,0.25l3.34,0.095l3.25,-0.251l3.329,-0.589l2.67,-0.66l2.58,-1.001l2.41,-1.339l2.25,-1.661l1.59,-1.59l1.25,-1.829l1.08,-2l0.75,-2.08l0.499,-2.17l0.17,-2.25l0,-45.409l-12.829,-0l-0,2.419l-1.75,-1.17l-1.92,-0.83l-2,-0.5l-2.75,-0.5l-2.824,-0.089Zm1.659,11.25l2.09,0.17l1.91,0.58l1.92,0.839l1.08,0.75l1,1.001l0.75,1.16l0.5,1.25l0.34,1.33l0,7.509l-0.34,1.74l-0.5,1.75l-0.58,1.26l-0.83,1.08l-1.09,0.83l-1.16,0.67l-1.75,0.58l-1.75,0.25l-1.84,0l-1.75,-0.25l-1.75,-0.5l-1.41,-0.67l-1.34,-0.909l-1.079,-1.17l-0.831,-1.33l-0.499,-1.42l-0.5,-1.91l-0.25,-2l0.082,-2l0.251,-1.92l0.58,-2.17l0.92,-2l0.67,-1.25l0.92,-1.08l1.079,-0.83l1.16,-0.67l2,-0.499l1.997,-0.171Z" style="fill:#010001;fill-rule:nonzero;"/></g><g><rect id="path1674" x="102.836" y="141.732" width="48.164" height="94.488" style="fill:#fff;"/><path id="path1676" d="M115.587,198.397l2.001,1.58l2.16,1.251l2.34,1l2.41,0.67l2.5,0.33l2.251,-0l1.59,-0.581l1.33,-0.919l0.75,-0.75l0.5,-1l0.08,-1.081l-0.25,-1.09l-0.58,-0.91l-0.83,-0.67l-3.25,-1.251l-3.34,-0.67l-3.001,-0.5l-4.08,-1l-2,-0.66l-1.83,-1l-1.67,-1.25l-1.501,-1.42l-1.25,-1.58l-1.08,-1.75l-0.67,-2.091l-0.41,-2.16l0,-2.17l0.25,-2.16l0.58,-2.17l0.92,-1.921l1.251,-1.83l1.41,-1.58l1.59,-1.42l1.83,-1.17l1.91,-0.911l2.09,-0.59l3.001,-0.659l3,-0.341l3.08,0l3.08,0.25l3.091,0.59l2.5,0.749l2.41,1l2.34,1.33l2.241,1.421l2,1.75l-7.991,8.49l-2.25,-1.83l-2.5,-1.5l-2.671,-1.16l-1.5,-0.419l-1.58,-0.25l-1.59,0l-1.66,0.42l-1.5,0.749l-1.34,1.001l-0.661,0.83l-0.34,0.919l0.09,1.081l0.33,0.91l0.58,0.841l1.001,0.58l5.5,1.081l5,0.67l1.921,0.33l0.08,-0l1.92,0.67l1.83,0.83l1.84,1.09l1.661,1.41l1.42,1.59l1.16,1.751l0.84,1.91l0.581,2.09l0.329,2.08l-0.082,2.17l-0.33,2.081l-0.67,2.08l-1.081,2.09l-1.34,1.91l-1.58,1.75l-1.83,1.5l-2.001,1.171l-3.25,1l-3.33,0.66l-3.42,0.34l-3.331,0l-3.42,-0.34l-3.33,-0.66l-3.001,-0.92l-2.92,-1.25l-2.66,-1.58l-2.5,-1.84l-2.341,-2.16l9.421,-8.671l1.752,1.839Z" style="fill:#010001;fill-rule:nonzero;"/></g><g><rect id="path16741" serif:id="path1674" x="375.316" y="141.732" width="48.164" height="94.488" style="fill:#fff;"/><path id="path16761" serif:id="path1676" d="M388.067,198.397l2.001,1.58l2.16,1.251l2.34,1l2.41,0.67l2.5,0.33l2.251,-0l1.59,-0.581l1.33,-0.919l0.75,-0.75l0.5,-1l0.08,-1.081l-0.25,-1.09l-0.58,-0.91l-0.83,-0.67l-3.25,-1.251l-3.34,-0.67l-3.001,-0.5l-4.08,-1l-2,-0.66l-1.83,-1l-1.67,-1.25l-1.501,-1.42l-1.25,-1.58l-1.08,-1.75l-0.67,-2.091l-0.41,-2.16l0,-2.17l0.25,-2.16l0.58,-2.17l0.92,-1.921l1.251,-1.83l1.41,-1.58l1.59,-1.42l1.83,-1.17l1.91,-0.911l2.09,-0.59l3.001,-0.659l3,-0.341l3.08,0l3.08,0.25l3.091,0.59l2.5,0.749l2.41,1l2.34,1.33l2.241,1.421l2,1.75l-7.991,8.49l-2.25,-1.83l-2.5,-1.5l-2.671,-1.16l-1.5,-0.419l-1.58,-0.25l-1.59,0l-1.66,0.42l-1.5,0.749l-1.34,1.001l-0.661,0.83l-0.34,0.919l0.09,1.081l0.33,0.91l0.58,0.841l1.001,0.58l5.5,1.081l5,0.67l1.921,0.33l0.08,-0l1.92,0.67l1.83,0.83l1.84,1.09l1.661,1.41l1.42,1.59l1.16,1.751l0.84,1.91l0.581,2.09l0.329,2.08l-0.082,2.17l-0.33,2.081l-0.67,2.08l-1.081,2.09l-1.34,1.91l-1.58,1.75l-1.83,1.5l-2.001,1.171l-3.25,1l-3.33,0.66l-3.42,0.34l-3.331,0l-3.42,-0.34l-3.33,-0.66l-3.001,-0.92l-2.92,-1.25l-2.66,-1.58l-2.5,-1.84l-2.341,-2.16l9.421,-8.671l1.752,1.839Z" style="fill:#010001;fill-rule:nonzero;"/></g><g><rect id="path17901" serif:id="path1790" x="151" y="141.732" width="26.92" height="94.488" style="fill:#fff;"/><path id="path17921" serif:id="path1792" d="M163.75,145.982l-1.42,0.16l-1.41,0.42l-1.25,0.67l-1.17,0.909l-0.92,1.171l-0.66,1.25l-0.421,1.42l-0.17,1.41l0.17,1.42l0.421,1.42l0.66,1.33l0.92,1.079l1.17,0.92l1.25,0.66l1.41,0.421l1.42,0.17l1.42,-0.17l1.41,-0.421l1.25,-0.66l1.171,-0.92l0.92,-1.079l0.66,-1.33l0.42,-1.42l0.171,-1.42l-0.171,-1.41l-0.42,-1.42l-0.66,-1.25l-0.92,-1.171l-1.171,-0.909l-1.25,-0.67l-1.41,-0.42l-1.42,-0.16Zm-6.5,19.41l0,47.239l12.92,-0l0,-47.239l-12.92,-0Z" style="fill:#010001;fill-rule:nonzero;"/></g><g><rect id="path16981" serif:id="path1698" x="291.238" y="141.732" width="53.329" height="94.488" style="fill:#fff;"/><path id="path17001" serif:id="path1700" d="M316.067,163.482l-3.08,0.16l-2.999,0.58l-3.75,1.091l-3.67,1.41l-3.5,1.669l-3.41,1.92l6.33,9.66l2.58,-1.58l2.67,-1.25l2.83,-1l2.919,-0.75l3,-0.421l1.66,-0.082l1.75,0.329l1.58,0.59l0.92,0.58l0.75,0.83l0.5,0.92l0.17,1.08l0,3l-4.17,0.17l-4.08,0.499l-4.08,0.75l-4,1.08l-3.919,1.42l-1.66,1l-1.59,1.25l-1.42,1.5l-1.16,1.58l-0.92,1.83l-0.661,1.92l-0.34,2l-0.082,2l0.17,2l0.49,1.92l0.759,1.91l1.001,1.75l1.24,1.59l1.42,1.41l1.67,1.17l2.41,1.16l2.589,0.92l2.75,0.589l2.75,0.33l2.75,-0.083l2.66,-0.34l2.67,-0.66l1.42,-0.67l1.33,-0.83l1.08,-1.001l0.92,-1.25l1,1.33l1.25,1.001l1.42,0.75l2.58,1l2.66,0.58l2.75,0.33l4.59,-10.08l-1.09,-0l-1.08,-0.16l-1.079,-0.499l-0.84,-0.67l-0.66,-0.92l-0.421,-1l-0.17,-1.16l0,-22.33l-0.161,-1.84l-0.42,-1.83l-0.75,-1.67l-0.92,-1.58l-1.25,-1.5l-1.41,-1.17l-1.59,-1.001l-2.25,-0.989l-2.41,-0.84l-2.92,-0.83l-3.08,-0.421l-2.996,-0.151Zm7.25,28.069l0,6.75l-0.17,1.25l-0.58,1.171l-0.75,1l-1.09,0.75l-1.16,0.42l-2.33,0.33l-2.34,0l-2.33,-0.33l-1.17,-0.42l-1,-0.75l-0.831,-0.92l-0.58,-1.08l-0.34,-1.079l0,-1.171l0.34,-1.17l0.58,-0.911l0.831,-0.839l1,-0.58l3.92,-1.001l2.28,-0.47l1.72,-0.36l4,-0.59Z" style="fill:#010001;fill-rule:nonzero;"/></g></g></g></g></svg>