<?xml version="1.0" encoding="UTF-8" standalone="no"?><!DOCTYPE svg PUBLIC "-//W3C//DTD SVG 1.1//EN" "http://www.w3.org/Graphics/SVG/1.1/DTD/svg11.dtd"><svg width="100%" height="100%" viewBox="0 0 514 454" version="1.1" xmlns="http://www.w3.org/2000/svg" xmlns:xlink="http://www.w3.org/1999/xlink" xml:space="preserve" xmlns:serif="http://www.serif.com/" style="fill-rule:evenodd;clip-rule:evenodd;stroke-linejoin:round;stroke-miterlimit:2;"><g id="scale-value" transform="matrix(50,0,0,50,350.88,262.709)"></g><text x="163.258px" y="262.709px" style="font-family:'ArialMT', 'Arial', sans-serif;font-size:50px;">sw=38.4</text><g id="_544.1-Pedestrians-in-Road" serif:id="544.1 Pedestrians in Road"><path d="M227.178,17.004c6.076,-10.522 17.302,-17.004 29.452,-17.004c12.149,0 23.376,6.482 29.452,17.004c54.065,93.625 168.545,291.872 222.619,385.514c6.077,10.524 6.079,23.491 0.003,34.016c-6.075,10.525 -17.303,17.009 -29.455,17.009l-445.238,0c-12.152,0 -23.38,-6.484 -29.455,-17.009c-6.076,-10.525 -6.074,-23.492 0.003,-34.016c54.074,-93.642 168.554,-291.889 222.619,-385.514Z" style="fill:#e31837;"/><path d="M256.665,56.708l202.961,351.496l-405.922,-0l202.961,-351.496Z" style="fill:#fff;"/><path d="M262.734,378.799l-0.093,0.925l-0.37,0.878l-0.509,0.786l-0.694,0.601l-15.033,10.634l-0.601,0.324l-0.648,0.139l-0.693,-0l-0.648,-0.185l-0.555,-0.37l-0.509,-0.462l-0.324,-0.601l-0.185,-0.648l-0.046,-0.647l0.185,-0.694l0.324,-0.601l4.995,-6.75l-8.141,-97.465l1.989,-78.509l-26.042,67.042l0.787,0.231l0.74,0.417l0.647,0.554l0.509,0.648l0.37,0.739l0.232,0.786l0.046,0.833l-0.093,0.832l-0.277,0.786l-0.416,0.74l-0.556,0.601l-3.376,2.358l-3.423,2.173l-3.516,2.034l-3.654,1.896l-3.7,1.711l-3.747,1.572l-3.839,1.433l-0.509,0.277l-0.416,0.37l-0.278,0.509l-0.092,0.601l0.046,0.555l11.333,46.79l0.231,1.48l-0,1.48l-0.139,1.479l-0.37,1.433l-0.555,1.388l-0.74,1.294l-0.879,1.202l-1.064,1.064l-1.156,0.878l-1.295,0.786l-1.388,0.555l-4.071,25.43l-0.092,0.971l0.185,1.017l0.324,0.971l0.555,0.832l3.284,4.208l0.324,0.554l0.185,0.555l-0,0.647l-0.139,0.555l-0.324,0.555l-0.416,0.463l-0.509,0.277l-0.601,0.185l-0.602,0.046l-0.601,-0.139l-0.509,-0.277l-9.02,-6.381l-0.693,-0.601l-0.555,-0.786l-0.324,-0.878l-0.093,-0.925l-0.046,-30.469l-0.046,-0.37l-0.185,-0.37l-0.324,-0.185l-0.416,-0.092l-0.37,0.092l-0.324,0.185l-2.036,1.711l-0.74,0.739l-0.555,0.879l-0.462,0.971l-0.232,1.017l-4.856,24.921l-0.278,1.11l-0.462,1.063l-0.602,0.971l-0.74,0.879l-0.879,0.739l-0.971,0.648l-5.181,3.375l-0.555,0.231l-0.647,0.093l-0.602,-0.139l-0.509,-0.324l-0.416,-0.416l-0.231,-0.601l-0.093,-0.601l0.139,-0.601l0.278,-0.509l1.434,-1.803l0.508,-0.693l0.324,-0.74l0.185,-0.832l0,-36.758l-1.387,-0.508l-0.463,-0.232l-0.371,-0.323l-0.23,-0.416l-0.093,-0.463l0.046,-0.508l1.249,-6.843l1.064,-6.843l0.787,-6.936l0.277,-2.82l0.139,-2.867l-0.093,-2.82l-0.277,-2.867l-0.463,-2.774l-0.647,-2.774l-0.833,-2.728l-3.515,4.947l-3.099,20.205l0.092,0.74l0.278,0.694l0.37,0.647l0.508,0.509l0.694,0.508l0.555,0.648l0.417,0.693l0.231,0.786l0.092,0.832l-0.092,0.833l-0.231,0.832l-0.417,0.74l-0.508,0.601l-0.694,0.508l-0.972,0.509l-1.017,0.324l-1.064,0.185l-1.11,-0l-0.787,-0.093l-1.11,-0.324l-1.064,-0.462l-0.971,-0.647l-0.879,-0.786l-0.74,-0.925l-0.555,-1.017l-0.37,-1.11l-0.37,-5.04l-0.185,-5.086l0.046,-5.085l0.231,-5.04l0.509,-5.918l0.74,-5.872l0.879,-5.872l0.463,-2.127l0.647,-2.081l0.787,-1.988l0.971,-1.942l1.156,-1.849l1.295,-1.757l1.434,-1.618l1.573,-1.526l1.712,-1.341l1.804,-1.202l1.896,-1.064l1.989,-0.878l0.694,-0.37l0.509,-0.509l0.416,-0.647l0.185,-0.693l0,-0.786l-0.231,-0.694l-0.37,-0.647l-1.11,-1.11l-1.018,-1.202l-0.833,-1.295l-0.694,-1.433l-0.508,-1.48l-0.37,-1.525l-0.185,-1.526l-0,-1.572l0.185,-1.572l0.323,-1.526l0.509,-1.479l0.694,-1.434l0.833,-1.294l0.971,-1.249l1.11,-1.109l1.249,-0.971l1.341,-0.833l1.388,-0.647l1.48,-0.508l1.573,-0.324l1.526,-0.185l1.573,-0l1.573,0.185l1.526,0.37l1.48,0.555l1.388,0.693l1.295,0.832l1.249,1.018l1.064,1.109l0.971,1.249l0.833,1.34l0.648,1.434l0.462,1.479l0.324,1.526l0.139,1.572l-0,1.572l-0.231,1.526l-0.371,1.526l-0.555,1.479l-0.693,1.387l-0.879,1.295l-1.018,1.202l-1.156,1.11l-0.417,0.462l-0.37,0.601l-0.185,0.601l-0.046,0.694l0.093,0.647l0.231,0.601l0.37,0.555l0.509,0.462l0.601,0.324l0.601,0.185l2.544,0.37l2.591,0.231l2.544,0.092l2.59,-0.092l2.544,-0.185l2.544,-0.37l-0.416,-0.786l-0.278,-0.878l-0.185,-0.879l0.047,-0.925l0.138,-0.878l0.324,-0.879l0.463,-0.786l0.555,-0.693l0.694,-0.555l0.786,-0.462l0.833,-0.324l0.878,-0.185l0.926,-0.046l21.37,-92.241l0.37,-1.294l0.509,-1.249l0.693,-1.202l0.833,-1.109l0.925,-0.971l1.018,-0.925l1.156,-0.74l3.238,-1.803l3.284,-1.665l3.377,-1.479l3.469,-1.387l3.469,-1.202l3.562,-1.017l0.74,-0.185l0.694,-0.37l0.601,-0.555l0.463,-0.647l0.277,-0.694l0.093,-0.786l-0.093,-0.786l-0.231,-0.74l-0.416,-0.647l-1.666,-2.358l-1.526,-2.451l-1.388,-2.496l-1.249,-2.59l-0.786,-1.757l-0.601,-1.849l-0.463,-1.849l-0.277,-1.896l-0.047,-1.942l0.139,-1.942l0.278,-1.896l0.509,-1.849l0.647,-1.803l0.879,-1.757l1.018,-1.618l1.156,-1.526l1.295,-1.433l1.434,-1.249l1.573,-1.156l1.665,-0.971l1.758,-0.786l1.804,-0.647l1.896,-0.416l1.897,-0.278l1.942,-0.046l1.897,0.093l1.943,0.323l1.85,0.463l1.804,0.693l1.711,0.832l1.666,1.018l1.526,1.156l1.434,1.294l1.249,1.433l1.156,1.572l0.972,1.665l0.786,1.757l0.647,1.803l0.463,1.85l0.278,1.941l0.046,1.896l-0.093,1.942l-0.323,1.896l-0.463,1.849l-0.648,1.803l-1.387,3.006l-1.527,2.913l-1.757,2.82l-1.897,2.728l-0.37,0.601l-0.231,0.74l-0.047,0.739l0.093,0.74l0.278,0.694l0.416,0.601l0.509,0.508l0.647,0.417l0.74,0.231l3.192,0.74l3.192,0.924l3.145,1.064l3.053,1.202l3.007,1.387l2.914,1.526l2.867,1.664l2.776,1.803l2.683,1.942l2.544,2.081l1.202,1.202l1.064,1.341l0.879,1.433l0.648,1.572l0.462,1.618l7.262,35.556l0.833,4.808l0.648,4.809l0.508,4.855l0.278,4.854l0.139,4.855l-0.047,4.855l-0.185,4.901l-0.416,4.855l-0.555,4.808l-0.786,4.809l-0.047,1.202l0.139,1.156l0.231,1.156l0.463,1.109l0.555,1.018l0.324,1.109l0.185,1.156l0.046,1.202l-0.139,1.156l-0.323,1.11l-0.463,1.109l-0.601,0.971l-0.787,0.925l-0.832,0.786l-0.972,0.647l-1.063,0.509l-1.111,0.37l-1.156,0.185l-1.203,-0l-1.156,-0.093l-1.11,-0.323l-1.064,-0.463l-1.018,-0.601l-0.925,-0.739l-0.786,-0.833l-0.648,-0.971l-0.555,-1.063l-0.37,-1.11l-0.185,-1.156l-0.046,-1.156l0.139,-1.202l0.277,-1.109l0.602,-1.249l0.462,-1.294l0.37,-1.295l0.463,-3.93l0.323,-3.93l0.139,-3.976l-0.046,-3.93l-0.231,-3.93l-0.417,-3.93l-0.555,-3.931l-0.74,-3.883l-0.925,-3.838l-1.064,-3.791l-1.295,-3.745l-1.388,-3.699l-1.572,-3.607l-1.758,-3.56l-1.897,-3.467l-2.035,-3.376l-2.174,-3.282l6.06,61.586l0.277,3.791l0.185,3.838l0,3.791l-0.138,3.838l-1.851,32.041l-8.65,69.493l2.267,3.791l0.37,0.555l0.278,0.601l0.138,0.601l-0.046,0.693l-0.139,0.601l-0.323,0.601l-0.371,0.509l-0.555,0.416l-0.555,0.278l-0.647,0.138l-0.648,0l-0.647,-0.138l-0.602,-0.232l-0.509,-0.416l-10.083,-9.386l-0.602,-0.647l-0.416,-0.832l-0.231,-0.879l-0,-0.878l0.694,-7.583l0.462,-7.582l0.324,-7.583l0.139,-7.583l-0.046,-7.582l-0.232,-7.629l-0.37,-7.583l-0.555,-7.583l-2.683,-35.925l-1.434,6.612l-1.341,6.611l-1.156,6.612l-0.972,6.658l-0.832,6.704l-0.741,12.53l-0.555,12.484l-0.37,12.576l-0.231,12.53l-0.092,12.53Z"/></g></svg>