<?xml version="1.0" encoding="UTF-8" standalone="no"?><!DOCTYPE svg PUBLIC "-//W3C//DTD SVG 1.1//EN" "http://www.w3.org/Graphics/SVG/1.1/DTD/svg11.dtd"><svg width="100%" height="100%" viewBox="0 0 514 454" version="1.1" xmlns="http://www.w3.org/2000/svg" xmlns:xlink="http://www.w3.org/1999/xlink" xml:space="preserve" xmlns:serif="http://www.serif.com/" style="fill-rule:evenodd;clip-rule:evenodd;stroke-linejoin:round;stroke-miterlimit:2;"><g id="scale-value" transform="matrix(50,0,0,50,350.88,244.423)"></g><text x="163.258px" y="244.423px" style="font-family:'ArialMT', 'Arial', sans-serif;font-size:50px;">sw=38.4</text><g id="_544-Zebra-Crossing" serif:id="544 Zebra Crossing"><path d="M227.178,17.004c6.076,-10.522 17.302,-17.004 29.452,-17.004c12.149,0 23.376,6.482 29.452,17.004c54.065,93.625 168.545,291.872 222.619,385.514c6.077,10.524 6.079,23.491 0.003,34.016c-6.075,10.525 -17.303,17.009 -29.455,17.009l-445.238,0c-12.152,0 -23.38,-6.484 -29.455,-17.009c-6.076,-10.525 -6.074,-23.492 0.003,-34.016c54.074,-93.642 168.554,-291.889 222.619,-385.514Z" style="fill:#e31837;"/><path d="M256.665,56.708l202.961,351.496l-405.922,-0l202.961,-351.496Z" style="fill:#fff;"/><path d="M185.383,356.23l-0.845,-0.755l-0.8,-0.889l-0.622,-0.934l-0.489,-1.067l-0.355,-1.111l-3.378,-14.135l4.533,-3.6l4.445,-3.734l4.311,-3.867l4.222,-4.001l4.133,-4.089l3.956,-4.223l3.866,-4.356l3.734,-4.445l3.6,-4.534l3.466,-4.667l3.334,-4.712l3.199,-4.845l3.067,-4.934l2.933,-5.023l2.756,-5.112l2.622,-5.156l2.445,-5.289l4.177,5.6l4.045,5.734l3.866,5.779l3.734,5.912l3.6,6l3.422,6.046l3.289,6.178l3.155,6.223l2.978,6.312l2.8,6.401l2.667,6.49l2.489,6.489l2.311,6.579l2.177,6.668l2,6.667l1.823,6.756l1.644,6.801l1.467,6.801l39.955,-16.935l0.533,-0.356l0.445,-0.489l0.266,-0.622l0.089,-0.667l-0.089,-0.622l-0.266,-0.623l-0.4,-0.533l-0.534,-0.4l-0.622,-0.222l-25.377,-2.712l-0.4,-5.778l-0.623,-5.779l-0.755,-5.734l-0.889,-5.734l-1.111,-5.734l-1.245,-5.645l-1.377,-5.645l-1.556,-5.601l-1.689,-5.556l-1.866,-5.512l-2.045,-5.423l-3.778,-6.667l-3.644,-6.757l-3.556,-6.801l-3.377,-6.889l-1.467,-3.601l-1.289,-3.645l-1.111,-3.689l-0.889,-3.778l-0.755,-3.779l-0.534,-3.822l-0.4,-3.868l-0.178,-3.867l0.045,-3.867l0.178,-3.867l0.4,-3.823l0.577,-3.822l0.756,-3.779l0.933,-3.778l1.156,-3.689l1.6,3.156l1.778,3.067l1.911,3.022l2.044,2.89l2.178,2.755l2.355,2.712l2.445,2.534l2.578,2.444l2.666,2.312l2.8,2.178l2.934,2.044l2.977,1.867l3.111,1.734l3.156,1.6l3.289,1.423l3.289,1.289l3.377,1.111l3.423,0.933l3.466,0.756l3.511,0.578l3.511,0.444l0.445,0.578l0.578,0.489l0.666,0.4l0.711,0.222l0.756,0.089l0.756,-0.044l0.711,-0.178l0.666,-0.311l0.623,-0.445l0.488,-0.577l0.4,-0.623l0.978,-2.267l0.845,-2.311l0.666,-2.356l0.578,-2.356l0.4,-2.445l0.222,-2.444l-0.089,-0.756l-0.222,-0.756l-0.355,-0.666l-0.489,-0.578l-0.622,-0.489l-0.712,-0.356l-0.711,-0.222l-0.8,-0.044l-0.755,0.133l-0.756,0.222l-0.666,0.4l-0.578,0.534l-0.445,0.622l-3.111,-1.067l-3.022,-1.2l-2.978,-1.334l-2.889,-1.511l-2.844,-1.689l-2.711,-1.778l-2.622,-1.956l-2.534,-2.089l-2.4,-2.178l-2.311,-2.356l-2.177,-2.445l-2.045,-2.533l-1.911,-2.667l-1.733,-2.756l-1.645,-2.845l-1.466,-2.934l-1.289,-2.978l-1.156,-3.067l-1.022,-3.111l-0.4,-1.912l-0.533,-1.911l-0.667,-1.867l-0.8,-1.778l-1.867,-3.334l-1.955,-3.245l-2.178,-3.156l-2.267,-3.067l-2.444,-2.933l-2.578,-2.845l-2.711,-2.667l-2.8,-2.578l-0.444,-0.489l-0.311,-0.534l-0.178,-0.622l-0.045,-0.622l0.089,-0.623l0.222,-0.577l0.356,-0.534l0.489,-0.444l0.533,-0.311l1.778,-0.845l1.644,-1.022l1.556,-1.156l1.467,-1.289l1.289,-1.422l1.2,-1.512l1.022,-1.644l0.889,-1.734l0.711,-1.822l0.577,-1.867l0.356,-1.912l0.178,-1.911l0.044,-1.956l-0.178,-1.911l-0.355,-1.912l-0.533,-1.866l-0.667,-1.823l-0.845,-1.733l-1.022,-1.69l-1.155,-1.555l-1.289,-1.423l-1.422,-1.333l-1.556,-1.156l-1.644,-1.022l-1.734,-0.889l-1.822,-0.712l-1.867,-0.533l-1.911,-0.356l-1.911,-0.222l-1.955,0l-1.911,0.178l-1.911,0.356l-1.867,0.533l-1.822,0.711l-1.734,0.845l-1.644,1.022l-1.556,1.156l-1.466,1.289l-1.289,1.467l-1.2,1.511l-1.022,1.645l-0.845,1.778l-0.711,1.778l-0.533,1.867l-0.356,1.911l-0.178,1.956l0,1.911l0.178,1.956l0.356,1.911l0.533,1.867l0.711,1.778l0.845,1.778l1.022,1.645l1.2,1.511l0.355,0.534l0.223,0.622l0.044,0.622l-0.044,0.622l-0.178,0.578l-0.311,0.578l-0.445,0.445l-0.533,0.355l-0.578,0.223l-0.622,0.088l-3.111,0.178l-3.111,0.4l-3.111,0.534l-3.022,0.711l-3.023,0.844l-2.933,1.067l-2.889,1.2l-2.844,1.378l-1.822,1.023l-1.734,1.155l-1.644,1.334l-1.556,1.378l-3.155,3.2l-2.978,3.334l-2.889,3.378l-2.755,3.556l-2.623,3.601l-2.444,3.733l-2.356,3.823l-2.177,3.912l-2.045,3.956l-1.866,4.045l-1.734,4.134l-1.555,4.178l-1.423,4.267l-1.244,4.267l-1.111,4.357l-0.889,4.356l-0.756,4.4l-0.577,4.445l-0.445,4.445l-1.022,0.4l-0.933,0.534l-0.8,0.711l-0.711,0.844l-0.489,0.934l-0.4,1.022l-0.134,1.067l0,1.067l0.223,1.067l0.355,1.022l0.578,0.933l1.378,1.512l1.466,1.422l1.6,1.245l1.689,1.155l1.778,1.023l1.867,0.844l1.911,0.712l2,0.577l2,0.356l1.022,0.178l1.022,-0l1.022,-0.178l0.978,-0.311l0.933,-0.489l0.845,-0.578l0.755,-0.711l0.623,-0.845l0.489,-0.889l0.355,-0.978l0.178,-1.022l0.044,-1.022l-0.133,-1.023l-0.267,-1.022l-0.666,-2.489l-0.534,-2.534l-0.4,-2.534l-0.222,-2.578l-0.089,-2.622l0.134,-2.578l0.222,-2.578l0.666,-2.979l0.8,-2.978l0.978,-2.889l1.111,-2.845l1.334,-2.8l1.466,-2.667l1.6,-2.623l1.778,-2.489l1.911,-2.4l2.045,-2.312l2.177,-2.178l2.267,-2.044l0.178,5.111l-0,5.157l-0.178,5.111l-0.356,5.068l-0.533,5.111l-0.711,5.068l-0.844,5.023l-1.023,5.022l-1.2,4.979l-1.333,4.934l-1.556,4.889l-1.688,4.801l-2.267,5.512l-2.444,5.378l-2.623,5.334l-2.8,5.29l-2.933,5.156l-3.067,5.067l-3.244,4.979l-3.378,4.889l-3.511,4.801l-3.644,4.667l-3.822,4.578l-3.956,4.445l-4.044,4.312l-4.223,4.223l-4.311,4.089l-4.444,3.956l12.266,22.225l0.8,1.245l0.934,1.156l1.066,1.022l1.2,0.889l1.289,0.756l1.334,0.622l1.422,0.444l1.467,0.267l10.977,1.378l0.578,-0.044l0.533,-0.134l0.445,-0.266l0.4,-0.4l0.266,-0.489l0.134,-0.534l-0,-0.533l-0.134,-0.534l-0.311,-0.444l-0.355,-0.4l-3.511,-2.623Z" style="fill-rule:nonzero;"/><rect x="204.696" y="328.834" width="18.898" height="7.559"/><rect x="204.696" y="389.306" width="18.898" height="7.559"/><rect x="233.043" y="328.834" width="18.898" height="7.559"/><rect x="233.043" y="389.306" width="18.898" height="7.559"/><rect x="261.389" y="328.834" width="18.898" height="7.559"/><rect x="261.389" y="389.306" width="18.898" height="7.559"/><rect x="289.736" y="389.306" width="18.898" height="7.559"/><rect x="318.082" y="328.834" width="18.898" height="7.559"/><rect x="318.082" y="389.306" width="18.898" height="7.559"/><rect x="346.429" y="328.834" width="18.898" height="7.559"/><rect x="346.429" y="389.306" width="18.898" height="7.559"/><rect x="119.657" y="328.834" width="18.898" height="7.559"/><rect x="119.657" y="389.306" width="18.898" height="7.559"/><rect x="91.311" y="389.306" width="18.898" height="7.559"/><rect x="374.775" y="328.834" width="18.898" height="7.559"/><rect x="374.775" y="389.306" width="18.898" height="7.559"/><rect x="148.004" y="389.306" width="18.898" height="7.559"/><rect x="403.122" y="389.306" width="18.898" height="7.559"/><rect x="176.35" y="328.834" width="18.898" height="7.559"/><rect x="176.35" y="389.306" width="18.898" height="7.559"/></g></svg>