<?xml version="1.0" encoding="UTF-8" standalone="no"?><!DOCTYPE svg PUBLIC "-//W3C//DTD SVG 1.1//EN" "http://www.w3.org/Graphics/SVG/1.1/DTD/svg11.dtd"><svg width="100%" height="100%" viewBox="0 0 514 454" version="1.1" xmlns="http://www.w3.org/2000/svg" xmlns:xlink="http://www.w3.org/1999/xlink" xml:space="preserve" xmlns:serif="http://www.serif.com/" style="fill-rule:evenodd;clip-rule:evenodd;stroke-linejoin:round;stroke-miterlimit:2;"><g id="scale-value" transform="matrix(50,0,0,50,350.88,366.448)"></g><text x="163.258px" y="366.448px" style="font-family:'ArialMT', 'Arial', sans-serif;font-size:50px;">sw=38.4</text><g id="_544.2-Disabled-or-Elderly-Pedestrians" serif:id="544.2 Disabled or Elderly Pedestrians"><path d="M227.178,17.004c6.076,-10.522 17.302,-17.004 29.452,-17.004c12.149,0 23.376,6.482 29.452,17.004c54.065,93.625 168.545,291.872 222.619,385.514c6.077,10.524 6.079,23.491 0.003,34.016c-6.075,10.525 -17.303,17.009 -29.455,17.009l-445.238,0c-12.152,0 -23.38,-6.484 -29.455,-17.009c-6.076,-10.525 -6.074,-23.492 0.003,-34.016c54.074,-93.642 168.554,-291.889 222.619,-385.514Z" style="fill:#e31837;"/><path d="M256.665,56.708l202.961,351.496l-405.922,-0l202.961,-351.496Z" style="fill:#fff;"/><path d="M288.241,393.086l-26.028,-0l-0.448,-0.075l-0.449,-0.187l-0.373,-0.298l-0.299,-0.411l-0.149,-0.448l-1.27,-6.16l-1.381,-6.159l-1.532,-6.085l-1.68,-6.085l-1.793,-6.011l-1.941,-6.01l-2.054,-5.936l-2.166,-5.898l-2.353,-5.862l0.037,4.891l-0.149,4.89l-0.261,4.891l-0.374,4.89l-0.523,4.853l-0.672,4.854l-0.784,4.853l-0.896,4.815l-1.046,4.779l-0.112,0.672l0.112,0.672l0.224,0.672l0.374,0.56l0.485,0.485l0.598,0.336l8.626,3.771l0.485,0.298l0.411,0.374l0.336,0.485l0.187,0.523l0.075,0.56l-0.075,0.56l-0.149,0.522l-0.299,0.486l-0.411,0.373l-0.448,0.298l-0.523,0.187l-0.56,0.075l-56.837,-0l-14.826,-42.596l-8.85,0l-7.955,30.164l-0.074,0.598l0.074,0.597l0.187,0.56l0.336,0.523l0.448,0.41l0.523,0.299l12.734,5.376l0.486,0.298l0.411,0.411l0.261,0.523l0.112,0.56l-0.037,0.597l-0.187,0.523l-0.336,0.485l-0.448,0.373l-0.523,0.224l-0.598,0.075l-26.327,-0l2.465,-42.596l-13.556,0l-0,-14.485l0.112,-3.359l0.373,-5.152l0.486,-5.115l0.672,-5.114l0.784,-5.115l0.971,-5.077l1.083,-5.039l1.27,-5.003l1.382,-4.965l1.531,-4.928l1.68,-4.89l1.83,-4.816l1.942,-4.779l2.091,-4.741l2.241,-4.629l2.352,-4.592l2.503,-4.517l2.651,-4.442l2.763,-4.368l2.876,-4.293l2.987,-4.181l3.137,-4.107l3.249,-4.032l3.361,-3.92l3.473,-3.807l3.585,-3.734l3.66,-3.621l3.809,-3.509l0.523,-0.56l0.448,-0.672l0.336,-0.709l0.224,-0.784l0.075,-0.784l-0.075,-0.822l-0.187,-0.783l-0.411,-1.531l-0.298,-1.605l-0.187,-1.606l0,-1.642l0.112,-1.605l0.261,-1.606l0.411,-1.568l0.523,-1.53l0.672,-1.456l0.784,-1.419l0.897,-1.344l1.045,-1.269l1.121,-1.157l1.232,-1.046l1.307,-0.97l1.419,-0.822l1.457,-0.709l1.493,-0.56l1.569,-0.448l1.605,-0.336l1.606,-0.149l1.606,-0.037l1.606,0.112l1.606,0.261l1.568,0.41l1.531,0.523l1.494,0.635l1.419,0.784l1.344,0.933l1.27,1.008l1.158,1.12l1.083,1.232l0.933,1.307l0.859,1.381l0.71,1.456l0.597,1.493l0.448,1.568l0.299,1.605l0.187,1.605l0.037,1.606l-0.112,1.642l-0.261,1.606l-0.374,1.568l-0.523,1.53l-0.672,1.493l-0.747,1.419l-0.896,1.344l-1.045,1.269l-1.121,1.158l-1.195,1.082l-1.307,0.933l-1.382,0.859l-1.456,0.709l-1.531,0.598l-1.531,0.448l-1.606,0.336l-1.606,0.186l-0.709,0.374l-0.598,0.485l-0.523,0.56l-0.41,0.672l-0.262,0.747l-1.381,3.247l-1.27,3.323l-1.158,3.322l-1.008,3.398l-0.859,3.397l-0.411,1.642l-0.261,1.643l-0.112,1.68l0.037,1.643l0.187,1.68l0.336,1.642l0.448,1.568l0.598,1.568l0.746,1.493l0.859,1.456l0.971,1.344l1.083,1.269l1.195,1.158l1.27,1.045l1.382,0.971l1.456,0.821l1.531,0.672l1.569,0.56l1.605,0.448l0.747,-3.621l0.859,-3.547l1.046,-3.509l1.157,-3.509l1.27,-3.435l1.419,-3.36l1.569,-3.322l1.68,-3.248l1.83,-3.211l1.905,-3.098l2.053,-3.061l2.204,-2.95l2.278,-2.837l2.39,-2.8l2.502,-2.687l2.614,-2.576l2.689,-2.464l2.8,-2.39l2.876,-2.239l2.987,-2.166l3.063,-2.016l3.136,-1.904l3.212,-1.791l3.286,-1.643l0.56,-0.336l0.486,-0.448l0.411,-0.523l0.298,-0.597l0.15,-0.635l0.074,-0.672l0.038,-4.442l0.336,-1.605l0.448,-1.531l0.56,-1.531l0.71,-1.455l0.821,-1.382l0.971,-1.306l1.083,-1.232l1.158,-1.12l1.27,-1.046l1.344,-0.896l1.419,-0.783l1.494,-0.635l1.531,-0.523l1.568,-0.373l1.606,-0.261l1.643,-0.112l1.606,0.074l1.606,0.15l1.606,0.336l1.568,0.485l1.494,0.597l1.456,0.709l1.382,0.859l1.307,0.971l1.195,1.082l1.12,1.195l1.009,1.269l0.858,1.344l0.785,1.419l0.635,1.493l0.485,1.568l0.373,1.568l0.225,1.605l0.074,1.643l-0.037,1.605l-0.224,1.605l-0.336,1.606l-0.486,1.53l-0.597,1.494l-0.747,1.455l-0.896,1.382l-1.046,1.082l-1.158,0.971l-1.232,0.859l-1.307,0.746l-1.382,0.598l-1.419,0.522l-1.456,0.336l-1.494,0.224l-1.494,0.112l-1.494,-0.074l-1.531,-0.187l-0.784,-0.075l-0.784,0.075l-0.747,0.224l-0.709,0.336l-0.635,0.485l-0.56,0.56l-0.411,0.672l-0.336,0.747l-0.15,0.784l-0.037,0.784l0.112,0.784l1.083,4.031l1.195,4.032l1.307,3.957l1.494,3.92l1.568,3.883l1.718,3.808l1.867,3.77l1.979,3.659l2.092,3.658l2.203,3.547l2.353,3.472l2.427,3.397l2.577,3.285l2.688,3.248l2.764,3.136l2.875,3.024l2.988,2.949l3.062,2.837l3.174,2.725l3.287,2.651l3.323,2.501l3.436,2.389l0.709,0.523l0.597,0.635l0.486,0.746l0.373,0.784l0.187,0.859l0.075,0.858l-0.113,0.896l-0.224,0.822l-0.41,0.784l-0.523,0.709l-0.634,0.597l-0.711,0.486l-0.82,0.373l-0.859,0.187l-0.859,0.074l-16.245,99.415l-4.556,-0.709l15.797,-99.527l-1.606,-0.56l-1.531,-0.672l-1.494,-0.784l-1.419,-0.933l-1.344,-1.008l-0.449,0.485l-0.298,0.523l-0.187,0.597l-0.075,0.635l0.112,0.634l-5.004,0.411l-0.149,-0.821l-0,-0.822l0.149,-0.821l0.299,-0.821l0.411,-0.71l0.56,-0.634l0.261,-0.411l0.15,-0.448l-0.038,-0.485l-0.186,-0.448l-0.336,-0.336l-4.108,-3.248l-3.996,-3.36l-3.921,-3.472l-3.809,-3.584l-3.735,-3.658l-3.585,-3.808l-3.473,-3.92l-3.361,-3.994l-3.249,-4.107l-3.136,-4.181l-2.988,-4.293l-0.373,-0.448l-0.486,-0.336l-0.523,-0.187l-0.56,-0.112l-0.597,0.038l-0.523,0.186l-0.486,0.299l-0.41,0.373l-2.092,2.688l-1.942,2.725l-1.829,2.838l-1.718,2.911l-1.569,2.95l-1.419,3.061l-1.307,3.098l-1.195,3.174l-1.008,3.21l-0.896,3.248l-0.747,3.285l-0.598,3.285l-0.448,3.36l-0.299,3.36l-0.186,3.36l-0,3.36l0.149,3.36l0.262,3.36l0.448,3.322l14.9,78.36l0.224,0.709l0.336,0.635l0.486,0.56l0.597,0.448l0.71,0.335l10.979,3.659l0.485,0.224l0.448,0.336l0.336,0.411l0.262,0.448l0.112,0.522l0.037,0.56l-0.075,0.523l-0.186,0.485l-0.299,0.448l-0.411,0.373l-0.448,0.262l-0.523,0.186l-0.523,0.038Zm-87.123,-123.867l-0.56,-0.448l-0.635,-0.299l-0.672,-0.186l-0.672,-0.075l-0.71,0.112l-0.672,0.224l-0.597,0.336l-0.523,0.485l-0.448,0.56l-0.299,0.635l-1.083,3.248l-0.971,3.285l-0.822,3.322l-0.672,3.36l-0.523,3.397l-0.373,3.398l-0.224,3.434l-0.075,3.435l0.075,3.434l0.187,3.397l0.373,3.435l0.523,3.397l7.431,39.385l-4.63,0l5.639,30.202l0.224,0.672l0.336,0.597l0.523,0.485l0.597,0.336l13.145,5.451l0.486,0.149l0.522,-0.037l0.449,-0.15l0.41,-0.261l0.336,-0.373l0.187,-0.486l1.307,-4.853l1.158,-4.89l1.008,-4.965l0.896,-4.965l0.747,-4.966l0.598,-5.002l0.448,-5.003l0.299,-5.039l0.186,-5.04l0.038,-5.04l-0.112,-5.04l-0.262,-5.039l-0.373,-5.003l-0.56,-5.04l-0.673,-4.965l-0.821,-5.002l-0.934,-4.928l-0.709,-3.248l-0.56,-3.323l-0.411,-3.285l-0.262,-3.322l-0.149,-3.323l0.037,-3.36l0.15,-3.322l-2.39,-0.747l-2.353,-0.896l-2.315,-1.008l-2.241,-1.194l-2.128,-1.307l-2.054,-1.456l-1.98,-1.568l-1.867,-1.717Z"/></g></svg>