<?xml version="1.0" encoding="UTF-8" standalone="no"?><!DOCTYPE svg PUBLIC "-//W3C//DTD SVG 1.1//EN" "http://www.w3.org/Graphics/SVG/1.1/DTD/svg11.dtd"><svg width="100%" height="100%" viewBox="0 0 514 454" version="1.1" xmlns="http://www.w3.org/2000/svg" xmlns:xlink="http://www.w3.org/1999/xlink" xml:space="preserve" xmlns:serif="http://www.serif.com/" style="fill-rule:evenodd;clip-rule:evenodd;stroke-linejoin:round;stroke-miterlimit:2;"><g id="scale-value" transform="matrix(50,0,0,50,355.127,329.849)"></g><text x="167.505px" y="329.849px" style="font-family:'ArialMT', 'Arial', sans-serif;font-size:50px;">sw=38.4</text><g id="_545-Children-Likely-to-be-in-Road" serif:id="545 Children Likely to be in Road"><path d="M227.178,17.004c6.076,-10.522 17.302,-17.004 29.452,-17.004c12.149,0 23.376,6.482 29.452,17.004c54.065,93.625 168.545,291.872 222.619,385.514c6.077,10.524 6.079,23.491 0.003,34.016c-6.075,10.525 -17.303,17.009 -29.455,17.009l-445.238,0c-12.152,0 -23.38,-6.484 -29.455,-17.009c-6.076,-10.525 -6.074,-23.492 0.003,-34.016c54.074,-93.642 168.554,-291.889 222.619,-385.514Z" style="fill:#e31837;"/><path d="M256.665,56.708l202.961,351.496l-405.922,-0l202.961,-351.496Z" style="fill:#fff;"/><path d="M329.388,316.716c1.772,1.789 3.071,4.013 3.773,6.462l-0.023,0.112l4.061,21.573l0.032,-0.029c1.286,7.225 2.917,14.381 4.887,21.441l0.003,-0.054c0.594,1.983 1.52,3.845 2.736,5.502l0.021,0.004c1.121,1.041 2.449,1.821 3.891,2.285l-0.018,0.077c2.612,0.577 5.282,0.834 7.954,0.767l0.004,0.01l8.034,-0.09l0.046,-0.09c0.726,-0.014 1.446,0.142 2.105,0.455l-0.033,0.088l0.442,0.272l0.059,-0.049c1.214,1.128 1.527,2.96 0.759,4.445l0.04,0.032c-0.516,0.934 -1.276,1.7 -2.194,2.213l-0.028,-0.007c-0.852,0.604 -1.77,1.104 -2.734,1.49l0.015,0.05c-6.752,2.914 -13.689,5.353 -20.764,7.3l-0.022,-0.074c-1.193,0.333 -2.409,0.576 -3.636,0.727l0.042,0.029c-1.261,0.219 -2.554,-0.086 -3.596,-0.849l-0.066,0.014c-1.415,-1.326 -2.347,-3.108 -2.644,-5.051l-0.014,0.063l-0.794,-5.348l0.054,-0.133c-0.29,-1.788 -0.741,-3.545 -1.348,-5.247l-0.017,0.047c-2.31,-6.097 -4.802,-12.12 -7.471,-18.061l0.098,-0.044c-2.255,-5.115 -4.006,-10.45 -5.227,-15.923l-0.117,0.069c-0.636,-4.125 -1.045,-8.282 -1.226,-12.453l0.068,-0.012c-0.268,-1.545 -1.122,-2.919 -2.374,-3.82l-0.008,0.013l-3.708,-3.626l0.01,-0.012c-7.768,1.576 -15.74,1.795 -23.579,0.649l-0.041,-0.053c-0.231,1.195 -0.642,2.344 -1.219,3.408l0.072,-0.026c-1.404,2.136 -3.171,3.995 -5.217,5.488l-0.069,0.051c-1.972,1.556 -3.976,3.067 -6.011,4.534l-0.053,0.011l-14.125,10.424l0.049,-0.072c-4.768,3.506 -8.92,7.822 -12.279,12.763l-0.056,0.008c-2.02,3.314 -2.956,7.204 -2.672,11.103l0.054,-0.021c0.286,4.028 0.889,8.026 1.804,11.954l-0.121,0.08c0.389,1.342 0.614,2.729 0.671,4.128l0.091,-0.007c-0.097,1.205 -0.809,2.266 -1.871,2.787l0.009,-0.044c-1.305,0.728 -2.905,0.597 -4.081,-0.334l-0.054,-0.006c-1.055,-0.865 -2.008,-1.853 -2.84,-2.944l-0.068,0.035l-11.035,4.079l-11.123,3.535l0.018,-0.058c-1.961,0.695 -4.133,0.276 -5.715,-1.102l0.019,0.079c-1.081,-1.699 -1.765,-3.63 -2,-5.645l-0.091,0.018l-3.443,-17.766l-3.796,-17.676l0.043,-0.105c-1.737,-4.56 -3.811,-8.977 -6.205,-13.211l-0.018,0.082l-5.032,-9.427l-5.385,-9.336l-5.385,8.974l-5.827,8.792l0.024,-0.042c-1.794,2.575 -4.062,4.762 -6.678,6.439l-0.009,0c-5.145,2.795 -10.43,5.309 -15.834,7.531l-0.102,0.031l-15.979,7.161l-4.767,2.448l-4.591,17.403l0.092,-0.066c-0.379,1.751 -1.934,2.966 -3.679,2.871l-0.051,-0.027c-1.658,0.23 -3.242,-0.781 -3.773,-2.41l-0.024,-0.035c-0.841,-2.059 -1.464,-4.206 -1.859,-6.402l0.059,0.006c-1.271,-6.209 -1.983,-12.525 -2.126,-18.867l-0.027,0.048c-0.029,-1.941 0.883,-3.771 2.432,-4.883l-0.049,-0.057l7.857,-3.988l14.39,-8.158l14.213,-8.702l0.065,-0.056c2.095,-1.034 3.693,-2.893 4.432,-5.155l0.006,0.045l5.296,-12.328l4.944,-12.599l1.854,-11.15l1.495,-11.193c0.03,-0.016 0.061,-0.032 0.092,-0.048l-0.086,0.002l-0.006,0.046c-3.898,2.015 -7.559,4.48 -10.913,7.346l-0.019,-0.062c-2.022,4.251 -3.781,8.629 -5.267,13.107l-0.07,-0.017c-0.493,1.339 -0.796,2.743 -0.9,4.17l0.041,0.068c0.031,2.081 -0.038,4.163 -0.206,6.238l-0.008,-0.011c-0.202,1.686 -1.076,3.209 -2.415,4.206c-1.338,0.997 -3.02,1.378 -4.643,1.052l0.019,0.02c-2.126,-0.069 -4.13,-1.034 -5.54,-2.669c-1.41,-1.634 -2.102,-3.793 -1.912,-5.968l-0.031,-0.07c0.38,-1.916 0.931,-3.792 1.647,-5.604l0.042,0.063c1.241,-6.699 2.91,-13.307 4.998,-19.781l-0.044,-0.053c0.804,-2.57 2.007,-4.99 3.562,-7.167l-0.039,-0.026c3.694,-3.9 7.808,-7.355 12.263,-10.299l0.056,-0.011c3.213,-2.182 6.514,-4.222 9.896,-6.116l0.011,0.031c3.438,-1.833 7.291,-2.691 11.16,-2.484l-0.016,-0.03c2.682,0.004 5.363,0.076 8.041,0.216l-0.021,0.056l0.079,-0.053c-0.019,-0.001 -0.039,-0.002 -0.058,-0.003l1.304,-3.57l0.002,-0.022c-4.22,-3.945 -6.569,-9.573 -6.442,-15.432l0.014,-0.013c0.442,-9.756 8.453,-17.326 17.959,-16.972l-0.04,-0.011c4.701,0.042 9.177,2.072 12.375,5.611c3.197,3.539 4.832,8.274 4.521,13.091l0.037,-0.033c0.056,7.873 -4.583,14.981 -11.697,17.923l-0.044,0.028l-1.501,4.26l0.031,-0.061c5.741,1.329 10.759,4.883 14.008,9.921l-0.086,-0.025c4.138,8.141 7.52,16.665 10.1,25.459l0.039,0.052c4.574,-1.445 9.199,-2.716 13.865,-3.809l0.038,-0.016c-3.281,-10.683 -4.96,-21.816 -4.978,-33.018l0.001,-0.017c0.048,-3.347 1.276,-6.562 3.456,-9.049l0.039,0.021c7.85,-8.102 16.736,-15.073 26.413,-20.722l-0.043,0.028c2.756,-1.451 5.798,-2.237 8.895,-2.298l0.018,0.059c2.59,-0.153 5.186,-0.192 7.779,-0.117l-0.034,-0.037l0.441,-4.351l0.073,-0.076c-1.85,-0.739 -3.623,-1.668 -5.293,-2.772l-0.09,0.005c-1.78,-0.944 -3.363,-2.239 -4.658,-3.809l0.041,-0.023c-0.119,-1.419 -0.161,-2.844 -0.123,-4.267l-0.012,0.031c0.032,-3.597 0.559,-7.171 1.565,-10.617l0.01,0.002c0.964,-3.505 2.784,-6.698 5.289,-9.276l0.022,0.007c3.479,-3.407 8.142,-5.241 12.948,-5.091l0.03,-0.008c5.675,-0.042 11.043,2.646 14.506,7.264l0.038,-0.007c2.605,3.662 3.912,8.129 3.707,12.659l0.019,-0.018c-0.096,7.08 -3.882,13.564 -9.92,16.986l-0.142,0.007l-0.265,4.351l0.056,-0.045c4.26,0.691 8.383,2.091 12.205,4.144l0.007,-0.051c2.743,1.719 5.089,4.03 6.873,6.774l-0.065,0.003c1.521,2.872 2.966,5.786 4.334,8.739l-0.016,0.015l5.121,11.059l0.007,-0.022c2.812,3.198 5.973,6.052 9.419,8.507l0.06,0.018c3.368,2.549 6.836,4.956 10.395,7.216l-0.075,-0.137c1.369,0.783 2.891,1.242 4.455,1.346l0.074,0.023c2.227,-0.026 4.43,0.481 6.433,1.481l-0.044,0.008c2.351,1.038 3.5,3.785 2.613,6.25l-0.035,0.008c-0.737,3.823 -3.944,6.621 -7.737,6.751l0.026,-0.02c-1.595,-0.117 -3.135,-0.645 -4.478,-1.535l-0.051,-0.011c-1.304,-0.896 -2.63,-1.758 -3.976,-2.588l-0.048,0.079l-13.772,-5.71l0.077,0.023c-4.565,-2.067 -8.726,-4.966 -12.284,-8.557l0.032,-0.079c-3.664,-5.145 -6.841,-10.638 -9.489,-16.404l-0.014,0.025c-0.346,4.965 0.016,9.955 1.076,14.812l0.023,-0.018c3.751,17.215 10.363,33.638 19.545,48.549l-0.03,0.028c-2.102,1.409 -4.369,2.538 -6.747,3.36c-0.014,-0.014 -0.027,-0.027 -0.041,-0.041l0.016,0.049c0.008,-0.002 0.016,-0.005 0.025,-0.008Zm-111.545,19.445l3.178,19.851l2.914,19.851l9.799,0.544l0.01,-0.094c-1.998,-3.722 -3.793,-7.555 -5.377,-11.482l0.082,-0.025c-1.153,-2.218 -1.46,-4.797 -0.86,-7.235l0.004,0.032c0.525,-1.283 1.45,-2.351 2.629,-3.037l-0.023,-0.053c2.746,-1.547 5.27,-3.476 7.502,-5.732l-0.041,0.065c2.887,-3.015 5.537,-6.259 7.925,-9.703l-0.001,0.033c2.316,-3.499 4.976,-6.745 7.937,-9.688l0.028,-0.117c4.665,-4.194 9.827,-7.764 15.363,-10.627l0.268,-1.124c-1.774,-0.447 -3.518,-1.015 -5.22,-1.699l0.02,0.032c-1.752,-0.6 -3.366,-1.558 -4.747,-2.818l0.029,-0.039c8.979,-21.871 14.039,-45.226 14.936,-68.943l-0.031,0.095l-17.922,10.696l0.883,26.559l0.864,3.341c0.645,1.192 1.277,2.392 1.895,3.6l-0.021,0.029c0.454,0.967 0.663,2.036 0.608,3.108l-0.001,-0c-0.105,1.714 -1.013,3.27 -2.436,4.175l-1.264,0.81c-4.286,2.234 -8.736,4.119 -13.309,5.639l0.069,0.052c-3.026,1.049 -6.092,1.975 -9.189,2.775l-0.039,0.054c-3.121,0.843 -6.366,1.091 -9.574,0.73l0.001,-0.059c-1.999,-1.025 -3.587,-2.736 -4.488,-4.836l0.042,-0.025c-2.769,-5.137 -5.128,-10.496 -7.052,-16.025l-0.037,-0.002c-2.587,7.595 -4.903,15.283 -6.946,23.05l-0.061,0.052l6.268,13.959l5.385,14.231Z"/></g></svg>