<?xml version="1.0" encoding="UTF-8" standalone="no"?><!DOCTYPE svg PUBLIC "-//W3C//DTD SVG 1.1//EN" "http://www.w3.org/Graphics/SVG/1.1/DTD/svg11.dtd"><svg width="100%" height="100%" viewBox="0 0 415 178" version="1.1" xmlns="http://www.w3.org/2000/svg" xmlns:xlink="http://www.w3.org/1999/xlink" xml:space="preserve" xmlns:serif="http://www.serif.com/" style="fill-rule:evenodd;clip-rule:evenodd;stroke-linejoin:round;stroke-miterlimit:2;"><g id="scale-value" transform="matrix(50,0,0,50,280.239,106.246)"></g><text x="134.316px" y="106.246px" style="font-family:'ArialMT', 'Arial', sans-serif;font-size:50px;">sw=15</text><g id="_546-School" serif:id="546 School"><path d="M414.092,35.433c-0,-19.556 -15.877,-35.433 -35.433,-35.433l-343.226,0c-19.556,0 -35.433,15.877 -35.433,35.433l0,106.299c0,19.556 15.877,35.433 35.433,35.433l343.226,0c19.556,0 35.433,-15.877 35.433,-35.433l-0,-106.299Z"/><path d="M396.375,35.433c0,-9.778 -7.938,-17.716 -17.716,-17.716l-343.226,-0c-9.778,-0 -17.716,7.938 -17.716,17.716l-0,106.299c-0,9.778 7.938,17.717 17.716,17.717l343.226,-0c9.778,-0 17.716,-7.939 17.716,-17.717l0,-106.299Z" style="fill:#fff;"/><g><g><rect id="path1754" x="225.621" y="47.244" width="55.239" height="94.488" style="fill:#fff;"/><path id="path1756" d="M251.95,68.994l-2.59,0.16l-2.5,0.421l-2.5,0.75l-2.41,0.92l-2.25,1.24l-2.34,1.75l-2.08,2.09l-1.83,2.25l-1.5,2.58l-1.17,2.67l-0.161,0.499l-0.839,3.33l-0.5,3.42l-0.17,3.41l0.17,3.42l0.5,3.41l0.839,3.25l0.161,0.59l1.17,2.66l1.5,2.5l1.83,2.34l2.08,2.08l2.34,1.75l2.25,1.16l2.41,1.01l2.5,0.739l2.5,0.421l2.59,0.17l2.58,-0.17l2.58,-0.421l2.5,-0.739l2.42,-1.01l2.25,-1.16l2.33,-1.75l2.08,-2.08l1.84,-2.34l1.5,-2.5l1.159,-2.66l0.171,-0.59l0.83,-3.25l0.499,-3.41l0.095,-3.42l-0.095,-3.41l-0.499,-3.42l-0.83,-3.33l-0.171,-0.499l-1.159,-2.67l-1.5,-2.58l-1.84,-2.25l-2.08,-2.09l-2.33,-1.75l-2.25,-1.24l-2.42,-0.92l-2.5,-0.75l-2.58,-0.421l-2.58,-0.16Zm0,11.329l1.91,0.251l2,0.83l1.75,1.33l1.5,1.59l1.25,1.83l0.67,1.5l0.42,1.58l0.33,2.67l0.082,2.58l-0.082,2.58l-0.33,2.67l-0.42,1.58l-0.67,1.5l-1.25,1.84l-1.5,1.58l-1.75,1.33l-2,0.75l-1.91,0.34l-1.84,-0.34l-2,-0.75l-1.83,-1.33l-1.5,-1.58l-1.17,-1.84l-0.661,-1.5l-0.42,-1.58l-0.33,-2.67l-0.17,-2.58l0.17,-2.58l0.33,-2.67l0.42,-1.58l0.661,-1.5l1.17,-1.83l1.5,-1.59l1.83,-1.33l2,-0.83l1.84,-0.251Z" style="fill:#010001;fill-rule:nonzero;"/></g><g><rect id="path17541" serif:id="path1754" x="280.859" y="47.244" width="55.239" height="94.488" style="fill:#fff;"/><path id="path17561" serif:id="path1756" d="M307.189,68.994l-2.59,0.16l-2.5,0.421l-2.5,0.75l-2.41,0.92l-2.25,1.24l-2.34,1.75l-2.08,2.09l-1.83,2.25l-1.5,2.58l-1.17,2.67l-0.161,0.499l-0.84,3.33l-0.499,3.42l-0.17,3.41l0.17,3.42l0.499,3.41l0.84,3.25l0.161,0.59l1.17,2.66l1.5,2.5l1.83,2.34l2.08,2.08l2.34,1.75l2.25,1.16l2.41,1.01l2.5,0.739l2.5,0.421l2.59,0.17l2.58,-0.17l2.58,-0.421l2.5,-0.739l2.42,-1.01l2.25,-1.16l2.33,-1.75l2.08,-2.08l1.839,-2.34l1.5,-2.5l1.16,-2.66l0.17,-0.59l0.831,-3.25l0.499,-3.41l0.095,-3.42l-0.095,-3.41l-0.499,-3.42l-0.831,-3.33l-0.17,-0.499l-1.16,-2.67l-1.5,-2.58l-1.839,-2.25l-2.08,-2.09l-2.33,-1.75l-2.25,-1.24l-2.42,-0.92l-2.5,-0.75l-2.58,-0.421l-2.58,-0.16Zm-0,11.329l1.91,0.251l2,0.83l1.75,1.33l1.5,1.59l1.25,1.83l0.669,1.5l0.421,1.58l0.329,2.67l0.083,2.58l-0.083,2.58l-0.329,2.67l-0.421,1.58l-0.669,1.5l-1.25,1.84l-1.5,1.58l-1.75,1.33l-2,0.75l-1.91,0.34l-1.84,-0.34l-2,-0.75l-1.83,-1.33l-1.5,-1.58l-1.17,-1.84l-0.661,-1.5l-0.42,-1.58l-0.33,-2.67l-0.17,-2.58l0.17,-2.58l0.33,-2.67l0.42,-1.58l0.661,-1.5l1.17,-1.83l1.5,-1.59l1.83,-1.33l2,-0.83l1.84,-0.251Z" style="fill:#010001;fill-rule:nonzero;"/></g><g id="S"><rect id="path1618" x="47.244" y="47.244" width="69.819" height="94.488" style="fill:#fff;"/><path id="path1620" d="M88.733,92.653l1.5,0.58l1.25,0.84l1.08,1.16l0.75,1.34l0.42,1.41l0.083,1.59l-0.25,1.5l-0.661,1.41l-0.92,1.25l-1.42,1.17l-1.58,0.909l-1.75,0.67l-1.83,0.33l-4.5,-0l-2.579,-0.33l-2.501,-0.499l-2.419,-0.831l-2.42,-1.079l-2.83,-1.84l-2.67,-2l-2.41,-2.33l-11.5,8.83l2.42,2.5l2.58,2.33l2.75,2.09l2.91,1.83l3.17,1.5l3.58,1.17l3.75,0.83l3.749,0.58l3.75,0.251l3.83,-0.083l3.75,-0.33l3.75,-0.669l3.67,-1.001l2.5,-1l2.33,-1.33l2.17,-1.67l1.92,-1.92l1.66,-2.16l1.34,-2.34l0.99,-2.49l0.669,-2.67l0.251,-2.67l-0.083,-2.66l-0.42,-2.75l-0.75,-2.59l-1.16,-2.409l-1.5,-2l-1.75,-1.75l-1.84,-1.59l-2.08,-1.41l-2.17,-1.171l-2.08,-0.83l-2.17,-0.67l-15.49,-3.83l-1.09,-0.42l-1,-0.66l-0.831,-0.92l-0.669,-1.001l-0.33,-1.079l-0.17,-1.17l0.095,-1.17l0.409,-1.16l0.59,-1l1.33,-1.34l1.5,-1.001l1.75,-0.75l1.83,-0.41l1.84,-0.17l2.74,0.17l2.67,0.41l2.67,0.75l2.5,0.92l2.41,1.25l2.34,1.5l2.079,1.75l10.25,-9.33l-2.75,-2.419l-2.92,-2.081l-3.16,-1.839l-3.25,-1.58l-3.419,-1.16l-3.58,-0.92l-3.59,-0.5l-3.66,-0.17l-3.58,0.17l-3.59,0.5l-3.58,0.92l-2.58,1l-2.42,1.24l-2.25,1.59l-2.08,1.83l-1.84,2l-1.41,2l-1.09,2.17l-0.83,2.25l-0.58,2.33l-0.17,2.42l0.082,2.41l0.421,2.42l0.75,2.25l1,2.25l1.25,2l1.58,1.91l1.75,1.59l2.5,1.659l2.75,1.171l2.92,0.75l15.574,3.502Z" style="fill:#010001;fill-rule:nonzero;"/></g><g><rect id="path1742" x="336.098" y="47.244" width="30.749" height="94.488" style="fill:#fff;"/><path id="path1744" d="M363.018,106.483l-2.5,0.33l-2.5,0.094l-0.92,-0.094l-0.75,-0.41l-0.66,-0.67l-0.421,-0.75l-0.17,-0.92l0,-52.069l-12.91,-0l0,57.319l0.161,1.75l0.5,1.67l0.75,1.58l1,1.5l1.25,1.25l1.42,1l1.67,0.67l1.66,0.499l1.75,0.17l4.08,-0.34l4,-0.499l4,-0.75l-1.41,-11.33Z" style="fill:#010001;fill-rule:nonzero;"/></g><g><rect id="path1794" x="168.552" y="47.244" width="57.069" height="94.488" style="fill:#fff;"/><path id="path1796" d="M204.041,85.153l-1,-1.42l-1.25,-1.079l-1.75,-0.75l-1.91,-0.33l-1.92,0.083l-1.83,0.421l-1.84,0.66l-1.5,1l-1.33,1.25l-1.001,1.5l-0.669,1.59l-0.161,1.66l0,28.419l-12.92,0l0,-66.158l12.92,-0l0,22.239l1.91,-1.5l2,-1.16l2.25,-0.92l2.34,-0.669l2.33,-0.251l2.42,0l2.75,0.5l2.41,0.84l2.33,1.16l2.09,1.419l1.91,1.67l1.67,1.91l1.42,2.17l1.079,2.5l0.75,2.58l0.421,2.67l0.16,2.75l0,28.25l-12.91,-0l12.91,-0l-12.91,-0l0,-28.17l-0.094,-1.66l-0.41,-1.67l-0.665,-1.504Z" style="fill:#010001;fill-rule:nonzero;"/></g><g><rect id="path1798" x="117.063" y="47.244" width="51.489" height="94.488" style="fill:#fff;"/><path id="path1800" d="M134.472,101.313l0.67,1.5l1.17,1.84l1.5,1.66l1.75,1.25l2.08,0.84l1.83,0.25l1.92,-0.25l2,-0.84l1.75,-1.25l1.5,-1.66l1.25,-1.84l1.001,-2.66l11.999,4.5l-0.25,0.5l-1.171,2.75l-1.5,2.499l-1.75,2.25l-2.079,2.08l-2.34,1.75l-2.33,1.25l-2.33,0.92l-2.5,0.75l-2.59,0.41l-2.58,0.17l-2.58,-0.17l-2.5,-0.41l-2.5,-0.75l-2.42,-0.92l-2.25,-1.25l-2.33,-1.75l-2.08,-2.08l-1.84,-2.25l-1.5,-2.499l-1.16,-2.75l-0.17,-0.5l-0.83,-3.34l-0.5,-3.41l-0.17,-3.42l0.17,-3.41l0.5,-3.34l0.83,-3.33l0.17,-0.58l1.16,-2.67l1.5,-2.499l1.84,-2.33l2.08,-2l2.33,-1.84l2.25,-1.16l2.42,-1.001l2.5,-0.669l2.5,-0.5l2.58,-0.17l2.58,0.17l2.59,0.5l2.5,0.669l2.33,1.001l2.33,1.16l2.34,1.84l2.079,2l1.75,2.33l1.5,2.499l1.171,2.67l0.25,0.58l-11.999,4.42l-1.001,-2.67l-1.25,-1.83l-1.5,-1.59l-1.75,-1.25l-2,-0.83l-1.92,-0.25l-1.83,0.25l-2.08,0.83l-1.75,1.25l-1.5,1.59l-1.17,1.83l-0.67,1.58l-0.499,1.59l-0.251,2.58l-0.16,2.58l0.16,2.67l0.251,2.58l0.499,1.58Z" style="fill:#010001;fill-rule:nonzero;"/></g></g></g></svg>