<?xml version="1.0" encoding="UTF-8" standalone="no"?><!DOCTYPE svg PUBLIC "-//W3C//DTD SVG 1.1//EN" "http://www.w3.org/Graphics/SVG/1.1/DTD/svg11.dtd"><svg width="100%" height="100%" viewBox="0 0 439 178" version="1.1" xmlns="http://www.w3.org/2000/svg" xmlns:xlink="http://www.w3.org/1999/xlink" xml:space="preserve" xmlns:serif="http://www.serif.com/" style="fill-rule:evenodd;clip-rule:evenodd;stroke-linejoin:round;stroke-miterlimit:2;"><g transform="matrix(50,0,0,50,292.642,106.246)"></g><text x="146.719px" y="106.246px" style="font-family:'ArialMT', 'Arial', sans-serif;font-size:50px;">sw=15</text><g><path d="M438.898,35.433c-0,-19.556 -15.877,-35.433 -35.433,-35.433l-368.032,0c-19.556,0 -35.433,15.877 -35.433,35.433l-0,106.299c-0,19.556 15.877,35.433 35.433,35.433l368.032,0c19.556,0 35.433,-15.877 35.433,-35.433l-0,-106.299Z"/><path d="M421.181,35.433c0,-9.778 -7.938,-17.716 -17.716,-17.716l-368.032,-0c-9.778,-0 -17.716,7.938 -17.716,17.716l-0,106.299c-0,9.778 7.938,17.717 17.716,17.717l368.032,-0c9.778,-0 17.716,-7.939 17.716,-17.717l0,-106.299Z" style="fill:#fff;"/><g><rect id="path1698" x="309.449" y="47.244" width="52.441" height="94.488" style="fill:#fff;"/><path d="M357.151,108.926l-5.215,9.184c-1.816,-0.104 -3.463,-0.558 -4.942,-1.362c-1.479,-0.804 -2.685,-1.855 -3.619,-3.152c-1.453,1.349 -3.153,2.361 -5.098,3.035c-1.946,0.675 -4.32,1.012 -7.122,1.012c-2.231,0 -4.372,-0.285 -6.421,-0.856c-2.05,-0.571 -3.853,-1.44 -5.409,-2.607c-1.557,-1.168 -2.802,-2.608 -3.736,-4.32c-0.934,-1.712 -1.401,-3.736 -1.401,-6.071c-0,-2.283 0.337,-4.229 1.011,-5.837c0.675,-1.609 1.531,-2.971 2.569,-4.086c1.038,-1.116 2.218,-2.011 3.541,-2.686c1.323,-0.674 2.634,-1.193 3.931,-1.556c1.297,-0.364 2.516,-0.623 3.658,-0.779c1.141,-0.155 2.049,-0.259 2.724,-0.311c1.09,-0.104 2.478,-0.22 4.164,-0.35c1.686,-0.13 3.23,-0.247 4.631,-0.35l0,-0.623c0,-1.92 -0.441,-3.308 -1.323,-4.164c-0.882,-0.856 -2.413,-1.284 -4.592,-1.284c-2.283,-0 -4.463,0.272 -6.538,0.817c-2.076,0.545 -4.359,1.544 -6.849,2.996l-4.592,-9.729c3.165,-1.764 6.265,-3.035 9.301,-3.813c3.035,-0.779 6.187,-1.168 9.456,-1.168c5.656,0 9.963,1.401 12.92,4.203c2.958,2.802 4.437,7.005 4.437,12.609l-0,14.554c-0,1.972 0.337,3.464 1.012,4.476c0.674,1.012 1.842,1.751 3.502,2.218Zm-16.812,-5.837l0,-5.526c-0.934,0.051 -1.92,0.103 -2.957,0.155c-1.038,0.052 -1.92,0.13 -2.647,0.234c-0.882,0.103 -1.803,0.207 -2.763,0.311c-0.96,0.104 -1.829,0.324 -2.607,0.662c-0.778,0.337 -1.427,0.817 -1.946,1.44c-0.519,0.622 -0.778,1.504 -0.778,2.646c-0,1.505 0.648,2.646 1.946,3.424c1.297,0.779 2.776,1.168 4.436,1.168c2.646,-0 4.527,-0.441 5.643,-1.323c1.115,-0.882 1.673,-1.946 1.673,-3.191Z" style="fill-rule:nonzero;"/><rect id="path16981" serif:id="path1698" x="104.409" y="47.244" width="56.693" height="94.488" style="fill:#fff;"/><path d="M153.48,70.957l-13.233,-0l-0,28.69c-0,5.805 -4.162,7.795 -8.323,7.795c-4.328,-0 -6.742,-2.156 -6.742,-7.049l-0,-29.436l-13.234,-0l0,32.173c0,9.204 5.91,16.252 17.229,16.252c3.745,0 8.24,-1.658 11.07,-4.312l-0,2.985l13.233,0l0,-47.098Z" style="fill-rule:nonzero;"/><rect id="path16982" serif:id="path1698" x="269.291" y="47.244" width="40.157" height="94.488" style="fill:#fff;"/><path d="M303.286,69.789c-6.813,-0.748 -11.548,1.495 -14.705,5.981l-0,-4.901l-13.21,-0l0,47.188l13.21,0l-0,-24.923c-0,-7.81 5.815,-11.216 12.794,-10.634l1.911,0.166l-0,-12.877Z" style="fill-rule:nonzero;"/><rect id="path16983" serif:id="path1698" x="161.102" y="47.244" width="56.22" height="94.488" style="fill:#fff;"/><path d="M209.986,85.741c-0,-9.26 -5.924,-16.351 -17.27,-16.351c-3.754,-0 -8.259,1.668 -11.095,4.338l-0,-3.003l-13.265,-0l0,47.385l13.265,0l-0,-28.948c-0,-5.757 4.171,-7.759 8.342,-7.759c4.339,0 6.758,2.169 6.758,7.091l-0,29.616l13.265,0l-0,-32.369Z" style="fill-rule:nonzero;"/><rect id="path16984" serif:id="path1698" x="217.323" y="47.244" width="51.969" height="94.488" style="fill:#fff;"/><path d="M264.966,96.457l-0.158,1.968l-30.472,0c0.053,1.26 0.367,2.428 0.945,3.504c0.577,1.076 1.338,2.021 2.283,2.835c0.945,0.813 2.034,1.443 3.268,1.89c1.234,0.446 2.533,0.669 3.898,0.669c3.937,-0 7.323,-1.313 10.157,-3.937l6.614,8.11c-2.257,2.152 -4.737,3.793 -7.441,4.921c-2.703,1.129 -5.787,1.693 -9.252,1.693c-3.727,0 -7.034,-0.617 -9.921,-1.85c-2.887,-1.234 -5.315,-2.94 -7.283,-5.118c-1.969,-2.179 -3.465,-4.712 -4.488,-7.599c-1.024,-2.887 -1.536,-5.984 -1.536,-9.291c0,-3.202 0.486,-6.234 1.457,-9.095c0.971,-2.86 2.375,-5.341 4.212,-7.44c1.838,-2.1 4.121,-3.767 6.851,-5c2.729,-1.234 5.827,-1.851 9.291,-1.851c3.832,0 7.166,0.683 10,2.047c2.835,1.365 5.145,3.202 6.929,5.512c1.785,2.31 3.058,5.026 3.819,8.15c0.761,3.123 1.037,6.417 0.827,9.882Zm-12.362,-6.851c-0,-2.414 -0.88,-4.396 -2.638,-5.945c-1.759,-1.548 -3.924,-2.322 -6.496,-2.322c-2.467,-0 -4.515,0.826 -6.142,2.48c-1.627,1.653 -2.572,3.583 -2.834,5.787l18.11,0Z" style="fill-rule:nonzero;"/><rect id="path16985" serif:id="path1698" x="361.89" y="47.244" width="29.764" height="94.488" style="fill:#fff;"/><path d="M389.145,105.33c-1.826,0.664 -3.32,0.913 -4.98,0.913c-2.738,-0 -4.066,-1.494 -4.066,-4.315l-0,-49.959l-13.029,-0l-0,52.116c-0,8.465 4.066,14.025 14.108,14.025c3.07,0 6.473,-0.498 9.294,-1.411l-1.327,-11.369Z" style="fill-rule:nonzero;"/><rect x="47.244" y="47.244" width="57.165" height="94.488" style="fill:#fff;"/><path d="M102.132,51.969l-43.416,-0l-0,66.141l13.652,0l0,-27.474l26.796,-0l0,-12.465l-26.881,-0l0,-13.229l29.849,0l0,-12.973Z" style="fill-rule:nonzero;"/></g></g></svg>