<?xml version="1.0" encoding="UTF-8" standalone="no"?><!DOCTYPE svg PUBLIC "-//W3C//DTD SVG 1.1//EN" "http://www.w3.org/Graphics/SVG/1.1/DTD/svg11.dtd"><svg width="100%" height="100%" viewBox="0 0 638 272" version="1.1" xmlns="http://www.w3.org/2000/svg" xmlns:xlink="http://www.w3.org/1999/xlink" xml:space="preserve" xmlns:serif="http://www.serif.com/" style="fill-rule:evenodd;clip-rule:evenodd;stroke-linejoin:round;stroke-miterlimit:2;"><g id="scale-value" transform="matrix(50,0,0,50,391.875,153.477)"></g><text x="245.952px" y="153.477px" style="font-family:'ArialMT', 'Arial', sans-serif;font-size:50px;">sw=23</text><g id="_547.3-No-footway" serif:id="547.3 No footway"><path d="M637.095,35.433c0,-19.556 -15.877,-35.433 -35.433,-35.433l-566.229,-0c-19.556,-0 -35.433,15.877 -35.433,35.433l-0,200.784c-0,19.556 15.877,35.433 35.433,35.433l566.229,0c19.556,0 35.433,-15.877 35.433,-35.433l0,-200.784Z"/><path d="M619.379,35.433c-0,-9.778 -7.939,-17.716 -17.717,-17.716l-566.229,-0c-9.778,-0 -17.716,7.938 -17.716,17.716l-0,200.784c-0,9.778 7.938,17.717 17.716,17.717l566.229,-0c9.778,-0 17.717,-7.939 17.717,-17.717l-0,-200.784Z" style="fill:#fff;"/><g><g><g><rect id="path1786" x="140.732" y="141.729" width="41.079" height="94.488" style="fill:#fff;"/><path id="path1788" d="M160.232,212.548l-12.92,-0l0,-47.159l12.92,-0l-0,4.67l1.58,-1.59l1.75,-1.33l2,-1.171l2.17,-0.75l2.16,-0.499l2.25,-0.161l3.169,-0l0,12.25l-4.419,-0l-1.83,0.159l-1.83,0.5l-1.67,0.84l-1.58,1.079l-1.25,1.25l-1.08,1.58l-0.839,1.67l-0.5,1.83l-0.083,1.84l0.002,24.992Z" style="fill:#010001;fill-rule:nonzero;"/></g><g><rect id="path1754" x="85.493" y="141.729" width="55.239" height="94.488" style="fill:#fff;"/><path id="path1756" d="M111.823,163.479l-2.59,0.16l-2.5,0.421l-2.5,0.75l-2.41,0.92l-2.25,1.24l-2.34,1.75l-2.08,2.09l-1.83,2.25l-1.5,2.58l-1.17,2.67l-0.161,0.499l-0.84,3.33l-0.499,3.42l-0.17,3.41l0.17,3.42l0.499,3.41l0.84,3.25l0.161,0.59l1.17,2.66l1.5,2.5l1.83,2.34l2.08,2.08l2.34,1.75l2.25,1.16l2.41,1.01l2.5,0.739l2.5,0.421l2.59,0.17l2.58,-0.17l2.58,-0.421l2.5,-0.739l2.42,-1.01l2.25,-1.16l2.33,-1.75l2.08,-2.08l1.839,-2.34l1.5,-2.5l1.16,-2.66l0.17,-0.59l0.831,-3.25l0.499,-3.41l0.095,-3.42l-0.095,-3.41l-0.499,-3.42l-0.831,-3.33l-0.17,-0.499l-1.16,-2.67l-1.5,-2.58l-1.839,-2.25l-2.08,-2.09l-2.33,-1.75l-2.25,-1.24l-2.42,-0.92l-2.5,-0.75l-2.58,-0.421l-2.58,-0.16Zm-0,11.329l1.91,0.251l2,0.83l1.75,1.33l1.5,1.59l1.25,1.83l0.669,1.5l0.421,1.58l0.329,2.67l0.083,2.58l-0.083,2.58l-0.329,2.67l-0.421,1.58l-0.669,1.5l-1.25,1.84l-1.5,1.58l-1.75,1.33l-2,0.75l-1.91,0.34l-1.84,-0.34l-2,-0.75l-1.83,-1.33l-1.5,-1.58l-1.17,-1.84l-0.661,-1.5l-0.42,-1.58l-0.33,-2.67l-0.17,-2.58l0.17,-2.58l0.33,-2.67l0.42,-1.58l0.661,-1.5l1.17,-1.83l1.5,-1.59l1.83,-1.33l2,-0.83l1.84,-0.251Z" style="fill:#010001;fill-rule:nonzero;"/></g><g><rect id="path1814" x="47.244" y="141.729" width="38.249" height="94.488" style="fill:#fff;"/><path id="path1816" d="M70.664,165.059l9.16,-0l-0,10.659l-9.16,0l-0,36.92l-12.92,-0l-0,-36.92l-7.58,0l0,-10.659l7.58,-0l-0,-6.92l0.17,-1.91l0.41,-1.92l0.84,-1.75l1,-1.67l1.33,-1.41l1.5,-1.25l1.67,-1l1.83,-0.67l1.92,-0.33l3.66,-0.094l3.67,0.17l3.58,0.42l3.58,0.75l-2.33,10.5l-3,-0.34l-3.17,0l-0.91,0.095l-0.92,0.409l-0.83,0.591l-0.58,0.75l-0.42,0.911l-0.095,1l0.015,3.668Z" style="fill:#010001;fill-rule:nonzero;"/></g></g><g><g><g><rect id="path1854" x="277.498" y="141.729" width="69.409" height="94.488" style="fill:#fff;"/><path id="path1856" d="M310.167,144.729l-3.09,0.33l-2.91,0.67l-2.92,0.91l-2.75,1.34l-2.5,1.66l-2.41,1.92l-2.09,2.17l-2,3l-1.66,3.25l-1.34,3.41l-0.91,3.5l-0.84,4.089l-0.41,4.16l-0.09,4.25l0.09,4.17l0.41,4.16l0.84,4.17l0.91,3.5l1.34,3.33l1.66,3.25l2,3.08l2.09,2.17l2.41,1.92l2.5,1.58l2.75,1.33l2.92,1l2.91,0.59l3.09,0.33l4,-0l3,-0.33l2.91,-0.59l2.92,-1l2.75,-1.33l2.5,-1.58l2.41,-1.92l2.089,-2.17l2,-3.08l1.66,-3.25l1.34,-3.33l1,-3.5l0.75,-4.17l0.41,-4.16l0.09,-4.17l-0.09,-4.25l-0.41,-4.16l-0.75,-4.089l-1,-3.5l-1.34,-3.41l-1.66,-3.25l-2,-3l-2.089,-2.17l-2.41,-1.92l-2.5,-1.66l-2.75,-1.34l-2.92,-0.91l-2.91,-0.67l-3,-0.33l-4,-0Zm2,12.33l1.83,0.08l1.83,0.42l1.75,0.67l1.67,0.91l1.5,1.17l1.25,1.42l1.08,1.5l0.84,1.75l1.08,3l0.66,3.249l0.42,4.08l0.09,4.08l-0.09,4.08l-0.42,4l-0.66,3.25l-1.08,3.09l-0.84,1.66l-1.08,1.58l-1.25,1.34l-1.5,1.17l-1.67,0.91l-1.75,0.67l-1.83,0.41l-1.83,0.09l-1.92,-0.09l-1.83,-0.41l-1.75,-0.67l-1.67,-0.91l-1.5,-1.17l-1.25,-1.34l-1.08,-1.58l-0.84,-1.66l-1.08,-3.09l-0.58,-3.25l-0.42,-4l-0.17,-4.08l0.17,-4.08l0.42,-4.08l0.58,-3.249l1.08,-3l0.84,-1.75l1.08,-1.5l1.25,-1.42l1.5,-1.17l1.67,-0.91l1.75,-0.67l1.83,-0.42l1.92,-0.08Z" style="fill:#010001;fill-rule:nonzero;"/></g><g><rect id="path18541" serif:id="path1854" x="346.906" y="141.729" width="69.409" height="94.488" style="fill:#fff;"/><path id="path18561" serif:id="path1856" d="M379.576,144.729l-3.09,0.33l-2.91,0.67l-2.92,0.91l-2.75,1.34l-2.5,1.66l-2.41,1.92l-2.09,2.17l-2,3l-1.66,3.25l-1.34,3.41l-0.91,3.5l-0.84,4.089l-0.41,4.16l-0.09,4.25l0.09,4.17l0.41,4.16l0.84,4.17l0.91,3.5l1.34,3.33l1.66,3.25l2,3.08l2.09,2.17l2.41,1.92l2.5,1.58l2.75,1.33l2.92,1l2.91,0.59l3.09,0.33l4,-0l2.999,-0.33l2.91,-0.59l2.92,-1l2.75,-1.33l2.5,-1.58l2.41,-1.92l2.09,-2.17l2,-3.08l1.66,-3.25l1.34,-3.33l1,-3.5l0.75,-4.17l0.41,-4.16l0.09,-4.17l-0.09,-4.25l-0.41,-4.16l-0.75,-4.089l-1,-3.5l-1.34,-3.41l-1.66,-3.25l-2,-3l-2.09,-2.17l-2.41,-1.92l-2.5,-1.66l-2.75,-1.34l-2.92,-0.91l-2.91,-0.67l-2.999,-0.33l-4,-0Zm2,12.33l1.829,0.08l1.83,0.42l1.75,0.67l1.67,0.91l1.5,1.17l1.25,1.42l1.08,1.5l0.84,1.75l1.08,3l0.66,3.249l0.42,4.08l0.09,4.08l-0.09,4.08l-0.42,4l-0.66,3.25l-1.08,3.09l-0.84,1.66l-1.08,1.58l-1.25,1.34l-1.5,1.17l-1.67,0.91l-1.75,0.67l-1.83,0.41l-1.829,0.09l-1.92,-0.09l-1.83,-0.41l-1.75,-0.67l-1.67,-0.91l-1.5,-1.17l-1.25,-1.34l-1.08,-1.58l-0.84,-1.66l-1.08,-3.09l-0.58,-3.25l-0.42,-4l-0.17,-4.08l0.17,-4.08l0.42,-4.08l0.58,-3.249l1.08,-3l0.84,-1.75l1.08,-1.5l1.25,-1.42l1.5,-1.17l1.67,-0.91l1.75,-0.67l1.83,-0.42l1.92,-0.08Z" style="fill:#010001;fill-rule:nonzero;"/></g><g><rect id="path1878" x="211.339" y="141.729" width="66.159" height="94.488" style="fill:#fff;"/><path id="path1880" d="M245.498,146.479l-32.159,42.489l-0,12.25l35.909,-0l0,11.33l13.58,-0l-0,-11.33l8.5,-0l-0,-12.25l-8.5,0l-0,-42.489l-17.33,-0Zm3.75,14.83l0,27.659l-20.909,0l20.909,-27.659Z" style="fill:#010001;fill-rule:nonzero;"/></g></g><g><g><rect id="path1818" x="484.528" y="141.729" width="57.159" height="94.488" style="fill:#fff;"/><path id="path1820" d="M521.687,146.479l0,21.16l-2.159,-1.42l-2.25,-1.16l-2.42,-0.84l-2.41,-0.58l-2.59,-0.25l-2.5,0.094l-2.5,0.33l-2.5,0.66l-2.33,0.92l-2.25,1.25l-2.08,1.42l-2.13,2.04l-1.71,2.21l-1.25,2.37l-1.33,3.46l-0.83,3.33l-0.58,3.42l-0.25,3.42l0.16,3.41l0.421,3.42l0.83,3.329l1.09,3.25l1.24,2.5l1.5,2.25l1.84,2.08l2.08,1.75l2.33,1.42l2.75,1.08l2.92,0.75l2.92,0.34l2.91,-0l2.92,-0.421l2.83,-0.75l2,-0.75l1.749,-1.17l1.58,-1.41l0,3.25l12.92,0l0,-66.159l-12.921,-0.003Zm-9.909,28.329l1.91,0.251l1.92,0.58l1.67,0.92l1.58,1.16l1.079,1.25l0.84,1.34l0.58,1.5l0.329,1.66l0,10.169l-0.159,1.25l-0.34,1.25l-0.58,1.08l-0.75,1.079l-1.33,1.42l-1.5,1.171l-1.67,0.83l-1.83,0.58l-1.92,0.251l-1.91,-0.161l-1.84,-0.421l-1.5,-0.58l-1.41,-0.839l-1.17,-1.08l-1.001,-1.25l-0.75,-1.42l-0.83,-2.5l-0.421,-2.66l-0.25,-2.58l0.17,-2.67l0.41,-2.58l0.75,-2.589l0.75,-1.66l0.84,-1.25l1.159,-1.091l1.59,-1.079l1.751,-0.75l1.909,-0.5l1.924,-0.081Z" style="fill:#010001;fill-rule:nonzero;"/></g><g><rect id="path1762" x="434.031" y="141.729" width="50.995" height="94.488" style="fill:#fff;"/><path id="path1764" d="M447.943,227.887l-4.581,-0.411l-4.5,-0.749l1.58,-11.341l6.67,0.92l1.081,-0.083l1,-0.341l1,-0.58l0.751,-0.75l0.5,-0.919l0.341,-1.081l-0,-1.079l-0.171,-1.09l-16.161,-45.074l12.991,-0l10.251,28.582l10.251,-28.582l13.081,-0l-20.082,55.995l-0.75,1.58l-1,1.5l-1.251,1.25l-1.41,1l-1.59,0.75l-1.75,0.419l-1.75,0.171l-4.501,-0.087Z" style="fill:#010001;fill-rule:nonzero;"/></g><g><rect id="path1674" x="541.687" y="141.729" width="48.164" height="94.488" style="fill:#fff;"/><path id="path1676" d="M554.438,198.394l2,1.58l2.161,1.25l2.34,1l2.41,0.671l2.5,0.33l2.25,-0l1.59,-0.581l1.331,-0.92l0.75,-0.749l0.5,-1l0.08,-1.081l-0.25,-1.09l-0.58,-0.91l-0.83,-0.671l-3.25,-1.25l-3.341,-0.67l-3,-0.5l-4.08,-1l-2,-0.66l-1.831,-1l-1.67,-1.25l-1.5,-1.42l-1.25,-1.58l-1.08,-1.751l-0.67,-2.09l-0.41,-2.16l-0,-2.17l0.25,-2.16l0.58,-2.171l0.92,-1.92l1.25,-1.83l1.41,-1.58l1.591,-1.42l1.83,-1.171l1.91,-0.91l2.09,-0.59l3,-0.66l3.001,-0.34l3.08,-0l3.08,0.249l3.09,0.59l2.501,0.75l2.41,1l2.34,1.33l2.24,1.42l2,1.75l-7.99,8.491l-2.25,-1.83l-2.501,-1.5l-2.67,-1.16l-1.5,-0.42l-1.58,-0.249l-1.59,0l-1.66,0.42l-1.501,0.749l-1.34,1l-0.66,0.83l-0.34,0.92l0.09,1.081l0.33,0.91l0.58,0.841l1,0.58l5.501,1.081l5,0.67l1.92,0.33l0.081,-0l1.92,0.67l1.83,0.83l1.84,1.09l1.66,1.41l1.421,1.59l1.159,1.75l0.841,1.911l0.58,2.09l0.33,2.08l-0.083,2.17l-0.329,2.08l-0.671,2.08l-1.08,2.091l-1.34,1.91l-1.58,1.75l-1.831,1.5l-2,1.17l-3.25,1.001l-3.33,0.659l-3.421,0.341l-3.33,-0l-3.42,-0.341l-3.331,-0.659l-3,-0.92l-2.92,-1.25l-2.66,-1.58l-2.501,-1.841l-2.34,-2.16l9.421,-8.67l1.752,1.839Z" style="fill:#010001;fill-rule:nonzero;"/></g></g></g></g><g><g><g><rect id="path17541" serif:id="path1754" x="131.218" y="47.247" width="55.239" height="94.488" style="fill:#fff;"/><path id="path17561" serif:id="path1756" d="M157.548,68.997l-2.59,0.16l-2.5,0.421l-2.5,0.75l-2.41,0.92l-2.25,1.24l-2.34,1.75l-2.08,2.09l-1.83,2.25l-1.5,2.58l-1.17,2.67l-0.161,0.499l-0.84,3.33l-0.499,3.42l-0.17,3.41l0.17,3.42l0.499,3.41l0.84,3.25l0.161,0.591l1.17,2.66l1.5,2.499l1.83,2.34l2.08,2.08l2.34,1.75l2.25,1.16l2.41,1.01l2.5,0.739l2.5,0.421l2.59,0.17l2.58,-0.17l2.58,-0.421l2.5,-0.739l2.42,-1.01l2.25,-1.16l2.329,-1.75l2.08,-2.08l1.84,-2.34l1.5,-2.499l1.16,-2.66l0.17,-0.591l0.831,-3.25l0.499,-3.41l0.095,-3.42l-0.095,-3.41l-0.499,-3.42l-0.831,-3.33l-0.17,-0.499l-1.16,-2.67l-1.5,-2.58l-1.84,-2.25l-2.08,-2.09l-2.329,-1.75l-2.25,-1.24l-2.42,-0.92l-2.5,-0.75l-2.58,-0.421l-2.58,-0.16Zm-0,11.33l1.91,0.25l2,0.83l1.75,1.33l1.5,1.59l1.25,1.83l0.669,1.5l0.421,1.58l0.329,2.67l0.083,2.58l-0.083,2.58l-0.329,2.67l-0.421,1.58l-0.669,1.5l-1.25,1.84l-1.5,1.58l-1.75,1.33l-2,0.75l-1.91,0.34l-1.84,-0.34l-2,-0.75l-1.83,-1.33l-1.5,-1.58l-1.171,-1.84l-0.66,-1.5l-0.42,-1.58l-0.33,-2.67l-0.17,-2.58l0.17,-2.58l0.33,-2.67l0.42,-1.58l0.66,-1.5l1.171,-1.83l1.5,-1.59l1.83,-1.33l2,-0.83l1.84,-0.25Z" style="fill:#010001;fill-rule:nonzero;"/></g><g id="_-N" serif:id=" N"><rect id="path1590" x="50.98" y="47.247" width="80.238" height="94.488" style="fill:#fff;"/><path id="path1592" d="M77.389,51.997l-15.409,0l-0,66.159l13.499,-0l0,-44.749l29.58,44.749l15.49,-0l-0,-66.159l-13.58,0l-0,44.739l-29.58,-44.739Z" style="fill:#010001;fill-rule:nonzero;"/></g></g><g><g><rect id="path17542" serif:id="path1754" x="254.234" y="47.251" width="55.239" height="94.488" style="fill:#fff;"/><path id="path17562" serif:id="path1756" d="M280.563,69.001l-2.59,0.16l-2.499,0.421l-2.5,0.75l-2.41,0.92l-2.25,1.24l-2.34,1.75l-2.08,2.09l-1.83,2.25l-1.5,2.58l-1.171,2.67l-0.16,0.499l-0.84,3.33l-0.5,3.42l-0.17,3.41l0.17,3.42l0.5,3.41l0.84,3.25l0.16,0.591l1.171,2.659l1.5,2.5l1.83,2.34l2.08,2.08l2.34,1.75l2.25,1.16l2.41,1.01l2.5,0.739l2.499,0.421l2.59,0.17l2.58,-0.17l2.58,-0.421l2.5,-0.739l2.42,-1.01l2.25,-1.16l2.33,-1.75l2.08,-2.08l1.84,-2.34l1.5,-2.5l1.16,-2.659l0.17,-0.591l0.83,-3.25l0.5,-3.41l0.094,-3.42l-0.094,-3.41l-0.5,-3.42l-0.83,-3.33l-0.17,-0.499l-1.16,-2.67l-1.5,-2.58l-1.84,-2.25l-2.08,-2.09l-2.33,-1.75l-2.25,-1.24l-2.42,-0.92l-2.5,-0.75l-2.58,-0.421l-2.58,-0.16Zm0,11.33l1.91,0.25l2,0.83l1.75,1.33l1.5,1.59l1.25,1.83l0.67,1.5l0.42,1.58l0.33,2.67l0.083,2.58l-0.083,2.58l-0.33,2.67l-0.42,1.58l-0.67,1.5l-1.25,1.84l-1.5,1.58l-1.75,1.33l-2,0.75l-1.91,0.34l-1.84,-0.34l-2,-0.75l-1.829,-1.33l-1.5,-1.58l-1.171,-1.84l-0.66,-1.5l-0.421,-1.58l-0.329,-2.67l-0.17,-2.58l0.17,-2.58l0.329,-2.67l0.421,-1.58l0.66,-1.5l1.171,-1.83l1.5,-1.59l1.829,-1.33l2,-0.83l1.84,-0.25Z" style="fill:#010001;fill-rule:nonzero;"/></g><g><rect id="path17543" serif:id="path1754" x="309.473" y="47.251" width="55.239" height="94.488" style="fill:#fff;"/><path id="path17563" serif:id="path1756" d="M335.802,69.001l-2.59,0.16l-2.5,0.421l-2.5,0.75l-2.409,0.92l-2.25,1.24l-2.34,1.75l-2.08,2.09l-1.83,2.25l-1.5,2.58l-1.171,2.67l-0.16,0.499l-0.84,3.33l-0.5,3.42l-0.17,3.41l0.17,3.42l0.5,3.41l0.84,3.25l0.16,0.591l1.171,2.659l1.5,2.5l1.83,2.34l2.08,2.08l2.34,1.75l2.25,1.16l2.409,1.01l2.5,0.739l2.5,0.421l2.59,0.17l2.58,-0.17l2.58,-0.421l2.5,-0.739l2.42,-1.01l2.25,-1.16l2.33,-1.75l2.08,-2.08l1.84,-2.34l1.5,-2.5l1.16,-2.659l0.17,-0.591l0.83,-3.25l0.5,-3.41l0.094,-3.42l-0.094,-3.41l-0.5,-3.42l-0.83,-3.33l-0.17,-0.499l-1.16,-2.67l-1.5,-2.58l-1.84,-2.25l-2.08,-2.09l-2.33,-1.75l-2.25,-1.24l-2.42,-0.92l-2.5,-0.75l-2.58,-0.421l-2.58,-0.16Zm0,11.33l1.91,0.25l2,0.83l1.75,1.33l1.5,1.59l1.25,1.83l0.67,1.5l0.42,1.58l0.33,2.67l0.082,2.58l-0.082,2.58l-0.33,2.67l-0.42,1.58l-0.67,1.5l-1.25,1.84l-1.5,1.58l-1.75,1.33l-2,0.75l-1.91,0.34l-1.84,-0.34l-2,-0.75l-1.83,-1.33l-1.5,-1.58l-1.17,-1.84l-0.66,-1.5l-0.421,-1.58l-0.329,-2.67l-0.17,-2.58l0.17,-2.58l0.329,-2.67l0.421,-1.58l0.66,-1.5l1.17,-1.83l1.5,-1.59l1.83,-1.33l2,-0.83l1.84,-0.25Z" style="fill:#010001;fill-rule:nonzero;"/></g><g><rect id="path18141" serif:id="path1814" x="215.985" y="47.251" width="38.249" height="94.488" style="fill:#fff;"/><path id="path18161" serif:id="path1816" d="M239.404,70.581l9.16,-0l0,10.66l-9.16,-0l0,36.919l-12.919,-0l-0,-36.919l-7.58,-0l-0,-10.66l7.58,-0l-0,-6.92l0.17,-1.91l0.409,-1.92l0.84,-1.75l1.001,-1.67l1.33,-1.41l1.5,-1.25l1.67,-1l1.83,-0.67l1.92,-0.33l3.659,-0.094l3.67,0.17l3.58,0.421l3.58,0.75l-2.33,10.499l-3,-0.34l-3.17,0l-0.909,0.095l-0.92,0.41l-0.83,0.59l-0.58,0.75l-0.421,0.911l-0.094,1l0.014,3.668Z" style="fill:#010001;fill-rule:nonzero;"/></g><g><rect id="path1698" x="481.792" y="47.251" width="53.329" height="94.488" style="fill:#fff;"/><path id="path1700" d="M506.621,69.001l-3.08,0.16l-2.999,0.58l-3.75,1.09l-3.67,1.41l-3.5,1.67l-3.41,1.92l6.33,9.66l2.58,-1.58l2.67,-1.25l2.83,-1l2.919,-0.75l3,-0.421l1.66,-0.082l1.75,0.329l1.58,0.59l0.92,0.58l0.75,0.83l0.5,0.92l0.17,1.079l0,3l-4.17,0.171l-4.08,0.499l-4.08,0.75l-4,1.08l-3.919,1.42l-1.66,1l-1.59,1.25l-1.42,1.5l-1.16,1.58l-0.92,1.83l-0.661,1.92l-0.34,2l-0.082,2l0.17,2l0.49,1.92l0.759,1.91l1.001,1.75l1.24,1.59l1.42,1.41l1.67,1.17l2.41,1.16l2.589,0.92l2.75,0.589l2.75,0.33l2.75,-0.083l2.66,-0.34l2.67,-0.66l1.42,-0.67l1.33,-0.83l1.08,-1.001l0.92,-1.25l1,1.33l1.25,1.001l1.42,0.75l2.58,1l2.66,0.58l2.75,0.33l4.59,-10.08l-1.09,-0l-1.08,-0.16l-1.079,-0.499l-0.84,-0.67l-0.66,-0.92l-0.421,-1l-0.17,-1.16l0,-22.33l-0.161,-1.84l-0.42,-1.83l-0.75,-1.67l-0.92,-1.58l-1.25,-1.5l-1.41,-1.17l-1.59,-1.001l-2.25,-0.989l-2.41,-0.84l-2.92,-0.83l-3.08,-0.421l-2.996,-0.151Zm7.25,28.069l0,6.75l-0.17,1.25l-0.58,1.171l-0.75,1l-1.09,0.75l-1.16,0.42l-2.33,0.33l-2.34,-0l-2.33,-0.33l-1.17,-0.42l-1,-0.75l-0.831,-0.92l-0.58,-1.08l-0.34,-1.079l0,-1.171l0.34,-1.17l0.58,-0.911l0.831,-0.839l1,-0.58l3.92,-1.001l2.28,-0.47l1.72,-0.36l4,-0.59Z" style="fill:#010001;fill-rule:nonzero;"/></g><g><rect id="path17621" serif:id="path1762" x="535.121" y="47.251" width="50.995" height="94.488" style="fill:#fff;"/><path id="path17641" serif:id="path1764" d="M549.032,133.409l-4.58,-0.41l-4.501,-0.75l1.581,-11.341l6.67,0.92l1.081,-0.083l1,-0.34l1,-0.581l0.751,-0.749l0.5,-0.92l0.34,-1.081l0,-1.079l-0.17,-1.09l-16.161,-45.074l12.991,0l10.25,28.582l10.251,-28.582l13.082,0l-20.082,55.995l-0.751,1.58l-1,1.5l-1.25,1.25l-1.41,1l-1.59,0.75l-1.751,0.42l-1.75,0.17l-4.501,-0.087Z" style="fill:#010001;fill-rule:nonzero;"/></g><g><rect id="path1682" x="405.295" y="47.251" width="76.497" height="94.488" style="fill:#fff;"/><path id="path1684" d="M442.539,88.915l-6.911,29.162l-15.081,0l-13.252,-47.244l12.752,0l8.41,29.913l7.081,-29.913l14.091,0l7.081,29.913l8.33,-29.913l12.832,0l-13.252,47.244l-15.161,0l-6.92,-29.162Z" style="fill:#010001;fill-rule:nonzero;"/></g><g><rect id="path1670" x="364.712" y="47.251" width="40.584" height="94.488" style="fill:#fff;"/><path id="path1672" d="M394.714,107.827l2.411,-0.411l2.34,-0.67l2.83,10.751l-3.5,1l-3.581,0.66l-3.59,0.34l-3.66,0.083l-3.591,-0.33l-1.75,-0.34l-1.74,-0.75l-1.5,-1l-1.34,-1.25l-1.081,-1.41l-0.75,-1.67l-0.5,-1.751l-0.171,-1.83l0,-28.002l-7.58,-0l-0,-10.751l7.58,-0l0,-14.741l12.921,-3.751l0,18.492l12.002,-0l-0,10.751l-12.002,-0l0,23.002l0.083,1l0.42,0.92l0.58,0.75l0.83,0.581l0.92,0.42l0.92,0.082l2.499,-0.175Z" style="fill:#010001;fill-rule:nonzero;"/></g></g></g></g></svg>