<?xml version="1.0" encoding="UTF-8" standalone="no"?><!DOCTYPE svg PUBLIC "-//W3C//DTD SVG 1.1//EN" "http://www.w3.org/Graphics/SVG/1.1/DTD/svg11.dtd"><svg width="100%" height="100%" viewBox="0 0 619 178" version="1.1" xmlns="http://www.w3.org/2000/svg" xmlns:xlink="http://www.w3.org/1999/xlink" xml:space="preserve" xmlns:serif="http://www.serif.com/" style="fill-rule:evenodd;clip-rule:evenodd;stroke-linejoin:round;stroke-miterlimit:2;"><g id="scale-value" transform="matrix(50,0,0,50,382.278,87.9723)"></g><text x="236.355px" y="87.972px" style="font-family:'ArialMT', 'Arial', sans-serif;font-size:50px;">sw=15</text><g id="_547.2-Playground-" serif:id="547.2 Playground "><path d="M618.17,35.433c-0,-19.556 -15.878,-35.433 -35.434,-35.433l-547.303,0c-19.556,0 -35.433,15.877 -35.433,35.433l-0,106.299c-0,19.556 15.877,35.433 35.433,35.433l547.303,0c19.556,0 35.434,-15.877 35.434,-35.433l-0,-106.299Z"/><path d="M600.472,35.433c0,-9.778 -7.938,-17.716 -17.716,-17.716l-547.303,-0c-9.778,-0 -17.717,7.938 -17.717,17.716l0,106.299c0,9.778 7.939,17.717 17.717,17.717l547.303,-0c9.778,-0 17.716,-7.939 17.716,-17.717l0,-106.299Z" style="fill:#fff;"/><g><g><rect id="path1786" x="302.734" y="47.244" width="41.079" height="94.488" style="fill:#fff;"/><path id="path1788" d="M322.234,118.063l-12.92,-0l-0,-47.159l12.92,-0l-0,4.67l1.58,-1.59l1.75,-1.33l2,-1.171l2.17,-0.75l2.16,-0.499l2.249,-0.161l3.17,-0l0,12.25l-4.42,-0l-1.829,0.159l-1.83,0.5l-1.67,0.84l-1.58,1.079l-1.25,1.25l-1.08,1.58l-0.84,1.67l-0.499,1.83l-0.083,1.84l0.002,24.992Z" style="fill:#010001;fill-rule:nonzero;"/></g><g><rect id="path1754" x="343.813" y="47.244" width="55.239" height="94.488" style="fill:#fff;"/><path id="path1756" d="M370.143,68.994l-2.59,0.16l-2.5,0.421l-2.5,0.75l-2.41,0.92l-2.25,1.24l-2.34,1.75l-2.08,2.09l-1.83,2.25l-1.5,2.58l-1.17,2.67l-0.161,0.499l-0.84,3.33l-0.499,3.42l-0.17,3.41l0.17,3.42l0.499,3.41l0.84,3.25l0.161,0.59l1.17,2.66l1.5,2.5l1.83,2.34l2.08,2.08l2.34,1.75l2.25,1.16l2.41,1.01l2.5,0.739l2.5,0.421l2.59,0.17l2.58,-0.17l2.58,-0.421l2.5,-0.739l2.42,-1.01l2.25,-1.16l2.329,-1.75l2.08,-2.08l1.84,-2.34l1.5,-2.5l1.16,-2.66l0.17,-0.59l0.831,-3.25l0.499,-3.41l0.095,-3.42l-0.095,-3.41l-0.499,-3.42l-0.831,-3.33l-0.17,-0.499l-1.16,-2.67l-1.5,-2.58l-1.84,-2.25l-2.08,-2.09l-2.329,-1.75l-2.25,-1.24l-2.42,-0.92l-2.5,-0.75l-2.58,-0.421l-2.58,-0.16Zm-0,11.329l1.91,0.251l2,0.83l1.75,1.33l1.5,1.59l1.25,1.83l0.669,1.5l0.421,1.58l0.329,2.67l0.083,2.58l-0.083,2.58l-0.329,2.67l-0.421,1.58l-0.669,1.5l-1.25,1.84l-1.5,1.58l-1.75,1.33l-2,0.75l-1.91,0.34l-1.84,-0.34l-2,-0.75l-1.83,-1.33l-1.5,-1.58l-1.171,-1.84l-0.66,-1.5l-0.42,-1.58l-0.33,-2.67l-0.17,-2.58l0.17,-2.58l0.33,-2.67l0.42,-1.58l0.66,-1.5l1.171,-1.83l1.5,-1.59l1.83,-1.33l2,-0.83l1.84,-0.251Z" style="fill:#010001;fill-rule:nonzero;"/></g><g><rect id="path1750" x="456.627" y="47.244" width="57.159" height="94.488" style="fill:#fff;"/><path id="path1752" d="M493.206,88.323l-0.34,-1.67l-0.75,-1.58l-1,-1.34l-1.25,-1.079l-1.75,-0.75l-1.91,-0.33l-1.92,0.083l-1.83,0.33l-1.84,0.75l-1.5,1l-1.33,1.25l-1,1.5l-0.67,1.59l-0.161,1.66l0,28.329l-12.919,0l-0,-47.159l12.919,0l0,3.33l1.91,-1.5l2.09,-1.25l2.16,-0.909l2.34,-0.591l2.33,-0.329l2.42,0.082l2.75,0.5l2.41,0.84l2.33,1.16l2.09,1.419l1.91,1.67l1.67,1.91l1.42,2.17l1.079,2.5l0.75,2.58l0.421,2.67l0.161,2.75l-0,28.16l-12.91,-0l12.91,-0l-12.91,-0l-0,-28.08l-0.08,-1.666Z" style="fill:#010001;fill-rule:nonzero;"/></g><g><rect id="path1742" x="111.502" y="47.244" width="30.749" height="94.488" style="fill:#fff;"/><path id="path1744" d="M138.422,106.483l-2.5,0.33l-2.5,0.094l-0.92,-0.094l-0.75,-0.41l-0.66,-0.67l-0.421,-0.75l-0.17,-0.92l0,-52.069l-12.91,-0l0,57.319l0.161,1.75l0.5,1.67l0.75,1.58l1,1.5l1.25,1.25l1.42,1l1.67,0.67l1.66,0.499l1.75,0.17l4.08,-0.34l4,-0.499l4,-0.75l-1.41,-11.33Z" style="fill:#010001;fill-rule:nonzero;"/></g><g><rect id="path1810" x="246.575" y="47.244" width="56.159" height="94.488" style="fill:#fff;"/><path id="path1812" d="M270.905,70.234l-2.84,0.17l-2.75,0.499l-2.66,0.92l-1.92,0.91l-1.83,1.17l-1.75,1.33l-1.5,1.59l-1.34,1.66l-1.33,2.42l-1,2.58l-0.831,2.59l-0.669,2.58l-0.41,2.67l-0.095,2.75l0.251,2.66l0.499,2.67l0.75,2.58l1.001,2.33l1.25,2.25l1.5,2.09l1.84,1.83l1.99,1.58l2.34,1.42l2.5,1.079l2.66,0.75l2.67,0.33l2.919,0.17l2.91,-0.33l2.84,-0.58l2.16,-0.75l2.09,-1.09l0,2.5l-0.17,1.42l-0.499,1.33l-0.75,1.17l-1.001,1.001l-1.17,0.75l-1.33,0.42l-3.5,0.33l-3.92,-0.095l-3.91,-0.49l-2.42,-0.59l-2.42,-0.75l-2.25,-1.08l-2.16,-1.34l-6.08,10.42l3.83,1.83l4,1.42l4,1.17l4.16,0.91l3.25,0.25l3.34,0.095l3.25,-0.251l3.33,-0.589l2.67,-0.66l2.58,-1.001l2.41,-1.34l2.25,-1.66l1.59,-1.59l1.249,-1.83l1.08,-2l0.75,-2.08l0.5,-2.17l0.17,-2.25l-0,-45.409l-12.83,0l-0,2.42l-1.75,-1.17l-1.92,-0.83l-2,-0.5l-2.75,-0.5l-2.824,-0.089Zm1.66,11.249l2.09,0.171l1.91,0.579l1.92,0.84l1.079,0.75l1.001,1.001l0.75,1.159l0.499,1.25l0.34,1.33l0,7.51l-0.34,1.74l-0.499,1.75l-0.58,1.26l-0.831,1.08l-1.09,0.83l-1.16,0.67l-1.75,0.58l-1.75,0.25l-1.84,-0l-1.75,-0.25l-1.75,-0.5l-1.409,-0.67l-1.341,-0.909l-1.079,-1.171l-0.83,-1.33l-0.5,-1.42l-0.5,-1.91l-0.25,-1.999l0.083,-2l0.25,-1.92l0.58,-2.17l0.92,-2l0.67,-1.25l0.92,-1.08l1.079,-0.83l1.16,-0.67l2,-0.499l1.998,-0.172Z" style="fill:#010001;fill-rule:nonzero;"/></g><g><rect id="path1818" x="513.786" y="47.244" width="57.159" height="94.488" style="fill:#fff;"/><path id="path1820" d="M550.945,51.994l0,21.16l-2.16,-1.42l-2.25,-1.16l-2.42,-0.84l-2.409,-0.58l-2.59,-0.25l-2.5,0.094l-2.5,0.33l-2.5,0.66l-2.33,0.92l-2.25,1.25l-2.08,1.42l-2.13,2.04l-1.71,2.21l-1.25,2.37l-1.33,3.46l-0.83,3.33l-0.58,3.42l-0.251,3.42l0.161,3.41l0.42,3.42l0.831,3.329l1.09,3.25l1.24,2.5l1.5,2.25l1.84,2.08l2.08,1.75l2.33,1.42l2.75,1.08l2.92,0.75l2.92,0.34l2.91,-0l2.919,-0.421l2.83,-0.75l2,-0.75l1.75,-1.17l1.58,-1.41l0,3.25l12.92,0l0,-66.159l-12.921,-0.003Zm-9.91,28.329l1.91,0.251l1.92,0.58l1.67,0.92l1.58,1.16l1.08,1.25l0.84,1.34l0.58,1.5l0.329,1.66l0,10.169l-0.159,1.25l-0.341,1.25l-0.579,1.08l-0.75,1.079l-1.33,1.42l-1.5,1.171l-1.67,0.83l-1.83,0.58l-1.92,0.251l-1.91,-0.161l-1.84,-0.421l-1.5,-0.579l-1.41,-0.84l-1.171,-1.08l-1,-1.25l-0.75,-1.42l-0.83,-2.5l-0.421,-2.66l-0.25,-2.58l0.17,-2.67l0.41,-2.58l0.75,-2.589l0.75,-1.66l0.839,-1.25l1.16,-1.09l1.59,-1.08l1.75,-0.75l1.91,-0.5l1.923,-0.081Z" style="fill:#010001;fill-rule:nonzero;"/></g><g><rect id="path1698" x="142.252" y="47.244" width="53.329" height="94.488" style="fill:#fff;"/><path id="path1700" d="M167.081,68.994l-3.08,0.16l-3,0.58l-3.75,1.09l-3.669,1.41l-3.5,1.67l-3.41,1.92l6.33,9.66l2.58,-1.58l2.669,-1.25l2.83,-1l2.92,-0.75l3,-0.421l1.66,-0.082l1.75,0.329l1.58,0.589l0.92,0.58l0.75,0.831l0.5,0.92l0.17,1.079l-0,3l-4.17,0.17l-4.08,0.5l-4.08,0.75l-4,1.08l-3.92,1.419l-1.66,1.001l-1.59,1.25l-1.42,1.5l-1.159,1.58l-0.92,1.83l-0.661,1.92l-0.34,2l-0.083,2l0.171,2l0.49,1.92l0.759,1.91l1.001,1.749l1.239,1.59l1.42,1.41l1.67,1.171l2.41,1.16l2.59,0.92l2.75,0.589l2.75,0.33l2.75,-0.083l2.66,-0.34l2.67,-0.66l1.42,-0.67l1.33,-0.83l1.08,-1.001l0.92,-1.25l1,1.33l1.25,1.001l1.42,0.75l2.58,1l2.66,0.58l2.75,0.329l4.59,-10.079l-1.091,-0l-1.079,-0.16l-1.08,-0.499l-0.839,-0.67l-0.661,-0.92l-0.42,-1.001l-0.17,-1.159l-0,-22.33l-0.161,-1.84l-0.42,-1.83l-0.75,-1.67l-0.92,-1.58l-1.25,-1.5l-1.41,-1.17l-1.59,-1.001l-2.25,-0.99l-2.41,-0.839l-2.92,-0.831l-3.08,-0.42l-2.996,-0.151Zm7.25,28.069l0,6.75l-0.17,1.25l-0.58,1.17l-0.75,1.001l-1.09,0.75l-1.16,0.42l-2.33,0.33l-2.34,-0l-2.33,-0.33l-1.17,-0.42l-1.001,-0.75l-0.83,-0.92l-0.58,-1.08l-0.34,-1.079l-0,-1.171l0.34,-1.17l0.58,-0.911l0.83,-0.84l1.001,-0.58l3.92,-1l2.28,-0.47l1.72,-0.36l4,-0.59Z" style="fill:#010001;fill-rule:nonzero;"/></g><g><rect id="path1762" x="195.581" y="47.244" width="50.995" height="94.488" style="fill:#fff;"/><path id="path1764" d="M209.492,133.402l-4.58,-0.411l-4.501,-0.749l1.58,-11.341l6.671,0.92l1.08,-0.083l1.001,-0.341l1,-0.58l0.75,-0.75l0.5,-0.919l0.341,-1.081l-0,-1.079l-0.17,-1.09l-16.162,-45.074l12.991,-0l10.251,28.582l10.251,-28.582l13.082,-0l-20.082,55.995l-0.751,1.58l-1,1.5l-1.25,1.25l-1.41,1l-1.59,0.75l-1.751,0.419l-1.75,0.171l-4.501,-0.087Z" style="fill:#010001;fill-rule:nonzero;"/></g><g><rect id="path1666" x="399.052" y="47.244" width="57.575" height="94.488" style="fill:#fff;"/><path id="path1668" d="M405.383,70.826l12.921,0l-12.921,0l12.921,0l-0,28.163l0.159,1.67l0.341,1.66l0.66,1.5l1,1.42l1.34,1.081l1.75,0.749l1.83,0.251l1.92,-0l1.91,-0.41l1.751,-0.671l1.58,-1l1.25,-1.25l1.09,-1.5l0.58,-1.58l0.171,-1.67l-0,-28.413l12.911,0l-0,47.244l-12.911,0l-0,-3.33l-1.841,1.5l-2.08,1.16l-2.25,0.92l-2.25,0.67l-2.41,0.251l-2.421,-0l-2.75,-0.501l-2.42,-0.84l-2.25,-1.16l-2.16,-1.42l-1.841,-1.67l-1.75,-1.91l-1.41,-2.17l-1,-2.501l-0.751,-2.58l-0.5,-2.75l-0.17,-2.67l0.001,-28.243Z" style="fill:#010001;fill-rule:nonzero;"/></g><g id="P"><rect id="path1606" x="47.264" y="47.244" width="64.239" height="94.488" style="fill:#fff;"/><path id="path1608" d="M58.603,51.994l0,66.159l13.49,-0l0,-23.33l15,0l2.58,-0.17l2.59,-0.5l2.41,-0.83l2.34,-1.17l2.25,-1.42l1.91,-1.66l1.75,-1.92l1.5,-2.16l1.169,-2.17l1,-2.25l0.75,-2.33l0.421,-2.42l0.082,-2.42l-0.082,-2.41l-0.421,-2.42l-0.75,-2.33l-1,-2.25l-1.169,-2.17l-1.5,-2.17l-1.75,-1.91l-1.91,-1.67l-2.25,-1.42l-2.34,-1.159l-2.41,-0.831l-2.59,-0.51l-2.58,-0.161l-28.49,0.002Zm13.49,12.25l13.42,-0l1.66,0.159l1.59,0.5l1.5,0.75l1.33,1l1.079,1.34l0.84,1.41l0.58,1.59l0.25,1.66l0,1.59l-0.25,1.66l-0.58,1.5l-0.84,1.5l-1.079,1.25l-1.33,1l-1.5,0.75l-1.59,0.5l-1.66,0.17l-13.42,0l0,-18.329Z" style="fill:#010001;fill-rule:nonzero;"/></g></g></g></svg>