<?xml version="1.0" encoding="UTF-8" standalone="no"?><!DOCTYPE svg PUBLIC "-//W3C//DTD SVG 1.1//EN" "http://www.w3.org/Graphics/SVG/1.1/DTD/svg11.dtd"><svg width="100%" height="100%" viewBox="0 0 375 178" version="1.1" xmlns="http://www.w3.org/2000/svg" xmlns:xlink="http://www.w3.org/1999/xlink" xml:space="preserve" xmlns:serif="http://www.serif.com/" style="fill-rule:evenodd;clip-rule:evenodd;stroke-linejoin:round;stroke-miterlimit:2;"><g id="scale-value" transform="matrix(50,0,0,50,260.611,124.52)"></g><text x="114.688px" y="124.52px" style="font-family:'ArialMT', 'Arial', sans-serif;font-size:50px;">sw=15</text><g id="_547.1-Patrol" serif:id="547.1 Patrol"><path d="M374.836,142.986c-0,18.877 -15.304,34.179 -34.18,34.179l-306.475,0c-18.877,0 -34.181,-15.302 -34.181,-34.179l-0,-108.805c-0,-18.877 15.304,-34.181 34.181,-34.181l306.475,-0c18.876,-0 34.18,15.304 34.18,34.181l-0,108.805Z" style="fill-rule:nonzero;"/><path d="M357.087,142.986c0,9.075 -7.357,16.43 -16.431,16.43l-306.475,0c-9.075,0 -16.432,-7.355 -16.432,-16.43l-0,-108.805c-0,-9.075 7.357,-16.431 16.432,-16.431l306.475,-0c9.074,-0 16.431,7.356 16.431,16.431l0,108.805Z" style="fill:#fff;fill-rule:nonzero;"/><g><g><rect id="path1786" x="202.96" y="47.245" width="41.079" height="94.488" style="fill:#fff;"/><path id="path1788" d="M222.459,118.063l-12.919,0l-0,-47.159l12.919,0l0,4.67l1.58,-1.59l1.75,-1.33l2,-1.17l2.17,-0.75l2.16,-0.5l2.25,-0.161l3.17,0l0,12.25l-4.42,0l-1.83,0.16l-1.83,0.499l-1.67,0.84l-1.58,1.08l-1.249,1.25l-1.08,1.58l-0.84,1.67l-0.499,1.829l-0.083,1.84l0.001,24.992Z" style="fill:#010001;fill-rule:nonzero;"/></g><g><rect id="path1754" x="244.039" y="47.245" width="55.239" height="94.488" style="fill:#fff;"/><path id="path1756" d="M270.369,68.994l-2.59,0.161l-2.5,0.42l-2.5,0.75l-2.41,0.92l-2.25,1.24l-2.34,1.75l-2.08,2.09l-1.83,2.25l-1.5,2.58l-1.171,2.67l-0.16,0.5l-0.84,3.33l-0.5,3.42l-0.17,3.409l0.17,3.42l0.5,3.41l0.84,3.25l0.16,0.591l1.171,2.66l1.5,2.5l1.83,2.34l2.08,2.08l2.34,1.75l2.25,1.16l2.41,1.009l2.5,0.74l2.5,0.42l2.59,0.17l2.579,-0.17l2.58,-0.42l2.5,-0.74l2.42,-1.009l2.25,-1.16l2.33,-1.75l2.08,-2.08l1.84,-2.34l1.5,-2.5l1.16,-2.66l0.17,-0.591l0.83,-3.25l0.5,-3.41l0.094,-3.42l-0.094,-3.409l-0.5,-3.42l-0.83,-3.33l-0.17,-0.5l-1.16,-2.67l-1.5,-2.58l-1.84,-2.25l-2.08,-2.09l-2.33,-1.75l-2.25,-1.24l-2.42,-0.92l-2.5,-0.75l-2.58,-0.42l-2.579,-0.161Zm-0,11.33l1.91,0.25l1.999,0.831l1.75,1.33l1.5,1.59l1.25,1.83l0.67,1.499l0.421,1.58l0.329,2.67l0.083,2.58l-0.083,2.58l-0.329,2.67l-0.421,1.58l-0.67,1.5l-1.25,1.84l-1.5,1.58l-1.75,1.33l-1.999,0.75l-1.91,0.34l-1.84,-0.34l-2,-0.75l-1.83,-1.33l-1.5,-1.58l-1.171,-1.84l-0.66,-1.5l-0.421,-1.58l-0.329,-2.67l-0.17,-2.58l0.17,-2.58l0.329,-2.67l0.421,-1.58l0.66,-1.499l1.171,-1.83l1.5,-1.59l1.83,-1.33l2,-0.831l1.84,-0.25Z" style="fill:#010001;fill-rule:nonzero;"/></g><g><rect id="path1742" x="299.278" y="47.245" width="30.749" height="94.488" style="fill:#fff;"/><path id="path1744" d="M326.197,106.484l-2.5,0.329l-2.499,0.095l-0.921,-0.095l-0.75,-0.41l-0.66,-0.669l-0.42,-0.75l-0.17,-0.921l-0,-52.069l-12.91,0l-0,57.319l0.161,1.75l0.499,1.67l0.75,1.58l1.001,1.5l1.25,1.25l1.42,1.001l1.67,0.669l1.659,0.5l1.751,0.17l4.079,-0.34l4,-0.5l4,-0.75l-1.41,-11.329Z" style="fill:#010001;fill-rule:nonzero;"/></g><g><rect id="path1698" x="109.047" y="47.245" width="53.329" height="94.488" style="fill:#fff;"/><path id="path1700" d="M133.877,68.994l-3.08,0.161l-3,0.58l-3.75,1.09l-3.67,1.41l-3.5,1.67l-3.41,1.92l6.33,9.66l2.58,-1.58l2.67,-1.25l2.83,-1.001l2.92,-0.75l3,-0.42l1.66,-0.083l1.75,0.33l1.58,0.589l0.92,0.58l0.75,0.83l0.5,0.92l0.17,1.08l-0,3l-4.17,0.17l-4.08,0.5l-4.08,0.75l-4,1.079l-3.92,1.42l-1.66,1l-1.59,1.25l-1.42,1.5l-1.16,1.58l-0.92,1.83l-0.66,1.92l-0.34,2l-0.083,2l0.17,2l0.49,1.92l0.76,1.91l1,1.75l1.24,1.59l1.42,1.41l1.67,1.17l2.41,1.16l2.59,0.92l2.75,0.59l2.75,0.329l2.75,-0.082l2.66,-0.341l2.67,-0.66l1.42,-0.67l1.33,-0.83l1.079,-1l0.92,-1.25l1.001,1.33l1.25,1l1.42,0.75l2.579,1.001l2.66,0.579l2.75,0.33l4.59,-10.08l-1.09,0l-1.079,-0.159l-1.08,-0.5l-0.84,-0.67l-0.66,-0.92l-0.42,-1l-0.17,-1.16l-0,-22.33l-0.161,-1.839l-0.421,-1.83l-0.75,-1.67l-0.92,-1.58l-1.25,-1.5l-1.41,-1.171l-1.59,-1l-2.25,-0.99l-2.409,-0.84l-2.92,-0.83l-3.08,-0.421l-2.996,-0.151Zm7.25,28.07l-0,6.75l-0.17,1.249l-0.58,1.171l-0.75,1l-1.09,0.75l-1.16,0.421l-2.33,0.329l-2.34,0l-2.33,-0.329l-1.171,-0.421l-1,-0.75l-0.83,-0.92l-0.58,-1.079l-0.34,-1.08l-0,-1.17l0.34,-1.171l0.58,-0.91l0.83,-0.84l1,-0.58l3.92,-1l2.28,-0.471l1.72,-0.36l4.001,-0.589Z" style="fill:#010001;fill-rule:nonzero;"/></g><g><rect id="path1670" x="162.376" y="47.245" width="40.584" height="94.488" style="fill:#fff;"/><path id="path1672" d="M192.379,107.82l2.41,-0.41l2.34,-0.671l2.831,10.751l-3.501,1l-3.58,0.66l-3.59,0.341l-3.661,0.082l-3.59,-0.329l-1.75,-0.341l-1.74,-0.749l-1.5,-1.001l-1.34,-1.25l-1.081,-1.41l-0.751,-1.67l-0.5,-1.75l-0.17,-1.83l0,-28.003l-7.581,0l0,-10.751l7.581,0l0,-14.741l12.921,-3.75l0,18.491l12.001,0l0,10.751l-12.001,0l0,23.002l0.083,1l0.42,0.92l0.58,0.751l0.83,0.58l0.92,0.42l0.919,0.083l2.5,-0.176Z" style="fill:#010001;fill-rule:nonzero;"/></g><g id="P"><rect id="path1606" x="44.809" y="47.245" width="64.239" height="94.488" style="fill:#fff;"/><path id="path1608" d="M56.148,51.995l0,66.158l13.49,0l0,-23.329l15,-0l2.58,-0.17l2.59,-0.5l2.41,-0.83l2.34,-1.171l2.25,-1.42l1.91,-1.66l1.75,-1.92l1.5,-2.16l1.169,-2.17l1,-2.25l0.75,-2.33l0.421,-2.419l0.082,-2.42l-0.082,-2.41l-0.421,-2.42l-0.75,-2.33l-1,-2.25l-1.169,-2.17l-1.5,-2.17l-1.75,-1.91l-1.91,-1.67l-2.25,-1.42l-2.34,-1.16l-2.41,-0.83l-2.59,-0.51l-2.58,-0.161l-28.49,0.002Zm13.49,12.249l13.42,0l1.66,0.16l1.59,0.499l1.5,0.75l1.33,1.001l1.079,1.34l0.84,1.41l0.58,1.59l0.25,1.66l0,1.59l-0.25,1.66l-0.58,1.5l-0.84,1.499l-1.079,1.251l-1.33,1l-1.5,0.75l-1.59,0.5l-1.66,0.17l-13.42,-0l0,-18.33Z" style="fill:#010001;fill-rule:nonzero;"/></g></g></g></svg>