<?xml version="1.0" encoding="UTF-8" standalone="no"?><!DOCTYPE svg PUBLIC "-//W3C//DTD SVG 1.1//EN" "http://www.w3.org/Graphics/SVG/1.1/DTD/svg11.dtd"><svg width="100%" height="100%" viewBox="0 0 417 272" version="1.1" xmlns="http://www.w3.org/2000/svg" xmlns:xlink="http://www.w3.org/1999/xlink" xml:space="preserve" xmlns:serif="http://www.serif.com/" style="fill-rule:evenodd;clip-rule:evenodd;stroke-linejoin:round;stroke-miterlimit:2;"><g id="scale-value" transform="matrix(50,0,0,50,210.617,171.761)"></g><text x="64.694px" y="171.761px" style="font-family:'ArialMT', 'Arial', sans-serif;font-size:50px;">sw=23</text><g id="_547.4-Elderly-People" serif:id="547.4 Elderly People"><path d="M416.693,35.433c-0,-19.556 -15.877,-35.433 -35.433,-35.433l-345.827,0c-19.556,0 -35.433,15.877 -35.433,35.433l0,200.781c0,19.556 15.877,35.433 35.433,35.433l345.827,0c19.556,0 35.433,-15.877 35.433,-35.433l-0,-200.781Z"/><path d="M398.976,35.433c0,-9.778 -7.938,-17.716 -17.716,-17.716l-345.827,-0c-9.778,-0 -17.716,7.938 -17.716,17.716l-0,200.781c-0,9.778 7.938,17.717 17.716,17.717l345.827,-0c9.778,-0 17.716,-7.939 17.716,-17.717l0,-200.781Z" style="fill:#fff;"/><g><g><rect id="path1706" x="54.874" y="141.732" width="57.569" height="94.488" style="fill:#fff;"/><path id="path1708" d="M85.284,163.392l-2.5,0.25l-2.5,0.58l-2.33,0.84l-2.33,1.16l-2.09,1.34l0,-2.17l-12.91,-0l0,61.329l12.91,-0l0,-17.33l1.59,1.41l1.75,1.079l1.91,0.84l2.84,0.75l2.99,0.41l2.92,-0l2.92,-0.33l2.83,-0.75l2.75,-1.079l2.33,-1.42l2.17,-1.83l1.83,-2l1.5,-2.33l1.17,-2.42l1.17,-3.25l0.74,-3.33l0.499,-3.42l0.095,-3.41l-0.17,-3.51l-0.58,-3.33l-0.92,-3.33l-1.16,-3.25l-0.92,-1.83l-1.08,-1.749l-1.34,-1.5l-1.909,-1.75l-2.09,-1.5l-2.16,-1.171l-2.42,-1l-2.42,-0.58l-2.49,-0.421l-2.595,0.002Zm-1.92,11.42l2,0.082l1.84,0.421l1.83,0.83l1.58,1.08l1.09,1l0.909,1.34l0.75,1.66l0.67,2.5l0.5,2.67l0.082,2.58l-0.159,2.67l-0.5,2.58l-0.75,2.58l-0.75,1.42l-1,1.25l-1.25,1.079l-1.34,0.84l-1.5,0.5l-1.91,0.499l-1.92,0.161l-1.83,-0.251l-1.84,-0.58l-1.74,-0.83l-1.5,-1.17l-1.26,-1.5l-0.739,-1.001l-0.591,-1.079l-0.329,-1.25l-0.17,-1.25l-0,-10.25l0.25,-1.58l0.589,-1.5l0.911,-1.42l1.09,-1.17l1.5,-1.16l1.74,-0.92l1.84,-0.58l1.907,-0.251Z" style="fill:#010001;fill-rule:nonzero;"/></g><g><rect id="path17061" serif:id="path1706" x="220.591" y="141.732" width="57.569" height="94.488" style="fill:#fff;"/><path id="path17081" serif:id="path1708" d="M251.001,163.392l-2.5,0.25l-2.5,0.58l-2.33,0.84l-2.33,1.16l-2.09,1.34l-0,-2.17l-12.91,-0l0,61.329l12.91,-0l-0,-17.33l1.59,1.41l1.75,1.079l1.91,0.84l2.84,0.75l2.99,0.41l2.92,-0l2.92,-0.33l2.83,-0.75l2.749,-1.079l2.33,-1.42l2.17,-1.83l1.83,-2l1.5,-2.33l1.171,-2.42l1.17,-3.25l0.74,-3.33l0.499,-3.42l0.095,-3.41l-0.17,-3.51l-0.58,-3.33l-0.92,-3.33l-1.16,-3.25l-0.92,-1.83l-1.08,-1.749l-1.34,-1.5l-1.91,-1.75l-2.09,-1.5l-2.16,-1.171l-2.42,-1l-2.419,-0.58l-2.49,-0.421l-2.595,0.002Zm-1.92,11.42l2,0.082l1.84,0.421l1.83,0.83l1.58,1.08l1.09,1l0.909,1.34l0.75,1.66l0.67,2.5l0.499,2.67l0.083,2.58l-0.159,2.67l-0.5,2.58l-0.75,2.58l-0.75,1.42l-1,1.25l-1.25,1.079l-1.34,0.84l-1.5,0.5l-1.91,0.499l-1.92,0.161l-1.83,-0.251l-1.84,-0.58l-1.74,-0.83l-1.5,-1.17l-1.26,-1.5l-0.739,-1.001l-0.591,-1.079l-0.329,-1.25l-0.171,-1.25l0,-10.25l0.251,-1.58l0.589,-1.5l0.911,-1.42l1.09,-1.17l1.5,-1.16l1.74,-0.92l1.84,-0.58l1.907,-0.251Z" style="fill:#010001;fill-rule:nonzero;"/></g><g><rect id="path1754" x="165.352" y="141.732" width="55.239" height="94.488" style="fill:#fff;"/><path id="path1756" d="M191.682,163.482l-2.59,0.16l-2.5,0.421l-2.5,0.75l-2.41,0.92l-2.25,1.24l-2.34,1.75l-2.08,2.09l-1.83,2.25l-1.5,2.58l-1.17,2.67l-0.161,0.499l-0.84,3.33l-0.499,3.42l-0.17,3.41l0.17,3.42l0.499,3.41l0.84,3.25l0.161,0.591l1.17,2.66l1.5,2.499l1.83,2.34l2.08,2.08l2.34,1.75l2.25,1.16l2.41,1.01l2.5,0.739l2.5,0.421l2.59,0.17l2.58,-0.17l2.58,-0.421l2.5,-0.739l2.42,-1.01l2.25,-1.16l2.33,-1.75l2.079,-2.08l1.84,-2.34l1.5,-2.499l1.16,-2.66l0.17,-0.591l0.831,-3.25l0.499,-3.41l0.095,-3.42l-0.095,-3.41l-0.499,-3.42l-0.831,-3.33l-0.17,-0.499l-1.16,-2.67l-1.5,-2.58l-1.84,-2.25l-2.079,-2.09l-2.33,-1.75l-2.25,-1.24l-2.42,-0.92l-2.5,-0.75l-2.58,-0.421l-2.58,-0.16Zm-0,11.33l1.91,0.25l2,0.83l1.75,1.33l1.5,1.59l1.25,1.83l0.669,1.5l0.421,1.58l0.329,2.67l0.083,2.58l-0.083,2.58l-0.329,2.67l-0.421,1.58l-0.669,1.5l-1.25,1.84l-1.5,1.58l-1.75,1.33l-2,0.75l-1.91,0.34l-1.84,-0.34l-2,-0.75l-1.83,-1.33l-1.5,-1.58l-1.171,-1.84l-0.66,-1.5l-0.42,-1.58l-0.33,-2.67l-0.17,-2.58l0.17,-2.58l0.33,-2.67l0.42,-1.58l0.66,-1.5l1.171,-1.83l1.5,-1.59l1.83,-1.33l2,-0.83l1.84,-0.25Z" style="fill:#010001;fill-rule:nonzero;"/></g><g><rect id="path1806" x="112.443" y="141.732" width="52.909" height="94.488" style="fill:#fff;"/><path id="path1808" d="M137.943,164.142l-2.42,0.17l-2.41,0.41l-2.34,0.75l-2.25,1.09l-2.08,1.25l-2.25,1.66l-2.08,2l-1.75,2.25l-1.42,2.42l-1.17,3l-0.831,3.17l-0.499,3.16l-0.17,3.249l0.25,3.25l0.591,3.17l0.909,3.08l1.169,3l1.08,2.17l1.42,2l1.5,1.83l1.83,1.67l1.92,1.41l2.08,1.25l2.25,0.92l2.34,0.67l2.99,0.58l3.09,0.25l3.08,-0.083l3.079,-0.34l3,-0.66l2.34,-0.84l2.16,-1.079l2,-1.42l1.83,-1.67l1.67,-1.83l-8,-8.08l-1.83,1.67l-2.079,1.33l-2.25,1l-2.17,0.58l-2.17,0.17l-2.16,-0.082l-2.17,-0.421l-2.08,-0.75l-1.42,-0.92l-1.25,-1.16l-1.001,-1.34l-0.75,-1.5l-0.409,-1.66l-0.17,-1.67l31.499,0l-0.17,-3.92l-0.421,-3.91l-0.83,-3.829l-1.17,-3.75l-1.08,-2.5l-1.42,-2.25l-1.66,-2.17l-2,-1.83l-2.17,-1.59l-2.08,-1.25l-2.25,-0.91l-2.42,-0.669l-2.419,-0.421l-2.408,-0.075Zm-0.251,10.75l1.66,-0l1.67,0.329l1.58,0.59l1.42,0.83l1.33,1.079l1.09,1.25l0.831,1.42l0.58,1.58l0.25,1.67l-19.16,0l0.251,-1.67l0.58,-1.58l0.84,-1.42l1.079,-1.25l1.33,-1.079l1.42,-0.83l1.58,-0.59l1.669,-0.329Z" style="fill:#010001;fill-rule:nonzero;"/></g><g><rect id="path18061" serif:id="path1806" x="308.91" y="141.732" width="52.909" height="94.488" style="fill:#fff;"/><path id="path18081" serif:id="path1808" d="M334.409,164.142l-2.42,0.17l-2.41,0.41l-2.34,0.75l-2.25,1.09l-2.08,1.25l-2.25,1.66l-2.08,2l-1.75,2.25l-1.42,2.42l-1.17,3l-0.83,3.17l-0.5,3.16l-0.17,3.249l0.25,3.25l0.591,3.17l0.909,3.08l1.17,3l1.079,2.17l1.42,2l1.5,1.83l1.83,1.67l1.92,1.41l2.08,1.25l2.25,0.92l2.34,0.67l2.99,0.58l3.09,0.25l3.08,-0.083l3.08,-0.34l3,-0.66l2.34,-0.84l2.16,-1.079l2,-1.42l1.83,-1.67l1.67,-1.83l-8,-8.08l-1.83,1.67l-2.08,1.33l-2.25,1l-2.17,0.58l-2.17,0.17l-2.16,-0.082l-2.17,-0.421l-2.08,-0.75l-1.42,-0.92l-1.25,-1.16l-1,-1.34l-0.75,-1.5l-0.41,-1.66l-0.17,-1.67l31.499,0l-0.17,-3.92l-0.42,-3.91l-0.831,-3.829l-1.17,-3.75l-1.08,-2.5l-1.42,-2.25l-1.66,-2.17l-2,-1.83l-2.17,-1.59l-2.079,-1.25l-2.25,-0.91l-2.42,-0.669l-2.42,-0.421l-2.408,-0.075Zm-0.25,10.75l1.66,-0l1.67,0.329l1.58,0.59l1.42,0.83l1.329,1.079l1.091,1.25l0.83,1.42l0.58,1.58l0.25,1.67l-19.159,0l0.25,-1.67l0.58,-1.58l0.84,-1.42l1.079,-1.25l1.33,-1.079l1.42,-0.83l1.58,-0.59l1.67,-0.329Z" style="fill:#010001;fill-rule:nonzero;"/></g><g><rect id="path1742" x="278.16" y="141.732" width="30.749" height="94.488" style="fill:#fff;"/><path id="path1744" d="M305.08,200.971l-2.5,0.33l-2.5,0.094l-0.92,-0.094l-0.75,-0.41l-0.661,-0.67l-0.42,-0.75l-0.17,-0.92l-0,-52.069l-12.91,0l0,57.319l0.161,1.75l0.499,1.67l0.75,1.58l1.001,1.5l1.25,1.25l1.42,1l1.67,0.67l1.66,0.499l1.75,0.171l4.08,-0.341l4,-0.499l3.999,-0.75l-1.409,-11.33Z" style="fill:#010001;fill-rule:nonzero;"/></g></g><g><g><rect id="path1698" x="319.37" y="47.244" width="50.079" height="94.488" style="fill:#fff;"/><path d="M366.783,70.829l-17.947,52.427c-0.827,2.426 -1.847,4.314 -3.06,5.664c-1.213,1.351 -2.536,2.357 -3.97,3.019c-1.102,0.496 -2.412,0.868 -3.928,1.116c-1.516,0.248 -2.991,0.372 -4.425,0.372c-1.489,0 -3.101,-0.151 -4.838,-0.455c-1.737,-0.303 -3.322,-0.675 -4.756,-1.116l2.151,-10.502c1.268,0.441 2.495,0.772 3.68,0.992c1.185,0.221 2.247,0.331 3.184,0.331c1.544,0 2.661,-0.248 3.35,-0.744c0.689,-0.496 1.034,-1.13 1.034,-1.902l-0,-0.414c-0,-0.165 -0.056,-0.385 -0.166,-0.661c-0.055,-0.221 -0.124,-0.441 -0.207,-0.662c-0.082,-0.22 -0.151,-0.468 -0.206,-0.744l-16.128,-46.721l13.729,-0l9.429,28.363l9.428,-28.363l13.646,-0Z" style="fill-rule:nonzero;"/></g><g><rect id="path16981" serif:id="path1698" x="249.449" y="47.222" width="40.157" height="94.488" style="fill:#fff;"/><path d="M283.526,82.644l-1.911,-0.167c-1.772,-0.166 -3.433,-0.069 -4.984,0.291c-1.551,0.36 -2.908,0.983 -4.071,1.869c-1.163,0.887 -2.077,2.036 -2.742,3.448c-0.664,1.413 -0.997,3.088 -0.997,5.026l0,24.924l-13.292,0l-0,-47.189l13.292,0l0,4.902c1.607,-2.271 3.6,-3.932 5.982,-4.985c2.382,-1.052 5.289,-1.384 8.723,-0.997l0,12.878Z" style="fill-rule:nonzero;"/></g><g><rect id="path16982" serif:id="path1698" x="197.48" y="47.244" width="51.969" height="94.488" style="fill:#fff;"/><path d="M245.123,96.457l-0.157,1.968l-30.472,0c0.052,1.26 0.367,2.428 0.944,3.504c0.578,1.076 1.339,2.021 2.284,2.835c0.945,0.813 2.034,1.443 3.268,1.89c1.233,0.446 2.532,0.669 3.897,0.669c3.937,-0 7.323,-1.313 10.158,-3.937l6.614,8.11c-2.257,2.152 -4.738,3.793 -7.441,4.921c-2.703,1.129 -5.787,1.693 -9.252,1.693c-3.727,0 -7.034,-0.617 -9.921,-1.85c-2.887,-1.234 -5.315,-2.94 -7.284,-5.118c-1.968,-2.179 -3.464,-4.712 -4.488,-7.599c-1.024,-2.887 -1.535,-5.984 -1.535,-9.291c-0,-3.202 0.485,-6.234 1.456,-9.095c0.971,-2.86 2.376,-5.341 4.213,-7.44c1.837,-2.1 4.121,-3.767 6.85,-5c2.73,-1.234 5.827,-1.851 9.292,-1.851c3.832,0 7.165,0.683 10,2.047c2.834,1.365 5.144,3.202 6.929,5.512c1.785,2.31 3.058,5.026 3.819,8.15c0.761,3.123 1.036,6.417 0.826,9.882Zm-12.362,-6.851c0,-2.414 -0.879,-4.396 -2.638,-5.945c-1.758,-1.548 -3.923,-2.322 -6.496,-2.322c-2.467,-0 -4.514,0.826 -6.141,2.48c-1.628,1.653 -2.573,3.583 -2.835,5.787l18.11,0Z" style="fill-rule:nonzero;"/></g><g><rect id="path16983" serif:id="path1698" x="141.26" y="47.222" width="56.22" height="94.488" style="fill:#fff;"/><path d="M192.216,117.835l-13.33,-0l0,-2.531c-1.293,1.181 -2.854,2.137 -4.682,2.868c-1.828,0.732 -3.67,1.097 -5.526,1.097c-3.656,0 -6.889,-0.689 -9.702,-2.067c-2.812,-1.378 -5.174,-3.22 -7.086,-5.526c-1.912,-2.306 -3.375,-4.963 -4.387,-7.972c-1.013,-3.009 -1.519,-6.173 -1.519,-9.491c0,-3.375 0.478,-6.609 1.434,-9.702c0.957,-3.093 2.377,-5.821 4.261,-8.183c1.884,-2.363 4.204,-4.261 6.96,-5.695c2.756,-1.434 5.934,-2.151 9.533,-2.151c1.969,-0 3.881,0.309 5.737,0.928c1.856,0.618 3.515,1.49 4.977,2.615l0,-20.079l13.33,0l-0,65.889Zm-13.245,-17.801l-0,-12.402c-0,-1.068 -0.254,-2.024 -0.763,-2.868c-0.508,-0.844 -1.158,-1.575 -1.949,-2.193c-0.791,-0.619 -1.68,-1.097 -2.669,-1.435c-0.989,-0.337 -1.963,-0.506 -2.923,-0.506c-3.559,0 -6.313,1.252 -8.261,3.754c-1.949,2.503 -2.923,5.723 -2.923,9.66c-0,1.8 0.254,3.473 0.762,5.02c0.509,1.547 1.229,2.882 2.161,4.007c0.932,1.125 2.076,2.025 3.432,2.7c1.356,0.675 2.881,1.012 4.575,1.012c0.847,0 1.779,-0.14 2.796,-0.422c1.017,-0.281 1.949,-0.703 2.796,-1.265c0.847,-0.563 1.553,-1.266 2.118,-2.109c0.565,-0.844 0.848,-1.828 0.848,-2.953Z" style="fill-rule:nonzero;"/></g><g><rect id="path16984" serif:id="path1698" x="111.496" y="47.244" width="29.764" height="94.488" style="fill:#fff;"/><path d="M140.079,116.699c-1.439,0.443 -2.96,0.789 -4.565,1.038c-1.604,0.249 -3.181,0.373 -4.73,0.373c-2.49,0 -4.633,-0.332 -6.432,-0.996c-1.798,-0.664 -3.264,-1.604 -4.398,-2.821c-1.134,-1.217 -1.964,-2.697 -2.49,-4.44c-0.525,-1.743 -0.788,-3.665 -0.788,-5.768l0,-52.116l13.029,-0l0,49.959c0,2.876 1.356,4.315 4.067,4.315c0.83,-0 1.632,-0.069 2.406,-0.208c0.775,-0.138 1.632,-0.373 2.573,-0.705l1.328,11.369Z" style="fill-rule:nonzero;"/></g><g><rect id="path16985" serif:id="path1698" x="289.606" y="47.222" width="29.764" height="94.488" style="fill:#fff;"/><path d="M318.189,116.677c-1.438,0.443 -2.96,0.789 -4.564,1.038c-1.605,0.249 -3.182,0.373 -4.731,0.373c-2.489,0 -4.633,-0.332 -6.431,-0.996c-1.798,-0.664 -3.265,-1.604 -4.399,-2.821c-1.134,-1.218 -1.964,-2.698 -2.489,-4.44c-0.526,-1.743 -0.789,-3.666 -0.789,-5.768l0,-52.117l13.029,0l0,49.959c0,2.877 1.356,4.316 4.067,4.316c0.83,-0 1.632,-0.069 2.407,-0.208c0.774,-0.138 1.632,-0.373 2.572,-0.705l1.328,11.369Z" style="fill-rule:nonzero;"/></g><g><rect x="47.244" y="47.244" width="64.252" height="94.488" style="fill:#fff;"/><path d="M102.265,118.11l-45.79,0l-0,-66.141l43.246,-0l0,13.058l-29.679,0l0,13.313l26.881,0l0,12.211l-26.881,0l0,14.5l32.223,0l0,13.059Z" style="fill-rule:nonzero;"/></g></g></g></svg>