<?xml version="1.0" encoding="UTF-8" standalone="no"?><!DOCTYPE svg PUBLIC "-//W3C//DTD SVG 1.1//EN" "http://www.w3.org/Graphics/SVG/1.1/DTD/svg11.dtd"><svg width="100%" height="100%" viewBox="0 0 494 272" version="1.1" xmlns="http://www.w3.org/2000/svg" xmlns:xlink="http://www.w3.org/1999/xlink" xml:space="preserve" xmlns:serif="http://www.serif.com/" style="fill-rule:evenodd;clip-rule:evenodd;stroke-linejoin:round;stroke-miterlimit:2;"><g id="scale-value" transform="matrix(50,0,0,50,320.3,153.475)"></g><text x="174.378px" y="153.475px" style="font-family:'ArialMT', 'Arial', sans-serif;font-size:50px;">sw=23</text><g id="_547.7-Disabled-Children" serif:id="547.7 Disabled Children"><path d="M493.946,35.433c-0,-19.556 -15.877,-35.433 -35.433,-35.433l-423.08,0c-19.556,0 -35.433,15.877 -35.433,35.433l0,200.781c0,19.556 15.877,35.433 35.433,35.433l423.08,0c19.556,0 35.433,-15.877 35.433,-35.433l-0,-200.781Z"/><path d="M476.229,35.433c0,-9.778 -7.938,-17.716 -17.716,-17.716l-423.08,-0c-9.778,-0 -17.716,7.938 -17.716,17.716l-0,200.781c-0,9.778 7.938,17.717 17.716,17.717l423.08,-0c9.778,-0 17.716,-7.939 17.716,-17.717l0,-200.781Z" style="fill:#fff;"/><g><g><rect id="path1786" x="283.252" y="141.732" width="41.079" height="94.488" style="fill:#fff;"/><path id="path1788" d="M302.752,212.551l-12.92,-0l-0,-47.159l12.92,-0l-0,4.67l1.58,-1.59l1.75,-1.33l2,-1.171l2.169,-0.75l2.16,-0.499l2.25,-0.161l3.17,0l0,12.25l-4.42,-0l-1.829,0.159l-1.83,0.5l-1.67,0.84l-1.58,1.079l-1.25,1.25l-1.08,1.58l-0.84,1.67l-0.499,1.83l-0.083,1.84l0.002,24.992Z" style="fill:#010001;fill-rule:nonzero;"/></g><g><rect id="path1750" x="377.24" y="141.736" width="57.159" height="94.488" style="fill:#fff;"/><path id="path1752" d="M413.82,182.815l-0.341,-1.67l-0.75,-1.579l-1,-1.34l-1.25,-1.08l-1.75,-0.75l-1.91,-0.329l-1.92,0.082l-1.83,0.33l-1.84,0.75l-1.5,1l-1.33,1.25l-1,1.5l-0.67,1.59l-0.16,1.66l-0,28.329l-12.92,0l-0,-47.159l12.92,0l-0,3.33l1.91,-1.5l2.089,-1.25l2.16,-0.909l2.34,-0.591l2.33,-0.329l2.42,0.082l2.75,0.5l2.41,0.84l2.33,1.16l2.09,1.42l1.91,1.67l1.67,1.91l1.42,2.17l1.08,2.499l0.75,2.58l0.42,2.67l0.161,2.75l-0,28.16l-12.91,-0l12.91,-0l-12.91,-0l-0,-28.08l-0.079,-1.666Z" style="fill:#010001;fill-rule:nonzero;"/></g><g><rect id="path1806" x="324.331" y="141.732" width="52.909" height="94.488" style="fill:#fff;"/><path id="path1808" d="M349.831,164.142l-2.42,0.17l-2.41,0.41l-2.34,0.75l-2.25,1.09l-2.08,1.25l-2.25,1.66l-2.08,2l-1.75,2.25l-1.42,2.42l-1.17,3l-0.831,3.17l-0.499,3.16l-0.17,3.249l0.25,3.25l0.591,3.17l0.909,3.08l1.169,3l1.08,2.17l1.42,2l1.5,1.83l1.83,1.67l1.92,1.41l2.08,1.25l2.25,0.92l2.34,0.67l2.99,0.58l3.09,0.25l3.079,-0.083l3.08,-0.34l3,-0.66l2.34,-0.84l2.16,-1.079l2,-1.42l1.83,-1.67l1.67,-1.83l-8,-8.08l-1.83,1.67l-2.08,1.33l-2.25,1l-2.17,0.58l-2.169,0.17l-2.16,-0.082l-2.17,-0.421l-2.08,-0.75l-1.42,-0.92l-1.25,-1.16l-1.001,-1.34l-0.75,-1.5l-0.41,-1.66l-0.17,-1.67l31.5,0l-0.17,-3.92l-0.421,-3.91l-0.83,-3.829l-1.171,-3.75l-1.079,-2.5l-1.42,-2.25l-1.66,-2.17l-2,-1.83l-2.17,-1.59l-2.08,-1.25l-2.25,-0.91l-2.42,-0.669l-2.42,-0.421l-2.407,-0.075Zm-0.251,10.75l1.66,-0l1.67,0.329l1.58,0.59l1.42,0.83l1.33,1.079l1.09,1.25l0.831,1.42l0.579,1.58l0.251,1.67l-19.16,0l0.251,-1.67l0.58,-1.58l0.839,-1.42l1.08,-1.25l1.33,-1.079l1.42,-0.83l1.58,-0.59l1.669,-0.329Z" style="fill:#010001;fill-rule:nonzero;"/></g><g><rect id="path1742" x="195.184" y="141.732" width="30.749" height="94.488" style="fill:#fff;"/><path id="path1744" d="M222.103,200.971l-2.5,0.33l-2.5,0.094l-0.92,-0.094l-0.75,-0.41l-0.66,-0.67l-0.42,-0.75l-0.17,-0.92l-0,-52.069l-12.91,0l-0,57.319l0.161,1.75l0.499,1.67l0.75,1.58l1.001,1.5l1.25,1.25l1.42,1l1.67,0.67l1.659,0.499l1.75,0.171l4.08,-0.341l4,-0.499l4,-0.75l-1.41,-11.33Z" style="fill:#010001;fill-rule:nonzero;"/></g><g><rect id="path1790" x="168.264" y="141.732" width="26.92" height="94.488" style="fill:#fff;"/><path id="path1792" d="M181.014,145.982l-1.42,0.16l-1.41,0.42l-1.25,0.67l-1.17,0.909l-0.92,1.171l-0.661,1.25l-0.42,1.42l-0.17,1.41l0.17,1.42l0.42,1.42l0.661,1.33l0.92,1.079l1.17,0.92l1.25,0.66l1.41,0.421l1.42,0.17l1.42,-0.17l1.41,-0.421l1.25,-0.66l1.171,-0.92l0.92,-1.079l0.66,-1.33l0.42,-1.42l0.17,-1.42l-0.17,-1.41l-0.42,-1.42l-0.66,-1.25l-0.92,-1.171l-1.171,-0.909l-1.25,-0.67l-1.41,-0.42l-1.42,-0.16Zm-6.5,19.41l0,47.239l12.92,-0l-0,-47.239l-12.92,-0Z" style="fill:#010001;fill-rule:nonzero;"/></g><g><rect id="path1794" x="111.035" y="141.736" width="57.069" height="94.488" style="fill:#fff;"/><path id="path1796" d="M146.525,179.645l-1.001,-1.419l-1.25,-1.08l-1.75,-0.75l-1.91,-0.329l-1.92,0.082l-1.829,0.421l-1.84,0.66l-1.5,1l-1.33,1.25l-1.001,1.5l-0.669,1.59l-0.161,1.66l-0,28.42l-12.92,-0l0,-66.159l12.92,-0l-0,22.239l1.91,-1.5l2,-1.159l2.25,-0.92l2.34,-0.67l2.33,-0.251l2.42,0l2.75,0.5l2.41,0.84l2.33,1.16l2.09,1.42l1.909,1.67l1.67,1.91l1.42,2.17l1.08,2.499l0.75,2.58l0.42,2.67l0.161,2.75l-0,28.25l-12.91,-0l12.91,-0l-12.91,-0l0,-28.17l-0.094,-1.66l-0.41,-1.67l-0.665,-1.504Z" style="fill:#010001;fill-rule:nonzero;"/></g><g><rect id="path1818" x="226.093" y="141.736" width="57.159" height="94.488" style="fill:#fff;"/><path id="path1820" d="M263.252,146.486l0,21.16l-2.159,-1.42l-2.25,-1.16l-2.42,-0.84l-2.41,-0.58l-2.59,-0.25l-2.5,0.094l-2.5,0.33l-2.5,0.66l-2.33,0.92l-2.25,1.25l-2.08,1.42l-2.13,2.04l-1.71,2.21l-1.25,2.37l-1.33,3.46l-0.83,3.33l-0.58,3.42l-0.251,3.42l0.161,3.41l0.421,3.42l0.83,3.33l1.09,3.25l1.24,2.5l1.5,2.249l1.84,2.08l2.08,1.75l2.33,1.42l2.75,1.08l2.92,0.75l2.92,0.34l2.91,0l2.92,-0.42l2.83,-0.75l2,-0.75l1.749,-1.171l1.58,-1.41l0,3.25l12.92,0l0,-66.159l-12.921,-0.003Zm-9.909,28.33l1.91,0.25l1.92,0.58l1.67,0.92l1.58,1.16l1.079,1.25l0.84,1.34l0.58,1.5l0.329,1.66l0,10.17l-0.159,1.25l-0.34,1.249l-0.58,1.08l-0.75,1.08l-1.33,1.42l-1.5,1.17l-1.67,0.83l-1.83,0.58l-1.92,0.251l-1.91,-0.161l-1.84,-0.42l-1.5,-0.58l-1.41,-0.84l-1.17,-1.08l-1.001,-1.25l-0.75,-1.42l-0.83,-2.5l-0.421,-2.66l-0.25,-2.58l0.17,-2.669l0.41,-2.58l0.75,-2.59l0.75,-1.66l0.84,-1.25l1.159,-1.09l1.59,-1.08l1.751,-0.75l1.909,-0.499l1.924,-0.081Z" style="fill:#010001;fill-rule:nonzero;"/></g><g><rect id="path1798" x="59.547" y="141.736" width="51.489" height="94.488" style="fill:#fff;"/><path id="path1800" d="M76.956,195.805l0.67,1.5l1.17,1.84l1.5,1.66l1.75,1.25l2.08,0.84l1.83,0.25l1.92,-0.25l2,-0.84l1.75,-1.25l1.5,-1.66l1.25,-1.84l1,-2.66l12,4.5l-0.25,0.5l-1.171,2.75l-1.5,2.5l-1.75,2.25l-2.08,2.08l-2.34,1.75l-2.33,1.25l-2.33,0.92l-2.499,0.75l-2.59,0.409l-2.58,0.171l-2.58,-0.171l-2.5,-0.409l-2.5,-0.75l-2.42,-0.92l-2.25,-1.25l-2.33,-1.75l-2.08,-2.08l-1.84,-2.25l-1.5,-2.5l-1.16,-2.75l-0.17,-0.5l-0.83,-3.34l-0.5,-3.41l-0.17,-3.42l0.17,-3.41l0.5,-3.34l0.83,-3.33l0.17,-0.579l1.16,-2.67l1.5,-2.5l1.84,-2.33l2.08,-2l2.33,-1.84l2.25,-1.16l2.42,-1.001l2.5,-0.669l2.5,-0.5l2.58,-0.17l2.58,0.17l2.59,0.5l2.499,0.669l2.33,1.001l2.33,1.16l2.34,1.84l2.08,2l1.75,2.33l1.5,2.5l1.171,2.67l0.25,0.579l-12,4.42l-1,-2.669l-1.25,-1.83l-1.5,-1.59l-1.75,-1.25l-2,-0.831l-1.92,-0.25l-1.83,0.25l-2.08,0.831l-1.75,1.25l-1.5,1.59l-1.17,1.83l-0.67,1.579l-0.5,1.59l-0.25,2.58l-0.161,2.58l0.161,2.67l0.25,2.58l0.5,1.58Z" style="fill:#010001;fill-rule:nonzero;"/></g></g><g><g><rect id="path18061" serif:id="path1806" x="336.634" y="47.244" width="52.909" height="94.488" style="fill:#fff;"/><path id="path18081" serif:id="path1808" d="M362.133,69.654l-2.42,0.17l-2.41,0.41l-2.34,0.75l-2.25,1.09l-2.08,1.25l-2.249,1.66l-2.08,2l-1.75,2.25l-1.42,2.42l-1.171,3l-0.83,3.169l-0.5,3.16l-0.17,3.25l0.251,3.25l0.59,3.17l0.91,3.08l1.169,3l1.079,2.17l1.42,2l1.5,1.83l1.83,1.67l1.92,1.41l2.08,1.25l2.25,0.92l2.34,0.67l2.99,0.58l3.09,0.25l3.08,-0.083l3.08,-0.34l3,-0.66l2.34,-0.84l2.16,-1.079l2,-1.42l1.83,-1.67l1.67,-1.83l-8,-8.08l-1.83,1.67l-2.08,1.33l-2.25,1l-2.17,0.58l-2.17,0.17l-2.16,-0.083l-2.17,-0.42l-2.08,-0.75l-1.42,-0.92l-1.25,-1.16l-1,-1.34l-0.75,-1.5l-0.41,-1.66l-0.17,-1.67l31.499,0l-0.17,-3.92l-0.42,-3.91l-0.831,-3.83l-1.17,-3.75l-1.08,-2.5l-1.419,-2.25l-1.66,-2.169l-2,-1.83l-2.17,-1.59l-2.08,-1.25l-2.25,-0.91l-2.42,-0.669l-2.42,-0.421l-2.408,-0.075Zm-0.25,10.749l1.66,0l1.67,0.33l1.58,0.589l1.42,0.831l1.33,1.079l1.09,1.25l0.83,1.42l0.58,1.58l0.25,1.67l-19.159,0l0.25,-1.67l0.58,-1.58l0.84,-1.42l1.079,-1.25l1.33,-1.079l1.42,-0.831l1.58,-0.589l1.67,-0.33Z" style="fill:#010001;fill-rule:nonzero;"/></g><g id="D"><rect id="path1566" x="47.244" y="47.244" width="71.739" height="94.488" style="fill:#fff;"/><path id="path1568" d="M58.494,51.994l-0,66.069l24.91,-0l3.08,-0.161l3.17,-0.499l3,-0.831l2.92,-1.17l2.83,-1.42l2.58,-1.75l2.42,-2l2.25,-2.25l1.909,-2.5l1.67,-2.66l1.42,-2.84l1.08,-2.91l0.75,-3.08l0.499,-3.59l0.251,-3.58l-0,-3.58l-0.251,-3.67l-0.499,-3.58l-0.75,-3l-1.08,-2.999l-1.42,-2.84l-1.67,-2.66l-1.909,-2.42l-2.25,-2.25l-2.42,-2.08l-2.58,-1.67l-2.83,-1.5l-2.92,-1.16l-3,-0.75l-3.17,-0.5l-3.08,-0.17l-24.91,0.001Zm13.58,13.16l11.499,-0l2.33,0.17l2.25,0.58l2.17,0.84l2.08,1.159l1.83,1.42l1.59,1.75l1.33,1.92l1.001,2.08l0.75,2.25l0.579,3.17l0.251,3.16l-0,3.25l-0.33,3.25l-0.669,3.17l-0.75,2.08l-1.08,2.08l-1.33,1.84l-1.59,1.58l-1.83,1.42l-2,1.079l-2.08,0.75l-2.25,0.5l-2.25,0.17l-11.499,-0l-0.002,-39.668Z" style="fill:#010001;fill-rule:nonzero;"/></g><g><rect id="path17421" serif:id="path1742" x="305.884" y="47.244" width="30.749" height="94.488" style="fill:#fff;"/><path id="path17441" serif:id="path1744" d="M332.804,106.483l-2.5,0.33l-2.5,0.094l-0.92,-0.094l-0.75,-0.41l-0.66,-0.67l-0.421,-0.75l-0.17,-0.92l0,-52.069l-12.91,-0l0,57.319l0.161,1.75l0.5,1.67l0.75,1.58l1,1.5l1.25,1.25l1.42,1l1.67,0.67l1.66,0.499l1.75,0.17l4.08,-0.34l4,-0.499l4,-0.75l-1.41,-11.33Z" style="fill:#010001;fill-rule:nonzero;"/></g><g><rect id="path17901" serif:id="path1790" x="118.983" y="47.244" width="26.92" height="94.488" style="fill:#fff;"/><path id="path17921" serif:id="path1792" d="M131.732,51.494l-1.419,0.16l-1.41,0.42l-1.25,0.67l-1.171,0.909l-0.92,1.171l-0.66,1.25l-0.421,1.42l-0.17,1.409l0.17,1.421l0.421,1.419l0.66,1.33l0.92,1.08l1.171,0.92l1.25,0.66l1.41,0.421l1.419,0.17l1.421,-0.17l1.41,-0.421l1.249,-0.66l1.171,-0.92l0.92,-1.08l0.66,-1.33l0.421,-1.419l0.17,-1.421l-0.17,-1.409l-0.421,-1.42l-0.66,-1.25l-0.92,-1.171l-1.171,-0.909l-1.249,-0.67l-1.41,-0.42l-1.421,-0.16Zm-6.499,19.41l-0,47.239l12.919,-0l0,-47.239l-12.919,-0Z" style="fill:#010001;fill-rule:nonzero;"/></g><g><rect id="path18181" serif:id="path1818" x="389.543" y="47.244" width="57.159" height="94.488" style="fill:#fff;"/><path id="path18201" serif:id="path1820" d="M426.702,51.994l-0,21.16l-2.16,-1.42l-2.25,-1.16l-2.42,-0.84l-2.41,-0.58l-2.59,-0.25l-2.5,0.094l-2.5,0.33l-2.5,0.66l-2.33,0.92l-2.25,1.25l-2.079,1.42l-2.13,2.04l-1.71,2.21l-1.25,2.37l-1.33,3.46l-0.831,3.33l-0.58,3.42l-0.25,3.42l0.161,3.41l0.42,3.42l0.83,3.329l1.091,3.25l1.24,2.5l1.5,2.25l1.839,2.08l2.08,1.75l2.33,1.42l2.75,1.08l2.92,0.75l2.92,0.34l2.91,-0l2.92,-0.421l2.83,-0.75l2,-0.75l1.75,-1.17l1.58,-1.41l-0,3.25l12.92,0l-0,-66.159l-12.921,-0.003Zm-9.91,28.329l1.91,0.251l1.92,0.58l1.67,0.92l1.58,1.16l1.08,1.25l0.839,1.34l0.58,1.5l0.33,1.66l-0,10.169l-0.16,1.25l-0.34,1.25l-0.58,1.08l-0.75,1.079l-1.33,1.42l-1.5,1.171l-1.67,0.83l-1.83,0.58l-1.92,0.251l-1.91,-0.161l-1.84,-0.421l-1.5,-0.579l-1.41,-0.84l-1.17,-1.08l-1,-1.25l-0.75,-1.42l-0.831,-2.5l-0.42,-2.66l-0.251,-2.58l0.171,-2.67l0.409,-2.58l0.75,-2.589l0.75,-1.66l0.84,-1.25l1.16,-1.09l1.59,-1.08l1.75,-0.75l1.91,-0.5l1.923,-0.081Z" style="fill:#010001;fill-rule:nonzero;"/></g><g><rect id="path1802" x="247.395" y="47.244" width="58.489" height="94.488" style="fill:#fff;"/><path id="path1804" d="M254.055,51.994l0,66.149l12.92,-0l-0,-3.24l1.58,1.41l1.75,1.17l1.92,0.75l2.91,0.75l2.92,0.421l2.92,-0l2.91,-0.34l2.92,-0.75l2.66,-1.08l2.42,-1.42l2.079,-1.75l1.84,-2.08l1.5,-2.25l1.16,-2.5l1.171,-3.25l0.75,-3.33l0.499,-3.42l0.083,-3.41l-0.17,-3.42l-0.58,-3.419l-0.909,-3.33l-1.171,-3.17l-0.83,-1.91l-1.171,-1.75l-1.33,-1.5l-1.92,-1.75l-2,-1.42l-2.25,-1.25l-2.33,-0.92l-2.499,-0.661l-2.5,-0.329l-2.58,-0.095l-2.5,0.251l-2.5,0.58l-2.34,0.84l-2.25,1.159l-2.16,1.42l-0,-21.159l-12.922,0.003Zm22.75,28.329l2,0.083l1.83,0.5l1.83,0.75l1.59,1.079l1.079,1.09l0.92,1.25l0.75,1.66l0.75,2.59l0.41,2.58l0.095,2.67l-0.17,2.58l-0.5,2.66l-0.75,2.5l-0.75,1.42l-1,1.25l-1.25,1.08l-1.33,0.839l-1.5,0.58l-1.92,0.421l-1.83,0.16l-1.92,-0.25l-1.83,-0.58l-1.75,-0.83l-1.5,-1.171l-1.25,-1.42l-0.75,-1.079l-0.58,-1.08l-0.34,-1.25l-0.161,-1.25l0,-10.17l0.251,-1.66l0.58,-1.499l0.92,-1.341l1.079,-1.25l1.58,-1.159l1.67,-0.92l1.83,-0.58l1.917,-0.253Z" style="fill:#010001;fill-rule:nonzero;"/></g><g><rect id="path1698" x="194.066" y="47.244" width="53.329" height="94.488" style="fill:#fff;"/><path id="path1700" d="M218.896,68.994l-3.08,0.16l-3,0.58l-3.75,1.09l-3.67,1.41l-3.5,1.67l-3.41,1.92l6.33,9.66l2.58,-1.58l2.67,-1.25l2.83,-1l2.92,-0.75l3,-0.421l1.66,-0.082l1.75,0.329l1.58,0.589l0.92,0.58l0.75,0.831l0.5,0.92l0.17,1.079l-0,3l-4.17,0.17l-4.08,0.5l-4.08,0.75l-4,1.08l-3.92,1.419l-1.66,1.001l-1.59,1.25l-1.42,1.5l-1.16,1.58l-0.92,1.83l-0.66,1.92l-0.34,2l-0.083,2l0.17,2l0.49,1.92l0.76,1.91l1,1.749l1.24,1.59l1.42,1.41l1.67,1.171l2.41,1.16l2.59,0.92l2.75,0.589l2.75,0.33l2.75,-0.083l2.66,-0.34l2.67,-0.66l1.42,-0.67l1.33,-0.83l1.079,-1.001l0.92,-1.25l1.001,1.33l1.25,1.001l1.42,0.75l2.58,1l2.659,0.58l2.75,0.329l4.59,-10.079l-1.09,-0l-1.079,-0.16l-1.08,-0.499l-0.84,-0.67l-0.66,-0.92l-0.42,-1.001l-0.17,-1.159l-0,-22.33l-0.161,-1.84l-0.421,-1.83l-0.75,-1.67l-0.92,-1.58l-1.25,-1.5l-1.41,-1.17l-1.589,-1.001l-2.25,-0.99l-2.41,-0.839l-2.92,-0.831l-3.08,-0.42l-2.996,-0.151Zm7.25,28.069l-0,6.75l-0.17,1.25l-0.58,1.17l-0.75,1.001l-1.09,0.75l-1.16,0.42l-2.33,0.33l-2.34,-0l-2.33,-0.33l-1.171,-0.42l-1,-0.75l-0.83,-0.92l-0.58,-1.08l-0.34,-1.079l-0,-1.171l0.34,-1.17l0.58,-0.911l0.83,-0.84l1,-0.58l3.92,-1l2.28,-0.47l1.72,-0.36l4.001,-0.59Z" style="fill:#010001;fill-rule:nonzero;"/></g><g><rect id="path1674" x="145.902" y="47.244" width="48.164" height="94.488" style="fill:#fff;"/><path id="path1676" d="M158.653,103.909l2.001,1.58l2.16,1.25l2.34,1l2.41,0.671l2.5,0.33l2.251,-0l1.59,-0.581l1.33,-0.92l0.75,-0.749l0.5,-1l0.08,-1.081l-0.25,-1.09l-0.58,-0.91l-0.83,-0.671l-3.25,-1.25l-3.34,-0.67l-3.001,-0.5l-4.08,-1l-2,-0.66l-1.83,-1l-1.67,-1.25l-1.501,-1.42l-1.25,-1.58l-1.08,-1.751l-0.67,-2.09l-0.41,-2.16l0,-2.17l0.25,-2.16l0.58,-2.171l0.92,-1.92l1.251,-1.83l1.41,-1.58l1.59,-1.42l1.83,-1.171l1.91,-0.91l2.09,-0.59l3.001,-0.66l3,-0.34l3.08,-0l3.08,0.249l3.091,0.59l2.5,0.75l2.41,1l2.34,1.33l2.241,1.42l2,1.75l-7.991,8.491l-2.25,-1.83l-2.5,-1.5l-2.671,-1.16l-1.5,-0.419l-1.58,-0.25l-1.59,0l-1.66,0.42l-1.5,0.749l-1.341,1l-0.66,0.83l-0.34,0.92l0.09,1.081l0.33,0.91l0.58,0.841l1.001,0.58l5.5,1.081l5,0.67l1.921,0.33l0.08,-0l1.92,0.67l1.83,0.83l1.84,1.09l1.661,1.41l1.42,1.59l1.16,1.75l0.84,1.911l0.581,2.09l0.329,2.08l-0.082,2.17l-0.33,2.08l-0.671,2.08l-1.08,2.091l-1.34,1.91l-1.58,1.75l-1.83,1.5l-2.001,1.17l-3.25,1.001l-3.33,0.659l-3.421,0.341l-3.33,-0l-3.42,-0.341l-3.33,-0.659l-3.001,-0.92l-2.92,-1.25l-2.66,-1.58l-2.5,-1.841l-2.341,-2.16l9.421,-8.67l1.752,1.839Z" style="fill:#010001;fill-rule:nonzero;"/></g></g></g></svg>