<?xml version="1.0" encoding="UTF-8" standalone="no"?><!DOCTYPE svg PUBLIC "-//W3C//DTD SVG 1.1//EN" "http://www.w3.org/Graphics/SVG/1.1/DTD/svg11.dtd"><svg width="100%" height="100%" viewBox="0 0 514 454" version="1.1" xmlns="http://www.w3.org/2000/svg" xmlns:xlink="http://www.w3.org/1999/xlink" xml:space="preserve" xmlns:serif="http://www.serif.com/" style="fill-rule:evenodd;clip-rule:evenodd;stroke-linejoin:round;stroke-miterlimit:2;"><g id="scale-value" transform="matrix(50,0,0,50,350.88,262.709)"></g><text x="163.258px" y="262.709px" style="font-family:'ArialMT', 'Arial', sans-serif;font-size:50px;">sw=38.4</text><g id="_548-Cattle" serif:id="548 Cattle"><path d="M227.178,17.004c6.076,-10.522 17.302,-17.004 29.452,-17.004c12.149,0 23.376,6.482 29.452,17.004c54.065,93.625 168.545,291.872 222.619,385.514c6.077,10.524 6.079,23.491 0.003,34.016c-6.075,10.525 -17.303,17.009 -29.455,17.009l-445.238,0c-12.152,0 -23.38,-6.484 -29.455,-17.009c-6.076,-10.525 -6.074,-23.492 0.003,-34.016c54.074,-93.642 168.554,-291.889 222.619,-385.514Z" style="fill:#e31837;"/><path d="M256.665,56.708l202.961,351.496l-405.922,-0l202.961,-351.496Z" style="fill:#fff;"/><path d="M139.763,322.693l0.499,-0.375l0.406,-0.468l0.28,-0.53l0.188,-0.593l0.031,-0.624l-0,-4.494l0.093,-4.493l0.25,-4.493l0.343,-4.462l0.5,-4.462l0.592,-4.462l0.718,-4.431l0.874,-4.399l0.967,-4.4l0.406,-1.529l0.562,-1.497l0.655,-1.436l0.78,-1.404l0.874,-1.31l0.998,-1.249l1.092,-1.154l1.155,-1.061l1.279,-0.998l1.311,-0.843l1.404,-0.78l1.435,-0.655l1.498,-0.531l1.529,-0.405l1.561,-0.281l1.591,-0.156l1.591,-0.031l6.616,0.187l6.615,0.312l6.615,0.468l6.584,0.593l6.585,0.749l5.897,0.374l5.929,0.25l5.929,0.093l5.929,-0.031l5.897,-0.156l5.929,-0.281l5.898,-0.437l5.897,-0.561l34.544,-2.652l34.574,-2.497l0.468,-0.093l0.437,-0.187l0.406,-0.25l0.312,-0.375l0.249,-0.405l0.156,-0.468l0.032,-0.468l-0.063,-0.468l-0.156,-0.468l-0.25,-0.406l-0.343,-0.343l-0.624,-0.562l-0.53,-0.655l-0.437,-0.749l-0.312,-0.78l-0.219,-0.811l-0.093,-0.843l0.031,-0.842l0.156,-0.843l0.187,-0.499l0.312,-0.468l0.375,-0.406l0.468,-0.28l0.53,-0.219l4.338,2.434l4.43,2.278l0.375,0.093l0.343,-0.031l0.312,-0.218l0.187,-0.281l0.062,-0.375l0.032,-0.936l0.156,-0.904l0.281,-0.874l0.374,-0.874l0.5,-0.78l0.561,-0.718l0.686,-0.655l0.75,-0.53l0.811,-0.468l0.843,-0.344l0.905,-0.218l0.936,-0.125l0.935,0l0.905,0.125l0.906,0.25l1.685,0.655l1.747,0.53l1.747,0.406l1.779,0.281l1.81,0.187l1.809,0.031l1.81,-0.062l1.811,-0.219l1.778,-0.312l1.747,-0.436l1.748,-0.562l0.343,-0.062l0.374,0.062l0.313,0.187l0.249,0.25l0.156,0.343l0.031,0.343l-0.093,0.375l-0.187,0.28l-0.999,1.03l-1.061,0.936l-1.154,0.843l-1.218,0.749l-1.278,0.655l-1.342,0.53l-1.343,0.437l-1.403,0.312l-1.404,0.187l-1.436,0.063l-1.435,-0.063l-1.405,-0.156l-0.343,0l-0.312,0.094l-0.281,0.187l-0.187,0.25l-0.125,0.281l-0.031,0.343l0.063,0.312l0.156,0.281l0.218,0.249l1.966,1.467l1.841,1.591l1.778,1.716l1.685,1.779l5.961,4.774l4.961,4.087l2.933,2.621l5.274,4.993l3.401,3.214l0.281,0.343l0.187,0.406l0.063,0.468l-0.063,0.437l-0.156,0.436l-0.249,0.375l-0.344,0.281l-0.406,0.187l-0.655,0.281l-0.624,0.374l-0.561,0.468l-0.468,0.531l-0.406,0.592l-0.312,0.656l-0.562,0.499l-0.655,0.406l-0.718,0.312l-0.749,0.187l-0.749,0.062l-0.78,-0.031l-0.749,-0.156l-0.718,-0.25l-1.123,-0.031l-1.123,0.063l-1.092,0.187l-1.061,0.312l-1.062,0.405l-0.998,0.531l-6.896,0.686l-6.928,0.624l-6.927,0.5l-1.123,0.156l-1.092,0.218l-1.061,0.343l-1.03,0.437l-0.999,0.531l-0.935,0.624l-0.875,0.717l-0.78,0.78l-2.028,2.309l-1.935,2.403l-1.84,2.434l-1.748,2.527l-1.622,2.59l-1.56,2.683l-1.436,2.715l-1.31,2.746l-1.217,2.839l-1.093,2.84l-0.998,2.902l-0.874,2.964l-0.78,2.964l-0.499,1.623l-0.624,1.591l-0.749,1.529l-0.843,1.498l-0.936,1.435l-1.03,1.342l-1.123,1.279l-0.718,0.749l-0.967,0.655l-0.998,0.562l-1.03,0.437l-1.092,0.374l-1.124,0.219l-1.154,0.124l-0.593,0.125l-0.562,0.219l-0.499,0.312l-0.437,0.436l-0.343,0.5l-0.219,0.561l-0.093,0.593l-1.155,16.974l0.312,2.372l0.437,2.371l0.593,2.341l0.718,2.309l0.842,2.246l0.936,2.215l1.092,2.153l1.186,2.091l1.311,2.028l0.343,0.406l0.437,0.343l0.998,0.749l0.905,0.811l0.843,0.874l0.749,0.936l0.686,1.03l0.562,1.061l0.499,1.123l0.406,1.154l-1.81,0.25l-1.841,0.125l-1.81,-0l-1.81,-0.094l-1.81,-0.218l-1.809,-0.312l-1.748,-0.468l-0.343,-0.125l-0.281,-0.219l-0.218,-0.28l-0.156,-0.312l-0.063,-0.344l-0.156,-1.248l-0.249,-1.217l-0.375,-1.217l-0.437,-1.154l-0.53,-1.123l-0.219,-0.312l-0.312,-0.25l-0.343,-0.156l-1.498,-0.468l-0.374,-0.187l-0.312,-0.281l-0.219,-0.343l-0.125,-0.437l-0.53,-4.212l-0.655,-4.244l-0.749,-4.181l-0.406,-1.373l-0.53,-1.311l-0.624,-1.248l-0.749,-1.217l-0.812,-1.154l-0.905,-1.061l-0.187,-0.312l-2.715,-9.829l-0.124,-0.25l-0.219,-0.187l-0.249,-0.125l-0.281,0.032l-0.25,0.093l-0.218,0.187l-0.094,0.25l-0.499,2.403l-0.406,2.402l-0.281,2.434l-0.187,2.434l-0.062,2.465l0.062,2.434l0.187,2.434l0.25,2.433l0.406,2.403l0.499,2.403l0.624,2.371l0.718,2.34l0.811,2.309l0.218,0.281l1.249,1.154l1.154,1.217l1.061,1.342l0.936,1.404l0.094,0.25l-0,0.281l-0.094,0.249l-0.187,0.188l-0.25,0.124l-0.249,0.032l-2.528,-0.219l-2.527,-0.343l-2.497,-0.437l-2.496,-0.53l-2.465,-0.624l-0.375,-0.188l-0.343,-0.28l-0.218,-0.375l-0.125,-0.406l-0.687,-5.803l-0.125,-0.437l-0.218,-0.375l-0.343,-0.28l-1.498,-0.936l-0.281,-0.219l-0.25,-0.312l-0.124,-0.343l-0.063,-0.375l-0.062,-2.839l-0.187,-2.808l-0.344,-2.808l-0.468,-2.778l-0.624,-2.777l-0.749,-2.714l-0.873,-2.684l-0.125,-0.499l-0.063,-0.499l0,-14.197l-0.031,-0.562l-0.187,-0.562l-0.25,-0.499l-0.343,-0.437l-0.437,-0.374l-0.499,-0.281l-0.531,-0.156l-0.561,-0.094l-0.562,0.032l-4.088,0.592l-4.087,0.468l-4.088,0.344l-4.119,0.218l-4.119,0.125l-4.119,-0l-4.119,-0.125l-4.119,-0.249l-4.088,-0.344l-4.119,-0.468l-0.343,0l-0.375,0.063l-0.312,0.187l-0.28,0.249l-0.188,0.313l-0.717,1.31l-0.78,1.279l-0.905,1.186l-0.999,1.123l-1.061,1.061l-1.154,0.968l-1.217,0.873l-1.28,0.78l-1.342,0.687l-0.53,0.312l-0.468,0.437l-0.343,0.499l-0.25,0.593l-0.78,2.714l-0.187,0.375l-0.281,0.281l-0.343,0.187l-0.406,0.062l-0.406,-0.062l-0.343,-0.187l-0.281,-0.312l-1.248,-1.81l-0.374,-0.468l-0.469,-0.375l-0.53,-0.249l-0.593,-0.156l-0.593,-0.063l-0.593,0.094l-0.561,0.218l-0.5,0.312l-0.436,0.406l-0.344,0.468l-0.842,1.467l-0.219,0.312l-0.312,0.187l-0.343,0.125l-0.374,-0l-0.344,-0.094l-0.312,-0.187l-0.249,-0.281l-1.092,-1.779l-0.344,-0.436l-0.468,-0.375l-0.53,-0.25l-0.562,-0.093l-0.593,-0l-0.561,0.156l-0.5,0.281l-0.437,0.405l-0.343,0.468l-0.218,0.531l-0.312,1.466l-0.25,1.498l-0.094,1.498l-0.031,1.529l0.125,1.497l0.218,1.498l0.313,1.467l0.405,1.435l0.531,1.435l0.655,1.373l0.718,1.311l0.998,1.997l1.061,1.934l1.217,1.873l1.279,1.84l1.373,1.748l1.467,1.654l1.56,1.591l1.623,1.498l0.187,0.249l0.063,0.281l-0.032,0.312l-0.156,0.25l-0.249,0.156l-0.281,0.062l-2.497,0.281l-2.465,0.156l-2.496,0.062l-2.496,-0.062l-2.465,-0.156l-2.497,-0.281l-0.281,-0.062l-0.249,-0.156l-0.156,-0.25l-0.032,-0.312l-0.031,-1.435l-0.156,-1.436l-0.312,-1.404l-0.468,-1.373l-0.593,-1.341l-0.156,-0.188l-0.187,-0.156l-0.25,-0.062l-1.123,-0.125l-1.092,-0.218l-0.312,-0.156l-0.312,-0.25l-0.219,-0.281l-0.124,-0.343l-0.032,-0.374l-0.031,-2.621l-0.125,-2.59l-0.281,-2.59l-0.374,-2.559l-0.499,-2.558l-0.593,-2.528l-0.749,-2.496l-0.843,-2.434l-0.936,-2.433l-1.092,-2.372l-1.154,-2.309l-1.28,-2.278l-1.404,-2.184l-1.186,1.904l-1.061,1.934l-0.998,1.997l-0.874,2.059l-0.749,2.091l-0.624,2.153l-0.53,2.153l-0.406,2.215l-0.312,2.216l-0.156,2.215l-0.063,2.216l0.063,2.246l0.187,2.216l0.312,2.215l0.406,2.184l0.53,2.184l0.656,2.122l0.499,1.248l0.593,1.186l0.717,1.123l0.812,1.061l0.905,0.967l0.905,0.749l0.78,0.874l0.717,0.967l0.562,1.03l0.468,1.092l0.031,0.281l-0.062,0.249l-0.156,0.25l-0.219,0.156l-0.28,0.062l-2.809,-0.031l-2.839,-0.156l-2.809,-0.249l-2.777,-0.406l-2.777,-0.53l-2.746,-0.656l-0.25,-0.156l-0.156,-0.218l-0.062,-0.25l0.031,-0.249l0.374,-1.654l0.25,-1.654l0.156,-1.654l0.031,-1.685l-0.093,-0.312l-0.188,-0.249l-0.312,-0.156l-0.624,-0.187l-0.593,-0.281l-0.561,-0.375l-0.468,-0.437l-0.25,-0.343l-0.156,-0.374l0,-0.437l0.281,-3.807l0.156,-3.838l0.031,-3.869l-0.062,-3.838l-0.219,-3.838l-0.312,-3.806l-0.437,-3.838l-0.561,-3.776l-0.687,-3.775l-0.811,-3.776l-0.094,-0.718l0,-0.717l0.156,-0.718l0.25,-0.686l0.343,-0.624l0.468,-0.562l2.902,-3.089l0.593,-0.655l0.468,-0.749l0.406,-0.812l0.281,-0.842l0.156,-0.874l0.062,-0.873l-0.031,-0.874l-0.156,-0.874l-0.531,-2.184l-0.561,-6.396l-0.437,-6.397l-0.281,-6.397l-0.156,-6.427l0,-6.428l0.125,-6.428l0.249,-6.396l-0.031,-0.219l-0.156,-0.156l-0.187,-0.093l-0.218,0.031l-0.188,0.125l-0.093,0.187l-1.061,5.335l-0.936,5.336l-0.843,5.367l-0.686,5.398l-0.562,5.398l-0.437,5.429l-0.281,5.43l-0.187,5.429l0.406,0.936l0.312,0.998l0.156,0.999l0.062,1.03l-0.093,1.029l-0.188,0.999l-0.312,0.998l-0.437,0.936l-0.561,0.874l-0.78,0.905l-0.656,0.998l-0.561,1.093l-0.437,1.123l-0.343,1.154l-0.188,1.186l-0.093,1.186l0.031,1.217l0.187,1.185l0.281,1.186l0.437,1.123l0.062,0.281l0,0.312l-0.093,0.281l-0.188,0.25l-1.185,1.341l-1.124,1.373l-1.029,1.498l-0.937,1.529l-1.56,-10.328l-0.468,-2.434l-0.624,-2.403l-0.25,-1.154l-0.156,-1.123l-0.031,-1.186l0.063,-1.155l0.218,-1.123l0.312,-1.123l0.406,-1.092l0.53,-1.03l0.624,-0.967l0.749,-0.905l0.812,-0.843l0.873,-0.748l0.968,-0.624Z"/></g></svg>