<?xml version="1.0" encoding="UTF-8" standalone="no"?><!DOCTYPE svg PUBLIC "-//W3C//DTD SVG 1.1//EN" "http://www.w3.org/Graphics/SVG/1.1/DTD/svg11.dtd"><svg width="100%" height="100%" viewBox="0 0 514 454" version="1.1" xmlns="http://www.w3.org/2000/svg" xmlns:xlink="http://www.w3.org/1999/xlink" xml:space="preserve" xmlns:serif="http://www.serif.com/" style="fill-rule:evenodd;clip-rule:evenodd;stroke-linejoin:round;stroke-miterlimit:2;"><g id="scale-value" transform="matrix(50,0,0,50,350.88,262.709)"></g><text x="163.258px" y="262.709px" style="font-family:'ArialMT', 'Arial', sans-serif;font-size:50px;">sw=38.4</text><g id="_549-Sheep" serif:id="549 Sheep"><path d="M227.178,17.004c6.076,-10.522 17.302,-17.004 29.452,-17.004c12.149,0 23.376,6.482 29.452,17.004c54.065,93.625 168.545,291.872 222.619,385.514c6.077,10.524 6.079,23.491 0.003,34.016c-6.075,10.525 -17.303,17.009 -29.455,17.009l-445.238,0c-12.152,0 -23.38,-6.484 -29.455,-17.009c-6.076,-10.525 -6.074,-23.492 0.003,-34.016c54.074,-93.642 168.554,-291.889 222.619,-385.514Z" style="fill:#e31837;"/><path d="M256.665,56.708l202.961,351.496l-405.922,-0l202.961,-351.496Z" style="fill:#fff;"/><path d="M277.796,258.257l1.095,-0.03l1.124,-0.148l1.065,-0.266l1.036,-0.385l0.976,-0.533l0.918,-0.622l0.828,-0.711l2.87,-2.723l2.929,-2.635l3.048,-2.517l3.077,-2.457l3.196,-2.339l3.225,-2.221l3.314,-2.131l3.373,-2.043l3.462,-1.925l0.266,-0.207l0.237,-0.266l0.118,-0.296l0.059,-0.356l0,-0.325l-0.118,-0.326l-0.858,-1.865l-0.71,-1.925l-0.119,-0.533l-0.029,-0.533l0.089,-0.562l0.177,-0.503l0.266,-0.474l0.385,-0.415l0.444,-0.325l0.503,-0.208l0.533,-0.148l0.532,-0.029l0.533,0.089l0.532,0.177l0.474,0.296l1.242,0.977l1.154,1.066l1.066,1.155l0.946,1.273l0.858,1.332l0.74,1.392l0.651,1.45l0.207,0.415l0.296,0.326l0.385,0.266l0.444,0.178l0.473,0.059l1.627,0.059l1.657,0.207l1.628,0.326l1.598,0.444l1.538,0.533l1.509,0.681l1.48,0.77l1.39,0.888l1.332,0.977l1.242,1.066l3.344,3.138l3.225,3.227l3.136,3.316l3.048,3.405l2.959,3.494l2.84,3.582l0.769,1.036l0.681,1.066l0.799,1.51l0.71,1.54l0.592,1.598l0.473,1.629l0.355,1.658l0.208,1.687l-0,0.533l-0.089,0.533l-0.208,0.474l-0.295,0.474l-0.355,0.385l-0.444,0.296l-0.504,0.207l-0.503,0.118l-1.094,0.208l-1.035,0.325l-1.007,0.415l-0.946,0.533l-0.888,0.651l-0.799,0.711l-0.74,0.799l-0.355,0.355l-0.414,0.267l-0.473,0.148l-0.504,0.029l-0.503,-0.089l-0.443,-0.207l-0.385,-0.296l-0.325,-0.385l-13.848,-3.73l-0.74,-0.207l-0.799,-0.119l-0.769,-0.029l-0.769,0.118l-0.77,0.207l-0.71,0.296l-0.68,0.415l-0.622,0.473l-0.532,0.593l-0.444,0.621l-0.355,0.711l-0.266,0.74l-0.148,0.77l-0.118,3.612l-0.237,3.612l-0.355,3.612l-0.473,3.582l-0.563,3.553l-0.71,3.553l-0.829,3.523l-0.917,3.494l-1.035,3.464l-1.154,3.434l-1.273,3.405l-1.36,3.345l-1.48,3.287l-1.568,3.257l-1.686,3.197l-1.006,1.717l-1.095,1.629l-1.154,1.598l-1.273,1.51l-1.331,1.451l-1.42,1.362l-1.48,1.303l-1.538,1.214l-1.628,1.125l-1.686,1.036l-1.716,0.947l-1.776,0.859l-0.858,0.444l-0.769,0.533l-0.71,0.651l-0.621,0.711l-0.503,0.799l-0.415,0.859l-0.296,0.918l-0.68,4.944l-0.562,4.974l-0.415,5.003l-0.266,5.004l-0.148,5.003l0.059,0.829l0.207,0.829l0.326,0.77l0.473,0.681l0.563,0.622l1.065,1.007l0.976,1.095l0.888,1.155l0.799,1.214l0.71,1.273l0.621,1.332l0.059,0.296l-0.088,0.296l-0.178,0.237l-0.296,0.118l-1.746,0.326l-1.804,0.207l-1.776,0.059l-1.805,-0.088l-1.775,-0.208l-0.266,-0.118l-0.207,-0.207l-1.066,-1.599l-1.183,-1.51l-1.065,-1.184l-1.184,-1.096l-1.243,-1.006l-0.325,-0.326l-0.207,-0.385l-0.118,-0.444l0.029,-0.444l0.089,-0.888l-0.118,-3.316l-0.296,-4.234l-0.207,-4.234l-0.089,-4.263l-0,-4.234l0.118,-4.263l-0.059,-0.385l-0.178,-0.355l-0.295,-0.267l-0.356,-0.178l-0.384,-0.029l-0.385,0.089l-0.71,0.237l-0.651,0.355l-0.592,0.444l-0.562,0.385l-0.473,0.503l-0.385,0.592l-0.266,0.622l-1.036,3.138l-0.887,3.168l-0.77,3.227l-0.651,3.257l-0.503,3.257l-0.355,3.286l-0.236,3.287l-0.06,0.621l0.06,0.622l0.147,0.622l0.267,0.562l4.201,7.165l0.089,0.415l0,0.385l-0.089,0.384l-0.236,0.356l-0.296,0.266l-0.355,0.178l-0.385,0.089l-8.699,-0.681l-0.444,-0.267l-0.384,-0.355l-1.154,-4.086l-0.208,-0.533l-0.325,-0.503l-0.385,-0.415l-0.443,-0.355l-0.326,-0.148l-0.296,-0.207l-0.237,-0.296l-0.148,-0.355l-0.029,-0.356l0.029,-2.457l0.178,-2.457l0.296,-2.428l0.444,-2.428l0.71,-3.168l0.562,-3.227l0.414,-3.227l0.296,-3.227l0.148,-3.257l-0.029,-0.622l-0.148,-0.622l-0.267,-0.562l-0.325,-0.503l-0.414,-0.474l-1.539,-1.451l-1.45,-1.569l-1.391,-1.599l-1.301,-1.687l-0.533,-0.444l-0.592,-0.356l-0.621,-0.237l-0.651,-0.148l-0.681,-0.059l-0.68,0.059l-0.651,0.178l-4.32,0.563l-4.29,0.414l-4.32,0.296l-4.35,0.178l-4.32,0.059l-4.349,-0.059l-4.32,-0.207l-4.32,-0.326l-4.32,-0.444l-4.29,-0.563l-4.291,-0.681l-4.231,-0.799l-4.231,-0.948l-4.231,-1.036l-1.065,-0.207l-1.095,-0.089l-1.124,0l-0.977,0.089l-0.947,0.207l-0.946,0.296l-0.888,0.385l-0.858,0.474l-0.799,0.533l-0.74,0.651l-0.68,0.711l-0.71,0.858l-0.622,0.948l-0.532,1.006l-0.415,1.037l-0.325,1.065l-0.237,1.126l-0.118,1.095l-0.148,3.138l-0,3.139l0.118,3.138l0.237,3.138l0.385,3.109l0.473,3.109l0.621,3.079l0.77,3.049l0.148,0.207l0.236,0.149l0.267,0.148l0.236,0.236l0.119,0.326l0.029,0.296l0.059,0.622l0.148,0.562l0.296,0.504l3.876,5.684l0.178,0.237l0.059,0.267l-0.059,0.296l-0.178,0.236l-0.266,0.148l-1.598,0.415l-1.627,0.326l-1.627,0.177l-1.657,0.089l-1.657,-0.059l-1.657,-0.148l-0.385,-0.089l-0.325,-0.207l-0.267,-0.326l-0.177,-0.355l-0.059,-0.385l-0.089,-1.628l-0.178,-1.599l-0.266,-0.533l-0.355,-0.444l-0.473,-0.355l-0.474,-0.06l-0.414,-0.207l-0.385,-0.266l-0.296,-0.385l-0.177,-0.444l-0.059,-0.474l-0.74,-3.967l-0.621,-3.997l-3.166,-17.468l-0.119,-0.356l-0.177,-0.296l-0.237,-0.236l-0.325,-0.178l-0.326,-0.089l-0.355,0l-0.355,0.089l-0.296,0.178l-5.74,4.085l-0.621,0.622l-0.533,0.711l-0.414,0.799l-0.296,0.829l-0.148,0.859l-2.042,20.043l0,0.563l0.119,0.533l0.207,0.503l0.296,0.444l4.615,4.767l0.208,0.266l0.059,0.326l-0,0.326l-0.148,0.296l-0.207,0.237l-0.296,0.148l-0.296,0.059l-10.031,-0l-0.236,-0.03l-0.237,-0.148l-0.148,-0.177l-0.059,-0.237l-0.503,-3.583l-0.178,-0.473l-0.296,-0.385l-0.414,-0.208l-0.325,-0.266l-0.296,-0.355l-0.178,-0.415l-0.118,-0.444l-0,-0.444l0.089,-0.415l0.177,-0.414l0.148,-3.819l0.059,-3.79l-0.059,-3.819l-0.148,-3.79l-0.207,-1.747l-0.089,-1.746l0.03,-1.747l0.148,-1.747l0.237,-1.717l0.355,-1.717l0.473,-1.658l0.562,-1.658l0.237,-0.77l0.118,-0.8l0,-0.799l-0.148,-0.77l-0.236,-0.769l-0.355,-0.711l-0.474,-0.681l-1.035,-1.362l-0.947,-1.451l-0.858,-1.48l-0.74,-1.569l-0.651,-1.599l-0.533,-1.658l-0.414,-1.687l-0.296,-1.688l-0.177,-1.747l-0.059,-1.717l-0,-19.629l-0.03,-1.481l-0.178,-1.45l-0.236,-1.451l-0.355,-1.421l-0.474,-1.392l-0.532,-1.362l-0.651,-1.332l-0.77,-1.54l-0.65,-1.569l-0.533,-1.628l-0.444,-1.628l-0.325,-1.688l-0.237,-1.688l-0.118,-1.717l0.029,-1.687l0.119,-1.718l0.207,-1.687l0.591,-2.132l0.681,-2.132l0.769,-2.072l0.917,-2.043l0.977,-1.984l1.095,-1.924l1.183,-1.895l1.302,-1.806l1.361,-1.747l1.48,-1.687l1.538,-1.599l1.628,-1.51l1.686,-1.451l1.775,-1.332l1.835,-1.273l1.894,-1.155l1.952,-1.066l1.983,-0.977l2.041,-0.858l2.101,-0.77l2.131,-0.651l2.16,-0.533l2.159,-0.444l2.22,-0.326l2.189,-0.207l2.249,-0.089l23.996,0.592l24.026,0.711l24.026,0.858l23.996,0.948Z"/></g></svg>