<?xml version="1.0" encoding="UTF-8" standalone="no"?><!DOCTYPE svg PUBLIC "-//W3C//DTD SVG 1.1//EN" "http://www.w3.org/Graphics/SVG/1.1/DTD/svg11.dtd"><svg width="100%" height="100%" viewBox="0 0 514 454" version="1.1" xmlns="http://www.w3.org/2000/svg" xmlns:xlink="http://www.w3.org/1999/xlink" xml:space="preserve" xmlns:serif="http://www.serif.com/" style="fill-rule:evenodd;clip-rule:evenodd;stroke-linejoin:round;stroke-miterlimit:2;"><g id="scale-value" transform="matrix(50,0,0,50,350.88,262.709)"></g><text x="163.258px" y="262.709px" style="font-family:'ArialMT', 'Arial', sans-serif;font-size:50px;">sw=38.4</text><g id="_550-Wild-Horses-or-Ponies" serif:id="550 Wild Horses or Ponies"><path d="M227.178,17.004c6.076,-10.522 17.302,-17.004 29.452,-17.004c12.149,0 23.376,6.482 29.452,17.004c54.065,93.625 168.545,291.872 222.619,385.514c6.077,10.524 6.079,23.491 0.003,34.016c-6.075,10.525 -17.303,17.009 -29.455,17.009l-445.238,0c-12.152,0 -23.38,-6.484 -29.455,-17.009c-6.076,-10.525 -6.074,-23.492 0.003,-34.016c54.074,-93.642 168.554,-291.889 222.619,-385.514Z" style="fill:#e31837;"/><path d="M256.665,56.708l202.961,351.496l-405.922,-0l202.961,-351.496Z" style="fill:#fff;"/><path d="M130.584,313.314l1.763,-1.307l1.702,-1.43l1.611,-1.49l1.52,-1.612l1.399,-1.672l1.337,-1.764l1.216,-1.825l1.095,-1.916l1.003,-1.977l0.882,-2.007l0.76,-2.068l0.638,-2.099l0.517,-2.159l0.395,-2.159l0.365,-2.038l0.486,-2.037l0.578,-1.977l0.699,-1.947l0.791,-1.916l0.881,-1.885l1.003,-1.825l1.095,-1.764l1.185,-1.703l1.308,-1.642l1.428,-1.612l1.49,-1.521l1.55,-1.429l1.429,-1.125l1.49,-1.034l1.55,-0.913l1.611,-0.821l1.672,-0.699l1.733,-0.578l1.733,-0.456l1.794,-0.365l1.793,-0.213l1.794,-0.091l1.824,0.03l1.794,0.152l1.793,0.274l1.763,0.395l1.733,0.548l1.703,0.638l1.52,-1.155l1.611,-1.034l1.672,-0.943l1.733,-0.821l1.763,-0.73l1.824,-0.639l1.854,-0.517l1.855,-0.395l1.915,-0.274l1.885,-0.182l1.915,-0.061l1.915,0.061l1.915,0.152l1.885,0.304l1.885,0.395l1.854,0.517l1.794,0.608l24.351,9.155l1.915,0.638l1.976,0.548l1.976,0.395l1.976,0.304l2.037,0.183l2.006,0.03l2.037,-0.061l2.006,-0.213l2.007,-0.334l1.945,-0.426l1.946,-0.578l1.915,-0.669l1.855,-0.791l1.793,-0.912l1.763,-1.034l-1.246,0.365l-1.277,0.243l-1.307,0.122l-1.307,-0.031l-1.307,-0.182l1.064,-1.064l1.124,-1.034l1.186,-0.943l1.246,-0.852l1.308,-0.791l-0.092,-0.881l-0.182,-0.852l-0.304,-0.821l-0.395,-0.791l0.973,0.061l0.942,-0.061l0.973,-0.182l0.912,-0.304l0.881,-0.396l0.821,-0.486l0.76,-0.609l0.699,-0.699l1.186,-0.882l1.246,-0.76l1.308,-0.7l1.368,-0.547l1.398,-0.457l0.274,-0.091l0.213,-0.213l0.091,-0.273l-0.031,-0.274l-0.121,-0.274l-0.213,-0.182l-0.274,-0.061l-0.273,0.03l-1.733,0.426l-1.672,0.517l-1.642,0.608l0.152,-0.851l0.274,-0.791l0.395,-0.76l0.486,-0.7l0.608,-0.638l0.639,-0.548l0.76,-0.426l0.79,-0.334l0.821,-0.243l0.183,-0.092l0.152,-0.182l0.091,-0.213l-0,-0.213l-0.122,-0.213l-0.152,-0.152l-0.213,-0.091l-1.155,-0.152l-0.152,-0.061l-0.091,-0.122l-0.031,-0.152l0.031,-0.152l0.121,-0.121l0.152,-0.061l1.46,-0.061l1.489,0.091l0.852,-0.943l0.942,-0.882l1.034,-0.76l1.094,-0.638l1.155,-0.548l1.216,-0.395l1.247,-0.304l0.942,-0.122l0.942,-0.03l0.791,-0l0.79,-0.122l0.76,-0.243l0.699,-0.335l0.669,-0.487l0.547,-0.547l-0.79,0.061l-0.79,-0l-0.791,-0.122l-0.486,-0.121l-0.517,-0.031l-0.517,0.061l0.608,-0.608l0.639,-0.548l0.729,-0.456l0.76,-0.334l0.821,-0.274l0.821,-0.183l0.942,-0.212l0.882,-0.335l0.821,-0.456l0.76,-0.578l0.121,-0.213l0.061,-0.213l-0.061,-0.243l-0.121,-0.183l-0.213,-0.121l-0.243,-0.031l-2.22,0.152l-0.243,-0.06l-0.213,-0.213l-0.03,-0.274l0.091,-0.274l0.213,-0.152l1.49,-0.456l1.55,-0.304l1.52,-0.183l1.581,-0.06l1.55,0.091l1.52,0.243l4.621,-6.082l0.395,-0.487l0.456,-0.395l0.547,-0.274l0.578,-0.182l0.638,-0.092l0.609,0.061l0.577,0.183l0.943,7.116l0.181,0.791l0.304,0.791l0.426,0.699l0.517,0.639l0.639,0.547l14.409,10.462l0.821,0.669l0.73,0.76l0.607,0.821l1.247,1.856l0.699,0.973l0.79,0.882l0.852,0.821l13.042,11.526l0.699,0.7l0.577,0.79l0.457,0.852l0.334,0.912l0.213,0.973l0.061,0.974l-0.061,0.486l-0.213,0.487l-0.304,0.395l-0.669,0.669l-0.395,0.304l-0.456,0.244l-0.517,0.091l-0.517,-0l-0.516,-0.152l-0.457,-0.213l-0.395,-0.365l-0.577,-0.578l-0.669,-0.486l-0.699,-0.426l-0.67,-0.304l-0.729,-0.183l-0.73,-0.091l-0.76,0l-0.729,0.122l-0.122,0.03l-0.243,0.122l-0.183,0.182l-0.09,0.243l-0.031,0.274l0.092,0.243l0.182,0.213l0.243,0.122l1.003,0.335l0.973,0.456l0.943,0.547l0.851,0.608l0.79,0.73l0.212,0.274l0.152,0.304l0.062,0.335l-0,0.334l-0.122,0.335l-0.183,0.304l-0.242,0.243l-1.369,1.065l-0.486,0.304l-0.517,0.243l-0.577,0.152l-0.578,0.031l-0.548,-0.061l-0.577,-0.122l-1.459,-0.578l-1.459,-0.638l-1.369,-0.761l-1.337,-0.821l-1.307,-0.943l-0.821,-0.547l-0.882,-0.456l-0.912,-0.365l-0.972,-0.213l-0.973,-0.122l-0.973,-0.03l-1.003,0.121l-1.46,0.183l-1.489,0.091l-1.49,-0.061l-1.489,-0.152l-1.46,-0.273l-1.429,-0.396l-1.398,-0.486l-0.426,-0.122l-0.455,-0.03l-0.426,0.06l-0.425,0.183l-0.365,0.243l-0.304,0.335l-0.244,0.395l-4.407,9.732l-0.699,2.311l-0.821,2.251l-0.973,2.22l-1.094,2.129l-0.669,1.338l-0.548,1.399l-0.425,1.429l-0.335,1.43l-0.182,1.49l-0.274,3.224l-0.182,3.193l-0.091,0.578l-0.183,0.578l-1.033,2.645l-0.973,2.707l3.253,1.49l3.191,1.582l3.163,1.703l3.07,1.794l3.01,1.916l2.979,2.007l2.857,2.099l2.827,2.22l0.578,0.547l0.487,0.609l0.364,0.699l0.274,0.76l0.122,0.791l0.03,0.791l-0.122,0.79l-0.213,0.761l-0.364,0.699l-0.791,1.217l-0.912,1.125l-1.034,1.034l-1.124,0.912l-1.216,0.822l-27.786,18.46l-0.881,0.517l-0.882,0.426l-0.973,0.334l-0.973,0.243l-0.972,0.152l-1.004,0.061l-13.893,0l-0.668,-0.091l-0.639,-0.182l-0.547,-0.365l-0.486,-0.426l1.124,-1.794l1.247,-1.734l1.307,-1.642l1.398,-1.582l1.49,-1.52l1.581,-1.399l1.642,-1.338l1.216,1.399l1.276,1.277l1.399,1.216l0.425,0.305l0.487,0.212l0.547,0.092l0.517,-0l0.517,-0.092l0.516,-0.212l0.426,-0.305l0.395,-0.365l0.274,-0.456l0.213,-0.486l0.182,-0.487l0.304,-0.456l0.365,-0.365l0.425,-0.304l0.487,-0.213l0.486,-0.091l0.547,-0.031l0.639,0l0.638,-0.152l0.578,-0.274l6.232,-3.953l6.141,-4.045l6.08,-4.197l0.213,-0.213l0.151,-0.273l0.061,-0.274l-0.031,-0.304l-0.091,-0.274l-0.182,-0.243l-0.243,-0.183l-3.557,-1.764l-3.617,-1.672l-3.679,-1.551l-3.709,-1.399l-3.769,-1.308l-3.8,-1.186l-1.003,-0.243l-1.034,-0.092l-1.034,0l-1.033,0.122l-1.003,0.213l-0.973,0.365l-0.912,0.456l-0.882,0.547l-0.79,0.669l-0.73,0.73l-0.608,0.822l-0.547,0.912l-2.858,5.626l-2.766,5.687l-2.675,5.718l-2.554,5.778l-2.462,5.809l-2.341,5.869l-2.25,5.931l-2.128,5.93l-0.395,1.338l-0.274,1.339l-0.121,1.368l-0,1.399l0.121,1.369l0.274,1.338l0.395,1.338l0.517,1.277l0.608,1.217l0.76,1.155l2.827,3.832l0.608,0.821l0.487,0.913l0.364,0.973l0.304,0.973l0.183,1.034l0.061,1.004l-0.031,1.034l-15.869,-6.569l1.52,-6.083l0.122,-0.821l0.061,-0.821l-0.061,-0.821l-0.182,-0.791l-0.274,-0.791l-0.365,-0.729l-0.456,-0.7l-0.547,-0.608l-0.608,-0.548l-0.274,-0.273l-0.182,-0.304l-0.091,-0.335l-0,-0.365l0.06,-0.334l0.152,-0.335l1.247,-1.946l1.155,-2.008l1.034,-2.068l0.942,-2.098l0.821,-2.159l0.73,-2.19l0.608,-2.22l0.486,-2.251l0.395,-2.25l0.274,-2.311l0.182,-2.281l0.031,-2.312l-0.061,-2.311l-0.183,-2.311l-0.273,-2.281l1.094,-1.916l0.973,-2.007l0.882,-2.008l0.82,-2.098l0.669,-2.099l0.608,-2.128l0.487,-2.16l0.03,-0.486l-0.061,-0.457l-0.182,-0.425l-0.274,-0.396l-0.334,-0.304l-0.426,-0.243l-0.425,-0.122l-4.56,-0.821l-4.5,-0.912l-4.499,-1.034l-4.469,-1.156l-4.438,-1.277l-4.408,-1.369l-4.347,-1.49l-4.317,-1.612l-4.287,-1.733l-0.699,-0.183l-0.73,-0.03l-0.76,0.091l-0.76,0.243l-0.699,0.335l-0.638,0.426l-0.578,0.517l-0.517,0.608l-0.395,0.639l-0.304,0.729l-1.064,2.312l-1.185,2.25l-1.277,2.19l-1.399,2.129l-1.489,2.037l-1.611,1.977l-1.672,1.886l-1.794,1.825l-0.517,0.547l-0.425,0.669l-0.335,0.7l-0.213,0.729l-0.091,0.761l0.031,0.76l0.121,0.76l0.243,0.73l0.335,0.7l0.456,0.608l0.547,0.578l4.894,4.44l4.834,4.531l4.742,4.654l4.621,4.744l4.56,4.835l4.439,4.897l0.729,0.943l0.669,0.973l0.547,1.034l0.456,1.095l0.335,1.125l0.213,1.156l0.121,1.186l0.031,1.186l-0.122,1.155l-0.213,1.156l-14.075,-5.079l-0.031,-4.44l-0.03,-0.487l-0.182,-0.456l-0.244,-0.395l-0.334,-0.335l-0.395,-0.273l-0.456,-0.152l-2.463,-0.578l-0.638,-0.213l-0.578,-0.304l-0.516,-0.396l-0.426,-0.486l-0.365,-0.548l-1.277,-2.25l-1.368,-2.159l-1.489,-2.129l-1.581,-2.038l-1.672,-1.977l-1.763,-1.855l-1.855,-1.825l-1.945,-1.703l-2.007,-1.612l-2.097,-1.52l-2.128,-1.43l-2.25,-1.307l-2.25,-1.217l-2.34,-1.095l-2.402,-0.973l-0.608,-0.304l-0.517,-0.426l-0.456,-0.486l-0.365,-0.578l-0.243,-0.608l-0.152,-0.669l0,-0.67l0.122,-0.669l0.243,-0.638l1.186,-2.372l1.337,-2.281l1.49,-2.22l1.581,-2.129l1.702,-2.038l0.213,-0.304l0.121,-0.365l0.031,-0.365l-0.061,-0.395l-0.152,-0.335l-0.243,-0.304l-0.304,-0.213l-0.365,-0.122l-0.365,-0.06l-0.395,0.06l-2.31,0.578l-2.372,0.487l-2.371,0.395l-2.371,0.274l-2.402,0.152l-2.401,0.061l-2.402,-0.061l-2.401,-0.182l-2.372,-0.274l-0.76,-0.031l-0.79,0.061l-0.76,0.152l-0.699,0.274l-0.669,0.395l-0.608,0.457l-0.547,0.577l-0.456,0.609l-0.335,0.699l-0.273,0.73l-0.122,0.76l-0.061,0.761l0.061,3.375l-0.061,3.376l-0.182,3.376l-0.274,3.345l-0.365,3.346l-0.486,3.345l-0.608,3.315l-0.699,3.315l-0.274,0.973l-0.425,0.912l-0.517,0.882l-0.639,0.791l-0.729,0.73l-0.821,0.608l-2.341,1.46l-2.432,1.369l-2.493,1.277l-2.523,1.125l-2.584,1.034l-2.614,0.882l-0.973,0.243l-0.973,0.092l-0.973,-0.031l-0.973,-0.152l5.716,-12.864l2.067,0.274l2.037,0.212l2.067,0.092l2.067,-0l0.365,-0.092l0.304,-0.243l0.517,-0.76l0.486,-0.791l0.091,-0.334l-0.03,-0.335l-0.182,-0.274l-0.274,-0.213l-0.395,-0.212l-0.335,-0.305l-0.273,-0.395l-0.183,-0.426l-0.06,-0.456l0.03,-0.456l0.608,-3.741l0.486,-3.741l0.335,-3.771l0.243,-3.771l0.091,-3.801l0,-3.771l-0.152,-3.802l-0.273,-3.771l-0.396,-3.771l-0.03,-0.791l0.091,-0.791l0.183,-0.76l0.304,-0.76l0.395,-0.669l0.486,-0.639l0.578,-0.547l0.669,-0.457l0.699,-0.365l0.76,-0.243l0.79,-0.152l2.827,-0.243l2.828,-0.091l2.857,0.03l0.943,-0.03l0.912,-0.153l0.881,-0.243l0.882,-0.334l0.821,-0.457l0.729,-0.547l0.7,-0.639l0.608,-0.699l0.516,-0.76l0.426,-0.852l0.304,-0.851l0.213,-0.913l0.121,-0.943l-0.03,-0.912l-0.122,-0.943l-0.212,-0.882l-0.335,-0.882l-0.425,-0.821l-0.821,-1.429l-0.699,-1.46l-0.578,-1.521l-0.486,-1.581l-0.396,-1.581l-0.273,-1.612l-0.152,-1.643l-0.031,-1.611l0.061,-1.643l0.183,-1.642l0.304,-1.581l0.425,-1.582l0.517,-1.551l0.608,-1.52l0.73,-1.46l0.82,-1.43l0.943,-1.338l1.003,-1.277l0.152,-0.243l0.061,-0.244l-0,-0.273l-0.091,-0.274l-0.152,-0.213l-0.244,-0.183l-0.243,-0.091l-1.246,-0.182l-1.247,-0.061l-1.276,0.061l-1.247,0.182l-1.216,0.304l-1.186,0.426l-1.155,0.548l-1.064,0.638l-1.033,0.73l-0.943,0.852l-0.851,0.942l-0.76,1.004l-0.79,1.308l-0.73,1.338l-0.578,1.429l-0.486,1.46l-0.334,1.156l-0.73,3.132l-0.882,3.072l-0.972,3.072l-1.064,3.01l-1.216,2.981l-1.308,2.919l-1.428,2.889l-1.52,2.798l-1.612,2.768l-1.732,2.707l-1.824,2.645l-1.946,2.555l-2.007,2.494l-2.097,2.403l-2.219,2.341l-2.28,2.251l-2.372,2.159l-2.432,2.068l-2.523,1.977l-0.486,0.304l-0.547,0.182l-0.578,0.092l-0.578,-0.031l-0.547,-0.152l-0.517,-0.243l-0.456,-0.365l-0.395,-0.456l-0.273,-0.487l-0.183,-0.547l-0.061,-0.578l0.092,-2.068l0.212,-2.038l0.335,-2.007l0.273,-1.064l0.396,-1.034l0.456,-1.004l0.577,-0.973l0.639,-0.882l0.729,-0.821l0.821,-0.761l0.882,-0.669Z"/></g></svg>