<?xml version="1.0" encoding="UTF-8" standalone="no"?><!DOCTYPE svg PUBLIC "-//W3C//DTD SVG 1.1//EN" "http://www.w3.org/Graphics/SVG/1.1/DTD/svg11.dtd"><svg width="100%" height="100%" viewBox="0 0 514 454" version="1.1" xmlns="http://www.w3.org/2000/svg" xmlns:xlink="http://www.w3.org/1999/xlink" xml:space="preserve" xmlns:serif="http://www.serif.com/" style="fill-rule:evenodd;clip-rule:evenodd;stroke-linejoin:round;stroke-miterlimit:2;"><g id="scale-value" transform="matrix(50,0,0,50,350.88,262.709)"></g><text x="163.258px" y="262.709px" style="font-family:'ArialMT', 'Arial', sans-serif;font-size:50px;">sw=38.4</text><g><path d="M286.089,17.006c-6.077,-10.523 -17.307,-17.006 -29.459,-17.006c-12.153,-0 -23.382,6.483 -29.459,17.006c-54.067,93.632 -168.541,291.874 -222.613,385.513c-6.077,10.524 -6.077,23.491 -0.001,34.016c6.076,10.525 17.307,17.008 29.46,17.008l445.226,0c12.153,0 23.383,-6.483 29.46,-17.008c6.076,-10.525 6.076,-23.492 -0.001,-34.016c-54.072,-93.639 -168.546,-291.881 -222.613,-385.513Z" style="fill:#e31837;"/><path d="M256.63,56.698l-202.968,351.492l405.935,-0l-202.967,-351.492Z" style="fill:#fff;"/><path id="MN00-Horse-Tram" serif:id="MN00 Horse Tram" d="M87.083,380.545l169.102,0l-0,4.695l4.018,-0c0.025,0.68 0.137,1.344 0.328,1.979c0.191,0.636 0.462,1.243 0.804,1.807c0.341,0.565 0.754,1.087 1.229,1.554c0.475,0.467 1.014,0.876 1.606,1.217c0.616,0.352 1.268,0.617 1.937,0.793c0.67,0.172 1.357,0.265 2.045,0.265c0.687,0 1.374,-0.088 2.044,-0.265c0.669,-0.175 1.321,-0.441 1.937,-0.793c0.543,-0.312 1.04,-0.682 1.486,-1.101c0.446,-0.42 0.84,-0.887 1.176,-1.394c0.335,-0.506 0.612,-1.051 0.823,-1.624c0.212,-0.572 0.358,-1.173 0.432,-1.791c0.074,0.618 0.22,1.22 0.432,1.792c0.211,0.572 0.489,1.117 0.824,1.623c0.336,0.506 0.731,0.975 1.177,1.394c0.446,0.418 0.944,0.789 1.487,1.101c0.615,0.352 1.267,0.617 1.937,0.793c0.669,0.172 1.356,0.265 2.044,0.265c0.687,0 1.374,-0.088 2.044,-0.265c0.669,-0.175 1.321,-0.441 1.937,-0.793c0.593,-0.34 1.132,-0.749 1.608,-1.216c0.476,-0.466 0.889,-0.989 1.231,-1.553c0.343,-0.565 0.614,-1.171 0.806,-1.808c0.191,-0.635 0.304,-1.3 0.329,-1.98l5.13,-0l0,-4.695l17.786,0l-0,-25.271l-4.729,0l0,20.577l-13.219,0l0,-49.14l0.238,-0l0,-1.549c0,-2.492 0.506,-4.862 1.422,-7.017c0.916,-2.155 2.241,-4.093 3.88,-5.721c1.638,-1.627 3.59,-2.943 5.76,-3.852c2.169,-0.91 4.556,-1.412 7.063,-1.412l1.557,-0l0,-8.372l-58.107,-0l0,-11.003l-118.039,-0l-22.71,39.327c1.207,0.296 2.464,0.453 3.75,0.453c1.4,-0 2.765,-0.185 4.069,-0.534c1.304,-0.349 2.547,-0.863 3.702,-1.519c1.155,-0.656 2.222,-1.456 3.175,-2.379c0.952,-0.922 1.79,-1.967 2.487,-3.114l0,31.486l-8.089,0l-0,24.347l-10.645,-0l0,-24.347l-8.089,0l-0,-7.698l-12.816,22.194l-0,9.85l-5.688,0l-2.711,4.694Zm239.987,-23.42l0,0.103l-0.013,0.052l0,0.064l-0.012,0.051l-0,0.103l-0.013,0.065l-0,0.154l-0.013,0.052l-0,0.167l-0.013,0.052l0,0.219l-0.013,0.051l0,0.386l-0.013,0.052l0,0.438l0.013,0.051l0,0.438l0.013,0.051l0,0.219l0.013,0.052l-0,0.167l0.013,0.052l-0,0.103l0.013,0.064l-0,0.103l0.012,0.052l0,0.115l0.013,0.052l0,0.051l0.013,0.052l0,0.116l0.013,0.051l0,0.052l0.013,0.051l0,0.052l0.013,0.064l-0,0.052l0.013,0.051l-0,0.052l0.026,0.103l-0,0.064l0.012,0.052l0,0.051l0.013,0.052l0.013,0.051l0,0.065l0.026,0.103l-0,0.051l0.026,0.103l-0,0.064l0.038,0.155l0,0.051l0.013,0.052l0.013,0.051l0.013,0.065l0.013,0.051l-0,0.052l0.013,0.051l0.012,0.052l0.026,0.103l0.013,0.064l0.013,0.052l0.013,0.051l0.051,0.206l0,0.052l0.013,0.051l0.026,0.065l0.103,0.412l0.013,0.051l0.026,0.103l0.025,0.052l0.013,0.064l0.039,0.155l0.026,0.051l0.038,0.155l0.026,0.051l0.026,0.103l0.012,0.052l0.026,0.051l0.026,0.103l0.026,0.052l0.013,0.051l0.013,0.052l0.025,0.051l0.013,0.052l0.026,0.051l0.013,0.052l0.026,0.051l0.025,0.103l0.026,0.052l0.013,0.051l0.026,0.052l0.012,0.051l0.026,0.052l0.013,0.051l0.026,0.039l0.026,0.051l0.013,0.052l0.025,0.051l0.013,0.052l0.052,0.103l0.012,0.051l0.026,0.052l0.013,0.051l0.026,0.052l0.026,0.038l0.012,0.052l0.078,0.154l0.013,0.052l0.026,0.051l0.025,0.039l0.026,0.052l0.013,0.051l0.025,0.052l0.026,0.051l0.026,0.052l0.026,0.038l0.013,0.052l0.077,0.154l0.026,0.039l0.026,0.051l0.051,0.103l0.013,0.052l0.025,0.039l0.026,0.051l0.026,0.052l0.026,0.051l0.025,0.039l0.052,0.103l0.026,0.038l0.077,0.155l0.026,0.038l0.038,0.052l0.026,0.051l0.026,0.039l0.051,0.103l0.026,0.039l0.052,0.103l0.038,0.038l0.052,0.103l0.025,0.039l0.026,0.051l0.026,0.039l0.039,0.052l0.025,0.051l0.026,0.039l0.026,0.051l0.038,0.039l0.026,0.051l0.026,0.039l0.039,0.052l0.025,0.051l0.026,0.039l0.039,0.051l0.025,0.039l0.026,0.051l0.039,0.039l0.026,0.051l0.025,0.039l0.039,0.052l0.026,0.038l0.038,0.052l0.026,0.038l0.026,0.052l0.038,0.038l0.026,0.039l0.039,0.052l0.026,0.038l0.038,0.052l0.026,0.038l0.039,0.052l0.025,0.038l0.039,0.039l0.026,0.052l0.038,0.038l0.039,0.052l0.026,0.038l0.038,0.039l0.026,0.051l0.039,0.039l0.025,0.039l0.039,0.051l0.039,0.039l0.025,0.038l0.039,0.052l0.039,0.039l0.025,0.038l0.039,0.039l0.039,0.051l0.025,0.039l0.078,0.077l0.038,0.052l0.026,0.038l0.077,0.078l0.039,0.051l0.026,0.039l0.116,0.116l0.012,0.025l0.052,0.052l0.013,0.026l0.038,0.038l0,0.013l0.013,0.026l0.039,0.039l0.013,0.025l0.026,0.026l-0,0.026l0.025,0.026l0.013,0.025l0.013,0.013l0,0.013l0.013,0.026l0.026,0.026l-0,0.025l0.025,0.026l0,0.026l0.026,0.026l0.013,0.025l0,0.013l0.013,0.026l-0,0.013l0.013,0.013l0.013,0.025l-0,0.013l0.013,0.026l-0,0.013l0.012,0.026l0.013,0.013l0,0.012l0.013,0.026l0,0.013l0.013,0.026l0,0.013l0.013,0.025l-0,0.013l0.013,0.026l-0,0.039l0.013,0.013l-0,0.025l0.013,0.013l-0,0.039l0.012,0.026l0,0.038l0.013,0.013l0,0.039l0.013,0.025l0,0.052l0.013,0.026l0,0.051l0.013,0.026l-0,0.129l0.013,0.026l-0,0.257l-0.013,0.026l-0,0.129l-0.013,0.025l0,0.052l-0.013,0.026l0,0.051l-0.013,0.026l0,0.038l-0.013,0.013l0,0.039l-0.012,0.026l-0,0.038l-0.013,0.013l-0,0.026l-0.013,0.013l-0,0.038l-0.013,0.026l-0,0.013l-0.013,0.026l0,0.013l-0.013,0.025l0,0.013l-0.013,0.026l0,0.013l-0.013,0.013l-0.012,0.026l-0,0.012l-0.026,0.078l-0.013,0.025l-0.026,0.078l-0.013,0.025l-0.025,0.039l-0.013,0.039l-0,0.025l-0.039,0.116l-0.013,0.026l-0.038,0.116l-0.013,0.026l-0.039,0.116l0,0.025l-0.039,0.116l-0.012,0.026l-0,0.039l-0.026,0.077l-0.013,0.026l-0,0.038l-0.039,0.116l0,0.026l-0.025,0.077l-0,0.039l-0.013,0.038l-0,0.026l-0.026,0.077l-0,0.039l-0.013,0.039l0,0.038l-0.013,0.026l0,0.039l-0.026,0.077l0,0.039l-0.012,0.038l-0,0.065l-0.013,0.038l-0,0.039l-0.013,0.038l-0,0.039l-0.013,0.026l-0,0.077l-0.013,0.039l0,0.077l-0.013,0.039l0,0.064l-0.013,0.039l0,0.115l-0.013,0.039l0,0.142l-0.012,0.038l-0,0.335l-0.013,0.039l-0,0.219l0.013,0.038l-0,0.296l0.012,0.039l0,0.142l0.013,0.038l0,0.116l0.013,0.039l0,0.103l0.013,0.038l0,0.078l0.013,0.038l-0,0.039l0.013,0.026l-0,0.077l0.013,0.039l-0,0.038l0.013,0.039l-0,0.038l0.012,0.026l0,0.039l0.013,0.039l0,0.038l0.013,0.039l0,0.038l0.013,0.026l0,0.039l0.026,0.077l-0,0.039l0.013,0.025l-0,0.039l0.025,0.077l0,0.039l0.013,0.026l0.013,0.038l0,0.039l0.026,0.077l0.013,0.026l-0,0.039l0.038,0.115l0,0.026l0.039,0.116l0.013,0.026l0.013,0.038l-0,0.039l0.013,0.039l0.013,0.025l0.038,0.116l0.013,0.026l0.026,0.077l0.013,0.026l0.025,0.077l0.013,0.026l0.039,0.116l0.013,0.026l0.026,0.077l0.012,0.026l0.013,0.038l0.026,0.039l0.013,0.026l0.013,0.038l0.013,0.026l0.025,0.077l0.026,0.026l0.026,0.077l0.013,0.026l0.013,0.039l0.025,0.026l0.026,0.077l0.026,0.026l0.013,0.038l0.013,0.026l0.013,0.039l0.025,0.025l0.026,0.078l0.026,0.025l0.013,0.039l0.025,0.026l0.013,0.038l0.013,0.026l0.026,0.039l0.013,0.025l0.026,0.039l0.012,0.026l0.026,0.038l0.013,0.026l0.026,0.039l0.013,0.026l0.025,0.038l0.013,0.026l0.026,0.039l0.013,0.025l0.026,0.026l0.013,0.039l0.025,0.025l0.013,0.039l0.052,0.052l0.013,0.038l0.025,0.026l0.013,0.026l0.026,0.038l0.013,0.026l0.026,0.026l0.012,0.026l0.026,0.038l0.026,0.052l0.026,0.038l0.013,0.026l0.025,0.026l0.013,0.026l0.013,0.038l0.026,0.026l0.013,0.026l0.013,0.038l0.025,0.026l0.013,0.026l0.013,0.039l0.026,0.025l0.013,0.026l0.013,0.039l0.012,0.025l0.026,0.039l0.026,0.052l0.013,0.038l0.013,0.026l0.025,0.039l0.026,0.051l0.013,0.039l0.013,0.025l0.013,0.039l0.013,0.026l0.025,0.038l0.013,0.026l0.013,0.039l0.013,0.026l0.013,0.038l0.026,0.052l0.013,0.038l0.012,0.026l0.013,0.039l0.013,0.025l0.013,0.039l0.013,0.026l0.013,0.038l0.013,0.026l0.025,0.077l0.013,0.026l0,0.039l0.013,0.026l0.013,0.038l0.013,0.026l0.013,0.039l0.013,0.025l0.013,0.039l-0,0.026l0.025,0.077l0.013,0.026l0.013,0.038l0,0.026l0.013,0.039l0.013,0.025l-0,0.039l0.013,0.039l0.013,0.025l-0,0.039l0.012,0.026l0.013,0.038l0,0.039l0.013,0.026l0.013,0.039l0,0.025l0.013,0.039l-0,0.039l0.013,0.025l0.013,0.039l-0,0.039l0.013,0.025l-0,0.039l0.012,0.026l0,0.038l0.013,0.039l0,0.026l0.013,0.038l0,0.065l0.013,0.038l0,0.039l0.013,0.026l-0,0.077l0.013,0.026l-0,0.077l0.013,0.026l-0,0.077l0.013,0.026l-0,0.103l0.012,0.038l0,0.168l0.013,0.038l0,7.764l10.197,0l0,-0.077l-0.013,-0.013l0,-0.103l-0.013,-0.025l0,-0.078l-0.012,-0.025l-0,-0.065l-0.013,-0.026l-0,-0.051l-0.013,-0.026l-0,-0.038l-0.013,-0.026l-0,-0.026l-0.013,-0.026l0,-0.025l-0.013,-0.026l0,-0.052l-0.013,-0.013l0,-0.025l-0.013,-0.026l0,-0.026l-0.025,-0.051l-0,-0.013l-0.013,-0.026l-0,-0.026l-0.013,-0.025l-0,-0.026l-0.013,-0.013l-0.013,-0.026l0,-0.026l-0.026,-0.051l0,-0.013l-0.025,-0.051l-0,-0.026l-0.013,-0.026l-0.013,-0.013l-0.013,-0.026l0,-0.025l-0.013,-0.026l-0.013,-0.013l-0.013,-0.026l0,-0.025l-0.012,-0.026l-0.013,-0.013l-0.039,-0.077l0,-0.013l-0.026,-0.052l-0.013,-0.013l-0.025,-0.051l-0.013,-0.013l-0.026,-0.052l-0.013,-0.012l-0.026,-0.052l-0.012,-0.013l-0.013,-0.026l-0.013,-0.012l-0.026,-0.052l-0.013,-0.013l-0.013,-0.026l-0.013,-0.012l-0.025,-0.052l-0.013,-0.013l-0.013,-0.026l-0.026,-0.012l-0.013,-0.026l-0.013,-0.013l-0.012,-0.026l-0.013,-0.013l-0.013,-0.025l-0.026,-0.013l-0.013,-0.026l-0.013,-0.013l-0.013,-0.026l-0.051,-0.051l-0.013,-0.026l-0.051,-0.051l-0.013,-0.026l-0.026,-0.013l-0.013,-0.013l-0.013,-0.026l-0.026,-0.013l-0.012,-0.012l-0.013,-0.026l-0.026,-0.013l-0.013,-0.026l-0.013,-0.013l-0.026,-0.013l-0.012,-0.025l-0.026,-0.013l-0.065,-0.065l-0.025,-0.012l-0.013,-0.026l-0.026,-0.013l-0.013,-0.013l-0.026,-0.013l-0.012,-0.026l-0.026,-0.012l-0.013,-0.013l-0.026,-0.013l-0.013,-0.013l-0.025,-0.013l-0.013,-0.026l-0.026,-0.013l-0.013,-0.012l-0.026,-0.013l-0.013,-0.013l-0.025,-0.013l-0.013,-0.013l-0.026,-0.013l-0.039,-0.038l-0.025,-0.013l-0.013,-0.013l-0.052,-0.026l-0.013,-0.013l-0.051,-0.026l-0.013,-0.012l-0.051,-0.026l-0.013,-0.013l-0.052,-0.026l-0.013,0l-0.051,-0.026l-0.013,-0.012l-0.077,-0.039l-0.013,-0.013l-0.026,0l-0.051,-0.026l-0,-0.077l-0.013,-0.026l-0,-0.064l-0.013,-0.026l-0,-0.051l-0.013,-0.026l-0,-0.052l-0.013,-0.025l0,-0.026l-0.013,-0.026l0,-0.051l-0.013,-0.026l0,-0.026l-0.013,-0.026l0,-0.025l-0.012,-0.026l-0,-0.026l-0.013,-0.039l-0.013,-0.025l-0,-0.026l-0.013,-0.026l-0,-0.026l-0.013,-0.025l0,-0.026l-0.026,-0.052l0,-0.025l-0.025,-0.052l-0,-0.026l-0.026,-0.051l-0,-0.026l-0.013,-0.026l-0.013,-0.012l-0.013,-0.026l0,-0.026l-0.051,-0.103l-0,-0.026l-0.065,-0.128l0,-0.026l-0.013,-0.026l-0.012,-0.013l-0.078,-0.154l-0.013,-0.013l-0.064,-0.129l-0.013,-0.013l-0.038,-0.077l-0.039,-0.039l-0.052,-0.103l-0.038,-0.038l-0.026,-0.052l-0.013,-0.013l-0.013,-0.026l-0.038,-0.038l-0.026,-0.052l-0.026,-0.013l-0.026,-0.051l-0.038,-0.039l-0.013,-0.025l-0.039,-0.039l-0.013,-0.026l-0.077,-0.077l-0.013,-0.026l-0.167,-0.167l-0.013,-0.026l-0.026,-0.013l-0.116,-0.116l-0.025,-0.013l-0.013,-0.025l-0.026,-0.013l-0.013,-0.026l-0.051,-0.026l-0.013,-0.025l-0.052,-0.026l-0.013,-0.026l-0.025,-0.013l-0.039,-0.038l-0.026,-0.013l-0.038,-0.039l-0.052,-0.026l-0.038,-0.038l-0.026,-0.013l-0.013,-0.013l-0.052,-0.026l-0.038,-0.038l-0.077,-0.039l-0.039,-0.039l-0.077,-0.038l-0.013,-0.013l-0.155,-0.077l-0.013,-0.013l-0.206,-0.103l-0.012,-0.013l-0.026,-0.013l-0.026,-0l-0.129,-0.064l-0.025,-0l-0.052,-0.026l-0.013,-0.013l-0.013,-0l-0.013,-0.013l-0.012,0l-0,-0.013l-0.013,0l-0.013,-0.013l-0.013,0l-0.026,-0.025l-0.013,-0l-0.013,-0.013l0,-0.013l-0.012,-0l-0.026,-0.026l-0.013,0l-0.013,-0.013l0,-0.013l-0.013,0l-0.026,-0.025l0,-0.013l-0.012,-0l-0.026,-0.026l-0,-0.013l-0.013,0l-0.026,-0.026l0,-0.013l-0.013,-0.012l-0.013,-0l0,-0.013l-0.025,-0.026l-0,-0.013l-0.039,-0.039l0,-0.013l-0.013,-0.012l0,-0.013l-0.013,-0.013l0,-0.013l-0.013,-0.013l0,-0.013l-0.012,0l-0,-0.013l-0.013,-0.013l-0,-0.012l-0.013,-0.013l-0,-0.013l-0.013,-0.013l-0,-0.013l-0.013,-0.013l0,-0.026l-0.013,-0.012l0,-0.026l-0.013,-0.013l0,-0.026l-0.013,-0.013l0,-0.025l-0.012,-0.013l-0,-0.039l-0.013,-0.013l-0,-0.051l-0.013,-0.013l-0,-0.335l0.013,-0.013l-0,-0.051l0.013,-0.013l-0,-0.039l0.012,-0.013l0,-0.038l0.013,-0.013l0,-0.026l0.837,-6.039l0.013,-0.038l0,-0.039l0.013,-0.039l-0,-0.038l0.013,-0.039l-0,-0.038l0.013,-0.039l-0,-0.039l0.013,-0.038l-0,-0.039l0.012,-0.039l0.013,-0.051l0,-0.039l0.026,-0.077l0,-0.039l0.026,-0.077l-0,-0.039l0.026,-0.077l-0,-0.038l0.051,-0.155l0,-0.039l0.052,-0.154l-0,-0.039l0.09,-0.27l0.013,-0.026l0.103,-0.309l-0,-0.026l0.012,-0.038l0,-0.026l0.013,-0.026l0,-0.038l0.013,-0.026l0,-0.064l0.013,-0.026l0,-0.039l0.013,-0.026l-0,-0.064l0.013,-0.026l-0,-0.064l0.013,-0.026l-0,-0.09l0.013,-0.039l-0,-0.116l0.012,-0.038l0,-0.155l0.013,-0.025l0,-0.49l-0.013,-0.038l0,-0.181l-0.012,-0.038l-0,-0.09l-0.013,-0.026l-0,-0.09l-0.013,-0.039l-0,-0.051l-0.013,-0.039l-0,-0.064l-0.013,-0.026l0,-0.026l-0.013,-0.038l0,-0.052l-0.013,-0.039l0,-0.025l-0.013,-0.052l0,-0.103l-0.012,-0.051l-0,-0.155l-0.013,-0.039l-0,-0.154l-0.013,-0.052l-0,-0.257l-0.013,-0.052l-0,-1.004l0.013,-0.051l-0,-0.258l0.013,-0.051l-0,-0.142l0.013,-0.052l-0,-0.154l0.012,-0.052l0,-0.103l0.013,-0.051l0,-0.052l0.013,-0.038l0,-0.103l0.013,-0.052l0,-0.051l0.013,-0.052l-0,-0.103l0.013,-0.051l-0,-0.052l0.013,-0.038l-0,-0.052l0.025,-0.103l0,-0.051l0.013,-0.052l0,-0.051l0.013,-0.052l0,-0.051l0.013,-0.013l0,-0.052l0.013,-0.013l-0,-0.025l0.013,-0.026l-0,-0.026l0.013,-0.013l-0,-0.038l0.013,-0.013l-0,-0.013l0.012,-0.026l0,-0.013l0.013,-0.013l0,-0.025l0.013,-0.026l0,-0.013l0.013,-0.013l0,-0.013l0.013,-0.013l-0,-0.025l0.026,-0.026l-0,-0.013l0.013,-0.013l-0,-0.013l0.012,-0.026l0.013,-0.012l0,-0.013l0.013,-0.013l0,-0.013l0.039,-0.039l-0,-0.013l0.013,-0.025l0.013,-0.013l-0,-0.013l0.038,-0.039l0,-0.013l0.052,-0.051l-0,-0.013l0.064,-0.064l0,-0.013l0.077,-0.077l0.013,-0l0.077,-0.078l0.013,0l0.052,-0.051l0.013,-0l0.038,-0.039l0.013,0l0.039,-0.038l0.013,-0l0.025,-0.013l0.013,-0.013l0.013,-0l0.026,-0.026l0.013,0l0.026,-0.026l0.025,0l0.013,-0.013l0.013,0l0.013,-0.012l0.013,-0l0.013,-0.013l0.025,-0.013l0.013,-0l0.013,-0.013l0.013,-0l0.013,-0.013l0.026,0l0.013,-0.013l0.025,0l0.026,-0.013l0.013,0l0.013,-0.013l0.013,0l0.025,-0.012l0.026,-0l0.013,-0.013l0.039,-0l0.013,-0.013l0.051,-0l0.013,-0.013l0.013,-0l0.038,-0.013l0.039,0l0.039,-0.013l0.025,-0.013l0.039,-0.013l0.039,0l0.038,-0.012l0.026,-0.013l0.077,-0.026l0.039,-0l0.026,-0.013l0.077,-0.026l0.026,-0.013l0.077,-0.025l0.026,-0l0.077,-0.026l0.026,-0.013l0.077,-0.026l0.026,-0.013l0.077,-0.025l0.026,-0.013l0.077,-0.026l0.026,-0.013l0.077,-0.026l0.026,-0.025l0.038,-0.013l0.026,-0.013l0.077,-0.026l0.026,-0.013l0.039,-0.013l0.025,-0.012l0.039,-0.026l0.039,-0.013l0.025,-0.013l0.039,-0.013l0.026,-0.013l0.038,-0.026l0.026,-0.012l0.039,-0.013l0.026,-0.013l0.038,-0.026l0.039,-0.013l0.026,-0.013l0.038,-0.025l0.026,-0.013l0.039,-0.013l0.025,-0.026l0.039,-0.013l0.026,-0.013l0.038,-0.025l0.026,-0.013l0.026,-0.026l0.038,-0.013l0.026,-0.013l0.039,-0.026l0.026,-0.012l0.038,-0.026l0.026,-0.013l0.039,-0.026l0.025,-0.013l0.026,-0.025l0.039,-0.013l0.025,-0.026l0.039,-0.013l0.026,-0.026l0.026,-0.013l0.038,-0.025l0.026,-0.013l0.026,-0.026l0.038,-0.013l0.052,-0.051l0.038,-0.013l0.052,-0.052l0.039,-0.013l0.051,-0.051l0.026,-0.013l0.038,-0.026l0.026,-0.025l0.026,-0.013l0.026,-0.026l0.038,-0.026l0.026,-0.026l0.026,-0.012l0.026,-0.026l0.038,-0.026l0.026,-0.026l0.026,-0.013l0.051,-0.051l0.039,-0.026l0.026,-0.026l0.025,-0.012l0.129,-0.129l0.039,-0.026l0.025,-0.026l0.026,-0.013l0.489,-0.489l0.026,-0.038l0.026,-0.026l0.013,-0.026l0.154,-0.155l0.013,-0.038l0.103,-0.103l0.013,-0.039l0.077,-0.077l0.013,-0.026l0.026,-0.038l0.026,-0.026l0.013,-0.026l0.025,-0.026l0.026,-0.038l0.013,-0.013l-0,-0.013l0.013,-0l-0,-0.013l0.013,-0.013l-0,-0.013l0.013,0l-0,-0.013l0.012,0l0.013,-0.012l0,-0.013l0.013,-0l0,-0.013l0.013,-0l0,-0.013l0.013,-0l0.039,-0.039l0.012,0l0,-0.013l0.013,0l0.013,-0.012l0.013,-0l0.013,-0.013l0.013,-0l0.026,-0.026l0.025,-0l0,-0.013l0.026,0l0.013,-0.013l0.026,0l0.013,-0.013l0.051,0l0.013,-0.013l0.206,0l0.013,0.013l0.051,0l0.013,0.013l0.026,0l0.013,0.013l0.026,0l0.012,0.013l0.013,-0l0.013,0.013l0.013,-0l0.026,0.026l0.013,-0l0.013,0.012l0.012,0l0,0.013l0.013,0l0.026,0.026l0.013,0l-0,0.013l0.013,-0l-0,0.013l0.013,-0l-0,0.013l0.013,-0l0.038,0.038l0.013,0.026l0.026,0.026l0.013,0.026l0.051,0.051l0.013,0.026l0.142,0.141l0.025,0.013l0.013,0.026l0.039,0.039l0.026,0.013l0.038,0.038l0.026,0.013l0.039,0.039l0.025,0.013l0.078,0.077l0.038,0.026l0.078,0.077l0.038,0.026l0.052,0.038l0.038,0.039l0.039,0.026l0.039,0.038l0.038,0.026l0.052,0.039l0.038,0.038l0.039,0.026l0.039,0.039l0.038,0.025l0.052,0.039l0.038,0.026l0.039,0.038l0.038,0.026l0.052,0.039l0.039,0.026l0.038,0.038l0.052,0.026l0.038,0.039l0.039,0.025l0.051,0.039l0.039,0.026l0.039,0.038l0.051,0.026l0.039,0.026l0.038,0.038l0.052,0.026l0.039,0.039l0.038,0.026l0.052,0.025l0.038,0.039l0.052,0.026l0.038,0.025l0.039,0.039l0.052,0.026l0.038,0.026l0.052,0.025l0.038,0.039l0.052,0.026l0.038,0.025l0.052,0.039l0.039,0.026l0.051,0.026l0.039,0.025l0.051,0.026l0.039,0.039l0.051,0.025l0.039,0.026l0.051,0.026l0.039,0.026l0.052,0.025l0.038,0.026l0.052,0.039l0.038,0.026l0.052,0.025l0.038,0.026l0.103,0.052l0.039,0.025l0.052,0.026l0.038,0.026l0.103,0.051l0.039,0.026l0.051,0.026l0.039,0.026l0.103,0.051l0.039,0.026l0.103,0.051l0.038,0.026l0.052,0.026l0.051,0.013l0.039,0.026l0.103,0.051l0.038,0.026l0.052,0.026l0.051,0.012l0.052,0.026l0.039,0.026l0.103,0.051l0.051,0.013l0.039,0.026l0.103,0.052l0.051,0.012l0.039,0.026l0.051,0.026l0.052,0.013l0.051,0.026l0.039,0.025l0.051,0.013l0.103,0.052l0.052,0.013l0.039,0.025l0.051,0.013l0.052,0.026l0.051,0.013l0.103,0.051l0.039,0.013l0.051,0.026l0.052,0.013l0.051,0.026l0.052,0.012l0.051,0.026l0.052,0.013l0.038,0.013l0.052,0.026l0.051,0.013l0.052,0.025l0.103,0.026l0.051,0.026l0.052,0.013l0.051,0.025l0.052,0.013l0.038,0.013l0.052,0.026l0.154,0.039l0.052,0.025l0.154,0.039l0.052,0.026l0.206,0.051l0.051,0.026l0.515,0.129l0.052,0.025l0.154,0.039l0.052,0l0.515,0.129l0.051,-0l0.206,0.051l0.052,0l0.064,0.013l0.103,0.026l0.052,0l0.154,0.039l0.052,-0l0.103,0.025l0.051,0l0.052,0.013l0.051,0l0.065,0.013l0.051,0.013l0.052,0l0.051,0.013l0.052,-0l0.051,0.013l0.052,-0l0.051,0.013l0.052,-0l0.064,0.013l0.052,-0l0.051,0.012l0.052,0l0.051,0.013l0.052,0l0.051,0.013l0.103,0l0.064,0.013l0.052,0l0.051,0.013l0.103,-0l0.052,0.013l0.167,-0l0.052,0.013l0.154,-0l0.052,0.013l0.219,-0l0.051,0.012l1.275,0l0.051,-0.012l0.219,-0l0.052,-0.013l0.167,-0l0.051,-0.013l0.155,-0l0.051,-0.013l0.103,-0l0.065,-0.013l0.051,0l0.052,-0.013l0.103,0l0.051,-0.013l0.052,0l0.051,-0.013l0.065,0l0.051,-0.012l0.052,-0l0.051,-0.013l0.052,-0l0.051,-0.013l0.052,-0l0.051,-0.013l0.052,-0l0.064,-0.013l0.052,0l0.103,-0.026l0.051,0l0.103,-0.025l0.052,-0l0.103,-0.026l0.051,-0l0.052,-0.013l0.064,-0.013l0.051,0l0.155,-0.039l0.051,0l0.258,-0.064l0.051,-0l0.309,-0.077l0.065,-0.013l0.824,-0.206l0.051,-0.026l0.052,-0.013l0.038,-0.013l0.103,-0.025l0.052,-0.026l0.154,-0.039l0.052,-0.026l0.154,-0.038l0.052,-0.026l0.103,-0.026l0.051,-0.025l0.052,-0.013l0.039,-0.013l0.051,-0.026l0.052,-0.013l0.051,-0.026l0.103,-0.025l0.052,-0.026l0.051,-0.013l0.052,-0.026l0.038,-0.013l0.052,-0.025l0.051,-0.013l0.052,-0.026l0.051,-0.013l0.052,-0.026l0.038,-0.012l0.052,-0.026l0.051,-0.013l0.039,-0.026l0.039,-0.013l0.025,-0.013l0.116,-0.038l0.026,-0.026l0.077,-0.026l0.026,-0.013l0.039,-0.025l0.038,-0.013l0.026,-0.013l0.039,-0.013l0.038,-0.026l0.026,-0.013l0.039,-0.012l0.038,-0.026l0.026,-0.013l0.039,-0.013l0.038,-0.026l0.026,-0.013l0.039,-0.012l0.038,-0.026l0.026,-0.013l0.039,-0.026l0.025,-0.013l0.039,-0.013l0.039,-0.025l0.025,-0.013l0.039,-0.026l0.026,-0.013l0.038,-0.026l0.026,-0.012l0.039,-0.026l0.025,-0.013l0.039,-0.026l0.039,-0.013l0.025,-0.025l0.039,-0.026l0.026,-0.013l0.038,-0.026l0.026,-0.013l0.039,-0.025l0.026,-0.026l0.038,-0.013l0.026,-0.026l0.039,-0.013l0.051,-0.051l0.039,-0.013l0.025,-0.026l0.039,-0.026l0.026,-0.025l0.038,-0.013l0.052,-0.052l0.039,-0.026l0.025,-0.012l0.039,-0.026l0.051,-0.052l0.039,-0.013l0.052,-0.051l0.038,-0.026l0.026,-0.013l0.026,-0.025l0.077,-0.039l0.039,-0.026l0.077,-0.038l0.025,-0.026l0.039,-0.013l0.052,-0.026l0.025,-0.026l0.026,-0.012l0.039,-0.013l0.077,-0.039l0.039,-0.013l0.025,-0.026l0.052,-0.025l0.038,-0.013l0.052,-0.026l0.039,-0.013l0.051,-0.026l0.039,-0.012l0.077,-0.039l0.039,-0.013l0.025,-0.013l0.039,-0.013l0.051,-0.025l0.039,-0.013l0.052,-0.026l0.038,-0.013l0.026,0l0.026,-0.013l0.038,-0.013l0.026,-0.013l0.039,-0.012l0.025,-0.013l0.026,-0l0.039,-0.013l0.026,-0.013l0.038,-0.013l0.026,0l0.026,-0.013l0.013,-0.013l0.025,0l0.026,-0.013l0.026,0l0.013,-0.012l0.051,-0l0.026,-0.013l0.013,-0l0.026,-0.013l0.025,-0l0.026,-0.013l0.039,-0l0.025,-0.013l0.052,0l0.013,-0.013l0.051,0l0.026,-0.013l0.064,0l0.026,-0.013l0.065,0l0.025,-0.012l0.142,-0l0.026,-0.013l0.399,-0l0.013,0.013l0.077,-0l0.013,0.012l0.051,0l0.013,0.013l0.039,0l0.013,0.013l0.038,0l0.013,0.013l0.026,0l0.013,0.013l0.038,-0l0.013,0.013l0.013,-0l0.013,0.013l0.013,-0l0.013,0.013l0.038,-0l0.013,0.012l0.013,0l0.013,0.013l0.013,0l0.026,0.026l0.013,0l0.012,0.013l0.013,-0l0.013,0.013l0.013,-0l0.013,0.013l0.026,0.013l0.013,-0l0.025,0.025l0.013,0l0.026,0.026l0.013,0l0.026,0.026l0.012,-0l0,0.013l0.026,0.025l0.013,0l0.039,0.039l0.013,0l0.038,0.039l0,0.013l0.013,0.012l0.013,0l0.039,0.039l-0,0.013l0.09,0.09l-0,0.013l0.038,0.039l0,0.012l0.026,0.026l0,0.013l0.013,0.013l-0,0.013l0.026,0.026l-0,0.012l0.013,0.013l-0,0.013l0.025,0.026l0,0.026l0.013,0.013l0,0.012l0.013,0.013l0,0.013l0.013,0.013l-0,0.013l0.013,0.013l-0,0.026l0.013,0.025l-0,0.013l0.013,0.013l-0,0.013l0.012,0.013l0,0.026l0.013,0.012l0,0.039l0.013,0.013l0,0.039l0.013,0.025l0,0.039l0.013,0.013l-0,0.077l0.013,0.013l-0,0.863l-0.013,0.051l-0,0.361l-0.013,0.051l0,0.18l-0.013,0.065l0,0.167l-0.013,0.065l0,0.116l-0.013,0.064l0,0.116l-0.012,0.051l-0,0.065l-0.013,0.064l-0,0.116l-0.013,0.051l-0,0.065l-0.013,0.051l-0,0.065l-0.013,0.051l0,0.065l-0.013,0.051l0,0.064l-0.013,0.065l0,0.051l-0.013,0.065l0,0.051l-0.012,0.065l-0.013,0.051l-0,0.064l-0.013,0.052l-0.013,0.064l-0,0.052l-0.013,0.064l-0.013,0.052l0,0.064l-0.013,0.064l-0.013,0.052l0,0.064l-0.012,0.052l-0.013,0.064l-0.013,0.052l-0,0.064l-0.013,0.052l-0.013,0.064l-0.013,0.052l-0.013,0.064l0,0.051l-0.013,0.065l-0.012,0.051l-0.013,0.065l-0.013,0.051l-0.013,0.065l-0.013,0.051l-0.013,0.064l-0.013,0.052l-0.013,0.064l-0.012,0.052l-0.013,0.064l-0,0.052l-0.013,0.051l-0.026,0.065l-0.013,0.051l-0.013,0.064l-0.013,0.052l-0.012,0.064l-0.013,0.052l-0.013,0.064l-0.013,0.052l-0.013,0.064l0,0.039l-0.013,0.013l0,0.051l-0.013,0.013l0,0.039l-0.013,0.013l0,0.025l-0.012,0.013l-0,0.026l-0.013,0.013l-0,0.026l-0.013,0.012l-0,0.013l-0.013,0.013l-0,0.026l-0.013,0.013l0,0.013l-0.013,0.013l0,0.012l-0.013,0.013l0,0.013l-0.013,0.013l0,0.013l-0.012,0.013l-0,0.013l-0.013,0.013l-0,0.012l-0.026,0.026l-0,0.013l-0.013,0l0,0.013l-0.026,0.026l0,0.013l-0.025,0.025l-0,0.013l-0.013,0l-0.013,0.013l-0,0.013l-0.026,0.026l-0.013,-0l0,0.013l-0.038,0.038l-0.013,0.026l-0.026,0.026l-0.013,0.025l-0.026,0.026l-0.013,0.026l-0.025,0.026l-0.013,0.025l-0.026,0.026l-0.013,0.026l0,0.013l-0.013,0.026l-0.025,0.025l-0.013,0.026l-0.013,0.013l-0.013,0.026l-0,0.013l-0.013,0.025l-0.013,0.013l-0.013,0.026l0,0.013l-0.013,0.013l-0.012,0.025l-0.013,0.013l-0,0.026l-0.013,0.013l-0.013,0.026l-0,0.013l-0.013,0.025l-0.013,0.013l0,0.026l-0.013,0.013l-0.013,0.026l0,0.025l-0.012,0.013l-0,0.026l-0.013,0.013l-0,0.026l-0.013,0.012l-0.013,0.026l-0,0.013l-0.013,0.026l0,0.026l-0.013,0.012l0,0.039l-0.013,0.026l0,0.013l-0.013,0.025l0,0.026l-0.012,0.013l-0,0.039l-0.013,0.025l-0,0.039l-0.013,0.026l-0,0.039l-0.013,0.025l-0,0.065l-0.013,0.013l0,0.09l-0.013,0.013l0,0.128l-0.013,0.026l0,0.296l0.013,0.013l0,0.129l0.013,0.026l0,0.064l0.013,0.013l-0,0.064l0.013,0.026l-0,0.039l0.013,0.025l-0,0.039l0.013,0.026l-0,0.038l0.012,0.013l0,0.026l0.013,0.026l0,0.038l0.013,0.013l0,0.026l0.013,0.013l0,0.026l0.013,0.025l-0,0.013l0.013,0.026l-0,0.013l0.038,0.116l0,0.038l0.039,0.116l0,0.026l0.026,0.077l-0,0.039l0.026,0.077l-0,0.039l0.012,0.038l0,0.039l0.026,0.077l0,0.039l0.013,0.039l0,0.038l0.013,0.039l-0,0.026l0.013,0.038l-0,0.039l0.013,0.038l-0,0.039l0.013,0.039l-0,0.038l0.012,0.039l0,0.077l0.013,0.039l0,0.077l0.013,0.039l0,0.077l0.013,0.039l0,0.077l0.013,0.038l-0,0.116l0.013,0.039l-0,0.154l0.013,0.039l-0,7.172l-0.013,0.026l-0,0.103l-0.013,0.025l-0,0.065l-0.013,0.026l0,0.064l-0.013,0.026l0,0.038l-0.013,0.026l0,0.039l-0.013,0.025l0,0.039l-0.012,0.026l-0,0.026l-0.013,0.012l-0,0.026l-0.013,0.026l-0,0.013l-0.013,0.026l-0,0.025l-0.013,0.013l0,0.026l-0.013,0.013l0,0.026l-0.013,0.025l0,0.013l-0.013,0.026l0,0.026l-0.012,0.013l-0.013,0.025l-0,0.013l-0.026,0.052l-0,0.013l-0.013,0.025l-0.013,0.013l0,0.013l-0.013,0.013l0,0.026l-0.025,0.026l-0,0.012l-0.013,0.026l-0,0.013l-0.013,0.013l-0,0.026l-0.013,0.013l-0,0.012l-0.013,0.026l0,0.013l-0.013,0.013l0,0.026l-0.013,0.013l0,0.012l-0.013,0.026l0,0.026l-0.012,0.026l-0,0.013l-0.013,0.012l-0,0.039l-0.013,0.013l-0,0.051l-0.013,0.026l-0,0.039l-0.013,0.013l0,0.077l-0.013,0.013l0,0.129l-0.013,0.012l0,0.219l0.013,0.013l0,4.12l10.918,0l0,-0.064l-0.013,-0.026l0,-0.077l-0.013,-0.013l0,-0.026l-0.013,-0.025l0,-0.052l-0.012,-0.026l-0,-0.038l-0.013,-0.026l-0,-0.026l-0.013,-0.025l-0,-0.013l-0.013,-0.026l-0,-0.026l-0.013,-0.026l0,-0.012l-0.013,-0.026l0,-0.026l-0.013,-0.026l0,-0.025l-0.013,-0.013l0,-0.026l-0.025,-0.052l-0,-0.012l-0.026,-0.052l-0,-0.026l-0.013,-0.013l-0.013,-0.025l0,-0.026l-0.013,-0.013l-0.013,-0.026l0,-0.025l-0.012,-0.026l-0.013,-0.013l-0.013,-0.026l-0,-0.026l-0.013,-0.012l-0.026,-0.052l-0.013,-0.013l0,-0.026l-0.013,-0.025l-0.012,-0.013l-0.026,-0.052l-0.013,-0.013l-0.013,-0.025l-0.013,-0.013l0,-0.026l-0.013,-0.026l-0.013,-0.013l-0.025,-0.051l-0.013,-0.013l-0.013,-0.026l-0.013,-0.013l-0.013,-0.025l-0.013,-0.013l-0.013,-0.026l-0.012,-0.013l-0.026,-0.051l-0.013,-0.013l-0.013,-0.026l-0.026,-0.013l-0.013,-0.026l-0.012,-0.013l-0.013,-0.025l-0.026,-0.026l-0.013,-0.026l-0.051,-0.051l-0.013,-0.026l-0.013,-0.013l-0.013,-0.026l-0.026,-0.013l-0.013,-0.012l-0.013,-0.026l-0.064,-0.065l-0.013,-0.025l-0.026,-0.013l-0.012,-0.013l-0.013,-0.026l-0.026,-0.013l-0.013,-0.013l-0.013,-0.025l-0.026,-0.013l-0.077,-0.077l-0.026,-0.013l-0.012,-0.026l-0.026,-0.013l-0.013,-0.013l-0.026,-0.013l-0.013,-0.013l-0.013,-0.025l-0.025,-0.013l-0.013,-0.013l-0.026,-0.013l-0.013,-0.013l-0.026,-0.013l-0.051,-0.051l-0.026,-0.013l-0.013,-0.013l-0.025,-0.013l-0.013,-0.013l-0.026,-0.013l-0.013,-0.012l-0.051,-0.026l-0.013,-0.013l-0.026,-0.013l-0.013,-0.013l-0.026,-0.013l-0.013,-0.013l-0.051,-0.025l-0.013,-0.013l-0.051,-0.026l-0.013,-0.013l-0.026,0l-0.013,-0.013l-0.051,-0.025l-0.013,-0.013l-0.052,-0.026l-0.013,-0l-0.077,-0.039l-0.013,0l-0.051,-0.025l-0.013,-0.013l-0.026,-0l-0.051,-0.026l-0.013,-0l-0.026,-0.013l-0.013,-0.039l0,-0.051l-0.013,-0.039l0,-0.025l-0.013,-0.039l0,-0.026l-0.013,-0.026l0,-0.038l-0.012,-0.026l-0,-0.039l-0.013,-0.025l-0,-0.026l-0.013,-0.039l-0.013,-0.025l-0,-0.026l-0.013,-0.039l0,-0.026l-0.013,-0.025l-0.012,-0.039l-0,-0.026l-0.014,-0.038l-0.012,-0.026l-0,-0.026l-0.013,-0.039l-0.026,-0.051l-0,-0.039l-0.039,-0.077l0,-0.039l-0.025,-0.051l-0.013,-0.039l-0.026,-0.051l-0.013,-0.039l0,-0.026l-0.026,-0.051l-0.013,-0.039l-0.038,-0.077l-0.013,-0.039l-0.039,-0.077l-0.013,-0.038l-0.038,-0.078l-0.013,-0.038l-0.064,-0.129l-0.026,-0.039l-0.065,-0.128l-0.012,-0.039l-0.026,-0.026l-0.039,-0.077l-0.026,-0.026l-0.038,-0.077l-0.026,-0.039l-0.026,-0.051l-0.025,-0.026l-0.026,-0.051l-0.026,-0.026l-0.026,-0.052l-0.025,-0.025l-0.026,-0.052l-0.026,-0.026l-0.013,-0.026l-0.026,-0.025l-0.012,-0.026l-0.026,-0.026l-0.013,-0.026l-0.026,-0.025l-0.013,-0.026l-0.025,-0.026l-0.013,-0.026l-0.026,-0.025l-0.013,-0.026l-0.064,-0.064l-0.013,-0.026l-0.026,-0.026l-0.013,-0.026l-0.051,-0.051l-0.013,-0.026l-0.026,-0.013l-0.013,-0.026l-0.051,-0.051l-0.013,-0.026l-0.026,-0.013l-0.026,-0.025l-0.013,-0.026l-0.051,-0.052l-0.026,-0.013l-0.013,-0.025l-0.051,-0.052l-0.026,-0.013l-0.013,-0.025l-0.025,-0.026l-0.026,-0.013l-0.026,-0.026l-0.013,-0.026l-0.026,-0.012l-0.051,-0.052l-0.026,-0.013l-0.026,-0.026l-0.012,-0.025l-0.026,-0.013l-0.026,-0.026l-0.026,-0.013l-0.051,-0.051l-0.026,-0.013l-0.013,-0.026l-0.026,-0.013l-0.025,-0.026l-0.026,-0.012l-0.026,-0.026l-0.026,-0.013l-0.025,-0.026l-0.026,-0.013l-0.026,-0.025l-0.026,-0.013l-0.025,-0.026l-0.026,-0.013l-0.026,-0.026l-0.013,0l-0.051,-0.051l-0.013,-0l-0.077,-0.077l-0.013,-0l-0,-0.013l-0.09,-0.09l-0,-0.013l-0.052,-0.052l0,-0.013l-0.038,-0.038l-0,-0.013l-0.039,-0.039l-0,-0.013l-0.026,-0.026l0,-0.012l-0.026,-0.026l0,-0.026l-0.025,-0.026l-0,-0.013l-0.013,-0.012l-0,-0.013l-0.026,-0.026l0,-0.026l-0.013,-0.013l0,-0.013l-0.013,-0.012l0,-0.013l-0.013,-0.013l0,-0.026l-0.012,-0.013l-0,-0.013l-0.013,-0.013l-0,-0.025l-0.013,-0.026l-0,-0.013l-0.013,-0.013l-0,-0.038l-0.013,-0.013l0,-0.026l-0.013,-0.013l0,-0.039l-0.013,-0.012l0,-0.052l-0.013,-0.013l0,-0.064l-0.012,-0.013l-0,-0.155l-0.013,-0.012l-0,-0.103l0.013,-0.013l-0,-0.129l0.012,-0.013l0,-0.09l0.013,-0.013l0,-0.039l0.013,-0.025l0,-0.026l0.013,-0.013l1.249,-4.738l-0,-0.026l0.013,-0.026l-0,-0.026l0.013,-0.038l0.025,-0.052l0,-0.025l0.026,-0.052l0,-0.039l0.052,-0.103l-0,-0.025l0.038,-0.078l0.013,-0.038l0.013,-0.026l-0,-0.026l0.142,-0.283l0.012,-0.039l0.103,-0.206l0.026,-0.025l0.013,-0.026l0.013,-0.013l0.051,-0.103l0.026,-0.026l0.052,-0.103l0.051,-0.051l0,-0.013l0.013,-0.026l0.052,-0.051l-0,-0.026l0.038,-0.039l0.013,-0.026l0,-0.012l0.013,-0.013l0.013,-0.026l0.013,-0.013l-0,-0.013l0.013,-0.013l0.012,-0.025l0,-0.013l0.013,-0.013l0.013,-0.026l0,-0.013l0.013,-0.013l0.013,-0.025l-0,-0.013l0.013,-0.026l0.013,-0.013l-0,-0.013l0.013,-0.026l-0,-0.012l0.012,-0.013l0,-0.026l0.013,-0.013l0,-0.026l0.013,-0.013l0,-0.012l0.013,-0.026l0,-0.013l0.013,-0.026l-0,-0.013l0.013,-0.013l-0,-0.025l0.013,-0.013l-0,-0.039l0.013,-0.026l-0,-0.025l0.012,-0.026l0,-0.039l0.013,-0.013l0,-0.038l0.013,-0.026l0,-0.051l0.013,-0.013l0,-0.103l0.013,-0.013l-0,-0.425l-0.013,-0.013l0,-0.077l-0.013,-0.026l0,-0.077l-0.013,-0.013l0,-0.039l-0.013,-0.013l0,-0.038l-0.012,-0.026l-0,-0.039l-0.013,-0.025l-0,-0.026l-0.013,-0.026l-0,-0.026l-0.013,-0.025l-0,-0.052l-0.013,-0.026l0,-0.051l-0.013,-0.026l0,-0.051l-0.013,-0.026l0,-0.077l-0.013,-0.026l0,-0.077l-0.012,-0.026l-0,-0.168l-0.013,-0.025l-0,-0.425l0.013,-0.026l-0,-0.154l0.012,-0.026l0,-0.077l0.013,-0.026l0.013,-0.09l0.026,-0.155l0.013,-0.09l0.026,-0.155l0.012,-0.09l0.026,-0.154l0.026,-0.09l0.026,-0.155l0.013,-0.09l0.012,-0.077l0.026,-0.077l0.013,-0.078l0.013,-0.09l0.013,-0.077l0.026,-0.077l0.012,-0.09l0.026,-0.155l0.026,-0.077l0.013,-0.09l0.013,-0.078l0.025,-0.077l0.013,-0.09l0.026,-0.077l0.026,-0.155l0.026,-0.09l0.012,-0.077l0.026,-0.077l0.013,-0.078l0.026,-0.09l0.013,-0.077l0.025,-0.077l0.013,-0.078l0.026,-0.09l0.013,-0.077l0.026,-0.077l0.013,-0.077l0.026,-0.091l0.012,-0.077l0.026,-0.077l0.013,-0.077l0.026,-0.078l0.025,-0.09l0.013,-0.077l0.052,-0.154l0.013,-0.078l0.025,-0.09l0.026,-0.077l0.013,-0.077l0.051,-0.155l0.026,-0.09l0.013,-0.077l0.077,-0.232l0.013,-0.077l0.026,-0.09l0.103,-0.309l0.013,-0.078l0.026,-0.077l0.025,-0.09l0.026,-0.077l0.026,-0.078l0.154,-0.463l0.026,-0.09l0.193,-0.58l0.013,-0.025l0.026,-0.078l0.013,-0.025l0.013,-0.039l-0,-0.026l0.025,-0.077l0.013,-0.026l0.013,-0.038l0.013,-0.026l0.013,-0.039l0.013,-0.026l0.025,-0.077l0.013,-0.026l0.013,-0.038l0.026,-0.026l0.013,-0.039l0.013,-0.025l0.013,-0.039l0.012,-0.026l0.013,-0.038l0.013,-0.026l0.013,-0.039l0.026,-0.025l0.013,-0.039l0.013,-0.026l0.012,-0.038l0.013,-0.026l0.026,-0.039l0.013,-0.026l0.013,-0.038l0.013,-0.026l0.025,-0.039l0.013,-0.025l0.013,-0.039l0.013,-0.026l0.026,-0.026l0.013,-0.038l0.013,-0.026l0.025,-0.039l0.013,-0.025l0.013,-0.039l0.026,-0.026l0.013,-0.025l0.025,-0.039l0.026,-0.052l0.026,-0.038l0.013,-0.026l0.026,-0.039l0.012,-0.025l0.026,-0.026l0.013,-0.039l0.026,-0.025l0.013,-0.026l0.025,-0.039l0.013,-0.026l0.026,-0.025l0.013,-0.026l0.026,-0.039l0.013,-0.025l0.025,-0.026l0.026,-0.039l0.013,-0.026l0.026,-0.025l0.013,-0.026l0.025,-0.039l0.065,-0.064l0.025,-0.039l0.039,-0.025l0.052,-0.078l0.038,-0.025l0.052,-0.078l0.064,-0.064l0.026,-0.039l0.038,-0.038l0.052,-0.078l0.039,-0.025l0.077,-0.116l0.038,-0.039l0.026,-0.039l0.026,-0.025l0.026,-0.039l0.038,-0.039l0.129,-0.193l0.039,-0.025l0.257,-0.387l0.039,-0.038l0.129,-0.193l0.012,-0.039l0.181,-0.27l0.025,-0.052l0.052,-0.077l0.013,-0.039l0.103,-0.154l0.013,-0.039l0.025,-0.051l0.078,-0.116l0.013,-0.039l0.025,-0.039l0.026,-0.051l0.013,-0.039l0.051,-0.077l0.013,-0.039l0.026,-0.051l0.026,-0.039l0.013,-0.038l0.051,-0.078l0.013,-0.051l0.026,-0.039l0.013,-0.038l0.025,-0.039l0.026,-0.052l0.013,-0.038l0.026,-0.039l0.013,-0.038l0.025,-0.052l0.013,-0.039l0.026,-0.038l0.013,-0.052l0.026,-0.038l0.013,-0.039l0.012,-0.051l0.026,-0.039l0.013,-0.039l0.026,-0.038l0.013,-0.052l0.025,-0.038l0.013,-0.039l0.013,-0.052l0.026,-0.038l0.013,-0.052l0.013,-0.038l0.025,-0.039l0.013,-0.051l0.026,-0.078l0.026,-0.051l0.026,-0.077l0.012,-0.052l0.026,-0.039l0.013,-0.051l0.026,-0.077l0.013,-0.052l0.025,-0.039l0.013,-0.051l0.013,-0.039l0.013,-0.051l0.026,-0.077l0.013,-0.052l0.013,-0.039l0.012,-0.051l0.013,-0.039l0.013,-0.051l0.013,-0.039l0.026,-0.051l0.013,-0.039l-0,-0.051l0.025,-0.078l0.013,-0.051l0.013,-0.039l0.013,-0.051l0.013,-0.039l0.013,-0.051l0.013,-0.039l0.013,-0.052l0.012,-0.038l0.013,-0.052l0,-0.038l0.013,-0.052l0.013,-0.038l0.013,-0.052l0.013,-0.039l-0,-0.051l0.013,-0.039l0.013,-0.051l0.012,-0.052l0,-0.038l0.013,-0.052l0.013,-0.038l0.013,-0.052l0,-0.039l0.013,-0.051l0.013,-0.039l-0,-0.051l0.013,-0.039l-0,-0.051l0.013,-0.039l0.012,-0.052l0,-0.051l0.013,-0.039l0,-0.051l0.013,-0.039l0,-0.051l0.013,-0.039l0,-0.051l0.013,-0.052l-0,-0.039l0.013,-0.051l-0,-0.039l0.013,-0.051l-0,-0.039l0.013,-0.051l-0,-0.09l0.012,-0.052l0,-7.301l0.013,-0.025l0,-0.142l0.013,-0.026l0,-0.077l0.013,-0.026l0,-0.064l0.013,-0.026l-0,-0.051l0.013,-0.026l-0,-0.039l0.013,-0.025l-0,-0.052l0.013,-0.026l-0,-0.013l0.012,-0.025l0,-0.026l0.013,-0.026l0,-0.026l0.013,-0.012l0,-0.052l0.026,-0.051l-0,-0.013l0.013,-0.026l-0,-0.026l0.013,-0.026l-0,-0.025l0.013,-0.013l0.012,-0.026l0,-0.026l0.013,-0.026l0,-0.012l0.026,-0.052l0,-0.026l0.013,-0.013l0.026,-0.051l-0,-0.013l0.038,-0.077l0,-0.013l0.026,-0.052l0.013,-0.012l0.013,-0.026l-0,-0.026l0.013,-0.013l0.025,-0.051l0.013,-0.013l0.026,-0.052l0,-0.013l0.026,-0.051l0.013,-0.013l0.013,-0.026l0.012,-0.013l0.026,-0.051l0.013,-0.013l0.013,-0.026l0.013,-0.013l0.013,-0.025l0.013,-0.013l0.025,-0.052l0.013,-0.013l0.013,-0.025l0.026,-0.013l0.013,-0.026l0.013,-0.013l0.012,-0.026l0.013,-0.012l0.013,-0.026l0.013,-0.013l0.013,-0.026l0.026,-0.013l0.013,-0.025l0.025,-0.026l0.013,-0.026l0.026,-0.013l0.013,-0.026l0.013,-0.012l0.013,-0.026l0.025,-0.013l0.013,-0.013l0.013,-0.026l0.013,-0.013l0.026,-0.012l0.013,-0.026l0.012,-0.013l0.026,-0.013l0.013,-0.026l0.013,-0.013l0.026,-0.012l0.013,-0.026l0.012,-0.013l0.026,-0.013l0.013,-0.026l0.013,-0.013l0.026,-0.012l0.051,-0.052l0.026,-0.013l0.064,-0.064l0.026,-0.013l0.013,-0.013l0.077,-0.051l0.026,-0.026l0.039,-0.026l0.064,-0.064l0.039,-0.026l0.025,-0.026l0.039,-0.026l0.026,-0.025l0.038,-0.026l0.026,-0.026l0.039,-0.026l0.025,-0.038l0.078,-0.052l0.025,-0.026l0.039,-0.025l0.026,-0.039l0.026,-0.026l0.038,-0.025l0.09,-0.091l0.039,-0.025l0.18,-0.181l0.039,-0.025l0.026,-0.039l0.025,-0.026l0.039,-0.025l0.026,-0.039l0.025,-0.026l0.039,-0.026l0.026,-0.038l0.116,-0.116l0.025,-0.039l0.039,-0.025l0.026,-0.039l0.026,-0.026l0.025,-0.038l0.039,-0.026l0.026,-0.039l0.025,-0.026l0.026,-0.038l0.09,-0.09l0.026,-0.039l0.026,-0.026l0.026,-0.038l0.025,-0.026l0.052,-0.077l0.038,-0.026l0.026,-0.039l0.026,-0.025l0.051,-0.078l0.026,-0.025l0.052,-0.078l0.025,-0.025l0.026,-0.039l0.026,-0.026l0.051,-0.077l0.026,-0.026l0.077,-0.116l0.026,-0.026l0.013,-0.038l0.026,-0.039l0.025,-0.026l0.103,-0.154l0.013,-0.026l0.078,-0.116l0.025,-0.025l0.026,-0.039l0.013,-0.039l0.077,-0.116l0.013,-0.025l0.052,-0.078l0.012,-0.038l0.052,-0.077l0.013,-0.026l0.051,-0.077l0.013,-0.039l0.052,-0.077l0.013,-0.039l0.025,-0.039l0.013,-0.038l0.026,-0.039l0.013,-0.038l0.026,-0.039l0.012,-0.026l0.026,-0.038l0.013,-0.039l0.026,-0.039l0.013,-0.038l0.025,-0.039l0.013,-0.039l0.026,-0.038l0.013,-0.039l0.026,-0.039l0.025,-0.077l0.026,-0.038l0.013,-0.039l0.026,-0.039l0.026,-0.077l0.025,-0.039l0.013,-0.038l0.013,-0.052l0.026,-0.038l0.038,-0.116l0.026,-0.039l0.039,-0.116l0.026,-0.038l0.038,-0.116l0.013,-0.052l0.026,-0.077l0.026,-0.039l0.051,-0.154l0.013,-0.052l0.064,-0.193l0.013,-0.051l0.065,-0.193l0.012,-0.052l0.013,-0.038l3.206,2.33l0.013,0l0.013,0.013l0.013,-0l0.013,0.013l0.013,-0l0.012,0.013l0.013,-0l0.013,0.013l0,0.012l0.013,0l0.026,0.026l0.013,0l0.013,0.013l-0,0.013l0.012,-0l0.026,0.026l0.013,-0l0,0.013l0.013,0.012l0.013,0l0.013,0.013l-0,0.013l0.013,0.013l0.012,0l0.013,0.013l0,0.013l0.052,0.051l-0,0.013l0.038,0.039l0,0.013l0.026,0.025l0,0.013l0.013,0.013l0,0.013l0.013,0l-0,0.013l0.013,0.013l-0,0.013l0.013,0.013l-0,0.012l0.013,0.013l-0,0.013l0.012,0.013l0,0.026l0.013,0.013l0,0.013l0.013,0.012l0,0.026l0.013,0.013l0,0.026l0.013,0.013l-0,0.025l0.013,0.013l-0,0.039l0.013,0.013l0.013,0.026l-0,0.012l0.012,0.026l0,0.013l0.013,0.026l0.013,0.013l0,0.025l0.026,0.026l0.013,0.026l-0,0.013l0.013,0.026l0.013,0.012l-0,0.026l0.012,0.013l0.013,0.026l0.026,0.026l0,0.025l0.013,0.013l0.013,0.026l0.026,0.026l0.012,0.025l0.013,0.013l0,0.013l0.013,0.026l0.026,0.026l0.013,0.025l0.026,0.026l0.012,0.026l0.026,0.026l0.013,0.025l0.039,0.039l0.013,0.026l0.051,0.051l0.013,0.026l0.026,0.026l0.025,0.013l0.013,0.013l0.013,0.025l0.065,0.065l0.025,0.013l0.013,0.025l0.039,0.039l0.026,0.013l0.038,0.039l0.026,0.012l0.039,0.039l0.025,0.013l0.026,0.026l0.026,0.013l0.026,0.025l0.025,0.013l0.026,0.026l0.026,0.013l0.013,-0l0.013,0.013l0.025,0.013l0.026,0.025l0.026,0.013l0.013,0.013l0.025,0l0.026,0.026l0.026,0.013l0.013,0.013l0.026,-0l0.012,0.012l0.026,0.013l0.013,0.013l0.026,0l0.013,0.013l0.025,0.013l0.013,-0l0.013,0.013l0.026,0.013l0.013,-0l0.026,0.013l0.012,0.012l0.026,0l0.013,0.013l0.026,0.013l0.013,0l0.025,0.013l0.026,0l0.013,0.013l0.026,-0l0.013,0.013l0.025,-0l0.013,0.013l0.026,-0l0.013,0.013l0.026,-0l0.013,0.012l0.025,0l0.026,0.013l0.039,0l0.013,0.013l0.025,0l0.026,0.013l0.039,0l0.013,0.013l0.038,-0l0.026,0.013l0.064,-0l0.026,0.013l0.052,-0l0.025,0.013l0.129,-0l0.013,0.012l1.365,0l0.025,0.013l0.039,0l0.026,0.013l0.051,0l0.026,0.013l0.026,0l0.026,0.013l0.051,-0l0.013,0.013l0.026,-0l0.025,0.013l0.026,-0l0.026,0.013l0.026,-0l0.025,0.012l0.013,0l0.026,0.013l0.026,0l0.026,0.013l0.025,0l0.052,0.026l0.013,-0l0.051,0.026l0.026,-0l0.026,0.013l0.013,-0l0.077,0.038l0.026,0l0.012,0.013l0.026,0.013l0.026,-0l0.051,0.026l0.013,0.013l0.026,0.012l0.026,0l0.025,0.013l0.013,0.013l0.052,0.026l0.013,0.013l0.025,-0l0.013,0.013l0.052,0.025l0.013,0l0.051,0.026l0.013,0.013l0.026,0l0.026,0.013l0.012,0.013l0.026,0.013l0.013,-0l0.052,0.025l0.025,0l0.013,0.013l0.026,0.013l0.026,0l0.013,0.013l0.025,0l0.026,0.013l0.013,-0l0.051,0.026l0.026,-0l0.013,0.013l0.026,-0l0.026,0.012l0.012,0l0.026,0.013l0.052,0l0.013,0.013l0.025,0l0.026,0.013l0.026,0l0.013,0.013l0.051,-0l0.026,0.013l0.039,-0l0.025,0.013l0.065,-0l0.025,0.013l0.078,-0l0.013,0.012l0.09,0l0.025,0.013l0.554,0l0.026,-0.013l0.09,0l0.026,-0.012l0.077,-0l0.013,-0.013l0.051,-0l0.026,-0.013l0.039,-0l0.025,-0.013l0.052,-0l0.013,-0.013l0.051,0l0.026,-0.013l0.013,0l0.026,-0.013l0.025,0l0.026,-0.013l0.013,0l0.026,-0.012l0.026,-0l0.012,-0.013l0.026,-0l0.026,-0.013l0.026,-0l0.013,-0.013l0.025,-0l0.026,-0.013l0.013,-0.013l0.026,0l0.025,-0.013l0.013,0l0.052,-0.025l0.026,-0l0.012,-0.013l0.026,-0.013l0.026,-0l0.013,-0.013l0.026,-0.013l0.012,-0.013l0.026,0l0.026,-0.013l0.013,-0.013l0.026,-0.012l0.025,-0l0.013,-0.013l0.026,-0.013l0.013,-0.013l0.051,-0.026l0.013,0l0.026,-0.013l0.013,-0.013l0.026,-0.012l0.012,-0.013l0.052,-0.026l0.013,-0.013l0.026,-0.013l0.012,-0.013l0.026,-0.013l0.013,-0.012l0.026,-0.013l0.013,-0.013l0.025,-0.013l0.013,-0.013l0.026,-0.013l0.026,-0.026l0.026,-0.012l0.012,-0.013l0.026,-0.013l0.013,-0.013l0.026,-0.013l0.026,-0.026l0.025,-0.013l0.013,-0.025l0.026,-0.013l0.026,-0.026l0.025,-0.013l0.013,-0.013l0.013,-0.025l0.026,-0.013l0.026,-0.026l0.025,-0.013l0.013,-0.026l0.013,-0.013l0.026,-0.012l0.013,-0.013l0.013,-0.026l0.013,-0.013l0.025,-0.013l0.013,-0.026l0.077,-0.077l0.013,-0.026l0.078,-0.077l0.012,-0.026l0.013,-0.012l0.013,-0.026l0.026,-0.026l0.013,-0.026l0.013,-0.013l0.013,-0.025l0.025,-0.013l0.013,-0.026l0.013,-0.013l0.013,-0.026l0.013,-0.012l-0,-0.026l0.013,-0.013l0.025,-0.052l0.013,-0.012l0.039,-0.078l-0,-0.013l0.026,-0.051l0.013,-0.013l0.012,-0.026l0,-0.025l0.013,-0.026l0.013,-0.013l0.013,-0.026l0,-0.026l0.013,-0.013l0.026,-0.051l-0,-0.026l0.013,-0.026l0.012,-0.012l0,-0.026l0.013,-0.026l0,-0.026l0.013,-0.013l0.013,-0.025l0,-0.026l0.013,-0.026l-0,-0.026l0.013,-0.012l-0,-0.026l0.026,-0.052l-0,-0.051l0.012,-0.013l0,-0.026l0.013,-0.026l0,-0.025l0.013,-0.026l0,-0.026l0.013,-0.013l0,-0.051l0.013,-0.026l-0,-0.051l0.013,-0.026l-0,-0.039l0.013,-0.026l-0,-0.077l0.013,-0.026l-0,-0.064l0.012,-0.026l0,-0.141l0.013,-0.026l0,-0.386l-0.013,-0.026l0,-0.155l-0.012,-0.025l-0,-0.065l-0.013,-0.026l-0,-0.077l-0.013,-0.013l-0,-0.051l-0.013,-0.026l-0,-0.051l-0.013,-0.026l0,-0.013l-0.013,-0.026l0,-0.051l-0.013,-0.026l0,-0.026l-0.013,-0.026l0,-0.012l-0.012,-0.026l-0,-0.026l-0.013,-0.026l-0,-0.025l-0.013,-0.013l-0,-0.026l-0.013,-0.026l-0,-0.026l-0.013,-0.025l0,-0.013l-0.026,-0.052l0,-0.025l-0.013,-0.026l-0.012,-0.013l-0,-0.026l-0.026,-0.051l-0,-0.013l-0.026,-0.052l0,-0.025l-0.013,-0.013l-0.038,-0.078l-0,-0.012l-0.026,-0.052l-0.013,-0.013l-0.013,-0.026l0,-0.025l-0.013,-0.026l-0.013,-0.013l-0.025,-0.051l-0.013,-0.013l-0.026,-0.052l-0.013,-0.013l-0.013,-0.025l-4.982,-6.709l-0,-0.064l0.013,-0.013l-0,-0.103l0.012,-0.026l0,-0.36l-0.012,-0.013l-0,-0.129l-0.013,-0.013l-0,-0.064l-0.013,-0.026l-0,-0.064l-0.013,-0.013l-0,-0.039l-0.013,-0.026l0,-0.038l-0.013,-0.026l0,-0.013l-0.013,-0.026l0,-0.038l-0.013,-0.026l0,-0.013l-0.012,-0.026l-0,-0.012l-0.013,-0.026l-0,-0.013l-0.013,-0.026l-0,-0.013l-0.013,-0.025l-0,-0.013l-0.013,-0.026l0,-0.026l-0.013,-0.013l-0.013,-0.025l0,-0.013l-0.013,-0.026l0,-0.013l-0.012,-0.026l-0.013,-0.013l-0,-0.013l-0.013,-0.025l-0.013,-0.013l-0,-0.026l-0.013,-0.013l-0.013,-0.026l-0.013,-0.012l0,-0.026l-0.013,-0.013l-0.012,-0.026l-0.013,-0.013l-0,-0.013l-0.013,-0.025l-0.013,-0.013l-0.013,-0.026l-0.026,-0.026l0,-0.025l-0.051,-0.052l-0.026,-0.039l-0.026,-0.025l-0.051,-0.078l-0.039,-0.025l-0.051,-0.078l-0.039,-0.025l-0.026,-0.039l-0.025,-0.026l-0.026,-0.038l-0.129,-0.129l-0.026,-0.039l-0.064,-0.064l-0.026,-0.039l-0.038,-0.025l-0.026,-0.039l-0.039,-0.026l-0.026,-0.038l-0.283,-0.284l-0.038,-0.025l-0.026,-0.039l-0.039,-0.026l-0.026,-0.038l-0.077,-0.052l-0.026,-0.039l-0.038,-0.025l-0.065,-0.065l-0.038,-0.025l-0.09,-0.091l-0.039,-0.025l-0.064,-0.065l-0.078,-0.051l-0.025,-0.039l-0.078,-0.051l-0.064,-0.065l-0.077,-0.051l-0.026,-0.026l-0.077,-0.052l-0.065,-0.064l-0.154,-0.103l-0.026,-0.026l-0.116,-0.077l-0.064,-0.064l-0.155,-0.103l0.013,-0.039l0,-0.077l0.013,-0.039l0,-0.038l0.013,-0.039l0,-0.039l0.013,-0.051l-0,-0.077l0.013,-0.039l-0,-0.077l0.013,-0.039l-0,-0.077l0.013,-0.052l-0,-0.116l0.012,-0.038l0,-0.168l0.013,-0.038l0,-0.322l0.013,-0.039l0,-0.322l-0.013,-0.038l0,-0.322l-0.013,-0.052l0,-0.154l-0.012,-0.039l-0,-0.129l-0.013,-0.038l-0,-0.077l-0.013,-0.039l-0,-0.077l-0.013,-0.052l-0,-0.077l-0.013,-0.039l0,-0.038l-0.013,-0.039l0,-0.039l-0.013,-0.038l0,-0.09l-0.013,-0.039l0,-0.039l-0.012,-0.038l-0,-0.039l-0.026,-0.077l-0,-0.039l-0.013,-0.038l-0,-0.039l-0.013,-0.039l0,-0.051l-0.026,-0.077l0,-0.039l-0.025,-0.077l-0,-0.039l-0.039,-0.116l-0,-0.038l-0.039,-0.116l0,-0.039l-0.025,-0.077l-0.013,-0.052l-0.013,-0.038l-0,-0.039l-0.065,-0.193l-0.038,0.051l-0.039,0.039l-0.038,0.052l-0.039,0.038l-0.039,0.052l-0.077,0.077l-0.039,0.051l-0.038,0.039l-0.039,0.052l-0.038,0.038l-0.039,0.052l-0.039,0.038l-0.077,0.103l-0.039,0.039l-0.025,0.051l-0.039,0.039l-0.039,0.052l-0.038,0.038l-0.077,0.103l-0.039,0.039l-0.039,0.051l-0.025,0.039l-0.078,0.103l-0.038,0.039l-0.039,0.051l-0.026,0.039l-0.077,0.103l-0.039,0.038l-0.025,0.052l-0.078,0.103l-0.025,0.039l-0.078,0.103l-0.038,0.038l-0.026,0.052l-0.077,0.103l-0.026,0.038l-0.039,0.052l-0.025,0.051l-0.039,0.052l-0.039,0.038l-0.025,0.052l-0.026,-0.013l-0.039,0l-0.051,-0.026l-0.026,0l-0.051,-0.025l-0.039,-0.013l-0.026,-0l-0.026,-0.013l-0.025,-0l-0.026,-0.013l-0.039,-0.013l-0.025,0l-0.052,-0.026l-0.039,0l-0.025,-0.013l-0.026,0l-0.026,-0.012l-0.038,-0l-0.026,-0.013l-0.026,-0l-0.026,-0.013l-0.038,-0l-0.026,-0.013l-0.026,-0l-0.026,-0.013l-0.064,0l-0.026,-0.013l-0.025,0l-0.039,-0.013l-0.052,0l-0.025,-0.013l-0.065,0l-0.025,-0.012l-0.091,-0l-0.025,-0.013l-0.09,-0l-0.039,-0.013l-0.142,-0l-0.025,-0.013l-0.593,-0l-0.038,0.013l-0.142,-0l-0.039,0.013l-0.077,-0l-0.038,0.013l-0.091,-0l-0.025,0.012l-0.052,0l-0.038,0.013l-0.052,0l-0.039,0.013l-0.025,0l-0.026,0.013l-0.064,0l-0.026,0.013l-0.026,-0l-0.026,0.013l-0.038,-0l-0.026,0.013l-0.026,-0l-0.026,0.013l-0.038,-0l-0.026,0.012l-0.026,0l-0.025,0.013l-0.039,0.013l-0.026,0l-0.026,0.013l-0.025,0l-0.026,0.013l-0.039,0.013l-0.025,-0l-0.052,0.026l-0.026,-0l-0.038,0.012l-0.026,0.013l-0.026,0l-0.051,0.026l-0.039,0.013l-0.026,-0l-0.077,0.039l-0.026,-0l-0.038,0.012l-0.129,0.065l-0.026,-0l-0.026,0.013l-0.038,0.013l-0.335,0.167l-0.038,0.013l-0.052,0.026l-0.026,0.025l-0.013,-0.025l-0.012,-0.013l-0.026,-0.013l-0.013,-0.013l-0.026,-0.013l-0.013,-0.013l-0.025,-0.013l-0.013,-0.013l-0.026,0l-0.013,-0.012l-0.026,-0.013l-0.013,-0.013l-0.025,-0.013l-0.013,-0.013l-0.026,-0.013l-0.013,-0.013l-0.026,-0.013l-0.012,-0.012l-0.026,-0l-0.013,-0.013l-0.052,-0.026l-0.012,-0.013l-0.026,-0.013l-0.013,0l-0.026,-0.013l-0.013,-0.013l-0.025,-0.012l-0.026,-0l-0.013,-0.013l-0.026,-0.013l-0.026,-0l-0.012,-0.013l-0.026,-0.013l-0.013,0l-0.052,-0.026l-0.012,0l-0.052,-0.025l-0.013,-0l-0.026,-0.013l-0.025,-0l-0.013,-0.013l-0.026,-0.013l-0.026,-0l-0.013,-0.013l-0.025,0l-0.026,-0.013l-0.013,0l-0.026,-0.013l-0.051,0l-0.013,-0.013l-0.026,0l-0.026,-0.012l-0.012,-0l-0.026,-0.013l-0.052,-0l-0.013,-0.013l-0.051,-0l-0.026,-0.013l-0.038,-0l-0.026,-0.013l-0.065,0l-0.025,-0.013l-0.09,0l-0.026,-0.013l-0.18,0l-0.013,-0.013l-0.206,0l-0.026,0.013l-0.167,0l-0.013,0.013l-0.09,0l-0.026,0.013l-0.065,0l-0.025,0.013l-0.065,-0l-0.025,0.013l-0.052,-0l-0.013,0.013l-0.026,-0l-0.025,0.013l-0.039,-0l-0.026,0.012l-0.025,0l-0.013,0.013l-0.026,0l-0.026,0.013l-0.013,0l-0.025,0.013l-0.026,0l-0.013,0.013l-0.026,-0l-0.026,0.013l-0.012,-0l-0.026,0.013l-0.026,-0l-0.026,0.013l-0.013,0.012l-0.025,0l-0.013,0.013l-0.026,0.013l-0.026,0l-0.013,0.013l-0.025,0.013l-0.026,-0l-0.09,0.039l-0.09,0.025l-0.09,0.039l-0.091,0.026l-0.18,0.077l-0.09,0.026l-0.09,0.038l-0.09,0.026l-0.18,0.077l-0.091,0.026l-0.18,0.077l-0.103,0.026l-0.18,0.077l-0.09,0.026l-0.271,0.116l-0.09,0.026l-0.36,0.154l-0.077,0.026l-0.631,0.27l-0.09,0.026l-0.541,0.232l-0.077,0.039l-0.541,0.231l-0.09,0.052l-0.078,0.038l-0.45,0.194l-0.077,0.038l-0.091,0.052l-0.36,0.154l-0.077,0.052l-0.271,0.116l-0.077,0.051l-0.27,0.116l-0.078,0.051l-0.18,0.078l-0.09,0.051l-0.077,0.039l-0.09,0.051l-0.09,0.039l-0.078,0.039l-0.09,0.051l-0.09,0.039l-0.09,0.051l-0.077,0.039l-0.09,0.039l-0.09,0.051l-0.078,0.039l-0.09,0.051l-0.09,0.039l-0.077,0.051l-0.09,0.039l-0.09,0.051l-0.078,0.039l-0.09,0.052l-0.077,0.051l-0.09,0.039l-0.09,0.051l-0.078,0.039l-0.09,0.051l-0.077,0.039l-0.18,0.103l-0.077,0.039l-0.091,0.051l-0.077,0.052l-0.09,0.038l-0.077,0.052l-0.09,0.051l-0.078,0.039l-0.09,0.051l-0.077,0.052l-0.09,0.051l-0.09,0.039l-0.155,0.103l-0.09,0.051l-0.077,0.052l-0.09,0.039l-0.077,0.051l-0.091,0.052l-0.077,0.051l-0.09,0.052l-0.077,0.051l-0.09,0.039l-0.078,0.051l-0.09,0.052l-0.154,0.103l-0.09,0.051l-0.078,0.052l-0.09,0.051l-0.154,0.103l-0.09,0.052l-0.155,0.103l-0.09,0.051l-0.154,0.103l-0.091,0.052l-0.154,0.103l-0.09,0.051l-0.155,0.103l-0.09,0.052l-0.077,0.051l-0.077,0.065l-0.078,0.051l-0.09,0.052l-0.231,0.154l-0.091,0.052l-0.077,0.064l-0.232,0.155l-0.09,0.064l-0.231,0.155l-0.078,0.064l-0.09,0.051l-0.077,0.052l-0.077,0.064l-0.155,0.103l-0.077,0.065l-0.155,0.103l-0.09,0.064l-0.154,0.103l-0.077,0.064l-0.078,0.052l-0.077,0.064l-0.154,0.103l-0.078,0.065l-0.077,0.051l-0.077,0.065l-0.077,0.051l-0.078,0.064l-0.077,0.052l-0.077,0.064l-0.077,0.052l-0.078,0.064l-0.077,0.052l-0.154,0.128l-0.078,0.052l-0.077,0.064l-0.077,0.052l-0.077,0.064l-0.078,0.052l-0.154,0.129l-0.065,0.051l-0.154,0.129l-0.026,0.013l-0.051,0.051l-0.026,0.013l-0.142,0.142l-0.025,0.013l-0.013,0.025l-0.052,0.052l-0.013,0.026l-0.038,0.038l-0.013,0.026l-0.039,0.039l-0.013,0.025l-0.025,0.026l-0.013,0.026l-0.026,0.026l-0.013,0.025l-0.026,0.026l-0.012,0.026l-0.013,0.013l-0,0.013l-0.013,0.025l-0.026,0.026l-0.013,0.026l-0.013,0.013l0,0.025l-0.013,0.013l-0.012,0.026l-0.026,0.026l-0,0.026l-0.013,0.012l-0.013,0.026l-0.013,0.013l0,0.026l-0.013,0.013l-0.013,0.025l0,0.013l-0.012,0.013l-0.013,0.026l-0,0.013l-0.013,0.026l-0.013,0.012l-0,0.026l-0.013,0.013l0,0.026l-0.013,0.013l0,0.025l-0.013,0.026l0,0.013l-0.013,0.026l-0.012,0.013l-0,0.025l-0.013,0.013l-0,0.039l-0.013,0.026l-0,0.013l-0.013,0.025l-0,0.026l-0.013,0.013l0,0.039l-0.013,0.025l0,0.026l-0.013,0.026l0,0.026l-0.013,0.025l0,0.013l-0.012,0.013l-0,0.026l-0.013,0.013l-0,0.038l-0.013,0.013l-0,0.013l-0.013,0.013l-0,0.026l-0.013,0.013l0,0.013l-0.013,0.025l-0.013,0.013l0,0.013l-0.013,0.013l0,0.026l-0.025,0.025l-0,0.013l-0.013,0.026l-0,0.013l-0.026,0.026l0,0.013l-0.013,0.025l-0.026,0.026l0,0.013l-0.012,0.013l-0.013,0.026l-0.013,0.012l-0,0.013l-0.039,0.039l0,0.013l-0.013,0.026l-0.064,0.064l-0,0.013l-0.296,0.296l-0.013,-0l-0.026,0.026l-0.026,0.013l-0.025,0.025l-0.013,0l-0.039,0.039l-0.026,0.013l-0.012,-0l-0.039,0.038l-0.013,0l-0.026,0.013l-0.013,0.013l-0.012,0l-0.013,0.013l-0.026,0.013l-0.013,-0l-0.026,0.026l-0.025,-0l-0.013,0.013l-0.013,-0l-0.013,0.012l-0.026,0.013l-0.013,0l-0.064,0.026l-0.064,0.039l-0.078,0.025l-0.128,0.052l-0.065,0.039l-0.064,0.025l-0.077,0.026l-0.129,0.052l-0.077,0.025l-0.065,0.039l-0.129,0.051l-0.077,0.026l-0.193,0.077l-0.077,0.026l-0.129,0.052l-0.077,0.026l-0.129,0.051l-0.077,0.026l-0.129,0.051l-0.077,0.026l-0.129,0.052l-0.077,0.025l-0.129,0.052l-0.077,0.026l-0.065,0.012l-0.077,0.026l-0.129,0.052l-0.077,0.025l-0.064,0.026l-0.077,0.013l-0.129,0.052l-0.077,0.025l-0.065,0.013l-0.077,0.026l-0.129,0.051l-0.077,0.013l-0.064,0.026l-0.078,0.026l-0.064,0.013l-0.077,0.025l-0.065,0.026l-0.064,0.013l-0.077,0.026l-0.065,0.026l-0.077,0.012l-0.064,0.026l-0.078,0.013l-0.064,0.026l-0.077,0.013l-0.065,0.025l-0.077,0.013l-0.064,0.026l-0.077,0.013l-0.065,0.026l-0.077,0.013l-0.064,0.025l-0.078,0.013l-0.064,0.026l-0.077,0.013l-0.065,0.026l-0.077,0.012l-0.064,0.013l-0.078,0.026l-0.064,0.013l-0.077,0.026l-0.065,0.013l-0.077,0.012l-0.064,0.026l-0.077,0.013l-0.065,0.013l-0.077,0.013l-0.077,0.026l-0.065,0.012l-0.077,0.013l-0.064,0.013l-0.078,0.026l-0.064,0.013l-0.077,0.013l-0.065,0.013l-0.077,0.012l-0.077,0.026l-0.064,0.013l-0.078,0.013l-0.064,0.013l-0.077,0.013l-0.065,0.013l-0.154,0.025l-0.065,0.013l-0.077,0.013l-0.064,0.013l-0.077,0.013l-0.078,0.026l-0.064,0.012l-0.077,0l-0.065,0.013l-0.154,0.026l-0.065,0.013l-0.077,0.013l-0.064,0.013l-0.155,0.025l-0.064,0.013l-0.154,0.026l-0.065,0l-0.077,0.013l-0.064,0.013l-0.155,0.026l-0.064,-0l-0.155,0.025l-0.064,0.013l-0.077,0l-0.078,0.013l-0.064,0.013l-0.077,0.013l-0.078,-0l-0.064,0.013l-0.077,0.013l-0.077,-0l-0.065,0.013l-0.077,-0l-0.077,0.012l-0.065,0.013l-0.077,0l-0.064,0.013l-0.078,0l-0.077,0.013l-0.064,0l-0.077,0.013l-0.078,-0l-0.064,0.013l-0.077,-0l-0.078,0.013l-0.077,-0l-0.064,0.013l-0.077,-0l-0.078,0.012l-0.141,0l-0.078,0.013l-0.064,0l-0.077,0.013l-0.142,0l-0.077,0.013l-0.219,0l-0.077,0.013l-0.219,-0l-0.064,0.013l-0.232,-0l-0.077,0.013l-0.155,-0l-0.077,0.013l-0.309,-0l-0.077,0.012l-0.606,0l-0.077,0.013l-0.618,0l-0.077,-0.013l-0.618,0l-0.077,-0.012l-0.309,-0l-0.078,-0.013l-0.231,-0l-0.078,-0.013l-0.218,-0l-0.078,-0.013l-0.154,-0l-0.077,-0.013l-0.078,0l-0.077,-0.013l-0.154,0l-0.078,-0.013l-0.077,0l-0.077,-0.013l-0.077,0l-0.078,-0.012l-0.077,-0l-0.077,-0.013l-0.077,-0l-0.078,-0.013l-0.077,-0l-0.064,-0.013l-0.078,-0l-0.154,-0.026l-0.077,0l-0.078,-0.013l-0.077,0l-0.154,-0.025l-0.077,-0l-0.155,-0.026l-0.077,-0l-0.155,-0.026l-0.064,-0.013l-0.077,0l-0.232,-0.038l-0.077,-0l-0.387,-0.065l-0.064,0l-0.695,-0.116l-0.065,-0.013l-0.54,-0.09l-0.065,-0.013l-0.077,-0.013l-0.077,-0.025l-0.309,-0.052l-0.065,-0.013l-0.077,-0.013l-0.077,-0.025l-0.232,-0.039l-0.064,-0.026l-0.232,-0.038l-0.051,-0.026l-0.039,-0.013l-0.103,-0.026l-0.039,-0.013l-0.103,-0.025l-0.038,-0.013l-0.103,-0.026l-0.039,-0.013l-0.051,-0.013l-0.052,0l-0.039,-0.013l-0.154,-0.038l-0.039,-0.013l-0.103,-0.026l-0.051,0l-0.039,-0.013l-0.103,-0.025l-0.038,-0.013l-0.052,-0l-0.103,-0.026l-0.039,-0.013l-0.051,0l-0.103,-0.026l-0.039,0l-0.103,-0.025l-0.051,-0l-0.052,-0.013l-0.038,-0.013l-0.052,-0l-0.051,-0.013l-0.052,-0l-0.038,-0.013l-0.052,-0.013l-0.051,0l-0.052,-0.013l-0.051,0l-0.039,-0.013l-0.052,0l-0.051,-0.012l-0.052,-0l-0.038,-0.013l-0.052,-0l-0.051,-0.013l-0.103,-0l-0.039,-0.013l-0.103,-0l-0.051,-0.013l-0.052,0l-0.038,-0.013l-0.155,0l-0.051,-0.013l-0.091,0l-0.051,-0.013l-0.193,0l-0.052,-0.012l-0.296,-0l-0.051,-0.013l-0.734,-0l-0.052,0.013l-0.296,-0l-0.051,0.012l-0.193,0l-0.052,0.013l-0.103,0l-0.039,0.013l-0.154,0l-0.052,0.013l-0.038,0l-0.052,0.013l-0.103,-0l-0.051,0.013l-0.039,-0l-0.051,0.013l-0.103,-0l-0.052,0.013l-0.038,-0l-0.052,0.012l-0.051,0l-0.052,0.013l-0.051,0l-0.039,0.013l-0.051,0l-0.103,0.026l-0.039,-0l-0.052,0.013l-0.051,-0l-0.103,0.026l-0.039,-0l-0.103,0.025l-0.051,0l-0.039,0.013l-0.051,0.013l-0.052,0l-0.051,0.013l-0.039,0.013l-0.051,0.013l-0.052,-0l-0.051,0.013l-0.039,0.012l-0.103,0.026l-0.052,0l-0.038,0.013l-0.103,0.026l-0.039,0.013l-0.154,0.038l-0.039,0.013l-0.051,0l-0.052,0.013l-0.039,0.013l-0.103,0.026l-0.038,0.013l-0.103,0.025l-0.039,0.013l-0.051,0.013l-0.052,0.026l-0.038,0.013l-0.103,0.025l-0.039,0.013l-0.103,0.026l-0.039,0.013l-0.051,0.013l-0.052,0.026l-0.038,0.012l-0.103,0.026l-0.039,0.013l-0.051,0.026l-0.039,0.013l-0.103,0.025l-0.039,0.026l-0.051,0.013l-0.039,0.013l-0.051,0.026l-0.052,0.013l-0.038,0.012l-0.052,0.026l-0.039,0.013l-0.051,0.013l-0.039,0.026l-0.051,0.013l-0.039,0.012l-0.051,0.026l-0.052,0.013l-0.038,0.026l-0.052,0.013l-0.026,0.013l-0.038,0.025l-0.078,0.026l-0.025,0.013l-0.039,0.026l-0.039,0.013l-0.025,0.013l-0.039,0.025l-0.077,0.026l-0.026,0.026l-0.077,0.026l-0.026,0.025l-0.039,0.013l-0.038,0.026l-0.026,0.013l-0.039,0.013l-0.025,0.025l-0.039,0.013l-0.039,0.026l-0.025,0.013l-0.039,0.026l-0.039,0.013l-0.025,0.025l-0.039,0.013l-0.026,0.026l-0.038,0.013l-0.026,0.026l-0.039,0.012l-0.038,0.026l-0.026,0.026l-0.039,0.013l-0.025,0.026l-0.039,0.012l-0.026,0.026l-0.038,0.026l-0.026,0.013l-0.039,0.026l-0.026,0.025l-0.038,0.013l-0.026,0.026l-0.039,0.026l-0.025,0.013l-0.039,0.025l-0.026,0.026l-0.038,0.026l-0.026,0.013l-0.026,0.025l-0.038,0.026l-0.026,0.026l-0.039,0.013l-0.026,0.026l-0.038,0.025l-0.052,0.052l-0.038,0.013l-0.052,0.051l-0.038,0.026l-0.052,0.051l-0.039,0.026l-0.025,0.026l-0.026,0.013l-0.039,0.026l-0.051,0.051l-0.039,0.026l-0.077,0.077l-0.039,0.026l-0.103,0.103l-0.038,0.026l-0.103,0.103l-0.026,0.038l-0.039,0.026l-0.154,0.155l-0.026,0.038l-0.026,0.026l-0.038,0.026l-0.078,0.077l-0.025,0.039l-0.078,0.077l-0.025,0.038l-0.078,0.078l-0.025,0.038l-0.026,0.026l-0.013,0.026l-0.026,0.026l-0.025,0.038l-0.052,0.052l-0.026,0.038l-0.051,0.052l-0.026,0.038l-0.013,0.026l-0.026,0.026l-0.025,0.039l-0.026,0.025l-0.026,0.039l-0.013,0.026l-0.025,0.025l-0.026,0.039l-0.026,0.026l-0.026,0.038l-0.013,0.026l-0.025,0.039l-0.026,0.026l-0.013,0.025l-0.026,0.039l-0.025,0.026l-0.026,0.038l-0.013,0.026l-0.026,0.039l-0.013,0.025l-0.025,0.039l-0.026,0.026l-0.013,0.038l-0.026,0.026l-0.026,0.039l-0.012,0.026l-0.026,0.038l-0.013,0.026l-0.026,0.039l-0.013,0.038l-0.025,0.026l-0.013,0.039l-0.026,0.025l-0.013,0.039l-0.026,0.026l-0.013,0.038l-0.025,0.039l-0.013,0.026l-0.026,0.038l-0.013,0.039l-0.026,0.026l-0.012,0.038l-0.013,0.026l-0.026,0.039l-0.013,0.038l-0.013,0.026l-0.026,0.039l-0.012,0.038l-0.026,0.026l-0.026,0.077l-0.013,0.026l-0.026,0.039l-0.025,0.013l-0.039,0.025l-0.039,0.013l-0.025,0.013l-0.039,0.013l-0.039,0.026l-0.025,0.013l-0.039,0.013l-0.026,0.025l-0.077,0.026l-0.026,0.026l-0.038,0.013l-0.026,0.013l-0.039,0.025l-0.038,0.013l-0.026,0.013l-0.039,0.026l-0.025,0.013l-0.039,0.025l-0.026,0.013l-0.038,0.026l-0.026,0.013l-0.039,0.013l-0.026,0.026l-0.038,0.012l-0.026,0.026l-0.039,0.013l-0.025,0.026l-0.039,0.026l-0.026,0.012l-0.038,0.026l-0.026,0.013l-0.039,0.026l-0.025,0.013l-0.039,0.025l-0.026,0.026l-0.038,0.013l-0.026,0.026l-0.026,0.013l-0.039,0.025l-0.025,0.026l-0.039,0.013l-0.051,0.052l-0.039,0.025l-0.026,0.013l-0.025,0.026l-0.039,0.026l-0.026,0.013l-0.038,0.025l-0.078,0.078l-0.038,0.012l-0.052,0.052l-0.038,0.026l-0.026,0.025l-0.026,0.013l-0.026,0.026l-0.038,0.026l-0.077,0.077l-0.039,0.026l-0.052,0.051l-0.025,0.013l-0.026,0.026l-0.039,0.026l-0.154,0.154l-0.026,0.026l-0.039,0.026l-0.128,0.129l-0.026,0.038l-0.206,0.206l-0.026,0.039l-0.129,0.129l-0.025,0.038l-0.013,0.026l-0.052,0.051l-0.026,0.039l-0.077,0.077l-0.013,0.039l-0.077,0.077l-0.026,0.039l-0.012,0.026l-0.026,0.025l-0.026,0.039l-0.026,0.026l-0.013,0.025l-0.025,0.039l-0.052,0.052l-0.013,0.038l-0.026,0.026l-0.025,0.026l-0.013,0.038l-0.026,0.026l-0.026,0.039l-0.013,0.025l-0.025,0.026l-0.026,0.039l-0.013,0.026l-0.026,0.038l-0.013,0.026l-0.025,0.039l-0.013,0.025l-0.026,0.039l-0.025,0.026l-0.013,0.038l-0.026,0.026l-0.013,0.026l-0.026,0.039l-0.013,0.025l-0.026,0.039l-0.012,0.026l-0.013,0.038l-0.026,0.039l-0.013,0.026l-0.025,0.038l-0.013,0.026l-0.026,0.039l-0.013,0.025l-0.013,0.039l-0.026,0.026l-0.025,0.077l-0.026,0.026l-0.013,0.038l-0.013,0.026l-0.026,0.039l-0.013,0.038l-0.013,0.026l-0.012,0.039l-0.026,0.026l-0.026,0.077l-0.013,0.026l-0.012,0.038l-0.026,0.039l-0.013,0.026l-0.026,0.077l-0.013,0.026l-0.013,0.038l-0.025,0.039l-0.013,0.026l-0.013,0.038l-0.013,0.039l-0.09,0.18l-0.026,0.064l-0.077,0.155l-0.039,0.064l-0.026,0.078l-0.038,0.077l-0.039,0.064l-0.039,0.078l-0.025,0.077l-0.039,0.064l-0.038,0.077l-0.026,0.078l-0.039,0.077l-0.039,0.064l-0.025,0.078l-0.039,0.077l-0.026,0.077l-0.038,0.064l-0.039,0.078l-0.025,0.077l-0.039,0.077l-0.026,0.065l-0.038,0.077l-0.026,0.077l-0.039,0.077l-0.026,0.065l-0.038,0.077l-0.026,0.077l-0.039,0.078l-0.025,0.077l-0.039,0.064l-0.026,0.077l-0.038,0.078l-0.026,0.077l-0.026,0.077l-0.039,0.077l-0.025,0.065l-0.039,0.077l-0.051,0.155l-0.039,0.077l-0.051,0.154l-0.039,0.065l-0.026,0.077l-0.026,0.077l-0.026,0.077l-0.038,0.078l-0.103,0.309l-0.039,0.077l-0.025,0.064l-0.026,0.078l-0.026,0.077l-0.052,0.154l-0.038,0.078l-0.206,0.618l-0.026,0.077l-0.231,0.695l-0.013,0.077l-0.052,0.155l-0.026,0.077l-0.051,0.155l-0.013,0.077l-0.103,0.309l-0.013,0.077l-0.077,0.232l-0.013,0.077l-0.026,0.078l-0.026,0.09l-0.012,0.077l-0.026,0.077l-0.026,0.077l-0.013,0.078l-0.026,0.077l-0.013,0.077l-0.051,0.155l-0.013,0.077l-0.025,0.077l-0.013,0.09l-0.026,0.078l-0.013,0.077l-0.026,0.077l-0.013,0.077l-0.026,0.078l-0.012,0.077l-0.026,0.077l-0.013,0.09l-0.026,0.078l-0.026,0.154l-0.025,0.077l-0.013,0.078l-0.026,0.077l-0.013,0.09l-0.012,0.077l-0.026,0.077l-0.026,0.155l-0.026,0.077l-0.013,0.078l-0.012,0.09l-0.013,0.077l-0.026,0.077l-0.013,0.077l-0.013,0.078l-0.013,0.09l-0.013,0.077l-0.026,0.077l-0.025,0.155l-0.013,0.09l-0.026,0.154l-0.025,0.078l-0.013,0.077l-0.013,0.09l-0.052,0.309l-0.013,0.09l-0.038,0.232l-0.013,0.077l-0.013,0.09l-0.013,0.078l-0.026,0.154l-0.013,0.09l0,0.078l-0.025,0.154l-0.013,0.09l-0.039,0.232l0,0.09l-0.026,0.155l-0.012,0.077l-0,0.09l-0.039,0.232l0,0.09l-0.026,0.154l0,0.078l-0.013,0.09l-0.012,0.077l-0,0.077l-0.013,0.078l-0.013,0.09l-0,0.077l-0.013,0.077l-0,0.077l-0.013,0.091l-0,0.077l-0.013,0.077l0,0.09l-0.013,0.077l0,0.078l-0.013,0.077l0,0.09l-0.013,0.077l0,0.078l-0.013,0.09l0,0.077l-0.012,0.077l-0,0.168l0.012,-0.013l0.013,-0l0.026,-0.013l0.013,-0l0.013,-0.013l0.026,0l0.013,-0.013l0.038,0l0.013,-0.013l0.013,0l0.026,-0.013l0.025,0l0.026,-0.012l0.026,-0l0.026,-0.013l0.051,-0l0.013,-0.013l0.052,-0l0.025,-0.013l0.091,-0l0.012,-0.013l0.361,0l0.025,0.013l0.091,-0l0.012,0.013l0.052,-0l0.013,0.013l0.064,-0l0.013,0.013l0.039,-0l0.013,0.012l0.038,0l0.013,0.013l0.013,0l0.026,0.013l0.038,0l0.013,0.013l0.026,0l0,0.013l0.065,-0l-0,0.013l0.038,-0l0.013,-0.013l0.051,-0l0.013,-0.013l0.026,0l-0,-0.013l0.013,0l0.013,-0.013l0.039,0l0.012,-0.013l0.013,0l0.013,-0.012l0.013,-0l0.013,-0.013l0.039,-0l0.012,-0.013l0.026,-0l0.013,-0.013l0.038,-0l0.013,-0.013l0.026,0l0.013,-0.013l0.064,0l0.013,-0.013l0.065,0l0.013,-0.013l0.334,0l0.013,0.013l0.077,0l0.013,0.013l0.052,0l0.013,0.013l0.038,0l0.026,0.013l0.026,-0l0.013,0.013l0.026,-0l0.025,0.013l0.013,-0l0.013,0.013l0.039,-0l0.012,0.012l0.065,0l0.013,0.013l0.103,0l0.013,-0.013l0.064,0l0.013,-0.012l0.026,-0l0.013,-0.013l0.025,-0l0.013,-0.013l0.026,-0l0.013,-0.013l0.012,-0l0.026,-0.026l0.026,0l0.013,-0.013l0.013,0l0.013,-0.013l0.026,0l-0,-0.013l0.025,0l0.013,-0.012l0.039,-0l0.013,-0.013l0.051,-0l-0,-0.013l0.258,-0l-0,0.013l0.064,-0l0.013,0.013l0.025,-0l0.013,0.012l0.026,0l0.013,0.013l0.026,0l0.013,0.013l0.013,0l0.012,0.013l0.013,0l0.013,0.013l0.026,0l-0,0.013l0.026,-0l0.013,0.013l0.025,-0l0.013,0.013l0.052,-0l0.012,0.013l0.155,-0l0.013,-0.013l0.052,-0l0.012,-0.013l0.039,-0l0.013,-0.013l0.025,-0l0,-0.013l0.026,0l0,-0.013l0.026,0l0.013,-0.013l0.013,0l0.013,-0.013l0.013,0l0.013,-0.013l0.038,0l-0,-0.012l0.039,-0l-0,-0.013l0.064,-0l0.013,-0.013l0.167,-0l0.013,0.013l0.064,-0l0.014,0.013l0.025,-0l0.013,0.012l0.026,0l0.013,0.013l0.025,0l0,0.013l0.026,0l0.013,0.013l0.013,0l0.026,0.026l-0,-1.185l0.012,-0.116l0,-0.708l0.013,-0.116l0,-0.36l0.013,-0.116l0,-0.348l0.013,-0.116l0,-0.244l0.013,-0.116l0,-0.232l0.013,-0.116l-0,-0.244l0.013,-0.116l-0,-0.116l0.013,-0.116l-0,-0.116l0.012,-0.116l0,-0.116l0.013,-0.128l0,-0.116l0.013,-0.116l0,-0.116l0.013,-0.116l0,-0.116l0.013,-0.116l0,-0.128l0.013,-0.116l-0,-0.116l0.026,-0.232l-0,-0.116l0.013,-0.116l0.012,-0.129l0,-0.115l0.026,-0.232l0,-0.116l0.039,-0.348l-0,-0.128l0.038,-0.348l0,-0.116l0.013,-0.116l0.026,-0.232l0.013,-0.128l0.013,-0.116l0.013,-0.116l-0,-0.116l0.038,-0.348l0.013,-0.116l0.013,-0.115l0.013,-0.129l0.051,-0.464l0.026,-0.232l0.052,-0.463l0.025,-0.129l0.013,-0.116l0.013,-0.116l0.026,-0.231l0.026,-0.232l0.025,-0.116l0.026,-0.232l0.013,-0.116l0.013,-0.116l0.013,-0.064l-0,-0.013l0.013,-0.051l-0,-0.052l0.013,-0.064l-0.013,0.116l-0.013,0.064l-0,0.039l-0.013,0.051l-0,0.065l-0.013,0.051l0,0.052l-0.013,0.051l0,0.052l-0.013,0.051l0,0.064l-0.013,0.052Zm-124.484,-37.106c0.697,1.147 1.535,2.192 2.487,3.114c0.953,0.923 2.02,1.723 3.175,2.379c1.155,0.656 2.398,1.17 3.701,1.519c1.304,0.351 2.67,0.534 4.069,0.534c1.393,0 2.751,-0.183 4.049,-0.529c1.299,-0.346 2.536,-0.854 3.687,-1.505c1.151,-0.651 2.215,-1.443 3.166,-2.359c0.951,-0.915 1.79,-1.952 2.489,-3.089l-0,31.423l-8.09,-0l0,24.346l-10.643,-0l-0,-24.346l-8.09,-0l-0,-31.487Zm-62.74,0.071l-0.001,-0.002l0.001,-0l0,0.001l0,0.001Zm0,-0c0.699,1.135 1.538,2.169 2.489,3.082c0.951,0.913 2.016,1.704 3.167,2.354c1.151,0.649 2.389,1.157 3.686,1.502c1.298,0.346 2.657,0.528 4.049,0.528c1.37,-0 2.707,-0.177 3.986,-0.511c1.279,-0.334 2.5,-0.826 3.637,-1.457c1.138,-0.63 2.192,-1.4 3.139,-2.286c0.946,-0.887 1.785,-1.894 2.49,-3l0,31.203l-8.089,-0l-0,24.346l-10.464,0l-0,-24.346l-8.09,-0l0,-31.415Zm49.923,31.415l0,24.346l-10.463,0l0,-24.346l-8.09,-0l0,-31.203c0.706,1.106 1.544,2.112 2.49,3c0.947,0.888 2.001,1.656 3.139,2.286c1.138,0.632 2.359,1.123 3.638,1.457c1.279,0.334 2.616,0.512 3.986,0.512c1.392,-0 2.75,-0.183 4.048,-0.528c1.298,-0.345 2.536,-0.853 3.686,-1.502c1.152,-0.649 2.216,-1.441 3.167,-2.354c0.952,-0.913 1.791,-1.948 2.49,-3.084l-0,7.854l-0.001,7.854l-0,15.708l-8.09,-0Zm71.01,-0l-8.09,-0l0,24.346l-10.464,0l0,-24.346l-8.089,-0l-0,-31.196c0.705,1.105 1.544,2.11 2.49,2.997c0.947,0.888 2.001,1.656 3.139,2.287c1.137,0.631 2.358,1.124 3.636,1.458c1.279,0.335 2.616,0.513 3.986,0.513c1.392,0 2.75,-0.183 4.048,-0.529c1.298,-0.346 2.536,-0.854 3.687,-1.504c1.151,-0.65 2.215,-1.444 3.167,-2.357c0.952,-0.914 1.79,-1.949 2.49,-3.085l-0,31.416Zm31.369,-0l-8.089,-0l-0,24.346l-10.464,0l-0,-24.346l-8.09,-0l0,-31.196c0.706,1.105 1.545,2.11 2.491,2.996c0.947,0.887 2.002,1.654 3.139,2.284c1.138,0.631 2.359,1.122 3.638,1.456c1.278,0.334 2.615,0.512 3.985,0.512c1.392,-0 2.75,-0.183 4.048,-0.528c1.298,-0.345 2.536,-0.853 3.687,-1.502c1.15,-0.649 2.215,-1.441 3.166,-2.354c0.951,-0.913 1.79,-1.948 2.489,-3.084l0,31.416Z"/></g></svg>