<?xml version="1.0" encoding="UTF-8" standalone="no"?><!DOCTYPE svg PUBLIC "-//W3C//DTD SVG 1.1//EN" "http://www.w3.org/Graphics/SVG/1.1/DTD/svg11.dtd"><svg width="100%" height="100%" viewBox="0 0 514 454" version="1.1" xmlns="http://www.w3.org/2000/svg" xmlns:xlink="http://www.w3.org/1999/xlink" xml:space="preserve" xmlns:serif="http://www.serif.com/" style="fill-rule:evenodd;clip-rule:evenodd;stroke-linejoin:round;stroke-miterlimit:2;"><g id="scale-value" transform="matrix(50,0,0,50,350.88,262.709)"></g><text x="163.258px" y="262.709px" style="font-family:'ArialMT', 'Arial', sans-serif;font-size:50px;">sw=38.4</text><g id="_550.1-Accompanied-or-Ridden-Horses-or-Ponies" serif:id="550.1 Accompanied or Ridden Horses or Ponies"><path d="M227.178,17.004c6.076,-10.522 17.302,-17.004 29.452,-17.004c12.149,0 23.376,6.482 29.452,17.004c54.065,93.625 168.545,291.872 222.619,385.514c6.077,10.524 6.079,23.491 0.003,34.016c-6.075,10.525 -17.303,17.009 -29.455,17.009l-445.238,0c-12.152,0 -23.38,-6.484 -29.455,-17.009c-6.076,-10.525 -6.074,-23.492 0.003,-34.016c54.074,-93.642 168.554,-291.889 222.619,-385.514Z" style="fill:#e31837;"/><path d="M256.665,56.708l202.961,351.496l-405.922,-0l202.961,-351.496Z" style="fill:#fff;"/><path d="M345.89,282.842c0.019,0.202 0.019,0.407 0,0.608c-0.019,0.203 -0.057,0.418 -0.114,0.608c-0.055,0.185 -0.145,0.358 -0.228,0.532c-0.184,0.387 -0.596,1.185 -0.875,1.786c-0.278,0.602 -0.55,1.21 -0.797,1.824c-0.247,0.614 -0.533,1.482 -0.685,1.863c-0.059,0.147 -0.139,0.291 -0.227,0.418c-0.088,0.125 -0.185,0.247 -0.305,0.342c-0.12,0.095 -0.272,0.171 -0.418,0.228c-0.146,0.057 -0.304,0.095 -0.456,0.114c-0.151,0.018 -0.307,0.029 -0.456,-0c-0.26,-0.051 -0.747,-0.184 -1.102,-0.304c-0.349,-0.119 -0.696,-0.254 -1.026,-0.418c-0.329,-0.165 -0.646,-0.361 -0.95,-0.57c-0.304,-0.21 -0.603,-0.433 -0.874,-0.685c-0.272,-0.253 -0.501,-0.867 -0.761,-0.836c-0.259,0.032 -0.557,0.666 -0.797,1.026c-0.241,0.361 -0.425,1.033 -0.647,1.141c-0.222,0.107 -0.467,-0.315 -0.683,-0.494c-0.222,-0.184 -0.444,-0.393 -0.647,-0.609c-0.203,-0.215 -0.399,-0.443 -0.57,-0.684c-0.171,-0.24 -0.323,-0.5 -0.456,-0.76c-0.132,-0.257 -0.248,-0.524 -0.342,-0.798c-0.095,-0.278 -0.165,-0.582 -0.228,-0.874c-0.063,-0.289 -0.126,-0.582 -0.152,-0.874c-0.025,-0.29 -0.007,-0.582 0,-0.874c0.013,-0.506 0.032,-1.45 0.076,-2.166c0.044,-0.711 0.164,-1.684 0.19,-2.128c0.01,-0.177 -0.007,-0.361 -0.038,-0.532c-0.032,-0.169 -0.076,-0.342 -0.152,-0.494c-0.076,-0.152 -0.19,-0.291 -0.304,-0.418c-0.114,-0.126 -0.234,-0.253 -0.38,-0.342c-0.145,-0.089 -0.327,-0.132 -0.494,-0.19c-0.31,-0.108 -0.918,-0.287 -1.368,-0.456c-0.456,-0.171 -0.925,-0.361 -1.368,-0.57c-0.441,-0.208 -0.874,-0.437 -1.292,-0.684c-0.418,-0.247 -0.824,-0.513 -1.217,-0.798c-0.392,-0.285 -0.772,-0.595 -1.14,-0.912c-0.366,-0.316 -0.725,-0.643 -1.064,-0.988c-0.342,-0.348 -0.779,-0.88 -0.988,-1.102c-0.08,-0.085 -0.171,-0.165 -0.266,-0.228c-0.094,-0.063 -0.203,-0.12 -0.304,-0.152c-0.098,-0.03 -0.202,-0.038 -0.304,-0.038c-0.108,-0 -0.234,0.006 -0.342,0.038c-0.108,0.032 -0.21,0.089 -0.304,0.152c-0.095,0.063 -0.197,0.139 -0.266,0.228c-0.07,0.089 -0.115,0.197 -0.152,0.304c-0.038,0.108 -0.061,0.226 -0.076,0.342c-0.07,0.513 -0.203,1.83 -0.342,2.736c-0.139,0.904 -0.311,1.805 -0.494,2.698c-0.184,0.891 -0.376,1.781 -0.608,2.66c-0.235,0.887 -0.514,1.786 -0.799,2.66c-0.283,0.869 -0.576,1.736 -0.912,2.584c-0.335,0.849 -0.716,1.681 -1.102,2.508c-0.386,0.83 -0.785,1.66 -1.216,2.471c-0.431,0.81 -0.893,1.608 -1.368,2.394c-0.475,0.784 -0.963,1.564 -1.482,2.318c-0.519,0.753 -1.318,1.754 -1.635,2.204c-0.107,0.153 -0.19,0.323 -0.266,0.494c-0.076,0.171 -0.152,0.354 -0.19,0.532c-0.037,0.174 -0.036,0.354 -0.038,0.532c-0.006,0.526 0.026,1.754 0,2.622c-0.025,0.862 -0.082,1.724 -0.152,2.584c-0.069,0.861 -0.152,1.726 -0.266,2.584c-0.114,0.861 -0.259,1.729 -0.418,2.584c-0.158,0.853 -0.329,1.704 -0.532,2.546c-0.203,0.843 -0.433,1.679 -0.684,2.508c-0.253,0.836 -0.665,1.97 -0.836,2.508c-0.075,0.238 -0.152,0.476 -0.19,0.722c-0.038,0.247 -0.051,0.507 -0.038,0.76c0.013,0.254 0.057,0.513 0.114,0.76c0.057,0.246 0.133,0.494 0.228,0.722c0.094,0.225 0.207,0.444 0.342,0.646c0.139,0.209 0.313,0.42 0.494,0.609c2.971,3.09 14.284,14.776 17.33,17.936c0.324,0.336 0.653,0.678 0.951,1.026c0.293,0.343 0.578,0.694 0.836,1.064c0.259,0.374 0.5,0.779 0.722,1.178c0.22,0.396 0.431,0.799 0.608,1.216c0.177,0.418 0.323,0.855 0.456,1.292c0.133,0.437 0.238,0.884 0.342,1.33c0.133,0.57 0.343,1.386 0.456,2.09c0.114,0.71 0.006,1.475 0.228,2.166c0.342,1.064 1.197,2.825 1.824,4.219c0.625,1.39 1.261,2.776 1.938,4.142c0.678,1.368 1.394,2.724 2.129,4.066c0.735,1.342 1.824,3.167 2.28,3.99c0.17,0.307 0.33,0.622 0.456,0.95c0.127,0.329 0.235,0.678 0.304,1.026c0.07,0.348 0.108,0.709 0.114,1.064c0.007,0.355 -0.02,0.713 -0.076,1.064c-0.095,0.602 -0.304,1.704 -0.494,2.546c-0.191,0.842 -0.406,1.685 -0.647,2.508c-0.239,0.819 -0.501,1.632 -0.797,2.432c-0.298,0.805 -0.64,1.609 -0.989,2.394c-0.347,0.782 -0.709,1.558 -1.101,2.318c-0.393,0.76 -0.812,1.509 -1.255,2.242c-0.444,0.735 -1.128,1.768 -1.406,2.167c-0.067,0.095 -0.164,0.183 -0.266,0.228c-0.101,0.044 -0.234,0.057 -0.342,0.038c-0.107,-0.019 -0.221,-0.075 -0.304,-0.152c-0.259,-0.241 -0.861,-0.843 -1.254,-1.292c-0.392,-0.449 -0.754,-0.925 -1.102,-1.407c-0.348,-0.481 -0.684,-0.975 -0.988,-1.482c-0.303,-0.505 -0.591,-1.022 -0.836,-1.558c-0.247,-0.538 -0.456,-1.108 -0.646,-1.672c-0.19,-0.562 -0.355,-1.133 -0.494,-1.71c-0.14,-0.576 -0.463,-1.292 -0.343,-1.748c0.121,-0.456 0.698,-0.672 1.065,-0.988c0.367,-0.316 0.753,-0.621 1.14,-0.912c0.384,-0.29 0.771,-0.579 1.178,-0.836c0.412,-0.26 1.026,-0.564 1.292,-0.722c0.109,-0.065 0.224,-0.13 0.304,-0.228c0.082,-0.101 0.152,-0.247 0.19,-0.38c0.038,-0.133 0.051,-0.285 0.038,-0.418c-0.012,-0.132 -0.051,-0.264 -0.114,-0.38c-0.12,-0.222 -0.399,-0.646 -0.608,-0.95c-0.205,-0.299 -0.416,-0.594 -0.646,-0.874c-0.234,-0.285 -0.602,-0.652 -0.76,-0.836c-0.071,-0.083 -0.146,-0.166 -0.19,-0.266c-0.044,-0.101 -0.058,-0.227 -0.076,-0.342c-0.07,-0.45 -0.204,-1.575 -0.342,-2.356c-0.14,-0.785 -0.304,-1.577 -0.494,-2.356c-0.19,-0.779 -0.406,-1.553 -0.646,-2.318c-0.241,-0.767 -0.507,-1.533 -0.798,-2.28c-0.291,-0.746 -0.609,-1.482 -0.951,-2.204c-0.342,-0.722 -0.712,-1.431 -1.102,-2.128c-0.392,-0.703 -0.817,-1.419 -1.254,-2.091c-0.431,-0.662 -0.845,-1.345 -1.368,-1.938c-0.862,-0.975 -2.515,-2.634 -3.801,-3.914c-1.283,-1.276 -2.597,-2.521 -3.914,-3.762c-1.318,-1.241 -2.642,-2.477 -3.991,-3.686c-1.349,-1.21 -2.723,-2.4 -4.104,-3.572c-1.379,-1.17 -2.77,-2.326 -4.181,-3.458c-1.412,-1.134 -3.509,-2.743 -4.294,-3.344c-0.132,-0.101 -0.273,-0.203 -0.418,-0.266c-0.144,-0.063 -0.302,-0.09 -0.457,-0.114c-0.158,-0.026 -0.329,-0.045 -0.494,-0.038c-0.164,0.006 -0.335,0.025 -0.494,0.076c-0.158,0.05 -0.316,0.139 -0.456,0.228c-0.137,0.087 -0.267,0.188 -0.38,0.304c-0.241,0.247 -0.726,0.771 -1.064,1.178c-0.342,0.411 -0.684,0.848 -0.988,1.292c-0.302,0.441 -0.577,0.906 -0.836,1.368c-0.258,0.459 -0.504,0.926 -0.722,1.406c-0.222,0.488 -0.431,1.013 -0.608,1.52c-0.175,0.499 -0.331,1.006 -0.456,1.52c-0.127,0.519 -0.228,1.064 -0.304,1.596c-0.076,0.529 -0.121,1.064 -0.153,1.596c-0.031,0.531 0.019,1.108 -0.038,1.596c-0.052,0.452 -0.184,0.891 -0.304,1.33c-0.12,0.444 -0.247,0.9 -0.418,1.33c-0.171,0.431 -0.392,0.849 -0.608,1.254c-0.213,0.401 -0.425,0.805 -0.684,1.178c-0.259,0.374 -0.614,0.686 -0.874,1.064c-0.374,0.545 -0.887,1.489 -1.368,2.204c-0.481,0.715 -1.007,1.4 -1.52,2.09c-0.513,0.69 -1.107,1.322 -1.559,2.053c-1.431,2.318 -5.795,9.747 -7.03,11.856c-0.149,0.254 -0.273,0.526 -0.381,0.798c-0.107,0.272 -0.196,0.552 -0.266,0.836c-0.069,0.285 -0.12,0.583 -0.152,0.874c-0.031,0.29 -0.04,0.582 -0.038,0.874c0.007,0.69 0.057,2.508 0.076,3.268c0.011,0.431 -0.005,0.863 0.038,1.292c0.045,0.437 0.14,0.9 0.228,1.33c0.087,0.421 0.172,0.845 0.304,1.254c0.134,0.412 0.312,0.819 0.495,1.216c0.183,0.399 0.386,0.798 0.608,1.178c0.221,0.38 0.474,0.74 0.722,1.102c0.411,0.602 1.187,1.658 1.748,2.508c0.564,0.855 1.115,1.736 1.634,2.622c0.519,0.886 1.216,2.179 1.482,2.699c0.066,0.128 0.108,0.285 0.114,0.418c0.007,0.129 -0.033,0.258 -0.076,0.38c-0.044,0.126 -0.101,0.278 -0.19,0.38c-0.088,0.101 -0.217,0.171 -0.342,0.228c-0.304,0.139 -0.978,0.431 -1.482,0.608c-0.507,0.177 -1.039,0.316 -1.558,0.456c-0.516,0.138 -1.033,0.285 -1.558,0.38c-0.526,0.095 -1.064,0.145 -1.597,0.19c-0.53,0.044 -1.064,0.069 -1.596,0.076c-0.532,0.006 -1.065,-0 -1.596,-0.038c-0.532,-0.038 -1.067,-0.108 -1.596,-0.19c-0.532,-0.083 -1.077,-0.178 -1.596,-0.304c-0.514,-0.126 -1.019,-0.287 -1.521,-0.456c-0.506,-0.171 -1.662,-0.048 -1.52,-0.57c0.228,-0.836 2.363,-3.591 2.889,-4.447c0.128,-0.208 0.202,-0.449 0.266,-0.684c0.063,-0.234 0.107,-0.481 0.114,-0.722c0.006,-0.24 -0.032,-0.487 -0.076,-0.722c-0.044,-0.232 -0.095,-0.468 -0.19,-0.684c-0.095,-0.215 -0.235,-0.418 -0.38,-0.608c-0.146,-0.19 -0.317,-0.38 -0.495,-0.532c-0.173,-0.148 -0.367,-0.275 -0.57,-0.38c-0.209,-0.107 -0.464,-0.159 -0.684,-0.266c-0.221,-0.107 -0.449,-0.228 -0.646,-0.38c-0.196,-0.152 -0.38,-0.335 -0.532,-0.532c-0.152,-0.196 -0.273,-0.42 -0.38,-0.646c-0.108,-0.228 -0.215,-0.481 -0.266,-0.722c-0.05,-0.236 -0.105,-0.49 -0.038,-0.722c0.127,-0.437 0.513,-1.279 0.798,-1.9c0.284,-0.618 0.589,-1.229 0.912,-1.824c0.323,-0.594 0.668,-1.175 1.026,-1.748c0.361,-0.576 0.875,-1.159 1.141,-1.71c0.24,-0.498 0.324,-1.058 0.456,-1.596c0.133,-0.545 0.253,-1.121 0.342,-1.672c0.087,-0.541 0.172,-1.086 0.19,-1.634c0.031,-0.956 -0.026,-3.015 -0,-4.104c0.019,-0.812 0.076,-1.628 0.152,-2.432c0.075,-0.801 0.184,-1.599 0.304,-2.394c0.12,-0.798 0.247,-1.603 0.418,-2.394c0.171,-0.792 0.386,-1.578 0.608,-2.357c0.221,-0.778 0.456,-1.558 0.722,-2.318c0.265,-0.757 0.559,-1.504 0.874,-2.242c0.317,-0.741 0.666,-1.478 1.026,-2.204c0.361,-0.728 0.741,-1.463 1.14,-2.166c0.396,-0.697 0.813,-1.383 1.255,-2.052c0.443,-0.671 1.235,-1.267 1.406,-1.976c0.171,-0.709 -0.279,-1.52 -0.38,-2.28c-0.101,-0.757 -0.171,-1.52 -0.228,-2.28c-0.057,-0.759 -0.095,-1.52 -0.114,-2.28c-0.019,-0.76 -0.019,-1.52 -0,-2.28c0.019,-0.76 0.051,-1.522 0.114,-2.28c0.063,-0.76 0.817,-2.078 0.266,-2.28c-0.551,-0.203 -2.382,0.734 -3.573,1.064c-1.184,0.327 -2.376,0.628 -3.572,0.912c-1.204,0.285 -2.433,0.557 -3.649,0.798c-1.211,0.24 -2.428,0.456 -3.648,0.646c-1.223,0.19 -2.458,0.354 -3.687,0.494c-1.226,0.139 -2.457,0.247 -3.686,0.342c-1.228,0.095 -2.457,0.177 -3.687,0.228c-1.235,0.05 -2.489,0.076 -3.724,0.076c-1.229,-0 -2.459,-0.026 -3.687,-0.076c-1.235,-0.051 -2.489,-0.133 -3.724,-0.228c-1.231,-0.095 -2.461,-0.203 -3.687,-0.342c-1.229,-0.14 -2.464,-0.304 -3.686,-0.494c-1.221,-0.19 -2.439,-0.406 -3.649,-0.646c-1.209,-0.241 -2.411,-0.514 -3.61,-0.798c-1.204,-0.285 -2.42,-0.583 -3.611,-0.912c-1.186,-0.328 -2.361,-0.692 -3.534,-1.064c-1.178,-0.374 -2.369,-0.76 -3.535,-1.178c-1.162,-0.417 -2.318,-0.862 -3.458,-1.33c-1.139,-0.468 -2.756,-1.223 -3.383,-1.482c-0.119,-0.05 -0.253,-0.07 -0.38,-0.076c-0.126,-0.007 -0.259,-0 -0.38,0.038c-0.12,0.038 -0.247,0.107 -0.342,0.19c-0.095,0.082 -0.159,0.197 -0.228,0.304c-0.139,0.215 -0.393,0.671 -0.608,0.988c-0.214,0.314 -0.438,0.622 -0.684,0.912c-0.247,0.291 -0.519,0.57 -0.798,0.836c-0.279,0.266 -0.57,0.532 -0.874,0.76c-0.301,0.225 -0.729,0.456 -0.95,0.608c-0.134,0.091 -0.266,0.19 -0.38,0.304c-0.114,0.114 -0.222,0.24 -0.304,0.38c-0.083,0.139 -0.14,0.304 -0.191,0.456c-0.049,0.148 -0.095,0.3 -0.114,0.456c-0.019,0.158 -0.016,0.33 0,0.494c0.038,0.373 0.184,1.162 0.229,1.748c0.044,0.589 0.038,1.19 0.038,1.786c-0,0.595 0.006,1.192 -0.038,1.786c-0.045,0.595 -0.14,1.197 -0.229,1.786c-0.088,0.585 -0.177,1.172 -0.304,1.748c-0.126,0.576 -0.28,1.147 -0.456,1.71c-0.177,0.57 -0.386,1.153 -0.608,1.71c-0.22,0.553 -0.462,1.102 -0.722,1.634c-0.258,0.53 -0.54,1.048 -0.836,1.558c-0.298,0.513 -0.735,1.153 -0.95,1.52c-0.129,0.22 -0.247,0.45 -0.342,0.684c-0.095,0.234 -0.184,0.475 -0.228,0.722c-0.044,0.247 -0.044,0.513 -0.038,0.76c0.006,0.242 0.029,0.485 0.076,0.722c0.177,0.906 0.69,3.135 0.988,4.712c0.298,1.578 0.57,3.167 0.798,4.751c0.227,1.578 0.406,3.164 0.57,4.75c0.165,1.589 0.323,3.832 0.418,4.788c0.032,0.319 0.076,0.64 0.152,0.95c0.076,0.31 0.184,0.621 0.304,0.912c0.119,0.288 0.254,0.571 0.418,0.836c0.165,0.266 0.363,0.521 0.57,0.76c0.209,0.241 0.444,0.475 0.685,0.684c0.239,0.208 0.497,0.393 0.76,0.57c0.449,0.304 1.305,0.817 1.938,1.254c0.633,0.437 1.255,0.894 1.862,1.368c0.608,0.475 1.21,0.969 1.786,1.482c0.576,0.512 1.131,1.048 1.673,1.596c0.544,0.551 1.089,1.128 1.596,1.71c0.502,0.578 0.984,1.175 1.444,1.786c0.462,0.615 0.901,1.257 1.33,1.9c0.431,0.646 0.868,1.305 1.254,1.976c0.385,0.668 0.723,1.362 1.065,2.053c0.342,0.69 0.804,1.672 0.988,2.09c0.058,0.132 0.095,0.274 0.114,0.418c0.019,0.145 0.012,0.31 -0,0.456c-0.013,0.141 -0.032,0.285 -0.076,0.418c-0.045,0.133 -0.115,0.26 -0.19,0.38c-0.076,0.12 -0.165,0.24 -0.266,0.342c-0.102,0.101 -0.199,0.247 -0.342,0.266c-0.57,0.076 -2.053,0.158 -3.079,0.19c-1.025,0.031 -2.053,0.031 -3.078,-0c-1.026,-0.032 -2.054,-0.102 -3.079,-0.19c-1.026,-0.089 -2.464,-0.064 -3.078,-0.342c-0.444,-0.202 -0.431,-0.887 -0.608,-1.33c-0.174,-0.436 -0.325,-0.88 -0.456,-1.33c-0.133,-0.456 -0.26,-0.931 -0.342,-1.406c-0.083,-0.475 -0.121,-0.963 -0.152,-1.445c-0.032,-0.48 -0.057,-0.969 -0.038,-1.444c0.019,-0.471 0.12,-1.089 0.152,-1.406c0.016,-0.164 0.05,-0.335 0.038,-0.494c-0.013,-0.156 -0.052,-0.312 -0.114,-0.456c-0.064,-0.145 -0.159,-0.297 -0.266,-0.418c-0.108,-0.12 -0.247,-0.221 -0.38,-0.304c-0.131,-0.08 -0.265,-0.187 -0.418,-0.19c-0.691,-0.012 -2.997,0.095 -3.725,0.114c-0.215,0.006 -0.432,0.019 -0.646,0c-0.215,-0.019 -0.443,-0.044 -0.646,-0.114c-0.203,-0.069 -0.393,-0.183 -0.57,-0.304c-0.178,-0.12 -0.345,-0.262 -0.494,-0.418c-0.152,-0.158 -0.311,-0.342 -0.418,-0.532c-0.107,-0.188 -0.199,-0.393 -0.228,-0.608c-0.089,-0.652 -0.179,-2.206 -0.304,-3.306c-0.127,-1.108 -0.285,-2.242 -0.456,-3.344c-0.17,-1.093 -0.35,-2.184 -0.571,-3.268c-0.221,-1.089 -0.481,-2.185 -0.76,-3.268c-0.278,-1.083 -0.582,-2.166 -0.912,-3.23c-0.328,-1.06 -0.685,-2.112 -1.064,-3.154c-0.38,-1.045 -0.787,-2.087 -1.216,-3.116c-0.431,-1.033 -0.887,-2.071 -1.368,-3.079c-0.479,-1.001 -0.996,-1.985 -1.52,-2.964c-0.526,-0.981 -1.299,-2.305 -1.635,-2.926c-0.14,-0.259 -0.272,-0.525 -0.38,-0.798c-0.107,-0.272 -0.198,-0.551 -0.266,-0.836c-0.069,-0.291 -0.133,-0.614 -0.152,-0.912c-0.018,-0.291 0.007,-0.584 0.038,-0.874c0.032,-0.291 0.076,-0.589 0.152,-0.874c0.076,-0.285 0.174,-0.57 0.304,-0.836c0.627,-1.279 2.857,-5.637 3.459,-6.84c0.061,-0.122 0.126,-0.247 0.152,-0.38c0.025,-0.133 0.019,-0.28 -0,-0.418c-0.019,-0.139 -0.051,-0.291 -0.114,-0.418c-0.064,-0.127 -0.165,-0.247 -0.266,-0.342c-0.1,-0.094 -0.222,-0.165 -0.342,-0.228c-0.121,-0.063 -0.245,-0.134 -0.38,-0.152c-0.14,-0.019 -0.317,0.006 -0.456,0.038c-0.134,0.03 -0.256,0.096 -0.381,0.152c-2.882,1.292 -14.042,6.302 -16.912,7.6c-0.109,0.049 -0.214,0.112 -0.304,0.19c-0.095,0.082 -0.196,0.196 -0.266,0.304c-0.068,0.105 -0.12,0.222 -0.152,0.342c-0.323,1.223 -1.412,5.65 -1.786,6.992c-0.104,0.372 -0.279,0.722 -0.456,1.064c-0.178,0.342 -0.38,0.678 -0.608,0.988c-0.228,0.311 -0.488,0.602 -0.76,0.874c-0.273,0.273 -0.59,0.532 -0.875,0.76c-0.269,0.216 -0.583,0.375 -0.836,0.608c-0.253,0.235 -0.481,0.52 -0.684,0.799c-0.2,0.275 -0.487,0.535 -0.532,0.874c-0.38,2.862 -1.438,13.395 -1.748,16.302c-0.041,0.38 -0.101,0.76 -0.114,1.14c-0.013,0.38 0.013,0.761 0.038,1.14c0.025,0.38 0.057,0.766 0.114,1.14c0.057,0.371 0.146,0.798 0.228,1.102c0.067,0.248 0.191,0.477 0.266,0.722c0.076,0.247 0.152,0.507 0.19,0.76c0.038,0.251 0.051,0.507 0.038,0.76c-0.013,0.254 -0.058,0.51 -0.114,0.76c-0.057,0.254 -0.133,0.52 -0.228,0.76c-0.094,0.237 -0.221,0.46 -0.342,0.684c-0.171,0.317 -0.432,0.826 -0.684,1.216c-0.254,0.393 -0.539,0.779 -0.836,1.14c-0.297,0.36 -0.621,0.703 -0.95,1.026c-0.327,0.321 -0.67,0.625 -1.027,0.912c-0.361,0.292 -0.747,0.583 -1.14,0.836c-0.391,0.253 -0.798,0.482 -1.216,0.685c-0.418,0.202 -0.855,0.373 -1.292,0.532c-0.437,0.158 -0.881,0.304 -1.33,0.418c-0.45,0.114 -0.908,0.202 -1.368,0.266c-0.463,0.063 -0.938,0.095 -1.407,0.114c-0.468,0.019 -0.943,0.031 -1.406,-0c-0.459,-0.032 -1.045,0.133 -1.368,-0.19c-0.323,-0.323 -0.405,-1.159 -0.57,-1.749c-0.165,-0.588 -0.298,-1.19 -0.418,-1.786c-0.12,-0.592 -0.228,-1.186 -0.304,-1.786c-0.076,-0.601 -0.121,-1.216 -0.152,-1.824c-0.032,-0.607 -0.045,-1.222 -0.038,-1.824c0.006,-0.596 0.026,-1.192 0.076,-1.786c0.05,-0.601 0.133,-1.222 0.228,-1.824c0.094,-0.599 0.063,-1.596 0.342,-1.786c0.279,-0.19 0.88,0.456 1.33,0.646c0.447,0.189 0.906,0.348 1.368,0.494c0.463,0.146 1.077,0.298 1.406,0.38c0.188,0.047 0.387,0.101 0.571,0.114c0.177,0.012 0.357,-0.002 0.532,-0.038c0.183,-0.038 0.399,-0.108 0.57,-0.19c0.164,-0.079 0.323,-0.178 0.456,-0.304c0.133,-0.127 0.24,-0.298 0.342,-0.456c0.101,-0.157 0.209,-0.317 0.266,-0.494c0.057,-0.177 0.076,-0.38 0.076,-0.57c-0,-0.19 -0.032,-0.386 -0.076,-0.57c-0.044,-0.183 -0.266,-0.374 -0.19,-0.532c0.076,-0.158 0.441,-0.263 0.646,-0.418c0.209,-0.158 0.418,-0.342 0.608,-0.532c0.19,-0.19 0.374,-0.393 0.532,-0.608c0.158,-0.215 0.298,-0.45 0.418,-0.684c0.119,-0.232 0.216,-0.476 0.304,-0.722c0.089,-0.247 0.208,-0.496 0.228,-0.76c0.083,-1.077 0.197,-3.8 0.266,-5.7c0.07,-1.9 0.121,-3.8 0.152,-5.7c0.032,-1.9 0.045,-3.8 0.038,-5.701c-0.006,-1.906 -0.019,-3.831 -0.076,-5.738c-0.057,-1.901 -0.221,-4.623 -0.266,-5.7c-0.01,-0.253 -0.019,-0.507 0,-0.76c0.019,-0.253 0.051,-0.513 0.114,-0.76c0.064,-0.247 0.152,-0.494 0.266,-0.722c0.114,-0.228 0.257,-0.447 0.418,-0.646c0.165,-0.203 0.368,-0.405 0.57,-0.57c0.199,-0.162 0.423,-0.292 0.646,-0.418c0.381,-0.215 1.097,-0.57 1.635,-0.874c0.538,-0.304 1.083,-0.608 1.596,-0.95c0.512,-0.342 1.121,-0.684 1.482,-1.102c0.341,-0.395 0.482,-0.938 0.684,-1.406c0.199,-0.46 0.383,-0.928 0.532,-1.406c0.152,-0.488 0.285,-1.014 0.38,-1.52c0.094,-0.502 0.146,-1.014 0.19,-1.52c0.045,-0.506 0.089,-1.014 0.076,-1.52c-0.012,-0.507 -0.076,-1.017 -0.152,-1.52c-0.076,-0.507 -0.177,-1.02 -0.304,-1.52c-0.126,-0.501 -0.27,-1 -0.456,-1.483c-0.247,-0.639 -0.699,-1.564 -1.026,-2.356c-0.329,-0.798 -0.665,-1.609 -0.95,-2.432c-0.285,-0.823 -0.519,-1.672 -0.76,-2.508c-0.24,-0.832 -0.488,-1.665 -0.684,-2.508c-0.196,-0.842 -0.349,-1.694 -0.494,-2.546c-0.146,-0.855 -0.279,-1.723 -0.38,-2.584c-0.101,-0.859 -0.178,-1.721 -0.228,-2.584c-0.051,-0.868 -0.076,-1.754 -0.076,-2.622c-0,-0.862 0.031,-1.724 0.076,-2.584c0.044,-0.862 0.101,-1.725 0.19,-2.584c0.088,-0.862 0.203,-1.727 0.342,-2.584c0.139,-0.862 0.304,-1.736 0.494,-2.584c0.188,-0.843 0.413,-1.677 0.646,-2.509c0.234,-0.836 0.481,-1.684 0.76,-2.508c0.278,-0.82 0.589,-1.628 0.912,-2.432c0.323,-0.804 1.128,-2.039 1.026,-2.394c-0.101,-0.354 -1.096,0.159 -1.634,0.266c-0.536,0.108 -1.077,0.228 -1.596,0.38c-0.515,0.151 -1.02,0.338 -1.52,0.532c-0.507,0.197 -1.033,0.406 -1.521,0.646c-0.483,0.239 -0.95,0.511 -1.406,0.798c-0.462,0.292 -0.931,0.621 -1.368,0.95c-0.431,0.325 -0.857,0.661 -1.254,1.026c-0.399,0.368 -0.773,0.774 -1.14,1.178c-0.368,0.406 -0.735,0.817 -1.064,1.254c-0.33,0.437 -0.628,0.9 -0.913,1.369c-0.285,0.468 -0.551,0.956 -0.798,1.444c-0.246,0.485 -0.482,0.976 -0.684,1.482c-0.203,0.506 -0.386,1.032 -0.532,1.558c-0.145,0.524 -0.241,1.061 -0.342,1.596c-0.101,0.538 -0.209,1.089 -0.266,1.634c-0.057,0.542 -0.097,1.089 -0.076,1.634c0.025,0.658 0.177,1.545 0.228,2.318c0.051,0.771 0.076,1.545 0.076,2.318c0,0.779 -0.025,1.577 -0.076,2.356c-0.05,0.775 -0.127,1.552 -0.228,2.318c-0.101,0.764 -0.229,1.525 -0.38,2.28c-0.152,0.76 -0.336,1.527 -0.532,2.28c-0.196,0.753 -0.412,1.501 -0.646,2.242c-0.235,0.741 -0.477,1.481 -0.76,2.204c-0.285,0.729 -0.615,1.463 -0.95,2.166c-0.332,0.696 -0.692,1.378 -1.065,2.052c-0.373,0.678 -0.766,1.356 -1.178,2.015c-0.411,0.658 -0.838,1.308 -1.292,1.938c-0.456,0.633 -0.95,1.26 -1.444,1.862c-0.49,0.596 -0.997,1.18 -1.52,1.748c-0.526,0.57 -1.071,1.134 -1.635,1.672c-0.563,0.538 -1.241,1.184 -1.748,1.558c-0.392,0.289 -0.855,0.468 -1.292,0.684c-0.437,0.215 -0.88,0.437 -1.33,0.608c-0.446,0.169 -0.905,0.305 -1.368,0.418c-0.469,0.114 -0.963,0.196 -1.445,0.266c-0.479,0.069 -0.962,0.133 -1.444,0.152c-0.481,0.019 -0.964,-0 -1.444,-0.038c-0.481,-0.038 -0.969,-0.108 -1.444,-0.19c-0.473,-0.082 -0.945,-0.172 -1.406,-0.304c-0.463,-0.133 -0.92,-0.311 -1.369,-0.494c-0.449,-0.184 -0.905,-0.38 -1.33,-0.608c-0.421,-0.226 -0.823,-0.488 -1.216,-0.76c-0.393,-0.273 -0.777,-0.562 -1.14,-0.874c-0.367,-0.317 -0.728,-0.672 -1.064,-1.026c-0.334,-0.353 -0.988,-0.957 -0.95,-1.102c0.038,-0.146 0.785,0.177 1.178,0.228c0.39,0.05 0.785,0.069 1.178,0.076c0.393,0.006 0.792,-0.007 1.178,-0.038c0.382,-0.032 0.766,-0.071 1.14,-0.152c0.38,-0.083 0.767,-0.216 1.141,-0.342c0.372,-0.126 0.747,-0.254 1.102,-0.418c0.354,-0.165 0.696,-0.361 1.026,-0.57c0.329,-0.209 0.645,-0.441 0.95,-0.684c0.31,-0.247 0.633,-0.52 0.912,-0.798c0.273,-0.273 0.524,-0.569 0.76,-0.874c0.241,-0.311 0.499,-0.633 0.684,-0.988c0.292,-0.558 0.736,-1.56 1.064,-2.356c0.33,-0.799 0.634,-1.616 0.913,-2.433c0.278,-0.815 0.533,-1.639 0.76,-2.47c0.228,-0.836 0.43,-1.697 0.608,-2.546c0.176,-0.844 0.329,-1.693 0.456,-2.546c0.126,-0.855 0.234,-1.719 0.304,-2.584c0.069,-0.868 0.088,-1.824 0.114,-2.622c0.023,-0.722 0.006,-1.45 0.038,-2.166c0.031,-0.71 0.077,-1.421 0.152,-2.128c0.076,-0.716 0.177,-1.45 0.304,-2.166c0.126,-0.715 0.285,-1.432 0.456,-2.128c0.169,-0.69 0.357,-1.375 0.57,-2.052c0.215,-0.684 0.456,-1.381 0.722,-2.052c0.265,-0.67 0.565,-1.326 0.874,-1.976c0.311,-0.653 0.64,-1.305 0.988,-1.938c0.348,-0.632 0.711,-1.257 1.103,-1.863c0.392,-0.608 0.823,-1.209 1.254,-1.786c0.426,-0.57 0.937,-1.159 1.33,-1.672c0.353,-0.46 0.666,-0.951 1.026,-1.406c0.361,-0.456 0.741,-0.905 1.14,-1.33c0.399,-0.424 0.817,-0.836 1.254,-1.216c0.436,-0.379 0.902,-0.723 1.369,-1.064c0.468,-0.342 0.95,-0.684 1.444,-0.988c0.492,-0.303 1.001,-0.583 1.52,-0.836c0.519,-0.253 1.054,-0.482 1.596,-0.684c0.545,-0.203 1.115,-0.374 1.672,-0.532c0.553,-0.157 1.107,-0.318 1.673,-0.418c0.791,-0.139 2.052,-0.298 3.078,-0.418c1.024,-0.12 2.05,-0.235 3.078,-0.304c1.033,-0.07 2.084,-0.095 3.117,-0.114c1.026,-0.019 2.053,-0.031 3.078,0c1.033,0.032 2.084,0.101 3.117,0.19c1.028,0.088 2.096,0.507 3.078,0.342c0.982,-0.165 1.863,-0.912 2.813,-1.33c0.95,-0.418 1.919,-0.811 2.888,-1.178c0.967,-0.366 1.945,-0.709 2.926,-1.026c0.981,-0.316 1.97,-0.608 2.965,-0.874c0.994,-0.266 1.997,-0.502 3.002,-0.722c1.014,-0.222 2.052,-0.437 3.079,-0.608c1.021,-0.17 2.052,-0.304 3.078,-0.418c1.024,-0.114 2.05,-0.209 3.078,-0.266c1.033,-0.057 2.084,-0.07 3.117,-0.076c1.026,-0.006 2.053,0 3.078,0.038c1.033,0.038 2.084,0.095 3.117,0.19c1.029,0.095 2.058,0.234 3.078,0.38c1.017,0.145 2.033,0.299 3.041,0.494c1.013,0.196 2.033,0.437 3.04,0.684c1.006,0.247 2.014,0.5 3.002,0.798c0.986,0.297 1.957,0.642 2.927,0.988c0.975,0.348 2.381,0.899 2.926,1.102c0.113,0.042 0.222,0.108 0.342,0.114c0.121,0.006 0.26,-0.032 0.38,-0.076c0.121,-0.044 0.247,-0.108 0.342,-0.19c0.095,-0.082 0.171,-0.196 0.228,-0.304c0.057,-0.106 0.102,-0.222 0.114,-0.342c0.013,-0.12 -0.01,-0.256 -0.038,-0.38c-0.133,-0.602 -0.526,-2.149 -0.76,-3.23c-0.234,-1.083 -0.462,-2.179 -0.646,-3.268c-0.183,-1.085 -0.323,-2.176 -0.456,-3.268c-0.133,-1.096 -0.26,-2.204 -0.342,-3.306c-0.082,-1.101 -0.12,-2.204 -0.152,-3.307c-0.032,-1.101 -0.051,-2.204 -0.038,-3.306c0.013,-1.102 0.044,-2.205 0.114,-3.306c0.07,-1.102 0.184,-2.21 0.304,-3.306c0.12,-1.091 0.254,-2.182 0.418,-3.268c0.165,-1.089 0.355,-2.185 0.57,-3.268c0.215,-1.082 0.456,-2.16 0.722,-3.23c0.266,-1.07 0.558,-2.135 0.874,-3.192c0.317,-1.058 0.666,-2.109 1.027,-3.154c0.361,-1.045 0.734,-2.09 1.14,-3.116c0.404,-1.024 0.963,-2.306 1.292,-3.04c0.209,-0.466 0.431,-0.926 0.684,-1.369c0.253,-0.443 0.539,-0.874 0.836,-1.292c0.298,-0.418 0.615,-0.829 0.95,-1.216c0.335,-0.385 0.685,-0.76 1.064,-1.102c0.38,-0.342 0.799,-0.652 1.217,-0.95c0.417,-0.297 0.848,-0.582 1.292,-0.836c0.442,-0.253 1.077,-0.525 1.368,-0.684c0.136,-0.074 0.266,-0.164 0.38,-0.266c0.114,-0.101 0.219,-0.215 0.304,-0.342c0.089,-0.133 0.184,-0.304 0.228,-0.456c0.043,-0.146 0.044,-0.303 0.038,-0.456c-0.006,-0.158 -0.032,-0.342 -0.076,-0.494c-0.043,-0.147 -0.118,-0.283 -0.19,-0.418c-0.139,-0.259 -0.45,-0.753 -0.646,-1.14c-0.195,-0.384 -0.381,-0.774 -0.532,-1.178c-0.152,-0.405 -0.279,-0.836 -0.38,-1.254c-0.1,-0.413 -0.179,-0.832 -0.228,-1.254c-0.051,-0.431 -0.065,-0.886 -0.076,-1.33c-0.013,-0.488 0.234,-1.26 -0,-1.596c-0.235,-0.336 -1.188,0.019 -1.406,-0.418c-0.222,-0.443 0.025,-1.496 0.076,-2.242c0.05,-0.747 0.139,-1.501 0.228,-2.242c0.088,-0.737 0.228,-1.647 0.304,-2.204c0.051,-0.38 0.071,-0.766 0.152,-1.14c0.082,-0.38 0.209,-0.773 0.342,-1.14c0.131,-0.363 0.278,-0.722 0.456,-1.064c0.177,-0.342 0.386,-0.672 0.608,-0.988c0.222,-0.317 0.464,-0.623 0.722,-0.912c0.26,-0.292 0.538,-0.583 0.836,-0.836c0.297,-0.253 0.621,-0.475 0.95,-0.684c0.33,-0.209 0.678,-0.406 1.026,-0.57c0.345,-0.163 0.701,-0.306 1.065,-0.418c0.367,-0.114 0.755,-0.203 1.14,-0.267c0.386,-0.063 0.791,-0.101 1.178,-0.114c0.38,-0.012 0.762,0.001 1.14,0.038c0.386,0.038 0.798,0.108 1.178,0.191c0.373,0.08 0.745,0.172 1.102,0.304c0.361,0.133 0.722,0.31 1.064,0.494c0.341,0.182 0.675,0.382 0.989,0.608c0.316,0.228 0.627,0.494 0.912,0.76c0.281,0.262 0.552,0.539 0.798,0.836c0.247,0.297 0.481,0.62 0.684,0.95c0.202,0.328 0.375,0.674 0.532,1.026c0.158,0.354 0.281,0.733 0.418,1.102c0.146,0.392 0.317,0.831 0.456,1.254c0.139,0.424 0.272,0.861 0.38,1.292c0.107,0.426 -0.034,0.97 0.266,1.292c0.532,0.57 2.42,1.742 2.927,2.128c0.058,0.045 0.107,0.116 0.114,0.19c0.006,0.076 -0.026,0.209 -0.076,0.266c-0.051,0.057 -0.148,0.074 -0.228,0.076c-0.653,0.013 -3.073,-0.975 -3.687,-0c-0.614,0.975 0.013,4.756 0,5.852c-0.003,0.242 -0.026,0.485 -0.076,0.722c-0.051,0.241 -0.133,0.5 -0.228,0.722c-0.092,0.214 -0.212,0.416 -0.342,0.608c-0.133,0.196 -0.285,0.405 -0.456,0.57c-0.17,0.164 -0.373,0.29 -0.57,0.418c-0.545,0.355 -2.211,1.394 -2.699,1.71c-0.082,0.054 -0.164,0.114 -0.228,0.19c-0.063,0.076 -0.12,0.171 -0.152,0.266c-0.031,0.095 -0.035,0.202 -0.038,0.304c-0.006,0.222 -0.006,0.786 0,1.026c0.004,0.14 0.007,0.282 0.038,0.418c0.032,0.14 0.083,0.292 0.152,0.418c0.07,0.127 0.171,0.235 0.266,0.342c0.095,0.108 0.189,0.22 0.305,0.304c0.323,0.235 1.247,0.824 1.634,1.102c0.24,0.174 0.468,0.368 0.684,0.57c0.215,0.203 0.431,0.412 0.608,0.646c0.177,0.235 0.323,0.501 0.456,0.76c0.132,0.258 0.254,0.523 0.342,0.798c0.222,0.691 0.68,2.224 0.988,3.345c0.311,1.127 0.602,2.28 0.874,3.42c0.272,1.136 0.539,2.28 0.76,3.42c0.221,1.134 0.4,2.277 0.57,3.42c0.172,1.146 0.324,2.303 0.457,3.458c0.133,1.159 0.253,2.331 0.342,3.496c0.088,1.164 0.152,2.331 0.19,3.496c0.038,1.165 0.019,2.812 0.038,3.496c0.005,0.204 0.019,0.418 0.076,0.608c0.057,0.19 0.153,0.369 0.266,0.532c0.114,0.165 0.259,0.325 0.418,0.456c1.887,1.565 8.975,7.366 10.907,8.931c0.213,0.172 0.44,0.331 0.684,0.456c0.247,0.126 0.532,0.228 0.798,0.304c0.261,0.074 0.528,0.133 0.799,0.152c0.272,0.019 0.557,-0.027 0.836,-0.038c0.297,-0.013 0.633,-0.045 0.95,-0.038c0.316,0.006 0.636,0.025 0.95,0.076c0.317,0.05 0.646,0.133 0.95,0.228c0.299,0.093 0.593,0.204 0.874,0.342c0.285,0.139 0.634,0.38 0.836,0.494c0.124,0.069 0.254,0.158 0.38,0.19c0.123,0.03 0.254,0.012 0.38,-0c0.133,-0.013 0.292,-0.026 0.418,-0.076c0.127,-0.051 0.241,-0.136 0.342,-0.228c0.659,-0.596 2.395,-2.249 3.611,-3.344c1.214,-1.094 2.443,-2.17 3.686,-3.231c1.248,-1.064 2.521,-2.128 3.801,-3.154c1.275,-1.022 2.574,-2.015 3.877,-3.002c1.304,-0.988 2.913,-2.191 3.952,-2.926c0.74,-0.523 1.514,-1.001 2.28,-1.482c0.766,-0.481 1.533,-0.963 2.319,-1.406c0.784,-0.443 1.582,-0.864 2.394,-1.254c0.817,-0.393 1.672,-0.76 2.508,-1.102c0.828,-0.338 1.665,-0.654 2.509,-0.95c0.849,-0.298 1.716,-0.583 2.584,-0.836c0.867,-0.253 1.742,-0.481 2.622,-0.684c0.881,-0.203 1.769,-0.38 2.661,-0.532c0.893,-0.152 1.799,-0.285 2.698,-0.38c0.897,-0.095 1.798,-0.146 2.699,-0.19c0.905,-0.044 1.83,-0.076 2.736,-0.076c0.9,-0 1.8,0.025 2.698,0.076c0.9,0.051 1.802,0.127 2.699,0.228c0.899,0.101 1.824,0.628 2.698,0.38c2.28,-0.646 9.083,-3.534 10.983,-4.256c0.132,-0.051 0.279,-0.076 0.418,-0.076c0.139,-0 0.291,0.025 0.418,0.076c0.127,0.05 0.248,0.133 0.343,0.228c0.095,0.095 0.177,0.215 0.227,0.342c0.051,0.126 0.076,0.278 0.076,0.418c0,0.139 0.005,0.302 -0.076,0.418c-0.399,0.57 -2.286,2.299 -2.318,3.002c-0.031,0.703 1.432,0.792 2.129,1.216c0.696,0.424 2.229,1.102 2.051,1.33c-0.177,0.228 -2.526,0.025 -3.115,0.038c-0.14,0.003 -0.286,-0.006 -0.419,0.038c-0.133,0.044 -0.265,0.139 -0.38,0.228c-0.113,0.088 -0.222,0.19 -0.304,0.304c-0.083,0.114 -0.152,0.247 -0.19,0.38c-0.038,0.133 -0.044,0.279 -0.038,0.418c0.007,0.139 0.03,0.284 0.076,0.418c0.494,1.412 2.35,6.517 2.888,8.056c0.135,0.386 0.261,0.778 0.343,1.178c0.082,0.406 0.132,0.843 0.151,1.254c0.019,0.405 -0.009,0.812 -0.037,1.216c-0.051,0.716 -0.203,2.052 -0.266,3.079c-0.064,1.024 -0.096,2.052 -0.115,3.078c-0.019,1.025 -0.032,2.052 0,3.078c0.032,1.026 0.115,2.058 0.191,3.078c0.075,1.014 0.145,2.03 0.265,3.04c0.12,1.013 0.286,2.03 0.456,3.04c0.171,1.013 0.355,2.033 0.57,3.04c0.216,1.007 0.463,2.014 0.723,3.002c0.258,0.981 0.678,2.337 0.836,2.926c0.054,0.199 0.095,0.406 0.114,0.608Zm-92.58,-21.698c-0.12,-0.057 -0.249,-0.102 -0.381,-0.114c-0.133,-0.013 -0.285,0.006 -0.418,0.038c-0.132,0.031 -0.266,0.088 -0.38,0.152c-0.11,0.061 -0.221,0.133 -0.304,0.228c-0.082,0.095 -0.139,0.221 -0.19,0.342c-0.05,0.12 -0.101,0.253 -0.114,0.38c-0.012,0.126 0.007,0.256 0.038,0.38c0.032,0.126 0.084,0.262 0.152,0.38c0.26,0.449 0.957,1.533 1.406,2.318c0.45,0.785 0.882,1.585 1.293,2.394c0.411,0.811 0.804,1.64 1.178,2.47c0.373,0.828 0.849,2.027 1.064,2.508c0.06,0.135 0.133,0.267 0.228,0.38c0.095,0.114 0.217,0.217 0.342,0.304c0.127,0.089 0.272,0.184 0.418,0.228c0.146,0.044 0.304,0.044 0.456,0.038c0.152,-0.006 0.311,-0.032 0.456,-0.076c0.146,-0.044 0.289,-0.107 0.418,-0.19c0.564,-0.361 1.955,-1.351 2.965,-1.976c1.013,-0.627 2.565,-1.457 3.116,-1.786c0.077,-0.046 0.136,-0.118 0.19,-0.19c0.057,-0.076 0.121,-0.177 0.152,-0.266c0.03,-0.084 0.051,-0.177 0.038,-0.266c-0.012,-0.089 -0.069,-0.184 -0.114,-0.266c-0.043,-0.081 -0.082,-0.171 -0.152,-0.228c-0.07,-0.057 -0.177,-0.077 -0.266,-0.114c-0.165,-0.07 -0.49,-0.185 -0.722,-0.304c-0.234,-0.121 -0.469,-0.26 -0.684,-0.418c-0.215,-0.159 -0.424,-0.336 -0.608,-0.532c-0.184,-0.197 -0.355,-0.425 -0.494,-0.646c-0.136,-0.216 -0.247,-0.513 -0.342,-0.684c-0.067,-0.12 -0.14,-0.254 -0.228,-0.342c-0.085,-0.085 -0.197,-0.138 -0.304,-0.19c-1.419,-0.691 -6.778,-3.275 -8.209,-3.952Z"/></g></svg>