<?xml version="1.0" encoding="UTF-8" standalone="no"?><!DOCTYPE svg PUBLIC "-//W3C//DTD SVG 1.1//EN" "http://www.w3.org/Graphics/SVG/1.1/DTD/svg11.dtd"><svg width="100%" height="100%" viewBox="0 0 514 454" version="1.1" xmlns="http://www.w3.org/2000/svg" xmlns:xlink="http://www.w3.org/1999/xlink" xml:space="preserve" xmlns:serif="http://www.serif.com/" style="fill-rule:evenodd;clip-rule:evenodd;stroke-linejoin:round;stroke-miterlimit:2;"><g id="scale-value" transform="matrix(50,0,0,50,350.907,262.709)"></g><text x="163.285px" y="262.709px" style="font-family:'ArialMT', 'Arial', sans-serif;font-size:50px;">sw=38.4</text><g id="_550.2-Horse-drawn-Vehicles-in-Road" serif:id="550.2 Horse-drawn Vehicles in Road"><path d="M227.201,17.004c6.077,-10.522 17.305,-17.004 29.455,-17.004c12.151,0 23.379,6.482 29.456,17.004c54.07,93.625 168.562,291.872 222.642,385.514c6.078,10.524 6.079,23.491 0.003,34.016c-6.076,10.525 -17.306,17.009 -29.459,17.009l-445.283,0c-12.153,0 -23.383,-6.484 -29.459,-17.009c-6.076,-10.525 -6.075,-23.492 0.003,-34.016c54.08,-93.642 168.572,-291.889 222.642,-385.514Z" style="fill:#e31837;"/><path d="M256.621,56.706l202.954,351.484l-405.907,0l202.953,-351.484Z" style="fill:#fff;"/><path d="M118.762,380.976l-0.938,1.472l-1.035,1.376l-1.132,1.344l-1.229,1.217l-1.293,1.151l-1.423,1.057l-1.456,0.96l-1.52,0.832l-1.584,0.735l-1.65,0.641l-1.682,0.512l-1.713,0.383l-1.715,0.257l-1.746,0.128l-1.746,-0l-1.747,-0.096l-1.746,-0.225l-1.715,-0.383l-1.681,-0.48l-1.649,-0.576l-1.585,-0.704l-1.552,-0.832l-1.488,-0.929l-1.391,-1.024l2.685,-4.672l1.228,0.96l1.294,0.897l1.391,0.735l1.423,0.64l1.455,0.545l1.52,0.415l1.552,0.256l1.553,0.16l1.552,0.032l1.552,-0.096l1.553,-0.224l1.552,-0.352l1.488,-0.479l1.423,-0.577l1.423,-0.704l1.326,-0.832l1.261,-0.896l1.164,-1.024l1.1,-1.12l0.97,-1.184l0.906,-1.28l0.776,-1.344l0.679,-1.408l0.55,-1.44l0.42,-1.504l0.324,-1.504l0.161,-1.537l0.065,-1.568l-0.097,-1.536l-0.194,-1.536l-0.356,-1.504l-0.453,-1.503l-0.582,-1.441l-0.679,-1.376l-0.808,-1.344l-0.906,-1.248l-1.035,-1.184l-1.099,-1.088l-1.197,-0.992l-1.293,-0.896l-1.326,-0.8l-1.424,-0.672l-1.455,-0.576l2.717,-4.641l1.617,0.705l1.552,0.8l1.488,0.896l1.423,1.023l1.326,1.121l1.261,1.184l1.197,1.312l1.067,1.344l0.97,1.44l0.874,1.536l0.743,1.568l0.647,1.6l0.517,1.665l0.388,1.696l0.259,1.696l0.162,1.728l0.032,1.728l-0.097,1.728l-0.226,1.728l-0.356,1.696l-0.485,1.664l-0.582,1.632l-0.711,1.6l-0.809,1.536Zm33.893,-13.825l0.194,-1.728l0.291,-1.696l0.453,-1.664l0.549,-1.632l0.647,-1.6l0.777,-1.536l0.905,-1.504l1.003,-1.408l1.1,-1.344l1.164,-1.28l1.293,-1.152l1.359,-1.088l1.423,-0.992l1.519,-0.896l1.553,-0.768l1.617,-0.641l1.65,-0.543l1.681,-0.448l1.714,-0.289l1.747,-0.192l1.746,-0.064l1.746,0.064l1.714,0.192l1.715,0.289l1.713,0.448l1.65,0.543l1.617,0.641l1.552,0.768l1.488,0.896l1.455,0.992l1.359,1.088l1.261,1.152l1.196,1.28l1.1,1.344l1.003,1.408l0.873,1.504l0.776,1.536l0.679,1.6l0.55,1.632l0.42,1.664l0.324,1.696l0.194,1.728l0.064,1.728l-0.064,1.729l-0.194,1.696l-0.324,1.696l-0.42,1.696l-0.55,1.632l-0.679,1.6l-0.776,1.536l-0.873,1.472l-1.003,1.44l-1.1,1.344l-1.196,1.248l-1.261,1.184l-1.359,1.089l-1.455,0.991l-1.488,0.865l-1.552,0.767l-1.617,0.673l-1.65,0.544l-1.713,0.415l-1.715,0.321l-1.714,0.192l-1.746,0.064l-1.746,-0.064l-1.747,-0.192l-1.714,-0.321l-1.681,-0.415l-1.65,-0.544l-1.617,-0.673l-1.553,-0.767l-1.519,-0.865l-1.423,-0.991l-1.359,-1.089l-1.293,-1.184l-1.164,-1.248l-1.1,-1.344l-1.003,-1.44l-0.905,-1.472l-0.777,-1.536l-0.647,-1.6l-0.549,-1.632l-0.453,-1.696l-0.291,-1.696l-0.194,-1.696l-0.065,-1.729l0.065,-1.728Zm10.317,-11.072l-1.003,1.184l-0.938,1.28l-0.808,1.344l-0.679,1.408l-0.582,1.441l-0.453,1.504l-0.324,1.536l-0.194,1.535l-0.064,1.568l0.064,1.568l0.194,1.537l0.324,1.536l0.453,1.504l0.582,1.44l0.679,1.408l0.808,1.344l0.938,1.28l1.003,1.184l1.132,1.088l1.196,1.024l1.294,0.896l1.358,0.8l1.423,0.704l1.456,0.545l1.519,0.447l1.553,0.32l1.552,0.192l1.585,0.064l1.585,-0.064l1.552,-0.192l1.553,-0.32l1.519,-0.447l1.456,-0.545l1.423,-0.704l1.358,-0.8l1.293,-0.896l1.197,-1.024l1.1,-1.088l1.035,-1.184l0.905,-1.28l0.808,-1.344l0.712,-1.408l0.55,-1.44l0.453,-1.504l0.323,-1.536l0.194,-1.537l0.065,-1.568l-0.065,-1.568l-0.194,-1.535l-0.323,-1.536l-0.453,-1.504l-0.55,-1.441l-0.712,-1.408l-0.808,-1.344l-0.905,-1.28l-1.035,-1.184l-1.1,-1.12l-1.197,-0.992l-1.293,-0.928l-1.358,-0.8l-1.423,-0.672l-1.456,-0.576l-1.519,-0.448l-1.553,-0.32l-1.552,-0.192l-1.585,-0.064l-1.585,0.064l-1.552,0.192l-1.553,0.32l-1.519,0.448l-1.456,0.576l-1.423,0.672l-1.358,0.8l-1.294,0.928l-1.196,0.992l-1.132,1.12Zm20.18,12.8l-0.065,0.865l-0.194,0.832l-0.291,0.8l-0.42,0.768l-0.517,0.704l-0.615,0.608l-0.711,0.512l-0.777,0.416l-0.808,0.288l-0.841,0.192l-0.873,0.064l-0.873,-0.064l-0.841,-0.192l-0.841,-0.288l-0.744,-0.416l-0.711,-0.512l-0.615,-0.608l-0.517,-0.704l-0.421,-0.768l-0.323,-0.8l-0.162,-0.832l-0.064,-0.865l0.064,-0.863l0.162,-0.833l0.323,-0.831l0.421,-0.737l0.517,-0.704l0.615,-0.607l0.711,-0.513l0.744,-0.416l0.841,-0.288l0.841,-0.192l0.873,-0.063l0.873,0.063l0.841,0.192l0.808,0.288l0.777,0.416l0.711,0.513l0.615,0.607l0.517,0.704l0.42,0.737l0.291,0.831l0.194,0.833l0.065,0.863Zm-79.461,0.129l-0.097,0.864l-0.194,0.832l-0.324,0.8l-0.42,0.768l-0.549,0.672l-0.647,0.576l-0.679,0.512l-0.777,0.384l-0.841,0.288l-0.841,0.16l-0.873,0.064l-0.873,-0.096l-0.841,-0.192l-0.808,-0.32l-0.776,-0.448l-0.68,-0.512l-0.582,-0.64l-0.517,-0.704l-0.388,-0.768l4.883,-8.385l0.873,-0.031l0.873,0.095l0.841,0.192l0.809,0.32l0.744,0.416l0.679,0.545l0.615,0.639l0.517,0.704l0.388,0.769l0.291,0.799l0.162,0.833l0.032,0.864Zm34.96,-77.764l34.087,0l1.23,-0.064l1.196,-0.16l1.197,-0.32l1.131,-0.416l1.1,-0.512l0.421,-0.288l0.388,-0.384l0.259,-0.48l0.161,-0.48l0.388,-2.176l0.227,-2.176l0.129,-2.177l0,-2.208l-0.065,-0.447l-0.161,-0.384l-0.291,-0.385l-0.324,-0.256l-0.42,-0.192l-1.068,-0.383l-1.002,-0.513l-0.97,-0.576l-0.906,-0.672l-0.388,-0.384l-0.291,-0.448l-0.226,-0.48l-0.097,-0.512l-0.033,-0.544l0.065,-0.512l0.582,-2.112l0.712,-2.048l0.776,-2.016l0.937,-1.984l1.035,-1.92l1.132,-1.857l1.23,-1.792l1.326,-1.728l1.422,-1.664l1.52,-1.568l1.618,-1.472l0.258,-0.32l0.162,-0.384l0.032,-0.448l-0.097,-0.416l-0.226,-0.352l-0.679,-0.832l-0.55,-0.928l-0.421,-0.96l-0.323,-1.024l-0.194,-1.024l-0.065,-1.088l0.065,-1.056l0.162,-1.056l0.323,-0.992l0.421,-0.992l0.549,-0.896l0.68,-0.864l0.744,-0.768l0.84,-0.672l0.906,-0.545l0.97,-0.447l1.035,-0.352l1.035,-0.192l1.067,-0.096l1.099,0.032l1.035,0.16l1.035,0.288l1.003,0.415l0.938,0.545l0.873,0.608l0.776,0.735l0.679,0.833l0.615,0.895l0.453,0.929l0.355,1.024l0.259,1.024l0.097,1.056l-0.032,1.088l-0.13,1.056l-0.291,1.024l-0.388,0.992l-0.517,0.928l-0.615,0.864l-0.744,0.8l-0.808,0.672l-0.162,0.224l-0.064,0.224l0.032,0.256l0.162,0.224l1.034,0.992l0.938,1.121l0.841,1.151l0.712,1.248l0.614,1.313l0.518,1.344l0.388,1.376l0.259,1.408l0.129,1.44l0,7.776l0.065,0.64l0.194,0.608l0.323,0.544l0.42,0.448l0.518,0.384l0.582,0.256l4.592,1.408l4.69,1.248l1.778,-0.159l0.486,0.032l0.485,0.159l0.42,0.288l0.324,0.352l0.258,0.417l0.227,0.799l0.129,0.801l0.032,0.832l-0.097,0.543l-0.194,0.513l-0.291,0.48l-0.388,0.415l-0.453,0.353l-0.485,0.224l-0.55,0.128l-0.582,0.032l-0.549,-0.064l-0.453,-0.16l-2.846,-0.513l-2.814,-0.639l-2.781,-0.769l-2.716,-0.959l-2.685,-1.057l-2.62,-1.216l0.615,1.793l0.744,1.76l0.873,1.664l0.97,1.632l1.132,1.536l1.229,1.44l1.326,1.344l1.423,1.248l1.52,1.152l0.776,0.608l0.711,0.704l0.615,0.768l0.517,0.832l0.389,0.896l0.291,0.928l0.194,0.961l0.032,0.991l0,20.801l0.065,0.545l0.161,0.511l0.259,0.48l0.324,0.416l0.42,0.353l0.485,0.288l0.518,0.159l0.55,0.064l0.517,0.096l0.517,0.192l0.453,0.288l0.356,0.385l0.291,0.48l0.161,0.511l0.033,0.513l-0.065,0.544l-0.194,0.479l-0.291,0.448l-0.388,0.385l-0.453,0.288l-0.485,0.192l-1.649,0.288l-1.65,0.16l-1.649,0.032l-1.649,-0.096l-1.65,-0.256l0,3.68l13.487,-1.696l0.323,-3.744l0.42,-3.712l0.55,-3.713l0.647,-3.712l0.776,-3.68l0.873,-3.648l1.035,-3.616l1.1,-3.616l1.228,-3.553l1.327,-3.52l1.455,-3.456l0.356,-0.832l0.485,-0.768l0.582,-0.672l0.679,-0.608l0.744,-0.512l0.808,-0.416l0.841,-0.288l0.906,-0.16l0.905,-0.065l0.906,0.096l0.873,0.193l0.841,0.32l0.808,0.448l3.008,1.472l3.105,1.344l1.552,-0.768l1.585,-0.672l1.649,-0.512l1.682,-0.384l1.682,-0.288l1.746,-0.128l1.714,-0.032l1.714,0.128l1.715,0.256l1.681,0.384l1.649,0.512l3.558,0.768l3.558,0.672l3.589,0.576l3.589,0.448l3.623,0.32l3.622,0.224l3.655,0.096l1.746,-0.032l1.714,-0.16l1.715,-0.32l1.681,-0.448l1.65,-0.576l1.617,-0.672l1.519,-0.832l1.488,-0.928l1.39,-1.024l1.295,-1.152l1.195,-1.248l1.132,-1.313l1.004,-1.407l1.972,-2.912l2.07,-2.849l2.166,-2.752l2.265,-2.72l2.36,-2.592l2.426,-2.56l1.294,-1.472l1.358,-1.409l1.455,-1.311l1.553,-1.248l1.616,-1.153l1.65,-1.024l1.746,-0.96l1.78,-0.832l1.26,-0.608l1.197,-0.736l1.132,-0.864l1.002,-0.96l1.973,-2.176l1.908,-2.208l1.779,-2.304l0.13,2.272l-0.065,2.24l-0.194,2.24l-0.356,2.208l1.132,0.672l1.035,0.769l0.97,0.863l0.841,0.961l0.776,1.055l0.647,0.865l0.776,0.767l0.873,0.673l0.938,0.575l0.938,0.513l0.841,0.64l0.776,0.703l0.679,0.833l0.582,0.864l0.454,0.96l0.355,0.992l0.389,0.992l0.517,0.928l1.811,2.592l1.94,2.496l2.038,2.4l2.134,2.336l2.264,2.241l2.329,2.112l0.517,0.544l0.452,0.608l0.292,0.704l0.194,0.703l0.032,0.769l-0.064,1.024l0.032,1.056l-0,0.64l-0.097,0.608l-0.195,0.608l-0.323,0.544l-0.388,0.48l-0.517,0.448l-0.551,0.32l-0.646,0.224l-0.938,0.128l-0.937,-0.032l-0.938,-0.128l-0.744,-0.128l-0.776,0l-0.744,0.128l-1.035,0.192l-1.035,0.096l-1.035,-0.064l-0.744,-0.128l-0.679,-0.256l-0.647,-0.352l-0.614,-0.416l-0.518,-0.512l-0.452,-0.576l-0.873,-1.216l-1.003,-1.12l-1.1,-1.024l-0.388,-0.256l-0.453,-0.16l-0.453,-0.032l-1.617,-0.032l-1.584,-0.16l-1.585,-0.32l-1.553,-0.48l-1.487,-0.608l-1.455,-0.736l-1.327,-0.864l-0.678,2.24l-0.518,2.24l-0.42,2.304l-0.291,2.304l-0.129,2.304l-0.033,2.336l0.13,2.304l0.258,2.337l0.388,2.272l0.485,2.271l0.421,1.889l0.29,1.888l0.194,1.888l0.033,1.92l-0.064,1.92l-0.195,1.92l-0.323,1.888l-0.453,1.856l-0.55,1.824l-0.678,1.824l-0.777,1.728l-0.906,1.696l-1.002,1.633l0.485,3.936l0.647,3.904l0.776,3.872l0.906,3.84l0.291,0.961l0.42,0.895l0.485,0.897l0.582,0.8l0.68,0.736l0.452,0.544l0.324,0.608l0.226,0.64l0.129,0.672l0,0.704l-0.097,0.672l-0.129,0.672l0.033,0.704l0.128,0.672l0.259,0.64l0.324,0.768l0.161,0.832l0,0.832l-0.161,0.832l-0.291,0.768l-1.1,2.304l-1.002,2.369l-0.906,2.431l-0.776,2.433l-0.646,2.464l-0.55,2.528l-0.421,2.528l-0.323,2.528l-0.13,1.792l-0,1.792l-0.097,0.48l-0.226,0.448l-0.324,0.384l-0.42,0.32l-0.453,0.224l-0.485,0.096l-0.518,0l-0.226,1.088l-0.324,1.025l-0.452,0.991l-0.55,0.96l-0.614,0.865l-0.744,0.832l-0.809,0.736l-0.905,0.64l-0,0.128l-0.453,-2.208l-0.55,-2.177l-0.679,-2.144l-0.776,-2.112l-0.873,-2.08l1.197,-0.768l1.163,-0.864l0.453,-0.448l0.356,-0.512l0.291,-0.576l0.13,-0.64l0.032,-0.64l-0.097,-0.64l0,-0.256l0.097,-0.288l0.162,-0.192l1.002,-0.736l1.1,-0.608l0.291,-0.192l0.226,-0.288l0.162,-0.32l0.032,-0.384l0,-20.065l-0.065,-0.288l-0.194,-0.192l-2.554,-1.568l-2.49,-1.664l-2.394,-1.728l-2.361,-1.856l-0.518,2.687l-0.646,2.625l-0.743,2.624l-0.841,2.592l-0.744,3.04l-0.647,3.072l-0.518,3.104l-0.388,3.136l-0.259,3.137l-0.129,3.136l-0,3.168l0.259,0.672l0.129,0.704l0.033,0.736l-0.13,0.736l-0.227,0.672l-0.355,0.64l-0.485,0.576l-0.549,0.48l0.84,0.768l0.776,0.864l0.646,0.96l0.518,0.993l0.421,1.055l0.259,1.12l0.161,1.121l-0,1.152l-1.778,-0.193l-1.779,-0.288l-1.779,-0.415l-1.714,-0.544l-1.682,-0.641l-1.617,-0.767l0.486,-0.705l0.355,-0.799l0.259,-0.801l0.162,-0.864l0.032,-0.864l-0.097,-0.864l-0.194,-0.832l-0.356,-0.8l-0.42,-0.768l-0.195,-0.384l-0.032,-0.416l0.097,-0.448l0.227,-0.352l0.55,-0.768l0.453,-0.832l0.322,-0.864l0.195,-0.928l0.097,-0.928l0.387,-17.121l-0.032,-0.928l-0.161,-0.928l-0.259,-0.896l-0.389,-0.864l-1.39,-2.88l-1.293,-2.912l-1.1,-3.008l-1.003,-3.041l-0.841,-3.104l-0.193,-0.416l-0.323,-0.352l-0.421,-0.192l-0.453,-0.064l-3.526,0.096l-3.492,0l-3.525,-0.16l-3.493,-0.32l-3.46,-0.416l-3.461,-0.608l-3.428,-0.704l-3.396,-0.864l-0.517,-0.064l-0.485,0.032l-0.486,0.128l-0.452,0.256l-0.389,0.32l-0.29,0.416l-0.195,0.48l-0.356,1.024l-0.485,0.992l-0.549,0.96l-0.647,0.864l-0.711,0.832l-5.627,5.601l-5.757,5.44l-0.259,0.288l-0.161,0.32l-0.065,0.384l-0,0.352l0.097,0.352l0.194,0.32l0.97,1.344l0.841,1.44l0.744,1.472l0.614,1.536l0.485,1.568l0.259,0.705l0.324,0.671l2.716,4.609l2.911,4.544l0.291,0.576l0.226,0.608l0.065,0.64l-0.032,0.64l-0.13,0.64l-0.258,0.608l-0.356,0.544l-0.097,0.224l-0,0.224l0.064,0.224l0.647,1.184l0.518,1.248l0.453,1.28l0.355,1.28l0.227,1.344l0.129,1.344l0.033,1.345l-1.327,-0.353l-1.326,-0.448l-1.261,-0.576l-1.229,-0.64l-1.164,-0.768l-1.1,-0.864l-1.002,-0.928l0.097,-1.664l-0.033,-1.664l-0.161,-1.664l-0.13,-0.256l-0.226,-0.128l-0.356,-0.128l-0.259,-0.256l-0.194,-0.32l-0.064,-0.352l-0.777,-2.496l-0.905,-2.432l-1.067,-2.4l-1.164,-2.336l-1.294,-2.241l-1.423,-2.208l-1.552,-2.112l-1.65,-2.048l-1.746,-1.952l-0.292,-0.352l-0.194,-0.448l-0.097,-0.448l0,-0.48l0.097,-0.448l0.194,-0.448l0.292,-0.384l1.552,-1.76l1.488,-1.856l1.358,-1.952l1.294,-1.985l1.164,-2.08l1.035,-2.112l0.938,-2.176l-1.844,2.208l-1.973,2.112l-2.037,2.048l-2.134,1.953l-2.232,1.856l-2.296,1.76l-2.394,1.664l-0.743,0.576l-0.711,0.672l-0.583,0.736l-0.485,0.832l-0.388,0.896l-0.291,0.896l-0.129,0.96l-0.033,0.96l0.227,5.088l0.42,5.088l0.55,5.089l0.712,5.056l0.032,0.896l-0.065,0.864l-0.226,0.832l-0.13,0.512l0,0.512l0.097,0.512l0.195,0.48l0.291,0.448l0.743,1.025l0.647,1.055l0.55,1.12l0.453,1.185l0.355,1.215l0.227,1.216l-2.167,-0.287l-2.134,-0.48l-2.103,-0.577l-2.037,-0.735l-2.005,-0.865l0.258,-0.704l0.162,-0.736l0.033,-0.736l-0.065,-0.767l-0.194,-0.705l-0.291,-0.704l-0.421,-0.64l-0.485,-0.544l-0.582,-0.512l-0.227,-0.192l-0.161,-0.256l-0.065,-0.288l0.032,-0.288l0.389,-2.656l0.291,-2.656l0.194,-2.688l0.032,-2.656l-0.065,-2.689l-0.161,-2.656l-0.324,-2.688l-0.388,-2.624l-0.55,-2.624l-0.647,-2.624l-0.129,-0.736l-0,-0.736l0.129,-0.768l0.291,-0.704l0.389,-0.64l0.517,-0.544l1.811,-1.729l1.715,-1.792l1.649,-1.856l1.584,-1.952l1.456,-1.984l0.517,-0.768l0.421,-0.8l0.323,-0.864l0.162,-0.896l0.065,-0.896l-0.097,-0.928l-0.194,-0.896l-0.324,-0.832l-11.675,1.472l-0.711,1.568l-0.841,1.504l-0.971,1.44l-1.067,1.376l-1.196,1.28l-0.485,0.416l-0.55,0.32l-0.615,0.224l-0.647,0.096l-0.647,0.033l-0.646,-0.129l-0.583,-0.192l-0.582,-0.32l-0.517,-0.384l-0.42,-0.479l-0.324,-0.545l-0.258,-0.608l-0.259,-1.024l-0.162,-1.024l-0.065,-1.056l0.033,-1.056l-13.131,1.664l0,9.121l-9.152,-0l-1.455,-1.377l-1.553,-1.248l-1.649,-1.151l-1.682,-1.057l-1.779,-0.928l-1.811,-0.832l-1.875,-0.704l-1.909,-0.576l-1.973,-0.448l-1.972,-0.32l-1.973,-0.192l-2.005,-0.064l-2.005,0.064l-2.005,0.192l-1.973,0.32l-1.94,0.448l-1.909,0.576l-1.876,0.704l-1.843,0.832l-1.746,0.928l-1.715,1.057l-1.616,1.151l-1.553,1.248l-1.455,1.377l-36.189,-0l-1.423,-1.345l-1.488,-1.216l-1.585,-1.151l-1.649,-1.025l-1.714,-0.928l-1.779,-0.8l29.074,-49.826Zm99.837,32.034l-0.712,-1.792l-0.582,-1.825l-0.453,-1.888l-0.356,-1.856l-0.259,-1.92l-0.097,-1.92l0,-1.92l0.13,-1.92l0.259,-1.888l0.355,-1.888l0.485,-1.856l0.583,-1.824l0.711,-1.793l0.841,-1.728l0.938,-1.696l1.035,-1.632l1.132,-1.536l1.229,-1.504l-0.583,-0.576l-0.614,-0.48l-0.712,-0.384l-0.744,-0.32l-0.808,-0.192l-0.809,-0.064l-0.808,0.032l-0.776,0.16l-0.776,0.256l-0.712,0.352l-0.679,0.48l-0.582,0.544l-0.518,0.608l-0.42,0.704l-0.808,2.496l-0.679,2.56l-0.55,2.561l-0.453,2.624l-0.291,2.592l-0.194,2.656l-0.065,2.624l0.097,2.624l0.194,2.656l1.229,12.257l7.535,-0.96l-0.905,-1.696l-0.808,-1.728Z"/></g></svg>