<?xml version="1.0" encoding="UTF-8" standalone="no"?><!DOCTYPE svg PUBLIC "-//W3C//DTD SVG 1.1//EN" "http://www.w3.org/Graphics/SVG/1.1/DTD/svg11.dtd"><svg width="100%" height="100%" viewBox="0 0 514 454" version="1.1" xmlns="http://www.w3.org/2000/svg" xmlns:xlink="http://www.w3.org/1999/xlink" xml:space="preserve" xmlns:serif="http://www.serif.com/" style="fill-rule:evenodd;clip-rule:evenodd;stroke-linejoin:round;stroke-miterlimit:2;"><g id="scale-value" transform="matrix(50,0,0,50,350.88,262.709)"></g><text x="163.258px" y="262.709px" style="font-family:'ArialMT', 'Arial', sans-serif;font-size:50px;">sw=38.4</text><g id="_551-Wild-Animals" serif:id="551 Wild Animals"><path d="M227.178,17.004c6.076,-10.522 17.302,-17.004 29.452,-17.004c12.149,0 23.376,6.482 29.452,17.004c54.065,93.625 168.545,291.872 222.619,385.514c6.077,10.524 6.079,23.491 0.003,34.016c-6.075,10.525 -17.303,17.009 -29.455,17.009l-445.238,0c-12.152,0 -23.38,-6.484 -29.455,-17.009c-6.076,-10.525 -6.074,-23.492 0.003,-34.016c54.074,-93.642 168.554,-291.889 222.619,-385.514Z" style="fill:#e31837;"/><path d="M256.665,56.708l202.961,351.496l-405.922,-0l202.961,-351.496Z" style="fill:#fff;"/><path d="M154.417,264.991l0.32,-1.481l0.48,-1.4l0.64,-1.4l0.759,-1.28l0.88,-1.24l1,-1.12l2.16,-2.041l2.24,-1.96l2.359,-1.8l2.48,-1.64l2.52,-1.52l2.639,-1.401l2.72,-1.24l2.76,-1.08l2.799,-0.92l2.88,-0.76l2.92,-0.6l2.799,-0.4l2.84,-0.28l2.84,-0.08l2.839,0.04l2.84,0.2l2.84,0.36l9.358,1.52l9.359,1.68l9.319,1.84l9.319,1.961l2.16,0.4l2.239,0.24l2.2,0.08l2.2,-0.08l2.239,-0.24l2.16,-0.4l2.16,-0.56l2.32,-0.601l2.359,-0.4l2.4,-0.28l2.4,-0.08l2.399,0.08l2.4,0.28l2.36,0.4l3.039,-4.8l2.92,-4.921l2.8,-4.96l2.639,-5.081l2.52,-5.12l-2.68,0.32l-2.679,0.12l-2.72,-0.04l-2.68,-0.2l-2.679,-0.361l-2.64,-0.52l-2.6,-0.64l-2.559,-0.84l-2.48,-1l-2.44,-1.12l-2.359,-1.28l-2.32,-1.4l-2.2,-1.561l-2.08,-1.68l-1.999,-1.84l-1.88,-1.92l-5.719,-5.961l-5.64,-6.041l-5.519,-6.16l-0.96,-0.68l-1,-0.52l-1.12,-0.361l-1.159,-0.16l-0.88,-0.08l-0.88,-0.24l-0.8,-0.36l-0.8,-0.44l-2,-1.48l-1.919,-1.6l-1.84,-1.72l-1.72,-1.84l-1.6,-1.921l-1.48,-2l-1.319,-2.12l-1.24,-2.16l-0.24,-0.64l-0.04,-0.641l0.16,-0.68l0.28,-0.56l0.44,-0.48l0.56,-0.36l0.639,-0.2l0.64,0l0.64,0.16l0.6,0.32l0.44,0.48l1.68,2.121l1.76,2.04l1.879,1.96l1.96,1.84l2.04,1.76l2.16,1.641l1.16,0.76l1.199,0.64l1.28,0.48l1.36,0.36l1.36,0.2l1.36,0.08l0.08,-4.521l-1.96,-1.68l-1.92,-1.8l-1.8,-1.88l-1.679,-2l-1.56,-2.081l-1.48,-2.16l-0.2,-0.44l-0.04,-0.52l0.08,-0.52l0.24,-0.44l0.36,-0.36l0.44,-0.24l0.52,-0.12l0.48,0.08l0.48,0.2l0.4,0.32l1.679,1.76l1.8,1.68l1.88,1.48l2.04,1.361l-0.12,-2.921l-0,-2.88l0.12,-2.921l0.28,-2.88l0.4,-2.88l0.16,-0.52l0.28,-0.44l0.44,-0.32l0.48,-0.16l0.519,-0.04l0.52,0.16l0.44,0.24l0.32,0.4l0.24,0.48l0.04,0.52l-0.04,2.76l0.12,2.76l0.2,2.761l0.36,2.72l0.52,2.72l0.64,2.681l2.64,0.12l2.679,-0.08l2.68,-0.28l2.64,-0.4l2.639,-0.6l2.56,-0.76l-0.56,-3.841l-0.4,-3.88l-0.24,-3.881l-0.08,-3.88l0.08,-3.881l0.24,-3.88l0.12,-0.56l0.28,-0.52l0.36,-0.4l0.48,-0.32l0.52,-0.2l0.56,-0.08l0.56,0.12l0.52,0.24l0.44,0.32l0.36,0.48l0.2,0.52l0.08,0.56l0.12,3.4l0.24,3.401l0.4,3.36l0.559,3.32l0.72,3.321l0.88,3.28l1,3.241l1.16,3.2l1.32,3.12l1.36,2.561l1.519,2.44l1.64,2.36l1.8,2.24l1.92,2.121l2.08,2.04l2.159,1.88l2.28,1.76l0.88,0.52l0.96,0.401l1,0.28l1.039,0.08l1,-0.04l1.04,-0.24l0.96,-0.361l0.88,-0.52l0.84,-0.64l0.68,-0.76l0.76,-1.04l0.56,-1.16l0.4,-1.2l0.2,-1.28l-0,-1.841l-0.16,-1.88l-0.32,-1.8l-0.52,-1.8l-0.64,-1.72l-0.84,-1.681l-0.96,-1.56l-1.12,-1.52l-1.2,-1.36l-0.32,-0.4l-0.16,-0.44l-0.08,-0.48l0.04,-0.48l0.16,-0.44l0.32,-0.4l0.36,-0.32l0.44,-0.201l0.48,-0.08l0.48,0.04l0.44,0.121l0.4,0.28l1.44,1.32l1.36,1.44l1.199,1.52l1.12,1.64l0.96,1.72l0.8,1.761l0.68,1.84l0.56,1.88l0.36,1.92l0.24,1.961l0.08,1.96l-0.16,1.6l-0.36,1.6l-0.52,1.52l-0.64,1.481l-0.84,1.4l-0.92,1.32l-1.08,1.2l-1.199,1.12l-0.32,0.36l-0.24,0.44l-0.04,0.48l0.04,0.48l0.24,0.44l0.32,0.36l0.999,0.721l1.08,0.6l1.2,0.4l1.2,0.28l1.24,0.12l1.24,-0.04l1.2,-0.2l1.199,-0.36l1.12,-0.52l1.04,-0.641l0.96,-0.8l0.84,-0.92l0.72,-1l0.6,-1.08l0.44,-1.16l0.28,-1.2l0.12,-1.24l-0.04,-1.241l-0.2,-1.24l-0.36,-1.16l-0.52,-1.16l-0.16,-0.44l-0.04,-0.48l0.08,-0.48l0.2,-0.48l0.28,-0.36l0.4,-0.28l0.48,-0.2l0.48,-0.04l0.48,0.08l0.439,0.16l0.4,0.32l0.28,0.4l0.72,1.4l0.56,1.48l0.4,1.52l0.28,1.561l0.08,1.6l-0.04,1.56l-0.24,1.56l-0.36,1.52l0.76,-0.32l0.72,-0.44l0.6,-0.56l0.52,-0.64l0.44,-0.72l0.28,-0.8l0.24,-2.24l-0,-2.281l0.08,-0.48l0.2,-0.44l0.32,-0.36l0.4,-0.24l0.48,-0.12l0.48,0.04l0.439,0.2l0.36,0.28l0.28,0.4l0.12,0.48l0.12,1.56l-0.04,1.561l-0.2,1.56l-0.4,1.52l-0.52,1.48l1,-0.6l0.88,-0.76l0.84,-0.84l0.68,-0.96l0.6,-1.04l0.24,-0.36l0.36,-0.32l0.4,-0.24l0.48,-0.08l0.44,-0l0.48,0.16l0.4,0.24l0.32,0.36l0.2,0.4l0.12,0.44l-0,0.48l-0.16,0.44l-0.76,1.64l-0.88,1.52l-1.04,1.48l-1.12,1.361l-1.24,1.28l-1.32,1.16l-1.439,1.08l-1.48,0.96l-1.6,0.84l-1.64,0.68l-1.68,0.56l-0.44,0.24l-0.36,0.32l-0.28,0.4l-0.119,0.521l-0,0.48l0.159,0.48l0.32,0.4l0.92,0.84l1.04,0.76l1.08,0.64l1.16,0.52l1.2,0.4l1.24,0.28l1.719,0.36l1.72,0.48l1.64,0.64l1.6,0.72l1.52,0.881l1.479,0.96l1.36,1.08l1.28,1.2l1.68,1.52l1.8,1.4l1.879,1.24l1.96,1.121l2.08,0.92l2.12,0.76l2.199,0.6l0.64,0.4l0.52,0.56l0.36,0.64l0.2,0.72l0.04,0.72l-0.16,0.72l-0.64,1.88l-0.8,1.801l-1,1.72l-1.119,1.6l-1.28,1.52l-0.68,0.68l-0.76,0.56l-0.88,0.4l-0.92,0.28l-1.92,0.12l-1.959,0l-1.92,-0.16l-1,-0.28l-1.04,-0.16l-1.04,-0.04l-1.04,0.08l-0.999,0.24l-1,0.361l-0.92,0.48l-0.88,0.56l-1.12,0.76l-1.2,0.6l-1.24,0.44l-1.32,0.28l-1.359,0.12l-1.32,-0.04l-1.32,-0.24l-0.28,2.32l-0.44,2.28l-0.6,2.241l-0.76,2.16l-0.88,2.16l-1.04,2.08l-1.199,1.961l-1.32,1.92l-1.48,1.8l-1.64,2.36l-1.56,2.441l-1.359,2.52l-1.28,2.6l-1.08,2.681l-0.44,1.24l-0.24,1.32l-0.16,0.72l-0.28,0.68l-0.4,0.6l-0.52,0.52l-0.6,0.4l-0.68,0.28l-1.2,0.48l-1.159,0.56l-1.08,0.721l-1,0.8l-0.92,0.92l-0.8,1.04l-0.72,1.08l-0.56,1.16l-0.48,1.2l-0.28,1.28l4.24,1.321l4.159,1.52l4.12,1.72l4.039,1.84l3.96,2l0.64,0.44l0.52,0.521l0.44,0.64l0.28,0.68l0.239,1.08l0.08,1.12l-0.04,1.12l-0.2,1.08l-0.359,1.04l-0.48,1l-0.6,0.961l-0.72,0.84l-0.8,0.72l-0.92,0.64l-0.88,0.4l-3.999,1.6l-3.92,1.76l-3.879,1.88l-3.76,2.041l-3.72,2.2l-3.599,2.32l-3.52,2.481l-1.879,1.24l-1.92,1.12l-2,0.96l-2.08,0.8l-2.119,0.64l-2.2,0.52l-2.2,0.32l-7.439,0.72l-1.76,2.921l-1.599,3l-1.48,3.08l-1.36,3.121l-1.2,3.16l-1.08,3.241l-0.92,3.28l-0.76,3.32l-0.64,3.361l-0.479,3.36l-0.32,3.401l-0.08,2.16l0.04,2.2l0.24,2.2l0.399,2.121l0.56,2.16l0.68,2.04l0.84,2.04l0.2,0.64l0,0.68l-0.16,0.641l-0.32,0.56l-0.48,0.48l-0.6,0.32l-0.64,0.16l-0.639,-0.04l-0.64,-0.2l-0.56,-0.36l-0.36,0.48l-0.48,0.4l-0.52,0.28l-0.6,0.16l-0.6,-0l-0.64,-0.08l-0.56,-0.24l-0.48,-0.36l-0.4,-0.44l-0.32,-0.56l-0.16,-0.56l-0.04,-0.641l0,-1.44l-0.16,-1.48l-0.28,-1.44l-0.44,-1.4l-0.559,-1.36l-0.68,-1.281l-0.8,-1.2l-0.92,-1.16l-1.28,-1.28l-1.36,-1.12l-0.32,-0.36l-0.24,-0.4l-0.08,-0.48l0.04,-0.44l0.2,-0.44l1.44,-2.601l1.36,-2.68l1.16,-2.72l-2.24,-2.721l-0.56,-0.56l-0.68,-0.44l-0.76,-0.32l-0.8,-0.16l-0.8,0l-0.799,0.12l-0.6,0.08l-0.6,-0.04l-0.52,-0.2l-0.52,-0.36l-0.36,-0.44l-0.28,-0.52l-0.12,-0.6l-0,-0.56l0.04,-0.64l-0.16,-0.6l-0.36,-0.52l-0.44,-0.44l-4.279,-2.801l-4.36,-2.64l-4.399,-2.52l-4.52,-2.401l0.6,1.801l0.68,1.76l0.84,1.68l1,1.6l1.08,1.56l1.2,1.441l1.279,1.36l0.4,0.44l1.8,2.08l1.72,2.24l1.56,2.281l1.4,2.36l1.319,2.48l1.12,2.52l0.2,0.641l0.08,0.52l0.2,0.44l0.32,0.44l0.64,0.64l0.8,1.2l0.64,1.32l0.48,1.36l0.32,1.44l0.16,1.441l-0.04,1.44l-0.8,-0.24l-0.72,-0.44l-0.68,-0.52l-0.52,-0.64l-0.88,1.08l-1.04,0.96l-8.999,-5.361l-0.16,-4.04l0,-0.76l0.2,-0.761l0.36,-0.64l-1.399,-1.76l-1.44,-1.68l-1.76,-0.56l-0.96,-2.4l-1.12,-2.361l-1.2,-2.28l-1.359,-2.2l-1.44,-2.12l-1.6,-2.081l-2.16,-2.28l-2.04,-2.44l-1.879,-2.521l-1.76,-2.64l-1.6,-2.72l-0.04,-0.12l-0.72,-1.32l-0.84,-1.241l-0.96,-1.16l-1.039,-1.04l-1.16,-0.92l-1.28,-0.8l-1.04,-0.52l-1.12,-0.36l-1.16,-0.16l-1,-0.16l-0.919,-0.32l-0.92,-0.4l-0.84,-0.56l-0.72,-0.68l-0.64,-0.8l-0.52,-0.841l-0.4,-0.92l-0.24,-0.96l-0.12,-1l0.04,-1l0.2,-1l0.32,-0.96l0.48,-0.88l0.6,-0.8l0.68,-0.721l1,-1l0.84,-1.08l0.759,-1.16l0.6,-1.28l0.44,-1.32l0.32,-1.36l0.16,-1.361l-0.04,-1.4l-0.16,-1.4l-0.32,-1.36l-0.48,-1.28l-0.6,-1.28l-0.759,-1.161l-0.88,-1.08l-1.04,-0.96l-1.96,-1.8l-1.88,-1.92l-1.799,-2l-1.68,-2.121l-1.52,-2.2l-1.44,-2.28l-1.32,-2.36l-1.16,-2.401l-1.079,-2.48l-0.88,-2.52l-1.08,0.16l-1.12,0.04l-1.08,-0.2l-1.04,-0.32l-0.96,-0.52l-0.88,-0.681l-0.719,-0.8l-0.64,-0.92l-0.44,-1l-0.44,-2.16l-0.28,-2.24l-0.16,-2.201l-0,-2.24l0.2,-2.24l0.32,-2.2Zm121.744,43.325l-0.999,-0.36l-1.08,-0.24l-1.08,-0.12l-1.08,0.04l-1.08,0.16l-1.04,0.32l-1,0.44l-0.959,0.56l-0.84,0.68l-0.76,0.76l-1.8,2.2l-1.64,2.281l-1.52,2.36l-1.359,2.44l-1.2,2.56l-1.08,2.601l-0.88,2.64l3.04,0.28l2.239,-2.8l1.52,0.16l1.6,0.08l1.64,-0.08l1.599,-0.28l1.56,-0.4l1.48,-0.64l10.439,-4.961l10.358,-5.121l0.32,-0.24l0.2,-0.32l0.12,-0.36l-0.04,-0.4l-0.16,-0.36l-0.24,-0.28l-0.32,-0.2l-0.399,-0.08l-2.68,-0.12l-2.64,-0.28l-2.639,-0.48l-2.56,-0.64l-2.56,-0.84l-2.48,-0.96Zm-80.189,16.442l-0.52,0.28l-0.48,0.4l-0.36,0.52l-0.2,0.56l-0.08,0.6l0.08,0.64l0.28,0.56l0.36,0.48l2.359,2.2l2.48,2.121l2.52,2l2.639,1.88l2.72,1.8l2.8,1.641l2.879,1.52l3.64,1.64l3.559,1.84l3.52,1.92l3.4,2.121l3.359,2.24l3.2,2.36l3.159,2.48l0.2,-1.12l0.28,-1.16l2.4,-7.361l2.16,-7.441l-1.92,-0.04l-1.92,-0.24l-0.4,-0.16l-0.36,-0.28l-0.24,-0.4l-0.12,-0.4l0.04,-0.48l0.16,-0.4l0.28,-0.36l0.36,-0.4l0.24,-0.44l0.12,-0.52l0,-0.56l-0.12,-0.52l-0.28,-0.44l-0.28,-0.52l-0.16,-0.6l0,-0.6l0.12,-0.561l0.28,-0.52l0.36,-0.48l1,-0.8l1.04,-0.68l1.12,-0.56l1.16,-0.44l1.239,-0.32l1.24,-0.2l1.16,-5.441l1.04,-5.44l0.92,-5.521l-0,-0.56l-0.08,-0.56l-0.24,-0.56l-0.32,-0.48l-0.44,-0.4l-0.52,-0.28l-0.56,-0.16l-0.56,-0.04l-3.199,0.04l-3.2,-0.08l-3.16,-0.28l-3.199,-0.4l-3.12,-0.56l-3.119,-0.721l-3.08,-0.84l-3.04,-1l-2.999,-1.12l-2.92,-1.28l-0.68,-0.24l-0.72,-0.12l-0.72,0.08l-0.719,0.2l-0.64,0.32l-0.56,0.48l-0.48,0.56l-0.32,0.64l-0.2,0.72l-0.04,0.72l-0.04,1.721l-0.16,1.68l-0.28,1.68l-0.44,1.64l-0.6,1.6l-0.72,1.521l-0.84,1.48l-0.96,1.4l-1.08,1.32l-1.199,1.2l-1.28,1.12l-1.4,0.96l-1.48,0.881l-1.52,0.72l-1.599,0.6Zm45.634,-143.377l0.68,2.68l0.84,2.64l0.959,2.601l1.08,2.52l1.24,2.48l1.32,2.4l1.48,2.361l1.6,2.24l0.56,0.64l0.64,0.56l0.839,0.52l0.92,0.36l1,0.2l0.96,0l1,-0.16l0.92,-0.36l0.48,-0.36l0.4,-0.48l0.28,-0.76l0.16,-0.8l-0,-0.84l-0.12,-0.84l-0.28,-0.76l-0.44,-0.721l-1.2,-1.68l-1.12,-1.76l-0.92,-1.84l-0.8,-1.88l-0.64,-2.001l-0.48,-2l0,-0.48l0.12,-0.48l0.28,-0.4l0.4,-0.28l0.48,-0.12l0.48,-0l0.48,0.16l0.36,0.28l1.72,1.96l1.56,2.08l1.439,2.161l1.28,2.24l1.16,2.32l0.96,2.401l1,3.4l0.72,3.44l0.24,1.241l0.4,1.24l0.56,1.16l0.72,1.04l0.879,0.96l0.96,0.8l1.08,0.68l1.6,0.6l1.6,0.48l1.64,0.36l1.679,0.16l1.68,0.08l1.68,-0.08l1.68,-0.24l1.64,-0.36l1.639,-0.52l0.32,-0.16l0.24,-0.32l0.16,-0.36l-0.04,-0.4l-0.16,-0.36l-0.24,-0.28l-3.399,-2.64l-3.32,-2.761l-3.199,-2.88l-3.08,-3l-2.96,-3.121l-2.839,-3.2l-2.72,-3.32l-2.6,-3.441l-2.439,-3.52l-0.64,-0.76l-0.72,-0.68l-0.8,-0.52l-0.92,-0.361l-0.96,-0.24l-0.96,-0.04l-1,0.08l-2.759,0.48l-2.8,0.321l-2.84,0.2l-2.799,0.04Z"/></g></svg>