<?xml version="1.0" encoding="UTF-8" standalone="no"?><!DOCTYPE svg PUBLIC "-//W3C//DTD SVG 1.1//EN" "http://www.w3.org/Graphics/SVG/1.1/DTD/svg11.dtd"><svg width="100%" height="100%" viewBox="0 0 514 454" version="1.1" xmlns="http://www.w3.org/2000/svg" xmlns:xlink="http://www.w3.org/1999/xlink" xml:space="preserve" xmlns:serif="http://www.serif.com/" style="fill-rule:evenodd;clip-rule:evenodd;stroke-linejoin:round;stroke-miterlimit:2;"><g id="scale-value" transform="matrix(50,0,0,50,350.88,262.709)"></g><text x="163.258px" y="262.709px" style="font-family:'ArialMT', 'Arial', sans-serif;font-size:50px;">sw=38.4</text><g id="_550.2-Wild-Fowl" serif:id="550.2 Wild Fowl"><path d="M227.178,17.004c6.076,-10.522 17.302,-17.004 29.452,-17.004c12.149,0 23.376,6.482 29.452,17.004c54.065,93.625 168.545,291.872 222.619,385.514c6.077,10.524 6.079,23.491 0.003,34.016c-6.075,10.525 -17.303,17.009 -29.455,17.009l-445.238,0c-12.152,0 -23.38,-6.484 -29.455,-17.009c-6.076,-10.525 -6.074,-23.492 0.003,-34.016c54.074,-93.642 168.554,-291.889 222.619,-385.514Z" style="fill:#e31837;"/><path d="M256.665,56.708l202.961,351.496l-405.922,-0l202.961,-351.496Z" style="fill:#fff;"/><path d="M169.848,297.616l2.628,0.828l2.7,0.72l2.701,0.577l2.772,0.432l2.736,0.288l2.772,0.18l2.772,0.036l2.772,-0.108l2.772,-0.216l2.772,-0.36l2.736,-0.505l2.7,-0.648l2.664,-0.756l6.265,-1.873l6.336,-1.728l6.336,-1.585l6.408,-1.44l6.408,-1.297l6.445,-1.188l6.48,-1.009l6.48,-0.864l6.516,-0.72l6.516,-0.576l6.553,-0.433l6.552,-0.252l6.552,-0.144l6.372,0l0.972,-0.072l0.9,-0.216l0.864,-0.396l0.792,-0.504l0.72,-0.612l0.576,-0.757l0.468,-0.828l0.324,-0.864l0.18,-0.937l0.036,-0.936l-0.144,-0.936l-0.252,-0.901l-0.432,-0.864l-0.864,-1.584l-0.72,-1.657l-0.612,-1.693l-0.432,-1.728l-0.288,-1.801l-0.144,-1.8l0,-1.801l0.144,-1.765l0.288,-1.8l0.468,-1.729l0.576,-1.729l0.72,-1.62l0.864,-1.585l1.008,-1.512l1.116,-1.405l1.224,-1.332l1.332,-1.189l1.44,-1.116l1.512,-0.972l1.585,-0.829l1.656,-0.72l1.728,-0.576l1.728,-0.396l1.8,-0.288l1.8,-0.108l1.8,-0l1.764,0.18l1.8,0.324l1.728,0.468l1.692,0.612l1.62,0.756l1.584,0.865l1.476,1.008l1.404,1.152l1.296,1.225l1.224,1.368l1.08,1.441l0.936,1.512l0.828,1.621l0.684,1.657l0.54,1.728l0.504,1.621l0.648,1.62l0.721,1.549l0.864,1.476l0.936,1.441l1.044,1.368l1.151,1.297l1.224,1.188l1.332,1.081l1.368,1.008l21.097,14.225l0.504,0.396l0.396,0.504l0.324,0.577l0.18,0.612l0.072,0.648l-0.072,0.648l-0.18,0.613l-0.288,0.576l-0.396,0.504l-0.504,0.432l-0.576,0.288l-0.612,0.216l-0.648,0.072l-0.648,-0.036l-0.612,-0.18l-14.041,-5.438l-2.268,-0.792l-2.303,-0.684l-2.376,-0.54l-2.34,-0.397l-2.413,-0.252l-2.376,-0.144l-2.412,0.036l-2.412,0.144l-2.376,0.288l-2.376,0.433l-2.34,0.576l-0.612,0.252l-0.576,0.36l-0.468,0.468l-0.396,0.54l-0.252,0.649l-0.108,0.648l0,0.684l0.144,0.648l0.252,0.613l1.908,3.457l1.728,3.529l1.584,3.637l1.476,3.638l1.296,3.745l1.152,3.745l1.008,3.818l0.864,3.853l0.36,1.981l0.216,1.98l0.072,1.981l-0.072,1.981l-0.216,1.981l-0.36,1.98l-0.468,1.945l-0.612,1.873l-0.756,1.836l-0.9,1.801l-1.008,1.728l-1.116,1.657l-1.224,1.549l-1.332,1.476l-1.44,1.369l-1.548,1.26l-1.62,1.189l-1.692,1.008l-1.8,0.936l-1.8,0.792l-1.908,0.649l-1.908,0.54l-1.944,0.396l-1.98,0.252l-9.433,0.612l-9.468,0.541l-9.468,0.36l-9.469,0.252l-0.576,0.072l-0.54,0.18l-0.468,0.36l-0.396,0.396l-0.252,0.504l-0.18,0.577l0,0.576l0.108,0.576l0.216,0.504l0.36,0.468l4.321,4.43l0.828,0.756l0.936,0.684l0.972,0.541l1.044,0.432l1.08,0.324l1.152,0.216l1.116,0.036l22.212,-0l-0.648,0.9l-0.54,0.937l-0.396,1.044l-0.252,1.044l-0.144,1.117l0.036,1.08l0.18,1.08l0.36,1.045l0.432,1.008l-1.044,-0.396l-1.08,-0.252l-1.116,-0.108l-1.116,0.036l-1.116,0.18l-1.08,0.324l-1.008,0.432l-0.972,0.54l-0.9,0.685l-0.792,0.792l-0.684,0.864l-0.576,0.973l-21.601,-7.707l-0.54,-0.288l-0.468,-0.396l-0.36,-0.505l-0.216,-0.54l-0.072,-0.612l0,-2.089l-0.072,-0.9l-0.216,-0.864l-0.324,-0.829l-0.468,-0.792l-0.576,-0.684l-6.84,-7.023l-0.684,-0.612l-0.828,-0.468l-0.864,-0.36l-0.9,-0.216l-0.936,-0.072l-0.936,0.072l-0.9,0.216l-0.864,0.396l-0.756,0.504l-0.72,0.612l-7.344,7.743l-0.396,0.504l-0.288,0.577l-0.18,0.648l-0.036,0.648l0.072,0.648l0.216,0.612l0.324,0.577l4.428,6.158l0.72,0.9l0.864,0.828l0.936,0.721l1.008,0.612l1.116,0.468l1.116,0.36l1.152,0.18l22.285,2.629l-0.684,0.612l-0.612,0.721l-0.504,0.756l-0.396,0.864l-0.288,0.865l-0.144,0.936l-0.036,0.936l0.108,0.901l0.216,0.9l-1.188,-0.252l-1.189,-0.108l-1.224,-0l-1.188,0.144l-1.188,0.288l-1.116,0.432l-1.08,0.54l-1.044,0.685l-0.9,0.756l-18.18,-5.402l-0.504,-0.216l-0.432,-0.288l-0.36,-0.396l-0.288,-0.469l-0.144,-0.504l-0.072,-0.54l-0,-1.513l-0.072,-0.9l-0.216,-0.864l-0.324,-0.828l-0.468,-0.793l-7.453,-10.371l-0.36,-0.613l-0.216,-0.72l-0.108,-0.72l0.036,-0.756l0.216,-0.685l0.324,-0.684l0.468,-0.576l4.501,-4.754l0.36,-0.468l0.216,-0.504l0.108,-0.576l-0.036,-0.577l-0.144,-0.54l-0.288,-0.504l-0.361,-0.432l-0.468,-0.324l-0.54,-0.216l-0.576,-0.072l-8.712,-0.324l-8.712,-0.433l-3.24,-0.252l-3.168,-0.396l-3.204,-0.504l-3.132,-0.648l-3.133,-0.829l-3.06,-0.9l-3.06,-1.08l-2.988,-1.189l-2.952,-1.332l-2.88,-1.441l-2.808,-1.548l-2.736,-1.693l-2.664,-1.8l-2.592,-1.909l-2.484,-2.053l-2.449,-2.125l-2.304,-2.232l-2.232,-2.305l-30.745,-35.365l-0.468,-0.576l-0.324,-0.648l-0.216,-0.72l-0.072,-0.721l0.036,-0.72l0.144,-0.72l0.288,-0.648l0.396,-0.613l0.504,-0.54l0.612,-0.432l0.648,-0.324l0.684,-0.216l0.72,-0.072l0.757,0.036l0.684,0.18l23.364,8.427Z"/></g></svg>