<?xml version="1.0" encoding="UTF-8" standalone="no"?><!DOCTYPE svg PUBLIC "-//W3C//DTD SVG 1.1//EN" "http://www.w3.org/Graphics/SVG/1.1/DTD/svg11.dtd"><svg width="100%" height="100%" viewBox="0 0 514 454" version="1.1" xmlns="http://www.w3.org/2000/svg" xmlns:xlink="http://www.w3.org/1999/xlink" xml:space="preserve" xmlns:serif="http://www.serif.com/" style="fill-rule:evenodd;clip-rule:evenodd;stroke-linejoin:round;stroke-miterlimit:2;"><g id="scale-value" transform="matrix(50,0,0,50,350.88,262.709)"></g><text x="163.258px" y="262.709px" style="font-family:'ArialMT', 'Arial', sans-serif;font-size:50px;">sw=38.4</text><g id="_551.3-Wild-Small-Animals" serif:id="551.3 Wild Small Animals"><path d="M227.171,17.006c6.077,-10.523 17.306,-17.006 29.459,-17.006c12.152,-0 23.382,6.483 29.459,17.006c54.067,93.632 168.541,291.874 222.613,385.513c6.077,10.524 6.077,23.491 0.001,34.016c-6.077,10.525 -17.307,17.008 -29.46,17.008l-445.226,0c-12.153,0 -23.384,-6.483 -29.46,-17.008c-6.076,-10.525 -6.076,-23.492 0.001,-34.016c54.072,-93.639 168.546,-291.881 222.613,-385.513Z" style="fill:#e31837;"/><path d="M256.63,56.698l202.967,351.492l-405.935,-0l202.968,-351.492Z" style="fill:#fff;"/><path d="M328.063,281.843l0.032,-0.032l0,-0.053l0.054,-0.171l0.032,-0.17l0.022,-0.17l0.032,-0.171l-0,-0.522l-0.032,-0.191l-0,-0.171l-0.054,-0.372l-0.054,-0.394l-0.085,-0.373l-0.086,-0.394l-0.118,-0.373l-0.118,-0.394l-0.257,-0.777l-0.108,-0.362l-0.236,-0.682l-0.085,-0.341l-0.086,-0.319l-0,-0.085l-0.022,-0.053l-0.064,-0.224l-0.021,-0.234l-0.065,-0.224l-0.021,-0.256l-0.032,-0.223l-0,-0.458l0.032,-0.234l0.021,-0.107l0.065,-0.234l0.021,-0.107l0.064,-0.117l0.054,-0.117l0.118,-0.192l0.086,-0.085l0.053,-0.085l0.172,-0.17l0.118,-0.064l0.086,-0.054l0.107,-0.053l0.086,-0.032l0.118,-0.053l0.118,0l0.107,-0.032l0.236,0l0.139,0.032l0.118,0.021l0.139,0.064l0.14,0.053l0.268,0.118l0.139,0.085l0.032,-0l0.14,0.138l0.364,0.426l0.376,0.426l0.375,0.458l0.397,0.458l0.375,0.447l0.397,0.49l0.407,0.511l0.397,0.511l0.429,0.512l0.397,0.532l0.428,0.543l0.408,0.543l0.429,0.565l0.429,0.575l0.429,0.564l0.461,0.596l0.429,0.575l0.45,0.618l0.429,0.596l0.461,0.597l0.911,1.256l0.944,1.278l0.922,1.246l0.965,1.31l0.944,1.278l0.975,1.31l0.976,1.278l0.997,1.309l1.008,1.278l0.997,1.278l0.998,1.257l1.008,1.214l0.514,0.628l1.544,1.789l0.515,0.575l1.029,1.129l0.515,0.575l0.515,0.543l0.514,0.532l1.544,1.534l0.515,0.49l0.515,0.479l1.029,0.916l0.515,0.447l0.514,0.426l0.515,0.405l0.515,0.394l0.493,0.372l0.515,0.373l0.514,0.341l1.03,0.617l0.107,0.086l0.15,0.032l0.225,0.085l0.494,0.17l0.482,0.171l0.461,0.17l0.429,0.138l0.429,0.149l0.429,0.171l0.397,0.138l0.375,0.117l0.364,0.139l0.376,0.138l0.997,0.341l0.322,0.117l0.31,0.117l0.29,0.117l0.257,0.107l0.29,0.085l0.257,0.085l0.247,0.117l0.236,0.086l0.225,0.085l0.236,0.085l0.193,0.053l0.407,0.171l0.172,0.064l0.193,0.085l0.171,0.053l0.15,0.053l0.172,0.064l0.279,0.107l0.118,0.064l0.139,0.053l0.236,0.085l0.225,0.085l0.204,0.085l0.193,0.054l0.172,0.085l0.15,0.064l0.139,0.021l0.139,0.064l0.151,0.053l0.225,0.053l0.257,0.064l0.139,0.053l0.151,0.032l0.139,0l0.15,0.022l0.172,0.032l0.246,-0l0.493,0.032l0.483,-0l0.493,0.021l0.483,0.064l0.482,0.053l0.922,0.17l0.429,0.118l0.451,0.106l0.429,0.117l0.407,0.139l0.397,0.17l0.396,0.149l0.376,0.171l0.375,0.202l0.343,0.192l0.311,0.202l0.086,0.053l0.064,0.032l0,0.032l0.022,-0l0.064,0.021l0.086,0.085l0.193,0.118l0.375,0.255l0.118,0.053l-0,0.032l0.021,0l0.086,0.054l0.172,0.117l0.75,0.479l1.03,0.767l0.311,0.287l0.311,0.256l0.15,0.138l0.139,0.117l0.054,0.086l0.086,0.085l0.15,0.17l0.139,0.171l0.139,0.202l0.151,0.17l0.107,0.203l0.086,0.191l0.117,0.203l0.086,0.202l0.086,0.192l0.064,0.202l0.054,0.224l0.021,0.202l0.065,0.224l0.032,0.234l-0,0.223l0.021,0.224l0,0.234l-0.021,0.054l-0,0.34l-0.032,0.235l-0.032,0.255l-0.108,0.447l-0.064,0.256l-0.054,0.234l-0.171,0.448l-0.086,0.255l-0.118,0.234l-0.118,0.224l-0.107,0.224l-0.236,0.458l-0.257,0.457l-0.279,0.458l-0.322,0.426l-0.311,0.426l-0.311,0.394l-0.343,0.394l-0.686,0.746l-0.686,0.681l-0.065,0.032l-0.171,0.171l-0.086,0.053l-0.107,0.117l-0.547,0.447l-0.257,0.235l-0.29,0.223l-0.279,0.202l-0.321,0.192l-0.29,0.203l-0.343,0.17l-0.021,0.032l-0.033,-0l-0.139,0.053l-0.204,0.085l-0.225,0.054l-0.236,0.063l-0.514,0.107l-0.14,-0l-0.139,0.032l-0.172,0.032l-0.171,0.021l-0.172,0l-0.171,0.032l-0.033,0l-0.085,-0.085l-0.311,-0.224l-0.258,-0.149l-0.257,-0.138l-0.257,-0.117l-0.15,-0.022l-0.14,-0.064l-0.139,-0.021l-0.15,-0.032l-0.14,0l-0.118,-0.032l-0.278,0l-0.151,0.032l-0.107,0l-0.15,0.032l-0.118,0.021l-0.107,0.064l-0.118,0.022l-0.118,0.063l-0.107,0.054l-0.204,0.117l-0.086,0.053l-0.107,0.085l-0.257,0.256l-0.097,0.117l-0.053,0.106l-0.086,0.086l-0.172,0.372l-0.032,0.118l-0.054,0.138l-0.032,0.117l0,0.139l-0.021,0.149l-0,0.362l0.021,0.149l0.032,0.106l0.033,0.117l0.021,0.118l0.064,0.106l0.022,0.117l0.032,0.053l0,0.032l0.032,0l0,0.032l-0.032,0l-0.032,0.022l-0.054,0.064l-0.053,0.021l-0.065,0.064l-0.085,0.021l-0.054,0.064l-0.172,0.106l-0.118,0.086l-0.085,0.063l-0.108,0.054l-0.235,0.17l-0.108,0.085l-0.15,0.085l-0.107,0.086l-0.15,0.085l-0.14,0.117l-0.171,0.085l-0.14,0.107l-0.171,0.117l-0.172,0.085l-0.718,0.49l-0.397,0.255l-0.407,0.256l-0.429,0.277l-0.461,0.287l-0.483,0.309l-0.482,0.32l-0.483,0.309l-0.525,0.308l-0.536,0.341l-0.579,0.373l-0.536,0.341l-1.201,0.745l-0.601,0.394l-0.632,0.373l-0.633,0.394l-0.654,0.426l-0.654,0.394l-0.697,0.426l-0.686,0.436l-0.708,0.426l-0.686,0.426l-0.719,0.426l-0.74,0.447l-0.718,0.426l-0.74,0.458l-0.783,0.458l-0.739,0.458l-0.772,0.447l-0.772,0.49l-0.772,0.447l-1.577,0.938l-1.597,0.937l-1.609,0.915l-1.597,0.938l-3.26,1.874l-1.63,0.916l-1.608,0.905l-1.63,0.884l-1.576,0.873l-0.794,0.436l-0.804,0.426l-0.772,0.426l-1.544,0.788l-0.772,0.405l-0.74,0.394l-0.204,0.117l-0.085,0.022l-0.054,0.031l-0.032,0.032l-0.15,0.054l-0.107,0.032l-0.118,0.021l-0.108,0.032l-0.321,-0l-0.086,-0.032l-0.086,-0.021l-0.086,-0.032l-0.118,-0.032l-0.085,-0.022l-0.108,-0.063l-0.118,-0.054l-0.085,-0.053l-0.14,-0.053l-0.118,-0.096l-0.118,-0.085l-0.139,-0.107l-0.118,-0.117l-0.139,-0.117l-0.14,-0.138l-0.15,-0.139l-0.171,-0.149l-0.14,-0.17l-0.171,-0.171l-0.172,-0.191l-0.171,-0.203l-0.172,-0.223l-0.086,-0.117l-0.053,-0.054l-0,-0.064l-0.033,0l-0.032,-0.021l-0.086,-0.032l-0.053,-0.032l-0.086,0l-0.086,-0.021l-0.289,-0l-0.107,0.021l-0.086,0.032l-0.118,0.032l-0.118,0.021l-0.107,0.032l-0.236,0.117l-0.258,0.107l-0.257,0.149l-0.257,0.138l-0.279,0.171l-0.29,0.202l-0.289,0.192l-0.29,0.202l-0.278,0.224l-0.322,0.234l-0.311,0.256l-0.6,0.479l-0.633,0.511l-0.601,0.511l-0.6,0.49l-0.279,0.256l-0.289,0.223l-0.258,0.224l-0.289,0.202l-0.257,0.203l-0.258,0.191l-0.225,0.171l-0.225,0.181l-0.236,0.138l-0.193,0.107l-0.032,0.031l-0.032,0l-0.022,0.032l-0.064,0.054l-0.086,0.053l-0.086,0.064l-0.086,0.085l-0.117,0.085l-0.311,0.309l-0.14,0.117l-0.257,0.256l-0.579,0.511l-0.622,0.511l-0.322,0.256l-0.343,0.202l-0.171,0.106l-0.515,0.256l-0.172,0.064l-0.139,0.053l-0.172,0.053l-0.343,0.064l-0.139,0l-0.172,-0.032l-0.15,-0.032l-0.107,0l-0.032,-0.021l-0.032,-0.032l-0.022,-0.032l0,-0.17l0.022,-0.021l0.032,-0.064l0.053,-0.139l0.086,-0.138l0.065,-0.085l0.107,-0.171l0.15,-0.17l0.139,-0.203l0.172,-0.202l0.343,-0.447l0.204,-0.234l0.193,-0.256l0.236,-0.224l0.193,-0.255l0.428,-0.543l0.408,-0.543l0.193,-0.277l0.182,-0.256l0.172,-0.287l0.161,-0.288l0.15,-0.255l0.139,-0.256l0,-0.053l0.032,-0l0,-0.085l-0.032,-0l-0.053,0.031l-0.065,0.022l-0.139,0.085l-0.118,0.064l-0.107,0.053l-0.14,0.085l-0.118,0.086l-0.171,0.085l-0.15,0.117l-0.172,0.106l-0.172,0.117l-0.193,0.139l-0.203,0.149l-0.204,0.138l-0.193,0.139l-0.204,0.17l-0.225,0.171l-0.204,0.17l-0.225,0.202l-0.204,0.203l-0.225,0.191l-0.461,0.405l-0.429,0.426l-0.429,0.458l-0.225,0.255l-0.407,0.448l-0.086,0.149l-0.021,0.021l-0.033,0l0,0.064l-0.085,0.106l-0.086,0.15l-0.086,0.138l-0.118,0.138l-0.118,0.15l-0.107,0.138l-0.29,0.287l-0.171,0.139l-0.172,0.17l-0.343,0.288l-0.343,0.309l-0.375,0.287l-0.397,0.256l-0.375,0.287l-0.365,0.224l-0.171,0.138l-0.204,0.086l-0.343,0.234l-0.14,0.085l-0.171,0.085l-0.15,0.053l-0.14,0.086l-0.118,0.053l-0.107,0.032l-0.118,0.053l-0.086,0.032l-0.225,0l0,-0.032l-0.032,-0.021l0,-0.064l0.032,-0.053l0,-0.054l0.022,-0.064l0.064,-0.106l0.022,-0.085l0.064,-0.064l0.021,-0.085l0.118,-0.171l0.118,-0.191l0.279,-0.405l0.172,-0.224l0.171,-0.234l0.408,-0.511l0.193,-0.256l0.428,-0.511l0.204,-0.255l0.118,-0.139l0.054,-0.053l-0,-0.032l-0.054,0.032l-1.147,0.703l-2.316,1.427l-4.611,2.843l-1.169,0.714l-0.568,0.362l-0.289,0.17l-0.14,0.085l-0.032,0.032l-0.032,0l-0,0.085l0.064,0.224l0.054,0.202l0.053,0.224l0.086,0.202l0.064,0.171l0.086,0.202l0.258,0.511l0.107,0.139l0.118,0.149l0.118,0.17l0.107,0.106l0.118,0.139l0.257,0.266l0.29,0.256l0.279,0.191l0.289,0.235l0.311,0.191l0.343,0.203l0.322,0.202l0.343,0.192l0.364,0.202l0.344,0.224l0.203,0.085l0.086,0.064l0.054,0.021l0.032,0.032l0.257,0.138l0.225,0.118l0.494,0.287l0.514,0.277l0.515,0.287l0.515,0.32l0.257,0.138l0.515,0.341l0.225,0.171l0.257,0.202l0.236,0.192l0.193,0.202l0.236,0.202l0.193,0.192l0.172,0.234l0.171,0.224l0.322,0.479l0.107,0.256l0.118,0.287l0.086,0.288l0.053,0.287l0.065,0.277l0.021,0.17l0,0.799l-0.021,0.202l-0.065,0.341l-0.021,0.171l-0.064,0.191l-0.054,0.203l-0.118,0.372l-0.021,0.107l-0.033,0.032l0,0.032l-0.032,0.021l0,0.085l-0.021,0.085l-0.065,0.086l-0.021,0.063l-0.086,0.054l-0.064,0.053l-0.086,0.032l-0.193,-0l-0.118,-0.053l-0.225,-0.086l-0.204,-0.085l-0.171,-0.064l-0.172,-0.053l-0.171,-0.032l-0.14,-0.021l-0.15,-0.032l-0.257,-0l-0.086,0.032l-0.107,0.021l-0.172,0.064l-0.171,0.107l-0.172,0.17l-0.118,0.181l-0.086,0.138l-0.085,0.171l-0.204,0.372l-0.086,0.171l-0.107,0.138l-0.065,0.085l-0.053,0.086l-0.086,0.053l-0.086,0.085l-0.396,0.32l-0.236,0.17l-0.193,0.17l-0.236,0.139l-0.225,0.138l-0.236,0.117l-0.225,0.118l-0.515,0.17l-0.118,0.021l-0.139,0.032l-0.569,0l-0.15,-0.032l-0.139,0l-0.172,-0.053l-0.139,-0.032l-0.172,-0.053l-0.15,-0.053l-0.171,-0.064l-0.344,-0.171l-0.053,-0.021l-0.032,-0l-0.086,-0.032l-0.172,-0.053l-0.171,-0.032l-0.14,-0.032l-0.118,-0.021l-0.139,-0.032l-0.204,-0l-0.107,0.032l-0.086,-0l-0.15,0.053l-0.053,0.032l-0.054,0.021l-0.15,0.149l-0.054,0.107l-0.053,0.085l-0.033,0.149l-0.032,0.106l-0.053,0.235l-0.033,0.085l-0.021,0.085l-0.032,0.085l-0.064,0.053l-0.108,0.15l-0.15,0.138l-0.139,0.138l-0.172,0.118l-0.171,0.138l-0.172,0.117l-0.107,0.032l-0.118,0.053l-0.118,0.032l-0.118,0.054l-0.107,0.031l-0.118,0l-0.601,-0.031l-0.568,-0.032l-0.579,-0.022l-0.568,-0.064l-0.547,-0.053l-0.536,-0.085l-1.03,-0.17l-0.514,-0.118l-0.493,-0.106l-0.483,-0.149l-0.461,-0.117l-0.483,-0.139l-0.461,-0.17l-0.428,-0.139l-0.462,-0.17l-0.428,-0.17l-0.429,-0.203l-0.397,-0.17l-0.429,-0.202l-0.397,-0.192l-0.407,-0.202l-0.397,-0.224l-0.375,-0.202l-0.397,-0.224l-0.74,-0.426l-0.75,-0.458l-0.74,-0.49l-0.719,-0.447l-0.718,-0.49l-0.172,-0.106l-0.085,-0.064l-0.022,-0.021l-0.15,-0.118l-0.139,-0.085l-0.14,-0.117l-0.15,-0.106l-0.139,-0.15l-0.14,-0.138l-0.15,-0.138l-0.139,-0.149l-0.172,-0.139l-0.311,-0.341l-0.321,-0.34l-0.311,-0.341l-0.343,-0.373l-0.665,-0.713l-0.333,-0.362l-0.321,-0.341l-0.343,-0.32l-0.311,-0.309l-0.15,-0.138l-0.172,-0.149l-0.139,-0.107l-0.172,-0.117l-0.118,-0.117l-9.489,0l-0.032,-0.021l-0.14,-0.117l-0.118,-0.117l-0.139,-0.086l-0.15,-0.085l-0.14,-0.085l-0.139,-0.053l-0.15,-0.064l-0.172,-0.053l-0.139,-0.054l-0.172,-0.032l-0.139,-0.031l-0.182,-0.022l-0.161,-0.032l-0.172,-0.032l-0.354,0l-0.686,0.064l-0.364,0.053l-0.751,0.171l-0.365,0.117l-0.375,0.117l-0.397,0.139l-0.375,0.138l-0.375,0.149l-0.365,0.17l-0.75,0.341l-0.74,0.362l-0.343,0.171l-0.376,0.202l-0.343,0.17l-0.311,0.171l-0.343,0.17l-0.321,0.171l-0.279,0.138l-0.29,0.149l-0.289,0.139l-0.258,0.138l-0.257,0.085l-0.225,0.117l-0.139,0.054l-0.033,-0l-0.053,0.031l-0.086,0.032l-0.118,0.022l-0.118,0.064l-0.279,0.106l-0.15,0.064l-0.171,0.053l-0.14,0.064l-0.204,0.085l-0.171,0.054l-0.365,0.17l-0.429,0.138l-1.233,0.49l-0.407,0.139l-0.193,0.053l-0.172,0.064l-0.171,0.085l-0.204,0.053l-0.139,0.032l-0.172,0.053l-0.15,0.032l-0.139,0.022l-0.118,0.032l-0.108,0.032l-0.289,-0l-0.032,-0.032l-0,-0.032l-0.022,-0.022l0.022,-0.032l-0,-0.085l0.032,-0.032l0.032,-0.053l0.054,-0.053l0.032,-0.064l0.053,-0.053l0.054,-0.086l0.064,-0.053l0.108,-0.149l0.343,-0.341l0.171,-0.191l0.204,-0.203l0.225,-0.202l0.236,-0.202l0.225,-0.192l0.258,-0.234l0.225,-0.224l0.525,-0.426l0.515,-0.458l0.515,-0.426l0.225,-0.191l0.257,-0.203l0.225,-0.202l0.204,-0.17l0.118,-0.086l0.021,-0.021l0,-0.032l-2.369,0l-2.488,-0.032l-0.718,0l-0.032,-0.021l-0.086,-0.064l-0.108,-0.106l-0.15,-0.086l-0.139,-0.117l-0.139,-0.053l-0.151,-0.096l-0.278,-0.106l-0.15,-0.064l-0.172,-0.054l-0.172,-0.031l-0.139,-0.022l-0.171,-0.032l-0.172,0l-0.172,-0.032l-0.343,0l-0.343,0.032l-0.375,0.032l-0.343,0.053l-0.376,0.086l-0.364,0.117l-0.375,0.117l-0.397,0.106l-0.375,0.15l-0.376,0.138l-0.364,0.138l-0.408,0.171l-0.74,0.341l-0.718,0.372l-0.343,0.203l-0.365,0.17l-0.343,0.17l-0.321,0.171l-0.622,0.34l-0.322,0.139l-0.29,0.17l-0.257,0.117l-0.257,0.107l-0.258,0.117l-0.225,0.085l-0.086,0.054l-0.032,-0l-0.171,0.063l-0.107,0.054l-0.118,0.032l-0.14,0.053l-0.15,0.053l-0.139,0.064l-0.172,0.085l-0.171,0.053l-0.172,0.064l-0.204,0.086l-0.364,0.138l-0.408,0.17l-0.825,0.309l-0.429,0.149l-0.397,0.139l-0.172,0.085l-0.203,0.053l-0.172,0.064l-0.343,0.106l-0.15,0.032l-0.139,0.032l-0.14,0.054l-0.118,-0l-0.118,0.032l-0.257,-0l-0.022,-0.032l-0.032,-0.032l0,-0.054l0.054,-0.085l-0,-0.053l0.064,-0.064l0.022,-0.053l0.064,-0.053l0.021,-0.064l0.065,-0.085l0.053,-0.054l0.151,-0.17l0.171,-0.17l0.161,-0.171l0.204,-0.17l0.203,-0.203l0.226,-0.202l0.235,-0.224l0.226,-0.202l0.482,-0.447l0.515,-0.426l0.514,-0.458l0.258,-0.202l0.257,-0.224l0.236,-0.202l0.225,-0.192l0.225,-0.17l0.236,-0.203l0.022,-0.032l0.032,-0.021l0.032,0l0,-0.032l-14.818,0l-0,0.032l0.053,0.053l0.054,0.117l0.086,0.086l0.064,0.106l0.054,0.117l0.053,0.139l0.064,0.117l0.022,0.138l0.032,0.117l0.032,0.139l0,0.149l0.022,0.106l-0,0.288l-0.022,0.117l-0.032,0.139l-0.032,0.117l-0.022,0.138l-0.032,0.117l-0.053,0.107l-0.065,0.117l-0.053,0.117l-0.054,0.107l-0.236,0.319l-0.107,0.085l-0.204,0.203l-0.118,0.053l-0.107,0.085l-0.118,0.053l-0.118,0.064l-0.107,0.053l-0.15,0.054l-0.118,0.032l-0.107,0.031l-0.15,0.022l-0.108,0.032l-0.375,-0l-0.107,0.032l-0.118,-0l-0.118,0.021l-0.118,0.032l-0.107,0.032l-0.118,0.053l-0.107,0.053l-0.118,0.064l-0.086,0.053l-0.118,0.054l-0.086,0.085l-0.086,0.064l-0.171,0.17l-0.086,0.107l-0.054,0.085l-0.085,0.085l-0.065,0.117l-0.053,0.117l-0.032,0.086l-0.054,0.106l-0.086,0.319l0,0.139l-0.032,0.117l-0,0.224l0.032,0.117l0,0.138l0.032,0.117l0.022,0.107l0.032,0.117l0.054,0.117l0.064,0.117l0.053,0.086l0.054,0.106l0.064,0.085l0.054,0.117l0.204,0.203l0.021,0.053l0.065,0.085l0.053,0.117l0.054,0.107l0.032,0.117l0.054,0.117l0.032,0.106l-0,0.118l0.032,0.138l-0,0.49l-0.032,0.138l-0.032,0.118l-0.022,0.106l-0.032,0.117l-0.054,0.117l-0.064,0.107l-0.054,0.117l-0.053,0.085l-0.15,0.202l-0.054,0.086l-0.172,0.17l-0.117,0.085l-0.086,0.053l-0.107,0.086l-0.118,0.064l-0.118,0.053l-0.108,0.053l-0.235,0.064l-0.108,0.021l-0.118,0.032l-0.139,0.032l-0.461,0l-0.14,-0.032l-0.064,0l-0.021,-0.032l-0.118,0l-0.054,-0.021l-0.064,-0l-0.086,-0.032l-0.086,-0l-0.193,-0.053l-0.407,-0.064l-0.225,-0.053l-0.461,-0.086l-0.193,-0.053l-0.408,-0.064l-0.054,-0.021l-0.085,-0l-0.065,-0.032l-0.139,-0l-0,-0.032l-0.054,0l-0.289,-0.053l-0.601,-0.117l-2.369,-0.48l-1.201,-0.255l-1.18,-0.256l-1.168,-0.255l-1.18,-0.288l-1.169,-0.287l-1.147,-0.277l-1.137,-0.341l-0.546,-0.149l-0.569,-0.17l-0.547,-0.171l-0.546,-0.191l-0.537,-0.171l-1.093,-0.405l-0.515,-0.202l-0.515,-0.192l-0.514,-0.234l-0.515,-0.192l-0.515,-0.234l-0.482,-0.223l-0.493,-0.256l-0.483,-0.224l-0.461,-0.255l-0.107,-0.085l-0.032,-0l-0.032,-0.032l-0.054,-0.032l-0.054,-0.022l-0.032,-0.063l-0.086,-0.139l0,-0.032l-0.032,-0.053l-0.053,-0.117l-0.151,-0.256l-0.085,-0.106l-0.022,-0.064l0,-0.021l-0.032,-0.064l-0.032,-0.022l-0,-0.032l-0.054,-0.053l-0.053,-0.117l-0.258,-0.49l-0.118,-0.255l-0.139,-0.256l-0.118,-0.256l-0.139,-0.276l-0.118,-0.288l-0.14,-0.309l-0.15,-0.319l-0.279,-0.682l-0.15,-0.362l-0.139,-0.405l-0.054,-0.223l-0.086,-0.202l-0.085,-0.224l-0.065,-0.234l-0.085,-0.224l-0.086,-0.256l-0.054,-0.255l-0.053,-0.117l-0.033,-0.054l0,-0.053l-0.032,-0.032l-0.965,-0.138l-1.951,-0.341l-0.912,-0.149l-0.943,-0.17l-0.922,-0.171l-0.88,-0.138l-0.922,-0.139l-0.858,-0.17l-0.857,-0.149l-0.858,-0.139l-0.858,-0.17l-0.826,-0.138l-0.804,-0.149l-0.804,-0.139l-0.793,-0.149l-1.544,-0.277l-0.751,-0.149l-0.74,-0.138l-0.75,-0.139l-0.708,-0.117l-0.719,-0.138l-0.718,-0.15l-0.686,-0.106l-0.654,-0.149l-0.687,-0.139l-0.654,-0.117l-0.632,-0.138l-0.633,-0.117l-0.622,-0.107l-0.611,-0.149l-0.6,-0.106l-0.601,-0.117l-0.568,-0.139l-0.568,-0.117l-0.579,-0.117l-0.537,-0.107l-1.093,-0.234l-0.515,-0.117l-0.515,-0.107l-0.482,-0.117l-0.515,-0.117l-0.461,-0.106l-0.482,-0.086l-0.923,-0.234l-0.45,-0.106l-0.429,-0.085l-0.429,-0.118l-0.429,-0.085l-0.407,-0.117l-0.397,-0.085l-0.397,-0.107l-0.375,-0.085l-0.375,-0.117l-0.375,-0.085l-0.365,-0.117l-1.029,-0.256l-0.322,-0.106l-0.622,-0.171l-0.322,-0.085l-0.278,-0.085l-0.579,-0.17l-0.258,-0.086l-0.278,-0.085l-0.258,-0.096l-0.257,-0.085l-0.236,-0.074l-0.257,-0.096l-0.226,-0.054l-0.203,-0.085l-0.451,-0.17l-0.203,-0.053l-0.204,-0.086l-0.172,-0.085l-0.375,-0.149l-0.343,-0.138l-0.311,-0.139l-0.311,-0.149l-0.257,-0.138l-0.258,-0.117l-0.236,-0.139l-0.193,-0.138l-0.203,-0.117l-0.172,-0.118l-0.171,-0.138l-0.118,-0.117l-0.14,-0.107l-0.171,-0.234l-0.086,-0.106l-0.054,-0.117l-0.064,-0.086l-0.021,-0.117l-0.033,-0.106l0,-0.405l0.033,-0.085l0.021,-0.085l0.064,-0.117l0.086,-0.171l0.086,-0.138l0.021,-0l0,-0.032l0.172,-0.192l0.15,-0.17l0.172,-0.171l0.193,-0.149l0.171,-0.138l0.236,-0.117l0.193,-0.107l0.236,-0.117l0.193,-0.085l0.236,-0.117l0.257,-0.054l0.225,-0.085l0.225,-0.053l0.494,-0.149l0.482,-0.085l0.118,-0.022l0.086,-0.032l0.054,0l0.053,-0.031l0.408,-0.054l0.364,-0.085l0.376,-0.053l0.375,-0.085l0.343,-0.064l0.311,-0.053l0.343,-0.054l0.289,-0.064l0.311,-0.053l0.258,-0.053l0.257,-0.064l0.257,-0.053l0.236,-0.054l0.226,-0.063l0.171,-0.022l0.204,-0.064l0.139,-0.053l0.14,-0.032l0.118,-0.053l0.085,-0.064l0.086,-0.021l0.054,-0.064l0.032,-0.021l0.032,-0.064l-0.032,-0.054l-0.118,-0.117l-0.054,-0.021l-0.053,-0.032l-0.065,-0.032l-0.053,0l-0.086,-0.021l-0.054,-0.032l-0.085,-0.032l-0.204,-0.053l-0.086,-0.032l-0.118,-0.022l-0.107,-0.032l-0.15,-0.031l-0.107,-0.022l-0.151,-0.032l-0.171,-0.032l-0.022,0l-0.032,-0.021l-0.032,0l-0.139,-0.032l-0.311,-0.053l-0.322,-0.064l-0.622,-0.107l-0.665,-0.117l-0.686,-0.138l-0.686,-0.117l-0.718,-0.117l-0.708,-0.107l-0.719,-0.117l-1.458,-0.224l-0.718,-0.149l-0.708,-0.106l-0.718,-0.149l-1.373,-0.277l-0.686,-0.149l-0.633,-0.139l-0.311,-0.085l-0.321,-0.085l-0.279,-0.085l-0.579,-0.171l-0.279,-0.085l-0.257,-0.085l-0.258,-0.117l-0.257,-0.085l-0.236,-0.117l-0.225,-0.086l-0.225,-0.106l-0.204,-0.085l-0.204,-0.118l-0.193,-0.117l-0.171,-0.106l-0.15,-0.117l-0.172,-0.139l-0.118,-0.117l-0.139,-0.117l-0.086,-0.138l-0.107,-0.139l-0.065,-0.149l-0.085,-0.106l-0.022,-0.171l-0.032,-0.149l-0.032,-0.138l-0,-0.139l0.064,-0.341l0.054,-0.17l0.053,-0.149l0.118,-0.192l0.086,-0.181l0.14,-0.17l0.139,-0.192l0.172,-0.202l0.032,-0l0.032,-0.032l0.053,-0l0.086,-0.053l0.204,-0.054l0.204,-0.085l0.364,-0.149l0.687,-0.277l0.321,-0.149l0.311,-0.106l0.633,-0.235l0.311,-0.106l0.311,-0.117l0.321,-0.085l0.343,-0.086l0.365,-0.085l0.204,-0.032l0.204,-0.053l0.203,-0.032l0.193,-0.021l0.225,-0.032l0.236,-0.032l0.225,-0.021l0.515,-0.064l0.257,-0.022l0.29,-0.032l0.29,0l0.278,-0.031l0.429,-0l0.118,-0.022l0.14,-0.032l0.15,-0.032l0.139,-0.053l0.118,-0.085l0.107,-0.085l0.118,-0.117l0.086,-0.107l0.172,-0.234l0.032,-0.139l0.021,-0.117l0.032,-0.138l0,-0.288l-0.032,-0.138l-0.021,-0.149l-0.065,-0.139l-0.085,-0.117l-0.086,-0.106l-0.107,-0.117l-0.086,-0.086l-0.118,-0.085l-0.054,-0.032l-0.064,-0.021l-0.022,-0.032l-0.064,-0l-0.364,-0.117l-0.344,-0.139l-0.375,-0.117l-0.343,-0.085l-0.343,-0.106l-0.343,-0.118l-0.343,-0.085l-0.311,-0.085l-0.354,-0.085l-0.622,-0.171l-0.29,-0.053l-0.311,-0.064l-0.289,-0.085l-0.29,-0.053l-0.568,-0.117l-0.547,-0.107l-1.029,-0.17l-0.483,-0.064l-0.461,-0.085l-0.45,-0.053l-0.44,-0.054l-0.418,-0.085l-0.407,-0.064l-0.375,-0.053l-0.397,-0.064l-0.343,-0.053l-0.343,-0.085l-0.344,-0.054l-0.343,-0.085l-0.311,-0.117l-0.289,-0.085l-0.311,-0.117l-0.579,-0.277l-0.257,-0.117l-0.258,-0.139l-0.45,-0.234l-0.236,-0.138l-0.193,-0.118l-0.204,-0.106l-0.171,-0.149l-0.15,-0.107l-0.161,-0.149l-0.118,-0.106l-0.14,-0.149l-0.096,-0.107l-0.107,-0.149l-0.065,-0.106l-0.053,-0.149l-0.054,-0.139l-0.032,-0.138l-0.022,-0.149l0,-0.139l0.022,-0.149l0.032,-0.138l0.054,-0.139l0.085,-0.17l0.086,-0.149l0.086,-0.171l0.15,-0.17l0.107,-0.138l0.343,-0.341l0.204,-0.171l0.225,-0.202l0.236,-0.17l0.258,-0.171l0.278,-0.191l0.29,-0.203l0.032,0l0.022,-0.032l0.085,0l0.15,-0.053l0.108,-0.053l0.118,-0.032l0.139,-0.032l0.15,-0.053l0.139,-0.054l0.204,-0.032l0.172,-0.053l0.193,-0.064l0.236,-0.053l0.193,-0.053l0.257,-0.085l0.236,-0.064l0.279,-0.053l0.257,-0.054l0.29,-0.096l0.289,-0.053l0.311,-0.053l0.29,-0.064l0.343,-0.085l0.311,-0.053l0.343,-0.054l0.343,-0.064l0.343,-0.053l0.375,-0.053l0.376,-0.064l0.364,-0.053l0.408,-0.032l0.364,-0.053l0.408,-0.032l0.193,-0.022l0.203,0l0.515,-0.032l0.482,-0.031l0.44,-0.022l0.429,-0.032l0.418,0l0.375,-0.032l0.376,0l0.343,-0.021l0.311,0l0.322,-0.032l0.278,0l0.29,-0.032l0.225,0l0.257,-0.021l0.204,-0l0.204,-0.032l0.364,-0l0.15,-0.032l0.14,-0l0.139,-0.021l0.118,-0.032l0.086,-0l0.086,-0.032l0.086,-0.022l0.085,0l0.054,-0.031l0.032,-0.032l0.054,-0.022l0.064,-0.064l0,-0.053l0.021,-0.032l0,-0.138l-0.021,-0.085l-0.064,-0.086l-0.054,-0.085l-0.054,-0.053l-0.064,-0.085l-0.086,-0.064l-0.139,-0.139l-0.054,-0.032l-0.032,0l-0.086,-0.053l-0.514,-0.309l-0.515,-0.319l-0.515,-0.256l-0.546,-0.277l-0.537,-0.266l-0.546,-0.223l-1.116,-0.48l-1.093,-0.457l-0.569,-0.224l-0.546,-0.256l-0.537,-0.255l-0.514,-0.256l-0.547,-0.255l-0.515,-0.32l-0.514,-0.277l-0.258,-0.17l-0.118,-0.085l-0.203,-0.149l-0.108,-0.054l-0.085,-0.085l-0.151,-0.064l-0.225,-0.17l-0.279,-0.171l-0.289,-0.17l-0.29,-0.192l-0.311,-0.202l-0.321,-0.202l-0.311,-0.192l-0.343,-0.234l-0.633,-0.447l-0.311,-0.235l-0.311,-0.223l-0.289,-0.256l-0.29,-0.224l-0.257,-0.255l-0.225,-0.234l-0.118,-0.139l-0.107,-0.117l-0.086,-0.117l-0.086,-0.107l-0.086,-0.117l-0.086,-0.138l-0.064,-0.117l-0.054,-0.117l-0.053,-0.107l-0.032,-0.117l-0.054,-0.117l0,-0.107l-0.032,-0.117l-0,-0.224l0.054,-0.202l0.064,-0.117l0.053,-0.106l0.054,-0.086l0.086,-0.117l0.204,-0.202l0.118,-0.085l0.278,-0.171l0.343,-0.17l0.204,-0.085l0.225,-0.085l0.236,-0.054l0.225,-0.085l0.29,-0.053l0.257,-0.085l0.172,-0.032l0.107,-0l0,-0.032l0.064,-0l0.515,-0.139l1.029,-0.287l0.515,-0.139l0.515,-0.117l0.514,-0.106l0.483,-0.117l0.751,-0.171l0.107,-0.032l0.118,0l0.203,-0.053l1.598,-0.287l1.63,-0.288l1.608,-0.224l1.598,-0.223l3.26,-0.405l1.629,-0.138l1.63,-0.118l0.804,-0.053l0.397,-0.032l0.086,0l-0,-0.021l0.032,-0.064l0,-0.394l-0.032,-0.224l-0.022,-0.266l-0.032,-0.223l-0.085,-0.203l-0.054,-0.223l-0.118,-0.203l-0.086,-0.191l-0.139,-0.235l-0.15,-0.191l-0.172,-0.203l-0.193,-0.202l-0.204,-0.224l-0.257,-0.202l-0.257,-0.224l-0.118,-0.085l-0.14,-0.117l-0.171,-0.106l-0.14,-0.149l-0.171,-0.107l-0.172,-0.117l-0.182,-0.117l-0.172,-0.139l-0.193,-0.117l-0.171,-0.138l-0.204,-0.117l-0.225,-0.139l-0.204,-0.149l-0.45,-0.277l-0.236,-0.17l-0.257,-0.149l-0.258,-0.171l-0.257,-0.138l-0.515,-0.341l-0.289,-0.202l-0.279,-0.171l-0.322,-0.17l-0.278,-0.192l-0.322,-0.202l-0.343,-0.202l-0.311,-0.192l-0.343,-0.234l-0.343,-0.192l-0.344,-0.234l-0.375,-0.224l-0.364,-0.255l-0.376,-0.235l-0.407,-0.255l-0.794,-0.511l-0.429,-0.277l-0.428,-0.256l-0.429,-0.287l-0.065,-0.054l-0.021,0l-0,-0.032l-0.032,0l-0.054,-0.032l-0.171,-0.138l-0.172,-0.117l-0.15,-0.139l-0.172,-0.138l-0.171,-0.149l-0.14,-0.17l-0.139,-0.139l-0.236,-0.341l-0.107,-0.17l-0.086,-0.17l-0.064,-0.171l-0.054,-0.202l-0.032,-0.171l-0,-0.287l0.032,-0.085l0,-0.085l0.032,-0.107l0.022,-0.085l0.032,-0.032l0.086,-0.17l0.118,-0.171l0.107,-0.138l0.15,-0.117l0.139,-0.118l0.172,-0.106l0.139,-0.117l0.172,-0.117l0.086,-0.054l0.032,0l0.515,-0.308l0.482,-0.267l0.493,-0.255l0.461,-0.256l0.965,-0.447l0.515,-0.234l0.493,-0.224l0.483,-0.202l0.514,-0.192l0.515,-0.202l0.483,-0.203l1.544,-0.511l0.514,-0.138l0.515,-0.171l0.547,-0.138l0.515,-0.117l0.514,-0.139l0.547,-0.117l0.515,-0.117l0.547,-0.085l0.514,-0.117l0.536,-0.085l0.547,-0.054l0.547,-0.085l0.515,-0.053l0.536,-0.053l0.547,-0.064l0.547,-0.032l0.546,-0.021l0.537,-0.032l1.49,-0l0,-0.032l0.032,-0.139l0.022,-0.138l-0,-0.256l-0.022,-0.149l-0.064,-0.277l-0.022,-0.117l-0.032,-0.138l-0.118,-0.256l-0.107,-0.255l-0.171,-0.256l-0.151,-0.256l-0.193,-0.255l-0.171,-0.234l-0.204,-0.256l-0.204,-0.224l-0.193,-0.234l-0.236,-0.192l-0.171,-0.234l-0.204,-0.192l-0.193,-0.17l-0.032,-0.064l-0.032,-0.021l-0.022,-0.032l-0.139,-0.139l-0.493,-0.543l-0.515,-0.543l-0.482,-0.532l-0.494,-0.543l-0.482,-0.511l-0.772,-0.767l-0.29,-0.234l-0.257,-0.256l-0.279,-0.256l-0.321,-0.255l-0.054,-0.053l-0.054,-0.032l-0.375,-0.309l-0.579,-0.511l-0.279,-0.256l-0.289,-0.255l-0.29,-0.288l-0.246,-0.288l-0.268,-0.276l-0.108,-0.149l-0.032,-0.022l-0.021,-0.032l-0.065,-0.053l-0.085,-0.149l-0.054,-0.107l-0.086,-0.149l-0.086,-0.138l-0.064,-0.117l-0.107,-0.277l-0.032,-0.149l-0.033,-0.139l-0.021,-0.138l0,-0.288l0.021,-0.138l0.033,-0.117l0.053,-0.149l0.086,-0.107l0.064,-0.117l0.022,0l-0,-0.032l0.032,0l0.064,-0.085l0.172,-0.106l0.161,-0.118l0.171,-0.085l0.097,-0.032l0.139,-0.053l0.14,-0.085l0.289,-0.117l0.601,-0.224l0.568,-0.224l1.201,-0.404l0.6,-0.192l1.201,-0.341l0.633,-0.17l1.233,-0.32l1.233,-0.276l1.201,-0.32l1.222,-0.287l0.601,-0.139l0.032,-0.032l0.086,0l0.085,-0.021l0.172,-0.032l0.311,-0.085l0.343,-0.053l0.375,-0.064l0.343,-0.054l0.687,-0.085l0.718,-0.053l0.719,-0.032l0.707,-0.053l0.719,-0.032l0.686,-0.021l0.343,-0l0.086,-0.032l0.225,-0l0.15,-0.032l0.139,-0l0.14,-0.022l0.171,0l0.204,-0.032l0.172,-0.032l0.203,0l0.226,-0.032l0.203,-0.021l0.451,-0.032l0.439,-0.053l0.483,-0.032l0.429,-0.032l0.461,0l0.225,-0.021l0.6,-0l0.172,0.021l0.171,0l0.172,0.032l0.139,0l0.151,0.032l0.107,0.021l0.118,0.064l0.086,0.021l0.085,0.064l-0.343,-0.404l-0.397,-0.394l-0.407,-0.394l-0.397,-0.373l-0.429,-0.341l-0.429,-0.372l-0.428,-0.341l-1.748,-1.395l-0.429,-0.341l-0.397,-0.362l-0.429,-0.373l-0.407,-0.373l-0.397,-0.362l-0.397,-0.404l-0.171,-0.203l-0.086,-0.106l-0.064,-0.064l-0.108,-0.138l-0.118,-0.139l-0.085,-0.117l-0.118,-0.17l-0.086,-0.139l-0.086,-0.149l-0.053,-0.17l-0.086,-0.139l-0.054,-0.17l-0.032,-0.139l-0.032,-0.17l-0.022,-0.17l-0.032,-0.149l0.032,-0.171l0,-0.17l0.022,-0.139l0.064,-0.17l0.054,-0.138l0.086,-0.15l0.085,-0.106l0.118,-0.149l0.086,-0.117l0.139,-0.085l0.118,-0.107l0.14,-0.085l0.139,-0.064l0.15,-0.085l0.279,-0.107l0.343,-0.117l0.322,-0.085l0.311,-0.085l0.086,-0.032l0.118,-0l0.085,-0.021l0.708,-0.171l1.437,-0.287l1.458,-0.288l1.426,-0.277l0.719,-0.117l0.718,-0.138l0.74,-0.086l0.718,-0.117l0.719,-0.085l0.707,-0.085l0.751,-0.053l0.708,-0.064l0.75,-0.021l0.708,-0l0.375,-0.032l0.397,-0l0.836,0.032l0.826,0.021l0.836,0.064l0.847,0.053l0.837,0.085l1.662,0.171l1.651,0.138l0.868,0.085l0.826,0.064l0.826,0.021l0.836,0.032l1.651,0l0.429,-0.032l0.408,-0.021l0.396,-0.032l0.429,-0.032l0.397,-0.053l0.15,-0l0,-0.032l-0.032,-0.021l-0.086,-0.086l-0.375,-0.404l-5.747,-6.39l-0.172,-0.202l-0.021,-0.032l-0,-0.021l-0.032,-0l-0.033,-0.064l-0.139,-0.138l-0.15,-0.171l-0.107,-0.202l-0.15,-0.171l-0.108,-0.17l-0.118,-0.192l-0.085,-0.202l-0.086,-0.17l-0.086,-0.203l-0.054,-0.202l-0.032,-0.192l-0.032,-0.202l0,-0.17l0.032,-0.203l0,-0.085l0.032,-0.085l0.022,-0.085l0.064,-0.085l0.022,-0.086l0.064,-0.085l0.054,-0.085l0.032,-0l-0,-0.021l0.053,-0.064l0.14,-0.107l0.118,-0.117l0.171,-0.085l0.14,-0.085l0.182,-0.054l0.139,-0.063l0.343,-0.107l0.054,0l1.437,-0.405l0.708,-0.17l0.718,-0.138l0.74,-0.171l0.718,-0.117l0.74,-0.138l0.718,-0.117l0.751,-0.086l0.74,-0.117l0.74,-0.053l0.75,-0.085l0.74,-0.053l0.74,-0.064l0.751,-0.022l1.479,-0.064l2.263,0l0.75,0.032l0.74,0.032l0.74,0.022l0.751,0.064l1.479,0.106l0.751,0.085l0.74,0.085l0.75,0.086l0.74,0.085l0.719,0.117l1.479,0.234l1.437,0.277l0.365,0.064l0.182,0.021l0.054,0.032l0.053,0l0.15,0.032l0.343,0.053l1.287,0.288l1.255,0.309l1.286,0.309l1.255,0.372l0.086,0l0.032,0.032l0.032,0l0.107,0.022l0.204,0.085l0.236,0.085l0.225,0.085l0.461,0.17l0.225,0.086l0.225,0.064l0.226,0.053l0.203,0.032l0.118,0.021l0.172,0l0.086,-0.021l0.085,-0l0.172,-0.064l0.054,-0.053l0.064,-0.054l0.086,-0.064l0.021,-0.085l0.064,-0.085l0.022,-0.106l0.064,-0.235l0.022,-0.138l-0,-0.373l-0.022,-0.192l-0.032,-0.202l-0.054,-0.202l-0.085,-0.192l-0.086,-0.202l-0.172,-0.341l-0.118,-0.202l-0.139,-0.171l-0.118,-0.17l-0.257,-0.341l-0.29,-0.341l-0.257,-0.34l-0.279,-0.341l-0.118,-0.171l-0.118,-0.202l-0.118,-0.17l-0.107,-0.171l-0.086,-0.191l-0.086,-0.203l-0.085,-0.17l-0.054,-0.202l-0.032,-0.224l-0.032,-0.202l-0,-0.458l0.032,-0.224l0.053,-0.223l0.065,-0.256l0.053,-0.117l0.054,-0.139l0.054,-0.117l0.032,-0.085l0.053,-0.117l0.086,-0.107l0.172,-0.234l0.096,-0.085l0.086,-0.107l0.107,-0.085l0.086,-0.085l0.118,-0.064l0.118,-0.085l0.107,-0.053l0.258,-0.139l0.257,-0.085l0.579,-0.17l0.279,-0.064l0.289,-0.053l0.311,-0.032l0.29,-0.022l1.544,0l0.482,0.022l0.976,0.064l3.774,0.17l0.944,0.053l0.943,0.085l0.944,0.054l0.954,0.085l0.933,0.117l0.954,0.085l0.944,0.117l0.944,0.107l0.943,0.149l1.887,0.277l0.944,0.17l0.118,0.032l0.086,0l0.107,0.032l0.257,0.053l0.515,0.085l1.008,0.224l0.997,0.202l0.997,0.224l0.976,0.256l0.997,0.255l1.008,0.288l0.976,0.287l0.997,0.288l0.054,0.021l0.032,0l0.086,0.032l0.203,0.053l0.193,0.064l0.408,0.107l0.225,0.064l0.461,0.106l0.45,0.149l0.494,0.107l0.482,0.149l0.515,0.138l0.493,0.139l0.515,0.17l0.482,0.149l0.461,0.192l0.451,0.17l0.236,0.117l0.225,0.085l0.203,0.118l0.193,0.085l0.172,0.106l0.204,0.117l0.171,0.118l0.14,0.106l0.171,0.149l0.113,0.08l-0.627,-0.623l-0.311,-0.341l-0.311,-0.372l-0.322,-0.363l-0.279,-0.404l-0.257,-0.362l-0.29,-0.405l-0.257,-0.394l-0.225,-0.426l-0.236,-0.405l-0.225,-0.426l-0.204,-0.425l-0.193,-0.448l-0.172,-0.426l-0.171,-0.458l-0.15,-0.458l-0.086,-0.223l-0.032,-0.117l-0.022,-0.054l0,-0.063l-0.064,-0.171l-0.054,-0.17l-0.032,-0.171l-0.021,-0.191l-0.032,-0.171l-0,-0.17l0.032,-0.17l0.021,-0.171l0.065,-0.17l0.021,-0.085l0.064,-0.118l0.054,-0.085l0.054,-0.053l0.15,-0.17l0.139,-0.117l0.172,-0.118l0.171,-0.106l0.172,-0.085l0.204,-0.085l0.085,-0.032l0.054,-0.032l0.032,-0l0,-0.022l0.054,0l0.289,-0.085l0.29,-0.064l0.278,-0.053l0.322,-0.032l0.879,0l0.322,0.032l0.279,0.032l0.322,0.053l0.278,0.053l0.322,0.064l0.6,0.139l0.601,0.17l0.289,0.085l0.14,0.054l0.086,-0l-0,0.032l0.053,-0l0.065,0.031l0.225,0.054l0.89,0.287l0.911,0.277l0.89,0.288l0.879,0.308l0.89,0.32l1.78,0.618l0.879,0.351l0.89,0.341l0.858,0.341l0.89,0.34l0.858,0.362l0.879,0.341l0.858,0.373l0.869,0.394l0.857,0.373l0.858,0.394l0.858,0.404l0.826,0.394l0.857,0.426l0.826,0.426l0.858,0.426l0.836,0.426l0.826,0.426l0.836,0.458l0.826,0.458l0.804,0.458l0.826,0.447l0.804,0.49l0.825,0.479l0.805,0.479l0.804,0.49l0.793,0.511l0.772,0.511l0.804,0.512l0.397,0.255l0,-0.053l-0.021,-0.032l-0.376,-0.735l-1.426,-2.992l-0.718,-1.48l-0.343,-0.735l-0.172,-0.373l-0.118,-0.192l0,-0.032l-0.021,-0.031l-0,-0.054l-0.15,-0.255l-0.086,-0.288l-0.086,-0.255l-0.053,-0.139l-0,-0.138l-0.033,-0.149l0,-0.426l0.033,-0.117l0.032,-0.107l0.053,-0.149l0.054,-0.085l0.139,-0.171l0.033,-0.021l0.085,-0.085l0.086,-0.064l0.118,-0.021l0.086,-0.064l0.086,-0.021l0.118,-0l0.107,-0.032l0.547,-0l0.225,0.032l0.204,0.053l0.118,0.032l0.053,-0l0.032,0.021l0.086,0l0.172,0.064l0.622,0.17l0.664,0.192l0.654,0.202l0.654,0.224l0.633,0.234l0.665,0.256l0.622,0.255l0.665,0.256l0.622,0.287l0.632,0.256l0.633,0.309l0.6,0.287l0.622,0.309l0.601,0.309l0.6,0.32l0.611,0.34l0.59,0.309l0.289,0.17l0.033,0l-0,0.032l0.032,0l0.021,0.032l0.086,0.054l0.665,0.372l2.573,1.534l1.255,0.788l0.632,0.404l0.344,0.192l0.139,0.117l0.118,0.064l0.139,0.085l0.118,0.086l0.29,0.17l0.622,0.341l0.321,0.17l0.343,0.192l0.687,0.373l0.343,0.223l0.343,0.202l0.311,0.203l0.311,0.223l0.321,0.203l0.258,0.223l0.107,0.118l0.118,0.106l0.118,0.117l0.107,0.117l0.086,0.107l0.086,0.117l0.032,0.053l0.032,0.032l-0.086,-0.138l-0.15,-0.235l-0.021,-0.053l-0,-0.032l-0.032,-0.021l-0.086,-0.17l-0.204,-0.373l-0.172,-0.341l-0.139,-0.341l-0.139,-0.372l-0.15,-0.363l-0.14,-0.34l-0.118,-0.405l-0.086,-0.362l-0.107,-0.373l-0.086,-0.372l-0.064,-0.394l-0.054,-0.373l-0.053,-0.394l-0.032,-0.373l-0.032,-0.394l-0.022,-0.373l0,-0.511l0.022,-0.032l0.085,-0.021l0.172,-0.096l0.171,-0.053l0.172,-0.032l0.547,-0l0.171,0.064l0.204,0.021l0.172,0.064l0.171,0.053l0.193,0.085l0.515,0.256l0.343,0.202l0.182,0.118l0.022,0.021l0.139,0.085l0.322,0.202l1.801,1.278l0.569,0.426l0.6,0.458l0.579,0.458l0.568,0.479l0.547,0.458l0.568,0.479l0.547,0.511l0.536,0.48l0.547,0.511l0.515,0.511l0.547,0.522l0.514,0.511l0.483,0.511l0.515,0.533l0.493,0.543l0.45,0.543l0.461,0.532l0.461,0.575l0.451,0.565l0.89,1.107l0.89,1.14l0.429,0.575l0.461,0.532l0.45,0.575l0.493,0.533l0.483,0.511l0.482,0.543l0.515,0.479l0.515,0.522l0.289,0.223l0.257,0.224l0.086,0.064Zm-152.442,56.444l-2.627,5.484l5.64,-1.864l5.855,-8.348l-8.868,4.728Zm107.475,-46.445l8.267,5.985l-4.16,-7.891l-5.801,-3.503l1.694,5.409Zm-36.561,-9.849l2.091,6.208l13.542,8.509l-8.235,-11.181l-7.398,-3.536Zm10.993,-5.555l-6.508,-8.392l-6.23,-2.769l2.198,4.963l10.54,6.198Zm-6.943,30.012l14.26,4.887l-11.205,-10.585l-8.964,-1.799l4.568,6.165l1.341,1.332Zm-42.626,-33.507l11.935,4.355l-7.549,-6.89l-7.913,-2.087l3.527,4.622Zm-18.489,45.696l-4.783,4.185l5.233,0.352l10.133,-6.326l-10.583,1.789Zm-21.636,-17.414l-5.19,4.941l7.281,-1.171l8.277,-6.368l-10.368,2.598Zm67.272,13.264l15.129,4.707l-10.347,-9.03l-8.321,-0.777l3.539,5.1Zm47.874,-38.422l6.992,7.177l-3.089,-8.54l-4.085,-2.492l0.182,3.855Zm-108.401,9.344l6.337,1.598l11.559,-2.162l-11.559,-2.321l-6.337,2.885Zm4.169,24.727l7.978,1.108l12.202,-4.132l-13.221,-0.852l-6.959,3.876Zm25.293,-6.22l4.804,3.451l12.503,1.299l-10.08,-5.74l-7.227,0.99Zm62.372,-15.282l4.332,7.582l10.583,6.251l-7.238,-10.404l-7.677,-3.429Zm-36.924,-1.059l9.704,5.549l-5.586,-8.009l-6.38,-2.587l2.262,5.047Zm-51.102,35.926l-10.637,5.75l-3.431,5.825l5.672,-1.863l8.396,-9.712Zm-18.216,-5.822l-3.131,5.889l6.123,-1.619l8.331,-8.444l-11.323,4.174Zm48.541,-0.891l5.78,3.599l14.947,0.277l-12.964,-5.133l-7.763,1.257Zm-23.836,-21.392l7.173,1.31l13.307,-1.629l-12.931,-2.226l-7.549,2.545Zm110.437,-8.099l7.024,6.613l-4.504,-7.614l-3.753,-2.949l1.233,3.95Zm-0.048,-10.35l6.048,5.984l-1.662,-5.718l-4.547,-4.27l0.161,4.004Zm-105.39,54.715l7.902,0.991l12.17,-4.399l-13.456,-0.436l-6.616,3.844Zm86.416,-50.42l-4.493,-9.616l-6.423,-3.439l0.89,5.473l10.026,7.582Zm-37.632,-2.857l-6.562,-8.838l-6.284,-2.513l2.016,5.079l10.83,6.272Zm-40.938,1.207l3.924,4.249l12.438,2.375l-8.728,-6.741l-7.634,0.117Zm19.783,17.405l12.931,4.004l-8.203,-7.987l-7.87,-1.193l3.142,5.176Zm-11.986,42.122l-7.345,4.919l8.75,0.629l11.526,-6.006l-12.931,0.458Zm-23.074,7.456l-2.198,4.856l5.812,-1.917l6.079,-7.901l-9.693,4.962Zm10.384,7.226l-2.466,5.964l5.479,-1.225l7.087,-8.285l-10.1,3.546Zm31.508,-26.327l-5.458,4.728l7.249,0.192l11.483,-6.688l-13.274,1.768Zm-64.01,25.656l-1.255,7.157l4.911,-4.196l2.831,-9.893l-6.487,6.932Zm-8.357,-11.155l0.782,5.441l3.582,-4.664l1.04,-8.956l-5.404,8.179Zm156.199,-58.252l4.986,5.771l-2.885,-6.421l-2.713,-2.598l0.612,3.248Zm-137.941,78.388l0.815,5.409l3.377,-4.121l0.633,-8.508l-4.825,7.22Zm167.278,-46.345l0.482,0.978l0.246,1.108l-0.01,1.086l-0.279,1.086l-0.643,1.161l-1.105,1.054l-1.415,0.671l-1.094,0.191l-0.825,-0.042l-0.751,-0.16l-0.804,-0.266l-0.686,-0.266l-0.869,-0.426l-1.758,-1.097l-0.408,-0.288l-0.686,-0.713l-0.74,-0.65l-0.011,0.384l0.322,1.16l0.504,1.087l0.675,1.001l0.815,0.873l0.955,0.745l1.05,0.586l1.062,0.277l1.212,0.138l1.222,-0.042l1.19,-0.224l1.158,-0.405l1.083,-0.564l0.976,-0.724l0.032,-0.011l0.858,-0.756l0.74,-0.884l0.568,-0.99l0.407,-1.065l0.226,-1.129l-0,-0.053l0.032,-1.044l-0.14,-1.033l-0.332,-0.99l-0.493,-0.916l-0.654,-0.82l-0.772,-0.692l-0.89,-0.543l-0.279,-0.149l-1.297,-0.565l-1.373,-0.394l-1.415,-0.213l-1.426,-0.031l-1.416,0.159l-0.139,0.022l-0.922,0.276l-0.858,0.458l-0.751,0.618l-0.611,0.745l-0.461,0.852l-0.279,0.927l-0.096,0.958l0.096,0.959l0.279,1.256l0.032,-0.479l0.504,-0.628l0.493,-0.746l0.826,-0.926l1.04,-0.852l0.729,-0.437l0.879,-0.49l1.051,-0.308l1.105,-0.022l1.061,0.171l0.965,0.383l0.611,0.383l0.697,0.618l0.311,0.373l0.075,0.096l0.119,0.193Zm-155.119,51.98l1.094,3.77l2.048,-3.653l-0.15,-6.41l-2.992,6.293Z"/></g></svg>