<?xml version="1.0" encoding="UTF-8" standalone="no"?><!DOCTYPE svg PUBLIC "-//W3C//DTD SVG 1.1//EN" "http://www.w3.org/Graphics/SVG/1.1/DTD/svg11.dtd"><svg width="100%" height="100%" viewBox="0 0 514 454" version="1.1" xmlns="http://www.w3.org/2000/svg" xmlns:xlink="http://www.w3.org/1999/xlink" xml:space="preserve" xmlns:serif="http://www.serif.com/" style="fill-rule:evenodd;clip-rule:evenodd;stroke-linejoin:round;stroke-miterlimit:2;"><g id="scale-value" transform="matrix(50,0,0,50,350.88,262.709)"></g><text x="163.258px" y="262.709px" style="font-family:'ArialMT', 'Arial', sans-serif;font-size:50px;">sw=38.4</text><g id="_551.1-Migratory-Toads-Crossing" serif:id="551.1 Migratory Toads Crossing"><path d="M227.178,17.004c6.076,-10.522 17.302,-17.004 29.452,-17.004c12.149,0 23.376,6.482 29.452,17.004c54.065,93.625 168.545,291.872 222.619,385.514c6.077,10.524 6.079,23.491 0.003,34.016c-6.075,10.525 -17.303,17.009 -29.455,17.009l-445.238,0c-12.152,0 -23.38,-6.484 -29.455,-17.009c-6.076,-10.525 -6.074,-23.492 0.003,-34.016c54.074,-93.642 168.554,-291.889 222.619,-385.514Z" style="fill:#e31837;"/><path d="M256.665,56.708l202.961,351.496l-405.922,-0l202.961,-351.496Z" style="fill:#fff;"/><path d="M127.42,316.02l1.215,-0.221l1.252,-0.037l1.215,0.111l1.215,0.257l3.129,1.031l3.019,1.214l0.81,0.295l0.847,0.147l0.883,-0l0.847,-0.184l0.81,-0.294l0.81,-0.221l0.847,-0.074l0.883,0.074l0.81,0.184l0.81,0.294l2.982,1.141l2.909,1.251l2.908,1.399l2.798,1.472l2.762,1.619l2.65,1.73l2.614,1.84l2.541,1.951l2.43,2.061l0.405,0.257l0.441,0.111l0.479,-0l0.442,-0.147l0.368,-0.295l0.295,-0.368l0.147,-0.441l-0,-0.479l-0.111,-0.442l-0.257,-0.404l-3.13,-3.644l-3.019,-3.717l-2.871,-3.828l-2.762,-3.937l-2.65,-3.975l-0.847,-1.068l-0.7,-1.177l-0.589,-1.215l-0.478,-1.251l-0.295,-1.325l-0.184,-1.325l-0.074,-1.362l0.111,-1.361l-0.184,-1.62l-0.295,-1.619l-0.442,-1.583l-0.552,-1.508l-0.699,-1.509l-0.773,-1.436l-0.921,-1.361l-1.031,-1.252l-1.104,-1.214l-0.626,-0.7l-0.516,-0.809l-0.441,-0.847l-0.258,-0.92l-0.184,-0.92l-0.037,-0.957l0.11,-0.92l0.221,-0.92l0.332,-0.883l0.478,-0.847l0.589,-0.736l0.663,-0.662l9.904,-8.391l0.81,-0.626l0.736,-0.736l0.626,-0.81l0.515,-0.883l0.405,-0.957l0.663,-1.362l0.773,-1.324l0.921,-1.252l0.994,-1.141l1.067,-1.104l1.178,-0.993l1.252,-0.884l1.326,-0.773l1.362,-0.699l0.626,-0.368l0.552,-0.478l0.405,-0.589l0.331,-0.663l0.332,-1.141l0.441,-1.104l0.626,-1.03l0.737,-0.957l0.846,-0.883l0.921,-0.736l1.031,-0.626l1.104,-0.478l1.178,-0.332l0.626,-0.294l0.626,-0.405l0.479,-0.478l0.441,-0.589l0.295,-0.663l0.184,-0.589l0.331,-0.552l0.442,-0.441l0.552,-0.331l0.59,-0.221l0.625,-0.074l0.626,0.037l0.958,0.037l0.994,-0.147l0.92,-0.295l0.884,-0.442l0.478,-0.404l0.405,-0.442l0.331,-0.552l0.221,-0.552l0.332,-0.663l0.442,-0.588l0.515,-0.479l0.589,-0.441l0.663,-0.295l0.699,-0.184l0.737,-0.074l2.024,0.148l0.369,0.11l0.368,0.037l0.368,-0.111l0.295,-0.22l0.22,-0.258l0.148,-0.368l-0,-0.368l0.589,-0.626l0.699,-0.515l0.773,-0.331l0.847,-0.147l0.589,-0.074l0.589,-0.221l0.479,-0.368l0.442,-0.441l0.294,-0.516l0.847,-0.773l0.994,-0.625l1.031,-0.515l1.104,-0.368l1.105,-0.221l1.178,-0.074l1.031,0.074l1.031,-0.111l0.994,-0.257l0.957,-0.405l0.884,-0.552l3.313,-3.386l0.81,-0.589l0.884,-0.515l0.92,-0.368l0.957,-0.221l0.994,-0.147l1.51,0.073l1.472,0.295l2.651,1.545l0.884,0.221l0.92,0.111l0.958,-0l0.92,-0.111l1.104,0l1.105,0.111l1.031,0.331l3.608,1.693l0.883,0.331l0.921,0.184l0.92,0.037l0.921,-0.074l0.92,-0.22l1.141,-0.332l1.178,-0.221l1.179,-0.11l1.215,0.037l1.178,0.184l1.141,0.294l0.92,0.516l0.994,0.331l1.031,0.147l1.031,-0l1.031,-0.184l0.957,-0.331l1.142,-0.589l1.215,-0.479l1.251,-0.294l1.289,-0.147l0.589,-0l0.589,0.147l0.515,0.294l0.479,0.258l0.515,0.11l0.516,0.037l0.552,-0.11l0.479,-0.258l0.405,-0.331l0.405,-0.478l0.515,-0.332l0.552,-0.184l0.626,-0.036l0.589,0.073l0.553,0.221l0.294,0.147l0.331,0l0.295,-0.11l0.258,-0.184l0.736,-0.994l0.847,-0.92l0.92,-0.81l1.031,-0.699l0.847,-0.368l0.883,-0.258l0.921,-0.147l0.92,0l0.921,0.111l0.883,0.257l0.847,0.368l0.81,0.515l0.589,0.258l0.626,0.111l0.626,-0.037l0.589,-0.147l0.589,-0.295l0.92,-0.221l0.921,-0.11l0.957,0.11l0.92,0.258l0.847,0.368l1.105,0.773l0.957,0.92l0.847,1.03l0.405,0.368l0.478,0.258l0.553,0.037l0.552,-0.147l0.442,-0.295l0.331,-0.441l0.442,-0.368l0.478,-0.258l0.516,-0.111l0.552,-0.036l0.552,0.11l0.479,0.184l0.479,0.331l0.736,0.258l0.773,0.147l0.81,0.037l0.773,-0.11l0.773,-0.184l0.737,-0.332l0.662,-0.405l1.878,-1.545l1.767,-1.62l1.289,-0.662l1.325,-0.515l1.399,-0.368l0.847,-0.037l0.847,0.11l0.441,0.147l0.405,0l0.442,-0.147l0.332,-0.257l0.773,-0.516l0.81,-0.404l0.883,-0.258l0.921,-0.11l0.92,0.073l1.399,0.074l1.362,0.221l1.326,0.331l1.288,0.441l1.252,0.589l1.215,0.7l1.105,0.772l1.067,0.92l0.994,1.509l0.884,1.583l0.772,1.656l0.627,1.693l0.552,1.73l0.405,1.766l0.368,1.325l0.516,1.252l0.662,1.177l0.774,1.104l0.883,1.031l1.104,1.067l1.031,1.141l0.921,1.251l0.772,1.325l0.7,1.399l0.59,1.435l0.994,3.092l0.883,3.128l0.7,3.165l0.184,0.736l-0,0.773l-0.111,0.736l-0.294,0.699l-0.442,0.626l-1.51,0.957l-1.583,0.846l-1.619,0.699l-1.695,0.589l-1.214,0.405l-1.141,0.515l-1.068,0.663l-0.995,0.81l-0.883,0.883l-0.773,0.993l-0.626,1.105l-0.846,0.993l-0.958,0.92l-0.994,0.81l-1.104,0.699l-1.178,0.589l-1.252,0.479l-1.252,0.331l-1.288,0.221l-1.326,0.073l-2.466,0.699l-2.467,0.81l-2.393,0.994l-2.32,1.067l-2.282,1.251l-2.209,1.362l-2.099,1.472l-2.025,1.62l-1.951,1.693l-1.657,1.435l-1.767,1.325l-1.841,1.178l-1.951,1.104l-4.013,2.024l-3.939,2.134l-3.903,2.282l-0.258,0.221l-0.184,0.294l0,0.368l0.111,0.332l0.221,0.257l0.331,0.148l0.331,0.036l0.332,-0.11l13.106,-5.631l2.946,-1.472l3.019,-1.288l0.515,-0.258l0.552,-0.147l0.589,-0.037l0.7,-0.257l0.663,-0.442l2.834,-2.981l2.946,-2.834l0.736,-0.626l0.81,-0.552l0.884,-0.405l0.92,-0.294l0.92,-0.184l2.872,-0l0.957,-0.11l0.958,-0.258l0.883,-0.368l0.884,-0.442l0.773,-0.552l2.283,-1.987l2.356,-1.914l2.429,-1.766l2.872,-2.393l2.983,-2.245l2.613,-2.981l0.478,-0.441l0.517,-0.332l0.589,-0.22l0.625,-0.111l0.663,0.037l0.589,0.147l0.405,0.331l0.257,0.405l0.184,0.442l0.075,0.478l-0.038,0.479l-0.184,0.478l-0.294,0.405l-1.951,2.135l-2.062,2.024l-2.136,1.95l-2.245,1.841l-2.283,1.729l-1.951,1.472l-1.877,1.583l-1.804,1.656l-1.694,1.73l-0.884,1.104l-0.736,1.214l-1.068,1.215l-1.178,1.104l-1.288,0.994l-1.326,0.92l-1.399,0.773l-5.927,3.606l-5.817,3.754l-5.707,3.865l-5.633,4.048l-8.836,10.305l-1.656,1.987l-1.51,2.135l-1.399,2.208l-0.294,0.368l-0.148,0.479l0,0.478l0.148,0.442l0.257,0.404l0.368,0.332l1.694,1.582l1.62,1.693l1.473,1.84l1.362,1.914l0.221,0.221l0.257,0.11l0.332,0.037l0.294,-0.11l0.221,-0.184l2.43,-2.834l2.504,-2.724l0.368,-0.294l0.442,-0.11l0.441,-0l0.442,0.11l0.368,0.294l0.258,0.368l0.147,0.442l1.178,8.244l1.804,0.331l1.804,0.221l1.841,0.11l1.841,-0.036l1.804,-0.148l1.841,-0.257l1.693,-0.295l1.768,-0.184l1.73,0l1.73,0.111l1.731,0.294l1.693,0.405l1.657,0.552l1.62,0.663l0.405,0.294l0.368,0.368l0.221,0.442l0.147,0.515l-0.036,0.515l-0.148,0.479l-0.257,0.441l-0.737,0.81l-0.847,0.736l-0.957,0.552l-0.994,0.478l-1.068,0.295l-1.067,0.184l-4.676,1.178l-4.676,1.067l-0.405,0.184l-0.257,0.331l-0.148,0.405l0.037,0.442l0.258,0.368l0.331,0.257l3.866,1.583l3.903,1.509l3.976,1.361l1.031,0.405l1.031,0.552l0.92,0.7l0.81,0.772l0.331,0.479l0.184,0.515l0.037,0.552l-0.073,0.552l-0.221,0.515l-0.332,0.442l-0.442,0.368l-0.515,0.221l-0.552,0.074l-2.283,-0l-2.246,-0.148l-2.209,-0.257l-6.995,-0.957l-6.995,-1.104l-6.921,-1.288l-1.473,-0.221l-1.51,-0.074l-1.472,0.111l-1.473,0.257l-1.473,0.405l-1.288,0.479l-1.362,0.331l-1.399,0.221l-1.399,0.073l-1.399,-0.073l-1.399,-0.184l-1.399,-0.442l-1.363,-0.552l-1.325,-0.663l-1.215,-0.809l-1.178,-0.92l-1.068,-0.994l-19.77,-16.782l-1.142,-0.884l-0.994,-0.993l-0.883,-1.068l-0.773,-1.214l-1.105,-1.877l-0.957,-1.987l-0.773,-2.061l-0.516,-0.92l-0.331,-0.994l-0.221,-1.031l-0.074,-1.03l0.074,-1.067l0.221,-0.994l3.129,-14.611l0.479,-0.81l0.368,-0.846l0.258,-0.92l0.11,-0.92l0.037,-0.957l-0.11,-0.92l-0.148,-0.442l-0.257,-0.368l-0.368,-0.294l-0.405,-0.148l-0.479,-0.036l-0.442,0.11l-0.405,0.258l-1.951,1.729l-1.804,1.877l-0.442,0.516l-0.331,0.552l-0.221,0.625l-0.074,0.663l0,0.662l-0.073,5.19l-0.221,5.189l-0.295,0.699l-0.405,0.626l-0.515,0.552l-0.405,0.736l-0.221,0.809l-0.037,0.81l0.111,0.847l0.294,0.773l0.7,2.797l0.81,2.797l0.957,2.76l1.067,2.686l0.148,0.553l0.073,0.552l-0.11,0.552l-0.221,0.515l-0.368,0.441l-0.442,0.332l-0.515,0.221l-1.62,0.368l-1.694,0.22l-1.657,0.074l-1.693,-0.074l-1.657,-0.184l-1.73,-0.036l-1.767,0.11l-1.731,0.184l-1.73,0.331l-1.694,0.479l-1.436,0.368l-1.472,0.257l-1.473,0.148l-1.473,-0l-1.509,-0.148l-1.473,-0.294l-5.706,-2.724l-5.633,-2.87l-0.81,-0.442l-0.7,-0.552l-0.626,-0.662l-0.552,-0.736l-0.405,-0.81l-0.331,-0.847l-0.147,-0.883l-1.179,-2.944l-1.03,-3.018l-0.847,-3.091l-0.994,-3.423l-0.847,-3.496l-0.663,-3.534l-0.515,-3.569l-0.331,-3.57l-0.111,-0.516l-0.258,-0.441l-0.405,-0.331l-0.478,-0.221l-0.516,-0.037l-0.515,0.147l-0.442,0.295l-0.331,0.404l-0.184,0.479l-0.405,1.766l-0.295,1.804l-0.184,1.84l-0.037,1.84l0.074,1.803l0.221,1.841l0.331,1.803l0.479,1.767l2.614,5.814l2.724,5.815l2.835,5.705l2.982,5.668l0.884,1.803l0.736,1.84l0.589,1.877l0.479,1.951l0.331,1.95l0.184,1.987l0.074,1.951l-0.111,1.987l-0.184,1.988l-0.368,1.95l-0.294,0.736l-0.405,0.626l-0.553,0.552l-0.662,0.442l-0.7,0.294l-0.773,0.147l-0.773,0l-0.773,-0.147l-0.7,-0.331l-0.626,-0.442l-1.804,-0.478l-1.804,-0.331l-1.841,-0.184l-1.84,-0.074l-1.841,0l-1.841,-0.184l-1.804,-0.331l-2.246,-0.295l-2.246,-0.478l-2.209,-0.626l-2.135,-0.736l-2.099,-0.92l-2.024,-1.03l-0.479,-0.148l-0.479,0l-0.478,0.111l-0.442,0.221l-0.368,0.331l-0.295,0.442l-0.147,0.478l-0,0.478l0.074,0.479l0.221,0.441l0.331,0.405l6.332,3.717l6.37,3.607l0.957,0.442l0.994,0.368l1.031,0.184l1.031,0.11l1.067,-0.037l1.031,-0.184l1.694,-0.257l1.62,-0.442l1.583,-0.589l0.515,-0.11l0.552,-0l0.516,0.11l0.478,0.258l0.405,0.368l0.295,0.442l0.147,0.515l0.074,0.515l-0.111,0.552l-0.441,0.699l-0.553,0.626l-0.699,0.479l-1.988,0.699l-0.368,0.331l-0.258,0.405l-0.111,0.478l0.074,0.479l0.184,0.441l0.331,0.332l0.405,0.257l0.479,0.074l0.479,-0.037l1.988,-0.074l2.025,0.074l1.988,0.221l1.951,0.368l1.951,0.515l1.878,0.626l0.552,0.331l0.442,0.405l0.331,0.515l0.221,0.552l0.111,0.589l-0.037,0.626l-0.147,0.588l-0.295,0.516l-0.368,0.478l-0.516,0.368l-0.552,0.258l-1.693,0.441l-1.694,0.295l-1.73,0.184l-1.767,0.037l-0.405,0.073l-0.332,0.258l-0.221,0.331l-0.073,0.405l0.11,0.442l0.221,0.331l0.368,0.184l6.554,2.061l17.34,5.005l0.405,0.295l0.331,0.404l0.184,0.479l0.074,0.515l-0.074,0.515l-0.22,0.479l-0.295,0.368l-0.442,0.331l-0.478,0.184l-1.289,0.331l-1.289,0.405l-1.251,0.515l-1.068,0.516l-1.141,0.368l-1.178,0.257l-1.179,0.074l-1.178,-0.037l-1.178,-0.221l-1.141,-0.331l-1.068,-0.478l-7.105,-2.098l-2.025,-0.516l-2.099,-0.368l-2.135,-0.22l-0.847,-0l-0.847,-0.148l-0.81,-0.257l-0.736,-0.405l-0.699,-0.478l-0.59,-0.626l-0.515,-0.699l-0.515,-0.479l-0.626,-0.405l-0.663,-0.294l-0.7,-0.147l-1.288,-0.111l-1.289,-0.221l-1.251,-0.404l-2.173,-0.92l-2.098,-1.105l-1.988,-1.251l-0.368,-0.221l-0.442,-0.147l-0.405,0l-0.442,0.111l-0.368,0.184l-0.331,0.294l-0.221,0.368l-0.111,0.405l-0.037,0.441l0.074,0.405l0.221,0.405l1.841,2.503l1.804,2.613l1.656,2.65l0.258,0.331l0.147,0.368l0.037,0.405l-0.11,0.405l-0.221,0.331l-0.331,0.221l-0.405,0.147l-0.405,-0l-0.369,-0.147l-1.03,-0.332l-10.898,-3.717l-0.589,-0.331l-0.552,-0.405l-0.442,-0.515l-0.368,-0.589l-0.258,-0.626l-0.147,-0.699l-0.442,-1.288l-0.552,-1.251l-0.332,-0.957l-0.442,-0.92l-0.589,-0.847l-0.699,-0.736l-0.773,-0.625l-1.142,-0.81l-1.03,-0.883l-0.994,-0.994l-1.804,-1.877l-1.694,-1.987l-1.583,-2.098l-1.473,-2.172l-1.362,-2.208l-1.252,-2.318l-1.436,-3.239l-1.325,-3.239l-1.215,-3.312l-1.104,-3.349l-0.59,-1.067l-0.699,-0.994l-0.81,-0.883l-0.884,-0.847l-0.957,-0.736l-1.031,-0.626l-1.067,-0.552l-0.7,-0.294l-0.626,-0.405l-0.552,-0.515l-0.442,-0.589l-0.368,-0.626l-0.258,-0.736l-0.11,-0.736l-0,-0.736l-0.184,-1.214l-0.332,-1.215l-0.736,-2.723l-0.883,-2.687l-1.031,-2.65l-1.178,-2.576l-1.326,-2.539l-1.473,-2.429l-0.846,-1.472l-0.626,-1.62l-0.111,-0.515l0,-0.552l0.148,-0.552l0.257,-0.479l0.369,-0.404l0.441,-0.332l0.516,-0.22l0.552,-0.074Zm139.755,-42.986l-0.441,-0.074l-0.884,0.883l-1.178,1.252l-0.442,0.662l-0.147,0.736l-0.184,3.865l-0.074,1.251l-0.331,0.773l-1.473,2.65l-0.589,0.552l-0,0.589l0.589,0.588l1.178,0.884l0.589,-0l0.589,-0.295l0.884,-0.589l1.767,-2.613l1.178,-1.766l0.295,-1.288l0.257,-2.061l-0.184,-2.208l-0.331,-2.135l-0.331,-1.435l-0.737,-0.221Zm-20.286,3.238l-2.209,0.516l-2.614,0.883l-0.883,0.589l-0.037,0.626l0.331,0.552l1.179,1.472l1.141,0.589l0.663,0.515l0.515,-0.221l0.884,-0.589l1.472,-2.944l0.332,-1.362l-0.332,-0.405l-0.442,-0.221Zm55.851,-19.468l0.405,0.036l0.331,-0.147l0.258,-0.294l0.147,-0.331l0,-0.405l-0.147,-0.332l-0.294,-0.257l-0.847,-0.699l-0.957,-0.589l-1.031,-0.405l-1.105,-0.295l-1.104,-0.147l-1.105,0l-1.104,0.147l-1.068,0.295l-1.031,0.442l-0.957,0.588l-0.884,0.7l-0.773,0.809l-0.662,0.884l-0.148,0.478l-0.037,0.478l0.148,0.479l0.257,0.405l0.405,0.294l0.442,0.184l0.479,0.037l0.478,-0.11l0.405,-0.221l1.031,-0.773l1.105,-0.626l1.141,-0.478l1.215,-0.331l1.252,-0.184l1.288,-0.037l1.252,0.147l1.215,0.258Zm-9.474,7.112l-0.209,-0.157l-0.368,-0.11l-0.368,0.074l-0.331,0.147l-0.258,0.294l-0.111,0.368l0.037,0.368l0.148,0.332l0.257,0.257l1.105,0.589l1.178,0.478l1.215,0.332l1.215,0.184l1.252,0.036l1.251,-0.073l1.252,-0.221l1.178,-0.368l1.178,-0.515l0.7,-0.699l0.589,-0.773l0.442,-0.884l0.147,-0.368l-0.037,-0.404l-0.147,-0.369l-0.295,-0.257l-0.368,-0.147l-0.368,-0.037l-0.368,0.147l-0.295,0.258l-0.441,0.699l-0.553,0.589l-0.626,0.515l-0.736,0.405l-0.736,0.257l-0.81,0.148l-0.81,0.037l-1.289,-0.037l-1.288,-0.184l-1.252,-0.405l-1.08,-0.506Zm-65.3,-0.635l-0,1.178l3.203,2.355l2.356,0.294l2.062,-2.355l0.294,-1.472l-2.945,-1.767l-0.663,-0.11l-1.693,0.626l-2.32,0.957l-0.294,0.294Zm81.364,3.533l0.589,-1.178l0.479,-1.214l0.294,-1.251l0.184,-1.325l0,-1.288l-0.11,-1.289l-0.294,-1.288l-0.442,-1.251l-0.589,-1.141l-0.7,-1.104l-0.368,-0.221l-0.405,-0.073l-0.442,0.036l-0.368,0.221l-0.295,0.295l-0.184,0.368l-0.036,0.441l0.11,0.405l0.515,1.288l0.369,1.325l0.221,1.362l0.073,1.362l-0.073,1.361l-0.221,1.362l-0.369,1.325l-0.147,0.368l0,0.442l0.111,0.368l0.257,0.331l0.332,0.257l0.405,0.111l0.405,-0l0.368,-0.147l0.331,-0.258Zm-93.403,1.987l-1.804,0.074l-2.393,0.662l-0.81,0.221l-0,1.141l3.939,1.252l2.209,-0.074l1.473,-0.883l-0,-0.552l-1.767,-1.473l-0.847,-0.368Zm69.215,-9.9l-0.479,0.994l-0.368,1.031l-0.221,1.067l-0.074,1.104l0.037,1.104l0.184,1.067l0.332,1.068l0.442,0.993l0.552,0.957l0.257,0.258l0.369,0.147l0.368,0.074l0.368,-0.074l0.331,-0.184l0.258,-0.294l0.147,-0.368l0.037,-0.368l-0.074,-0.369l-0.441,-0.993l-0.295,-1.031l-0.147,-1.067l-0.037,-1.067l0.111,-1.068l0.22,-1.03l0.369,-1.031l0.478,-0.956l0.589,-0.884l0.148,-0.294l0.036,-0.368l-0.11,-0.331l-0.184,-0.295l-0.258,-0.221l-0.294,-0.147l-0.369,-0.037l-0.331,0.074l-0.294,0.184l-0.221,0.258l-0.774,0.993l-0.662,1.104Zm-47.493,25.542l-1.841,-0.442l-1.399,0.147l-4.713,0.884l-0.442,0.773l-0.184,0.478l0.332,0.773l0.589,0.11l1.472,0.773l1.473,0.589l0.994,0.405l0.479,-0.111l0.883,-0.588l1.178,-1.767l1.179,-0.589l0.147,-0.92l-0.147,-0.515Zm-3.461,-13.213l-1.547,0.552l-1.472,0.589l-1.767,1.178l-0.295,0.883l0.81,1.178l0.663,1.178l0.294,0.589l0.884,0.294l2.945,-0.883l3.24,-1.472l0.589,-0.847l-0.184,-0.589l-0.405,-0.331l-1.767,-1.472l-0.884,-0.883l-1.104,0.036Zm67.853,41.551l0.368,-0.294l0.257,-0.368l0.148,-0.442l0.037,-0.441l-0.148,-0.442l-0.221,-0.405l-4.123,-4.637l-0.184,-0.331l-0.037,-0.368l0.147,-0.332l0.221,-0.257l0.332,-0.147l2.466,-0.663l3.019,-1.766l2.909,-1.877l2.835,-1.988l8.909,-3.312l1.51,2.797l1.399,2.834l1.251,2.87l2.835,3.35l4.345,5.042l0.698,0.699l0.848,0.589l0.883,0.441l0.958,0.258l0.993,0.11l0.994,-0.073l2.063,-0.221l2.097,-0.037l2.063,0.111l2.062,0.257l2.024,0.442l1.989,0.589l1.95,0.736l0.479,0.294l0.369,0.405l0.257,0.515l0.11,0.515l0,0.552l-0.184,0.553l-0.294,0.441l-0.405,0.368l-0.478,0.258l-1.326,0.368l-1.362,0.184l-1.363,0.11l-1.398,-0.037l-1.363,-0.184l-2.136,0.184l-2.097,0.295l-2.062,0.442l-2.062,0.552l-1.068,0.368l-1.105,0.294l-1.14,0.147l-1.142,0l-1.141,-0.073l-0.11,1.913l0.073,1.877l0.221,1.877l0.368,1.877l0.552,1.804l0.7,1.766l0.846,1.73l0.995,1.619l1.141,1.509l3.313,4.085l3.166,4.196l0.259,0.405l0.11,0.515l-0.037,0.478l-0.147,0.479l-0.258,0.405l-0.405,0.331l-0.442,0.221l-0.479,0.073l-0.515,-0.073l-0.442,-0.184l-2.209,-1.362l-2.098,-1.472l-1.989,-1.656l-1.877,-1.73l-1.767,-1.877l-1.657,-1.987l-1.435,-2.577l-1.547,-2.465l-1.693,-2.393l-1.804,-2.318l-1.952,-2.208l-0.515,-0.405l-0.589,-0.331l-0.626,-0.184l-0.663,-0.074l-0.662,0.11l-0.626,0.221l-0.921,0.552l-0.883,0.626l-0.737,0.773l-0.662,0.846l-0.552,0.92l-0.258,0.368l-0.368,0.258l-0.405,0.147l-0.479,0.037l-0.405,-0.11l-0.405,-0.258l-0.258,-0.368l-0.184,-0.405l-0.405,-2.171l-0.257,-2.172l-0.074,-2.171l0.074,-2.208l-0.037,-0.258l-0.148,-0.257l-0.22,-0.148l-0.258,-0.073l-1.436,0.036l-1.436,0.185l-1.362,0.368l-1.362,0.478l-1.215,0.442l-1.252,0.257l-1.289,0.111l-1.288,-0.074l-1.289,-0.221l-0.441,-0.184l-0.369,-0.294l-0.221,-0.368l-0.147,-0.479l0,-0.441l0.147,-0.442l0.258,-0.405l1.51,-1.472l1.583,-1.398l1.693,-1.252l1.731,-1.177l1.841,-1.068Z"/></g></svg>