<?xml version="1.0" encoding="UTF-8" standalone="no"?><!DOCTYPE svg PUBLIC "-//W3C//DTD SVG 1.1//EN" "http://www.w3.org/Graphics/SVG/1.1/DTD/svg11.dtd"><svg width="100%" height="100%" viewBox="0 0 514 454" version="1.1" xmlns="http://www.w3.org/2000/svg" xmlns:xlink="http://www.w3.org/1999/xlink" xml:space="preserve" xmlns:serif="http://www.serif.com/" style="fill-rule:evenodd;clip-rule:evenodd;stroke-linejoin:round;stroke-miterlimit:2;"><g id="scale-value" transform="matrix(50,0,0,50,350.88,244.423)"></g><text x="163.258px" y="244.423px" style="font-family:'ArialMT', 'Arial', sans-serif;font-size:50px;">sw=38.4</text><g id="_552-Cattle-Grid" serif:id="552 Cattle Grid"><path d="M227.178,17.004c6.076,-10.522 17.302,-17.004 29.452,-17.004c12.149,0 23.376,6.482 29.452,17.004c54.065,93.625 168.545,291.872 222.619,385.514c6.077,10.524 6.079,23.491 0.003,34.016c-6.075,10.525 -17.303,17.009 -29.455,17.009l-445.238,0c-12.152,0 -23.38,-6.484 -29.455,-17.009c-6.076,-10.525 -6.074,-23.492 0.003,-34.016c54.074,-93.642 168.554,-291.889 222.619,-385.514Z" style="fill:#e31837;"/><path d="M256.665,56.708l202.961,351.496l-405.922,-0l202.961,-351.496Z" style="fill:#fff;"/><g><rect id="path1698" x="240.035" y="257.023" width="31.748" height="75.591" style="fill:#fff;"/><path d="M269.203,311.839c-1.097,0.482 -2.435,0.888 -4.014,1.217c-1.58,0.329 -3.335,0.494 -5.265,0.494c-3.51,-0 -6.275,-0.823 -8.293,-2.468c-2.018,-1.646 -3.027,-4.311 -3.027,-7.996l-0,-19.349l-5.989,-0l-0,-8.753l5.989,-0l-0,-9.675l10.332,-4.673l0,14.348l9.543,-0l0,8.753l-9.543,-0l0,16.124c0,1.799 0.275,2.994 0.823,3.587c0.548,0.592 1.459,0.888 2.731,0.888c1.624,-0 3.313,-0.351 5.068,-1.053l1.645,8.556Z" style="fill-rule:nonzero;"/></g><g><rect id="path16981" serif:id="path1698" x="271.783" y="257.023" width="31.748" height="75.591" style="fill:#fff;"/><path d="M300.951,311.839c-1.097,0.482 -2.435,0.888 -4.014,1.217c-1.58,0.329 -3.335,0.494 -5.265,0.494c-3.51,-0 -6.275,-0.823 -8.293,-2.468c-2.018,-1.646 -3.027,-4.311 -3.027,-7.996l-0,-19.349l-5.989,-0l-0,-8.753l5.989,-0l-0,-9.675l10.332,-4.673l0,14.348l9.543,-0l0,8.753l-9.543,-0l0,16.124c0,1.799 0.275,2.994 0.823,3.587c0.549,0.592 1.459,0.888 2.731,0.888c1.624,-0 3.313,-0.351 5.068,-1.053l1.645,8.556Z" style="fill-rule:nonzero;"/></g><g><rect id="path16982" serif:id="path1698" x="198.082" y="257.023" width="41.953" height="75.591" style="fill:#fff;"/><path d="M236.244,306.368l-4.172,7.348c-1.453,-0.083 -2.771,-0.447 -3.954,-1.09c-1.183,-0.643 -2.148,-1.484 -2.895,-2.522c-1.162,1.08 -2.522,1.889 -4.078,2.429c-1.557,0.539 -3.456,0.809 -5.698,0.809c-1.785,0 -3.497,-0.228 -5.137,-0.685c-1.639,-0.456 -3.082,-1.152 -4.327,-2.086c-1.245,-0.934 -2.242,-2.086 -2.989,-3.455c-0.747,-1.37 -1.121,-2.989 -1.121,-4.857c0,-1.827 0.27,-3.383 0.81,-4.67c0.539,-1.287 1.224,-2.377 2.055,-3.269c0.83,-0.893 1.774,-1.609 2.833,-2.148c1.058,-0.54 2.106,-0.955 3.144,-1.246c1.038,-0.29 2.013,-0.498 2.927,-0.622c0.913,-0.125 1.639,-0.208 2.179,-0.249c0.872,-0.083 1.982,-0.177 3.331,-0.28c1.349,-0.104 2.584,-0.198 3.705,-0.281l-0,-0.498c-0,-1.536 -0.353,-2.646 -1.059,-3.331c-0.705,-0.685 -1.93,-1.027 -3.673,-1.027c-1.827,-0 -3.57,0.218 -5.231,0.653c-1.66,0.436 -3.487,1.235 -5.479,2.398l-3.674,-7.784c2.532,-1.411 5.013,-2.428 7.441,-3.051c2.428,-0.622 4.95,-0.934 7.565,-0.934c4.525,0 7.97,1.121 10.336,3.363c2.366,2.241 3.55,5.604 3.55,10.087l-0,11.644c-0,1.577 0.269,2.77 0.809,3.58c0.54,0.809 1.474,1.401 2.802,1.774Zm-13.449,-4.67l-0,-4.42c-0.748,0.041 -1.536,0.083 -2.367,0.124c-0.83,0.042 -1.535,0.104 -2.117,0.187c-0.705,0.083 -1.442,0.166 -2.21,0.249c-0.768,0.083 -1.463,0.259 -2.086,0.529c-0.623,0.27 -1.141,0.654 -1.557,1.152c-0.415,0.498 -0.622,1.204 -0.622,2.117c-0,1.204 0.519,2.117 1.556,2.74c1.038,0.623 2.221,0.934 3.55,0.934c2.117,-0 3.621,-0.353 4.514,-1.059c0.892,-0.705 1.339,-1.556 1.339,-2.553Z" style="fill-rule:nonzero;"/></g><g><rect id="path16983" serif:id="path1698" x="327.342" y="257.023" width="41.575" height="75.591" style="fill:#fff;"/><path d="M365.457,296.393l-0.126,1.575l-24.378,-0c0.042,1.008 0.294,1.942 0.756,2.803c0.461,0.861 1.07,1.617 1.826,2.268c0.756,0.65 1.628,1.154 2.614,1.511c0.987,0.357 2.027,0.536 3.119,0.536c3.149,-0 5.858,-1.05 8.126,-3.15l5.291,6.488c-1.806,1.722 -3.79,3.035 -5.953,3.937c-2.163,0.903 -4.63,1.355 -7.401,1.355c-2.982,-0 -5.628,-0.494 -7.937,-1.481c-2.31,-0.986 -4.252,-2.351 -5.827,-4.094c-1.575,-1.743 -2.772,-3.769 -3.591,-6.079c-0.819,-2.31 -1.228,-4.787 -1.228,-7.433c-0,-2.562 0.388,-4.987 1.165,-7.275c0.777,-2.289 1.901,-4.273 3.37,-5.953c1.47,-1.68 3.297,-3.013 5.481,-4c2.183,-0.987 4.661,-1.481 7.433,-1.481c3.065,0 5.732,0.546 8,1.638c2.267,1.092 4.115,2.562 5.543,4.41c1.428,1.847 2.446,4.021 3.055,6.519c0.609,2.499 0.83,5.134 0.662,7.906Zm-9.89,-5.48c-0,-1.932 -0.704,-3.517 -2.11,-4.756c-1.407,-1.239 -3.14,-1.859 -5.197,-1.859c-1.974,0 -3.612,0.662 -4.914,1.985c-1.301,1.322 -2.057,2.866 -2.267,4.63l14.488,-0Z" style="fill-rule:nonzero;"/></g><g><rect id="path16984" serif:id="path1698" x="303.531" y="257.023" width="23.811" height="75.591" style="fill:#fff;"/><path d="M326.397,312.587c-1.151,0.354 -2.368,0.631 -3.651,0.83c-1.284,0.199 -2.545,0.299 -3.785,0.299c-1.991,-0 -3.706,-0.266 -5.145,-0.797c-1.438,-0.531 -2.611,-1.284 -3.519,-2.257c-0.907,-0.974 -1.571,-2.158 -1.991,-3.552c-0.421,-1.394 -0.631,-2.932 -0.631,-4.614l0,-41.694l10.423,0l0,39.968c0,2.301 1.085,3.452 3.254,3.452c0.663,-0 1.305,-0.055 1.925,-0.166c0.619,-0.111 1.306,-0.299 2.058,-0.564l1.062,9.095Z" style="fill-rule:nonzero;"/></g><g><rect x="144.413" y="257.023" width="53.669" height="75.591" style="fill:#fff;"/><path d="M194.67,276.853l-10.308,3.523c-0.914,-2.871 -2.327,-5.198 -4.241,-6.981c-1.914,-1.784 -4.328,-2.675 -7.242,-2.675c-2.436,-0 -4.513,0.424 -6.231,1.272c-1.718,0.848 -3.121,2.022 -4.208,3.523c-1.088,1.501 -1.871,3.262 -2.349,5.285c-0.479,2.022 -0.718,4.208 -0.718,6.557c0,2.262 0.218,4.393 0.653,6.394c0.434,2.001 1.163,3.741 2.185,5.219c1.022,1.479 2.349,2.643 3.98,3.491c1.631,0.848 3.665,1.272 6.101,1.272c2.827,0 5.241,-0.75 7.242,-2.251c2,-1.5 3.523,-3.816 4.567,-6.948l10.504,3.393c-2.044,5.35 -4.882,9.319 -8.514,11.907c-3.632,2.588 -8.275,3.882 -13.93,3.882c-4.045,-0 -7.59,-0.729 -10.635,-2.186c-3.045,-1.457 -5.578,-3.393 -7.601,-5.807c-2.022,-2.414 -3.545,-5.198 -4.567,-8.351c-1.022,-3.154 -1.533,-6.448 -1.533,-9.885c-0,-3.523 0.511,-6.905 1.533,-10.145c1.022,-3.241 2.545,-6.079 4.567,-8.515c2.023,-2.435 4.556,-4.382 7.601,-5.839c3.045,-1.457 6.59,-2.186 10.635,-2.186c5.481,0 10.2,1.37 14.158,4.111c3.958,2.74 6.742,6.72 8.351,11.94Z" style="fill-rule:nonzero;"/></g><g><rect id="path16985" serif:id="path1698" x="261.956" y="332.613" width="20.787" height="75.591" style="fill:#fff;"/><path d="M277.65,342.317c-0,1.686 -0.577,3.106 -1.731,4.259c-1.154,1.154 -2.551,1.731 -4.193,1.731c-1.686,-0 -3.106,-0.577 -4.26,-1.731c-1.153,-1.153 -1.73,-2.573 -1.73,-4.259c-0,-1.642 0.577,-3.04 1.73,-4.194c1.154,-1.153 2.574,-1.73 4.26,-1.73c1.642,-0 3.039,0.577 4.193,1.73c1.154,1.154 1.731,2.552 1.731,4.194Zm-0.666,46.989l-10.516,0l-0,-37.805l10.516,0l0,37.805Z" style="fill-rule:nonzero;"/></g><g><rect id="path16986" serif:id="path1698" x="185.61" y="332.613" width="44.22" height="75.591" style="fill:#fff;"/><path d="M223.099,388.002c-0,2.632 -0.464,4.821 -1.391,6.568c-0.928,1.747 -2.179,3.138 -3.753,4.173c-1.574,1.035 -3.386,1.768 -5.435,2.2c-2.049,0.431 -4.195,0.647 -6.438,0.647c-2.502,-0 -5.068,-0.367 -7.699,-1.1c-2.631,-0.733 -4.961,-1.704 -6.988,-2.912l3.494,-8.023c2.157,1.036 4.108,1.78 5.855,2.233c1.747,0.452 3.548,0.679 5.403,0.679c0.863,-0 1.715,-0.076 2.556,-0.227c0.841,-0.151 1.585,-0.42 2.232,-0.808c0.647,-0.389 1.175,-0.906 1.585,-1.553c0.41,-0.647 0.615,-1.467 0.615,-2.459l-0,-3.17c-0.992,0.863 -2.2,1.542 -3.624,2.038c-1.423,0.496 -2.825,0.744 -4.205,0.744c-2.588,-0 -4.874,-0.453 -6.859,-1.359c-1.984,-0.906 -3.644,-2.156 -4.981,-3.752c-1.338,-1.596 -2.351,-3.494 -3.041,-5.694c-0.691,-2.2 -1.036,-4.594 -1.036,-7.182c0,-2.372 0.389,-4.626 1.165,-6.761c0.776,-2.135 1.866,-4.001 3.267,-5.597c1.402,-1.596 3.052,-2.858 4.95,-3.785c1.898,-0.927 3.968,-1.391 6.211,-1.391c1.726,0 3.311,0.291 4.756,0.873c1.445,0.583 2.577,1.37 3.397,2.362l-0,-2.2l9.964,0l-0,35.456Zm-9.77,-18.763c-0,-1.121 -0.13,-2.189 -0.388,-3.203c-0.259,-1.013 -0.669,-1.897 -1.23,-2.652c-0.56,-0.755 -1.272,-1.359 -2.135,-1.812c-0.863,-0.453 -1.898,-0.679 -3.106,-0.679c-1.164,-0 -2.178,0.226 -3.041,0.679c-0.862,0.453 -1.585,1.057 -2.167,1.812c-0.582,0.755 -1.014,1.639 -1.294,2.652c-0.28,1.014 -0.421,2.082 -0.421,3.203c0,1.165 0.13,2.254 0.389,3.268c0.258,1.013 0.668,1.897 1.229,2.652c0.561,0.755 1.272,1.359 2.135,1.812c0.863,0.453 1.92,0.679 3.17,0.679c1.208,0 2.243,-0.226 3.106,-0.679c0.863,-0.453 1.575,-1.057 2.135,-1.812c0.561,-0.755 0.971,-1.639 1.23,-2.652c0.258,-1.014 0.388,-2.103 0.388,-3.268Z" style="fill-rule:nonzero;"/></g><g><rect id="path16987" serif:id="path1698" x="229.83" y="332.613" width="32.126" height="75.591" style="fill:#fff;"/><path d="M257.092,360.951l-1.528,-0.133c-1.418,-0.133 -2.748,-0.056 -3.988,0.232c-1.241,0.288 -2.326,0.787 -3.257,1.496c-0.93,0.709 -1.661,1.628 -2.193,2.758c-0.532,1.13 -0.798,2.47 -0.798,4.021l0,19.939l-10.634,-0l0,-37.751l10.634,-0l0,3.921c1.285,-1.816 2.88,-3.146 4.786,-3.987c1.905,-0.842 4.231,-1.108 6.978,-0.798l0,10.302Z" style="fill-rule:nonzero;"/></g><g><rect id="path16988" serif:id="path1698" x="282.744" y="332.613" width="44.976" height="75.591" style="fill:#fff;"/><path d="M323.509,389.104l-10.664,-0l-0,-2.025c-1.035,0.945 -2.284,1.71 -3.746,2.295c-1.462,0.585 -2.936,0.877 -4.421,0.877c-2.924,0 -5.511,-0.551 -7.761,-1.653c-2.25,-1.103 -4.14,-2.576 -5.669,-4.421c-1.53,-1.845 -2.7,-3.971 -3.51,-6.378c-0.81,-2.407 -1.215,-4.938 -1.215,-7.593c0,-2.699 0.383,-5.287 1.148,-7.761c0.764,-2.475 1.901,-4.657 3.408,-6.547c1.507,-1.89 3.363,-3.408 5.568,-4.556c2.205,-1.147 4.747,-1.721 7.626,-1.721c1.575,0 3.105,0.248 4.59,0.743c1.485,0.495 2.812,1.192 3.982,2.092l-0,-16.063l10.664,-0l-0,52.711Zm-10.597,-14.241l0,-9.921c0,-0.855 -0.203,-1.62 -0.61,-2.295c-0.406,-0.675 -0.926,-1.26 -1.559,-1.755c-0.633,-0.495 -1.344,-0.877 -2.135,-1.147c-0.791,-0.27 -1.571,-0.405 -2.338,-0.405c-2.848,0 -5.051,1.001 -6.61,3.003c-1.559,2.003 -2.338,4.579 -2.338,7.728c-0,1.44 0.203,2.779 0.61,4.016c0.407,1.237 0.983,2.306 1.728,3.206c0.746,0.9 1.661,1.62 2.746,2.16c1.085,0.539 2.305,0.809 3.66,0.809c0.678,0 1.424,-0.112 2.237,-0.337c0.813,-0.225 1.559,-0.562 2.237,-1.012c0.677,-0.45 1.242,-1.013 1.694,-1.688c0.452,-0.675 0.678,-1.462 0.678,-2.362Z" style="fill-rule:nonzero;"/></g></g></svg>