<?xml version="1.0" encoding="UTF-8" standalone="no"?><!DOCTYPE svg PUBLIC "-//W3C//DTD SVG 1.1//EN" "http://www.w3.org/Graphics/SVG/1.1/DTD/svg11.dtd"><svg width="100%" height="100%" viewBox="0 0 650 178" version="1.1" xmlns="http://www.w3.org/2000/svg" xmlns:xlink="http://www.w3.org/1999/xlink" xml:space="preserve" xmlns:serif="http://www.serif.com/" style="fill-rule:evenodd;clip-rule:evenodd;stroke-linejoin:round;stroke-miterlimit:2;"><g id="scale-value" transform="matrix(50,0,0,50,397.718,106.246)"></g><text x="251.795px" y="106.246px" style="font-family:'ArialMT', 'Arial', sans-serif;font-size:50px;">sw=15</text><g id="_553.3-Farm-Traffic" serif:id="553.3 Farm Traffic"><path d="M649.05,35.433c-0,-19.556 -15.877,-35.433 -35.433,-35.433l-578.184,0c-19.556,0 -35.433,15.877 -35.433,35.433l0,106.299c0,19.556 15.877,35.433 35.433,35.433l578.184,0c19.556,0 35.433,-15.877 35.433,-35.433l-0,-106.299Z"/><path d="M631.333,35.433c0,-9.778 -7.938,-17.716 -17.716,-17.716l-578.184,-0c-9.778,-0 -17.716,7.938 -17.716,17.716l-0,106.299c-0,9.778 7.938,17.717 17.716,17.717l578.184,-0c9.778,-0 17.716,-7.939 17.716,-17.717l0,-106.299Z" style="fill:#fff;"/><g><g><g><rect id="path1786" x="158.642" y="47.244" width="41.079" height="94.488" style="fill:#fff;"/><path id="path1788" d="M178.141,118.063l-12.919,-0l-0,-47.159l12.919,-0l0,4.67l1.58,-1.59l1.75,-1.33l2,-1.171l2.17,-0.75l2.16,-0.499l2.25,-0.161l3.17,-0l0,12.25l-4.42,-0l-1.83,0.159l-1.83,0.5l-1.67,0.84l-1.58,1.079l-1.25,1.25l-1.079,1.58l-0.84,1.67l-0.499,1.83l-0.083,1.84l0.001,24.992Z" style="fill:#010001;fill-rule:nonzero;"/></g><g><rect id="path1746" x="199.721" y="47.244" width="82.658" height="94.488" style="fill:#fff;"/><path id="path1748" d="M270.63,77.233l-1.67,-1.909l-1.92,-1.67l-2.08,-1.42l-2.25,-1.16l-2.41,-0.84l-2.75,-0.5l-2.09,-0.082l-2.08,0.25l-2.08,0.421l-1.92,0.66l-1.92,0.92l-1.75,1.25l-1.58,1.42l-1.42,1.66l-1.16,-1.83l-1.42,-1.5l-1.66,-1.25l-1.92,-0.92l-1.5,-0.5l-2.75,-0.499l-2.419,-0.083l-2.33,0.329l-2.33,0.591l-2.17,0.909l-2.08,1.25l-1.92,1.5l-0,-3.33l-12.91,0l-0,47.16l12.91,-0l-0,-28.33l0.17,-1.66l0.66,-1.59l1,-1.5l1.34,-1.25l1.5,-1l2.66,-0.91l1.001,-0.094l0.92,0.094l0.42,0.083l1.75,0.75l1.25,1.08l1.001,1.34l0.66,1.58l0.42,1.669l0.083,1.66l-0,28.08l12.92,-0l-0,-28.33l0.16,-1.66l0.59,-1.59l1.079,-1.499l1.33,-1.25l1.5,-1.001l2.67,-0.909l0.92,-0.095l1.001,0.095l0.329,0.082l1.75,0.75l1.25,1.08l1.08,1.34l0.669,1.58l0.33,1.67l0.094,1.66l0,28.079l12.91,0l-12.91,0l12.91,0l0,-28.159l-0.082,-2.75l-0.5,-2.67l-0.75,-2.58l-1.09,-2.5l-1.416,-2.172Z" style="fill:#010001;fill-rule:nonzero;"/></g><g><rect id="path1698" x="105.313" y="47.244" width="53.329" height="94.488" style="fill:#fff;"/><path id="path1700" d="M130.142,68.994l-3.08,0.16l-2.999,0.58l-3.75,1.09l-3.67,1.41l-3.5,1.67l-3.41,1.92l6.33,9.66l2.58,-1.58l2.67,-1.25l2.829,-1l2.92,-0.75l3,-0.421l1.66,-0.082l1.75,0.329l1.58,0.589l0.92,0.58l0.75,0.831l0.5,0.92l0.17,1.079l0,3l-4.17,0.17l-4.08,0.5l-4.08,0.75l-4,1.08l-3.919,1.419l-1.66,1.001l-1.59,1.25l-1.42,1.5l-1.16,1.58l-0.92,1.83l-0.661,1.92l-0.34,2l-0.082,2l0.17,2l0.49,1.92l0.759,1.91l1.001,1.749l1.24,1.59l1.42,1.41l1.67,1.171l2.41,1.16l2.589,0.92l2.75,0.589l2.75,0.33l2.75,-0.083l2.66,-0.34l2.67,-0.66l1.42,-0.67l1.33,-0.83l1.08,-1.001l0.92,-1.25l1,1.33l1.25,1.001l1.42,0.75l2.58,1l2.66,0.58l2.75,0.329l4.59,-10.079l-1.09,-0l-1.08,-0.16l-1.079,-0.499l-0.84,-0.67l-0.66,-0.92l-0.421,-1.001l-0.17,-1.159l0,-22.33l-0.161,-1.84l-0.42,-1.83l-0.75,-1.67l-0.92,-1.58l-1.25,-1.5l-1.41,-1.17l-1.59,-1.001l-2.25,-0.99l-2.41,-0.839l-2.92,-0.831l-3.08,-0.42l-2.996,-0.151Zm7.25,28.069l0,6.75l-0.17,1.25l-0.58,1.17l-0.75,1.001l-1.09,0.75l-1.16,0.42l-2.33,0.33l-2.34,-0l-2.33,-0.33l-1.17,-0.42l-1,-0.75l-0.831,-0.92l-0.58,-1.08l-0.34,-1.079l0,-1.171l0.34,-1.17l0.58,-0.911l0.831,-0.84l1,-0.58l3.92,-1l2.28,-0.47l1.72,-0.36l4,-0.59Z" style="fill:#010001;fill-rule:nonzero;"/></g><g id="F"><rect id="path1662" x="47.244" y="47.244" width="58.069" height="94.488" style="fill:#fff;"/><path id="path1664" d="M71.734,118.063l-0,-27.41l27.079,0l0,-12.25l-27.079,0l-0,-13.579l29.919,-0l-0,-12.83l-43.409,0l-0,66.069l13.49,-0Z" style="fill:#010001;fill-rule:nonzero;"/></g></g><g><g><rect id="path17861" serif:id="path1786" x="352.49" y="47.246" width="41.079" height="94.488" style="fill:#fff;"/><path id="path17881" serif:id="path1788" d="M371.99,118.065l-12.92,-0l0,-47.159l12.92,-0l0,4.67l1.58,-1.59l1.75,-1.33l2,-1.171l2.17,-0.75l2.16,-0.499l2.25,-0.161l3.17,-0l-0,12.25l-4.42,-0l-1.83,0.159l-1.83,0.5l-1.67,0.84l-1.58,1.079l-1.25,1.25l-1.079,1.58l-0.84,1.67l-0.5,1.83l-0.083,1.84l0.002,24.992Z" style="fill:#010001;fill-rule:nonzero;"/></g><g><rect id="path1790" x="523.397" y="47.246" width="26.92" height="94.488" style="fill:#fff;"/><path id="path1792" d="M536.147,51.496l-1.42,0.159l-1.41,0.421l-1.25,0.67l-1.17,0.909l-0.921,1.171l-0.66,1.25l-0.42,1.42l-0.17,1.409l0.17,1.42l0.42,1.42l0.66,1.33l0.921,1.08l1.17,0.92l1.25,0.66l1.41,0.421l1.42,0.17l1.42,-0.17l1.41,-0.421l1.25,-0.66l1.17,-0.92l0.92,-1.08l0.661,-1.33l0.42,-1.42l0.17,-1.42l-0.17,-1.409l-0.42,-1.42l-0.661,-1.25l-0.92,-1.171l-1.17,-0.909l-1.25,-0.67l-1.41,-0.421l-1.42,-0.159Zm-6.5,19.41l0,47.239l12.92,-0l-0,-47.239l-12.92,-0Z" style="fill:#010001;fill-rule:nonzero;"/></g><g><rect id="path1814" x="446.899" y="47.244" width="38.249" height="94.488" style="fill:#fff;"/><path id="path1816" d="M470.318,70.574l9.16,-0l-0,10.659l-9.16,0l0,36.92l-12.92,-0l0,-36.92l-7.58,0l0,-10.659l7.58,-0l0,-6.92l0.171,-1.91l0.409,-1.92l0.84,-1.75l1.001,-1.67l1.33,-1.41l1.5,-1.25l1.67,-1l1.83,-0.67l1.919,-0.33l3.66,-0.094l3.67,0.17l3.58,0.42l3.58,0.75l-2.33,10.5l-3,-0.34l-3.17,0l-0.909,0.095l-0.92,0.409l-0.83,0.591l-0.58,0.75l-0.421,0.911l-0.094,1l0.014,3.668Z" style="fill:#010001;fill-rule:nonzero;"/></g><g><rect id="path18141" serif:id="path1814" x="485.148" y="47.246" width="38.249" height="94.488" style="fill:#fff;"/><path id="path18161" serif:id="path1816" d="M508.567,70.576l9.16,-0l0,10.659l-9.16,0l0,36.92l-12.919,-0l-0,-36.92l-7.58,0l-0,-10.659l7.58,-0l-0,-6.92l0.17,-1.91l0.41,-1.92l0.839,-1.75l1.001,-1.67l1.33,-1.41l1.5,-1.25l1.67,-1l1.83,-0.67l1.92,-0.33l3.66,-0.094l3.67,0.17l3.58,0.42l3.579,0.75l-2.329,10.5l-3,-0.34l-3.17,0l-0.91,0.095l-0.92,0.409l-0.83,0.591l-0.58,0.75l-0.421,0.911l-0.094,1l0.014,3.668Z" style="fill:#010001;fill-rule:nonzero;"/></g><g><rect id="path1798" x="550.317" y="47.246" width="51.489" height="94.488" style="fill:#fff;"/><path id="path1800" d="M567.726,101.315l0.67,1.5l1.17,1.84l1.5,1.66l1.75,1.25l2.08,0.84l1.83,0.25l1.92,-0.25l2,-0.84l1.75,-1.25l1.5,-1.66l1.25,-1.84l1.001,-2.66l11.999,4.5l-0.25,0.5l-1.171,2.75l-1.5,2.499l-1.749,2.25l-2.08,2.08l-2.34,1.75l-2.33,1.25l-2.33,0.92l-2.5,0.75l-2.59,0.41l-2.58,0.17l-2.58,-0.17l-2.5,-0.41l-2.5,-0.75l-2.42,-0.92l-2.25,-1.25l-2.33,-1.75l-2.08,-2.08l-1.84,-2.25l-1.5,-2.499l-1.16,-2.75l-0.17,-0.5l-0.83,-3.34l-0.5,-3.41l-0.17,-3.42l0.17,-3.41l0.5,-3.34l0.83,-3.33l0.17,-0.58l1.16,-2.67l1.5,-2.5l1.84,-2.329l2.08,-2l2.33,-1.84l2.25,-1.16l2.42,-1.001l2.5,-0.669l2.5,-0.5l2.58,-0.17l2.58,0.17l2.59,0.5l2.5,0.669l2.33,1.001l2.33,1.16l2.34,1.84l2.08,2l1.749,2.329l1.5,2.5l1.171,2.67l0.25,0.58l-11.999,4.42l-1.001,-2.67l-1.25,-1.83l-1.5,-1.59l-1.75,-1.25l-2,-0.83l-1.92,-0.25l-1.83,0.25l-2.08,0.83l-1.75,1.25l-1.5,1.59l-1.17,1.83l-0.67,1.58l-0.499,1.59l-0.251,2.58l-0.16,2.58l0.16,2.67l0.251,2.58l0.499,1.58Z" style="fill:#010001;fill-rule:nonzero;"/></g><g><rect id="path16981" serif:id="path1698" x="393.57" y="47.246" width="53.329" height="94.488" style="fill:#fff;"/><path id="path17001" serif:id="path1700" d="M418.399,68.996l-3.08,0.16l-3,0.58l-3.75,1.09l-3.67,1.41l-3.5,1.67l-3.409,1.92l6.329,9.66l2.58,-1.58l2.67,-1.25l2.83,-1l2.92,-0.75l3,-0.421l1.66,-0.082l1.75,0.329l1.58,0.589l0.92,0.58l0.75,0.831l0.5,0.92l0.17,1.079l-0,3l-4.17,0.17l-4.08,0.5l-4.08,0.75l-4,1.08l-3.92,1.419l-1.66,1.001l-1.59,1.25l-1.42,1.5l-1.16,1.58l-0.92,1.83l-0.66,1.92l-0.34,2l-0.083,2l0.17,2l0.491,1.92l0.759,1.909l1,1.75l1.24,1.59l1.42,1.41l1.67,1.171l2.41,1.16l2.59,0.92l2.75,0.589l2.75,0.33l2.75,-0.083l2.66,-0.34l2.67,-0.66l1.42,-0.67l1.33,-0.83l1.079,-1.001l0.92,-1.25l1.001,1.33l1.25,1.001l1.42,0.75l2.58,1l2.66,0.58l2.75,0.329l4.59,-10.079l-1.091,-0l-1.079,-0.16l-1.08,-0.5l-0.839,-0.669l-0.661,-0.92l-0.42,-1.001l-0.17,-1.16l-0,-22.329l-0.161,-1.84l-0.42,-1.83l-0.75,-1.67l-0.92,-1.58l-1.25,-1.5l-1.41,-1.17l-1.59,-1.001l-2.25,-0.99l-2.41,-0.839l-2.92,-0.831l-3.08,-0.42l-2.996,-0.151Zm7.25,28.069l-0,6.75l-0.17,1.25l-0.58,1.17l-0.75,1.001l-1.09,0.75l-1.16,0.42l-2.33,0.33l-2.34,-0l-2.33,-0.33l-1.17,-0.42l-1.001,-0.75l-0.83,-0.92l-0.58,-1.08l-0.34,-1.079l-0,-1.171l0.34,-1.17l0.58,-0.911l0.83,-0.84l1.001,-0.58l3.919,-1l2.28,-0.47l1.72,-0.36l4.001,-0.59Z" style="fill:#010001;fill-rule:nonzero;"/></g><g><rect id="path1670" x="311.907" y="47.244" width="40.584" height="94.488" style="fill:#fff;"/><path id="path1672" d="M341.91,107.819l2.41,-0.41l2.34,-0.67l2.83,10.751l-3.5,1l-3.58,0.66l-3.591,0.34l-3.66,0.083l-3.59,-0.33l-1.75,-0.34l-1.741,-0.75l-1.5,-1l-1.34,-1.25l-1.08,-1.41l-0.751,-1.671l-0.5,-1.75l-0.17,-1.83l-0,-28.002l-7.581,-0l-0,-10.751l7.581,-0l-0,-14.742l12.921,-3.75l-0,18.492l12.001,-0l-0,10.751l-12.001,-0l-0,23.002l0.082,1l0.42,0.92l0.581,0.75l0.829,0.581l0.92,0.419l0.92,0.083l2.5,-0.176Z" style="fill:#010001;fill-rule:nonzero;"/></g></g></g></g></svg>