<?xml version="1.0" encoding="UTF-8" standalone="no"?><!DOCTYPE svg PUBLIC "-//W3C//DTD SVG 1.1//EN" "http://www.w3.org/Graphics/SVG/1.1/DTD/svg11.dtd"><svg width="100%" height="100%" viewBox="0 0 467 272" version="1.1" xmlns="http://www.w3.org/2000/svg" xmlns:xlink="http://www.w3.org/1999/xlink" xml:space="preserve" xmlns:serif="http://www.serif.com/" style="fill-rule:evenodd;clip-rule:evenodd;stroke-linejoin:round;stroke-miterlimit:2;"><g id="scale-value" transform="matrix(50,0,0,50,306.428,153.478)"></g><text x="160.506px" y="153.478px" style="font-family:'ArialMT', 'Arial', sans-serif;font-size:50px;">sw=23</text><g id="_553.3-Wide-Vehiclse" serif:id="553.3 Wide Vehiclse"><path d="M466.202,35.433c-0,-19.556 -15.877,-35.433 -35.433,-35.433l-395.336,0c-19.556,0 -35.433,15.877 -35.433,35.433l-0,200.787c-0,19.557 15.877,35.434 35.433,35.434l395.336,-0c19.556,-0 35.433,-15.877 35.433,-35.434l-0,-200.787Z"/><path d="M448.485,35.433c0,-9.778 -7.938,-17.716 -17.716,-17.716l-395.336,-0c-9.778,-0 -17.716,7.938 -17.716,17.716l-0,200.787c-0,9.778 7.938,17.717 17.716,17.717l395.336,0c9.778,0 17.716,-7.939 17.716,-17.717l0,-200.787Z" style="fill:#fff;"/><g><g><rect id="path1806" x="294.72" y="47.244" width="52.909" height="94.488" style="fill:#fff;"/><path id="path1808" d="M320.219,69.654l-2.42,0.17l-2.41,0.41l-2.34,0.75l-2.25,1.09l-2.08,1.25l-2.25,1.66l-2.079,2l-1.751,2.25l-1.419,2.42l-1.171,3l-0.83,3.169l-0.5,3.16l-0.17,3.25l0.25,3.25l0.591,3.17l0.909,3.08l1.17,3l1.079,2.17l1.42,2l1.5,1.83l1.83,1.67l1.92,1.41l2.08,1.25l2.25,0.92l2.34,0.67l2.99,0.58l3.09,0.25l3.08,-0.083l3.08,-0.34l3,-0.66l2.34,-0.84l2.16,-1.079l2,-1.42l1.83,-1.67l1.67,-1.83l-8,-8.08l-1.83,1.67l-2.08,1.33l-2.25,1l-2.17,0.58l-2.17,0.17l-2.16,-0.083l-2.17,-0.42l-2.08,-0.75l-1.42,-0.92l-1.25,-1.16l-1,-1.34l-0.75,-1.5l-0.41,-1.66l-0.17,-1.67l31.499,0l-0.17,-3.92l-0.42,-3.91l-0.831,-3.83l-1.17,-3.75l-1.08,-2.5l-1.42,-2.25l-1.659,-2.169l-2,-1.83l-2.17,-1.59l-2.08,-1.25l-2.25,-0.91l-2.42,-0.669l-2.42,-0.421l-2.408,-0.075Zm-0.25,10.749l1.66,0l1.67,0.33l1.58,0.589l1.42,0.831l1.33,1.079l1.09,1.25l0.83,1.42l0.58,1.58l0.25,1.67l-19.159,0l0.25,-1.67l0.58,-1.58l0.84,-1.42l1.079,-1.25l1.33,-1.079l1.42,-0.831l1.58,-0.589l1.67,-0.33Z" style="fill:#010001;fill-rule:nonzero;"/></g><g><rect id="path1790" x="210.641" y="47.244" width="26.92" height="94.488" style="fill:#fff;"/><path id="path1792" d="M223.391,51.494l-1.42,0.16l-1.41,0.42l-1.25,0.67l-1.17,0.909l-0.92,1.171l-0.661,1.25l-0.42,1.42l-0.17,1.409l0.17,1.421l0.42,1.419l0.661,1.33l0.92,1.08l1.17,0.92l1.25,0.66l1.41,0.421l1.42,0.17l1.42,-0.17l1.41,-0.421l1.25,-0.66l1.17,-0.92l0.921,-1.08l0.66,-1.33l0.42,-1.419l0.17,-1.421l-0.17,-1.409l-0.42,-1.42l-0.66,-1.25l-0.921,-1.171l-1.17,-0.909l-1.25,-0.67l-1.41,-0.42l-1.42,-0.16Zm-6.5,19.41l0,47.239l12.92,-0l-0,-47.239l-12.92,-0Z" style="fill:#010001;fill-rule:nonzero;"/></g><g><rect id="path1818" x="237.561" y="47.244" width="57.159" height="94.488" style="fill:#fff;"/><path id="path1820" d="M274.72,51.994l0,21.16l-2.16,-1.42l-2.25,-1.16l-2.42,-0.84l-2.41,-0.58l-2.59,-0.25l-2.5,0.094l-2.5,0.33l-2.5,0.66l-2.33,0.92l-2.25,1.25l-2.079,1.42l-2.13,2.04l-1.71,2.21l-1.25,2.37l-1.33,3.46l-0.831,3.33l-0.58,3.42l-0.25,3.42l0.161,3.41l0.42,3.42l0.83,3.329l1.091,3.25l1.24,2.5l1.5,2.25l1.839,2.08l2.081,1.75l2.329,1.42l2.75,1.08l2.92,0.75l2.92,0.34l2.91,-0l2.92,-0.421l2.83,-0.75l2,-0.75l1.75,-1.17l1.58,-1.41l-0,3.25l12.92,0l-0,-66.159l-12.921,-0.003Zm-9.91,28.329l1.91,0.251l1.92,0.58l1.67,0.92l1.58,1.16l1.08,1.25l0.839,1.34l0.58,1.5l0.33,1.66l-0,10.169l-0.16,1.25l-0.34,1.25l-0.58,1.08l-0.75,1.079l-1.33,1.42l-1.5,1.171l-1.67,0.83l-1.83,0.58l-1.92,0.251l-1.91,-0.161l-1.839,-0.421l-1.5,-0.579l-1.41,-0.84l-1.171,-1.08l-1,-1.25l-0.75,-1.42l-0.831,-2.5l-0.42,-2.66l-0.251,-2.58l0.171,-2.67l0.409,-2.58l0.75,-2.589l0.75,-1.66l0.84,-1.25l1.16,-1.09l1.59,-1.08l1.75,-0.75l1.91,-0.5l1.923,-0.081Z" style="fill:#010001;fill-rule:nonzero;"/></g><g id="W"><rect id="path1602" x="118.573" y="47.244" width="92.068" height="94.488" style="fill:#fff;"/><path id="path1604" d="M156.392,118.063l-16.989,-0l-15.42,-66.069l13.92,0l10.579,45.409l9.5,-45.409l15.75,0l9.49,45.409l10.59,-45.409l13.909,0l-15.409,66.069l-17,-0l-9.42,-45.319l-9.5,45.319Z" style="fill:#010001;fill-rule:nonzero;"/></g></g><g><g><rect id="path18061" serif:id="path1806" x="317.884" y="141.732" width="52.909" height="94.488" style="fill:#fff;"/><path id="path18081" serif:id="path1808" d="M343.384,164.142l-2.42,0.17l-2.41,0.41l-2.34,0.75l-2.25,1.09l-2.08,1.25l-2.25,1.66l-2.08,2l-1.75,2.25l-1.42,2.42l-1.17,3l-0.83,3.17l-0.5,3.16l-0.17,3.249l0.25,3.25l0.591,3.17l0.909,3.08l1.17,3l1.079,2.17l1.42,2l1.5,1.83l1.83,1.67l1.92,1.41l2.08,1.25l2.25,0.92l2.34,0.67l2.99,0.58l3.09,0.25l3.08,-0.083l3.08,-0.34l3,-0.66l2.34,-0.84l2.16,-1.079l1.999,-1.42l1.83,-1.67l1.67,-1.83l-7.999,-8.08l-1.83,1.67l-2.08,1.33l-2.25,1l-2.17,0.58l-2.17,0.17l-2.16,-0.082l-2.17,-0.421l-2.08,-0.75l-1.42,-0.92l-1.25,-1.16l-1,-1.34l-0.75,-1.5l-0.41,-1.66l-0.17,-1.67l31.499,0l-0.17,-3.92l-0.42,-3.91l-0.831,-3.829l-1.17,-3.75l-1.08,-2.5l-1.42,-2.25l-1.66,-2.17l-2,-1.83l-2.17,-1.59l-2.08,-1.25l-2.25,-0.91l-2.419,-0.669l-2.42,-0.421l-2.408,-0.075Zm-0.25,10.75l1.66,-0l1.669,0.329l1.58,0.59l1.42,0.83l1.33,1.079l1.091,1.25l0.83,1.42l0.58,1.58l0.25,1.67l-19.159,0l0.25,-1.67l0.58,-1.58l0.84,-1.42l1.079,-1.25l1.33,-1.079l1.42,-0.83l1.58,-0.59l1.67,-0.329Z" style="fill:#010001;fill-rule:nonzero;"/></g><g><rect id="path18062" serif:id="path1806" x="98.749" y="141.732" width="52.909" height="94.488" style="fill:#fff;"/><path id="path18082" serif:id="path1808" d="M124.248,164.142l-2.42,0.17l-2.41,0.41l-2.34,0.75l-2.25,1.09l-2.08,1.25l-2.25,1.66l-2.079,2l-1.75,2.25l-1.42,2.42l-1.171,3l-0.83,3.17l-0.5,3.16l-0.17,3.249l0.251,3.25l0.59,3.17l0.91,3.08l1.169,3l1.079,2.17l1.42,2l1.5,1.83l1.83,1.67l1.92,1.41l2.08,1.25l2.25,0.92l2.34,0.67l2.99,0.58l3.09,0.25l3.08,-0.083l3.08,-0.34l3,-0.66l2.34,-0.84l2.16,-1.079l2,-1.42l1.83,-1.67l1.67,-1.83l-8,-8.08l-1.83,1.67l-2.08,1.33l-2.25,1l-2.17,0.58l-2.17,0.17l-2.16,-0.082l-2.17,-0.421l-2.08,-0.75l-1.42,-0.92l-1.25,-1.16l-1,-1.34l-0.75,-1.5l-0.41,-1.66l-0.17,-1.67l31.499,0l-0.17,-3.92l-0.42,-3.91l-0.831,-3.829l-1.17,-3.75l-1.08,-2.5l-1.42,-2.25l-1.659,-2.17l-2,-1.83l-2.17,-1.59l-2.08,-1.25l-2.25,-0.91l-2.42,-0.669l-2.42,-0.421l-2.408,-0.075Zm-0.25,10.75l1.66,-0l1.67,0.329l1.58,0.59l1.42,0.83l1.33,1.079l1.09,1.25l0.83,1.42l0.58,1.58l0.25,1.67l-19.159,0l0.25,-1.67l0.58,-1.58l0.84,-1.42l1.079,-1.25l1.33,-1.079l1.42,-0.83l1.58,-0.59l1.67,-0.329Z" style="fill:#010001;fill-rule:nonzero;"/></g><g><rect id="path1742" x="287.135" y="141.732" width="30.749" height="94.488" style="fill:#fff;"/><path id="path1744" d="M314.055,200.971l-2.5,0.33l-2.5,0.094l-0.92,-0.094l-0.75,-0.41l-0.661,-0.67l-0.42,-0.75l-0.17,-0.92l-0,-52.069l-12.91,0l0,57.319l0.161,1.75l0.499,1.67l0.75,1.58l1.001,1.5l1.25,1.25l1.42,1l1.67,0.67l1.66,0.499l1.75,0.171l4.08,-0.341l3.999,-0.499l4,-0.75l-1.409,-11.33Z" style="fill:#010001;fill-rule:nonzero;"/></g><g><rect id="path17901" serif:id="path1790" x="208.727" y="141.732" width="26.92" height="94.488" style="fill:#fff;"/><path id="path17921" serif:id="path1792" d="M221.476,145.982l-1.42,0.16l-1.41,0.42l-1.25,0.67l-1.17,0.909l-0.92,1.171l-0.66,1.25l-0.421,1.42l-0.17,1.41l0.17,1.42l0.421,1.42l0.66,1.33l0.92,1.079l1.17,0.92l1.25,0.66l1.41,0.421l1.42,0.17l1.42,-0.17l1.41,-0.421l1.25,-0.66l1.171,-0.92l0.92,-1.079l0.66,-1.33l0.421,-1.42l0.17,-1.42l-0.17,-1.41l-0.421,-1.42l-0.66,-1.25l-0.92,-1.171l-1.171,-0.909l-1.25,-0.67l-1.41,-0.42l-1.42,-0.16Zm-6.5,19.41l0,47.239l12.92,-0l0,-47.239l-12.92,-0Z" style="fill:#010001;fill-rule:nonzero;"/></g><g><rect id="path1794" x="151.658" y="141.732" width="57.069" height="94.488" style="fill:#fff;"/><path id="path1796" d="M187.147,179.642l-1,-1.42l-1.251,-1.08l-1.749,-0.75l-1.91,-0.329l-1.92,0.082l-1.83,0.421l-1.84,0.66l-1.5,1l-1.33,1.25l-1.001,1.5l-0.669,1.59l-0.161,1.66l0,28.42l-12.92,-0l0,-66.159l12.92,-0l0,22.239l1.91,-1.5l2,-1.159l2.25,-0.92l2.34,-0.67l2.33,-0.251l2.42,0l2.75,0.5l2.41,0.84l2.33,1.16l2.09,1.42l1.91,1.67l1.67,1.91l1.42,2.17l1.079,2.5l0.75,2.579l0.421,2.67l0.16,2.75l0,28.25l-12.91,-0l12.91,-0l-12.91,-0l0,-28.17l-0.094,-1.66l-0.41,-1.67l-0.665,-1.503Z" style="fill:#010001;fill-rule:nonzero;"/></g><g><rect id="path1798" x="235.646" y="141.732" width="51.489" height="94.488" style="fill:#fff;"/><path id="path1800" d="M253.056,195.801l0.669,1.5l1.171,1.84l1.5,1.66l1.75,1.25l2.08,0.84l1.83,0.25l1.92,-0.25l2,-0.84l1.75,-1.25l1.5,-1.66l1.249,-1.84l1.001,-2.66l12,4.5l-0.251,0.5l-1.17,2.75l-1.5,2.5l-1.75,2.25l-2.08,2.08l-2.34,1.75l-2.33,1.25l-2.33,0.92l-2.5,0.75l-2.59,0.41l-2.58,0.17l-2.58,-0.17l-2.5,-0.41l-2.5,-0.75l-2.42,-0.92l-2.25,-1.25l-2.33,-1.75l-2.08,-2.08l-1.839,-2.25l-1.5,-2.5l-1.16,-2.75l-0.17,-0.5l-0.831,-3.34l-0.499,-3.41l-0.17,-3.42l0.17,-3.41l0.499,-3.339l0.831,-3.33l0.17,-0.58l1.16,-2.67l1.5,-2.5l1.839,-2.33l2.08,-2l2.33,-1.84l2.25,-1.16l2.42,-1.001l2.5,-0.669l2.5,-0.5l2.58,-0.17l2.58,0.17l2.59,0.5l2.5,0.669l2.33,1.001l2.33,1.16l2.34,1.84l2.08,2l1.75,2.33l1.5,2.5l1.17,2.67l0.251,0.58l-12,4.419l-1.001,-2.669l-1.249,-1.83l-1.5,-1.59l-1.75,-1.25l-2,-0.831l-1.92,-0.25l-1.83,0.25l-2.08,0.831l-1.75,1.25l-1.5,1.59l-1.171,1.83l-0.669,1.58l-0.5,1.589l-0.25,2.58l-0.161,2.58l0.161,2.67l0.25,2.58l0.5,1.58Z" style="fill:#010001;fill-rule:nonzero;"/></g><g><rect id="path1678" x="47.244" y="141.732" width="51.505" height="94.488" style="fill:#fff;"/><path id="path1680" d="M49.244,165.314l16.422,47.244l14.411,0l16.421,-47.244l-13.331,0l-10.251,29.663l-10.331,-29.663l-13.341,0Z" style="fill:#010001;fill-rule:nonzero;"/></g><g><rect id="path1674" x="370.793" y="141.732" width="48.164" height="94.488" style="fill:#fff;"/><path id="path1676" d="M383.545,198.397l2,1.58l2.16,1.251l2.34,1l2.41,0.67l2.501,0.33l2.25,-0l1.59,-0.581l1.33,-0.919l0.75,-0.75l0.5,-1l0.081,-1.081l-0.25,-1.09l-0.58,-0.91l-0.831,-0.67l-3.25,-1.251l-3.34,-0.67l-3,-0.5l-4.081,-1l-2,-0.66l-1.83,-1l-1.67,-1.25l-1.5,-1.42l-1.25,-1.58l-1.081,-1.75l-0.67,-2.091l-0.41,-2.16l0,-2.17l0.25,-2.16l0.581,-2.17l0.92,-1.921l1.25,-1.83l1.41,-1.58l1.59,-1.42l1.83,-1.17l1.91,-0.911l2.091,-0.59l3,-0.659l3,-0.341l3.08,0l3.081,0.25l3.09,0.59l2.5,0.749l2.41,1l2.341,1.33l2.24,1.421l2,1.75l-7.991,8.49l-2.25,-1.83l-2.5,-1.5l-2.67,-1.16l-1.501,-0.419l-1.58,-0.25l-1.59,0l-1.66,0.42l-1.5,0.749l-1.34,1.001l-0.66,0.83l-0.34,0.919l0.09,1.081l0.33,0.91l0.58,0.841l1,0.58l5.5,1.081l5.001,0.67l1.92,0.33l0.08,-0l1.92,0.67l1.831,0.83l1.84,1.09l1.66,1.41l1.42,1.59l1.16,1.751l0.84,1.91l0.581,2.09l0.33,2.08l-0.083,2.17l-0.33,2.081l-0.67,2.08l-1.081,2.09l-1.34,1.91l-1.58,1.75l-1.83,1.5l-2,1.171l-3.251,1l-3.33,0.66l-3.42,0.34l-3.331,0l-3.42,-0.34l-3.33,-0.66l-3,-0.92l-2.921,-1.25l-2.66,-1.58l-2.5,-1.84l-2.34,-2.16l9.42,-8.671l1.753,1.839Z" style="fill:#010001;fill-rule:nonzero;"/></g></g></g></svg>