<?xml version="1.0" encoding="UTF-8" standalone="no"?><!DOCTYPE svg PUBLIC "-//W3C//DTD SVG 1.1//EN" "http://www.w3.org/Graphics/SVG/1.1/DTD/svg11.dtd"><svg width="100%" height="100%" viewBox="0 0 514 454" version="1.1" xmlns="http://www.w3.org/2000/svg" xmlns:xlink="http://www.w3.org/1999/xlink" xml:space="preserve" xmlns:serif="http://www.serif.com/" style="fill-rule:evenodd;clip-rule:evenodd;stroke-linejoin:round;stroke-miterlimit:2;"><g id="scale-value" transform="matrix(50,0,0,50,350.88,262.709)"></g><text x="163.258px" y="262.709px" style="font-family:'ArialMT', 'Arial', sans-serif;font-size:50px;">sw=38.4</text><g id="_553.1-Agricultural-Vehicles-Ahead" serif:id="553.1 Agricultural Vehicles Ahead"><path d="M227.178,17.004c6.076,-10.522 17.302,-17.004 29.452,-17.004c12.149,0 23.376,6.482 29.452,17.004c54.065,93.625 168.545,291.872 222.619,385.514c6.077,10.524 6.079,23.491 0.003,34.016c-6.075,10.525 -17.303,17.009 -29.455,17.009l-445.238,0c-12.152,0 -23.38,-6.484 -29.455,-17.009c-6.076,-10.525 -6.074,-23.492 0.003,-34.016c54.074,-93.642 168.554,-291.889 222.619,-385.514Z" style="fill:#e31837;"/><path d="M256.665,56.708l202.961,351.496l-405.922,-0l202.961,-351.496Z" style="fill:#fff;"/><path d="M240.838,346.211l-0.062,2.387l-0.186,2.356l-0.31,2.356l-0.403,2.356l-0.558,2.295l-0.651,2.294l-0.775,2.232l-0.868,2.232l-0.992,2.139l-1.085,2.108l-1.209,2.046l-1.302,1.985l-1.426,1.922l-1.488,1.829l-1.581,1.767l-1.705,1.674l-1.736,1.581l-1.86,1.519l-1.922,1.395l-1.984,1.302l-2.046,1.209l-2.077,1.117l-2.17,0.992l-2.201,0.868l-2.263,0.775l-2.263,0.651l-2.325,0.527l-2.325,0.434l-2.356,0.279l-2.387,0.186l-2.356,0.062l-2.387,-0.062l-2.356,-0.186l-2.356,-0.279l-2.356,-0.434l-2.294,-0.527l-2.294,-0.651l-2.232,-0.775l-2.201,-0.868l-2.17,-0.992l-2.108,-1.117l-2.046,-1.209l-1.984,-1.302l-1.922,-1.395l-1.829,-1.519l-1.767,-1.581l-1.674,-1.674l-1.581,-1.767l-1.519,-1.829l-1.395,-1.922l-1.302,-1.985l-1.209,-2.046l-1.116,-2.108l-0.992,-2.139l-0.868,-2.232l-0.775,-2.232l-0.651,-2.294l-0.527,-2.295l-0.434,-2.356l-0.279,-2.356l-0.186,-2.356l-0.062,-2.387l0.062,-2.356l0.186,-2.387l0.279,-2.357l0.434,-2.325l0.527,-2.325l0.651,-2.263l0.775,-2.263l0.868,-2.201l0.992,-2.14l1.116,-2.108l1.209,-2.046l1.302,-1.984l1.395,-1.922l1.519,-1.829l1.581,-1.767l1.674,-1.674l1.767,-1.612l1.829,-1.489l1.922,-1.395l1.984,-1.302l2.046,-1.209l2.108,-1.116l2.17,-0.992l2.201,-0.868l2.232,-0.775l2.294,-0.651l2.294,-0.527l2.356,-0.434l2.356,-0.31l2.356,-0.155l2.387,-0.062l2.356,0.062l2.387,0.155l2.356,0.31l2.325,0.434l2.325,0.527l2.263,0.651l2.263,0.775l2.201,0.868l2.17,0.992l2.077,1.116l2.046,1.209l1.984,1.302l1.922,1.395l1.86,1.489l1.736,1.612l1.705,1.674l1.581,1.767l1.488,1.829l1.426,1.922l1.302,1.984l1.209,2.046l1.085,2.108l0.992,2.14l0.868,2.201l0.775,2.263l0.651,2.263l0.558,2.325l0.403,2.325l0.31,2.357l0.186,2.387l0.062,2.356Zm-19.53,-0l-0.062,-1.767l-0.186,-1.798l-0.279,-1.768l-0.403,-1.736l-0.527,-1.705l-0.62,-1.674l-0.744,-1.643l-0.837,-1.581l-0.961,-1.519l-1.054,-1.426l-1.116,-1.395l-1.24,-1.302l-1.302,-1.241l-1.364,-1.116l-1.457,-1.054l-1.519,-0.93l-1.581,-0.837l-1.643,-0.744l-1.674,-0.651l-1.705,-0.496l-1.736,-0.403l-1.767,-0.31l-1.798,-0.186l-1.767,-0.031l-1.798,0.031l-1.767,0.186l-1.767,0.31l-1.736,0.403l-1.736,0.496l-1.674,0.651l-1.612,0.744l-1.581,0.837l-1.519,0.93l-1.457,1.054l-1.395,1.116l-1.302,1.241l-1.209,1.302l-1.147,1.395l-1.023,1.426l-0.961,1.519l-0.837,1.581l-0.744,1.643l-0.62,1.674l-0.527,1.705l-0.403,1.736l-0.31,1.768l-0.155,1.798l-0.062,1.767l0.062,1.798l0.155,1.767l0.31,1.767l0.403,1.767l0.527,1.705l0.62,1.674l0.744,1.613l0.837,1.581l0.961,1.519l1.023,1.457l1.147,1.395l1.209,1.302l1.302,1.209l1.395,1.147l1.457,1.054l1.519,0.93l1.581,0.837l1.612,0.744l1.674,0.62l1.736,0.527l1.736,0.404l1.767,0.31l1.767,0.155l1.798,0.062l1.767,-0.062l1.798,-0.155l1.767,-0.31l1.736,-0.404l1.705,-0.527l1.674,-0.62l1.643,-0.744l1.581,-0.837l1.519,-0.93l1.457,-1.054l1.364,-1.147l1.302,-1.209l1.24,-1.302l1.116,-1.395l1.054,-1.457l0.961,-1.519l0.837,-1.581l0.744,-1.613l0.62,-1.674l0.527,-1.705l0.403,-1.767l0.279,-1.767l0.186,-1.767l0.062,-1.798Zm49.198,-60.919l57.009,-0l-0,-14.044l4.712,0l-0,-14.075l4.681,0l0,14.075l4.681,0l-0,14.044l27.869,-0l0.496,0.062l0.496,0.217l0.403,0.31l0.31,0.403l0.186,0.496l0.062,0.496l-0.093,0.527l-10.974,38.102l21.08,-0l0,20.337l-1.24,-1.612l-1.302,-1.55l-1.426,-1.457l-1.488,-1.365l-1.581,-1.271l-1.674,-1.178l-1.705,-1.085l-1.798,-0.961l-1.829,-0.868l-1.891,-0.744l-1.922,-0.62l-1.953,-0.527l-2.015,-0.372l-2.015,-0.279l-2.015,-0.155l-2.015,-0.031l-2.046,0.093l-2.015,0.217l-1.984,0.341l-1.984,0.465l-1.953,0.558l-1.891,0.713l-1.86,0.806l-1.829,0.899l-1.737,1.023l-1.704,1.147l-1.613,1.209l-1.518,1.333l-1.457,1.427l-1.396,1.488l-1.27,1.581l-1.178,1.674l-1.054,1.705l-0.961,1.798l-0.868,1.829l-73.037,0l0,-6.262l-0.062,-2.604l-0.186,-2.574l-0.31,-2.604l-0.403,-2.573l-0.558,-2.542l-0.651,-2.511l-0.775,-2.511l-0.868,-2.449l-1.023,-2.388l-1.085,-2.356l-1.24,-2.325l-1.302,-2.232l-1.426,-2.17l-1.519,-2.108l-1.643,-2.046l-1.705,-1.954l-1.798,-1.891l-1.891,-1.798l-14.353,-13.021l-48.019,0l-16.213,16.214l-6.076,-6.076l17.949,-17.95l10.168,-42.194l-0,-12.494l84.351,0l0,12.494l10.944,31.25l-0,12.494Zm-48.392,-0l15.5,14.075l21.948,-0l0,-14.075l-37.448,-0Zm25.885,-43.744l-25.141,0l0,34.381l37.169,0l-12.028,-34.381Zm-63.953,0l-8.277,34.381l36.146,0l0,-34.381l-27.869,0Zm197.378,124.194l-0.062,1.798l-0.186,1.767l-0.279,1.767l-0.403,1.737l-0.527,1.736l-0.62,1.674l-0.744,1.612l-0.837,1.581l-0.961,1.519l-1.023,1.457l-1.147,1.395l-1.209,1.302l-1.302,1.209l-1.395,1.147l-1.457,1.024l-1.519,0.961l-1.581,0.837l-1.612,0.744l-1.674,0.62l-1.736,0.527l-1.736,0.403l-1.767,0.279l-1.767,0.186l-1.798,0.062l-1.798,-0.062l-1.767,-0.186l-1.767,-0.279l-1.736,-0.403l-1.705,-0.527l-1.674,-0.62l-1.643,-0.744l-1.581,-0.837l-1.519,-0.961l-1.458,-1.024l-1.363,-1.147l-1.303,-1.209l-1.24,-1.302l-1.147,-1.395l-1.023,-1.457l-0.96,-1.519l-0.837,-1.581l-0.744,-1.612l-0.621,-1.674l-0.526,-1.736l-0.403,-1.737l-0.279,-1.767l-0.186,-1.767l-0.062,-1.798l0.062,-1.767l0.186,-1.798l0.279,-1.767l0.403,-1.736l0.526,-1.706l0.621,-1.674l0.744,-1.643l0.837,-1.581l0.96,-1.519l1.023,-1.457l1.147,-1.364l1.24,-1.302l1.303,-1.24l1.363,-1.116l1.458,-1.054l1.519,-0.93l1.581,-0.869l1.643,-0.713l1.674,-0.651l1.705,-0.527l1.736,-0.403l1.767,-0.279l1.767,-0.186l1.798,-0.062l1.798,0.062l1.767,0.186l1.767,0.279l1.736,0.403l1.736,0.527l1.674,0.651l1.612,0.713l1.581,0.869l1.519,0.93l1.457,1.054l1.395,1.116l1.302,1.24l1.209,1.302l1.147,1.364l1.023,1.457l0.961,1.519l0.837,1.581l0.744,1.643l0.62,1.674l0.527,1.706l0.403,1.736l0.279,1.767l0.186,1.798l0.062,1.767Zm-15.624,0l-0.062,-1.147l-0.155,-1.116l-0.279,-1.116l-0.403,-1.085l-0.496,-1.054l-0.589,-0.992l-0.682,-0.93l-0.775,-0.837l-0.837,-0.776l-0.93,-0.682l-0.992,-0.589l-1.023,-0.496l-1.085,-0.372l-1.116,-0.279l-1.147,-0.186l-1.147,-0.062l-1.147,0.062l-1.147,0.186l-1.116,0.279l-1.085,0.372l-1.023,0.496l-0.992,0.589l-0.93,0.682l-0.837,0.776l-0.775,0.837l-0.682,0.93l-0.589,0.992l-0.496,1.054l-0.403,1.085l-0.279,1.116l-0.155,1.116l-0.062,1.147l0.062,1.147l0.155,1.147l0.279,1.116l0.403,1.085l0.496,1.023l0.589,0.992l0.682,0.931l0.775,0.837l0.837,0.775l0.93,0.682l0.992,0.62l1.023,0.465l1.085,0.403l1.116,0.279l1.147,0.155l1.147,0.062l1.147,-0.062l1.147,-0.155l1.116,-0.279l1.085,-0.403l1.023,-0.465l0.992,-0.62l0.93,-0.682l0.837,-0.775l0.775,-0.837l0.682,-0.931l0.589,-0.992l0.496,-1.023l0.403,-1.085l0.279,-1.116l0.155,-1.147l0.062,-1.147Z"/></g></svg>