<?xml version="1.0" encoding="UTF-8" standalone="no"?><!DOCTYPE svg PUBLIC "-//W3C//DTD SVG 1.1//EN" "http://www.w3.org/Graphics/SVG/1.1/DTD/svg11.dtd"><svg width="100%" height="100%" viewBox="0 0 483 272" version="1.1" xmlns="http://www.w3.org/2000/svg" xmlns:xlink="http://www.w3.org/1999/xlink" xml:space="preserve" xmlns:serif="http://www.serif.com/" style="fill-rule:evenodd;clip-rule:evenodd;stroke-linejoin:round;stroke-miterlimit:2;"><g id="scale-value" transform="matrix(50,0,0,50,314.383,153.478)"></g><text x="168.46px" y="153.478px" style="font-family:'ArialMT', 'Arial', sans-serif;font-size:50px;">sw=23</text><g id="_553.3-Tractors-Turning" serif:id="553.3 Tractors Turning"><path d="M482.11,35.433c-0,-19.556 -15.877,-35.433 -35.433,-35.433l-411.244,0c-19.556,0 -35.433,15.877 -35.433,35.433l-0,200.787c-0,19.557 15.877,35.434 35.433,35.434l411.244,-0c19.556,-0 35.433,-15.877 35.433,-35.434l-0,-200.787Z"/><path d="M464.393,35.433c0,-9.778 -7.938,-17.716 -17.716,-17.716l-411.244,-0c-9.778,-0 -17.716,7.938 -17.716,17.716l-0,200.787c-0,9.778 7.938,17.717 17.716,17.717l411.244,0c9.778,0 17.716,-7.939 17.716,-17.717l0,-200.787Z" style="fill:#fff;"/><g><g><rect id="path1786" x="103.903" y="47.244" width="41.079" height="94.488" style="fill:#fff;"/><path id="path1788" d="M123.403,118.063l-12.92,-0l-0,-47.159l12.92,-0l-0,4.67l1.579,-1.59l1.751,-1.33l1.999,-1.171l2.17,-0.75l2.16,-0.499l2.25,-0.161l3.17,-0l0,12.25l-4.42,-0l-1.83,0.159l-1.83,0.5l-1.67,0.84l-1.579,1.079l-1.25,1.25l-1.08,1.58l-0.84,1.67l-0.499,1.83l-0.083,1.84l0.002,24.992Z" style="fill:#010001;fill-rule:nonzero;"/></g><g><rect id="path17861" serif:id="path1786" x="345.623" y="47.244" width="41.079" height="94.488" style="fill:#fff;"/><path id="path17881" serif:id="path1788" d="M365.122,118.063l-12.92,-0l0,-47.159l12.92,-0l0,4.67l1.58,-1.59l1.75,-1.33l2,-1.171l2.17,-0.75l2.16,-0.499l2.25,-0.161l3.17,-0l-0,12.25l-4.42,-0l-1.83,0.159l-1.83,0.5l-1.67,0.84l-1.58,1.079l-1.25,1.25l-1.079,1.58l-0.84,1.67l-0.5,1.83l-0.083,1.84l0.002,24.992Z" style="fill:#010001;fill-rule:nonzero;"/></g><g><rect id="path1754" x="290.384" y="47.244" width="55.239" height="94.488" style="fill:#fff;"/><path id="path1756" d="M316.713,68.994l-2.59,0.16l-2.5,0.421l-2.5,0.75l-2.41,0.92l-2.25,1.24l-2.34,1.75l-2.08,2.09l-1.83,2.25l-1.499,2.58l-1.171,2.67l-0.161,0.499l-0.839,3.33l-0.5,3.42l-0.17,3.41l0.17,3.42l0.5,3.41l0.839,3.25l0.161,0.59l1.171,2.66l1.499,2.5l1.83,2.34l2.08,2.08l2.34,1.75l2.25,1.16l2.41,1.01l2.5,0.739l2.5,0.421l2.59,0.17l2.58,-0.17l2.58,-0.421l2.5,-0.739l2.42,-1.01l2.25,-1.16l2.33,-1.75l2.08,-2.08l1.84,-2.34l1.5,-2.5l1.16,-2.66l0.17,-0.59l0.83,-3.25l0.5,-3.41l0.094,-3.42l-0.094,-3.41l-0.5,-3.42l-0.83,-3.33l-0.17,-0.499l-1.16,-2.67l-1.5,-2.58l-1.84,-2.25l-2.08,-2.09l-2.33,-1.75l-2.25,-1.24l-2.42,-0.92l-2.5,-0.75l-2.58,-0.421l-2.58,-0.16Zm0,11.329l1.91,0.251l2,0.83l1.75,1.33l1.5,1.59l1.25,1.83l0.67,1.5l0.42,1.58l0.33,2.67l0.082,2.58l-0.082,2.58l-0.33,2.67l-0.42,1.58l-0.67,1.5l-1.25,1.84l-1.5,1.58l-1.75,1.33l-2,0.75l-1.91,0.34l-1.84,-0.34l-2,-0.75l-1.83,-1.33l-1.5,-1.58l-1.17,-1.84l-0.66,-1.5l-0.421,-1.58l-0.329,-2.67l-0.171,-2.58l0.171,-2.58l0.329,-2.67l0.421,-1.58l0.66,-1.5l1.17,-1.83l1.5,-1.59l1.83,-1.33l2,-0.83l1.84,-0.251Z" style="fill:#010001;fill-rule:nonzero;"/></g><g><rect id="path1798" x="198.311" y="47.244" width="51.489" height="94.488" style="fill:#fff;"/><path id="path1800" d="M215.721,101.313l0.669,1.5l1.171,1.84l1.5,1.66l1.75,1.25l2.08,0.84l1.83,0.25l1.92,-0.25l2,-0.84l1.75,-1.25l1.5,-1.66l1.249,-1.84l1.001,-2.66l12,4.5l-0.251,0.5l-1.17,2.75l-1.5,2.499l-1.75,2.25l-2.08,2.08l-2.34,1.75l-2.33,1.25l-2.33,0.92l-2.5,0.75l-2.59,0.41l-2.58,0.17l-2.58,-0.17l-2.5,-0.41l-2.5,-0.75l-2.42,-0.92l-2.25,-1.25l-2.33,-1.75l-2.08,-2.08l-1.839,-2.25l-1.5,-2.499l-1.16,-2.75l-0.17,-0.5l-0.831,-3.34l-0.499,-3.41l-0.17,-3.42l0.17,-3.41l0.499,-3.34l0.831,-3.33l0.17,-0.58l1.16,-2.67l1.5,-2.499l1.839,-2.33l2.08,-2l2.33,-1.84l2.25,-1.16l2.42,-1.001l2.5,-0.669l2.5,-0.5l2.58,-0.17l2.58,0.17l2.59,0.5l2.5,0.669l2.33,1.001l2.33,1.16l2.34,1.84l2.08,2l1.75,2.33l1.5,2.499l1.17,2.67l0.251,0.58l-12,4.42l-1.001,-2.67l-1.249,-1.83l-1.5,-1.59l-1.75,-1.25l-2,-0.83l-1.92,-0.25l-1.83,0.25l-2.08,0.83l-1.75,1.25l-1.5,1.59l-1.171,1.83l-0.669,1.58l-0.5,1.59l-0.25,2.58l-0.161,2.58l0.161,2.67l0.25,2.58l0.5,1.58Z" style="fill:#010001;fill-rule:nonzero;"/></g><g><rect id="path1698" x="144.982" y="47.244" width="53.329" height="94.488" style="fill:#fff;"/><path id="path1700" d="M169.812,68.994l-3.08,0.16l-3,0.58l-3.75,1.09l-3.67,1.41l-3.5,1.67l-3.41,1.92l6.33,9.66l2.58,-1.58l2.67,-1.25l2.83,-1l2.92,-0.75l3,-0.421l1.66,-0.082l1.75,0.329l1.58,0.589l0.92,0.58l0.75,0.831l0.499,0.92l0.17,1.079l0,3l-4.17,0.17l-4.079,0.5l-4.08,0.75l-4,1.08l-3.92,1.419l-1.66,1.001l-1.59,1.25l-1.42,1.5l-1.16,1.58l-0.92,1.83l-0.66,1.92l-0.341,2l-0.082,2l0.17,2l0.49,1.92l0.76,1.91l1,1.749l1.24,1.59l1.42,1.41l1.67,1.171l2.41,1.16l2.59,0.92l2.75,0.589l2.75,0.33l2.75,-0.083l2.66,-0.34l2.67,-0.66l1.419,-0.67l1.33,-0.83l1.08,-1.001l0.92,-1.25l1,1.33l1.25,1.001l1.42,0.75l2.58,1l2.66,0.58l2.75,0.329l4.59,-10.079l-1.09,-0l-1.08,-0.16l-1.079,-0.499l-0.84,-0.67l-0.66,-0.92l-0.421,-1.001l-0.17,-1.159l0,-22.33l-0.16,-1.84l-0.421,-1.83l-0.75,-1.67l-0.92,-1.58l-1.25,-1.5l-1.41,-1.17l-1.59,-1.001l-2.25,-0.99l-2.41,-0.839l-2.92,-0.831l-3.08,-0.42l-2.995,-0.151Zm7.249,28.069l0,6.75l-0.17,1.25l-0.58,1.17l-0.75,1.001l-1.09,0.75l-1.16,0.42l-2.33,0.33l-2.34,-0l-2.329,-0.33l-1.171,-0.42l-1,-0.75l-0.831,-0.92l-0.579,-1.08l-0.341,-1.079l0,-1.171l0.341,-1.17l0.579,-0.911l0.831,-0.84l1,-0.58l3.92,-1l2.28,-0.47l1.72,-0.36l4,-0.59Z" style="fill:#010001;fill-rule:nonzero;"/></g><g><rect id="path1670" x="249.8" y="47.244" width="40.584" height="94.488" style="fill:#fff;"/><path id="path1672" d="M279.803,107.819l2.41,-0.41l2.34,-0.67l2.83,10.751l-3.5,1l-3.58,0.66l-3.591,0.34l-3.66,0.083l-3.59,-0.33l-1.75,-0.34l-1.741,-0.75l-1.5,-1l-1.34,-1.25l-1.08,-1.41l-0.751,-1.671l-0.5,-1.75l-0.17,-1.83l-0,-28.002l-7.581,-0l0,-10.751l7.581,-0l-0,-14.742l12.921,-3.75l-0,18.492l12.001,-0l-0,10.751l-12.001,-0l-0,23.002l0.083,1l0.419,0.92l0.581,0.75l0.83,0.581l0.919,0.419l0.92,0.083l2.5,-0.176Z" style="fill:#010001;fill-rule:nonzero;"/></g><g><rect id="path1674" x="386.702" y="47.244" width="48.164" height="94.488" style="fill:#fff;"/><path id="path1676" d="M399.453,103.909l2,1.58l2.16,1.25l2.34,1l2.41,0.671l2.501,0.33l2.25,-0l1.59,-0.581l1.33,-0.92l0.75,-0.749l0.5,-1l0.081,-1.081l-0.25,-1.09l-0.58,-0.91l-0.83,-0.671l-3.251,-1.25l-3.34,-0.67l-3,-0.5l-4.081,-1l-2,-0.66l-1.83,-1l-1.67,-1.25l-1.5,-1.42l-1.25,-1.58l-1.08,-1.751l-0.671,-2.09l-0.41,-2.16l0,-2.17l0.251,-2.16l0.58,-2.171l0.92,-1.92l1.25,-1.83l1.41,-1.58l1.59,-1.42l1.83,-1.171l1.91,-0.91l2.091,-0.59l3,-0.66l3,-0.34l3.08,-0l3.081,0.249l3.09,0.59l2.5,0.75l2.41,1l2.341,1.33l2.24,1.42l2,1.75l-7.991,8.491l-2.25,-1.83l-2.5,-1.5l-2.67,-1.16l-1.501,-0.419l-1.58,-0.25l-1.59,0l-1.66,0.42l-1.5,0.749l-1.34,1l-0.66,0.83l-0.34,0.92l0.09,1.081l0.33,0.91l0.58,0.841l1,0.58l5.5,1.081l5.001,0.67l1.92,0.33l0.08,-0l1.92,0.67l1.831,0.83l1.84,1.09l1.66,1.41l1.42,1.59l1.16,1.75l0.84,1.911l0.581,2.09l0.33,2.08l-0.083,2.17l-0.33,2.08l-0.67,2.08l-1.081,2.091l-1.34,1.91l-1.58,1.75l-1.83,1.5l-2,1.17l-3.251,1.001l-3.33,0.659l-3.42,0.341l-3.331,-0l-3.42,-0.341l-3.33,-0.659l-3,-0.92l-2.921,-1.25l-2.66,-1.58l-2.5,-1.841l-2.34,-2.16l9.421,-8.67l1.752,1.839Z" style="fill:#010001;fill-rule:nonzero;"/></g><g id="T"><rect id="path1570" x="47.244" y="47.244" width="56.659" height="94.488" style="fill:#fff;"/><path id="path1572" d="M49.994,51.994l0,12.91l18.75,-0l-0,53.249l13.579,-0l0,-53.249l18.75,-0l0,-12.91l-51.079,0Z" style="fill:#010001;fill-rule:nonzero;"/></g></g><g><g><rect id="path17862" serif:id="path1786" x="170.896" y="141.732" width="41.079" height="94.488" style="fill:#fff;"/><path id="path17882" serif:id="path1788" d="M190.396,212.551l-12.92,-0l0,-47.159l12.92,-0l-0,4.67l1.58,-1.59l1.75,-1.33l2,-1.171l2.17,-0.75l2.16,-0.499l2.25,-0.161l3.17,0l-0,12.25l-4.42,-0l-1.83,0.159l-1.83,0.5l-1.67,0.84l-1.58,1.079l-1.25,1.25l-1.08,1.58l-0.839,1.67l-0.5,1.83l-0.083,1.84l0.002,24.992Z" style="fill:#010001;fill-rule:nonzero;"/></g><g><rect id="path1750" x="211.975" y="141.732" width="57.159" height="94.488" style="fill:#fff;"/><path id="path1752" d="M248.555,182.811l-0.34,-1.669l-0.75,-1.58l-1.001,-1.34l-1.25,-1.08l-1.75,-0.75l-1.91,-0.329l-1.92,0.082l-1.83,0.33l-1.839,0.75l-1.5,1l-1.33,1.25l-1.001,1.5l-0.669,1.59l-0.161,1.66l-0,28.329l-12.92,0l0,-47.159l12.92,0l-0,3.33l1.91,-1.5l2.09,-1.25l2.16,-0.909l2.34,-0.591l2.33,-0.329l2.42,0.083l2.75,0.499l2.409,0.84l2.33,1.16l2.09,1.42l1.91,1.67l1.67,1.91l1.42,2.17l1.08,2.5l0.75,2.579l0.42,2.67l0.161,2.75l-0,28.16l-12.91,-0l12.91,-0l-12.91,-0l0,-28.08l-0.079,-1.666Z" style="fill:#010001;fill-rule:nonzero;"/></g><g><rect id="path17501" serif:id="path1750" x="296.054" y="141.732" width="57.159" height="94.488" style="fill:#fff;"/><path id="path17521" serif:id="path1752" d="M332.633,182.811l-0.34,-1.669l-0.75,-1.58l-1,-1.34l-1.25,-1.08l-1.75,-0.75l-1.91,-0.329l-1.92,0.082l-1.83,0.33l-1.84,0.75l-1.5,1l-1.33,1.25l-1,1.5l-0.67,1.59l-0.161,1.66l0,28.329l-12.919,0l-0,-47.159l12.919,0l0,3.33l1.91,-1.5l2.09,-1.25l2.16,-0.909l2.34,-0.591l2.33,-0.329l2.42,0.083l2.75,0.499l2.41,0.84l2.33,1.16l2.09,1.42l1.91,1.67l1.67,1.91l1.42,2.17l1.079,2.5l0.75,2.579l0.421,2.67l0.161,2.75l-0,28.16l-12.91,-0l12.91,-0l-12.91,-0l-0,-28.08l-0.08,-1.666Z" style="fill:#010001;fill-rule:nonzero;"/></g><g><rect id="path1790" x="269.134" y="141.732" width="26.92" height="94.488" style="fill:#fff;"/><path id="path1792" d="M281.884,145.982l-1.42,0.16l-1.41,0.42l-1.25,0.67l-1.17,0.909l-0.92,1.171l-0.66,1.25l-0.421,1.42l-0.17,1.41l0.17,1.42l0.421,1.42l0.66,1.33l0.92,1.079l1.17,0.92l1.25,0.66l1.41,0.421l1.42,0.17l1.42,-0.17l1.41,-0.421l1.25,-0.66l1.171,-0.92l0.92,-1.079l0.66,-1.33l0.42,-1.42l0.171,-1.42l-0.171,-1.41l-0.42,-1.42l-0.66,-1.25l-0.92,-1.171l-1.171,-0.909l-1.25,-0.67l-1.41,-0.42l-1.42,-0.16Zm-6.5,19.41l0,47.239l12.92,-0l0,-47.239l-12.92,-0Z" style="fill:#010001;fill-rule:nonzero;"/></g><g><rect id="path1810" x="353.213" y="141.732" width="56.159" height="94.488" style="fill:#fff;"/><path id="path1812" d="M377.543,164.722l-2.84,0.17l-2.75,0.5l-2.66,0.92l-1.92,0.909l-1.83,1.171l-1.75,1.329l-1.5,1.59l-1.34,1.66l-1.33,2.42l-1,2.58l-0.831,2.59l-0.669,2.58l-0.41,2.67l-0.095,2.75l0.251,2.66l0.499,2.67l0.75,2.58l1.001,2.33l1.25,2.25l1.5,2.09l1.84,1.83l1.99,1.58l2.34,1.42l2.499,1.079l2.66,0.75l2.67,0.33l2.92,0.17l2.91,-0.33l2.84,-0.58l2.16,-0.75l2.09,-1.09l0,2.5l-0.17,1.42l-0.5,1.33l-0.75,1.171l-1,1l-1.17,0.75l-1.33,0.42l-3.5,0.33l-3.92,-0.094l-3.91,-0.491l-2.42,-0.59l-2.42,-0.75l-2.25,-1.08l-2.16,-1.34l-6.08,10.42l3.83,1.83l4,1.42l4,1.171l4.16,0.909l3.25,0.25l3.34,0.095l3.25,-0.251l3.33,-0.589l2.67,-0.66l2.579,-1.001l2.41,-1.339l2.25,-1.661l1.59,-1.59l1.25,-1.829l1.08,-2l0.75,-2.08l0.499,-2.17l0.17,-2.25l0,-45.409l-12.829,-0l-0,2.419l-1.75,-1.17l-1.92,-0.83l-2,-0.5l-2.75,-0.5l-2.824,-0.089Zm1.659,11.25l2.09,0.17l1.91,0.58l1.92,0.839l1.08,0.75l1,1.001l0.75,1.16l0.5,1.25l0.34,1.33l0,7.509l-0.34,1.74l-0.5,1.75l-0.58,1.26l-0.83,1.08l-1.09,0.83l-1.16,0.67l-1.75,0.58l-1.75,0.25l-1.84,0l-1.75,-0.25l-1.75,-0.5l-1.41,-0.67l-1.34,-0.909l-1.079,-1.17l-0.831,-1.33l-0.499,-1.42l-0.5,-1.91l-0.25,-2l0.082,-2l0.251,-1.92l0.58,-2.17l0.92,-2l0.67,-1.25l0.92,-1.08l1.079,-0.83l1.16,-0.67l2,-0.499l1.997,-0.171Z" style="fill:#010001;fill-rule:nonzero;"/></g><g><rect id="path1666" x="113.321" y="141.732" width="57.575" height="94.488" style="fill:#fff;"/><path id="path1668" d="M119.652,165.314l12.921,0l-12.921,0l12.921,0l0,28.163l0.16,1.67l0.34,1.66l0.66,1.5l1,1.42l1.34,1.081l1.75,0.749l1.83,0.251l1.921,0l1.91,-0.41l1.75,-0.67l1.58,-1.001l1.25,-1.25l1.09,-1.5l0.581,-1.58l0.17,-1.67l-0,-28.413l12.911,0l-0,47.244l-12.911,0l-0,-3.33l-1.84,1.5l-2.08,1.16l-2.251,0.92l-2.25,0.67l-2.41,0.251l-2.42,-0l-2.75,-0.5l-2.421,-0.841l-2.25,-1.16l-2.16,-1.42l-1.84,-1.67l-1.75,-1.91l-1.41,-2.17l-1.001,-2.5l-0.75,-2.581l-0.5,-2.75l-0.171,-2.67l0.001,-28.243Z" style="fill:#010001;fill-rule:nonzero;"/></g><g><rect id="path16701" serif:id="path1670" x="72.738" y="141.732" width="40.584" height="94.488" style="fill:#fff;"/><path id="path16721" serif:id="path1672" d="M102.741,202.308l2.41,-0.411l2.34,-0.67l2.83,10.751l-3.5,1l-3.58,0.66l-3.591,0.34l-3.66,0.083l-3.59,-0.33l-1.75,-0.34l-1.741,-0.75l-1.5,-1l-1.34,-1.25l-1.08,-1.41l-0.751,-1.67l-0.5,-1.751l-0.17,-1.83l-0,-28.002l-7.581,-0l-0,-10.751l7.581,-0l-0,-14.741l12.921,-3.751l-0,18.492l12.001,-0l-0,10.751l-12.001,-0l-0,23.002l0.082,1l0.42,0.92l0.58,0.75l0.83,0.581l0.92,0.42l0.92,0.082l2.5,-0.175Z" style="fill:#010001;fill-rule:nonzero;"/></g></g></g></svg>