<?xml version="1.0" encoding="UTF-8" standalone="no"?><!DOCTYPE svg PUBLIC "-//W3C//DTD SVG 1.1//EN" "http://www.w3.org/Graphics/SVG/1.1/DTD/svg11.dtd"><svg width="100%" height="100%" viewBox="0 0 514 454" version="1.1" xmlns="http://www.w3.org/2000/svg" xmlns:xlink="http://www.w3.org/1999/xlink" xml:space="preserve" xmlns:serif="http://www.serif.com/" style="fill-rule:evenodd;clip-rule:evenodd;stroke-linejoin:round;stroke-miterlimit:2;"><g transform="matrix(50,0,0,50,350.88,309.836)"></g><text x="163.258px" y="309.836px" style="font-family:'ArialMT', 'Arial', sans-serif;font-size:50px;">sw=38.4</text><g id="_554.1-Try-Your-Brakes" serif:id="554.1 Try Your Brakes"><path d="M227.178,17.004c6.076,-10.522 17.302,-17.004 29.452,-17.004c12.149,0 23.376,6.482 29.452,17.004c54.065,93.625 168.545,291.872 222.619,385.514c6.077,10.524 6.079,23.491 0.003,34.016c-6.075,10.525 -17.303,17.009 -29.455,17.009l-445.238,0c-12.152,0 -23.38,-6.484 -29.455,-17.009c-6.076,-10.525 -6.074,-23.492 0.003,-34.016c54.074,-93.642 168.554,-291.889 222.619,-385.514Z" style="fill:#e31837;"/><path d="M256.665,56.708l202.961,351.496l-405.922,-0l202.961,-351.496Z" style="fill:#fff;"/><g><rect id="path1698" x="255.531" y="332.613" width="43.087" height="75.591" style="fill:#fff;"/><path d="M297.673,389.306l-11.804,0l-10.311,-16.349l-4.206,4.546l-0,11.803l-10.719,0l0,-52.913l10.719,-0l-0,28.288l13.025,-13.974l12.753,-0l-14.449,15.195l14.992,23.404Z" style="fill-rule:nonzero;"/></g><g><rect id="path16981" serif:id="path1698" x="135.342" y="332.613" width="46.11" height="75.591" style="fill:#fff;"/><path d="M176.887,370.263c-0,2.704 -0.393,5.273 -1.18,7.706c-0.787,2.434 -1.944,4.564 -3.473,6.389c-1.528,1.825 -3.428,3.279 -5.698,4.361c-2.27,1.081 -4.866,1.622 -7.788,1.622c-1.483,0 -2.955,-0.293 -4.417,-0.879c-1.461,-0.586 -2.708,-1.352 -3.742,-2.298l-0,2.028l-10.682,-0l0,-52.799l10.682,-0l-0.019,16.09c1.17,-0.902 2.485,-1.6 3.947,-2.096c1.462,-0.496 2.981,-0.744 4.555,-0.744c2.835,0 5.365,0.575 7.592,1.724c2.227,1.149 4.093,2.671 5.601,4.563c1.507,1.893 2.654,4.079 3.441,6.558c0.787,2.479 1.181,5.07 1.181,7.775Zm-10.817,-0.136c0,-3.154 -0.777,-5.735 -2.332,-7.74c-1.555,-2.006 -3.752,-3.009 -6.591,-3.009c-0.767,0 -1.544,0.136 -2.333,0.406c-0.789,0.27 -1.498,0.653 -2.129,1.149c-0.631,0.496 -1.15,1.082 -1.555,1.758c-0.406,0.676 -0.609,1.442 -0.609,2.298l0,9.938c0,0.902 0.226,1.69 0.676,2.366c0.451,0.676 1.014,1.24 1.69,1.691c0.677,0.45 1.42,0.788 2.231,1.014c0.812,0.225 1.555,0.338 2.231,0.338c1.352,-0 2.569,-0.271 3.651,-0.812c1.082,-0.54 1.994,-1.273 2.738,-2.197c0.744,-0.924 1.318,-2.005 1.724,-3.245c0.405,-1.239 0.608,-2.557 0.608,-3.955Z" style="fill-rule:nonzero;"/></g><g><rect id="path16982" serif:id="path1698" x="213.578" y="332.613" width="41.953" height="75.591" style="fill:#fff;"/><path d="M251.74,381.959l-4.172,7.347c-1.453,-0.083 -2.771,-0.446 -3.954,-1.089c-1.183,-0.644 -2.148,-1.484 -2.895,-2.522c-1.162,1.079 -2.522,1.889 -4.078,2.428c-1.557,0.54 -3.456,0.81 -5.698,0.81c-1.785,-0 -3.497,-0.229 -5.137,-0.685c-1.639,-0.457 -3.082,-1.152 -4.327,-2.086c-1.245,-0.934 -2.242,-2.086 -2.989,-3.456c-0.747,-1.37 -1.121,-2.989 -1.121,-4.857c0,-1.826 0.27,-3.383 0.81,-4.67c0.539,-1.286 1.224,-2.376 2.055,-3.268c0.83,-0.893 1.774,-1.609 2.833,-2.149c1.058,-0.539 2.106,-0.954 3.144,-1.245c1.038,-0.291 2.013,-0.498 2.927,-0.623c0.913,-0.124 1.639,-0.207 2.179,-0.249c0.872,-0.083 1.982,-0.176 3.331,-0.28c1.349,-0.104 2.584,-0.197 3.705,-0.28l-0,-0.498c-0,-1.536 -0.353,-2.646 -1.059,-3.331c-0.705,-0.685 -1.93,-1.028 -3.673,-1.028c-1.827,0 -3.57,0.218 -5.231,0.654c-1.66,0.436 -3.487,1.235 -5.479,2.397l-3.674,-7.783c2.532,-1.411 5.013,-2.428 7.441,-3.051c2.428,-0.623 4.95,-0.934 7.565,-0.934c4.525,0 7.97,1.121 10.336,3.362c2.367,2.242 3.55,5.604 3.55,10.087l-0,11.644c-0,1.577 0.269,2.771 0.809,3.58c0.54,0.81 1.474,1.401 2.802,1.775Zm-13.449,-4.67l-0,-4.421c-0.748,0.042 -1.536,0.083 -2.366,0.125c-0.831,0.041 -1.536,0.103 -2.118,0.186c-0.705,0.083 -1.442,0.167 -2.21,0.25c-0.768,0.083 -1.463,0.259 -2.086,0.529c-0.622,0.27 -1.141,0.654 -1.556,1.152c-0.416,0.498 -0.623,1.204 -0.623,2.117c-0,1.204 0.519,2.117 1.557,2.739c1.037,0.623 2.22,0.934 3.549,0.934c2.117,0 3.621,-0.352 4.514,-1.058c0.892,-0.706 1.339,-1.557 1.339,-2.553Z" style="fill-rule:nonzero;"/></g><g><rect id="path16983" serif:id="path1698" x="340.192" y="332.613" width="37.795" height="75.591" style="fill:#fff;"/><path d="M374.692,377.863c-0,1.674 -0.325,3.213 -0.973,4.615c-0.649,1.402 -1.622,2.616 -2.92,3.641c-1.297,1.026 -2.898,1.821 -4.803,2.386c-1.904,0.565 -4.112,0.848 -6.623,0.848c-3.181,-0 -6.069,-0.471 -8.664,-1.413c-2.595,-0.942 -5.002,-2.334 -7.22,-4.175l5.65,-6.53c1.758,1.465 3.558,2.439 5.399,2.92c1.842,0.481 3.432,0.722 4.772,0.722c1.883,-0 3.181,-0.272 3.892,-0.816c0.712,-0.544 1.068,-1.214 1.068,-2.009c-0,-0.461 -0.325,-0.953 -0.973,-1.476c-0.649,-0.523 -1.727,-0.952 -3.234,-1.287l-6.215,-1.507c-1.172,-0.251 -2.334,-0.648 -3.485,-1.192c-1.151,-0.545 -2.187,-1.235 -3.107,-2.072c-0.921,-0.837 -1.664,-1.842 -2.229,-3.014c-0.565,-1.172 -0.848,-2.532 -0.848,-4.081c0,-1.716 0.366,-3.296 1.099,-4.74c0.732,-1.444 1.768,-2.7 3.108,-3.767c1.339,-1.067 2.919,-1.894 4.74,-2.48c1.82,-0.586 3.84,-0.879 6.058,-0.879c3.265,0 6.101,0.44 8.507,1.319c2.407,0.879 4.51,2.092 6.31,3.641l-5.65,6.53c-1.34,-1.047 -2.711,-1.821 -4.113,-2.323c-1.402,-0.503 -2.919,-0.754 -4.551,-0.754c-1.758,0 -3.056,0.325 -3.893,0.973c-0.837,0.649 -1.256,1.35 -1.256,2.104c0,0.125 0.021,0.293 0.063,0.502c0.042,0.209 0.178,0.429 0.408,0.659c0.23,0.23 0.555,0.46 0.973,0.691c0.419,0.23 1.005,0.429 1.758,0.596l6.53,1.57c1.297,0.334 2.563,0.753 3.798,1.255c1.235,0.503 2.344,1.172 3.328,2.009c0.983,0.837 1.778,1.863 2.385,3.077c0.607,1.213 0.911,2.699 0.911,4.457Z" style="fill-rule:nonzero;"/></g><g><rect id="path16984" serif:id="path1698" x="181.452" y="332.613" width="32.126" height="75.591" style="fill:#fff;"/><path d="M208.714,360.951l-1.528,-0.133c-1.418,-0.133 -2.747,-0.056 -3.988,0.232c-1.241,0.288 -2.326,0.787 -3.257,1.496c-0.93,0.709 -1.661,1.628 -2.193,2.758c-0.532,1.13 -0.798,2.47 -0.798,4.021l0,19.939l-10.634,-0l0,-37.751l10.634,-0l0,3.921c1.285,-1.816 2.88,-3.146 4.786,-3.987c1.905,-0.842 4.231,-1.108 6.978,-0.798l0,10.302Z" style="fill-rule:nonzero;"/></g><g><rect id="path16985" serif:id="path1698" x="298.618" y="332.613" width="41.575" height="75.591" style="fill:#fff;"/><path d="M336.732,371.983l-0.126,1.575l-24.378,0c0.042,1.008 0.294,1.943 0.756,2.803c0.462,0.861 1.071,1.617 1.827,2.268c0.756,0.651 1.627,1.155 2.614,1.512c0.987,0.357 2.026,0.535 3.118,0.535c3.15,0 5.858,-1.05 8.126,-3.149l5.292,6.488c-1.806,1.722 -3.791,3.034 -5.953,3.937c-2.163,0.903 -4.63,1.354 -7.402,1.354c-2.981,0 -5.627,-0.493 -7.937,-1.48c-2.31,-0.987 -4.252,-2.352 -5.827,-4.095c-1.574,-1.742 -2.771,-3.769 -3.59,-6.078c-0.819,-2.31 -1.228,-4.788 -1.228,-7.433c-0,-2.562 0.388,-4.987 1.165,-7.276c0.777,-2.289 1.9,-4.273 3.37,-5.953c1.47,-1.679 3.297,-3.013 5.48,-4c2.184,-0.987 4.662,-1.48 7.433,-1.48c3.066,0 5.733,0.546 8,1.638c2.268,1.092 4.116,2.561 5.544,4.409c1.427,1.848 2.446,4.021 3.055,6.52c0.609,2.499 0.829,5.134 0.661,7.905Zm-9.89,-5.48c0,-1.932 -0.703,-3.517 -2.11,-4.756c-1.407,-1.239 -3.139,-1.858 -5.197,-1.858c-1.973,-0 -3.611,0.661 -4.913,1.984c-1.302,1.323 -2.058,2.866 -2.268,4.63l14.488,0Z" style="fill-rule:nonzero;"/></g><g><rect id="path16986" serif:id="path1698" x="274.996" y="181.432" width="40.063" height="75.591" style="fill:#fff;"/><path d="M312.926,200.3l-14.357,41.942c-0.662,1.94 -1.478,3.451 -2.449,4.531c-0.97,1.081 -2.029,1.886 -3.175,2.415c-0.883,0.397 -1.93,0.695 -3.143,0.893c-1.213,0.199 -2.393,0.298 -3.54,0.298c-1.191,-0 -2.481,-0.122 -3.871,-0.364c-1.389,-0.243 -2.657,-0.54 -3.804,-0.893l1.72,-8.402c1.015,0.353 1.996,0.618 2.945,0.794c0.948,0.176 1.797,0.265 2.547,0.265c1.235,-0 2.128,-0.199 2.68,-0.596c0.551,-0.397 0.827,-0.904 0.827,-1.521l-0,-0.331c-0,-0.132 -0.045,-0.309 -0.133,-0.529c-0.044,-0.177 -0.099,-0.353 -0.165,-0.529c-0.066,-0.177 -0.121,-0.375 -0.166,-0.596l-12.901,-37.377l10.983,-0l7.542,22.691l7.543,-22.691l10.917,-0Z" style="fill-rule:nonzero;"/></g><g><rect id="path16987" serif:id="path1698" x="242.87" y="181.432" width="32.126" height="75.591" style="fill:#fff;"/><path d="M270.132,209.77l-1.529,-0.133c-1.418,-0.133 -2.747,-0.056 -3.988,0.232c-1.24,0.288 -2.326,0.787 -3.256,1.496c-0.931,0.709 -1.662,1.628 -2.194,2.758c-0.531,1.13 -0.797,2.47 -0.797,4.021l-0,19.939l-10.634,-0l-0,-37.751l10.634,-0l-0,3.921c1.285,-1.816 2.88,-3.146 4.785,-3.988c1.905,-0.841 4.231,-1.107 6.979,-0.797l-0,10.302Z" style="fill-rule:nonzero;"/></g><g><rect x="198.271" y="181.432" width="44.598" height="75.591" style="fill:#fff;"/><path d="M241.366,195.659l-15.231,-0l-0,42.466l-11.129,0l0,-42.466l-15.232,-0l0,-10.447l41.592,-0l0,10.447Z" style="fill-rule:nonzero;"/></g><g><rect id="path16988" serif:id="path1698" x="176.161" y="257.023" width="40.063" height="75.591" style="fill:#fff;"/><path d="M214.091,275.891l-14.357,41.941c-0.662,1.941 -1.478,3.451 -2.448,4.532c-0.971,1.08 -2.029,1.885 -3.176,2.415c-0.882,0.396 -1.93,0.694 -3.143,0.893c-1.213,0.198 -2.393,0.297 -3.54,0.297c-1.191,0 -2.481,-0.121 -3.87,-0.364c-1.39,-0.242 -2.658,-0.54 -3.805,-0.893l1.721,-8.401c1.014,0.353 1.996,0.617 2.944,0.794c0.948,0.176 1.797,0.264 2.547,0.264c1.235,0 2.129,-0.198 2.68,-0.595c0.551,-0.397 0.827,-0.904 0.827,-1.522l-0,-0.33c-0,-0.133 -0.044,-0.309 -0.132,-0.53c-0.044,-0.176 -0.1,-0.353 -0.166,-0.529c-0.066,-0.176 -0.121,-0.375 -0.165,-0.595l-12.902,-37.377l10.983,-0l7.543,22.69l7.542,-22.69l10.917,-0Z" style="fill-rule:nonzero;"/></g><g><rect id="path16989" serif:id="path1698" x="259.689" y="257.023" width="45.354" height="75.591" style="fill:#fff;"/><path d="M299.012,313.672l-10.654,-0l0,-2.388c-1.154,1.061 -2.541,1.901 -4.161,2.521c-1.62,0.619 -3.185,0.928 -4.694,0.928c-2.264,0 -4.251,-0.331 -5.96,-0.995c-1.709,-0.663 -3.151,-1.581 -4.328,-2.753c-1.176,-1.172 -2.053,-2.543 -2.63,-4.113c-0.577,-1.57 -0.865,-3.283 -0.865,-5.141l-0,-25.738l10.653,0l0,23.549c0,1.99 0.464,3.428 1.391,4.312c0.927,0.885 2.251,1.327 3.972,1.327c0.84,-0 1.656,-0.111 2.451,-0.332c0.794,-0.221 1.501,-0.575 2.119,-1.061c0.618,-0.487 1.114,-1.117 1.489,-1.891c0.376,-0.774 0.563,-1.736 0.563,-2.885l0,-23.019l10.654,0l-0,37.679Z" style="fill-rule:nonzero;"/></g><g><rect id="path169810" serif:id="path1698" x="305.043" y="257.023" width="32.126" height="75.591" style="fill:#fff;"/><path d="M332.305,285.36l-1.529,-0.133c-1.418,-0.133 -2.747,-0.055 -3.988,0.233c-1.24,0.288 -2.326,0.786 -3.256,1.495c-0.931,0.709 -1.662,1.629 -2.194,2.758c-0.531,1.13 -0.797,2.471 -0.797,4.021l-0,19.939l-10.634,0l-0,-37.751l10.634,0l-0,3.922c1.285,-1.817 2.88,-3.146 4.785,-3.988c1.906,-0.842 4.232,-1.108 6.979,-0.798l-0,10.302Z" style="fill-rule:nonzero;"/></g><g><rect id="path169811" serif:id="path1698" x="216.224" y="257.023" width="43.465" height="75.591" style="fill:#fff;"/><path d="M255.912,295.258c0,2.636 -0.418,5.085 -1.256,7.345c-0.837,2.26 -2.029,4.207 -3.578,5.839c-1.549,1.632 -3.432,2.919 -5.651,3.861c-2.218,0.942 -4.687,1.413 -7.408,1.413c-2.721,-0 -5.19,-0.461 -7.408,-1.381c-2.219,-0.921 -4.113,-2.208 -5.682,-3.862c-1.57,-1.653 -2.784,-3.61 -3.642,-5.87c-0.858,-2.26 -1.287,-4.709 -1.287,-7.345c0,-2.721 0.388,-5.264 1.162,-7.629c0.774,-2.364 1.925,-4.415 3.453,-6.152c1.528,-1.737 3.411,-3.098 5.65,-4.081c2.24,-0.984 4.824,-1.476 7.754,-1.476c2.888,0 5.452,0.503 7.691,1.507c2.239,1.005 4.112,2.376 5.619,4.113c1.507,1.737 2.647,3.787 3.422,6.152c0.774,2.365 1.161,4.887 1.161,7.566Zm-9.857,-0c0,-1.465 -0.199,-2.836 -0.596,-4.113c-0.398,-1.276 -0.942,-2.396 -1.633,-3.359c-0.69,-0.962 -1.538,-1.726 -2.542,-2.291c-1.005,-0.565 -2.093,-0.848 -3.265,-0.848c-1.214,0 -2.323,0.283 -3.327,0.848c-1.005,0.565 -1.863,1.329 -2.575,2.291c-0.711,0.963 -1.255,2.083 -1.632,3.359c-0.377,1.277 -0.565,2.648 -0.565,4.113c0,2.888 0.733,5.231 2.197,7.031c1.465,1.8 3.433,2.7 5.902,2.7c2.428,-0 4.374,-0.9 5.839,-2.7c1.465,-1.8 2.197,-4.143 2.197,-7.031Z" style="fill-rule:nonzero;"/></g></g></svg>