<?xml version="1.0" encoding="UTF-8" standalone="no"?><!DOCTYPE svg PUBLIC "-//W3C//DTD SVG 1.1//EN" "http://www.w3.org/Graphics/SVG/1.1/DTD/svg11.dtd"><svg width="100%" height="100%" viewBox="0 0 514 454" version="1.1" xmlns="http://www.w3.org/2000/svg" xmlns:xlink="http://www.w3.org/1999/xlink" xml:space="preserve" xmlns:serif="http://www.serif.com/" style="fill-rule:evenodd;clip-rule:evenodd;stroke-linejoin:round;stroke-miterlimit:2;"><g transform="matrix(50,0,0,50,350.88,262.709)"></g><text x="163.258px" y="262.709px" style="font-family:'ArialMT', 'Arial', sans-serif;font-size:50px;">sw=38.4</text><g id="_554.2-Risk-of-Ice-or-Packed-Snow" serif:id="554.2 Risk of Ice or Packed Snow"><path d="M229.215,15.849c5.656,-9.807 16.106,-15.849 27.415,-15.849c11.309,-0 21.759,6.042 27.415,15.849c53.537,92.841 171.425,297.275 224.971,390.132c5.657,9.81 5.658,21.897 0.003,31.708c-5.655,9.81 -16.106,15.854 -27.417,15.854l-449.944,0c-11.311,0 -21.763,-6.044 -27.418,-15.854c-5.655,-9.811 -5.653,-21.898 0.003,-31.708c53.547,-92.857 171.435,-297.291 224.972,-390.132Z" style="fill:#e31837;"/><path d="M256.841,56.693l202.961,351.496l-405.922,-0l202.961,-351.496Z" style="fill:#fff;"/><path d="M256.629,191.244l11.357,6.559l0,11.597l9.998,-5.758l11.358,6.558l0,13.038l-21.356,12.397l0,35.753l30.954,-17.917l0,-24.635l11.358,-6.558l11.357,6.558l0,11.598l9.998,-5.839l11.358,6.559l0,13.117l-10.078,5.759l10.078,5.839l0,13.037l-11.358,6.559l-21.355,-12.318l-31.034,17.917l31.034,17.836l21.355,-12.318l11.358,6.559l0,13.037l-10.078,5.839l10.078,5.839l0,13.037l-11.358,6.559l-9.998,-5.839l0,11.678l-11.357,6.479l-11.358,-6.479l0,-24.715l-30.954,-17.916l0,35.752l21.356,12.398l0,13.117l-11.358,6.479l-9.998,-5.759l0,11.597l-11.357,6.559l-11.358,-6.559l0,-11.597l-10.078,5.759l-11.278,-6.479l0,-13.117l21.356,-12.398l0,-35.752l-30.954,17.916l0,24.715l-11.357,6.479l-11.358,-6.479l0,-11.678l-10.078,5.839l-11.278,-6.559l0,-13.037l9.998,-5.839l-9.998,-5.839l0,-13.037l11.278,-6.559l21.436,12.318l30.953,-17.836l-30.953,-17.917l-21.436,12.318l-11.278,-6.559l0,-13.037l9.998,-5.839l-9.998,-5.759l0,-13.117l11.278,-6.559l10.078,5.839l0,-11.598l11.358,-6.558l11.357,6.558l0,24.635l30.954,17.917l0,-35.753l-21.356,-12.397l0,-13.038l11.278,-6.558l10.078,5.758l0,-11.597l11.358,-6.559Z"/></g></svg>