<?xml version="1.0" encoding="UTF-8" standalone="no"?><!DOCTYPE svg PUBLIC "-//W3C//DTD SVG 1.1//EN" "http://www.w3.org/Graphics/SVG/1.1/DTD/svg11.dtd"><svg width="100%" height="100%" viewBox="0 0 235 178" version="1.1" xmlns="http://www.w3.org/2000/svg" xmlns:xlink="http://www.w3.org/1999/xlink" xml:space="preserve" xmlns:serif="http://www.serif.com/" style="fill-rule:evenodd;clip-rule:evenodd;stroke-linejoin:round;stroke-miterlimit:2;"><g transform="matrix(50,0,0,50,190.313,106.246)"></g><text x="44.39px" y="106.246px" style="font-family:'ArialMT', 'Arial', sans-serif;font-size:50px;">sw=15</text><g><path d="M234.239,35.433c0,-19.556 -15.877,-35.433 -35.433,-35.433l-163.373,0c-19.556,0 -35.433,15.877 -35.433,35.433l-0,106.299c-0,19.556 15.877,35.433 35.433,35.433l163.373,0c19.556,0 35.433,-15.877 35.433,-35.433l0,-106.299Z"/><path d="M216.523,35.433c-0,-9.778 -7.939,-17.716 -17.717,-17.716l-163.373,-0c-9.778,-0 -17.716,7.938 -17.716,17.716l-0,106.299c-0,9.778 7.938,17.717 17.716,17.717l163.373,-0c9.778,-0 17.717,-7.939 17.717,-17.717l-0,-106.299Z" style="fill:#fff;"/><g><rect id="path1806" x="134.086" y="47.244" width="52.909" height="94.488" style="fill:#fff;"/><path id="path1808" d="M159.586,69.654l-2.42,0.17l-2.41,0.41l-2.34,0.75l-2.25,1.09l-2.08,1.25l-2.25,1.66l-2.08,2l-1.75,2.25l-1.42,2.42l-1.17,3l-0.831,3.169l-0.499,3.16l-0.17,3.25l0.25,3.25l0.59,3.17l0.91,3.08l1.169,3l1.08,2.17l1.42,2l1.5,1.83l1.83,1.67l1.92,1.41l2.08,1.25l2.25,0.92l2.339,0.67l2.99,0.58l3.09,0.25l3.08,-0.083l3.08,-0.34l3,-0.66l2.34,-0.84l2.16,-1.079l2,-1.42l1.83,-1.67l1.67,-1.83l-8,-8.08l-1.83,1.67l-2.08,1.33l-2.25,1l-2.17,0.58l-2.17,0.17l-2.16,-0.083l-2.169,-0.42l-2.081,-0.75l-1.419,-0.92l-1.25,-1.16l-1.001,-1.34l-0.75,-1.5l-0.41,-1.66l-0.17,-1.67l31.5,0l-0.17,-3.92l-0.421,-3.91l-0.83,-3.83l-1.171,-3.75l-1.079,-2.5l-1.42,-2.25l-1.66,-2.169l-2,-1.83l-2.17,-1.59l-2.08,-1.25l-2.25,-0.91l-2.42,-0.669l-2.42,-0.421l-2.407,-0.075Zm-0.251,10.749l1.66,0l1.67,0.33l1.58,0.589l1.42,0.831l1.33,1.079l1.09,1.25l0.83,1.42l0.58,1.58l0.251,1.67l-19.16,0l0.251,-1.67l0.579,-1.58l0.84,-1.42l1.08,-1.25l1.33,-1.079l1.42,-0.831l1.58,-0.589l1.669,-0.33Z" style="fill:#010001;fill-rule:nonzero;"/></g><g><rect id="path1798" x="82.597" y="47.244" width="51.489" height="94.488" style="fill:#fff;"/><path id="path1800" d="M100.007,101.313l0.669,1.5l1.171,1.84l1.5,1.66l1.75,1.25l2.08,0.84l1.83,0.25l1.92,-0.25l2,-0.84l1.75,-1.25l1.5,-1.66l1.249,-1.84l1.001,-2.66l12,4.5l-0.251,0.5l-1.17,2.75l-1.5,2.499l-1.75,2.25l-2.08,2.08l-2.34,1.75l-2.33,1.25l-2.33,0.92l-2.5,0.75l-2.59,0.41l-2.58,0.17l-2.58,-0.17l-2.5,-0.41l-2.5,-0.75l-2.42,-0.92l-2.25,-1.25l-2.33,-1.75l-2.08,-2.08l-1.839,-2.25l-1.5,-2.499l-1.16,-2.75l-0.17,-0.5l-0.831,-3.34l-0.499,-3.41l-0.17,-3.42l0.17,-3.41l0.499,-3.34l0.831,-3.33l0.17,-0.58l1.16,-2.67l1.5,-2.499l1.839,-2.33l2.08,-2l2.33,-1.84l2.25,-1.16l2.42,-1.001l2.5,-0.669l2.5,-0.5l2.58,-0.17l2.58,0.17l2.59,0.5l2.5,0.669l2.33,1.001l2.33,1.16l2.34,1.84l2.08,2l1.75,2.33l1.5,2.499l1.17,2.67l0.251,0.58l-12,4.42l-1.001,-2.67l-1.249,-1.83l-1.5,-1.59l-1.75,-1.25l-2,-0.83l-1.92,-0.25l-1.83,0.25l-2.08,0.83l-1.75,1.25l-1.5,1.59l-1.171,1.83l-0.669,1.58l-0.5,1.59l-0.25,2.58l-0.161,2.58l0.161,2.67l0.25,2.58l0.5,1.58Z" style="fill:#010001;fill-rule:nonzero;"/></g><g id="I"><rect id="path1654" x="47.188" y="47.244" width="35.409" height="94.488" style="fill:#fff;"/><rect id="path1656" x="58.188" y="51.994" width="13.5" height="66.159" style="fill:#010001;fill-rule:nonzero;"/></g></g></svg>