<?xml version="1.0" encoding="UTF-8" standalone="no"?><!DOCTYPE svg PUBLIC "-//W3C//DTD SVG 1.1//EN" "http://www.w3.org/Graphics/SVG/1.1/DTD/svg11.dtd"><svg width="100%" height="100%" viewBox="0 0 514 454" version="1.1" xmlns="http://www.w3.org/2000/svg" xmlns:xlink="http://www.w3.org/1999/xlink" xml:space="preserve" xmlns:serif="http://www.serif.com/" style="fill-rule:evenodd;clip-rule:evenodd;stroke-linejoin:round;stroke-miterlimit:2;"><g transform="matrix(50,0,0,50,350.907,262.709)"></g><text x="163.285px" y="262.709px" style="font-family:'ArialMT', 'Arial', sans-serif;font-size:50px;">sw=38.4</text><g id="_554-Ford" serif:id="554 Ford"><path d="M227.201,17.004c6.077,-10.522 17.305,-17.004 29.455,-17.004c12.151,0 23.379,6.482 29.456,17.004c54.07,93.625 168.562,291.872 222.642,385.514c6.078,10.524 6.079,23.491 0.003,34.016c-6.076,10.525 -17.306,17.009 -29.459,17.009l-445.283,0c-12.153,0 -23.383,-6.484 -29.459,-17.009c-6.076,-10.525 -6.075,-23.492 0.003,-34.016c54.08,-93.642 168.572,-291.889 222.642,-385.514Z" style="fill:#e31837;"/><path d="M256.621,56.706l202.954,351.484l-405.907,0l202.953,-351.484Z" style="fill:#fff;"/><g><rect id="path1698" x="265.329" y="284.226" width="46.26" height="108.847" style="fill:#fff;"/><path d="M304.585,325.03l-2.201,-0.191c-2.042,-0.191 -3.956,-0.08 -5.742,0.335c-1.787,0.415 -3.35,1.133 -4.69,2.153c-1.34,1.021 -2.392,2.345 -3.158,3.972c-0.766,1.627 -1.148,3.557 -1.148,5.79l-0,28.711l-15.313,0l0,-54.359l15.313,-0l-0,5.646c1.85,-2.616 4.147,-4.53 6.89,-5.742c2.744,-1.212 6.093,-1.595 10.049,-1.149l0,14.834Z" style="fill-rule:nonzero;"/></g><g><rect id="path16981" serif:id="path1698" x="202.742" y="284.226" width="62.587" height="108.847" style="fill:#fff;"/><path d="M259.891,339.282c0,3.797 -0.602,7.323 -1.808,10.578c-1.205,3.254 -2.923,6.057 -5.153,8.407c-2.23,2.351 -4.942,4.204 -8.136,5.56c-3.194,1.356 -6.75,2.034 -10.668,2.034c-3.917,0 -7.473,-0.663 -10.668,-1.989c-3.194,-1.326 -5.921,-3.179 -8.181,-5.56c-2.26,-2.38 -4.008,-5.198 -5.244,-8.452c-1.235,-3.255 -1.853,-6.781 -1.853,-10.578c0,-3.917 0.558,-7.579 1.673,-10.984c1.115,-3.405 2.772,-6.358 4.972,-8.859c2.2,-2.502 4.912,-4.46 8.136,-5.877c3.225,-1.416 6.946,-2.124 11.165,-2.124c4.159,-0 7.85,0.723 11.075,2.169c3.224,1.447 5.921,3.421 8.091,5.922c2.17,2.501 3.812,5.454 4.927,8.86c1.115,3.405 1.672,7.036 1.672,10.893Zm-14.193,0c-0,-2.109 -0.286,-4.083 -0.859,-5.921c-0.572,-1.838 -1.356,-3.451 -2.35,-4.837c-0.995,-1.386 -2.215,-2.486 -3.662,-3.3c-1.446,-0.813 -3.013,-1.22 -4.701,-1.22c-1.748,-0 -3.345,0.407 -4.791,1.22c-1.447,0.814 -2.682,1.914 -3.707,3.3c-1.024,1.386 -1.808,2.999 -2.35,4.837c-0.543,1.838 -0.814,3.812 -0.814,5.921c0,4.159 1.055,7.534 3.164,10.126c2.11,2.591 4.942,3.887 8.498,3.887c3.496,-0 6.298,-1.296 8.408,-3.887c2.109,-2.592 3.164,-5.967 3.164,-10.126Z" style="fill-rule:nonzero;"/></g><g><rect id="path16982" serif:id="path1698" x="311.589" y="284.226" width="64.764" height="108.847" style="fill:#fff;"/><path d="M370.289,365.57l-15.356,-0l0,-2.916c-1.49,1.361 -3.288,2.462 -5.393,3.304c-2.106,0.843 -4.228,1.264 -6.366,1.264c-4.211,-0 -7.937,-0.794 -11.176,-2.381c-3.24,-1.588 -5.961,-3.709 -8.164,-6.366c-2.202,-2.656 -3.887,-5.718 -5.053,-9.184c-1.166,-3.466 -1.75,-7.111 -1.75,-10.933c0,-3.887 0.551,-7.613 1.653,-11.176c1.101,-3.564 2.737,-6.706 4.907,-9.427c2.171,-2.721 4.843,-4.908 8.018,-6.56c3.175,-1.652 6.835,-2.478 10.982,-2.478c2.268,-0 4.471,0.356 6.609,1.069c2.138,0.712 4.049,1.717 5.733,3.012l0,-23.13l15.356,0l-0,75.902Zm-15.258,-20.506l-0,-14.287c-0,-1.231 -0.293,-2.332 -0.879,-3.304c-0.585,-0.972 -1.334,-1.814 -2.245,-2.527c-0.911,-0.712 -1.936,-1.263 -3.075,-1.652c-1.139,-0.388 -2.261,-0.583 -3.366,-0.583c-4.1,0 -7.273,1.442 -9.518,4.325c-2.245,2.883 -3.367,6.592 -3.367,11.128c-0,2.073 0.293,4 0.878,5.782c0.586,1.782 1.416,3.32 2.489,4.616c1.074,1.296 2.392,2.333 3.954,3.11c1.562,0.778 3.319,1.166 5.27,1.166c0.976,0 2.05,-0.162 3.221,-0.486c1.172,-0.323 2.245,-0.809 3.221,-1.457c0.976,-0.648 1.789,-1.458 2.44,-2.43c0.651,-0.972 0.977,-2.106 0.977,-3.401Z" style="fill-rule:nonzero;"/></g><g><rect x="136.89" y="284.226" width="65.852" height="108.847" style="fill:#fff;"/><path d="M200.021,304.614l-34.384,-0l-0,15.238l30.965,0l0,14.36l-30.868,-0l0,31.649l-15.629,0l0,-76.193l49.916,0l0,14.946Z" style="fill-rule:nonzero;"/></g></g></svg>