<?xml version="1.0" encoding="UTF-8" standalone="no"?><!DOCTYPE svg PUBLIC "-//W3C//DTD SVG 1.1//EN" "http://www.w3.org/Graphics/SVG/1.1/DTD/svg11.dtd"><svg width="100%" height="100%" viewBox="0 0 514 454" version="1.1" xmlns="http://www.w3.org/2000/svg" xmlns:xlink="http://www.w3.org/1999/xlink" xml:space="preserve" xmlns:serif="http://www.serif.com/" style="fill-rule:evenodd;clip-rule:evenodd;stroke-linejoin:round;stroke-miterlimit:2;"><g transform="matrix(50,0,0,50,350.88,244.423)"></g><text x="163.258px" y="244.423px" style="font-family:'ArialMT', 'Arial', sans-serif;font-size:50px;">sw=38.4</text><g id="_554A-Flood" serif:id="554A Flood"><path d="M229.215,15.849c5.656,-9.807 16.106,-15.849 27.415,-15.849c11.309,-0 21.759,6.042 27.415,15.849c53.537,92.841 171.425,297.275 224.971,390.132c5.657,9.81 5.658,21.897 0.003,31.708c-5.655,9.81 -16.106,15.854 -27.417,15.854l-449.944,0c-11.311,0 -21.763,-6.044 -27.418,-15.854c-5.655,-9.811 -5.653,-21.898 0.003,-31.708c53.547,-92.857 171.435,-297.291 224.972,-390.132Z" style="fill:#e31837;"/><path d="M256.841,56.693l202.961,351.496l-405.922,-0l202.961,-351.496Z" style="fill:#fff;"/><g><g><rect id="path1754" x="216.275" y="311.433" width="56.565" height="96.756" style="fill:#fff;"/><path id="path1756" d="M243.236,333.705l-2.652,0.164l-2.56,0.431l-2.56,0.768l-2.467,0.942l-2.304,1.269l-2.397,1.793l-2.129,2.14l-1.874,2.304l-1.536,2.641l-1.199,2.735l-0.164,0.511l-0.86,3.41l-0.512,3.502l-0.174,3.492l0.174,3.502l0.512,3.492l0.86,3.327l0.164,0.605l1.199,2.724l1.536,2.56l1.874,2.396l2.129,2.13l2.397,1.792l2.304,1.188l2.467,1.034l2.56,0.757l2.56,0.43l2.652,0.175l2.642,-0.175l2.642,-0.43l2.56,-0.757l2.478,-1.034l2.304,-1.188l2.386,-1.792l2.13,-2.13l1.884,-2.396l1.536,-2.56l1.187,-2.724l0.175,-0.605l0.85,-3.327l0.511,-3.492l0.097,-3.502l-0.097,-3.492l-0.511,-3.502l-0.85,-3.41l-0.175,-0.511l-1.187,-2.735l-1.536,-2.641l-1.884,-2.304l-2.13,-2.14l-2.386,-1.793l-2.304,-1.269l-2.478,-0.942l-2.56,-0.768l-2.642,-0.431l-2.642,-0.164Zm0,11.601l1.956,0.257l2.048,0.85l1.792,1.362l1.536,1.628l1.28,1.874l0.686,1.536l0.43,1.618l0.338,2.734l0.084,2.642l-0.084,2.641l-0.338,2.735l-0.43,1.617l-0.686,1.536l-1.28,1.885l-1.536,1.617l-1.792,1.362l-2.048,0.768l-1.956,0.349l-1.884,-0.349l-2.048,-0.768l-1.874,-1.362l-1.536,-1.617l-1.198,-1.885l-0.676,-1.536l-0.431,-1.617l-0.337,-2.735l-0.174,-2.641l0.174,-2.642l0.337,-2.734l0.431,-1.618l0.676,-1.536l1.198,-1.874l1.536,-1.628l1.874,-1.362l2.048,-0.85l1.884,-0.257Z" style="fill:#010001;fill-rule:nonzero;"/></g><g><rect id="path17541" serif:id="path1754" x="272.839" y="311.433" width="56.565" height="96.756" style="fill:#fff;"/><path id="path17561" serif:id="path1756" d="M299.801,333.705l-2.652,0.164l-2.56,0.431l-2.56,0.768l-2.468,0.942l-2.304,1.269l-2.396,1.793l-2.13,2.14l-1.874,2.304l-1.536,2.641l-1.198,2.735l-0.165,0.511l-0.86,3.41l-0.511,3.502l-0.174,3.492l0.174,3.502l0.511,3.492l0.86,3.327l0.165,0.605l1.198,2.724l1.536,2.56l1.874,2.396l2.13,2.13l2.396,1.792l2.304,1.188l2.468,1.034l2.56,0.757l2.56,0.43l2.652,0.175l2.642,-0.175l2.642,-0.43l2.56,-0.757l2.478,-1.034l2.304,-1.188l2.385,-1.792l2.13,-2.13l1.884,-2.396l1.536,-2.56l1.188,-2.724l0.174,-0.605l0.85,-3.327l0.512,-3.492l0.097,-3.502l-0.097,-3.492l-0.512,-3.502l-0.85,-3.41l-0.174,-0.511l-1.188,-2.735l-1.536,-2.641l-1.884,-2.304l-2.13,-2.14l-2.385,-1.793l-2.304,-1.269l-2.478,-0.942l-2.56,-0.768l-2.642,-0.431l-2.642,-0.164Zm-0,11.601l1.956,0.257l2.048,0.85l1.792,1.362l1.536,1.628l1.28,1.874l0.685,1.536l0.431,1.618l0.337,2.734l0.085,2.642l-0.085,2.641l-0.337,2.735l-0.431,1.617l-0.685,1.536l-1.28,1.885l-1.536,1.617l-1.792,1.362l-2.048,0.768l-1.956,0.349l-1.884,-0.349l-2.048,-0.768l-1.874,-1.362l-1.536,-1.617l-1.199,-1.885l-0.676,-1.536l-0.43,-1.617l-0.338,-2.735l-0.174,-2.641l0.174,-2.642l0.338,-2.734l0.43,-1.618l0.676,-1.536l1.199,-1.874l1.536,-1.628l1.874,-1.362l2.048,-0.85l1.884,-0.257Z" style="fill:#010001;fill-rule:nonzero;"/></g><g><rect id="path1742" x="184.788" y="311.433" width="31.487" height="96.756" style="fill:#fff;"/><path id="path1744" d="M212.353,372.094l-2.56,0.337l-2.56,0.097l-0.942,-0.097l-0.768,-0.42l-0.676,-0.685l-0.431,-0.768l-0.174,-0.942l0,-53.319l-13.219,-0l-0,58.694l0.164,1.792l0.512,1.71l0.768,1.618l1.024,1.536l1.28,1.28l1.454,1.025l1.71,0.685l1.7,0.512l1.792,0.174l4.178,-0.348l4.096,-0.512l4.096,-0.768l-1.444,-11.601Z" style="fill:#010001;fill-rule:nonzero;"/></g><g><rect id="path1818" x="329.404" y="311.433" width="58.531" height="96.756" style="fill:#fff;"/><path id="path1820" d="M367.455,316.297l0,21.667l-2.212,-1.454l-2.304,-1.187l-2.478,-0.86l-2.467,-0.594l-2.652,-0.256l-2.56,0.096l-2.56,0.338l-2.56,0.676l-2.386,0.942l-2.304,1.28l-2.13,1.454l-2.181,2.089l-1.751,2.263l-1.28,2.427l-1.362,3.543l-0.85,3.41l-0.594,3.502l-0.256,3.502l0.164,3.491l0.431,3.502l0.85,3.41l1.116,3.328l1.27,2.56l1.536,2.304l1.884,2.13l2.13,1.792l2.386,1.454l2.816,1.106l2.99,0.768l2.99,0.348l2.98,-0l2.99,-0.431l2.897,-0.768l2.048,-0.768l1.792,-1.198l1.618,-1.444l0,3.328l13.23,-0l0,-67.747l-13.231,-0.003Zm-10.147,29.009l1.955,0.257l1.966,0.594l1.71,0.942l1.618,1.187l1.106,1.28l0.86,1.373l0.594,1.536l0.337,1.699l-0,10.414l-0.163,1.28l-0.349,1.28l-0.593,1.106l-0.768,1.105l-1.362,1.454l-1.536,1.199l-1.71,0.85l-1.874,0.594l-1.966,0.256l-1.956,-0.164l-1.884,-0.431l-1.536,-0.594l-1.444,-0.86l-1.199,-1.105l-1.024,-1.28l-0.768,-1.454l-0.85,-2.56l-0.431,-2.724l-0.256,-2.642l0.174,-2.734l0.42,-2.642l0.768,-2.652l0.768,-1.699l0.86,-1.28l1.187,-1.117l1.628,-1.105l1.792,-0.768l1.956,-0.512l1.97,-0.083Z" style="fill:#010001;fill-rule:nonzero;"/></g><g id="F"><rect id="path1662" x="125.325" y="311.433" width="59.462" height="96.756" style="fill:#fff;"/><path id="path1664" d="M150.402,383.951l0,-28.067l27.73,0l-0,-12.544l-27.73,0l0,-13.905l30.638,-0l-0,-13.138l-44.451,-0l-0,67.654l13.813,0Z" style="fill:#010001;fill-rule:nonzero;"/></g></g></g></svg>