<?xml version="1.0" encoding="UTF-8" standalone="no"?><!DOCTYPE svg PUBLIC "-//W3C//DTD SVG 1.1//EN" "http://www.w3.org/Graphics/SVG/1.1/DTD/svg11.dtd"><svg width="100%" height="100%" viewBox="0 0 514 454" version="1.1" xmlns="http://www.w3.org/2000/svg" xmlns:xlink="http://www.w3.org/1999/xlink" xml:space="preserve" xmlns:serif="http://www.serif.com/" style="fill-rule:evenodd;clip-rule:evenodd;stroke-linejoin:round;stroke-miterlimit:2;"><g transform="matrix(50,0,0,50,350.88,262.709)"></g><text x="163.258px" y="262.709px" style="font-family:'ArialMT', 'Arial', sans-serif;font-size:50px;">sw=38.4</text><g id="_554B-Gate" serif:id="554B Gate"><path d="M229.215,15.849c5.656,-9.807 16.106,-15.849 27.415,-15.849c11.309,-0 21.759,6.042 27.415,15.849c53.537,92.841 171.425,297.275 224.971,390.132c5.657,9.81 5.658,21.897 0.003,31.708c-5.655,9.81 -16.106,15.854 -27.417,15.854l-449.944,0c-11.311,0 -21.763,-6.044 -27.418,-15.854c-5.655,-9.811 -5.653,-21.898 0.003,-31.708c53.547,-92.857 171.435,-297.291 224.972,-390.132Z" style="fill:#e31837;"/><path d="M256.841,56.693l202.961,351.496l-405.922,-0l202.961,-351.496Z" style="fill:#fff;"/><g><rect id="path1806" x="323.205" y="284.22" width="60.951" height="108.85" style="fill:#fff;"/><path id="path1808" d="M352.581,310.036l-2.788,0.196l-2.776,0.472l-2.696,0.864l-2.592,1.256l-2.396,1.44l-2.592,1.912l-2.396,2.304l-2.016,2.592l-1.636,2.788l-1.348,3.456l-0.957,3.652l-0.575,3.64l-0.196,3.744l0.288,3.744l0.681,3.652l1.047,3.548l1.347,3.456l1.244,2.499l1.636,2.304l1.728,2.109l2.108,1.923l2.212,1.625l2.396,1.44l2.592,1.06l2.695,0.771l3.445,0.668l3.559,0.289l3.548,-0.096l3.548,-0.392l3.456,-0.76l2.696,-0.968l2.488,-1.243l2.304,-1.636l2.108,-1.924l1.924,-2.108l-9.216,-9.308l-2.108,1.924l-2.396,1.532l-2.592,1.153l-2.5,0.668l-2.499,0.196l-2.489,-0.096l-2.499,-0.484l-2.397,-0.864l-1.635,-1.06l-1.44,-1.336l-1.153,-1.544l-0.864,-1.728l-0.472,-1.912l-0.196,-1.924l36.288,0l-0.196,-4.516l-0.485,-4.504l-0.956,-4.412l-1.349,-4.32l-1.243,-2.88l-1.636,-2.592l-1.912,-2.5l-2.304,-2.108l-2.5,-1.831l-2.396,-1.44l-2.592,-1.048l-2.788,-0.771l-2.788,-0.485l-2.773,-0.087Zm-0.289,12.384l1.912,0l1.924,0.38l1.82,0.679l1.636,0.956l1.532,1.244l1.256,1.44l0.957,1.636l0.668,1.82l0.288,1.923l-22.072,0l0.289,-1.923l0.668,-1.82l0.967,-1.636l1.244,-1.44l1.532,-1.244l1.636,-0.956l1.82,-0.679l1.923,-0.38Z" style="fill:#010001;fill-rule:nonzero;"/></g><g><rect id="path1698" x="215.018" y="284.22" width="61.435" height="108.85" style="fill:#fff;"/><path id="path1700" d="M243.622,309.276l-3.549,0.185l-3.455,0.668l-4.32,1.256l-4.228,1.624l-4.032,1.924l-3.928,2.212l7.292,11.128l2.972,-1.82l3.076,-1.44l3.26,-1.153l3.363,-0.864l3.456,-0.484l1.913,-0.095l2.016,0.379l1.82,0.679l1.06,0.668l0.864,0.957l0.575,1.06l0.196,1.243l0,3.456l-4.804,0.196l-4.7,0.576l-4.7,0.864l-4.608,1.244l-4.515,1.635l-1.913,1.153l-1.831,1.44l-1.636,1.728l-1.336,1.82l-1.06,2.108l-0.761,2.212l-0.392,2.304l-0.095,2.304l0.196,2.304l0.565,2.211l0.875,2.201l1.152,2.016l1.428,1.831l1.636,1.625l1.924,1.348l2.776,1.336l2.984,1.06l3.168,0.679l3.168,0.38l3.168,-0.096l3.064,-0.392l3.076,-0.76l1.636,-0.772l1.532,-0.956l1.243,-1.153l1.06,-1.44l1.153,1.533l1.44,1.152l1.636,0.864l2.972,1.152l3.064,0.669l3.168,0.379l5.287,-11.612l-1.255,0l-1.244,-0.184l-1.244,-0.575l-0.967,-0.772l-0.761,-1.06l-0.484,-1.152l-0.196,-1.336l-0,-25.724l-0.185,-2.119l-0.484,-2.109l-0.864,-1.923l-1.06,-1.82l-1.44,-1.728l-1.625,-1.349l-1.831,-1.152l-2.592,-1.14l-2.776,-0.968l-3.364,-0.956l-3.548,-0.485l-3.451,-0.174Zm8.351,32.336l0,7.776l-0.196,1.44l-0.668,1.348l-0.864,1.153l-1.256,0.864l-1.336,0.484l-2.684,0.38l-2.695,-0l-2.684,-0.38l-1.349,-0.484l-1.152,-0.864l-0.957,-1.06l-0.668,-1.244l-0.392,-1.244l0,-1.348l0.392,-1.348l0.668,-1.049l0.957,-0.968l1.152,-0.668l4.516,-1.152l2.626,-0.542l1.982,-0.415l4.608,-0.679Z" style="fill:#010001;fill-rule:nonzero;"/></g><g><rect id="path1670" x="276.453" y="284.22" width="46.752" height="108.85" style="fill:#fff;"/><path id="path1672" d="M311.016,354.003l2.777,-0.472l2.695,-0.773l3.261,12.385l-4.032,1.153l-4.125,0.76l-4.136,0.392l-4.217,0.095l-4.136,-0.38l-2.016,-0.392l-2.005,-0.863l-1.728,-1.153l-1.543,-1.44l-1.245,-1.624l-0.865,-1.924l-0.576,-2.016l-0.196,-2.109l-0,-32.259l-8.733,0l-0,-12.385l8.733,0l-0,-16.982l14.885,-4.32l-0,21.302l13.825,0l0,12.385l-13.825,0l-0,26.499l0.095,1.152l0.484,1.059l0.668,0.865l0.956,0.669l1.06,0.483l1.059,0.096l2.88,-0.203Z" style="fill:#010001;fill-rule:nonzero;"/></g><g id="G"><rect id="path1626" x="129.103" y="284.22" width="85.915" height="108.85" style="fill:#fff;"/><path id="path1628" d="M188.142,311.004l-1.831,-2.304l-2.108,-2.12l-2.397,-1.716l-2.211,-0.864l-2.201,-0.68l-2.304,-0.38l-2.304,-0.196l-2.407,0.196l-2.396,0.38l-2.304,0.771l-2.212,0.957l-2.016,1.243l-1.82,1.544l-1.636,1.82l-1.336,1.924l-1.06,2.2l-0.864,2.212l-0.864,3.836l-0.576,4.032l-0.095,3.94l0.095,4.032l0.576,3.928l0.864,3.848l0.864,2.304l1.06,2.108l1.336,1.923l1.636,1.82l1.82,1.533l2.016,1.256l2.212,1.047l2.304,0.681l2.396,0.379l2.407,0.196l2.592,-0.196l2.592,-0.484l2.489,-0.864l2.396,-1.336l2.119,-1.636l1.821,-1.924l1.532,-2.2l1.06,-2.88l0.668,-2.88l0.108,-3.076l-19.203,-0l-0,-13.34l33.407,0l0,43.867l-14.204,0l0,-5.471l-2.212,2.108l-2.591,1.831l-2.685,1.44l-2.983,1.048l-2.972,0.668l-3.065,0.196l-3.075,0l-3.836,-0.38l-3.744,-0.771l-3.652,-1.152l-3.548,-1.533l-3.272,-1.923l-3.064,-2.304l-2.88,-2.972l-2.5,-3.168l-2.304,-3.456l-1.82,-3.652l-1.44,-3.836l-1.152,-3.94l-0.668,-4.02l-0.289,-4.032l0,-5.472l0.289,-4.136l0.668,-4.032l1.152,-3.928l1.44,-3.848l1.82,-3.64l2.304,-3.456l2.5,-3.168l2.88,-2.88l3.064,-2.304l3.272,-2.016l3.548,-1.532l3.652,-1.152l3.744,-0.772l3.836,-0.379l4.32,-0l3.836,0.379l3.836,0.772l3.652,1.152l3.455,1.532l3.364,2.016l3.064,2.304l2.881,2.88l2.499,3.26l2.592,4.608l-14.595,6.912l-1.342,-2.682Z" style="fill:#010001;fill-rule:nonzero;"/></g></g></svg>