<?xml version="1.0" encoding="UTF-8" standalone="no"?><!DOCTYPE svg PUBLIC "-//W3C//DTD SVG 1.1//EN" "http://www.w3.org/Graphics/SVG/1.1/DTD/svg11.dtd"><svg width="100%" height="100%" viewBox="0 0 514 454" version="1.1" xmlns="http://www.w3.org/2000/svg" xmlns:xlink="http://www.w3.org/1999/xlink" xml:space="preserve" xmlns:serif="http://www.serif.com/" style="fill-rule:evenodd;clip-rule:evenodd;stroke-linejoin:round;stroke-miterlimit:2;"><g transform="matrix(50,0,0,50,350.88,262.709)"></g><text x="163.258px" y="262.709px" style="font-family:'ArialMT', 'Arial', sans-serif;font-size:50px;">sw=38.4</text><g id="_554C-Gates" serif:id="554C Gates"><path d="M229.215,15.849c5.656,-9.807 16.106,-15.849 27.415,-15.849c11.309,-0 21.759,6.042 27.415,15.849c53.537,92.841 171.425,297.275 224.971,390.132c5.657,9.81 5.658,21.897 0.003,31.708c-5.655,9.81 -16.106,15.854 -27.417,15.854l-449.944,0c-11.311,0 -21.763,-6.044 -27.418,-15.854c-5.655,-9.811 -5.653,-21.898 0.003,-31.708c53.547,-92.857 171.435,-297.291 224.972,-390.132Z" style="fill:#e31837;"/><path d="M256.841,56.693l202.961,351.496l-405.922,-0l202.961,-351.496Z" style="fill:#fff;"/><g><g><rect id="path1806" x="291.144" y="296.315" width="54.179" height="96.756" style="fill:#fff;"/><path id="path1808" d="M317.255,319.262l-2.478,0.174l-2.467,0.42l-2.396,0.768l-2.304,1.116l-2.13,1.28l-2.304,1.7l-2.13,2.048l-1.792,2.304l-1.454,2.478l-1.199,3.072l-0.85,3.246l-0.511,3.236l-0.175,3.328l0.257,3.328l0.604,3.246l0.932,3.154l1.197,3.072l1.106,2.222l1.454,2.048l1.536,1.874l1.873,1.71l1.967,1.443l2.129,1.28l2.304,0.943l2.396,0.685l3.062,0.594l3.164,0.257l3.154,-0.085l3.154,-0.348l3.072,-0.677l2.396,-0.859l2.212,-1.106l2.048,-1.454l1.874,-1.71l1.71,-1.874l-8.192,-8.274l-1.874,1.71l-2.13,1.362l-2.304,1.025l-2.222,0.594l-2.222,0.174l-2.212,-0.085l-2.222,-0.431l-2.13,-0.768l-1.454,-0.942l-1.28,-1.187l-1.024,-1.373l-0.768,-1.535l-0.42,-1.7l-0.174,-1.71l32.256,-0l-0.175,-4.014l-0.43,-4.004l-0.85,-3.922l-1.199,-3.84l-1.105,-2.56l-1.454,-2.304l-1.7,-2.222l-2.048,-1.874l-2.222,-1.628l-2.13,-1.28l-2.304,-0.931l-2.478,-0.686l-2.478,-0.43l-2.466,-0.078Zm-0.256,11.008l1.7,0l1.71,0.338l1.618,0.603l1.454,0.85l1.362,1.106l1.116,1.28l0.85,1.454l0.594,1.618l0.257,1.71l-19.62,-0l0.256,-1.71l0.594,-1.618l0.86,-1.454l1.106,-1.28l1.362,-1.106l1.454,-0.85l1.618,-0.603l1.709,-0.338Z" style="fill:#010001;fill-rule:nonzero;"/></g><g><rect id="path1698" x="194.977" y="296.315" width="54.609" height="96.756" style="fill:#fff;"/><path id="path1700" d="M220.403,318.586l-3.154,0.165l-3.072,0.594l-3.84,1.116l-3.758,1.444l-3.584,1.71l-3.492,1.966l6.482,9.892l2.642,-1.618l2.734,-1.28l2.898,-1.025l2.99,-0.768l3.072,-0.43l1.7,-0.085l1.792,0.338l1.618,0.603l0.942,0.594l0.768,0.85l0.511,0.942l0.175,1.106l-0,3.072l-4.27,0.174l-4.178,0.512l-4.178,0.768l-4.096,1.105l-4.014,1.454l-1.7,1.024l-1.628,1.28l-1.454,1.536l-1.188,1.618l-0.942,1.874l-0.676,1.966l-0.348,2.048l-0.085,2.048l0.174,2.048l0.502,1.966l0.778,1.956l1.024,1.792l1.27,1.628l1.454,1.444l1.71,1.198l2.468,1.188l2.652,0.942l2.816,0.604l2.816,0.337l2.816,-0.084l2.724,-0.349l2.734,-0.676l1.454,-0.686l1.362,-0.85l1.105,-1.024l0.942,-1.28l1.025,1.362l1.279,1.024l1.455,0.768l2.641,1.024l2.724,0.594l2.816,0.338l4.7,-10.322l-1.116,-0l-1.106,-0.163l-1.105,-0.512l-0.86,-0.686l-0.676,-0.942l-0.431,-1.024l-0.174,-1.188l0,-22.865l-0.164,-1.885l-0.431,-1.873l-0.768,-1.711l-0.942,-1.617l-1.28,-1.536l-1.444,-1.199l-1.628,-1.024l-2.304,-1.014l-2.467,-0.86l-2.99,-0.85l-3.154,-0.431l-3.068,-0.155Zm7.424,28.744l-0,6.912l-0.174,1.279l-0.594,1.199l-0.768,1.024l-1.117,0.768l-1.187,0.431l-2.386,0.337l-2.396,0l-2.386,-0.337l-1.199,-0.431l-1.024,-0.768l-0.85,-0.942l-0.594,-1.105l-0.348,-1.106l-0,-1.198l0.348,-1.199l0.594,-0.932l0.85,-0.86l1.024,-0.594l4.014,-1.024l2.335,-0.482l1.761,-0.369l4.097,-0.603Z" style="fill:#010001;fill-rule:nonzero;"/></g><g><rect id="path1670" x="249.586" y="296.315" width="41.558" height="96.756" style="fill:#fff;"/><path id="path1672" d="M280.309,358.344l2.468,-0.42l2.397,-0.686l2.898,11.009l-3.585,1.024l-3.666,0.675l-3.676,0.349l-3.749,0.085l-3.676,-0.338l-1.792,-0.349l-1.782,-0.767l-1.536,-1.024l-1.372,-1.281l-1.107,-1.444l-0.769,-1.71l-0.512,-1.792l-0.174,-1.874l-0,-28.675l-7.763,0l0,-11.009l7.763,0l-0,-15.095l13.231,-3.84l0,18.935l12.289,0l0,11.009l-12.289,0l0,23.554l0.085,1.025l0.43,0.941l0.594,0.769l0.85,0.595l0.942,0.429l0.942,0.085l2.559,-0.18Z" style="fill:#010001;fill-rule:nonzero;"/></g><g><rect id="path1674" x="345.753" y="296.315" width="49.32" height="96.756" style="fill:#fff;"/><path id="path1676" d="M358.81,354.34l2.048,1.618l2.212,1.28l2.397,1.024l2.468,0.687l2.56,0.337l2.304,0l1.628,-0.594l1.362,-0.942l0.768,-0.767l0.513,-1.025l0.082,-1.106l-0.256,-1.116l-0.594,-0.932l-0.85,-0.687l-3.328,-1.28l-3.421,-0.686l-3.072,-0.512l-4.178,-1.025l-2.049,-0.675l-1.874,-1.024l-1.71,-1.28l-1.536,-1.455l-1.28,-1.618l-1.106,-1.792l-0.686,-2.14l-0.42,-2.212l-0,-2.223l0.256,-2.212l0.594,-2.222l0.942,-1.966l1.28,-1.874l1.444,-1.618l1.629,-1.454l1.874,-1.199l1.956,-0.932l2.14,-0.604l3.072,-0.676l3.072,-0.348l3.155,-0l3.154,0.255l3.164,0.604l2.561,0.768l2.468,1.024l2.396,1.362l2.294,1.454l2.048,1.792l-8.182,8.695l-2.305,-1.874l-2.56,-1.536l-2.734,-1.188l-1.536,-0.43l-1.618,-0.255l-1.629,-0l-1.7,0.43l-1.536,0.767l-1.372,1.024l-0.676,0.85l-0.348,0.942l0.092,1.106l0.338,0.933l0.594,0.86l1.024,0.595l5.632,1.106l5.121,0.687l1.966,0.337l0.083,0l1.966,0.687l1.874,0.85l1.884,1.116l1.7,1.444l1.454,1.628l1.188,1.792l0.861,1.956l0.594,2.141l0.338,2.13l-0.085,2.222l-0.338,2.13l-0.686,2.13l-1.107,2.14l-1.372,1.956l-1.618,1.793l-1.874,1.536l-2.048,1.198l-3.328,1.024l-3.411,0.676l-3.502,0.349l-3.41,-0l-3.503,-0.349l-3.41,-0.676l-3.072,-0.941l-2.99,-1.281l-2.725,-1.618l-2.56,-1.884l-2.396,-2.212l9.647,-8.879l1.794,1.884Z" style="fill:#010001;fill-rule:nonzero;"/></g><g id="G"><rect id="path1626" x="118.609" y="296.315" width="76.368" height="96.756" style="fill:#fff;"/><path id="path1628" d="M171.088,320.122l-1.628,-2.047l-1.874,-1.885l-2.13,-1.525l-1.966,-0.768l-1.956,-0.605l-2.048,-0.337l-2.048,-0.175l-2.14,0.175l-2.13,0.337l-2.048,0.686l-1.966,0.85l-1.792,1.105l-1.617,1.373l-1.455,1.617l-1.187,1.71l-0.942,1.956l-0.768,1.966l-0.768,3.41l-0.512,3.584l-0.085,3.502l0.085,3.584l0.512,3.492l0.768,3.42l0.768,2.048l0.942,1.874l1.187,1.71l1.455,1.618l1.617,1.362l1.792,1.116l1.966,0.931l2.048,0.605l2.13,0.337l2.14,0.175l2.304,-0.175l2.304,-0.43l2.212,-0.768l2.13,-1.188l1.884,-1.454l1.618,-1.71l1.362,-1.956l0.942,-2.56l0.594,-2.56l0.097,-2.734l-17.07,0l-0,-11.857l29.695,-0l0,38.993l-12.626,-0l0,-4.864l-1.966,1.874l-2.303,1.628l-2.386,1.28l-2.652,0.931l-2.642,0.594l-2.724,0.174l-2.734,0l-3.41,-0.337l-3.328,-0.686l-3.246,-1.024l-3.154,-1.362l-2.908,-1.71l-2.724,-2.048l-2.56,-2.642l-2.222,-2.816l-2.048,-3.072l-1.618,-3.246l-1.28,-3.41l-1.024,-3.502l-0.594,-3.574l-0.256,-3.583l-0,-4.864l0.256,-3.677l0.594,-3.583l1.024,-3.492l1.28,-3.42l1.618,-3.236l2.048,-3.072l2.222,-2.816l2.56,-2.56l2.724,-2.048l2.908,-1.792l3.154,-1.362l3.246,-1.024l3.328,-0.686l3.41,-0.337l3.84,-0l3.41,0.337l3.409,0.686l3.247,1.024l3.071,1.362l2.99,1.792l2.724,2.048l2.56,2.56l2.222,2.898l2.304,4.096l-12.974,6.144l-1.192,-2.385Z" style="fill:#010001;fill-rule:nonzero;"/></g></g></g></svg>