<?xml version="1.0" encoding="UTF-8" standalone="no"?><!DOCTYPE svg PUBLIC "-//W3C//DTD SVG 1.1//EN" "http://www.w3.org/Graphics/SVG/1.1/DTD/svg11.dtd"><svg width="100%" height="100%" viewBox="0 0 514 454" version="1.1" xmlns="http://www.w3.org/2000/svg" xmlns:xlink="http://www.w3.org/1999/xlink" xml:space="preserve" xmlns:serif="http://www.serif.com/" style="fill-rule:evenodd;clip-rule:evenodd;stroke-linejoin:round;stroke-miterlimit:2;"><g transform="matrix(50,0,0,50,350.88,262.709)"></g><text x="163.258px" y="262.709px" style="font-family:'ArialMT', 'Arial', sans-serif;font-size:50px;">sw=38.4</text><g id="_555-Quayside-or-Riverbank" serif:id="555 Quayside or Riverbank"><path d="M227.178,17.004c6.076,-10.522 17.302,-17.004 29.452,-17.004c12.149,0 23.376,6.482 29.452,17.004c54.065,93.625 168.545,291.872 222.619,385.514c6.077,10.524 6.079,23.491 0.003,34.016c-6.075,10.525 -17.303,17.009 -29.455,17.009l-445.238,0c-12.152,0 -23.38,-6.484 -29.455,-17.009c-6.076,-10.525 -6.074,-23.492 0.003,-34.016c54.074,-93.642 168.554,-291.889 222.619,-385.514Z" style="fill:#e31837;"/><path d="M256.665,56.708l202.961,351.496l-405.922,-0l202.961,-351.496Z" style="fill:#fff;"/><path d="M232.704,240.266l8.079,-0l-0,84.795l1.702,-1.207l1.792,-1.118l1.837,-0.939l1.971,-0.805l2.016,-0.627l2.017,-0.447l2.105,-0.268l2.106,-0.134l2.106,0.044l2.06,0.269l2.061,0.402l2.016,0.537l1.972,0.76l1.926,0.895l1.792,1.028l1.747,1.208l1.613,1.342l1.479,1.475l1.389,1.566l1.075,1.207l1.165,1.074l1.299,0.939l1.389,0.805l1.478,0.671l1.523,0.492l1.569,0.358l1.612,0.134l1.613,-0l1.568,-0.134l1.613,-0.358l1.523,-0.492l1.434,-0.671l1.389,-0.805l1.299,-0.939l1.21,-1.074l1.075,-1.207l1.344,-1.566l1.479,-1.431l1.568,-1.341l1.702,-1.163l1.792,-1.074l1.882,-0.894l1.926,-0.716l1.972,-0.581l2.06,-0.402l2.016,-0.269l2.106,-0.089l2.061,0.089l2.061,0.269l2.016,0.402l1.971,0.581l1.927,0.716l1.881,0.894l1.792,1.074l1.703,1.163l1.568,1.341l1.478,1.431l1.344,1.566l1.076,1.207l1.209,1.074l1.3,0.939l1.388,0.805l1.434,0.671l1.568,0.492l1.568,0.358l1.568,0.134l1.613,-0l1.613,-0.134l1.568,-0.358l1.523,-0.492l1.479,-0.671l1.389,-0.805l1.299,-0.939l1.165,-1.074l2.509,-2.817l1.523,-1.521l1.657,-1.342l1.793,-1.207l1.881,-1.073l1.971,-0.895l2.017,-0.715l2.06,-0.582l2.15,-0.358l2.106,-0.179l2.151,-0.044l2.151,0.179l2.15,0.357l2.06,0.537l2.062,0.716l12.499,21.556l-1.926,-0.894l-1.793,-1.029l-1.702,-1.207l-1.613,-1.342l-1.523,-1.431l-1.344,-1.565l-1.075,-1.208l-1.21,-1.073l-1.299,-0.984l-1.389,-0.805l-1.434,-0.626l-1.523,-0.537l-1.613,-0.313l-1.568,-0.179l-1.612,-0l-1.613,0.179l-1.569,0.313l-1.523,0.537l-1.478,0.626l-1.389,0.805l-1.299,0.984l-1.165,1.073l-1.075,1.208l-1.344,1.52l-1.479,1.476l-1.613,1.297l-1.702,1.208l-1.747,1.028l-1.882,0.895l-1.926,0.76l-2.016,0.581l-2.017,0.403l-2.06,0.268l-2.061,0.09l-2.061,-0.09l-2.061,-0.268l-2.016,-0.403l-1.971,-0.581l-1.972,-0.76l-1.837,-0.895l-1.792,-1.028l-1.702,-1.208l-1.568,-1.297l-1.479,-1.476l-1.388,-1.52l-1.076,-1.208l-1.164,-1.073l-1.3,-0.984l-1.389,-0.805l-1.478,-0.626l-1.523,-0.537l-1.568,-0.313l-1.613,-0.179l-1.568,-0l-1.613,0.179l-1.568,0.313l-1.523,0.537l-1.479,0.626l-1.389,0.805l-1.299,0.984l-1.165,1.073l-1.075,1.208l-1.344,1.52l-1.523,1.476l-1.568,1.297l-1.703,1.208l-1.792,1.028l-1.837,0.895l-1.971,0.76l-1.971,0.581l-2.016,0.403l-2.061,0.268l-2.061,0.09l-2.061,-0.09l-2.061,-0.268l-2.016,-0.403l-2.016,-0.581l-1.927,-0.76l-1.836,-0.895l-1.792,-1.028l-1.703,-1.208l-1.613,-1.297l-1.478,-1.476l-1.344,-1.52l-1.075,-1.208l-1.165,-1.073l-1.3,-0.984l-1.388,-0.805l-1.479,-0.626l-1.523,-0.537l-1.568,-0.313l-1.613,-0.179l-1.613,-0l-1.568,0.179l-1.568,0.313l-1.568,0.537l-1.434,0.626l-1.389,0.805l-1.299,0.984l-1.209,1.073l-1.076,1.208l-1.209,1.386l-1.3,1.342l-1.433,1.207l-0,9.839l1.702,-1.252l1.792,-1.073l1.837,-0.984l1.971,-0.76l2.016,-0.627l2.017,-0.447l2.105,-0.313l2.106,-0.089l2.106,0.044l2.06,0.224l2.061,0.403l2.016,0.581l1.972,0.715l1.926,0.895l1.792,1.073l1.747,1.208l1.613,1.297l1.479,1.476l1.389,1.61l1.075,1.163l1.165,1.073l1.299,0.984l1.389,0.805l1.478,0.626l1.523,0.537l1.569,0.313l1.612,0.179l1.613,-0l1.568,-0.179l1.613,-0.313l1.523,-0.537l1.434,-0.626l1.389,-0.805l1.299,-0.984l1.21,-1.073l1.075,-1.163l1.344,-1.566l1.479,-1.475l1.568,-1.297l1.702,-1.208l1.792,-1.029l1.882,-0.894l1.926,-0.76l1.972,-0.582l2.06,-0.402l2.016,-0.269l2.106,-0.044l2.061,0.044l2.061,0.269l2.016,0.402l1.971,0.582l1.927,0.76l1.881,0.894l1.792,1.029l1.703,1.208l1.568,1.297l1.478,1.475l1.344,1.566l1.076,1.163l1.209,1.073l1.3,0.984l1.388,0.805l1.434,0.626l1.568,0.537l1.568,0.313l1.568,0.179l1.613,-0l1.613,-0.179l1.568,-0.313l1.523,-0.537l1.479,-0.626l1.389,-0.805l1.299,-0.984l1.165,-1.073l1.075,-1.163l1.344,-1.566l1.478,-1.475l1.613,-1.297l1.703,-1.208l1.792,-1.029l1.837,-0.894l1.926,-0.76l2.015,-0.582l2.017,-0.402l2.061,-0.269l2.06,-0.044l2.062,0.044l2.061,0.269l2.015,0.402l1.971,0.582l1.972,0.76l1.837,0.894l1.792,1.029l1.703,1.208l1.567,1.297l1.479,1.475l1.389,1.566l1.075,1.207l1.21,1.074l1.298,0.939l1.389,0.805l1.48,0.671l1.523,0.492l1.612,0.313l1.614,0.179l5.6,9.705l-2.106,0.313l-2.151,0.134l-2.106,-0.045l-2.15,-0.223l-2.061,-0.358l-2.06,-0.582l-2.016,-0.715l-1.928,-0.895l-1.836,-1.073l-1.747,-1.208l-1.658,-1.341l-1.524,-1.476l-1.388,-1.61l-1.075,-1.208l-1.21,-1.073l-1.299,-0.939l-1.389,-0.805l-1.434,-0.671l-1.523,-0.492l-1.613,-0.313l-1.568,-0.179l-1.612,-0l-1.613,0.179l-1.569,0.313l-1.523,0.492l-1.478,0.671l-1.389,0.805l-1.299,0.939l-1.165,1.073l-1.075,1.208l-1.344,1.565l-1.479,1.431l-1.613,1.342l-1.702,1.163l-1.747,1.073l-1.882,0.895l-1.926,0.715l-2.016,0.582l-2.017,0.447l-2.06,0.223l-2.061,0.09l-2.061,-0.09l-2.061,-0.223l-2.016,-0.447l-1.971,-0.582l-1.972,-0.715l-1.837,-0.895l-1.792,-1.073l-1.702,-1.163l-1.568,-1.342l-1.479,-1.431l-1.388,-1.565l-1.076,-1.208l-1.164,-1.073l-1.3,-0.939l-1.389,-0.805l-1.478,-0.671l-1.523,-0.492l-1.568,-0.313l-1.613,-0.179l-1.568,-0l-1.613,0.179l-1.568,0.313l-1.523,0.492l-1.479,0.671l-1.389,0.805l-1.299,0.939l-1.165,1.073l-1.075,1.208l-1.344,1.565l-1.523,1.431l-1.568,1.342l-1.703,1.163l-1.792,1.073l-1.837,0.895l-1.971,0.715l-1.971,0.582l-2.016,0.447l-2.061,0.223l-2.061,0.09l-2.061,-0.09l-2.061,-0.223l-2.016,-0.447l-2.016,-0.582l-1.927,-0.715l-1.836,-0.895l-1.792,-1.073l-1.703,-1.163l-1.613,-1.342l-1.478,-1.431l-1.344,-1.565l-1.075,-1.208l-1.165,-1.073l-1.3,-0.939l-1.388,-0.805l-1.479,-0.671l-1.523,-0.492l-1.568,-0.313l-1.613,-0.179l-1.613,-0l-1.568,0.179l-1.568,0.313l-1.568,0.492l-1.434,0.671l-1.389,0.805l-1.299,0.939l-1.209,1.073l-1.076,1.208l-1.209,1.431l-1.3,1.297l-1.433,1.252l-0,9.795l1.702,-1.208l1.792,-1.118l1.837,-0.939l1.971,-0.805l2.016,-0.626l2.017,-0.448l2.105,-0.268l2.106,-0.134l2.106,0.045l2.06,0.268l2.061,0.402l2.016,0.537l1.972,0.76l1.926,0.895l1.792,1.029l1.747,1.207l1.613,1.342l1.479,1.476l1.389,1.565l1.075,1.208l1.165,1.073l1.299,0.939l1.389,0.805l1.478,0.671l1.523,0.492l1.569,0.358l1.612,0.134l1.613,-0l1.568,-0.134l1.613,-0.358l1.523,-0.492l1.434,-0.671l1.389,-0.805l1.299,-0.939l1.21,-1.073l1.075,-1.208l1.344,-1.565l1.479,-1.431l1.568,-1.342l1.702,-1.163l1.792,-1.029l1.882,-0.939l1.926,-0.715l1.972,-0.582l2.06,-0.402l2.016,-0.269l2.106,-0.089l2.061,0.089l2.061,0.269l2.016,0.402l1.971,0.582l1.927,0.715l1.881,0.939l1.792,1.029l1.703,1.163l1.568,1.342l1.478,1.431l1.344,1.565l1.076,1.208l1.209,1.073l1.3,0.939l1.388,0.805l1.434,0.671l1.568,0.492l1.568,0.358l1.568,0.134l1.613,-0l1.613,-0.134l1.568,-0.358l1.523,-0.492l1.479,-0.671l1.389,-0.805l1.299,-0.939l1.165,-1.073l1.075,-1.208l1.344,-1.565l1.478,-1.431l1.613,-1.342l1.703,-1.163l1.792,-1.029l1.837,-0.939l1.926,-0.715l2.015,-0.582l2.017,-0.402l2.061,-0.269l2.06,-0.089l2.062,0.089l2.061,0.269l2.015,0.402l1.971,0.582l1.972,0.715l1.837,0.939l1.792,1.029l1.703,1.163l1.567,1.342l1.479,1.431l1.389,1.565l1.031,1.208l1.209,1.073l1.255,0.939l1.388,0.805l1.433,0.626l1.524,0.537l1.568,0.313l1.568,0.179l1.613,0.045l1.568,-0.179l1.568,-0.313l1.523,-0.492l1.479,-0.626l1.389,-0.805l1.299,-0.895l1.164,-1.073l5.198,8.944l-1.703,1.253l-1.791,1.118l-1.882,0.939l-1.927,0.76l-2.016,0.626l-2.061,0.492l-2.06,0.269l-2.106,0.134l-2.106,-0.09l-2.061,-0.223l-2.061,-0.403l-2.061,-0.581l-1.926,-0.716l-1.926,-0.894l-1.793,-1.074l-1.747,-1.162l-1.613,-1.342l-1.523,-1.476l-1.344,-1.565l-1.075,-1.208l-1.21,-1.073l-1.299,-0.984l-1.389,-0.805l-1.434,-0.626l-1.523,-0.492l-1.613,-0.358l-1.568,-0.179l-1.612,0l-1.613,0.179l-1.569,0.358l-1.523,0.492l-1.478,0.626l-1.389,0.805l-1.299,0.984l-1.165,1.073l-1.075,1.208l-1.344,1.52l-1.479,1.476l-1.613,1.297l-1.702,1.208l-1.747,1.028l-1.882,0.895l-1.926,0.76l-2.016,0.582l-2.017,0.402l-2.06,0.268l-2.061,0.09l-2.061,-0.09l-2.061,-0.268l-2.016,-0.402l-1.971,-0.582l-1.972,-0.76l-1.837,-0.895l-1.792,-1.028l-1.702,-1.208l-1.568,-1.297l-1.479,-1.476l-1.388,-1.52l-1.076,-1.208l-1.164,-1.073l-1.3,-0.984l-1.389,-0.805l-1.478,-0.626l-1.523,-0.492l-1.568,-0.358l-1.613,-0.179l-1.568,0l-1.613,0.179l-1.568,0.358l-1.523,0.492l-1.479,0.626l-1.389,0.805l-1.299,0.984l-1.165,1.073l-1.075,1.208l-1.344,1.52l-1.523,1.476l-1.568,1.297l-1.703,1.208l-1.792,1.028l-1.837,0.895l-1.971,0.76l-1.971,0.582l-2.016,0.402l-2.061,0.268l-2.061,0.09l-2.061,-0.09l-2.061,-0.268l-2.016,-0.402l-2.016,-0.582l-1.927,-0.76l-1.836,-0.895l-1.792,-1.028l-1.703,-1.208l-1.613,-1.297l-1.478,-1.476l-1.344,-1.52l-1.075,-1.208l-1.165,-1.073l-1.3,-0.984l-1.388,-0.805l-1.479,-0.626l-1.523,-0.492l-1.568,-0.358l-1.613,-0.179l-1.613,0l-1.568,0.179l-1.568,0.358l-1.568,0.492l-1.434,0.626l-1.389,0.805l-1.299,0.984l-1.209,1.073l-1.076,1.208l-1.209,1.386l-1.3,1.342l-1.433,1.207l-0,5.546l-158.732,0l88.348,-152.775l61.648,-0l0.556,0.007l0.101,-0.007Zm-0,-0l-0.657,-0l-0.624,-0.008l-1.19,-0.076l-1.177,-0.175l-1.143,-0.259l-1.142,-0.34l-1.109,-0.425l-1.07,-0.479l-1.044,-0.595l-0.987,-0.638l-0.954,-0.722l-0.899,-0.764l-0.816,-0.843l-0.779,-0.897l-0.71,-0.956l-0.635,-0.986l-0.566,-1.045l-0.479,-1.093l-0.417,-1.104l-0.33,-1.151l-0.25,-1.148l-0.176,-1.179l-0.065,-1.181l-0.004,-1.193l0.095,-1.178l0.174,-1.176l0.26,-1.143l0.339,-1.142l0.407,-1.122l0.498,-1.058l0.577,-1.056l0.638,-0.987l0.722,-0.955l0.782,-0.886l0.824,-0.829l0.915,-0.766l0.957,-0.71l0.986,-0.635l1.045,-0.566l1.075,-0.492l1.122,-0.404l1.132,-0.344l1.168,-0.237l1.177,-0.176l1.182,-0.065l1.193,-0.004l1.178,0.095l1.176,0.174l1.143,0.26l1.142,0.339l1.122,0.407l1.058,0.498l1.038,0.564l1.005,0.65l0.937,0.71l0.903,0.795l0.829,0.824l0.766,0.915l0.71,0.956l0.635,0.986l0.566,1.046l0.492,1.074l0.405,1.122l0.342,1.133l0.238,1.167l0.158,1.165l0.083,1.195l0.003,1.192l-0.095,1.178l-0.174,1.176l-0.259,1.144l-0.34,1.141l-0.425,1.109l-0.48,1.071l-0.564,1.038l-0.65,1.006l-0.71,0.936l-0.795,0.904l-0.843,0.817l-0.896,0.779l-0.957,0.709l-0.986,0.635l-1.045,0.566l-1.075,0.492l-1.121,0.405l-1.151,0.33l-1.149,0.25l-1.165,0.158l-1.094,0.077Zm-7.829,-21.862l-0.46,0.733l-0.374,0.766l-0.319,0.805l-0.235,0.836l-0.136,0.852l-0.056,0.853l0.011,0.873l0.115,0.838l0.184,0.859l0.27,0.811l0.363,0.795l0.432,0.735l0.493,0.725l0.558,0.633l0.631,0.605l0.683,0.532l0.732,0.459l0.767,0.374l0.803,0.319l0.85,0.217l0.838,0.154l0.854,0.056l0.873,-0.01l0.869,-0.122l0.827,-0.178l0.825,-0.289l0.782,-0.344l0.753,-0.42l0.706,-0.506l0.647,-0.575l0.592,-0.613l0.532,-0.683l0.459,-0.733l0.386,-0.784l0.307,-0.786l0.235,-0.837l0.136,-0.851l0.069,-0.872l-0.023,-0.854l-0.104,-0.857l-0.195,-0.84l-0.289,-0.824l-0.345,-0.783l-0.419,-0.753l-0.506,-0.706l-0.575,-0.646l-0.614,-0.592l-0.682,-0.532l-0.733,-0.46l-0.784,-0.386l-0.786,-0.307l-0.837,-0.234l-0.851,-0.137l-0.871,-0.069l-0.855,0.024l-0.857,0.103l-0.84,0.196l-0.812,0.271l-0.795,0.363l-0.753,0.419l-0.706,0.506l-0.634,0.557l-0.604,0.632l-0.532,0.682Zm104.085,25.439l35.997,32.833l0.624,0.653l0.568,0.696l0.512,0.737l0.43,0.815l0.369,0.826l0.263,0.86l0.188,0.889l0.096,0.906l0.016,0.904l-0.081,0.889l-0.175,0.906l-0.229,0.868l-0.327,0.853l-0.417,0.789l-0.485,0.77l-9.658,13.794l-0.489,0.658l-0.566,0.578l-0.621,0.539l-0.65,0.464l-0.704,0.427l-0.739,0.321l-0.78,0.265l-0.779,0.185l-0.808,0.111l-0.806,0.03l-0.822,-0.061l-0.802,-0.129l-0.782,-0.197l-0.763,-0.263l-0.747,-0.361l0.809,-1.002l0.737,-1.053l0.665,-1.103l0.592,-1.154l0.506,-1.188l0.422,-1.219l0.341,-1.222l0.256,-1.254l0.171,-1.287l0.078,-1.27l-0.007,-1.304l-0.099,-1.287l-0.174,-1.257l-0.272,-1.273l-0.36,-1.225l-0.42,-1.214l-0.527,-1.18l-0.6,-1.151l-0.67,-1.091l-0.756,-1.044l-0.813,-1.002l-0.877,-0.911l-0.951,-0.882l-1.002,-0.81l-1.052,-0.737l-1.104,-0.664l-1.136,-0.58l-1.187,-0.506l-1.219,-0.421l-1.24,-0.354l-1.267,-0.238l-1.274,-0.189l-1.283,-0.06l-1.291,-0.011l-1.287,0.099l-1.257,0.175l-1.273,0.272l-1.225,0.359l-1.227,0.439l-1.167,0.508l-1.133,0.614l-1.091,0.669l-1.062,0.744l-0.984,0.826l-0.942,0.882l-0.869,0.933l-0.81,1.002l-0.737,1.053l-0.665,1.103l-68.745,-48.136l0.81,-1.002l0.737,-1.053l0.664,-1.103l0.592,-1.154l0.494,-1.169l0.439,-1.207l0.336,-1.253l0.269,-1.272l0.176,-1.256l0.073,-1.302l-0.001,-1.272l-0.1,-1.287l-0.161,-1.276l-0.272,-1.272l-0.36,-1.226l-0.42,-1.214l-0.527,-1.18l-0.6,-1.151l-0.67,-1.091l-0.744,-1.061l-0.825,-0.984l-0.864,-0.93l-0.951,-0.882l-1.002,-0.81l-1.052,-0.736l-1.104,-0.665l-1.154,-0.592l-1.187,-0.506l-1.207,-0.44l-1.234,-0.323l-1.273,-0.269l-1.268,-0.158l-1.289,-0.091l-1.285,0.02l-1.274,0.082l-1.289,0.179l-1.254,0.285l-1.243,0.347l-1.215,0.421l-1.18,0.526l-1.12,0.595l-1.122,0.675l-1.043,0.757l-1.002,0.813l-0.912,0.877l-0.882,0.951l-0.809,1.002l-0.737,1.052l-0.665,1.104l-18.605,-15.57l15.313,-21.871l0.392,-0.483l0.435,-0.426l0.493,-0.358l0.536,-0.301l0.564,-0.227l0.612,-0.139l0.592,-0.073l0.621,0.002l0.606,0.1l0.586,0.167l0.566,0.234l1.27,0.619l1.298,0.503l1.336,0.449l1.35,0.35l1.371,0.284l1.403,0.197l1.386,0.106l1.42,0.02l1.39,-0.054l1.387,-0.165l1.375,-0.227l29.238,-5.873l1.839,-0.308l1.837,-0.229l1.841,-0.117l1.851,-0.056l1.855,0.054l1.84,0.153l1.839,0.233l1.811,0.348l1.81,0.429l1.777,0.513l1.744,0.6l1.73,0.697l1.678,0.77l1.634,0.873l1.595,0.928l1.55,1.031l32.957,23.077l0.882,0.671l0.831,0.745l0.78,0.816l0.724,0.859l0.637,0.906l0.581,0.947l0.499,1.026l0.419,1.024l0.345,1.052l0.257,1.1l0.178,1.099l0.085,1.114l0.023,1.125l-1.012,30.803Zm-44.79,-31.363l38.656,27.067l0.881,-27.486l-26.333,-18.438l-13.204,18.857Zm9.774,-21.259l-15.771,-11.043l-31.189,6.265l33.756,23.636l13.204,-18.858Zm23.995,92.347l0.723,-0.954l0.764,-0.899l0.842,-0.816l0.897,-0.779l0.957,-0.709l0.985,-0.636l1.046,-0.566l1.093,-0.479l1.103,-0.417l1.151,-0.331l1.149,-0.25l1.178,-0.176l1.182,-0.065l1.192,-0.004l1.178,0.095l1.176,0.174l1.144,0.26l1.141,0.34l1.122,0.406l1.076,0.51l1.038,0.565l0.987,0.637l0.955,0.723l0.886,0.782l0.847,0.837l0.748,0.902l0.709,0.957l0.653,0.998l0.548,1.033l0.51,1.087l0.387,1.109l0.343,1.133l0.237,1.167l0.176,1.178l0.065,1.182l0.004,1.192l-0.095,1.178l-0.175,1.176l-0.241,1.157l-0.358,1.129l-0.407,1.121l-0.497,1.058l-0.565,1.039l-0.65,1.005l-0.71,0.937l-0.795,0.903l-0.824,0.83l-0.915,0.766l-0.938,0.722l-1.004,0.623l-1.046,0.566l-1.074,0.492l-1.122,0.404l-1.133,0.343l-1.167,0.238l-1.165,0.158l-1.195,0.083l-1.161,-0.002l-1.209,-0.089l-1.158,-0.162l-1.162,-0.272l-1.141,-0.34l-1.091,-0.412l-1.089,-0.492l-1.025,-0.583l-1.006,-0.649l-0.936,-0.71l-0.898,-0.765l-0.835,-0.855l-0.779,-0.896l-0.709,-0.957l-0.635,-0.986l-0.566,-1.045l-0.479,-1.093l-0.418,-1.103l-0.33,-1.151l-0.25,-1.149l-0.158,-1.166l-0.083,-1.194l0.015,-1.18l0.076,-1.19l0.175,-1.177l0.259,-1.143l0.34,-1.142l0.425,-1.109l0.479,-1.071l0.596,-1.043l0.637,-0.988Zm6.388,4.474l-0.459,0.733l-0.374,0.766l-0.32,0.804l-0.216,0.849l-0.154,0.839l-0.057,0.853l0.011,0.873l0.134,0.851l0.165,0.846l0.289,0.824l0.344,0.783l0.432,0.735l0.494,0.724l0.575,0.646l0.613,0.592l0.683,0.532l0.733,0.459l0.784,0.387l0.786,0.307l0.849,0.216l0.839,0.154l0.871,0.069l0.855,-0.023l0.869,-0.122l0.828,-0.178l0.824,-0.288l0.782,-0.345l0.754,-0.419l0.706,-0.506l0.646,-0.576l0.592,-0.613l0.532,-0.683l0.459,-0.733l0.387,-0.784l0.307,-0.786l0.234,-0.837l0.136,-0.851l0.07,-0.871l-0.024,-0.855l-0.103,-0.857l-0.196,-0.84l-0.27,-0.812l-0.363,-0.795l-0.419,-0.753l-0.507,-0.706l-0.557,-0.634l-0.631,-0.604l-0.683,-0.532l-0.733,-0.459l-0.766,-0.374l-0.804,-0.32l-0.836,-0.234l-0.852,-0.136l-0.853,-0.057l-0.873,0.011l-0.838,0.116l-0.859,0.184l-0.811,0.27l-0.795,0.363l-0.736,0.432l-0.724,0.493l-0.633,0.558l-0.605,0.631l-0.532,0.683Z"/></g></svg>