<?xml version="1.0" encoding="UTF-8" standalone="no"?><!DOCTYPE svg PUBLIC "-//W3C//DTD SVG 1.1//EN" "http://www.w3.org/Graphics/SVG/1.1/DTD/svg11.dtd"><svg width="100%" height="100%" viewBox="0 0 514 454" version="1.1" xmlns="http://www.w3.org/2000/svg" xmlns:xlink="http://www.w3.org/1999/xlink" xml:space="preserve" xmlns:serif="http://www.serif.com/" style="fill-rule:evenodd;clip-rule:evenodd;stroke-linejoin:round;stroke-miterlimit:2;"><g transform="matrix(50,0,0,50,350.907,333.745)"></g><text x="163.285px" y="333.745px" style="font-family:'ArialMT', 'Arial', sans-serif;font-size:50px;">sw=38.4</text><g id="_555.1-Watercourse-or-Ditch-Alongside-Road" serif:id="555.1 Watercourse or Ditch Alongside Road"><path d="M227.201,17.004c6.077,-10.522 17.305,-17.004 29.455,-17.004c12.151,0 23.379,6.482 29.456,17.004c54.07,93.625 168.562,291.872 222.642,385.514c6.078,10.524 6.079,23.491 0.003,34.016c-6.076,10.525 -17.306,17.009 -29.459,17.009l-445.283,0c-12.153,0 -23.383,-6.484 -29.459,-17.009c-6.076,-10.525 -6.075,-23.492 0.003,-34.016c54.08,-93.642 168.572,-291.889 222.642,-385.514Z" style="fill:#e31837;"/><path d="M256.621,56.706l202.954,351.484l-405.907,0l202.953,-351.484Z" style="fill:#fff;"/><path d="M146.897,386.753l-2.321,-1.52l-2.4,-1.201l-2.64,-0.88l-2.64,-0.48l-2.72,-0.16l-0,10.561l-54.322,-0l35.841,-62.003l4.88,0l2.16,0.16l2.081,0.56l1.92,0.8l1.84,1.12l1.6,1.36l1.44,1.6l1.12,1.84l0.8,2.001l0.48,2.08l0.16,2.08l-0,6.08l2.88,0.16l2.96,0.4l2.8,0.64l2.801,0.88l2.64,1.2l2.56,1.44l2.4,1.6l2.08,1.36l2.24,1.12l2.32,0.88l2.4,0.56l2.4,0.32l2.48,0l2.481,-0.32l2.4,-0.56l2.32,-0.88l1.657,-0.828l0.023,0.028l-0.013,-0.033l0.573,-0.287l2.08,-1.36l2.56,-1.76l2.8,-1.44l2.88,-1.2l3.04,-0.96l3.041,-0.64l3.12,-0.32l3.12,-0l3.12,0.32l3.12,0.64l3.04,0.96l2.88,1.2l2.721,1.44l2.64,1.76l2.08,1.36l2.16,1.12l2.32,0.88l2.4,0.56l2.48,0.32l2.48,0l2.48,-0.32l2.401,-0.56l2.32,-0.88l2.24,-1.12l2,-1.36l2.48,-1.6l2.48,-1.44l2.72,-1.2l2.72,-0.88l2.88,-0.64l2.881,-0.4l2.88,-0.16l-0,-6.08l0.24,-2.08l0.48,-2.08l0.8,-2.001l1.12,-1.84l1.36,-1.6l1.68,-1.36l1.76,-1.12l2,-0.8l2.08,-0.56l2.16,-0.16l122.806,0l35.761,62.003l-172.247,-0l-0,-10.561l-2.64,0.16l-2.721,0.48l-2.56,0.88l-2.48,1.201l-2.24,1.52l-2.64,1.76l-2.72,1.44l-2.96,1.2l-2.96,0.96l-3.121,0.64l-3.12,0.32l-3.12,-0l-3.12,-0.32l-3.12,-0.64l-2.96,-0.96l-2.88,-1.2l-2.8,-1.44l-2.561,-1.76l-2.08,-1.36l-2.24,-1.121l-2.32,-0.88l-2.4,-0.56l-2.48,-0.32l-2.48,0l-2.4,0.32l-2.48,0.56l-2.321,0.88l-1.584,0.822l-0.016,-0.021l0.008,0.025l-0.568,0.295l-2.08,1.36l-2.64,1.76l-2.72,1.44l-2.88,1.2l-3.04,0.96l-3.04,0.64l-3.121,0.32l-3.2,-0l-3.12,-0.32l-3.04,-0.64l-3.04,-0.96l-2.88,-1.2l-2.8,-1.44l-2.56,-1.76Zm-0,-21.201l-2.321,-1.44l-2.4,-1.2l-2.64,-0.881l-2.64,-0.56l-2.72,-0.16l-0,10.561l2.88,0.16l2.96,0.4l2.8,0.64l2.801,0.96l2.64,1.2l2.56,1.36l2.4,1.68l2.08,1.36l2.24,1.12l2.32,0.88l2.4,0.56l2.4,0.24l2.48,0l2.481,-0.24l2.4,-0.56l2.32,-0.88l2.24,-1.12l2.08,-1.36l2.56,-1.76l2.8,-1.52l2.88,-1.2l3.04,-0.88l3.041,-0.64l3.12,-0.32l3.12,-0l3.12,0.32l3.12,0.64l3.04,0.88l2.88,1.2l2.721,1.52l2.64,1.76l2.08,1.36l2.16,1.12l2.32,0.88l2.4,0.56l2.48,0.24l2.48,0l2.48,-0.24l2.401,-0.56l2.32,-0.88l2.24,-1.12l2,-1.36l2.48,-1.68l2.48,-1.36l2.72,-1.2l2.72,-0.96l2.88,-0.64l2.881,-0.4l2.88,-0.16l-0,-10.561l-2.64,0.16l-2.721,0.56l-2.56,0.881l-2.48,1.2l-2.24,1.44l-2.64,1.76l-2.72,1.52l-2.96,1.2l-2.96,0.88l-3.121,0.64l-3.12,0.32l-3.12,-0l-3.12,-0.32l-3.12,-0.64l-2.96,-0.88l-2.88,-1.2l-2.8,-1.52l-2.561,-1.76l-2.08,-1.36l-2.24,-1.12l-2.32,-0.881l-2.4,-0.56l-2.48,-0.24l-2.48,0l-2.4,0.24l-2.48,0.56l-2.321,0.881l-2.16,1.12l-2.08,1.36l-2.64,1.76l-2.72,1.52l-2.88,1.2l-3.04,0.88l-3.04,0.64l-3.121,0.32l-3.2,-0l-3.12,-0.32l-3.04,-0.64l-3.04,-0.88l-2.88,-1.2l-2.8,-1.52l-2.56,-1.76Zm68.003,-145.847l37.361,-10l37.442,-10.081l2.4,-0.48l2.4,-0.16l2.4,0.16l2.4,0.48l2.32,0.72l2.161,1.04l2.08,1.36l1.84,1.52l1.6,1.84l1.44,1.921l1.12,2.16l15.281,34.241l1.84,-0.24l1.84,0.16l1.84,0.48l1.76,0.72l1.6,0.96l1.36,1.28l1.2,1.44l0.88,1.6l0.64,1.841l8.241,30.641l0.32,1.68l0.08,1.68l-0.24,1.68l-0.4,1.68l-0.72,1.52l-0.881,1.44l-1.12,1.28l6.481,24.242l-1.04,1.84l-1.36,1.68l-1.52,1.52l-1.761,1.2l-1.92,0.96l-2,0.72l-2.08,0.4l-2.16,0.08l-2.08,-0.16l-2.08,-0.48l-2,-0.8l-1.84,-1.04l-6.081,-22.481l-14.32,4.8l-14.481,4.56l-14.48,4.24l-14.721,3.521l-14.801,3.36l-14.8,3.04l6,22.401l-1.04,1.84l-1.36,1.68l-1.52,1.44l-1.76,1.28l-1.921,0.96l-2,0.72l-2.08,0.4l-2.16,0.08l-2.08,-0.16l-2.08,-0.48l-2,-0.8l-1.84,-1.04l-6.56,-24.321l-1.601,-0.56l-1.44,-0.72l-1.44,-1.04l-1.12,-1.2l-1.04,-1.36l-0.8,-1.52l-0.56,-1.6l-8.24,-30.722l-0.32,-1.84l-0,-1.84l0.24,-1.84l0.56,-1.76l0.88,-1.68l1.12,-1.52l1.36,-1.28l1.6,-1.04l1.68,-0.8l-3.84,-37.202l-0.08,-2.48l0.16,-2.4l0.56,-2.4l0.8,-2.24l1.12,-2.161l1.36,-2l1.6,-1.84l1.84,-1.52l2.08,-1.36l2.16,-1.04l2.321,-0.8Zm4.48,12.001l-2,0.96l-1.76,1.2l-1.68,1.44l-1.441,1.6l-1.28,1.76l-0.96,2l-0.72,2l-0.48,2.16l-0.16,2.16l0.08,2.24l1.12,10.641l0.24,1.52l0.64,1.36l0.88,1.28l1.041,1.04l1.28,0.8l1.44,0.48l1.52,0.24l1.52,0l1.44,-0.4l43.762,-13.2l44.562,-10.401l1.44,-0.48l1.36,-0.72l1.12,-0.96l0.96,-1.12l0.72,-1.36l0.48,-1.44l0.08,-1.52l-0.16,-1.52l-0.48,-1.44l-4.4,-9.761l-0.96,-2l-1.28,-1.76l-1.44,-1.6l-1.68,-1.44l-1.84,-1.2l-2.001,-0.88l-2.08,-0.72l-2.08,-0.4l-2.24,-0.16l-2.16,0.16l-23.201,4.8l-13.361,3.6l-13.36,3.52l-22.481,7.521Z"/></g></svg>