<?xml version="1.0" encoding="UTF-8" standalone="no"?><!DOCTYPE svg PUBLIC "-//W3C//DTD SVG 1.1//EN" "http://www.w3.org/Graphics/SVG/1.1/DTD/svg11.dtd"><svg width="100%" height="100%" viewBox="0 0 514 454" version="1.1" xmlns="http://www.w3.org/2000/svg" xmlns:xlink="http://www.w3.org/1999/xlink" xml:space="preserve" xmlns:serif="http://www.serif.com/" style="fill-rule:evenodd;clip-rule:evenodd;stroke-linejoin:round;stroke-miterlimit:2;"><g transform="matrix(50,0,0,50,350.88,262.709)"></g><text x="163.258px" y="262.709px" style="font-family:'ArialMT', 'Arial', sans-serif;font-size:50px;">sw=38.4</text><g id="_556-Uneven-Road" serif:id="556 Uneven Road"><path d="M229.215,15.849c5.656,-9.807 16.106,-15.849 27.415,-15.849c11.309,-0 21.759,6.042 27.415,15.849c53.537,92.841 171.425,297.275 224.971,390.132c5.657,9.81 5.658,21.897 0.003,31.708c-5.655,9.81 -16.106,15.854 -27.417,15.854l-449.944,0c-11.311,0 -21.763,-6.044 -27.418,-15.854c-5.655,-9.811 -5.653,-21.898 0.003,-31.708c53.547,-92.857 171.435,-297.291 224.972,-390.132Z" style="fill:#e31837;"/><path d="M256.841,56.693l202.961,351.496l-405.922,-0l202.961,-351.496Z" style="fill:#fff;"/><path d="M398.083,340.029c-1.226,-0.093 -2.46,-0.214 -3.68,-0.4c-1.227,-0.187 -2.467,-0.44 -3.68,-0.72c-1.211,-0.279 -2.427,-0.586 -3.601,-0.959c-1.166,-0.371 -2.302,-0.83 -3.44,-1.28c-1.147,-0.453 -2.32,-0.906 -3.44,-1.439c-1.12,-0.534 -2.214,-1.133 -3.281,-1.76c-1.065,-0.625 -2.107,-1.293 -3.12,-1.999c-1.013,-0.707 -2.003,-1.455 -2.96,-2.239c-0.96,-0.787 -1.894,-1.626 -2.8,-2.479c-0.907,-0.853 -1.801,-1.733 -2.641,-2.64c-0.835,-0.901 -1.613,-1.854 -2.4,-2.799c-0.8,-0.959 -1.547,-2.025 -2.4,-2.958c-0.853,-0.933 -1.788,-1.787 -2.72,-2.64c-0.934,-0.853 -1.897,-1.681 -2.881,-2.479c-0.986,-0.799 -2,-1.599 -3.04,-2.319c-1.034,-0.716 -2.109,-1.374 -3.2,-1.999c-1.094,-0.627 -2.227,-1.213 -3.361,-1.759c-1.129,-0.545 -2.27,-1.068 -3.44,-1.52c-1.173,-0.453 -2.387,-0.84 -3.6,-1.2c-1.214,-0.359 -2.454,-0.693 -3.681,-0.959c-1.216,-0.265 -2.447,-0.469 -3.68,-0.64c-1.253,-0.173 -2.574,-0.32 -3.84,-0.4c-1.252,-0.079 -2.507,-0.106 -3.761,-0.08c-1.253,0.027 -2.51,0.12 -3.76,0.24c-1.254,0.12 -2.52,0.267 -3.76,0.48c-1.238,0.213 -2.466,0.483 -3.681,0.8c-1.227,0.32 -2.48,0.706 -3.68,1.119c-1.19,0.41 -2.363,0.868 -3.52,1.36c-1.161,0.493 -2.321,1.026 -3.441,1.599c-1.116,0.571 -2.217,1.175 -3.28,1.84c-1.067,0.666 -2.107,1.412 -3.12,2.159c-1.01,0.743 -2.011,1.501 -2.961,2.319c-0.96,0.826 -1.907,1.733 -2.8,2.639c-0.888,0.901 -1.747,1.839 -2.56,2.799c-0.811,0.956 -1.577,1.95 -2.32,2.959c-0.747,1.013 -1.534,2.186 -2.161,3.119c-0.548,0.816 -1.013,1.693 -1.6,2.479c-0.586,0.786 -1.253,1.519 -1.92,2.239c-0.666,0.719 -1.36,1.426 -2.08,2.079c-0.716,0.65 -1.459,1.271 -2.24,1.84c-0.787,0.573 -1.629,1.107 -2.481,1.599c-0.853,0.493 -1.746,0.947 -2.64,1.36c-0.89,0.411 -1.8,0.799 -2.72,1.119c-0.917,0.319 -1.859,0.562 -2.8,0.8c-0.947,0.24 -1.921,0.493 -2.881,0.64c-0.952,0.145 -1.917,0.2 -2.88,0.24c-0.973,0.04 -1.974,0.04 -2.96,-0c-0.987,-0.04 -1.987,-0.094 -2.96,-0.24c-0.973,-0.147 -1.934,-0.4 -2.881,-0.64c-0.941,-0.238 -1.883,-0.481 -2.8,-0.8c-0.92,-0.32 -1.84,-0.706 -2.72,-1.119c-0.875,-0.411 -1.727,-0.871 -2.561,-1.36c-0.84,-0.493 -1.693,-1.026 -2.48,-1.599c-0.781,-0.569 -1.518,-1.197 -2.24,-1.84c-0.733,-0.653 -1.493,-1.359 -2.16,-2.079c-0.657,-0.709 -1.263,-1.465 -1.84,-2.239c-0.587,-0.786 -1.124,-1.65 -1.681,-2.479c-0.626,-0.933 -1.347,-2.107 -2.08,-3.119c-0.733,-1.013 -1.51,-2.003 -2.32,-2.959c-0.813,-0.96 -1.673,-1.898 -2.56,-2.799c-0.894,-0.906 -1.84,-1.813 -2.8,-2.639c-0.95,-0.818 -1.951,-1.576 -2.961,-2.319c-1.013,-0.747 -2.053,-1.493 -3.12,-2.159c-1.063,-0.665 -2.164,-1.269 -3.28,-1.84c-1.12,-0.573 -2.275,-1.109 -3.441,-1.599c-1.173,-0.493 -2.4,-0.947 -3.6,-1.36c-1.188,-0.409 -2.387,-0.799 -3.6,-1.119c-1.214,-0.32 -2.443,-0.587 -3.681,-0.8c-1.24,-0.213 -2.507,-0.36 -3.76,-0.48c-1.25,-0.12 -2.505,-0.213 -3.76,-0.24c-1.267,-0.026 -2.574,0 -3.841,0.08c-1.258,0.08 -2.512,0.227 -3.76,0.4c-1.254,0.173 -2.534,0.373 -3.761,0.64c-1.213,0.264 -2.41,0.603 -3.6,0.959c-1.2,0.36 -2.418,0.749 -3.6,1.2c-1.187,0.453 -2.374,0.973 -3.521,1.52c-1.141,0.543 -2.266,1.132 -3.36,1.759c-1.091,0.625 -2.166,1.283 -3.2,1.999c-1.04,0.72 -2.054,1.52 -3.04,2.319c-0.985,0.798 -1.961,1.626 -2.881,2.479c-0.912,0.846 -1.807,1.715 -2.64,2.64c-0.84,0.933 -1.6,1.999 -2.4,2.958c-0.787,0.945 -1.565,1.898 -2.4,2.8c-0.841,0.906 -1.734,1.786 -2.641,2.639c-0.906,0.853 -1.84,1.692 -2.8,2.479c-0.957,0.784 -1.947,1.532 -2.96,2.239c-1.014,0.706 -2.055,1.374 -3.121,1.999c-1.066,0.627 -2.16,1.226 -3.28,1.76c-1.12,0.533 -2.282,0.987 -3.44,1.439c-1.16,0.453 -2.334,0.906 -3.521,1.28c-1.184,0.372 -2.4,0.679 -3.6,0.959c-1.192,0.278 -2.391,0.534 -3.6,0.72c-1.214,0.187 -2.45,0.307 -3.681,0.4c-1.24,0.093 -3.76,0.16 -3.76,0.16l0,49.102l290.268,0l-0,-49.102c-0,-0 -2.456,-0.067 -3.681,-0.16Z"/></g></svg>