<?xml version="1.0" encoding="UTF-8" standalone="no"?><!DOCTYPE svg PUBLIC "-//W3C//DTD SVG 1.1//EN" "http://www.w3.org/Graphics/SVG/1.1/DTD/svg11.dtd"><svg width="100%" height="100%" viewBox="0 0 514 454" version="1.1" xmlns="http://www.w3.org/2000/svg" xmlns:xlink="http://www.w3.org/1999/xlink" xml:space="preserve" xmlns:serif="http://www.serif.com/" style="fill-rule:evenodd;clip-rule:evenodd;stroke-linejoin:round;stroke-miterlimit:2;"><g transform="matrix(50,0,0,50,350.88,262.709)"></g><text x="163.258px" y="262.709px" style="font-family:'ArialMT', 'Arial', sans-serif;font-size:50px;">sw=38.4</text><g id="_556.1-Soft-Verges" serif:id="556.1 Soft Verges"><path d="M227.178,17.004c6.076,-10.522 17.302,-17.004 29.452,-17.004c12.149,0 23.376,6.482 29.452,17.004c54.065,93.625 168.545,291.872 222.619,385.514c6.077,10.524 6.079,23.491 0.003,34.016c-6.075,10.525 -17.303,17.009 -29.455,17.009l-445.238,0c-12.152,0 -23.38,-6.484 -29.455,-17.009c-6.076,-10.525 -6.074,-23.492 0.003,-34.016c54.074,-93.642 168.554,-291.889 222.619,-385.514Z" style="fill:#e31837;"/><path d="M256.665,56.708l202.961,351.496l-405.922,-0l202.961,-351.496Z" style="fill:#fff;"/><path d="M300.23,269.833c5.657,-1.024 11.152,2.487 12.64,8.079l0.066,0.013l8.04,30.199l-0.066,-0.013c1.023,3.843 -0.067,7.943 -2.861,10.756l0.026,0.037l6.348,23.843c-1.889,3.808 -5.308,6.62 -9.392,7.721c-1.406,0.379 -2.844,0.543 -4.269,0.5c-2.717,-0.083 -5.387,-0.92 -7.701,-2.46l-5.882,-22.094l-14.008,4.715l-14.086,4.424l-14.148,4.19l-14.392,3.507l-14.396,3.257l-14.474,2.966l5.882,22.094c-1.888,3.808 -5.307,6.619 -9.392,7.721c-4.084,1.102 -8.442,0.388 -11.969,-1.96l-6.348,-23.843l-0.054,-0.03c-3.816,-1.03 -6.798,-4.032 -7.821,-7.875l0.066,0.013l-8.04,-30.199l-0.066,-0.013c-1.489,-5.593 1.527,-11.401 6.938,-13.36l0.056,0.008l-3.786,-36.595l-0.009,0.004c-0.937,-9.072 4.81,-17.483 13.558,-19.842l73,-19.687l0.029,-0.008c8.739,-2.341 17.878,2.049 21.57,10.367l0.049,-0.013l14.892,33.578l-0.004,0l0.013,0.019l-0.009,-0.019Zm-17.077,-21.742l-0.095,-0.026c-2.991,-6.759 -10.045,-10.729 -17.329,-9.752l0.045,-0.032l-22.645,4.67l-26.108,7.041l-21.873,7.336l-0.062,0.036c-6.793,2.82 -10.93,9.809 -10.162,17.168l0.047,0.037l1.049,10.465l-0.026,0.017c0.237,2.271 1.495,4.308 3.413,5.526c1.918,1.219 4.285,1.485 6.423,0.723l0.035,-0.048l21.333,-6.566l21.38,-6.391l21.691,-5.224l21.737,-5.05l-0.061,0.055c2.229,-0.415 4.147,-1.837 5.203,-3.858c1.055,-2.02 1.133,-4.417 0.21,-6.503l0.028,-0.018l-4.233,-9.606Zm-21.629,125.48l-1.864,-1.027l7.457,-13.888l1.864,1.027l-7.457,13.888Zm-161.264,-1.161l1.864,0.938l-6.835,13.486l-1.865,-0.938l6.836,-13.486Zm8.345,-6.921l2.486,17.371l-2.086,0.268l-2.442,-17.327l2.042,-0.312Zm23.615,4.287l-6.57,12.95l-1.864,-0.938l6.57,-12.95l1.864,0.938Zm27.61,18.889l-2.087,-0.313l1.11,-8.216l-1.11,-8.262l2.087,-0.312l1.109,8.574l-1.109,8.529Zm12.695,-11.164l3.862,8.931l-1.954,0.849l-3.551,-8.262l-4.927,-2.768l1.021,-1.831l5.549,3.081Zm7.235,-17.014l3.906,5.805l-0.266,10.227l3.462,10.672l-1.997,0.625l-3.551,-10.985l0.266,-9.913l-3.551,-5.27l1.731,-1.161Zm18.333,28.133l9.055,-6.073l1.154,1.786l-9.055,6.029l-1.154,-1.742Zm28.32,-17.237l-0.311,14.29l-2.086,-0.045l0.266,-13.486l-4.661,-5.805l1.642,-1.295l5.15,6.341Zm3.639,12.325l3.551,-20.407l2.042,0.401l-3.551,20.363l-2.042,-0.357Zm13.139,-7.189l1.909,-0.804l6.303,15.138l-1.953,0.804l-6.259,-15.138Zm27.388,-2.903l1.909,0.893l-3.507,7.725l5.194,8.128l-1.732,1.161l-5.859,-9.11l3.995,-8.797Zm-148.036,-1.652l-5.682,-0.759l-2.13,-3.707l3.773,-2.768l5.415,3.751l-1.376,3.483Zm-6.88,15.227l2.575,-5.135l2.352,3.304l-0.71,3.751l-4.217,-1.92Zm22.194,3.617l-8.789,-3.438l6.481,-1.876l2.308,5.314Zm27.743,-23.176l3.862,-5.894l5.904,-0l-2.531,9.02l-7.235,-3.126Zm47.008,15.004l6.791,0l-4.616,6.118l-2.175,-6.118Zm27.476,6.609l-6.037,-1.339l4.217,-3.796l1.82,5.135Zm3.374,-22.64l8.256,0l-1.953,5.448l-6.303,-5.448Zm16.823,12.414l0.266,6.207l-5.104,0.447l-1.687,-5.716l3.285,-2.769l3.24,1.831Zm-58.549,2.01l-9.632,2.59l-0.932,-3.483l10.564,0.893Zm80.477,-25.945l125.042,-0l21.795,38.002l-146.837,-0l-0,-38.002Zm-140.357,30.544l-5.726,-10.762l1.82,-0.982l5.771,10.717l-1.865,1.027Zm2.353,-14.557l1.553,-7.101l5.371,0l0,8.887l-6.924,-1.786Z"/></g></svg>