<?xml version="1.0" encoding="UTF-8" standalone="no"?><!DOCTYPE svg PUBLIC "-//W3C//DTD SVG 1.1//EN" "http://www.w3.org/Graphics/SVG/1.1/DTD/svg11.dtd"><svg width="100%" height="100%" viewBox="0 0 633 272" version="1.1" xmlns="http://www.w3.org/2000/svg" xmlns:xlink="http://www.w3.org/1999/xlink" xml:space="preserve" xmlns:serif="http://www.serif.com/" style="fill-rule:evenodd;clip-rule:evenodd;stroke-linejoin:round;stroke-miterlimit:2;"><g transform="matrix(50,0,0,50,389.71,153.478)"></g><text x="243.787px" y="153.478px" style="font-family:'ArialMT', 'Arial', sans-serif;font-size:50px;">sw=23</text><g><path d="M632.765,35.433c0,-19.556 -15.877,-35.433 -35.433,-35.433l-561.899,0c-19.556,0 -35.433,15.877 -35.433,35.433l0,200.787c0,19.557 15.877,35.434 35.433,35.434l561.899,-0c19.556,-0 35.433,-15.877 35.433,-35.434l0,-200.787Z"/><path d="M615.049,35.433c-0,-9.778 -7.939,-17.716 -17.717,-17.716l-561.899,-0c-9.778,-0 -17.716,7.938 -17.716,17.716l-0,200.787c-0,9.778 7.938,17.717 17.716,17.717l561.899,0c9.778,0 17.717,-7.939 17.717,-17.717l-0,-200.787Z" style="fill:#fff;"/><g><g><g><rect id="path1786" x="140.732" y="141.732" width="41.079" height="94.488" style="fill:#fff;"/><path id="path1788" d="M160.232,212.551l-12.92,-0l0,-47.159l12.92,-0l-0,4.67l1.58,-1.59l1.75,-1.33l2,-1.171l2.17,-0.75l2.16,-0.499l2.25,-0.161l3.169,0l0,12.25l-4.419,-0l-1.83,0.159l-1.83,0.5l-1.67,0.84l-1.58,1.079l-1.25,1.25l-1.08,1.58l-0.839,1.67l-0.5,1.83l-0.083,1.84l0.002,24.992Z" style="fill:#010001;fill-rule:nonzero;"/></g><g><rect id="path1754" x="85.493" y="141.732" width="55.239" height="94.488" style="fill:#fff;"/><path id="path1756" d="M111.823,163.482l-2.59,0.16l-2.5,0.421l-2.5,0.75l-2.41,0.92l-2.25,1.24l-2.34,1.75l-2.08,2.09l-1.83,2.25l-1.5,2.58l-1.17,2.67l-0.161,0.499l-0.84,3.33l-0.499,3.42l-0.17,3.41l0.17,3.42l0.499,3.41l0.84,3.25l0.161,0.591l1.17,2.66l1.5,2.499l1.83,2.34l2.08,2.08l2.34,1.75l2.25,1.16l2.41,1.01l2.5,0.739l2.5,0.421l2.59,0.17l2.58,-0.17l2.58,-0.421l2.5,-0.739l2.42,-1.01l2.25,-1.16l2.33,-1.75l2.08,-2.08l1.839,-2.34l1.5,-2.499l1.16,-2.66l0.17,-0.591l0.831,-3.25l0.499,-3.41l0.095,-3.42l-0.095,-3.41l-0.499,-3.42l-0.831,-3.33l-0.17,-0.499l-1.16,-2.67l-1.5,-2.58l-1.839,-2.25l-2.08,-2.09l-2.33,-1.75l-2.25,-1.24l-2.42,-0.92l-2.5,-0.75l-2.58,-0.421l-2.58,-0.16Zm-0,11.33l1.91,0.25l2,0.83l1.75,1.33l1.5,1.59l1.25,1.83l0.669,1.5l0.421,1.58l0.329,2.67l0.083,2.58l-0.083,2.58l-0.329,2.67l-0.421,1.58l-0.669,1.5l-1.25,1.84l-1.5,1.58l-1.75,1.33l-2,0.75l-1.91,0.34l-1.84,-0.34l-2,-0.75l-1.83,-1.33l-1.5,-1.58l-1.17,-1.84l-0.661,-1.5l-0.42,-1.58l-0.33,-2.67l-0.17,-2.58l0.17,-2.58l0.33,-2.67l0.42,-1.58l0.661,-1.5l1.17,-1.83l1.5,-1.59l1.83,-1.33l2,-0.83l1.84,-0.25Z" style="fill:#010001;fill-rule:nonzero;"/></g><g><rect id="path1814" x="47.244" y="141.732" width="38.249" height="94.488" style="fill:#fff;"/><path id="path1816" d="M70.664,165.062l9.16,-0l-0,10.66l-9.16,-0l-0,36.919l-12.92,-0l-0,-36.919l-7.58,-0l0,-10.66l7.58,-0l-0,-6.92l0.17,-1.91l0.41,-1.92l0.84,-1.75l1,-1.67l1.33,-1.41l1.5,-1.25l1.67,-1l1.83,-0.67l1.92,-0.329l3.66,-0.095l3.67,0.17l3.58,0.421l3.58,0.75l-2.33,10.499l-3,-0.34l-3.17,0l-0.91,0.095l-0.92,0.41l-0.83,0.59l-0.58,0.75l-0.42,0.911l-0.095,1l0.015,3.668Z" style="fill:#010001;fill-rule:nonzero;"/></g></g><g><g><rect id="path1854" x="342.576" y="141.732" width="69.409" height="94.488" style="fill:#fff;"/><path id="path1856" d="M375.246,144.732l-3.09,0.33l-2.91,0.67l-2.92,0.91l-2.75,1.34l-2.5,1.66l-2.41,1.92l-2.09,2.17l-2,3l-1.66,3.25l-1.34,3.41l-0.91,3.5l-0.84,4.09l-0.41,4.16l-0.09,4.25l0.09,4.169l0.41,4.16l0.84,4.17l0.91,3.5l1.34,3.33l1.66,3.25l2,3.08l2.09,2.17l2.41,1.92l2.5,1.58l2.75,1.33l2.92,1l2.91,0.59l3.09,0.33l4,-0l3,-0.33l2.909,-0.59l2.92,-1l2.75,-1.33l2.5,-1.58l2.41,-1.92l2.09,-2.17l2,-3.08l1.66,-3.25l1.34,-3.33l1,-3.5l0.75,-4.17l0.41,-4.16l0.09,-4.169l-0.09,-4.25l-0.41,-4.16l-0.75,-4.09l-1,-3.5l-1.34,-3.41l-1.66,-3.25l-2,-3l-2.09,-2.17l-2.41,-1.92l-2.5,-1.66l-2.75,-1.34l-2.92,-0.91l-2.909,-0.67l-3,-0.33l-4,0Zm2,12.33l1.83,0.08l1.83,0.42l1.75,0.67l1.67,0.91l1.499,1.17l1.25,1.42l1.08,1.5l0.84,1.75l1.08,3l0.66,3.25l0.42,4.08l0.09,4.08l-0.09,4.079l-0.42,4l-0.66,3.25l-1.08,3.09l-0.84,1.66l-1.08,1.58l-1.25,1.34l-1.499,1.17l-1.67,0.91l-1.75,0.67l-1.83,0.41l-1.83,0.09l-1.92,-0.09l-1.83,-0.41l-1.75,-0.67l-1.67,-0.91l-1.5,-1.17l-1.25,-1.34l-1.08,-1.58l-0.84,-1.66l-1.08,-3.09l-0.58,-3.25l-0.42,-4l-0.17,-4.079l0.17,-4.08l0.42,-4.08l0.58,-3.25l1.08,-3l0.84,-1.75l1.08,-1.5l1.25,-1.42l1.5,-1.17l1.67,-0.91l1.75,-0.67l1.83,-0.42l1.92,-0.08Z" style="fill:#010001;fill-rule:nonzero;"/></g><g><rect id="path18541" serif:id="path1854" x="273.168" y="141.732" width="69.409" height="94.488" style="fill:#fff;"/><path id="path18561" serif:id="path1856" d="M305.837,144.732l-3.09,0.33l-2.91,0.67l-2.92,0.91l-2.75,1.34l-2.5,1.66l-2.41,1.92l-2.09,2.17l-2,3l-1.66,3.25l-1.34,3.41l-0.909,3.5l-0.84,4.09l-0.41,4.16l-0.09,4.25l0.09,4.169l0.41,4.16l0.84,4.17l0.909,3.5l1.34,3.33l1.66,3.25l2,3.08l2.09,2.17l2.41,1.92l2.5,1.58l2.75,1.33l2.92,1l2.91,0.59l3.09,0.33l4,-0l3,-0.33l2.91,-0.59l2.92,-1l2.75,-1.33l2.5,-1.58l2.41,-1.92l2.09,-2.17l2,-3.08l1.66,-3.25l1.34,-3.33l0.999,-3.5l0.75,-4.17l0.41,-4.16l0.09,-4.169l-0.09,-4.25l-0.41,-4.16l-0.75,-4.09l-0.999,-3.5l-1.34,-3.41l-1.66,-3.25l-2,-3l-2.09,-2.17l-2.41,-1.92l-2.5,-1.66l-2.75,-1.34l-2.92,-0.91l-2.91,-0.67l-3,-0.33l-4,0Zm2,12.33l1.83,0.08l1.83,0.42l1.75,0.67l1.67,0.91l1.5,1.17l1.25,1.42l1.08,1.5l0.84,1.75l1.08,3l0.66,3.25l0.42,4.08l0.09,4.08l-0.09,4.079l-0.42,4l-0.66,3.25l-1.08,3.09l-0.84,1.66l-1.08,1.58l-1.25,1.34l-1.5,1.17l-1.67,0.91l-1.75,0.67l-1.83,0.41l-1.83,0.09l-1.92,-0.09l-1.83,-0.41l-1.75,-0.67l-1.67,-0.91l-1.5,-1.17l-1.25,-1.34l-1.08,-1.58l-0.84,-1.66l-1.08,-3.09l-0.58,-3.25l-0.42,-4l-0.17,-4.079l0.17,-4.08l0.42,-4.08l0.58,-3.25l1.08,-3l0.84,-1.75l1.08,-1.5l1.25,-1.42l1.5,-1.17l1.67,-0.91l1.75,-0.67l1.83,-0.42l1.92,-0.08Z" style="fill:#010001;fill-rule:nonzero;"/></g><g><rect id="path1886" x="211.339" y="141.732" width="61.829" height="94.488" style="fill:#fff;"/><path id="path1888" d="M244.088,145.312l-3.67,0.17l-3.58,0.41l-2.17,0.51l-2,0.74l-2.409,1.25l-2.33,1.42l-2,1.75l-1.84,2l-1.66,2.17l-1.25,2.41l-1.09,2.42l-0.83,2.42l-1,4.08l-0.67,4.17l-0.41,4.16l-0.09,4.17l0.25,4.159l0.42,4.17l0.83,4.08l1.09,4l0.41,1.33l0.84,2.5l1.16,2.34l1.42,2.16l0.33,0.5l1.84,2.09l2.08,1.91l2.33,1.67l2.499,1.25l3,0.92l3,0.58l3.08,0.33l3.09,0.09l3.08,-0.25l3.08,-0.5l3,-0.75l2.17,-1.09l2.08,-1.25l1.83,-1.58l1.75,-1.75l1.42,-1.92l1.17,-2.16l0.91,-2.25l0.92,-3.58l0.5,-3.67l0.08,-3.67l-0,-2.58l-0.33,-2.58l-0.58,-2.589l-0.84,-2.41l-1,-2.42l-1.5,-2l-1.66,-1.83l-1.92,-1.67l-2.08,-1.33l-2.25,-1.08l-2.33,-0.92l-2.42,-0.5l-2.5,-0.25l-2.92,-0.08l-3,0.33l-2.83,0.66l-2.75,1.01l-2.67,1.33l-2.5,1.66l0.09,-2.08l0.42,-2.08l0.58,-2l0.91,-1.92l1.17,-1.75l1.33,-1.58l1.59,-1.42l1.75,-0.91l1.83,-0.5l1.92,-0.34l1.91,0.09l1.92,0.25l1.83,0.66l1.5,0.67l1.25,0.92l1,1.25l0.75,1.41l0.5,1.5l12.5,-4.66l-0.67,-2.09l-0.83,-1.91l-1.17,-1.92l-1.33,-1.67l-1.5,-1.5l-1.75,-1.33l-1.83,-1.08l-2,-0.84l-3,-1l-3.67,-0.58l-3.58,-0.25Zm-1.08,33.5l1.66,0.16l1.59,0.42l1.5,0.67l1.41,0.909l1.17,1.09l1,1.33l0.83,1.58l0.59,1.67l0.41,1.75l0.09,1.75l-0.09,1.75l-0.41,1.75l-0.59,1.58l-0.83,1.59l-1,1.33l-1.17,1.16l-1.41,0.92l-1.5,0.67l-1.59,0.41l-1.66,0.09l-2.17,-0.17l-2.08,-0.58l-1.92,-0.92l-1.75,-1.33l-1.41,-1.58l-0.84,-1.59l-0.58,-1.58l-0.42,-1.75l-0.08,-1.75l0.08,-1.75l0.42,-1.75l0.58,-1.67l0.84,-1.58l1.41,-1.58l1.75,-1.249l1.92,-1l2.08,-0.59l2.17,-0.16Z" style="fill:#010001;fill-rule:nonzero;"/></g><g><g><rect id="path1818" x="480.198" y="141.732" width="57.159" height="94.488" style="fill:#fff;"/><path id="path1820" d="M517.358,146.482l-0,21.16l-2.16,-1.42l-2.25,-1.16l-2.42,-0.84l-2.41,-0.58l-2.59,-0.25l-2.5,0.094l-2.5,0.33l-2.5,0.66l-2.33,0.92l-2.25,1.25l-2.08,1.42l-2.13,2.04l-1.71,2.21l-1.25,2.37l-1.33,3.46l-0.83,3.33l-0.58,3.42l-0.25,3.42l0.16,3.41l0.421,3.42l0.83,3.33l1.09,3.25l1.24,2.5l1.5,2.249l1.84,2.081l2.08,1.749l2.33,1.42l2.75,1.08l2.92,0.75l2.92,0.34l2.91,0l2.92,-0.42l2.83,-0.75l2,-0.75l1.75,-1.171l1.58,-1.41l-0,3.25l12.919,0l0,-66.158l-12.92,-0.004Zm-9.91,28.33l1.91,0.25l1.92,0.58l1.67,0.92l1.58,1.16l1.079,1.25l0.84,1.34l0.58,1.5l0.329,1.66l0,10.17l-0.159,1.25l-0.34,1.25l-0.58,1.079l-0.75,1.08l-1.33,1.42l-1.5,1.17l-1.67,0.83l-1.83,0.58l-1.92,0.251l-1.91,-0.161l-1.84,-0.42l-1.5,-0.58l-1.41,-0.84l-1.17,-1.08l-1.001,-1.25l-0.75,-1.42l-0.83,-2.5l-0.421,-2.659l-0.25,-2.58l0.17,-2.67l0.41,-2.58l0.75,-2.59l0.75,-1.66l0.84,-1.25l1.16,-1.09l1.59,-1.08l1.75,-0.75l1.91,-0.499l1.923,-0.081Z" style="fill:#010001;fill-rule:nonzero;"/></g><g><rect id="path1762" x="429.701" y="141.732" width="50.995" height="94.488" style="fill:#fff;"/><path id="path1764" d="M443.613,227.89l-4.581,-0.41l-4.5,-0.75l1.58,-11.341l6.671,0.92l1.08,-0.083l1,-0.34l1,-0.581l0.751,-0.749l0.5,-0.92l0.341,-1.081l-0,-1.079l-0.17,-1.09l-16.162,-45.074l12.991,0l10.251,28.583l10.251,-28.583l13.081,0l-20.081,55.995l-0.751,1.58l-1,1.5l-1.251,1.25l-1.41,1l-1.59,0.75l-1.75,0.42l-1.75,0.17l-4.501,-0.087Z" style="fill:#010001;fill-rule:nonzero;"/></g><g><rect id="path1674" x="537.357" y="141.732" width="48.164" height="94.488" style="fill:#fff;"/><path id="path1676" d="M550.108,198.397l2,1.58l2.161,1.251l2.34,1l2.41,0.67l2.5,0.33l2.25,-0l1.591,-0.581l1.33,-0.919l0.75,-0.75l0.5,-1l0.08,-1.081l-0.25,-1.09l-0.58,-0.91l-0.83,-0.67l-3.25,-1.251l-3.34,-0.67l-3.001,-0.5l-4.08,-1l-2,-0.66l-1.83,-1l-1.671,-1.25l-1.5,-1.42l-1.25,-1.58l-1.08,-1.75l-0.67,-2.091l-0.41,-2.16l0,-2.17l0.25,-2.16l0.58,-2.17l0.92,-1.921l1.25,-1.83l1.411,-1.58l1.59,-1.42l1.83,-1.17l1.91,-0.911l2.09,-0.59l3,-0.659l3.001,-0.341l3.08,0l3.08,0.25l3.091,0.59l2.5,0.749l2.41,1l2.34,1.33l2.24,1.421l2.001,1.75l-7.991,8.49l-2.25,-1.83l-2.501,-1.5l-2.67,-1.16l-1.5,-0.419l-1.58,-0.25l-1.59,0l-1.66,0.42l-1.5,0.749l-1.341,1.001l-0.66,0.83l-0.34,0.919l0.09,1.081l0.33,0.91l0.58,0.841l1,0.58l5.501,1.081l5,0.67l1.921,0.33l0.08,-0l1.92,0.67l1.83,0.83l1.84,1.09l1.661,1.41l1.42,1.59l1.159,1.751l0.841,1.91l0.58,2.09l0.33,2.08l-0.082,2.17l-0.33,2.081l-0.671,2.08l-1.08,2.09l-1.34,1.91l-1.58,1.75l-1.831,1.5l-2,1.171l-3.25,1l-3.33,0.66l-3.421,0.34l-3.33,0l-3.42,-0.34l-3.331,-0.66l-3,-0.92l-2.92,-1.25l-2.66,-1.58l-2.501,-1.84l-2.34,-2.16l9.421,-8.671l1.752,1.839Z" style="fill:#010001;fill-rule:nonzero;"/></g></g></g></g><g><g><g><rect id="path17541" serif:id="path1754" x="118.15" y="47.244" width="55.239" height="94.488" style="fill:#fff;"/><path id="path17561" serif:id="path1756" d="M144.48,68.994l-2.59,0.16l-2.5,0.421l-2.5,0.75l-2.41,0.92l-2.25,1.24l-2.34,1.75l-2.08,2.09l-1.83,2.25l-1.5,2.58l-1.17,2.67l-0.161,0.499l-0.84,3.33l-0.499,3.42l-0.171,3.41l0.171,3.42l0.499,3.41l0.84,3.25l0.161,0.59l1.17,2.66l1.5,2.5l1.83,2.34l2.08,2.08l2.34,1.75l2.25,1.16l2.41,1.01l2.5,0.739l2.5,0.421l2.59,0.17l2.58,-0.17l2.58,-0.421l2.499,-0.739l2.42,-1.01l2.25,-1.16l2.33,-1.75l2.08,-2.08l1.84,-2.34l1.5,-2.5l1.16,-2.66l0.17,-0.59l0.83,-3.25l0.5,-3.41l0.095,-3.42l-0.095,-3.41l-0.5,-3.42l-0.83,-3.33l-0.17,-0.499l-1.16,-2.67l-1.5,-2.58l-1.84,-2.25l-2.08,-2.09l-2.33,-1.75l-2.25,-1.24l-2.42,-0.92l-2.499,-0.75l-2.58,-0.421l-2.58,-0.16Zm-0,11.329l1.91,0.251l2,0.83l1.749,1.33l1.5,1.59l1.25,1.83l0.67,1.5l0.421,1.58l0.329,2.67l0.083,2.58l-0.083,2.58l-0.329,2.67l-0.421,1.58l-0.67,1.5l-1.25,1.84l-1.5,1.58l-1.749,1.33l-2,0.75l-1.91,0.34l-1.84,-0.34l-2,-0.75l-1.83,-1.33l-1.5,-1.58l-1.171,-1.84l-0.66,-1.5l-0.42,-1.58l-0.33,-2.67l-0.17,-2.58l0.17,-2.58l0.33,-2.67l0.42,-1.58l0.66,-1.5l1.171,-1.83l1.5,-1.59l1.83,-1.33l2,-0.83l1.84,-0.251Z" style="fill:#010001;fill-rule:nonzero;"/></g><g id="S"><rect id="path1618" x="48.332" y="47.244" width="69.819" height="94.488" style="fill:#fff;"/><path id="path1620" d="M89.821,92.653l1.5,0.58l1.25,0.84l1.079,1.16l0.75,1.34l0.421,1.41l0.082,1.59l-0.25,1.5l-0.66,1.41l-0.92,1.25l-1.42,1.17l-1.58,0.909l-1.75,0.67l-1.83,0.33l-4.5,-0l-2.58,-0.33l-2.5,-0.499l-2.42,-0.831l-2.42,-1.079l-2.83,-1.84l-2.67,-2l-2.41,-2.33l-11.5,8.83l2.42,2.5l2.58,2.33l2.75,2.09l2.91,1.83l3.17,1.5l3.58,1.17l3.75,0.83l3.75,0.58l3.75,0.251l3.83,-0.083l3.75,-0.33l3.75,-0.669l3.67,-1.001l2.5,-1l2.33,-1.33l2.169,-1.67l1.92,-1.92l1.66,-2.16l1.34,-2.34l0.99,-2.49l0.67,-2.67l0.25,-2.67l-0.082,-2.66l-0.421,-2.75l-0.75,-2.59l-1.16,-2.409l-1.5,-2l-1.75,-1.75l-1.84,-1.59l-2.08,-1.41l-2.17,-1.171l-2.08,-0.83l-2.17,-0.67l-15.489,-3.83l-1.09,-0.42l-1.001,-0.66l-0.83,-0.92l-0.67,-1.001l-0.329,-1.079l-0.17,-1.17l0.094,-1.17l0.41,-1.16l0.589,-1l1.33,-1.34l1.5,-1.001l1.75,-0.75l1.83,-0.41l1.84,-0.17l2.74,0.17l2.67,0.41l2.67,0.75l2.5,0.92l2.41,1.25l2.34,1.5l2.08,1.75l10.25,-9.33l-2.75,-2.419l-2.92,-2.081l-3.16,-1.839l-3.25,-1.58l-3.42,-1.16l-3.58,-0.92l-3.59,-0.5l-3.66,-0.17l-3.58,0.17l-3.59,0.5l-3.58,0.92l-2.58,1l-2.42,1.24l-2.25,1.59l-2.079,1.83l-1.84,2l-1.41,2l-1.091,2.17l-0.83,2.25l-0.58,2.33l-0.17,2.42l0.083,2.41l0.42,2.42l0.75,2.25l1.001,2.25l1.25,2l1.58,1.91l1.75,1.59l2.5,1.659l2.75,1.171l2.919,0.75l15.575,3.502Z" style="fill:#010001;fill-rule:nonzero;"/></g><g><rect id="path18141" serif:id="path1814" x="173.389" y="47.244" width="38.249" height="94.488" style="fill:#fff;"/><path id="path18161" serif:id="path1816" d="M196.809,70.574l9.159,-0l0,10.659l-9.159,0l-0,36.92l-12.92,-0l-0,-36.92l-7.58,0l-0,-10.659l7.58,-0l-0,-6.92l0.17,-1.91l0.41,-1.92l0.84,-1.75l1,-1.67l1.33,-1.41l1.5,-1.25l1.67,-1l1.83,-0.67l1.92,-0.33l3.66,-0.094l3.67,0.17l3.58,0.42l3.58,0.75l-2.33,10.5l-3,-0.34l-3.17,0l-0.91,0.095l-0.92,0.409l-0.83,0.591l-0.58,0.75l-0.42,0.911l-0.095,1l0.015,3.668Z" style="fill:#010001;fill-rule:nonzero;"/></g><g><rect id="path1670" x="211.638" y="47.244" width="40.584" height="94.488" style="fill:#fff;"/><path id="path1672" d="M241.641,107.819l2.41,-0.41l2.34,-0.67l2.831,10.751l-3.501,1l-3.58,0.66l-3.59,0.34l-3.661,0.083l-3.59,-0.33l-1.75,-0.34l-1.74,-0.75l-1.5,-1l-1.34,-1.25l-1.081,-1.41l-0.751,-1.671l-0.5,-1.75l-0.17,-1.83l-0,-28.002l-7.581,-0l0,-10.751l7.581,-0l-0,-14.742l12.921,-3.75l-0,18.492l12.001,-0l0,10.751l-12.001,-0l-0,23.002l0.083,1l0.419,0.92l0.581,0.75l0.83,0.581l0.92,0.419l0.919,0.083l2.5,-0.176Z" style="fill:#010001;fill-rule:nonzero;"/></g></g><g><g><rect id="path1806" x="333.254" y="47.244" width="52.909" height="94.488" style="fill:#fff;"/><path id="path1808" d="M358.754,69.654l-2.42,0.17l-2.41,0.41l-2.34,0.75l-2.25,1.09l-2.08,1.25l-2.25,1.66l-2.08,2l-1.75,2.25l-1.42,2.42l-1.171,3l-0.83,3.169l-0.499,3.16l-0.171,3.25l0.251,3.25l0.59,3.17l0.91,3.08l1.169,3l1.08,2.17l1.42,2l1.5,1.83l1.83,1.67l1.92,1.41l2.08,1.25l2.25,0.92l2.339,0.67l2.99,0.58l3.09,0.25l3.08,-0.083l3.08,-0.34l3,-0.66l2.34,-0.84l2.16,-1.079l2,-1.42l1.83,-1.67l1.67,-1.83l-8,-8.08l-1.83,1.67l-2.08,1.33l-2.25,1l-2.17,0.58l-2.17,0.17l-2.16,-0.083l-2.17,-0.42l-2.08,-0.75l-1.419,-0.92l-1.25,-1.16l-1.001,-1.34l-0.75,-1.5l-0.41,-1.66l-0.17,-1.67l31.5,0l-0.17,-3.92l-0.421,-3.91l-0.83,-3.83l-1.171,-3.75l-1.079,-2.5l-1.42,-2.25l-1.66,-2.169l-2,-1.83l-2.17,-1.59l-2.08,-1.25l-2.25,-0.91l-2.42,-0.669l-2.42,-0.421l-2.407,-0.075Zm-0.251,10.749l1.66,0l1.67,0.33l1.58,0.589l1.42,0.831l1.33,1.079l1.09,1.25l0.83,1.42l0.58,1.58l0.251,1.67l-19.16,0l0.251,-1.67l0.579,-1.58l0.84,-1.42l1.08,-1.25l1.33,-1.079l1.42,-0.831l1.58,-0.589l1.669,-0.33Z" style="fill:#010001;fill-rule:nonzero;"/></g><g><rect id="path18061" serif:id="path1806" x="483.401" y="47.244" width="52.909" height="94.488" style="fill:#fff;"/><path id="path18081" serif:id="path1808" d="M508.901,69.654l-2.42,0.17l-2.41,0.41l-2.34,0.75l-2.25,1.09l-2.08,1.25l-2.25,1.66l-2.08,2l-1.75,2.25l-1.42,2.42l-1.17,3l-0.831,3.169l-0.499,3.16l-0.17,3.25l0.25,3.25l0.59,3.17l0.91,3.08l1.169,3l1.08,2.17l1.42,2l1.5,1.83l1.83,1.67l1.92,1.41l2.08,1.25l2.25,0.92l2.339,0.67l2.99,0.58l3.09,0.25l3.08,-0.083l3.08,-0.34l3,-0.66l2.34,-0.84l2.16,-1.079l2,-1.42l1.83,-1.67l1.67,-1.83l-8,-8.08l-1.83,1.67l-2.08,1.33l-2.25,1l-2.17,0.58l-2.17,0.17l-2.16,-0.083l-2.169,-0.42l-2.081,-0.75l-1.419,-0.92l-1.25,-1.16l-1.001,-1.34l-0.75,-1.5l-0.41,-1.66l-0.17,-1.67l31.5,0l-0.17,-3.92l-0.421,-3.91l-0.83,-3.83l-1.171,-3.75l-1.079,-2.5l-1.42,-2.25l-1.66,-2.169l-2,-1.83l-2.17,-1.59l-2.08,-1.25l-2.25,-0.91l-2.42,-0.669l-2.42,-0.421l-2.407,-0.075Zm-0.251,10.749l1.66,0l1.67,0.33l1.58,0.589l1.42,0.831l1.33,1.079l1.09,1.25l0.83,1.42l0.58,1.58l0.251,1.67l-19.16,0l0.251,-1.67l0.579,-1.58l0.84,-1.42l1.08,-1.25l1.33,-1.079l1.42,-0.831l1.58,-0.589l1.669,-0.33Z" style="fill:#010001;fill-rule:nonzero;"/></g><g><rect id="path16741" serif:id="path1674" x="536.31" y="47.244" width="48.164" height="94.488" style="fill:#fff;"/><path id="path16761" serif:id="path1676" d="M549.061,103.909l2,1.58l2.16,1.25l2.341,1l2.41,0.671l2.5,0.33l2.25,-0l1.59,-0.581l1.331,-0.92l0.75,-0.749l0.5,-1l0.08,-1.081l-0.25,-1.09l-0.58,-0.91l-0.83,-0.671l-3.25,-1.25l-3.341,-0.67l-3,-0.5l-4.08,-1l-2,-0.66l-1.831,-1l-1.67,-1.25l-1.5,-1.42l-1.25,-1.58l-1.08,-1.751l-0.67,-2.09l-0.41,-2.16l-0,-2.17l0.25,-2.16l0.58,-2.171l0.92,-1.92l1.25,-1.83l1.41,-1.58l1.591,-1.42l1.83,-1.171l1.91,-0.91l2.09,-0.59l3,-0.66l3.001,-0.34l3.08,-0l3.08,0.249l3.09,0.59l2.501,0.75l2.41,1l2.34,1.33l2.24,1.42l2,1.75l-7.99,8.491l-2.25,-1.83l-2.501,-1.5l-2.67,-1.16l-1.5,-0.419l-1.58,-0.25l-1.59,0l-1.66,0.42l-1.501,0.749l-1.34,1l-0.66,0.83l-0.34,0.92l0.09,1.081l0.33,0.91l0.58,0.841l1,0.58l5.501,1.081l5,0.67l1.92,0.33l0.081,-0l1.92,0.67l1.83,0.83l1.84,1.09l1.66,1.41l1.421,1.59l1.159,1.75l0.841,1.911l0.58,2.09l0.33,2.08l-0.083,2.17l-0.329,2.08l-0.671,2.08l-1.08,2.091l-1.34,1.91l-1.581,1.75l-1.83,1.5l-2,1.17l-3.25,1.001l-3.33,0.659l-3.421,0.341l-3.33,-0l-3.42,-0.341l-3.331,-0.659l-3,-0.92l-2.92,-1.25l-2.66,-1.58l-2.501,-1.841l-2.34,-2.16l9.421,-8.67l1.752,1.839Z" style="fill:#010001;fill-rule:nonzero;"/></g><g><rect id="path1810" x="427.242" y="47.244" width="56.159" height="94.488" style="fill:#fff;"/><path id="path1812" d="M451.572,70.234l-2.84,0.17l-2.75,0.499l-2.66,0.92l-1.92,0.91l-1.83,1.17l-1.75,1.33l-1.5,1.59l-1.34,1.66l-1.33,2.42l-1,2.58l-0.831,2.59l-0.669,2.58l-0.41,2.67l-0.095,2.75l0.251,2.66l0.499,2.67l0.75,2.58l1.001,2.33l1.25,2.25l1.5,2.09l1.84,1.83l1.99,1.58l2.34,1.42l2.5,1.079l2.66,0.75l2.669,0.33l2.92,0.17l2.91,-0.33l2.84,-0.58l2.16,-0.75l2.09,-1.09l0,2.5l-0.17,1.42l-0.5,1.33l-0.75,1.17l-1,1.001l-1.17,0.75l-1.33,0.42l-3.5,0.33l-3.92,-0.095l-3.91,-0.49l-2.42,-0.59l-2.42,-0.75l-2.25,-1.08l-2.16,-1.34l-6.08,10.42l3.83,1.83l4,1.42l4,1.17l4.16,0.91l3.25,0.25l3.34,0.095l3.25,-0.251l3.33,-0.589l2.67,-0.66l2.579,-1.001l2.411,-1.34l2.249,-1.66l1.59,-1.59l1.25,-1.83l1.08,-2l0.75,-2.08l0.499,-2.17l0.171,-2.25l-0,-45.409l-12.83,0l-0,2.42l-1.75,-1.17l-1.92,-0.83l-2,-0.5l-2.75,-0.5l-2.824,-0.089Zm1.66,11.249l2.09,0.171l1.909,0.579l1.92,0.84l1.08,0.75l1,1.001l0.75,1.159l0.5,1.25l0.34,1.33l0,7.51l-0.34,1.74l-0.5,1.75l-0.58,1.26l-0.83,1.08l-1.09,0.83l-1.16,0.67l-1.75,0.58l-1.75,0.25l-1.84,-0l-1.75,-0.25l-1.75,-0.5l-1.41,-0.67l-1.34,-0.909l-1.079,-1.171l-0.83,-1.33l-0.5,-1.42l-0.5,-1.91l-0.25,-1.999l0.083,-2l0.25,-1.92l0.58,-2.17l0.92,-2l0.67,-1.25l0.92,-1.08l1.079,-0.83l1.16,-0.67l2,-0.499l1.998,-0.172Z" style="fill:#010001;fill-rule:nonzero;"/></g><g><rect id="path1678" x="281.749" y="47.244" width="51.505" height="94.488" style="fill:#fff;"/><path id="path1680" d="M283.75,70.826l16.421,47.244l14.411,0l16.422,-47.244l-13.331,0l-10.251,29.663l-10.331,-29.663l-13.341,0Z" style="fill:#010001;fill-rule:nonzero;"/></g><g><rect id="path17861" serif:id="path1786" x="386.163" y="47.244" width="41.079" height="94.488" style="fill:#fff;"/><path id="path17881" serif:id="path1788" d="M405.663,118.063l-12.92,-0l-0,-47.159l12.92,-0l-0,4.67l1.58,-1.59l1.75,-1.33l2,-1.171l2.169,-0.75l2.16,-0.499l2.25,-0.161l3.17,-0l0,12.25l-4.42,-0l-1.83,0.159l-1.83,0.5l-1.669,0.84l-1.58,1.079l-1.25,1.25l-1.08,1.58l-0.84,1.67l-0.499,1.83l-0.083,1.84l0.002,24.992Z" style="fill:#010001;fill-rule:nonzero;"/></g></g></g></g></svg>