<?xml version="1.0" encoding="UTF-8" standalone="no"?><!DOCTYPE svg PUBLIC "-//W3C//DTD SVG 1.1//EN" "http://www.w3.org/Graphics/SVG/1.1/DTD/svg11.dtd"><svg width="100%" height="100%" viewBox="0 0 581 396" version="1.1" xmlns="http://www.w3.org/2000/svg" xmlns:xlink="http://www.w3.org/1999/xlink" xml:space="preserve" xmlns:serif="http://www.serif.com/" style="fill-rule:evenodd;clip-rule:evenodd;stroke-linejoin:round;stroke-miterlimit:2;"><g transform="matrix(50,0,0,50,384.355,168.254)"></g><text x="196.733px" y="168.254px" style="font-family:'ArialMT', 'Arial', sans-serif;font-size:50px;">sw=33.5</text><rect id="P557x3" x="0" y="0" width="580.624" height="395.669" style="fill:none;"/><clipPath id="_clip1"><rect x="0" y="0" width="580.624" height="395.669"/></clipPath><g clip-path="url(#_clip1)"><path d="M580.624,35.433c-0,-19.556 -15.877,-35.433 -35.433,-35.433l-509.758,-0c-19.556,-0 -35.433,15.877 -35.433,35.433l0,324.803c0,19.556 15.877,35.433 35.433,35.433l509.758,0c19.556,0 35.433,-15.877 35.433,-35.433l-0,-324.803Z"/><path d="M562.907,35.433c0,-9.778 -7.938,-17.716 -17.716,-17.716l-509.758,-0c-9.778,-0 -17.716,7.938 -17.716,17.716l-0,324.803c-0,9.778 7.938,17.717 17.716,17.717l509.758,-0c9.778,-0 17.716,-7.939 17.716,-17.717l0,-324.803Z" style="fill:#fff;"/><g><g><rect id="path1786" x="492.301" y="47.244" width="41.079" height="94.488" style="fill:#fff;"/><path id="path1788" d="M511.8,118.063l-12.919,-0l-0,-47.159l12.919,-0l0,4.67l1.58,-1.59l1.75,-1.33l2,-1.171l2.17,-0.75l2.16,-0.499l2.25,-0.161l3.17,-0l-0,12.25l-4.42,-0l-1.83,0.159l-1.83,0.5l-1.67,0.84l-1.58,1.079l-1.25,1.25l-1.079,1.58l-0.84,1.67l-0.5,1.83l-0.082,1.84l0.001,24.992Z" style="fill:#010001;fill-rule:nonzero;"/></g><g><rect id="path1754" x="437.062" y="47.244" width="55.239" height="94.488" style="fill:#fff;"/><path id="path1756" d="M463.391,68.994l-2.59,0.16l-2.5,0.421l-2.5,0.75l-2.409,0.92l-2.25,1.24l-2.34,1.75l-2.08,2.09l-1.83,2.25l-1.5,2.58l-1.171,2.67l-0.16,0.499l-0.84,3.33l-0.5,3.42l-0.17,3.41l0.17,3.42l0.5,3.41l0.84,3.25l0.16,0.59l1.171,2.66l1.5,2.5l1.83,2.34l2.08,2.08l2.34,1.75l2.25,1.16l2.409,1.01l2.5,0.739l2.5,0.421l2.59,0.17l2.58,-0.17l2.58,-0.421l2.5,-0.739l2.42,-1.01l2.25,-1.16l2.33,-1.75l2.08,-2.08l1.84,-2.34l1.5,-2.5l1.16,-2.66l0.17,-0.59l0.83,-3.25l0.5,-3.41l0.094,-3.42l-0.094,-3.41l-0.5,-3.42l-0.83,-3.33l-0.17,-0.499l-1.16,-2.67l-1.5,-2.58l-1.84,-2.25l-2.08,-2.09l-2.33,-1.75l-2.25,-1.24l-2.42,-0.92l-2.5,-0.75l-2.58,-0.421l-2.58,-0.16Zm0,11.329l1.91,0.251l2,0.83l1.75,1.33l1.5,1.59l1.25,1.83l0.67,1.5l0.42,1.58l0.33,2.67l0.083,2.58l-0.083,2.58l-0.33,2.67l-0.42,1.58l-0.67,1.5l-1.25,1.84l-1.5,1.58l-1.75,1.33l-2,0.75l-1.91,0.34l-1.84,-0.34l-2,-0.75l-1.83,-1.33l-1.5,-1.58l-1.17,-1.84l-0.66,-1.5l-0.421,-1.58l-0.329,-2.67l-0.17,-2.58l0.17,-2.58l0.329,-2.67l0.421,-1.58l0.66,-1.5l1.17,-1.83l1.5,-1.59l1.83,-1.33l2,-0.83l1.84,-0.251Z" style="fill:#010001;fill-rule:nonzero;"/></g><g><rect id="path1814" x="398.813" y="47.244" width="38.249" height="94.488" style="fill:#fff;"/><path id="path1816" d="M422.232,70.574l9.16,-0l-0,10.659l-9.16,0l0,36.92l-12.92,-0l0,-36.92l-7.58,0l0,-10.659l7.58,-0l0,-6.92l0.171,-1.91l0.409,-1.92l0.84,-1.75l1.001,-1.67l1.33,-1.41l1.5,-1.25l1.67,-1l1.83,-0.67l1.919,-0.33l3.66,-0.094l3.67,0.17l3.58,0.42l3.58,0.75l-2.33,10.5l-3,-0.34l-3.17,0l-0.909,0.095l-0.92,0.409l-0.83,0.591l-0.58,0.75l-0.421,0.911l-0.094,1l0.014,3.668Z" style="fill:#010001;fill-rule:nonzero;"/></g></g><g><g><rect id="path1706" x="263.546" y="47.244" width="57.569" height="94.488" style="fill:#fff;"/><path id="path1708" d="M293.955,68.904l-2.5,0.25l-2.5,0.58l-2.329,0.84l-2.33,1.16l-2.09,1.34l-0,-2.171l-12.91,0l-0,61.329l12.91,0l-0,-17.329l1.59,1.41l1.75,1.079l1.909,0.84l2.84,0.75l2.99,0.41l2.92,-0l2.92,-0.33l2.83,-0.75l2.75,-1.079l2.33,-1.42l2.17,-1.83l1.83,-2l1.5,-2.33l1.171,-2.42l1.17,-3.25l0.739,-3.33l0.5,-3.42l0.095,-3.41l-0.171,-3.51l-0.579,-3.33l-0.921,-3.33l-1.159,-3.25l-0.92,-1.83l-1.08,-1.75l-1.34,-1.5l-1.91,-1.75l-2.09,-1.5l-2.16,-1.17l-2.42,-1l-2.42,-0.58l-2.49,-0.421l-2.595,0.002Zm-1.92,11.419l2,0.083l1.84,0.421l1.83,0.83l1.58,1.079l1.09,1.001l0.91,1.34l0.75,1.66l0.67,2.5l0.499,2.67l0.083,2.58l-0.16,2.67l-0.499,2.58l-0.75,2.579l-0.75,1.42l-1.001,1.25l-1.25,1.08l-1.34,0.84l-1.5,0.499l-1.909,0.5l-1.92,0.161l-1.83,-0.251l-1.84,-0.58l-1.74,-0.83l-1.5,-1.171l-1.26,-1.5l-0.74,-1l-0.59,-1.079l-0.33,-1.25l-0.17,-1.25l0,-10.25l0.251,-1.58l0.589,-1.5l0.911,-1.42l1.09,-1.171l1.5,-1.159l1.74,-0.921l1.84,-0.579l1.906,-0.252Z" style="fill:#010001;fill-rule:nonzero;"/></g><g><rect id="path1746" x="180.888" y="47.244" width="82.658" height="94.488" style="fill:#fff;"/><path id="path1748" d="M251.796,77.233l-1.67,-1.909l-1.92,-1.67l-2.08,-1.42l-2.25,-1.16l-2.41,-0.84l-2.75,-0.5l-2.089,-0.082l-2.08,0.25l-2.08,0.421l-1.92,0.66l-1.92,0.92l-1.75,1.25l-1.58,1.42l-1.42,1.66l-1.16,-1.83l-1.42,-1.5l-1.66,-1.25l-1.92,-0.92l-1.5,-0.5l-2.75,-0.499l-2.42,-0.083l-2.33,0.329l-2.33,0.591l-2.17,0.909l-2.08,1.25l-1.92,1.5l0,-3.33l-12.909,0l-0,47.16l12.909,-0l0,-28.33l0.17,-1.66l0.661,-1.59l1,-1.5l1.34,-1.25l1.5,-1l2.66,-0.91l1,-0.094l0.92,0.094l0.421,0.083l1.75,0.75l1.25,1.08l1,1.34l0.66,1.58l0.421,1.669l0.083,1.66l-0,28.08l12.919,-0l0,-28.33l0.161,-1.66l0.589,-1.59l1.08,-1.499l1.33,-1.25l1.5,-1.001l2.67,-0.909l0.92,-0.095l1,0.095l0.33,0.082l1.75,0.75l1.25,1.08l1.079,1.34l0.67,1.58l0.33,1.67l0.094,1.66l0,28.079l12.91,0l-12.91,0l12.91,0l-0,-28.159l-0.083,-2.75l-0.499,-2.67l-0.75,-2.58l-1.091,-2.5l-1.416,-2.172Z" style="fill:#010001;fill-rule:nonzero;"/></g><g><rect id="path1666" x="123.313" y="47.244" width="57.575" height="94.488" style="fill:#fff;"/><path id="path1668" d="M129.643,70.826l12.921,0l-12.921,0l12.921,0l0,28.163l0.16,1.67l0.34,1.66l0.66,1.5l1,1.42l1.34,1.081l1.751,0.749l1.83,0.251l1.92,-0l1.91,-0.41l1.75,-0.671l1.58,-1l1.25,-1.25l1.09,-1.5l0.581,-1.58l0.17,-1.67l0,-28.413l12.911,0l0,47.244l-12.911,0l0,-3.33l-1.84,1.5l-2.08,1.16l-2.25,0.92l-2.251,0.67l-2.41,0.251l-2.42,-0l-2.75,-0.501l-2.421,-0.84l-2.25,-1.16l-2.16,-1.42l-1.84,-1.67l-1.75,-1.91l-1.41,-2.17l-1,-2.501l-0.751,-2.58l-0.5,-2.75l-0.17,-2.67l0,-28.243Z" style="fill:#010001;fill-rule:nonzero;"/></g><g><rect id="path1674" x="321.121" y="47.244" width="48.164" height="94.488" style="fill:#fff;"/><path id="path1676" d="M333.872,103.909l2,1.58l2.16,1.25l2.341,1l2.41,0.671l2.5,0.33l2.25,-0l1.59,-0.581l1.33,-0.92l0.751,-0.749l0.5,-1l0.08,-1.081l-0.25,-1.09l-0.58,-0.91l-0.83,-0.671l-3.25,-1.25l-3.341,-0.67l-3,-0.5l-4.08,-1l-2.001,-0.66l-1.83,-1l-1.67,-1.25l-1.5,-1.42l-1.25,-1.58l-1.08,-1.751l-0.67,-2.09l-0.41,-2.16l-0,-2.17l0.25,-2.16l0.58,-2.171l0.92,-1.92l1.25,-1.83l1.41,-1.58l1.59,-1.42l1.831,-1.171l1.91,-0.91l2.09,-0.59l3,-0.66l3,-0.34l3.081,-0l3.08,0.249l3.09,0.59l2.5,0.75l2.411,1l2.34,1.33l2.24,1.42l2,1.75l-7.99,8.491l-2.251,-1.83l-2.5,-1.5l-2.67,-1.16l-1.5,-0.419l-1.58,-0.25l-1.59,0l-1.661,0.42l-1.5,0.749l-1.34,1l-0.66,0.83l-0.34,0.92l0.09,1.081l0.33,0.91l0.58,0.841l1,0.58l5.501,1.081l5,0.67l1.92,0.33l0.081,-0l1.92,0.67l1.83,0.83l1.84,1.09l1.66,1.41l1.42,1.59l1.16,1.75l0.841,1.911l0.58,2.09l0.33,2.08l-0.083,2.17l-0.33,2.08l-0.67,2.08l-1.08,2.091l-1.341,1.91l-1.58,1.75l-1.83,1.5l-2,1.17l-3.25,1.001l-3.331,0.659l-3.42,0.341l-3.33,-0l-3.421,-0.341l-3.33,-0.659l-3,-0.92l-2.92,-1.25l-2.661,-1.58l-2.5,-1.841l-2.34,-2.16l9.421,-8.67l1.752,1.839Z" style="fill:#010001;fill-rule:nonzero;"/></g><g id="H"><rect id="path1630" x="47.244" y="47.244" width="76.069" height="94.488" style="fill:#fff;"/><path id="path1632" d="M98.983,77.154l0,-25.24l13.58,0l-0,66.159l-13.58,-0l0,-28l-26.749,0l-0,28l-13.58,-0l-0,-66.159l13.58,0l-0,25.24l26.749,-0Z" style="fill:#010001;fill-rule:nonzero;"/></g></g><g><g><rect id="path17861" serif:id="path1786" x="386.024" y="141.732" width="41.079" height="94.488" style="fill:#fff;"/><path id="path17881" serif:id="path1788" d="M405.524,212.551l-12.92,-0l0,-47.159l12.92,-0l-0,4.67l1.58,-1.59l1.75,-1.33l2,-1.171l2.17,-0.75l2.16,-0.499l2.25,-0.161l3.17,0l-0,12.25l-4.42,-0l-1.83,0.159l-1.83,0.5l-1.67,0.84l-1.58,1.079l-1.25,1.25l-1.08,1.58l-0.839,1.67l-0.5,1.83l-0.083,1.84l0.002,24.992Z" style="fill:#010001;fill-rule:nonzero;"/></g><g><rect id="path1818" x="427.104" y="141.732" width="57.159" height="94.488" style="fill:#fff;"/><path id="path1820" d="M464.263,146.482l-0,21.16l-2.16,-1.42l-2.25,-1.16l-2.42,-0.84l-2.41,-0.58l-2.59,-0.25l-2.5,0.094l-2.5,0.33l-2.5,0.66l-2.33,0.92l-2.25,1.25l-2.08,1.42l-2.13,2.04l-1.71,2.21l-1.25,2.37l-1.33,3.46l-0.83,3.33l-0.58,3.42l-0.25,3.42l0.16,3.41l0.421,3.42l0.83,3.33l1.09,3.25l1.24,2.5l1.5,2.249l1.84,2.081l2.08,1.749l2.33,1.42l2.75,1.08l2.92,0.75l2.92,0.34l2.91,0l2.92,-0.42l2.83,-0.75l2,-0.75l1.75,-1.171l1.58,-1.41l-0,3.25l12.92,0l-0,-66.158l-12.921,-0.004Zm-9.91,28.33l1.91,0.25l1.92,0.58l1.67,0.92l1.58,1.16l1.079,1.25l0.84,1.34l0.58,1.5l0.33,1.66l-0,10.17l-0.16,1.25l-0.34,1.25l-0.58,1.079l-0.75,1.08l-1.33,1.42l-1.5,1.17l-1.67,0.83l-1.83,0.58l-1.92,0.251l-1.91,-0.161l-1.84,-0.42l-1.5,-0.58l-1.41,-0.84l-1.17,-1.08l-1.001,-1.25l-0.75,-1.42l-0.83,-2.5l-0.42,-2.659l-0.251,-2.58l0.17,-2.67l0.41,-2.58l0.75,-2.59l0.75,-1.66l0.84,-1.25l1.16,-1.09l1.59,-1.08l1.75,-0.75l1.91,-0.499l1.923,-0.081Z" style="fill:#010001;fill-rule:nonzero;"/></g><g><rect id="path1698" x="332.695" y="141.732" width="53.329" height="94.488" style="fill:#fff;"/><path id="path1700" d="M357.525,163.482l-3.08,0.16l-3,0.58l-3.75,1.091l-3.67,1.41l-3.5,1.669l-3.41,1.92l6.33,9.66l2.58,-1.58l2.67,-1.25l2.83,-1l2.92,-0.75l3,-0.421l1.66,-0.082l1.75,0.329l1.58,0.59l0.92,0.58l0.75,0.83l0.5,0.92l0.17,1.08l-0,3l-4.17,0.17l-4.08,0.499l-4.08,0.75l-4,1.08l-3.92,1.42l-1.66,1l-1.59,1.25l-1.42,1.5l-1.16,1.58l-0.92,1.83l-0.66,1.92l-0.34,2l-0.083,2l0.17,2l0.49,1.92l0.76,1.91l1,1.75l1.24,1.59l1.42,1.41l1.67,1.17l2.41,1.16l2.59,0.92l2.75,0.589l2.75,0.33l2.75,-0.083l2.66,-0.34l2.67,-0.66l1.42,-0.67l1.33,-0.83l1.079,-1.001l0.92,-1.25l1.001,1.33l1.25,1.001l1.42,0.75l2.58,1l2.66,0.58l2.749,0.33l4.59,-10.08l-1.09,-0l-1.079,-0.16l-1.08,-0.499l-0.84,-0.67l-0.66,-0.92l-0.42,-1l-0.17,-1.16l-0,-22.33l-0.161,-1.84l-0.42,-1.83l-0.75,-1.67l-0.921,-1.58l-1.25,-1.5l-1.41,-1.17l-1.589,-1.001l-2.25,-0.989l-2.41,-0.84l-2.92,-0.83l-3.08,-0.421l-2.996,-0.151Zm7.25,28.069l-0,6.75l-0.17,1.25l-0.58,1.171l-0.75,1l-1.09,0.75l-1.16,0.42l-2.33,0.33l-2.34,0l-2.33,-0.33l-1.17,-0.42l-1.001,-0.75l-0.83,-0.92l-0.58,-1.08l-0.34,-1.079l-0,-1.171l0.34,-1.17l0.58,-0.911l0.83,-0.839l1.001,-0.58l3.919,-1.001l2.28,-0.47l1.72,-0.36l4.001,-0.59Z" style="fill:#010001;fill-rule:nonzero;"/></g><g><rect id="path1762" x="281.701" y="141.732" width="50.995" height="94.488" style="fill:#fff;"/><path id="path1764" d="M295.612,227.89l-4.58,-0.41l-4.501,-0.75l1.581,-11.341l6.67,0.92l1.081,-0.083l1,-0.34l1,-0.581l0.751,-0.749l0.5,-0.92l0.34,-1.081l0,-1.079l-0.17,-1.09l-16.161,-45.074l12.991,0l10.251,28.583l10.251,-28.583l13.081,0l-20.082,55.995l-0.751,1.58l-1,1.5l-1.25,1.25l-1.41,1l-1.59,0.75l-1.751,0.42l-1.75,0.17l-4.501,-0.087Z" style="fill:#010001;fill-rule:nonzero;"/></g><g><rect id="path16741" serif:id="path1674" x="484.262" y="141.732" width="48.164" height="94.488" style="fill:#fff;"/><path id="path16761" serif:id="path1676" d="M497.014,198.397l2,1.58l2.16,1.251l2.34,1l2.41,0.67l2.5,0.33l2.251,-0l1.59,-0.581l1.33,-0.919l0.75,-0.75l0.5,-1l0.081,-1.081l-0.251,-1.09l-0.58,-0.91l-0.83,-0.67l-3.25,-1.251l-3.34,-0.67l-3,-0.5l-4.081,-1l-2,-0.66l-1.83,-1l-1.67,-1.25l-1.5,-1.42l-1.251,-1.58l-1.08,-1.75l-0.67,-2.091l-0.41,-2.16l0,-2.17l0.25,-2.16l0.58,-2.17l0.921,-1.921l1.25,-1.83l1.41,-1.58l1.59,-1.42l1.83,-1.17l1.91,-0.911l2.09,-0.59l3.001,-0.659l3,-0.341l3.08,0l3.08,0.25l3.091,0.59l2.5,0.749l2.41,1l2.34,1.33l2.241,1.421l2,1.75l-7.991,8.49l-2.25,-1.83l-2.5,-1.5l-2.671,-1.16l-1.5,-0.419l-1.58,-0.25l-1.59,0l-1.66,0.42l-1.5,0.749l-1.34,1.001l-0.66,0.83l-0.34,0.919l0.089,1.081l0.33,0.91l0.58,0.841l1.001,0.58l5.5,1.081l5.001,0.67l1.92,0.33l0.08,-0l1.92,0.67l1.83,0.83l1.841,1.09l1.66,1.41l1.42,1.59l1.16,1.751l0.84,1.91l0.581,2.09l0.33,2.08l-0.083,2.17l-0.33,2.081l-0.67,2.08l-1.081,2.09l-1.34,1.91l-1.58,1.75l-1.83,1.5l-2.001,1.171l-3.25,1l-3.33,0.66l-3.42,0.34l-3.331,0l-3.42,-0.34l-3.33,-0.66l-3.001,-0.92l-2.92,-1.25l-2.66,-1.58l-2.5,-1.84l-2.34,-2.16l9.42,-8.671l1.753,1.839Z" style="fill:#010001;fill-rule:nonzero;"/></g></g><g><g><rect id="path1854" x="113.356" y="141.732" width="69.409" height="94.488" style="fill:#fff;"/><path id="path1856" d="M146.025,144.732l-3.089,0.33l-2.91,0.67l-2.92,0.91l-2.75,1.34l-2.5,1.66l-2.41,1.92l-2.09,2.17l-2,3l-1.66,3.25l-1.34,3.41l-0.91,3.5l-0.84,4.09l-0.41,4.16l-0.09,4.25l0.09,4.169l0.41,4.16l0.84,4.17l0.91,3.5l1.34,3.33l1.66,3.25l2,3.08l2.09,2.17l2.41,1.92l2.5,1.58l2.75,1.33l2.92,1l2.91,0.59l3.089,0.33l4,-0l3,-0.33l2.91,-0.59l2.92,-1l2.75,-1.33l2.5,-1.58l2.41,-1.92l2.09,-2.17l2,-3.08l1.66,-3.25l1.34,-3.33l1,-3.5l0.75,-4.17l0.41,-4.16l0.09,-4.169l-0.09,-4.25l-0.41,-4.16l-0.75,-4.09l-1,-3.5l-1.34,-3.41l-1.66,-3.25l-2,-3l-2.09,-2.17l-2.41,-1.92l-2.5,-1.66l-2.75,-1.34l-2.92,-0.91l-2.91,-0.67l-3,-0.33l-4,0Zm2,12.33l1.83,0.08l1.83,0.42l1.75,0.67l1.67,0.91l1.5,1.17l1.25,1.42l1.08,1.5l0.84,1.75l1.08,3l0.66,3.25l0.42,4.08l0.09,4.08l-0.09,4.079l-0.42,4l-0.66,3.25l-1.08,3.09l-0.84,1.66l-1.08,1.58l-1.25,1.34l-1.5,1.17l-1.67,0.91l-1.75,0.67l-1.83,0.41l-1.83,0.09l-1.92,-0.09l-1.83,-0.41l-1.749,-0.67l-1.67,-0.91l-1.5,-1.17l-1.25,-1.34l-1.08,-1.58l-0.84,-1.66l-1.08,-3.09l-0.58,-3.25l-0.42,-4l-0.17,-4.079l0.17,-4.08l0.42,-4.08l0.58,-3.25l1.08,-3l0.84,-1.75l1.08,-1.5l1.25,-1.42l1.5,-1.17l1.67,-0.91l1.749,-0.67l1.83,-0.42l1.92,-0.08Z" style="fill:#010001;fill-rule:nonzero;"/></g><g><rect id="path18541" serif:id="path1854" x="182.765" y="141.732" width="69.409" height="94.488" style="fill:#fff;"/><path id="path18561" serif:id="path1856" d="M215.434,144.732l-3.09,0.33l-2.91,0.67l-2.92,0.91l-2.75,1.34l-2.5,1.66l-2.41,1.92l-2.09,2.17l-1.999,3l-1.66,3.25l-1.34,3.41l-0.91,3.5l-0.84,4.09l-0.41,4.16l-0.09,4.25l0.09,4.169l0.41,4.16l0.84,4.17l0.91,3.5l1.34,3.33l1.66,3.25l1.999,3.08l2.09,2.17l2.41,1.92l2.5,1.58l2.75,1.33l2.92,1l2.91,0.59l3.09,0.33l4,-0l3,-0.33l2.91,-0.59l2.92,-1l2.75,-1.33l2.5,-1.58l2.41,-1.92l2.09,-2.17l2,-3.08l1.66,-3.25l1.34,-3.33l1,-3.5l0.75,-4.17l0.409,-4.16l0.09,-4.169l-0.09,-4.25l-0.409,-4.16l-0.75,-4.09l-1,-3.5l-1.34,-3.41l-1.66,-3.25l-2,-3l-2.09,-2.17l-2.41,-1.92l-2.5,-1.66l-2.75,-1.34l-2.92,-0.91l-2.91,-0.67l-3,-0.33l-4,0Zm2,12.33l1.83,0.08l1.83,0.42l1.75,0.67l1.67,0.91l1.5,1.17l1.25,1.42l1.08,1.5l0.84,1.75l1.08,3l0.66,3.25l0.42,4.08l0.09,4.08l-0.09,4.079l-0.42,4l-0.66,3.25l-1.08,3.09l-0.84,1.66l-1.08,1.58l-1.25,1.34l-1.5,1.17l-1.67,0.91l-1.75,0.67l-1.83,0.41l-1.83,0.09l-1.92,-0.09l-1.83,-0.41l-1.75,-0.67l-1.67,-0.91l-1.5,-1.17l-1.25,-1.34l-1.08,-1.58l-0.84,-1.66l-1.08,-3.09l-0.58,-3.25l-0.42,-4l-0.17,-4.079l0.17,-4.08l0.42,-4.08l0.58,-3.25l1.08,-3l0.84,-1.75l1.08,-1.5l1.25,-1.42l1.5,-1.17l1.67,-0.91l1.75,-0.67l1.83,-0.42l1.92,-0.08Z" style="fill:#010001;fill-rule:nonzero;"/></g><g><rect id="path1858" x="48.197" y="141.732" width="65.159" height="94.488" style="fill:#fff;"/><path id="path1860" d="M53.367,165.062l0.58,-2.58l0.92,-2.59l1.16,-2.33l1.42,-2.25l1.67,-2.08l1.91,-1.84l2.17,-1.66l2.58,-1.5l2.84,-1.25l2.83,-1l3,-0.67l3,-0.33l3.08,-0.09l3,0.25l3,0.59l2.92,0.83l2.83,1.08l2.169,1.17l2,1.33l1.83,1.59l1.58,1.83l1.34,2l1.08,2.17l0.75,2.25l0.5,2.33l0.25,2.42l-0.25,2.66l-0.42,2.67l-0.75,2.58l-0.83,1.58l-1.17,1.42l-1.33,1.17l-1.5,0.91l-1.67,0.67l1.92,0.83l1.83,1.09l1.5,1.409l1.25,1.67l0.92,1.83l0.75,3.42l0.33,3.42l-0.17,3.41l-0.5,3.33l-0.58,2.25l-0.91,2.17l-1.09,2.08l-1.41,1.92l-1.59,1.67l-1.83,1.5l-2,1.16l-2.169,1l-2.25,0.67l-4.41,0.67l-4.42,0.25l-4.5,-0.09l-4.41,-0.5l-2.5,-0.58l-2.5,-0.83l-2.25,-1.09l-2.25,-1.41l-1.92,-1.67l-2.17,-2.67l-1.83,-2.91l-1.42,-3.09l-1.16,-3.25l-0.75,-3.33l13.5,-2.16l0.58,2.16l0.83,2.09l1.17,1.99l1.5,1.67l1.67,1.5l1.75,0.83l1.83,0.59l1.91,0.41l1.92,0.09l2.17,-0.09l2.16,-0.5l2,-0.91l1.92,-1.17l1.08,-1.25l0.84,-1.42l0.5,-1.66l0.16,-2.17l-0.08,-1.41l-0.33,-1.34l-0.67,-1.33l-0.83,-1.17l-1.09,-0.91l-1.16,-0.75l-1.92,-0.5l-2,-0.25l-8.33,-0.5l-0,-11.999l6.58,-0.5l2.25,-0.34l2.25,-0.66l1.67,-0.92l1.5,-1.25l0.83,-1.25l0.5,-1.41l0.17,-1.42l-0.17,-1.5l-0.5,-1.42l-1,-1.33l-1.17,-1.25l-1.41,-0.92l-1.5,-0.66l-2.25,-0.42l-2.25,-0.17l-2.25,0.17l-2.25,0.42l-2.17,0.66l-2.08,1l-1.42,1.17l-1.16,1.33l-0.84,1.59l-0.58,1.66l-0.33,1.84l-13.5,-1.92Z" style="fill:#010001;fill-rule:nonzero;"/></g></g><clipPath id="_clip2"><polygon id="S12-P5-I1.afdesign" points="376.189,348.425 376.189,253.937 187.213,253.937 187.213,348.425 376.189,348.425 "/></clipPath><g clip-path="url(#_clip2)"><path id="S0x1-16sw-Arrow-90--B" serif:id="S0x1 16sw Arrow 90° B" d="M376.189,253.937l0,94.488l-188.976,0l-0,-94.488l188.976,0Z" style="fill:none;"/><clipPath id="_clip3"><path d="M376.189,253.937l0,94.488l-188.976,0l-0,-94.488l188.976,0Z"/></clipPath><g clip-path="url(#_clip3)"><path d="M313.197,316.929l-31.496,31.496l47.244,0l47.244,-47.244l-47.244,-47.244l-47.244,0l31.496,31.496l-125.984,0l-0,31.496l125.984,0Z"/></g></g></g></svg>