<?xml version="1.0" encoding="UTF-8" standalone="no"?><!DOCTYPE svg PUBLIC "-//W3C//DTD SVG 1.1//EN" "http://www.w3.org/Graphics/SVG/1.1/DTD/svg11.dtd"><svg width="100%" height="100%" viewBox="0 0 514 454" version="1.1" xmlns="http://www.w3.org/2000/svg" xmlns:xlink="http://www.w3.org/1999/xlink" xml:space="preserve" xmlns:serif="http://www.serif.com/" style="fill-rule:evenodd;clip-rule:evenodd;stroke-linejoin:round;stroke-miterlimit:2;"><g transform="matrix(50,0,0,50,350.88,262.709)"></g><text x="163.258px" y="262.709px" style="font-family:'ArialMT', 'Arial', sans-serif;font-size:50px;">sw=38.4</text><g id="_557-Slippery-Road-Ahead" serif:id="557 Slippery Road Ahead"><path d="M229.215,15.849c5.656,-9.807 16.106,-15.849 27.415,-15.849c11.309,-0 21.759,6.042 27.415,15.849c53.537,92.841 171.425,297.275 224.971,390.132c5.657,9.81 5.658,21.897 0.003,31.708c-5.655,9.81 -16.106,15.854 -27.417,15.854l-449.944,0c-11.311,0 -21.763,-6.044 -27.418,-15.854c-5.655,-9.811 -5.653,-21.898 0.003,-31.708c53.547,-92.857 171.435,-297.291 224.972,-390.132Z" style="fill:#e31837;"/><path d="M256.841,56.693l202.961,351.496l-405.922,-0l202.961,-351.496Z" style="fill:#fff;"/><path d="M296.8,342.628l-11.321,0.12l-11.32,0.04l-11.321,-0.16l3.6,0.92l3.52,1.04l3.481,1.2l3.44,1.36l3.4,1.52l3.28,1.641l3.24,1.8l3.16,1.92l3.081,2.04l2.96,2.2l2.88,2.28l1.28,1.28l1.2,1.36l1.04,1.48l0.92,1.52l0.8,1.641l0.64,1.68l0.48,1.76l0.36,1.76l0.16,1.8l0.04,1.8l-0.12,1.8l-0.32,1.8l-0.44,1.76l-0.56,1.68l-0.76,1.64l-0.88,1.601l-1,1.48l-3.44,4.68l-36.882,-0l9.881,-6.961l1.08,-0.84l0.96,-0.96l0.84,-1.04l0.72,-1.12l0.6,-1.2l0.48,-1.28l0.32,-1.28l0.2,-1.36l0.04,-1.32l-0.12,-1.36l-0.28,-1.32l-0.4,-1.28l-0.52,-1.24l-0.68,-1.16l-0.8,-1.08l-0.88,-1.001l-1,-0.88l-1.121,-0.76l-1.16,-0.64l-1.28,-0.52l-3.16,-1.2l-3.12,-1.36l-3.04,-1.48l-3,-1.6l-2.921,-1.76l-2.84,-1.88l-2.72,-2l-2.68,-2.12l-2.52,-2.24l-2.48,-2.321l-2.32,-2.48l-1,-1.2l-0.92,-1.32l-0.76,-1.36l-6.721,-0.48l-6.72,-0.64l-6.721,-0.76l-6.68,-0.96l-6.68,-1.08l-6.641,-1.2l-6.6,-1.4l-6.6,-1.52l-6.561,-1.64l-6.48,-1.841l-6.48,-1.96l-6.401,-2.08l-6.4,-2.24l-1.24,-0.56l-1.2,-0.64l-1.12,-0.8l-1.04,-0.92l-0.96,-1l-0.84,-1.08l-0.68,-1.16l-0.6,-1.24l-0.44,-1.32l-0.32,-1.32l-0.2,-1.36l-0.04,-1.401l0.12,-1.36l0.24,-1.36l0.4,-1.32l0.52,-1.24l0.64,-1.24l0.76,-1.12l0.92,-1.04l0.96,-0.96l2.24,-1.84l2.36,-1.72l2.4,-1.6l2.48,-1.48l2.6,-1.36l2.601,-1.201l2.72,-1.08l2.72,-0.96l2.8,-0.76l2.8,-0.68l24.201,4.281l-3.36,1l-3.28,1.2l-3.24,1.32l-3.2,1.48l-3.08,1.64l-3.041,1.76l-2.96,1.92l-2.84,2.04l-0.8,0.72l-0.72,0.8l-0.56,0.88l-0.44,0.96l-0.32,1.04l-0.16,1.04l-0,1.08l0.12,1.041l0.32,1.04l0.4,0.96l0.6,0.92l0.68,0.8l0.8,0.72l0.88,0.6l0.96,0.48l1,0.32l7.641,1.64l7.64,1.48l7.68,1.32l7.721,1.16l7.72,1.04l7.761,0.84l7.76,0.68l7.801,0.56l0.72,-1.6l0.92,-1.48l1.08,-1.36l1.2,-1.28l2.28,-2.04l2.36,-1.96l2.52,-1.8l2.56,-1.64l2.68,-1.52l2.761,-1.401l2.8,-1.2l2.88,-1.08l2.96,-0.92l2.96,-0.76l3.04,-0.6l3.04,-0.4l24.202,4.24l-3.4,0.48l-3.361,0.641l-3.32,0.76l-3.28,0.92l-3.28,1.08l-3.16,1.2l-3.16,1.36l-3.081,1.48l-3,1.64l-2.92,1.76l-2.84,1.92l-2.76,2.04l-2.64,2.12l13.04,0.56l13.081,0.36l13.041,0.2l13.08,0.08l13.041,-0.12l5.68,-0.24l5.681,-0.08l5.679,0.08l5.681,0.24l5.681,0.4l5.679,0.52l5.641,0.681l5.6,0.84l5.601,1l2.119,0.48l2.08,0.6l2.04,0.76l1.96,0.88l1.921,1.04l1.84,1.16l1.76,1.28l1.64,1.36l1.601,1.52l1.44,1.6l1.36,1.68l1.24,1.8l1.119,1.84l0.961,1.921l0.88,2l0.72,2.04l0.559,2.12l0.441,2.12l0.28,2.16l0.159,2.16l0,2.16l-0.159,2.16l-0.32,2.161l-4.281,24.961l-38.242,-0l14.922,-20.521l0.8,-1.24l0.679,-1.32l0.561,-1.36l0.4,-1.4l0.28,-1.441l0.16,-1.48l-0,-1.48l-0.16,-1.48l-0.28,-1.44l-0.44,-1.4l-0.56,-1.36l-0.72,-1.28l-0.8,-1.24l-0.96,-1.12l-1.04,-1.04l-1.121,-0.96l-1.24,-0.8l-1.28,-0.72l-1.36,-0.56l-1.4,-0.44l-5.76,-1.401l-5.8,-1.2l-5.841,-1.08l-5.881,-0.92l-5.879,-0.72l-5.881,-0.6l-5.92,-0.4l-5.92,-0.28l-5.921,-0.08l-11.32,0.32Zm6.4,-42.522l3.96,-22.401l1.08,-0.44l1.04,-0.6l0.96,-0.72l0.88,-0.84l0.761,-0.88l0.64,-1l0.56,-1.08l0.4,-1.12l0.28,-1.16l5,-28.362l0.12,-1.28l-0,-1.24l-0.16,-1.28l-0.32,-1.24l-0.48,-1.16l-0.64,-1.12l-0.76,-1.04l-0.84,-0.92l-1,-0.8l-1.08,-0.68l-1.121,-0.56l-1.24,-0.4l0.56,-33.922l-0.04,-1.72l-0.24,-1.72l-0.4,-1.68l-0.56,-1.601l-0.76,-1.56l-0.88,-1.48l-1.04,-1.4l-1.16,-1.28l-1.28,-1.16l-1.4,-1l-1.48,-0.88l-1.56,-0.72l-1.64,-0.52l-1.68,-0.4l-34.562,-6.08l-34.562,-6.121l-1.72,-0.2l-1.72,-0.04l-1.72,0.12l-1.68,0.32l-1.68,0.48l-1.601,0.64l-1.52,0.8l-1.44,0.96l-1.36,1.08l-1.2,1.201l-1.08,1.36l-0.96,1.44l-0.8,1.52l-0.68,1.6l-11.081,32.041l-1.24,0l-1.28,0.12l-1.24,0.241l-1.2,0.44l-1.12,0.56l-1.08,0.72l-0.96,0.84l-0.84,0.96l-0.72,1.04l-0.6,1.12l-0.44,1.2l-0.32,1.2l-5,28.361l-0.12,1.2l-0,1.201l0.12,1.16l0.28,1.2l0.4,1.12l0.56,1.04l0.64,1l0.76,0.92l0.88,0.84l-3.96,22.401l0.84,1.16l0.92,1.12l1.08,1l1.16,0.88l1.24,0.76l1.28,0.6l1.4,0.48l1.4,0.32l1.44,0.2l1.44,0l1.44,-0.12l1.44,-0.28l1.4,-0.44l1.32,-0.56l1.241,-0.72l1.2,-0.84l3.64,-20.721l10,2.4l10.041,2.24l10.04,2.161l10.081,2l10.16,1.56l10.201,1.44l10.161,1.28l10.24,1.16l-3.68,20.721l0.84,1.2l0.92,1.12l1.08,1l1.16,0.88l1.24,0.72l1.28,0.64l1.4,0.48l1.4,0.32l1.44,0.16l1.44,0.041l1.441,-0.121l1.44,-0.28l1.4,-0.44l1.32,-0.6l1.28,-0.68l1.16,-0.88Zm-41.882,-117.366l12.361,2.2l20.881,4.96l1.4,0.52l1.36,0.68l1.32,0.8l1.2,0.92l1.12,1.04l1,1.12l0.88,1.241l0.76,1.32l0.64,1.36l0.48,1.44l0.36,1.48l0.2,1.52l0.04,1.52l-0.16,9.721l-0.08,0.96l-0.2,0.92l-0.36,0.88l-0.44,0.84l-0.56,0.76l-0.68,0.68l-0.76,0.56l-0.84,0.48l-0.88,0.36l-0.92,0.2l-0.96,0.08l-0.96,-0.04l-0.92,-0.16l-20.241,-4.32l-20.281,-4.161l-20.481,-3l-20.522,-2.88l-0.92,-0.16l-0.92,-0.28l-0.88,-0.44l-0.76,-0.52l-0.72,-0.6l-0.64,-0.72l-0.52,-0.8l-0.4,-0.88l-0.28,-0.92l-0.12,-0.92l-0.04,-0.96l0.12,-0.92l0.24,-0.92l3.2,-9.201l0.56,-1.44l0.68,-1.32l0.841,-1.28l0.96,-1.2l1.08,-1.08l1.16,-0.96l1.24,-0.88l1.36,-0.72l1.4,-0.6l1.44,-0.44l1.48,-0.32l1.52,-0.12l1.52,-0.04l21.321,2.48l12.321,2.16Z"/></g></svg>