<?xml version="1.0" encoding="UTF-8" standalone="no"?><!DOCTYPE svg PUBLIC "-//W3C//DTD SVG 1.1//EN" "http://www.w3.org/Graphics/SVG/1.1/DTD/svg11.dtd"><svg width="100%" height="100%" viewBox="0 0 581 272" version="1.1" xmlns="http://www.w3.org/2000/svg" xmlns:xlink="http://www.w3.org/1999/xlink" xml:space="preserve" xmlns:serif="http://www.serif.com/" style="fill-rule:evenodd;clip-rule:evenodd;stroke-linejoin:round;stroke-miterlimit:2;"><g transform="matrix(50,0,0,50,342.656,168.254)"></g><text x="196.733px" y="168.254px" style="font-family:'ArialMT', 'Arial', sans-serif;font-size:50px;">sw=23</text><rect id="P557x2" x="0" y="0" width="580.624" height="271.654" style="fill:none;"/><g><path d="M580.624,35.433c-0,-19.556 -15.877,-35.433 -35.433,-35.433l-509.758,0c-19.556,0 -35.433,15.877 -35.433,35.433l0,200.787c0,19.557 15.877,35.434 35.433,35.434l509.758,-0c19.556,-0 35.433,-15.877 35.433,-35.434l-0,-200.787Z"/><path d="M562.907,35.433c0,-9.778 -7.938,-17.716 -17.716,-17.716l-509.758,-0c-9.778,-0 -17.716,7.938 -17.716,17.716l-0,200.787c-0,9.778 7.938,17.717 17.716,17.717l509.758,0c9.778,0 17.716,-7.939 17.716,-17.717l0,-200.787Z" style="fill:#fff;"/><g><g><rect id="path1842" x="146.351" y="141.732" width="65.159" height="94.488" style="fill:#fff;"/><path id="path1844" d="M156.85,143.142l-0.082,1.59l-0.251,1.16l-0.58,1.17l-0.669,0.921l-0.92,0.83l-1.08,0.58l-1.079,0.34l-2.84,0.329l-0,6.92l6.42,0l-0,32.66l10.579,-0l0,-46.499l-9.498,-0.001Zm33.66,27.33l-3.16,0.094l-3.09,0.5l-2.24,0.499l-2.17,0.831l-2,1.17l-1.75,1.41l-1.58,1.59l-1.42,1.91l-1,2l-0.75,2.17l-0.5,2.25l-0.083,2.25l0,2.5l10.5,-0l0,-2.25l0.251,-1.75l0.49,-1.58l0.92,-1.5l1.17,-1.25l1.25,-0.84l1.33,-0.58l1.5,-0.25l1.5,0.083l1.42,0.34l1.33,0.66l1.171,1l0.909,1.171l0.67,1.33l0.329,1.42l0.095,1.5l-0.17,0.909l-0.5,2.09l-0.83,2l-1.171,1.83l-1.5,1.59l-6.33,4.83l-6.58,4.5l-6.839,4.25l-0,9.08l33.999,-0l0,-9.08l-16.16,-0l3.16,-1.92l2.92,-2.17l2.66,-2.41l2.5,-2.67l2.25,-2.92l1.25,-1.91l0.84,-2.17l0.66,-2.16l0.25,-2.34l-0.082,-2.67l-0.251,-2.24l-0.58,-2.17l-0.92,-2.08l-1.079,-2l-1.42,-1.92l-1.67,-1.579l-1.91,-1.34l-2.17,-1.001l-2.25,-0.58l-3.169,-0.427Z" style="fill:#010001;fill-rule:nonzero;"/></g><g><rect id="path1806" x="381.364" y="141.732" width="52.909" height="94.488" style="fill:#fff;"/><path id="path1808" d="M406.864,164.142l-2.42,0.17l-2.41,0.41l-2.34,0.75l-2.25,1.09l-2.08,1.25l-2.25,1.66l-2.08,2l-1.75,2.25l-1.42,2.42l-1.17,3l-0.831,3.17l-0.499,3.16l-0.17,3.249l0.25,3.25l0.591,3.17l0.909,3.08l1.169,3l1.08,2.17l1.42,2l1.5,1.83l1.83,1.67l1.92,1.41l2.08,1.25l2.25,0.92l2.34,0.67l2.99,0.58l3.09,0.25l3.079,-0.083l3.08,-0.34l3,-0.66l2.34,-0.84l2.16,-1.079l2,-1.42l1.83,-1.67l1.67,-1.83l-8,-8.08l-1.83,1.67l-2.08,1.33l-2.25,1l-2.169,0.58l-2.17,0.17l-2.16,-0.082l-2.17,-0.421l-2.08,-0.75l-1.42,-0.92l-1.25,-1.16l-1.001,-1.34l-0.75,-1.5l-0.409,-1.66l-0.171,-1.67l31.5,0l-0.17,-3.92l-0.421,-3.91l-0.83,-3.829l-1.17,-3.75l-1.08,-2.5l-1.42,-2.25l-1.66,-2.17l-2,-1.83l-2.17,-1.59l-2.08,-1.25l-2.25,-0.91l-2.42,-0.669l-2.42,-0.421l-2.407,-0.075Zm-0.251,10.75l1.66,-0l1.67,0.329l1.58,0.59l1.42,0.83l1.33,1.079l1.09,1.25l0.831,1.42l0.58,1.58l0.25,1.67l-19.16,0l0.251,-1.67l0.58,-1.58l0.839,-1.42l1.08,-1.25l1.33,-1.079l1.42,-0.83l1.58,-0.59l1.669,-0.329Z" style="fill:#010001;fill-rule:nonzero;"/></g><g><rect id="path1746" x="241.037" y="141.732" width="82.658" height="94.488" style="fill:#fff;"/><path id="path1748" d="M311.946,171.722l-1.67,-1.91l-1.92,-1.67l-2.08,-1.42l-2.25,-1.16l-2.41,-0.84l-2.75,-0.499l-2.09,-0.083l-2.08,0.25l-2.08,0.421l-1.92,0.66l-1.92,0.92l-1.75,1.25l-1.58,1.42l-1.42,1.66l-1.16,-1.83l-1.42,-1.5l-1.66,-1.25l-1.92,-0.92l-1.5,-0.5l-2.75,-0.499l-2.42,-0.083l-2.33,0.33l-2.329,0.59l-2.171,0.91l-2.079,1.25l-1.92,1.5l-0,-3.33l-12.91,-0l-0,47.159l12.91,-0l-0,-28.33l0.17,-1.66l0.66,-1.59l1,-1.5l1.34,-1.25l1.5,-1l2.66,-0.909l1.001,-0.095l0.92,0.095l0.42,0.082l1.75,0.75l1.25,1.08l1.001,1.34l0.66,1.58l0.42,1.67l0.083,1.66l-0,28.079l12.92,0l-0,-28.329l0.16,-1.66l0.59,-1.59l1.079,-1.5l1.33,-1.25l1.5,-1.001l2.67,-0.909l0.92,-0.095l1.001,0.095l0.329,0.083l1.75,0.75l1.25,1.079l1.08,1.34l0.669,1.58l0.33,1.67l0.094,1.66l0,28.079l12.91,0l-12.91,0l12.91,0l0,-28.159l-0.083,-2.75l-0.499,-2.67l-0.75,-2.58l-1.09,-2.5l-1.416,-2.171Z" style="fill:#010001;fill-rule:nonzero;"/></g><g><rect id="path1742" x="350.615" y="141.732" width="30.749" height="94.488" style="fill:#fff;"/><path id="path1744" d="M377.534,200.971l-2.5,0.33l-2.5,0.094l-0.92,-0.094l-0.75,-0.41l-0.66,-0.67l-0.42,-0.75l-0.17,-0.92l-0,-52.069l-12.91,0l-0,57.319l0.161,1.75l0.499,1.67l0.75,1.58l1.001,1.5l1.249,1.25l1.421,1l1.669,0.67l1.66,0.499l1.75,0.171l4.08,-0.341l4,-0.499l4,-0.75l-1.41,-11.33Z" style="fill:#010001;fill-rule:nonzero;"/></g><g><rect id="path1790" x="323.695" y="141.732" width="26.92" height="94.488" style="fill:#fff;"/><path id="path1792" d="M336.445,145.982l-1.42,0.16l-1.41,0.42l-1.25,0.67l-1.17,0.909l-0.92,1.171l-0.661,1.25l-0.42,1.42l-0.17,1.41l0.17,1.42l0.42,1.42l0.661,1.33l0.92,1.079l1.17,0.92l1.25,0.66l1.41,0.421l1.42,0.17l1.42,-0.17l1.41,-0.421l1.25,-0.66l1.171,-0.92l0.92,-1.079l0.66,-1.33l0.42,-1.42l0.17,-1.42l-0.17,-1.41l-0.42,-1.42l-0.66,-1.25l-0.92,-1.171l-1.171,-0.909l-1.25,-0.67l-1.41,-0.42l-1.42,-0.16Zm-6.5,19.41l0,47.239l12.92,-0l-0,-47.239l-12.92,-0Z" style="fill:#010001;fill-rule:nonzero;"/></g></g><g><g><g><rect id="path1786" x="492.301" y="47.244" width="41.079" height="94.488" style="fill:#fff;"/><path id="path1788" d="M511.8,118.063l-12.919,-0l-0,-47.159l12.919,-0l0,4.67l1.58,-1.59l1.75,-1.33l2,-1.171l2.17,-0.75l2.16,-0.499l2.25,-0.161l3.17,-0l-0,12.25l-4.42,-0l-1.83,0.159l-1.83,0.5l-1.67,0.84l-1.58,1.079l-1.25,1.25l-1.079,1.58l-0.84,1.67l-0.5,1.83l-0.082,1.84l0.001,24.992Z" style="fill:#010001;fill-rule:nonzero;"/></g><g><rect id="path1754" x="437.062" y="47.244" width="55.239" height="94.488" style="fill:#fff;"/><path id="path1756" d="M463.391,68.994l-2.59,0.16l-2.5,0.421l-2.5,0.75l-2.409,0.92l-2.25,1.24l-2.34,1.75l-2.08,2.09l-1.83,2.25l-1.5,2.58l-1.171,2.67l-0.16,0.499l-0.84,3.33l-0.5,3.42l-0.17,3.41l0.17,3.42l0.5,3.41l0.84,3.25l0.16,0.59l1.171,2.66l1.5,2.5l1.83,2.34l2.08,2.08l2.34,1.75l2.25,1.16l2.409,1.01l2.5,0.739l2.5,0.421l2.59,0.17l2.58,-0.17l2.58,-0.421l2.5,-0.739l2.42,-1.01l2.25,-1.16l2.33,-1.75l2.08,-2.08l1.84,-2.34l1.5,-2.5l1.16,-2.66l0.17,-0.59l0.83,-3.25l0.5,-3.41l0.094,-3.42l-0.094,-3.41l-0.5,-3.42l-0.83,-3.33l-0.17,-0.499l-1.16,-2.67l-1.5,-2.58l-1.84,-2.25l-2.08,-2.09l-2.33,-1.75l-2.25,-1.24l-2.42,-0.92l-2.5,-0.75l-2.58,-0.421l-2.58,-0.16Zm0,11.329l1.91,0.251l2,0.83l1.75,1.33l1.5,1.59l1.25,1.83l0.67,1.5l0.42,1.58l0.33,2.67l0.083,2.58l-0.083,2.58l-0.33,2.67l-0.42,1.58l-0.67,1.5l-1.25,1.84l-1.5,1.58l-1.75,1.33l-2,0.75l-1.91,0.34l-1.84,-0.34l-2,-0.75l-1.83,-1.33l-1.5,-1.58l-1.17,-1.84l-0.66,-1.5l-0.421,-1.58l-0.329,-2.67l-0.17,-2.58l0.17,-2.58l0.329,-2.67l0.421,-1.58l0.66,-1.5l1.17,-1.83l1.5,-1.59l1.83,-1.33l2,-0.83l1.84,-0.251Z" style="fill:#010001;fill-rule:nonzero;"/></g><g><rect id="path1814" x="398.813" y="47.244" width="38.249" height="94.488" style="fill:#fff;"/><path id="path1816" d="M422.232,70.574l9.16,-0l-0,10.659l-9.16,0l0,36.92l-12.92,-0l0,-36.92l-7.58,0l0,-10.659l7.58,-0l0,-6.92l0.171,-1.91l0.409,-1.92l0.84,-1.75l1.001,-1.67l1.33,-1.41l1.5,-1.25l1.67,-1l1.83,-0.67l1.919,-0.33l3.66,-0.094l3.67,0.17l3.58,0.42l3.58,0.75l-2.33,10.5l-3,-0.34l-3.17,0l-0.909,0.095l-0.92,0.409l-0.83,0.591l-0.58,0.75l-0.421,0.911l-0.094,1l0.014,3.668Z" style="fill:#010001;fill-rule:nonzero;"/></g></g><g><g><rect id="path1706" x="263.546" y="47.244" width="57.569" height="94.488" style="fill:#fff;"/><path id="path1708" d="M293.955,68.904l-2.5,0.25l-2.5,0.58l-2.329,0.84l-2.33,1.16l-2.09,1.34l-0,-2.171l-12.91,0l-0,61.329l12.91,0l-0,-17.329l1.59,1.41l1.75,1.079l1.909,0.84l2.84,0.75l2.99,0.41l2.92,-0l2.92,-0.33l2.83,-0.75l2.75,-1.079l2.33,-1.42l2.17,-1.83l1.83,-2l1.5,-2.33l1.171,-2.42l1.17,-3.25l0.739,-3.33l0.5,-3.42l0.095,-3.41l-0.171,-3.51l-0.579,-3.33l-0.921,-3.33l-1.159,-3.25l-0.92,-1.83l-1.08,-1.75l-1.34,-1.5l-1.91,-1.75l-2.09,-1.5l-2.16,-1.17l-2.42,-1l-2.42,-0.58l-2.49,-0.421l-2.595,0.002Zm-1.92,11.419l2,0.083l1.84,0.421l1.83,0.83l1.58,1.079l1.09,1.001l0.91,1.34l0.75,1.66l0.67,2.5l0.499,2.67l0.083,2.58l-0.16,2.67l-0.499,2.58l-0.75,2.579l-0.75,1.42l-1.001,1.25l-1.25,1.08l-1.34,0.84l-1.5,0.499l-1.909,0.5l-1.92,0.161l-1.83,-0.251l-1.84,-0.58l-1.74,-0.83l-1.5,-1.171l-1.26,-1.5l-0.74,-1l-0.59,-1.079l-0.33,-1.25l-0.17,-1.25l0,-10.25l0.251,-1.58l0.589,-1.5l0.911,-1.42l1.09,-1.171l1.5,-1.159l1.74,-0.921l1.84,-0.579l1.906,-0.252Z" style="fill:#010001;fill-rule:nonzero;"/></g><g><rect id="path17461" serif:id="path1746" x="180.888" y="47.244" width="82.658" height="94.488" style="fill:#fff;"/><path id="path17481" serif:id="path1748" d="M251.796,77.233l-1.67,-1.909l-1.92,-1.67l-2.08,-1.42l-2.25,-1.16l-2.41,-0.84l-2.75,-0.5l-2.089,-0.082l-2.08,0.25l-2.08,0.421l-1.92,0.66l-1.92,0.92l-1.75,1.25l-1.58,1.42l-1.42,1.66l-1.16,-1.83l-1.42,-1.5l-1.66,-1.25l-1.92,-0.92l-1.5,-0.5l-2.75,-0.499l-2.42,-0.083l-2.33,0.329l-2.33,0.591l-2.17,0.909l-2.08,1.25l-1.92,1.5l0,-3.33l-12.909,0l-0,47.16l12.909,-0l0,-28.33l0.17,-1.66l0.661,-1.59l1,-1.5l1.34,-1.25l1.5,-1l2.66,-0.91l1,-0.094l0.92,0.094l0.421,0.083l1.75,0.75l1.25,1.08l1,1.34l0.66,1.58l0.421,1.669l0.083,1.66l-0,28.08l12.919,-0l0,-28.33l0.161,-1.66l0.589,-1.59l1.08,-1.499l1.33,-1.25l1.5,-1.001l2.67,-0.909l0.92,-0.095l1,0.095l0.33,0.082l1.75,0.75l1.25,1.08l1.079,1.34l0.67,1.58l0.33,1.67l0.094,1.66l0,28.079l12.91,0l-12.91,0l12.91,0l-0,-28.159l-0.083,-2.75l-0.499,-2.67l-0.75,-2.58l-1.091,-2.5l-1.416,-2.172Z" style="fill:#010001;fill-rule:nonzero;"/></g><g><rect id="path1666" x="123.313" y="47.244" width="57.575" height="94.488" style="fill:#fff;"/><path id="path1668" d="M129.643,70.826l12.921,0l-12.921,0l12.921,0l0,28.163l0.16,1.67l0.34,1.66l0.66,1.5l1,1.42l1.34,1.081l1.751,0.749l1.83,0.251l1.92,-0l1.91,-0.41l1.75,-0.671l1.58,-1l1.25,-1.25l1.09,-1.5l0.581,-1.58l0.17,-1.67l0,-28.413l12.911,0l0,47.244l-12.911,0l0,-3.33l-1.84,1.5l-2.08,1.16l-2.25,0.92l-2.251,0.67l-2.41,0.251l-2.42,-0l-2.75,-0.501l-2.421,-0.84l-2.25,-1.16l-2.16,-1.42l-1.84,-1.67l-1.75,-1.91l-1.41,-2.17l-1,-2.501l-0.751,-2.58l-0.5,-2.75l-0.17,-2.67l0,-28.243Z" style="fill:#010001;fill-rule:nonzero;"/></g><g><rect id="path1674" x="321.121" y="47.244" width="48.164" height="94.488" style="fill:#fff;"/><path id="path1676" d="M333.872,103.909l2,1.58l2.16,1.25l2.341,1l2.41,0.671l2.5,0.33l2.25,-0l1.59,-0.581l1.33,-0.92l0.751,-0.749l0.5,-1l0.08,-1.081l-0.25,-1.09l-0.58,-0.91l-0.83,-0.671l-3.25,-1.25l-3.341,-0.67l-3,-0.5l-4.08,-1l-2.001,-0.66l-1.83,-1l-1.67,-1.25l-1.5,-1.42l-1.25,-1.58l-1.08,-1.751l-0.67,-2.09l-0.41,-2.16l-0,-2.17l0.25,-2.16l0.58,-2.171l0.92,-1.92l1.25,-1.83l1.41,-1.58l1.59,-1.42l1.831,-1.171l1.91,-0.91l2.09,-0.59l3,-0.66l3,-0.34l3.081,-0l3.08,0.249l3.09,0.59l2.5,0.75l2.411,1l2.34,1.33l2.24,1.42l2,1.75l-7.99,8.491l-2.251,-1.83l-2.5,-1.5l-2.67,-1.16l-1.5,-0.419l-1.58,-0.25l-1.59,0l-1.661,0.42l-1.5,0.749l-1.34,1l-0.66,0.83l-0.34,0.92l0.09,1.081l0.33,0.91l0.58,0.841l1,0.58l5.501,1.081l5,0.67l1.92,0.33l0.081,-0l1.92,0.67l1.83,0.83l1.84,1.09l1.66,1.41l1.42,1.59l1.16,1.75l0.841,1.911l0.58,2.09l0.33,2.08l-0.083,2.17l-0.33,2.08l-0.67,2.08l-1.08,2.091l-1.341,1.91l-1.58,1.75l-1.83,1.5l-2,1.17l-3.25,1.001l-3.331,0.659l-3.42,0.341l-3.33,-0l-3.421,-0.341l-3.33,-0.659l-3,-0.92l-2.92,-1.25l-2.661,-1.58l-2.5,-1.841l-2.34,-2.16l9.421,-8.67l1.752,1.839Z" style="fill:#010001;fill-rule:nonzero;"/></g><g id="H"><rect id="path1630" x="47.244" y="47.244" width="76.069" height="94.488" style="fill:#fff;"/><path id="path1632" d="M98.983,77.154l0,-25.24l13.58,0l-0,66.159l-13.58,-0l0,-28l-26.749,0l-0,28l-13.58,-0l-0,-66.159l13.58,0l-0,25.24l26.749,-0Z" style="fill:#010001;fill-rule:nonzero;"/></g></g></g></g></svg>