<?xml version="1.0" encoding="UTF-8" standalone="no"?><!DOCTYPE svg PUBLIC "-//W3C//DTD SVG 1.1//EN" "http://www.w3.org/Graphics/SVG/1.1/DTD/svg11.dtd"><svg width="100%" height="100%" viewBox="0 0 697 302" version="1.1" xmlns="http://www.w3.org/2000/svg" xmlns:xlink="http://www.w3.org/1999/xlink" xml:space="preserve" xmlns:serif="http://www.serif.com/" style="fill-rule:evenodd;clip-rule:evenodd;stroke-linejoin:round;stroke-miterlimit:2;"><g transform="matrix(50,0,0,50,442.397,168.254)"></g><text x="254.775px" y="168.254px" style="font-family:'ArialMT', 'Arial', sans-serif;font-size:50px;">sw=25.5</text><rect id="P557x4" x="0" y="-0" width="696.709" height="301.181" style="fill:none;"/><clipPath id="_clip1"><rect x="0" y="-0" width="696.709" height="301.181"/></clipPath><g clip-path="url(#_clip1)"><g><path d="M696.705,35.433c0,-19.556 -15.877,-35.433 -35.433,-35.433l-625.839,-0c-19.556,-0 -35.433,15.877 -35.433,35.433l0,230.315c0,19.556 15.877,35.433 35.433,35.433l625.839,0c19.556,0 35.433,-15.877 35.433,-35.433l0,-230.315Z"/><path d="M678.989,35.433c-0,-9.778 -7.939,-17.716 -17.717,-17.716l-625.839,-0c-9.778,-0 -17.716,7.938 -17.716,17.716l-0,230.315c-0,9.778 7.938,17.717 17.716,17.717l625.839,-0c9.778,-0 17.717,-7.939 17.717,-17.717l-0,-230.315Z" style="fill:#fff;"/><g><g><g><rect id="path1706" x="263.546" y="47.244" width="57.569" height="94.488" style="fill:#fff;"/><path id="path1708" d="M293.955,68.904l-2.5,0.25l-2.5,0.58l-2.329,0.84l-2.33,1.16l-2.09,1.34l-0,-2.171l-12.91,0l-0,61.329l12.91,0l-0,-17.329l1.59,1.41l1.75,1.079l1.909,0.84l2.84,0.75l2.99,0.41l2.92,-0l2.92,-0.33l2.83,-0.75l2.75,-1.079l2.33,-1.42l2.17,-1.83l1.83,-2l1.5,-2.33l1.171,-2.42l1.17,-3.25l0.739,-3.33l0.5,-3.42l0.095,-3.41l-0.171,-3.51l-0.579,-3.33l-0.921,-3.33l-1.159,-3.25l-0.92,-1.83l-1.08,-1.75l-1.34,-1.5l-1.91,-1.75l-2.09,-1.5l-2.16,-1.17l-2.42,-1l-2.42,-0.58l-2.49,-0.421l-2.595,0.002Zm-1.92,11.419l2,0.083l1.84,0.421l1.83,0.83l1.58,1.079l1.09,1.001l0.91,1.34l0.75,1.66l0.67,2.5l0.499,2.67l0.083,2.58l-0.16,2.67l-0.499,2.58l-0.75,2.579l-0.75,1.42l-1.001,1.25l-1.25,1.08l-1.34,0.84l-1.5,0.499l-1.909,0.5l-1.92,0.161l-1.83,-0.251l-1.84,-0.58l-1.74,-0.83l-1.5,-1.171l-1.26,-1.5l-0.74,-1l-0.59,-1.079l-0.33,-1.25l-0.17,-1.25l0,-10.25l0.251,-1.58l0.589,-1.5l0.911,-1.42l1.09,-1.171l1.5,-1.159l1.74,-0.921l1.84,-0.579l1.906,-0.252Z" style="fill:#010001;fill-rule:nonzero;"/></g><g><rect id="path1746" x="180.888" y="47.244" width="82.658" height="94.488" style="fill:#fff;"/><path id="path1748" d="M251.796,77.233l-1.67,-1.909l-1.92,-1.67l-2.08,-1.42l-2.25,-1.16l-2.41,-0.84l-2.75,-0.5l-2.089,-0.082l-2.08,0.25l-2.08,0.421l-1.92,0.66l-1.92,0.92l-1.75,1.25l-1.58,1.42l-1.42,1.66l-1.16,-1.83l-1.42,-1.5l-1.66,-1.25l-1.92,-0.92l-1.5,-0.5l-2.75,-0.499l-2.42,-0.083l-2.33,0.329l-2.33,0.591l-2.17,0.909l-2.08,1.25l-1.92,1.5l0,-3.33l-12.909,0l-0,47.16l12.909,-0l0,-28.33l0.17,-1.66l0.661,-1.59l1,-1.5l1.34,-1.25l1.5,-1l2.66,-0.91l1,-0.094l0.92,0.094l0.421,0.083l1.75,0.75l1.25,1.08l1,1.34l0.66,1.58l0.421,1.669l0.083,1.66l-0,28.08l12.919,-0l0,-28.33l0.161,-1.66l0.589,-1.59l1.08,-1.499l1.33,-1.25l1.5,-1.001l2.67,-0.909l0.92,-0.095l1,0.095l0.33,0.082l1.75,0.75l1.25,1.08l1.079,1.34l0.67,1.58l0.33,1.67l0.094,1.66l0,28.079l12.91,0l-12.91,0l12.91,0l-0,-28.159l-0.083,-2.75l-0.499,-2.67l-0.75,-2.58l-1.091,-2.5l-1.416,-2.172Z" style="fill:#010001;fill-rule:nonzero;"/></g><g><rect id="path1666" x="123.313" y="47.244" width="57.575" height="94.488" style="fill:#fff;"/><path id="path1668" d="M129.643,70.826l12.921,0l-12.921,0l12.921,0l0,28.163l0.16,1.67l0.34,1.66l0.66,1.5l1,1.42l1.34,1.081l1.751,0.749l1.83,0.251l1.92,-0l1.91,-0.41l1.75,-0.671l1.58,-1l1.25,-1.25l1.09,-1.5l0.581,-1.58l0.17,-1.67l0,-28.413l12.911,0l0,47.244l-12.911,0l0,-3.33l-1.84,1.5l-2.08,1.16l-2.25,0.92l-2.251,0.67l-2.41,0.251l-2.42,-0l-2.75,-0.501l-2.421,-0.84l-2.25,-1.16l-2.16,-1.42l-1.84,-1.67l-1.75,-1.91l-1.41,-2.17l-1,-2.501l-0.751,-2.58l-0.5,-2.75l-0.17,-2.67l0,-28.243Z" style="fill:#010001;fill-rule:nonzero;"/></g><g id="H"><rect id="path1630" x="47.244" y="47.244" width="76.069" height="94.488" style="fill:#fff;"/><path id="path1632" d="M98.983,77.154l0,-25.24l13.58,0l-0,66.159l-13.58,-0l0,-28l-26.749,0l-0,28l-13.58,-0l-0,-66.159l13.58,0l-0,25.24l26.749,-0Z" style="fill:#010001;fill-rule:nonzero;"/></g></g><g><g><rect id="path1698" x="495.918" y="47.244" width="50.079" height="94.488" style="fill:#fff;"/><path d="M543.331,70.829l-17.947,52.427c-0.827,2.426 -1.847,4.314 -3.06,5.664c-1.213,1.351 -2.536,2.357 -3.97,3.019c-1.102,0.496 -2.412,0.868 -3.928,1.116c-1.516,0.248 -2.991,0.372 -4.425,0.372c-1.489,0 -3.101,-0.151 -4.838,-0.455c-1.737,-0.303 -3.322,-0.675 -4.756,-1.116l2.151,-10.502c1.268,0.441 2.495,0.772 3.68,0.992c1.185,0.221 2.247,0.331 3.184,0.331c1.544,0 2.66,-0.248 3.35,-0.744c0.689,-0.496 1.034,-1.13 1.034,-1.902l-0,-0.414c-0,-0.165 -0.056,-0.385 -0.166,-0.661c-0.055,-0.221 -0.124,-0.441 -0.207,-0.662c-0.082,-0.22 -0.151,-0.468 -0.206,-0.744l-16.128,-46.721l13.729,-0l9.428,28.363l9.429,-28.363l13.646,-0Z" style="fill-rule:nonzero;"/></g><g><rect id="path16981" serif:id="path1698" x="602.217" y="47.244" width="47.244" height="94.488" style="fill:#fff;"/><path d="M645.341,103.806c0,2.093 -0.405,4.016 -1.216,5.769c-0.811,1.752 -2.028,3.27 -3.649,4.551c-1.622,1.282 -3.624,2.276 -6.004,2.983c-2.381,0.706 -5.14,1.059 -8.28,1.059c-3.976,0 -7.586,-0.589 -10.83,-1.766c-3.243,-1.177 -6.252,-2.916 -9.025,-5.219l7.063,-8.161c2.198,1.831 4.448,3.047 6.75,3.649c2.302,0.602 4.29,0.902 5.964,0.902c2.354,0 3.976,-0.34 4.866,-1.02c0.889,-0.68 1.334,-1.517 1.334,-2.511c-0,-0.576 -0.406,-1.19 -1.217,-1.844c-0.811,-0.654 -2.158,-1.191 -4.041,-1.609l-7.77,-1.884c-1.465,-0.314 -2.916,-0.811 -4.355,-1.491c-1.439,-0.68 -2.734,-1.543 -3.885,-2.59c-1.151,-1.046 -2.08,-2.302 -2.786,-3.766c-0.706,-1.465 -1.059,-3.166 -1.059,-5.102c-0,-2.145 0.457,-4.12 1.373,-5.925c0.916,-1.805 2.21,-3.374 3.885,-4.708c1.674,-1.335 3.649,-2.368 5.925,-3.1c2.276,-0.733 4.8,-1.099 7.573,-1.099c4.081,-0 7.626,0.549 10.634,1.648c3.008,1.099 5.637,2.616 7.887,4.552l-7.063,8.162c-1.674,-1.308 -3.388,-2.276 -5.14,-2.904c-1.753,-0.628 -3.65,-0.942 -5.69,-0.942c-2.198,0 -3.819,0.406 -4.866,1.217c-1.046,0.81 -1.569,1.687 -1.569,2.629c-0,0.156 0.026,0.366 0.078,0.627c0.052,0.262 0.222,0.537 0.51,0.824c0.288,0.288 0.693,0.576 1.217,0.864c0.523,0.287 1.255,0.536 2.197,0.745l8.162,1.962c1.622,0.419 3.204,0.942 4.748,1.57c1.543,0.628 2.93,1.465 4.159,2.511c1.23,1.046 2.224,2.328 2.982,3.846c0.759,1.517 1.138,3.374 1.138,5.571Z" style="fill-rule:nonzero;"/></g><g><rect id="path16982" serif:id="path1698" x="545.997" y="47.244" width="56.22" height="94.488" style="fill:#fff;"/><path d="M596.953,117.857l-13.33,0l0,-2.531c-1.293,1.181 -2.854,2.137 -4.682,2.869c-1.828,0.731 -3.67,1.096 -5.526,1.096c-3.656,0 -6.89,-0.689 -9.702,-2.067c-2.812,-1.378 -5.174,-3.22 -7.086,-5.525c-1.913,-2.306 -3.375,-4.964 -4.387,-7.973c-1.013,-3.009 -1.519,-6.173 -1.519,-9.491c0,-3.374 0.478,-6.608 1.434,-9.702c0.957,-3.093 2.377,-5.821 4.261,-8.183c1.884,-2.362 4.204,-4.261 6.96,-5.695c2.756,-1.434 5.933,-2.151 9.533,-2.151c1.969,-0 3.881,0.309 5.737,0.928c1.856,0.619 3.515,1.49 4.977,2.615l0,-20.078l13.33,-0l-0,65.888Zm-13.245,-17.801l-0,-12.401c-0,-1.069 -0.255,-2.025 -0.763,-2.869c-0.508,-0.843 -1.158,-1.575 -1.949,-2.193c-0.791,-0.619 -1.681,-1.097 -2.669,-1.434c-0.989,-0.338 -1.963,-0.507 -2.923,-0.507c-3.559,0 -6.313,1.252 -8.261,3.755c-1.949,2.502 -2.924,5.722 -2.924,9.659c0,1.8 0.255,3.473 0.763,5.02c0.508,1.547 1.229,2.883 2.161,4.007c0.932,1.125 2.076,2.025 3.432,2.7c1.355,0.675 2.881,1.012 4.575,1.012c0.847,0 1.779,-0.14 2.796,-0.421c1.017,-0.282 1.949,-0.703 2.796,-1.266c0.847,-0.562 1.553,-1.265 2.118,-2.109c0.565,-0.844 0.848,-1.828 0.848,-2.953Z" style="fill-rule:nonzero;"/></g></g><g><g><rect x="409.698" y="47.244" width="68.504" height="94.488" style="fill:#fff;"/><path d="M470.623,84.672c0,3.915 -0.502,7.857 -1.505,11.826c-1.003,3.969 -2.578,7.544 -4.724,10.725c-2.146,3.18 -4.878,5.776 -8.195,7.788c-3.316,2.012 -7.288,3.018 -11.915,3.018c-4.738,-0 -8.808,-0.993 -12.208,-2.977c-3.4,-1.985 -6.202,-4.567 -8.403,-7.748c-2.202,-3.181 -3.819,-6.755 -4.85,-10.724c-1.031,-3.97 -1.547,-7.939 -1.547,-11.908c-0,-3.969 0.516,-7.911 1.547,-11.825c1.031,-3.915 2.634,-7.422 4.808,-10.521c2.174,-3.099 4.947,-5.614 8.32,-7.544c3.372,-1.93 7.372,-2.895 11.999,-2.895c4.571,-0 8.528,0.965 11.873,2.895c3.345,1.93 6.118,4.459 8.32,7.585c2.202,3.126 3.832,6.647 4.891,10.561c1.06,3.915 1.589,7.83 1.589,11.744Zm-13.88,0.082c-0,-1.849 -0.209,-3.983 -0.627,-6.402c-0.418,-2.42 -1.115,-4.717 -2.091,-6.892c-0.975,-2.174 -2.285,-4.009 -3.93,-5.505c-1.644,-1.495 -3.693,-2.242 -6.145,-2.242c-2.453,-0 -4.502,0.734 -6.146,2.202c-1.645,1.468 -2.955,3.275 -3.93,5.423c-0.976,2.148 -1.673,4.431 -2.091,6.851c-0.418,2.419 -0.627,4.553 -0.627,6.402c0,2.012 0.181,4.268 0.544,6.769c0.362,2.501 1.017,4.839 1.965,7.014c0.947,2.175 2.285,3.996 4.013,5.464c1.728,1.468 3.93,2.202 6.606,2.202c2.676,-0 4.836,-0.734 6.48,-2.202c1.645,-1.468 2.913,-3.289 3.805,-5.464c0.892,-2.175 1.477,-4.499 1.756,-6.973c0.278,-2.474 0.418,-4.69 0.418,-6.647Z" style="fill-rule:nonzero;"/></g><g><rect x="350.642" y="47.244" width="59.055" height="94.488" style="fill:#fff;"/><path d="M402.272,118.11l-46.803,0l0,-11.579c1.538,-0.888 3.16,-1.86 4.869,-2.915c1.708,-1.055 3.43,-2.138 5.167,-3.249c1.736,-1.111 3.43,-2.249 5.081,-3.415c1.652,-1.167 3.217,-2.305 4.698,-3.416c1.081,-0.833 2.348,-1.888 3.8,-3.165c1.452,-1.278 2.819,-2.722 4.1,-4.332c1.281,-1.611 2.363,-3.415 3.245,-5.415c0.883,-1.999 1.324,-4.165 1.324,-6.497c0,-2.832 -0.712,-5.22 -2.135,-7.164c-1.424,-1.944 -3.786,-2.916 -7.089,-2.916c-3.701,0 -6.291,1.278 -7.772,3.832c-1.48,2.555 -1.907,5.915 -1.281,10.08l-14.007,-0l-0.085,-3.166c-0.114,-3.221 0.342,-6.234 1.366,-9.038c1.025,-2.805 2.52,-5.22 4.484,-7.247c1.965,-2.027 4.413,-3.624 7.345,-4.79c2.933,-1.166 6.278,-1.749 10.036,-1.749c3.7,-0 7.031,0.555 9.992,1.666c2.961,1.11 5.452,2.651 7.473,4.623c2.021,1.971 3.559,4.318 4.612,7.039c1.054,2.721 1.552,5.72 1.495,8.996c-0.057,4.554 -1.367,8.983 -3.929,13.287c-2.562,4.304 -6.149,8.427 -10.761,12.37c-1.196,1 -2.548,2.041 -4.057,3.124c-1.509,1.083 -2.975,2.041 -4.398,2.874l23.23,0l0,12.162Z" style="fill-rule:nonzero;"/></g></g></g><path id="S0x1-16sw-Arrow-90--B" serif:id="S0x1 16sw Arrow 90° B" d="M442.841,159.449l-0,94.488l-188.976,0l-0,-94.488l188.976,-0Z" style="fill:none;"/><clipPath id="_clip2"><path d="M442.841,159.449l-0,94.488l-188.976,0l-0,-94.488l188.976,-0Z"/></clipPath><g clip-path="url(#_clip2)"><path d="M379.849,222.441l-31.496,31.496l47.244,0l47.244,-47.244l-47.244,-47.244l-47.244,-0l31.496,31.496l-125.984,-0l-0,31.496l125.984,-0Z"/></g></g></g></svg>