<?xml version="1.0" encoding="UTF-8" standalone="no"?><!DOCTYPE svg PUBLIC "-//W3C//DTD SVG 1.1//EN" "http://www.w3.org/Graphics/SVG/1.1/DTD/svg11.dtd"><svg width="100%" height="100%" viewBox="0 0 514 454" version="1.1" xmlns="http://www.w3.org/2000/svg" xmlns:xlink="http://www.w3.org/1999/xlink" xml:space="preserve" xmlns:serif="http://www.serif.com/" style="fill-rule:evenodd;clip-rule:evenodd;stroke-linejoin:round;stroke-miterlimit:2;"><g transform="matrix(50,0,0,50,350.88,262.709)"></g><text x="163.258px" y="262.709px" style="font-family:'ArialMT', 'Arial', sans-serif;font-size:50px;">sw=38.4</text><g id="_558.1-Low-FLying-Helicopters" serif:id="558.1 Low FLying Helicopters"><path d="M227.178,17.004c6.076,-10.522 17.302,-17.004 29.452,-17.004c12.149,0 23.376,6.482 29.452,17.004c54.065,93.625 168.545,291.872 222.619,385.514c6.077,10.524 6.079,23.491 0.003,34.016c-6.075,10.525 -17.303,17.009 -29.455,17.009l-445.238,0c-12.152,0 -23.38,-6.484 -29.455,-17.009c-6.076,-10.525 -6.074,-23.492 0.003,-34.016c54.074,-93.642 168.554,-291.889 222.619,-385.514Z" style="fill:#e31837;"/><path d="M256.665,56.708l202.961,351.496l-405.922,-0l202.961,-351.496Z" style="fill:#fff;"/><path d="M250.839,312.74l-0.057,-0.113l106.508,10.526l0.598,0l0.597,-0.085l0.597,-0.142l0.541,-0.256l0.512,-0.342l0.455,-0.398l0.369,-0.455l0.314,-0.512l-1.223,-0.626l-1.167,-0.74l-1.109,-0.825l-1.025,-0.91l-0.966,-0.996l-0.854,-1.081l-0.796,-1.138l-0.683,-1.195l-0.569,-1.252l-0.484,-1.28l-0.37,-1.338l-0.256,-1.365l-0.142,-1.366l-0.057,-1.366l0.085,-1.394l0.2,-1.365l0.284,-1.338l0.427,-1.308l0.512,-1.281l0.626,-1.251l0.711,-1.167l0.825,-1.109l0.91,-1.053l0.968,-0.967l1.081,-0.882l1.109,-0.769l1.195,-0.711l1.251,-0.597l1.28,-0.484l1.338,-0.398l1.337,-0.256l1.394,-0.171l1.365,-0.057l1.366,0.085l1.394,0.171l1.337,0.285l1.308,0.398l1.308,0.512l1.224,0.597l1.195,0.712l1.109,0.796l1.053,0.911l0.967,0.967l0.91,1.053l0.797,1.109l0.711,1.195l0.597,1.224l0.513,1.308l0.397,1.309l0.285,1.337l0.171,1.394l0.057,1.366l-0.029,1.366l-0.17,1.394l-0.285,1.337l-0.37,1.337l-0.512,1.281l-0.597,1.251l-0.683,1.195l-0.796,1.11l-0.882,1.081l-0.967,0.967l-1.025,0.911l-1.137,0.796l-1.167,0.74l-1.223,0.626l-1.28,0.512l-1.337,0.398l-0.057,1.167l-0.2,1.166l-0.312,1.139l-0.427,1.081l-0.512,1.052l-0.597,0.996l-0.711,0.939l-0.825,0.854l-0.854,0.796l-0.968,0.683l-0.995,0.597l-1.081,0.484l-1.081,0.398l-1.166,0.256l-100.562,19.575l-1.337,0.313l-1.281,0.426l-1.251,0.513l-1.223,0.625l-1.167,0.712l-1.081,0.825l-1.024,0.882l-0.939,0.996l-0.882,1.052l-0.768,1.11l-0.682,1.166l-0.598,1.252l-0.483,1.252l-0.37,1.309l-0.285,1.337l-0.17,1.366l-0.057,1.337l-0,16.757l13.655,0l0.853,-0.057l0.825,-0.142l0.796,-0.284l0.769,-0.342l0.711,-0.455l0.654,-0.54l0.569,-0.626l0.512,-0.683l0.341,-0.484l0.427,-0.37l0.512,-0.341l0.541,-0.228l0.569,-0.114l0.569,-0.028l0.597,0.057l0.541,0.199l0.54,0.256l0.455,0.342l0.398,0.455l0.313,0.483l0.228,0.541l0.142,0.569l0.029,0.569l-0.086,0.597l-0.17,0.569l-0.256,0.513l-0.712,0.995l-0.796,0.939l-0.882,0.882l-0.939,0.768l-1.024,0.712l-1.081,0.597l-1.138,0.484l-1.166,0.398l-1.195,0.256l-1.223,0.171l-1.223,0.057l-82.413,-0l-1.223,-0.057l-1.224,-0.171l-1.194,-0.256l-1.167,-0.398l-1.138,-0.484l-1.081,-0.597l-0.995,-0.712l-0.968,-0.768l-0.881,-0.882l-0.797,-0.939l-0.683,-0.995l-0.284,-0.513l-0.171,-0.569l-0.057,-0.597l0.029,-0.569l0.114,-0.569l0.227,-0.541l0.313,-0.483l0.398,-0.455l0.484,-0.342l0.512,-0.256l0.569,-0.199l0.569,-0.057l0.597,0.028l0.569,0.114l0.541,0.228l0.483,0.341l0.427,0.37l0.37,0.484l0.483,0.683l0.569,0.626l0.655,0.54l0.711,0.455l0.768,0.342l0.797,0.284l0.853,0.142l0.825,0.057l17.694,0l0,-16.786l-7.396,0l-1.707,-0.057l-1.707,-0.17l-1.678,-0.285l-1.65,-0.398l-1.622,-0.512l-1.593,-0.626l-1.564,-0.711l-1.48,-0.825l-1.45,-0.911l-1.366,-1.024l-1.309,-1.081l-1.223,-1.195l-1.138,-1.281l-1.081,-1.337l-0.967,-1.394l-0.853,-1.479l-0.968,-1.85l-0.853,-1.906l-0.768,-1.963l-0.654,-1.991l-0.541,-2.02l-0.455,-2.049l-0.341,-2.077l-0.228,-2.077l-0.142,-2.077l-0,-2.105l0.085,-2.105l0.199,-2.077l0.313,-2.077l0.427,-2.049l0.455,-1.764l0.569,-1.764l0.683,-1.707l0.768,-1.678l0.882,-1.622l0.967,-1.565l1.053,-1.479l1.137,-1.451l1.224,-1.366l1.081,-1.053l1.138,-0.967l1.194,-0.91l1.252,-0.825l1.309,-0.74l1.365,-0.654l1.394,-0.541l1.422,-0.484l1.451,-0.37l1.48,-0.256l3.072,-0.426l3.072,-0.285l3.073,-0.171l3.1,-0.057l3.073,0.057l3.1,0.2l3.073,0.284l3.072,0.427l3.016,0.54l3.043,0.655l2.987,0.739l2.959,0.882l0.683,0.171l0.711,0.057l0.711,-0.057l0.683,-0.142l0.654,-0.256l0.598,-0.342l0.569,-0.426l0.483,-0.512l0.398,-0.598l4.125,-7.084l0.342,-0.484l0.426,-0.455l0.456,-0.37l0.512,-0.284l0.569,-0.228l0.597,-0.114l0.597,-0.057l0.086,0l-0,-4.922l-89.297,-9.872l-0.626,-0.74l-0.512,-0.854l-0.398,-0.881l-0.313,-0.939l-0.171,-0.939l-0.057,-0.996l0.029,-0.967l0.17,-0.968l0.285,-0.939l0.398,-0.882l0.512,-0.853l0.597,-0.768l0.683,-0.683l77.349,8.535l0.797,1.11l0.882,1.052l0.995,0.996l1.053,0.882l1.138,0.825l1.194,0.712l1.252,0.597l1.28,0.512l1.337,0.398l1.337,0.285l1.394,0.171l1.394,0.057l1.366,-0.057l1.394,-0.171l1.337,-0.285l1.337,-0.398l1.308,-0.512l1.224,-0.597l1.194,-0.712l1.138,-0.825l1.053,-0.882l0.995,-0.996l0.882,-1.052l0.825,-1.11l77.321,-8.535l0.683,0.683l0.597,0.768l0.512,0.853l0.398,0.882l0.284,0.939l0.171,0.968l0.057,0.967l-0.085,0.996l-0.171,0.939l-0.313,0.939l-0.398,0.881l-0.512,0.854l-0.626,0.74l-89.297,9.872l0,4.922l0.114,0l0.597,0.057l0.569,0.114l0.569,0.228l0.512,0.284l0.484,0.37l0.398,0.455l0.342,0.484l7.225,12.404Zm121.585,3.671l1.024,-0.427l0.996,-0.569l0.91,-0.626l0.854,-0.74l0.796,-0.825l0.683,-0.882l0.626,-0.939l0.512,-1.024l0.398,-1.024l0.313,-1.11l0.171,-1.109l0.085,-1.11l-0.028,-1.138l-0.143,-1.11l-0.227,-1.109l-0.37,-1.081l-0.455,-1.025l-0.569,-0.967l-0.626,-0.939l-0.768,-0.825l-0.797,-0.797l-0.91,-0.682l-0.938,-0.598l-1.025,-0.483l-1.052,-0.399l-1.082,-0.313l-1.109,-0.17l-1.138,-0.086l-1.138,0.057l-1.109,0.142l-1.11,0.256l-1.052,0.37l-1.024,0.455l-0.967,0.57l-0.911,0.682l-0.853,0.74l-0.768,0.825l-0.683,0.911l-0.598,0.938l-0.483,1.025l-0.399,1.052l-0.255,1.11l-0.171,1.11l-0.085,1.109l0.057,1.138l0.17,1.11l0.256,1.109l0.37,1.053l0.483,1.024l0.598,0.968l0.654,0.91l0.768,0.825l0.825,0.768l0.911,0.683l0.967,0.569l4.154,-12.49l0.227,-0.512l0.341,-0.427l0.427,-0.313l0.484,-0.256l0.512,-0.114l0.54,0.029l0.54,0.114l0.484,0.256l0.399,0.37l0.313,0.426l0.227,0.512l0.085,0.513l0.683,12.49Zm-195.833,1.707l-1.081,1.223l-0.995,1.309l-0.939,1.337l-0.797,1.422l-0.739,1.48l-0.626,1.508l-0.512,1.565l-0.399,1.593l-0.312,1.593l-0.2,1.65l-0.085,1.622l0.028,1.65l0.143,1.622l0.256,1.622l0.256,1.024l0.341,1.024l0.455,0.967l0.541,0.911l0.626,0.853l0.711,0.797l0.768,0.711l0.853,0.626l0.911,0.569l0.967,0.455l0.996,0.342l1.024,0.256l1.052,0.171l1.053,0.056l37.039,0l8.733,-24.581l0.171,-0.711l0.085,-0.712l-0.028,-0.711l-0.143,-0.711l-0.256,-0.683l-0.341,-0.626l-0.455,-0.569l-0.512,-0.512l-0.598,-0.398l-0.654,-0.313l-2.788,-1.053l-2.845,-0.911l-2.873,-0.796l-2.902,-0.683l-2.93,-0.569l-2.958,-0.455l-2.959,-0.313l-2.987,-0.228l-2.958,-0.085l-2.987,0.028l-2.987,0.171l-2.959,0.256l-2.958,0.398l-1.309,0.256l-1.28,0.37l-1.223,0.456l-1.195,0.569l-1.166,0.654l-1.081,0.74l-1.025,0.853l-0.967,0.911Zm66.141,68.253l-0,-16.786l-39.002,0l0,16.786l39.002,0Z"/></g></svg>