<?xml version="1.0" encoding="UTF-8" standalone="no"?><!DOCTYPE svg PUBLIC "-//W3C//DTD SVG 1.1//EN" "http://www.w3.org/Graphics/SVG/1.1/DTD/svg11.dtd"><svg width="100%" height="100%" viewBox="0 0 427 178" version="1.1" xmlns="http://www.w3.org/2000/svg" xmlns:xlink="http://www.w3.org/1999/xlink" xml:space="preserve" xmlns:serif="http://www.serif.com/" style="fill-rule:evenodd;clip-rule:evenodd;stroke-linejoin:round;stroke-miterlimit:2;"><g transform="matrix(50,0,0,50,286.217,87.9723)"></g><text x="140.294px" y="87.972px" style="font-family:'ArialMT', 'Arial', sans-serif;font-size:50px;">sw=15</text><g><path d="M426.047,35.433c-0,-19.556 -15.877,-35.433 -35.433,-35.433l-355.181,0c-19.556,0 -35.433,15.877 -35.433,35.433l-0,106.299c-0,19.556 15.877,35.433 35.433,35.433l355.181,0c19.556,0 35.433,-15.877 35.433,-35.433l-0,-106.299Z"/><path d="M408.33,35.433c0,-9.778 -7.938,-17.716 -17.716,-17.716l-355.181,-0c-9.778,-0 -17.716,7.938 -17.716,17.716l-0,106.299c-0,9.778 7.938,17.717 17.716,17.717l355.181,-0c9.778,-0 17.716,-7.939 17.716,-17.717l0,-106.299Z" style="fill:#fff;"/><g><g><rect id="path1786" x="289.56" y="47.244" width="41.079" height="94.488" style="fill:#fff;"/><path id="path1788" d="M309.059,118.063l-12.92,-0l0,-47.159l12.92,-0l0,4.67l1.58,-1.59l1.75,-1.33l2,-1.171l2.17,-0.75l2.16,-0.499l2.25,-0.161l3.17,-0l-0,12.25l-4.42,-0l-1.83,0.159l-1.83,0.5l-1.67,0.84l-1.58,1.079l-1.25,1.25l-1.079,1.58l-0.84,1.67l-0.5,1.83l-0.082,1.84l0.001,24.992Z" style="fill:#010001;fill-rule:nonzero;"/></g><g><rect id="path1806" x="236.651" y="47.244" width="52.909" height="94.488" style="fill:#fff;"/><path id="path1808" d="M262.15,69.654l-2.42,0.17l-2.41,0.41l-2.34,0.75l-2.25,1.09l-2.08,1.25l-2.25,1.66l-2.08,2l-1.75,2.25l-1.42,2.42l-1.17,3l-0.83,3.169l-0.5,3.16l-0.17,3.25l0.25,3.25l0.591,3.17l0.909,3.08l1.17,3l1.079,2.17l1.42,2l1.5,1.83l1.83,1.67l1.92,1.41l2.08,1.25l2.25,0.92l2.34,0.67l2.99,0.58l3.09,0.25l3.08,-0.083l3.08,-0.34l3,-0.66l2.34,-0.84l2.16,-1.079l2,-1.42l1.83,-1.67l1.67,-1.83l-8,-8.08l-1.83,1.67l-2.08,1.33l-2.25,1l-2.17,0.58l-2.17,0.17l-2.16,-0.083l-2.17,-0.42l-2.08,-0.75l-1.42,-0.92l-1.25,-1.16l-1,-1.34l-0.75,-1.5l-0.41,-1.66l-0.17,-1.67l31.499,0l-0.17,-3.92l-0.42,-3.91l-0.831,-3.83l-1.17,-3.75l-1.08,-2.5l-1.42,-2.25l-1.66,-2.169l-2,-1.83l-2.17,-1.59l-2.079,-1.25l-2.25,-0.91l-2.42,-0.669l-2.42,-0.421l-2.408,-0.075Zm-0.25,10.749l1.66,0l1.67,0.33l1.579,0.589l1.421,0.831l1.329,1.079l1.091,1.25l0.83,1.42l0.58,1.58l0.25,1.67l-19.159,0l0.25,-1.67l0.58,-1.58l0.84,-1.42l1.079,-1.25l1.33,-1.079l1.42,-0.831l1.58,-0.589l1.67,-0.33Z" style="fill:#010001;fill-rule:nonzero;"/></g><g><rect id="path1742" x="121.823" y="47.244" width="30.749" height="94.488" style="fill:#fff;"/><path id="path1744" d="M148.742,106.483l-2.5,0.33l-2.5,0.094l-0.92,-0.094l-0.75,-0.41l-0.66,-0.67l-0.421,-0.75l-0.17,-0.92l0,-52.069l-12.909,-0l-0,57.319l0.16,1.75l0.5,1.67l0.75,1.58l1,1.5l1.25,1.25l1.42,1l1.67,0.67l1.66,0.499l1.75,0.17l4.08,-0.34l4,-0.499l4,-0.75l-1.41,-11.33Z" style="fill:#010001;fill-rule:nonzero;"/></g><g><rect id="path1790" x="152.572" y="47.244" width="26.92" height="94.488" style="fill:#fff;"/><path id="path1792" d="M165.322,51.494l-1.42,0.16l-1.41,0.42l-1.25,0.67l-1.171,0.909l-0.92,1.171l-0.66,1.25l-0.42,1.42l-0.17,1.409l0.17,1.421l0.42,1.419l0.66,1.33l0.92,1.08l1.171,0.92l1.25,0.66l1.41,0.421l1.42,0.17l1.42,-0.17l1.41,-0.421l1.25,-0.66l1.17,-0.92l0.92,-1.08l0.661,-1.33l0.42,-1.419l0.17,-1.421l-0.17,-1.409l-0.42,-1.42l-0.661,-1.25l-0.92,-1.171l-1.17,-0.909l-1.25,-0.67l-1.41,-0.42l-1.42,-0.16Zm-6.5,19.41l0,47.239l12.92,-0l-0,-47.239l-12.92,-0Z" style="fill:#010001;fill-rule:nonzero;"/></g><g><rect id="path1818" x="179.492" y="47.244" width="57.159" height="94.488" style="fill:#fff;"/><path id="path1820" d="M216.651,51.994l-0,21.16l-2.16,-1.42l-2.25,-1.16l-2.42,-0.84l-2.41,-0.58l-2.59,-0.25l-2.5,0.094l-2.5,0.33l-2.5,0.66l-2.33,0.92l-2.25,1.25l-2.08,1.42l-2.13,2.04l-1.71,2.21l-1.25,2.37l-1.329,3.46l-0.831,3.33l-0.58,3.42l-0.25,3.42l0.161,3.41l0.42,3.42l0.83,3.329l1.091,3.25l1.239,2.5l1.5,2.25l1.84,2.08l2.08,1.75l2.33,1.42l2.75,1.08l2.92,0.75l2.92,0.34l2.91,-0l2.92,-0.421l2.83,-0.75l2,-0.75l1.75,-1.17l1.58,-1.41l-0,3.25l12.92,0l-0,-66.159l-12.921,-0.003Zm-9.91,28.329l1.91,0.251l1.92,0.58l1.67,0.92l1.58,1.16l1.08,1.25l0.839,1.34l0.58,1.5l0.33,1.66l-0,10.169l-0.16,1.25l-0.34,1.25l-0.58,1.08l-0.75,1.079l-1.33,1.42l-1.5,1.171l-1.67,0.83l-1.83,0.58l-1.92,0.251l-1.91,-0.161l-1.84,-0.421l-1.5,-0.579l-1.41,-0.84l-1.17,-1.08l-1,-1.25l-0.75,-1.42l-0.831,-2.5l-0.42,-2.66l-0.251,-2.58l0.17,-2.67l0.41,-2.58l0.75,-2.589l0.75,-1.66l0.84,-1.25l1.16,-1.09l1.59,-1.08l1.75,-0.75l1.91,-0.5l1.923,-0.081Z" style="fill:#010001;fill-rule:nonzero;"/></g><g><rect id="path1674" x="330.639" y="47.244" width="48.164" height="94.488" style="fill:#fff;"/><path id="path1676" d="M343.39,103.909l2,1.58l2.16,1.25l2.34,1l2.41,0.671l2.501,0.33l2.25,-0l1.59,-0.581l1.33,-0.92l0.75,-0.749l0.5,-1l0.081,-1.081l-0.25,-1.09l-0.58,-0.91l-0.83,-0.671l-3.251,-1.25l-3.34,-0.67l-3,-0.5l-4.081,-1l-2,-0.66l-1.83,-1l-1.67,-1.25l-1.5,-1.42l-1.25,-1.58l-1.08,-1.751l-0.671,-2.09l-0.41,-2.16l0,-2.17l0.251,-2.16l0.58,-2.171l0.92,-1.92l1.25,-1.83l1.41,-1.58l1.59,-1.42l1.83,-1.171l1.911,-0.91l2.09,-0.59l3,-0.66l3,-0.34l3.08,-0l3.081,0.249l3.09,0.59l2.5,0.75l2.41,1l2.341,1.33l2.24,1.42l2,1.75l-7.991,8.491l-2.25,-1.83l-2.5,-1.5l-2.67,-1.16l-1.5,-0.419l-1.581,-0.25l-1.59,0l-1.66,0.42l-1.5,0.749l-1.34,1l-0.66,0.83l-0.34,0.92l0.09,1.081l0.33,0.91l0.58,0.841l1,0.58l5.5,1.081l5.001,0.67l1.92,0.33l0.08,-0l1.921,0.67l1.83,0.83l1.84,1.09l1.66,1.41l1.42,1.59l1.16,1.75l0.84,1.911l0.581,2.09l0.33,2.08l-0.083,2.17l-0.33,2.08l-0.67,2.08l-1.081,2.091l-1.34,1.91l-1.58,1.75l-1.83,1.5l-2,1.17l-3.251,1.001l-3.33,0.659l-3.42,0.341l-3.33,-0l-3.421,-0.341l-3.33,-0.659l-3,-0.92l-2.921,-1.25l-2.66,-1.58l-2.5,-1.841l-2.34,-2.16l9.421,-8.67l1.752,1.839Z" style="fill:#010001;fill-rule:nonzero;"/></g><g id="G"><rect id="path1626" x="47.244" y="47.244" width="74.579" height="94.488" style="fill:#fff;"/><path id="path1628" d="M98.493,70.494l-1.59,-2l-1.83,-1.84l-2.08,-1.49l-1.92,-0.75l-1.91,-0.591l-2,-0.329l-2,-0.17l-2.09,0.17l-2.079,0.329l-2,0.67l-1.92,0.83l-1.75,1.08l-1.58,1.34l-1.42,1.58l-1.16,1.67l-0.92,1.91l-0.75,1.92l-0.75,3.33l-0.5,3.499l-0.083,3.42l0.083,3.5l0.5,3.41l0.75,3.34l0.75,2l0.92,1.83l1.16,1.67l1.42,1.58l1.58,1.33l1.75,1.09l1.92,0.91l2,0.59l2.079,0.33l2.09,0.17l2.25,-0.17l2.25,-0.421l2.16,-0.75l2.08,-1.16l1.84,-1.419l1.58,-1.67l1.33,-1.91l0.92,-2.5l0.58,-2.5l0.095,-2.67l-16.67,-0l-0,-11.58l28.999,-0l0,38.079l-12.33,0l0,-4.75l-1.92,1.83l-2.249,1.59l-2.33,1.25l-2.59,0.91l-2.58,0.58l-2.66,0.17l-2.67,-0l-3.33,-0.33l-3.25,-0.67l-3.17,-1l-3.08,-1.33l-2.84,-1.67l-2.66,-2l-2.5,-2.58l-2.17,-2.75l-2,-3l-1.58,-3.17l-1.25,-3.33l-1,-3.419l-0.58,-3.49l-0.25,-3.5l-0,-4.75l0.25,-3.59l0.58,-3.5l1,-3.41l1.25,-3.34l1.58,-3.16l2,-3l2.17,-2.75l2.5,-2.5l2.66,-2l2.84,-1.75l3.08,-1.33l3.17,-1l3.25,-0.67l3.33,-0.329l3.75,-0l3.33,0.329l3.33,0.67l3.17,1l2.999,1.33l2.92,1.75l2.66,2l2.5,2.5l2.17,2.83l2.25,4l-12.669,6l-1.165,-2.328Z" style="fill:#010001;fill-rule:nonzero;"/></g></g></g></svg>