<?xml version="1.0" encoding="UTF-8" standalone="no"?><!DOCTYPE svg PUBLIC "-//W3C//DTD SVG 1.1//EN" "http://www.w3.org/Graphics/SVG/1.1/DTD/svg11.dtd"><svg width="100%" height="100%" viewBox="0 0 514 454" version="1.1" xmlns="http://www.w3.org/2000/svg" xmlns:xlink="http://www.w3.org/1999/xlink" xml:space="preserve" xmlns:serif="http://www.serif.com/" style="fill-rule:evenodd;clip-rule:evenodd;stroke-linejoin:round;stroke-miterlimit:2;"><g transform="matrix(50,0,0,50,350.88,262.709)"></g><text x="163.258px" y="262.709px" style="font-family:'ArialMT', 'Arial', sans-serif;font-size:50px;">sw=38.4</text><g id="_558-Low-Flying-Aircraft" serif:id="558 Low Flying Aircraft"><path d="M227.178,17.004c6.076,-10.522 17.302,-17.004 29.452,-17.004c12.149,0 23.376,6.482 29.452,17.004c54.065,93.625 168.545,291.872 222.619,385.514c6.077,10.524 6.079,23.491 0.003,34.016c-6.075,10.525 -17.303,17.009 -29.455,17.009l-445.238,0c-12.152,0 -23.38,-6.484 -29.455,-17.009c-6.076,-10.525 -6.074,-23.492 0.003,-34.016c54.074,-93.642 168.554,-291.889 222.619,-385.514Z" style="fill:#e31837;"/><path d="M256.665,56.708l202.961,351.496l-405.922,-0l202.961,-351.496Z" style="fill:#fff;"/><path d="M184.507,265.417l-2.097,-1.291l-2.027,-1.411l-1.911,-1.543l-1.812,-1.647l-1.742,-1.766l-1.613,-1.852l-1.484,-1.938l-1.384,-2.04l-1.272,-2.095l-1.143,-2.181l-0.391,-0.987l-0.249,-1.024l-0.124,-1.033l-0.013,-1.088l0.155,-1.031l0.28,-1.04l0.4,-0.97l0.537,-0.93l0.64,-0.832l0.743,-0.732l0.833,-0.68l0.931,-0.503l0.974,-0.439l0.995,-0.266l1.05,-0.155l2.46,-0.1l2.468,0.023l2.459,0.179l2.419,0.316l2.411,0.471l2.401,0.626l2.331,0.745l2.275,0.914l2.253,1.02l2.167,1.171l37.86,21.858l80.27,-46.329l0.944,-0.456l0.999,-0.344l1.055,-0.231l1.075,-0.06l1.084,0.065l1.044,0.202l1.004,0.34l0.966,0.478l7.055,4.073l0.776,0.528l0.707,0.648l0.577,0.734l0.495,0.806l0.384,0.862l0.241,0.9l0.099,0.938l-0.026,0.946l-0.163,0.906l-0.318,0.898l-0.408,0.845l-0.528,0.776l-0.648,0.707l-46.773,43.571l-7.367,12.76l27.111,15.653l1.947,1.204l1.908,1.341l1.825,1.415l1.726,1.517l1.627,1.62l1.575,1.709l1.446,1.796l1.363,1.868l19.861,-13.113l0.901,-0.521l0.939,-0.378l1.007,-0.219l1.015,-0.095l1.023,0.031l0.984,0.167l0.975,0.323l0.905,0.443l3.513,2.028l0.776,0.527l0.676,0.631l0.595,0.704l0.495,0.806l0.384,0.862l0.241,0.9l0.099,0.938l-0.008,0.916l-0.181,0.936l-0.27,0.885l-0.409,0.845l-28.653,49.629l-0.528,0.777l-0.649,0.706l-0.703,0.595l-0.806,0.495l-0.844,0.353l-0.9,0.241l-0.939,0.099l-0.945,-0.026l-0.924,-0.133l-0.868,-0.3l-0.845,-0.408l-3.512,-2.028l-0.836,-0.563l-0.767,-0.683l-0.637,-0.768l-0.556,-0.841l-0.408,-0.957l-0.314,-0.981l-0.142,-1.003l-0.017,-1.011l1.443,-23.786l-2.299,-0.246l-2.278,-0.355l-2.285,-0.479l-2.199,-0.629l-2.177,-0.736l-2.155,-0.844l-2.098,-1.011l-2.016,-1.084l-27.112,-15.653l-7.367,12.76l-14.365,62.323l-0.27,0.884l-0.408,0.846l-0.528,0.775l-0.618,0.724l-0.704,0.595l-0.806,0.495l-0.862,0.383l-0.9,0.242l-0.955,0.129l-0.946,-0.026l-0.906,-0.163l-0.915,-0.288l-0.845,-0.408l-7.056,-4.074l-0.896,-0.597l-0.797,-0.7l-0.697,-0.803l-0.598,-0.906l-0.486,-0.961l-0.344,-0.999l-0.202,-1.037l-0.059,-1.076l-0.014,-92.681l-37.86,-21.858Z"/></g></svg>