<?xml version="1.0" encoding="UTF-8" standalone="no"?><!DOCTYPE svg PUBLIC "-//W3C//DTD SVG 1.1//EN" "http://www.w3.org/Graphics/SVG/1.1/DTD/svg11.dtd"><svg width="100%" height="100%" viewBox="0 0 514 454" version="1.1" xmlns="http://www.w3.org/2000/svg" xmlns:xlink="http://www.w3.org/1999/xlink" xml:space="preserve" xmlns:serif="http://www.serif.com/" style="fill-rule:evenodd;clip-rule:evenodd;stroke-linejoin:round;stroke-miterlimit:2;"><g transform="matrix(50,0,0,50,371.757,262.709)"></g><text x="184.134px" y="262.709px" style="font-family:'ArialMT', 'Arial', sans-serif;font-size:50px;">sw=38.4</text><g id="_559-Falling-or-Fallen-Rocks" serif:id="559 Falling or Fallen Rocks"><path d="M227.201,17.004c6.077,-10.522 17.305,-17.004 29.455,-17.004c12.151,0 23.379,6.482 29.456,17.004c54.07,93.625 168.562,291.872 222.642,385.514c6.078,10.524 6.079,23.491 0.003,34.016c-6.076,10.525 -17.306,17.009 -29.459,17.009l-445.283,0c-12.153,0 -23.383,-6.484 -29.459,-17.009c-6.076,-10.525 -6.075,-23.492 0.003,-34.016c54.08,-93.642 168.572,-291.889 222.642,-385.514Z" style="fill:#e31837;"/><path d="M256.656,56.706l202.954,351.484l-405.907,0l202.953,-351.484Z" style="fill:#fff;"/><path d="M271.14,271.518l-0.695,-1.435l-0.782,-2.001l-0.478,-1.435l-0.696,-1.653l-1.043,-3.609l-1.26,-5.176l-0.739,-2.435l-0.695,-2.001l-1.043,-2.783l-0.695,-3.262l0.521,-3.653l1.478,-2.174l3.259,-4.567l4.389,-5.088l2.347,-2.218l4.389,-4.001l2.911,-2.523l2.391,-1.609l4.258,2.914l0.913,0.609l1.173,0.087l4.911,0.522l2.738,0.739l4.736,2.175l3.433,2l2.391,1.479l0.738,1.435l0.696,2.566l1.13,5.088l1.434,8.002l0.304,2.044l0.782,2.349l1.651,3.088l1.652,3.827l-0,1.087l-3.477,3.088l-5.649,3.653l-3.259,2.392l-2.391,2.522l-1.999,2.74l-2.172,2.914l-1.826,2.001l-1.26,0.739l-1.086,0.739l-0.913,0.348l-4.215,0.392l-2.912,-0.392l-4.563,-1.652l-1.608,-0.696l-3.128,-2.001l-3.086,-2l-1.999,-1.827l-0.434,-0.304l-0.522,-1.044Zm-191.253,121.555l138.714,-240.37l0.739,8.219l-0,4.697l1.694,6.002l0.87,2.566l1.303,4.305l3.433,4.741l3.433,4.697l2.564,4.74l2.999,4.697l1.304,4.741l1.694,5.566l3.868,12.873l0,6.002l-1.738,10.307l0.869,3.392l1.738,3.871l0.826,5.567l4.737,12.482l3.867,8.567l0.435,3.871l4.693,18.44l2.564,6.001l1.956,2.001l1.868,2.131l1.695,2.218l1.608,2.305l1.478,2.392l0.565,2l0.347,2.001l0.217,2.044l0.087,2.044l-0.13,2.044l-0.261,2l-0.434,2.001l-0.565,1.957l4.519,4.566l2.086,2.871l2.043,3.088l4.954,5.392l4.345,4.523l6.389,7.046l5.214,5.088l5.085,5.219l4.954,5.349l1.651,2.74l1.521,2.827l1.347,2.87l1.217,2.958l1.043,3l0.869,3.088l0.696,3.132l0.521,3.131l-237.491,-0Zm217.414,-56.842l0.304,-1.826l0.652,-1.653l0.913,-1.305l3.172,-4.044l1.521,-1.305l1.173,-0.13l7.996,2.87l0.783,0.435l0.956,0.87l0.347,0.565l1.869,2.653l1.521,1.87l1.521,1.827l0.695,0.739l0.609,1.218l-0,1.043l-0.348,1.566l-0.869,1.74l-0.739,0.956l-1.217,1.131l-1.217,1.087l-1.173,0.74l-1.651,0.783l-3.477,0.434l-3.172,0.305l-2.434,-0.087l-1.39,-0.565l-1.304,-0.957l-1.782,-1.435l-0.652,-1.305l-2.52,-4.175l-0,-0.653l-0.217,-1.174l0.13,-2.218Zm-9.952,-26.572l-1.043,0.435l-0.869,-0l-1.347,-0.305l-2.346,-1.913l-5.911,-6.785l-0.304,-0.783l-0.261,-0.739l-0.086,-0.696l-0,-0.609l0.086,-0.869l0.435,-1.305l1.043,-3.392l1.434,-5.785l0.478,-0.565l0.869,-0.609l1.174,-0.739l3.911,-0.653l0.956,-0.086l1.781,0.086l1.913,0.435l2.042,0.783l1.304,0.74l1.26,1.13l1.304,1.435l0.565,1.74l1.216,4.871l0.261,1.653l0.304,1.739l-0.434,1.348l-0.609,1.61l-0.608,1.174l-0.826,1.131l-1.086,1.174l-1.217,0.913l-1.434,1l-2.303,1.479l-1.652,0.957Zm-24.553,-110.204l1.217,3.131l-0.521,2.74l-3.433,4.827l-3.303,3.48l-2.912,2.391l-1.738,0.522l-1.217,-0.869l-4.997,-5.524l-0.696,-1.348l-0.173,-2.783l1.043,-7.437l0.695,-1.522l2.564,-2.088l2.26,-1.044l1.564,-0.347l4.128,1.391l5.519,4.48Zm-8.604,27.007l1.086,0.131l0.478,0.261l0.261,1.304l0.217,2.697l-0.347,4.218l-1.565,2.088l-3.302,2.653l-0.609,-0.479l-0.695,-1.087l-0.869,-1.218l-1.825,-1.826l-0.478,-0.609l-0.348,-0.74l-0.13,-0.478l0.347,-1.348l1.478,-4.088l0.825,-1.827l1.348,-0.478l1.825,0.217l2.303,0.609Zm-13.819,-47.187l3.954,0.696l3.303,4.48l0.869,2.218l-0.348,2.435l-0.695,1.392l-2.26,2.218l-1.912,1.391l-1.521,0.522l-1.39,0l-3.824,-1.913l-3.955,-6.045l-0.695,-3.088l0.521,-1.914l1.217,-0.348l4.302,0.174l1.565,-1.696l0.869,-0.522Zm118.201,131.862l2.739,0l3.085,0.218l3.433,0.609l4.693,0.783l2.825,0.347l2.824,0.783l1.479,0.392l0.825,0.348l0.478,0.522l1.738,1.435l4.997,2.479l2.826,2.826l2.563,3.871l1.869,4.306l2.26,4.697l0.956,2.087l0.347,1.305l0.391,3.044l0.175,1.87l0.391,3.001l0.391,3.218l0.13,0.609l0.131,1.522l0.26,2.044l-0.347,1.827l-0.392,0.957l-0.564,1.522l-1.087,2.131l-4.259,6.784l-0.956,0.957l-1.478,1.044l-5.04,4.044l-1.086,1.175l-1.392,2l-0.651,0.827l-1.086,0.478l-1.217,0.087l-1.652,-0l-4.172,-0.131l-3.694,-0.26l-0.999,0.13l-1.087,0.304l-2.867,1.044l-5.302,0.74l-3.564,-0.392l-2.477,-1.044l-5.258,-2.609l-4.867,-3.784l-3.477,-2.609l-3.954,-3.044l-3.781,-3.219l-1.391,-1.435l-4.998,-8.176l-0.738,-3.044l-0.218,-2.131l0.349,-2.914l0.26,-2.175l0.652,-3.914l0.739,-2.696l1.391,-2.523l1.043,-1.783l1.13,-1.913l3.911,-5.35l3.911,-4.262l3.911,-4.957l2.129,-1.088l2.868,-1.043l2.825,-0.348l2.563,-0.479l4.563,-1.044Zm-2.303,-39.01l1.347,1.826l1.696,2.566l1.259,0.87l1.087,1l1.26,1.088l0.653,1.435l1.173,4.827l1.086,4.48l0.26,2l-0.174,1.827l-0.477,1.696l-0.695,1.435l-2.173,2.392l-1.086,1.609l-1.261,1.609l-0.304,0.479l-0.826,1.043l-0.478,0.261l-0.913,0.566l-0.912,0.13l-0.782,0l-3.346,0.131l-2.043,-0.087l-3.433,-0.174l-0.783,-0.087l-5.04,-0.696l-0.782,-0.348l-0.826,-0.565l-1.347,-1.044l-1.739,-1.131l-2.781,-1.435l-2.13,-1.74l-0.738,-2.522l-0.086,-1.783l-0.131,-1.566l-0.261,-3.566l-0.13,-1.957l0.13,-1.74l0.261,-1.957l0.261,-1.174l0.782,-1.305l1.694,-2l2.477,-2.305l2.565,-1.305l3.346,-1.566l2.346,-0.913l3.433,-0.957l1.261,-0.391l1.608,-0.391l3.216,-0l2.476,1.435Z"/></g></svg>