<?xml version="1.0" encoding="UTF-8" standalone="no"?><!DOCTYPE svg PUBLIC "-//W3C//DTD SVG 1.1//EN" "http://www.w3.org/Graphics/SVG/1.1/DTD/svg11.dtd"><svg width="100%" height="100%" viewBox="0 0 422 272" version="1.1" xmlns="http://www.w3.org/2000/svg" xmlns:xlink="http://www.w3.org/1999/xlink" xml:space="preserve" xmlns:serif="http://www.serif.com/" style="fill-rule:evenodd;clip-rule:evenodd;stroke-linejoin:round;stroke-miterlimit:2;"><g transform="matrix(50,0,0,50,284.259,171.764)"></g><text x="138.336px" y="171.764px" style="font-family:'ArialMT', 'Arial', sans-serif;font-size:50px;">sw=23</text><g><path d="M421.862,35.433c0,-19.556 -15.877,-35.433 -35.433,-35.433l-350.996,0c-19.556,0 -35.433,15.877 -35.433,35.433l-0,200.787c-0,19.557 15.877,35.434 35.433,35.434l350.996,-0c19.556,-0 35.433,-15.877 35.433,-35.434l0,-200.787Z"/><path d="M404.145,35.433c0,-9.778 -7.938,-17.716 -17.716,-17.716l-350.996,-0c-9.778,-0 -17.716,7.938 -17.716,17.716l-0,200.787c-0,9.778 7.938,17.717 17.716,17.717l350.996,0c9.778,0 17.716,-7.939 17.716,-17.717l0,-200.787Z" style="fill:#fff;"/><g><g><rect id="path1706" x="224.186" y="141.732" width="57.569" height="94.488" style="fill:#fff;"/><path id="path1708" d="M254.595,163.392l-2.5,0.25l-2.5,0.58l-2.33,0.84l-2.33,1.16l-2.09,1.34l0,-2.17l-12.909,-0l-0,61.329l12.909,-0l0,-17.33l1.59,1.41l1.75,1.079l1.91,0.84l2.84,0.75l2.99,0.41l2.92,-0l2.92,-0.33l2.83,-0.75l2.75,-1.079l2.33,-1.42l2.17,-1.83l1.83,-2l1.5,-2.33l1.17,-2.42l1.171,-3.25l0.739,-3.33l0.5,-3.42l0.094,-3.41l-0.17,-3.51l-0.58,-3.33l-0.92,-3.33l-1.16,-3.25l-0.92,-1.83l-1.079,-1.749l-1.34,-1.5l-1.91,-1.75l-2.09,-1.5l-2.16,-1.171l-2.42,-1l-2.42,-0.58l-2.49,-0.421l-2.595,0.002Zm-1.92,11.42l2,0.082l1.84,0.421l1.83,0.83l1.58,1.08l1.09,1l0.91,1.34l0.75,1.66l0.669,2.5l0.5,2.67l0.083,2.58l-0.16,2.67l-0.499,2.58l-0.75,2.58l-0.75,1.42l-1.001,1.25l-1.25,1.079l-1.34,0.84l-1.5,0.5l-1.91,0.499l-1.92,0.161l-1.83,-0.251l-1.84,-0.58l-1.739,-0.83l-1.5,-1.17l-1.26,-1.5l-0.74,-1.001l-0.59,-1.079l-0.33,-1.25l-0.17,-1.25l-0,-10.25l0.25,-1.58l0.59,-1.5l0.91,-1.42l1.091,-1.17l1.5,-1.16l1.74,-0.92l1.839,-0.58l1.907,-0.251Z" style="fill:#010001;fill-rule:nonzero;"/></g><g><rect id="path1790" x="197.266" y="141.732" width="26.92" height="94.488" style="fill:#fff;"/><path id="path1792" d="M210.016,145.982l-1.42,0.16l-1.41,0.42l-1.25,0.67l-1.17,0.909l-0.92,1.171l-0.661,1.25l-0.42,1.42l-0.17,1.41l0.17,1.42l0.42,1.42l0.661,1.33l0.92,1.079l1.17,0.92l1.25,0.66l1.41,0.421l1.42,0.17l1.42,-0.17l1.41,-0.421l1.25,-0.66l1.17,-0.92l0.92,-1.079l0.661,-1.33l0.42,-1.42l0.17,-1.42l-0.17,-1.41l-0.42,-1.42l-0.661,-1.25l-0.92,-1.171l-1.17,-0.909l-1.25,-0.67l-1.41,-0.42l-1.42,-0.16Zm-6.5,19.41l0,47.239l12.92,-0l-0,-47.239l-12.92,-0Z" style="fill:#010001;fill-rule:nonzero;"/></g><g><rect id="path1818" x="140.107" y="141.732" width="57.159" height="94.488" style="fill:#fff;"/><path id="path1820" d="M177.267,146.482l-0,21.16l-2.16,-1.42l-2.25,-1.16l-2.42,-0.84l-2.41,-0.58l-2.59,-0.25l-2.5,0.094l-2.5,0.33l-2.5,0.66l-2.33,0.92l-2.25,1.25l-2.08,1.42l-2.13,2.04l-1.71,2.21l-1.25,2.37l-1.33,3.46l-0.83,3.33l-0.58,3.42l-0.25,3.42l0.16,3.41l0.421,3.42l0.83,3.33l1.09,3.25l1.24,2.5l1.5,2.249l1.84,2.081l2.08,1.749l2.33,1.42l2.75,1.08l2.92,0.75l2.92,0.34l2.91,0l2.92,-0.42l2.83,-0.75l2,-0.75l1.75,-1.171l1.58,-1.41l-0,3.25l12.919,0l0,-66.158l-12.92,-0.004Zm-9.91,28.33l1.91,0.25l1.92,0.58l1.67,0.92l1.58,1.16l1.079,1.25l0.84,1.34l0.58,1.5l0.329,1.66l0,10.17l-0.159,1.25l-0.34,1.25l-0.58,1.079l-0.75,1.08l-1.33,1.42l-1.5,1.17l-1.67,0.83l-1.83,0.58l-1.92,0.251l-1.91,-0.161l-1.84,-0.42l-1.5,-0.58l-1.41,-0.84l-1.17,-1.08l-1.001,-1.25l-0.75,-1.42l-0.83,-2.5l-0.421,-2.659l-0.25,-2.58l0.17,-2.67l0.41,-2.58l0.75,-2.59l0.75,-1.66l0.84,-1.25l1.16,-1.09l1.59,-1.08l1.75,-0.75l1.91,-0.499l1.923,-0.081Z" style="fill:#010001;fill-rule:nonzero;"/></g></g><g><g><rect id="path1750" x="317.459" y="47.244" width="57.159" height="94.488" style="fill:#fff;"/><path id="path1752" d="M354.038,88.323l-0.34,-1.67l-0.75,-1.58l-1,-1.34l-1.25,-1.079l-1.75,-0.75l-1.91,-0.33l-1.92,0.083l-1.83,0.33l-1.84,0.75l-1.5,1l-1.33,1.25l-1,1.5l-0.67,1.59l-0.161,1.66l0,28.329l-12.919,0l-0,-47.159l12.919,0l0,3.33l1.91,-1.5l2.09,-1.25l2.16,-0.909l2.34,-0.591l2.33,-0.329l2.42,0.082l2.75,0.5l2.41,0.84l2.33,1.16l2.09,1.419l1.91,1.67l1.67,1.91l1.42,2.17l1.079,2.5l0.75,2.58l0.421,2.67l0.16,2.75l0,28.16l-12.909,-0l12.909,-0l-12.909,-0l-0,-28.08l-0.08,-1.666Z" style="fill:#010001;fill-rule:nonzero;"/></g><g><rect id="path1806" x="264.55" y="47.244" width="52.909" height="94.488" style="fill:#fff;"/><path id="path1808" d="M290.049,69.654l-2.42,0.17l-2.409,0.41l-2.34,0.75l-2.25,1.09l-2.08,1.25l-2.25,1.66l-2.08,2l-1.75,2.25l-1.42,2.42l-1.171,3l-0.83,3.169l-0.5,3.16l-0.17,3.25l0.251,3.25l0.59,3.17l0.91,3.08l1.169,3l1.08,2.17l1.42,2l1.5,1.83l1.83,1.67l1.92,1.41l2.079,1.25l2.25,0.92l2.34,0.67l2.99,0.58l3.09,0.25l3.08,-0.083l3.08,-0.34l3,-0.66l2.34,-0.84l2.16,-1.079l2,-1.42l1.83,-1.67l1.67,-1.83l-8,-8.08l-1.83,1.67l-2.08,1.33l-2.25,1l-2.17,0.58l-2.17,0.17l-2.16,-0.083l-2.17,-0.42l-2.08,-0.75l-1.42,-0.92l-1.25,-1.16l-1,-1.34l-0.75,-1.5l-0.41,-1.66l-0.17,-1.67l31.5,0l-0.171,-3.92l-0.42,-3.91l-0.83,-3.83l-1.171,-3.75l-1.079,-2.5l-1.42,-2.25l-1.66,-2.169l-2,-1.83l-2.17,-1.59l-2.08,-1.25l-2.25,-0.91l-2.42,-0.669l-2.42,-0.421l-2.408,-0.075Zm-0.25,10.749l1.66,0l1.67,0.33l1.58,0.589l1.42,0.831l1.33,1.079l1.09,1.25l0.83,1.42l0.58,1.58l0.251,1.67l-19.16,0l0.25,-1.67l0.58,-1.58l0.84,-1.42l1.08,-1.25l1.33,-1.079l1.42,-0.831l1.58,-0.589l1.669,-0.33Z" style="fill:#010001;fill-rule:nonzero;"/></g><g><rect id="path17901" serif:id="path1790" x="123.313" y="47.244" width="26.92" height="94.488" style="fill:#fff;"/><path id="path17921" serif:id="path1792" d="M136.062,51.494l-1.42,0.16l-1.41,0.42l-1.249,0.67l-1.171,0.909l-0.92,1.171l-0.66,1.25l-0.421,1.42l-0.17,1.409l0.17,1.421l0.421,1.419l0.66,1.33l0.92,1.08l1.171,0.92l1.249,0.66l1.41,0.421l1.42,0.17l1.42,-0.17l1.41,-0.421l1.25,-0.66l1.171,-0.92l0.92,-1.08l0.66,-1.33l0.421,-1.419l0.17,-1.421l-0.17,-1.409l-0.421,-1.42l-0.66,-1.25l-0.92,-1.171l-1.171,-0.909l-1.25,-0.67l-1.41,-0.42l-1.42,-0.16Zm-6.499,19.41l-0,47.239l12.919,-0l0,-47.239l-12.919,-0Z" style="fill:#010001;fill-rule:nonzero;"/></g><g><rect id="path18181" serif:id="path1818" x="150.232" y="47.244" width="57.159" height="94.488" style="fill:#fff;"/><path id="path18201" serif:id="path1820" d="M187.391,51.994l0,21.16l-2.159,-1.42l-2.25,-1.16l-2.42,-0.84l-2.41,-0.58l-2.59,-0.25l-2.5,0.094l-2.5,0.33l-2.5,0.66l-2.33,0.92l-2.25,1.25l-2.08,1.42l-2.13,2.04l-1.71,2.21l-1.25,2.37l-1.33,3.46l-0.83,3.33l-0.58,3.42l-0.251,3.42l0.161,3.41l0.421,3.42l0.83,3.329l1.09,3.25l1.24,2.5l1.5,2.25l1.84,2.08l2.08,1.75l2.33,1.42l2.75,1.08l2.92,0.75l2.92,0.34l2.91,-0l2.92,-0.421l2.83,-0.75l2,-0.75l1.749,-1.17l1.58,-1.41l0,3.25l12.92,0l0,-66.159l-12.921,-0.003Zm-9.909,28.329l1.91,0.251l1.92,0.58l1.67,0.92l1.58,1.16l1.079,1.25l0.84,1.34l0.58,1.5l0.329,1.66l0,10.169l-0.159,1.25l-0.34,1.25l-0.58,1.08l-0.75,1.079l-1.33,1.42l-1.5,1.171l-1.67,0.83l-1.83,0.58l-1.92,0.251l-1.91,-0.161l-1.84,-0.421l-1.5,-0.579l-1.41,-0.84l-1.17,-1.08l-1.001,-1.25l-0.75,-1.42l-0.83,-2.5l-0.421,-2.66l-0.25,-2.58l0.17,-2.67l0.41,-2.58l0.75,-2.589l0.75,-1.66l0.84,-1.25l1.159,-1.09l1.59,-1.08l1.751,-0.75l1.909,-0.5l1.924,-0.081Z" style="fill:#010001;fill-rule:nonzero;"/></g><g><rect id="path18182" serif:id="path1818" x="207.391" y="47.244" width="57.159" height="94.488" style="fill:#fff;"/><path id="path18202" serif:id="path1820" d="M244.55,51.994l0,21.16l-2.16,-1.42l-2.25,-1.16l-2.42,-0.84l-2.409,-0.58l-2.59,-0.25l-2.5,0.094l-2.5,0.33l-2.5,0.66l-2.33,0.92l-2.25,1.25l-2.08,1.42l-2.13,2.04l-1.71,2.21l-1.25,2.37l-1.33,3.46l-0.83,3.33l-0.58,3.42l-0.251,3.42l0.161,3.41l0.42,3.42l0.831,3.329l1.09,3.25l1.24,2.5l1.5,2.25l1.84,2.08l2.08,1.75l2.33,1.42l2.75,1.08l2.92,0.75l2.92,0.34l2.91,-0l2.919,-0.421l2.83,-0.75l2,-0.75l1.75,-1.17l1.58,-1.41l0,3.25l12.92,0l0,-66.159l-12.921,-0.003Zm-9.909,28.329l1.909,0.251l1.92,0.58l1.67,0.92l1.58,1.16l1.08,1.25l0.84,1.34l0.58,1.5l0.329,1.66l0,10.169l-0.159,1.25l-0.34,1.25l-0.58,1.08l-0.75,1.079l-1.33,1.42l-1.5,1.171l-1.67,0.83l-1.83,0.58l-1.92,0.251l-1.91,-0.161l-1.84,-0.421l-1.5,-0.579l-1.41,-0.84l-1.171,-1.08l-1,-1.25l-0.75,-1.42l-0.83,-2.5l-0.421,-2.66l-0.25,-2.58l0.17,-2.67l0.41,-2.58l0.75,-2.589l0.75,-1.66l0.839,-1.25l1.16,-1.09l1.59,-1.08l1.75,-0.75l1.91,-0.5l1.924,-0.081Z" style="fill:#010001;fill-rule:nonzero;"/></g><g id="H"><rect id="path1630" x="47.244" y="47.244" width="76.069" height="94.488" style="fill:#fff;"/><path id="path1632" d="M98.983,77.154l0,-25.24l13.58,0l-0,66.159l-13.58,-0l0,-28l-26.749,0l-0,28l-13.58,-0l-0,-66.159l13.58,0l-0,25.24l26.749,-0Z" style="fill:#010001;fill-rule:nonzero;"/></g></g></g></svg>