<?xml version="1.0" encoding="UTF-8" standalone="no"?><!DOCTYPE svg PUBLIC "-//W3C//DTD SVG 1.1//EN" "http://www.w3.org/Graphics/SVG/1.1/DTD/svg11.dtd"><svg width="100%" height="100%" viewBox="0 0 378 272" version="1.1" xmlns="http://www.w3.org/2000/svg" xmlns:xlink="http://www.w3.org/1999/xlink" xml:space="preserve" xmlns:serif="http://www.serif.com/" style="fill-rule:evenodd;clip-rule:evenodd;stroke-linejoin:round;stroke-miterlimit:2;"><g transform="matrix(50,0,0,50,239.849,171.764)"></g><text x="93.927px" y="171.764px" style="font-family:'ArialMT', 'Arial', sans-serif;font-size:50px;">sw=23</text><clipPath id="_clip1"><rect x="0" y="0" width="377.453" height="271.654"/></clipPath><g clip-path="url(#_clip1)"><rect id="Fallen-Tree" serif:id="Fallen Tree" x="0" y="0" width="377.453" height="271.654" style="fill:none;"/><g><path d="M377.453,35.433c-0,-19.556 -15.877,-35.433 -35.433,-35.433l-306.587,0c-19.556,0 -35.433,15.877 -35.433,35.433l-0,200.787c-0,19.557 15.877,35.434 35.433,35.434l306.587,-0c19.556,-0 35.433,-15.877 35.433,-35.434l-0,-200.787Z"/><path d="M359.736,35.433c0,-9.778 -7.938,-17.716 -17.716,-17.716l-306.587,-0c-9.778,-0 -17.716,7.938 -17.716,17.716l-0,200.787c-0,9.778 7.938,17.717 17.716,17.717l306.587,0c9.778,0 17.716,-7.939 17.716,-17.717l0,-200.787Z" style="fill:#fff;"/><g><g><g><rect id="path1786" x="135.57" y="141.732" width="41.079" height="94.488" style="fill:#fff;"/><path id="path1788" d="M155.069,212.551l-12.92,-0l0,-47.159l12.92,-0l0,4.67l1.58,-1.59l1.75,-1.33l2,-1.171l2.17,-0.75l2.16,-0.499l2.25,-0.161l3.17,0l-0,12.25l-4.42,-0l-1.83,0.159l-1.83,0.5l-1.67,0.84l-1.58,1.079l-1.25,1.25l-1.079,1.58l-0.84,1.67l-0.5,1.83l-0.082,1.84l0.001,24.992Z" style="fill:#010001;fill-rule:nonzero;"/></g><g><rect id="path1806" x="176.649" y="141.732" width="52.909" height="94.488" style="fill:#fff;"/><path id="path1808" d="M202.148,164.142l-2.42,0.17l-2.41,0.41l-2.34,0.75l-2.25,1.09l-2.08,1.25l-2.249,1.66l-2.08,2l-1.75,2.25l-1.42,2.42l-1.171,3l-0.83,3.17l-0.5,3.16l-0.17,3.249l0.251,3.25l0.59,3.17l0.91,3.08l1.169,3l1.079,2.17l1.42,2l1.5,1.83l1.83,1.67l1.92,1.41l2.08,1.25l2.25,0.92l2.34,0.67l2.99,0.58l3.09,0.25l3.08,-0.083l3.08,-0.34l3,-0.66l2.34,-0.84l2.16,-1.079l2,-1.42l1.83,-1.67l1.67,-1.83l-8,-8.08l-1.83,1.67l-2.08,1.33l-2.25,1l-2.17,0.58l-2.17,0.17l-2.16,-0.082l-2.17,-0.421l-2.08,-0.75l-1.42,-0.92l-1.25,-1.16l-1,-1.34l-0.75,-1.5l-0.41,-1.66l-0.17,-1.67l31.499,0l-0.17,-3.92l-0.42,-3.91l-0.831,-3.829l-1.17,-3.75l-1.08,-2.5l-1.419,-2.25l-1.66,-2.17l-2,-1.83l-2.17,-1.59l-2.08,-1.25l-2.25,-0.91l-2.42,-0.669l-2.42,-0.421l-2.408,-0.075Zm-0.25,10.75l1.66,-0l1.67,0.329l1.58,0.59l1.42,0.83l1.33,1.079l1.09,1.25l0.83,1.42l0.58,1.58l0.25,1.67l-19.159,0l0.25,-1.67l0.58,-1.58l0.84,-1.42l1.079,-1.25l1.33,-1.079l1.42,-0.83l1.58,-0.59l1.67,-0.329Z" style="fill:#010001;fill-rule:nonzero;"/></g><g><rect id="path18061" serif:id="path1806" x="229.558" y="141.732" width="52.909" height="94.488" style="fill:#fff;"/><path id="path18081" serif:id="path1808" d="M255.057,164.142l-2.42,0.17l-2.41,0.41l-2.34,0.75l-2.25,1.09l-2.08,1.25l-2.249,1.66l-2.08,2l-1.75,2.25l-1.42,2.42l-1.171,3l-0.83,3.17l-0.5,3.16l-0.17,3.249l0.251,3.25l0.59,3.17l0.91,3.08l1.169,3l1.079,2.17l1.42,2l1.5,1.83l1.83,1.67l1.92,1.41l2.08,1.25l2.25,0.92l2.34,0.67l2.99,0.58l3.09,0.25l3.08,-0.083l3.08,-0.34l3,-0.66l2.34,-0.84l2.16,-1.079l2,-1.42l1.83,-1.67l1.67,-1.83l-8,-8.08l-1.83,1.67l-2.08,1.33l-2.25,1l-2.17,0.58l-2.17,0.17l-2.16,-0.082l-2.17,-0.421l-2.08,-0.75l-1.42,-0.92l-1.25,-1.16l-1,-1.34l-0.75,-1.5l-0.41,-1.66l-0.17,-1.67l31.499,0l-0.17,-3.92l-0.42,-3.91l-0.83,-3.829l-1.171,-3.75l-1.079,-2.5l-1.42,-2.25l-1.66,-2.17l-2,-1.83l-2.17,-1.59l-2.08,-1.25l-2.25,-0.91l-2.42,-0.669l-2.42,-0.421l-2.408,-0.075Zm-0.25,10.75l1.66,-0l1.67,0.329l1.58,0.59l1.42,0.83l1.33,1.079l1.09,1.25l0.83,1.42l0.58,1.58l0.25,1.67l-19.159,0l0.25,-1.67l0.58,-1.58l0.84,-1.42l1.079,-1.25l1.33,-1.079l1.42,-0.83l1.58,-0.59l1.67,-0.329Z" style="fill:#010001;fill-rule:nonzero;"/></g><g><rect id="path1670" x="94.986" y="141.732" width="40.584" height="94.488" style="fill:#fff;"/><path id="path1672" d="M124.989,202.308l2.41,-0.411l2.34,-0.67l2.83,10.751l-3.5,1l-3.58,0.66l-3.591,0.34l-3.66,0.083l-3.59,-0.33l-1.75,-0.34l-1.741,-0.75l-1.5,-1l-1.34,-1.25l-1.08,-1.41l-0.751,-1.67l-0.5,-1.751l-0.17,-1.83l-0,-28.002l-7.581,-0l0,-10.751l7.581,-0l-0,-14.741l12.921,-3.751l-0,18.492l12.001,-0l-0,10.751l-12.001,-0l-0,23.002l0.082,1l0.42,0.92l0.581,0.75l0.83,0.581l0.919,0.42l0.92,0.082l2.5,-0.175Z" style="fill:#010001;fill-rule:nonzero;"/></g></g><g><g><rect id="path1750" x="273.05" y="47.244" width="57.159" height="94.488" style="fill:#fff;"/><path id="path1752" d="M309.629,88.323l-0.34,-1.67l-0.75,-1.58l-1.001,-1.34l-1.249,-1.079l-1.75,-0.75l-1.91,-0.33l-1.92,0.083l-1.83,0.33l-1.84,0.75l-1.5,1l-1.33,1.25l-1.001,1.5l-0.669,1.59l-0.161,1.66l0,28.329l-12.92,0l0,-47.159l12.92,0l0,3.33l1.91,-1.5l2.09,-1.25l2.16,-0.909l2.34,-0.591l2.33,-0.329l2.42,0.082l2.75,0.5l2.41,0.84l2.33,1.16l2.09,1.419l1.91,1.67l1.67,1.91l1.42,2.17l1.079,2.5l0.75,2.58l0.421,2.67l0.16,2.75l0,28.16l-12.91,-0l12.91,-0l-12.91,-0l0,-28.08l-0.079,-1.666Z" style="fill:#010001;fill-rule:nonzero;"/></g><g><rect id="path18062" serif:id="path1806" x="220.141" y="47.244" width="52.909" height="94.488" style="fill:#fff;"/><path id="path18082" serif:id="path1808" d="M245.64,69.654l-2.42,0.17l-2.41,0.41l-2.34,0.75l-2.25,1.09l-2.08,1.25l-2.249,1.66l-2.08,2l-1.75,2.25l-1.42,2.42l-1.171,3l-0.83,3.169l-0.5,3.16l-0.17,3.25l0.251,3.25l0.59,3.17l0.91,3.08l1.169,3l1.079,2.17l1.42,2l1.5,1.83l1.83,1.67l1.92,1.41l2.08,1.25l2.25,0.92l2.34,0.67l2.99,0.58l3.09,0.25l3.08,-0.083l3.08,-0.34l3,-0.66l2.34,-0.84l2.16,-1.079l2,-1.42l1.83,-1.67l1.67,-1.83l-8,-8.08l-1.83,1.67l-2.08,1.33l-2.25,1l-2.17,0.58l-2.17,0.17l-2.16,-0.083l-2.17,-0.42l-2.08,-0.75l-1.42,-0.92l-1.25,-1.16l-1,-1.34l-0.75,-1.5l-0.41,-1.66l-0.17,-1.67l31.499,0l-0.17,-3.92l-0.42,-3.91l-0.831,-3.83l-1.17,-3.75l-1.08,-2.5l-1.419,-2.25l-1.66,-2.169l-2,-1.83l-2.17,-1.59l-2.08,-1.25l-2.25,-0.91l-2.42,-0.669l-2.42,-0.421l-2.408,-0.075Zm-0.25,10.749l1.66,0l1.67,0.33l1.58,0.589l1.42,0.831l1.33,1.079l1.09,1.25l0.83,1.42l0.58,1.58l0.25,1.67l-19.159,0l0.25,-1.67l0.58,-1.58l0.84,-1.42l1.079,-1.25l1.33,-1.079l1.42,-0.831l1.58,-0.589l1.67,-0.33Z" style="fill:#010001;fill-rule:nonzero;"/></g><g><rect id="path1742" x="158.642" y="47.244" width="30.749" height="94.488" style="fill:#fff;"/><path id="path1744" d="M185.561,106.483l-2.5,0.33l-2.5,0.094l-0.92,-0.094l-0.75,-0.41l-0.66,-0.67l-0.42,-0.75l-0.17,-0.92l-0,-52.069l-12.91,-0l-0,57.319l0.161,1.75l0.499,1.67l0.75,1.58l1.001,1.5l1.249,1.25l1.421,1l1.669,0.67l1.66,0.499l1.75,0.17l4.08,-0.34l4,-0.499l4,-0.75l-1.41,-11.33Z" style="fill:#010001;fill-rule:nonzero;"/></g><g><rect id="path17421" serif:id="path1742" x="189.391" y="47.244" width="30.749" height="94.488" style="fill:#fff;"/><path id="path17441" serif:id="path1744" d="M216.311,106.483l-2.5,0.33l-2.5,0.094l-0.92,-0.094l-0.75,-0.41l-0.66,-0.67l-0.421,-0.75l-0.17,-0.92l0,-52.069l-12.91,-0l0,57.319l0.161,1.75l0.5,1.67l0.75,1.58l1,1.5l1.25,1.25l1.42,1l1.67,0.67l1.66,0.499l1.75,0.17l4.08,-0.34l4,-0.499l4,-0.75l-1.41,-11.33Z" style="fill:#010001;fill-rule:nonzero;"/></g><g><rect id="path1698" x="105.313" y="47.244" width="53.329" height="94.488" style="fill:#fff;"/><path id="path1700" d="M130.142,68.994l-3.08,0.16l-2.999,0.58l-3.75,1.09l-3.67,1.41l-3.5,1.67l-3.41,1.92l6.33,9.66l2.58,-1.58l2.67,-1.25l2.829,-1l2.92,-0.75l3,-0.421l1.66,-0.082l1.75,0.329l1.58,0.589l0.92,0.58l0.75,0.831l0.5,0.92l0.17,1.079l0,3l-4.17,0.17l-4.08,0.5l-4.08,0.75l-4,1.08l-3.919,1.419l-1.66,1.001l-1.59,1.25l-1.42,1.5l-1.16,1.58l-0.92,1.83l-0.661,1.92l-0.34,2l-0.082,2l0.17,2l0.49,1.92l0.759,1.91l1.001,1.749l1.24,1.59l1.42,1.41l1.67,1.171l2.41,1.16l2.589,0.92l2.75,0.589l2.75,0.33l2.75,-0.083l2.66,-0.34l2.67,-0.66l1.42,-0.67l1.33,-0.83l1.08,-1.001l0.92,-1.25l1,1.33l1.25,1.001l1.42,0.75l2.58,1l2.66,0.58l2.75,0.329l4.59,-10.079l-1.09,-0l-1.08,-0.16l-1.079,-0.499l-0.84,-0.67l-0.66,-0.92l-0.421,-1.001l-0.17,-1.159l0,-22.33l-0.161,-1.84l-0.42,-1.83l-0.75,-1.67l-0.92,-1.58l-1.25,-1.5l-1.41,-1.17l-1.59,-1.001l-2.25,-0.99l-2.41,-0.839l-2.92,-0.831l-3.08,-0.42l-2.996,-0.151Zm7.25,28.069l0,6.75l-0.17,1.25l-0.58,1.17l-0.75,1.001l-1.09,0.75l-1.16,0.42l-2.33,0.33l-2.34,-0l-2.33,-0.33l-1.17,-0.42l-1,-0.75l-0.831,-0.92l-0.58,-1.08l-0.34,-1.079l0,-1.171l0.34,-1.17l0.58,-0.911l0.831,-0.84l1,-0.58l3.92,-1l2.28,-0.47l1.72,-0.36l4,-0.59Z" style="fill:#010001;fill-rule:nonzero;"/></g><g id="F"><rect id="path1662" x="47.244" y="47.244" width="58.069" height="94.488" style="fill:#fff;"/><path id="path1664" d="M71.734,118.063l-0,-27.41l27.079,0l0,-12.25l-27.079,0l-0,-13.579l29.919,-0l-0,-12.83l-43.409,0l-0,66.069l13.49,-0Z" style="fill:#010001;fill-rule:nonzero;"/></g></g></g></g></g></svg>