<?xml version="1.0" encoding="UTF-8" standalone="no"?><!DOCTYPE svg PUBLIC "-//W3C//DTD SVG 1.1//EN" "http://www.w3.org/Graphics/SVG/1.1/DTD/svg11.dtd"><svg width="100%" height="100%" viewBox="0 0 519 367" version="1.1" xmlns="http://www.w3.org/2000/svg" xmlns:xlink="http://www.w3.org/1999/xlink" xml:space="preserve" xmlns:serif="http://www.serif.com/" style="fill-rule:evenodd;clip-rule:evenodd;stroke-linejoin:round;stroke-miterlimit:2;"><g transform="matrix(50,0,0,50,357.911,219.008)"></g><text x="211.988px" y="219.008px" style="font-family:'ArialMT', 'Arial', sans-serif;font-size:50px;">sw=31</text><rect id="Cycle-Skid-Risk" serif:id="Cycle Skid Risk" x="0" y="0" width="518.504" height="366.142" style="fill:none;"/><clipPath id="_clip1"><rect x="0" y="0" width="518.504" height="366.142"/></clipPath><g clip-path="url(#_clip1)"><g><path d="M518.504,35.433c-0,-19.556 -15.877,-35.433 -35.433,-35.433l-447.638,0c-19.556,0 -35.433,15.877 -35.433,35.433l-0,295.276c-0,19.556 15.877,35.433 35.433,35.433l447.638,-0c19.556,-0 35.433,-15.877 35.433,-35.433l-0,-295.276Z"/><path d="M500.787,35.433c0,-9.778 -7.938,-17.716 -17.716,-17.716l-447.638,-0c-9.778,-0 -17.716,7.938 -17.716,17.716l-0,295.276c-0,9.778 7.938,17.716 17.716,17.716l447.638,0c9.778,0 17.716,-7.938 17.716,-17.716l0,-295.276Z" style="fill:#fff;"/><g><g><g><rect id="path1698" x="187.323" y="236.22" width="39.685" height="94.488" style="fill:#fff;"/><g transform="matrix(82.2658,0,0,82.2658,225.84,305.398)"></g><text x="188.902px" y="305.398px" style="font-family:'TransportNew-Heavy', 'Transport New';font-weight:900;font-size:82.266px;">t</text></g><g><rect id="path16981" serif:id="path1698" x="370.157" y="236.22" width="53.858" height="94.488" style="fill:#fff;"/><g transform="matrix(84.7971,0,0,84.7971,424.531,307.087)"></g><text x="371.024px" y="307.087px" style="font-family:'TransportNew-Heavy', 'Transport New';font-weight:900;font-size:84.797px;">k</text></g><g><rect id="path16982" serif:id="path1698" x="267.165" y="236.22" width="52.441" height="94.488" style="fill:#fff;"/><path d="M314.867,297.902l-5.214,9.185c-1.816,-0.104 -3.464,-0.558 -4.943,-1.362c-1.478,-0.805 -2.685,-1.855 -3.619,-3.153c-1.453,1.349 -3.152,2.361 -5.098,3.036c-1.946,0.674 -4.319,1.012 -7.121,1.012c-2.232,-0 -4.372,-0.286 -6.422,-0.857c-2.049,-0.57 -3.852,-1.439 -5.409,-2.607c-1.557,-1.167 -2.802,-2.607 -3.736,-4.32c-0.934,-1.712 -1.401,-3.736 -1.401,-6.07c0,-2.284 0.337,-4.229 1.012,-5.838c0.675,-1.608 1.531,-2.97 2.568,-4.086c1.038,-1.116 2.219,-2.011 3.542,-2.685c1.323,-0.675 2.633,-1.194 3.93,-1.557c1.298,-0.363 2.517,-0.623 3.658,-0.778c1.142,-0.156 2.05,-0.26 2.725,-0.312c1.089,-0.103 2.477,-0.22 4.164,-0.35c1.686,-0.13 3.23,-0.246 4.631,-0.35l-0,-0.623c-0,-1.92 -0.441,-3.308 -1.324,-4.164c-0.882,-0.856 -2.412,-1.284 -4.592,-1.284c-2.283,0 -4.462,0.272 -6.538,0.817c-2.075,0.545 -4.358,1.544 -6.849,2.997l-4.592,-9.729c3.165,-1.764 6.266,-3.036 9.301,-3.814c3.036,-0.778 6.188,-1.167 9.457,-1.167c5.655,-0 9.962,1.4 12.92,4.202c2.957,2.802 4.436,7.005 4.436,12.609l0,14.555c0,1.972 0.338,3.463 1.012,4.475c0.675,1.012 1.842,1.751 3.502,2.218Zm-16.811,-5.837l-0,-5.526c-0.934,0.052 -1.92,0.104 -2.958,0.156c-1.038,0.051 -1.92,0.129 -2.646,0.233c-0.882,0.104 -1.803,0.208 -2.763,0.311c-0.96,0.104 -1.829,0.325 -2.608,0.662c-0.778,0.337 -1.426,0.817 -1.945,1.44c-0.519,0.623 -0.779,1.505 -0.779,2.646c0,1.505 0.649,2.646 1.946,3.425c1.297,0.778 2.776,1.167 4.437,1.167c2.646,0 4.527,-0.441 5.642,-1.323c1.116,-0.882 1.674,-1.946 1.674,-3.191Z" style="fill-rule:nonzero;"/></g><g><rect id="path16983" serif:id="path1698" x="424.016" y="236.22" width="47.244" height="94.488" style="fill:#fff;"/><g transform="matrix(78.4786,0,0,78.4786,470.279,305.732)"></g><text x="425.389px" y="305.732px" style="font-family:'TransportNew-Heavy', 'Transport New';font-weight:900;font-size:78.479px;">s</text></g><g><rect id="path16984" serif:id="path1698" x="227.008" y="236.22" width="40.157" height="94.488" style="fill:#fff;"/><g transform="matrix(83.0785,0,0,83.0785,262.664,307.034)"></g><text x="227.688px" y="307.034px" style="font-family:'TransportNew-Heavy', 'Transport New';font-weight:900;font-size:83.079px;">r</text></g><g><rect id="path16985" serif:id="path1698" x="319.606" y="236.22" width="50.551" height="94.488" style="fill:#fff;"/><path d="M365.757,272.791l-10.281,4.945c-1.935,-4.709 -4.996,-7.063 -9.181,-7.063c-1.622,-0 -3.035,0.366 -4.238,1.098c-1.204,0.733 -2.211,1.701 -3.022,2.904c-0.811,1.203 -1.425,2.59 -1.844,4.159c-0.419,1.57 -0.628,3.166 -0.628,4.788c0,1.674 0.223,3.269 0.667,4.787c0.445,1.517 1.099,2.851 1.962,4.002c0.863,1.151 1.91,2.08 3.139,2.786c1.23,0.706 2.629,1.06 4.199,1.06c1.988,-0 3.728,-0.55 5.219,-1.648c1.491,-1.099 2.786,-2.904 3.884,-5.415l10.124,5.022c-1.831,3.872 -4.395,6.985 -7.691,9.339c-3.296,2.354 -7.141,3.532 -11.536,3.532c-3.715,-0 -6.98,-0.615 -9.797,-1.845c-2.817,-1.229 -5.161,-2.916 -7.033,-5.061c-1.872,-2.146 -3.289,-4.644 -4.251,-7.495c-0.962,-2.852 -1.442,-5.925 -1.442,-9.221c-0,-2.93 0.441,-5.808 1.325,-8.633c0.884,-2.825 2.236,-5.35 4.056,-7.573c1.82,-2.224 4.112,-4.016 6.875,-5.376c2.764,-1.36 6.055,-2.04 9.875,-2.04c4.551,-0 8.554,1.19 12.007,3.57c3.453,2.381 5.99,5.507 7.612,9.378Z" style="fill-rule:nonzero;"/></g></g><g><g><rect id="path16986" serif:id="path1698" x="47.244" y="236.22" width="54.331" height="94.488" style="fill:#fff;"/><g transform="matrix(78.4786,0,0,78.4786,99.9935,305.752)"></g><text x="48.825px" y="305.752px" style="font-family:'TransportNew-Heavy', 'Transport New';font-weight:900;font-size:78.479px;">o</text></g><g><rect id="path16987" serif:id="path1698" x="101.575" y="236.22" width="56.22" height="94.488" style="fill:#fff;"/><g transform="matrix(83.4255,0,0,83.4255,155.464,307.087)"></g><text x="103.406px" y="307.087px" style="font-family:'TransportNew-Heavy', 'Transport New';font-weight:900;font-size:83.425px;">n</text></g></g></g><g><g><g><rect id="path16988" serif:id="path1698" x="116.457" y="141.732" width="53.858" height="94.488" style="fill:#fff;"/><g transform="matrix(84.7971,0,0,84.7971,170.83,212.598)"></g><text x="117.323px" y="212.598px" style="font-family:'TransportNew-Heavy', 'Transport New';font-weight:900;font-size:84.797px;">k</text></g><g><rect id="path16989" serif:id="path1698" x="170.315" y="141.732" width="25.984" height="94.488" style="fill:#fff;"/><g transform="matrix(83.1971,0,0,83.1971,195.339,212.598)"></g><text x="169.715px" y="212.598px" style="font-family:'TransportNew-Heavy', 'Transport New';font-weight:900;font-size:83.197px;">i</text></g><g><rect id="path169810" serif:id="path1698" x="69.213" y="141.732" width="47.244" height="94.488" style="fill:#fff;"/><g transform="matrix(78.4786,0,0,78.4786,115.476,211.244)"></g><text x="70.586px" y="211.244px" style="font-family:'TransportNew-Heavy', 'Transport New';font-weight:900;font-size:78.479px;">s</text></g><g><rect id="path169811" serif:id="path1698" x="196.299" y="141.732" width="56.22" height="94.488" style="fill:#fff;"/><path d="M247.255,212.345l-13.329,0l-0,-2.531c-1.294,1.182 -2.855,2.138 -4.682,2.869c-1.828,0.731 -3.67,1.097 -5.526,1.097c-3.656,-0 -6.89,-0.689 -9.702,-2.067c-2.812,-1.378 -5.175,-3.22 -7.087,-5.526c-1.912,-2.306 -3.374,-4.964 -4.387,-7.973c-1.012,-3.009 -1.518,-6.172 -1.518,-9.491c-0,-3.374 0.478,-6.608 1.434,-9.702c0.956,-3.093 2.376,-5.821 4.26,-8.183c1.884,-2.362 4.204,-4.26 6.96,-5.695c2.756,-1.434 5.934,-2.151 9.533,-2.151c1.969,0 3.881,0.309 5.737,0.928c1.856,0.619 3.515,1.491 4.978,2.615l-0,-20.078l13.329,-0l0,65.888Zm-13.245,-17.801l0,-12.401c0,-1.069 -0.254,-2.025 -0.762,-2.869c-0.509,-0.843 -1.158,-1.574 -1.949,-2.193c-0.791,-0.619 -1.681,-1.097 -2.67,-1.434c-0.988,-0.338 -1.963,-0.506 -2.922,-0.506c-3.559,-0 -6.313,1.251 -8.262,3.754c-1.949,2.503 -2.923,5.723 -2.923,9.66c-0,1.799 0.254,3.473 0.763,5.019c0.508,1.547 1.228,2.883 2.16,4.008c0.932,1.124 2.076,2.024 3.432,2.699c1.356,0.675 2.881,1.013 4.575,1.013c0.848,-0 1.78,-0.141 2.796,-0.422c1.017,-0.281 1.949,-0.703 2.796,-1.266c0.847,-0.562 1.553,-1.265 2.119,-2.109c0.565,-0.843 0.847,-1.828 0.847,-2.953Z" style="fill-rule:nonzero;"/></g></g><g><g><rect id="path169812" serif:id="path1698" x="395.433" y="141.732" width="53.858" height="94.488" style="fill:#fff;"/><g transform="matrix(84.7971,0,0,84.7971,449.806,212.598)"></g><text x="396.299px" y="212.598px" style="font-family:'TransportNew-Heavy', 'Transport New';font-weight:900;font-size:84.797px;">k</text></g><g><rect id="path169813" serif:id="path1698" x="322.205" y="141.732" width="25.984" height="94.488" style="fill:#fff;"/><g transform="matrix(83.1971,0,0,83.1971,347.229,212.598)"></g><text x="321.605px" y="212.598px" style="font-family:'TransportNew-Heavy', 'Transport New';font-weight:900;font-size:83.197px;">i</text></g><g><rect id="path169814" serif:id="path1698" x="348.189" y="141.732" width="47.244" height="94.488" style="fill:#fff;"/><g transform="matrix(78.4786,0,0,78.4786,394.452,211.244)"></g><text x="349.562px" y="211.244px" style="font-family:'TransportNew-Heavy', 'Transport New';font-weight:900;font-size:78.479px;">s</text></g><g><rect id="path169815" serif:id="path1698" x="282.047" y="141.732" width="40.157" height="94.488" style="fill:#fff;"/><g transform="matrix(83.0785,0,0,83.0785,317.703,212.545)"></g><text x="282.727px" y="212.545px" style="font-family:'TransportNew-Heavy', 'Transport New';font-weight:900;font-size:83.079px;">r</text></g></g></g><g><g><rect id="path169816" serif:id="path1698" x="201.614" y="47.244" width="50.079" height="94.488" style="fill:#fff;"/><g transform="matrix(1,0,0,0.999855,-4.54747e-13,-0.308024)"><g transform="matrix(82.7048,0,0,82.7048,250.185,118.123)"></g><text x="201.637px" y="118.123px" style="font-family:'TransportNew-Heavy', 'Transport New';font-weight:900;font-size:82.705px;">y</text></g></g><g><rect id="path169817" serif:id="path1698" x="332.008" y="47.244" width="51.969" height="94.488" style="fill:#fff;"/><path d="M379.651,96.457l-0.157,1.968l-30.473,0c0.053,1.26 0.368,2.428 0.945,3.504c0.577,1.076 1.339,2.021 2.283,2.835c0.945,0.813 2.035,1.443 3.268,1.89c1.234,0.446 2.533,0.669 3.898,0.669c3.937,-0 7.323,-1.313 10.157,-3.937l6.614,8.11c-2.257,2.152 -4.737,3.793 -7.441,4.921c-2.703,1.129 -5.787,1.693 -9.251,1.693c-3.728,0 -7.035,-0.617 -9.922,-1.85c-2.887,-1.234 -5.315,-2.94 -7.283,-5.118c-1.969,-2.179 -3.465,-4.712 -4.488,-7.599c-1.024,-2.887 -1.536,-5.984 -1.536,-9.291c0,-3.202 0.486,-6.234 1.457,-9.095c0.971,-2.86 2.375,-5.341 4.212,-7.44c1.838,-2.1 4.121,-3.767 6.851,-5c2.73,-1.234 5.827,-1.851 9.291,-1.851c3.832,0 7.166,0.683 10,2.047c2.835,1.365 5.145,3.202 6.929,5.512c1.785,2.31 3.058,5.026 3.819,8.15c0.761,3.123 1.037,6.417 0.827,9.882Zm-12.362,-6.851c-0,-2.414 -0.879,-4.396 -2.638,-5.945c-1.759,-1.548 -3.924,-2.322 -6.496,-2.322c-2.467,-0 -4.515,0.826 -6.142,2.48c-1.627,1.653 -2.572,3.583 -2.834,5.787l18.11,0Z" style="fill-rule:nonzero;"/></g><g><rect id="path169818" serif:id="path1698" x="251.693" y="47.244" width="50.551" height="94.488" style="fill:#fff;"/><path d="M297.844,83.815l-10.281,4.944c-1.936,-4.708 -4.996,-7.063 -9.182,-7.063c-1.622,0 -3.034,0.366 -4.238,1.099c-1.203,0.732 -2.21,1.7 -3.021,2.904c-0.811,1.203 -1.426,2.589 -1.844,4.159c-0.419,1.57 -0.628,3.165 -0.628,4.787c-0,1.674 0.222,3.27 0.667,4.787c0.445,1.518 1.099,2.852 1.962,4.003c0.863,1.151 1.909,2.079 3.139,2.786c1.229,0.706 2.629,1.059 4.199,1.059c1.988,0 3.727,-0.549 5.218,-1.648c1.491,-1.099 2.786,-2.904 3.885,-5.415l10.124,5.023c-1.831,3.871 -4.395,6.984 -7.691,9.339c-3.296,2.354 -7.142,3.531 -11.536,3.531c-3.715,0 -6.981,-0.615 -9.797,-1.844c-2.817,-1.23 -5.161,-2.917 -7.033,-5.062c-1.872,-2.145 -3.289,-4.643 -4.251,-7.495c-0.962,-2.851 -1.443,-5.925 -1.443,-9.221c0,-2.93 0.442,-5.807 1.326,-8.632c0.883,-2.826 2.235,-5.35 4.056,-7.574c1.82,-2.223 4.111,-4.015 6.875,-5.375c2.763,-1.361 6.055,-2.041 9.874,-2.041c4.552,0 8.554,1.19 12.007,3.571c3.453,2.38 5.991,5.506 7.613,9.378Z" style="fill-rule:nonzero;"/></g><g><rect id="path169819" serif:id="path1698" x="302.244" y="47.244" width="29.764" height="94.488" style="fill:#fff;"/><g transform="matrix(82.9884,0,0,82.9884,332.072,116.699)"></g><text x="302.03px" y="116.699px" style="font-family:'TransportNew-Heavy', 'Transport New';font-weight:900;font-size:82.988px;">l</text></g><g><rect x="134.528" y="47.244" width="67.087" height="94.488" style="fill:#fff;"/><g transform="matrix(81.5558,0,0,81.5558,201.427,116.642)"></g><text x="135.122px" y="116.642px" style="font-family:'TransportNew-Heavy', 'Transport New';font-weight:900;font-size:81.556px;">C</text></g></g></g></g></svg>