<?xml version="1.0" encoding="UTF-8" standalone="no"?><!DOCTYPE svg PUBLIC "-//W3C//DTD SVG 1.1//EN" "http://www.w3.org/Graphics/SVG/1.1/DTD/svg11.dtd"><svg width="100%" height="100%" viewBox="0 0 613 272" version="1.1" xmlns="http://www.w3.org/2000/svg" xmlns:xlink="http://www.w3.org/1999/xlink" xml:space="preserve" xmlns:serif="http://www.serif.com/" style="fill-rule:evenodd;clip-rule:evenodd;stroke-linejoin:round;stroke-miterlimit:2;"><g transform="matrix(50,0,0,50,379.595,153.478)"></g><text x="233.672px" y="153.478px" style="font-family:'ArialMT', 'Arial', sans-serif;font-size:50px;">sw=23</text><rect id="Road-Liable-to-Flooding" serif:id="Road Liable to Flooding" x="0" y="0" width="612.535" height="271.654" style="fill:none;"/><clipPath id="_clip1"><rect id="Road-Liable-to-Flooding1" serif:id="Road Liable to Flooding" x="0" y="0" width="612.535" height="271.654"/></clipPath><g clip-path="url(#_clip1)"><g><path d="M612.535,35.433c0,-19.556 -15.877,-35.433 -35.433,-35.433l-541.669,0c-19.556,0 -35.433,15.877 -35.433,35.433l-0,200.787c-0,19.557 15.877,35.434 35.433,35.434l541.669,-0c19.556,-0 35.433,-15.877 35.433,-35.434l0,-200.787Z"/><path d="M594.819,35.433c-0,-9.778 -7.939,-17.716 -17.717,-17.716l-541.669,-0c-9.778,-0 -17.716,7.938 -17.716,17.716l-0,200.78c-0,9.778 7.938,17.716 17.716,17.716l541.669,0c9.778,0 17.717,-7.938 17.717,-17.716l-0,-200.78Z" style="fill:#fff;"/><g><g><g><rect id="path1754" x="118.073" y="47.228" width="55.239" height="94.488" style="fill:#fff;"/><path id="path1756" d="M144.402,68.978l-2.59,0.16l-2.5,0.421l-2.5,0.75l-2.41,0.92l-2.25,1.24l-2.34,1.75l-2.079,2.09l-1.83,2.25l-1.5,2.58l-1.171,2.67l-0.16,0.499l-0.84,3.33l-0.5,3.42l-0.17,3.41l0.17,3.42l0.5,3.41l0.84,3.25l0.16,0.591l1.171,2.66l1.5,2.499l1.83,2.34l2.079,2.08l2.34,1.75l2.25,1.16l2.41,1.01l2.5,0.739l2.5,0.421l2.59,0.17l2.58,-0.17l2.58,-0.421l2.5,-0.739l2.42,-1.01l2.25,-1.16l2.33,-1.75l2.08,-2.08l1.84,-2.34l1.5,-2.499l1.16,-2.66l0.17,-0.591l0.83,-3.25l0.5,-3.41l0.094,-3.42l-0.094,-3.41l-0.5,-3.42l-0.83,-3.33l-0.17,-0.499l-1.16,-2.67l-1.5,-2.58l-1.84,-2.25l-2.08,-2.09l-2.33,-1.75l-2.25,-1.24l-2.42,-0.92l-2.5,-0.75l-2.58,-0.421l-2.58,-0.16Zm0,11.33l1.91,0.25l2,0.83l1.75,1.33l1.5,1.59l1.25,1.83l0.67,1.5l0.42,1.58l0.33,2.67l0.082,2.58l-0.082,2.58l-0.33,2.67l-0.42,1.58l-0.67,1.5l-1.25,1.84l-1.5,1.58l-1.75,1.33l-2,0.75l-1.91,0.34l-1.84,-0.34l-2,-0.75l-1.83,-1.33l-1.5,-1.58l-1.17,-1.84l-0.66,-1.5l-0.421,-1.58l-0.329,-2.67l-0.17,-2.58l0.17,-2.58l0.329,-2.67l0.421,-1.58l0.66,-1.5l1.17,-1.83l1.5,-1.59l1.83,-1.33l2,-0.83l1.84,-0.25Z" style="fill:#010001;fill-rule:nonzero;"/></g><g><rect id="path1818" x="225.46" y="47.228" width="57.159" height="94.488" style="fill:#fff;"/><path id="path1820" d="M262.619,51.978l-0,21.16l-2.16,-1.42l-2.25,-1.16l-2.42,-0.84l-2.41,-0.58l-2.59,-0.25l-2.5,0.094l-2.5,0.33l-2.5,0.66l-2.33,0.92l-2.25,1.25l-2.08,1.42l-2.13,2.04l-1.71,2.21l-1.25,2.37l-1.33,3.46l-0.83,3.33l-0.58,3.42l-0.25,3.42l0.16,3.41l0.421,3.42l0.83,3.33l1.09,3.25l1.24,2.5l1.5,2.249l1.84,2.081l2.08,1.749l2.33,1.42l2.75,1.08l2.92,0.75l2.92,0.34l2.91,0l2.92,-0.42l2.83,-0.75l2,-0.75l1.75,-1.171l1.58,-1.41l-0,3.25l12.92,0l-0,-66.158l-12.921,-0.004Zm-9.91,28.33l1.91,0.25l1.92,0.58l1.67,0.92l1.58,1.16l1.079,1.25l0.84,1.34l0.58,1.5l0.33,1.66l-0,10.17l-0.16,1.25l-0.34,1.25l-0.58,1.079l-0.75,1.08l-1.33,1.42l-1.5,1.17l-1.67,0.83l-1.83,0.58l-1.92,0.251l-1.91,-0.161l-1.84,-0.42l-1.5,-0.58l-1.41,-0.84l-1.17,-1.08l-1.001,-1.25l-0.75,-1.42l-0.83,-2.499l-0.42,-2.66l-0.251,-2.58l0.17,-2.67l0.41,-2.58l0.75,-2.59l0.75,-1.66l0.84,-1.25l1.16,-1.09l1.59,-1.08l1.75,-0.75l1.91,-0.499l1.923,-0.081Z" style="fill:#010001;fill-rule:nonzero;"/></g><g><rect id="path1698" x="173.312" y="47.236" width="53.329" height="94.488" style="fill:#fff;"/><path id="path1700" d="M198.141,68.986l-3.08,0.16l-3,0.58l-3.75,1.09l-3.67,1.41l-3.499,1.67l-3.41,1.92l6.329,9.66l2.58,-1.58l2.67,-1.25l2.83,-1l2.92,-0.75l3,-0.421l1.66,-0.082l1.75,0.329l1.58,0.59l0.92,0.58l0.75,0.83l0.5,0.92l0.17,1.079l-0,3l-4.17,0.171l-4.08,0.499l-4.08,0.75l-4,1.08l-3.92,1.42l-1.66,1l-1.59,1.25l-1.42,1.5l-1.159,1.58l-0.921,1.83l-0.66,1.92l-0.34,2l-0.083,2l0.17,2l0.491,1.92l0.759,1.91l1,1.75l1.24,1.59l1.42,1.41l1.67,1.17l2.41,1.16l2.59,0.92l2.75,0.589l2.75,0.33l2.75,-0.083l2.66,-0.34l2.67,-0.66l1.42,-0.67l1.33,-0.83l1.079,-1.001l0.921,-1.25l1,1.33l1.25,1.001l1.42,0.75l2.58,1l2.66,0.58l2.75,0.33l4.59,-10.08l-1.091,-0l-1.079,-0.16l-1.08,-0.499l-0.839,-0.67l-0.661,-0.92l-0.42,-1.001l-0.17,-1.159l-0,-22.33l-0.161,-1.84l-0.42,-1.83l-0.75,-1.67l-0.92,-1.58l-1.25,-1.5l-1.41,-1.17l-1.59,-1.001l-2.25,-0.989l-2.41,-0.84l-2.92,-0.831l-3.08,-0.42l-2.996,-0.151Zm7.25,28.069l-0,6.75l-0.17,1.25l-0.58,1.171l-0.75,1l-1.09,0.75l-1.16,0.42l-2.33,0.33l-2.34,-0l-2.33,-0.33l-1.17,-0.42l-1.001,-0.75l-0.83,-0.92l-0.58,-1.08l-0.34,-1.079l-0,-1.171l0.34,-1.17l0.58,-0.911l0.83,-0.84l1.001,-0.579l3.92,-1.001l2.28,-0.47l1.719,-0.36l4.001,-0.59Z" style="fill:#010001;fill-rule:nonzero;"/></g><g id="R"><rect id="path1614" x="47.244" y="47.236" width="70.829" height="94.488" style="fill:#fff;"/><path id="path1616" d="M58.414,51.986l-0,66.159l13.49,-0l-0,-25.83l8.839,0l15.08,25.83l15.75,-0l-15.83,-27l2.41,-1.079l2.34,-1.42l2.08,-1.67l1.83,-1.99l1.58,-2.17l1.25,-2.33l1,-2.5l0.591,-2.59l0.25,-2.66l-0.094,-2.75l-0.5,-2.59l-0.75,-2.58l-1.16,-2.42l-1.5,-2.25l-1.67,-2.08l-2,-1.749l-2.25,-1.5l-2.419,-1.25l-2.49,-0.831l-2.67,-0.59l-2.67,-0.161l-30.487,0.001Zm13.49,12.25l15.749,-0l1.59,0.159l1.41,0.5l1.42,0.67l1.17,1l1,1.171l0.66,1.41l0.5,1.42l0.17,1.58l-0.17,1.499l-0.5,1.5l-0.66,1.34l-1,1.25l-1.17,0.911l-1.42,0.75l-1.41,0.5l-1.59,0.094l-15.749,0l-0,-15.754Z" style="fill:#010001;fill-rule:nonzero;"/></g></g><g><g><rect id="path1806" x="512.382" y="47.24" width="52.909" height="94.488" style="fill:#fff;"/><path id="path1808" d="M537.882,69.65l-2.42,0.17l-2.41,0.41l-2.34,0.75l-2.25,1.09l-2.08,1.25l-2.25,1.66l-2.08,2l-1.75,2.25l-1.42,2.42l-1.17,3l-0.831,3.17l-0.499,3.159l-0.17,3.25l0.25,3.25l0.591,3.17l0.909,3.08l1.169,3l1.08,2.17l1.42,2l1.5,1.83l1.83,1.67l1.92,1.41l2.08,1.25l2.25,0.92l2.34,0.67l2.99,0.58l3.09,0.25l3.079,-0.083l3.08,-0.34l3,-0.66l2.34,-0.84l2.16,-1.079l2,-1.42l1.83,-1.67l1.67,-1.83l-8,-8.08l-1.83,1.67l-2.08,1.33l-2.25,1l-2.169,0.58l-2.17,0.17l-2.16,-0.082l-2.17,-0.421l-2.08,-0.75l-1.42,-0.92l-1.25,-1.16l-1.001,-1.34l-0.75,-1.5l-0.409,-1.66l-0.171,-1.67l31.5,0l-0.17,-3.92l-0.421,-3.91l-0.83,-3.83l-1.17,-3.75l-1.08,-2.499l-1.42,-2.25l-1.66,-2.17l-2,-1.83l-2.17,-1.59l-2.08,-1.25l-2.25,-0.91l-2.42,-0.669l-2.42,-0.421l-2.407,-0.075Zm-0.251,10.749l1.66,0l1.67,0.33l1.58,0.589l1.42,0.831l1.33,1.079l1.09,1.25l0.831,1.42l0.58,1.58l0.25,1.67l-19.16,0l0.251,-1.67l0.58,-1.58l0.839,-1.42l1.08,-1.25l1.33,-1.079l1.42,-0.831l1.58,-0.589l1.669,-0.33Z" style="fill:#010001;fill-rule:nonzero;"/></g><g><rect id="path1742" x="312.146" y="47.24" width="30.749" height="94.488" style="fill:#fff;"/><path id="path1744" d="M339.065,106.479l-2.5,0.33l-2.499,0.094l-0.921,-0.094l-0.75,-0.41l-0.66,-0.67l-0.42,-0.75l-0.17,-0.92l-0,-52.069l-12.91,-0l0,57.319l0.161,1.75l0.499,1.67l0.75,1.58l1.001,1.5l1.25,1.25l1.42,1l1.67,0.67l1.66,0.499l1.75,0.17l4.079,-0.34l4,-0.499l4,-0.75l-1.41,-11.33Z" style="fill:#010001;fill-rule:nonzero;"/></g><g><rect id="path17421" serif:id="path1742" x="481.633" y="47.24" width="30.749" height="94.488" style="fill:#fff;"/><path id="path17441" serif:id="path1744" d="M508.552,106.479l-2.5,0.33l-2.5,0.094l-0.92,-0.094l-0.75,-0.41l-0.66,-0.67l-0.42,-0.75l-0.17,-0.92l-0,-52.069l-12.91,-0l-0,57.319l0.16,1.75l0.5,1.67l0.75,1.58l1,1.5l1.25,1.25l1.42,1l1.67,0.67l1.66,0.499l1.75,0.17l4.08,-0.34l4,-0.499l4,-0.75l-1.41,-11.33Z" style="fill:#010001;fill-rule:nonzero;"/></g><g><rect id="path1790" x="342.895" y="47.24" width="26.92" height="94.488" style="fill:#fff;"/><path id="path1792" d="M355.645,51.49l-1.42,0.16l-1.41,0.42l-1.25,0.67l-1.17,0.909l-0.92,1.171l-0.661,1.25l-0.42,1.42l-0.17,1.41l0.17,1.42l0.42,1.419l0.661,1.331l0.92,1.079l1.17,0.92l1.25,0.66l1.41,0.421l1.42,0.17l1.42,-0.17l1.41,-0.421l1.25,-0.66l1.171,-0.92l0.92,-1.079l0.66,-1.331l0.42,-1.419l0.17,-1.42l-0.17,-1.41l-0.42,-1.42l-0.66,-1.25l-0.92,-1.171l-1.171,-0.909l-1.25,-0.67l-1.41,-0.42l-1.42,-0.16Zm-6.5,19.41l0,47.239l12.92,-0l0,-47.239l-12.92,-0Z" style="fill:#010001;fill-rule:nonzero;"/></g><g><rect id="path1802" x="423.144" y="47.24" width="58.489" height="94.488" style="fill:#fff;"/><path id="path1804" d="M429.804,51.99l-0,66.149l12.92,-0l-0,-3.24l1.579,1.41l1.75,1.17l1.92,0.75l2.91,0.75l2.92,0.421l2.92,-0l2.91,-0.34l2.92,-0.75l2.66,-1.08l2.42,-1.42l2.08,-1.75l1.84,-2.08l1.5,-2.25l1.16,-2.5l1.17,-3.25l0.75,-3.33l0.5,-3.42l0.083,-3.41l-0.171,-3.42l-0.579,-3.419l-0.91,-3.33l-1.17,-3.17l-0.831,-1.91l-1.17,-1.75l-1.33,-1.5l-1.92,-1.75l-2,-1.42l-2.25,-1.25l-2.33,-0.92l-2.5,-0.661l-2.5,-0.329l-2.58,-0.095l-2.5,0.251l-2.5,0.58l-2.34,0.84l-2.25,1.159l-2.16,1.42l0,-21.159l-12.921,0.003Zm22.749,28.33l2,0.082l1.83,0.5l1.83,0.75l1.59,1.079l1.08,1.09l0.92,1.25l0.75,1.66l0.75,2.59l0.41,2.58l0.094,2.67l-0.17,2.58l-0.5,2.66l-0.75,2.5l-0.75,1.42l-1,1.25l-1.25,1.08l-1.33,0.839l-1.5,0.58l-1.92,0.421l-1.83,0.16l-1.92,-0.25l-1.83,-0.58l-1.75,-0.83l-1.5,-1.171l-1.25,-1.42l-0.75,-1.079l-0.58,-1.08l-0.34,-1.25l-0.16,-1.25l-0,-10.17l0.25,-1.66l0.58,-1.499l0.92,-1.341l1.08,-1.249l1.58,-1.16l1.67,-0.92l1.83,-0.58l1.916,-0.252Z" style="fill:#010001;fill-rule:nonzero;"/></g><g><rect id="path16981" serif:id="path1698" x="369.815" y="47.24" width="53.329" height="94.488" style="fill:#fff;"/><path id="path17001" serif:id="path1700" d="M394.644,68.99l-3.08,0.16l-2.999,0.58l-3.75,1.09l-3.67,1.41l-3.5,1.67l-3.41,1.92l6.33,9.66l2.58,-1.58l2.67,-1.25l2.83,-1l2.919,-0.75l3,-0.421l1.66,-0.082l1.75,0.329l1.58,0.59l0.92,0.579l0.75,0.831l0.5,0.92l0.17,1.079l0,3l-4.17,0.17l-4.08,0.5l-4.08,0.75l-4,1.08l-3.919,1.42l-1.66,1l-1.59,1.25l-1.42,1.5l-1.16,1.58l-0.92,1.83l-0.661,1.92l-0.34,2l-0.082,2l0.17,2l0.49,1.92l0.759,1.91l1.001,1.749l1.24,1.59l1.42,1.41l1.67,1.171l2.41,1.16l2.59,0.92l2.749,0.589l2.75,0.33l2.75,-0.083l2.66,-0.34l2.67,-0.66l1.42,-0.67l1.33,-0.83l1.08,-1.001l0.92,-1.25l1,1.33l1.25,1.001l1.42,0.75l2.58,1l2.66,0.58l2.75,0.329l4.59,-10.079l-1.09,-0l-1.08,-0.16l-1.079,-0.499l-0.84,-0.67l-0.66,-0.92l-0.421,-1.001l-0.17,-1.159l0,-22.33l-0.161,-1.84l-0.42,-1.83l-0.75,-1.67l-0.92,-1.58l-1.25,-1.5l-1.41,-1.17l-1.59,-1.001l-2.25,-0.989l-2.41,-0.84l-2.92,-0.831l-3.08,-0.42l-2.996,-0.151Zm7.25,28.069l0,6.75l-0.17,1.25l-0.58,1.17l-0.75,1.001l-1.09,0.75l-1.16,0.42l-2.33,0.33l-2.34,-0l-2.33,-0.33l-1.17,-0.42l-1,-0.75l-0.831,-0.92l-0.58,-1.08l-0.34,-1.079l0,-1.171l0.34,-1.17l0.58,-0.911l0.831,-0.84l1,-0.58l3.92,-1l2.28,-0.47l1.72,-0.36l4,-0.59Z" style="fill:#010001;fill-rule:nonzero;"/></g></g></g><g><g><g><rect id="path17541" serif:id="path1754" x="95.74" y="141.724" width="55.239" height="94.488" style="fill:#fff;"/><path id="path17561" serif:id="path1756" d="M122.069,163.474l-2.59,0.161l-2.5,0.42l-2.5,0.75l-2.409,0.92l-2.25,1.24l-2.34,1.75l-2.08,2.09l-1.83,2.25l-1.5,2.58l-1.171,2.67l-0.16,0.5l-0.84,3.329l-0.5,3.42l-0.17,3.41l0.17,3.42l0.5,3.41l0.84,3.25l0.16,0.591l1.171,2.66l1.5,2.5l1.83,2.34l2.08,2.079l2.34,1.751l2.25,1.159l2.409,1.01l2.5,0.74l2.5,0.42l2.59,0.17l2.58,-0.17l2.58,-0.42l2.5,-0.74l2.42,-1.01l2.25,-1.159l2.33,-1.751l2.08,-2.079l1.84,-2.34l1.5,-2.5l1.16,-2.66l0.17,-0.591l0.83,-3.25l0.5,-3.41l0.094,-3.42l-0.094,-3.41l-0.5,-3.42l-0.83,-3.329l-0.17,-0.5l-1.16,-2.67l-1.5,-2.58l-1.84,-2.25l-2.08,-2.09l-2.33,-1.75l-2.25,-1.24l-2.42,-0.92l-2.5,-0.75l-2.58,-0.42l-2.58,-0.161Zm0,11.33l1.91,0.25l2,0.83l1.75,1.33l1.5,1.59l1.25,1.83l0.67,1.5l0.42,1.58l0.33,2.67l0.083,2.58l-0.083,2.58l-0.33,2.67l-0.42,1.58l-0.67,1.5l-1.25,1.84l-1.5,1.58l-1.75,1.33l-2,0.75l-1.91,0.34l-1.84,-0.34l-2,-0.75l-1.83,-1.33l-1.5,-1.58l-1.17,-1.84l-0.66,-1.5l-0.421,-1.58l-0.329,-2.67l-0.17,-2.58l0.17,-2.58l0.329,-2.67l0.421,-1.58l0.66,-1.5l1.17,-1.83l1.5,-1.59l1.83,-1.33l2,-0.83l1.84,-0.25Z" style="fill:#010001;fill-rule:nonzero;"/></g><g><rect id="path1670" x="55.156" y="141.724" width="40.584" height="94.488" style="fill:#fff;"/><path id="path1672" d="M85.159,202.3l2.41,-0.411l2.34,-0.67l2.831,10.751l-3.501,1l-3.58,0.66l-3.59,0.34l-3.661,0.083l-3.59,-0.33l-1.75,-0.34l-1.74,-0.75l-1.5,-1l-1.34,-1.25l-1.081,-1.41l-0.751,-1.67l-0.5,-1.75l-0.17,-1.831l-0,-28.002l-7.581,-0l0,-10.751l7.581,-0l-0,-14.741l12.921,-3.751l-0,18.492l12.001,-0l0,10.751l-12.001,-0l-0,23.002l0.083,1l0.419,0.92l0.581,0.751l0.83,0.58l0.92,0.42l0.919,0.082l2.5,-0.175Z" style="fill:#010001;fill-rule:nonzero;"/></g></g><g><g><rect id="path17542" serif:id="path1754" x="249.505" y="141.724" width="55.239" height="94.488" style="fill:#fff;"/><path id="path17562" serif:id="path1756" d="M275.834,163.474l-2.59,0.161l-2.499,0.42l-2.5,0.75l-2.41,0.92l-2.25,1.24l-2.34,1.75l-2.08,2.09l-1.83,2.25l-1.5,2.58l-1.171,2.67l-0.16,0.5l-0.84,3.329l-0.5,3.42l-0.17,3.41l0.17,3.42l0.5,3.41l0.84,3.25l0.16,0.591l1.171,2.66l1.5,2.5l1.83,2.34l2.08,2.079l2.34,1.751l2.25,1.159l2.41,1.01l2.5,0.74l2.499,0.42l2.59,0.17l2.58,-0.17l2.58,-0.42l2.5,-0.74l2.42,-1.01l2.25,-1.159l2.33,-1.751l2.08,-2.079l1.84,-2.34l1.5,-2.5l1.16,-2.66l0.17,-0.591l0.83,-3.25l0.5,-3.41l0.094,-3.42l-0.094,-3.41l-0.5,-3.42l-0.83,-3.329l-0.17,-0.5l-1.16,-2.67l-1.5,-2.58l-1.84,-2.25l-2.08,-2.09l-2.33,-1.75l-2.25,-1.24l-2.42,-0.92l-2.5,-0.75l-2.58,-0.42l-2.58,-0.161Zm0,11.33l1.91,0.25l2,0.83l1.75,1.33l1.5,1.59l1.25,1.83l0.67,1.5l0.42,1.58l0.33,2.67l0.083,2.58l-0.083,2.58l-0.33,2.67l-0.42,1.58l-0.67,1.5l-1.25,1.84l-1.5,1.58l-1.75,1.33l-2,0.75l-1.91,0.34l-1.84,-0.34l-2,-0.75l-1.829,-1.33l-1.5,-1.58l-1.171,-1.84l-0.66,-1.5l-0.421,-1.58l-0.329,-2.67l-0.17,-2.58l0.17,-2.58l0.329,-2.67l0.421,-1.58l0.66,-1.5l1.171,-1.83l1.5,-1.59l1.829,-1.33l2,-0.83l1.84,-0.25Z" style="fill:#010001;fill-rule:nonzero;"/></g><g><rect id="path17543" serif:id="path1754" x="304.744" y="141.724" width="55.239" height="94.488" style="fill:#fff;"/><path id="path17563" serif:id="path1756" d="M331.073,163.474l-2.59,0.161l-2.5,0.42l-2.5,0.75l-2.409,0.92l-2.25,1.24l-2.34,1.75l-2.08,2.09l-1.83,2.25l-1.5,2.58l-1.171,2.67l-0.16,0.5l-0.84,3.329l-0.5,3.42l-0.17,3.41l0.17,3.42l0.5,3.41l0.84,3.25l0.16,0.591l1.171,2.66l1.5,2.5l1.83,2.34l2.08,2.079l2.34,1.751l2.25,1.159l2.409,1.01l2.5,0.74l2.5,0.42l2.59,0.17l2.58,-0.17l2.58,-0.42l2.5,-0.74l2.42,-1.01l2.25,-1.159l2.33,-1.751l2.08,-2.079l1.84,-2.34l1.5,-2.5l1.16,-2.66l0.17,-0.591l0.83,-3.25l0.5,-3.41l0.094,-3.42l-0.094,-3.41l-0.5,-3.42l-0.83,-3.329l-0.17,-0.5l-1.16,-2.67l-1.5,-2.58l-1.84,-2.25l-2.08,-2.09l-2.33,-1.75l-2.25,-1.24l-2.42,-0.92l-2.5,-0.75l-2.58,-0.42l-2.58,-0.161Zm0,11.33l1.91,0.25l2,0.83l1.75,1.33l1.5,1.59l1.25,1.83l0.67,1.5l0.42,1.58l0.33,2.67l0.083,2.58l-0.083,2.58l-0.33,2.67l-0.42,1.58l-0.67,1.5l-1.25,1.84l-1.5,1.58l-1.75,1.33l-2,0.75l-1.91,0.34l-1.84,-0.34l-2,-0.75l-1.83,-1.33l-1.5,-1.58l-1.17,-1.84l-0.66,-1.5l-0.421,-1.58l-0.329,-2.67l-0.17,-2.58l0.17,-2.58l0.329,-2.67l0.421,-1.58l0.66,-1.5l1.17,-1.83l1.5,-1.59l1.83,-1.33l2,-0.83l1.84,-0.25Z" style="fill:#010001;fill-rule:nonzero;"/></g><g><rect id="path17422" serif:id="path1742" x="218.756" y="141.716" width="30.749" height="94.488" style="fill:#fff;"/><path id="path17442" serif:id="path1744" d="M245.675,200.955l-2.5,0.33l-2.5,0.094l-0.92,-0.094l-0.75,-0.41l-0.66,-0.67l-0.421,-0.75l-0.17,-0.92l0,-52.069l-12.909,0l-0,57.319l0.16,1.75l0.5,1.67l0.75,1.58l1,1.5l1.25,1.25l1.42,1l1.67,0.67l1.66,0.5l1.75,0.17l4.08,-0.34l4,-0.5l4,-0.75l-1.41,-11.33Z" style="fill:#010001;fill-rule:nonzero;"/></g><g><rect id="path1750" x="444.061" y="141.716" width="57.159" height="94.488" style="fill:#fff;"/><path id="path1752" d="M480.64,182.796l-0.34,-1.67l-0.75,-1.58l-1,-1.34l-1.25,-1.08l-1.75,-0.75l-1.91,-0.329l-1.92,0.082l-1.83,0.33l-1.84,0.75l-1.5,1l-1.33,1.25l-1,1.5l-0.67,1.59l-0.16,1.66l-0,28.33l-12.92,-0l-0,-47.159l12.92,-0l-0,3.33l1.909,-1.5l2.09,-1.25l2.16,-0.91l2.34,-0.59l2.33,-0.33l2.42,0.083l2.75,0.499l2.41,0.84l2.33,1.16l2.09,1.42l1.91,1.67l1.67,1.91l1.42,2.17l1.08,2.5l0.75,2.58l0.42,2.67l0.161,2.75l-0,28.159l-12.91,0l12.91,0l-12.91,0l-0,-28.079l-0.08,-1.666Z" style="fill:#010001;fill-rule:nonzero;"/></g><g><rect id="path17901" serif:id="path1790" x="417.142" y="141.716" width="26.92" height="94.488" style="fill:#fff;"/><path id="path17921" serif:id="path1792" d="M429.891,145.966l-1.42,0.16l-1.41,0.42l-1.25,0.67l-1.17,0.91l-0.92,1.17l-0.66,1.25l-0.421,1.42l-0.17,1.41l0.17,1.42l0.421,1.42l0.66,1.33l0.92,1.079l1.17,0.92l1.25,0.661l1.41,0.42l1.42,0.17l1.42,-0.17l1.41,-0.42l1.25,-0.661l1.171,-0.92l0.92,-1.079l0.66,-1.33l0.421,-1.42l0.17,-1.42l-0.17,-1.41l-0.421,-1.42l-0.66,-1.25l-0.92,-1.17l-1.171,-0.91l-1.25,-0.67l-1.41,-0.42l-1.42,-0.16Zm-6.5,19.41l0,47.239l12.92,0l0,-47.239l-12.92,-0Z" style="fill:#010001;fill-rule:nonzero;"/></g><g><rect id="path1810" x="501.22" y="141.724" width="56.159" height="94.488" style="fill:#fff;"/><path id="path1812" d="M525.55,164.714l-2.84,0.17l-2.75,0.5l-2.66,0.92l-1.92,0.909l-1.83,1.171l-1.75,1.33l-1.5,1.59l-1.34,1.659l-1.33,2.42l-1,2.58l-0.831,2.59l-0.669,2.58l-0.41,2.67l-0.095,2.75l0.251,2.66l0.499,2.67l0.75,2.58l1.001,2.33l1.25,2.25l1.5,2.09l1.84,1.83l1.99,1.58l2.34,1.42l2.5,1.079l2.66,0.75l2.669,0.33l2.92,0.17l2.91,-0.33l2.84,-0.579l2.16,-0.75l2.09,-1.091l0,2.5l-0.17,1.42l-0.5,1.33l-0.75,1.171l-1,1l-1.17,0.75l-1.33,0.421l-3.5,0.329l-3.92,-0.094l-3.91,-0.491l-2.42,-0.59l-2.42,-0.75l-2.25,-1.08l-2.16,-1.34l-6.08,10.42l3.83,1.83l4,1.42l4,1.171l4.16,0.909l3.25,0.25l3.34,0.095l3.25,-0.25l3.33,-0.59l2.67,-0.66l2.579,-1l2.411,-1.34l2.249,-1.66l1.59,-1.59l1.25,-1.83l1.08,-2l0.75,-2.08l0.499,-2.17l0.171,-2.25l-0,-45.409l-12.83,-0l-0,2.42l-1.75,-1.171l-1.92,-0.83l-2,-0.5l-2.75,-0.499l-2.824,-0.09Zm1.66,11.25l2.09,0.17l1.909,0.58l1.92,0.839l1.08,0.75l1,1.001l0.75,1.16l0.5,1.25l0.34,1.33l0,7.51l-0.34,1.74l-0.5,1.749l-0.58,1.26l-0.83,1.08l-1.09,0.83l-1.16,0.67l-1.75,0.58l-1.75,0.25l-1.84,0l-1.75,-0.25l-1.75,-0.5l-1.41,-0.669l-1.34,-0.91l-1.079,-1.17l-0.83,-1.33l-0.5,-1.42l-0.5,-1.91l-0.25,-2l0.083,-2l0.25,-1.92l0.58,-2.17l0.92,-2l0.67,-1.25l0.92,-1.08l1.079,-0.83l1.16,-0.67l2,-0.499l1.998,-0.171Z" style="fill:#010001;fill-rule:nonzero;"/></g><g><rect id="path1814" x="180.506" y="141.716" width="38.249" height="94.488" style="fill:#fff;"/><path id="path1816" d="M203.926,165.046l9.16,0l-0,10.66l-9.16,-0l-0,36.919l-12.92,0l0,-36.919l-7.58,-0l0,-10.66l7.58,0l0,-6.92l0.17,-1.91l0.41,-1.92l0.84,-1.75l1,-1.67l1.33,-1.41l1.5,-1.25l1.67,-1l1.83,-0.67l1.92,-0.329l3.66,-0.095l3.67,0.17l3.58,0.421l3.58,0.75l-2.33,10.5l-3,-0.34l-3.17,-0l-0.909,0.094l-0.92,0.41l-0.831,0.59l-0.58,0.75l-0.42,0.911l-0.095,1l0.015,3.668Z" style="fill:#010001;fill-rule:nonzero;"/></g><g><rect id="path18181" serif:id="path1818" x="359.983" y="141.724" width="57.159" height="94.488" style="fill:#fff;"/><path id="path18201" serif:id="path1820" d="M397.142,146.474l-0,21.16l-2.16,-1.42l-2.25,-1.16l-2.42,-0.84l-2.41,-0.58l-2.59,-0.25l-2.5,0.095l-2.5,0.329l-2.5,0.66l-2.33,0.92l-2.25,1.25l-2.079,1.42l-2.13,2.04l-1.71,2.21l-1.25,2.37l-1.33,3.46l-0.831,3.33l-0.58,3.42l-0.25,3.42l0.161,3.41l0.42,3.42l0.83,3.33l1.091,3.25l1.239,2.5l1.5,2.25l1.84,2.08l2.08,1.75l2.33,1.42l2.75,1.079l2.92,0.75l2.92,0.34l2.91,0l2.92,-0.42l2.83,-0.75l2,-0.75l1.75,-1.171l1.58,-1.41l-0,3.25l12.92,0l-0,-66.158l-12.921,-0.004Zm-9.91,28.33l1.91,0.25l1.92,0.58l1.67,0.92l1.58,1.16l1.08,1.25l0.839,1.34l0.58,1.5l0.33,1.66l-0,10.17l-0.16,1.25l-0.34,1.25l-0.58,1.079l-0.75,1.08l-1.33,1.42l-1.5,1.17l-1.67,0.831l-1.83,0.579l-1.92,0.251l-1.91,-0.161l-1.84,-0.42l-1.5,-0.58l-1.41,-0.84l-1.17,-1.079l-1,-1.25l-0.75,-1.42l-0.831,-2.5l-0.42,-2.66l-0.251,-2.58l0.171,-2.67l0.409,-2.58l0.75,-2.59l0.75,-1.66l0.84,-1.25l1.16,-1.09l1.59,-1.08l1.75,-0.75l1.91,-0.499l1.923,-0.081Z" style="fill:#010001;fill-rule:nonzero;"/></g></g></g></g></g></svg>