<?xml version="1.0" encoding="UTF-8" standalone="no"?><!DOCTYPE svg PUBLIC "-//W3C//DTD SVG 1.1//EN" "http://www.w3.org/Graphics/SVG/1.1/DTD/svg11.dtd"><svg width="100%" height="100%" viewBox="0 0 480 272" version="1.1" xmlns="http://www.w3.org/2000/svg" xmlns:xlink="http://www.w3.org/1999/xlink" xml:space="preserve" xmlns:serif="http://www.serif.com/" style="fill-rule:evenodd;clip-rule:evenodd;stroke-linejoin:round;stroke-miterlimit:2;"><g transform="matrix(50,0,0,50,313.009,153.478)"></g><text x="167.086px" y="153.478px" style="font-family:'ArialMT', 'Arial', sans-serif;font-size:50px;">sw=23</text><rect id="Runners-In-Road" serif:id="Runners In Road" x="0" y="0" width="479.362" height="271.654" style="fill:none;"/><clipPath id="_clip1"><rect id="Runners-In-Road1" serif:id="Runners In Road" x="0" y="0" width="479.362" height="271.654"/></clipPath><g clip-path="url(#_clip1)"><g><path d="M479.362,35.433c0,-19.556 -15.877,-35.433 -35.433,-35.433l-408.496,0c-19.556,0 -35.433,15.877 -35.433,35.433l-0,200.787c-0,19.557 15.877,35.434 35.433,35.434l408.496,-0c19.556,-0 35.433,-15.877 35.433,-35.434l0,-200.787Z"/><path d="M461.645,35.433c0,-9.778 -7.938,-17.716 -17.716,-17.716l-408.496,-0c-9.778,-0 -17.716,7.938 -17.716,17.716l-0,200.787c-0,9.778 7.938,17.717 17.716,17.717l408.496,0c9.778,0 17.716,-7.939 17.716,-17.717l0,-200.787Z" style="fill:#fff;"/><g><g><g><rect id="path1786" x="342.875" y="47.244" width="41.079" height="94.488" style="fill:#fff;"/><path id="path1788" d="M362.374,118.063l-12.92,-0l0,-47.159l12.92,-0l0,4.67l1.58,-1.59l1.75,-1.33l2,-1.171l2.17,-0.75l2.16,-0.499l2.25,-0.161l3.17,-0l-0,12.25l-4.42,-0l-1.83,0.159l-1.83,0.5l-1.67,0.84l-1.58,1.079l-1.25,1.25l-1.079,1.58l-0.84,1.67l-0.5,1.83l-0.082,1.84l0.001,24.992Z" style="fill:#010001;fill-rule:nonzero;"/></g><g><rect id="path1750" x="175.648" y="47.244" width="57.159" height="94.488" style="fill:#fff;"/><path id="path1752" d="M212.227,88.323l-0.34,-1.67l-0.75,-1.58l-1,-1.34l-1.25,-1.079l-1.75,-0.75l-1.91,-0.33l-1.92,0.083l-1.83,0.33l-1.84,0.75l-1.5,1l-1.33,1.25l-1.001,1.5l-0.669,1.59l-0.161,1.66l0,28.329l-12.92,0l0,-47.159l12.92,0l0,3.33l1.91,-1.5l2.09,-1.25l2.16,-0.909l2.34,-0.591l2.33,-0.329l2.42,0.082l2.75,0.5l2.41,0.84l2.33,1.16l2.09,1.419l1.91,1.67l1.67,1.91l1.42,2.17l1.079,2.5l0.75,2.58l0.421,2.67l0.16,2.75l0,28.16l-12.91,-0l12.91,-0l-12.91,-0l0,-28.08l-0.079,-1.666Z" style="fill:#010001;fill-rule:nonzero;"/></g><g><rect id="path17501" serif:id="path1750" x="232.807" y="47.244" width="57.159" height="94.488" style="fill:#fff;"/><path id="path17521" serif:id="path1752" d="M269.386,88.323l-0.34,-1.67l-0.75,-1.58l-1.001,-1.34l-1.249,-1.079l-1.75,-0.75l-1.91,-0.33l-1.92,0.083l-1.83,0.33l-1.84,0.75l-1.5,1l-1.33,1.25l-1.001,1.5l-0.669,1.59l-0.161,1.66l0,28.329l-12.92,0l0,-47.159l12.92,0l0,3.33l1.91,-1.5l2.09,-1.25l2.16,-0.909l2.34,-0.591l2.33,-0.329l2.42,0.082l2.75,0.5l2.41,0.84l2.33,1.16l2.09,1.419l1.91,1.67l1.67,1.91l1.42,2.17l1.079,2.5l0.75,2.58l0.421,2.67l0.16,2.75l0,28.16l-12.91,-0l12.91,-0l-12.91,-0l0,-28.08l-0.079,-1.666Z" style="fill:#010001;fill-rule:nonzero;"/></g><g><rect id="path1806" x="289.966" y="47.244" width="52.909" height="94.488" style="fill:#fff;"/><path id="path1808" d="M315.465,69.654l-2.42,0.17l-2.41,0.41l-2.34,0.75l-2.25,1.09l-2.08,1.25l-2.249,1.66l-2.08,2l-1.75,2.25l-1.42,2.42l-1.171,3l-0.83,3.169l-0.5,3.16l-0.17,3.25l0.251,3.25l0.59,3.17l0.91,3.08l1.169,3l1.079,2.17l1.42,2l1.5,1.83l1.83,1.67l1.92,1.41l2.08,1.25l2.25,0.92l2.34,0.67l2.99,0.58l3.09,0.25l3.08,-0.083l3.08,-0.34l3,-0.66l2.34,-0.84l2.16,-1.079l2,-1.42l1.83,-1.67l1.67,-1.83l-8,-8.08l-1.83,1.67l-2.08,1.33l-2.25,1l-2.17,0.58l-2.17,0.17l-2.16,-0.083l-2.17,-0.42l-2.08,-0.75l-1.42,-0.92l-1.25,-1.16l-1,-1.34l-0.75,-1.5l-0.41,-1.66l-0.17,-1.67l31.499,0l-0.17,-3.92l-0.42,-3.91l-0.831,-3.83l-1.17,-3.75l-1.08,-2.5l-1.419,-2.25l-1.66,-2.169l-2,-1.83l-2.17,-1.59l-2.08,-1.25l-2.25,-0.91l-2.42,-0.669l-2.42,-0.421l-2.408,-0.075Zm-0.25,10.749l1.66,0l1.67,0.33l1.58,0.589l1.42,0.831l1.33,1.079l1.09,1.25l0.83,1.42l0.58,1.58l0.25,1.67l-19.159,0l0.25,-1.67l0.58,-1.58l0.84,-1.42l1.079,-1.25l1.33,-1.079l1.42,-0.831l1.58,-0.589l1.67,-0.33Z" style="fill:#010001;fill-rule:nonzero;"/></g><g><rect id="path1666" x="118.073" y="47.244" width="57.575" height="94.488" style="fill:#fff;"/><path id="path1668" d="M124.403,70.826l12.921,0l-12.921,0l12.921,0l0,28.163l0.16,1.67l0.34,1.66l0.66,1.5l1,1.42l1.341,1.081l1.75,0.749l1.83,0.251l1.92,-0l1.91,-0.41l1.75,-0.671l1.58,-1l1.25,-1.25l1.091,-1.5l0.58,-1.58l0.17,-1.67l0,-28.413l12.911,0l0,47.244l-12.911,0l0,-3.33l-1.84,1.5l-2.08,1.16l-2.25,0.92l-2.25,0.67l-2.411,0.251l-2.42,-0l-2.75,-0.501l-2.42,-0.84l-2.25,-1.16l-2.161,-1.42l-1.84,-1.67l-1.75,-1.91l-1.41,-2.17l-1,-2.501l-0.751,-2.58l-0.5,-2.75l-0.17,-2.67l0,-28.243Z" style="fill:#010001;fill-rule:nonzero;"/></g><g><rect id="path1674" x="383.954" y="47.244" width="48.164" height="94.488" style="fill:#fff;"/><path id="path1676" d="M396.705,103.909l2,1.58l2.16,1.25l2.34,1l2.411,0.671l2.5,0.33l2.25,-0l1.59,-0.581l1.33,-0.92l0.75,-0.749l0.5,-1l0.081,-1.081l-0.25,-1.09l-0.58,-0.91l-0.83,-0.671l-3.251,-1.25l-3.34,-0.67l-3,-0.5l-4.08,-1l-2.001,-0.66l-1.83,-1l-1.67,-1.25l-1.5,-1.42l-1.25,-1.58l-1.08,-1.751l-0.67,-2.09l-0.41,-2.16l-0,-2.17l0.25,-2.16l0.58,-2.171l0.92,-1.92l1.25,-1.83l1.41,-1.58l1.59,-1.42l1.831,-1.171l1.91,-0.91l2.09,-0.59l3,-0.66l3,-0.34l3.081,-0l3.08,0.249l3.09,0.59l2.5,0.75l2.411,1l2.34,1.33l2.24,1.42l2,1.75l-7.991,8.491l-2.25,-1.83l-2.5,-1.5l-2.67,-1.16l-1.5,-0.419l-1.58,-0.25l-1.591,0l-1.66,0.42l-1.5,0.749l-1.34,1l-0.66,0.83l-0.34,0.92l0.09,1.081l0.33,0.91l0.58,0.841l1,0.58l5.501,1.081l5,0.67l1.92,0.33l0.081,-0l1.92,0.67l1.83,0.83l1.84,1.09l1.66,1.41l1.42,1.59l1.16,1.75l0.841,1.911l0.58,2.09l0.33,2.08l-0.083,2.17l-0.33,2.08l-0.67,2.08l-1.081,2.091l-1.34,1.91l-1.58,1.75l-1.83,1.5l-2,1.17l-3.25,1.001l-3.331,0.659l-3.42,0.341l-3.33,-0l-3.421,-0.341l-3.33,-0.659l-3,-0.92l-2.92,-1.25l-2.661,-1.58l-2.5,-1.841l-2.34,-2.16l9.421,-8.67l1.752,1.839Z" style="fill:#010001;fill-rule:nonzero;"/></g><g id="R"><rect id="path1614" x="47.244" y="47.244" width="70.829" height="94.488" style="fill:#fff;"/><path id="path1616" d="M58.414,51.994l-0,66.159l13.49,-0l-0,-25.83l8.839,0l15.08,25.83l15.75,-0l-15.83,-27l2.41,-1.079l2.34,-1.42l2.08,-1.67l1.83,-1.99l1.58,-2.17l1.25,-2.33l1,-2.5l0.591,-2.59l0.25,-2.66l-0.094,-2.75l-0.5,-2.59l-0.75,-2.58l-1.16,-2.42l-1.5,-2.25l-1.67,-2.08l-2,-1.75l-2.25,-1.5l-2.419,-1.25l-2.49,-0.83l-2.67,-0.59l-2.67,-0.161l-30.487,0.001Zm13.49,12.25l15.749,-0l1.59,0.159l1.41,0.5l1.42,0.67l1.17,1l1,1.17l0.66,1.41l0.5,1.42l0.17,1.58l-0.17,1.5l-0.5,1.5l-0.66,1.34l-1,1.25l-1.17,0.911l-1.42,0.75l-1.41,0.499l-1.59,0.095l-15.749,-0l-0,-15.754Z" style="fill:#010001;fill-rule:nonzero;"/></g></g><g><g><g><rect id="path17861" serif:id="path1786" x="193.081" y="141.732" width="41.079" height="94.488" style="fill:#fff;"/><path id="path17881" serif:id="path1788" d="M212.581,212.551l-12.92,-0l-0,-47.159l12.92,-0l-0,4.67l1.58,-1.59l1.75,-1.33l2,-1.171l2.17,-0.75l2.16,-0.499l2.249,-0.161l3.17,0l0,12.25l-4.42,-0l-1.829,0.159l-1.83,0.5l-1.67,0.84l-1.58,1.079l-1.25,1.25l-1.08,1.58l-0.84,1.67l-0.499,1.83l-0.083,1.84l0.002,24.992Z" style="fill:#010001;fill-rule:nonzero;"/></g><g><rect id="path1754" x="234.16" y="141.732" width="55.239" height="94.488" style="fill:#fff;"/><path id="path1756" d="M260.49,163.482l-2.59,0.16l-2.5,0.421l-2.5,0.75l-2.41,0.92l-2.25,1.24l-2.34,1.75l-2.08,2.09l-1.83,2.25l-1.5,2.58l-1.17,2.67l-0.161,0.499l-0.84,3.33l-0.499,3.42l-0.17,3.41l0.17,3.42l0.499,3.41l0.84,3.25l0.161,0.591l1.17,2.66l1.5,2.499l1.83,2.34l2.08,2.08l2.34,1.75l2.25,1.16l2.41,1.01l2.5,0.739l2.5,0.421l2.59,0.17l2.58,-0.17l2.58,-0.421l2.5,-0.739l2.42,-1.01l2.25,-1.16l2.329,-1.75l2.08,-2.08l1.84,-2.34l1.5,-2.499l1.16,-2.66l0.17,-0.591l0.831,-3.25l0.499,-3.41l0.095,-3.42l-0.095,-3.41l-0.499,-3.42l-0.831,-3.33l-0.17,-0.499l-1.16,-2.67l-1.5,-2.58l-1.84,-2.25l-2.08,-2.09l-2.329,-1.75l-2.25,-1.24l-2.42,-0.92l-2.5,-0.75l-2.58,-0.421l-2.58,-0.16Zm-0,11.33l1.91,0.25l2,0.83l1.75,1.33l1.5,1.59l1.25,1.83l0.669,1.5l0.421,1.58l0.329,2.67l0.083,2.58l-0.083,2.58l-0.329,2.67l-0.421,1.58l-0.669,1.5l-1.25,1.84l-1.5,1.58l-1.75,1.33l-2,0.75l-1.91,0.34l-1.84,-0.34l-2,-0.75l-1.83,-1.33l-1.5,-1.58l-1.171,-1.84l-0.66,-1.5l-0.42,-1.58l-0.33,-2.67l-0.17,-2.58l0.17,-2.58l0.33,-2.67l0.42,-1.58l0.66,-1.5l1.171,-1.83l1.5,-1.59l1.83,-1.33l2,-0.83l1.84,-0.25Z" style="fill:#010001;fill-rule:nonzero;"/></g><g><rect id="path1818" x="342.728" y="141.732" width="57.159" height="94.488" style="fill:#fff;"/><path id="path1820" d="M379.887,146.482l0,21.16l-2.16,-1.42l-2.25,-1.16l-2.419,-0.84l-2.41,-0.58l-2.59,-0.25l-2.5,0.094l-2.5,0.33l-2.5,0.66l-2.33,0.92l-2.25,1.25l-2.08,1.42l-2.13,2.04l-1.71,2.21l-1.25,2.37l-1.33,3.46l-0.83,3.33l-0.58,3.42l-0.251,3.42l0.161,3.41l0.42,3.42l0.831,3.33l1.09,3.25l1.24,2.5l1.5,2.249l1.84,2.081l2.08,1.749l2.33,1.42l2.75,1.08l2.92,0.75l2.92,0.34l2.91,0l2.92,-0.42l2.829,-0.75l2,-0.75l1.75,-1.171l1.58,-1.41l0,3.25l12.92,0l0,-66.158l-12.921,-0.004Zm-9.909,28.33l1.91,0.25l1.92,0.58l1.669,0.92l1.58,1.16l1.08,1.25l0.84,1.34l0.58,1.5l0.329,1.66l0,10.17l-0.159,1.25l-0.34,1.25l-0.58,1.079l-0.75,1.08l-1.33,1.42l-1.5,1.17l-1.67,0.83l-1.83,0.58l-1.92,0.251l-1.91,-0.161l-1.84,-0.42l-1.5,-0.58l-1.41,-0.84l-1.171,-1.08l-1,-1.25l-0.75,-1.42l-0.83,-2.5l-0.421,-2.659l-0.25,-2.58l0.17,-2.67l0.41,-2.58l0.75,-2.59l0.75,-1.66l0.84,-1.25l1.159,-1.09l1.59,-1.08l1.75,-0.75l1.91,-0.499l1.924,-0.081Z" style="fill:#010001;fill-rule:nonzero;"/></g><g><rect id="path1698" x="289.399" y="141.732" width="53.329" height="94.488" style="fill:#fff;"/><path id="path1700" d="M314.229,163.482l-3.08,0.16l-3,0.58l-3.75,1.091l-3.67,1.41l-3.5,1.669l-3.41,1.92l6.33,9.66l2.58,-1.58l2.67,-1.25l2.83,-1l2.92,-0.75l3,-0.421l1.66,-0.082l1.75,0.329l1.58,0.59l0.92,0.58l0.75,0.83l0.499,0.92l0.17,1.08l0,3l-4.17,0.17l-4.079,0.499l-4.08,0.75l-4,1.08l-3.92,1.42l-1.66,1l-1.59,1.25l-1.42,1.5l-1.16,1.58l-0.92,1.83l-0.66,1.92l-0.34,2l-0.083,2l0.17,2l0.49,1.92l0.76,1.91l1,1.75l1.24,1.59l1.42,1.41l1.67,1.17l2.41,1.16l2.59,0.92l2.75,0.589l2.75,0.33l2.75,-0.083l2.66,-0.34l2.67,-0.66l1.419,-0.67l1.33,-0.83l1.08,-1.001l0.92,-1.25l1,1.33l1.25,1.001l1.42,0.75l2.58,1l2.66,0.58l2.75,0.33l4.59,-10.08l-1.09,-0l-1.08,-0.16l-1.079,-0.499l-0.84,-0.67l-0.66,-0.92l-0.421,-1l-0.17,-1.16l0,-22.33l-0.16,-1.84l-0.421,-1.83l-0.75,-1.67l-0.92,-1.58l-1.25,-1.5l-1.41,-1.17l-1.59,-1.001l-2.25,-0.989l-2.41,-0.84l-2.92,-0.83l-3.08,-0.421l-2.995,-0.151Zm7.249,28.069l0,6.75l-0.17,1.25l-0.58,1.171l-0.75,1l-1.09,0.75l-1.16,0.42l-2.33,0.33l-2.34,0l-2.329,-0.33l-1.171,-0.42l-1,-0.75l-0.831,-0.92l-0.579,-1.08l-0.341,-1.079l0,-1.171l0.341,-1.17l0.579,-0.911l0.831,-0.839l1,-0.58l3.92,-1.001l2.28,-0.47l1.72,-0.36l4,-0.59Z" style="fill:#010001;fill-rule:nonzero;"/></g></g><g><g><rect id="path17502" serif:id="path1750" x="106.395" y="141.732" width="57.159" height="94.488" style="fill:#fff;"/><path id="path17522" serif:id="path1752" d="M142.974,182.811l-0.34,-1.669l-0.75,-1.58l-1.001,-1.34l-1.25,-1.08l-1.749,-0.75l-1.91,-0.329l-1.92,0.082l-1.83,0.33l-1.84,0.75l-1.5,1l-1.33,1.25l-1.001,1.5l-0.669,1.59l-0.161,1.66l0,28.329l-12.92,0l0,-47.159l12.92,0l0,3.33l1.91,-1.5l2.09,-1.25l2.16,-0.909l2.34,-0.591l2.33,-0.329l2.42,0.083l2.75,0.499l2.41,0.84l2.33,1.16l2.09,1.42l1.909,1.67l1.67,1.91l1.42,2.17l1.08,2.5l0.75,2.579l0.42,2.67l0.161,2.75l0,28.16l-12.91,-0l12.91,-0l-12.91,-0l0,-28.08l-0.079,-1.666Z" style="fill:#010001;fill-rule:nonzero;"/></g><g><rect id="path1790" x="79.475" y="141.732" width="26.92" height="94.488" style="fill:#fff;"/><path id="path1792" d="M92.225,145.982l-1.42,0.16l-1.41,0.42l-1.25,0.67l-1.171,0.909l-0.92,1.171l-0.66,1.25l-0.42,1.42l-0.17,1.41l0.17,1.42l0.42,1.42l0.66,1.33l0.92,1.079l1.171,0.92l1.25,0.66l1.41,0.421l1.42,0.17l1.42,-0.17l1.41,-0.421l1.25,-0.66l1.17,-0.92l0.92,-1.079l0.661,-1.33l0.42,-1.42l0.17,-1.42l-0.17,-1.41l-0.42,-1.42l-0.661,-1.25l-0.92,-1.171l-1.17,-0.909l-1.25,-0.67l-1.41,-0.42l-1.42,-0.16Zm-6.5,19.41l-0,47.239l12.92,-0l-0,-47.239l-12.92,-0Z" style="fill:#010001;fill-rule:nonzero;"/></g></g></g></g></g></g></svg>