<?xml version="1.0" encoding="UTF-8" standalone="no"?><!DOCTYPE svg PUBLIC "-//W3C//DTD SVG 1.1//EN" "http://www.w3.org/Graphics/SVG/1.1/DTD/svg11.dtd"><svg width="100%" height="100%" viewBox="0 0 629 915" version="1.1" xmlns="http://www.w3.org/2000/svg" xmlns:xlink="http://www.w3.org/1999/xlink" xml:space="preserve" xmlns:serif="http://www.serif.com/" style="fill-rule:evenodd;clip-rule:evenodd;stroke-linejoin:round;stroke-miterlimit:2;"><g transform="matrix(50,0,0,50,422.615,474.881)"></g><text x="207.185px" y="474.881px" style="font-family:'ArialMT', 'Arial', sans-serif;font-size:50px;">sw=77.42</text><g><path d="M628.701,37.795c-0,-20.86 -16.936,-37.795 -37.795,-37.795l-553.111,0c-20.86,0 -37.795,16.935 -37.795,37.795l-0,838.819c-0,20.86 16.935,37.795 37.795,37.795l553.111,0c20.859,0 37.795,-16.935 37.795,-37.795l-0,-838.819Z"/><path d="M609.803,37.795c0,-10.43 -8.468,-18.897 -18.897,-18.897l-553.111,-0c-10.43,-0 -18.897,8.467 -18.897,18.897l-0,838.819c-0,10.43 8.467,18.898 18.897,18.898l553.111,-0c10.429,-0 18.897,-8.468 18.897,-18.898l0,-838.819Z" style="fill:#fff;"/><g><path d="M571.561,243.78c0,-8.41 -6.827,-15.237 -15.236,-15.237l-483.949,0c-8.409,0 -15.236,6.827 -15.236,15.237l-0,274.37c-0,8.409 6.827,15.236 15.236,15.236l483.949,-0c8.409,-0 15.236,-6.827 15.236,-15.236l0,-274.37Z"/><g><g><circle cx="164.978" cy="323.807" r="57.158" style="fill:#fff;"/><circle cx="164.978" cy="323.807" r="51.442" style="fill:#e31837;"/></g><g><circle cx="463.723" cy="323.807" r="57.158" style="fill:#fff;"/><circle cx="463.723" cy="323.807" r="51.442" style="fill:#e31837;"/></g><g><circle cx="314.35" cy="441.933" r="53.347" style="fill:#fff;"/><circle cx="314.35" cy="441.933" r="49.537" style="fill:#ffd200;"/></g></g></g><g><g><g><rect id="path1754" x="445.697" y="779.055" width="55.239" height="94.488" style="fill:#fff;"/><path id="path1756" d="M472.026,800.805l-2.59,0.16l-2.5,0.421l-2.5,0.75l-2.409,0.92l-2.25,1.24l-2.34,1.75l-2.08,2.09l-1.83,2.25l-1.5,2.58l-1.171,2.67l-0.16,0.499l-0.84,3.33l-0.5,3.42l-0.17,3.41l0.17,3.42l0.5,3.41l0.84,3.25l0.16,0.59l1.171,2.66l1.5,2.5l1.83,2.34l2.08,2.08l2.34,1.75l2.25,1.16l2.409,1.01l2.5,0.739l2.5,0.421l2.59,0.17l2.58,-0.17l2.58,-0.421l2.5,-0.739l2.42,-1.01l2.25,-1.16l2.33,-1.75l2.08,-2.08l1.84,-2.34l1.5,-2.5l1.16,-2.66l0.17,-0.59l0.83,-3.25l0.5,-3.41l0.094,-3.42l-0.094,-3.41l-0.5,-3.42l-0.83,-3.33l-0.17,-0.499l-1.16,-2.67l-1.5,-2.58l-1.84,-2.25l-2.08,-2.09l-2.33,-1.75l-2.25,-1.24l-2.42,-0.92l-2.5,-0.75l-2.58,-0.421l-2.58,-0.16Zm0,11.329l1.91,0.251l2,0.83l1.75,1.33l1.5,1.59l1.25,1.83l0.67,1.5l0.42,1.58l0.33,2.67l0.083,2.58l-0.083,2.58l-0.33,2.67l-0.42,1.58l-0.67,1.5l-1.25,1.84l-1.5,1.58l-1.75,1.33l-2,0.75l-1.91,0.34l-1.84,-0.34l-2,-0.75l-1.83,-1.33l-1.5,-1.58l-1.17,-1.84l-0.66,-1.5l-0.421,-1.58l-0.329,-2.67l-0.17,-2.58l0.17,-2.58l0.329,-2.67l0.421,-1.58l0.66,-1.5l1.17,-1.83l1.5,-1.59l1.83,-1.33l2,-0.83l1.84,-0.251Z" style="fill:#010001;fill-rule:nonzero;"/></g><g><rect id="path1794" x="388.605" y="779.055" width="57.069" height="94.488" style="fill:#fff;"/><path id="path1796" d="M424.094,816.964l-1,-1.42l-1.251,-1.079l-1.749,-0.75l-1.91,-0.33l-1.92,0.083l-1.83,0.421l-1.84,0.66l-1.5,1l-1.33,1.25l-1.001,1.5l-0.669,1.59l-0.161,1.66l0,28.42l-12.92,-0l0,-66.159l12.92,-0l0,22.239l1.91,-1.5l2,-1.16l2.25,-0.92l2.34,-0.669l2.33,-0.251l2.42,0l2.75,0.5l2.41,0.84l2.33,1.16l2.09,1.419l1.91,1.67l1.67,1.91l1.42,2.17l1.079,2.5l0.75,2.58l0.421,2.67l0.16,2.75l0,28.25l-12.91,-0l12.91,-0l-12.91,-0l0,-28.17l-0.094,-1.66l-0.41,-1.67l-0.665,-1.504Z" style="fill:#010001;fill-rule:nonzero;"/></g><g><rect id="path1682" x="500.936" y="779.055" width="76.497" height="94.488" style="fill:#fff;"/><path id="path1684" d="M538.179,820.719l-6.911,29.162l-15.081,0l-13.251,-47.244l12.751,0l8.411,29.913l7.08,-29.913l14.092,0l7.08,29.913l8.331,-29.913l12.831,0l-13.251,47.244l-15.162,0l-6.92,-29.162Z" style="fill:#010001;fill-rule:nonzero;"/></g><g><rect id="path1674" x="340.441" y="779.055" width="48.164" height="94.488" style="fill:#fff;"/><path id="path1676" d="M353.192,835.72l2,1.58l2.16,1.25l2.34,1l2.41,0.671l2.501,0.33l2.25,-0l1.59,-0.581l1.33,-0.92l0.75,-0.749l0.5,-1l0.081,-1.081l-0.25,-1.09l-0.58,-0.91l-0.831,-0.67l-3.25,-1.251l-3.34,-0.67l-3,-0.5l-4.081,-1l-2,-0.66l-1.83,-1l-1.67,-1.25l-1.5,-1.42l-1.25,-1.58l-1.081,-1.751l-0.67,-2.09l-0.41,-2.16l0,-2.17l0.25,-2.16l0.581,-2.171l0.92,-1.92l1.25,-1.83l1.41,-1.58l1.59,-1.42l1.83,-1.171l1.91,-0.91l2.091,-0.59l3,-0.66l3,-0.34l3.08,-0l3.081,0.249l3.09,0.59l2.5,0.75l2.41,1l2.341,1.33l2.24,1.42l2,1.75l-7.991,8.491l-2.25,-1.83l-2.5,-1.5l-2.67,-1.16l-1.501,-0.419l-1.58,-0.25l-1.59,0l-1.66,0.42l-1.5,0.749l-1.34,1l-0.66,0.83l-0.34,0.92l0.09,1.081l0.33,0.91l0.58,0.841l1,0.58l5.5,1.081l5.001,0.67l1.92,0.33l0.08,-0l1.92,0.67l1.831,0.83l1.84,1.09l1.66,1.41l1.42,1.59l1.16,1.75l0.84,1.911l0.581,2.09l0.33,2.08l-0.083,2.17l-0.33,2.08l-0.67,2.081l-1.081,2.09l-1.34,1.91l-1.58,1.75l-1.83,1.5l-2,1.171l-3.251,1l-3.33,0.659l-3.42,0.341l-3.331,-0l-3.42,-0.341l-3.33,-0.659l-3,-0.92l-2.921,-1.25l-2.66,-1.58l-2.5,-1.84l-2.34,-2.161l9.42,-8.67l1.753,1.839Z" style="fill:#010001;fill-rule:nonzero;"/></g></g><g><g><rect id="path1742" x="51.268" y="779.055" width="30.749" height="94.488" style="fill:#fff;"/><path id="path1744" d="M78.188,838.294l-2.5,0.33l-2.5,0.094l-0.92,-0.094l-0.75,-0.41l-0.66,-0.67l-0.421,-0.75l-0.17,-0.92l0,-52.069l-12.909,-0l-0,57.319l0.16,1.75l0.5,1.67l0.75,1.58l1,1.5l1.25,1.25l1.42,1l1.67,0.67l1.66,0.499l1.75,0.17l4.08,-0.34l4,-0.499l4,-0.75l-1.41,-11.33Z" style="fill:#010001;fill-rule:nonzero;"/></g><g><rect id="path1790" x="82.018" y="779.055" width="26.92" height="94.488" style="fill:#fff;"/><path id="path1792" d="M94.768,783.305l-1.42,0.16l-1.41,0.42l-1.25,0.67l-1.171,0.909l-0.92,1.171l-0.66,1.25l-0.421,1.42l-0.17,1.409l0.17,1.421l0.421,1.419l0.66,1.33l0.92,1.08l1.171,0.92l1.25,0.66l1.41,0.421l1.42,0.17l1.42,-0.17l1.41,-0.421l1.25,-0.66l1.17,-0.92l0.92,-1.08l0.66,-1.33l0.421,-1.419l0.17,-1.421l-0.17,-1.409l-0.421,-1.42l-0.66,-1.25l-0.92,-1.171l-1.17,-0.909l-1.25,-0.67l-1.41,-0.42l-1.42,-0.16Zm-6.5,19.41l-0,47.239l12.92,-0l-0,-47.239l-12.92,-0Z" style="fill:#010001;fill-rule:nonzero;"/></g><g><rect id="path17941" serif:id="path1794" x="165.096" y="779.055" width="57.069" height="94.488" style="fill:#fff;"/><path id="path17961" serif:id="path1796" d="M200.586,816.964l-1.001,-1.42l-1.25,-1.079l-1.75,-0.75l-1.91,-0.33l-1.92,0.083l-1.83,0.421l-1.84,0.66l-1.499,1l-1.331,1.25l-1,1.5l-0.67,1.59l-0.16,1.66l-0,28.42l-12.92,-0l0,-66.159l12.92,-0l-0,22.239l1.91,-1.5l2,-1.16l2.25,-0.92l2.34,-0.669l2.33,-0.251l2.42,0l2.749,0.5l2.41,0.84l2.33,1.16l2.09,1.419l1.91,1.67l1.67,1.91l1.42,2.17l1.08,2.5l0.75,2.58l0.42,2.67l0.161,2.75l-0,28.25l-12.91,-0l12.91,-0l-12.91,-0l0,-28.17l-0.094,-1.66l-0.41,-1.67l-0.665,-1.504Z" style="fill:#010001;fill-rule:nonzero;"/></g><g><rect id="path1810" x="108.937" y="779.055" width="56.159" height="94.488" style="fill:#fff;"/><path id="path1812" d="M133.267,802.045l-2.84,0.17l-2.75,0.499l-2.66,0.92l-1.92,0.91l-1.83,1.17l-1.75,1.33l-1.5,1.59l-1.34,1.66l-1.33,2.42l-1,2.58l-0.83,2.59l-0.67,2.58l-0.41,2.67l-0.094,2.75l0.25,2.66l0.5,2.67l0.75,2.58l1,2.33l1.25,2.25l1.5,2.09l1.84,1.83l1.99,1.58l2.34,1.42l2.5,1.079l2.66,0.75l2.67,0.33l2.92,0.17l2.91,-0.33l2.84,-0.58l2.16,-0.75l2.089,-1.09l0,2.5l-0.17,1.42l-0.499,1.33l-0.75,1.17l-1.001,1.001l-1.17,0.75l-1.33,0.42l-3.5,0.33l-3.92,-0.095l-3.91,-0.49l-2.42,-0.59l-2.42,-0.75l-2.25,-1.08l-2.16,-1.34l-6.079,10.42l3.829,1.83l4,1.42l4,1.17l4.16,0.91l3.25,0.25l3.34,0.095l3.25,-0.251l3.33,-0.589l2.67,-0.66l2.58,-1.001l2.41,-1.34l2.25,-1.66l1.59,-1.59l1.25,-1.83l1.079,-2l0.75,-2.08l0.5,-2.169l0.17,-2.25l-0,-45.41l-12.83,0l0,2.42l-1.75,-1.17l-1.92,-0.83l-2,-0.5l-2.75,-0.5l-2.824,-0.089Zm1.66,11.249l2.09,0.171l1.91,0.579l1.92,0.84l1.079,0.75l1.001,1.001l0.75,1.159l0.499,1.25l0.34,1.33l0,7.51l-0.34,1.74l-0.499,1.75l-0.58,1.26l-0.831,1.08l-1.09,0.83l-1.16,0.67l-1.749,0.58l-1.75,0.25l-1.84,0l-1.75,-0.25l-1.75,-0.5l-1.41,-0.67l-1.34,-0.909l-1.08,-1.171l-0.83,-1.33l-0.5,-1.42l-0.499,-1.91l-0.251,-1.999l0.083,-2l0.25,-1.92l0.58,-2.17l0.92,-2l0.67,-1.25l0.92,-1.08l1.08,-0.83l1.159,-0.67l2,-0.499l1.998,-0.172Z" style="fill:#010001;fill-rule:nonzero;"/></g><g><rect id="path1670" x="222.165" y="779.055" width="40.584" height="94.488" style="fill:#fff;"/><path id="path1672" d="M252.168,839.63l2.41,-0.41l2.34,-0.67l2.831,10.751l-3.501,1l-3.58,0.66l-3.59,0.34l-3.661,0.083l-3.59,-0.33l-1.75,-0.34l-1.74,-0.75l-1.5,-1l-1.341,-1.25l-1.08,-1.41l-0.751,-1.671l-0.5,-1.75l-0.17,-1.83l-0,-28.002l-7.581,-0l0,-10.751l7.581,-0l-0,-14.741l12.921,-3.751l-0,18.492l12.001,-0l0,10.751l-12.001,-0l-0,23.002l0.083,1l0.419,0.92l0.581,0.75l0.83,0.581l0.92,0.419l0.919,0.083l2.5,-0.176Z" style="fill:#010001;fill-rule:nonzero;"/></g><g><rect id="path16741" serif:id="path1674" x="262.749" y="779.055" width="48.164" height="94.488" style="fill:#fff;"/><path id="path16761" serif:id="path1676" d="M275.5,835.72l2,1.58l2.16,1.25l2.34,1l2.411,0.671l2.5,0.33l2.25,-0l1.59,-0.581l1.33,-0.92l0.75,-0.749l0.501,-1l0.08,-1.081l-0.25,-1.09l-0.58,-0.91l-0.83,-0.67l-3.251,-1.251l-3.34,-0.67l-3,-0.5l-4.08,-1l-2.001,-0.66l-1.83,-1l-1.67,-1.25l-1.5,-1.42l-1.25,-1.58l-1.08,-1.751l-0.67,-2.09l-0.41,-2.16l-0,-2.17l0.25,-2.16l0.58,-2.171l0.92,-1.92l1.25,-1.83l1.41,-1.58l1.59,-1.42l1.831,-1.171l1.91,-0.91l2.09,-0.59l3,-0.66l3,-0.34l3.081,-0l3.08,0.249l3.09,0.59l2.5,0.75l2.411,1l2.34,1.33l2.24,1.42l2,1.75l-7.99,8.491l-2.251,-1.83l-2.5,-1.5l-2.67,-1.16l-1.5,-0.419l-1.58,-0.25l-1.591,0l-1.66,0.42l-1.5,0.749l-1.34,1l-0.66,0.83l-0.34,0.92l0.09,1.081l0.33,0.91l0.58,0.841l1,0.58l5.501,1.081l5,0.67l1.92,0.33l0.081,-0l1.92,0.67l1.83,0.83l1.84,1.09l1.66,1.41l1.42,1.59l1.16,1.75l0.841,1.911l0.58,2.09l0.33,2.08l-0.083,2.17l-0.33,2.08l-0.67,2.081l-1.081,2.09l-1.34,1.91l-1.58,1.75l-1.83,1.5l-2,1.171l-3.25,1l-3.331,0.659l-3.42,0.341l-3.33,-0l-3.421,-0.341l-3.33,-0.659l-3,-0.92l-2.92,-1.25l-2.661,-1.58l-2.5,-1.84l-2.34,-2.161l9.421,-8.67l1.752,1.839Z" style="fill:#010001;fill-rule:nonzero;"/></g></g></g><g><g><rect id="path1750" x="379.008" y="684.567" width="57.159" height="94.488" style="fill:#fff;"/><path id="path1752" d="M415.587,725.646l-0.34,-1.67l-0.75,-1.58l-1,-1.34l-1.25,-1.079l-1.75,-0.75l-1.91,-0.33l-1.92,0.083l-1.83,0.329l-1.84,0.75l-1.5,1.001l-1.33,1.25l-1,1.5l-0.67,1.59l-0.16,1.66l-0,28.329l-12.92,0l-0,-47.159l12.92,-0l-0,3.33l1.909,-1.5l2.09,-1.25l2.16,-0.909l2.34,-0.591l2.33,-0.33l2.42,0.083l2.75,0.5l2.41,0.84l2.33,1.159l2.09,1.42l1.91,1.67l1.67,1.91l1.42,2.17l1.08,2.5l0.75,2.58l0.42,2.67l0.161,2.75l-0,28.159l-12.91,0l12.91,0l-12.91,0l-0,-28.079l-0.08,-1.666Z" style="fill:#010001;fill-rule:nonzero;"/></g><g><rect id="path1806" x="326.099" y="684.567" width="52.909" height="94.488" style="fill:#fff;"/><path id="path1808" d="M351.599,706.976l-2.42,0.171l-2.41,0.409l-2.34,0.75l-2.25,1.091l-2.08,1.249l-2.25,1.661l-2.08,1.999l-1.75,2.25l-1.42,2.42l-1.17,3l-0.831,3.17l-0.499,3.16l-0.17,3.25l0.25,3.25l0.591,3.17l0.909,3.08l1.169,3l1.08,2.17l1.42,2l1.5,1.83l1.83,1.67l1.92,1.41l2.08,1.25l2.25,0.92l2.34,0.669l2.99,0.58l3.09,0.251l3.079,-0.083l3.08,-0.34l3,-0.66l2.34,-0.84l2.16,-1.08l2,-1.42l1.83,-1.67l1.67,-1.83l-8,-8.079l-1.83,1.67l-2.08,1.33l-2.25,1l-2.17,0.58l-2.169,0.17l-2.16,-0.083l-2.17,-0.42l-2.08,-0.75l-1.42,-0.92l-1.25,-1.16l-1.001,-1.34l-0.75,-1.5l-0.41,-1.66l-0.17,-1.67l31.5,-0l-0.17,-3.92l-0.421,-3.91l-0.83,-3.83l-1.171,-3.75l-1.079,-2.5l-1.42,-2.25l-1.66,-2.17l-2,-1.83l-2.17,-1.59l-2.08,-1.249l-2.25,-0.91l-2.42,-0.67l-2.42,-0.42l-2.407,-0.076Zm-0.251,10.75l1.66,0l1.67,0.33l1.58,0.589l1.42,0.83l1.33,1.08l1.09,1.25l0.831,1.42l0.579,1.58l0.251,1.67l-19.16,-0l0.251,-1.67l0.58,-1.58l0.839,-1.42l1.08,-1.25l1.33,-1.08l1.42,-0.83l1.58,-0.589l1.669,-0.33Z" style="fill:#010001;fill-rule:nonzero;"/></g><g><rect id="path17942" serif:id="path1794" x="269.03" y="684.567" width="57.069" height="94.488" style="fill:#fff;"/><path id="path17962" serif:id="path1796" d="M304.52,722.476l-1.001,-1.42l-1.25,-1.079l-1.75,-0.75l-1.91,-0.33l-1.92,0.083l-1.83,0.42l-1.84,0.661l-1.5,1l-1.33,1.25l-1,1.5l-0.67,1.59l-0.16,1.66l-0,28.419l-12.92,0l-0,-66.158l12.92,-0l-0,22.239l1.91,-1.5l2,-1.16l2.25,-0.92l2.34,-0.669l2.33,-0.251l2.419,0l2.75,0.5l2.41,0.84l2.33,1.159l2.09,1.42l1.91,1.67l1.67,1.91l1.42,2.17l1.08,2.5l0.75,2.58l0.42,2.67l0.161,2.75l-0,28.249l-12.91,0l12.91,0l-12.91,0l-0,-28.169l-0.095,-1.66l-0.409,-1.67l-0.665,-1.504Z" style="fill:#010001;fill-rule:nonzero;"/></g><g><rect id="path16821" serif:id="path1682" x="192.534" y="684.567" width="76.497" height="94.488" style="fill:#fff;"/><path id="path16841" serif:id="path1684" d="M229.777,726.23l-6.911,29.163l-15.081,0l-13.251,-47.244l12.751,0l8.411,29.913l7.08,-29.913l14.092,0l7.08,29.913l8.331,-29.913l12.831,0l-13.251,47.244l-15.162,0l-6.92,-29.163Z" style="fill:#010001;fill-rule:nonzero;"/></g></g><g><g id="S"><rect id="path1618" x="154.579" y="571.181" width="83.782" height="113.386" style="fill:#fff;"/><path id="path1620" d="M204.366,625.672l1.8,0.696l1.5,1.008l1.296,1.391l0.9,1.608l0.504,1.692l0.1,1.908l-0.301,1.8l-0.792,1.692l-1.104,1.5l-1.704,1.405l-1.896,1.091l-2.1,0.804l-2.196,0.395l-5.4,0l-3.096,-0.395l-3,-0.6l-2.904,-0.996l-2.904,-1.296l-3.396,-2.207l-3.204,-2.4l-2.891,-2.796l-13.8,10.595l2.904,3l3.096,2.796l3.3,2.508l3.492,2.196l3.803,1.8l4.296,1.405l4.5,0.996l4.5,0.696l4.5,0.301l4.596,-0.1l4.5,-0.395l4.5,-0.804l4.404,-1.2l3,-1.201l2.796,-1.596l2.604,-2.004l2.304,-2.304l1.992,-2.591l1.607,-2.808l1.188,-2.988l0.804,-3.204l0.3,-3.204l-0.099,-3.192l-0.504,-3.3l-0.9,-3.108l-1.392,-2.892l-1.8,-2.4l-2.1,-2.1l-2.208,-1.908l-2.496,-1.692l-2.604,-1.404l-2.496,-0.997l-2.604,-0.803l-18.588,-4.596l-1.308,-0.505l-1.2,-0.792l-0.997,-1.104l-0.803,-1.201l-0.396,-1.295l-0.204,-1.403l0.114,-1.405l0.491,-1.392l0.708,-1.2l1.596,-1.608l1.8,-1.2l2.1,-0.9l2.196,-0.492l2.207,-0.204l3.288,0.204l3.204,0.492l3.204,0.9l3,1.104l2.892,1.5l2.808,1.8l2.496,2.099l12.3,-11.195l-3.3,-2.904l-3.504,-2.496l-3.792,-2.208l-3.9,-1.896l-4.104,-1.392l-4.296,-1.104l-4.308,-0.6l-4.392,-0.204l-4.296,0.204l-4.307,0.6l-4.296,1.104l-3.096,1.201l-2.904,1.488l-2.7,1.907l-2.496,2.196l-2.208,2.4l-1.692,2.4l-1.308,2.604l-0.997,2.7l-0.695,2.796l-0.205,2.904l0.1,2.892l0.504,2.904l0.9,2.7l1.201,2.7l1.5,2.4l1.896,2.292l2.1,1.908l3,1.992l3.299,1.404l3.504,0.9l18.689,4.203Z" style="fill:#010001;fill-rule:nonzero;"/></g><g id="T"><rect id="path1570" x="238.362" y="571.181" width="67.991" height="113.386" style="fill:#fff;"/><path id="path1572" d="M241.662,576.881l-0,15.492l22.499,-0l0,63.898l16.296,0l0,-63.898l22.5,-0l-0,-15.492l-61.295,0Z" style="fill:#010001;fill-rule:nonzero;"/></g><g id="P"><rect id="path1606" x="397.035" y="571.181" width="77.086" height="113.386" style="fill:#fff;"/><path id="path1608" d="M410.643,576.881l-0,79.39l16.187,0l0,-27.995l18,-0l3.096,-0.204l3.108,-0.6l2.892,-0.996l2.808,-1.405l2.7,-1.704l2.292,-1.992l2.1,-2.304l1.8,-2.591l1.403,-2.604l1.2,-2.7l0.9,-2.796l0.505,-2.904l0.099,-2.904l-0.099,-2.892l-0.505,-2.904l-0.9,-2.796l-1.2,-2.7l-1.403,-2.604l-1.8,-2.604l-2.1,-2.292l-2.292,-2.004l-2.7,-1.704l-2.808,-1.392l-2.892,-0.996l-3.108,-0.612l-3.096,-0.193l-34.187,0.002Zm16.187,14.7l16.104,-0l1.992,0.191l1.908,0.6l1.8,0.9l1.596,1.2l1.295,1.608l1.008,1.692l0.696,1.908l0.3,1.992l0,1.908l-0.3,1.992l-0.696,1.8l-1.008,1.8l-1.295,1.5l-1.596,1.2l-1.8,0.9l-1.908,0.6l-1.992,0.204l-16.104,-0l0,-21.995Z" style="fill:#010001;fill-rule:nonzero;"/></g><g id="O"><rect id="path1594" x="306.353" y="571.181" width="90.682" height="113.386" style="fill:#fff;"/><path id="path1596" d="M349.54,574.985l-3.996,0.395l-3.9,0.696l-3.792,1.296l-3.708,1.608l-3.396,2.004l-3.204,2.388l-3,3.108l-2.592,3.3l-2.304,3.599l-2.004,3.792l-1.5,4.008l-1.091,4.092l-0.804,4.2l-0.3,4.2l-0,5.7l0.3,4.296l0.804,4.2l1.091,4.104l1.5,3.996l2.004,3.804l2.304,3.504l2.592,3.396l3,2.999l3.204,2.4l3.396,2.1l3.708,1.596l3.792,1.201l3.9,0.803l3.996,0.396l4.608,-0l3.9,-0.396l3.996,-0.803l3.803,-1.201l3.6,-1.596l3.492,-2.1l3.204,-2.4l3,-2.999l2.592,-3.396l2.304,-3.504l1.896,-3.804l1.608,-3.996l1.091,-4.104l0.709,-4.2l0.3,-4.296l0,-5.7l-0.3,-4.2l-0.709,-4.2l-1.091,-4.092l-1.608,-4.008l-1.896,-3.792l-2.304,-3.599l-2.592,-3.3l-3,-3.108l-3.204,-2.388l-3.492,-2.004l-3.6,-1.608l-3.803,-1.296l-3.996,-0.696l-3.9,-0.395l-4.608,0Zm2.304,15.492l2.496,0.099l2.508,0.504l2.4,0.696l2.292,1.008l2.099,1.392l1.908,1.608l1.692,1.896l1.405,2.004l1.104,2.196l0.792,2.4l0.997,3.996l0.612,4.104l0.099,4.2l-0.099,4.091l-0.612,4.104l-0.997,4.104l-0.792,2.292l-1.104,2.304l-1.405,2.004l-1.692,1.896l-1.908,1.596l-2.099,1.308l-2.292,0.997l-2.4,0.792l-2.508,0.408l-2.496,0.193l-2.496,-0.193l-2.508,-0.408l-2.4,-0.792l-2.292,-0.997l-2.1,-1.308l-1.896,-1.596l-1.704,-1.896l-1.405,-2.004l-1.091,-2.304l-0.9,-2.292l-0.9,-4.104l-0.599,-4.104l-0.114,-4.091l0.114,-4.2l0.599,-4.104l0.9,-3.996l0.9,-2.4l1.091,-2.196l1.405,-2.004l1.704,-1.896l1.896,-1.608l2.1,-1.392l2.292,-1.008l2.4,-0.696l2.508,-0.504l2.496,-0.099Z" style="fill:#010001;fill-rule:nonzero;"/></g></g><g><g id="E"><rect id="path1642" x="354.01" y="58.465" width="52.127" height="75.591" style="fill:#fff;"/><path id="path1644" d="M399.537,104.792l-25.928,-0l0,-11.6l21.664,-0l-0,-9.8l-21.664,0l0,-10.864l23.928,0l-0,-10.263l-34.8,-0l0,52.854l36.8,0l-0,-10.327Z" style="fill:#010001;fill-rule:nonzero;"/></g><g id="I"><rect id="path1654" x="269.019" y="58.465" width="28.327" height="75.591" style="fill:#fff;"/><rect id="path1656" x="277.819" y="62.265" width="10.8" height="52.927" style="fill:#010001;fill-rule:nonzero;"/></g><g id="F"><rect id="path1662" x="222.564" y="58.465" width="46.455" height="75.591" style="fill:#fff;"/><path id="path1664" d="M242.156,115.119l-0,-21.927l21.663,-0l0,-9.8l-21.663,0l-0,-10.864l23.935,0l0,-10.263l-34.727,-0l-0,52.854l10.792,0Z" style="fill:#010001;fill-rule:nonzero;"/></g><g id="R"><rect id="path1614" x="297.347" y="58.465" width="56.663" height="75.591" style="fill:#fff;"/><path id="path1616" d="M306.282,62.265l0,52.926l10.792,0l0,-20.663l7.072,-0l12.064,20.663l12.6,0l-12.664,-21.599l1.928,-0.864l1.872,-1.136l1.664,-1.336l1.464,-1.592l1.264,-1.736l1,-1.864l0.8,-2l0.473,-2.071l0.2,-2.128l-0.076,-2.2l-0.399,-2.072l-0.6,-2.064l-0.928,-1.936l-1.2,-1.8l-1.336,-1.664l-1.6,-1.4l-1.8,-1.2l-1.936,-1l-1.992,-0.664l-2.136,-0.473l-2.136,-0.128l-24.39,0.001Zm10.792,9.799l12.6,0l1.272,0.128l1.128,0.4l1.136,0.535l0.935,0.801l0.801,0.936l0.528,1.128l0.4,1.136l0.136,1.264l-0.136,1.2l-0.4,1.2l-0.528,1.072l-0.801,1l-0.935,0.728l-1.136,0.6l-1.128,0.4l-1.272,0.076l-12.6,-0l0,-12.604Z" style="fill:#010001;fill-rule:nonzero;"/></g></g><g><g id="S1" serif:id="S"><rect id="path16181" serif:id="path1618" x="137.414" y="134.055" width="55.855" height="75.591" style="fill:#fff;"/><path id="path16201" serif:id="path1620" d="M170.605,170.382l1.2,0.464l1,0.672l0.864,0.928l0.6,1.072l0.336,1.128l0.066,1.272l-0.2,1.2l-0.528,1.128l-0.736,1l-1.136,0.936l-1.264,0.728l-1.4,0.536l-1.464,0.263l-3.6,0l-2.064,-0.263l-2,-0.4l-1.936,-0.664l-1.936,-0.864l-2.264,-1.472l-2.136,-1.6l-1.928,-1.864l-9.2,7.064l1.936,2l2.064,1.864l2.2,1.672l2.328,1.464l2.536,1.2l2.864,0.936l3,0.664l3,0.464l3,0.201l3.064,-0.066l3,-0.264l3,-0.536l2.936,-0.8l2,-0.8l1.864,-1.064l1.736,-1.336l1.536,-1.536l1.328,-1.728l1.071,-1.872l0.792,-1.992l0.536,-2.136l0.2,-2.136l-0.066,-2.128l-0.336,-2.2l-0.6,-2.072l-0.928,-1.928l-1.2,-1.6l-1.4,-1.4l-1.472,-1.272l-1.664,-1.128l-1.736,-0.936l-1.664,-0.664l-1.736,-0.536l-12.392,-3.064l-0.872,-0.336l-0.8,-0.529l-0.664,-0.736l-0.536,-0.8l-0.264,-0.864l-0.136,-0.935l0.076,-0.936l0.328,-0.928l0.471,-0.801l1.064,-1.072l1.2,-0.8l1.4,-0.6l1.464,-0.328l1.472,-0.136l2.192,0.136l2.136,0.328l2.136,0.6l2,0.736l1.928,1l1.872,1.2l1.664,1.4l8.2,-7.464l-2.2,-1.936l-2.336,-1.664l-2.528,-1.472l-2.6,-1.264l-2.736,-0.928l-2.864,-0.736l-2.872,-0.399l-2.928,-0.136l-2.864,0.136l-2.872,0.399l-2.864,0.736l-2.064,0.801l-1.936,0.992l-1.8,1.272l-1.664,1.464l-1.472,1.6l-1.128,1.6l-0.872,1.736l-0.664,1.8l-0.464,1.864l-0.136,1.936l0.066,1.927l0.337,1.936l0.6,1.8l0.8,1.8l1,1.6l1.264,1.528l1.4,1.272l2,1.328l2.2,0.937l2.336,0.6l12.459,2.801Z" style="fill:#010001;fill-rule:nonzero;"/></g><g id="_-N" serif:id=" N"><rect id="path1590" x="427.096" y="134.055" width="64.191" height="75.591" style="fill:#fff;"/><path id="path1592" d="M448.224,137.855l-12.328,0l0,52.927l10.8,0l-0,-35.799l23.663,35.799l12.392,0l0,-52.927l-10.864,0l0,35.791l-23.663,-35.791Z" style="fill:#010001;fill-rule:nonzero;"/></g><g id="I1" serif:id="I"><rect id="path16541" serif:id="path1654" x="338.314" y="134.055" width="28.327" height="75.591" style="fill:#fff;"/><rect id="path16561" serif:id="path1656" x="347.114" y="137.855" width="10.8" height="52.927" style="fill:#010001;fill-rule:nonzero;"/></g><g id="A"><rect id="path1634" x="238.596" y="134.055" width="54.391" height="75.591" style="fill:#fff;"/><path id="path1636" d="M258.859,137.855l-17.663,52.855l11.864,0l2.871,-9.328l19.928,0l2.864,9.328l11.864,0l-17.664,-52.855l-14.064,0Zm7,11.064l7.136,23.127l-14.2,0l7.064,-23.127Z" style="fill:#010001;fill-rule:nonzero;"/></g><g id="T1" serif:id="T"><rect id="path15701" serif:id="path1570" x="193.269" y="134.055" width="45.327" height="75.591" style="fill:#fff;"/><path id="path15721" serif:id="path1572" d="M195.469,137.855l-0,10.328l14.999,-0l0,42.599l10.864,0l0,-42.599l15,-0l-0,-10.328l-40.863,0Z" style="fill:#010001;fill-rule:nonzero;"/></g><g id="T2" serif:id="T"><rect id="path15702" serif:id="path1570" x="292.987" y="134.055" width="45.327" height="75.591" style="fill:#fff;"/><path id="path15722" serif:id="path1572" d="M295.187,137.855l-0,10.328l14.999,-0l0,42.599l10.864,0l0,-42.599l15,-0l-0,-10.328l-40.863,0Z" style="fill:#010001;fill-rule:nonzero;"/></g><g id="O1" serif:id="O"><rect id="path15941" serif:id="path1594" x="366.641" y="134.055" width="60.455" height="75.591" style="fill:#fff;"/><path id="path15961" serif:id="path1596" d="M395.433,136.591l-2.664,0.264l-2.6,0.464l-2.528,0.863l-2.472,1.072l-2.264,1.336l-2.136,1.592l-2,2.072l-1.728,2.2l-1.536,2.4l-1.336,2.528l-1,2.672l-0.727,2.728l-0.536,2.8l-0.2,2.8l-0,3.8l0.2,2.864l0.536,2.8l0.727,2.736l1,2.664l1.336,2.535l1.536,2.336l1.728,2.264l2,2l2.136,1.6l2.264,1.4l2.472,1.064l2.528,0.801l2.6,0.535l2.664,0.264l3.072,-0l2.6,-0.264l2.664,-0.535l2.536,-0.801l2.4,-1.064l2.328,-1.4l2.136,-1.6l2,-2l1.727,-2.264l1.536,-2.336l1.264,-2.535l1.072,-2.664l0.728,-2.736l0.472,-2.8l0.201,-2.864l-0,-3.8l-0.201,-2.8l-0.472,-2.8l-0.728,-2.728l-1.072,-2.672l-1.264,-2.528l-1.536,-2.4l-1.727,-2.2l-2,-2.072l-2.136,-1.592l-2.328,-1.336l-2.4,-1.072l-2.536,-0.863l-2.664,-0.464l-2.6,-0.264l-3.072,0Zm1.536,10.328l1.664,0.066l1.672,0.336l1.6,0.464l1.528,0.672l1.4,0.928l1.272,1.072l1.128,1.264l0.936,1.336l0.736,1.464l0.528,1.6l0.665,2.664l0.408,2.736l0.066,2.8l-0.066,2.728l-0.408,2.736l-0.665,2.736l-0.528,1.528l-0.736,1.535l-0.936,1.336l-1.128,1.264l-1.272,1.064l-1.4,0.873l-1.528,0.664l-1.6,0.528l-1.672,0.272l-1.664,0.129l-1.664,-0.129l-1.672,-0.272l-1.6,-0.528l-1.528,-0.664l-1.4,-0.873l-1.264,-1.064l-1.136,-1.264l-0.936,-1.336l-0.728,-1.535l-0.6,-1.528l-0.6,-2.736l-0.4,-2.736l-0.075,-2.728l0.075,-2.8l0.4,-2.736l0.6,-2.664l0.6,-1.6l0.728,-1.464l0.936,-1.336l1.136,-1.264l1.264,-1.072l1.4,-0.928l1.528,-0.672l1.6,-0.464l1.672,-0.336l1.664,-0.066Z" style="fill:#010001;fill-rule:nonzero;"/></g></g></g></svg>