<?xml version="1.0" encoding="UTF-8" standalone="no"?><!DOCTYPE svg PUBLIC "-//W3C//DTD SVG 1.1//EN" "http://www.w3.org/Graphics/SVG/1.1/DTD/svg11.dtd"><svg width="100%" height="100%" viewBox="0 0 557 461" version="1.1" xmlns="http://www.w3.org/2000/svg" xmlns:xlink="http://www.w3.org/1999/xlink" xml:space="preserve" xmlns:serif="http://www.serif.com/" style="fill-rule:evenodd;clip-rule:evenodd;stroke-linejoin:round;stroke-miterlimit:2;"><g id="scale-value" transform="matrix(50,0,0,50,351.773,247.966)"></g><text x="205.85px" y="247.966px" style="font-family:'ArialMT', 'Arial', sans-serif;font-size:50px;">sw=39</text><clipPath id="_clip1"><rect x="0" y="0" width="556.89" height="460.63"/></clipPath><g clip-path="url(#_clip1)"><path d="M556.865,35.433c-0,-19.556 -15.877,-35.433 -35.433,-35.433l-485.974,-0c-19.556,-0 -35.433,15.877 -35.433,35.433l0,389.764c0,19.556 15.877,35.433 35.433,35.433l485.974,-0c19.556,-0 35.433,-15.877 35.433,-35.433l-0,-389.764Z"/><path d="M539.148,35.433c0,-9.778 -7.938,-17.716 -17.716,-17.716l-485.974,-0c-9.778,-0 -17.716,7.938 -17.716,17.716l-0,389.764c-0,9.778 7.938,17.716 17.716,17.716l485.974,0c9.778,0 17.716,-7.938 17.716,-17.716l0,-389.764Z" style="fill:#fff;"/><g><g><rect id="path1786" x="236.55" y="330.709" width="41.079" height="94.488" style="fill:#fff;"/><path id="path1788" d="M256.049,401.527l-12.919,0l-0,-47.159l12.919,0l0,4.67l1.58,-1.59l1.75,-1.33l2,-1.17l2.17,-0.75l2.16,-0.5l2.25,-0.161l3.17,0l0,12.25l-4.42,0l-1.83,0.16l-1.83,0.499l-1.67,0.84l-1.58,1.08l-1.25,1.25l-1.079,1.58l-0.84,1.67l-0.499,1.83l-0.083,1.84l0.001,24.991Z" style="fill:#010001;fill-rule:nonzero;"/></g><g><rect id="path1754" x="277.629" y="330.709" width="55.239" height="94.488" style="fill:#fff;"/><path id="path1756" d="M303.958,352.458l-2.59,0.161l-2.5,0.42l-2.499,0.75l-2.41,0.92l-2.25,1.24l-2.34,1.75l-2.08,2.09l-1.83,2.25l-1.5,2.58l-1.171,2.67l-0.16,0.5l-0.84,3.33l-0.5,3.42l-0.17,3.41l0.17,3.42l0.5,3.409l0.84,3.25l0.16,0.591l1.171,2.66l1.5,2.5l1.83,2.34l2.08,2.08l2.34,1.75l2.25,1.16l2.41,1.009l2.499,0.74l2.5,0.42l2.59,0.17l2.58,-0.17l2.58,-0.42l2.5,-0.74l2.42,-1.009l2.25,-1.16l2.33,-1.75l2.08,-2.08l1.84,-2.34l1.5,-2.5l1.16,-2.66l0.17,-0.591l0.83,-3.25l0.5,-3.409l0.094,-3.42l-0.094,-3.41l-0.5,-3.42l-0.83,-3.33l-0.17,-0.5l-1.16,-2.67l-1.5,-2.58l-1.84,-2.25l-2.08,-2.09l-2.33,-1.75l-2.25,-1.24l-2.42,-0.92l-2.5,-0.75l-2.58,-0.42l-2.58,-0.161Zm0,11.33l1.91,0.25l2,0.831l1.75,1.33l1.5,1.59l1.25,1.83l0.67,1.5l0.42,1.58l0.33,2.67l0.083,2.579l-0.083,2.58l-0.33,2.67l-0.42,1.58l-0.67,1.5l-1.25,1.84l-1.5,1.58l-1.75,1.33l-2,0.75l-1.91,0.34l-1.84,-0.34l-2,-0.75l-1.829,-1.33l-1.5,-1.58l-1.171,-1.84l-0.66,-1.5l-0.421,-1.58l-0.329,-2.67l-0.17,-2.58l0.17,-2.579l0.329,-2.67l0.421,-1.58l0.66,-1.5l1.171,-1.83l1.5,-1.59l1.829,-1.33l2,-0.831l1.84,-0.25Z" style="fill:#010001;fill-rule:nonzero;"/></g><g><rect id="path1818" x="386.197" y="330.709" width="57.159" height="94.488" style="fill:#fff;"/><path id="path1820" d="M423.356,335.459l0,21.159l-2.16,-1.42l-2.25,-1.16l-2.42,-0.839l-2.41,-0.58l-2.59,-0.251l-2.5,0.095l-2.5,0.329l-2.5,0.661l-2.33,0.92l-2.25,1.25l-2.079,1.42l-2.13,2.04l-1.71,2.21l-1.25,2.369l-1.33,3.46l-0.831,3.33l-0.58,3.42l-0.25,3.42l0.161,3.41l0.42,3.42l0.83,3.33l1.091,3.25l1.24,2.5l1.5,2.25l1.839,2.08l2.081,1.75l2.329,1.42l2.75,1.079l2.92,0.75l2.92,0.341l2.91,-0l2.92,-0.421l2.83,-0.75l2,-0.75l1.75,-1.17l1.58,-1.41l-0,3.25l12.92,-0l-0,-66.159l-12.921,-0.003Zm-9.91,28.329l1.91,0.25l1.92,0.58l1.67,0.92l1.58,1.16l1.08,1.25l0.839,1.34l0.58,1.5l0.33,1.66l-0,10.17l-0.16,1.25l-0.34,1.25l-0.58,1.079l-0.75,1.08l-1.33,1.42l-1.5,1.17l-1.67,0.831l-1.83,0.58l-1.92,0.25l-1.91,-0.161l-1.839,-0.42l-1.5,-0.58l-1.41,-0.84l-1.171,-1.079l-1,-1.25l-0.75,-1.42l-0.831,-2.5l-0.42,-2.66l-0.25,-2.58l0.17,-2.67l0.409,-2.58l0.75,-2.59l0.75,-1.66l0.84,-1.25l1.16,-1.09l1.59,-1.079l1.75,-0.75l1.91,-0.5l1.923,-0.081Z" style="fill:#010001;fill-rule:nonzero;"/></g><g><rect id="path1698" x="332.868" y="330.709" width="53.329" height="94.488" style="fill:#fff;"/><path id="path1700" d="M357.697,352.458l-3.08,0.161l-3,0.58l-3.749,1.09l-3.67,1.41l-3.5,1.67l-3.41,1.92l6.33,9.66l2.58,-1.58l2.669,-1.25l2.83,-1.001l2.92,-0.75l3,-0.42l1.66,-0.083l1.75,0.33l1.58,0.589l0.92,0.58l0.75,0.83l0.5,0.92l0.17,1.08l0,3l-4.17,0.17l-4.08,0.5l-4.08,0.75l-4,1.079l-3.92,1.42l-1.66,1l-1.589,1.25l-1.42,1.5l-1.16,1.58l-0.92,1.83l-0.661,1.92l-0.34,2l-0.082,2l0.17,2l0.49,1.92l0.759,1.91l1.001,1.75l1.24,1.59l1.42,1.41l1.67,1.17l2.409,1.16l2.59,0.92l2.75,0.59l2.75,0.329l2.75,-0.082l2.66,-0.341l2.67,-0.66l1.42,-0.669l1.33,-0.831l1.08,-1l0.92,-1.25l1,1.33l1.25,1l1.42,0.75l2.58,1.001l2.66,0.579l2.75,0.33l4.59,-10.08l-1.09,0l-1.08,-0.159l-1.08,-0.5l-0.839,-0.67l-0.661,-0.92l-0.42,-1l-0.17,-1.16l-0,-22.329l-0.161,-1.84l-0.42,-1.83l-0.75,-1.67l-0.92,-1.58l-1.25,-1.5l-1.41,-1.171l-1.59,-1l-2.25,-0.99l-2.41,-0.84l-2.92,-0.83l-3.08,-0.421l-2.996,-0.151Zm7.25,28.07l0,6.75l-0.17,1.25l-0.58,1.17l-0.75,1l-1.09,0.75l-1.16,0.421l-2.33,0.329l-2.34,0l-2.33,-0.329l-1.17,-0.421l-1.001,-0.75l-0.83,-0.92l-0.58,-1.079l-0.34,-1.08l0,-1.17l0.34,-1.171l0.58,-0.91l0.83,-0.84l1.001,-0.58l3.92,-1l2.28,-0.47l1.72,-0.361l4,-0.589Z" style="fill:#010001;fill-rule:nonzero;"/></g></g><g><g><rect id="path17541" serif:id="path1754" x="231.486" y="47.244" width="55.239" height="94.488" style="fill:#fff;"/><path id="path17561" serif:id="path1756" d="M257.815,68.994l-2.59,0.16l-2.5,0.421l-2.5,0.75l-2.41,0.92l-2.25,1.24l-2.34,1.75l-2.079,2.09l-1.83,2.25l-1.5,2.58l-1.171,2.67l-0.16,0.499l-0.84,3.33l-0.5,3.42l-0.17,3.41l0.17,3.42l0.5,3.41l0.84,3.25l0.16,0.59l1.171,2.66l1.5,2.5l1.83,2.34l2.079,2.08l2.34,1.75l2.25,1.16l2.41,1.01l2.5,0.739l2.5,0.421l2.59,0.17l2.58,-0.17l2.58,-0.421l2.5,-0.739l2.42,-1.01l2.25,-1.16l2.33,-1.75l2.08,-2.08l1.84,-2.34l1.5,-2.5l1.16,-2.66l0.17,-0.59l0.83,-3.25l0.5,-3.41l0.094,-3.42l-0.094,-3.41l-0.5,-3.42l-0.83,-3.33l-0.17,-0.499l-1.16,-2.67l-1.5,-2.58l-1.84,-2.25l-2.08,-2.09l-2.33,-1.75l-2.25,-1.24l-2.42,-0.92l-2.5,-0.75l-2.58,-0.421l-2.58,-0.16Zm0,11.329l1.91,0.251l2,0.83l1.75,1.33l1.5,1.59l1.25,1.83l0.67,1.5l0.42,1.58l0.33,2.67l0.082,2.58l-0.082,2.58l-0.33,2.67l-0.42,1.58l-0.67,1.5l-1.25,1.84l-1.5,1.58l-1.75,1.33l-2,0.75l-1.91,0.34l-1.84,-0.34l-2,-0.75l-1.83,-1.33l-1.5,-1.58l-1.17,-1.84l-0.66,-1.5l-0.421,-1.58l-0.329,-2.67l-0.17,-2.58l0.17,-2.58l0.329,-2.67l0.421,-1.58l0.66,-1.5l1.17,-1.83l1.5,-1.59l1.83,-1.33l2,-0.83l1.84,-0.251Z" style="fill:#010001;fill-rule:nonzero;"/></g><g><rect id="path1750" x="122.838" y="47.244" width="57.159" height="94.488" style="fill:#fff;"/><path id="path1752" d="M159.417,88.323l-0.34,-1.67l-0.75,-1.58l-1,-1.34l-1.25,-1.079l-1.75,-0.75l-1.91,-0.33l-1.92,0.083l-1.83,0.33l-1.84,0.75l-1.5,1l-1.33,1.25l-1,1.5l-0.67,1.59l-0.161,1.66l0,28.329l-12.92,0l0,-47.159l12.92,0l0,3.33l1.91,-1.5l2.09,-1.25l2.16,-0.909l2.34,-0.591l2.33,-0.329l2.42,0.082l2.75,0.5l2.41,0.84l2.33,1.16l2.09,1.419l1.91,1.67l1.67,1.91l1.42,2.17l1.079,2.5l0.75,2.58l0.421,2.67l0.16,2.75l0,28.16l-12.909,-0l12.909,-0l-12.909,-0l-0,-28.08l-0.08,-1.666Z" style="fill:#010001;fill-rule:nonzero;"/></g><g><rect id="path17501" serif:id="path1750" x="396.303" y="47.244" width="57.159" height="94.488" style="fill:#fff;"/><path id="path17521" serif:id="path1752" d="M432.882,88.323l-0.34,-1.67l-0.75,-1.58l-1.001,-1.34l-1.25,-1.079l-1.75,-0.75l-1.909,-0.33l-1.92,0.083l-1.83,0.33l-1.84,0.75l-1.5,1l-1.33,1.25l-1.001,1.5l-0.669,1.59l-0.161,1.66l-0,28.329l-12.92,0l0,-47.159l12.92,0l-0,3.33l1.91,-1.5l2.09,-1.25l2.16,-0.909l2.34,-0.591l2.33,-0.329l2.42,0.082l2.75,0.5l2.41,0.84l2.33,1.16l2.09,1.419l1.909,1.67l1.67,1.91l1.42,2.17l1.08,2.5l0.75,2.58l0.42,2.67l0.161,2.75l0,28.16l-12.91,-0l12.91,-0l-12.91,-0l0,-28.08l-0.079,-1.666Z" style="fill:#010001;fill-rule:nonzero;"/></g><g><rect id="path1746" x="286.725" y="47.244" width="82.658" height="94.488" style="fill:#fff;"/><path id="path1748" d="M357.633,77.233l-1.67,-1.909l-1.92,-1.67l-2.08,-1.42l-2.25,-1.16l-2.409,-0.84l-2.75,-0.5l-2.09,-0.082l-2.08,0.25l-2.08,0.421l-1.92,0.66l-1.92,0.92l-1.75,1.25l-1.58,1.42l-1.42,1.66l-1.16,-1.83l-1.42,-1.5l-1.66,-1.25l-1.92,-0.92l-1.5,-0.5l-2.75,-0.499l-2.42,-0.083l-2.33,0.329l-2.33,0.591l-2.17,0.909l-2.08,1.25l-1.92,1.5l0,-3.33l-12.909,0l-0,47.16l12.909,-0l0,-28.33l0.17,-1.66l0.661,-1.59l1,-1.5l1.34,-1.25l1.5,-1l2.66,-0.91l1,-0.094l0.92,0.094l0.421,0.083l1.75,0.75l1.25,1.08l1,1.34l0.661,1.58l0.42,1.669l0.083,1.66l-0,28.08l12.919,-0l0,-28.33l0.161,-1.66l0.589,-1.59l1.08,-1.499l1.33,-1.25l1.5,-1.001l2.67,-0.909l0.92,-0.095l1,0.095l0.33,0.082l1.75,0.75l1.25,1.08l1.079,1.34l0.67,1.58l0.33,1.67l0.094,1.66l0,28.079l12.91,0l-12.91,0l12.91,0l-0,-28.159l-0.083,-2.75l-0.499,-2.67l-0.75,-2.58l-1.091,-2.5l-1.416,-2.172Z" style="fill:#010001;fill-rule:nonzero;"/></g><g><rect id="path1790" x="369.383" y="47.244" width="26.92" height="94.488" style="fill:#fff;"/><path id="path1792" d="M382.133,51.494l-1.42,0.16l-1.41,0.42l-1.25,0.67l-1.171,0.909l-0.92,1.171l-0.66,1.25l-0.42,1.42l-0.17,1.409l0.17,1.421l0.42,1.419l0.66,1.33l0.92,1.08l1.171,0.92l1.25,0.66l1.41,0.421l1.42,0.17l1.42,-0.17l1.41,-0.421l1.25,-0.66l1.17,-0.92l0.92,-1.08l0.661,-1.33l0.42,-1.419l0.17,-1.421l-0.17,-1.409l-0.42,-1.42l-0.661,-1.25l-0.92,-1.171l-1.17,-0.909l-1.25,-0.67l-1.41,-0.42l-1.42,-0.16Zm-6.5,19.41l-0,47.239l12.92,-0l-0,-47.239l-12.92,-0Z" style="fill:#010001;fill-rule:nonzero;"/></g><g><rect id="path1810" x="453.462" y="47.244" width="56.159" height="94.488" style="fill:#fff;"/><path id="path1812" d="M477.791,70.234l-2.84,0.17l-2.75,0.499l-2.66,0.92l-1.92,0.91l-1.83,1.17l-1.75,1.33l-1.5,1.59l-1.34,1.66l-1.329,2.42l-1.001,2.58l-0.83,2.59l-0.67,2.58l-0.41,2.67l-0.094,2.75l0.25,2.66l0.5,2.67l0.75,2.58l1,2.33l1.25,2.25l1.5,2.09l1.84,1.83l1.99,1.58l2.34,1.42l2.5,1.079l2.66,0.75l2.67,0.33l2.92,0.17l2.91,-0.33l2.84,-0.58l2.16,-0.75l2.09,-1.09l-0,2.5l-0.17,1.42l-0.5,1.33l-0.75,1.17l-1,1.001l-1.171,0.75l-1.33,0.42l-3.5,0.33l-3.92,-0.095l-3.91,-0.49l-2.42,-0.59l-2.42,-0.75l-2.25,-1.08l-2.16,-1.34l-6.079,10.42l3.83,1.83l4,1.42l3.999,1.17l4.16,0.91l3.25,0.25l3.34,0.095l3.25,-0.251l3.33,-0.589l2.67,-0.66l2.58,-1.001l2.41,-1.34l2.25,-1.66l1.59,-1.59l1.25,-1.83l1.079,-2l0.75,-2.08l0.5,-2.17l0.17,-2.25l0,-45.409l-12.83,0l0,2.42l-1.75,-1.17l-1.92,-0.83l-2,-0.5l-2.75,-0.5l-2.824,-0.089Zm1.66,11.249l2.09,0.171l1.91,0.579l1.92,0.84l1.079,0.75l1.001,1.001l0.75,1.159l0.499,1.25l0.341,1.33l-0,7.51l-0.341,1.74l-0.499,1.75l-0.58,1.26l-0.83,1.08l-1.091,0.83l-1.159,0.67l-1.75,0.58l-1.75,0.25l-1.84,-0l-1.75,-0.25l-1.75,-0.5l-1.41,-0.67l-1.34,-0.909l-1.08,-1.171l-0.83,-1.33l-0.5,-1.42l-0.499,-1.91l-0.251,-1.999l0.083,-2l0.25,-1.92l0.58,-2.17l0.92,-2l0.67,-1.25l0.92,-1.08l1.08,-0.83l1.16,-0.67l2,-0.499l1.997,-0.172Z" style="fill:#010001;fill-rule:nonzero;"/></g><g><rect id="path1798" x="179.997" y="47.244" width="51.489" height="94.488" style="fill:#fff;"/><path id="path1800" d="M197.406,101.313l0.67,1.5l1.171,1.84l1.5,1.66l1.749,1.25l2.08,0.84l1.83,0.25l1.92,-0.25l2,-0.84l1.75,-1.25l1.5,-1.66l1.25,-1.84l1.001,-2.66l11.999,4.5l-0.25,0.5l-1.17,2.75l-1.5,2.499l-1.75,2.25l-2.08,2.08l-2.34,1.75l-2.33,1.25l-2.33,0.92l-2.5,0.75l-2.59,0.41l-2.58,0.17l-2.58,-0.17l-2.5,-0.41l-2.5,-0.75l-2.42,-0.92l-2.25,-1.25l-2.33,-1.75l-2.08,-2.08l-1.84,-2.25l-1.5,-2.499l-1.16,-2.75l-0.17,-0.5l-0.83,-3.34l-0.5,-3.41l-0.17,-3.42l0.17,-3.41l0.5,-3.34l0.83,-3.33l0.17,-0.58l1.16,-2.67l1.5,-2.499l1.84,-2.33l2.08,-2l2.33,-1.84l2.25,-1.16l2.42,-1.001l2.5,-0.669l2.5,-0.5l2.58,-0.17l2.58,0.17l2.59,0.5l2.5,0.669l2.33,1.001l2.33,1.16l2.34,1.84l2.08,2l1.75,2.33l1.5,2.499l1.17,2.67l0.25,0.58l-11.999,4.42l-1.001,-2.67l-1.25,-1.83l-1.5,-1.59l-1.75,-1.25l-2,-0.83l-1.92,-0.25l-1.83,0.25l-2.08,0.83l-1.749,1.25l-1.5,1.59l-1.171,1.83l-0.67,1.58l-0.499,1.59l-0.251,2.58l-0.16,2.58l0.16,2.67l0.251,2.58l0.499,1.58Z" style="fill:#010001;fill-rule:nonzero;"/></g><g id="O"><rect id="path1594" x="47.269" y="47.244" width="75.569" height="94.488" style="fill:#fff;"/><path id="path1596" d="M83.259,50.414l-3.33,0.33l-3.25,0.58l-3.16,1.079l-3.09,1.34l-2.83,1.67l-2.67,1.99l-2.5,2.59l-2.16,2.75l-1.92,3l-1.67,3.16l-1.25,3.34l-0.909,3.41l-0.67,3.5l-0.25,3.499l-0,4.75l0.25,3.58l0.67,3.5l0.909,3.42l1.25,3.33l1.67,3.17l1.92,2.92l2.16,2.83l2.5,2.5l2.67,2l2.83,1.75l3.09,1.33l3.16,1l3.25,0.67l3.33,0.329l3.84,0l3.249,-0.329l3.33,-0.67l3.17,-1l3,-1.33l2.91,-1.75l2.67,-2l2.5,-2.5l2.16,-2.83l1.92,-2.92l1.58,-3.17l1.34,-3.33l0.909,-3.42l0.591,-3.5l0.25,-3.58l0,-4.75l-0.25,-3.499l-0.591,-3.5l-0.909,-3.41l-1.34,-3.34l-1.58,-3.16l-1.92,-3l-2.16,-2.75l-2.5,-2.59l-2.67,-1.99l-2.91,-1.67l-3,-1.34l-3.17,-1.079l-3.33,-0.58l-3.249,-0.33l-3.84,0Zm1.92,12.91l2.08,0.082l2.09,0.421l1.999,0.58l1.91,0.84l1.75,1.159l1.59,1.34l1.41,1.58l1.171,1.67l0.92,1.83l0.66,2l0.83,3.33l0.511,3.42l0.082,3.5l-0.082,3.41l-0.511,3.42l-0.83,3.42l-0.66,1.91l-0.92,1.92l-1.171,1.67l-1.41,1.58l-1.59,1.33l-1.75,1.09l-1.91,0.83l-1.999,0.66l-2.09,0.341l-2.08,0.16l-2.08,-0.16l-2.09,-0.341l-2,-0.66l-1.91,-0.83l-1.75,-1.09l-1.58,-1.33l-1.42,-1.58l-1.171,-1.67l-0.909,-1.92l-0.75,-1.91l-0.75,-3.42l-0.5,-3.42l-0.094,-3.41l0.094,-3.5l0.5,-3.42l0.75,-3.33l0.75,-2l0.909,-1.83l1.171,-1.67l1.42,-1.58l1.58,-1.34l1.75,-1.159l1.91,-0.84l2,-0.58l2.09,-0.421l2.08,-0.082Z" style="fill:#010001;fill-rule:nonzero;"/></g></g><g><g><rect id="path1806" x="144.093" y="141.732" width="52.909" height="94.488" style="fill:#fff;"/><path id="path1808" d="M169.592,164.142l-2.42,0.17l-2.41,0.41l-2.34,0.75l-2.25,1.09l-2.08,1.25l-2.249,1.66l-2.08,2l-1.75,2.25l-1.42,2.42l-1.171,3l-0.83,3.17l-0.5,3.16l-0.17,3.249l0.251,3.25l0.59,3.17l0.91,3.08l1.169,3l1.079,2.17l1.42,2l1.5,1.83l1.83,1.67l1.92,1.41l2.08,1.25l2.25,0.92l2.34,0.67l2.99,0.58l3.09,0.25l3.08,-0.083l3.08,-0.34l3,-0.66l2.34,-0.84l2.16,-1.079l2,-1.42l1.83,-1.67l1.67,-1.83l-8,-8.08l-1.83,1.67l-2.08,1.33l-2.25,1l-2.17,0.58l-2.17,0.17l-2.16,-0.082l-2.17,-0.421l-2.08,-0.75l-1.42,-0.92l-1.25,-1.16l-1,-1.34l-0.75,-1.5l-0.41,-1.66l-0.17,-1.67l31.499,0l-0.17,-3.92l-0.42,-3.91l-0.831,-3.829l-1.17,-3.75l-1.08,-2.5l-1.419,-2.25l-1.66,-2.17l-2,-1.83l-2.17,-1.59l-2.08,-1.25l-2.25,-0.91l-2.42,-0.669l-2.42,-0.421l-2.408,-0.075Zm-0.25,10.75l1.66,-0l1.67,0.329l1.58,0.59l1.42,0.83l1.33,1.079l1.09,1.25l0.83,1.42l0.58,1.58l0.25,1.67l-19.159,0l0.25,-1.67l0.58,-1.58l0.84,-1.42l1.079,-1.25l1.33,-1.079l1.42,-0.83l1.58,-0.59l1.67,-0.329Z" style="fill:#010001;fill-rule:nonzero;"/></g><g><rect id="path18061" serif:id="path1806" x="363.228" y="141.732" width="52.909" height="94.488" style="fill:#fff;"/><path id="path18081" serif:id="path1808" d="M388.728,164.142l-2.42,0.17l-2.41,0.41l-2.34,0.75l-2.25,1.09l-2.08,1.25l-2.25,1.66l-2.08,2l-1.75,2.25l-1.42,2.42l-1.17,3l-0.83,3.17l-0.5,3.16l-0.17,3.249l0.25,3.25l0.591,3.17l0.909,3.08l1.17,3l1.079,2.17l1.42,2l1.5,1.83l1.83,1.67l1.92,1.41l2.08,1.25l2.25,0.92l2.34,0.67l2.99,0.58l3.09,0.25l3.08,-0.083l3.08,-0.34l3,-0.66l2.34,-0.84l2.16,-1.079l2,-1.42l1.83,-1.67l1.669,-1.83l-7.999,-8.08l-1.83,1.67l-2.08,1.33l-2.25,1l-2.17,0.58l-2.17,0.17l-2.16,-0.082l-2.17,-0.421l-2.08,-0.75l-1.42,-0.92l-1.25,-1.16l-1,-1.34l-0.75,-1.5l-0.41,-1.66l-0.17,-1.67l31.499,0l-0.17,-3.92l-0.42,-3.91l-0.831,-3.829l-1.17,-3.75l-1.08,-2.5l-1.42,-2.25l-1.66,-2.17l-2,-1.83l-2.17,-1.59l-2.079,-1.25l-2.25,-0.91l-2.42,-0.669l-2.42,-0.421l-2.408,-0.075Zm-0.25,10.75l1.66,-0l1.67,0.329l1.579,0.59l1.421,0.83l1.329,1.079l1.091,1.25l0.83,1.42l0.58,1.58l0.25,1.67l-19.159,0l0.25,-1.67l0.58,-1.58l0.84,-1.42l1.079,-1.25l1.33,-1.079l1.42,-0.83l1.58,-0.59l1.67,-0.329Z" style="fill:#010001;fill-rule:nonzero;"/></g><g><rect id="path1742" x="332.479" y="141.732" width="30.749" height="94.488" style="fill:#fff;"/><path id="path1744" d="M359.399,200.971l-2.5,0.33l-2.5,0.094l-0.92,-0.094l-0.75,-0.41l-0.661,-0.67l-0.42,-0.75l-0.17,-0.92l-0,-52.069l-12.91,0l0,57.319l0.161,1.75l0.499,1.67l0.75,1.58l1.001,1.5l1.25,1.25l1.42,1l1.67,0.67l1.66,0.499l1.75,0.171l4.08,-0.341l3.999,-0.499l4,-0.75l-1.409,-11.33Z" style="fill:#010001;fill-rule:nonzero;"/></g><g><rect id="path1794" x="197.002" y="141.732" width="57.069" height="94.488" style="fill:#fff;"/><path id="path1796" d="M232.491,179.642l-1,-1.42l-1.25,-1.08l-1.75,-0.75l-1.91,-0.329l-1.92,0.082l-1.83,0.421l-1.84,0.66l-1.5,1l-1.33,1.25l-1.001,1.5l-0.669,1.59l-0.161,1.66l0,28.42l-12.92,-0l0,-66.159l12.92,-0l0,22.239l1.91,-1.5l2,-1.159l2.25,-0.92l2.34,-0.67l2.33,-0.251l2.42,0l2.75,0.5l2.41,0.84l2.33,1.16l2.09,1.42l1.91,1.67l1.67,1.91l1.42,2.17l1.079,2.5l0.75,2.579l0.421,2.67l0.16,2.75l0,28.25l-12.91,-0l12.91,-0l-12.91,-0l0,-28.17l-0.094,-1.66l-0.41,-1.67l-0.665,-1.503Z" style="fill:#010001;fill-rule:nonzero;"/></g><g><rect id="path17901" serif:id="path1790" x="254.071" y="141.732" width="26.92" height="94.488" style="fill:#fff;"/><path id="path17921" serif:id="path1792" d="M266.82,145.982l-1.42,0.16l-1.41,0.42l-1.25,0.67l-1.17,0.909l-0.92,1.171l-0.66,1.25l-0.421,1.42l-0.17,1.41l0.17,1.42l0.421,1.42l0.66,1.33l0.92,1.079l1.17,0.92l1.25,0.66l1.41,0.421l1.42,0.17l1.42,-0.17l1.41,-0.421l1.25,-0.66l1.171,-0.92l0.92,-1.079l0.66,-1.33l0.421,-1.42l0.17,-1.42l-0.17,-1.41l-0.421,-1.42l-0.66,-1.25l-0.92,-1.171l-1.171,-0.909l-1.25,-0.67l-1.41,-0.42l-1.42,-0.16Zm-6.5,19.41l0,47.239l12.92,-0l0,-47.239l-12.92,-0Z" style="fill:#010001;fill-rule:nonzero;"/></g><g><rect id="path17981" serif:id="path1798" x="280.99" y="141.732" width="51.489" height="94.488" style="fill:#fff;"/><path id="path18001" serif:id="path1800" d="M298.4,195.801l0.669,1.5l1.171,1.84l1.5,1.66l1.75,1.25l2.08,0.84l1.83,0.25l1.92,-0.25l2,-0.84l1.75,-1.25l1.5,-1.66l1.25,-1.84l1,-2.66l12,4.5l-0.251,0.5l-1.17,2.75l-1.5,2.5l-1.75,2.25l-2.08,2.08l-2.34,1.75l-2.33,1.25l-2.33,0.92l-2.5,0.75l-2.59,0.41l-2.58,0.17l-2.58,-0.17l-2.5,-0.41l-2.5,-0.75l-2.42,-0.92l-2.25,-1.25l-2.33,-1.75l-2.079,-2.08l-1.84,-2.25l-1.5,-2.5l-1.16,-2.75l-0.17,-0.5l-0.831,-3.34l-0.499,-3.41l-0.17,-3.42l0.17,-3.41l0.499,-3.339l0.831,-3.33l0.17,-0.58l1.16,-2.67l1.5,-2.5l1.84,-2.33l2.079,-2l2.33,-1.84l2.25,-1.16l2.42,-1.001l2.5,-0.669l2.5,-0.5l2.58,-0.17l2.58,0.17l2.59,0.5l2.5,0.669l2.33,1.001l2.33,1.16l2.34,1.84l2.08,2l1.75,2.33l1.5,2.5l1.17,2.67l0.251,0.58l-12,4.419l-1,-2.669l-1.25,-1.83l-1.5,-1.59l-1.75,-1.25l-2,-0.831l-1.92,-0.25l-1.83,0.25l-2.08,0.831l-1.75,1.25l-1.5,1.59l-1.171,1.83l-0.669,1.58l-0.5,1.589l-0.25,2.58l-0.161,2.58l0.161,2.67l0.25,2.58l0.5,1.58Z" style="fill:#010001;fill-rule:nonzero;"/></g><g><rect id="path1678" x="92.588" y="141.732" width="51.505" height="94.488" style="fill:#fff;"/><path id="path1680" d="M94.588,165.314l16.422,47.244l14.411,0l16.421,-47.244l-13.331,0l-10.251,29.663l-10.33,-29.663l-13.342,0Z" style="fill:#010001;fill-rule:nonzero;"/></g><g><rect id="path1674" x="416.138" y="141.732" width="48.164" height="94.488" style="fill:#fff;"/><path id="path1676" d="M428.889,198.397l2,1.58l2.16,1.251l2.34,1l2.41,0.67l2.501,0.33l2.25,-0l1.59,-0.581l1.33,-0.919l0.75,-0.75l0.5,-1l0.081,-1.081l-0.25,-1.09l-0.58,-0.91l-0.831,-0.67l-3.25,-1.251l-3.34,-0.67l-3,-0.5l-4.081,-1l-2,-0.66l-1.83,-1l-1.67,-1.25l-1.5,-1.42l-1.25,-1.58l-1.081,-1.75l-0.67,-2.091l-0.41,-2.16l0,-2.17l0.25,-2.16l0.581,-2.17l0.92,-1.921l1.25,-1.83l1.41,-1.58l1.59,-1.42l1.83,-1.17l1.91,-0.911l2.091,-0.59l3,-0.659l3,-0.341l3.08,0l3.081,0.25l3.09,0.59l2.5,0.749l2.41,1l2.341,1.33l2.24,1.421l2,1.75l-7.991,8.49l-2.25,-1.83l-2.5,-1.5l-2.67,-1.16l-1.501,-0.419l-1.58,-0.25l-1.59,0l-1.66,0.42l-1.5,0.749l-1.34,1.001l-0.66,0.83l-0.34,0.919l0.09,1.081l0.33,0.91l0.58,0.841l1,0.58l5.5,1.081l5.001,0.67l1.92,0.33l0.08,-0l1.92,0.67l1.831,0.83l1.84,1.09l1.66,1.41l1.42,1.59l1.16,1.751l0.84,1.91l0.581,2.09l0.33,2.08l-0.083,2.17l-0.33,2.081l-0.67,2.08l-1.081,2.09l-1.34,1.91l-1.58,1.75l-1.83,1.5l-2,1.171l-3.251,1l-3.33,0.66l-3.42,0.34l-3.331,0l-3.42,-0.34l-3.33,-0.66l-3,-0.92l-2.921,-1.25l-2.66,-1.58l-2.5,-1.84l-2.34,-2.16l9.42,-8.671l1.753,1.839Z" style="fill:#010001;fill-rule:nonzero;"/></g></g><g><g><rect id="path18062" serif:id="path1806" x="436.116" y="236.22" width="52.909" height="94.488" style="fill:#fff;"/><path id="path18082" serif:id="path1808" d="M461.615,258.63l-2.419,0.17l-2.41,0.41l-2.34,0.75l-2.25,1.09l-2.08,1.25l-2.25,1.66l-2.08,2l-1.75,2.25l-1.42,2.42l-1.171,3l-0.83,3.17l-0.499,3.16l-0.171,3.25l0.251,3.25l0.59,3.17l0.91,3.08l1.169,2.999l1.08,2.17l1.42,2l1.5,1.83l1.83,1.67l1.92,1.41l2.08,1.25l2.25,0.92l2.339,0.67l2.99,0.58l3.09,0.25l3.08,-0.082l3.08,-0.341l3,-0.66l2.34,-0.84l2.16,-1.079l2,-1.42l1.83,-1.67l1.67,-1.83l-8,-8.08l-1.83,1.67l-2.08,1.33l-2.25,1.001l-2.17,0.579l-2.17,0.171l-2.16,-0.083l-2.17,-0.421l-2.08,-0.75l-1.42,-0.92l-1.249,-1.16l-1.001,-1.34l-0.75,-1.5l-0.41,-1.66l-0.17,-1.67l31.5,0l-0.17,-3.919l-0.421,-3.91l-0.83,-3.83l-1.171,-3.75l-1.079,-2.5l-1.42,-2.25l-1.66,-2.17l-2,-1.83l-2.17,-1.59l-2.08,-1.25l-2.25,-0.909l-2.42,-0.67l-2.42,-0.421l-2.408,-0.075Zm-0.25,10.75l1.66,-0l1.67,0.329l1.58,0.59l1.42,0.83l1.33,1.08l1.09,1.25l0.83,1.42l0.58,1.58l0.251,1.669l-19.16,0l0.25,-1.669l0.58,-1.58l0.84,-1.42l1.08,-1.25l1.33,-1.08l1.42,-0.83l1.58,-0.59l1.669,-0.329Z" style="fill:#010001;fill-rule:nonzero;"/></g><g><rect id="path17421" serif:id="path1742" x="405.367" y="236.22" width="30.749" height="94.488" style="fill:#fff;"/><path id="path17441" serif:id="path1744" d="M432.286,295.459l-2.5,0.33l-2.5,0.094l-0.92,-0.094l-0.75,-0.41l-0.66,-0.67l-0.421,-0.75l-0.17,-0.92l0,-52.069l-12.909,0l-0,57.319l0.16,1.75l0.5,1.67l0.75,1.58l1,1.5l1.25,1.25l1.42,1l1.67,0.67l1.66,0.5l1.75,0.17l4.08,-0.34l4,-0.5l4,-0.75l-1.41,-11.33Z" style="fill:#010001;fill-rule:nonzero;"/></g><g><rect id="path17461" serif:id="path1746" x="181.471" y="236.22" width="82.658" height="94.488" style="fill:#fff;"/><path id="path17481" serif:id="path1748" d="M252.38,266.21l-1.67,-1.91l-1.92,-1.67l-2.08,-1.42l-2.25,-1.16l-2.41,-0.84l-2.75,-0.499l-2.09,-0.083l-2.08,0.251l-2.08,0.42l-1.92,0.66l-1.92,0.92l-1.75,1.25l-1.58,1.42l-1.42,1.66l-1.16,-1.83l-1.42,-1.5l-1.66,-1.25l-1.92,-0.92l-1.5,-0.499l-2.75,-0.5l-2.42,-0.083l-2.33,0.33l-2.329,0.59l-2.171,0.91l-2.079,1.25l-1.92,1.5l-0,-3.33l-12.91,-0l-0,47.159l12.91,-0l-0,-28.33l0.17,-1.66l0.66,-1.59l1,-1.499l1.34,-1.25l1.5,-1.001l2.66,-0.909l1.001,-0.095l0.92,0.095l0.42,0.082l1.75,0.75l1.25,1.08l1.001,1.34l0.66,1.58l0.42,1.67l0.083,1.66l-0,28.079l12.92,0l-0,-28.329l0.16,-1.66l0.59,-1.59l1.079,-1.5l1.33,-1.25l1.5,-1l2.67,-0.91l0.92,-0.094l1.001,0.094l0.329,0.083l1.75,0.75l1.25,1.079l1.08,1.34l0.669,1.58l0.33,1.67l0.094,1.66l0,28.08l12.91,-0l-12.91,-0l12.91,-0l0,-28.16l-0.083,-2.75l-0.499,-2.67l-0.75,-2.58l-1.09,-2.5l-1.416,-2.171Z" style="fill:#010001;fill-rule:nonzero;"/></g><g><rect id="path17902" serif:id="path1790" x="264.129" y="236.22" width="26.92" height="94.488" style="fill:#fff;"/><path id="path17922" serif:id="path1792" d="M276.879,240.47l-1.42,0.16l-1.41,0.42l-1.25,0.67l-1.17,0.909l-0.92,1.171l-0.661,1.25l-0.42,1.42l-0.17,1.41l0.17,1.42l0.42,1.42l0.661,1.33l0.92,1.079l1.17,0.92l1.25,0.661l1.41,0.42l1.42,0.17l1.42,-0.17l1.41,-0.42l1.25,-0.661l1.171,-0.92l0.92,-1.079l0.66,-1.33l0.42,-1.42l0.17,-1.42l-0.17,-1.41l-0.42,-1.42l-0.66,-1.25l-0.92,-1.171l-1.171,-0.909l-1.25,-0.67l-1.41,-0.42l-1.42,-0.16Zm-6.5,19.41l0,47.239l12.92,0l-0,-47.239l-12.92,-0Z" style="fill:#010001;fill-rule:nonzero;"/></g><g><rect id="path18181" serif:id="path1818" x="291.049" y="236.22" width="57.159" height="94.488" style="fill:#fff;"/><path id="path18201" serif:id="path1820" d="M328.208,240.97l0,21.16l-2.16,-1.42l-2.25,-1.16l-2.42,-0.84l-2.41,-0.579l-2.59,-0.251l-2.5,0.095l-2.5,0.329l-2.499,0.66l-2.33,0.92l-2.25,1.25l-2.08,1.42l-2.13,2.04l-1.71,2.21l-1.25,2.37l-1.33,3.46l-0.831,3.33l-0.579,3.42l-0.251,3.42l0.161,3.41l0.42,3.42l0.831,3.33l1.09,3.25l1.24,2.5l1.5,2.25l1.84,2.08l2.08,1.75l2.33,1.42l2.75,1.079l2.919,0.75l2.92,0.34l2.91,0l2.92,-0.42l2.83,-0.75l2,-0.75l1.75,-1.171l1.58,-1.409l0,3.249l12.92,0l-0,-66.158l-12.921,-0.004Zm-9.91,28.33l1.91,0.25l1.92,0.58l1.67,0.92l1.58,1.16l1.08,1.25l0.839,1.34l0.58,1.5l0.33,1.66l-0,10.17l-0.16,1.25l-0.34,1.25l-0.58,1.079l-0.75,1.08l-1.33,1.42l-1.5,1.17l-1.67,0.831l-1.83,0.58l-1.92,0.25l-1.909,-0.161l-1.84,-0.42l-1.5,-0.58l-1.41,-0.84l-1.171,-1.079l-1,-1.25l-0.75,-1.42l-0.831,-2.5l-0.42,-2.66l-0.25,-2.58l0.17,-2.67l0.409,-2.58l0.75,-2.59l0.75,-1.66l0.84,-1.25l1.16,-1.09l1.59,-1.08l1.75,-0.75l1.91,-0.499l1.923,-0.081Z" style="fill:#010001;fill-rule:nonzero;"/></g><g><rect id="path18182" serif:id="path1818" x="348.208" y="236.22" width="57.159" height="94.488" style="fill:#fff;"/><path id="path18202" serif:id="path1820" d="M385.367,240.97l-0,21.16l-2.16,-1.42l-2.25,-1.16l-2.42,-0.84l-2.41,-0.579l-2.59,-0.251l-2.5,0.095l-2.5,0.329l-2.5,0.66l-2.33,0.92l-2.25,1.25l-2.08,1.42l-2.13,2.04l-1.71,2.21l-1.249,2.37l-1.33,3.46l-0.831,3.33l-0.58,3.42l-0.25,3.42l0.161,3.41l0.42,3.42l0.83,3.33l1.091,3.25l1.239,2.5l1.5,2.25l1.84,2.08l2.08,1.75l2.33,1.42l2.75,1.079l2.92,0.75l2.92,0.34l2.91,0l2.92,-0.42l2.83,-0.75l2,-0.75l1.75,-1.171l1.58,-1.409l-0,3.249l12.92,0l-0,-66.158l-12.921,-0.004Zm-9.91,28.33l1.91,0.25l1.92,0.58l1.67,0.92l1.58,1.16l1.08,1.25l0.839,1.34l0.58,1.5l0.33,1.66l-0,10.17l-0.16,1.25l-0.34,1.25l-0.58,1.079l-0.75,1.08l-1.33,1.42l-1.5,1.17l-1.67,0.831l-1.83,0.58l-1.92,0.25l-1.91,-0.161l-1.84,-0.42l-1.5,-0.58l-1.41,-0.84l-1.17,-1.079l-1,-1.25l-0.75,-1.42l-0.831,-2.5l-0.42,-2.66l-0.251,-2.58l0.171,-2.67l0.409,-2.58l0.75,-2.59l0.75,-1.66l0.84,-1.25l1.16,-1.09l1.59,-1.08l1.75,-0.75l1.91,-0.499l1.923,-0.081Z" style="fill:#010001;fill-rule:nonzero;"/></g></g><g><g><rect id="path17502" serif:id="path1750" x="94.784" y="236.22" width="57.159" height="94.488" style="fill:#fff;"/><path id="path17522" serif:id="path1752" d="M131.364,277.3l-0.34,-1.67l-0.75,-1.58l-1.001,-1.34l-1.25,-1.08l-1.75,-0.75l-1.91,-0.329l-1.92,0.082l-1.83,0.33l-1.84,0.75l-1.5,1l-1.33,1.25l-1,1.5l-0.67,1.59l-0.16,1.66l-0,28.33l-12.92,-0l0,-47.159l12.92,-0l-0,3.33l1.91,-1.5l2.09,-1.25l2.16,-0.91l2.34,-0.59l2.329,-0.33l2.42,0.083l2.75,0.499l2.41,0.84l2.33,1.16l2.09,1.42l1.91,1.67l1.67,1.91l1.42,2.17l1.08,2.5l0.75,2.58l0.42,2.67l0.161,2.75l-0,28.159l-12.91,0l12.91,0l-12.91,0l0,-28.079l-0.079,-1.666Z" style="fill:#010001;fill-rule:nonzero;"/></g><g><rect id="path17903" serif:id="path1790" x="67.865" y="236.22" width="26.92" height="94.488" style="fill:#fff;"/><path id="path17923" serif:id="path1792" d="M80.615,240.47l-1.42,0.16l-1.41,0.42l-1.25,0.67l-1.171,0.909l-0.92,1.171l-0.66,1.25l-0.421,1.42l-0.17,1.41l0.17,1.42l0.421,1.42l0.66,1.33l0.92,1.079l1.171,0.92l1.25,0.661l1.41,0.42l1.42,0.17l1.42,-0.17l1.41,-0.42l1.25,-0.661l1.17,-0.92l0.92,-1.079l0.66,-1.33l0.421,-1.42l0.17,-1.42l-0.17,-1.41l-0.421,-1.42l-0.66,-1.25l-0.92,-1.171l-1.17,-0.909l-1.25,-0.67l-1.41,-0.42l-1.42,-0.16Zm-6.5,19.41l-0,47.239l12.919,0l0,-47.239l-12.919,-0Z" style="fill:#010001;fill-rule:nonzero;"/></g></g><g><g><rect id="path17542" serif:id="path1754" x="113.534" y="330.709" width="55.239" height="94.488" style="fill:#fff;"/><path id="path17562" serif:id="path1756" d="M139.864,352.458l-2.59,0.161l-2.5,0.42l-2.5,0.75l-2.41,0.92l-2.25,1.24l-2.34,1.75l-2.08,2.09l-1.83,2.25l-1.5,2.58l-1.17,2.67l-0.161,0.5l-0.84,3.33l-0.499,3.42l-0.171,3.41l0.171,3.42l0.499,3.409l0.84,3.25l0.161,0.591l1.17,2.66l1.5,2.5l1.83,2.34l2.08,2.08l2.34,1.75l2.25,1.16l2.41,1.009l2.5,0.74l2.5,0.42l2.59,0.17l2.58,-0.17l2.58,-0.42l2.499,-0.74l2.42,-1.009l2.25,-1.16l2.33,-1.75l2.08,-2.08l1.84,-2.34l1.5,-2.5l1.16,-2.66l0.17,-0.591l0.83,-3.25l0.5,-3.409l0.095,-3.42l-0.095,-3.41l-0.5,-3.42l-0.83,-3.33l-0.17,-0.5l-1.16,-2.67l-1.5,-2.58l-1.84,-2.25l-2.08,-2.09l-2.33,-1.75l-2.25,-1.24l-2.42,-0.92l-2.499,-0.75l-2.58,-0.42l-2.58,-0.161Zm-0,11.33l1.91,0.25l2,0.831l1.749,1.33l1.5,1.59l1.25,1.83l0.67,1.5l0.421,1.58l0.329,2.67l0.083,2.579l-0.083,2.58l-0.329,2.67l-0.421,1.58l-0.67,1.5l-1.25,1.84l-1.5,1.58l-1.749,1.33l-2,0.75l-1.91,0.34l-1.84,-0.34l-2,-0.75l-1.83,-1.33l-1.5,-1.58l-1.171,-1.84l-0.66,-1.5l-0.42,-1.58l-0.33,-2.67l-0.17,-2.58l0.17,-2.579l0.33,-2.67l0.42,-1.58l0.66,-1.5l1.171,-1.83l1.5,-1.59l1.83,-1.33l2,-0.831l1.84,-0.25Z" style="fill:#010001;fill-rule:nonzero;"/></g><g><rect id="path1814" x="168.773" y="330.709" width="38.249" height="94.488" style="fill:#fff;"/><path id="path1816" d="M192.193,354.038l9.159,0l0,10.66l-9.159,-0l-0,36.919l-12.92,0l-0,-36.919l-7.58,-0l-0,-10.66l7.58,0l-0,-6.92l0.17,-1.91l0.41,-1.92l0.84,-1.75l1,-1.67l1.33,-1.41l1.5,-1.249l1.67,-1.001l1.83,-0.67l1.92,-0.329l3.66,-0.095l3.67,0.17l3.58,0.421l3.58,0.75l-2.33,10.5l-3,-0.34l-3.17,-0l-0.91,0.094l-0.92,0.41l-0.83,0.591l-0.58,0.75l-0.42,0.91l-0.095,1.001l0.015,3.667Z" style="fill:#010001;fill-rule:nonzero;"/></g></g></g></svg>