<?xml version="1.0" encoding="UTF-8" standalone="no"?><!DOCTYPE svg PUBLIC "-//W3C//DTD SVG 1.1//EN" "http://www.w3.org/Graphics/SVG/1.1/DTD/svg11.dtd"><svg width="100%" height="100%" viewBox="0 0 514 454" version="1.1" xmlns="http://www.w3.org/2000/svg" xmlns:xlink="http://www.w3.org/1999/xlink" xml:space="preserve" xmlns:serif="http://www.serif.com/" style="fill-rule:evenodd;clip-rule:evenodd;stroke-linejoin:round;stroke-miterlimit:2;"><g transform="matrix(50,0,0,50,350.88,262.709)"></g><text x="163.258px" y="262.709px" style="font-family:'ArialMT', 'Arial', sans-serif;font-size:50px;">sw=38.4</text><g id="_581-Side-Winds" serif:id="581 Side Winds"><path d="M227.178,17.004c6.076,-10.522 17.302,-17.004 29.452,-17.004c12.149,0 23.376,6.482 29.452,17.004c54.065,93.625 168.545,291.872 222.619,385.514c6.077,10.524 6.079,23.491 0.003,34.016c-6.075,10.525 -17.303,17.009 -29.455,17.009l-445.238,0c-12.152,0 -23.38,-6.484 -29.455,-17.009c-6.076,-10.525 -6.074,-23.492 0.003,-34.016c54.074,-93.642 168.554,-291.889 222.619,-385.514Z" style="fill:#e31837;"/><path d="M256.665,56.708l202.961,351.496l-405.922,-0l202.961,-351.496Z" style="fill:#fff;"/><path d="M202.786,284.985l-26.209,-18.029l-4.923,0l0,126.13l-14.734,-0l0,-140.032l14.734,-0l0,7.35l4.923,-0l29.468,-24.547l4.16,0l4.125,0.035l4.161,0.208l4.125,0.312l4.126,0.451l4.09,0.589l4.091,0.694l4.056,0.866l4.022,0.971l4.021,1.11l3.952,1.213l1.803,0.659l1.768,0.797l1.734,0.867l1.664,0.971l1.594,1.109l1.526,1.179l1.456,1.283l1.387,1.352l1.629,1.629l1.733,1.56l1.803,1.457l1.907,1.317l1.976,1.248l2.011,1.11l2.114,1.005l2.115,0.867l2.219,0.763l2.219,0.624l2.253,0.52l2.288,0.381l2.323,0.243l2.323,0.104l2.288,-0l2.322,-0.139l4.161,-0.312l4.194,-0.173l4.16,-0.035l4.195,0.139l4.16,0.277l4.161,0.416l4.125,0.555l4.126,0.693l4.09,0.867l4.056,1.005l4.022,1.11l3.952,1.283l3.952,1.421l3.882,1.526l3.814,1.698l3.779,1.803l3.675,1.942l3.64,2.08l3.536,2.219l-9.811,31.099l-11.544,-4.577l-2.912,-1.04l-2.982,-0.936l-3.016,-0.763l-3.05,-0.658l-3.086,-0.486l-3.12,-0.346l-3.12,-0.174l-2.531,-0.034l-2.565,0.138l-2.531,0.312l-2.496,0.486l-2.462,0.589l-3.674,0.971l-3.675,0.832l-3.744,0.728l-3.744,0.555l-3.745,0.45l-3.778,0.312l-3.779,0.174l-3.779,0.069l-3.779,-0.104l-3.779,-0.208l-3.778,-0.347l-3.745,-0.485l-3.744,-0.624l-3.709,-0.728l-3.675,-0.867l-3.675,-1.005l-3.605,-1.144l-3.571,-1.248l-3.501,-1.387l-3.502,-1.491l-3.397,-1.63l-3.363,-1.733l-3.294,-1.838l-3.258,-1.976l-2.288,-1.387l-2.358,-1.213l-2.392,-1.109l-2.496,-0.971l-2.531,-0.867l-2.565,-0.693l-2.6,-0.555l-2.6,-0.416l-2.67,-0.278l-2.635,-0.138l-2.669,-0Zm-25.1,-21.218l25.343,17.404l2.738,-40.806l-28.081,23.402Z"/></g></svg>