<?xml version="1.0" encoding="UTF-8" standalone="no"?><!DOCTYPE svg PUBLIC "-//W3C//DTD SVG 1.1//EN" "http://www.w3.org/Graphics/SVG/1.1/DTD/svg11.dtd"><svg width="100%" height="100%" viewBox="0 0 514 454" version="1.1" xmlns="http://www.w3.org/2000/svg" xmlns:xlink="http://www.w3.org/1999/xlink" xml:space="preserve" xmlns:serif="http://www.serif.com/" style="fill-rule:evenodd;clip-rule:evenodd;stroke-linejoin:round;stroke-miterlimit:2;"><g transform="matrix(50,0,0,50,328.124,262.709)"></g><text x="140.501px" y="262.709px" style="font-family:'ArialMT', 'Arial', sans-serif;font-size:50px;">sw=38.4</text><g id="_582-Slow-Moving-Military-Vehicles" serif:id="582 Slow Moving Military Vehicles"><path d="M227.178,17.004c6.076,-10.522 17.302,-17.004 29.452,-17.004c12.149,0 23.376,6.482 29.452,17.004c54.065,93.625 168.545,291.872 222.619,385.514c6.077,10.524 6.079,23.491 0.003,34.016c-6.075,10.525 -17.303,17.009 -29.455,17.009l-445.238,0c-12.152,0 -23.38,-6.484 -29.455,-17.009c-6.076,-10.525 -6.074,-23.492 0.003,-34.016c54.074,-93.642 168.554,-291.889 222.619,-385.514Z" style="fill:#e31837;"/><path d="M256.665,56.708l202.961,351.496l-405.922,-0l202.961,-351.496Z" style="fill:#fff;"/><path d="M361.265,393.086l-243.101,-0l-1.572,-0.057l-1.543,-0.172l-1.543,-0.286l-1.514,-0.371l-1.486,-0.514l-1.457,-0.6l-1.4,-0.715l-1.343,-0.8l-1.286,-0.914l-1.2,-1l-1.143,-1.086l-1.057,-1.143l-0.972,-1.229l-0.886,-1.314l-0.8,-1.344l-0.685,-1.428l-0.572,-1.458l-0.486,-1.486l-0.342,-1.514l-0.258,-1.572l-0.142,-1.543l-0.029,-1.571l0.086,-1.572l0.2,-1.572l0.314,-1.514l0.4,-1.515l0.543,-1.485l0.629,-1.429l0.742,-1.4l15.801,-27.404l0.8,-1.286l0.915,-1.228l0.971,-1.143l1.058,-1.115l1.114,-1l1.2,-0.943l1.257,-0.829l1.315,-0.771l1.371,-0.657l1.4,-0.572l1.429,-0.486l1.486,-0.343l1.485,-0.285l1.515,-0.143l1.514,-0.057l36.145,-0l0,-4.715l-0.914,-0.057l-0.886,-0.172l-0.886,-0.286l-0.828,-0.371l-0.772,-0.457l-0.714,-0.572l-0.657,-0.628l-0.543,-0.743l-0.486,-0.772l-0.371,-0.829l-0.286,-0.885l-0.143,-0.886l-0.057,-0.915l0,-18.888l0.057,-1.114l0.143,-1.115l0.286,-1.057l0.371,-1.057l0.486,-1l0.571,-0.972l0.658,-0.886l0.743,-0.828l0.828,-0.743l0.886,-0.657l0.943,-0.572l1.028,-0.486l1.029,-0.371l1.086,-0.257l1.114,-0.172l1.115,-0.057l81.262,-0l1.114,0.057l1.086,0.172l1.086,0.257l1.057,0.371l1,0.486l0.943,0.572l0.886,0.657l0.828,0.743l0.743,0.828l0.686,0.886l0.572,0.972l0.457,1l0.371,1.057l0.286,1.057l0.171,1.115l0.029,1.114l82.319,-5.286l1.286,9.058l-83.605,11.344l-0,3.772l-0.029,0.915l-0.171,0.886l-0.286,0.885l-0.371,0.829l-0.457,0.772l-0.572,0.743l-0.657,0.628l-0.714,0.572l-0.772,0.457l-0.828,0.371l-0.886,0.286l-0.886,0.172l-0.914,0.057l-0,4.715l118.121,-0l1.572,0.057l1.542,0.171l1.543,0.286l1.515,0.4l1.515,0.486l1.428,0.6l1.4,0.714l1.343,0.8l1.286,0.915l1.228,1l1.115,1.086l1.085,1.143l0.972,1.229l0.858,1.314l0.8,1.343l0.685,1.429l0.572,1.457l0.486,1.486l0.343,1.543l0.257,1.543l0.142,1.543l0.029,1.572l-0.086,1.571l-0.2,1.572l-0.286,1.514l-0.428,1.515l-0.543,1.486l-0.629,1.429l-0.714,1.4l-15.83,27.403l-0.799,1.286l-0.915,1.229l-0.972,1.143l-1.056,1.114l-1.115,1l-1.2,0.943l-1.257,0.858l-1.315,0.743l-1.371,0.657l-1.4,0.571l-1.429,0.486l-1.486,0.343l-1.485,0.286l-1.515,0.143l-1.514,0.057Z"/></g></svg>