<?xml version="1.0" encoding="UTF-8" standalone="no"?><!DOCTYPE svg PUBLIC "-//W3C//DTD SVG 1.1//EN" "http://www.w3.org/Graphics/SVG/1.1/DTD/svg11.dtd"><svg width="100%" height="100%" viewBox="0 0 514 454" version="1.1" xmlns="http://www.w3.org/2000/svg" xmlns:xlink="http://www.w3.org/1999/xlink" xml:space="preserve" xmlns:serif="http://www.serif.com/" style="fill-rule:evenodd;clip-rule:evenodd;stroke-linejoin:round;stroke-miterlimit:2;"><g transform="matrix(50,0,0,50,371.73,262.709)"></g><text x="184.108px" y="262.709px" style="font-family:'ArialMT', 'Arial', sans-serif;font-size:50px;">sw=38.4</text><g id="_583-Slow-Moving-Vehicles-on-an-Incline" serif:id="583 Slow Moving Vehicles on an Incline"><path d="M227.178,17.004c6.076,-10.522 17.302,-17.004 29.452,-17.004c12.149,0 23.376,6.482 29.452,17.004c54.065,93.625 168.545,291.872 222.619,385.514c6.077,10.524 6.079,23.491 0.003,34.016c-6.075,10.525 -17.303,17.009 -29.455,17.009l-445.238,0c-12.152,0 -23.38,-6.484 -29.455,-17.009c-6.076,-10.525 -6.074,-23.492 0.003,-34.016c54.074,-93.642 168.554,-291.889 222.619,-385.514Z" style="fill:#e31837;"/><path d="M256.665,56.708l202.961,351.496l-405.922,-0l202.961,-351.496Z" style="fill:#fff;"/><path d="M217.872,342.878c-8.158,2.969 -17.18,-1.243 -20.152,-9.407c-2.971,-8.165 1.233,-17.19 9.391,-20.16c8.158,-2.969 17.181,1.243 20.152,9.407c2.972,8.165 -1.233,17.19 -9.391,20.16Zm-137.946,50.208l292.149,-106.334l61.399,106.334l-353.548,-0Zm254.698,-92.703c-8.158,2.97 -17.18,-1.242 -20.152,-9.406c-2.971,-8.165 1.233,-17.191 9.391,-20.16c8.158,-2.969 17.181,1.242 20.152,9.407c2.972,8.164 -1.232,17.19 -9.391,20.159Zm-124.827,20.309c-4.085,1.486 -6.191,6.006 -4.702,10.095c1.488,4.088 6.006,6.197 10.091,4.71c4.086,-1.486 6.191,-6.006 4.703,-10.095c-1.488,-4.088 -6.006,-6.197 -10.092,-4.71Zm116.752,-42.495c-4.085,1.487 -6.19,6.007 -4.702,10.096c1.488,4.088 6.006,6.197 10.091,4.71c4.086,-1.487 6.191,-6.007 4.703,-10.095c-1.488,-4.089 -6.006,-6.198 -10.092,-4.711Zm-170.605,-13.331c0.007,-0.003 0.015,-0.006 0.023,-0.009l116.248,-42.311c2.036,-0.741 4.288,0.31 5.03,2.348l-0.037,0.04l12.112,33.279l7.42,-2.701l-7.507,-20.627l0.037,-0.04c-0.742,-2.038 0.308,-4.291 2.344,-5.032l-0.006,0.054l25.581,-9.311c4.479,-1.63 9.483,0.194 11.867,4.325l-0.035,0.038l12.16,21.011l0.012,-0.066c3.153,-0.31 5.992,1.919 6.443,5.057l-0.055,0.051l3.817,26.591l-5.909,2.15l0.038,-0.039c-3.276,-9 -13.221,-13.642 -22.213,-10.37c-8.993,3.273 -13.628,13.221 -10.354,22.221l0.009,0.025l-84.232,30.658l0.038,-0.04c-3.276,-9 -13.221,-13.642 -22.214,-10.369c-8.992,3.272 -13.628,13.221 -10.353,22.22l0.009,0.025l-17.039,6.202l-25.593,-70.317l0.037,-0.04c-0.738,-2.03 0.301,-4.274 2.322,-5.023Zm163.112,-38.396l-15.848,5.768l6.724,18.473l22.214,-8.086l-8.37,-14.447l0.027,-0.035c-0.952,-1.65 -2.951,-2.379 -4.741,-1.728l-0.006,0.055Z"/></g></svg>