<?xml version="1.0" encoding="UTF-8" standalone="no"?><!DOCTYPE svg PUBLIC "-//W3C//DTD SVG 1.1//EN" "http://www.w3.org/Graphics/SVG/1.1/DTD/svg11.dtd"><svg width="100%" height="100%" viewBox="0 0 653 272" version="1.1" xmlns="http://www.w3.org/2000/svg" xmlns:xlink="http://www.w3.org/1999/xlink" xml:space="preserve" xmlns:serif="http://www.serif.com/" style="fill-rule:evenodd;clip-rule:evenodd;stroke-linejoin:round;stroke-miterlimit:2;"><g transform="matrix(50,0,0,50,399.557,171.764)"></g><text x="253.634px" y="171.764px" style="font-family:'ArialMT', 'Arial', sans-serif;font-size:50px;">sw=23</text><rect id="_583.1-2-miles" serif:id="583.1 2 miles" x="0" y="0" width="652.458" height="271.654" style="fill:none;"/><g><path d="M652.458,35.433c0,-19.556 -15.877,-35.433 -35.433,-35.433l-581.592,0c-19.556,0 -35.433,15.877 -35.433,35.433l0,200.787c0,19.557 15.877,35.434 35.433,35.434l581.592,-0c19.556,-0 35.433,-15.877 35.433,-35.434l0,-200.787Z"/><path d="M634.742,35.433c-0,-9.778 -7.939,-17.716 -17.717,-17.716l-581.592,-0c-9.778,-0 -17.716,7.938 -17.716,17.716l-0,200.787c-0,9.778 7.938,17.717 17.716,17.717l581.592,0c9.778,0 17.717,-7.939 17.717,-17.717l-0,-200.787Z" style="fill:#fff;"/><g><g><g><rect id="path1786" x="395.063" y="47.244" width="41.079" height="94.488" style="fill:#fff;"/><path id="path1788" d="M414.563,118.063l-12.92,-0l0,-47.159l12.92,-0l-0,4.67l1.58,-1.59l1.75,-1.33l2,-1.171l2.17,-0.75l2.16,-0.499l2.25,-0.161l3.17,-0l-0,12.25l-4.42,-0l-1.83,0.159l-1.83,0.5l-1.67,0.84l-1.58,1.079l-1.25,1.25l-1.08,1.58l-0.839,1.67l-0.5,1.83l-0.083,1.84l0.002,24.992Z" style="fill:#010001;fill-rule:nonzero;"/></g><g><rect id="path17861" serif:id="path1786" x="436.142" y="47.244" width="41.079" height="94.488" style="fill:#fff;"/><path id="path17881" serif:id="path1788" d="M455.642,118.063l-12.92,-0l0,-47.159l12.92,-0l0,4.67l1.58,-1.59l1.75,-1.33l2,-1.171l2.17,-0.75l2.16,-0.499l2.25,-0.161l3.17,-0l-0,12.25l-4.42,-0l-1.83,0.159l-1.83,0.5l-1.67,0.84l-1.58,1.079l-1.25,1.25l-1.079,1.58l-0.84,1.67l-0.5,1.83l-0.083,1.84l0.002,24.992Z" style="fill:#010001;fill-rule:nonzero;"/></g><g><rect id="path1806" x="504.141" y="47.244" width="52.909" height="94.488" style="fill:#fff;"/><path id="path1808" d="M529.641,69.654l-2.42,0.17l-2.41,0.41l-2.34,0.75l-2.25,1.09l-2.08,1.25l-2.25,1.66l-2.08,2l-1.75,2.25l-1.42,2.42l-1.17,3l-0.831,3.169l-0.499,3.16l-0.17,3.25l0.25,3.25l0.591,3.17l0.909,3.08l1.169,3l1.08,2.17l1.42,2l1.5,1.83l1.83,1.67l1.92,1.41l2.08,1.25l2.25,0.92l2.34,0.67l2.99,0.58l3.09,0.25l3.079,-0.083l3.08,-0.34l3,-0.66l2.34,-0.84l2.16,-1.079l2,-1.42l1.83,-1.67l1.67,-1.83l-8,-8.08l-1.83,1.67l-2.08,1.33l-2.25,1l-2.17,0.58l-2.169,0.17l-2.16,-0.083l-2.17,-0.42l-2.08,-0.75l-1.42,-0.92l-1.25,-1.16l-1.001,-1.34l-0.75,-1.5l-0.41,-1.66l-0.17,-1.67l31.5,0l-0.17,-3.92l-0.421,-3.91l-0.83,-3.83l-1.171,-3.75l-1.079,-2.5l-1.42,-2.25l-1.66,-2.169l-2,-1.83l-2.17,-1.59l-2.08,-1.25l-2.25,-0.91l-2.42,-0.669l-2.42,-0.421l-2.407,-0.075Zm-0.251,10.749l1.66,0l1.67,0.33l1.58,0.589l1.42,0.831l1.33,1.079l1.09,1.25l0.831,1.42l0.579,1.58l0.251,1.67l-19.16,0l0.251,-1.67l0.58,-1.58l0.839,-1.42l1.08,-1.25l1.33,-1.079l1.42,-0.831l1.58,-0.589l1.669,-0.33Z" style="fill:#010001;fill-rule:nonzero;"/></g><g><rect id="path1754" x="339.825" y="47.244" width="55.239" height="94.488" style="fill:#fff;"/><path id="path1756" d="M366.154,68.994l-2.59,0.16l-2.5,0.421l-2.5,0.75l-2.41,0.92l-2.25,1.24l-2.34,1.75l-2.08,2.09l-1.83,2.25l-1.5,2.58l-1.17,2.67l-0.161,0.499l-0.839,3.33l-0.5,3.42l-0.17,3.41l0.17,3.42l0.5,3.41l0.839,3.25l0.161,0.59l1.17,2.66l1.5,2.5l1.83,2.34l2.08,2.08l2.34,1.75l2.25,1.16l2.41,1.01l2.5,0.739l2.5,0.421l2.59,0.17l2.58,-0.17l2.58,-0.421l2.5,-0.739l2.42,-1.01l2.25,-1.16l2.33,-1.75l2.08,-2.08l1.84,-2.34l1.5,-2.5l1.159,-2.66l0.171,-0.59l0.83,-3.25l0.499,-3.41l0.095,-3.42l-0.095,-3.41l-0.499,-3.42l-0.83,-3.33l-0.171,-0.499l-1.159,-2.67l-1.5,-2.58l-1.84,-2.25l-2.08,-2.09l-2.33,-1.75l-2.25,-1.24l-2.42,-0.92l-2.5,-0.75l-2.58,-0.421l-2.58,-0.16Zm0,11.329l1.91,0.251l2,0.83l1.75,1.33l1.5,1.59l1.25,1.83l0.67,1.5l0.42,1.58l0.33,2.67l0.082,2.58l-0.082,2.58l-0.33,2.67l-0.42,1.58l-0.67,1.5l-1.25,1.84l-1.5,1.58l-1.75,1.33l-2,0.75l-1.91,0.34l-1.84,-0.34l-2,-0.75l-1.83,-1.33l-1.5,-1.58l-1.17,-1.84l-0.661,-1.5l-0.42,-1.58l-0.33,-2.67l-0.17,-2.58l0.17,-2.58l0.33,-2.67l0.42,-1.58l0.661,-1.5l1.17,-1.83l1.5,-1.59l1.83,-1.33l2,-0.83l1.84,-0.251Z" style="fill:#010001;fill-rule:nonzero;"/></g><g><rect id="path1742" x="309.075" y="47.244" width="30.749" height="94.488" style="fill:#fff;"/><path id="path1744" d="M335.995,106.483l-2.5,0.33l-2.5,0.094l-0.92,-0.094l-0.75,-0.41l-0.661,-0.67l-0.42,-0.75l-0.17,-0.92l-0,-52.069l-12.91,-0l0,57.319l0.161,1.75l0.499,1.67l0.75,1.58l1.001,1.5l1.25,1.25l1.42,1l1.67,0.67l1.66,0.499l1.75,0.17l4.08,-0.34l4,-0.499l3.999,-0.75l-1.409,-11.33Z" style="fill:#010001;fill-rule:nonzero;"/></g><g><rect id="path1790" x="477.222" y="47.244" width="26.92" height="94.488" style="fill:#fff;"/><path id="path1792" d="M489.971,51.494l-1.42,0.16l-1.41,0.42l-1.25,0.67l-1.17,0.909l-0.92,1.171l-0.66,1.25l-0.421,1.42l-0.17,1.409l0.17,1.421l0.421,1.419l0.66,1.33l0.92,1.08l1.17,0.92l1.25,0.66l1.41,0.421l1.42,0.17l1.42,-0.17l1.41,-0.421l1.25,-0.66l1.171,-0.92l0.92,-1.08l0.66,-1.33l0.421,-1.419l0.17,-1.421l-0.17,-1.409l-0.421,-1.42l-0.66,-1.25l-0.92,-1.171l-1.171,-0.909l-1.25,-0.67l-1.41,-0.42l-1.42,-0.16Zm-6.499,19.41l-0,47.239l12.919,-0l0,-47.239l-12.919,-0Z" style="fill:#010001;fill-rule:nonzero;"/></g><g><rect id="path1674" x="557.05" y="47.244" width="48.164" height="94.488" style="fill:#fff;"/><path id="path1676" d="M569.801,103.909l2,1.58l2.161,1.25l2.34,1l2.41,0.671l2.5,0.33l2.25,-0l1.591,-0.581l1.33,-0.92l0.75,-0.749l0.5,-1l0.08,-1.081l-0.25,-1.09l-0.58,-0.91l-0.83,-0.671l-3.25,-1.25l-3.34,-0.67l-3.001,-0.5l-4.08,-1l-2,-0.66l-1.83,-1l-1.671,-1.25l-1.5,-1.42l-1.25,-1.58l-1.08,-1.751l-0.67,-2.09l-0.41,-2.16l0,-2.17l0.25,-2.16l0.58,-2.171l0.92,-1.92l1.25,-1.83l1.411,-1.58l1.59,-1.42l1.83,-1.171l1.91,-0.91l2.09,-0.59l3,-0.66l3.001,-0.34l3.08,-0l3.08,0.249l3.091,0.59l2.5,0.75l2.41,1l2.34,1.33l2.24,1.42l2,1.75l-7.99,8.491l-2.25,-1.83l-2.501,-1.5l-2.67,-1.16l-1.5,-0.419l-1.58,-0.25l-1.59,0l-1.66,0.42l-1.501,0.749l-1.34,1l-0.66,0.83l-0.34,0.92l0.09,1.081l0.33,0.91l0.58,0.841l1,0.58l5.501,1.081l5,0.67l1.921,0.33l0.08,-0l1.92,0.67l1.83,0.83l1.84,1.09l1.661,1.41l1.42,1.59l1.159,1.75l0.841,1.911l0.58,2.09l0.33,2.08l-0.082,2.17l-0.33,2.08l-0.671,2.08l-1.08,2.091l-1.34,1.91l-1.58,1.75l-1.831,1.5l-2,1.17l-3.25,1.001l-3.33,0.659l-3.421,0.341l-3.33,-0l-3.42,-0.341l-3.331,-0.659l-3,-0.92l-2.92,-1.25l-2.66,-1.58l-2.501,-1.841l-2.34,-2.16l9.421,-8.67l1.752,1.839Z" style="fill:#010001;fill-rule:nonzero;"/></g></g><g><g><rect id="path17541" serif:id="path1754" x="147.812" y="47.244" width="55.239" height="94.488" style="fill:#fff;"/><path id="path17561" serif:id="path1756" d="M174.142,68.994l-2.59,0.16l-2.5,0.421l-2.5,0.75l-2.41,0.92l-2.25,1.24l-2.34,1.75l-2.08,2.09l-1.83,2.25l-1.5,2.58l-1.17,2.67l-0.161,0.499l-0.84,3.33l-0.499,3.42l-0.171,3.41l0.171,3.42l0.499,3.41l0.84,3.25l0.161,0.59l1.17,2.66l1.5,2.5l1.83,2.34l2.08,2.08l2.34,1.75l2.25,1.16l2.41,1.01l2.5,0.739l2.5,0.421l2.59,0.17l2.579,-0.17l2.58,-0.421l2.5,-0.739l2.42,-1.01l2.25,-1.16l2.33,-1.75l2.08,-2.08l1.84,-2.34l1.5,-2.5l1.16,-2.66l0.17,-0.59l0.83,-3.25l0.5,-3.41l0.095,-3.42l-0.095,-3.41l-0.5,-3.42l-0.83,-3.33l-0.17,-0.499l-1.16,-2.67l-1.5,-2.58l-1.84,-2.25l-2.08,-2.09l-2.33,-1.75l-2.25,-1.24l-2.42,-0.92l-2.5,-0.75l-2.58,-0.421l-2.579,-0.16Zm-0,11.329l1.91,0.251l2,0.83l1.749,1.33l1.5,1.59l1.25,1.83l0.67,1.5l0.421,1.58l0.329,2.67l0.083,2.58l-0.083,2.58l-0.329,2.67l-0.421,1.58l-0.67,1.5l-1.25,1.84l-1.5,1.58l-1.749,1.33l-2,0.75l-1.91,0.34l-1.84,-0.34l-2,-0.75l-1.83,-1.33l-1.5,-1.58l-1.171,-1.84l-0.66,-1.5l-0.42,-1.58l-0.33,-2.67l-0.17,-2.58l0.17,-2.58l0.33,-2.67l0.42,-1.58l0.66,-1.5l1.171,-1.83l1.5,-1.59l1.83,-1.33l2,-0.83l1.84,-0.251Z" style="fill:#010001;fill-rule:nonzero;"/></g><g id="S"><rect id="path1618" x="47.244" y="47.244" width="69.819" height="94.488" style="fill:#fff;"/><path id="path1620" d="M88.733,92.653l1.5,0.58l1.25,0.84l1.08,1.16l0.75,1.34l0.42,1.41l0.083,1.59l-0.25,1.5l-0.661,1.41l-0.92,1.25l-1.42,1.17l-1.58,0.909l-1.75,0.67l-1.83,0.33l-4.5,-0l-2.579,-0.33l-2.501,-0.499l-2.419,-0.831l-2.42,-1.079l-2.83,-1.84l-2.67,-2l-2.41,-2.33l-11.5,8.83l2.42,2.5l2.58,2.33l2.75,2.09l2.91,1.83l3.17,1.5l3.58,1.17l3.75,0.83l3.749,0.58l3.75,0.251l3.83,-0.083l3.75,-0.33l3.75,-0.669l3.67,-1.001l2.5,-1l2.33,-1.33l2.17,-1.67l1.92,-1.92l1.66,-2.16l1.34,-2.34l0.99,-2.49l0.669,-2.67l0.251,-2.67l-0.083,-2.66l-0.42,-2.75l-0.75,-2.59l-1.16,-2.409l-1.5,-2l-1.75,-1.75l-1.84,-1.59l-2.08,-1.41l-2.17,-1.171l-2.08,-0.83l-2.17,-0.67l-15.49,-3.83l-1.09,-0.42l-1,-0.66l-0.831,-0.92l-0.669,-1.001l-0.33,-1.079l-0.17,-1.17l0.095,-1.17l0.409,-1.16l0.59,-1l1.33,-1.34l1.5,-1.001l1.75,-0.75l1.83,-0.41l1.84,-0.17l2.74,0.17l2.67,0.41l2.67,0.75l2.5,0.92l2.41,1.25l2.34,1.5l2.079,1.75l10.25,-9.33l-2.75,-2.419l-2.92,-2.081l-3.16,-1.839l-3.25,-1.58l-3.419,-1.16l-3.58,-0.92l-3.59,-0.5l-3.66,-0.17l-3.58,0.17l-3.59,0.5l-3.58,0.92l-2.58,1l-2.42,1.24l-2.25,1.59l-2.08,1.83l-1.84,2l-1.41,2l-1.09,2.17l-0.83,2.25l-0.58,2.33l-0.17,2.42l0.082,2.41l0.421,2.42l0.75,2.25l1,2.25l1.25,2l1.58,1.91l1.75,1.59l2.5,1.659l2.75,1.171l2.92,0.75l15.574,3.502Z" style="fill:#010001;fill-rule:nonzero;"/></g><g><rect id="path17421" serif:id="path1742" x="117.063" y="47.244" width="30.749" height="94.488" style="fill:#fff;"/><path id="path17441" serif:id="path1744" d="M143.982,106.483l-2.5,0.33l-2.5,0.094l-0.92,-0.094l-0.75,-0.41l-0.66,-0.67l-0.42,-0.75l-0.171,-0.92l0,-52.069l-12.909,-0l-0,57.319l0.16,1.75l0.5,1.67l0.75,1.58l1,1.5l1.25,1.25l1.42,1l1.67,0.67l1.66,0.499l1.75,0.17l4.08,-0.34l4,-0.499l4,-0.75l-1.41,-11.33Z" style="fill:#010001;fill-rule:nonzero;"/></g><g><rect id="path1682" x="203.051" y="47.244" width="76.497" height="94.488" style="fill:#fff;"/><path id="path1684" d="M240.294,88.908l-6.91,29.162l-15.082,0l-13.251,-47.244l12.751,0l8.411,29.913l7.081,-29.913l14.091,0l7.08,29.913l8.331,-29.913l12.831,0l-13.251,47.244l-15.161,0l-6.921,-29.162Z" style="fill:#010001;fill-rule:nonzero;"/></g></g></g><g><g><rect id="path1870" x="242.818" y="141.732" width="59.989" height="94.488" style="fill:#fff;"/><path id="path1872" d="M281.397,162.982l-0.92,-1.42l-1.17,-1.25l-1.41,-1.08l-1.499,-0.84l-1.92,-0.5l-2,-0.33l-2,-0l-1.91,0.25l-1.92,0.5l-1.67,0.75l-1.41,1.08l-1.17,1.34l-1,1.58l-0.83,2l-0.59,2.17l-0.33,2.24l-0,2.25l-13.58,-0l0,-3.33l0.17,-2.83l0.5,-2.83l0.75,-2.67l1.16,-2.58l1.42,-2.5l1.67,-2.25l1.91,-2l2.17,-1.84l2.16,-1.25l2.34,-1l2.41,-0.58l4.09,-0.58l4.08,-0.25l4.17,0.16l4.079,0.5l2.58,0.59l2.5,0.91l1.5,0.75l2.58,1.92l2.17,2.25l1.92,2.5l1.58,2.75l1,2.92l0.67,3l0.33,3l0,3.08l-0.33,3.08l-0.67,3l-1,2.92l-1.33,2.749l-2.17,3.33l-2.42,3.08l-2.75,2.92l-4.5,3.5l-4.659,3.25l-4.92,3l23.329,0l0,12.25l-46.569,-0l0,-12.25l8.16,-5.09l5.75,-3.66l5.58,-3.92l5.42,-4.16l3.17,-2.749l2.909,-3l1.75,-2.84l0.92,-2l0.58,-2l0.25,-2.16l-0.08,-2.08l-0.34,-2.17l-0.66,-1.58Z" style="fill:#010001;fill-rule:nonzero;"/></g><g><g><rect id="path17862" serif:id="path1786" x="172.211" y="141.732" width="41.079" height="94.488" style="fill:#fff;"/><path id="path17882" serif:id="path1788" d="M191.711,212.551l-12.92,-0l0,-47.159l12.92,-0l0,4.67l1.58,-1.59l1.75,-1.33l2,-1.171l2.17,-0.75l2.16,-0.499l2.25,-0.161l3.17,0l-0,12.25l-4.42,-0l-1.83,0.159l-1.83,0.5l-1.67,0.84l-1.58,1.079l-1.25,1.25l-1.079,1.58l-0.84,1.67l-0.5,1.83l-0.083,1.84l0.002,24.992Z" style="fill:#010001;fill-rule:nonzero;"/></g><g><rect id="path17542" serif:id="path1754" x="116.973" y="141.732" width="55.239" height="94.488" style="fill:#fff;"/><path id="path17562" serif:id="path1756" d="M143.302,163.482l-2.59,0.16l-2.5,0.421l-2.5,0.75l-2.41,0.92l-2.25,1.24l-2.34,1.75l-2.08,2.09l-1.83,2.25l-1.499,2.58l-1.171,2.67l-0.161,0.499l-0.839,3.33l-0.5,3.42l-0.17,3.41l0.17,3.42l0.5,3.41l0.839,3.25l0.161,0.591l1.171,2.66l1.499,2.499l1.83,2.34l2.08,2.08l2.34,1.75l2.25,1.16l2.41,1.01l2.5,0.739l2.5,0.421l2.59,0.17l2.58,-0.17l2.58,-0.421l2.5,-0.739l2.42,-1.01l2.25,-1.16l2.33,-1.75l2.08,-2.08l1.84,-2.34l1.5,-2.499l1.16,-2.66l0.17,-0.591l0.83,-3.25l0.5,-3.41l0.094,-3.42l-0.094,-3.41l-0.5,-3.42l-0.83,-3.33l-0.17,-0.499l-1.16,-2.67l-1.5,-2.58l-1.84,-2.25l-2.08,-2.09l-2.33,-1.75l-2.25,-1.24l-2.42,-0.92l-2.5,-0.75l-2.58,-0.421l-2.58,-0.16Zm0,11.33l1.91,0.25l2,0.83l1.75,1.33l1.5,1.59l1.25,1.83l0.67,1.5l0.42,1.58l0.33,2.67l0.082,2.58l-0.082,2.58l-0.33,2.67l-0.42,1.58l-0.67,1.5l-1.25,1.84l-1.5,1.58l-1.75,1.33l-2,0.75l-1.91,0.34l-1.84,-0.34l-2,-0.75l-1.83,-1.33l-1.5,-1.58l-1.17,-1.84l-0.66,-1.5l-0.421,-1.58l-0.329,-2.67l-0.171,-2.58l0.171,-2.58l0.329,-2.67l0.421,-1.58l0.66,-1.5l1.17,-1.83l1.5,-1.59l1.83,-1.33l2,-0.83l1.84,-0.25Z" style="fill:#010001;fill-rule:nonzero;"/></g><g><rect id="path1814" x="78.723" y="141.732" width="38.249" height="94.488" style="fill:#fff;"/><path id="path1816" d="M102.143,165.062l9.16,-0l-0,10.66l-9.16,-0l-0,36.919l-12.92,-0l0,-36.919l-7.58,-0l0,-10.66l7.58,-0l0,-6.92l0.17,-1.91l0.41,-1.92l0.84,-1.75l1,-1.67l1.33,-1.41l1.5,-1.25l1.67,-1l1.83,-0.67l1.92,-0.329l3.66,-0.095l3.67,0.17l3.58,0.421l3.58,0.75l-2.33,10.499l-3,-0.34l-3.17,0l-0.909,0.095l-0.92,0.41l-0.831,0.59l-0.58,0.75l-0.42,0.911l-0.095,1l0.015,3.668Z" style="fill:#010001;fill-rule:nonzero;"/></g></g><g><g><rect id="path18061" serif:id="path1806" x="472.662" y="141.732" width="52.909" height="94.488" style="fill:#fff;"/><path id="path18081" serif:id="path1808" d="M498.161,164.142l-2.42,0.17l-2.409,0.41l-2.34,0.75l-2.25,1.09l-2.08,1.25l-2.25,1.66l-2.08,2l-1.75,2.25l-1.42,2.42l-1.171,3l-0.83,3.17l-0.5,3.16l-0.17,3.249l0.251,3.25l0.59,3.17l0.91,3.08l1.169,3l1.08,2.17l1.42,2l1.5,1.83l1.83,1.67l1.92,1.41l2.079,1.25l2.25,0.92l2.34,0.67l2.99,0.58l3.09,0.25l3.08,-0.083l3.08,-0.34l3,-0.66l2.34,-0.84l2.16,-1.079l2,-1.42l1.83,-1.67l1.67,-1.83l-8,-8.08l-1.83,1.67l-2.08,1.33l-2.25,1l-2.17,0.58l-2.17,0.17l-2.16,-0.082l-2.17,-0.421l-2.08,-0.75l-1.42,-0.92l-1.25,-1.16l-1,-1.34l-0.75,-1.5l-0.41,-1.66l-0.17,-1.67l31.5,0l-0.171,-3.92l-0.42,-3.91l-0.83,-3.829l-1.171,-3.75l-1.079,-2.5l-1.42,-2.25l-1.66,-2.17l-2,-1.83l-2.17,-1.59l-2.08,-1.25l-2.25,-0.91l-2.42,-0.669l-2.42,-0.421l-2.408,-0.075Zm-0.25,10.75l1.66,-0l1.67,0.329l1.58,0.59l1.42,0.83l1.33,1.079l1.09,1.25l0.83,1.42l0.58,1.58l0.251,1.67l-19.16,0l0.25,-1.67l0.58,-1.58l0.84,-1.42l1.08,-1.25l1.33,-1.079l1.42,-0.83l1.58,-0.59l1.669,-0.329Z" style="fill:#010001;fill-rule:nonzero;"/></g><g><rect id="path1746" x="332.335" y="141.732" width="82.658" height="94.488" style="fill:#fff;"/><path id="path1748" d="M403.243,171.722l-1.67,-1.91l-1.92,-1.67l-2.08,-1.42l-2.25,-1.16l-2.41,-0.84l-2.75,-0.499l-2.09,-0.083l-2.079,0.25l-2.08,0.421l-1.92,0.66l-1.92,0.92l-1.75,1.25l-1.58,1.42l-1.42,1.66l-1.16,-1.83l-1.42,-1.5l-1.66,-1.25l-1.92,-0.92l-1.5,-0.5l-2.75,-0.499l-2.42,-0.083l-2.33,0.33l-2.33,0.59l-2.17,0.91l-2.08,1.25l-1.92,1.5l0,-3.33l-12.909,-0l-0,47.159l12.909,-0l0,-28.33l0.17,-1.66l0.661,-1.59l1,-1.5l1.34,-1.25l1.5,-1l2.66,-0.909l1,-0.095l0.92,0.095l0.421,0.082l1.75,0.75l1.25,1.08l1,1.34l0.66,1.58l0.421,1.67l0.083,1.66l-0,28.079l12.919,0l0,-28.329l0.161,-1.66l0.589,-1.59l1.08,-1.5l1.33,-1.25l1.5,-1.001l2.67,-0.909l0.92,-0.095l1,0.095l0.33,0.083l1.75,0.75l1.25,1.079l1.079,1.34l0.67,1.58l0.329,1.67l0.095,1.66l-0,28.079l12.91,0l-12.91,0l12.91,0l-0,-28.159l-0.083,-2.75l-0.499,-2.67l-0.75,-2.58l-1.091,-2.5l-1.416,-2.171Z" style="fill:#010001;fill-rule:nonzero;"/></g><g><rect id="path17422" serif:id="path1742" x="441.912" y="141.732" width="30.749" height="94.488" style="fill:#fff;"/><path id="path17442" serif:id="path1744" d="M468.832,200.971l-2.5,0.33l-2.5,0.094l-0.92,-0.094l-0.75,-0.41l-0.66,-0.67l-0.421,-0.75l-0.17,-0.92l0,-52.069l-12.909,0l-0,57.319l0.16,1.75l0.5,1.67l0.75,1.58l1,1.5l1.25,1.25l1.42,1l1.67,0.67l1.66,0.499l1.75,0.171l4.08,-0.341l4,-0.499l4,-0.75l-1.41,-11.33Z" style="fill:#010001;fill-rule:nonzero;"/></g><g><rect id="path17901" serif:id="path1790" x="414.993" y="141.732" width="26.92" height="94.488" style="fill:#fff;"/><path id="path17921" serif:id="path1792" d="M427.743,145.982l-1.42,0.16l-1.41,0.42l-1.25,0.67l-1.171,0.909l-0.92,1.171l-0.66,1.25l-0.42,1.42l-0.171,1.41l0.171,1.42l0.42,1.42l0.66,1.33l0.92,1.079l1.171,0.92l1.25,0.66l1.41,0.421l1.42,0.17l1.42,-0.17l1.41,-0.421l1.25,-0.66l1.17,-0.92l0.92,-1.079l0.66,-1.33l0.421,-1.42l0.17,-1.42l-0.17,-1.41l-0.421,-1.42l-0.66,-1.25l-0.92,-1.171l-1.17,-0.909l-1.25,-0.67l-1.41,-0.42l-1.42,-0.16Zm-6.5,19.41l-0,47.239l12.92,-0l-0,-47.239l-12.92,-0Z" style="fill:#010001;fill-rule:nonzero;"/></g><g><rect id="path16741" serif:id="path1674" x="525.571" y="141.732" width="48.164" height="94.488" style="fill:#fff;"/><path id="path16761" serif:id="path1676" d="M538.322,198.397l2,1.58l2.16,1.251l2.341,1l2.41,0.67l2.5,0.33l2.25,-0l1.59,-0.581l1.33,-0.919l0.751,-0.75l0.5,-1l0.08,-1.081l-0.25,-1.09l-0.58,-0.91l-0.83,-0.67l-3.25,-1.251l-3.341,-0.67l-3,-0.5l-4.08,-1l-2.001,-0.66l-1.83,-1l-1.67,-1.25l-1.5,-1.42l-1.25,-1.58l-1.08,-1.75l-0.67,-2.091l-0.41,-2.16l-0,-2.17l0.25,-2.16l0.58,-2.17l0.92,-1.921l1.25,-1.83l1.41,-1.58l1.59,-1.42l1.831,-1.17l1.91,-0.911l2.09,-0.59l3,-0.659l3.001,-0.341l3.08,0l3.08,0.25l3.09,0.59l2.5,0.749l2.411,1l2.34,1.33l2.24,1.421l2,1.75l-7.99,8.49l-2.251,-1.83l-2.5,-1.5l-2.67,-1.16l-1.5,-0.419l-1.58,-0.25l-1.59,0l-1.661,0.42l-1.5,0.749l-1.34,1.001l-0.66,0.83l-0.34,0.919l0.09,1.081l0.33,0.91l0.58,0.841l1,0.58l5.501,1.081l5,0.67l1.92,0.33l0.081,-0l1.92,0.67l1.83,0.83l1.84,1.09l1.66,1.41l1.42,1.59l1.16,1.751l0.841,1.91l0.58,2.09l0.33,2.08l-0.083,2.17l-0.33,2.081l-0.67,2.08l-1.08,2.09l-1.34,1.91l-1.581,1.75l-1.83,1.5l-2,1.171l-3.25,1l-3.331,0.66l-3.42,0.34l-3.33,0l-3.42,-0.34l-3.331,-0.66l-3,-0.92l-2.92,-1.25l-2.66,-1.58l-2.501,-1.84l-2.34,-2.16l9.421,-8.671l1.752,1.839Z" style="fill:#010001;fill-rule:nonzero;"/></g></g></g></g></svg>