<?xml version="1.0" encoding="UTF-8" standalone="no"?><!DOCTYPE svg PUBLIC "-//W3C//DTD SVG 1.1//EN" "http://www.w3.org/Graphics/SVG/1.1/DTD/svg11.dtd"><svg width="100%" height="100%" viewBox="0 0 441 272" version="1.1" xmlns="http://www.w3.org/2000/svg" xmlns:xlink="http://www.w3.org/1999/xlink" xml:space="preserve" xmlns:serif="http://www.serif.com/" style="fill-rule:evenodd;clip-rule:evenodd;stroke-linejoin:round;stroke-miterlimit:2;"><g transform="matrix(50,0,0,50,293.592,171.764)"></g><text x="147.669px" y="171.764px" style="font-family:'ArialMT', 'Arial', sans-serif;font-size:50px;">sw=23</text><rect id="_584.1-" serif:id="584.1 " x="0" y="0" width="440.529" height="271.654" style="fill:none;"/><clipPath id="_clip1"><rect x="0" y="0" width="440.529" height="271.654"/></clipPath><g clip-path="url(#_clip1)"><g><path d="M440.529,35.433c-0,-19.556 -15.877,-35.433 -35.433,-35.433l-369.663,0c-19.556,0 -35.433,15.877 -35.433,35.433l0,200.787c0,19.557 15.877,35.434 35.433,35.434l369.663,-0c19.556,-0 35.433,-15.877 35.433,-35.434l-0,-200.787Z"/><path d="M422.812,35.433c0,-9.778 -7.938,-17.716 -17.716,-17.716l-369.663,-0c-9.778,-0 -17.716,7.938 -17.716,17.716l-0,200.787c-0,9.778 7.938,17.717 17.716,17.717l369.663,0c9.778,0 17.716,-7.939 17.716,-17.717l0,-200.787Z" style="fill:#fff;"/><g><g><rect id="path1806" x="181.728" y="47.244" width="52.909" height="94.488" style="fill:#fff;"/><path id="path1808" d="M207.227,69.654l-2.42,0.17l-2.41,0.41l-2.34,0.75l-2.25,1.09l-2.08,1.25l-2.25,1.66l-2.08,2l-1.75,2.25l-1.419,2.42l-1.171,3l-0.83,3.169l-0.5,3.16l-0.17,3.25l0.25,3.25l0.591,3.17l0.909,3.08l1.17,3l1.079,2.17l1.42,2l1.5,1.83l1.83,1.67l1.92,1.41l2.08,1.25l2.25,0.92l2.34,0.67l2.99,0.58l3.09,0.25l3.08,-0.083l3.08,-0.34l3,-0.66l2.34,-0.84l2.16,-1.079l2,-1.42l1.83,-1.67l1.67,-1.83l-8,-8.08l-1.83,1.67l-2.08,1.33l-2.25,1l-2.17,0.58l-2.17,0.17l-2.16,-0.083l-2.17,-0.42l-2.08,-0.75l-1.42,-0.92l-1.25,-1.16l-1,-1.34l-0.75,-1.5l-0.41,-1.66l-0.17,-1.67l31.499,0l-0.17,-3.92l-0.42,-3.91l-0.831,-3.83l-1.17,-3.75l-1.08,-2.5l-1.42,-2.25l-1.66,-2.169l-1.999,-1.83l-2.171,-1.59l-2.079,-1.25l-2.25,-0.91l-2.42,-0.669l-2.42,-0.421l-2.408,-0.075Zm-0.25,10.749l1.66,0l1.67,0.33l1.58,0.589l1.42,0.831l1.33,1.079l1.09,1.25l0.83,1.42l0.58,1.58l0.25,1.67l-19.159,0l0.25,-1.67l0.58,-1.58l0.84,-1.42l1.079,-1.25l1.33,-1.079l1.42,-0.831l1.58,-0.589l1.67,-0.33Z" style="fill:#010001;fill-rule:nonzero;"/></g><g><rect id="path18061" serif:id="path1806" x="292.212" y="47.244" width="52.909" height="94.488" style="fill:#fff;"/><path id="path18081" serif:id="path1808" d="M317.711,69.654l-2.42,0.17l-2.41,0.41l-2.34,0.75l-2.25,1.09l-2.08,1.25l-2.25,1.66l-2.08,2l-1.75,2.25l-1.42,2.42l-1.17,3l-0.83,3.169l-0.5,3.16l-0.17,3.25l0.25,3.25l0.591,3.17l0.909,3.08l1.17,3l1.079,2.17l1.42,2l1.5,1.83l1.83,1.67l1.92,1.41l2.08,1.25l2.25,0.92l2.34,0.67l2.99,0.58l3.09,0.25l3.08,-0.083l3.08,-0.34l3,-0.66l2.34,-0.84l2.16,-1.079l2,-1.42l1.83,-1.67l1.669,-1.83l-7.999,-8.08l-1.83,1.67l-2.08,1.33l-2.25,1l-2.17,0.58l-2.17,0.17l-2.16,-0.083l-2.17,-0.42l-2.08,-0.75l-1.42,-0.92l-1.25,-1.16l-1,-1.34l-0.75,-1.5l-0.41,-1.66l-0.17,-1.67l31.499,0l-0.17,-3.92l-0.42,-3.91l-0.831,-3.83l-1.17,-3.75l-1.08,-2.5l-1.42,-2.25l-1.66,-2.169l-2,-1.83l-2.17,-1.59l-2.079,-1.25l-2.25,-0.91l-2.42,-0.669l-2.42,-0.421l-2.408,-0.075Zm-0.25,10.749l1.66,0l1.67,0.33l1.579,0.589l1.421,0.831l1.329,1.079l1.091,1.25l0.83,1.42l0.58,1.58l0.25,1.67l-19.159,0l0.25,-1.67l0.58,-1.58l0.84,-1.42l1.079,-1.25l1.33,-1.079l1.42,-0.831l1.58,-0.589l1.67,-0.33Z" style="fill:#010001;fill-rule:nonzero;"/></g><g><rect id="path1666" x="124.153" y="47.244" width="57.575" height="94.488" style="fill:#fff;"/><path id="path1668" d="M130.483,70.826l12.921,0l-12.921,0l12.921,0l0,28.163l0.16,1.67l0.34,1.66l0.66,1.5l1,1.42l1.34,1.081l1.751,0.749l1.83,0.251l1.92,-0l1.91,-0.41l1.75,-0.671l1.58,-1l1.25,-1.25l1.09,-1.5l0.581,-1.58l0.17,-1.67l0,-28.413l12.911,0l0,47.244l-12.911,0l0,-3.33l-1.84,1.5l-2.08,1.16l-2.25,0.92l-2.251,0.67l-2.41,0.251l-2.42,-0l-2.75,-0.501l-2.421,-0.84l-2.25,-1.16l-2.16,-1.42l-1.84,-1.67l-1.75,-1.91l-1.41,-2.17l-1,-2.501l-0.751,-2.58l-0.5,-2.75l-0.17,-2.67l0,-28.243Z" style="fill:#010001;fill-rule:nonzero;"/></g><g><rect id="path16661" serif:id="path1666" x="234.637" y="47.244" width="57.575" height="94.488" style="fill:#fff;"/><path id="path16681" serif:id="path1668" d="M240.967,70.826l12.921,0l-12.921,0l12.921,0l0,28.163l0.16,1.67l0.34,1.66l0.66,1.5l1,1.42l1.34,1.081l1.75,0.749l1.831,0.251l1.92,-0l1.91,-0.41l1.75,-0.671l1.58,-1l1.25,-1.25l1.09,-1.5l0.581,-1.58l0.17,-1.67l0,-28.413l12.911,0l0,47.244l-12.911,0l0,-3.33l-1.84,1.5l-2.08,1.16l-2.251,0.92l-2.25,0.67l-2.41,0.251l-2.42,-0l-2.75,-0.501l-2.421,-0.84l-2.25,-1.16l-2.16,-1.42l-1.84,-1.67l-1.75,-1.91l-1.41,-2.17l-1.001,-2.501l-0.75,-2.58l-0.5,-2.75l-0.171,-2.67l0.001,-28.243Z" style="fill:#010001;fill-rule:nonzero;"/></g><g><rect id="path1674" x="345.121" y="47.244" width="48.164" height="94.488" style="fill:#fff;"/><path id="path1676" d="M357.872,103.909l2,1.58l2.16,1.25l2.34,1l2.41,0.671l2.501,0.33l2.25,-0l1.59,-0.581l1.33,-0.92l0.75,-0.749l0.5,-1l0.081,-1.081l-0.25,-1.09l-0.58,-0.91l-0.831,-0.671l-3.25,-1.25l-3.34,-0.67l-3,-0.5l-4.081,-1l-2,-0.66l-1.83,-1l-1.67,-1.25l-1.5,-1.42l-1.25,-1.58l-1.081,-1.751l-0.67,-2.09l-0.41,-2.16l0,-2.17l0.25,-2.16l0.581,-2.171l0.92,-1.92l1.25,-1.83l1.41,-1.58l1.59,-1.42l1.83,-1.171l1.91,-0.91l2.091,-0.59l3,-0.66l3,-0.34l3.08,-0l3.081,0.249l3.09,0.59l2.5,0.75l2.41,1l2.341,1.33l2.24,1.42l2,1.75l-7.991,8.491l-2.25,-1.83l-2.5,-1.5l-2.67,-1.16l-1.501,-0.419l-1.58,-0.25l-1.59,0l-1.66,0.42l-1.5,0.749l-1.34,1l-0.66,0.83l-0.34,0.92l0.09,1.081l0.33,0.91l0.58,0.841l1,0.58l5.5,1.081l5.001,0.67l1.92,0.33l0.08,-0l1.92,0.67l1.831,0.83l1.84,1.09l1.66,1.41l1.42,1.59l1.16,1.75l0.84,1.911l0.581,2.09l0.33,2.08l-0.083,2.17l-0.33,2.08l-0.67,2.08l-1.081,2.091l-1.34,1.91l-1.58,1.75l-1.83,1.5l-2,1.17l-3.251,1.001l-3.33,0.659l-3.42,0.341l-3.331,-0l-3.42,-0.341l-3.33,-0.659l-3,-0.92l-2.921,-1.25l-2.66,-1.58l-2.5,-1.841l-2.34,-2.16l9.42,-8.67l1.753,1.839Z" style="fill:#010001;fill-rule:nonzero;"/></g><g id="Q"><rect id="path1562" x="47.244" y="47.244" width="76.909" height="94.488" style="fill:#fff;"/><path id="path1564" d="M83.243,50.414l-3.329,0.33l-3.25,0.58l-3.25,1.079l-3,1.34l-2.92,1.67l-2.66,1.99l-2.42,2.59l-2.25,2.75l-1.92,3l-1.58,3.16l-1.33,3.34l-0.92,3.41l-0.58,3.5l-0.25,3.499l-0,4.75l0.25,3.58l0.58,3.5l0.92,3.42l1.33,3.33l1.58,3.17l1.92,2.92l2.25,2.83l2.42,2.5l2.66,2l2.92,1.75l3,1.33l3.25,1l3.25,0.67l3.329,0.329l5,0l4.08,-0.42l3.67,7.34l12.58,-6.34l-3.67,-6.25l1.75,-1.41l2.42,-2.5l2.25,-2.83l1.92,-2.92l1.58,-3.17l1.33,-3.33l0.92,-3.42l0.58,-3.5l0.25,-3.579l0,-4.75l-0.25,-3.5l-0.58,-3.5l-0.92,-3.41l-1.33,-3.34l-1.58,-3.16l-1.92,-3l-2.25,-2.75l-2.42,-2.59l-2.66,-1.99l-2.92,-1.67l-3,-1.34l-3.25,-1.079l-3.25,-0.58l-3.33,-0.33l-3.17,0l-1.83,0.001Zm3.17,12.91l2.08,0.082l2,0.421l2,0.58l1.92,0.84l1.75,1.159l1.66,1.34l1.33,1.58l1.26,1.67l0.911,1.83l0.669,2l0.831,3.33l0.42,3.42l0.16,3.5l-0.16,3.41l-0.42,3.42l-0.831,3.42l-0.669,1.91l-0.911,1.84l-1.169,1.66l-1.33,1.5l-4.75,-8l-10.67,5.34l3.58,7.24l-3.08,-0.251l-3,-0.66l-2.92,-1.079l-1.74,-1.091l-1.59,-1.33l-1.42,-1.58l-1.16,-1.67l-1,-1.919l-0.67,-1.91l-0.83,-3.42l-0.42,-3.42l-0.171,-3.41l0.171,-3.5l0.42,-3.42l0.83,-3.33l0.67,-2l1,-1.83l1.16,-1.67l1.42,-1.58l1.59,-1.34l1.74,-1.16l3,-1.09l3.09,-0.58l3.249,-0.252Z" style="fill:#010001;fill-rule:nonzero;"/></g></g><g><g><rect id="path18062" serif:id="path1806" x="209.142" y="141.732" width="52.909" height="94.488" style="fill:#fff;"/><path id="path18082" serif:id="path1808" d="M234.641,164.142l-2.42,0.17l-2.41,0.41l-2.34,0.75l-2.249,1.09l-2.08,1.25l-2.25,1.66l-2.08,2l-1.75,2.25l-1.42,2.42l-1.171,3l-0.83,3.17l-0.5,3.16l-0.17,3.249l0.251,3.25l0.59,3.17l0.91,3.08l1.169,3l1.08,2.17l1.42,2l1.499,1.83l1.83,1.67l1.92,1.41l2.08,1.25l2.25,0.92l2.34,0.67l2.99,0.58l3.09,0.25l3.08,-0.083l3.08,-0.34l3,-0.66l2.34,-0.84l2.16,-1.079l2,-1.42l1.83,-1.67l1.67,-1.83l-8,-8.08l-1.83,1.67l-2.08,1.33l-2.25,1l-2.17,0.58l-2.17,0.17l-2.16,-0.082l-2.17,-0.421l-2.08,-0.75l-1.42,-0.92l-1.25,-1.16l-1,-1.34l-0.75,-1.5l-0.41,-1.66l-0.17,-1.67l31.499,0l-0.17,-3.92l-0.42,-3.91l-0.83,-3.829l-1.171,-3.75l-1.079,-2.5l-1.42,-2.25l-1.66,-2.17l-2,-1.83l-2.17,-1.59l-2.08,-1.25l-2.25,-0.91l-2.42,-0.669l-2.42,-0.421l-2.408,-0.075Zm-0.25,10.75l1.66,-0l1.67,0.329l1.58,0.59l1.42,0.83l1.33,1.079l1.09,1.25l0.83,1.42l0.58,1.58l0.251,1.67l-19.16,0l0.25,-1.67l0.58,-1.58l0.84,-1.42l1.08,-1.25l1.329,-1.079l1.421,-0.83l1.579,-0.59l1.67,-0.329Z" style="fill:#010001;fill-rule:nonzero;"/></g><g><rect id="path1742" x="96.734" y="141.732" width="30.749" height="94.488" style="fill:#fff;"/><path id="path1744" d="M123.653,200.971l-2.5,0.33l-2.499,0.094l-0.921,-0.094l-0.75,-0.41l-0.66,-0.67l-0.42,-0.75l-0.17,-0.92l-0,-52.069l-12.91,0l0,57.319l0.161,1.75l0.499,1.67l0.75,1.58l1.001,1.5l1.25,1.25l1.42,1l1.67,0.67l1.66,0.499l1.75,0.171l4.079,-0.341l4,-0.499l4,-0.75l-1.41,-11.33Z" style="fill:#010001;fill-rule:nonzero;"/></g><g><rect id="path17421" serif:id="path1742" x="262.051" y="141.732" width="30.749" height="94.488" style="fill:#fff;"/><path id="path17441" serif:id="path1744" d="M288.97,200.971l-2.5,0.33l-2.5,0.094l-0.92,-0.094l-0.75,-0.41l-0.66,-0.67l-0.42,-0.75l-0.17,-0.92l-0,-52.069l-12.91,0l-0,57.319l0.161,1.75l0.499,1.67l0.75,1.58l1.001,1.5l1.249,1.25l1.421,1l1.669,0.67l1.66,0.499l1.75,0.171l4.08,-0.341l4,-0.499l4,-0.75l-1.41,-11.33Z" style="fill:#010001;fill-rule:nonzero;"/></g><g><rect id="path1738" x="154.403" y="141.732" width="54.739" height="94.488" style="fill:#fff;"/><path id="path1740" d="M190.402,212.551l-11.75,-18.41l-5.08,5.25l0,13.16l-12.919,-0l-0,-66.069l12.919,0l0,35.41l16.41,-16.5l17.25,-0l-19.25,19.419l17.66,27.74l-15.24,-0Z" style="fill:#010001;fill-rule:nonzero;"/></g><g><rect id="path1762" x="292.8" y="141.732" width="50.995" height="94.488" style="fill:#fff;"/><path id="path1764" d="M306.712,227.89l-4.581,-0.41l-4.5,-0.75l1.58,-11.341l6.67,0.92l1.081,-0.083l1,-0.34l1,-0.581l0.751,-0.749l0.5,-0.92l0.341,-1.081l-0,-1.079l-0.171,-1.09l-16.161,-45.074l12.991,0l10.251,28.583l10.251,-28.583l13.081,0l-20.082,55.995l-0.75,1.58l-1.001,1.5l-1.25,1.25l-1.41,1l-1.59,0.75l-1.75,0.42l-1.75,0.17l-4.501,-0.087Z" style="fill:#010001;fill-rule:nonzero;"/></g><g><rect id="path1790" x="127.483" y="141.732" width="26.92" height="94.488" style="fill:#fff;"/><path id="path1792" d="M140.233,145.982l-1.42,0.16l-1.41,0.42l-1.25,0.67l-1.17,0.909l-0.92,1.171l-0.661,1.25l-0.42,1.42l-0.17,1.41l0.17,1.42l0.42,1.42l0.661,1.33l0.92,1.079l1.17,0.92l1.25,0.66l1.41,0.421l1.42,0.17l1.42,-0.17l1.41,-0.421l1.25,-0.66l1.171,-0.92l0.92,-1.079l0.66,-1.33l0.42,-1.42l0.17,-1.42l-0.17,-1.41l-0.42,-1.42l-0.66,-1.25l-0.92,-1.171l-1.171,-0.909l-1.25,-0.67l-1.41,-0.42l-1.42,-0.16Zm-6.5,19.41l0,47.239l12.92,-0l0,-47.239l-12.92,-0Z" style="fill:#010001;fill-rule:nonzero;"/></g></g></g></g></svg>