<?xml version="1.0" encoding="UTF-8" standalone="no"?><!DOCTYPE svg PUBLIC "-//W3C//DTD SVG 1.1//EN" "http://www.w3.org/Graphics/SVG/1.1/DTD/svg11.dtd"><svg width="100%" height="100%" viewBox="0 0 514 454" version="1.1" xmlns="http://www.w3.org/2000/svg" xmlns:xlink="http://www.w3.org/1999/xlink" xml:space="preserve" xmlns:serif="http://www.serif.com/" style="fill-rule:evenodd;clip-rule:evenodd;stroke-linejoin:round;stroke-miterlimit:2;"><g transform="matrix(50,0,0,50,350.907,244.423)"></g><text x="163.285px" y="244.423px" style="font-family:'ArialMT', 'Arial', sans-serif;font-size:50px;">sw=38.4</text><g id="_584-Queues-Likely" serif:id="584 Queues Likely"><path d="M227.201,17.004c6.077,-10.522 17.305,-17.004 29.455,-17.004c12.151,0 23.379,6.482 29.456,17.004c54.07,93.625 168.562,291.872 222.642,385.514c6.078,10.524 6.079,23.491 0.003,34.016c-6.076,10.525 -17.306,17.009 -29.459,17.009l-445.283,0c-12.153,0 -23.383,-6.484 -29.459,-17.009c-6.076,-10.525 -6.075,-23.492 0.003,-34.016c54.08,-93.642 168.572,-291.889 222.642,-385.514Z" style="fill:#e31837;"/><path d="M256.621,56.706l202.954,351.484l-405.907,0l202.953,-351.484Z" style="fill:#fff;"/><path d="M225.28,320.689l1.407,8.834c4.485,0.374 7.935,4.124 7.935,8.626l0.047,0.024l0,24.306l-0.047,-0.023c0,3.093 -1.65,5.951 -4.328,7.497l0.012,19.224c-2.194,2.477 -5.345,3.896 -8.656,3.896c-3.31,-0 -6.461,-1.419 -8.655,-3.896l-0,-17.782l-11.541,0.703l-11.541,0.47l-11.541,0.281l-11.541,-0.281l-11.541,-0.47l-11.541,-0.703l-0,17.783l-0.029,-0.021c-2.195,2.489 -5.355,3.916 -8.674,3.916c-3.31,-0 -6.461,-1.419 -8.655,-3.896l0.012,-19.224c-2.672,-1.542 -4.32,-4.39 -4.329,-7.474l0,-0.023l0,-24.306c0,-4.502 3.45,-8.252 7.935,-8.627l4.498,-28.231l-0.008,0.002c1.118,-7.003 7.157,-12.155 14.246,-12.155l12.305,0l-0,-2.956c-0,-4.501 3.449,-8.252 7.934,-8.627l4.498,-28.231l-0.007,0.002c1.117,-7.002 7.156,-12.155 14.245,-12.155l29.627,0l-0,-2.956c-0,-4.501 3.449,-8.252 7.934,-8.627l4.498,-28.23l-0.007,0.001c1.117,-7.002 7.156,-12.154 14.246,-12.154l59.206,-0l0.023,-0c7.079,0.011 13.106,5.159 14.222,12.153l-0.007,-0l4.497,28.23c4.485,0.375 7.935,4.125 7.936,8.627l0.047,0.024l-0,24.306l-0.047,-0.024c-0,3.093 -1.65,5.951 -4.328,7.498l0.012,19.223c-2.195,2.478 -5.346,3.896 -8.656,3.896c-3.31,0 -6.461,-1.418 -8.656,-3.896l0,-17.782l-11.541,0.704l-11.541,0.469l-11.541,0.282l-9.395,-0.23l1.413,8.87c4.485,0.375 7.935,4.125 7.935,8.626l0.047,0.025l0,24.306l-0.047,-0.024c0,3.093 -1.65,5.951 -4.328,7.498l0.012,19.223c-2.194,2.477 -5.345,3.896 -8.656,3.896c-3.31,0 -6.461,-1.419 -8.655,-3.896l-0,-17.782l-11.541,0.704l-11.541,0.469l-3.608,0.088Zm-57.464,-22.916l-18.062,1.079l-0.008,0.015c-5.704,0.742 -10.238,5.152 -11.138,10.834l-1.356,8.116c-0.278,1.753 0.263,3.537 1.468,4.841c1.205,1.303 2.941,1.983 4.711,1.843l0.036,-0.029l17.453,-0.61l17.452,-0.469l17.452,0.469l17.452,0.61l-0.01,0.029c1.769,0.14 3.505,-0.54 4.71,-1.843c0.496,-0.537 0.88,-1.155 1.14,-1.819c0.372,-0.949 0.492,-1.991 0.328,-3.022l-0.022,-0.008l-1.267,-8.071l-0.066,-0.038c-0.901,-5.682 -5.436,-10.092 -11.14,-10.833l0.041,-0.015l-18.062,-1.079l-21.112,0Zm60.087,-51.967l-21.112,0l-18.062,1.079l-0.008,0.015c-5.703,0.742 -10.238,5.152 -11.138,10.834l-1.356,8.116c-0.278,1.753 0.264,3.537 1.469,4.841c1.205,1.304 2.94,1.983 4.71,1.843l0.037,-0.029l17.452,-0.61l17.452,-0.469l17.452,0.469l17.452,0.61l-0.01,0.029c1.769,0.14 3.505,-0.539 4.71,-1.843c0.594,-0.642 1.026,-1.4 1.279,-2.214c0.261,-0.839 0.33,-1.737 0.189,-2.627l-0.022,-0.008l-1.267,-8.07l-0.066,-0.039c-0.901,-5.682 -5.436,-10.092 -11.14,-10.833l0.041,-0.015l-18.062,-1.079Zm85.525,-40.001l-0.067,-0.039c-0.901,-5.682 -5.436,-10.092 -11.14,-10.833l0.041,-0.014l-18.062,-1.08l-21.112,0l-18.062,1.08l-0.007,0.014c-5.704,0.742 -10.238,5.152 -11.139,10.834l-1.355,8.116c-0.278,1.753 0.263,3.538 1.468,4.841c1.205,1.304 2.941,1.983 4.71,1.843l0.037,-0.029l17.452,-0.61l17.452,-0.469l17.452,0.469l17.453,0.61l-0.011,0.029c1.77,0.14 3.506,-0.539 4.711,-1.843c1.205,-1.303 1.746,-3.088 1.468,-4.841l-0.023,-0.008l-1.266,-8.07Z"/></g></svg>