<?xml version="1.0" encoding="UTF-8" standalone="no"?><!DOCTYPE svg PUBLIC "-//W3C//DTD SVG 1.1//EN" "http://www.w3.org/Graphics/SVG/1.1/DTD/svg11.dtd"><svg width="100%" height="100%" viewBox="0 0 612 726" version="1.1" xmlns="http://www.w3.org/2000/svg" xmlns:xlink="http://www.w3.org/1999/xlink" xml:space="preserve" xmlns:serif="http://www.serif.com/" style="fill-rule:evenodd;clip-rule:evenodd;stroke-linejoin:round;stroke-miterlimit:2;"><g id="scale-value" transform="matrix(50,0,0,50,400.038,380.262)"></g><text x="212.416px" y="380.262px" style="font-family:'ArialMT', 'Arial', sans-serif;font-size:50px;">sw=61.4</text><g><path d="M611.575,35.433l-0,654.331c-0,19.556 -15.877,35.433 -35.433,35.433l-540.709,-0c-19.556,-0 -35.433,-15.877 -35.433,-35.433l-0,-654.331c-0,-19.556 15.877,-35.433 35.433,-35.433l540.709,0c19.556,0 35.433,15.877 35.433,35.433Z"/><path d="M593.858,35.433l0,654.331c0,9.778 -7.938,17.716 -17.716,17.716l-540.709,0c-9.778,0 -17.716,-7.938 -17.716,-17.716l-0,-654.331c-0,-9.778 7.938,-17.716 17.716,-17.716l540.709,-0c9.778,-0 17.716,7.938 17.716,17.716Z" style="fill:#fff;"/><clipPath id="_clip1"><rect id="P563---P773.afdesign" serif:id="P563 &amp; P773.afdesign" x="50.669" y="47.244" width="510.236" height="302.362"/></clipPath><g clip-path="url(#_clip1)"><rect id="Wig-Wag" serif:id="Wig Wag" x="50.669" y="47.244" width="510.236" height="302.362" style="fill:none;"/><clipPath id="_clip2"><rect x="50.669" y="47.244" width="510.236" height="302.362"/></clipPath><g clip-path="url(#_clip2)"><g><path d="M560.906,62.598c-0,-8.474 -6.881,-15.354 -15.355,-15.354l-479.527,0c-8.475,0 -15.355,6.88 -15.355,15.354l0,271.654c0,8.474 6.88,15.354 15.355,15.354l479.527,0c8.474,0 15.355,-6.88 15.355,-15.354l-0,-271.654Z"/><circle cx="305.787" cy="261.024" r="53.15" style="fill:#fff;"/><circle cx="305.787" cy="261.024" r="49.016" style="fill:#ffd200;"/><circle cx="453.425" cy="144.094" r="56.693" style="fill:#fff;"/><circle cx="453.425" cy="144.094" r="50.787" style="fill:#e31837;"/><circle cx="158.15" cy="144.094" r="56.693" style="fill:#fff;"/><circle cx="158.15" cy="144.094" r="50.787" style="fill:#e31837;"/></g></g></g><clipPath id="_clip3"><rect id="P563---P773.afdesign1" serif:id="P563 &amp; P773.afdesign" x="47.244" y="387.402" width="517.087" height="302.362"/></clipPath><g clip-path="url(#_clip3)"><rect id="STOP-when-lights-show" serif:id="STOP when lights show" x="47.244" y="387.402" width="517.087" height="302.362" style="fill:none;"/><clipPath id="_clip4"><rect x="47.244" y="387.402" width="517.087" height="302.362"/></clipPath><g clip-path="url(#_clip4)"><g><g><rect x="230.953" y="387.402" width="66.898" height="113.386" style="fill:#fff;"/><g transform="matrix(1,0,0,0.975357,0,-56.2435)"><g transform="matrix(104.327,0,0,104.327,297.786,542.042)"></g><text x="231.121px" y="542.042px" style="font-family:'TransportNew-Heavy', 'Transport New';font-weight:900;font-size:104.327px;">T</text></g></g><g><rect x="148.181" y="387.402" width="82.772" height="113.386" style="fill:#fff;"/><g transform="matrix(1,0,0,0.975357,0,-53.7703)"><g transform="matrix(100.464,0,0,100.464,227.894,537.799)"></g><text x="152.747px" y="537.799px" style="font-family:'TransportNew-Heavy', 'Transport New';font-weight:900;font-size:100.464px;">S</text></g></g><g><rect x="387.425" y="387.402" width="75.969" height="113.386" style="fill:#fff;"/><g transform="matrix(1,0,0,0.975357,0,-56.2435)"><g transform="matrix(104.327,0,0,104.327,463.689,542.042)"></g><text x="392.225px" y="542.042px" style="font-family:'TransportNew-Heavy', 'Transport New';font-weight:900;font-size:104.327px;">P</text></g></g><g><rect x="297.85" y="387.402" width="89.575" height="113.386" style="fill:#fff;"/><g transform="matrix(1,0,0,0.975357,-9.09495e-13,-53.6896)"><g transform="matrix(100.34,0,0,100.34,384.831,537.718)"></g><text x="300.445px" y="537.718px" style="font-family:'TransportNew-Heavy', 'Transport New';font-weight:900;font-size:100.34px;">O</text></g></g></g><g><g><g><rect id="path1698" x="214.488" y="595.276" width="39.685" height="94.488" style="fill:#fff;"/><g transform="matrix(82.2658,0,0,82.2658,253.005,664.453)"></g><text x="216.068px" y="664.453px" style="font-family:'TransportNew-Heavy', 'Transport New';font-weight:900;font-size:82.266px;">t</text></g><g><rect id="path16981" serif:id="path1698" x="77.008" y="595.276" width="25.984" height="94.488" style="fill:#fff;"/><g transform="matrix(83.1971,0,0,83.1971,102.032,666.142)"></g><text x="76.408px" y="666.142px" style="font-family:'TransportNew-Heavy', 'Transport New';font-weight:900;font-size:83.197px;">i</text></g><g><rect id="path16982" serif:id="path1698" x="158.268" y="595.276" width="56.22" height="94.488" style="fill:#fff;"/><g transform="matrix(84.7971,0,0,84.7971,212.368,666.142)"></g><text x="159.879px" y="666.142px" style="font-family:'TransportNew-Heavy', 'Transport New';font-weight:900;font-size:84.797px;">h</text></g><g><rect id="path16983" serif:id="path1698" x="102.992" y="595.276" width="55.276" height="94.488" style="fill:#fff;"/><g transform="matrix(80.8765,0,0,80.8765,155.11,666.13)"></g><text x="104.481px" y="666.13px" style="font-family:'TransportNew-Heavy', 'Transport New';font-weight:900;font-size:80.877px;">g</text></g><g><rect id="path16984" serif:id="path1698" x="254.173" y="595.276" width="47.244" height="94.488" style="fill:#fff;"/><g transform="matrix(78.4786,0,0,78.4786,300.436,664.787)"></g><text x="255.547px" y="664.787px" style="font-family:'TransportNew-Heavy', 'Transport New';font-weight:900;font-size:78.479px;">s</text></g><g><rect id="path16985" serif:id="path1698" x="47.244" y="595.276" width="29.764" height="94.488" style="fill:#fff;"/><g transform="matrix(82.9884,0,0,82.9884,77.0716,664.731)"></g><text x="47.03px" y="664.731px" style="font-family:'TransportNew-Heavy', 'Transport New';font-weight:900;font-size:82.988px;">l</text></g></g><g><g><rect id="path16986" serif:id="path1698" x="378.189" y="595.276" width="56.22" height="94.488" style="fill:#fff;"/><g transform="matrix(84.7971,0,0,84.7971,432.29,666.142)"></g><text x="379.8px" y="666.142px" style="font-family:'TransportNew-Heavy', 'Transport New';font-weight:900;font-size:84.797px;">h</text></g><g><rect id="path16987" serif:id="path1698" x="488.74" y="595.276" width="75.591" height="94.488" style="fill:#fff;"/><g transform="matrix(1,0,0,0.999345,-4.54747e-13,-1.03926)"><g transform="matrix(83.2308,0,0,83.2308,559.352,667.619)"></g><text x="489.687px" y="667.619px" style="font-family:'TransportNew-Heavy', 'Transport New';font-weight:900;font-size:83.231px;">w</text></g></g><g><rect id="path16988" serif:id="path1698" x="330.945" y="595.276" width="47.244" height="94.488" style="fill:#fff;"/><g transform="matrix(78.4786,0,0,78.4786,377.208,664.787)"></g><text x="332.318px" y="664.787px" style="font-family:'TransportNew-Heavy', 'Transport New';font-weight:900;font-size:78.479px;">s</text></g><g><rect id="path16989" serif:id="path1698" x="434.409" y="595.276" width="54.331" height="94.488" style="fill:#fff;"/><g transform="matrix(78.4786,0,0,78.4786,487.159,664.808)"></g><text x="435.991px" y="664.808px" style="font-family:'TransportNew-Heavy', 'Transport New';font-weight:900;font-size:78.479px;">o</text></g></g></g><g><g><rect id="path169810" serif:id="path1698" x="261.378" y="500.787" width="56.22" height="94.488" style="fill:#fff;"/><g transform="matrix(84.7971,0,0,84.7971,315.478,571.654)"></g><text x="262.989px" y="571.654px" style="font-family:'TransportNew-Heavy', 'Transport New';font-weight:900;font-size:84.797px;">h</text></g><g><rect id="path169811" serif:id="path1698" x="185.787" y="500.787" width="75.591" height="94.488" style="fill:#fff;"/><g transform="matrix(1,0,0,0.999345,0,-1.10119)"><g transform="matrix(83.2308,0,0,83.2308,256.399,573.13)"></g><text x="186.735px" y="573.13px" style="font-family:'TransportNew-Heavy', 'Transport New';font-weight:900;font-size:83.231px;">w</text></g></g><g><rect id="path169812" serif:id="path1698" x="369.567" y="500.787" width="56.22" height="94.488" style="fill:#fff;"/><g transform="matrix(83.4255,0,0,83.4255,423.456,571.654)"></g><text x="371.398px" y="571.654px" style="font-family:'TransportNew-Heavy', 'Transport New';font-weight:900;font-size:83.425px;">n</text></g><g><rect id="path169813" serif:id="path1698" x="317.598" y="500.787" width="51.969" height="94.488" style="fill:#fff;"/><path d="M365.242,550l-0.158,1.969l-30.472,-0c0.052,1.259 0.367,2.427 0.945,3.503c0.577,1.077 1.338,2.021 2.283,2.835c0.945,0.814 2.034,1.444 3.268,1.89c1.233,0.446 2.532,0.669 3.897,0.669c3.937,0 7.323,-1.312 10.158,-3.937l6.614,8.11c-2.257,2.153 -4.738,3.793 -7.441,4.922c-2.703,1.128 -5.787,1.693 -9.252,1.693c-3.727,-0 -7.034,-0.617 -9.921,-1.851c-2.887,-1.233 -5.315,-2.939 -7.284,-5.118c-1.968,-2.178 -3.464,-4.711 -4.488,-7.598c-1.023,-2.888 -1.535,-5.985 -1.535,-9.292c-0,-3.202 0.485,-6.233 1.456,-9.094c0.972,-2.861 2.376,-5.341 4.213,-7.441c1.837,-2.1 4.121,-3.767 6.85,-5c2.73,-1.234 5.827,-1.851 9.292,-1.851c3.832,0 7.165,0.683 10,2.048c2.834,1.365 5.144,3.202 6.929,5.512c1.785,2.309 3.058,5.026 3.819,8.149c0.761,3.123 1.037,6.417 0.827,9.882Zm-12.363,-6.85c0,-2.415 -0.879,-4.397 -2.637,-5.945c-1.759,-1.549 -3.924,-2.323 -6.497,-2.323c-2.467,-0 -4.514,0.827 -6.141,2.48c-1.628,1.654 -2.572,3.583 -2.835,5.788l18.11,-0Z" style="fill-rule:nonzero;"/></g></g></g></g></g></svg>