<?xml version="1.0" encoding="UTF-8" standalone="no"?><!DOCTYPE svg PUBLIC "-//W3C//DTD SVG 1.1//EN" "http://www.w3.org/Graphics/SVG/1.1/DTD/svg11.dtd"><svg width="100%" height="100%" viewBox="0 0 626 892" version="1.1" xmlns="http://www.w3.org/2000/svg" xmlns:xlink="http://www.w3.org/1999/xlink" xml:space="preserve" xmlns:serif="http://www.serif.com/" style="fill-rule:evenodd;clip-rule:evenodd;stroke-linejoin:round;stroke-miterlimit:2;"><g transform="matrix(50,0,0,50,407.035,409.823)"></g><text x="219.413px" y="409.823px" style="font-family:'ArialMT', 'Arial', sans-serif;font-size:50px;">sw=75.5</text><g id="_817.2-A-Escape-Lane" serif:id="817.2 A Escape Lane"><path d="M625.984,35.433l0,820.866c0,19.556 -15.877,35.433 -35.433,35.433l-555.118,0c-19.556,0 -35.433,-15.877 -35.433,-35.433l0,-820.866c0,-19.556 15.877,-35.433 35.433,-35.433l555.118,0c19.556,0 35.433,15.877 35.433,35.433Z" style="fill:#fff;"/><path d="M625.984,35.433l0,820.866c0,19.556 -15.877,35.433 -35.433,35.433l-555.118,0c-19.556,0 -35.433,-15.877 -35.433,-35.433l0,-820.866c0,-19.556 15.877,-35.433 35.433,-35.433l555.118,0c19.556,0 35.433,15.877 35.433,35.433Zm-1.181,0c0,-18.904 -15.348,-34.252 -34.252,-34.252l-555.118,0c-18.904,0 -34.252,15.348 -34.252,34.252l0,820.866c0,18.904 15.348,34.252 34.252,34.252l555.118,0c18.904,0 34.252,-15.348 34.252,-34.252l0,-820.866Z" style="fill:#0079c1;"/><path d="M608.268,35.433l-0,820.866c-0,9.778 -7.939,17.717 -17.717,17.717l-555.118,-0c-9.778,-0 -17.716,-7.939 -17.716,-17.717l-0,-820.866c-0,-9.778 7.938,-17.716 17.716,-17.716l555.118,-0c9.778,-0 17.717,7.938 17.717,17.716Z" style="fill:#0079c1;"/><g><path d="M159.106,259.843l-41.339,-0l0,-212.599l41.339,0l59.055,0l41.338,0l0,212.599l-41.338,-0l-0,165.354l208.227,-360.66l64.537,-17.293l17.292,64.537c0,-0 -145.667,252.303 -216.646,375.242c-24.879,43.092 -37.977,91.974 -37.977,141.732l-0,9.04l-94.488,0l-0,-377.952Z" style="fill:#fff;"/><g><circle cx="135.483" cy="64.961" r="7.087"/><circle cx="153.2" cy="82.677" r="7.087"/><circle cx="153.2" cy="118.11" r="7.087"/><circle cx="153.2" cy="153.543" r="7.087"/><circle cx="153.2" cy="188.976" r="7.087"/><circle cx="153.2" cy="224.409" r="7.087"/><circle cx="170.916" cy="64.961" r="7.087"/><circle cx="188.633" cy="82.677" r="7.087"/><circle cx="188.633" cy="118.11" r="7.087"/><circle cx="188.633" cy="153.543" r="7.087"/><circle cx="188.633" cy="188.976" r="7.087"/><circle cx="188.633" cy="224.409" r="7.087"/><circle cx="206.349" cy="64.961" r="7.087"/><circle cx="224.066" cy="82.677" r="7.087"/><circle cx="224.066" cy="118.11" r="7.087"/><circle cx="224.066" cy="153.543" r="7.087"/><circle cx="224.066" cy="188.976" r="7.087"/><circle cx="224.066" cy="224.409" r="7.087"/><circle cx="241.782" cy="64.961" r="7.087"/><circle cx="135.483" cy="100.394" r="7.087"/><circle cx="135.483" cy="135.827" r="7.087"/><circle cx="135.483" cy="171.26" r="7.087"/><circle cx="135.483" cy="206.693" r="7.087"/><circle cx="135.483" cy="242.126" r="7.087"/><circle cx="170.916" cy="100.394" r="7.087"/><circle cx="170.916" cy="135.827" r="7.087"/><circle cx="170.916" cy="171.26" r="7.087"/><circle cx="170.916" cy="206.693" r="7.087"/><circle cx="170.916" cy="242.126" r="7.087"/><circle cx="206.349" cy="100.394" r="7.087"/><circle cx="206.349" cy="135.827" r="7.087"/><circle cx="206.349" cy="171.26" r="7.087"/><circle cx="206.349" cy="206.693" r="7.087"/><circle cx="206.349" cy="242.126" r="7.087"/><circle cx="241.782" cy="100.394" r="7.087"/><circle cx="241.782" cy="135.827" r="7.087"/><circle cx="241.782" cy="171.26" r="7.087"/><circle cx="241.782" cy="206.693" r="7.087"/><circle cx="241.782" cy="242.126" r="7.087"/></g></g><g><g><g><rect x="46.89" y="667.323" width="62.362" height="94.488" style="fill:#0079c1;"/><path d="M102.124,728.049l-31.883,-0l-0,-18.147l27.389,0l0,-10.175l-27.389,-0l-0,-17.469l30.018,0l-0,-10.175l-41.381,-0l-0,66.141l43.246,0l0,-10.175Z" style="fill:#fff;fill-rule:nonzero;"/></g><g><rect x="203.74" y="667.323" width="52.441" height="94.488" style="fill:#0079c1;"/><path d="M234.92,723.797c-0,3.52 -2.894,5.944 -8.526,5.944c-3.598,0 -7.587,-1.955 -7.587,-6.022c-0,-5.554 5.006,-6.18 9.151,-6.571c1.877,-0.156 5.006,-0.391 6.962,-0.469l-0,7.118Zm14.001,6.961c-2.894,-1.095 -3.989,-2.972 -3.989,-6.257l-0,-16.974c-0,-11.107 -5.632,-16.582 -16.27,-16.582c-6.101,-0 -11.654,1.408 -17.286,4.693l3.676,8.057c4.146,-2.503 8.291,-3.599 12.828,-3.599c5.006,0 7.118,2.269 7.118,6.884l-0,1.799c-2.738,0.156 -7.431,0.547 -9.934,0.782c-4.38,0.391 -16.426,1.721 -16.426,14.861c0,8.917 7.353,13.532 15.879,13.532c5.788,0 9.777,-1.955 12.515,-4.38c1.486,2.66 3.989,4.302 7.352,4.615l4.537,-7.431Z" style="fill:#fff;fill-rule:nonzero;"/></g><g><rect x="155.079" y="667.323" width="48.661" height="94.488" style="fill:#0079c1;"/><path d="M199.147,702.874c-3.61,-7.456 -9.888,-11.929 -18.443,-11.929c-14.283,-0 -21.032,11.693 -21.032,23.622c0,13.263 7.456,23.622 21.425,23.622c8.162,-0 14.126,-5.023 17.971,-11.85l-8.318,-4.16c-1.727,4.003 -5.337,6.985 -9.889,6.985c-7.298,-0 -10.908,-7.299 -10.908,-14.44c-0,-6.985 3.139,-14.754 10.673,-14.754c4.866,-0 7.848,2.904 9.967,7.063l8.554,-4.159Z" style="fill:#fff;fill-rule:nonzero;"/></g><g><rect x="311.929" y="667.323" width="51.496" height="94.488" style="fill:#0079c1;"/><path d="M326.706,710.433c-0,-6.035 4.299,-11.244 10.582,-11.244c6.366,-0 10.996,4.547 10.831,11.244l-21.413,0Zm31.996,6.201c0.661,-14.965 -6.201,-26.87 -21.414,-26.87c-13.724,-0 -21.661,10.748 -21.661,24.555c-0,14.055 8.268,25.051 23.15,25.051c6.531,0 12.566,-2.48 16.948,-6.697l-5.952,-7.11c-3.225,2.976 -6.615,4.299 -11.079,4.299c-6.945,0 -11.492,-4.712 -11.823,-11.327l31.748,0l0.083,-1.901Z" style="fill:#fff;fill-rule:nonzero;"/></g><g><rect x="256.181" y="667.323" width="55.748" height="94.488" style="fill:#0079c1;"/><path d="M295.064,714.952c0,8.654 -4.369,15.679 -12.594,15.679c-4.369,0 -9.767,-3.341 -9.767,-8.824l0,-12.595c0,-5.74 4.884,-8.91 10.024,-8.91c7.968,-0 12.337,7.539 12.337,14.65Zm11.224,0c-0,-12.937 -7.539,-25.188 -21.333,-25.188c-4.969,-0 -9.082,1.628 -12.166,4.798l-0,-3.427l-10.967,-0l0,64.771l10.967,-0l-0,-19.62c3.17,3.255 7.454,4.969 12.166,4.969c13.108,-0 21.333,-11.823 21.333,-26.303Z" style="fill:#fff;fill-rule:nonzero;"/></g><g><rect x="109.252" y="667.323" width="45.827" height="94.488" style="fill:#0079c1;"/><path d="M150.261,724.785c-0,-8.735 -6.18,-12.113 -12.772,-13.844l-8.57,-2.142c-4.285,-1.071 -5.109,-2.884 -5.109,-4.45c-0,-3.214 3.296,-5.109 7.993,-5.109c4.285,0 8.322,1.895 11.207,3.873l6.345,-7.169c-5.109,-4.12 -11.537,-6.18 -18.211,-6.18c-9.23,-0 -18.459,5.026 -18.459,15.162c0,7.663 5.851,11.701 11.784,13.102l8.158,2.06c3.79,0.989 6.427,2.637 6.427,4.944c0,3.379 -2.884,4.779 -7.746,4.779c-3.79,0 -9.146,-1.4 -13.102,-4.861l-6.592,7.498c5.521,4.862 12.196,6.922 19.447,6.922c9.806,0 19.2,-4.532 19.2,-14.585Z" style="fill:#fff;fill-rule:nonzero;"/></g></g><g><g><rect x="422.244" y="667.323" width="52.441" height="94.488" style="fill:#0079c1;"/><path d="M453.424,723.797c-0,3.52 -2.894,5.944 -8.526,5.944c-3.598,0 -7.587,-1.955 -7.587,-6.022c-0,-5.554 5.006,-6.18 9.151,-6.571c1.877,-0.156 5.006,-0.391 6.962,-0.469l-0,7.118Zm14.001,6.961c-2.894,-1.095 -3.989,-2.972 -3.989,-6.257l-0,-16.974c-0,-11.107 -5.632,-16.582 -16.27,-16.582c-6.101,-0 -11.654,1.408 -17.286,4.693l3.676,8.057c4.146,-2.503 8.291,-3.599 12.828,-3.599c5.006,0 7.118,2.269 7.118,6.884l-0,1.799c-2.738,0.156 -7.431,0.547 -9.934,0.782c-4.38,0.391 -16.426,1.721 -16.426,14.861c0,8.917 7.353,13.532 15.879,13.532c5.788,0 9.777,-1.955 12.515,-4.38c1.486,2.66 3.989,4.302 7.352,4.615l4.537,-7.431Z" style="fill:#fff;fill-rule:nonzero;"/></g><g><rect x="527.598" y="667.323" width="51.496" height="94.488" style="fill:#0079c1;"/><path d="M542.375,710.433c-0,-6.035 4.299,-11.244 10.583,-11.244c6.366,-0 10.996,4.547 10.83,11.244l-21.413,0Zm31.996,6.201c0.661,-14.965 -6.201,-26.87 -21.413,-26.87c-13.725,-0 -21.662,10.748 -21.662,24.555c0,14.055 8.268,25.051 23.15,25.051c6.531,0 12.567,-2.48 16.949,-6.697l-5.953,-7.11c-3.225,2.976 -6.614,4.299 -11.079,4.299c-6.945,0 -11.492,-4.712 -11.823,-11.327l31.748,0l0.083,-1.901Z" style="fill:#fff;fill-rule:nonzero;"/></g><g><rect x="392.953" y="667.323" width="29.291" height="94.488" style="fill:#0079c1;"/><path d="M419.464,728.727c-1.859,0.507 -2.957,0.676 -4.731,0.676c-3.21,-0 -4.815,-1.605 -4.815,-5.153l0,-52.203l-10.727,0l-0,53.723c-0,8.447 3.716,13.6 13.093,13.6c2.956,0 5.575,-0.422 8.447,-1.183l-1.267,-9.46Z" style="fill:#fff;fill-rule:nonzero;"/></g><g><rect x="474.685" y="667.323" width="52.913" height="94.488" style="fill:#0079c1;"/><path d="M520.586,705.601c0,-9.038 -5.555,-15.837 -16.252,-15.837c-4.395,-0 -9.121,2.073 -11.94,5.141l-0,-3.814l-10.697,-0l0,47.098l10.697,-0l-0,-28.939c-0,-6.965 4.975,-9.453 9.535,-9.453c5.059,0 7.961,2.902 7.961,8.707l-0,29.685l10.696,-0l0,-32.588Z" style="fill:#fff;fill-rule:nonzero;"/></g></g></g><g><g><rect x="180.236" y="761.811" width="52.441" height="94.488" style="fill:#0079c1;"/><path d="M211.416,818.285c-0,3.52 -2.894,5.945 -8.526,5.945c-3.598,-0 -7.587,-1.956 -7.587,-6.023c-0,-5.554 5.006,-6.18 9.151,-6.571c1.878,-0.156 5.006,-0.391 6.962,-0.469l-0,7.118Zm14.001,6.961c-2.894,-1.095 -3.989,-2.972 -3.989,-6.257l-0,-16.974c-0,-11.107 -5.632,-16.582 -16.27,-16.582c-6.101,0 -11.654,1.408 -17.286,4.693l3.676,8.057c4.146,-2.503 8.291,-3.598 12.828,-3.598c5.006,-0 7.118,2.268 7.118,6.883l-0,1.799c-2.738,0.156 -7.431,0.547 -9.934,0.782c-4.38,0.391 -16.426,1.721 -16.426,14.862c0,8.917 7.353,13.532 15.879,13.532c5.788,-0 9.777,-1.956 12.515,-4.381c1.486,2.66 3.989,4.302 7.352,4.615l4.537,-7.431Z" style="fill:#fff;fill-rule:nonzero;"/></g><g><rect x="337.087" y="761.811" width="52.441" height="94.488" style="fill:#0079c1;"/><path d="M368.266,818.285c0,3.52 -2.894,5.945 -8.526,5.945c-3.598,-0 -7.587,-1.956 -7.587,-6.023c0,-5.554 5.006,-6.18 9.152,-6.571c1.877,-0.156 5.006,-0.391 6.961,-0.469l0,7.118Zm14.001,6.961c-2.894,-1.095 -3.989,-2.972 -3.989,-6.257l0,-16.974c0,-11.107 -5.632,-16.582 -16.269,-16.582c-6.101,0 -11.655,1.408 -17.287,4.693l3.677,8.057c4.145,-2.503 8.291,-3.598 12.827,-3.598c5.006,-0 7.118,2.268 7.118,6.883l0,1.799c-2.737,0.156 -7.43,0.547 -9.933,0.782c-4.381,0.391 -16.426,1.721 -16.426,14.862c-0,8.917 7.352,13.532 15.878,13.532c5.788,-0 9.777,-1.956 12.515,-4.381c1.486,2.66 3.989,4.302 7.353,4.615l4.536,-7.431Z" style="fill:#fff;fill-rule:nonzero;"/></g><g><rect x="389.528" y="761.811" width="56.22" height="94.488" style="fill:#0079c1;"/><path d="M426.017,814.42c0,5.56 -6.473,8.133 -10.124,8.133c-7.718,-0 -11.951,-7.635 -11.951,-14.523c0,-8.382 4.233,-14.938 12.2,-14.938c4.232,-0 9.875,3.07 9.875,8.382l0,12.946Zm10.457,-47.885l-10.623,0l0,20.416c-2.904,-2.739 -6.971,-4.067 -11.286,-4.067c-14.689,0 -21.494,12.282 -21.494,25.395c-0,11.867 8.299,24.398 21.245,24.398c4.647,0 8.465,-1.577 11.286,-4.398l0.083,3.07l10.789,0l-0,-64.814Z" style="fill:#fff;fill-rule:nonzero;"/></g><g><rect x="285.591" y="761.811" width="51.496" height="94.488" style="fill:#0079c1;"/><path d="M300.367,804.921c0,-6.035 4.299,-11.244 10.583,-11.244c6.366,0 10.996,4.547 10.83,11.244l-21.413,0Zm31.996,6.201c0.662,-14.965 -6.201,-26.87 -21.413,-26.87c-13.725,-0 -21.662,10.748 -21.662,24.555c0,14.055 8.268,25.051 23.15,25.051c6.531,0 12.567,-2.48 16.949,-6.697l-5.953,-7.11c-3.224,2.977 -6.614,4.299 -11.079,4.299c-6.945,0 -11.492,-4.712 -11.823,-11.326l31.748,-0l0.083,-1.902Z" style="fill:#fff;fill-rule:nonzero;"/></g><g><rect x="232.677" y="761.811" width="52.913" height="94.488" style="fill:#0079c1;"/><path d="M278.807,799.522c-0,-9.667 -5.851,-16.366 -16.281,-16.366c-4.24,-0 -9.413,2.12 -12.211,5.257l-0,-21.878l-10.854,0l-0,66.142l10.854,0l-0,-29.764c-0,-6.105 4.325,-9.497 9.752,-9.497c5.087,0 7.801,2.968 7.801,8.31l-0,30.951l10.939,0l-0,-33.155Z" style="fill:#fff;fill-rule:nonzero;"/></g></g></g></svg>