<?xml version="1.0" encoding="UTF-8" standalone="no"?><!DOCTYPE svg PUBLIC "-//W3C//DTD SVG 1.1//EN" "http://www.w3.org/Graphics/SVG/1.1/DTD/svg11.dtd"><svg width="100%" height="100%" viewBox="0 0 414 272" version="1.1" xmlns="http://www.w3.org/2000/svg" xmlns:xlink="http://www.w3.org/1999/xlink" xml:space="preserve" xmlns:serif="http://www.serif.com/" style="fill-rule:evenodd;clip-rule:evenodd;stroke-linejoin:round;stroke-miterlimit:2;"><g id="scale-value" transform="matrix(50,0,0,50,280.125,116.906)"></g><text x="134.202px" y="116.906px" style="font-family:'ArialMT', 'Arial', sans-serif;font-size:50px;">sw=23</text><g><path d="M413.594,35.433c0,-19.556 -15.877,-35.433 -35.433,-35.433l-342.728,-0c-19.556,-0 -35.433,15.877 -35.433,35.433l0,200.787c0,19.557 15.877,35.434 35.433,35.434l342.728,-0c19.556,-0 35.433,-15.877 35.433,-35.434l0,-200.787Z"/><path d="M395.878,35.433c-0,-9.778 -7.939,-17.716 -17.717,-17.716l-342.728,-0c-9.778,-0 -17.716,7.938 -17.716,17.716l-0,200.787c-0,9.778 7.938,17.717 17.716,17.717l342.728,0c9.778,0 17.717,-7.939 17.717,-17.717l-0,-200.787Z" style="fill:#fff;"/><g><g><g><rect id="path1786" x="242.911" y="47.244" width="41.079" height="94.488" style="fill:#fff;"/><path id="path1788" d="M262.411,118.063l-12.92,-0l0,-47.159l12.92,-0l-0,4.67l1.58,-1.59l1.75,-1.33l2,-1.171l2.17,-0.75l2.16,-0.499l2.25,-0.161l3.17,-0l-0,12.25l-4.42,-0l-1.83,0.159l-1.83,0.5l-1.67,0.84l-1.58,1.079l-1.25,1.25l-1.08,1.58l-0.839,1.67l-0.5,1.83l-0.083,1.84l0.002,24.992Z" style="fill:#010001;fill-rule:nonzero;"/></g><g><rect id="path1754" x="187.672" y="47.244" width="55.239" height="94.488" style="fill:#fff;"/><path id="path1756" d="M214.002,68.994l-2.59,0.16l-2.5,0.421l-2.5,0.75l-2.41,0.92l-2.25,1.24l-2.34,1.75l-2.08,2.09l-1.83,2.25l-1.5,2.58l-1.17,2.67l-0.161,0.499l-0.84,3.33l-0.499,3.42l-0.17,3.41l0.17,3.42l0.499,3.41l0.84,3.25l0.161,0.59l1.17,2.66l1.5,2.5l1.83,2.34l2.08,2.08l2.34,1.75l2.25,1.16l2.41,1.01l2.5,0.739l2.5,0.421l2.59,0.17l2.58,-0.17l2.58,-0.421l2.5,-0.739l2.42,-1.01l2.25,-1.16l2.33,-1.75l2.08,-2.08l1.84,-2.34l1.5,-2.5l1.159,-2.66l0.17,-0.59l0.831,-3.25l0.499,-3.41l0.095,-3.42l-0.095,-3.41l-0.499,-3.42l-0.831,-3.33l-0.17,-0.499l-1.159,-2.67l-1.5,-2.58l-1.84,-2.25l-2.08,-2.09l-2.33,-1.75l-2.25,-1.24l-2.42,-0.92l-2.5,-0.75l-2.58,-0.421l-2.58,-0.16Zm-0,11.329l1.91,0.251l2,0.83l1.75,1.33l1.5,1.59l1.25,1.83l0.669,1.5l0.421,1.58l0.329,2.67l0.083,2.58l-0.083,2.58l-0.329,2.67l-0.421,1.58l-0.669,1.5l-1.25,1.84l-1.5,1.58l-1.75,1.33l-2,0.75l-1.91,0.34l-1.84,-0.34l-2,-0.75l-1.83,-1.33l-1.5,-1.58l-1.17,-1.84l-0.661,-1.5l-0.42,-1.58l-0.33,-2.67l-0.17,-2.58l0.17,-2.58l0.33,-2.67l0.42,-1.58l0.661,-1.5l1.17,-1.83l1.5,-1.59l1.83,-1.33l2,-0.83l1.84,-0.251Z" style="fill:#010001;fill-rule:nonzero;"/></g><g id="F"><rect id="path1662" x="129.604" y="47.244" width="58.069" height="94.488" style="fill:#fff;"/><path id="path1664" d="M154.093,118.063l0,-27.41l27.08,0l-0,-12.25l-27.08,0l0,-13.579l29.92,-0l-0,-12.83l-43.41,0l0,66.069l13.49,-0Z" style="fill:#010001;fill-rule:nonzero;"/></g></g><g><g><rect id="path1870" x="41.339" y="141.732" width="59.989" height="94.488" style="fill:#fff;"/><path id="path1872" d="M79.918,162.982l-0.92,-1.42l-1.17,-1.25l-1.41,-1.08l-1.5,-0.84l-1.92,-0.5l-2,-0.33l-2,-0l-1.91,0.25l-1.92,0.5l-1.67,0.75l-1.41,1.08l-1.17,1.34l-1,1.58l-0.83,2l-0.59,2.17l-0.33,2.24l0,2.25l-13.579,-0l-0,-3.33l0.17,-2.83l0.5,-2.83l0.749,-2.67l1.16,-2.58l1.42,-2.5l1.67,-2.25l1.91,-2l2.17,-1.84l2.16,-1.25l2.34,-1l2.41,-0.58l4.09,-0.58l4.08,-0.25l4.17,0.16l4.08,0.5l2.58,0.59l2.5,0.91l1.5,0.75l2.58,1.92l2.17,2.25l1.92,2.5l1.58,2.75l1,2.92l0.67,3l0.33,3l-0,3.08l-0.33,3.08l-0.67,3l-1,2.92l-1.33,2.749l-2.17,3.33l-2.42,3.08l-2.75,2.92l-4.5,3.5l-4.66,3.25l-4.92,3l23.33,0l-0,12.25l-46.57,-0l0,-12.25l8.16,-5.09l5.75,-3.66l5.58,-3.92l5.42,-4.16l3.17,-2.749l2.91,-3l1.75,-2.84l0.92,-2l0.58,-2l0.25,-2.16l-0.08,-2.08l-0.34,-2.17l-0.66,-1.58Z" style="fill:#010001;fill-rule:nonzero;"/></g><g><g><rect id="path1806" x="271.182" y="141.732" width="52.909" height="94.488" style="fill:#fff;"/><path id="path1808" d="M296.682,164.142l-2.42,0.17l-2.41,0.41l-2.34,0.75l-2.25,1.09l-2.08,1.25l-2.25,1.66l-2.08,2l-1.75,2.25l-1.42,2.42l-1.17,3l-0.83,3.17l-0.5,3.16l-0.17,3.249l0.25,3.25l0.591,3.17l0.909,3.08l1.17,3l1.079,2.17l1.42,2l1.5,1.83l1.83,1.67l1.92,1.41l2.08,1.25l2.25,0.92l2.34,0.67l2.99,0.58l3.09,0.25l3.08,-0.083l3.08,-0.34l3,-0.66l2.339,-0.84l2.16,-1.079l2,-1.42l1.83,-1.67l1.67,-1.83l-8,-8.08l-1.83,1.67l-2.079,1.33l-2.25,1l-2.17,0.58l-2.17,0.17l-2.16,-0.082l-2.17,-0.421l-2.08,-0.75l-1.42,-0.92l-1.25,-1.16l-1.001,-1.34l-0.75,-1.5l-0.409,-1.66l-0.17,-1.67l31.499,0l-0.17,-3.92l-0.421,-3.91l-0.83,-3.829l-1.17,-3.75l-1.08,-2.5l-1.42,-2.25l-1.66,-2.17l-2,-1.83l-2.17,-1.59l-2.08,-1.25l-2.25,-0.91l-2.42,-0.669l-2.419,-0.421l-2.408,-0.075Zm-0.251,10.75l1.66,-0l1.67,0.329l1.58,0.59l1.42,0.83l1.33,1.079l1.09,1.25l0.831,1.42l0.58,1.58l0.25,1.67l-19.16,0l0.251,-1.67l0.58,-1.58l0.84,-1.42l1.079,-1.25l1.33,-1.079l1.42,-0.83l1.58,-0.59l1.669,-0.329Z" style="fill:#010001;fill-rule:nonzero;"/></g><g><rect id="path1746" x="130.855" y="141.732" width="82.658" height="94.488" style="fill:#fff;"/><path id="path1748" d="M201.764,171.722l-1.67,-1.91l-1.92,-1.67l-2.08,-1.42l-2.25,-1.16l-2.41,-0.84l-2.75,-0.499l-2.09,-0.083l-2.08,0.25l-2.08,0.421l-1.92,0.66l-1.92,0.92l-1.75,1.25l-1.58,1.42l-1.42,1.66l-1.16,-1.83l-1.42,-1.5l-1.66,-1.25l-1.92,-0.92l-1.5,-0.5l-2.749,-0.499l-2.42,-0.083l-2.33,0.33l-2.33,0.59l-2.17,0.91l-2.08,1.25l-1.92,1.5l-0,-3.33l-12.91,-0l-0,47.159l12.91,-0l-0,-28.33l0.17,-1.66l0.66,-1.59l1,-1.5l1.34,-1.25l1.5,-1l2.66,-0.909l1.001,-0.095l0.92,0.095l0.42,0.082l1.75,0.75l1.25,1.08l1.001,1.34l0.66,1.58l0.42,1.67l0.083,1.66l0,28.079l12.92,0l-0,-28.329l0.16,-1.66l0.59,-1.59l1.079,-1.5l1.33,-1.25l1.5,-1.001l2.67,-0.909l0.92,-0.095l1.001,0.095l0.329,0.083l1.75,0.75l1.25,1.079l1.08,1.34l0.669,1.58l0.33,1.67l0.094,1.66l0,28.079l12.91,0l-12.91,0l12.91,0l0,-28.159l-0.082,-2.75l-0.5,-2.67l-0.75,-2.58l-1.09,-2.5l-1.416,-2.171Z" style="fill:#010001;fill-rule:nonzero;"/></g><g><rect id="path1742" x="240.433" y="141.732" width="30.749" height="94.488" style="fill:#fff;"/><path id="path1744" d="M267.352,200.971l-2.5,0.33l-2.499,0.094l-0.921,-0.094l-0.75,-0.41l-0.66,-0.67l-0.42,-0.75l-0.17,-0.92l-0,-52.069l-12.91,0l-0,57.319l0.161,1.75l0.499,1.67l0.75,1.58l1.001,1.5l1.25,1.25l1.42,1l1.67,0.67l1.659,0.499l1.751,0.171l4.079,-0.341l4,-0.499l4,-0.75l-1.41,-11.33Z" style="fill:#010001;fill-rule:nonzero;"/></g><g><rect id="path1790" x="213.513" y="141.732" width="26.92" height="94.488" style="fill:#fff;"/><path id="path1792" d="M226.263,145.982l-1.42,0.16l-1.41,0.42l-1.25,0.67l-1.17,0.909l-0.92,1.171l-0.661,1.25l-0.42,1.42l-0.17,1.41l0.17,1.42l0.42,1.42l0.661,1.33l0.92,1.079l1.17,0.92l1.25,0.66l1.41,0.421l1.42,0.17l1.42,-0.17l1.41,-0.421l1.25,-0.66l1.171,-0.92l0.92,-1.079l0.66,-1.33l0.42,-1.42l0.17,-1.42l-0.17,-1.41l-0.42,-1.42l-0.66,-1.25l-0.92,-1.171l-1.171,-0.909l-1.25,-0.67l-1.41,-0.42l-1.42,-0.16Zm-6.5,19.41l0,47.239l12.92,-0l0,-47.239l-12.92,-0Z" style="fill:#010001;fill-rule:nonzero;"/></g><g><rect id="path1674" x="324.091" y="141.732" width="48.164" height="94.488" style="fill:#fff;"/><path id="path1676" d="M336.842,198.397l2.001,1.58l2.16,1.251l2.34,1l2.41,0.67l2.5,0.33l2.251,-0l1.59,-0.581l1.33,-0.919l0.75,-0.75l0.5,-1l0.08,-1.081l-0.25,-1.09l-0.58,-0.91l-0.83,-0.67l-3.25,-1.251l-3.34,-0.67l-3.001,-0.5l-4.08,-1l-2,-0.66l-1.83,-1l-1.67,-1.25l-1.501,-1.42l-1.25,-1.58l-1.08,-1.75l-0.67,-2.091l-0.41,-2.16l0,-2.17l0.25,-2.16l0.58,-2.17l0.921,-1.921l1.25,-1.83l1.41,-1.58l1.59,-1.42l1.83,-1.17l1.91,-0.911l2.09,-0.59l3.001,-0.659l3,-0.341l3.08,0l3.08,0.25l3.091,0.59l2.5,0.749l2.41,1l2.34,1.33l2.241,1.421l2,1.75l-7.991,8.49l-2.25,-1.83l-2.5,-1.5l-2.671,-1.16l-1.5,-0.419l-1.58,-0.25l-1.59,0l-1.66,0.42l-1.5,0.749l-1.34,1.001l-0.66,0.83l-0.34,0.919l0.089,1.081l0.33,0.91l0.58,0.841l1.001,0.58l5.5,1.081l5.001,0.67l1.92,0.33l0.08,-0l1.92,0.67l1.83,0.83l1.841,1.09l1.66,1.41l1.42,1.59l1.16,1.751l0.84,1.91l0.581,2.09l0.329,2.08l-0.082,2.17l-0.33,2.081l-0.67,2.08l-1.081,2.09l-1.34,1.91l-1.58,1.75l-1.83,1.5l-2.001,1.171l-3.25,1l-3.33,0.66l-3.42,0.34l-3.331,0l-3.42,-0.34l-3.33,-0.66l-3.001,-0.92l-2.92,-1.25l-2.66,-1.58l-2.5,-1.84l-2.34,-2.16l9.42,-8.671l1.752,1.839Z" style="fill:#010001;fill-rule:nonzero;"/></g></g></g></g></g></svg>