<?xml version="1.0" encoding="UTF-8" standalone="no"?><!DOCTYPE svg PUBLIC "-//W3C//DTD SVG 1.1//EN" "http://www.w3.org/Graphics/SVG/1.1/DTD/svg11.dtd"><svg width="100%" height="100%" viewBox="0 0 454 454" version="1.1" xmlns="http://www.w3.org/2000/svg" xmlns:xlink="http://www.w3.org/1999/xlink" xml:space="preserve" xmlns:serif="http://www.serif.com/" style="fill-rule:evenodd;clip-rule:evenodd;stroke-linejoin:round;stroke-miterlimit:2;"><g transform="matrix(50,0,0,50,321.022,262.709)"></g><text x="133.4px" y="262.709px" style="font-family:'ArialMT', 'Arial', sans-serif;font-size:50px;">sw=38.4</text><g id="_606-Proceed-in-Direction-of-Arrow" serif:id="606 Proceed in Direction of Arrow"><circle cx="226.772" cy="226.772" r="226.772" style="fill:#fff;"/><path d="M226.772,0c125.158,0 226.771,101.613 226.771,226.772c0,125.158 -101.613,226.771 -226.771,226.771c-125.159,0 -226.772,-101.613 -226.772,-226.771c-0,-125.159 101.613,-226.772 226.772,-226.772Zm-0,1.181c-124.507,0 -225.591,101.084 -225.591,225.591c0,124.506 101.084,225.59 225.591,225.59c124.506,0 225.59,-101.084 225.59,-225.59c0,-124.507 -101.084,-225.591 -225.59,-225.591Z" style="fill:#0079c1;"/><circle cx="226.772" cy="226.772" r="217.323" style="fill:#0079c1;"/><path d="M124.711,317.467l-90.708,-90.722l90.708,-90.695l90.709,-0l-60.481,60.472l257.016,0l0,60.473l-256.999,-0l60.464,60.472l-90.709,0Z" style="fill:#fff;"/></g></svg>