<?xml version="1.0" encoding="UTF-8" standalone="no"?><!DOCTYPE svg PUBLIC "-//W3C//DTD SVG 1.1//EN" "http://www.w3.org/Graphics/SVG/1.1/DTD/svg11.dtd"><svg width="100%" height="100%" viewBox="0 0 485 178" version="1.1" xmlns="http://www.w3.org/2000/svg" xmlns:xlink="http://www.w3.org/1999/xlink" xml:space="preserve" xmlns:serif="http://www.serif.com/" style="fill-rule:evenodd;clip-rule:evenodd;stroke-linejoin:round;stroke-miterlimit:2;"><g transform="matrix(50,0,0,50,315.808,106.246)"></g><text x="169.885px" y="106.246px" style="font-family:'ArialMT', 'Arial', sans-serif;font-size:50px;">sw=15</text><rect id="P607" x="0" y="0" width="484.961" height="177.165" style="fill:none;"/><clipPath id="_clip1"><rect x="0" y="0" width="484.961" height="177.165"/></clipPath><g clip-path="url(#_clip1)"><path d="M484.961,35.433c-0,-19.556 -15.877,-35.433 -35.433,-35.433l-414.095,0c-19.556,0 -35.433,15.877 -35.433,35.433l0,106.299c0,19.556 15.877,35.433 35.433,35.433l414.095,0c19.556,0 35.433,-15.877 35.433,-35.433l-0,-106.299Z"/><path d="M467.244,35.433c0,-9.778 -7.938,-17.716 -17.716,-17.716l-414.095,-0c-9.778,-0 -17.716,7.938 -17.716,17.716l-0,106.299c-0,9.778 7.938,17.717 17.716,17.717l414.095,-0c9.778,-0 17.716,-7.939 17.716,-17.717l0,-106.299Z" style="fill:#fff;"/><g><g><g><rect id="path1698" x="387.638" y="47.244" width="50.079" height="94.488" style="fill:#fff;"/><path d="M435.051,70.829l-17.947,52.427c-0.827,2.426 -1.847,4.314 -3.06,5.664c-1.213,1.351 -2.536,2.357 -3.97,3.019c-1.103,0.496 -2.412,0.868 -3.928,1.116c-1.517,0.248 -2.992,0.372 -4.425,0.372c-1.489,0 -3.102,-0.151 -4.838,-0.455c-1.737,-0.303 -3.322,-0.675 -4.756,-1.116l2.15,-10.502c1.269,0.441 2.495,0.772 3.681,0.992c1.185,0.221 2.247,0.331 3.184,0.331c1.544,0 2.66,-0.248 3.349,-0.744c0.69,-0.496 1.034,-1.13 1.034,-1.902l0,-0.414c0,-0.165 -0.055,-0.385 -0.165,-0.661c-0.055,-0.221 -0.124,-0.441 -0.207,-0.662c-0.083,-0.22 -0.152,-0.468 -0.207,-0.744l-16.127,-46.721l13.729,-0l9.428,28.363l9.429,-28.363l13.646,-0Z" style="fill-rule:nonzero;"/></g><g><rect id="path16981" serif:id="path1698" x="335.197" y="47.244" width="52.441" height="94.488" style="fill:#fff;"/><path d="M382.899,108.926l-5.215,9.184c-1.816,-0.104 -3.463,-0.558 -4.942,-1.362c-1.479,-0.804 -2.685,-1.855 -3.619,-3.152c-1.453,1.349 -3.152,2.361 -5.098,3.035c-1.946,0.675 -4.32,1.012 -7.122,1.012c-2.231,0 -4.372,-0.285 -6.421,-0.856c-2.05,-0.571 -3.853,-1.44 -5.409,-2.607c-1.557,-1.168 -2.802,-2.608 -3.736,-4.32c-0.934,-1.712 -1.401,-3.736 -1.401,-6.071c-0,-2.283 0.337,-4.229 1.011,-5.837c0.675,-1.609 1.531,-2.971 2.569,-4.086c1.038,-1.116 2.218,-2.011 3.541,-2.686c1.323,-0.674 2.634,-1.193 3.931,-1.556c1.297,-0.364 2.516,-0.623 3.658,-0.779c1.141,-0.155 2.05,-0.259 2.724,-0.311c1.09,-0.104 2.478,-0.22 4.164,-0.35c1.686,-0.13 3.23,-0.247 4.631,-0.35l0,-0.623c0,-1.92 -0.441,-3.308 -1.323,-4.164c-0.882,-0.856 -2.413,-1.284 -4.592,-1.284c-2.283,-0 -4.463,0.272 -6.538,0.817c-2.076,0.545 -4.359,1.544 -6.849,2.996l-4.592,-9.729c3.165,-1.764 6.265,-3.035 9.301,-3.813c3.035,-0.779 6.187,-1.168 9.456,-1.168c5.656,0 9.963,1.401 12.92,4.203c2.958,2.802 4.437,7.005 4.437,12.609l-0,14.554c-0,1.972 0.337,3.464 1.012,4.476c0.674,1.012 1.842,1.751 3.502,2.218Zm-16.812,-5.837l0,-5.526c-0.934,0.051 -1.92,0.103 -2.957,0.155c-1.038,0.052 -1.92,0.13 -2.647,0.234c-0.882,0.103 -1.803,0.207 -2.763,0.311c-0.96,0.104 -1.829,0.324 -2.607,0.662c-0.778,0.337 -1.427,0.817 -1.946,1.44c-0.519,0.622 -0.778,1.504 -0.778,2.646c-0,1.505 0.648,2.646 1.946,3.424c1.297,0.779 2.776,1.168 4.436,1.168c2.646,-0 4.527,-0.441 5.643,-1.323c1.115,-0.882 1.673,-1.946 1.673,-3.191Z" style="fill-rule:nonzero;"/></g><g><rect id="path16982" serif:id="path1698" x="259.606" y="47.244" width="75.591" height="94.488" style="fill:#fff;"/><path d="M328.803,70.866l-13.733,47.244l-13.151,0l-6.575,-26.699l-6.492,26.699l-13.15,0l-13.733,-47.244l13.566,0l6.908,26.117l5.993,-26.117l13.899,0l5.993,26.117l6.908,-26.117l13.567,0Z" style="fill-rule:nonzero;"/></g></g><g><g><rect id="path16983" serif:id="path1698" x="121.89" y="47.244" width="56.22" height="94.488" style="fill:#fff;"/><path d="M170.856,118.11l-13.348,0l0,-29.616c0,-2.503 -0.58,-4.31 -1.742,-5.422c-1.161,-1.113 -2.82,-1.669 -4.977,-1.669c-1.052,0 -2.075,0.139 -3.071,0.417c-0.995,0.278 -1.88,0.723 -2.654,1.335c-0.775,0.612 -1.397,1.404 -1.867,2.378c-0.47,0.973 -0.705,2.183 -0.705,3.629l-0,28.948l-13.348,0l-0,-47.385l13.348,-0l-0.058,3.003c1.449,-1.335 3.191,-2.392 5.225,-3.17c2.034,-0.779 3.999,-1.168 5.893,-1.168c2.843,-0 5.337,0.417 7.482,1.251c2.146,0.834 3.957,1.988 5.434,3.462c1.477,1.474 2.578,3.198 3.302,5.173c0.724,1.974 1.086,4.129 1.086,6.465l0,32.369Z" style="fill-rule:nonzero;"/></g><g><rect id="path16984" serif:id="path1698" x="178.11" y="47.244" width="51.969" height="94.488" style="fill:#fff;"/><path d="M225.753,96.457l-0.157,1.968l-30.473,0c0.053,1.26 0.368,2.428 0.945,3.504c0.578,1.076 1.339,2.021 2.284,2.835c0.945,0.813 2.034,1.443 3.267,1.89c1.234,0.446 2.533,0.669 3.898,0.669c3.937,-0 7.323,-1.313 10.158,-3.937l6.614,8.11c-2.257,2.152 -4.738,3.793 -7.441,4.921c-2.704,1.129 -5.788,1.693 -9.252,1.693c-3.727,0 -7.034,-0.617 -9.921,-1.85c-2.888,-1.234 -5.315,-2.94 -7.284,-5.118c-1.968,-2.179 -3.464,-4.712 -4.488,-7.599c-1.024,-2.887 -1.535,-5.984 -1.535,-9.291c-0,-3.202 0.485,-6.234 1.456,-9.095c0.971,-2.86 2.376,-5.341 4.213,-7.44c1.837,-2.1 4.121,-3.767 6.85,-5c2.73,-1.234 5.827,-1.851 9.292,-1.851c3.832,0 7.165,0.683 10,2.047c2.834,1.365 5.144,3.202 6.929,5.512c1.784,2.31 3.057,5.026 3.819,8.15c0.761,3.123 1.036,6.417 0.826,9.882Zm-12.362,-6.851c0,-2.414 -0.879,-4.396 -2.638,-5.945c-1.758,-1.548 -3.924,-2.322 -6.496,-2.322c-2.467,-0 -4.514,0.826 -6.141,2.48c-1.628,1.653 -2.573,3.583 -2.835,5.787l18.11,0Z" style="fill-rule:nonzero;"/></g><g><rect x="47.244" y="47.244" width="74.646" height="94.488" style="fill:#fff;"/><path d="M115.965,85.243c-0,4.676 -0.669,9.026 -2.007,13.049c-1.338,4.024 -3.317,7.503 -5.937,10.439c-2.62,2.936 -5.895,5.233 -9.825,6.892c-3.93,1.658 -8.487,2.487 -13.671,2.487c-5.184,0 -9.727,-0.843 -13.629,-2.528c-3.902,-1.685 -7.163,-3.996 -9.783,-6.932c-2.62,-2.936 -4.599,-6.416 -5.937,-10.439c-1.338,-4.024 -2.007,-8.373 -2.007,-13.049c-0,-4.785 0.641,-9.203 1.923,-13.253c1.282,-4.051 3.219,-7.558 5.812,-10.521c2.592,-2.963 5.853,-5.274 9.783,-6.932c3.93,-1.658 8.542,-2.487 13.838,-2.487c5.24,-0 9.825,0.842 13.755,2.528c3.93,1.685 7.205,4.01 9.825,6.973c2.62,2.963 4.585,6.483 5.895,10.561c1.31,4.078 1.965,8.482 1.965,13.212Zm-14.549,0c-0,-2.827 -0.293,-5.505 -0.878,-8.033c-0.586,-2.528 -1.547,-4.744 -2.885,-6.647c-1.338,-1.903 -3.08,-3.398 -5.226,-4.485c-2.146,-1.088 -4.752,-1.631 -7.818,-1.631c-3.066,-0 -5.672,0.557 -7.818,1.671c-2.147,1.115 -3.889,2.61 -5.226,4.486c-1.338,1.876 -2.314,4.078 -2.927,6.606c-0.613,2.528 -0.92,5.206 -0.92,8.033c0,2.991 0.293,5.736 0.878,8.237c0.586,2.501 1.547,4.663 2.885,6.484c1.338,1.821 3.08,3.235 5.226,4.241c2.146,1.006 4.78,1.509 7.902,1.509c3.177,-0 5.839,-0.503 7.985,-1.509c2.146,-1.006 3.874,-2.42 5.184,-4.241c1.31,-1.821 2.244,-3.983 2.801,-6.484c0.558,-2.501 0.837,-5.246 0.837,-8.237Z" style="fill-rule:nonzero;"/></g></g></g></g></svg>