<?xml version="1.0" encoding="UTF-8" standalone="no"?><!DOCTYPE svg PUBLIC "-//W3C//DTD SVG 1.1//EN" "http://www.w3.org/Graphics/SVG/1.1/DTD/svg11.dtd"><svg width="100%" height="100%" viewBox="0 0 642 272" version="1.1" xmlns="http://www.w3.org/2000/svg" xmlns:xlink="http://www.w3.org/1999/xlink" xml:space="preserve" xmlns:serif="http://www.serif.com/" style="fill-rule:evenodd;clip-rule:evenodd;stroke-linejoin:round;stroke-miterlimit:2;"><g transform="matrix(50,0,0,50,373.399,171.764)"></g><text x="227.476px" y="171.764px" style="font-family:'ArialMT', 'Arial', sans-serif;font-size:50px;">sw=23</text><rect id="P608" x="0" y="0" width="641.695" height="271.654" style="fill:none;"/><clipPath id="_clip1"><rect x="0" y="0" width="641.695" height="271.654"/></clipPath><g clip-path="url(#_clip1)"><g><path d="M641.695,35.433c-0,-19.556 -15.877,-35.433 -35.433,-35.433l-570.829,0c-19.556,0 -35.433,15.877 -35.433,35.433l0,200.787c0,19.557 15.877,35.434 35.433,35.434l570.829,-0c19.556,-0 35.433,-15.877 35.433,-35.434l-0,-200.787Z"/><path d="M623.978,35.433c0,-9.778 -7.938,-17.716 -17.716,-17.716l-570.829,-0c-9.778,-0 -17.716,7.938 -17.716,17.716l-0,200.787c-0,9.778 7.938,17.717 17.716,17.717l570.829,0c9.778,0 17.716,-7.939 17.716,-17.717l0,-200.787Z" style="fill:#fff;"/><g><g><rect id="path1698" x="544.372" y="141.732" width="50.079" height="94.488" style="fill:#fff;"/><path d="M591.785,165.317l-17.947,52.427c-0.827,2.426 -1.847,4.314 -3.06,5.665c-1.213,1.35 -2.536,2.356 -3.97,3.018c-1.103,0.496 -2.412,0.868 -3.928,1.116c-1.517,0.248 -2.992,0.372 -4.425,0.372c-1.489,0 -3.102,-0.151 -4.838,-0.454c-1.737,-0.304 -3.322,-0.676 -4.756,-1.117l2.15,-10.502c1.269,0.441 2.495,0.772 3.681,0.993c1.185,0.22 2.247,0.33 3.184,0.33c1.544,0 2.66,-0.248 3.349,-0.744c0.69,-0.496 1.034,-1.13 1.034,-1.902l0,-0.413c0,-0.166 -0.055,-0.386 -0.165,-0.662c-0.055,-0.22 -0.124,-0.441 -0.207,-0.661c-0.083,-0.221 -0.152,-0.469 -0.207,-0.745l-16.127,-46.721l13.729,-0l9.428,28.364l9.429,-28.364l13.646,-0Z" style="fill-rule:nonzero;"/></g><g><rect id="path16981" serif:id="path1698" x="491.931" y="141.732" width="52.441" height="94.488" style="fill:#fff;"/><path d="M539.633,203.414l-5.215,9.184c-1.816,-0.103 -3.463,-0.557 -4.942,-1.362c-1.479,-0.804 -2.685,-1.855 -3.619,-3.152c-1.453,1.349 -3.152,2.361 -5.098,3.036c-1.946,0.674 -4.32,1.011 -7.122,1.011c-2.231,0 -4.371,-0.285 -6.421,-0.856c-2.05,-0.57 -3.853,-1.44 -5.409,-2.607c-1.557,-1.168 -2.802,-2.607 -3.736,-4.32c-0.934,-1.712 -1.401,-3.736 -1.401,-6.071c-0,-2.283 0.337,-4.229 1.011,-5.837c0.675,-1.609 1.531,-2.971 2.569,-4.086c1.038,-1.116 2.218,-2.011 3.541,-2.685c1.323,-0.675 2.634,-1.194 3.931,-1.557c1.297,-0.363 2.516,-0.623 3.658,-0.778c1.141,-0.156 2.05,-0.26 2.724,-0.312c1.09,-0.104 2.478,-0.22 4.164,-0.35c1.686,-0.13 3.23,-0.246 4.631,-0.35l0,-0.623c0,-1.92 -0.441,-3.308 -1.323,-4.164c-0.882,-0.856 -2.413,-1.284 -4.592,-1.284c-2.283,-0 -4.463,0.272 -6.538,0.817c-2.076,0.545 -4.359,1.544 -6.849,2.997l-4.592,-9.729c3.165,-1.765 6.265,-3.036 9.301,-3.814c3.035,-0.779 6.187,-1.168 9.456,-1.168c5.656,0 9.963,1.401 12.92,4.203c2.958,2.802 4.437,7.005 4.437,12.609l-0,14.555c-0,1.971 0.337,3.463 1.012,4.475c0.674,1.012 1.842,1.751 3.502,2.218Zm-16.812,-5.837l0,-5.526c-0.934,0.052 -1.92,0.104 -2.957,0.155c-1.038,0.052 -1.92,0.13 -2.647,0.234c-0.882,0.104 -1.803,0.207 -2.763,0.311c-0.96,0.104 -1.829,0.325 -2.607,0.662c-0.778,0.337 -1.427,0.817 -1.946,1.44c-0.519,0.622 -0.778,1.504 -0.778,2.646c-0,1.505 0.648,2.646 1.946,3.425c1.297,0.778 2.776,1.167 4.436,1.167c2.646,0 4.527,-0.441 5.643,-1.323c1.115,-0.882 1.673,-1.946 1.673,-3.191Z" style="fill-rule:nonzero;"/></g><g><rect id="path16982" serif:id="path1698" x="416.34" y="141.732" width="75.591" height="94.488" style="fill:#fff;"/><path d="M485.537,165.354l-13.733,47.244l-13.151,0l-6.575,-26.699l-6.492,26.699l-13.15,0l-13.733,-47.244l13.566,0l6.908,26.118l5.993,-26.118l13.899,0l5.993,26.118l6.908,-26.118l13.567,0Z" style="fill-rule:nonzero;"/></g><g><rect id="path16983" serif:id="path1698" x="230.671" y="141.732" width="25.984" height="94.488" style="fill:#fff;"/><path d="M250.288,153.861c-0,2.108 -0.721,3.883 -2.163,5.325c-1.442,1.442 -3.19,2.163 -5.242,2.163c-2.107,-0 -3.882,-0.721 -5.324,-2.163c-1.443,-1.442 -2.164,-3.217 -2.164,-5.325c0,-2.052 0.721,-3.799 2.164,-5.241c1.442,-1.442 3.217,-2.163 5.324,-2.163c2.052,-0 3.8,0.721 5.242,2.163c1.442,1.442 2.163,3.189 2.163,5.241Zm-0.832,58.737l-13.145,0l-0,-47.256l13.145,0l-0,47.256Z" style="fill-rule:nonzero;"/></g><g><rect id="path16984" serif:id="path1698" x="309.096" y="141.732" width="55.276" height="94.488" style="fill:#fff;"/><path d="M355.957,210.969c0,3.289 -0.579,6.025 -1.739,8.209c-1.159,2.183 -2.722,3.922 -4.69,5.216c-1.968,1.294 -4.233,2.211 -6.794,2.75c-2.561,0.539 -5.244,0.809 -8.047,0.809c-3.127,-0 -6.336,-0.459 -9.625,-1.375c-3.289,-0.917 -6.2,-2.13 -8.734,-3.64l4.367,-10.028c2.696,1.294 5.136,2.224 7.319,2.79c2.184,0.566 4.435,0.849 6.754,0.849c1.078,0 2.143,-0.094 3.194,-0.283c1.052,-0.189 1.982,-0.526 2.791,-1.011c0.808,-0.485 1.469,-1.132 1.981,-1.941c0.512,-0.809 0.768,-1.833 0.768,-3.073l0,-3.963c-1.24,1.078 -2.749,1.927 -4.529,2.547c-1.779,0.621 -3.531,0.931 -5.257,0.931c-3.235,-0 -6.092,-0.567 -8.573,-1.699c-2.48,-1.132 -4.556,-2.696 -6.227,-4.691c-1.672,-1.995 -2.939,-4.367 -3.801,-7.117c-0.863,-2.75 -1.294,-5.742 -1.294,-8.977c-0,-2.966 0.485,-5.783 1.455,-8.452c0.971,-2.669 2.332,-5.001 4.085,-6.996c1.752,-1.995 3.814,-3.572 6.187,-4.731c2.372,-1.159 4.96,-1.739 7.764,-1.739c2.157,0 4.138,0.364 5.944,1.092c1.807,0.728 3.222,1.712 4.246,2.952l0,-2.75l12.455,0l0,44.321Zm-12.212,-23.455c-0,-1.401 -0.162,-2.736 -0.485,-4.003c-0.324,-1.267 -0.836,-2.372 -1.537,-3.316c-0.701,-0.943 -1.591,-1.698 -2.669,-2.264c-1.078,-0.567 -2.372,-0.85 -3.882,-0.85c-1.456,0 -2.723,0.283 -3.801,0.85c-1.079,0.566 -1.982,1.321 -2.71,2.264c-0.727,0.944 -1.267,2.049 -1.617,3.316c-0.351,1.267 -0.526,2.602 -0.526,4.003c0,1.456 0.162,2.818 0.485,4.085c0.324,1.267 0.836,2.372 1.537,3.316c0.701,0.943 1.591,1.698 2.669,2.264c1.078,0.566 2.399,0.849 3.963,0.849c1.51,0 2.804,-0.283 3.882,-0.849c1.078,-0.566 1.968,-1.321 2.669,-2.264c0.701,-0.944 1.213,-2.049 1.537,-3.316c0.323,-1.267 0.485,-2.629 0.485,-4.085Z" style="fill-rule:nonzero;"/></g><g><rect id="path16985" serif:id="path1698" x="256.655" y="141.732" width="52.441" height="94.488" style="fill:#fff;"/><path d="M304.357,203.414l-5.214,9.184c-1.816,-0.103 -3.464,-0.557 -4.943,-1.362c-1.478,-0.804 -2.685,-1.855 -3.619,-3.152c-1.453,1.349 -3.152,2.361 -5.098,3.036c-1.946,0.674 -4.32,1.011 -7.122,1.011c-2.231,0 -4.371,-0.285 -6.421,-0.856c-2.049,-0.57 -3.852,-1.44 -5.409,-2.607c-1.557,-1.168 -2.802,-2.607 -3.736,-4.32c-0.934,-1.712 -1.401,-3.736 -1.401,-6.071c0,-2.283 0.337,-4.229 1.012,-5.837c0.674,-1.609 1.531,-2.971 2.568,-4.086c1.038,-1.116 2.219,-2.011 3.542,-2.685c1.323,-0.675 2.633,-1.194 3.93,-1.557c1.297,-0.363 2.517,-0.623 3.658,-0.778c1.142,-0.156 2.05,-0.26 2.724,-0.312c1.09,-0.104 2.478,-0.22 4.164,-0.35c1.687,-0.13 3.231,-0.246 4.632,-0.35l-0,-0.623c-0,-1.92 -0.442,-3.308 -1.324,-4.164c-0.882,-0.856 -2.412,-1.284 -4.592,-1.284c-2.283,-0 -4.462,0.272 -6.538,0.817c-2.075,0.545 -4.358,1.544 -6.849,2.997l-4.592,-9.729c3.165,-1.765 6.266,-3.036 9.301,-3.814c3.035,-0.779 6.188,-1.168 9.457,-1.168c5.655,0 9.962,1.401 12.92,4.203c2.957,2.802 4.436,7.005 4.436,12.609l0,14.555c0,1.971 0.337,3.463 1.012,4.475c0.675,1.012 1.842,1.751 3.502,2.218Zm-16.811,-5.837l-0,-5.526c-0.934,0.052 -1.92,0.104 -2.958,0.155c-1.038,0.052 -1.92,0.13 -2.646,0.234c-0.882,0.104 -1.803,0.207 -2.763,0.311c-0.96,0.104 -1.829,0.325 -2.608,0.662c-0.778,0.337 -1.427,0.817 -1.945,1.44c-0.519,0.622 -0.779,1.504 -0.779,2.646c0,1.505 0.649,2.646 1.946,3.425c1.297,0.778 2.776,1.167 4.436,1.167c2.647,0 4.528,-0.441 5.643,-1.323c1.116,-0.882 1.674,-1.946 1.674,-3.191Z" style="fill-rule:nonzero;"/></g><g><rect id="path16986" serif:id="path1698" x="97.795" y="141.732" width="52.441" height="94.488" style="fill:#fff;"/><path d="M145.497,203.414l-5.214,9.184c-1.816,-0.103 -3.464,-0.557 -4.943,-1.362c-1.478,-0.804 -2.685,-1.855 -3.619,-3.152c-1.453,1.349 -3.152,2.361 -5.098,3.036c-1.946,0.674 -4.32,1.011 -7.122,1.011c-2.231,0 -4.371,-0.285 -6.421,-0.856c-2.049,-0.57 -3.852,-1.44 -5.409,-2.607c-1.557,-1.168 -2.802,-2.607 -3.736,-4.32c-0.934,-1.712 -1.401,-3.736 -1.401,-6.071c0,-2.283 0.337,-4.229 1.012,-5.837c0.674,-1.609 1.531,-2.971 2.568,-4.086c1.038,-1.116 2.219,-2.011 3.542,-2.685c1.323,-0.675 2.633,-1.194 3.93,-1.557c1.297,-0.363 2.517,-0.623 3.658,-0.778c1.142,-0.156 2.05,-0.26 2.724,-0.312c1.09,-0.104 2.478,-0.22 4.164,-0.35c1.687,-0.13 3.231,-0.246 4.632,-0.35l-0,-0.623c-0,-1.92 -0.442,-3.308 -1.324,-4.164c-0.882,-0.856 -2.412,-1.284 -4.592,-1.284c-2.283,-0 -4.462,0.272 -6.538,0.817c-2.075,0.545 -4.358,1.544 -6.849,2.997l-4.592,-9.729c3.165,-1.765 6.266,-3.036 9.301,-3.814c3.035,-0.779 6.188,-1.168 9.457,-1.168c5.655,0 9.962,1.401 12.92,4.203c2.957,2.802 4.436,7.005 4.436,12.609l0,14.555c0,1.971 0.337,3.463 1.012,4.475c0.675,1.012 1.842,1.751 3.502,2.218Zm-16.811,-5.837l-0,-5.526c-0.934,0.052 -1.92,0.104 -2.958,0.155c-1.038,0.052 -1.92,0.13 -2.646,0.234c-0.882,0.104 -1.803,0.207 -2.763,0.311c-0.96,0.104 -1.829,0.325 -2.608,0.662c-0.778,0.337 -1.427,0.817 -1.945,1.44c-0.519,0.622 -0.779,1.504 -0.779,2.646c0,1.505 0.649,2.646 1.946,3.425c1.297,0.778 2.776,1.167 4.436,1.167c2.647,0 4.528,-0.441 5.643,-1.323c1.116,-0.882 1.674,-1.946 1.674,-3.191Z" style="fill-rule:nonzero;"/></g><g><rect id="path16987" serif:id="path1698" x="150.356" y="141.732" width="40.157" height="94.488" style="fill:#fff;"/><path d="M184.434,177.154l-1.911,-0.166c-1.773,-0.166 -3.434,-0.069 -4.985,0.291c-1.551,0.36 -2.908,0.983 -4.071,1.869c-1.163,0.886 -2.077,2.035 -2.741,3.448c-0.665,1.412 -0.997,3.087 -0.997,5.026l-0,24.923l-13.293,0l0,-47.188l13.293,-0l-0,4.901c1.606,-2.27 3.6,-3.932 5.981,-4.984c2.382,-1.053 5.29,-1.385 8.724,-0.997l-0,12.877Z" style="fill-rule:nonzero;"/></g><g><rect id="path16988" serif:id="path1698" x="190.514" y="141.732" width="40.157" height="94.488" style="fill:#fff;"/><path d="M224.591,177.154l-1.911,-0.166c-1.772,-0.166 -3.434,-0.069 -4.985,0.291c-1.55,0.36 -2.907,0.983 -4.07,1.869c-1.163,0.886 -2.077,2.035 -2.742,3.448c-0.665,1.412 -0.997,3.087 -0.997,5.026l0,24.923l-13.292,0l-0,-47.188l13.292,-0l0,4.901c1.606,-2.27 3.6,-3.932 5.982,-4.984c2.381,-1.053 5.289,-1.385 8.723,-0.997l0,12.877Z" style="fill-rule:nonzero;"/></g><g><rect id="path16989" serif:id="path1698" x="364.372" y="141.732" width="51.969" height="94.488" style="fill:#fff;"/><path d="M412.015,190.945l-0.158,1.968l-30.472,0c0.052,1.26 0.367,2.428 0.945,3.504c0.577,1.076 1.338,2.021 2.283,2.835c0.945,0.814 2.034,1.444 3.268,1.89c1.234,0.446 2.533,0.669 3.898,0.669c3.937,0 7.323,-1.312 10.157,-3.937l6.614,8.11c-2.257,2.152 -4.737,3.793 -7.441,4.922c-2.703,1.128 -5.787,1.692 -9.252,1.692c-3.727,0 -7.034,-0.616 -9.921,-1.85c-2.887,-1.234 -5.315,-2.94 -7.283,-5.118c-1.969,-2.179 -3.465,-4.711 -4.488,-7.599c-1.024,-2.887 -1.536,-5.984 -1.536,-9.291c0,-3.202 0.486,-6.233 1.457,-9.094c0.971,-2.861 2.375,-5.342 4.212,-7.441c1.838,-2.1 4.121,-3.767 6.851,-5c2.729,-1.234 5.827,-1.851 9.291,-1.851c3.832,0 7.165,0.683 10,2.048c2.835,1.364 5.144,3.202 6.929,5.511c1.785,2.31 3.058,5.027 3.819,8.15c0.761,3.123 1.037,6.417 0.827,9.882Zm-12.362,-6.851c-0,-2.414 -0.88,-4.396 -2.638,-5.944c-1.759,-1.549 -3.924,-2.323 -6.496,-2.323c-2.467,-0 -4.515,0.827 -6.142,2.48c-1.627,1.654 -2.572,3.583 -2.835,5.787l18.111,0Z" style="fill-rule:nonzero;"/></g><g><rect id="path169810" serif:id="path1698" x="47.244" y="141.732" width="50.551" height="94.488" style="fill:#fff;"/><path d="M93.395,178.303l-10.281,4.944c-1.936,-4.708 -4.996,-7.063 -9.182,-7.063c-1.622,0 -3.034,0.367 -4.238,1.099c-1.203,0.733 -2.21,1.7 -3.021,2.904c-0.811,1.203 -1.426,2.59 -1.844,4.159c-0.419,1.57 -0.628,3.165 -0.628,4.787c-0,1.675 0.222,3.27 0.667,4.788c0.445,1.517 1.099,2.851 1.962,4.002c0.863,1.151 1.91,2.08 3.139,2.786c1.23,0.706 2.629,1.059 4.199,1.059c1.988,0 3.727,-0.549 5.219,-1.648c1.491,-1.098 2.786,-2.903 3.884,-5.415l10.124,5.023c-1.831,3.872 -4.395,6.985 -7.691,9.339c-3.296,2.354 -7.141,3.531 -11.536,3.531c-3.715,0 -6.981,-0.614 -9.797,-1.844c-2.817,-1.229 -5.161,-2.917 -7.033,-5.062c-1.872,-2.145 -3.289,-4.643 -4.251,-7.494c-0.962,-2.852 -1.443,-5.926 -1.443,-9.222c0,-2.929 0.442,-5.807 1.326,-8.632c0.884,-2.825 2.236,-5.35 4.056,-7.573c1.82,-2.224 4.112,-4.016 6.875,-5.376c2.764,-1.361 6.055,-2.041 9.874,-2.041c4.552,0 8.555,1.191 12.008,3.571c3.453,2.381 5.99,5.507 7.612,9.378Z" style="fill-rule:nonzero;"/></g></g><g><g><rect id="path169811" serif:id="path1698" x="343.524" y="47.244" width="52.441" height="94.488" style="fill:#fff;"/><path d="M391.227,108.926l-5.215,9.184c-1.816,-0.104 -3.464,-0.558 -4.942,-1.362c-1.479,-0.804 -2.686,-1.855 -3.62,-3.152c-1.453,1.349 -3.152,2.361 -5.098,3.035c-1.945,0.675 -4.319,1.012 -7.121,1.012c-2.231,0 -4.372,-0.285 -6.421,-0.856c-2.05,-0.571 -3.853,-1.44 -5.41,-2.607c-1.556,-1.168 -2.802,-2.608 -3.736,-4.32c-0.934,-1.712 -1.401,-3.736 -1.401,-6.071c0,-2.283 0.338,-4.229 1.012,-5.837c0.675,-1.609 1.531,-2.971 2.569,-4.086c1.037,-1.116 2.218,-2.011 3.541,-2.686c1.323,-0.674 2.633,-1.193 3.93,-1.556c1.298,-0.364 2.517,-0.623 3.659,-0.779c1.141,-0.155 2.049,-0.259 2.724,-0.311c1.089,-0.104 2.477,-0.22 4.164,-0.35c1.686,-0.13 3.23,-0.247 4.631,-0.35l-0,-0.623c-0,-1.92 -0.441,-3.308 -1.323,-4.164c-0.883,-0.856 -2.413,-1.284 -4.593,-1.284c-2.283,-0 -4.462,0.272 -6.537,0.817c-2.076,0.545 -4.359,1.544 -6.85,2.996l-4.592,-9.729c3.165,-1.764 6.266,-3.035 9.301,-3.813c3.036,-0.779 6.188,-1.168 9.457,-1.168c5.656,0 9.962,1.401 12.92,4.203c2.958,2.802 4.436,7.005 4.436,12.609l0,14.554c0,1.972 0.338,3.464 1.012,4.476c0.675,1.012 1.842,1.751 3.503,2.218Zm-16.812,-5.837l-0,-5.526c-0.934,0.051 -1.92,0.103 -2.958,0.155c-1.037,0.052 -1.92,0.13 -2.646,0.234c-0.882,0.103 -1.803,0.207 -2.763,0.311c-0.96,0.104 -1.829,0.324 -2.607,0.662c-0.779,0.337 -1.427,0.817 -1.946,1.44c-0.519,0.622 -0.779,1.504 -0.779,2.646c0,1.505 0.649,2.646 1.946,3.424c1.297,0.779 2.776,1.168 4.437,1.168c2.646,-0 4.527,-0.441 5.642,-1.323c1.116,-0.882 1.674,-1.946 1.674,-3.191Z" style="fill-rule:nonzero;"/></g><g><rect id="path169812" serif:id="path1698" x="286.832" y="47.244" width="56.693" height="94.488" style="fill:#fff;"/><path d="M335.986,118.055l-13.317,0l-0,-2.985c-1.443,1.327 -3.177,2.377 -5.202,3.151c-2.025,0.774 -3.981,1.161 -5.868,1.161c-2.83,0 -5.313,-0.414 -7.449,-1.244c-2.136,-0.829 -3.94,-1.976 -5.41,-3.441c-1.47,-1.465 -2.566,-3.178 -3.288,-5.141c-0.721,-1.962 -1.082,-4.104 -1.082,-6.426l0,-32.173l13.317,-0l0,29.436c0,2.488 0.58,4.285 1.738,5.39c1.159,1.106 2.814,1.659 4.966,1.659c1.049,-0 2.07,-0.139 3.064,-0.415c0.993,-0.276 1.875,-0.719 2.648,-1.327c0.772,-0.608 1.393,-1.395 1.862,-2.363c0.469,-0.967 0.704,-2.17 0.704,-3.607l-0,-28.773l13.317,-0l-0,47.098Z" style="fill-rule:nonzero;"/></g><g><rect id="path169813" serif:id="path1698" x="395.965" y="47.244" width="29.764" height="94.488" style="fill:#fff;"/><path d="M424.548,116.699c-1.438,0.443 -2.96,0.789 -4.564,1.038c-1.605,0.249 -3.181,0.373 -4.731,0.373c-2.489,0 -4.633,-0.332 -6.431,-0.996c-1.798,-0.664 -3.264,-1.604 -4.399,-2.821c-1.134,-1.217 -1.964,-2.697 -2.489,-4.44c-0.526,-1.743 -0.789,-3.665 -0.789,-5.768l0,-52.116l13.03,-0l-0,49.959c-0,2.876 1.355,4.315 4.066,4.315c0.83,-0 1.632,-0.069 2.407,-0.208c0.774,-0.138 1.632,-0.373 2.572,-0.705l1.328,11.369Z" style="fill-rule:nonzero;"/></g><g><rect x="215.965" y="47.244" width="70.866" height="94.488" style="fill:#fff;"/><path d="M282.107,84.7c0,4.353 -0.593,8.536 -1.781,12.55c-1.187,4.014 -3.052,7.575 -5.596,10.685c-2.544,3.109 -5.781,5.582 -9.709,7.419c-3.929,1.838 -8.636,2.756 -14.119,2.756l-25.1,0l-0,-66.141l25.185,-0c5.427,-0 10.105,0.961 14.034,2.883c3.928,1.922 7.165,4.437 9.709,7.547c2.544,3.109 4.409,6.614 5.596,10.514c1.188,3.901 1.781,7.83 1.781,11.787Zm-14.755,-0.085c0,-2.261 -0.339,-4.579 -1.017,-6.953c-0.678,-2.374 -1.668,-4.522 -2.968,-6.445c-1.3,-1.922 -2.911,-3.505 -4.833,-4.748c-1.922,-1.244 -4.099,-1.866 -6.53,-1.866l-12.211,0l0,40.618l11.618,0c2.77,0 5.158,-0.594 7.165,-1.781c2.007,-1.187 3.66,-2.741 4.961,-4.664c1.3,-1.922 2.261,-4.126 2.883,-6.614c0.622,-2.487 0.932,-5.003 0.932,-7.547Z" style="fill-rule:nonzero;"/></g></g></g></g></svg>