<?xml version="1.0" encoding="UTF-8" standalone="no"?><!DOCTYPE svg PUBLIC "-//W3C//DTD SVG 1.1//EN" "http://www.w3.org/Graphics/SVG/1.1/DTD/svg11.dtd"><svg width="100%" height="100%" viewBox="0 0 454 454" version="1.1" xmlns="http://www.w3.org/2000/svg" xmlns:xlink="http://www.w3.org/1999/xlink" xml:space="preserve" xmlns:serif="http://www.serif.com/" style="fill-rule:evenodd;clip-rule:evenodd;stroke-linejoin:round;stroke-miterlimit:2;"><g transform="matrix(50,0,0,50,321.022,262.709)"></g><text x="133.4px" y="262.709px" style="font-family:'ArialMT', 'Arial', sans-serif;font-size:50px;">sw=38.4</text><g id="_611.1-Mini-Roundabout" serif:id="611.1 Mini Roundabout"><circle cx="226.772" cy="226.772" r="226.772" style="fill:#fff;"/><path d="M226.772,0c125.158,0 226.771,101.613 226.771,226.772c0,125.158 -101.613,226.771 -226.771,226.771c-125.159,0 -226.772,-101.613 -226.772,-226.771c-0,-125.159 101.613,-226.772 226.772,-226.772Zm-0,1.181c-124.507,0 -225.591,101.084 -225.591,225.591c0,124.506 101.084,225.59 225.591,225.59c124.506,0 225.59,-101.084 225.59,-225.59c0,-124.507 -101.084,-225.591 -225.59,-225.591Z" style="fill:#0079c1;"/><circle cx="226.759" cy="226.759" r="217.323" style="fill:#0079c1;"/><path d="M185.728,73.397l-2.961,64.086l-33.443,30.563l2,-45.364l-4.88,3.76l-4.72,4l-4.561,4.241l-4.32,4.4l-4.161,4.641l-3.84,4.8l-3.68,5.041l-3.441,5.12l-3.12,5.361l-2.88,5.52l-2.641,5.601l-2.32,5.68l-2.08,5.841l-1.84,5.92l-1.44,6.081l-1.2,6.081l-0.961,6.08l-0.64,6.161l-0.32,6.16l0,6.241l0.32,6.16l0.56,6.161l0.881,6.161l1.12,6.08l1.52,6.001l-29.203,7.841l-1.68,-6.881l-1.44,-6.881l-1.04,-6.96l-0.72,-7.041l-0.48,-7.041l-0.081,-7.12l0.161,-7.041l0.56,-7.041l0.8,-7.04l1.12,-6.961l1.44,-6.881l1.76,-6.88l2.08,-6.721l2.32,-6.641l2.641,-6.56l2.96,-6.481l3.2,-6.241l3.441,-6.16l3.76,-6.001l4.08,-5.76l4.241,-5.681l4.56,-5.36l4.721,-5.281l4.96,-4.96l5.281,-4.801l5.36,-4.56l-39.364,-1.76l33.524,-30.563l64.086,2.88Zm82.168,0l6.72,2l6.721,2.24l6.56,2.641l6.481,2.8l6.321,3.2l6.16,3.361l6.001,3.76l5.84,3.92l5.681,4.241l5.521,4.48l5.28,4.721l5.04,4.88l4.801,5.201l4.64,5.36l4.321,5.521l4.08,5.76l3.841,5.921l3.6,6.08l3.28,6.241l3.041,6.4l2.72,6.561l2.4,6.641l2.16,6.72l1.84,6.801l1.521,6.881l1.28,6.96l21.202,-33.203l9.761,44.324l-34.564,54.006l-54.085,-34.564l-9.761,-44.244l38.324,24.402l-0.8,-6.08l-1.12,-6.161l-1.36,-6l-1.681,-6.001l-1.92,-5.84l-2.24,-5.761l-2.48,-5.681l-2.801,-5.52l-3.04,-5.441l-3.28,-5.2l-3.6,-5.121l-3.761,-4.88l-4,-4.721l-4.241,-4.48l-4.48,-4.32l-4.64,-4.081l-4.881,-3.84l-5.04,-3.68l-5.201,-3.361l-5.36,-3.12l-5.441,-2.8l-5.68,-2.641l-5.761,-2.32l-5.841,-2l-5.92,-1.76l7.841,-29.203Zm-96.41,236.103l43.204,13.681l-40.323,20.882l5.76,2.4l5.841,2.16l5.84,1.76l6.081,1.601l6,1.2l6.161,0.96l6.161,0.64l6.16,0.4l6.241,0.08l6.16,-0.24l6.161,-0.56l6.161,-0.8l6.08,-1.12l6.001,-1.44l6,-1.681l5.841,-2l5.76,-2.32l5.681,-2.56l5.52,-2.801l5.361,-3.04l5.201,-3.36l5.04,-3.601l4.88,-3.84l4.721,-4l4.48,-4.321l21.362,21.442l-5.12,4.881l-5.281,4.64l-5.52,4.401l-5.681,4.16l-5.92,3.92l-6.081,3.601l-6.16,3.36l-6.401,3.12l-6.481,2.801l-6.56,2.48l-6.721,2.24l-6.801,1.84l-6.88,1.6l-6.961,1.361l-6.961,0.96l-7.04,0.64l-7.041,0.4l-7.121,0.08l-7.04,-0.32l-7.041,-0.56l-6.961,-0.88l-6.96,-1.2l-6.961,-1.521l-6.801,-1.84l-6.72,-2.08l-6.641,-2.48l18.162,35.043l-43.284,-13.761l-29.523,-56.886l56.965,-29.522Z" style="fill:#fff;"/></g></svg>