<?xml version="1.0" encoding="UTF-8" standalone="no"?><!DOCTYPE svg PUBLIC "-//W3C//DTD SVG 1.1//EN" "http://www.w3.org/Graphics/SVG/1.1/DTD/svg11.dtd"><svg width="100%" height="100%" viewBox="0 0 454 454" version="1.1" xmlns="http://www.w3.org/2000/svg" xmlns:xlink="http://www.w3.org/1999/xlink" xml:space="preserve" xmlns:serif="http://www.serif.com/" style="fill-rule:evenodd;clip-rule:evenodd;stroke-linecap:round;stroke-linejoin:round;stroke-miterlimit:1.5;"><g transform="matrix(50,0,0,50,321.022,262.709)"></g><text x="133.4px" y="262.709px" style="font-family:'ArialMT', 'Arial', sans-serif;font-size:50px;">sw=38.4</text><clipPath id="_clip1"><rect x="0" y="0" width="453.543" height="453.543"/></clipPath><g clip-path="url(#_clip1)"><circle cx="226.772" cy="226.772" r="226.772" style="fill:#fff;stroke:#0079c1;stroke-width:0.42px;"/><circle cx="226.772" cy="226.772" r="217.701" style="fill:#0079c1;"/><path d="M389.711,336.645l-82.607,-22.135l-30.236,-52.37l55.071,14.756l-80.629,-139.655l34.913,-20.158l80.63,139.656l14.757,-55.072l30.236,52.371l-22.135,82.607Z" style="fill:#fff;"/><path d="M63.832,336.645l82.607,-22.135l30.236,-52.37l-55.071,14.756l80.63,-139.655l-34.914,-20.158l-80.63,139.656l-14.756,-55.072l-30.236,52.371l22.134,82.607Z" style="fill:#fff;"/></g></svg>