<?xml version="1.0" encoding="UTF-8" standalone="no"?><!DOCTYPE svg PUBLIC "-//W3C//DTD SVG 1.1//EN" "http://www.w3.org/Graphics/SVG/1.1/DTD/svg11.dtd"><svg width="100%" height="100%" viewBox="0 0 454 454" version="1.1" xmlns="http://www.w3.org/2000/svg" xmlns:xlink="http://www.w3.org/1999/xlink" xml:space="preserve" xmlns:serif="http://www.serif.com/" style="fill-rule:evenodd;clip-rule:evenodd;stroke-linejoin:round;stroke-miterlimit:2;"><g transform="matrix(50,0,0,50,321.022,262.709)"></g><text x="133.4px" y="262.709px" style="font-family:'ArialMT', 'Arial', sans-serif;font-size:50px;">sw=38.4</text><g id="_614-No-U-Turn" serif:id="614 No U Turn"><circle cx="226.772" cy="226.772" r="226.772" style="fill:#e31837;"/><circle cx="226.772" cy="226.772" r="181.417" style="fill:#fff;"/><path d="M188.963,362.822l-30.236,-30.237l-30.236,30.237l-0,-170.079c-0,-54.272 43.996,-98.268 98.268,-98.268l-0,0c54.271,0 98.267,43.996 98.267,98.268c0,49.494 0,106.025 0,139.842l-30.236,30.237l0,-0l-30.236,-30.237l-0,-139.842c-0,-20.874 -16.922,-37.795 -37.795,-37.795l-0,-0c-20.874,-0 -37.796,16.921 -37.796,37.795c0,59.938 0,170.079 0,170.079Z"/><path d="M406.425,308.66l-18.897,32.732l-340.41,-196.535l18.898,-32.732l340.409,196.535Z" style="fill:#e31837;"/></g></svg>