<?xml version="1.0" encoding="UTF-8" standalone="no"?><!DOCTYPE svg PUBLIC "-//W3C//DTD SVG 1.1//EN" "http://www.w3.org/Graphics/SVG/1.1/DTD/svg11.dtd"><svg width="100%" height="100%" viewBox="0 0 637 367" version="1.1" xmlns="http://www.w3.org/2000/svg" xmlns:xlink="http://www.w3.org/1999/xlink" xml:space="preserve" xmlns:serif="http://www.serif.com/" style="fill-rule:evenodd;clip-rule:evenodd;stroke-linejoin:round;stroke-miterlimit:2;"><g transform="matrix(50,0,0,50,394.831,200.734)"></g><text x="248.908px" y="200.734px" style="font-family:'ArialMT', 'Arial', sans-serif;font-size:50px;">sw=31</text><clipPath id="_clip1"><rect x="0" y="0" width="636.098" height="366.165"/></clipPath><g clip-path="url(#_clip1)"><rect id="_1.-Give-way-to-oncoming-vehicles" serif:id="1. Give way to oncoming vehicles" x="0" y="0" width="636.098" height="366.165" style="fill:none;"/><g><path d="M636.098,35.433c-0,-19.556 -15.877,-35.433 -35.433,-35.433l-565.232,0c-19.556,0 -35.433,15.877 -35.433,35.433l-0,295.299c-0,19.556 15.877,35.433 35.433,35.433l565.232,0c19.556,0 35.433,-15.877 35.433,-35.433l-0,-295.299Z"/><path d="M618.381,35.433c0,-9.778 -7.938,-17.716 -17.716,-17.716l-565.232,-0c-9.778,-0 -17.716,7.938 -17.716,17.716l-0,295.299c-0,9.778 7.938,17.717 17.716,17.717l565.232,-0c9.778,-0 17.716,-7.939 17.716,-17.717l0,-295.299Z" style="fill:#fff;"/><g><g><g><rect id="path1754" x="533.615" y="47.244" width="55.239" height="94.488" style="fill:#fff;"/><path id="path1756" d="M559.944,68.994l-2.59,0.16l-2.5,0.421l-2.5,0.75l-2.41,0.92l-2.25,1.24l-2.34,1.75l-2.08,2.09l-1.83,2.25l-1.499,2.58l-1.171,2.67l-0.161,0.499l-0.839,3.33l-0.5,3.42l-0.17,3.41l0.17,3.42l0.5,3.41l0.839,3.25l0.161,0.59l1.171,2.66l1.499,2.5l1.83,2.34l2.08,2.08l2.34,1.75l2.25,1.16l2.41,1.01l2.5,0.739l2.5,0.421l2.59,0.17l2.58,-0.17l2.58,-0.421l2.5,-0.739l2.42,-1.01l2.25,-1.16l2.33,-1.75l2.08,-2.08l1.84,-2.34l1.5,-2.5l1.16,-2.66l0.17,-0.59l0.83,-3.25l0.5,-3.41l0.094,-3.42l-0.094,-3.41l-0.5,-3.42l-0.83,-3.33l-0.17,-0.499l-1.16,-2.67l-1.5,-2.58l-1.84,-2.25l-2.08,-2.09l-2.33,-1.75l-2.25,-1.24l-2.42,-0.92l-2.5,-0.75l-2.58,-0.421l-2.58,-0.16Zm0,11.329l1.91,0.251l2,0.83l1.75,1.33l1.5,1.59l1.25,1.83l0.67,1.5l0.42,1.58l0.33,2.67l0.082,2.58l-0.082,2.58l-0.33,2.67l-0.42,1.58l-0.67,1.5l-1.25,1.84l-1.5,1.58l-1.75,1.33l-2,0.75l-1.91,0.34l-1.84,-0.34l-2,-0.75l-1.83,-1.33l-1.5,-1.58l-1.17,-1.84l-0.66,-1.5l-0.421,-1.58l-0.329,-2.67l-0.171,-2.58l0.171,-2.58l0.329,-2.67l0.421,-1.58l0.66,-1.5l1.17,-1.83l1.5,-1.59l1.83,-1.33l2,-0.83l1.84,-0.251Z" style="fill:#010001;fill-rule:nonzero;"/></g><g><rect id="path1670" x="493.031" y="47.244" width="40.584" height="94.488" style="fill:#fff;"/><path id="path1672" d="M523.034,107.819l2.41,-0.41l2.34,-0.67l2.83,10.751l-3.5,1l-3.58,0.66l-3.591,0.34l-3.66,0.083l-3.59,-0.33l-1.75,-0.34l-1.741,-0.75l-1.5,-1l-1.34,-1.25l-1.08,-1.41l-0.751,-1.671l-0.5,-1.75l-0.17,-1.83l-0,-28.002l-7.581,-0l0,-10.751l7.581,-0l-0,-14.742l12.921,-3.75l-0,18.492l12.001,-0l-0,10.751l-12.001,-0l-0,23.002l0.082,1l0.42,0.92l0.581,0.75l0.83,0.581l0.919,0.419l0.92,0.083l2.5,-0.176Z" style="fill:#010001;fill-rule:nonzero;"/></g></g><g><g><g><rect id="path1806" x="200.247" y="47.244" width="52.909" height="94.488" style="fill:#fff;"/><path id="path1808" d="M225.746,69.654l-2.42,0.17l-2.41,0.41l-2.34,0.75l-2.249,1.09l-2.08,1.25l-2.25,1.66l-2.08,2l-1.75,2.25l-1.42,2.42l-1.171,3l-0.83,3.169l-0.5,3.16l-0.17,3.25l0.251,3.25l0.59,3.17l0.91,3.08l1.169,3l1.079,2.17l1.421,2l1.499,1.83l1.83,1.67l1.92,1.41l2.08,1.25l2.25,0.92l2.34,0.67l2.99,0.58l3.09,0.25l3.08,-0.083l3.08,-0.34l3,-0.66l2.34,-0.84l2.16,-1.079l2,-1.42l1.83,-1.67l1.67,-1.83l-8,-8.08l-1.83,1.67l-2.08,1.33l-2.25,1l-2.17,0.58l-2.17,0.17l-2.16,-0.083l-2.17,-0.42l-2.08,-0.75l-1.42,-0.92l-1.25,-1.16l-1,-1.34l-0.75,-1.5l-0.41,-1.66l-0.17,-1.67l31.499,0l-0.17,-3.92l-0.42,-3.91l-0.83,-3.83l-1.171,-3.75l-1.079,-2.5l-1.42,-2.25l-1.66,-2.169l-2,-1.83l-2.17,-1.59l-2.08,-1.25l-2.25,-0.91l-2.42,-0.669l-2.42,-0.421l-2.408,-0.075Zm-0.25,10.749l1.66,0l1.67,0.33l1.58,0.589l1.42,0.831l1.33,1.079l1.09,1.25l0.83,1.42l0.58,1.58l0.251,1.67l-19.16,0l0.25,-1.67l0.58,-1.58l0.84,-1.42l1.08,-1.25l1.329,-1.079l1.42,-0.831l1.58,-0.589l1.67,-0.33Z" style="fill:#010001;fill-rule:nonzero;"/></g><g><rect id="path1790" x="121.823" y="47.244" width="26.92" height="94.488" style="fill:#fff;"/><path id="path1792" d="M134.572,51.494l-1.419,0.16l-1.41,0.42l-1.25,0.67l-1.171,0.909l-0.92,1.171l-0.66,1.25l-0.421,1.42l-0.17,1.409l0.17,1.421l0.421,1.419l0.66,1.33l0.92,1.08l1.171,0.92l1.25,0.66l1.41,0.421l1.419,0.17l1.42,-0.17l1.41,-0.421l1.25,-0.66l1.171,-0.92l0.92,-1.08l0.66,-1.33l0.421,-1.419l0.17,-1.421l-0.17,-1.409l-0.421,-1.42l-0.66,-1.25l-0.92,-1.171l-1.171,-0.909l-1.25,-0.67l-1.41,-0.42l-1.42,-0.16Zm-6.499,19.41l-0,47.239l12.919,-0l0,-47.239l-12.919,-0Z" style="fill:#010001;fill-rule:nonzero;"/></g><g><rect id="path1678" x="148.742" y="47.244" width="51.505" height="94.488" style="fill:#fff;"/><path id="path1680" d="M150.742,70.826l16.422,47.244l14.411,0l16.422,-47.244l-13.332,0l-10.25,29.663l-10.331,-29.663l-13.342,0Z" style="fill:#010001;fill-rule:nonzero;"/></g><g id="G"><rect id="path1626" x="47.244" y="47.244" width="74.579" height="94.488" style="fill:#fff;"/><path id="path1628" d="M98.493,70.494l-1.59,-2l-1.83,-1.84l-2.08,-1.49l-1.92,-0.75l-1.91,-0.591l-2,-0.329l-2,-0.17l-2.09,0.17l-2.079,0.329l-2,0.67l-1.92,0.83l-1.75,1.08l-1.58,1.34l-1.42,1.58l-1.16,1.67l-0.92,1.91l-0.75,1.92l-0.75,3.33l-0.5,3.499l-0.083,3.42l0.083,3.5l0.5,3.41l0.75,3.34l0.75,2l0.92,1.83l1.16,1.67l1.42,1.58l1.58,1.33l1.75,1.09l1.92,0.91l2,0.59l2.079,0.33l2.09,0.17l2.25,-0.17l2.25,-0.421l2.16,-0.75l2.08,-1.16l1.84,-1.419l1.58,-1.67l1.33,-1.91l0.92,-2.5l0.58,-2.5l0.095,-2.67l-16.67,-0l-0,-11.58l28.999,-0l0,38.079l-12.33,0l0,-4.75l-1.92,1.83l-2.249,1.59l-2.33,1.25l-2.59,0.91l-2.58,0.58l-2.66,0.17l-2.67,-0l-3.33,-0.33l-3.25,-0.67l-3.17,-1l-3.08,-1.33l-2.84,-1.67l-2.66,-2l-2.5,-2.58l-2.17,-2.75l-2,-3l-1.58,-3.17l-1.25,-3.33l-1,-3.419l-0.58,-3.49l-0.25,-3.5l-0,-4.75l0.25,-3.59l0.58,-3.5l1,-3.41l1.25,-3.34l1.58,-3.16l2,-3l2.17,-2.75l2.5,-2.5l2.66,-2l2.84,-1.75l3.08,-1.33l3.17,-1l3.25,-0.67l3.33,-0.329l3.75,-0l3.33,0.329l3.33,0.67l3.17,1l2.999,1.33l2.92,1.75l2.66,2l2.5,2.5l2.17,2.83l2.25,4l-12.669,6l-1.165,-2.328Z" style="fill:#010001;fill-rule:nonzero;"/></g></g><g><g><rect id="path1698" x="359.18" y="47.244" width="53.329" height="94.488" style="fill:#fff;"/><path id="path1700" d="M384.009,68.994l-3.08,0.16l-2.999,0.58l-3.75,1.09l-3.67,1.41l-3.5,1.67l-3.41,1.92l6.33,9.66l2.58,-1.58l2.67,-1.25l2.83,-1l2.919,-0.75l3,-0.421l1.66,-0.082l1.75,0.329l1.58,0.589l0.92,0.58l0.75,0.831l0.5,0.92l0.17,1.079l0,3l-4.17,0.17l-4.08,0.5l-4.08,0.75l-4,1.08l-3.919,1.419l-1.66,1.001l-1.59,1.25l-1.42,1.5l-1.16,1.58l-0.92,1.83l-0.66,1.92l-0.341,2l-0.082,2l0.17,2l0.49,1.92l0.759,1.91l1.001,1.749l1.24,1.59l1.42,1.41l1.67,1.171l2.41,1.16l2.59,0.92l2.749,0.589l2.75,0.33l2.75,-0.083l2.66,-0.34l2.67,-0.66l1.42,-0.67l1.33,-0.83l1.08,-1.001l0.92,-1.25l1,1.33l1.25,1.001l1.42,0.75l2.58,1l2.66,0.58l2.75,0.329l4.59,-10.079l-1.09,-0l-1.08,-0.16l-1.079,-0.499l-0.84,-0.67l-0.66,-0.92l-0.421,-1.001l-0.17,-1.159l0,-22.33l-0.161,-1.84l-0.42,-1.83l-0.75,-1.67l-0.92,-1.58l-1.25,-1.5l-1.41,-1.17l-1.59,-1.001l-2.25,-0.99l-2.41,-0.839l-2.92,-0.831l-3.08,-0.42l-2.996,-0.151Zm7.25,28.069l0,6.75l-0.17,1.25l-0.58,1.17l-0.75,1.001l-1.09,0.75l-1.16,0.42l-2.33,0.33l-2.34,-0l-2.33,-0.33l-1.17,-0.42l-1,-0.75l-0.831,-0.92l-0.58,-1.08l-0.34,-1.079l0,-1.171l0.34,-1.17l0.58,-0.911l0.831,-0.84l1,-0.58l3.92,-1l2.28,-0.47l1.72,-0.36l4,-0.59Z" style="fill:#010001;fill-rule:nonzero;"/></g><g><rect id="path1762" x="412.509" y="47.244" width="50.995" height="94.488" style="fill:#fff;"/><path id="path1764" d="M426.42,133.402l-4.58,-0.411l-4.501,-0.749l1.581,-11.341l6.67,0.92l1.081,-0.083l1,-0.341l1,-0.58l0.751,-0.75l0.5,-0.919l0.34,-1.081l0,-1.079l-0.17,-1.09l-16.161,-45.074l12.991,-0l10.251,28.582l10.251,-28.582l13.081,-0l-20.082,55.995l-0.751,1.58l-1,1.5l-1.25,1.25l-1.41,1l-1.59,0.75l-1.751,0.419l-1.75,0.171l-4.501,-0.087Z" style="fill:#010001;fill-rule:nonzero;"/></g><g><rect id="path1682" x="282.683" y="47.244" width="76.497" height="94.488" style="fill:#fff;"/><path id="path1684" d="M319.927,88.908l-6.911,29.162l-15.081,0l-13.252,-47.244l12.752,0l8.41,29.913l7.081,-29.913l14.091,0l7.081,29.913l8.331,-29.913l12.831,0l-13.252,47.244l-15.161,0l-6.92,-29.162Z" style="fill:#010001;fill-rule:nonzero;"/></g></g></g></g><g><g><rect id="path17541" serif:id="path1754" x="97.038" y="141.74" width="55.239" height="94.488" style="fill:#fff;"/><path id="path17561" serif:id="path1756" d="M123.368,163.49l-2.591,0.16l-2.499,0.421l-2.5,0.75l-2.41,0.92l-2.25,1.24l-2.34,1.75l-2.08,2.09l-1.83,2.25l-1.5,2.58l-1.171,2.67l-0.16,0.499l-0.84,3.33l-0.5,3.42l-0.17,3.41l0.17,3.42l0.5,3.41l0.84,3.25l0.16,0.59l1.171,2.66l1.5,2.5l1.83,2.34l2.08,2.08l2.34,1.75l2.25,1.16l2.41,1.01l2.5,0.739l2.499,0.421l2.591,0.17l2.579,-0.17l2.58,-0.421l2.5,-0.739l2.42,-1.01l2.25,-1.16l2.33,-1.75l2.08,-2.08l1.84,-2.34l1.5,-2.5l1.16,-2.66l0.17,-0.59l0.83,-3.25l0.5,-3.41l0.094,-3.42l-0.094,-3.41l-0.5,-3.42l-0.83,-3.33l-0.17,-0.499l-1.16,-2.67l-1.5,-2.58l-1.84,-2.25l-2.08,-2.09l-2.33,-1.75l-2.25,-1.24l-2.42,-0.92l-2.5,-0.75l-2.58,-0.421l-2.579,-0.16Zm-0,11.33l1.909,0.25l2,0.83l1.75,1.33l1.5,1.59l1.25,1.83l0.67,1.5l0.42,1.58l0.33,2.67l0.083,2.58l-0.083,2.58l-0.33,2.67l-0.42,1.58l-0.67,1.5l-1.25,1.84l-1.5,1.58l-1.75,1.33l-2,0.75l-1.909,0.34l-1.841,-0.34l-1.999,-0.75l-1.83,-1.33l-1.5,-1.58l-1.171,-1.84l-0.66,-1.5l-0.421,-1.58l-0.329,-2.67l-0.17,-2.58l0.17,-2.58l0.329,-2.67l0.421,-1.58l0.66,-1.5l1.171,-1.83l1.5,-1.59l1.83,-1.33l1.999,-0.83l1.841,-0.25Z" style="fill:#010001;fill-rule:nonzero;"/></g><g><rect id="path17542" serif:id="path1754" x="260.925" y="141.744" width="55.239" height="94.488" style="fill:#fff;"/><path id="path17562" serif:id="path1756" d="M287.254,163.494l-2.59,0.16l-2.5,0.421l-2.5,0.75l-2.409,0.92l-2.25,1.24l-2.34,1.75l-2.08,2.09l-1.83,2.25l-1.5,2.58l-1.171,2.67l-0.16,0.499l-0.84,3.33l-0.5,3.42l-0.17,3.41l0.17,3.42l0.5,3.41l0.84,3.25l0.16,0.59l1.171,2.66l1.5,2.5l1.83,2.34l2.08,2.08l2.34,1.75l2.25,1.16l2.409,1.01l2.5,0.739l2.5,0.421l2.59,0.17l2.58,-0.17l2.58,-0.421l2.5,-0.739l2.42,-1.01l2.25,-1.16l2.33,-1.75l2.08,-2.08l1.84,-2.34l1.5,-2.5l1.16,-2.66l0.17,-0.59l0.83,-3.25l0.5,-3.41l0.094,-3.42l-0.094,-3.41l-0.5,-3.42l-0.83,-3.33l-0.17,-0.499l-1.16,-2.67l-1.5,-2.58l-1.84,-2.25l-2.08,-2.09l-2.33,-1.75l-2.25,-1.24l-2.42,-0.92l-2.5,-0.75l-2.58,-0.421l-2.58,-0.16Zm0,11.33l1.91,0.25l2,0.83l1.75,1.33l1.5,1.59l1.25,1.83l0.67,1.5l0.42,1.58l0.33,2.67l0.082,2.58l-0.082,2.58l-0.33,2.67l-0.42,1.58l-0.67,1.5l-1.25,1.84l-1.5,1.58l-1.75,1.33l-2,0.75l-1.91,0.34l-1.84,-0.34l-2,-0.75l-1.83,-1.33l-1.5,-1.58l-1.17,-1.84l-0.66,-1.5l-0.421,-1.58l-0.329,-2.67l-0.17,-2.58l0.17,-2.58l0.329,-2.67l0.421,-1.58l0.66,-1.5l1.17,-1.83l1.5,-1.59l1.83,-1.33l2,-0.83l1.84,-0.25Z" style="fill:#010001;fill-rule:nonzero;"/></g><g><rect id="path1750" x="152.277" y="141.74" width="57.159" height="94.488" style="fill:#fff;"/><path id="path1752" d="M188.856,182.819l-0.34,-1.67l-0.75,-1.58l-1,-1.339l-1.25,-1.08l-1.75,-0.75l-1.91,-0.33l-1.92,0.083l-1.83,0.33l-1.84,0.75l-1.5,1l-1.33,1.25l-1,1.5l-0.67,1.59l-0.161,1.66l0,28.329l-12.919,0l-0,-47.159l12.919,0l0,3.33l1.91,-1.5l2.09,-1.25l2.16,-0.909l2.34,-0.591l2.33,-0.329l2.42,0.082l2.75,0.5l2.41,0.84l2.33,1.16l2.09,1.42l1.91,1.669l1.67,1.91l1.42,2.17l1.079,2.5l0.75,2.58l0.421,2.67l0.16,2.75l0,28.16l-12.909,-0l12.909,-0l-12.909,-0l-0,-28.08l-0.08,-1.666Z" style="fill:#010001;fill-rule:nonzero;"/></g><g><rect id="path17501" serif:id="path1750" x="425.742" y="141.736" width="57.159" height="94.488" style="fill:#fff;"/><path id="path17521" serif:id="path1752" d="M462.321,182.815l-0.34,-1.67l-0.75,-1.579l-1.001,-1.34l-1.25,-1.08l-1.749,-0.75l-1.91,-0.329l-1.92,0.082l-1.83,0.33l-1.84,0.75l-1.5,1l-1.33,1.25l-1.001,1.5l-0.669,1.59l-0.161,1.66l0,28.329l-12.92,0l0,-47.159l12.92,0l0,3.33l1.91,-1.5l2.09,-1.25l2.16,-0.909l2.34,-0.591l2.33,-0.329l2.42,0.082l2.75,0.5l2.41,0.84l2.33,1.16l2.09,1.42l1.91,1.67l1.669,1.91l1.421,2.17l1.079,2.499l0.75,2.58l0.421,2.67l0.16,2.75l0,28.16l-12.91,-0l12.91,-0l-12.91,-0l0,-28.08l-0.079,-1.666Z" style="fill:#010001;fill-rule:nonzero;"/></g><g><rect id="path17901" serif:id="path1790" x="398.822" y="141.732" width="26.92" height="94.488" style="fill:#fff;"/><path id="path17921" serif:id="path1792" d="M411.572,145.982l-1.42,0.16l-1.41,0.42l-1.25,0.67l-1.171,0.909l-0.92,1.171l-0.66,1.25l-0.42,1.42l-0.17,1.41l0.17,1.42l0.42,1.42l0.66,1.33l0.92,1.079l1.171,0.92l1.25,0.66l1.41,0.421l1.42,0.17l1.42,-0.17l1.41,-0.421l1.25,-0.66l1.17,-0.92l0.92,-1.079l0.661,-1.33l0.42,-1.42l0.17,-1.42l-0.17,-1.41l-0.42,-1.42l-0.661,-1.25l-0.92,-1.171l-1.17,-0.909l-1.25,-0.67l-1.41,-0.42l-1.42,-0.16Zm-6.5,19.41l-0,47.239l12.92,-0l-0,-47.239l-12.92,-0Z" style="fill:#010001;fill-rule:nonzero;"/></g><g><rect id="path1810" x="482.901" y="141.744" width="56.159" height="94.488" style="fill:#fff;"/><path id="path1812" d="M507.23,164.734l-2.84,0.17l-2.75,0.499l-2.66,0.92l-1.92,0.91l-1.83,1.17l-1.75,1.33l-1.5,1.59l-1.339,1.66l-1.33,2.42l-1.001,2.58l-0.83,2.59l-0.67,2.58l-0.41,2.67l-0.094,2.75l0.25,2.66l0.5,2.67l0.75,2.58l1,2.33l1.25,2.25l1.5,2.09l1.84,1.83l1.99,1.58l2.34,1.42l2.5,1.079l2.66,0.75l2.67,0.33l2.92,0.17l2.91,-0.33l2.84,-0.58l2.16,-0.75l2.09,-1.09l-0,2.5l-0.17,1.42l-0.5,1.33l-0.75,1.17l-1,1.001l-1.171,0.75l-1.33,0.42l-3.5,0.33l-3.92,-0.095l-3.91,-0.49l-2.419,-0.59l-2.42,-0.75l-2.25,-1.08l-2.16,-1.34l-6.08,10.42l3.83,1.83l4,1.42l4,1.17l4.159,0.91l3.25,0.25l3.34,0.095l3.25,-0.251l3.33,-0.589l2.67,-0.66l2.58,-1.001l2.41,-1.34l2.25,-1.66l1.59,-1.59l1.25,-1.83l1.079,-2l0.75,-2.08l0.5,-2.169l0.17,-2.25l0,-45.41l-12.83,0l0,2.42l-1.75,-1.17l-1.92,-0.83l-2,-0.5l-2.749,-0.5l-2.825,-0.089Zm1.66,11.249l2.09,0.171l1.91,0.579l1.92,0.84l1.08,0.75l1,1.001l0.75,1.159l0.5,1.25l0.34,1.33l-0,7.51l-0.34,1.74l-0.5,1.75l-0.58,1.26l-0.83,1.08l-1.09,0.83l-1.16,0.67l-1.75,0.58l-1.75,0.25l-1.84,0l-1.75,-0.25l-1.75,-0.5l-1.41,-0.67l-1.34,-0.909l-1.08,-1.171l-0.83,-1.329l-0.5,-1.421l-0.499,-1.909l-0.251,-2l0.083,-2l0.25,-1.92l0.58,-2.17l0.92,-2l0.67,-1.25l0.92,-1.08l1.08,-0.83l1.16,-0.67l2,-0.499l1.997,-0.172Z" style="fill:#010001;fill-rule:nonzero;"/></g><g><rect id="path1798" x="209.436" y="141.74" width="51.489" height="94.488" style="fill:#fff;"/><path id="path1800" d="M227.005,195.805l0.67,1.5l1.171,1.84l1.5,1.66l1.749,1.25l2.08,0.84l1.83,0.25l1.92,-0.25l2,-0.84l1.75,-1.25l1.5,-1.66l1.25,-1.84l1.001,-2.66l11.999,4.5l-0.25,0.5l-1.171,2.75l-1.5,2.5l-1.749,2.25l-2.08,2.08l-2.34,1.75l-2.33,1.25l-2.33,0.92l-2.5,0.75l-2.59,0.409l-2.58,0.171l-2.58,-0.171l-2.5,-0.409l-2.5,-0.75l-2.42,-0.92l-2.25,-1.25l-2.33,-1.75l-2.08,-2.08l-1.84,-2.25l-1.5,-2.5l-1.16,-2.75l-0.17,-0.5l-0.83,-3.34l-0.5,-3.41l-0.17,-3.42l0.17,-3.41l0.5,-3.34l0.83,-3.33l0.17,-0.579l1.16,-2.67l1.5,-2.5l1.84,-2.33l2.08,-2l2.33,-1.84l2.25,-1.16l2.42,-1.001l2.5,-0.669l2.5,-0.5l2.58,-0.17l2.58,0.17l2.59,0.5l2.5,0.669l2.33,1.001l2.33,1.16l2.34,1.84l2.08,2l1.749,2.33l1.5,2.5l1.171,2.67l0.25,0.579l-11.999,4.42l-1.001,-2.669l-1.25,-1.83l-1.5,-1.59l-1.75,-1.25l-2,-0.831l-1.92,-0.25l-1.83,0.25l-2.08,0.831l-1.749,1.25l-1.5,1.59l-1.171,1.83l-0.67,1.579l-0.499,1.59l-0.251,2.58l-0.16,2.58l0.16,2.67l0.251,2.58l0.499,1.58Z" style="fill:#010001;fill-rule:nonzero;"/></g><g><rect id="path1746" x="316.164" y="141.736" width="82.658" height="94.488" style="fill:#fff;"/><path id="path1748" d="M387.072,171.726l-1.67,-1.91l-1.92,-1.67l-2.08,-1.42l-2.25,-1.16l-2.409,-0.84l-2.75,-0.499l-2.09,-0.083l-2.08,0.25l-2.08,0.421l-1.92,0.66l-1.92,0.92l-1.75,1.25l-1.58,1.42l-1.42,1.66l-1.16,-1.83l-1.42,-1.5l-1.66,-1.25l-1.92,-0.92l-1.5,-0.5l-2.75,-0.499l-2.42,-0.083l-2.33,0.33l-2.33,0.59l-2.17,0.91l-2.08,1.25l-1.92,1.5l0,-3.33l-12.909,-0l-0,47.159l12.909,-0l0,-28.33l0.17,-1.66l0.661,-1.59l1,-1.5l1.34,-1.25l1.5,-1l2.66,-0.909l1,-0.095l0.92,0.095l0.421,0.082l1.75,0.75l1.25,1.08l1,1.34l0.661,1.58l0.42,1.67l0.083,1.66l-0,28.079l12.919,0l0,-28.329l0.161,-1.66l0.589,-1.59l1.08,-1.5l1.33,-1.25l1.5,-1.001l2.67,-0.909l0.92,-0.095l1,0.095l0.33,0.083l1.75,0.75l1.25,1.079l1.079,1.34l0.67,1.58l0.33,1.67l0.094,1.66l0,28.079l12.91,0l-12.91,0l12.91,0l-0,-28.159l-0.083,-2.75l-0.499,-2.67l-0.75,-2.58l-1.091,-2.5l-1.416,-2.171Z" style="fill:#010001;fill-rule:nonzero;"/></g></g><g><g><rect id="path16781" serif:id="path1678" x="132.192" y="236.232" width="51.505" height="94.488" style="fill:#fff;"/><path id="path16801" serif:id="path1680" d="M134.192,259.814l16.422,47.244l14.411,0l16.421,-47.244l-13.331,0l-10.251,29.663l-10.331,-29.663l-13.341,0Z" style="fill:#010001;fill-rule:nonzero;"/></g><g><g><rect id="path18061" serif:id="path1806" x="183.697" y="236.232" width="52.909" height="94.488" style="fill:#fff;"/><path id="path18081" serif:id="path1808" d="M209.196,258.642l-2.42,0.17l-2.41,0.41l-2.34,0.75l-2.25,1.09l-2.08,1.25l-2.25,1.66l-2.08,2l-1.75,2.25l-1.419,2.42l-1.171,3l-0.83,3.17l-0.5,3.16l-0.17,3.25l0.25,3.249l0.591,3.17l0.909,3.08l1.17,3l1.079,2.17l1.42,2l1.5,1.83l1.83,1.67l1.92,1.41l2.08,1.25l2.25,0.92l2.34,0.67l2.99,0.58l3.09,0.25l3.08,-0.083l3.08,-0.34l3,-0.66l2.34,-0.84l2.16,-1.079l2,-1.42l1.83,-1.67l1.67,-1.83l-8,-8.08l-1.83,1.67l-2.08,1.33l-2.25,1l-2.17,0.58l-2.17,0.17l-2.16,-0.082l-2.17,-0.421l-2.08,-0.75l-1.42,-0.92l-1.25,-1.16l-1,-1.34l-0.75,-1.5l-0.41,-1.66l-0.17,-1.67l31.499,0l-0.17,-3.92l-0.42,-3.91l-0.831,-3.829l-1.17,-3.75l-1.08,-2.5l-1.42,-2.25l-1.659,-2.17l-2,-1.83l-2.17,-1.59l-2.08,-1.25l-2.25,-0.91l-2.42,-0.669l-2.42,-0.421l-2.408,-0.075Zm-0.25,10.75l1.66,-0l1.67,0.329l1.58,0.59l1.42,0.83l1.33,1.079l1.09,1.25l0.83,1.42l0.58,1.58l0.25,1.67l-19.159,0l0.25,-1.67l0.58,-1.58l0.84,-1.42l1.079,-1.25l1.33,-1.079l1.42,-0.83l1.58,-0.59l1.67,-0.329Z" style="fill:#010001;fill-rule:nonzero;"/></g><g><rect id="path18062" serif:id="path1806" x="402.832" y="236.232" width="52.909" height="94.488" style="fill:#fff;"/><path id="path18082" serif:id="path1808" d="M428.332,258.642l-2.42,0.17l-2.41,0.41l-2.34,0.75l-2.25,1.09l-2.08,1.25l-2.25,1.66l-2.08,2l-1.75,2.25l-1.42,2.42l-1.17,3l-0.83,3.17l-0.5,3.16l-0.17,3.25l0.25,3.249l0.591,3.17l0.909,3.08l1.17,3l1.079,2.17l1.42,2l1.5,1.83l1.83,1.67l1.92,1.41l2.08,1.25l2.25,0.92l2.34,0.67l2.99,0.58l3.09,0.25l3.08,-0.083l3.08,-0.34l3,-0.66l2.339,-0.84l2.16,-1.079l2,-1.42l1.83,-1.67l1.67,-1.83l-7.999,-8.08l-1.83,1.67l-2.08,1.33l-2.25,1l-2.17,0.58l-2.17,0.17l-2.16,-0.082l-2.17,-0.421l-2.08,-0.75l-1.42,-0.92l-1.25,-1.16l-1,-1.34l-0.75,-1.5l-0.41,-1.66l-0.17,-1.67l31.499,0l-0.17,-3.92l-0.421,-3.91l-0.83,-3.829l-1.17,-3.75l-1.08,-2.5l-1.42,-2.25l-1.66,-2.17l-2,-1.83l-2.17,-1.59l-2.08,-1.25l-2.25,-0.91l-2.42,-0.669l-2.419,-0.421l-2.408,-0.075Zm-0.25,10.75l1.659,-0l1.67,0.329l1.58,0.59l1.42,0.83l1.33,1.079l1.09,1.25l0.831,1.42l0.58,1.58l0.25,1.67l-19.159,0l0.25,-1.67l0.58,-1.58l0.84,-1.42l1.079,-1.25l1.33,-1.079l1.42,-0.83l1.58,-0.59l1.67,-0.329Z" style="fill:#010001;fill-rule:nonzero;"/></g><g><rect id="path1742" x="372.083" y="236.232" width="30.749" height="94.488" style="fill:#fff;"/><path id="path1744" d="M399.002,295.471l-2.499,0.33l-2.5,0.094l-0.92,-0.094l-0.75,-0.41l-0.661,-0.67l-0.42,-0.75l-0.17,-0.92l-0,-52.069l-12.91,0l0,57.319l0.161,1.75l0.499,1.67l0.75,1.58l1.001,1.5l1.25,1.25l1.42,1l1.67,0.67l1.66,0.5l1.75,0.17l4.079,-0.341l4,-0.499l4,-0.75l-1.41,-11.33Z" style="fill:#010001;fill-rule:nonzero;"/></g><g><rect id="path17902" serif:id="path1790" x="293.674" y="236.232" width="26.92" height="94.488" style="fill:#fff;"/><path id="path17922" serif:id="path1792" d="M306.424,240.482l-1.42,0.16l-1.41,0.42l-1.25,0.67l-1.17,0.909l-0.92,1.171l-0.66,1.25l-0.421,1.42l-0.17,1.41l0.17,1.42l0.421,1.42l0.66,1.33l0.92,1.079l1.17,0.92l1.25,0.661l1.41,0.42l1.42,0.17l1.42,-0.17l1.41,-0.42l1.25,-0.661l1.171,-0.92l0.92,-1.079l0.66,-1.33l0.42,-1.42l0.171,-1.42l-0.171,-1.41l-0.42,-1.42l-0.66,-1.25l-0.92,-1.171l-1.171,-0.909l-1.25,-0.67l-1.41,-0.42l-1.42,-0.16Zm-6.5,19.41l0,47.239l12.92,-0l0,-47.239l-12.92,-0Z" style="fill:#010001;fill-rule:nonzero;"/></g><g><rect id="path1794" x="236.606" y="236.232" width="57.069" height="94.488" style="fill:#fff;"/><path id="path1796" d="M272.095,274.142l-1.001,-1.42l-1.25,-1.08l-1.75,-0.75l-1.909,-0.329l-1.92,0.082l-1.83,0.421l-1.84,0.66l-1.5,1l-1.33,1.25l-1.001,1.5l-0.669,1.59l-0.161,1.66l-0,28.42l-12.92,-0l0,-66.159l12.92,-0l-0,22.24l1.91,-1.5l2,-1.16l2.25,-0.92l2.34,-0.67l2.33,-0.25l2.42,-0l2.75,0.499l2.41,0.84l2.33,1.16l2.09,1.42l1.91,1.67l1.67,1.91l1.419,2.17l1.08,2.5l0.75,2.579l0.42,2.67l0.161,2.75l0,28.25l-12.91,-0l12.91,-0l-12.91,-0l0,-28.17l-0.094,-1.66l-0.41,-1.67l-0.665,-1.503Z" style="fill:#010001;fill-rule:nonzero;"/></g><g><rect id="path17981" serif:id="path1798" x="320.594" y="236.232" width="51.489" height="94.488" style="fill:#fff;"/><path id="path18001" serif:id="path1800" d="M338.004,290.301l0.669,1.5l1.171,1.84l1.5,1.66l1.75,1.25l2.08,0.84l1.83,0.25l1.92,-0.25l2,-0.84l1.749,-1.25l1.5,-1.66l1.25,-1.84l1.001,-2.66l12,4.5l-0.251,0.5l-1.17,2.75l-1.5,2.5l-1.75,2.25l-2.08,2.08l-2.34,1.75l-2.33,1.25l-2.33,0.92l-2.5,0.75l-2.59,0.41l-2.58,0.17l-2.58,-0.17l-2.5,-0.41l-2.5,-0.75l-2.42,-0.92l-2.25,-1.25l-2.33,-1.75l-2.08,-2.08l-1.839,-2.25l-1.5,-2.5l-1.16,-2.75l-0.17,-0.5l-0.831,-3.34l-0.499,-3.41l-0.17,-3.42l0.17,-3.41l0.499,-3.339l0.831,-3.33l0.17,-0.58l1.16,-2.67l1.5,-2.5l1.839,-2.33l2.08,-2l2.33,-1.84l2.25,-1.16l2.42,-1l2.5,-0.67l2.5,-0.5l2.58,-0.17l2.58,0.17l2.59,0.5l2.5,0.67l2.33,1l2.33,1.16l2.34,1.84l2.08,2l1.75,2.33l1.5,2.5l1.17,2.67l0.251,0.58l-12,4.419l-1.001,-2.669l-1.25,-1.83l-1.5,-1.59l-1.749,-1.25l-2,-0.831l-1.92,-0.25l-1.83,0.25l-2.08,0.831l-1.75,1.25l-1.5,1.59l-1.171,1.83l-0.669,1.58l-0.5,1.589l-0.25,2.58l-0.161,2.58l0.161,2.67l0.25,2.58l0.5,1.58Z" style="fill:#010001;fill-rule:nonzero;"/></g><g><rect id="path1674" x="455.741" y="236.232" width="48.164" height="94.488" style="fill:#fff;"/><path id="path1676" d="M468.493,292.897l2,1.58l2.16,1.251l2.34,1l2.41,0.67l2.501,0.33l2.25,-0l1.59,-0.581l1.33,-0.919l0.75,-0.75l0.5,-1l0.081,-1.081l-0.251,-1.09l-0.58,-0.91l-0.83,-0.67l-3.25,-1.25l-3.34,-0.671l-3,-0.5l-4.081,-1l-2,-0.66l-1.83,-1l-1.67,-1.25l-1.5,-1.42l-1.251,-1.58l-1.08,-1.75l-0.67,-2.091l-0.41,-2.16l0,-2.17l0.25,-2.16l0.58,-2.17l0.921,-1.921l1.25,-1.83l1.41,-1.58l1.59,-1.42l1.83,-1.17l1.91,-0.911l2.09,-0.59l3.001,-0.659l3,-0.341l3.08,0l3.081,0.25l3.09,0.59l2.5,0.749l2.41,1l2.34,1.331l2.241,1.42l2,1.75l-7.991,8.49l-2.25,-1.83l-2.5,-1.5l-2.671,-1.16l-1.5,-0.419l-1.58,-0.25l-1.59,0l-1.66,0.42l-1.5,0.75l-1.34,1l-0.66,0.83l-0.34,0.919l0.089,1.081l0.331,0.91l0.58,0.841l1,0.58l5.5,1.081l5.001,0.67l1.92,0.33l0.08,0l1.92,0.67l1.83,0.83l1.841,1.09l1.66,1.41l1.42,1.591l1.16,1.75l0.84,1.91l0.581,2.09l0.33,2.08l-0.083,2.17l-0.33,2.081l-0.67,2.08l-1.081,2.09l-1.34,1.91l-1.58,1.75l-1.83,1.5l-2.001,1.171l-3.25,1l-3.33,0.66l-3.42,0.34l-3.331,0l-3.42,-0.34l-3.33,-0.66l-3.001,-0.92l-2.92,-1.25l-2.66,-1.58l-2.5,-1.84l-2.34,-2.16l9.42,-8.671l1.753,1.839Z" style="fill:#010001;fill-rule:nonzero;"/></g></g></g></g></g></svg>