<?xml version="1.0" encoding="UTF-8" standalone="no"?><!DOCTYPE svg PUBLIC "-//W3C//DTD SVG 1.1//EN" "http://www.w3.org/Graphics/SVG/1.1/DTD/svg11.dtd"><svg width="100%" height="100%" viewBox="0 0 622 378" version="1.1" xmlns="http://www.w3.org/2000/svg" xmlns:xlink="http://www.w3.org/1999/xlink" xml:space="preserve" xmlns:serif="http://www.serif.com/" style="fill-rule:evenodd;clip-rule:evenodd;stroke-linejoin:round;stroke-miterlimit:2;"><g transform="matrix(50,0,0,50,384.116,206.628)"></g><text x="238.193px" y="206.628px" style="font-family:'ArialMT', 'Arial', sans-serif;font-size:50px;">sw=32</text><rect id="_1.-Play-street-except-for-access" serif:id="1. Play street except for access" x="0" y="0" width="621.21" height="377.953" style="fill:none;"/><g id="_1.-Play-street-except-for-access1" serif:id="1. Play street except for access"><path d="M621.21,35.433c0,-19.556 -15.877,-35.433 -35.433,-35.433l-550.344,0c-19.556,0 -35.433,15.877 -35.433,35.433l0,307.087c0,19.556 15.877,35.433 35.433,35.433l550.344,-0c19.556,-0 35.433,-15.877 35.433,-35.433l0,-307.087Z"/><path d="M603.494,35.433c-0,-9.778 -7.939,-17.716 -17.717,-17.716l-550.344,-0c-9.778,-0 -17.716,7.938 -17.716,17.716l-0,307.087c-0,9.778 7.938,17.716 17.716,17.716l550.344,0c9.778,0 17.717,-7.938 17.717,-17.716l-0,-307.087Z" style="fill:#fff;"/><g><g><g><rect id="path1786" x="386.486" y="47.244" width="41.079" height="94.488" style="fill:#fff;"/><path id="path1788" d="M405.985,118.063l-12.92,-0l0,-47.159l12.92,-0l0,4.67l1.58,-1.59l1.75,-1.33l2,-1.171l2.17,-0.75l2.16,-0.499l2.25,-0.161l3.17,-0l-0,12.25l-4.42,-0l-1.83,0.159l-1.83,0.5l-1.67,0.84l-1.58,1.079l-1.25,1.25l-1.079,1.58l-0.84,1.67l-0.5,1.83l-0.082,1.84l0.001,24.992Z" style="fill:#010001;fill-rule:nonzero;"/></g><g><rect id="path1806" x="427.565" y="47.244" width="52.909" height="94.488" style="fill:#fff;"/><path id="path1808" d="M453.064,69.654l-2.42,0.17l-2.41,0.41l-2.34,0.75l-2.25,1.09l-2.08,1.25l-2.25,1.66l-2.079,2l-1.75,2.25l-1.42,2.42l-1.171,3l-0.83,3.169l-0.5,3.16l-0.17,3.25l0.251,3.25l0.59,3.17l0.91,3.08l1.169,3l1.079,2.17l1.42,2l1.5,1.83l1.83,1.67l1.92,1.41l2.08,1.25l2.25,0.92l2.34,0.67l2.99,0.58l3.09,0.25l3.08,-0.083l3.08,-0.34l3,-0.66l2.34,-0.84l2.16,-1.079l2,-1.42l1.83,-1.67l1.67,-1.83l-8,-8.08l-1.83,1.67l-2.08,1.33l-2.25,1l-2.17,0.58l-2.17,0.17l-2.16,-0.083l-2.17,-0.42l-2.08,-0.75l-1.42,-0.92l-1.25,-1.16l-1,-1.34l-0.75,-1.5l-0.41,-1.66l-0.17,-1.67l31.499,0l-0.17,-3.92l-0.42,-3.91l-0.831,-3.83l-1.17,-3.75l-1.08,-2.5l-1.42,-2.25l-1.659,-2.169l-2,-1.83l-2.17,-1.59l-2.08,-1.25l-2.25,-0.91l-2.42,-0.669l-2.42,-0.421l-2.408,-0.075Zm-0.25,10.749l1.66,0l1.67,0.33l1.58,0.589l1.42,0.831l1.33,1.079l1.09,1.25l0.83,1.42l0.58,1.58l0.25,1.67l-19.159,0l0.25,-1.67l0.58,-1.58l0.84,-1.42l1.079,-1.25l1.33,-1.079l1.42,-0.831l1.58,-0.589l1.67,-0.33Z" style="fill:#010001;fill-rule:nonzero;"/></g><g><rect id="path18061" serif:id="path1806" x="480.474" y="47.244" width="52.909" height="94.488" style="fill:#fff;"/><path id="path18081" serif:id="path1808" d="M505.973,69.654l-2.42,0.17l-2.41,0.41l-2.34,0.75l-2.25,1.09l-2.08,1.25l-2.25,1.66l-2.079,2l-1.75,2.25l-1.42,2.42l-1.171,3l-0.83,3.169l-0.5,3.16l-0.17,3.25l0.251,3.25l0.59,3.17l0.91,3.08l1.169,3l1.079,2.17l1.42,2l1.5,1.83l1.83,1.67l1.92,1.41l2.08,1.25l2.25,0.92l2.34,0.67l2.99,0.58l3.09,0.25l3.08,-0.083l3.08,-0.34l3,-0.66l2.34,-0.84l2.16,-1.079l2,-1.42l1.83,-1.67l1.67,-1.83l-8,-8.08l-1.83,1.67l-2.08,1.33l-2.25,1l-2.17,0.58l-2.17,0.17l-2.16,-0.083l-2.17,-0.42l-2.08,-0.75l-1.42,-0.92l-1.25,-1.16l-1,-1.34l-0.75,-1.5l-0.41,-1.66l-0.17,-1.67l31.499,0l-0.17,-3.92l-0.42,-3.91l-0.831,-3.83l-1.17,-3.75l-1.08,-2.5l-1.419,-2.25l-1.66,-2.169l-2,-1.83l-2.17,-1.59l-2.08,-1.25l-2.25,-0.91l-2.42,-0.669l-2.42,-0.421l-2.408,-0.075Zm-0.25,10.749l1.66,0l1.67,0.33l1.58,0.589l1.42,0.831l1.33,1.079l1.09,1.25l0.83,1.42l0.58,1.58l0.25,1.67l-19.159,0l0.25,-1.67l0.58,-1.58l0.84,-1.42l1.079,-1.25l1.33,-1.079l1.42,-0.831l1.58,-0.589l1.67,-0.33Z" style="fill:#010001;fill-rule:nonzero;"/></g><g id="S"><rect id="path1618" x="276.083" y="47.244" width="69.819" height="94.488" style="fill:#fff;"/><path id="path1620" d="M317.572,92.653l1.5,0.58l1.25,0.84l1.08,1.16l0.75,1.34l0.42,1.41l0.083,1.59l-0.25,1.5l-0.661,1.41l-0.92,1.25l-1.42,1.17l-1.579,0.909l-1.751,0.67l-1.829,0.33l-4.5,-0l-2.58,-0.33l-2.5,-0.499l-2.42,-0.831l-2.42,-1.079l-2.83,-1.84l-2.67,-2l-2.41,-2.33l-11.5,8.83l2.42,2.5l2.58,2.33l2.75,2.09l2.91,1.83l3.17,1.5l3.58,1.17l3.75,0.83l3.75,0.58l3.75,0.251l3.83,-0.083l3.75,-0.33l3.749,-0.669l3.67,-1.001l2.5,-1l2.33,-1.33l2.17,-1.67l1.92,-1.92l1.66,-2.16l1.34,-2.34l0.99,-2.49l0.67,-2.67l0.25,-2.67l-0.083,-2.66l-0.42,-2.75l-0.75,-2.59l-1.16,-2.409l-1.5,-2l-1.75,-1.75l-1.84,-1.59l-2.08,-1.41l-2.17,-1.171l-2.08,-0.83l-2.17,-0.67l-15.489,-3.83l-1.091,-0.42l-1,-0.66l-0.83,-0.92l-0.67,-1.001l-0.33,-1.079l-0.17,-1.17l0.095,-1.17l0.41,-1.16l0.589,-1l1.33,-1.34l1.5,-1.001l1.75,-0.75l1.83,-0.41l1.84,-0.17l2.74,0.17l2.67,0.41l2.67,0.75l2.5,0.92l2.41,1.25l2.34,1.5l2.08,1.75l10.249,-9.33l-2.749,-2.419l-2.92,-2.081l-3.16,-1.839l-3.25,-1.58l-3.42,-1.16l-3.58,-0.92l-3.59,-0.5l-3.66,-0.17l-3.58,0.17l-3.59,0.5l-3.58,0.92l-2.58,1l-2.42,1.24l-2.25,1.59l-2.08,1.83l-1.84,2l-1.41,2l-1.09,2.17l-0.83,2.25l-0.58,2.33l-0.17,2.42l0.083,2.41l0.42,2.42l0.75,2.25l1,2.25l1.25,2l1.58,1.91l1.75,1.59l2.5,1.659l2.75,1.171l2.92,0.75l15.574,3.502Z" style="fill:#010001;fill-rule:nonzero;"/></g><g><rect id="path1670" x="345.902" y="47.244" width="40.584" height="94.488" style="fill:#fff;"/><path id="path1672" d="M375.905,107.819l2.41,-0.41l2.34,-0.67l2.83,10.751l-3.5,1l-3.58,0.66l-3.591,0.34l-3.66,0.083l-3.59,-0.33l-1.75,-0.34l-1.741,-0.75l-1.5,-1l-1.34,-1.25l-1.08,-1.41l-0.751,-1.671l-0.5,-1.75l-0.17,-1.83l-0,-28.002l-7.581,-0l-0,-10.751l7.581,-0l-0,-14.742l12.921,-3.75l-0,18.492l12.001,-0l-0,10.751l-12.001,-0l-0,23.002l0.082,1l0.42,0.92l0.581,0.75l0.829,0.581l0.92,0.419l0.92,0.083l2.5,-0.176Z" style="fill:#010001;fill-rule:nonzero;"/></g><g><rect id="path16701" serif:id="path1670" x="533.383" y="47.244" width="40.584" height="94.488" style="fill:#fff;"/><path id="path16721" serif:id="path1672" d="M563.385,107.819l2.411,-0.41l2.34,-0.67l2.83,10.751l-3.5,1l-3.581,0.66l-3.59,0.34l-3.66,0.083l-3.591,-0.33l-1.75,-0.34l-1.74,-0.75l-1.5,-1l-1.34,-1.25l-1.081,-1.41l-0.75,-1.671l-0.5,-1.75l-0.171,-1.83l0,-28.002l-7.58,-0l-0,-10.751l7.58,-0l0,-14.742l12.921,-3.75l0,18.492l12.002,-0l-0,10.751l-12.002,-0l0,23.002l0.083,1l0.42,0.92l0.58,0.75l0.83,0.581l0.92,0.419l0.92,0.083l2.499,-0.176Z" style="fill:#010001;fill-rule:nonzero;"/></g></g><g><g><rect id="path1742" x="111.483" y="47.244" width="30.749" height="94.488" style="fill:#fff;"/><path id="path1744" d="M138.402,106.483l-2.5,0.33l-2.5,0.094l-0.92,-0.094l-0.75,-0.41l-0.66,-0.67l-0.42,-0.75l-0.17,-0.92l-0,-52.069l-12.91,-0l-0,57.319l0.161,1.75l0.499,1.67l0.75,1.58l1.001,1.5l1.249,1.25l1.421,1l1.669,0.67l1.66,0.499l1.75,0.17l4.08,-0.34l4,-0.499l4,-0.75l-1.41,-11.33Z" style="fill:#010001;fill-rule:nonzero;"/></g><g><rect id="path1698" x="142.232" y="47.244" width="53.329" height="94.488" style="fill:#fff;"/><path id="path1700" d="M167.062,68.994l-3.08,0.16l-3,0.58l-3.75,1.09l-3.67,1.41l-3.5,1.67l-3.41,1.92l6.33,9.66l2.58,-1.58l2.67,-1.25l2.83,-1l2.92,-0.75l3,-0.421l1.66,-0.082l1.75,0.329l1.58,0.589l0.92,0.58l0.75,0.831l0.499,0.92l0.17,1.079l0,3l-4.169,0.17l-4.08,0.5l-4.08,0.75l-4,1.08l-3.92,1.419l-1.66,1.001l-1.59,1.25l-1.42,1.5l-1.16,1.58l-0.92,1.83l-0.66,1.92l-0.34,2l-0.083,2l0.17,2l0.49,1.92l0.76,1.91l1,1.749l1.24,1.59l1.42,1.41l1.67,1.171l2.41,1.16l2.59,0.92l2.75,0.589l2.75,0.33l2.75,-0.083l2.66,-0.34l2.67,-0.66l1.42,-0.67l1.33,-0.83l1.079,-1.001l0.92,-1.25l1.001,1.33l1.249,1.001l1.42,0.75l2.58,1l2.66,0.58l2.75,0.329l4.59,-10.079l-1.09,-0l-1.08,-0.16l-1.079,-0.499l-0.84,-0.67l-0.66,-0.92l-0.421,-1.001l-0.17,-1.159l0,-22.33l-0.16,-1.84l-0.421,-1.83l-0.75,-1.67l-0.92,-1.58l-1.25,-1.5l-1.41,-1.17l-1.59,-1.001l-2.25,-0.99l-2.41,-0.839l-2.919,-0.831l-3.08,-0.42l-2.996,-0.151Zm7.25,28.069l-0,6.75l-0.171,1.25l-0.579,1.17l-0.75,1.001l-1.091,0.75l-1.159,0.42l-2.33,0.33l-2.34,-0l-2.33,-0.33l-1.171,-0.42l-1,-0.75l-0.83,-0.92l-0.58,-1.08l-0.34,-1.079l-0,-1.171l0.34,-1.17l0.58,-0.911l0.83,-0.84l1,-0.58l3.92,-1l2.28,-0.47l1.72,-0.36l4.001,-0.59Z" style="fill:#010001;fill-rule:nonzero;"/></g><g><rect id="path1762" x="195.561" y="47.244" width="50.995" height="94.488" style="fill:#fff;"/><path id="path1764" d="M209.472,133.402l-4.58,-0.411l-4.5,-0.749l1.58,-11.341l6.67,0.92l1.081,-0.083l1,-0.341l1,-0.58l0.751,-0.75l0.5,-0.919l0.34,-1.081l0,-1.079l-0.17,-1.09l-16.161,-45.074l12.991,-0l10.251,28.582l10.251,-28.582l13.081,-0l-20.082,55.995l-0.75,1.58l-1.001,1.5l-1.25,1.25l-1.41,1l-1.59,0.75l-1.75,0.419l-1.75,0.171l-4.502,-0.087Z" style="fill:#010001;fill-rule:nonzero;"/></g><g id="P"><rect id="path1606" x="47.244" y="47.244" width="64.239" height="94.488" style="fill:#fff;"/><path id="path1608" d="M58.584,51.994l-0,66.159l13.49,-0l-0,-23.33l14.999,0l2.58,-0.17l2.59,-0.5l2.41,-0.83l2.34,-1.17l2.25,-1.42l1.91,-1.66l1.75,-1.92l1.5,-2.16l1.169,-2.17l1.001,-2.25l0.75,-2.33l0.42,-2.42l0.083,-2.42l-0.083,-2.41l-0.42,-2.42l-0.75,-2.33l-1.001,-2.25l-1.169,-2.17l-1.5,-2.17l-1.75,-1.91l-1.91,-1.67l-2.25,-1.42l-2.34,-1.159l-2.41,-0.831l-2.59,-0.51l-2.58,-0.161l-28.489,0.002Zm13.49,12.25l13.419,-0l1.66,0.159l1.59,0.5l1.5,0.75l1.33,1l1.08,1.34l0.84,1.41l0.579,1.59l0.251,1.66l-0,1.59l-0.251,1.66l-0.579,1.5l-0.84,1.5l-1.08,1.25l-1.33,1l-1.5,0.75l-1.59,0.5l-1.66,0.17l-13.419,0l-0,-18.329Z" style="fill:#010001;fill-rule:nonzero;"/></g></g></g><g><g><rect id="path17861" serif:id="path1786" x="412.272" y="153.543" width="134.567" height="94.488" style="fill:#fff;"/><path id="path17881" serif:id="path1788" d="M476.851,175.293l-2.59,0.16l-2.5,0.421l-2.5,0.75l-2.41,0.92l-2.25,1.24l-2.34,1.75l-2.08,2.09l-1.83,2.25l-1.499,2.58l-1.171,2.67l-0.161,0.499l-0.839,3.33l-0.5,3.42l-0.17,3.41l0.17,3.42l0.5,3.41l0.839,3.25l0.161,0.591l1.171,2.66l1.499,2.499l1.83,2.34l2.08,2.08l2.34,1.75l2.25,1.16l2.41,1.01l2.5,0.739l2.5,0.421l2.59,0.17l2.58,-0.17l2.58,-0.421l2.5,-0.739l2.42,-1.01l2.25,-1.16l2.33,-1.75l2.08,-2.08l1.84,-2.34l1.5,-2.499l1.16,-2.66l0.17,-0.591l0.83,-3.25l0.5,-3.41l0.094,-3.42l-0.094,-3.41l-0.5,-3.42l-0.83,-3.33l-0.17,-0.499l-1.16,-2.67l-1.5,-2.58l-1.84,-2.25l-2.08,-2.09l-2.33,-1.75l-2.25,-1.24l-2.42,-0.92l-2.5,-0.75l-2.58,-0.421l-2.58,-0.16Zm-41.159,1.58l9.16,-0l-0,10.66l-9.16,-0l0,36.919l-12.92,-0l0,-36.919l-7.58,-0l0,-10.66l7.58,-0l0,-6.92l0.17,-1.91l0.41,-1.92l0.84,-1.75l1,-1.67l1.33,-1.41l1.5,-1.25l1.67,-1l1.83,-0.67l1.92,-0.329l3.66,-0.095l3.67,0.17l3.58,0.421l3.58,0.75l-2.33,10.499l-3,-0.34l-3.17,0l-0.909,0.095l-0.92,0.41l-0.831,0.59l-0.58,0.75l-0.42,0.911l-0.095,1l0.015,3.668Zm89.568,47.489l-12.92,-0l0,-47.159l12.92,-0l0,4.67l1.58,-1.59l1.75,-1.33l2,-1.171l2.17,-0.75l2.16,-0.499l2.25,-0.161l3.17,0l-0,12.25l-4.42,-0l-1.83,0.159l-1.83,0.5l-1.67,0.84l-1.58,1.079l-1.25,1.25l-1.079,1.58l-0.84,1.67l-0.5,1.83l-0.082,1.84l0.001,24.992Zm-48.409,-37.739l1.91,0.25l2,0.83l1.75,1.33l1.5,1.59l1.25,1.83l0.67,1.5l0.42,1.58l0.33,2.67l0.082,2.58l-0.082,2.58l-0.33,2.67l-0.42,1.58l-0.67,1.5l-1.25,1.84l-1.5,1.58l-1.75,1.33l-2,0.75l-1.91,0.34l-1.84,-0.34l-2,-0.75l-1.83,-1.33l-1.5,-1.58l-1.17,-1.84l-0.66,-1.5l-0.421,-1.58l-0.329,-2.67l-0.17,-2.58l0.17,-2.58l0.329,-2.67l0.421,-1.58l0.66,-1.5l1.17,-1.83l1.5,-1.59l1.83,-1.33l2,-0.83l1.84,-0.25Z" style="fill:#010001;fill-rule:nonzero;"/></g><g><g><rect id="path1706" x="284.592" y="153.543" width="57.569" height="94.488" style="fill:#fff;"/><path id="path1708" d="M315.002,175.203l-2.5,0.25l-2.5,0.58l-2.33,0.84l-2.33,1.16l-2.09,1.34l-0,-2.17l-12.91,-0l0,61.329l12.91,-0l-0,-17.33l1.59,1.41l1.75,1.079l1.91,0.84l2.84,0.75l2.99,0.41l2.92,-0l2.92,-0.33l2.83,-0.75l2.75,-1.079l2.33,-1.42l2.169,-1.83l1.83,-2l1.5,-2.33l1.171,-2.42l1.17,-3.25l0.74,-3.33l0.499,-3.42l0.095,-3.41l-0.17,-3.51l-0.58,-3.33l-0.92,-3.33l-1.16,-3.249l-0.92,-1.83l-1.08,-1.75l-1.34,-1.5l-1.91,-1.75l-2.09,-1.5l-2.159,-1.171l-2.42,-1l-2.42,-0.58l-2.49,-0.421l-2.595,0.002Zm-1.92,11.42l2,0.082l1.84,0.421l1.83,0.83l1.58,1.08l1.09,1l0.909,1.34l0.75,1.66l0.67,2.5l0.5,2.67l0.082,2.58l-0.159,2.67l-0.5,2.58l-0.75,2.58l-0.75,1.42l-1,1.25l-1.25,1.079l-1.34,0.84l-1.5,0.5l-1.91,0.499l-1.92,0.161l-1.83,-0.251l-1.84,-0.58l-1.74,-0.83l-1.5,-1.17l-1.26,-1.5l-0.739,-1.001l-0.591,-1.079l-0.329,-1.25l-0.17,-1.25l-0,-10.25l0.25,-1.58l0.589,-1.5l0.911,-1.42l1.09,-1.17l1.5,-1.16l1.74,-0.92l1.84,-0.58l1.907,-0.251Z" style="fill:#010001;fill-rule:nonzero;"/></g><g><rect id="path18062" serif:id="path1806" x="74.371" y="153.543" width="52.909" height="94.488" style="fill:#fff;"/><path id="path18082" serif:id="path1808" d="M99.87,175.953l-2.42,0.17l-2.41,0.41l-2.34,0.75l-2.25,1.09l-2.08,1.25l-2.249,1.66l-2.08,2l-1.75,2.25l-1.42,2.42l-1.171,3l-0.83,3.17l-0.5,3.16l-0.17,3.25l0.251,3.249l0.59,3.17l0.91,3.08l1.169,3l1.079,2.17l1.42,2l1.5,1.83l1.83,1.67l1.92,1.41l2.08,1.25l2.25,0.92l2.34,0.67l2.99,0.58l3.09,0.25l3.08,-0.083l3.08,-0.34l3,-0.66l2.34,-0.84l2.16,-1.079l2,-1.42l1.83,-1.67l1.67,-1.83l-8,-8.08l-1.83,1.67l-2.08,1.33l-2.25,1l-2.17,0.58l-2.17,0.17l-2.16,-0.082l-2.17,-0.421l-2.08,-0.75l-1.42,-0.92l-1.25,-1.16l-1,-1.34l-0.75,-1.5l-0.41,-1.66l-0.17,-1.67l31.499,0l-0.17,-3.92l-0.42,-3.91l-0.831,-3.829l-1.17,-3.75l-1.08,-2.5l-1.419,-2.25l-1.66,-2.17l-2,-1.83l-2.17,-1.59l-2.08,-1.25l-2.25,-0.91l-2.42,-0.669l-2.42,-0.421l-2.408,-0.075Zm-0.25,10.75l1.66,-0l1.67,0.329l1.58,0.59l1.42,0.83l1.33,1.079l1.09,1.25l0.83,1.42l0.58,1.58l0.25,1.67l-19.159,0l0.25,-1.67l0.58,-1.58l0.84,-1.42l1.079,-1.25l1.33,-1.079l1.42,-0.83l1.58,-0.59l1.67,-0.329Z" style="fill:#010001;fill-rule:nonzero;"/></g><g><rect id="path18063" serif:id="path1806" x="231.683" y="153.543" width="52.909" height="94.488" style="fill:#fff;"/><path id="path18083" serif:id="path1808" d="M257.183,175.953l-2.42,0.17l-2.41,0.41l-2.34,0.75l-2.25,1.09l-2.08,1.25l-2.25,1.66l-2.08,2l-1.75,2.25l-1.42,2.42l-1.17,3l-0.831,3.17l-0.499,3.16l-0.17,3.25l0.25,3.249l0.591,3.17l0.909,3.08l1.169,3l1.08,2.17l1.42,2l1.5,1.83l1.83,1.67l1.92,1.41l2.08,1.25l2.25,0.92l2.34,0.67l2.99,0.58l3.09,0.25l3.08,-0.083l3.079,-0.34l3,-0.66l2.34,-0.84l2.16,-1.079l2,-1.42l1.83,-1.67l1.67,-1.83l-8,-8.08l-1.83,1.67l-2.079,1.33l-2.25,1l-2.17,0.58l-2.17,0.17l-2.16,-0.082l-2.17,-0.421l-2.08,-0.75l-1.42,-0.92l-1.25,-1.16l-1.001,-1.34l-0.75,-1.5l-0.409,-1.66l-0.17,-1.67l31.499,0l-0.17,-3.92l-0.421,-3.91l-0.83,-3.829l-1.17,-3.75l-1.08,-2.5l-1.42,-2.25l-1.66,-2.17l-2,-1.83l-2.17,-1.59l-2.08,-1.25l-2.25,-0.91l-2.42,-0.669l-2.42,-0.421l-2.407,-0.075Zm-0.251,10.75l1.66,-0l1.67,0.329l1.58,0.59l1.42,0.83l1.33,1.079l1.09,1.25l0.831,1.42l0.58,1.58l0.25,1.67l-19.16,0l0.251,-1.67l0.58,-1.58l0.839,-1.42l1.08,-1.25l1.33,-1.079l1.42,-0.83l1.58,-0.59l1.669,-0.329Z" style="fill:#010001;fill-rule:nonzero;"/></g><g><rect id="path1798" x="180.194" y="153.543" width="51.489" height="94.488" style="fill:#fff;"/><path id="path1800" d="M197.604,207.612l0.67,1.5l1.17,1.84l1.5,1.66l1.75,1.25l2.08,0.84l1.83,0.25l1.92,-0.25l2,-0.84l1.75,-1.25l1.5,-1.66l1.25,-1.84l1,-2.66l12,4.5l-0.251,0.5l-1.17,2.75l-1.5,2.5l-1.75,2.25l-2.08,2.08l-2.34,1.75l-2.33,1.25l-2.33,0.92l-2.5,0.75l-2.59,0.41l-2.58,0.17l-2.58,-0.17l-2.5,-0.41l-2.499,-0.75l-2.42,-0.92l-2.25,-1.25l-2.33,-1.75l-2.08,-2.08l-1.84,-2.25l-1.5,-2.5l-1.16,-2.75l-0.17,-0.5l-0.83,-3.34l-0.5,-3.41l-0.17,-3.42l0.17,-3.41l0.5,-3.339l0.83,-3.33l0.17,-0.58l1.16,-2.67l1.5,-2.5l1.84,-2.33l2.08,-2l2.33,-1.84l2.25,-1.16l2.42,-1l2.499,-0.67l2.5,-0.5l2.58,-0.17l2.58,0.17l2.59,0.5l2.5,0.67l2.33,1l2.33,1.16l2.34,1.84l2.08,2l1.75,2.33l1.5,2.5l1.17,2.67l0.251,0.58l-12,4.419l-1,-2.669l-1.25,-1.83l-1.5,-1.59l-1.75,-1.25l-2,-0.831l-1.92,-0.25l-1.83,0.25l-2.08,0.831l-1.75,1.25l-1.5,1.59l-1.17,1.83l-0.67,1.58l-0.5,1.589l-0.25,2.58l-0.161,2.58l0.161,2.67l0.25,2.58l0.5,1.58Z" style="fill:#010001;fill-rule:nonzero;"/></g><g><rect id="path1686" x="127.28" y="153.543" width="52.915" height="94.488" style="fill:#fff;"/><path id="path1688" d="M152.942,210.038l-9.581,14.331l-14.411,0l16.741,-25.082l-14.751,-22.162l14.421,0l7.581,11.331l7.501,-11.331l14.421,0l-14.751,22.162l16.751,25.082l-14.421,0l-9.501,-14.331Z" style="fill:#010001;fill-rule:nonzero;"/></g><g><rect id="path16702" serif:id="path1670" x="342.161" y="153.543" width="40.584" height="94.488" style="fill:#fff;"/><path id="path16722" serif:id="path1672" d="M372.164,214.119l2.41,-0.411l2.34,-0.67l2.831,10.751l-3.501,1l-3.58,0.66l-3.59,0.34l-3.661,0.083l-3.59,-0.33l-1.75,-0.34l-1.74,-0.75l-1.5,-1l-1.34,-1.25l-1.081,-1.41l-0.751,-1.67l-0.5,-1.75l-0.17,-1.831l-0,-28.002l-7.581,-0l0,-10.751l7.581,-0l-0,-14.741l12.921,-3.751l-0,18.492l12.001,-0l0,10.751l-12.001,-0l-0,23.002l0.083,1l0.419,0.92l0.581,0.75l0.83,0.581l0.92,0.42l0.919,0.082l2.5,-0.175Z" style="fill:#010001;fill-rule:nonzero;"/></g></g></g><g><g><rect id="path18064" serif:id="path1806" x="314.14" y="248.031" width="52.909" height="94.488" style="fill:#fff;"/><path id="path18084" serif:id="path1808" d="M339.64,270.441l-2.42,0.17l-2.41,0.41l-2.34,0.75l-2.25,1.09l-2.08,1.25l-2.25,1.66l-2.08,2l-1.75,2.25l-1.42,2.42l-1.17,3l-0.831,3.17l-0.499,3.16l-0.17,3.25l0.25,3.25l0.59,3.17l0.91,3.08l1.169,2.999l1.08,2.17l1.42,2l1.5,1.83l1.83,1.67l1.92,1.41l2.08,1.25l2.25,0.92l2.339,0.67l2.99,0.58l3.09,0.25l3.08,-0.082l3.08,-0.341l3,-0.66l2.34,-0.84l2.16,-1.079l2,-1.42l1.83,-1.67l1.67,-1.83l-8,-8.08l-1.83,1.67l-2.08,1.33l-2.25,1.001l-2.17,0.579l-2.17,0.171l-2.16,-0.083l-2.17,-0.421l-2.08,-0.75l-1.419,-0.92l-1.25,-1.16l-1.001,-1.34l-0.75,-1.499l-0.41,-1.661l-0.17,-1.669l31.5,-0l-0.17,-3.92l-0.421,-3.91l-0.83,-3.83l-1.171,-3.75l-1.079,-2.5l-1.42,-2.25l-1.66,-2.17l-2,-1.83l-2.17,-1.59l-2.08,-1.25l-2.25,-0.909l-2.42,-0.67l-2.42,-0.421l-2.407,-0.075Zm-0.251,10.75l1.66,-0l1.67,0.329l1.58,0.59l1.42,0.83l1.33,1.08l1.09,1.25l0.83,1.42l0.58,1.58l0.251,1.669l-19.16,0l0.251,-1.669l0.579,-1.58l0.84,-1.42l1.08,-1.25l1.33,-1.08l1.42,-0.83l1.58,-0.59l1.669,-0.329Z" style="fill:#010001;fill-rule:nonzero;"/></g><g><rect id="path17981" serif:id="path1798" x="211.162" y="248.031" width="51.489" height="94.488" style="fill:#fff;"/><path id="path18001" serif:id="path1800" d="M228.572,302.1l0.669,1.5l1.171,1.84l1.5,1.66l1.75,1.25l2.08,0.84l1.83,0.25l1.92,-0.25l2,-0.84l1.75,-1.25l1.5,-1.66l1.249,-1.84l1.001,-2.659l12,4.499l-0.251,0.5l-1.17,2.75l-1.5,2.5l-1.75,2.25l-2.08,2.08l-2.34,1.75l-2.33,1.25l-2.33,0.92l-2.5,0.75l-2.59,0.41l-2.58,0.17l-2.58,-0.17l-2.5,-0.41l-2.5,-0.75l-2.42,-0.92l-2.25,-1.25l-2.33,-1.75l-2.08,-2.08l-1.839,-2.25l-1.5,-2.5l-1.16,-2.75l-0.17,-0.5l-0.831,-3.34l-0.499,-3.409l-0.17,-3.42l0.17,-3.41l0.499,-3.34l0.831,-3.33l0.17,-0.58l1.16,-2.67l1.5,-2.5l1.839,-2.33l2.08,-2l2.33,-1.84l2.25,-1.16l2.42,-1l2.5,-0.67l2.5,-0.5l2.58,-0.17l2.58,0.17l2.59,0.5l2.5,0.67l2.33,1l2.33,1.16l2.34,1.84l2.08,2l1.75,2.33l1.5,2.5l1.17,2.67l0.251,0.58l-12,4.42l-1.001,-2.67l-1.249,-1.83l-1.5,-1.59l-1.75,-1.25l-2,-0.83l-1.92,-0.251l-1.83,0.251l-2.08,0.83l-1.75,1.25l-1.5,1.59l-1.171,1.83l-0.669,1.58l-0.5,1.59l-0.25,2.58l-0.161,2.58l0.161,2.67l0.25,2.58l0.5,1.579Z" style="fill:#010001;fill-rule:nonzero;"/></g><g><rect id="path17982" serif:id="path1798" x="262.651" y="248.031" width="51.489" height="94.488" style="fill:#fff;"/><path id="path18002" serif:id="path1800" d="M280.061,302.1l0.669,1.5l1.171,1.84l1.5,1.66l1.75,1.25l2.08,0.84l1.83,0.25l1.92,-0.25l2,-0.84l1.749,-1.25l1.5,-1.66l1.25,-1.84l1.001,-2.659l12,4.499l-0.251,0.5l-1.17,2.75l-1.5,2.5l-1.75,2.25l-2.08,2.08l-2.34,1.75l-2.33,1.25l-2.33,0.92l-2.5,0.75l-2.59,0.41l-2.58,0.17l-2.58,-0.17l-2.5,-0.41l-2.5,-0.75l-2.42,-0.92l-2.25,-1.25l-2.33,-1.75l-2.08,-2.08l-1.839,-2.25l-1.5,-2.5l-1.16,-2.75l-0.17,-0.5l-0.831,-3.34l-0.499,-3.409l-0.17,-3.42l0.17,-3.41l0.499,-3.34l0.831,-3.33l0.17,-0.58l1.16,-2.67l1.5,-2.5l1.839,-2.33l2.08,-2l2.33,-1.84l2.25,-1.16l2.42,-1l2.5,-0.67l2.5,-0.5l2.58,-0.17l2.58,0.17l2.59,0.5l2.5,0.67l2.33,1l2.33,1.16l2.34,1.84l2.08,2l1.75,2.33l1.5,2.5l1.17,2.67l0.251,0.58l-12,4.42l-1.001,-2.67l-1.25,-1.83l-1.5,-1.59l-1.749,-1.25l-2,-0.83l-1.92,-0.251l-1.83,0.251l-2.08,0.83l-1.75,1.25l-1.5,1.59l-1.171,1.83l-0.669,1.58l-0.5,1.59l-0.25,2.58l-0.161,2.58l0.161,2.67l0.25,2.58l0.5,1.579Z" style="fill:#010001;fill-rule:nonzero;"/></g><g><rect id="path16981" serif:id="path1698" x="157.833" y="248.031" width="53.329" height="94.488" style="fill:#fff;"/><path id="path17001" serif:id="path1700" d="M182.663,269.781l-3.08,0.161l-3,0.58l-3.75,1.09l-3.67,1.41l-3.5,1.67l-3.41,1.92l6.33,9.659l2.58,-1.58l2.67,-1.249l2.83,-1.001l2.92,-0.75l3,-0.42l1.66,-0.083l1.75,0.33l1.58,0.589l0.92,0.58l0.75,0.83l0.499,0.92l0.17,1.08l0,3l-4.17,0.17l-4.079,0.499l-4.08,0.75l-4,1.08l-3.92,1.42l-1.66,1l-1.59,1.25l-1.42,1.5l-1.16,1.58l-0.92,1.83l-0.66,1.92l-0.341,2l-0.082,2l0.17,2l0.49,1.92l0.759,1.91l1.001,1.75l1.24,1.59l1.42,1.41l1.67,1.17l2.41,1.16l2.59,0.92l2.75,0.59l2.75,0.329l2.75,-0.083l2.659,-0.34l2.67,-0.66l1.42,-0.67l1.33,-0.83l1.08,-1l0.92,-1.25l1,1.33l1.25,1l1.42,0.75l2.58,1l2.66,0.58l2.75,0.33l4.59,-10.08l-1.09,-0l-1.08,-0.159l-1.079,-0.5l-0.84,-0.67l-0.66,-0.92l-0.421,-1l-0.17,-1.16l0,-22.33l-0.16,-1.84l-0.421,-1.83l-0.75,-1.67l-0.92,-1.579l-1.25,-1.5l-1.41,-1.171l-1.59,-1l-2.25,-0.99l-2.41,-0.84l-2.92,-0.83l-3.08,-0.421l-2.995,-0.151Zm7.249,28.07l0,6.749l-0.17,1.25l-0.58,1.171l-0.75,1l-1.09,0.75l-1.16,0.421l-2.33,0.329l-2.34,0l-2.329,-0.329l-1.171,-0.421l-1,-0.75l-0.831,-0.92l-0.579,-1.079l-0.341,-1.08l0,-1.17l0.341,-1.171l0.579,-0.91l0.831,-0.84l1,-0.58l3.92,-1.001l2.28,-0.47l1.72,-0.36l4,-0.589Z" style="fill:#010001;fill-rule:nonzero;"/></g><g><rect id="path1674" x="367.049" y="248.031" width="48.164" height="94.488" style="fill:#fff;"/><path id="path1676" d="M379.8,304.696l2,1.581l2.16,1.25l2.341,1l2.41,0.67l2.5,0.33l2.25,0l1.59,-0.58l1.331,-0.92l0.75,-0.75l0.5,-1l0.08,-1.08l-0.25,-1.09l-0.58,-0.911l-0.83,-0.67l-3.25,-1.25l-3.341,-0.671l-3,-0.5l-4.08,-1l-2,-0.66l-1.831,-1l-1.67,-1.25l-1.5,-1.42l-1.25,-1.58l-1.08,-1.75l-0.67,-2.09l-0.41,-2.161l-0,-2.17l0.25,-2.16l0.58,-2.17l0.92,-1.92l1.25,-1.831l1.41,-1.58l1.591,-1.42l1.83,-1.17l1.91,-0.911l2.09,-0.589l3,-0.66l3.001,-0.341l3.08,0l3.08,0.25l3.09,0.59l2.501,0.749l2.41,1l2.34,1.331l2.24,1.42l2,1.75l-7.99,8.491l-2.25,-1.83l-2.501,-1.501l-2.67,-1.159l-1.5,-0.42l-1.58,-0.25l-1.59,0l-1.661,0.42l-1.5,0.75l-1.34,1l-0.66,0.83l-0.34,0.92l0.09,1.08l0.33,0.91l0.58,0.841l1,0.58l5.501,1.081l5,0.67l1.92,0.33l0.081,0l1.92,0.671l1.83,0.829l1.84,1.09l1.66,1.411l1.421,1.59l1.159,1.75l0.841,1.91l0.58,2.09l0.33,2.08l-0.083,2.171l-0.329,2.08l-0.671,2.08l-1.08,2.09l-1.34,1.91l-1.581,1.75l-1.83,1.5l-2,1.171l-3.25,1l-3.331,0.66l-3.42,0.34l-3.33,0l-3.42,-0.34l-3.331,-0.66l-3,-0.92l-2.92,-1.25l-2.66,-1.58l-2.501,-1.84l-2.34,-2.16l9.421,-8.671l1.752,1.839Z" style="fill:#010001;fill-rule:nonzero;"/></g><g><rect id="path16741" serif:id="path1674" x="415.213" y="248.031" width="48.164" height="94.488" style="fill:#fff;"/><path id="path16761" serif:id="path1676" d="M427.964,304.696l2,1.581l2.161,1.25l2.34,1l2.41,0.67l2.5,0.33l2.25,0l1.591,-0.58l1.33,-0.92l0.75,-0.75l0.5,-1l0.08,-1.08l-0.25,-1.09l-0.58,-0.911l-0.83,-0.67l-3.25,-1.25l-3.341,-0.671l-3,-0.5l-4.08,-1l-2,-0.66l-1.83,-1l-1.671,-1.25l-1.5,-1.42l-1.25,-1.58l-1.08,-1.75l-0.67,-2.09l-0.41,-2.161l0,-2.17l0.25,-2.16l0.58,-2.17l0.92,-1.92l1.25,-1.831l1.411,-1.58l1.59,-1.42l1.83,-1.17l1.91,-0.911l2.09,-0.589l3,-0.66l3.001,-0.341l3.08,0l3.08,0.25l3.091,0.59l2.5,0.749l2.41,1l2.34,1.331l2.24,1.42l2,1.75l-7.99,8.491l-2.25,-1.83l-2.501,-1.501l-2.67,-1.159l-1.5,-0.42l-1.58,-0.25l-1.59,0l-1.66,0.42l-1.501,0.75l-1.34,1l-0.66,0.83l-0.34,0.92l0.09,1.08l0.33,0.91l0.58,0.841l1,0.58l5.501,1.081l5,0.67l1.92,0.33l0.081,0l1.92,0.671l1.83,0.829l1.84,1.09l1.661,1.411l1.42,1.59l1.159,1.75l0.841,1.91l0.58,2.09l0.33,2.08l-0.082,2.171l-0.33,2.08l-0.671,2.08l-1.08,2.09l-1.34,1.91l-1.58,1.75l-1.831,1.5l-2,1.171l-3.25,1l-3.33,0.66l-3.421,0.34l-3.33,0l-3.42,-0.34l-3.331,-0.66l-3,-0.92l-2.92,-1.25l-2.66,-1.58l-2.501,-1.84l-2.34,-2.16l9.421,-8.671l1.752,1.839Z" style="fill:#010001;fill-rule:nonzero;"/></g></g></g></svg>