<?xml version="1.0" encoding="UTF-8" standalone="no"?><!DOCTYPE svg PUBLIC "-//W3C//DTD SVG 1.1//EN" "http://www.w3.org/Graphics/SVG/1.1/DTD/svg11.dtd"><svg width="100%" height="100%" viewBox="0 0 632 178" version="1.1" xmlns="http://www.w3.org/2000/svg" xmlns:xlink="http://www.w3.org/1999/xlink" xml:space="preserve" xmlns:serif="http://www.serif.com/" style="fill-rule:evenodd;clip-rule:evenodd;stroke-linejoin:round;stroke-miterlimit:2;"><g transform="matrix(50,0,0,50,388.784,106.246)"></g><text x="242.861px" y="106.246px" style="font-family:'ArialMT', 'Arial', sans-serif;font-size:50px;">sw=15</text><rect id="_1.-No-vehicles" serif:id="1. No vehicles" x="0" y="0" width="631.181" height="177.165" style="fill:none;"/><clipPath id="_clip1"><rect x="0" y="0" width="631.181" height="177.165"/></clipPath><g clip-path="url(#_clip1)"><g><path d="M631.207,35.433c-0,-19.556 -15.878,-35.433 -35.434,-35.433l-560.34,0c-19.556,0 -35.433,15.877 -35.433,35.433l-0,106.299c-0,19.556 15.877,35.433 35.433,35.433l560.34,0c19.556,0 35.434,-15.877 35.434,-35.433l-0,-106.299Z"/><path d="M613.49,35.433c-0,-9.778 -7.939,-17.716 -17.717,-17.716l-560.34,-0c-9.778,-0 -17.716,7.938 -17.716,17.716l-0,106.299c-0,9.778 7.938,17.717 17.716,17.717l560.34,-0c9.778,-0 17.717,-7.939 17.717,-17.717l-0,-106.299Z" style="fill:#fff;"/><g><g><g><rect id="path1754" x="127.482" y="47.251" width="55.239" height="94.488" style="fill:#fff;"/><path id="path1756" d="M153.812,69l-2.59,0.161l-2.5,0.42l-2.5,0.75l-2.41,0.92l-2.25,1.24l-2.34,1.75l-2.08,2.09l-1.83,2.25l-1.5,2.58l-1.17,2.67l-0.161,0.5l-0.839,3.33l-0.5,3.42l-0.17,3.409l0.17,3.42l0.5,3.41l0.839,3.25l0.161,0.591l1.17,2.66l1.5,2.5l1.83,2.34l2.08,2.08l2.34,1.75l2.25,1.159l2.41,1.01l2.5,0.74l2.5,0.42l2.59,0.17l2.58,-0.17l2.58,-0.42l2.5,-0.74l2.42,-1.01l2.25,-1.159l2.33,-1.75l2.08,-2.08l1.84,-2.34l1.5,-2.5l1.159,-2.66l0.17,-0.591l0.831,-3.25l0.499,-3.41l0.095,-3.42l-0.095,-3.409l-0.499,-3.42l-0.831,-3.33l-0.17,-0.5l-1.159,-2.67l-1.5,-2.58l-1.84,-2.25l-2.08,-2.09l-2.33,-1.75l-2.25,-1.24l-2.42,-0.92l-2.5,-0.75l-2.58,-0.42l-2.58,-0.161Zm-0,11.33l1.91,0.25l2,0.831l1.75,1.33l1.5,1.59l1.25,1.83l0.669,1.499l0.421,1.58l0.329,2.67l0.083,2.58l-0.083,2.58l-0.329,2.67l-0.421,1.58l-0.669,1.5l-1.25,1.84l-1.5,1.58l-1.75,1.33l-2,0.75l-1.91,0.34l-1.84,-0.34l-2,-0.75l-1.83,-1.33l-1.5,-1.58l-1.17,-1.84l-0.661,-1.5l-0.42,-1.58l-0.33,-2.67l-0.17,-2.58l0.17,-2.58l0.33,-2.67l0.42,-1.58l0.661,-1.499l1.17,-1.83l1.5,-1.59l1.83,-1.33l2,-0.831l1.84,-0.25Z" style="fill:#010001;fill-rule:nonzero;"/></g><g id="_-N" serif:id=" N"><rect id="path1590" x="47.244" y="47.251" width="80.238" height="94.488" style="fill:#fff;"/><path id="path1592" d="M73.654,52l-15.41,0l-0,66.159l13.5,0l-0,-44.749l29.579,44.749l15.49,0l-0,-66.159l-13.58,0l0,44.74l-29.579,-44.74Z" style="fill:#010001;fill-rule:nonzero;"/></g></g><g><g><rect id="path1806" x="263.753" y="47.251" width="52.909" height="94.488" style="fill:#fff;"/><path id="path1808" d="M289.253,69.66l-2.42,0.17l-2.41,0.41l-2.34,0.75l-2.25,1.09l-2.08,1.25l-2.25,1.66l-2.08,2l-1.75,2.25l-1.42,2.42l-1.17,3l-0.83,3.17l-0.5,3.16l-0.17,3.25l0.25,3.25l0.591,3.17l0.909,3.08l1.17,2.999l1.079,2.17l1.42,2l1.5,1.83l1.83,1.67l1.92,1.41l2.08,1.25l2.25,0.92l2.34,0.67l2.99,0.58l3.09,0.25l3.08,-0.082l3.08,-0.34l3,-0.661l2.34,-0.839l2.16,-1.08l1.999,-1.42l1.83,-1.67l1.67,-1.83l-7.999,-8.08l-1.83,1.67l-2.08,1.33l-2.25,1.001l-2.17,0.579l-2.17,0.171l-2.16,-0.083l-2.17,-0.421l-2.08,-0.75l-1.42,-0.92l-1.25,-1.16l-1,-1.34l-0.75,-1.499l-0.41,-1.661l-0.17,-1.669l31.499,-0l-0.17,-3.92l-0.42,-3.91l-0.831,-3.83l-1.17,-3.75l-1.08,-2.5l-1.42,-2.25l-1.66,-2.17l-2,-1.83l-2.17,-1.59l-2.08,-1.25l-2.25,-0.909l-2.42,-0.67l-2.419,-0.42l-2.408,-0.076Zm-0.25,10.75l1.66,-0l1.669,0.329l1.58,0.59l1.42,0.83l1.33,1.08l1.091,1.25l0.83,1.42l0.58,1.58l0.25,1.67l-19.159,-0l0.25,-1.67l0.58,-1.58l0.84,-1.42l1.079,-1.25l1.33,-1.08l1.42,-0.83l1.58,-0.59l1.67,-0.329Z" style="fill:#010001;fill-rule:nonzero;"/></g><g><rect id="path18061" serif:id="path1806" x="482.889" y="47.251" width="52.909" height="94.488" style="fill:#fff;"/><path id="path18081" serif:id="path1808" d="M508.389,69.66l-2.42,0.17l-2.41,0.41l-2.34,0.75l-2.25,1.09l-2.08,1.25l-2.25,1.66l-2.08,2l-1.75,2.25l-1.42,2.42l-1.17,3l-0.831,3.17l-0.499,3.16l-0.17,3.25l0.25,3.25l0.591,3.17l0.909,3.08l1.169,2.999l1.08,2.17l1.42,2l1.5,1.83l1.83,1.67l1.92,1.41l2.08,1.25l2.25,0.92l2.34,0.67l2.99,0.58l3.09,0.25l3.08,-0.082l3.079,-0.34l3,-0.661l2.34,-0.839l2.16,-1.08l2,-1.42l1.83,-1.67l1.67,-1.83l-8,-8.08l-1.83,1.67l-2.079,1.33l-2.25,1.001l-2.17,0.579l-2.17,0.171l-2.16,-0.083l-2.17,-0.421l-2.08,-0.75l-1.42,-0.92l-1.25,-1.16l-1.001,-1.34l-0.75,-1.499l-0.409,-1.661l-0.17,-1.669l31.499,-0l-0.17,-3.92l-0.421,-3.91l-0.83,-3.83l-1.17,-3.75l-1.08,-2.5l-1.42,-2.25l-1.66,-2.17l-2,-1.83l-2.17,-1.59l-2.08,-1.25l-2.25,-0.909l-2.42,-0.67l-2.42,-0.42l-2.407,-0.076Zm-0.251,10.75l1.66,-0l1.67,0.329l1.58,0.59l1.42,0.83l1.33,1.08l1.09,1.25l0.831,1.42l0.58,1.58l0.25,1.67l-19.16,-0l0.251,-1.67l0.58,-1.58l0.839,-1.42l1.08,-1.25l1.33,-1.08l1.42,-0.83l1.58,-0.59l1.669,-0.329Z" style="fill:#010001;fill-rule:nonzero;"/></g><g><rect id="path1742" x="452.14" y="47.244" width="30.749" height="94.488" style="fill:#fff;"/><path id="path1744" d="M479.059,106.483l-2.5,0.33l-2.5,0.094l-0.92,-0.094l-0.75,-0.41l-0.66,-0.67l-0.42,-0.75l-0.17,-0.92l-0,-52.069l-12.91,-0l-0,57.319l0.161,1.75l0.499,1.67l0.75,1.58l1.001,1.5l1.25,1.25l1.42,1l1.67,0.67l1.659,0.499l1.75,0.17l4.08,-0.34l4,-0.499l4,-0.75l-1.41,-11.33Z" style="fill:#010001;fill-rule:nonzero;"/></g><g><rect id="path1790" x="373.731" y="47.244" width="26.92" height="94.488" style="fill:#fff;"/><path id="path1792" d="M386.481,51.494l-1.42,0.16l-1.41,0.42l-1.25,0.67l-1.17,0.909l-0.92,1.171l-0.661,1.25l-0.42,1.42l-0.17,1.409l0.17,1.421l0.42,1.419l0.661,1.33l0.92,1.08l1.17,0.92l1.25,0.66l1.41,0.421l1.42,0.17l1.42,-0.17l1.41,-0.421l1.25,-0.66l1.171,-0.92l0.92,-1.08l0.66,-1.33l0.42,-1.419l0.17,-1.421l-0.17,-1.409l-0.42,-1.42l-0.66,-1.25l-0.92,-1.171l-1.171,-0.909l-1.25,-0.67l-1.41,-0.42l-1.42,-0.16Zm-6.5,19.41l0,47.239l12.92,-0l-0,-47.239l-12.92,-0Z" style="fill:#010001;fill-rule:nonzero;"/></g><g><rect id="path1794" x="316.662" y="47.244" width="57.069" height="94.488" style="fill:#fff;"/><path id="path1796" d="M352.152,85.153l-1.001,-1.42l-1.25,-1.079l-1.75,-0.75l-1.91,-0.33l-1.92,0.083l-1.829,0.421l-1.841,0.66l-1.499,1l-1.33,1.25l-1.001,1.5l-0.67,1.59l-0.16,1.66l-0,28.419l-12.92,0l0,-66.158l12.92,-0l-0,22.239l1.91,-1.5l2,-1.16l2.25,-0.92l2.34,-0.669l2.33,-0.251l2.42,0l2.75,0.5l2.41,0.84l2.33,1.16l2.089,1.419l1.91,1.67l1.67,1.91l1.42,2.17l1.08,2.5l0.75,2.58l0.42,2.67l0.161,2.75l-0,28.25l-12.91,-0l12.91,-0l-12.91,-0l0,-28.17l-0.094,-1.66l-0.41,-1.67l-0.665,-1.504Z" style="fill:#010001;fill-rule:nonzero;"/></g><g><rect id="path1798" x="400.651" y="47.251" width="51.489" height="94.488" style="fill:#fff;"/><path id="path1800" d="M418.06,101.319l0.67,1.5l1.171,1.84l1.5,1.66l1.75,1.25l2.079,0.84l1.83,0.25l1.92,-0.25l2,-0.84l1.75,-1.25l1.5,-1.66l1.25,-1.84l1.001,-2.659l11.999,4.499l-0.25,0.5l-1.17,2.75l-1.5,2.5l-1.75,2.25l-2.08,2.08l-2.34,1.75l-2.33,1.25l-2.33,0.92l-2.5,0.75l-2.59,0.41l-2.58,0.17l-2.58,-0.17l-2.5,-0.41l-2.5,-0.75l-2.42,-0.92l-2.25,-1.25l-2.33,-1.75l-2.08,-2.08l-1.84,-2.25l-1.5,-2.5l-1.159,-2.75l-0.171,-0.5l-0.83,-3.34l-0.499,-3.409l-0.171,-3.42l0.171,-3.41l0.499,-3.34l0.83,-3.33l0.171,-0.58l1.159,-2.67l1.5,-2.5l1.84,-2.33l2.08,-2l2.33,-1.84l2.25,-1.16l2.42,-1l2.5,-0.67l2.5,-0.5l2.58,-0.17l2.58,0.17l2.59,0.5l2.5,0.67l2.33,1l2.33,1.16l2.34,1.84l2.08,2l1.75,2.33l1.5,2.5l1.17,2.67l0.25,0.58l-11.999,4.42l-1.001,-2.67l-1.25,-1.83l-1.5,-1.59l-1.75,-1.25l-2,-0.83l-1.92,-0.251l-1.83,0.251l-2.079,0.83l-1.75,1.25l-1.5,1.59l-1.171,1.83l-0.67,1.58l-0.499,1.59l-0.251,2.58l-0.16,2.58l0.16,2.67l0.251,2.58l0.499,1.579Z" style="fill:#010001;fill-rule:nonzero;"/></g><g><rect id="path1678" x="212.249" y="47.244" width="51.505" height="94.488" style="fill:#fff;"/><path id="path1680" d="M214.249,70.826l16.422,47.244l14.411,0l16.421,-47.244l-13.331,0l-10.251,29.663l-10.331,-29.663l-13.341,0Z" style="fill:#010001;fill-rule:nonzero;"/></g><g><rect id="path1674" x="535.798" y="47.251" width="48.164" height="94.488" style="fill:#fff;"/><path id="path1676" d="M548.549,103.915l2.001,1.581l2.16,1.25l2.34,1l2.41,0.67l2.5,0.33l2.251,0l1.59,-0.58l1.33,-0.92l0.75,-0.75l0.5,-1l0.08,-1.08l-0.25,-1.09l-0.58,-0.911l-0.83,-0.67l-3.25,-1.25l-3.34,-0.671l-3.001,-0.5l-4.08,-1l-2,-0.66l-1.83,-1l-1.67,-1.25l-1.501,-1.42l-1.25,-1.58l-1.08,-1.75l-0.67,-2.09l-0.41,-2.161l0,-2.17l0.25,-2.16l0.58,-2.17l0.92,-1.92l1.251,-1.831l1.41,-1.58l1.59,-1.42l1.83,-1.17l1.91,-0.911l2.09,-0.589l3.001,-0.66l3,-0.341l3.08,0l3.08,0.25l3.091,0.59l2.5,0.749l2.41,1l2.34,1.331l2.241,1.42l2,1.75l-7.991,8.491l-2.25,-1.83l-2.5,-1.501l-2.671,-1.159l-1.5,-0.42l-1.58,-0.25l-1.59,0l-1.66,0.42l-1.5,0.75l-1.34,1l-0.661,0.83l-0.34,0.92l0.09,1.08l0.33,0.91l0.58,0.841l1.001,0.58l5.5,1.081l5,0.67l1.921,0.33l0.08,0l1.92,0.671l1.83,0.829l1.84,1.09l1.661,1.411l1.42,1.59l1.16,1.75l0.84,1.91l0.581,2.09l0.329,2.08l-0.082,2.171l-0.33,2.08l-0.671,2.08l-1.08,2.09l-1.34,1.91l-1.58,1.75l-1.83,1.501l-2.001,1.17l-3.25,1l-3.33,0.66l-3.421,0.34l-3.33,0l-3.42,-0.34l-3.33,-0.66l-3.001,-0.92l-2.92,-1.25l-2.66,-1.58l-2.5,-1.84l-2.341,-2.16l9.421,-8.671l1.752,1.839Z" style="fill:#010001;fill-rule:nonzero;"/></g></g></g></g></g></svg>