<?xml version="1.0" encoding="UTF-8" standalone="no"?><!DOCTYPE svg PUBLIC "-//W3C//DTD SVG 1.1//EN" "http://www.w3.org/Graphics/SVG/1.1/DTD/svg11.dtd"><svg width="100%" height="100%" viewBox="0 0 642 603" version="1.1" xmlns="http://www.w3.org/2000/svg" xmlns:xlink="http://www.w3.org/1999/xlink" xml:space="preserve" xmlns:serif="http://www.serif.com/" style="fill-rule:evenodd;clip-rule:evenodd;stroke-linejoin:round;stroke-miterlimit:2;"><g transform="matrix(50,0,0,50,397.333,318.845)"></g><text x="251.411px" y="318.845px" style="font-family:'ArialMT', 'Arial', sans-serif;font-size:50px;">sw=51</text><rect id="_5.-No-vehicles--day---time--except-for-access" serif:id="5. No vehicles [day] [time] except for access" x="0" y="0" width="641.102" height="602.362" style="fill:none;"/><clipPath id="_clip1"><rect x="0" y="0" width="641.102" height="602.362"/></clipPath><g clip-path="url(#_clip1)"><path d="M641.102,35.433c0,-19.556 -15.877,-35.433 -35.433,-35.433l-570.236,0c-19.556,0 -35.433,15.877 -35.433,35.433l-0,531.496c-0,19.556 15.877,35.433 35.433,35.433l570.236,0c19.556,0 35.433,-15.877 35.433,-35.433l0,-531.496Z"/><path d="M623.386,35.433c-0,-9.778 -7.939,-17.716 -17.717,-17.716l-570.236,-0c-9.778,-0 -17.716,7.938 -17.716,17.716l-0,531.496c-0,9.778 7.938,17.717 17.716,17.717l570.236,-0c9.778,-0 17.717,-7.939 17.717,-17.717l-0,-531.496Z" style="fill:#fff;"/><clipPath id="_clip2"><rect id="Plate-Text.afdesign" serif:id="Plate Text.afdesign" x="66.378" y="47.244" width="527.48" height="94.488"/></clipPath><g clip-path="url(#_clip2)"><rect id="No-vehicles" serif:id="No vehicles" x="66.378" y="47.244" width="527.48" height="94.488" style="fill:none;"/><clipPath id="_clip3"><rect x="66.378" y="47.244" width="527.48" height="94.488"/></clipPath><g clip-path="url(#_clip3)"><g><g><g><rect id="path1698" x="145.748" y="47.244" width="54.331" height="94.488" style="fill:#fff;"/><path d="M195.358,95.038c0,3.296 -0.523,6.356 -1.569,9.182c-1.047,2.825 -2.538,5.258 -4.474,7.298c-1.935,2.04 -4.29,3.649 -7.063,4.826c-2.773,1.178 -5.859,1.766 -9.26,1.766c-3.401,0 -6.488,-0.575 -9.261,-1.726c-2.773,-1.151 -5.14,-2.76 -7.102,-4.827c-1.962,-2.066 -3.479,-4.512 -4.552,-7.337c-1.072,-2.826 -1.608,-5.886 -1.608,-9.182c-0,-3.401 0.483,-6.58 1.451,-9.536c0.968,-2.956 2.407,-5.519 4.317,-7.691c1.909,-2.171 4.264,-3.871 7.063,-5.101c2.799,-1.229 6.03,-1.844 9.692,-1.844c3.61,0 6.814,0.628 9.613,1.884c2.8,1.255 5.141,2.969 7.024,5.14c1.884,2.171 3.309,4.735 4.277,7.691c0.968,2.956 1.452,6.108 1.452,9.457Zm-12.321,-0c0,-1.832 -0.248,-3.545 -0.745,-5.141c-0.497,-1.596 -1.178,-2.995 -2.041,-4.198c-0.863,-1.204 -1.923,-2.159 -3.178,-2.865c-1.256,-0.706 -2.616,-1.059 -4.081,-1.059c-1.517,-0 -2.904,0.353 -4.159,1.059c-1.256,0.706 -2.329,1.661 -3.218,2.865c-0.89,1.203 -1.57,2.602 -2.041,4.198c-0.47,1.596 -0.706,3.309 -0.706,5.141c0,3.61 0.916,6.539 2.747,8.789c1.831,2.25 4.29,3.375 7.377,3.375c3.034,-0 5.467,-1.125 7.298,-3.375c1.832,-2.25 2.747,-5.179 2.747,-8.789Z" style="fill-rule:nonzero;"/></g><g><rect x="66.378" y="47.244" width="79.37" height="94.488" style="fill:#fff;"/><path d="M135.883,118.11l-14.491,0l-31.239,-43.331l0,43.331l-13.91,0l-0,-66.141l14.519,-0l31.211,43.416l-0,-43.416l13.91,-0l0,66.141Z" style="fill-rule:nonzero;"/></g></g><g><g><rect id="path16981" serif:id="path1698" x="388.346" y="47.244" width="25.984" height="94.488" style="fill:#fff;"/><path d="M407.963,59.373c0,2.108 -0.721,3.883 -2.163,5.325c-1.442,1.442 -3.189,2.163 -5.241,2.163c-2.108,-0 -3.883,-0.721 -5.325,-2.163c-1.442,-1.442 -2.163,-3.217 -2.163,-5.325c-0,-2.052 0.721,-3.799 2.163,-5.241c1.442,-1.442 3.217,-2.163 5.325,-2.163c2.052,-0 3.799,0.721 5.241,2.163c1.442,1.442 2.163,3.189 2.163,5.241Zm-0.832,58.737l-13.145,0l0,-47.256l13.145,0l0,47.256Z" style="fill-rule:nonzero;"/></g><g><rect id="path16982" serif:id="path1698" x="332.126" y="47.244" width="56.22" height="94.488" style="fill:#fff;"/><path d="M381.224,118.11l-13.568,0l-0,-30.951c-0,-2.204 -0.579,-3.9 -1.738,-5.088c-1.159,-1.187 -2.813,-1.78 -4.961,-1.78c-2.431,-0 -4.424,0.706 -5.978,2.12c-1.555,1.413 -2.332,3.448 -2.332,6.105l-0,29.594l-13.398,0l-0,-66.141l13.398,-0l0.026,20.605c1.473,-1.243 3.215,-2.205 5.226,-2.883c2.011,-0.678 3.98,-1.017 5.905,-1.017c2.777,-0 5.255,0.424 7.436,1.271c2.181,0.848 4.008,2.021 5.48,3.52c1.472,1.498 2.591,3.278 3.356,5.342c0.765,2.063 1.148,4.339 1.148,6.826l-0,32.477Z" style="fill-rule:nonzero;"/></g><g><rect id="path16983" serif:id="path1698" x="229.606" y="47.244" width="50.551" height="94.488" style="fill:#fff;"/><path d="M278.187,70.801l-15.981,47.244l-14.648,0l-15.981,-47.244l13.817,0l9.488,28.946l9.405,-28.946l13.9,0Z" style="fill-rule:nonzero;"/></g><g><rect id="path16984" serif:id="path1698" x="546.614" y="47.244" width="47.244" height="94.488" style="fill:#fff;"/><path d="M589.738,103.806c0,2.093 -0.405,4.016 -1.216,5.769c-0.811,1.752 -2.028,3.27 -3.65,4.551c-1.621,1.282 -3.623,2.276 -6.003,2.983c-2.381,0.706 -5.14,1.059 -8.28,1.059c-3.976,0 -7.586,-0.589 -10.83,-1.766c-3.243,-1.177 -6.252,-2.916 -9.025,-5.219l7.063,-8.161c2.198,1.831 4.447,3.047 6.75,3.649c2.302,0.602 4.29,0.902 5.964,0.902c2.354,0 3.976,-0.34 4.866,-1.02c0.889,-0.68 1.334,-1.517 1.334,-2.511c-0,-0.576 -0.406,-1.19 -1.217,-1.844c-0.811,-0.654 -2.158,-1.191 -4.041,-1.609l-7.77,-1.884c-1.465,-0.314 -2.917,-0.811 -4.355,-1.491c-1.439,-0.68 -2.734,-1.543 -3.885,-2.59c-1.151,-1.046 -2.08,-2.302 -2.786,-3.766c-0.706,-1.465 -1.059,-3.166 -1.059,-5.102c-0,-2.145 0.457,-4.12 1.373,-5.925c0.916,-1.805 2.21,-3.374 3.885,-4.708c1.674,-1.335 3.649,-2.368 5.925,-3.1c2.276,-0.733 4.8,-1.099 7.573,-1.099c4.081,-0 7.625,0.549 10.634,1.648c3.008,1.099 5.637,2.616 7.887,4.552l-7.063,8.162c-1.674,-1.308 -3.388,-2.276 -5.141,-2.904c-1.752,-0.628 -3.649,-0.942 -5.689,-0.942c-2.198,0 -3.82,0.406 -4.866,1.217c-1.046,0.81 -1.569,1.687 -1.569,2.629c-0,0.156 0.026,0.366 0.078,0.627c0.052,0.262 0.222,0.537 0.51,0.824c0.288,0.288 0.693,0.576 1.217,0.864c0.523,0.287 1.255,0.536 2.197,0.745l8.162,1.962c1.622,0.419 3.204,0.942 4.748,1.57c1.543,0.628 2.93,1.465 4.159,2.511c1.23,1.046 2.224,2.328 2.982,3.846c0.759,1.517 1.138,3.374 1.138,5.571Z" style="fill-rule:nonzero;"/></g><g><rect id="path16985" serif:id="path1698" x="280.157" y="47.244" width="51.969" height="94.488" style="fill:#fff;"/><path d="M327.801,96.457l-0.158,1.968l-30.472,0c0.052,1.26 0.367,2.428 0.945,3.504c0.577,1.076 1.338,2.021 2.283,2.835c0.945,0.813 2.034,1.443 3.268,1.89c1.233,0.446 2.533,0.669 3.897,0.669c3.937,-0 7.323,-1.313 10.158,-3.937l6.614,8.11c-2.257,2.152 -4.738,3.793 -7.441,4.921c-2.703,1.129 -5.787,1.693 -9.252,1.693c-3.727,0 -7.034,-0.617 -9.921,-1.85c-2.887,-1.234 -5.315,-2.94 -7.284,-5.118c-1.968,-2.179 -3.464,-4.712 -4.488,-7.599c-1.023,-2.887 -1.535,-5.984 -1.535,-9.291c-0,-3.202 0.485,-6.234 1.456,-9.095c0.972,-2.86 2.376,-5.341 4.213,-7.44c1.837,-2.1 4.121,-3.767 6.85,-5c2.73,-1.234 5.827,-1.851 9.292,-1.851c3.832,0 7.165,0.683 10,2.047c2.834,1.365 5.144,3.202 6.929,5.512c1.785,2.31 3.058,5.026 3.819,8.15c0.761,3.123 1.037,6.417 0.827,9.882Zm-12.363,-6.851c0,-2.414 -0.879,-4.396 -2.637,-5.945c-1.759,-1.548 -3.924,-2.322 -6.496,-2.322c-2.468,-0 -4.515,0.826 -6.142,2.48c-1.627,1.653 -2.572,3.583 -2.835,5.787l18.11,0Z" style="fill-rule:nonzero;"/></g><g><rect id="path16986" serif:id="path1698" x="494.646" y="47.244" width="51.969" height="94.488" style="fill:#fff;"/><path d="M542.289,96.457l-0.158,1.968l-30.472,0c0.052,1.26 0.367,2.428 0.945,3.504c0.577,1.076 1.338,2.021 2.283,2.835c0.945,0.813 2.034,1.443 3.268,1.89c1.234,0.446 2.533,0.669 3.898,0.669c3.937,-0 7.322,-1.313 10.157,-3.937l6.614,8.11c-2.257,2.152 -4.737,3.793 -7.441,4.921c-2.703,1.129 -5.787,1.693 -9.252,1.693c-3.727,0 -7.034,-0.617 -9.921,-1.85c-2.887,-1.234 -5.315,-2.94 -7.283,-5.118c-1.969,-2.179 -3.465,-4.712 -4.489,-7.599c-1.023,-2.887 -1.535,-5.984 -1.535,-9.291c-0,-3.202 0.486,-6.234 1.457,-9.095c0.971,-2.86 2.375,-5.341 4.212,-7.44c1.838,-2.1 4.121,-3.767 6.851,-5c2.729,-1.234 5.826,-1.851 9.291,-1.851c3.832,0 7.165,0.683 10,2.047c2.835,1.365 5.144,3.202 6.929,5.512c1.785,2.31 3.058,5.026 3.819,8.15c0.761,3.123 1.037,6.417 0.827,9.882Zm-12.362,-6.851c-0,-2.414 -0.88,-4.396 -2.638,-5.945c-1.759,-1.548 -3.924,-2.322 -6.496,-2.322c-2.467,-0 -4.515,0.826 -6.142,2.48c-1.627,1.653 -2.572,3.583 -2.835,5.787l18.111,0Z" style="fill-rule:nonzero;"/></g><g><rect id="path16987" serif:id="path1698" x="414.331" y="47.244" width="50.551" height="94.488" style="fill:#fff;"/><path d="M460.482,83.815l-10.281,4.944c-1.936,-4.708 -4.997,-7.063 -9.182,-7.063c-1.622,0 -3.035,0.366 -4.238,1.099c-1.203,0.732 -2.21,1.7 -3.021,2.904c-0.811,1.203 -1.426,2.589 -1.845,4.159c-0.418,1.57 -0.627,3.165 -0.627,4.787c-0,1.674 0.222,3.27 0.667,4.787c0.444,1.518 1.098,2.852 1.962,4.003c0.863,1.151 1.909,2.079 3.139,2.786c1.229,0.706 2.629,1.059 4.198,1.059c1.988,0 3.728,-0.549 5.219,-1.648c1.491,-1.099 2.786,-2.904 3.885,-5.415l10.124,5.023c-1.832,3.871 -4.395,6.984 -7.691,9.339c-3.296,2.354 -7.142,3.531 -11.537,3.531c-3.714,0 -6.98,-0.615 -9.797,-1.844c-2.816,-1.23 -5.161,-2.917 -7.033,-5.062c-1.872,-2.145 -3.289,-4.643 -4.25,-7.495c-0.962,-2.851 -1.443,-5.925 -1.443,-9.221c0,-2.93 0.442,-5.807 1.326,-8.632c0.883,-2.826 2.235,-5.35 4.055,-7.574c1.82,-2.223 4.112,-4.015 6.876,-5.375c2.763,-1.361 6.055,-2.041 9.874,-2.041c4.552,0 8.554,1.19 12.007,3.571c3.453,2.38 5.991,5.506 7.613,9.378Z" style="fill-rule:nonzero;"/></g><g><rect id="path16988" serif:id="path1698" x="464.882" y="47.244" width="29.764" height="94.488" style="fill:#fff;"/><path d="M493.465,116.699c-1.439,0.443 -2.96,0.789 -4.565,1.038c-1.604,0.249 -3.181,0.373 -4.73,0.373c-2.49,0 -4.634,-0.332 -6.432,-0.996c-1.798,-0.664 -3.264,-1.604 -4.398,-2.821c-1.134,-1.217 -1.964,-2.697 -2.49,-4.44c-0.525,-1.743 -0.788,-3.665 -0.788,-5.768l-0,-52.116l13.029,-0l0,49.959c0,2.876 1.355,4.315 4.066,4.315c0.83,-0 1.633,-0.069 2.407,-0.208c0.775,-0.138 1.632,-0.373 2.573,-0.705l1.328,11.369Z" style="fill-rule:nonzero;"/></g></g></g></g></g><g><clipPath id="_clip4"><rect id="Plate-Text.afdesign1" serif:id="Plate Text.afdesign" x="47.244" y="271.654" width="108.189" height="94.488"/></clipPath><g clip-path="url(#_clip4)"><rect id="_10" serif:id="10" x="47.244" y="271.654" width="108.189" height="94.488" style="fill:none;"/><clipPath id="_clip5"><rect x="47.244" y="271.654" width="108.189" height="94.488"/></clipPath><g clip-path="url(#_clip5)"><g><rect x="47.244" y="271.654" width="39.685" height="94.488" style="fill:#fff;"/><path d="M76.522,342.52l-14.432,-0l-0,-45.367l-11.303,0l0,-10.939c2.261,-0.113 4.246,-0.311 5.956,-0.593c1.71,-0.283 3.086,-0.792 4.129,-1.527c0.986,-0.734 1.696,-1.667 2.13,-2.798c0.435,-1.13 0.768,-2.77 1,-4.918l12.52,-0l-0,66.142Z" style="fill-rule:nonzero;"/></g><g><rect x="86.929" y="271.654" width="68.504" height="94.488" style="fill:#fff;"/><path d="M147.855,309.082c-0,3.914 -0.502,7.856 -1.505,11.825c-1.004,3.969 -2.579,7.544 -4.725,10.725c-2.146,3.181 -4.877,5.777 -8.194,7.789c-3.317,2.011 -7.289,3.017 -11.915,3.017c-4.739,0 -8.808,-0.992 -12.208,-2.977c-3.401,-1.984 -6.202,-4.567 -8.404,-7.747c-2.202,-3.181 -3.818,-6.756 -4.85,-10.725c-1.031,-3.969 -1.547,-7.938 -1.547,-11.907c0,-3.969 0.516,-7.911 1.547,-11.826c1.032,-3.914 2.634,-7.421 4.808,-10.52c2.174,-3.1 4.948,-5.614 8.32,-7.544c3.373,-1.931 7.372,-2.896 11.999,-2.896c4.571,0 8.529,0.965 11.874,2.896c3.344,1.93 6.118,4.458 8.319,7.584c2.202,3.127 3.833,6.647 4.892,10.562c1.059,3.914 1.589,7.829 1.589,11.744Zm-13.881,0.081c0,-1.848 -0.209,-3.982 -0.627,-6.402c-0.418,-2.419 -1.115,-4.716 -2.09,-6.891c-0.976,-2.175 -2.286,-4.01 -3.93,-5.505c-1.645,-1.495 -3.693,-2.243 -6.146,-2.243c-2.453,-0 -4.501,0.734 -6.146,2.202c-1.644,1.468 -2.954,3.276 -3.93,5.423c-0.975,2.148 -1.672,4.432 -2.09,6.851c-0.418,2.42 -0.627,4.554 -0.627,6.402c-0,2.012 0.181,4.268 0.543,6.769c0.363,2.501 1.018,4.839 1.965,7.014c0.948,2.175 2.286,3.996 4.014,5.464c1.728,1.468 3.93,2.202 6.606,2.202c2.675,0 4.835,-0.734 6.48,-2.202c1.644,-1.468 2.912,-3.289 3.804,-5.464c0.892,-2.175 1.478,-4.499 1.756,-6.973c0.279,-2.474 0.418,-4.689 0.418,-6.647Z" style="fill-rule:nonzero;"/></g></g></g><rect id="_---" serif:id="&quot;-&quot;" x="325.039" y="271.654" width="33.543" height="94.488" style="fill:none;"/><clipPath id="_clip6"><rect x="325.039" y="271.654" width="33.543" height="94.488"/></clipPath><g clip-path="url(#_clip6)"><g><rect id="path16989" serif:id="path1698" x="325.039" y="271.654" width="33.543" height="94.488" style="fill:#fff;"/><rect x="329.764" y="309.449" width="18.898" height="9.449" style="fill-rule:nonzero;"/></g></g><g><rect x="376.299" y="271.654" width="61.417" height="94.488" style="fill:#fff;"/><path d="M432.09,317.674c-0,3.449 -0.594,6.685 -1.782,9.709c-1.188,3.025 -2.855,5.654 -4.999,7.887c-2.145,2.233 -4.695,3.999 -7.651,5.299c-2.956,1.301 -6.202,1.951 -9.737,1.951c-6.608,-0 -12.041,-1.428 -16.301,-4.283c-4.26,-2.854 -7.492,-6.854 -9.694,-11.998l13.475,-5.003c1.16,2.826 2.667,4.989 4.521,6.487c1.855,1.498 4,2.247 6.434,2.247c1.97,-0 3.68,-0.297 5.129,-0.891c1.449,-0.593 2.637,-1.427 3.565,-2.501c0.927,-1.074 1.608,-2.318 2.043,-3.731c0.435,-1.414 0.652,-2.94 0.652,-4.579c-0,-1.64 -0.275,-3.166 -0.826,-4.579c-0.551,-1.414 -1.319,-2.643 -2.304,-3.689c-0.985,-1.046 -2.173,-1.866 -3.564,-2.459c-1.391,-0.594 -2.956,-0.89 -4.695,-0.89c-2.203,-0 -4.231,0.508 -6.086,1.526c-1.855,1.017 -3.362,2.657 -4.521,4.918l-13.562,-3.731l5.216,-34.428l41.296,0l0,12.381l-28.429,-0l-1.391,8.988c2.84,-1.243 5.854,-1.865 9.042,-1.865c3.651,-0 6.969,0.607 9.954,1.823c2.985,1.215 5.521,2.869 7.608,4.961c2.086,2.091 3.709,4.55 4.868,7.377c1.159,2.826 1.739,5.851 1.739,9.073Z" style="fill-rule:nonzero;"/></g><g><g><rect id="path169810" serif:id="path1698" x="173.15" y="271.654" width="52.441" height="94.488" style="fill:#fff;"/><path d="M220.852,333.335l-5.215,9.185c-1.816,-0.104 -3.464,-0.558 -4.942,-1.362c-1.479,-0.805 -2.686,-1.855 -3.62,-3.153c-1.452,1.35 -3.152,2.361 -5.098,3.036c-1.945,0.674 -4.319,1.012 -7.121,1.012c-2.231,-0 -4.372,-0.286 -6.421,-0.856c-2.05,-0.571 -3.853,-1.44 -5.41,-2.608c-1.556,-1.167 -2.802,-2.607 -3.736,-4.32c-0.934,-1.712 -1.401,-3.735 -1.401,-6.07c0,-2.284 0.338,-4.229 1.012,-5.838c0.675,-1.608 1.531,-2.97 2.569,-4.086c1.037,-1.116 2.218,-2.011 3.541,-2.685c1.323,-0.675 2.633,-1.194 3.931,-1.557c1.297,-0.363 2.516,-0.623 3.658,-0.778c1.141,-0.156 2.049,-0.26 2.724,-0.312c1.089,-0.103 2.477,-0.22 4.164,-0.35c1.686,-0.129 3.23,-0.246 4.631,-0.35l-0,-0.623c-0,-1.92 -0.441,-3.308 -1.323,-4.164c-0.882,-0.856 -2.413,-1.284 -4.592,-1.284c-2.283,0 -4.463,0.272 -6.538,0.817c-2.076,0.545 -4.359,1.544 -6.85,2.997l-4.592,-9.729c3.166,-1.764 6.266,-3.036 9.301,-3.814c3.036,-0.778 6.188,-1.167 9.457,-1.167c5.656,-0 9.962,1.401 12.92,4.203c2.958,2.801 4.436,7.004 4.436,12.608l0,14.555c0,1.972 0.338,3.463 1.012,4.475c0.675,1.012 1.842,1.752 3.503,2.218Zm-16.812,-5.837l0,-5.526c-0.934,0.052 -1.92,0.104 -2.958,0.156c-1.037,0.052 -1.919,0.129 -2.646,0.233c-0.882,0.104 -1.803,0.208 -2.763,0.311c-0.96,0.104 -1.829,0.325 -2.607,0.662c-0.779,0.337 -1.427,0.817 -1.946,1.44c-0.519,0.623 -0.778,1.505 -0.778,2.646c-0,1.505 0.648,2.647 1.945,3.425c1.298,0.778 2.776,1.167 4.437,1.167c2.646,0 4.527,-0.441 5.643,-1.323c1.115,-0.882 1.673,-1.946 1.673,-3.191Z" style="fill-rule:nonzero;"/></g><g><rect id="path169811" serif:id="path1698" x="225.591" y="271.654" width="81.732" height="94.488" style="fill:#fff;"/><path d="M299.785,342.52l-13.181,-0l-0,-29.7c-0,-2.336 -0.539,-4.074 -1.617,-5.214c-1.078,-1.14 -2.501,-1.71 -4.27,-1.71c-0.829,-0 -1.699,0.181 -2.611,0.542c-0.912,0.362 -1.728,0.89 -2.446,1.585c-0.719,0.695 -1.313,1.585 -1.783,2.67c-0.47,1.084 -0.705,2.322 -0.705,3.712l0,28.115l-13.264,-0l-0.084,-29.783c0,-2.392 -0.514,-4.144 -1.543,-5.256c-1.029,-1.112 -2.35,-1.669 -3.963,-1.669c-1.056,0 -2.058,0.167 -3.003,0.501c-0.946,0.334 -1.794,0.848 -2.545,1.543c-0.75,0.696 -1.348,1.585 -1.793,2.67c-0.445,1.085 -0.668,2.405 -0.668,3.963l0,28.031l-13.181,-0l0,-47.386l13.181,0l0,2.92c1.391,-1.335 2.976,-2.364 4.756,-3.087c1.779,-0.723 3.531,-1.084 5.255,-1.084c2.614,-0 5.02,0.514 7.217,1.543c2.197,1.029 3.935,2.572 5.214,4.63c3.059,-4.171 7.703,-6.257 13.932,-6.257c5.395,0 9.594,1.53 12.597,4.589c3.004,3.059 4.505,7.369 4.505,12.931l0,31.201Z" style="fill-rule:nonzero;"/></g></g><g><g><g><rect id="path169812" serif:id="path1698" x="455.433" y="271.654" width="56.693" height="94.488" style="fill:#fff;"/><path d="M506.441,318.932c0,3.259 -0.482,6.379 -1.446,9.362c-0.964,2.982 -2.369,5.619 -4.215,7.911c-1.846,2.292 -4.132,4.115 -6.859,5.468c-2.728,1.353 -5.827,2.03 -9.299,2.03c-1.928,-0 -3.787,-0.304 -5.578,-0.912c-1.79,-0.607 -3.402,-1.463 -4.835,-2.568l0,17.646l-13.091,0l0,-62.631l13.091,0l-0.023,2.486c1.268,-1.16 2.812,-2.085 4.632,-2.776c1.82,-0.69 3.777,-1.035 5.872,-1.035c3.418,-0 6.479,0.704 9.18,2.112c2.702,1.409 4.976,3.273 6.823,5.592c1.847,2.32 3.267,4.985 4.259,7.995c0.993,3.01 1.489,6.117 1.489,9.32Zm-13.257,0c-0,-1.602 -0.249,-3.176 -0.746,-4.722c-0.497,-1.547 -1.201,-2.914 -2.113,-4.101c-0.911,-1.187 -2.03,-2.154 -3.355,-2.9c-1.326,-0.745 -2.818,-1.118 -4.475,-1.118c-0.828,-0 -1.74,0.138 -2.734,0.414c-0.994,0.276 -1.906,0.691 -2.734,1.243c-0.829,0.552 -1.519,1.243 -2.072,2.071c-0.552,0.828 -0.828,1.795 -0.828,2.9l-0,12.178c-0,1.049 0.248,2.002 0.745,2.858c0.497,0.856 1.133,1.574 1.906,2.154c0.773,0.58 1.643,1.036 2.61,1.367c0.967,0.331 1.92,0.497 2.859,0.497c1.712,0 3.259,-0.345 4.64,-1.036c1.381,-0.69 2.527,-1.615 3.438,-2.775c0.912,-1.16 1.616,-2.513 2.113,-4.059c0.497,-1.547 0.746,-3.204 0.746,-4.971Z" style="fill-rule:nonzero;"/></g></g><g><rect id="path169813" serif:id="path1698" x="512.126" y="271.654" width="81.732" height="94.488" style="fill:#fff;"/><path d="M586.321,342.52l-13.182,-0l0,-29.7c0,-2.336 -0.539,-4.074 -1.617,-5.214c-1.078,-1.14 -2.501,-1.71 -4.269,-1.71c-0.829,-0 -1.7,0.181 -2.612,0.542c-0.912,0.362 -1.727,0.89 -2.446,1.585c-0.719,0.695 -1.313,1.585 -1.783,2.67c-0.469,1.084 -0.704,2.322 -0.704,3.712l-0,28.115l-13.265,-0l-0.083,-29.783c-0,-2.392 -0.515,-4.144 -1.544,-5.256c-1.028,-1.112 -2.349,-1.669 -3.962,-1.669c-1.057,0 -2.058,0.167 -3.004,0.501c-0.945,0.334 -1.793,0.848 -2.544,1.543c-0.751,0.696 -1.349,1.585 -1.794,2.67c-0.445,1.085 -0.667,2.405 -0.667,3.963l-0,28.031l-13.181,-0l-0,-47.386l13.181,0l-0,2.92c1.39,-1.335 2.975,-2.364 4.755,-3.087c1.78,-0.723 3.532,-1.084 5.256,-1.084c2.614,-0 5.019,0.514 7.216,1.543c2.197,1.029 3.935,2.572 5.214,4.63c3.059,-4.171 7.703,-6.257 13.932,-6.257c5.395,0 9.594,1.53 12.598,4.589c3.003,3.059 4.505,7.369 4.505,12.931l-0,31.201Z" style="fill-rule:nonzero;"/></g></g></g><g><g><g><rect id="path169814" serif:id="path1698" x="351.614" y="377.953" width="39.685" height="94.488" style="fill:#fff;"/><path d="M388.074,446.473c-1.371,0.603 -3.043,1.11 -5.018,1.521c-1.974,0.412 -4.168,0.617 -6.581,0.617c-4.388,0 -7.843,-1.028 -10.366,-3.085c-2.522,-2.056 -3.784,-5.388 -3.784,-9.995l0,-24.186l-7.486,0l-0,-10.941l7.486,-0l0,-12.093l12.916,-5.841l-0,17.934l11.928,-0l0,10.941l-11.928,0l-0,20.155c-0,2.249 0.343,3.743 1.028,4.484c0.686,0.74 1.824,1.11 3.414,1.11c2.03,0 4.141,-0.439 6.335,-1.316l2.056,10.695Z" style="fill-rule:nonzero;"/></g><g><g><rect id="path169815" serif:id="path1698" x="294.921" y="377.953" width="56.693" height="94.488" style="fill:#fff;"/><path d="M345.929,425.231c0,3.259 -0.482,6.379 -1.446,9.362c-0.964,2.982 -2.369,5.619 -4.215,7.911c-1.845,2.293 -4.132,4.115 -6.859,5.468c-2.728,1.353 -5.827,2.03 -9.298,2.03c-1.929,0 -3.788,-0.304 -5.578,-0.911c-1.791,-0.608 -3.403,-1.464 -4.835,-2.568l-0,17.646l-13.092,-0l0,-62.632l13.092,0l-0.024,2.486c1.268,-1.16 2.812,-2.085 4.632,-2.776c1.82,-0.69 3.777,-1.035 5.872,-1.035c3.419,-0 6.479,0.704 9.18,2.112c2.702,1.409 4.976,3.273 6.823,5.593c1.847,2.319 3.267,4.984 4.259,7.994c0.993,3.01 1.489,6.117 1.489,9.32Zm-13.257,0c0,-1.601 -0.249,-3.176 -0.746,-4.722c-0.497,-1.546 -1.201,-2.913 -2.113,-4.101c-0.911,-1.187 -2.03,-2.154 -3.355,-2.899c-1.326,-0.746 -2.817,-1.119 -4.475,-1.119c-0.828,0 -1.74,0.138 -2.734,0.414c-0.994,0.277 -1.906,0.691 -2.734,1.243c-0.829,0.552 -1.519,1.243 -2.072,2.071c-0.552,0.829 -0.828,1.795 -0.828,2.9l-0,12.178c-0,1.049 0.248,2.002 0.746,2.858c0.497,0.856 1.132,1.574 1.905,2.154c0.774,0.58 1.644,1.036 2.61,1.367c0.967,0.332 1.92,0.497 2.859,0.497c1.712,0 3.259,-0.345 4.64,-1.035c1.381,-0.691 2.527,-1.616 3.438,-2.776c0.912,-1.159 1.616,-2.513 2.113,-4.059c0.497,-1.547 0.746,-3.203 0.746,-4.971Z" style="fill-rule:nonzero;"/></g></g><g><rect id="path169816" serif:id="path1698" x="140.433" y="377.953" width="51.969" height="94.488" style="fill:#fff;"/><path d="M191.22,448.819l-15.065,-0l-9.738,-14.556l-9.738,14.556l-15.065,-0l17.729,-24.787l-15.898,-22.457l14.982,-0l7.99,12.06l7.907,-12.06l15.065,-0l-15.814,22.291l17.645,24.953Z" style="fill-rule:nonzero;"/></g><g><rect id="path169817" serif:id="path1698" x="242.953" y="377.953" width="51.969" height="94.488" style="fill:#fff;"/><path d="M290.596,427.165l-0.158,1.969l-30.472,-0c0.052,1.26 0.367,2.428 0.945,3.504c0.577,1.076 1.338,2.021 2.283,2.834c0.945,0.814 2.034,1.444 3.268,1.89c1.234,0.446 2.533,0.669 3.898,0.669c3.937,0 7.322,-1.312 10.157,-3.937l6.614,8.111c-2.257,2.152 -4.737,3.792 -7.441,4.921c-2.703,1.129 -5.787,1.693 -9.252,1.693c-3.727,-0 -7.034,-0.617 -9.921,-1.85c-2.887,-1.234 -5.315,-2.94 -7.283,-5.119c-1.969,-2.178 -3.465,-4.711 -4.489,-7.598c-1.023,-2.887 -1.535,-5.984 -1.535,-9.291c0,-3.202 0.486,-6.234 1.457,-9.095c0.971,-2.861 2.375,-5.341 4.212,-7.441c1.838,-2.1 4.121,-3.766 6.851,-5c2.729,-1.233 5.827,-1.85 9.291,-1.85c3.832,-0 7.165,0.682 10,2.047c2.835,1.365 5.144,3.202 6.929,5.512c1.785,2.31 3.058,5.026 3.819,8.149c0.761,3.124 1.037,6.418 0.827,9.882Zm-12.362,-6.85c-0,-2.415 -0.88,-4.396 -2.638,-5.945c-1.759,-1.548 -3.924,-2.323 -6.496,-2.323c-2.467,0 -4.515,0.827 -6.142,2.481c-1.627,1.653 -2.572,3.582 -2.835,5.787l18.111,-0Z" style="fill-rule:nonzero;"/></g><g><rect id="path169818" serif:id="path1698" x="88.465" y="377.953" width="51.969" height="94.488" style="fill:#fff;"/><path d="M136.108,427.165l-0.158,1.969l-30.472,-0c0.052,1.26 0.367,2.428 0.945,3.504c0.577,1.076 1.338,2.021 2.283,2.834c0.945,0.814 2.034,1.444 3.268,1.89c1.233,0.446 2.533,0.669 3.897,0.669c3.937,0 7.323,-1.312 10.158,-3.937l6.614,8.111c-2.257,2.152 -4.737,3.792 -7.441,4.921c-2.703,1.129 -5.787,1.693 -9.252,1.693c-3.727,-0 -7.034,-0.617 -9.921,-1.85c-2.887,-1.234 -5.315,-2.94 -7.284,-5.119c-1.968,-2.178 -3.464,-4.711 -4.488,-7.598c-1.023,-2.887 -1.535,-5.984 -1.535,-9.291c-0,-3.202 0.485,-6.234 1.457,-9.095c0.971,-2.861 2.375,-5.341 4.212,-7.441c1.837,-2.1 4.121,-3.766 6.851,-5c2.729,-1.233 5.826,-1.85 9.291,-1.85c3.832,-0 7.165,0.682 10,2.047c2.835,1.365 5.144,3.202 6.929,5.512c1.785,2.31 3.058,5.026 3.819,8.149c0.761,3.124 1.037,6.418 0.827,9.882Zm-12.363,-6.85c0,-2.415 -0.879,-4.396 -2.637,-5.945c-1.759,-1.548 -3.924,-2.323 -6.496,-2.323c-2.468,0 -4.515,0.827 -6.142,2.481c-1.627,1.653 -2.572,3.582 -2.835,5.787l18.11,-0Z" style="fill-rule:nonzero;"/></g><g><rect id="path169819" serif:id="path1698" x="192.402" y="377.953" width="50.551" height="94.488" style="fill:#fff;"/><path d="M238.552,414.524l-10.28,4.944c-1.936,-4.709 -4.997,-7.063 -9.182,-7.063c-1.622,-0 -3.035,0.366 -4.238,1.099c-1.203,0.732 -2.211,1.7 -3.021,2.903c-0.811,1.204 -1.426,2.59 -1.845,4.16c-0.418,1.569 -0.628,3.165 -0.628,4.787c0,1.674 0.223,3.27 0.668,4.787c0.444,1.517 1.098,2.851 1.961,4.002c0.864,1.151 1.91,2.08 3.14,2.786c1.229,0.707 2.629,1.06 4.198,1.06c1.988,-0 3.728,-0.549 5.219,-1.648c1.491,-1.099 2.786,-2.904 3.885,-5.415l10.123,5.022c-1.831,3.872 -4.394,6.985 -7.69,9.339c-3.297,2.355 -7.142,3.532 -11.537,3.532c-3.714,-0 -6.98,-0.615 -9.797,-1.844c-2.816,-1.23 -5.161,-2.917 -7.033,-5.062c-1.872,-2.145 -3.289,-4.644 -4.25,-7.495c-0.962,-2.851 -1.443,-5.925 -1.443,-9.221c-0,-2.93 0.442,-5.808 1.325,-8.633c0.884,-2.825 2.236,-5.349 4.056,-7.573c1.82,-2.224 4.112,-4.015 6.876,-5.376c2.763,-1.36 6.055,-2.04 9.874,-2.04c4.552,-0 8.554,1.19 12.007,3.571c3.453,2.38 5.991,5.506 7.612,9.378Z" style="fill-rule:nonzero;"/></g></g><g><g><rect id="path169820" serif:id="path1698" x="512.48" y="377.953" width="40.157" height="94.488" style="fill:#fff;"/><path d="M546.558,413.374l-1.911,-0.166c-1.772,-0.166 -3.434,-0.069 -4.985,0.291c-1.551,0.36 -2.907,0.983 -4.071,1.869c-1.163,0.886 -2.077,2.036 -2.741,3.448c-0.665,1.412 -0.997,3.088 -0.997,5.026l-0,24.924l-13.293,-0l0,-47.189l13.293,0l-0,4.902c1.606,-2.271 3.6,-3.932 5.982,-4.985c2.381,-1.052 5.289,-1.384 8.723,-0.997l-0,12.877Z" style="fill-rule:nonzero;"/></g><g><rect id="path169821" serif:id="path1698" x="458.15" y="377.953" width="54.331" height="94.488" style="fill:#fff;"/><path d="M507.76,425.746c-0,3.296 -0.523,6.357 -1.57,9.182c-1.046,2.825 -2.537,5.258 -4.473,7.299c-1.936,2.04 -4.29,3.649 -7.063,4.826c-2.773,1.177 -5.86,1.766 -9.261,1.766c-3.4,-0 -6.487,-0.576 -9.26,-1.727c-2.773,-1.151 -5.14,-2.759 -7.102,-4.826c-1.962,-2.067 -3.48,-4.513 -4.552,-7.338c-1.073,-2.825 -1.609,-5.886 -1.609,-9.182c0,-3.401 0.484,-6.579 1.452,-9.535c0.968,-2.956 2.407,-5.52 4.316,-7.691c1.91,-2.171 4.264,-3.871 7.063,-5.101c2.799,-1.229 6.03,-1.844 9.692,-1.844c3.61,-0 6.815,0.628 9.614,1.883c2.799,1.256 5.14,2.969 7.024,5.141c1.883,2.171 3.309,4.735 4.277,7.691c0.968,2.956 1.452,6.108 1.452,9.456Zm-12.321,0c-0,-1.831 -0.249,-3.544 -0.746,-5.14c-0.497,-1.596 -1.177,-2.995 -2.04,-4.199c-0.864,-1.203 -1.923,-2.158 -3.179,-2.864c-1.255,-0.707 -2.616,-1.06 -4.081,-1.06c-1.517,0 -2.903,0.353 -4.159,1.06c-1.256,0.706 -2.328,1.661 -3.218,2.864c-0.889,1.204 -1.569,2.603 -2.04,4.199c-0.471,1.596 -0.706,3.309 -0.706,5.14c-0,3.61 0.915,6.54 2.746,8.79c1.832,2.25 4.291,3.374 7.377,3.374c3.035,0 5.468,-1.124 7.299,-3.374c1.831,-2.25 2.747,-5.18 2.747,-8.79Z" style="fill-rule:nonzero;"/></g><g><rect id="path169822" serif:id="path1698" x="420.827" y="377.953" width="37.323" height="94.488" style="fill:#fff;"/><path d="M455.65,384.09l-1.08,11.134c-0.998,-0.443 -1.912,-0.734 -2.743,-0.872c-0.83,-0.139 -1.689,-0.208 -2.575,-0.208c-2.05,-0 -3.546,0.499 -4.487,1.496c-0.942,0.997 -1.385,2.603 -1.33,4.819l0.083,1.163l8.725,0l-0,10.802l-8.559,0l0,36.395l-13.045,-0l-0,-36.395l-7.312,0l-0,-10.802l7.312,0l-0,-2.742c-0,-10.802 5.484,-16.203 16.452,-16.203c1.44,0 2.908,0.125 4.404,0.374c1.496,0.249 2.881,0.596 4.155,1.039Z" style="fill-rule:nonzero;"/></g></g></g><g><g><rect id="path169823" serif:id="path1698" x="180.118" y="472.441" width="52.441" height="94.488" style="fill:#fff;"/><path d="M227.82,534.123l-5.215,9.184c-1.816,-0.104 -3.463,-0.558 -4.942,-1.362c-1.479,-0.804 -2.685,-1.855 -3.619,-3.152c-1.453,1.349 -3.152,2.361 -5.098,3.035c-1.946,0.675 -4.32,1.012 -7.122,1.012c-2.231,0 -4.371,-0.285 -6.421,-0.856c-2.049,-0.571 -3.853,-1.44 -5.409,-2.607c-1.557,-1.168 -2.802,-2.608 -3.736,-4.32c-0.934,-1.712 -1.401,-3.736 -1.401,-6.071c-0,-2.283 0.337,-4.229 1.012,-5.837c0.674,-1.609 1.53,-2.971 2.568,-4.087c1.038,-1.115 2.218,-2.01 3.542,-2.685c1.323,-0.674 2.633,-1.193 3.93,-1.556c1.297,-0.364 2.517,-0.623 3.658,-0.779c1.142,-0.155 2.05,-0.259 2.724,-0.311c1.09,-0.104 2.478,-0.221 4.164,-0.35c1.687,-0.13 3.23,-0.247 4.631,-0.351l0,-0.622c0,-1.92 -0.441,-3.308 -1.323,-4.164c-0.882,-0.856 -2.413,-1.285 -4.592,-1.285c-2.283,0 -4.462,0.273 -6.538,0.818c-2.075,0.545 -4.358,1.543 -6.849,2.996l-4.592,-9.729c3.165,-1.764 6.265,-3.035 9.301,-3.814c3.035,-0.778 6.187,-1.167 9.456,-1.167c5.656,-0 9.963,1.401 12.921,4.203c2.957,2.802 4.436,7.005 4.436,12.609l-0,14.554c-0,1.972 0.337,3.464 1.012,4.476c0.674,1.011 1.842,1.751 3.502,2.218Zm-16.811,-5.838l-0,-5.526c-0.934,0.052 -1.92,0.104 -2.958,0.156c-1.038,0.052 -1.92,0.13 -2.646,0.234c-0.882,0.103 -1.804,0.207 -2.763,0.311c-0.96,0.104 -1.829,0.324 -2.608,0.661c-0.778,0.338 -1.427,0.818 -1.946,1.44c-0.519,0.623 -0.778,1.505 -0.778,2.647c0,1.504 0.649,2.646 1.946,3.424c1.297,0.779 2.776,1.168 4.436,1.168c2.647,-0 4.528,-0.441 5.643,-1.323c1.116,-0.882 1.674,-1.946 1.674,-3.192Z" style="fill-rule:nonzero;"/></g><g><rect id="path169824" serif:id="path1698" x="385.63" y="472.441" width="47.244" height="94.488" style="fill:#fff;"/><path d="M428.754,529.003c-0,2.093 -0.406,4.016 -1.217,5.769c-0.81,1.752 -2.027,3.269 -3.649,4.551c-1.622,1.282 -3.623,2.276 -6.003,2.982c-2.381,0.707 -5.141,1.06 -8.28,1.06c-3.976,-0 -7.586,-0.589 -10.83,-1.766c-3.244,-1.177 -6.252,-2.917 -9.025,-5.219l7.063,-8.161c2.198,1.831 4.447,3.047 6.749,3.649c2.302,0.601 4.29,0.902 5.965,0.902c2.354,0 3.976,-0.34 4.865,-1.02c0.89,-0.68 1.334,-1.517 1.334,-2.511c0,-0.576 -0.405,-1.19 -1.216,-1.844c-0.811,-0.654 -2.158,-1.191 -4.042,-1.609l-7.769,-1.884c-1.465,-0.314 -2.917,-0.811 -4.356,-1.491c-1.438,-0.68 -2.733,-1.543 -3.884,-2.59c-1.151,-1.046 -2.08,-2.302 -2.786,-3.767c-0.707,-1.465 -1.06,-3.165 -1.06,-5.101c0,-2.145 0.458,-4.12 1.374,-5.925c0.915,-1.805 2.21,-3.374 3.884,-4.709c1.675,-1.334 3.65,-2.367 5.926,-3.099c2.275,-0.733 4.8,-1.099 7.573,-1.099c4.081,-0 7.625,0.549 10.634,1.648c3.008,1.099 5.637,2.616 7.887,4.552l-7.063,8.161c-1.675,-1.308 -3.388,-2.275 -5.141,-2.903c-1.752,-0.628 -3.649,-0.942 -5.689,-0.942c-2.198,-0 -3.82,0.405 -4.866,1.216c-1.047,0.811 -1.57,1.688 -1.57,2.629c0,0.157 0.026,0.367 0.079,0.628c0.052,0.262 0.222,0.536 0.51,0.824c0.288,0.288 0.693,0.576 1.216,0.864c0.523,0.287 1.256,0.536 2.198,0.745l8.161,1.962c1.622,0.419 3.205,0.942 4.748,1.57c1.544,0.627 2.93,1.465 4.16,2.511c1.229,1.046 2.223,2.328 2.982,3.845c0.759,1.518 1.138,3.375 1.138,5.572Z" style="fill-rule:nonzero;"/></g><g><rect id="path169825" serif:id="path1698" x="432.874" y="472.441" width="47.244" height="94.488" style="fill:#fff;"/><path d="M475.998,529.003c-0,2.093 -0.405,4.016 -1.216,5.769c-0.811,1.752 -2.028,3.269 -3.65,4.551c-1.622,1.282 -3.623,2.276 -6.003,2.982c-2.381,0.707 -5.141,1.06 -8.28,1.06c-3.976,-0 -7.586,-0.589 -10.83,-1.766c-3.244,-1.177 -6.252,-2.917 -9.025,-5.219l7.063,-8.161c2.198,1.831 4.447,3.047 6.749,3.649c2.302,0.601 4.291,0.902 5.965,0.902c2.354,0 3.976,-0.34 4.865,-1.02c0.89,-0.68 1.335,-1.517 1.335,-2.511c-0,-0.576 -0.406,-1.19 -1.217,-1.844c-0.811,-0.654 -2.158,-1.191 -4.042,-1.609l-7.769,-1.884c-1.465,-0.314 -2.917,-0.811 -4.355,-1.491c-1.439,-0.68 -2.734,-1.543 -3.885,-2.59c-1.151,-1.046 -2.08,-2.302 -2.786,-3.767c-0.706,-1.465 -1.06,-3.165 -1.06,-5.101c0,-2.145 0.458,-4.12 1.374,-5.925c0.915,-1.805 2.21,-3.374 3.884,-4.709c1.675,-1.334 3.65,-2.367 5.926,-3.099c2.275,-0.733 4.8,-1.099 7.573,-1.099c4.081,-0 7.625,0.549 10.634,1.648c3.008,1.099 5.637,2.616 7.887,4.552l-7.063,8.161c-1.675,-1.308 -3.388,-2.275 -5.141,-2.903c-1.752,-0.628 -3.649,-0.942 -5.689,-0.942c-2.198,-0 -3.82,0.405 -4.866,1.216c-1.046,0.811 -1.57,1.688 -1.57,2.629c0,0.157 0.027,0.367 0.079,0.628c0.052,0.262 0.222,0.536 0.51,0.824c0.288,0.288 0.693,0.576 1.216,0.864c0.524,0.287 1.256,0.536 2.198,0.745l8.162,1.962c1.621,0.419 3.204,0.942 4.747,1.57c1.544,0.627 2.93,1.465 4.16,2.511c1.229,1.046 2.223,2.328 2.982,3.845c0.759,1.518 1.138,3.375 1.138,5.572Z" style="fill-rule:nonzero;"/></g><g><rect id="path169826" serif:id="path1698" x="333.661" y="472.441" width="51.969" height="94.488" style="fill:#fff;"/><path d="M381.305,521.654l-0.158,1.968l-30.472,0c0.052,1.26 0.367,2.428 0.944,3.504c0.578,1.076 1.339,2.021 2.284,2.835c0.945,0.813 2.034,1.443 3.268,1.889c1.233,0.447 2.532,0.67 3.897,0.67c3.937,-0 7.323,-1.313 10.158,-3.937l6.614,8.11c-2.257,2.152 -4.738,3.793 -7.441,4.921c-2.703,1.129 -5.787,1.693 -9.252,1.693c-3.727,0 -7.034,-0.617 -9.921,-1.85c-2.887,-1.234 -5.315,-2.94 -7.284,-5.118c-1.968,-2.179 -3.464,-4.712 -4.488,-7.599c-1.023,-2.887 -1.535,-5.984 -1.535,-9.291c-0,-3.202 0.485,-6.234 1.456,-9.095c0.972,-2.861 2.376,-5.341 4.213,-7.441c1.837,-2.099 4.121,-3.766 6.85,-5c2.73,-1.233 5.827,-1.85 9.292,-1.85c3.832,-0 7.165,0.682 10,2.047c2.834,1.365 5.144,3.202 6.929,5.512c1.785,2.31 3.058,5.026 3.819,8.15c0.761,3.123 1.037,6.417 0.827,9.882Zm-12.363,-6.851c0,-2.415 -0.879,-4.396 -2.637,-5.945c-1.759,-1.548 -3.924,-2.323 -6.497,-2.323c-2.467,0 -4.514,0.827 -6.141,2.481c-1.628,1.653 -2.572,3.582 -2.835,5.787l18.11,0Z" style="fill-rule:nonzero;"/></g><g><rect id="path169827" serif:id="path1698" x="232.559" y="472.441" width="50.551" height="94.488" style="fill:#fff;"/><path d="M278.71,509.012l-10.281,4.944c-1.936,-4.709 -4.996,-7.063 -9.182,-7.063c-1.622,0 -3.034,0.366 -4.238,1.099c-1.203,0.732 -2.21,1.7 -3.021,2.903c-0.811,1.204 -1.426,2.59 -1.844,4.16c-0.419,1.569 -0.628,3.165 -0.628,4.787c-0,1.674 0.222,3.27 0.667,4.787c0.445,1.517 1.099,2.852 1.962,4.003c0.863,1.151 1.91,2.079 3.139,2.786c1.23,0.706 2.629,1.059 4.199,1.059c1.988,0 3.727,-0.549 5.219,-1.648c1.491,-1.099 2.786,-2.904 3.884,-5.415l10.124,5.023c-1.831,3.871 -4.395,6.984 -7.691,9.339c-3.296,2.354 -7.142,3.531 -11.536,3.531c-3.715,0 -6.981,-0.615 -9.797,-1.844c-2.817,-1.23 -5.161,-2.917 -7.033,-5.062c-1.872,-2.145 -3.289,-4.643 -4.251,-7.495c-0.962,-2.851 -1.443,-5.925 -1.443,-9.221c0,-2.93 0.442,-5.807 1.326,-8.633c0.884,-2.825 2.236,-5.349 4.056,-7.573c1.82,-2.223 4.112,-4.015 6.875,-5.376c2.764,-1.36 6.055,-2.04 9.874,-2.04c4.552,-0 8.554,1.19 12.008,3.571c3.453,2.38 5.99,5.506 7.612,9.378Z" style="fill-rule:nonzero;"/></g><g><rect id="path169828" serif:id="path1698" x="283.11" y="472.441" width="50.551" height="94.488" style="fill:#fff;"/><path d="M329.261,509.012l-10.281,4.944c-1.935,-4.709 -4.996,-7.063 -9.182,-7.063c-1.621,0 -3.034,0.366 -4.237,1.099c-1.204,0.732 -2.211,1.7 -3.022,2.903c-0.811,1.204 -1.426,2.59 -1.844,4.16c-0.419,1.569 -0.628,3.165 -0.628,4.787c0,1.674 0.222,3.27 0.667,4.787c0.445,1.517 1.099,2.852 1.962,4.003c0.863,1.151 1.91,2.079 3.139,2.786c1.23,0.706 2.629,1.059 4.199,1.059c1.988,0 3.728,-0.549 5.219,-1.648c1.491,-1.099 2.786,-2.904 3.884,-5.415l10.124,5.023c-1.831,3.871 -4.395,6.984 -7.691,9.339c-3.296,2.354 -7.141,3.531 -11.536,3.531c-3.715,0 -6.98,-0.615 -9.797,-1.844c-2.817,-1.23 -5.161,-2.917 -7.033,-5.062c-1.872,-2.145 -3.289,-4.643 -4.251,-7.495c-0.962,-2.851 -1.442,-5.925 -1.442,-9.221c-0,-2.93 0.441,-5.807 1.325,-8.633c0.884,-2.825 2.236,-5.349 4.056,-7.573c1.82,-2.223 4.112,-4.015 6.875,-5.376c2.764,-1.36 6.055,-2.04 9.874,-2.04c4.552,-0 8.555,1.19 12.008,3.571c3.453,2.38 5.99,5.506 7.612,9.378Z" style="fill-rule:nonzero;"/></g></g><g><g><g><rect id="path169829" serif:id="path1698" x="194.173" y="165.354" width="54.331" height="94.488" style="fill:#fff;"/><path d="M243.783,213.148c0,3.296 -0.523,6.357 -1.569,9.182c-1.047,2.825 -2.538,5.258 -4.473,7.298c-1.936,2.041 -4.291,3.65 -7.063,4.827c-2.773,1.177 -5.86,1.765 -9.261,1.765c-3.401,0 -6.487,-0.575 -9.26,-1.726c-2.773,-1.151 -5.141,-2.76 -7.103,-4.826c-1.962,-2.067 -3.479,-4.513 -4.551,-7.338c-1.073,-2.825 -1.609,-5.886 -1.609,-9.182c-0,-3.401 0.484,-6.579 1.452,-9.535c0.967,-2.956 2.406,-5.52 4.316,-7.691c1.91,-2.172 4.264,-3.872 7.063,-5.101c2.799,-1.23 6.03,-1.845 9.692,-1.845c3.61,0 6.815,0.628 9.614,1.884c2.799,1.256 5.14,2.969 7.024,5.14c1.883,2.171 3.309,4.735 4.277,7.691c0.968,2.956 1.451,6.108 1.451,9.457Zm-12.321,-0c0,-1.831 -0.248,-3.545 -0.745,-5.141c-0.497,-1.595 -1.177,-2.995 -2.041,-4.198c-0.863,-1.204 -1.922,-2.158 -3.178,-2.865c-1.256,-0.706 -2.616,-1.059 -4.081,-1.059c-1.517,-0 -2.904,0.353 -4.159,1.059c-1.256,0.707 -2.328,1.661 -3.218,2.865c-0.889,1.203 -1.569,2.603 -2.04,4.198c-0.471,1.596 -0.707,3.31 -0.707,5.141c0,3.61 0.916,6.54 2.747,8.789c1.831,2.25 4.29,3.375 7.377,3.375c3.035,-0 5.467,-1.125 7.299,-3.375c1.831,-2.249 2.746,-5.179 2.746,-8.789Z" style="fill-rule:nonzero;"/></g><g><rect id="path169830" serif:id="path1698" x="248.504" y="165.354" width="56.22" height="94.488" style="fill:#fff;"/><path d="M297.471,236.22l-13.349,0l0,-29.616c0,-2.502 -0.58,-4.31 -1.742,-5.422c-1.161,-1.113 -2.82,-1.669 -4.977,-1.669c-1.052,0 -2.075,0.139 -3.071,0.417c-0.995,0.278 -1.88,0.723 -2.654,1.335c-0.775,0.612 -1.397,1.405 -1.867,2.378c-0.47,0.973 -0.705,2.183 -0.705,3.629l-0,28.948l-13.348,0l-0,-47.385l13.348,-0l-0.057,3.003c1.448,-1.335 3.19,-2.391 5.224,-3.17c2.034,-0.779 3.999,-1.168 5.893,-1.168c2.843,-0 5.337,0.417 7.482,1.251c2.146,0.835 3.957,1.989 5.434,3.463c1.477,1.473 2.578,3.198 3.302,5.172c0.724,1.974 1.087,4.129 1.087,6.465l-0,32.369Z" style="fill-rule:nonzero;"/></g><g><rect x="106.299" y="165.354" width="87.874" height="94.488" style="fill:#fff;"/><path d="M184.403,236.22l-14.084,0l0.087,-42.737l-20.257,26.711l-20.344,-26.711l0,42.737l-13.736,0l-0,-66.141l13.823,-0l20.257,27.559l20.257,-27.559l13.997,-0l0,66.141Z" style="fill-rule:nonzero;"/></g></g><g><g><rect id="path169831" serif:id="path1698" x="495.118" y="165.354" width="39.685" height="94.488" style="fill:#fff;"/><path d="M531.578,233.874c-1.371,0.603 -3.044,1.111 -5.018,1.522c-1.974,0.411 -4.168,0.617 -6.581,0.617c-4.388,-0 -7.843,-1.028 -10.366,-3.085c-2.522,-2.057 -3.784,-5.388 -3.784,-9.995l0,-24.186l-7.486,-0l-0,-10.942l7.486,0l0,-12.093l12.916,-5.841l-0,17.934l11.928,0l0,10.942l-11.928,-0l-0,20.155c-0,2.248 0.343,3.743 1.028,4.483c0.686,0.741 1.824,1.111 3.414,1.111c2.029,-0 4.141,-0.439 6.335,-1.316l2.056,10.694Z" style="fill-rule:nonzero;"/></g><g><rect id="path169832" serif:id="path1698" x="442.677" y="165.354" width="52.441" height="94.488" style="fill:#fff;"/><path d="M490.379,227.036l-5.214,9.184c-1.817,-0.103 -3.464,-0.557 -4.943,-1.362c-1.479,-0.804 -2.685,-1.855 -3.619,-3.152c-1.453,1.349 -3.152,2.361 -5.098,3.036c-1.946,0.674 -4.32,1.011 -7.122,1.011c-2.231,0 -4.371,-0.285 -6.421,-0.856c-2.049,-0.57 -3.852,-1.44 -5.409,-2.607c-1.557,-1.168 -2.802,-2.607 -3.736,-4.32c-0.934,-1.712 -1.401,-3.736 -1.401,-6.071c-0,-2.283 0.337,-4.229 1.012,-5.837c0.674,-1.609 1.53,-2.971 2.568,-4.086c1.038,-1.116 2.218,-2.011 3.542,-2.685c1.323,-0.675 2.633,-1.194 3.93,-1.557c1.297,-0.363 2.517,-0.623 3.658,-0.778c1.142,-0.156 2.05,-0.26 2.724,-0.312c1.09,-0.104 2.478,-0.22 4.164,-0.35c1.687,-0.13 3.23,-0.246 4.631,-0.35l0,-0.623c0,-1.92 -0.441,-3.308 -1.323,-4.164c-0.882,-0.856 -2.413,-1.284 -4.592,-1.284c-2.283,-0 -4.462,0.272 -6.538,0.817c-2.075,0.545 -4.358,1.544 -6.849,2.997l-4.592,-9.729c3.165,-1.765 6.265,-3.036 9.301,-3.814c3.035,-0.778 6.188,-1.168 9.456,-1.168c5.656,0 9.963,1.401 12.921,4.203c2.957,2.802 4.436,7.005 4.436,12.609l0,14.555c0,1.971 0.337,3.463 1.012,4.475c0.674,1.012 1.842,1.751 3.502,2.218Zm-16.811,-5.837l-0,-5.526c-0.934,0.052 -1.92,0.104 -2.958,0.155c-1.038,0.052 -1.92,0.13 -2.646,0.234c-0.882,0.104 -1.803,0.208 -2.763,0.311c-0.96,0.104 -1.829,0.325 -2.608,0.662c-0.778,0.337 -1.427,0.817 -1.946,1.44c-0.518,0.622 -0.778,1.505 -0.778,2.646c0,1.505 0.649,2.646 1.946,3.425c1.297,0.778 2.776,1.167 4.436,1.167c2.647,0 4.528,-0.441 5.643,-1.323c1.116,-0.882 1.674,-1.946 1.674,-3.191Z" style="fill-rule:nonzero;"/></g><g><rect x="373.701" y="165.354" width="68.976" height="94.488" style="fill:#fff;"/><path d="M435.523,217.521c0,2.613 -0.516,5.063 -1.548,7.349c-1.033,2.287 -2.624,4.274 -4.772,5.961c-2.149,1.688 -4.87,3.008 -8.163,3.96c-3.293,0.953 -7.2,1.429 -11.721,1.429c-2.679,0 -5.358,-0.313 -8.037,-0.939c-2.679,-0.626 -5.246,-1.51 -7.702,-2.653c-2.456,-1.144 -4.772,-2.532 -6.949,-4.165c-2.177,-1.633 -4.102,-3.484 -5.776,-5.553l10.716,-8.41c2.065,2.831 4.716,5.049 7.953,6.655c3.237,1.606 6.53,2.463 9.879,2.572c3.851,0.163 6.711,-0.327 8.581,-1.47c1.87,-1.143 2.805,-2.722 2.805,-4.736c-0,-2.232 -0.851,-3.906 -2.554,-5.022c-1.702,-1.116 -3.865,-1.973 -6.488,-2.572l-9.46,-2.041c-2.344,-0.545 -4.675,-1.252 -6.991,-2.123c-2.316,-0.871 -4.409,-2.042 -6.279,-3.512c-1.87,-1.469 -3.39,-3.293 -4.563,-5.471c-1.172,-2.177 -1.758,-4.817 -1.758,-7.92c0,-2.559 0.531,-4.981 1.591,-7.268c1.06,-2.286 2.651,-4.287 4.772,-6.001c2.121,-1.715 4.772,-3.063 7.953,-4.042c3.182,-0.98 6.921,-1.47 11.219,-1.47c5.637,-0 10.646,0.966 15.028,2.899c4.381,1.932 8.051,4.695 11.009,8.288l-11.135,8.329c-1.619,-2.178 -3.726,-3.906 -6.321,-5.186c-2.595,-1.279 -5.456,-1.918 -8.581,-1.918c-3.516,-0 -6.195,0.571 -8.037,1.714c-1.842,1.143 -2.763,2.532 -2.763,4.165c0,1.633 0.767,2.994 2.302,4.083c1.535,1.088 4.089,2.041 7.661,2.858l8.288,1.959c7.144,1.688 12.237,4.206 15.279,7.554c3.042,3.347 4.562,7.58 4.562,12.697Z" style="fill-rule:nonzero;"/></g></g><g><rect id="path169833" serif:id="path1698" x="322.441" y="165.354" width="33.543" height="94.488" style="fill:#fff;"/><rect x="327.165" y="203.15" width="18.898" height="9.449" style="fill-rule:nonzero;"/></g></g></g></svg>