<?xml version="1.0" encoding="UTF-8" standalone="no"?><!DOCTYPE svg PUBLIC "-//W3C//DTD SVG 1.1//EN" "http://www.w3.org/Graphics/SVG/1.1/DTD/svg11.dtd"><svg width="100%" height="100%" viewBox="0 0 454 454" version="1.1" xmlns="http://www.w3.org/2000/svg" xmlns:xlink="http://www.w3.org/1999/xlink" xml:space="preserve" xmlns:serif="http://www.serif.com/" style="fill-rule:evenodd;clip-rule:evenodd;stroke-linejoin:round;stroke-miterlimit:2;"><g transform="matrix(50,0,0,50,321.022,262.709)"></g><text x="133.4px" y="262.709px" style="font-family:'ArialMT', 'Arial', sans-serif;font-size:50px;">sw=38.4</text><g id="_619-No-Motor-Vehicles" serif:id="619 No Motor Vehicles"><circle cx="226.772" cy="226.772" r="226.772" style="fill:#e31837;"/><circle cx="226.772" cy="226.772" r="181.417" style="fill:#fff;"/><path d="M140.572,339.63l0.014,31.834c3.626,4.11 8.865,6.476 14.369,6.476c5.503,-0 10.742,-2.366 14.368,-6.476l-0.015,-29.472l19.137,1.167l19.138,0.778l19.215,0.467l19.138,-0.467l19.137,-0.778l19.137,-1.167l-0.014,29.472c3.626,4.11 8.864,6.476 14.368,6.476c5.504,-0 10.742,-2.366 14.368,-6.476l-0.025,-31.834c4.431,-2.592 7.167,-7.332 7.206,-12.441l-0,-40.305c-0.039,-7.484 -5.759,-13.704 -13.191,-14.311l-7.497,-46.827c-1.888,-11.611 -11.901,-20.153 -23.637,-20.153l-98.099,0c-11.775,0 -21.789,8.544 -23.636,20.154l-7.496,46.826c-7.471,0.607 -13.191,6.827 -13.152,14.311l-0,40.305c-0.039,5.109 2.697,9.849 7.167,12.441Zm134.069,-16.156l-95.765,-0l-0,6.613c-0,0 10.63,0.455 15.947,0.623c5.329,0.168 10.697,0.298 16.026,0.389c5.316,0.09 10.632,0.155 15.948,0.155c5.316,0 10.633,-0.064 15.948,-0.155c5.316,-0.091 10.633,-0.221 15.948,-0.389c5.316,-0.169 15.948,-0.623 15.948,-0.623l-0,-6.613Zm-0,-14.94l-0,7.781l-95.765,0l-0,-7.781l95.765,0Zm8.09,-13.188c0,7.412 6.009,13.422 13.42,13.422c7.411,-0 13.42,-6.01 13.42,-13.422c-0,-7.413 -6.009,-13.422 -13.42,-13.422c-7.411,-0 -13.42,6.009 -13.42,13.422Zm-138.785,-0c-0,-7.413 6.008,-13.422 13.419,-13.422c7.412,-0 13.42,6.009 13.42,13.422c-0,7.412 -6.008,13.422 -13.42,13.422c-7.411,-0 -13.419,-6.01 -13.419,-13.422Zm98.799,-1.673c5.316,0.091 10.633,0.207 15.948,0.389c5.316,0.181 15.948,0.7 15.948,0.7l-0,6.536l-95.765,0l-0,-6.536c-0,0 10.629,-0.519 15.947,-0.7c5.329,-0.182 10.697,-0.298 16.026,-0.389c5.316,-0.091 10.632,-0.156 15.948,-0.156c5.316,0 10.633,0.065 15.948,0.156Zm52.102,-40.532c0.44,2.914 -0.457,5.872 -2.455,8.034c-1.998,2.161 -4.876,3.288 -7.763,3.032c-0,0 -19.26,-0.733 -28.892,-1.035c-9.639,-0.303 -19.293,-0.778 -28.94,-0.778c-9.646,-0 -19.294,0.476 -28.94,0.778c-9.651,0.302 -28.969,1.035 -28.969,1.035c-2.965,0.256 -5.844,-0.871 -7.842,-3.032c-1.998,-2.162 -2.895,-5.12 -2.416,-8.034l2.174,-13.421c1.471,-9.453 8.99,-16.766 18.493,-18.008c0,-0 19.932,-1.525 29.918,-1.802c10.834,-0.3 24.252,-0.3 35.086,0c9.986,0.277 29.917,1.802 29.917,1.802c9.425,1.241 16.944,8.553 18.494,18.007l2.135,13.422Z"/><path d="M165.697,126.172l2.07,0.09l2.04,0.24l2.04,0.33l2.01,0.45l1.98,0.57l1.95,0.69l-1.74,3.001l-1.83,-0.63l-1.89,-0.51l-1.89,-0.39l-1.92,-0.27l-1.92,-0.15l-1.95,-0.03l-1.92,0.09l-1.95,0.18l-1.89,0.33l-1.89,0.42l-1.86,0.54l-1.83,0.66l-1.8,0.75l-1.71,0.87l-1.68,0.99l-1.62,1.08l-1.56,1.17l-1.47,1.26l-1.38,1.35l-1.321,1.411l-1.2,1.53l-1.14,1.56l-1.02,1.65l-0.93,1.71l-0.81,1.74l-0.72,1.801l-0.6,1.86l-0.51,1.86l-0.36,1.89l-0.27,1.92l-0.15,1.95l-0.03,1.921l0.09,1.95l0.21,1.92l0.33,1.92l0.45,1.89l0.54,1.861l0.66,1.8l0.78,1.8l0.9,1.71l0.96,1.68l1.08,1.59l1.2,1.561l1.26,1.44l1.35,1.41l1.441,1.29l1.5,1.2l1.59,1.14l1.65,1.02l1.71,0.9l1.77,0.81l1.8,0.721l1.83,0.6l1.89,0.48l1.89,0.36l1.92,0.24l1.95,0.15l1.95,-0l1.92,-0.09l1.92,-0.24l1.92,-0.33l1.89,-0.45l1.86,-0.54l1.8,-0.691l1.77,-0.78l1.74,-0.9l1.65,-0.99l1.59,-1.08l1.56,-1.2l1.44,-1.26l1.38,-1.38l1.291,-1.44l1.2,-1.501l1.11,-1.59l1.02,-1.65l0.9,-1.74l0.81,-1.74l0.69,-1.83l0.6,-1.831l0.45,-1.89l0.36,-1.89l0.24,-1.92l0.12,-1.95l-0,-1.95l-0.09,-1.921l-0.24,-1.92l-0.33,-1.92l-0.48,-1.86l-0.57,-1.86l-0.69,-1.831l-0.78,-1.77l-0.9,-1.71l-0.99,-1.65l-1.11,-1.59l-1.2,-1.53l-1.29,-1.471l-1.351,-1.35l-1.47,-1.29l1.741,-3l1.56,1.35l1.5,1.44l1.41,1.5l1.29,1.621l1.23,1.65l1.11,1.74l1.02,1.8l0.9,1.86l0.81,1.89l0.69,1.951l0.57,2.01l0.45,2.01l0.33,2.04l0.21,2.04l0.09,2.071l-0.03,2.07l-0,1.29l0.15,1.29l0.24,1.26l0.36,1.23l0.51,1.2l0.57,1.14l0.72,1.081l0.81,1.02l0.87,0.93l0.99,0.84l1.05,0.75l1.11,0.63l1.17,0.54l1.23,0.42l1.26,0.3l1.26,0.18l1.29,0.06l57.211,0l0.99,1.65l1.08,1.56l1.17,1.531l1.26,1.41l1.35,1.38l1.411,1.26l1.5,1.2l1.56,1.08l1.65,1.02l1.68,0.9l1.74,0.78l1.77,0.72l1.83,0.57l1.83,0.481l1.89,0.36l1.89,0.27l1.89,0.12l1.92,0.03l1.92,-0.09l1.89,-0.18l1.89,-0.33l1.86,-0.42l1.83,-0.54l1.8,-0.66l1.77,-0.751l1.71,-0.84l1.65,-0.96l1.59,-1.05l1.53,-1.17l1.44,-1.23l1.38,-1.32l1.32,-1.41l1.201,-1.47l1.109,-1.561l1.051,-1.59l0.93,-1.68l0.809,-1.71l0.72,-1.77l0.631,-1.8l0.51,-1.861l0.389,-1.86l0.301,-1.89l0.15,-1.92l0.06,-1.89l6.12,-0l-0.06,-2.131l-0.15,-2.1l-0.301,-2.1l-0.419,-2.07l-0.51,-2.07l-0.661,-2.011l-0.75,-1.98l-0.839,-1.92l-0.96,-1.89l-1.081,-1.83l-1.169,-1.77l-1.261,-1.711l-1.35,-1.62l-1.44,-1.56l-1.53,-1.44l-1.59,-1.38l-1.68,-1.29l-1.77,-1.2l-1.8,-1.081l-1.89,-0.99l-1.92,-0.9l-0,-2.37l-0.06,-0.9l-0.15,-0.87l-0.3,-0.84l-0.39,-0.81l-0.51,-0.72l-0.57,-0.69l-0.66,-0.57l-0.75,-0.511l-0.81,-0.39l-0.84,-0.27l-0.87,-0.18l-0.87,-0.06l-29.941,0l0,-1.95l-0.06,-1.26l-0.18,-1.26l-0.3,-1.23l-0.39,-1.2l-0.54,-1.14l-0.6,-1.11l-0.72,-1.051l-0.81,-0.96l-16.08,-17.431l-15.69,-6.691l-2.73,0l-0,-4.65l0.69,-0.961l0.63,-1.05l0.51,-1.08l0.39,-1.14l0.27,-1.14l0.18,-1.2l0.06,-1.2l-0.09,-1.2l-0.18,-1.17l-0.3,-1.171l-0.39,-1.14l-0.54,-1.08l-0.6,-1.02l-0.72,-0.96l-0.81,-0.87l-0.9,-0.81l-0.96,-0.72l-1.051,-0.6l-1.08,-0.51l-1.14,-0.39l-1.14,-0.3l-1.2,-0.18l-1.2,-0.06l-1.2,0.09l-1.17,0.18l-1.17,0.27l-1.14,0.42l-1.08,0.51l-1.02,0.63l-0.96,0.72l-0.9,0.78l-0.81,0.9l-0.69,0.96l-0.63,1.05l-0.51,1.08l-0.39,1.111l-0.3,1.17l-0.18,1.2l-0.06,1.2l0,1.35l2.73,0l0,8.161l0.06,0.87l0.15,0.84l0.27,0.81l0.36,0.78l0.48,0.72l0.54,0.66l0.63,0.6l0.72,0.48l0.75,0.42l0.81,0.3l0.81,0.21l0.87,0.09l0.87,0l0.84,-0.12l0,0.78l-0.03,0.481l-0.12,0.45l-0.21,0.42l-8.49,14.611l-9.87,7.891l-0.48,0.33l-0.57,0.24l-0.57,0.15l-0.6,0.03l-0.57,-0.06l-0.57,-0.18l-0.54,-0.27l-0.48,-0.36l-0.42,-0.42l-0.33,-0.51l-0.21,-0.54l-0.15,-0.57l-0.03,-0.6l0.06,-0.601l6.33,-29.672l0,-0.331l-0.06,-0.3l-0.18,-0.27l-0.24,-0.21l-0.3,-0.12l-0.33,0l-0.3,0.06l-0.27,0.18l-0.21,0.24l-13.98,23.283l-0.93,1.5l-1.05,1.38l-1.14,1.35l-1.2,1.26l-1.29,1.2l-1.38,1.08l-1.44,1.02l-1.47,0.901l-1.56,0.81l-1.621,0.72l-1.62,0.6l-1.68,0.51l-1.71,0.39l-1.74,0.27l-1.74,0.18l-1.74,0.06l-7.59,-0l-0,12.931l2.04,0Zm-1.11,23.133l-1.2,0.09l-1.17,0.21l-1.14,0.33l-1.11,0.45l-1.05,0.54l-1.02,0.63l-0.93,0.75l-0.87,0.84l-0.78,0.9l-0.66,0.96l-0.6,1.05l-0.48,1.08l-0.36,1.14l-0.27,1.171l-0.15,1.2l-0.03,1.17l0.09,1.2l0.21,1.17l0.3,1.17l0.42,1.11l0.54,1.05l0.63,1.02l0.72,0.93l0.84,0.871l0.9,0.81l0.96,0.69l1.02,0.6l1.11,0.48l1.11,0.39l1.17,0.27l1.17,0.15l1.2,0.06l1.2,-0.09l1.17,-0.18l1.17,-0.3l1.11,-0.42l1.08,-0.51l1.02,-0.63l0.93,-0.72l0.9,-0.811l0.78,-0.87l0.72,-0.99l0.6,-1.02l0.51,-1.08l0.39,-1.11l0.3,-1.17l0.15,-1.17l0.06,-1.2l-0.06,-1.2l-0.18,-1.171l-0.27,-1.17l-0.42,-1.11l-0.51,-1.08l-0.6,-1.02l3.63,-6.331l0.99,1.141l0.9,1.2l0.78,1.26l0.69,1.29l0.6,1.38l0.48,1.41l0.36,1.44l0.24,1.47l0.15,1.471l0.03,1.5l-0.09,1.47l-0.21,1.47l-0.33,1.47l-0.45,1.41l-0.54,1.38l-0.66,1.351l-0.75,1.29l-0.84,1.2l-0.96,1.17l-1.02,1.05l-1.11,0.99l-1.2,0.9l-1.23,0.81l-1.32,0.72l-1.35,0.57l-1.41,0.51l-1.44,0.36l-1.47,0.271l-1.47,0.15l-1.5,0.059l-1.47,-0.09l-1.5,-0.21l-1.44,-0.3l-1.44,-0.42l-1.38,-0.54l-1.35,-0.63l-1.29,-0.75l-1.23,-0.84l-1.14,-0.96l-1.08,-1.02l-0.99,-1.08l-0.93,-1.2l-0.81,-1.23l-0.72,-1.321l-0.6,-1.35l-0.51,-1.41l-0.39,-1.44l-0.27,-1.44l-0.15,-1.5l-0.06,-1.47l0.06,-1.501l0.21,-1.47l0.3,-1.44l0.39,-1.44l0.54,-1.41l0.63,-1.32l0.72,-1.32l0.84,-1.23l0.93,-1.171l1.02,-1.08l1.08,-0.99l1.17,-0.93l1.26,-0.81l1.29,-0.75l1.35,-0.6l1.38,-0.51l1.44,-0.42l1.47,-0.27l1.47,-0.18l1.5,-0.06l1.47,0.06l1.5,0.15l1.44,0.3l-3.63,6.3l-1.2,0.001Zm124.803,4.68l-0.69,0.99l-0.6,1.02l-0.48,1.11l-0.39,1.11l-0.24,1.17l-0.15,1.201l-0.06,1.17l0.09,1.2l0.21,1.17l0.3,1.17l0.42,1.11l0.51,1.08l0.63,0.99l0.75,0.96l0.81,0.871l0.9,0.78l0.96,0.72l1.02,0.6l1.08,0.48l1.14,0.39l1.17,0.3l1.17,0.15l1.2,0.06l1.17,-0.06l1.2,-0.21l1.14,-0.27l1.14,-0.42l1.05,-0.51l1.05,-0.63l0.93,-0.72l0.9,-0.78l0.78,-0.901l0.72,-0.96l0.63,-1.02l0.51,-1.08l0.39,-1.11l0.3,-1.17l0.18,-1.17l0.06,-1.2l-0.06,-1.2l-0.18,-1.171l-0.27,-1.17l-0.42,-1.11l-0.48,-1.08l-0.63,-1.05l-0.69,-0.96l-0.78,-0.87l-0.9,-0.81l-0.93,-0.72l-1.02,-0.63l-1.08,-0.54l-1.11,-0.39l-1.17,-0.33l-1.17,-0.18l-2.49,-6.841l1.47,-0.03l1.5,0.09l1.47,0.21l1.47,0.3l1.41,0.42l1.38,0.54l1.35,0.66l1.29,0.75l1.23,0.84l1.14,0.93l1.08,1.02l0.99,1.11l0.9,1.201l0.81,1.23l0.72,1.32l0.6,1.35l0.51,1.41l0.39,1.44l0.27,1.47l0.15,1.471l0.03,1.47l-0.06,1.5l-0.18,1.47l-0.33,1.47l-0.39,1.41l-0.54,1.41l-0.63,1.351l-0.75,1.29l-0.84,1.23l-0.93,1.14l-1.02,1.11l-1.08,0.99l-1.17,0.9l-1.26,0.84l-1.29,0.72l-1.35,0.6l-1.41,0.51l-1.44,0.42l-1.44,0.27l-1.5,0.18l-1.47,0.06l-1.5,-0.06l-1.47,-0.18l-1.47,-0.3l-1.41,-0.42l-1.41,-0.51l-1.35,-0.63l-1.29,-0.72l-1.23,-0.81l-1.17,-0.93l-1.11,-1.02l-1.02,-1.08l-0.9,-1.17l-0.84,-1.23l-0.721,-1.29l-0.63,-1.351l-0.54,-1.41l-0.39,-1.41l-0.3,-1.47l-0.18,-1.47l-0.06,-1.5l0.031,-1.47l0.18,-1.501l0.27,-1.44l0.39,-1.44l0.51,-1.41l0.6,-1.35l0.72,-1.29l0.81,-1.26l0.93,-1.171l0.99,-1.11l1.08,-1.02l1.17,-0.93l2.49,6.841l-0.78,0.9Zm-24.361,-18.992l0,20.522l0.06,0.42l0.21,0.36l0.3,0.27l0.39,0.18l0.39,0.03l0.42,-0.09l0.36,-0.21l0.27,-0.3l0.15,-0.39l0.42,-1.92l0.51,-1.89l0.66,-1.86l0.75,-1.801l0.87,-1.77l0.96,-1.71l1.08,-1.62l1.17,-1.59l1.26,-1.47l1.38,-1.44l1.44,-1.321l0.24,-0.27l0.15,-0.33l0.06,-0.36l-0.03,-0.36l-0.12,-0.36l-0.21,-0.3l-0.3,-0.21l-0.33,-0.15l-0.36,-0.06l-12.15,0Zm-22.95,-18.362l-1.11,-0.75l-1.02,-0.87l-0.96,-0.93l-0.9,-1.02l-0.78,-1.08l-0.72,-1.14l-0.6,-1.2l-0.51,-1.26l-0.39,-1.261l-25.861,14.972l25.861,8.161l8.16,-12.932l-1.17,-0.69Z"/></g></svg>