<?xml version="1.0" encoding="UTF-8" standalone="no"?><!DOCTYPE svg PUBLIC "-//W3C//DTD SVG 1.1//EN" "http://www.w3.org/Graphics/SVG/1.1/DTD/svg11.dtd"><svg width="100%" height="100%" viewBox="0 0 454 454" version="1.1" xmlns="http://www.w3.org/2000/svg" xmlns:xlink="http://www.w3.org/1999/xlink" xml:space="preserve" xmlns:serif="http://www.serif.com/" style="fill-rule:evenodd;clip-rule:evenodd;stroke-linecap:round;stroke-linejoin:round;stroke-miterlimit:10;"><g transform="matrix(50,0,0,50,321.022,262.709)"></g><text x="133.4px" y="262.709px" style="font-family:'ArialMT', 'Arial', sans-serif;font-size:50px;">sw=38.4</text><g id="_619.2-No-Solo-Motorcycles" serif:id="619.2 No Solo Motorcycles"><circle cx="226.772" cy="226.772" r="226.772" style="fill:#e31837;"/><circle cx="226.772" cy="226.772" r="181.417" style="fill:#fff;"/><path d="M75.847,252.403l0.405,-2.881l0.54,-2.835l0.765,-2.79l0.901,-2.79l1.08,-2.701l1.215,-2.61l1.395,-2.565l1.53,-2.475l1.71,-2.341l1.8,-2.295l1.98,-2.115l2.07,-2.025l2.205,-1.89l2.34,-1.756l2.43,-1.62l2.52,-1.485l2.565,-1.305l2.7,-1.125l2.745,-0.99l2.79,-0.81l2.835,-0.63l2.835,-0.495l2.925,-0.27l2.88,-0.135l2.926,0.045l2.88,0.225l2.88,0.405l2.835,0.585l2.835,0.765l2.745,0.945l2.61,-4.501l-2.925,-1.035l-2.97,-0.855l-3.015,-0.675l-3.06,-0.495l-3.06,-0.36l-3.105,-0.135l-3.061,0l0,-19.397l11.386,0l2.61,-0.09l2.61,-0.27l2.61,-0.405l2.565,-0.585l2.52,-0.765l2.43,-0.9l2.43,-1.08l2.34,-1.215l2.205,-1.35l2.16,-1.531l2.07,-1.62l1.935,-1.8l1.8,-1.89l1.71,-2.025l1.575,-2.07l1.395,-2.251l20.971,-34.923l0.315,-0.36l0.405,-0.27l0.45,-0.09l0.495,-0l0.45,0.18l0.36,0.315l0.27,0.405l0.09,0.45l0,0.495l-9.495,44.509l-0.09,0.9l0.045,0.901l0.225,0.855l0.315,0.81l0.495,0.765l0.63,0.63l0.72,0.54l0.81,0.405l0.855,0.27l0.855,0.09l0.9,-0.045l0.855,-0.225l0.855,-0.36l0.72,-0.495l14.805,-11.836l12.736,-21.917l0.315,-0.63l0.18,-0.676l0.045,-0.72l-0,-1.17l-1.26,0.18l-1.305,0l-1.305,-0.135l-1.216,-0.315l-1.215,-0.45l-1.125,-0.63l-1.08,-0.72l-0.945,-0.9l-0.81,-0.99l-0.72,-1.08l-0.54,-1.17l-0.405,-1.215l-0.225,-1.261l-0.09,-1.305l0,-12.241l-4.095,0l0,-2.025l0.09,-1.8l0.27,-1.8l0.45,-1.756l0.585,-1.665l0.765,-1.62l0.945,-1.575l1.035,-1.44l1.215,-1.35l1.35,-1.17l1.44,-1.08l1.53,-0.946l1.62,-0.765l1.711,-0.63l1.755,-0.405l1.755,-0.27l1.8,-0.135l1.8,0.09l1.8,0.27l1.71,0.45l1.71,0.585l1.62,0.765l1.575,0.901l1.44,1.08l1.35,1.215l1.215,1.305l1.08,1.44l0.9,1.53l0.81,1.62l0.585,1.71l0.45,1.756l0.27,1.755l0.135,1.8l-0.09,1.8l-0.27,1.8l-0.405,1.71l-0.585,1.711l-0.765,1.62l-0.945,1.575l-1.035,1.44l-0,6.976l4.095,-0l23.536,10.036l24.12,26.147l1.215,1.44l1.08,1.576l0.9,1.665l0.81,1.71l0.585,1.8l0.45,1.845l0.27,1.89l0.09,1.891l0,2.925l44.911,-0l1.305,0.09l1.305,0.27l1.26,0.405l1.215,0.585l1.125,0.765l0.99,0.855l0.855,1.035l0.765,1.08l0.585,1.215l0.45,1.261l0.225,1.305l0.09,1.35l-0,3.555l2.88,1.35l2.835,1.485l2.7,1.621l2.656,1.8l2.519,1.935l2.385,2.07l2.295,2.16l2.16,2.341l2.025,2.43l1.891,2.565l1.754,2.655l1.621,2.746l1.44,2.835l1.259,2.88l1.125,2.97l0.991,3.016l0.765,3.105l0.629,3.105l0.451,3.151l0.225,3.15l0.09,3.195l-9.18,0l-0.09,2.835l-0.225,2.881l-0.451,2.835l-0.584,2.79l-0.765,2.79l-0.946,2.701l-1.08,2.655l-1.214,2.565l-1.395,2.52l-1.576,2.386l-1.664,2.34l-1.801,2.205l-1.98,2.115l-2.069,1.981l-2.16,1.845l-2.295,1.755l-2.386,1.575l-2.475,1.44l-2.565,1.26l-2.655,1.125l-2.7,0.991l-2.745,0.81l-2.79,0.63l-2.835,0.495l-2.835,0.27l-2.88,0.135l-2.88,-0.045l-2.835,-0.18l-2.835,-0.405l-2.835,-0.54l-2.745,-0.72l-2.745,-0.856l-2.655,-1.08l-2.611,-1.17l-2.52,-1.35l-2.475,-1.53l-2.34,-1.62l-2.25,-1.8l-2.115,-1.891l-2.025,-2.07l-1.89,-2.115l-1.755,-2.295l-1.62,-2.34l-1.485,-2.476l-85.817,0l-1.935,-0.09l-1.89,-0.27l-1.89,-0.45l-1.845,-0.63l-1.755,-0.81l-1.665,-0.945l-1.575,-1.125l-1.485,-1.26l-1.305,-1.395l-1.215,-1.53l-1.08,-1.621l-0.855,-1.71l-0.765,-1.8l-0.54,-1.845l-0.36,-1.89l-0.225,-1.935l-0,-1.936l0.045,-3.105l-0.135,-3.105l-0.315,-3.061l-0.495,-3.06l-0.675,-3.015l-0.855,-3.015l-1.035,-2.926l-1.215,-2.835l-1.35,-2.79l-1.53,-2.7l-1.666,-2.611l-1.845,-2.475l-1.935,-2.43l-2.115,-2.25l-2.25,-2.161l-2.34,-2.025l-2.61,4.501l2.205,1.935l2.025,2.025l1.935,2.205l1.8,2.295l1.447,2.073l6.083,13.444l0.031,0.1l0.72,2.79l0.495,2.88l0.36,2.881l0.135,2.88l-0,2.925l-0.18,2.926l-0.36,2.88l-0.54,2.835l-0.675,2.835l-0.901,2.746l-1.035,2.745l-1.215,2.61l-1.35,2.61l-1.53,2.476l-1.665,2.385l-1.8,2.25l-1.935,2.16l-2.07,2.07l-2.16,1.891l-2.34,1.8l-2.385,1.62l-2.475,1.485l-2.61,1.35l-2.655,1.17l-2.7,1.035l-2.79,0.811l-2.835,0.675l-2.88,0.495l-2.88,0.36l-2.88,0.135l-2.926,-0l-2.925,-0.225l-2.88,-0.36l-2.835,-0.54l-2.835,-0.72l-2.745,-0.901l-2.7,-1.08l-2.655,-1.215l-2.565,-1.35l-2.475,-1.53l-2.385,-1.71l-2.25,-1.8l-2.16,-1.936l-2.025,-2.115l-1.89,-2.16l-1.8,-2.34l-1.62,-2.385l-1.44,-2.521l-1.35,-2.565l-1.17,-2.7l-0.99,-2.7l-0.811,-2.791l-0.675,-2.835l-0.495,-2.88l-0.315,-2.88l-0.135,-2.926l0.045,-2.88l0.225,-2.925Zm197.735,-34.789l-0,30.783l0.09,0.63l0.315,0.54l0.45,0.405l0.585,0.27l0.585,0.045l0.63,-0.135l0.54,-0.315l0.405,-0.45l0.225,-0.585l15.75,-27.587l0.36,-0.405l0.225,-0.495l0.09,-0.54l-0.045,-0.541l-0.18,-0.54l-0.315,-0.45l-0.45,-0.315l-0.495,-0.225l-0.54,-0.09l-18.225,0Zm23.76,31.188l-0.585,2.161l-0.405,2.16l-0.27,2.25l-0.045,2.205l0.09,2.25l0.27,2.206l0.45,2.205l0.585,2.115l0.81,2.115l0.945,2.025l1.08,1.936l1.26,1.845l1.35,1.755l1.53,1.62l1.666,1.53l1.755,1.395l1.845,1.215l1.935,1.081l2.025,0.945l2.115,0.765l2.115,0.63l2.205,0.45l2.205,0.27l2.25,0.09l2.205,-0.09l2.25,-0.27l2.16,-0.405l2.16,-0.63l2.115,-0.765l2.025,-0.9l1.935,-1.081l1.89,-1.26l1.755,-1.35l1.62,-1.485l1.53,-1.665l1.395,-1.71l1.26,-1.845l1.125,-1.936l0.945,-2.025l0.81,-2.115l0.586,-2.115l0.494,-2.205l0.271,-2.206l0.089,-2.25l-0.044,-2.205l-0.226,-2.205l-0.404,-2.205l-0.585,-2.161l-0.765,-2.115l-0.901,-2.025l-1.08,-1.98l-1.215,-1.845l-1.35,-1.801l-1.485,-1.665l-1.62,-1.53l-1.71,-1.395l-1.845,-1.26l-1.935,-1.125l-2.025,-0.99l-2.07,-0.81l-2.115,-0.63l-2.205,-0.451l-2.205,-0.315l-2.25,-0.135l-2.205,0.045l3.735,10.261l1.755,0.27l1.755,0.495l1.665,0.586l1.62,0.81l1.53,0.945l1.395,1.08l1.35,1.215l1.17,1.305l1.035,1.44l0.945,1.575l0.72,1.62l0.63,1.666l0.405,1.755l0.27,1.755l0.09,1.8l-0.09,1.8l-0.27,1.755l-0.45,1.756l-0.585,1.665l-0.765,1.62l-0.945,1.53l-1.08,1.44l-1.17,1.35l-1.35,1.17l-1.395,1.081l-1.575,0.945l-1.575,0.765l-1.71,0.63l-1.71,0.405l-1.8,0.315l-1.755,0.09l-1.8,-0.09l-1.755,-0.225l-1.755,-0.45l-1.71,-0.585l-1.62,-0.72l-1.53,-0.9l-1.44,-1.08l-1.35,-1.171l-1.215,-1.305l-1.125,-1.44l-0.945,-1.485l-0.765,-1.62l-0.63,-1.665l-0.45,-1.755l-0.315,-1.756l-0.135,-1.8l0.09,-1.755l0.225,-1.8l0.36,-1.755l0.585,-1.665l0.72,-1.666l0.9,-1.53l1.035,-1.485l1.17,-1.35l-3.735,-10.261l-1.755,1.395l-1.621,1.53l-1.485,1.665l-1.395,1.756l-1.215,1.89l-1.08,1.935l-0.9,2.025l-0.765,2.115Zm-201.964,3.961l-0.315,2.205l-0.09,2.25l0.09,2.205l0.225,2.251l0.405,2.16l0.585,2.16l0.765,2.115l0.9,2.025l1.08,1.981l1.215,1.845l1.395,1.8l1.485,1.62l1.62,1.53l1.71,1.44l1.845,1.26l1.935,1.126l2.025,0.945l2.07,0.81l2.16,0.63l2.16,0.45l2.25,0.315l2.205,0.135l2.251,-0.09l2.205,-0.225l2.205,-0.405l2.16,-0.54l2.115,-0.765l2.025,-0.855l1.98,-1.081l1.845,-1.215l1.8,-1.35l1.665,-1.485l1.53,-1.575l1.44,-1.755l1.26,-1.8l1.125,-1.936l0.99,-2.025l0.81,-2.07l0.675,-2.115l0.495,-2.205l0.315,-2.206l0.135,-2.205l-0.045,-2.25l-0.225,-2.205l-0.36,-2.205l-0.54,-2.161l-0.72,-2.115l-0.9,-2.07l-1.035,-1.935l-1.17,-1.89l-1.35,-1.801l-1.485,-1.71l-5.445,9.496l0.9,1.53l0.765,1.62l0.63,1.666l0.405,1.755l0.27,1.755l0.09,1.8l-0.09,1.8l-0.225,1.755l-0.45,1.756l-0.585,1.665l-0.765,1.62l-0.9,1.53l-1.08,1.485l-1.17,1.305l-1.35,1.215l-1.395,1.081l-1.53,0.945l-1.62,0.765l-1.665,0.63l-1.755,0.45l-1.755,0.27l-1.8,0.135l-1.801,-0.09l-1.755,-0.225l-1.755,-0.405l-1.665,-0.585l-1.665,-0.72l-1.53,-0.9l-1.44,-1.035l-1.35,-1.216l-1.26,-1.305l-1.08,-1.395l-0.945,-1.53l-0.81,-1.575l-0.63,-1.665l-0.45,-1.755l-0.315,-1.756l-0.135,-1.8l0.045,-1.755l0.225,-1.8l0.405,-1.755l0.54,-1.71l0.72,-1.621l0.9,-1.575l0.99,-1.44l1.17,-1.35l1.305,-1.26l1.395,-1.125l1.53,-0.945l1.575,-0.81l1.665,-0.676l1.71,-0.495l1.755,-0.315l1.8,-0.135l1.801,0l5.445,-9.451l-2.16,-0.45l-2.25,-0.225l-2.205,-0.09l-2.251,0.09l-2.205,0.27l-2.205,0.405l-2.16,0.631l-2.07,0.765l-2.025,0.9l-1.935,1.125l-1.89,1.215l-1.755,1.395l-1.62,1.485l-1.53,1.62l-1.395,1.756l-1.26,1.845l-1.08,1.98l-0.945,1.98l-0.81,2.115l-0.585,2.16l-0.45,2.161Zm133.293,-76.958l-38.791,22.457l38.791,12.242l12.24,-19.397l-12.24,-15.302Z" style="stroke:#000;stroke-width:3px;"/></g></svg>