<?xml version="1.0" encoding="UTF-8" standalone="no"?><!DOCTYPE svg PUBLIC "-//W3C//DTD SVG 1.1//EN" "http://www.w3.org/Graphics/SVG/1.1/DTD/svg11.dtd"><svg width="100%" height="100%" viewBox="0 0 454 454" version="1.1" xmlns="http://www.w3.org/2000/svg" xmlns:xlink="http://www.w3.org/1999/xlink" xml:space="preserve" xmlns:serif="http://www.serif.com/" style="fill-rule:evenodd;clip-rule:evenodd;stroke-linejoin:round;stroke-miterlimit:2;"><g transform="matrix(50,0,0,50,321.022,262.709)"></g><text x="133.4px" y="262.709px" style="font-family:'ArialMT', 'Arial', sans-serif;font-size:50px;">sw=38.4</text><g id="_619.1-No-Motor-Vehicles-except-Solo-Motorcycles" serif:id="619.1 No Motor Vehicles except Solo Motorcycles"><circle cx="226.772" cy="226.772" r="226.772" style="fill:#e31837;"/><circle cx="226.772" cy="226.772" r="181.417" style="fill:#fff;"/><path d="M128.961,117.971l1.331,-3.08l1.664,-2.831l1.831,-2.747l2.163,-2.497l2.412,-2.248l2.663,-1.998l2.745,-1.748l2.995,-1.498l3.079,-1.083l3.244,-0.832l3.245,-0.5l3.328,-0.166l134.279,-0l3.327,0.166l3.245,0.5l3.162,0.832l3.078,1.083l2.995,1.498l2.829,1.748l2.579,1.998l2.412,2.248l2.163,2.497l1.914,2.747l1.581,2.831l1.331,3.08l0.998,3.08l0.749,3.247l10.233,64.184l2.579,0.417l2.579,0.749l2.413,1.082l2.246,1.415l2.08,1.665l1.747,1.915l1.498,2.248l1.248,2.331l0.915,2.497l0.499,2.581l0.167,2.664l-0,55.193l-0.167,2.498l-0.499,2.581l-0.832,2.414l-1.082,2.331l-1.497,2.081l-1.664,1.998l-1.913,1.665l-2.164,1.415l0,43.539l-2.079,2.164l-2.33,1.832l-2.496,1.582l-2.662,1.332l-2.746,0.915l-2.912,0.666l-2.911,0.333l-2.995,0l-2.912,-0.333l-2.912,-0.666l-2.829,-0.915l-2.662,-1.332l-2.496,-1.582l-2.246,-1.832l-2.08,-2.164l-0,-40.292l-26.207,1.582l-26.207,1.082l-26.207,0.666l-26.207,-0.666l-26.207,-1.082l-26.206,-1.582l-0,40.292l-2.08,2.164l-2.33,1.832l-2.496,1.582l-2.662,1.332l-2.745,0.915l-2.912,0.666l-2.995,0.333l-2.912,0l-2.912,-0.333l-2.912,-0.666l-2.829,-0.915l-2.662,-1.332l-2.496,-1.582l-2.329,-1.832l-2.08,-2.164l-0,-43.539l-2.08,-1.415l-1.914,-1.665l-1.747,-1.998l-1.414,-2.081l-1.165,-2.331l-0.832,-2.414l-0.499,-2.581l-0.166,-2.498l-0,-55.193l0.249,-2.664l0.499,-2.581l0.915,-2.497l1.165,-2.331l1.498,-2.248l1.83,-1.915l1.997,-1.665l2.329,-1.415l2.413,-1.082l2.496,-0.749l2.662,-0.417l10.233,-64.184l0.666,-3.247l0.998,-3.08Zm188.107,25.474l-0.665,-3.08l-0.999,-2.997l-1.331,-2.914l-1.581,-2.664l-1.83,-2.58l-2.163,-2.331l-2.413,-1.998l-2.579,-1.832l-2.745,-1.581l-2.912,-1.166l-2.995,-0.916l-3.078,-0.582l-41.016,-2.415l-48.005,0l-40.932,2.415l-3.078,0.582l-3.079,0.916l-2.912,1.166l-2.745,1.581l-2.579,1.832l-2.33,1.998l-2.163,2.331l-1.913,2.58l-1.581,2.664l-1.331,2.914l-0.915,2.997l-0.666,3.08l-2.912,18.398l-0.166,1.998l0.083,1.915l0.499,1.914l0.666,1.832l0.998,1.748l1.248,1.582l1.414,1.332l1.581,1.082l1.83,0.832l1.831,0.583l1.996,0.333l162.4,0l1.913,-0.333l1.914,-0.583l1.747,-0.832l1.664,-1.082l1.414,-1.332l1.248,-1.582l0.915,-1.748l0.749,-1.832l0.416,-1.914l0.166,-1.915l-0.166,-1.998l-2.912,-18.398Zm-90.268,73.675l-21.88,0.25l-21.798,0.499l-21.881,0.916l0,8.991l131.035,-0l-0,-8.991l-21.798,-0.916l-21.88,-0.499l-21.798,-0.25Zm65.476,50.032l-0,-9.074l-131.035,0l0,9.074l21.881,0.833l21.798,0.582l21.88,0.167l21.798,-0.167l21.88,-0.582l21.798,-0.833Zm-142.1,-47.535l-0.166,-2.414l-0.499,-2.331l-0.749,-2.331l-1.082,-2.081l-1.331,-1.998l-1.58,-1.831l-1.831,-1.582l-1.997,-1.332l-2.163,-1.082l-2.246,-0.75l-2.329,-0.499l-2.413,-0.167l-2.413,0.167l-2.329,0.499l-2.247,0.75l-2.163,1.082l-1.996,1.332l-1.831,1.582l-1.58,1.831l-1.332,1.998l-1.081,2.081l-0.749,2.331l-0.499,2.331l-0.083,2.414l0.083,2.415l0.499,2.33l0.749,2.248l1.081,2.165l1.332,1.998l1.58,1.831l1.831,1.582l1.996,1.332l2.163,1.082l2.247,0.749l2.329,0.416l2.413,0.167l2.413,-0.167l2.329,-0.416l2.246,-0.749l2.163,-1.082l1.997,-1.332l1.831,-1.582l1.58,-1.831l1.331,-1.998l1.082,-2.165l0.749,-2.248l0.499,-2.33l0.166,-2.415Zm11.065,17.982l0,10.656l131.035,-0l-0,-10.656l-131.035,-0Zm178.873,-17.982l-0.167,-2.414l-0.499,-2.331l-0.749,-2.331l-1.081,-2.081l-1.331,-1.998l-1.581,-1.831l-1.747,-1.582l-1.997,-1.332l-2.163,-1.082l-2.246,-0.75l-2.413,-0.499l-2.33,-0.167l-2.412,0.167l-2.413,0.499l-2.246,0.75l-2.163,1.082l-1.997,1.332l-1.747,1.582l-1.581,1.831l-1.331,1.998l-1.082,2.081l-0.748,2.331l-0.5,2.331l-0.166,2.414l0.166,2.415l0.5,2.33l0.748,2.248l1.082,2.165l1.331,1.998l1.581,1.831l1.747,1.582l1.997,1.332l2.163,1.082l2.246,0.749l2.413,0.416l2.412,0.167l2.33,-0.167l2.413,-0.416l2.246,-0.749l2.163,-1.082l1.997,-1.332l1.747,-1.582l1.581,-1.831l1.331,-1.998l1.081,-2.165l0.749,-2.248l0.499,-2.33l0.167,-2.415Z"/></g></svg>