<?xml version="1.0" encoding="UTF-8" standalone="no"?><!DOCTYPE svg PUBLIC "-//W3C//DTD SVG 1.1//EN" "http://www.w3.org/Graphics/SVG/1.1/DTD/svg11.dtd"><svg width="100%" height="100%" viewBox="0 0 642 284" version="1.1" xmlns="http://www.w3.org/2000/svg" xmlns:xlink="http://www.w3.org/1999/xlink" xml:space="preserve" xmlns:serif="http://www.serif.com/" style="fill-rule:evenodd;clip-rule:evenodd;stroke-linejoin:round;stroke-miterlimit:2;"><g transform="matrix(50,0,0,50,393.952,159.408)"></g><text x="248.029px" y="159.408px" style="font-family:'ArialMT', 'Arial', sans-serif;font-size:50px;">sw=24</text><rect id="_4.--Day---time-" serif:id="4. [Day] [time]" x="0" y="0" width="641.102" height="283.465" style="fill:none;"/><clipPath id="_clip1"><rect x="0" y="0" width="641.102" height="283.465"/></clipPath><g clip-path="url(#_clip1)"><path d="M641.102,35.433c0,-19.556 -15.877,-35.433 -35.433,-35.433l-570.236,0c-19.556,0 -35.433,15.877 -35.433,35.433l0,212.598c0,19.557 15.877,35.434 35.433,35.434l570.236,-0c19.556,-0 35.433,-15.877 35.433,-35.434l0,-212.598Z"/><path d="M623.386,35.433c-0,-9.778 -7.939,-17.716 -17.717,-17.716l-570.236,-0c-9.778,-0 -17.716,7.938 -17.716,17.716l-0,212.598c-0,9.779 7.938,17.717 17.716,17.717l570.236,0c9.778,0 17.717,-7.938 17.717,-17.717l-0,-212.598Z" style="fill:#fff;"/><g><rect id="_10" serif:id="10" x="47.244" y="153.543" width="108.189" height="94.488" style="fill:none;"/><clipPath id="_clip2"><rect x="47.244" y="153.543" width="108.189" height="94.488"/></clipPath><g clip-path="url(#_clip2)"><g><rect x="47.244" y="153.543" width="39.685" height="94.488" style="fill:#fff;"/><path d="M76.522,224.409l-14.432,0l-0,-45.366l-11.303,0l0,-10.939c2.261,-0.113 4.246,-0.311 5.956,-0.593c1.71,-0.283 3.086,-0.792 4.129,-1.527c0.986,-0.735 1.696,-1.667 2.13,-2.798c0.435,-1.131 0.768,-2.77 1,-4.918l12.52,-0l-0,66.141Z" style="fill-rule:nonzero;"/></g><g><rect x="86.929" y="153.543" width="68.504" height="94.488" style="fill:#fff;"/><path d="M147.855,190.972c-0,3.914 -0.502,7.856 -1.505,11.825c-1.004,3.969 -2.579,7.544 -4.725,10.725c-2.146,3.18 -4.877,5.777 -8.194,7.788c-3.317,2.012 -7.289,3.018 -11.915,3.018c-4.739,-0 -8.808,-0.992 -12.208,-2.977c-3.401,-1.984 -6.202,-4.567 -8.404,-7.748c-2.202,-3.18 -3.818,-6.755 -4.85,-10.724c-1.031,-3.969 -1.547,-7.938 -1.547,-11.907c0,-3.969 0.516,-7.911 1.547,-11.826c1.032,-3.915 2.634,-7.422 4.808,-10.521c2.174,-3.099 4.948,-5.613 8.32,-7.544c3.373,-1.93 7.372,-2.895 11.999,-2.895c4.571,0 8.529,0.965 11.874,2.895c3.344,1.931 6.118,4.459 8.319,7.585c2.202,3.126 3.833,6.647 4.892,10.562c1.059,3.914 1.589,7.829 1.589,11.744Zm-13.881,0.081c0,-1.848 -0.209,-3.983 -0.627,-6.402c-0.418,-2.419 -1.115,-4.717 -2.09,-6.891c-0.976,-2.175 -2.286,-4.01 -3.93,-5.505c-1.645,-1.496 -3.693,-2.243 -6.146,-2.243c-2.453,-0 -4.501,0.734 -6.146,2.202c-1.644,1.468 -2.954,3.276 -3.93,5.423c-0.975,2.148 -1.672,4.431 -2.09,6.851c-0.418,2.419 -0.627,4.553 -0.627,6.402c-0,2.012 0.181,4.268 0.543,6.769c0.363,2.501 1.018,4.839 1.965,7.014c0.948,2.175 2.286,3.996 4.014,5.464c1.728,1.468 3.93,2.202 6.606,2.202c2.675,0 4.835,-0.734 6.48,-2.202c1.644,-1.468 2.912,-3.289 3.804,-5.464c0.892,-2.175 1.478,-4.499 1.756,-6.973c0.279,-2.474 0.418,-4.69 0.418,-6.647Z" style="fill-rule:nonzero;"/></g></g><clipPath id="_clip3"><rect id="Plate-Text.afdesign" serif:id="Plate Text.afdesign" x="325.039" y="153.543" width="33.543" height="94.488"/></clipPath><g clip-path="url(#_clip3)"><rect id="_---" serif:id="&quot;-&quot;" x="325.039" y="153.543" width="33.543" height="94.488" style="fill:none;"/><clipPath id="_clip4"><rect x="325.039" y="153.543" width="33.543" height="94.488"/></clipPath><g clip-path="url(#_clip4)"><g><rect id="path1698" x="325.039" y="153.543" width="33.543" height="94.488" style="fill:#fff;"/><rect x="329.764" y="191.339" width="18.898" height="9.449" style="fill-rule:nonzero;"/></g></g></g><g><rect x="376.299" y="153.543" width="61.417" height="94.488" style="fill:#fff;"/><path d="M432.09,199.564c-0,3.448 -0.594,6.685 -1.782,9.709c-1.188,3.025 -2.855,5.653 -4.999,7.886c-2.145,2.233 -4.695,4 -7.651,5.3c-2.956,1.3 -6.202,1.95 -9.737,1.95c-6.608,0 -12.041,-1.427 -16.301,-4.282c-4.26,-2.855 -7.492,-6.854 -9.694,-11.999l13.475,-5.003c1.16,2.827 2.667,4.989 4.521,6.487c1.855,1.498 4,2.247 6.434,2.247c1.97,0 3.68,-0.296 5.129,-0.89c1.449,-0.593 2.637,-1.427 3.565,-2.501c0.927,-1.075 1.608,-2.318 2.043,-3.731c0.435,-1.414 0.652,-2.94 0.652,-4.58c-0,-1.639 -0.275,-3.165 -0.826,-4.579c-0.551,-1.413 -1.319,-2.642 -2.304,-3.688c-0.985,-1.046 -2.173,-1.866 -3.564,-2.459c-1.391,-0.594 -2.956,-0.891 -4.695,-0.891c-2.203,0 -4.231,0.509 -6.086,1.527c-1.855,1.017 -3.362,2.657 -4.521,4.918l-13.562,-3.731l5.216,-34.428l41.296,0l0,12.381l-28.429,-0l-1.391,8.988c2.84,-1.244 5.854,-1.866 9.042,-1.866c3.651,0 6.969,0.608 9.954,1.824c2.985,1.215 5.521,2.869 7.608,4.96c2.086,2.092 3.709,4.551 4.868,7.378c1.159,2.826 1.739,5.851 1.739,9.073Z" style="fill-rule:nonzero;"/></g><g><g><rect id="path16981" serif:id="path1698" x="173.15" y="153.543" width="52.441" height="94.488" style="fill:#fff;"/><path d="M220.852,215.225l-5.215,9.184c-1.816,-0.103 -3.464,-0.557 -4.942,-1.362c-1.479,-0.804 -2.686,-1.855 -3.62,-3.152c-1.452,1.349 -3.152,2.361 -5.098,3.036c-1.945,0.674 -4.319,1.011 -7.121,1.011c-2.231,0 -4.372,-0.285 -6.421,-0.856c-2.05,-0.57 -3.853,-1.44 -5.41,-2.607c-1.556,-1.168 -2.802,-2.607 -3.736,-4.32c-0.934,-1.712 -1.401,-3.736 -1.401,-6.071c0,-2.283 0.338,-4.229 1.012,-5.837c0.675,-1.609 1.531,-2.971 2.569,-4.086c1.037,-1.116 2.218,-2.011 3.541,-2.685c1.323,-0.675 2.633,-1.194 3.931,-1.557c1.297,-0.363 2.516,-0.623 3.658,-0.778c1.141,-0.156 2.049,-0.26 2.724,-0.312c1.089,-0.104 2.477,-0.22 4.164,-0.35c1.686,-0.13 3.23,-0.246 4.631,-0.35l-0,-0.623c-0,-1.92 -0.441,-3.308 -1.323,-4.164c-0.882,-0.856 -2.413,-1.284 -4.592,-1.284c-2.283,-0 -4.463,0.272 -6.538,0.817c-2.076,0.545 -4.359,1.544 -6.85,2.997l-4.592,-9.729c3.166,-1.765 6.266,-3.036 9.301,-3.814c3.036,-0.778 6.188,-1.168 9.457,-1.168c5.656,0 9.962,1.401 12.92,4.203c2.958,2.802 4.436,7.005 4.436,12.609l0,14.555c0,1.971 0.338,3.463 1.012,4.475c0.675,1.012 1.842,1.751 3.503,2.218Zm-16.812,-5.837l0,-5.526c-0.934,0.052 -1.92,0.104 -2.958,0.155c-1.037,0.052 -1.919,0.13 -2.646,0.234c-0.882,0.104 -1.803,0.207 -2.763,0.311c-0.96,0.104 -1.829,0.325 -2.607,0.662c-0.779,0.337 -1.427,0.817 -1.946,1.44c-0.519,0.622 -0.778,1.504 -0.778,2.646c-0,1.505 0.648,2.646 1.945,3.425c1.298,0.778 2.776,1.167 4.437,1.167c2.646,0 4.527,-0.441 5.643,-1.323c1.115,-0.882 1.673,-1.946 1.673,-3.191Z" style="fill-rule:nonzero;"/></g><g><rect id="path16982" serif:id="path1698" x="225.591" y="153.543" width="81.732" height="94.488" style="fill:#fff;"/><path d="M299.785,224.409l-13.181,0l-0,-29.699c-0,-2.336 -0.539,-4.074 -1.617,-5.214c-1.078,-1.14 -2.501,-1.71 -4.27,-1.71c-0.829,-0 -1.699,0.18 -2.611,0.542c-0.912,0.361 -1.728,0.89 -2.446,1.585c-0.719,0.695 -1.313,1.585 -1.783,2.67c-0.47,1.084 -0.705,2.322 -0.705,3.712l0,28.114l-13.264,0l-0.084,-29.782c0,-2.392 -0.514,-4.144 -1.543,-5.256c-1.029,-1.113 -2.35,-1.669 -3.963,-1.669c-1.056,0 -2.058,0.167 -3.003,0.501c-0.946,0.333 -1.794,0.848 -2.545,1.543c-0.75,0.695 -1.348,1.585 -1.793,2.67c-0.445,1.084 -0.668,2.405 -0.668,3.962l0,28.031l-13.181,0l0,-47.385l13.181,-0l0,2.92c1.391,-1.335 2.976,-2.364 4.756,-3.087c1.779,-0.723 3.531,-1.085 5.255,-1.085c2.614,0 5.02,0.515 7.217,1.544c2.197,1.029 3.935,2.572 5.214,4.63c3.059,-4.171 7.703,-6.257 13.932,-6.257c5.395,-0 9.594,1.529 12.597,4.588c3.004,3.059 4.505,7.37 4.505,12.931l0,31.201Z" style="fill-rule:nonzero;"/></g></g><g><g><g><rect id="path16983" serif:id="path1698" x="455.433" y="153.543" width="56.693" height="94.488" style="fill:#fff;"/><path d="M506.441,200.822c0,3.258 -0.482,6.379 -1.446,9.361c-0.964,2.983 -2.369,5.62 -4.215,7.912c-1.846,2.292 -4.132,4.115 -6.859,5.468c-2.728,1.353 -5.827,2.03 -9.299,2.03c-1.928,-0 -3.787,-0.304 -5.578,-0.912c-1.79,-0.607 -3.402,-1.463 -4.835,-2.568l0,17.646l-13.091,0l0,-62.631l13.091,-0l-0.023,2.485c1.268,-1.16 2.812,-2.085 4.632,-2.775c1.82,-0.69 3.777,-1.036 5.872,-1.036c3.418,0 6.479,0.705 9.18,2.113c2.702,1.408 4.976,3.272 6.823,5.592c1.847,2.32 3.267,4.985 4.259,7.995c0.993,3.01 1.489,6.116 1.489,9.32Zm-13.257,-0c-0,-1.602 -0.249,-3.176 -0.746,-4.722c-0.497,-1.547 -1.201,-2.914 -2.113,-4.101c-0.911,-1.188 -2.03,-2.154 -3.355,-2.9c-1.326,-0.745 -2.818,-1.118 -4.475,-1.118c-0.828,-0 -1.74,0.138 -2.734,0.414c-0.994,0.276 -1.906,0.69 -2.734,1.243c-0.829,0.552 -1.519,1.242 -2.072,2.071c-0.552,0.828 -0.828,1.795 -0.828,2.899l-0,12.179c-0,1.049 0.248,2.002 0.745,2.858c0.497,0.856 1.133,1.574 1.906,2.154c0.773,0.58 1.643,1.035 2.61,1.367c0.967,0.331 1.92,0.497 2.859,0.497c1.712,-0 3.259,-0.345 4.64,-1.036c1.381,-0.69 2.527,-1.615 3.438,-2.775c0.912,-1.16 1.616,-2.513 2.113,-4.06c0.497,-1.546 0.746,-3.203 0.746,-4.97Z" style="fill-rule:nonzero;"/></g></g><g><rect id="path16984" serif:id="path1698" x="512.126" y="153.543" width="81.732" height="94.488" style="fill:#fff;"/><path d="M586.321,224.409l-13.182,0l0,-29.699c0,-2.336 -0.539,-4.074 -1.617,-5.214c-1.078,-1.14 -2.501,-1.71 -4.269,-1.71c-0.829,-0 -1.7,0.18 -2.612,0.542c-0.912,0.361 -1.727,0.89 -2.446,1.585c-0.719,0.695 -1.313,1.585 -1.783,2.67c-0.469,1.084 -0.704,2.322 -0.704,3.712l-0,28.114l-13.265,0l-0.083,-29.782c-0,-2.392 -0.515,-4.144 -1.544,-5.256c-1.028,-1.113 -2.349,-1.669 -3.962,-1.669c-1.057,0 -2.058,0.167 -3.004,0.501c-0.945,0.333 -1.793,0.848 -2.544,1.543c-0.751,0.695 -1.349,1.585 -1.794,2.67c-0.445,1.084 -0.667,2.405 -0.667,3.962l-0,28.031l-13.181,0l-0,-47.385l13.181,-0l-0,2.92c1.39,-1.335 2.975,-2.364 4.755,-3.087c1.78,-0.723 3.532,-1.085 5.256,-1.085c2.614,0 5.019,0.515 7.216,1.544c2.197,1.029 3.935,2.572 5.214,4.63c3.059,-4.171 7.703,-6.257 13.932,-6.257c5.395,-0 9.594,1.529 12.598,4.588c3.003,3.059 4.505,7.37 4.505,12.931l-0,31.201Z" style="fill-rule:nonzero;"/></g></g></g><g><g><g><rect id="path16985" serif:id="path1698" x="194.173" y="47.244" width="54.331" height="94.488" style="fill:#fff;"/><path d="M243.783,95.038c0,3.296 -0.523,6.356 -1.569,9.182c-1.047,2.825 -2.538,5.258 -4.473,7.298c-1.936,2.04 -4.291,3.649 -7.063,4.826c-2.773,1.178 -5.86,1.766 -9.261,1.766c-3.401,0 -6.487,-0.575 -9.26,-1.726c-2.773,-1.151 -5.141,-2.76 -7.103,-4.827c-1.962,-2.066 -3.479,-4.512 -4.551,-7.337c-1.073,-2.826 -1.609,-5.886 -1.609,-9.182c-0,-3.401 0.484,-6.58 1.452,-9.536c0.967,-2.956 2.406,-5.519 4.316,-7.691c1.91,-2.171 4.264,-3.871 7.063,-5.101c2.799,-1.229 6.03,-1.844 9.692,-1.844c3.61,0 6.815,0.628 9.614,1.884c2.799,1.255 5.14,2.969 7.024,5.14c1.883,2.171 3.309,4.735 4.277,7.691c0.968,2.956 1.451,6.108 1.451,9.457Zm-12.321,-0c0,-1.832 -0.248,-3.545 -0.745,-5.141c-0.497,-1.596 -1.177,-2.995 -2.041,-4.198c-0.863,-1.204 -1.922,-2.159 -3.178,-2.865c-1.256,-0.706 -2.616,-1.059 -4.081,-1.059c-1.517,-0 -2.904,0.353 -4.159,1.059c-1.256,0.706 -2.328,1.661 -3.218,2.865c-0.889,1.203 -1.569,2.602 -2.04,4.198c-0.471,1.596 -0.707,3.309 -0.707,5.141c0,3.61 0.916,6.539 2.747,8.789c1.831,2.25 4.29,3.375 7.377,3.375c3.035,-0 5.467,-1.125 7.299,-3.375c1.831,-2.25 2.746,-5.179 2.746,-8.789Z" style="fill-rule:nonzero;"/></g><g><rect id="path16986" serif:id="path1698" x="248.504" y="47.244" width="56.22" height="94.488" style="fill:#fff;"/><path d="M297.471,118.11l-13.349,0l0,-29.616c0,-2.503 -0.58,-4.31 -1.742,-5.422c-1.161,-1.113 -2.82,-1.669 -4.977,-1.669c-1.052,0 -2.075,0.139 -3.071,0.417c-0.995,0.278 -1.88,0.723 -2.654,1.335c-0.775,0.612 -1.397,1.404 -1.867,2.378c-0.47,0.973 -0.705,2.183 -0.705,3.629l-0,28.948l-13.348,0l-0,-47.385l13.348,-0l-0.057,3.003c1.448,-1.335 3.19,-2.392 5.224,-3.17c2.034,-0.779 3.999,-1.168 5.893,-1.168c2.843,-0 5.337,0.417 7.482,1.251c2.146,0.834 3.957,1.988 5.434,3.462c1.477,1.474 2.578,3.198 3.302,5.173c0.724,1.974 1.087,4.129 1.087,6.465l-0,32.369Z" style="fill-rule:nonzero;"/></g><g><rect x="106.299" y="47.244" width="87.874" height="94.488" style="fill:#fff;"/><path d="M184.403,118.11l-14.084,0l0.087,-42.737l-20.257,26.711l-20.344,-26.711l0,42.737l-13.736,0l-0,-66.141l13.823,-0l20.257,27.559l20.257,-27.559l13.997,-0l0,66.141Z" style="fill-rule:nonzero;"/></g></g><g><g><rect id="path16987" serif:id="path1698" x="495.118" y="47.244" width="39.685" height="94.488" style="fill:#fff;"/><path d="M531.578,115.764c-1.371,0.603 -3.044,1.11 -5.018,1.522c-1.974,0.411 -4.168,0.617 -6.581,0.617c-4.388,-0 -7.843,-1.029 -10.366,-3.085c-2.522,-2.057 -3.784,-5.389 -3.784,-9.996l0,-24.186l-7.486,0l-0,-10.941l7.486,-0l0,-12.093l12.916,-5.841l-0,17.934l11.928,-0l0,10.941l-11.928,0l-0,20.155c-0,2.249 0.343,3.744 1.028,4.484c0.686,0.74 1.824,1.111 3.414,1.111c2.029,-0 4.141,-0.439 6.335,-1.317l2.056,10.695Z" style="fill-rule:nonzero;"/></g><g><rect id="path16988" serif:id="path1698" x="442.677" y="47.244" width="52.441" height="94.488" style="fill:#fff;"/><path d="M490.379,108.926l-5.214,9.184c-1.817,-0.104 -3.464,-0.558 -4.943,-1.362c-1.479,-0.804 -2.685,-1.855 -3.619,-3.152c-1.453,1.349 -3.152,2.361 -5.098,3.035c-1.946,0.675 -4.32,1.012 -7.122,1.012c-2.231,0 -4.371,-0.285 -6.421,-0.856c-2.049,-0.571 -3.852,-1.44 -5.409,-2.607c-1.557,-1.168 -2.802,-2.608 -3.736,-4.32c-0.934,-1.712 -1.401,-3.736 -1.401,-6.071c-0,-2.283 0.337,-4.229 1.012,-5.837c0.674,-1.609 1.53,-2.971 2.568,-4.086c1.038,-1.116 2.218,-2.011 3.542,-2.686c1.323,-0.674 2.633,-1.193 3.93,-1.556c1.297,-0.364 2.517,-0.623 3.658,-0.779c1.142,-0.155 2.05,-0.259 2.724,-0.311c1.09,-0.104 2.478,-0.22 4.164,-0.35c1.687,-0.13 3.23,-0.247 4.631,-0.35l0,-0.623c0,-1.92 -0.441,-3.308 -1.323,-4.164c-0.882,-0.856 -2.413,-1.284 -4.592,-1.284c-2.283,-0 -4.462,0.272 -6.538,0.817c-2.075,0.545 -4.358,1.544 -6.849,2.996l-4.592,-9.729c3.165,-1.764 6.265,-3.035 9.301,-3.813c3.035,-0.779 6.188,-1.168 9.456,-1.168c5.656,0 9.963,1.401 12.921,4.203c2.957,2.802 4.436,7.005 4.436,12.609l0,14.554c0,1.972 0.337,3.464 1.012,4.476c0.674,1.012 1.842,1.751 3.502,2.218Zm-16.811,-5.837l-0,-5.526c-0.934,0.051 -1.92,0.103 -2.958,0.155c-1.038,0.052 -1.92,0.13 -2.646,0.234c-0.882,0.103 -1.803,0.207 -2.763,0.311c-0.96,0.104 -1.829,0.324 -2.608,0.662c-0.778,0.337 -1.427,0.817 -1.946,1.44c-0.518,0.622 -0.778,1.504 -0.778,2.646c0,1.505 0.649,2.646 1.946,3.424c1.297,0.779 2.776,1.168 4.436,1.168c2.647,-0 4.528,-0.441 5.643,-1.323c1.116,-0.882 1.674,-1.946 1.674,-3.191Z" style="fill-rule:nonzero;"/></g><g><rect x="373.701" y="47.244" width="68.976" height="94.488" style="fill:#fff;"/><path d="M435.523,99.411c0,2.613 -0.516,5.063 -1.548,7.349c-1.033,2.286 -2.624,4.273 -4.772,5.961c-2.149,1.687 -4.87,3.008 -8.163,3.96c-3.293,0.953 -7.2,1.429 -11.721,1.429c-2.679,0 -5.358,-0.313 -8.037,-0.939c-2.679,-0.626 -5.246,-1.51 -7.702,-2.654c-2.456,-1.143 -4.772,-2.531 -6.949,-4.164c-2.177,-1.633 -4.102,-3.484 -5.776,-5.553l10.716,-8.41c2.065,2.83 4.716,5.049 7.953,6.655c3.237,1.606 6.53,2.463 9.879,2.572c3.851,0.163 6.711,-0.327 8.581,-1.47c1.87,-1.143 2.805,-2.722 2.805,-4.736c-0,-2.232 -0.851,-3.906 -2.554,-5.022c-1.702,-1.116 -3.865,-1.973 -6.488,-2.572l-9.46,-2.042c-2.344,-0.544 -4.675,-1.252 -6.991,-2.123c-2.316,-0.871 -4.409,-2.041 -6.279,-3.511c-1.87,-1.47 -3.39,-3.293 -4.563,-5.471c-1.172,-2.177 -1.758,-4.818 -1.758,-7.921c0,-2.558 0.531,-4.981 1.591,-7.267c1.06,-2.286 2.651,-4.287 4.772,-6.002c2.121,-1.714 4.772,-3.062 7.953,-4.042c3.182,-0.98 6.921,-1.469 11.219,-1.469c5.637,-0 10.646,0.966 15.028,2.898c4.381,1.933 8.051,4.696 11.009,8.288l-11.135,8.329c-1.619,-2.177 -3.726,-3.906 -6.321,-5.185c-2.595,-1.279 -5.456,-1.919 -8.581,-1.919c-3.516,0 -6.195,0.572 -8.037,1.715c-1.842,1.143 -2.763,2.531 -2.763,4.165c0,1.633 0.767,2.994 2.302,4.082c1.535,1.089 4.089,2.042 7.661,2.858l8.288,1.96c7.144,1.688 12.237,4.205 15.279,7.553c3.042,3.348 4.562,7.581 4.562,12.698Z" style="fill-rule:nonzero;"/></g></g><g><rect id="path16989" serif:id="path1698" x="322.441" y="47.244" width="33.543" height="94.488" style="fill:#fff;"/><rect x="327.165" y="85.039" width="18.898" height="9.449" style="fill-rule:nonzero;"/></g></g></g></svg>