<?xml version="1.0" encoding="UTF-8" standalone="no"?><!DOCTYPE svg PUBLIC "-//W3C//DTD SVG 1.1//EN" "http://www.w3.org/Graphics/SVG/1.1/DTD/svg11.dtd"><svg width="100%" height="100%" viewBox="0 0 571 272" version="1.1" xmlns="http://www.w3.org/2000/svg" xmlns:xlink="http://www.w3.org/1999/xlink" xml:space="preserve" xmlns:serif="http://www.serif.com/" style="fill-rule:evenodd;clip-rule:evenodd;stroke-linejoin:round;stroke-miterlimit:2;"><g transform="matrix(50,0,0,50,358.8,153.478)"></g><text x="212.877px" y="153.478px" style="font-family:'ArialMT', 'Arial', sans-serif;font-size:50px;">sw=23</text><rect id="_1.-Except-for-access" serif:id="1. Except for access" x="0" y="0" width="570.945" height="271.654" style="fill:none;"/><clipPath id="_clip1"><rect x="0" y="0" width="570.945" height="271.654"/></clipPath><g clip-path="url(#_clip1)"><path d="M570.945,35.433c-0,-19.556 -15.877,-35.433 -35.433,-35.433l-500.079,0c-19.556,0 -35.433,15.877 -35.433,35.433l-0,200.787c-0,19.557 15.877,35.434 35.433,35.434l500.079,-0c19.556,-0 35.433,-15.877 35.433,-35.434l-0,-200.787Z"/><path d="M553.228,35.433c0,-9.778 -7.938,-17.716 -17.716,-17.716l-500.079,-0c-9.778,-0 -17.716,7.938 -17.716,17.716l-0,200.787c-0,9.778 7.938,17.717 17.716,17.717l500.079,0c9.778,0 17.716,-7.939 17.716,-17.717l0,-200.787Z" style="fill:#fff;"/><g><g><g><rect id="path1698" x="322.677" y="47.244" width="39.685" height="94.488" style="fill:#fff;"/><path d="M359.137,115.764c-1.371,0.603 -3.043,1.11 -5.018,1.522c-1.974,0.411 -4.168,0.617 -6.581,0.617c-4.388,-0 -7.843,-1.029 -10.366,-3.085c-2.522,-2.057 -3.784,-5.389 -3.784,-9.996l0,-24.186l-7.486,0l-0,-10.941l7.486,-0l0,-12.093l12.916,-5.841l-0,17.934l11.928,-0l0,10.941l-11.928,0l-0,20.155c-0,2.249 0.343,3.744 1.028,4.484c0.686,0.74 1.824,1.111 3.414,1.111c2.029,-0 4.141,-0.439 6.335,-1.317l2.056,10.695Z" style="fill-rule:nonzero;"/></g><g><g><rect id="path16981" serif:id="path1698" x="265.984" y="47.244" width="56.693" height="94.488" style="fill:#fff;"/><path d="M316.992,94.523c0,3.258 -0.482,6.379 -1.446,9.361c-0.964,2.983 -2.369,5.62 -4.215,7.912c-1.845,2.292 -4.132,4.114 -6.859,5.468c-2.728,1.353 -5.827,2.029 -9.298,2.029c-1.929,0 -3.788,-0.303 -5.578,-0.911c-1.791,-0.607 -3.403,-1.464 -4.835,-2.568l-0,17.646l-13.092,-0l0,-62.631l13.092,-0l-0.024,2.485c1.268,-1.16 2.812,-2.085 4.632,-2.775c1.82,-0.691 3.777,-1.036 5.872,-1.036c3.419,0 6.479,0.704 9.18,2.113c2.702,1.408 4.976,3.272 6.823,5.592c1.847,2.32 3.267,4.984 4.259,7.994c0.993,3.01 1.489,6.117 1.489,9.321Zm-13.257,-0c0,-1.602 -0.249,-3.176 -0.746,-4.723c-0.497,-1.546 -1.201,-2.913 -2.113,-4.1c-0.911,-1.188 -2.03,-2.154 -3.355,-2.9c-1.326,-0.746 -2.817,-1.118 -4.475,-1.118c-0.828,-0 -1.74,0.138 -2.734,0.414c-0.994,0.276 -1.906,0.69 -2.734,1.242c-0.829,0.553 -1.519,1.243 -2.072,2.072c-0.552,0.828 -0.828,1.795 -0.828,2.899l-0,12.178c-0,1.05 0.248,2.003 0.746,2.859c0.497,0.856 1.132,1.574 1.905,2.154c0.774,0.579 1.644,1.035 2.61,1.367c0.967,0.331 1.92,0.497 2.859,0.497c1.712,-0 3.259,-0.346 4.64,-1.036c1.381,-0.69 2.527,-1.615 3.438,-2.775c0.912,-1.16 1.616,-2.513 2.113,-4.06c0.497,-1.546 0.746,-3.203 0.746,-4.97Z" style="fill-rule:nonzero;"/></g></g><g><rect id="path16982" serif:id="path1698" x="111.496" y="47.244" width="51.969" height="94.488" style="fill:#fff;"/><path d="M162.283,118.11l-15.065,0l-9.738,-14.556l-9.738,14.556l-15.065,0l17.729,-24.786l-15.898,-22.458l14.982,0l7.99,12.061l7.907,-12.061l15.065,0l-15.814,22.291l17.645,24.953Z" style="fill-rule:nonzero;"/></g><g><rect id="path16983" serif:id="path1698" x="214.016" y="47.244" width="51.969" height="94.488" style="fill:#fff;"/><path d="M261.659,96.457l-0.158,1.968l-30.472,0c0.052,1.26 0.367,2.428 0.945,3.504c0.577,1.076 1.338,2.021 2.283,2.835c0.945,0.813 2.034,1.443 3.268,1.89c1.234,0.446 2.533,0.669 3.898,0.669c3.937,-0 7.322,-1.313 10.157,-3.937l6.614,8.11c-2.257,2.152 -4.737,3.793 -7.441,4.921c-2.703,1.129 -5.787,1.693 -9.252,1.693c-3.727,0 -7.034,-0.617 -9.921,-1.85c-2.887,-1.234 -5.315,-2.94 -7.283,-5.118c-1.969,-2.179 -3.465,-4.712 -4.489,-7.599c-1.023,-2.887 -1.535,-5.984 -1.535,-9.291c0,-3.202 0.486,-6.234 1.457,-9.095c0.971,-2.86 2.375,-5.341 4.212,-7.44c1.838,-2.1 4.121,-3.767 6.851,-5c2.729,-1.234 5.826,-1.851 9.291,-1.851c3.832,0 7.165,0.683 10,2.047c2.835,1.365 5.144,3.202 6.929,5.512c1.785,2.31 3.058,5.026 3.819,8.15c0.761,3.123 1.037,6.417 0.827,9.882Zm-12.362,-6.851c-0,-2.414 -0.88,-4.396 -2.638,-5.945c-1.759,-1.548 -3.924,-2.322 -6.496,-2.322c-2.467,-0 -4.515,0.826 -6.142,2.48c-1.627,1.653 -2.572,3.583 -2.835,5.787l18.111,0Z" style="fill-rule:nonzero;"/></g><g><rect id="path16984" serif:id="path1698" x="163.465" y="47.244" width="50.551" height="94.488" style="fill:#fff;"/><path d="M209.615,83.815l-10.28,4.944c-1.936,-4.708 -4.997,-7.063 -9.182,-7.063c-1.622,0 -3.035,0.366 -4.238,1.099c-1.203,0.732 -2.211,1.7 -3.021,2.904c-0.811,1.203 -1.426,2.589 -1.845,4.159c-0.418,1.57 -0.628,3.165 -0.628,4.787c0,1.674 0.223,3.27 0.667,4.787c0.445,1.518 1.099,2.852 1.962,4.003c0.864,1.151 1.91,2.079 3.14,2.786c1.229,0.706 2.629,1.059 4.198,1.059c1.988,0 3.728,-0.549 5.219,-1.648c1.491,-1.099 2.786,-2.904 3.885,-5.415l10.123,5.023c-1.831,3.871 -4.394,6.984 -7.69,9.339c-3.297,2.354 -7.142,3.531 -11.537,3.531c-3.714,0 -6.98,-0.615 -9.797,-1.844c-2.816,-1.23 -5.161,-2.917 -7.033,-5.062c-1.872,-2.145 -3.289,-4.643 -4.25,-7.495c-0.962,-2.851 -1.443,-5.925 -1.443,-9.221c-0,-2.93 0.442,-5.807 1.325,-8.632c0.884,-2.826 2.236,-5.35 4.056,-7.574c1.82,-2.223 4.112,-4.015 6.876,-5.375c2.763,-1.361 6.055,-2.041 9.874,-2.041c4.552,0 8.554,1.19 12.007,3.571c3.453,2.38 5.991,5.506 7.612,9.378Z" style="fill-rule:nonzero;"/></g><g><rect x="47.244" y="47.244" width="64.252" height="94.488" style="fill:#fff;"/><path d="M102.265,118.11l-45.79,0l-0,-66.141l43.246,-0l0,13.058l-29.679,0l0,13.313l26.881,0l0,12.211l-26.881,0l0,14.5l32.223,0l0,13.059Z" style="fill-rule:nonzero;"/></g></g><g><g><rect id="path16985" serif:id="path1698" x="483.543" y="47.244" width="40.157" height="94.488" style="fill:#fff;"/><path d="M517.621,82.666l-1.911,-0.166c-1.772,-0.167 -3.434,-0.07 -4.985,0.29c-1.551,0.36 -2.907,0.983 -4.071,1.87c-1.163,0.886 -2.077,2.035 -2.741,3.447c-0.665,1.413 -0.997,3.088 -0.997,5.027l-0,24.923l-13.293,0l0,-47.188l13.293,-0l-0,4.901c1.606,-2.271 3.6,-3.932 5.982,-4.984c2.381,-1.053 5.289,-1.385 8.723,-0.997l-0,12.877Z" style="fill-rule:nonzero;"/></g><g><rect id="path16986" serif:id="path1698" x="429.213" y="47.244" width="54.331" height="94.488" style="fill:#fff;"/><path d="M478.823,95.038c-0,3.296 -0.523,6.356 -1.57,9.182c-1.046,2.825 -2.537,5.258 -4.473,7.298c-1.936,2.04 -4.29,3.649 -7.063,4.826c-2.773,1.178 -5.86,1.766 -9.261,1.766c-3.4,0 -6.487,-0.575 -9.26,-1.726c-2.773,-1.151 -5.14,-2.76 -7.102,-4.827c-1.962,-2.066 -3.48,-4.512 -4.552,-7.337c-1.073,-2.826 -1.609,-5.886 -1.609,-9.182c0,-3.401 0.484,-6.58 1.452,-9.536c0.968,-2.956 2.407,-5.519 4.316,-7.691c1.91,-2.171 4.264,-3.871 7.063,-5.101c2.799,-1.229 6.03,-1.844 9.692,-1.844c3.61,0 6.815,0.628 9.614,1.884c2.799,1.255 5.14,2.969 7.024,5.14c1.883,2.171 3.309,4.735 4.277,7.691c0.968,2.956 1.452,6.108 1.452,9.457Zm-12.321,-0c-0,-1.832 -0.249,-3.545 -0.746,-5.141c-0.497,-1.596 -1.177,-2.995 -2.04,-4.198c-0.864,-1.204 -1.923,-2.159 -3.179,-2.865c-1.255,-0.706 -2.616,-1.059 -4.081,-1.059c-1.517,-0 -2.903,0.353 -4.159,1.059c-1.256,0.706 -2.328,1.661 -3.218,2.865c-0.889,1.203 -1.569,2.602 -2.04,4.198c-0.471,1.596 -0.706,3.309 -0.706,5.141c-0,3.61 0.915,6.539 2.746,8.789c1.832,2.25 4.291,3.375 7.377,3.375c3.035,-0 5.468,-1.125 7.299,-3.375c1.831,-2.25 2.747,-5.179 2.747,-8.789Z" style="fill-rule:nonzero;"/></g><g><rect id="path16987" serif:id="path1698" x="391.89" y="47.244" width="37.323" height="94.488" style="fill:#fff;"/><path d="M426.713,53.381l-1.081,11.134c-0.997,-0.443 -1.911,-0.733 -2.742,-0.872c-0.83,-0.138 -1.689,-0.208 -2.575,-0.208c-2.05,0 -3.546,0.499 -4.487,1.496c-0.942,0.997 -1.385,2.604 -1.33,4.819l0.083,1.164l8.725,-0l-0,10.802l-8.559,-0l0,36.394l-13.045,0l-0,-36.394l-7.312,-0l-0,-10.802l7.312,-0l-0,-2.742c-0,-10.802 5.484,-16.203 16.452,-16.203c1.44,-0 2.908,0.124 4.404,0.373c1.496,0.25 2.881,0.596 4.155,1.039Z" style="fill-rule:nonzero;"/></g></g></g><g><g><rect id="path16988" serif:id="path1698" x="135.472" y="141.732" width="52.441" height="94.488" style="fill:#fff;"/><path d="M183.175,203.414l-5.215,9.184c-1.816,-0.103 -3.464,-0.557 -4.943,-1.362c-1.478,-0.804 -2.685,-1.855 -3.619,-3.152c-1.453,1.349 -3.152,2.361 -5.098,3.036c-1.946,0.674 -4.319,1.011 -7.121,1.011c-2.232,0 -4.372,-0.285 -6.421,-0.856c-2.05,-0.57 -3.853,-1.44 -5.41,-2.607c-1.556,-1.168 -2.802,-2.607 -3.736,-4.32c-0.934,-1.712 -1.401,-3.736 -1.401,-6.071c0,-2.283 0.338,-4.229 1.012,-5.837c0.675,-1.609 1.531,-2.971 2.569,-4.086c1.037,-1.116 2.218,-2.011 3.541,-2.685c1.323,-0.675 2.633,-1.194 3.93,-1.557c1.298,-0.363 2.517,-0.623 3.659,-0.778c1.141,-0.156 2.049,-0.26 2.724,-0.312c1.089,-0.104 2.477,-0.22 4.164,-0.35c1.686,-0.13 3.23,-0.246 4.631,-0.35l-0,-0.623c-0,-1.92 -0.441,-3.308 -1.323,-4.164c-0.883,-0.856 -2.413,-1.284 -4.593,-1.284c-2.283,-0 -4.462,0.272 -6.537,0.817c-2.076,0.545 -4.359,1.544 -6.85,2.997l-4.592,-9.729c3.165,-1.765 6.266,-3.036 9.301,-3.814c3.036,-0.779 6.188,-1.168 9.457,-1.168c5.656,0 9.962,1.401 12.92,4.203c2.958,2.802 4.436,7.005 4.436,12.609l0,14.555c0,1.971 0.338,3.463 1.012,4.475c0.675,1.012 1.842,1.751 3.503,2.218Zm-16.812,-5.837l-0,-5.526c-0.934,0.052 -1.92,0.104 -2.958,0.155c-1.038,0.052 -1.92,0.13 -2.646,0.234c-0.882,0.104 -1.803,0.207 -2.763,0.311c-0.96,0.104 -1.829,0.325 -2.607,0.662c-0.779,0.337 -1.427,0.817 -1.946,1.44c-0.519,0.622 -0.779,1.504 -0.779,2.646c0,1.505 0.649,2.646 1.946,3.425c1.297,0.778 2.776,1.167 4.437,1.167c2.646,0 4.527,-0.441 5.642,-1.323c1.116,-0.882 1.674,-1.946 1.674,-3.191Z" style="fill-rule:nonzero;"/></g><g><rect id="path16989" serif:id="path1698" x="340.984" y="141.732" width="47.244" height="94.488" style="fill:#fff;"/><path d="M384.108,198.295c0,2.092 -0.405,4.015 -1.216,5.768c-0.811,1.753 -2.028,3.27 -3.649,4.552c-1.622,1.281 -3.624,2.275 -6.004,2.982c-2.381,0.706 -5.14,1.059 -8.28,1.059c-3.976,0 -7.586,-0.588 -10.83,-1.766c-3.243,-1.177 -6.252,-2.916 -9.025,-5.218l7.063,-8.162c2.198,1.831 4.448,3.047 6.75,3.649c2.302,0.602 4.29,0.903 5.964,0.903c2.354,-0 3.976,-0.34 4.866,-1.021c0.889,-0.68 1.334,-1.517 1.334,-2.511c-0,-0.575 -0.406,-1.19 -1.217,-1.844c-0.811,-0.654 -2.158,-1.19 -4.041,-1.609l-7.77,-1.883c-1.465,-0.314 -2.916,-0.811 -4.355,-1.492c-1.439,-0.68 -2.734,-1.543 -3.885,-2.589c-1.151,-1.047 -2.08,-2.302 -2.786,-3.767c-0.706,-1.465 -1.059,-3.166 -1.059,-5.101c-0,-2.145 0.457,-4.121 1.373,-5.926c0.916,-1.805 2.21,-3.374 3.885,-4.708c1.674,-1.334 3.649,-2.368 5.925,-3.1c2.276,-0.733 4.8,-1.099 7.573,-1.099c4.081,0 7.626,0.55 10.634,1.648c3.008,1.099 5.637,2.616 7.887,4.552l-7.063,8.162c-1.674,-1.308 -3.388,-2.276 -5.14,-2.904c-1.753,-0.628 -3.65,-0.942 -5.69,-0.942c-2.198,0 -3.819,0.406 -4.866,1.217c-1.046,0.811 -1.569,1.687 -1.569,2.629c-0,0.157 0.026,0.366 0.078,0.628c0.052,0.261 0.222,0.536 0.51,0.824c0.288,0.287 0.693,0.575 1.217,0.863c0.523,0.288 1.255,0.536 2.197,0.745l8.162,1.962c1.622,0.419 3.204,0.942 4.748,1.57c1.543,0.628 2.93,1.465 4.159,2.511c1.23,1.047 2.224,2.328 2.982,3.846c0.759,1.517 1.138,3.374 1.138,5.572Z" style="fill-rule:nonzero;"/></g><g><rect id="path169810" serif:id="path1698" x="388.228" y="141.732" width="47.244" height="94.488" style="fill:#fff;"/><path d="M431.352,198.295c0,2.092 -0.405,4.015 -1.216,5.768c-0.811,1.753 -2.027,3.27 -3.649,4.552c-1.622,1.281 -3.623,2.275 -6.004,2.982c-2.38,0.706 -5.14,1.059 -8.279,1.059c-3.977,0 -7.587,-0.588 -10.83,-1.766c-3.244,-1.177 -6.253,-2.916 -9.026,-5.218l7.064,-8.162c2.197,1.831 4.447,3.047 6.749,3.649c2.302,0.602 4.29,0.903 5.964,0.903c2.354,-0 3.976,-0.34 4.866,-1.021c0.889,-0.68 1.334,-1.517 1.334,-2.511c-0,-0.575 -0.406,-1.19 -1.217,-1.844c-0.81,-0.654 -2.158,-1.19 -4.041,-1.609l-7.77,-1.883c-1.464,-0.314 -2.916,-0.811 -4.355,-1.492c-1.439,-0.68 -2.734,-1.543 -3.885,-2.589c-1.151,-1.047 -2.079,-2.302 -2.786,-3.767c-0.706,-1.465 -1.059,-3.166 -1.059,-5.101c-0,-2.145 0.458,-4.121 1.373,-5.926c0.916,-1.805 2.211,-3.374 3.885,-4.708c1.674,-1.334 3.649,-2.368 5.925,-3.1c2.276,-0.733 4.8,-1.099 7.573,-1.099c4.081,0 7.626,0.55 10.634,1.648c3.008,1.099 5.637,2.616 7.887,4.552l-7.063,8.162c-1.674,-1.308 -3.388,-2.276 -5.14,-2.904c-1.753,-0.628 -3.65,-0.942 -5.69,-0.942c-2.197,0 -3.819,0.406 -4.866,1.217c-1.046,0.811 -1.569,1.687 -1.569,2.629c-0,0.157 0.026,0.366 0.078,0.628c0.052,0.261 0.223,0.536 0.51,0.824c0.288,0.287 0.694,0.575 1.217,0.863c0.523,0.288 1.255,0.536 2.197,0.745l8.162,1.962c1.622,0.419 3.204,0.942 4.748,1.57c1.543,0.628 2.93,1.465 4.159,2.511c1.23,1.047 2.224,2.328 2.982,3.846c0.759,1.517 1.138,3.374 1.138,5.572Z" style="fill-rule:nonzero;"/></g><g><rect id="path169811" serif:id="path1698" x="289.016" y="141.732" width="51.969" height="94.488" style="fill:#fff;"/><path d="M336.659,190.945l-0.158,1.968l-30.472,0c0.052,1.26 0.367,2.428 0.945,3.504c0.577,1.076 1.338,2.021 2.283,2.835c0.945,0.814 2.034,1.444 3.268,1.89c1.234,0.446 2.533,0.669 3.898,0.669c3.937,0 7.322,-1.312 10.157,-3.937l6.614,8.11c-2.257,2.152 -4.737,3.793 -7.441,4.922c-2.703,1.128 -5.787,1.692 -9.252,1.692c-3.727,0 -7.034,-0.616 -9.921,-1.85c-2.887,-1.234 -5.315,-2.94 -7.283,-5.118c-1.969,-2.179 -3.465,-4.711 -4.489,-7.599c-1.023,-2.887 -1.535,-5.984 -1.535,-9.291c0,-3.202 0.486,-6.233 1.457,-9.094c0.971,-2.861 2.375,-5.342 4.212,-7.441c1.838,-2.1 4.121,-3.767 6.851,-5c2.729,-1.234 5.826,-1.851 9.291,-1.851c3.832,0 7.165,0.683 10,2.048c2.835,1.364 5.144,3.202 6.929,5.511c1.785,2.31 3.058,5.027 3.819,8.15c0.761,3.123 1.037,6.417 0.827,9.882Zm-12.362,-6.851c-0,-2.414 -0.88,-4.396 -2.638,-5.944c-1.759,-1.549 -3.924,-2.323 -6.496,-2.323c-2.467,-0 -4.515,0.827 -6.142,2.48c-1.627,1.654 -2.572,3.583 -2.835,5.787l18.111,0Z" style="fill-rule:nonzero;"/></g><g><rect id="path169812" serif:id="path1698" x="187.913" y="141.732" width="50.551" height="94.488" style="fill:#fff;"/><path d="M234.064,178.303l-10.28,4.944c-1.936,-4.708 -4.997,-7.063 -9.182,-7.063c-1.622,0 -3.035,0.367 -4.238,1.099c-1.204,0.733 -2.211,1.7 -3.022,2.904c-0.811,1.203 -1.425,2.59 -1.844,4.159c-0.418,1.57 -0.628,3.165 -0.628,4.787c0,1.675 0.223,3.27 0.667,4.788c0.445,1.517 1.099,2.851 1.962,4.002c0.864,1.151 1.91,2.08 3.139,2.786c1.23,0.706 2.629,1.059 4.199,1.059c1.988,0 3.728,-0.549 5.219,-1.648c1.491,-1.098 2.786,-2.903 3.885,-5.415l10.123,5.023c-1.831,3.872 -4.395,6.985 -7.691,9.339c-3.296,2.354 -7.141,3.531 -11.536,3.531c-3.715,0 -6.98,-0.614 -9.797,-1.844c-2.817,-1.229 -5.161,-2.917 -7.033,-5.062c-1.872,-2.145 -3.289,-4.643 -4.251,-7.494c-0.961,-2.852 -1.442,-5.926 -1.442,-9.222c-0,-2.929 0.442,-5.807 1.325,-8.632c0.884,-2.825 2.236,-5.35 4.056,-7.573c1.82,-2.224 4.112,-4.016 6.875,-5.376c2.764,-1.361 6.055,-2.041 9.875,-2.041c4.551,0 8.554,1.191 12.007,3.571c3.453,2.381 5.99,5.507 7.612,9.378Z" style="fill-rule:nonzero;"/></g><g><rect id="path169813" serif:id="path1698" x="238.465" y="141.732" width="50.551" height="94.488" style="fill:#fff;"/><path d="M284.615,178.303l-10.28,4.944c-1.936,-4.708 -4.997,-7.063 -9.182,-7.063c-1.622,0 -3.035,0.367 -4.238,1.099c-1.203,0.733 -2.211,1.7 -3.021,2.904c-0.811,1.203 -1.426,2.59 -1.845,4.159c-0.418,1.57 -0.628,3.165 -0.628,4.787c0,1.675 0.223,3.27 0.667,4.788c0.445,1.517 1.099,2.851 1.962,4.002c0.864,1.151 1.91,2.08 3.14,2.786c1.229,0.706 2.629,1.059 4.198,1.059c1.988,0 3.728,-0.549 5.219,-1.648c1.491,-1.098 2.786,-2.903 3.885,-5.415l10.123,5.023c-1.831,3.872 -4.394,6.985 -7.69,9.339c-3.297,2.354 -7.142,3.531 -11.537,3.531c-3.714,0 -6.98,-0.614 -9.797,-1.844c-2.816,-1.229 -5.161,-2.917 -7.033,-5.062c-1.872,-2.145 -3.289,-4.643 -4.25,-7.494c-0.962,-2.852 -1.443,-5.926 -1.443,-9.222c-0,-2.929 0.442,-5.807 1.325,-8.632c0.884,-2.825 2.236,-5.35 4.056,-7.573c1.82,-2.224 4.112,-4.016 6.876,-5.376c2.763,-1.361 6.055,-2.041 9.874,-2.041c4.552,0 8.554,1.191 12.007,3.571c3.453,2.381 5.991,5.507 7.612,9.378Z" style="fill-rule:nonzero;"/></g></g></g></svg>