<?xml version="1.0" encoding="UTF-8" standalone="no"?><!DOCTYPE svg PUBLIC "-//W3C//DTD SVG 1.1//EN" "http://www.w3.org/Graphics/SVG/1.1/DTD/svg11.dtd"><svg width="100%" height="100%" viewBox="0 0 454 454" version="1.1" xmlns="http://www.w3.org/2000/svg" xmlns:xlink="http://www.w3.org/1999/xlink" xml:space="preserve" xmlns:serif="http://www.serif.com/" style="fill-rule:evenodd;clip-rule:evenodd;stroke-linejoin:round;stroke-miterlimit:2;"><g transform="matrix(50,0,0,50,321.022,262.709)"></g><text x="133.4px" y="262.709px" style="font-family:'ArialMT', 'Arial', sans-serif;font-size:50px;">sw=38.4</text><g id="_622.1A-No-Goods-Vehicles-over-Maximum-Gross-WEight" serif:id="622.1A No Goods Vehicles over Maximum Gross WEight"><circle cx="226.772" cy="226.772" r="226.772" style="fill:#e31837;"/><circle cx="226.772" cy="226.772" r="181.417" style="fill:#fff;"/><g><path d="M289.279,276.714l-144.41,-0l-0,-0.052c-0.002,-15.179 -12.304,-27.483 -27.478,-27.483c-15.174,0.001 -27.475,12.306 -27.475,27.486l0,0.049l-9.928,-0l-8.75,-41.597l0.003,-0.09c-1.029,-4.917 2.031,-9.774 6.896,-11.022l6.667,-37.761l-0.058,-0.1c1.313,-7.45 7.783,-12.881 15.345,-12.881l0.049,0.098l43.058,0l-0.049,-0.098c3.447,0 6.242,2.795 6.242,6.244l0.098,0.05l0,34.811l12.485,0l-0,-56.151l-0.098,-0.049c-0,-3.448 2.794,-6.244 6.242,-6.244l196.02,-0l0.049,0c3.425,0.026 6.193,2.812 6.194,6.244l-0,118.546l-31.163,-0l-0.098,-0.049c-0,13.767 -11.158,24.928 -24.921,24.928c-13.746,0 -24.893,-11.134 -24.92,-24.879Zm24.92,-12.489c-6.868,0 -12.435,5.569 -12.435,12.44c-0,6.87 5.567,12.439 12.435,12.439c6.868,0 12.436,-5.569 12.436,-12.439c-0,-6.871 -5.568,-12.44 -12.436,-12.44Zm-219.862,-75.968l0.003,0.052l-4.522,26.059l37.356,0l-0,-31.271l-26.69,-0c-3.029,-0 -5.622,2.176 -6.147,5.16Zm23.056,63.479c13.763,0 24.92,11.161 24.92,24.929c-0,13.767 -11.157,24.928 -24.92,24.928c-13.763,0 -24.921,-11.161 -24.921,-24.928c0,-13.768 11.158,-24.929 24.921,-24.929Zm-0,12.489c-6.868,0 -12.436,5.569 -12.436,12.44c0,6.87 5.568,12.439 12.436,12.439c6.868,0 12.435,-5.569 12.435,-12.439c0,-6.871 -5.567,-12.44 -12.435,-12.44Z"/><g><g><rect x="317.478" y="164.396" width="28.865" height="71.271"/><path d="M342.664,210.395c-1.349,0.513 -2.825,0.77 -4.237,0.77c-3.596,0 -4.43,-1.22 -4.43,-4.622l-0,-18.489l9.437,-0l-0,-6.933l-9.437,-0l-0,-13.161l-8.153,3.659l-0,9.502l-6.035,-0l0,6.933l6.035,-0l-0,21.699c-0,7.383 5.585,8.988 10.079,8.988c3.595,-0 6.163,-0.707 8.089,-1.22l-1.348,-7.126Z" style="fill:#fff;fill-rule:nonzero;"/></g><g><rect x="184.557" y="164.396" width="55.591" height="106.907"/><path d="M236.935,169.742l-51.041,-0l-0,11.513l36.841,-0l-26.671,63.321l14.007,0l26.864,-62.938l-0,-11.896Z" style="fill:#fff;fill-rule:nonzero;"/></g><g><rect x="240.149" y="189.698" width="18.887" height="71.271"/><g transform="matrix(0.99359,0,0,1,-1.93501,0)"><g transform="matrix(57.4767,0,0,57.4767,260.191,242.116)"></g><text x="246.052px" y="242.116px" style="font-family:'TransportNew-Medium', 'Transport New';font-weight:500;font-size:57.477px;fill:#fff;">.</text></g></g><g><rect x="259.036" y="189.698" width="43.475" height="71.271"/><path d="M298.008,225.501c0,-9.621 -6.626,-17.267 -16.693,-17.267c-2.803,0 -5.734,0.765 -7.901,2.039l1.402,-9.366l20.707,-0l0,-7.646l-28.353,0l-3.631,24.913l8.282,2.357c1.53,-3.122 4.843,-4.779 8.283,-4.779c5.735,0 9.43,4.715 9.43,10.195c0,5.479 -2.803,10.322 -9.366,10.322c-4.078,-0 -7.2,-2.804 -8.601,-6.499l-8.028,3.122c2.676,6.69 8.537,11.15 17.712,11.15c9.749,-0 16.757,-8.156 16.757,-18.541Z" style="fill:#fff;fill-rule:nonzero;"/></g></g></g></g></svg>