<?xml version="1.0" encoding="UTF-8" standalone="no"?><!DOCTYPE svg PUBLIC "-//W3C//DTD SVG 1.1//EN" "http://www.w3.org/Graphics/SVG/1.1/DTD/svg11.dtd"><svg width="100%" height="100%" viewBox="0 0 454 454" version="1.1" xmlns="http://www.w3.org/2000/svg" xmlns:xlink="http://www.w3.org/1999/xlink" xml:space="preserve" xmlns:serif="http://www.serif.com/" style="fill-rule:evenodd;clip-rule:evenodd;stroke-linejoin:round;stroke-miterlimit:2;"><g transform="matrix(50,0,0,50,321.022,262.709)"></g><text x="133.4px" y="262.709px" style="font-family:'ArialMT', 'Arial', sans-serif;font-size:50px;">sw=38.4</text><g id="_622.2-End-of-Goods-Vehicles-Restrictions" serif:id="622.2 End of Goods Vehicles Restrictions"><circle cx="226.772" cy="226.772" r="226.772" style="fill:#999;"/><circle cx="226.772" cy="226.772" r="181.417" style="fill:#fff;"/><path d="M289.279,276.714l-144.41,-0l-0,-0.052c-0.002,-15.179 -12.304,-27.483 -27.478,-27.483c-15.174,0.001 -27.475,12.306 -27.475,27.486l0,0.049l-9.928,-0l-8.75,-41.597l0.003,-0.09c-1.029,-4.917 2.031,-9.774 6.896,-11.022l6.667,-37.761l-0.058,-0.1c1.313,-7.45 7.783,-12.881 15.345,-12.881l0.049,0.098l43.058,0l-0.049,-0.098c3.447,0 6.242,2.795 6.242,6.244l0.098,0.05l0,34.811l12.485,0l-0,-56.151l-0.098,-0.049c-0,-3.448 2.794,-6.244 6.242,-6.244l196.02,-0l0.049,0c3.425,0.026 6.193,2.812 6.194,6.244l-0,118.546l-31.163,-0l-0.098,-0.049c-0,13.767 -11.158,24.928 -24.921,24.928c-13.746,0 -24.893,-11.134 -24.92,-24.879Zm24.92,-12.489c-6.868,0 -12.435,5.569 -12.435,12.44c-0,6.87 5.567,12.439 12.435,12.439c6.868,0 12.436,-5.569 12.436,-12.439c-0,-6.871 -5.568,-12.44 -12.436,-12.44Zm-219.862,-75.968l0.003,0.052l-4.522,26.059l37.356,0l-0,-31.271l-26.69,-0c-3.029,-0 -5.622,2.176 -6.147,5.16Zm23.056,63.479c13.763,0 24.92,11.161 24.92,24.929c-0,13.767 -11.157,24.928 -24.92,24.928c-13.763,0 -24.921,-11.161 -24.921,-24.928c0,-13.768 11.158,-24.929 24.921,-24.929Zm-0,12.489c-6.868,0 -12.436,5.569 -12.436,12.44c0,6.87 5.568,12.439 12.436,12.439c6.868,0 12.435,-5.569 12.435,-12.439c0,-6.871 -5.567,-12.44 -12.435,-12.44Z" style="fill:#999;"/><g><clipPath id="_clip1"><path d="M226.772,-0c125.158,-0 226.771,101.613 226.771,226.772c0,125.158 -101.613,226.771 -226.771,226.771c-125.159,0 -226.772,-101.613 -226.772,-226.771c0,-125.159 101.613,-226.772 226.772,-226.772Z"/></clipPath><g clip-path="url(#_clip1)"><path d="M370.006,38.612l-331.394,331.394l-6.414,-6.414l331.394,-331.394l6.414,6.414Z"/><path d="M382.834,51.441l-331.393,331.393l-6.414,-6.414l331.393,-331.393l6.414,6.414Z"/><path d="M395.662,64.269l-331.393,331.393l-6.414,-6.414l331.393,-331.393l6.414,6.414Z"/><path d="M408.491,77.097l-331.394,331.394l-6.414,-6.415l331.393,-331.393l6.415,6.414Z"/><path d="M421.319,89.925l-331.394,331.394l-6.414,-6.414l331.394,-331.394l6.414,6.414Z"/></g></g></g></svg>