<?xml version="1.0" encoding="UTF-8" standalone="no"?><!DOCTYPE svg PUBLIC "-//W3C//DTD SVG 1.1//EN" "http://www.w3.org/Graphics/SVG/1.1/DTD/svg11.dtd"><svg width="100%" height="100%" viewBox="0 0 454 454" version="1.1" xmlns="http://www.w3.org/2000/svg" xmlns:xlink="http://www.w3.org/1999/xlink" xml:space="preserve" xmlns:serif="http://www.serif.com/" style="fill-rule:evenodd;clip-rule:evenodd;stroke-linejoin:round;stroke-miterlimit:2;"><g transform="matrix(50,0,0,50,321.022,262.709)"></g><text x="133.4px" y="262.709px" style="font-family:'ArialMT', 'Arial', sans-serif;font-size:50px;">sw=38.4</text><g id="_622.4-No-Articulated-Vehicles" serif:id="622.4 No Articulated Vehicles"><circle cx="226.772" cy="226.772" r="226.772" style="fill:#e31837;"/><circle cx="226.772" cy="226.772" r="181.417" style="fill:#fff;"/><g><g><rect id="path1698" x="127.446" y="196.522" width="25.398" height="60.472" style="fill:#fff;"/><path d="M150.78,240.375c-0.877,0.386 -1.948,0.711 -3.211,0.974c-1.264,0.263 -2.668,0.395 -4.212,0.395c-2.808,-0 -5.02,-0.658 -6.634,-1.975c-1.615,-1.316 -2.422,-3.448 -2.422,-6.396l-0,-15.48l-4.791,0l-0,-7.002l4.791,-0l-0,-7.74l8.266,-3.738l-0,11.478l7.634,-0l0,7.002l-7.634,0l-0,12.9c-0,1.439 0.219,2.395 0.658,2.869c0.439,0.474 1.167,0.711 2.185,0.711c1.299,-0 2.65,-0.281 4.054,-0.843l1.316,6.845Z" style="fill-rule:nonzero;"/></g><g><rect id="path16981" serif:id="path1698" x="290.721" y="196.522" width="25.398" height="60.472" style="fill:#fff;"/><path d="M314.056,240.375c-0.878,0.386 -1.948,0.711 -3.212,0.974c-1.263,0.263 -2.667,0.395 -4.212,0.395c-2.808,-0 -5.019,-0.658 -6.634,-1.975c-1.614,-1.316 -2.422,-3.448 -2.422,-6.396l0,-15.48l-4.791,0l0,-7.002l4.791,-0l0,-7.74l8.266,-3.738l0,11.478l7.635,-0l-0,7.002l-7.635,0l0,12.9c0,1.439 0.22,2.395 0.659,2.869c0.438,0.474 1.167,0.711 2.184,0.711c1.299,-0 2.651,-0.281 4.055,-0.843l1.316,6.845Z" style="fill-rule:nonzero;"/></g><g><rect id="path16982" serif:id="path1698" x="152.844" y="196.522" width="16.63" height="60.472" style="fill:#fff;"/><path d="M165.399,204.285c-0,1.349 -0.462,2.485 -1.385,3.408c-0.923,0.923 -2.041,1.384 -3.354,1.384c-1.349,0 -2.485,-0.461 -3.408,-1.384c-0.923,-0.923 -1.384,-2.059 -1.384,-3.408c-0,-1.314 0.461,-2.432 1.384,-3.355c0.923,-0.923 2.059,-1.384 3.408,-1.384c1.313,-0 2.431,0.461 3.354,1.384c0.923,0.923 1.385,2.041 1.385,3.355Zm-0.533,37.592l-8.413,-0l0,-30.244l8.413,-0l0,30.244Z" style="fill-rule:nonzero;"/></g><g><rect id="path16983" serif:id="path1698" x="68.183" y="196.522" width="33.562" height="60.472" style="fill:#fff;"/><path d="M98.712,235.999l-3.337,5.878c-1.163,-0.067 -2.217,-0.357 -3.163,-0.872c-0.947,-0.515 -1.719,-1.187 -2.317,-2.017c-0.93,0.863 -2.017,1.511 -3.262,1.942c-1.246,0.432 -2.765,0.648 -4.558,0.648c-1.428,-0 -2.798,-0.183 -4.11,-0.548c-1.312,-0.365 -2.466,-0.922 -3.462,-1.669c-0.996,-0.747 -1.793,-1.669 -2.391,-2.764c-0.598,-1.096 -0.896,-2.391 -0.896,-3.886c-0,-1.461 0.215,-2.706 0.647,-3.736c0.432,-1.029 0.98,-1.901 1.644,-2.615c0.664,-0.714 1.42,-1.287 2.266,-1.718c0.847,-0.432 1.686,-0.764 2.516,-0.997c0.83,-0.232 1.611,-0.398 2.341,-0.498c0.731,-0.099 1.312,-0.166 1.744,-0.199c0.697,-0.067 1.585,-0.141 2.664,-0.224c1.08,-0.083 2.068,-0.158 2.964,-0.224l0,-0.399c0,-1.229 -0.282,-2.117 -0.846,-2.665c-0.565,-0.548 -1.545,-0.822 -2.939,-0.822c-1.462,0 -2.856,0.175 -4.185,0.523c-1.328,0.349 -2.789,0.988 -4.383,1.918l-2.939,-6.227c2.026,-1.129 4.01,-1.942 5.952,-2.44c1.943,-0.498 3.961,-0.748 6.053,-0.748c3.619,0 6.376,0.897 8.269,2.69c1.892,1.794 2.839,4.483 2.839,8.07l-0,9.315c-0,1.262 0.216,2.217 0.647,2.864c0.432,0.648 1.179,1.121 2.242,1.42Zm-10.759,-3.736l-0,-3.537c-0.598,0.033 -1.229,0.067 -1.893,0.1c-0.665,0.033 -1.229,0.083 -1.694,0.149c-0.565,0.067 -1.154,0.133 -1.768,0.199c-0.615,0.067 -1.171,0.208 -1.669,0.424c-0.498,0.216 -0.913,0.523 -1.245,0.921c-0.332,0.399 -0.498,0.963 -0.498,1.694c-0,0.963 0.415,1.694 1.245,2.192c0.83,0.498 1.776,0.747 2.839,0.747c1.694,-0 2.898,-0.282 3.612,-0.847c0.714,-0.564 1.071,-1.245 1.071,-2.042Z" style="fill-rule:nonzero;"/></g><g><rect id="path16984" serif:id="path1698" x="257.159" y="196.522" width="33.562" height="60.472" style="fill:#fff;"/><path d="M287.688,235.999l-3.337,5.878c-1.162,-0.067 -2.217,-0.357 -3.163,-0.872c-0.947,-0.515 -1.719,-1.187 -2.316,-2.017c-0.93,0.863 -2.018,1.511 -3.263,1.942c-1.245,0.432 -2.765,0.648 -4.558,0.648c-1.428,-0 -2.798,-0.183 -4.11,-0.548c-1.311,-0.365 -2.465,-0.922 -3.461,-1.669c-0.997,-0.747 -1.794,-1.669 -2.391,-2.764c-0.598,-1.096 -0.897,-2.391 -0.897,-3.886c-0,-1.461 0.216,-2.706 0.647,-3.736c0.432,-1.029 0.98,-1.901 1.644,-2.615c0.664,-0.714 1.42,-1.287 2.267,-1.718c0.847,-0.432 1.685,-0.764 2.515,-0.997c0.83,-0.232 1.611,-0.398 2.341,-0.498c0.731,-0.099 1.312,-0.166 1.744,-0.199c0.697,-0.067 1.586,-0.141 2.665,-0.224c1.079,-0.083 2.067,-0.158 2.964,-0.224l-0,-0.399c-0,-1.229 -0.283,-2.117 -0.847,-2.665c-0.565,-0.548 -1.544,-0.822 -2.939,-0.822c-1.461,0 -2.856,0.175 -4.184,0.523c-1.329,0.349 -2.79,0.988 -4.384,1.918l-2.939,-6.227c2.026,-1.129 4.01,-1.942 5.953,-2.44c1.943,-0.498 3.96,-0.748 6.052,-0.748c3.62,0 6.376,0.897 8.269,2.69c1.893,1.794 2.839,4.483 2.839,8.07l0,9.315c0,1.262 0.216,2.217 0.648,2.864c0.432,0.648 1.179,1.121 2.241,1.42Zm-10.759,-3.736l-0,-3.537c-0.598,0.033 -1.229,0.067 -1.893,0.1c-0.664,0.033 -1.229,0.083 -1.694,0.149c-0.564,0.067 -1.154,0.133 -1.768,0.199c-0.614,0.067 -1.171,0.208 -1.669,0.424c-0.498,0.216 -0.913,0.523 -1.245,0.921c-0.332,0.399 -0.498,0.963 -0.498,1.694c-0,0.963 0.415,1.694 1.245,2.192c0.83,0.498 1.777,0.747 2.84,0.747c1.693,-0 2.897,-0.282 3.611,-0.847c0.714,-0.564 1.071,-1.245 1.071,-2.042Z" style="fill-rule:nonzero;"/></g><g><rect id="path16985" serif:id="path1698" x="201.827" y="196.522" width="36.283" height="60.472" style="fill:#fff;"/><path d="M233.285,241.842l-8.522,-0l-0,-1.911c-0.924,0.849 -2.033,1.521 -3.33,2.017c-1.296,0.495 -2.548,0.743 -3.755,0.743c-1.811,-0 -3.4,-0.266 -4.767,-0.796c-1.368,-0.531 -2.522,-1.265 -3.463,-2.203c-0.941,-0.937 -1.642,-2.034 -2.104,-3.29c-0.462,-1.256 -0.692,-2.627 -0.692,-4.113l-0,-20.59l8.522,-0l0,18.839c0,1.592 0.371,2.742 1.113,3.449c0.741,0.708 1.801,1.062 3.178,1.062c0.671,-0 1.325,-0.089 1.96,-0.266c0.636,-0.176 1.201,-0.459 1.695,-0.849c0.495,-0.389 0.892,-0.893 1.192,-1.512c0.301,-0.619 0.451,-1.389 0.451,-2.309l-0,-18.414l8.522,-0l0,30.143Z" style="fill-rule:nonzero;"/></g><g><rect id="path16986" serif:id="path1698" x="101.745" y="196.522" width="25.701" height="60.472" style="fill:#fff;"/><path d="M123.554,219.192l-1.222,-0.106c-1.135,-0.106 -2.198,-0.044 -3.191,0.186c-0.992,0.23 -1.861,0.629 -2.605,1.196c-0.744,0.567 -1.329,1.303 -1.755,2.207c-0.425,0.904 -0.638,1.976 -0.638,3.217l0,15.951l-8.507,-0l0,-30.201l8.507,0l0,3.137c1.028,-1.453 2.304,-2.517 3.829,-3.19c1.524,-0.674 3.385,-0.886 5.582,-0.638l0,8.241Z" style="fill-rule:nonzero;"/></g><g><rect id="path16987" serif:id="path1698" x="316.12" y="196.522" width="33.26" height="60.472" style="fill:#fff;"/><path d="M346.611,228.018l-0.101,1.26l-19.502,0c0.034,0.807 0.235,1.554 0.605,2.243c0.369,0.688 0.857,1.293 1.461,1.814c0.605,0.521 1.302,0.924 2.092,1.209c0.789,0.286 1.621,0.429 2.494,0.429c2.52,-0 4.687,-0.84 6.501,-2.52l4.233,5.191c-1.445,1.377 -3.032,2.427 -4.762,3.149c-1.73,0.723 -3.704,1.084 -5.922,1.084c-2.385,-0 -4.501,-0.395 -6.349,-1.185c-1.848,-0.789 -3.402,-1.881 -4.662,-3.275c-1.259,-1.394 -2.217,-3.015 -2.872,-4.863c-0.655,-1.848 -0.983,-3.83 -0.983,-5.947c0,-2.049 0.311,-3.989 0.933,-5.82c0.621,-1.831 1.52,-3.418 2.696,-4.762c1.176,-1.344 2.637,-2.411 4.384,-3.2c1.747,-0.79 3.729,-1.185 5.946,-1.185c2.453,0 4.586,0.437 6.4,1.311c1.815,0.873 3.293,2.049 4.435,3.527c1.142,1.478 1.957,3.217 2.444,5.216c0.487,1.999 0.664,4.107 0.529,6.324Zm-7.912,-4.384c0,-1.545 -0.562,-2.814 -1.688,-3.805c-1.125,-0.991 -2.511,-1.486 -4.157,-1.486c-1.579,-0 -2.889,0.529 -3.931,1.587c-1.041,1.058 -1.646,2.293 -1.814,3.704l11.59,0Z" style="fill-rule:nonzero;"/></g><g><rect id="path16988" serif:id="path1698" x="349.38" y="196.522" width="35.981" height="60.472" style="fill:#fff;"/><path d="M381.991,241.715l-8.53,-0l-0,-1.62c-0.828,0.756 -1.827,1.368 -2.997,1.836c-1.17,0.468 -2.349,0.702 -3.537,0.702c-2.339,-0 -4.409,-0.441 -6.209,-1.323c-1.8,-0.882 -3.311,-2.061 -4.535,-3.537c-1.224,-1.476 -2.16,-3.176 -2.808,-5.102c-0.648,-1.926 -0.972,-3.951 -0.972,-6.074c0,-2.16 0.306,-4.23 0.918,-6.21c0.612,-1.979 1.521,-3.725 2.727,-5.237c1.206,-1.512 2.69,-2.727 4.454,-3.645c1.764,-0.917 3.798,-1.376 6.101,-1.376c1.26,-0 2.484,0.198 3.672,0.594c1.188,0.396 2.25,0.953 3.186,1.673l-0,-12.85l8.53,-0l0,42.169Zm-8.476,-11.393l-0,-7.937c-0,-0.684 -0.163,-1.296 -0.489,-1.836c-0.325,-0.54 -0.741,-1.008 -1.247,-1.403c-0.506,-0.396 -1.076,-0.702 -1.708,-0.918c-0.633,-0.216 -1.256,-0.324 -1.871,-0.324c-2.277,-0 -4.04,0.801 -5.287,2.402c-1.247,1.602 -1.871,3.663 -1.871,6.183c0,1.151 0.163,2.222 0.488,3.212c0.325,0.99 0.786,1.845 1.383,2.565c0.596,0.72 1.328,1.296 2.196,1.728c0.868,0.432 1.844,0.648 2.929,0.648c0.542,-0 1.138,-0.09 1.789,-0.27c0.651,-0.18 1.247,-0.45 1.789,-0.81c0.542,-0.36 0.994,-0.81 1.356,-1.35c0.362,-0.54 0.543,-1.17 0.543,-1.89Z" style="fill-rule:nonzero;"/></g><g><rect id="path16989" serif:id="path1698" x="169.474" y="196.522" width="32.353" height="60.472" style="fill:#fff;"/><path d="M199.011,219.928l-6.58,3.164c-1.239,-3.014 -3.198,-4.52 -5.877,-4.52c-1.038,-0 -1.942,0.234 -2.712,0.703c-0.77,0.469 -1.414,1.088 -1.933,1.858c-0.519,0.77 -0.913,1.658 -1.181,2.662c-0.268,1.005 -0.402,2.026 -0.402,3.064c0,1.071 0.143,2.093 0.427,3.064c0.285,0.971 0.703,1.825 1.256,2.561c0.552,0.737 1.222,1.331 2.009,1.783c0.787,0.452 1.683,0.678 2.687,0.678c1.273,0 2.386,-0.351 3.34,-1.054c0.954,-0.703 1.783,-1.859 2.486,-3.466l6.48,3.215c-1.172,2.477 -2.813,4.47 -4.923,5.976c-2.109,1.507 -4.57,2.261 -7.383,2.261c-2.377,-0 -4.467,-0.394 -6.27,-1.181c-1.803,-0.787 -3.303,-1.866 -4.501,-3.239c-1.198,-1.373 -2.105,-2.972 -2.72,-4.797c-0.616,-1.825 -0.924,-3.792 -0.924,-5.901c0,-1.876 0.283,-3.717 0.849,-5.525c0.565,-1.808 1.43,-3.424 2.595,-4.847c1.165,-1.423 2.632,-2.57 4.401,-3.441c1.768,-0.87 3.875,-1.306 6.319,-1.306c2.913,0 5.475,0.762 7.685,2.286c2.21,1.523 3.834,3.524 4.872,6.002Z" style="fill-rule:nonzero;"/></g><g><rect id="path169810" serif:id="path1698" x="238.11" y="196.522" width="19.049" height="60.472" style="fill:#fff;"/><path d="M256.403,240.974c-0.92,0.283 -1.894,0.504 -2.921,0.664c-1.027,0.159 -2.036,0.239 -3.027,0.239c-1.594,-0 -2.966,-0.213 -4.117,-0.638c-1.15,-0.425 -2.089,-1.027 -2.815,-1.806c-0.726,-0.779 -1.257,-1.726 -1.593,-2.841c-0.336,-1.115 -0.505,-2.346 -0.505,-3.691l0,-33.355l8.339,-0l0,31.974c0,1.841 0.868,2.762 2.603,2.762c0.531,-0 1.044,-0.045 1.54,-0.133c0.496,-0.089 1.044,-0.239 1.646,-0.452l0.85,7.277Z" style="fill-rule:nonzero;"/></g></g><g><g><rect id="path169811" serif:id="path1698" x="211.805" y="287.231" width="16.63" height="60.472" style="fill:#fff;"/><path d="M224.359,294.994c0,1.348 -0.461,2.484 -1.384,3.407c-0.923,0.923 -2.041,1.385 -3.354,1.385c-1.349,-0 -2.485,-0.462 -3.408,-1.385c-0.923,-0.923 -1.385,-2.059 -1.385,-3.407c0,-1.314 0.462,-2.432 1.385,-3.355c0.923,-0.923 2.059,-1.384 3.408,-1.384c1.313,-0 2.431,0.461 3.354,1.384c0.923,0.923 1.384,2.041 1.384,3.355Zm-0.532,37.591l-8.413,0l0,-30.244l8.413,0l-0,30.244Z" style="fill-rule:nonzero;"/></g><g><rect id="path169812" serif:id="path1698" x="175.824" y="287.231" width="35.981" height="60.472" style="fill:#fff;"/><path d="M207.246,332.585l-8.683,0l-0,-19.808c-0,-1.411 -0.371,-2.497 -1.113,-3.256c-0.741,-0.76 -1.8,-1.14 -3.175,-1.14c-1.555,-0 -2.831,0.452 -3.826,1.357c-0.995,0.904 -1.492,2.207 -1.492,3.907l-0,18.94l-8.575,0l0,-42.33l8.575,-0l0.017,13.187c0.942,-0.796 2.057,-1.411 3.344,-1.845c1.288,-0.434 2.547,-0.651 3.78,-0.651c1.777,-0 3.363,0.271 4.759,0.814c1.395,0.543 2.564,1.293 3.507,2.252c0.942,0.959 1.658,2.099 2.148,3.419c0.489,1.321 0.734,2.777 0.734,4.369l0,20.785Z" style="fill-rule:nonzero;"/></g><g><rect id="path169813" serif:id="path1698" x="110.211" y="287.231" width="32.353" height="60.472" style="fill:#fff;"/><path d="M141.302,302.308l-10.227,30.236l-9.375,-0l-10.228,-30.236l8.843,-0l6.072,18.525l6.02,-18.525l8.895,-0Z" style="fill-rule:nonzero;"/></g><g><rect id="path169814" serif:id="path1698" x="313.096" y="287.231" width="30.236" height="60.472" style="fill:#fff;"/><path d="M340.695,323.431c0,1.339 -0.259,2.57 -0.778,3.692c-0.519,1.121 -1.298,2.092 -2.336,2.913c-1.038,0.82 -2.318,1.456 -3.842,1.908c-1.523,0.452 -3.29,0.678 -5.299,0.678c-2.545,0 -4.855,-0.376 -6.931,-1.13c-2.076,-0.753 -4.001,-1.867 -5.776,-3.34l4.52,-5.223c1.407,1.172 2.846,1.95 4.32,2.335c1.473,0.385 2.745,0.578 3.817,0.578c1.507,-0 2.545,-0.218 3.114,-0.653c0.569,-0.435 0.854,-0.971 0.854,-1.607c-0,-0.369 -0.26,-0.762 -0.779,-1.181c-0.519,-0.418 -1.381,-0.761 -2.586,-1.029l-4.973,-1.206c-0.937,-0.201 -1.866,-0.519 -2.787,-0.954c-0.921,-0.435 -1.75,-0.988 -2.486,-1.658c-0.737,-0.669 -1.331,-1.473 -1.784,-2.41c-0.452,-0.938 -0.678,-2.026 -0.678,-3.265c0,-1.373 0.293,-2.637 0.879,-3.792c0.586,-1.155 1.415,-2.16 2.487,-3.014c1.071,-0.854 2.335,-1.515 3.792,-1.984c1.456,-0.469 3.072,-0.703 4.847,-0.703c2.611,0 4.88,0.352 6.805,1.055c1.926,0.703 3.608,1.674 5.048,2.913l-4.52,5.224c-1.072,-0.838 -2.169,-1.457 -3.29,-1.859c-1.122,-0.402 -2.336,-0.603 -3.642,-0.603c-1.406,0 -2.444,0.26 -3.114,0.779c-0.669,0.519 -1.004,1.08 -1.004,1.683c-0,0.1 0.017,0.234 0.05,0.401c0.033,0.168 0.142,0.344 0.326,0.528c0.185,0.184 0.444,0.368 0.779,0.552c0.335,0.184 0.804,0.343 1.406,0.477l5.224,1.256c1.038,0.268 2.051,0.603 3.039,1.005c0.987,0.401 1.875,0.937 2.662,1.607c0.786,0.669 1.423,1.49 1.908,2.461c0.486,0.971 0.728,2.16 0.728,3.566Z" style="fill-rule:nonzero;"/></g><g><rect id="path169815" serif:id="path1698" x="142.564" y="287.231" width="33.26" height="60.472" style="fill:#fff;"/><path d="M173.055,318.727l-0.1,1.26l-19.503,-0c0.034,0.806 0.235,1.554 0.605,2.242c0.37,0.689 0.857,1.294 1.461,1.815c0.605,0.52 1.302,0.923 2.092,1.209c0.789,0.286 1.621,0.428 2.494,0.428c2.52,0 4.687,-0.84 6.501,-2.519l4.233,5.19c-1.445,1.378 -3.032,2.428 -4.762,3.15c-1.73,0.722 -3.704,1.083 -5.921,1.083c-2.386,0 -4.502,-0.394 -6.35,-1.184c-1.848,-0.789 -3.402,-1.881 -4.661,-3.276c-1.26,-1.394 -2.218,-3.015 -2.873,-4.863c-0.655,-1.847 -0.983,-3.829 -0.983,-5.946c0,-2.049 0.311,-3.989 0.933,-5.82c0.621,-1.831 1.52,-3.419 2.696,-4.763c1.176,-1.343 2.637,-2.41 4.384,-3.2c1.747,-0.789 3.729,-1.184 5.946,-1.184c2.453,0 4.586,0.437 6.4,1.31c1.815,0.874 3.293,2.05 4.435,3.528c1.142,1.478 1.957,3.217 2.444,5.216c0.487,1.999 0.664,4.107 0.529,6.324Zm-7.911,-4.384c-0,-1.546 -0.563,-2.814 -1.689,-3.805c-1.125,-0.991 -2.511,-1.487 -4.157,-1.487c-1.579,0 -2.889,0.53 -3.931,1.588c-1.041,1.058 -1.646,2.293 -1.814,3.704l11.591,-0Z" style="fill-rule:nonzero;"/></g><g><rect id="path169816" serif:id="path1698" x="279.836" y="287.231" width="33.26" height="60.472" style="fill:#fff;"/><path d="M310.328,318.727l-0.101,1.26l-19.502,-0c0.033,0.806 0.235,1.554 0.604,2.242c0.37,0.689 0.857,1.294 1.462,1.815c0.605,0.52 1.302,0.923 2.091,1.209c0.79,0.286 1.621,0.428 2.495,0.428c2.519,0 4.686,-0.84 6.5,-2.519l4.233,5.19c-1.444,1.378 -3.032,2.428 -4.762,3.15c-1.73,0.722 -3.704,1.083 -5.921,1.083c-2.385,0 -4.502,-0.394 -6.35,-1.184c-1.847,-0.789 -3.401,-1.881 -4.661,-3.276c-1.26,-1.394 -2.217,-3.015 -2.872,-4.863c-0.656,-1.847 -0.983,-3.829 -0.983,-5.946c-0,-2.049 0.311,-3.989 0.932,-5.82c0.622,-1.831 1.52,-3.419 2.696,-4.763c1.176,-1.343 2.638,-2.41 4.384,-3.2c1.747,-0.789 3.73,-1.184 5.947,-1.184c2.452,0 4.586,0.437 6.4,1.31c1.814,0.874 3.292,2.05 4.435,3.528c1.142,1.478 1.957,3.217 2.444,5.216c0.487,1.999 0.663,4.107 0.529,6.324Zm-7.912,-4.384c0,-1.546 -0.563,-2.814 -1.688,-3.805c-1.126,-0.991 -2.511,-1.487 -4.158,-1.487c-1.579,0 -2.889,0.53 -3.93,1.588c-1.042,1.058 -1.647,2.293 -1.815,3.704l11.591,-0Z" style="fill-rule:nonzero;"/></g><g><rect id="path169817" serif:id="path1698" x="228.435" y="287.231" width="32.353" height="60.472" style="fill:#fff;"/><path d="M257.971,310.636l-6.579,3.165c-1.239,-3.014 -3.198,-4.521 -5.877,-4.521c-1.038,0 -1.942,0.235 -2.712,0.703c-0.77,0.469 -1.415,1.089 -1.934,1.859c-0.519,0.77 -0.912,1.657 -1.18,2.662c-0.268,1.004 -0.402,2.026 -0.402,3.064c0,1.071 0.142,2.092 0.427,3.063c0.285,0.972 0.703,1.825 1.256,2.562c0.552,0.737 1.222,1.331 2.009,1.783c0.787,0.452 1.682,0.678 2.687,0.678c1.272,0 2.386,-0.351 3.34,-1.055c0.954,-0.703 1.783,-1.858 2.486,-3.465l6.479,3.214c-1.172,2.478 -2.812,4.47 -4.922,5.977c-2.109,1.507 -4.571,2.26 -7.383,2.26c-2.378,0 -4.468,-0.393 -6.27,-1.18c-1.803,-0.787 -3.303,-1.867 -4.501,-3.24c-1.199,-1.372 -2.105,-2.971 -2.721,-4.796c-0.615,-1.825 -0.923,-3.792 -0.923,-5.902c-0,-1.875 0.283,-3.717 0.848,-5.525c0.566,-1.808 1.431,-3.423 2.596,-4.847c1.165,-1.423 2.632,-2.569 4.4,-3.44c1.769,-0.871 3.875,-1.306 6.32,-1.306c2.913,0 5.474,0.762 7.684,2.285c2.21,1.524 3.834,3.525 4.872,6.002Z" style="fill-rule:nonzero;"/></g><g><rect id="path169818" serif:id="path1698" x="260.787" y="287.231" width="19.049" height="60.472" style="fill:#fff;"/><path d="M279.08,331.682c-0.92,0.284 -1.894,0.505 -2.921,0.664c-1.027,0.16 -2.036,0.239 -3.027,0.239c-1.594,0 -2.966,-0.212 -4.117,-0.637c-1.15,-0.425 -2.089,-1.027 -2.814,-1.806c-0.726,-0.779 -1.257,-1.726 -1.594,-2.841c-0.336,-1.116 -0.504,-2.346 -0.504,-3.692l-0,-33.354l8.338,-0l0,31.973c0,1.842 0.868,2.762 2.603,2.762c0.531,0 1.044,-0.044 1.54,-0.133c0.496,-0.088 1.045,-0.239 1.647,-0.451l0.849,7.276Z" style="fill-rule:nonzero;"/></g></g><g><g><rect id="path169819" serif:id="path1698" x="234.784" y="105.814" width="34.772" height="60.472" style="fill:#fff;"/><path d="M266.535,136.401c-0,2.11 -0.335,4.069 -1.005,5.877c-0.669,1.808 -1.624,3.365 -2.863,4.671c-1.239,1.306 -2.745,2.336 -4.52,3.089c-1.775,0.753 -3.75,1.13 -5.927,1.13c-2.176,-0 -4.152,-0.368 -5.926,-1.105c-1.775,-0.737 -3.29,-1.766 -4.546,-3.089c-1.256,-1.323 -2.227,-2.888 -2.913,-4.696c-0.686,-1.808 -1.03,-3.767 -1.03,-5.877c0,-2.176 0.31,-4.21 0.93,-6.102c0.619,-1.892 1.54,-3.533 2.762,-4.922c1.222,-1.39 2.729,-2.478 4.52,-3.265c1.792,-0.787 3.859,-1.18 6.203,-1.18c2.311,-0 4.362,0.402 6.153,1.205c1.791,0.804 3.29,1.9 4.495,3.29c1.206,1.39 2.118,3.03 2.738,4.922c0.619,1.892 0.929,3.909 0.929,6.052Zm-7.886,0c0,-1.171 -0.159,-2.268 -0.477,-3.289c-0.318,-1.022 -0.753,-1.917 -1.306,-2.687c-0.552,-0.771 -1.23,-1.382 -2.034,-1.834c-0.804,-0.452 -1.674,-0.678 -2.612,-0.678c-0.971,0 -1.858,0.226 -2.662,0.678c-0.803,0.452 -1.49,1.063 -2.059,1.834c-0.569,0.77 -1.004,1.665 -1.306,2.687c-0.301,1.021 -0.452,2.118 -0.452,3.289c0,2.311 0.586,4.186 1.758,5.626c1.172,1.44 2.746,2.16 4.721,2.16c1.942,-0 3.499,-0.72 4.671,-2.16c1.172,-1.44 1.758,-3.315 1.758,-5.626Z" style="fill-rule:nonzero;"/></g><g><rect x="183.987" y="105.814" width="50.797" height="60.472" style="fill:#fff;"/><path d="M228.471,151.168l-9.275,-0l-19.993,-27.732l0,27.732l-8.902,-0l-0,-42.331l9.292,0l19.975,27.787l0,-27.787l8.903,0l-0,42.331Z" style="fill-rule:nonzero;"/></g></g></g></svg>