<?xml version="1.0" encoding="UTF-8" standalone="no"?><!DOCTYPE svg PUBLIC "-//W3C//DTD SVG 1.1//EN" "http://www.w3.org/Graphics/SVG/1.1/DTD/svg11.dtd"><svg width="100%" height="100%" viewBox="0 0 454 454" version="1.1" xmlns="http://www.w3.org/2000/svg" xmlns:xlink="http://www.w3.org/1999/xlink" xml:space="preserve" xmlns:serif="http://www.serif.com/" style="fill-rule:evenodd;clip-rule:evenodd;stroke-linejoin:round;stroke-miterlimit:2;"><g transform="matrix(50,0,0,50,321.022,244.423)"></g><text x="133.4px" y="244.423px" style="font-family:'ArialMT', 'Arial', sans-serif;font-size:50px;">sw=38.4</text><g id="_622.5-No-Horse-Drawn-Vehicles" serif:id="622.5 No Horse Drawn Vehicles"><circle cx="226.772" cy="226.772" r="226.772" style="fill:#e31837;"/><circle cx="226.772" cy="226.772" r="181.417" style="fill:#fff;"/><path d="M103.003,316.249l-0.948,-0.677l-0.846,-0.779l-0.778,-0.846l-0.677,-0.947l-0.542,-0.982l-0.474,-1.083l-0.338,-1.083l-0.237,-1.118l-0.541,0l-0.508,-0.135l-0.474,-0.203l-0.44,-0.338l-0.338,-0.406l-0.237,-0.509l-0.102,-0.507l0,-1.896l-0.135,-1.861l-0.339,-2.708l-0.44,-2.674l-0.575,-2.641l-0.677,-2.64l-0.813,-2.572l-0.947,-2.539l-1.049,-2.505l-1.151,-2.471l-0.305,-0.812l-0.169,-0.88l0,-0.88l0.169,-0.847l0.339,-0.846l0.271,-0.677l0.135,-0.71l0.034,-0.711l-0.135,-0.745l-0.102,-0.711l-0,-0.711l0.102,-0.744l0.27,-0.678l0.339,-0.642l0.474,-0.542l0.711,-0.812l0.609,-0.846l0.507,-0.915l0.44,-0.981l0.305,-1.016l0.947,-4.061l0.813,-4.096l0.677,-4.13l0.507,-4.129l-1.049,-1.727l-0.948,-1.794l-0.812,-1.861l-0.711,-1.896l-0.575,-1.929l-0.474,-1.997l-0.338,-1.997l-0.203,-1.997l-0.068,-2.031l0.034,-2.031l0.203,-2.031l0.305,-1.997l0.44,-1.964l0.507,-2.403l0.406,-2.437l0.271,-2.437l0.135,-2.471l-0.034,-2.437l-0.135,-2.471l-0.305,-2.437l-0.44,-2.403l-0.541,-2.404l-0.71,-2.335l-1.388,0.914l-1.523,0.778l-1.557,0.643l-1.625,0.474l-1.658,0.339l-1.659,0.203l-1.692,-0l-0.507,0.068l-0.44,0.135l-0.407,0.271l-1.15,1.083l-1.05,1.184l-0.914,1.287l-0.474,0.609l-0.541,0.542l-0.643,0.473l-0.677,0.373l-0.71,0.237l-0.779,0.135l-1.083,0.068l-1.083,-0.068l-1.083,-0.203l-0.778,-0.135l-0.813,-0.034l-0.778,0.135l-0.982,0.169l-0.981,0l-0.982,-0.101l-0.677,-0.237l-0.575,-0.372l-0.542,-0.44l-0.406,-0.542l-0.338,-0.575l-0.203,-0.609l-0.102,-0.678l0,-0.677l0.034,-1.083l-0.068,-1.117l0.034,-0.778l0.203,-0.779l0.305,-0.711l0.44,-0.677l0.575,-0.541l2.437,-2.268l2.369,-2.369l2.234,-2.438l2.132,-2.572l2.031,-2.64l1.895,-2.742l0.542,-0.948l0.406,-1.083l0.372,-1.049l0.474,-0.982l0.609,-0.947l0.711,-0.847l0.813,-0.778l0.88,-0.678l0.981,-0.541l0.981,-0.575l0.914,-0.711l0.813,-0.846l0.676,-0.914l0.813,-1.118l0.88,-1.015l1.015,-0.914l1.083,-0.812l1.185,-0.711l-0.373,-2.336l-0.203,-2.369l-0.067,-2.369l0.135,-2.37l1.862,2.437l1.996,2.336l2.065,2.268l1.049,1.015l1.185,0.914l1.252,0.779l1.32,0.677l1.861,0.88l1.828,0.981l1.726,1.117l1.692,1.185l1.625,1.32l1.523,1.388l1.421,1.489l1.354,1.591l2.539,2.675l2.47,2.775l2.37,2.843l2.267,2.945l2.166,2.978l2.065,3.081l1.049,1.489l1.185,1.422l1.252,1.286l1.354,1.219l1.455,1.117l1.557,0.982l1.591,0.845l1.692,0.745l1.727,0.61l1.759,0.439l1.794,0.339l1.794,0.203l1.827,0.034l3.825,-0.101l3.791,-0.238l3.791,-0.372l3.756,-0.474l3.757,-0.575l3.723,-0.711l3.723,-0.846l1.726,-0.542l1.76,-0.406l1.794,-0.237l1.794,-0.135l1.793,-0l1.794,0.169l1.794,0.271l1.76,0.406l1.726,0.576l1.659,0.676l1.624,0.813l3.249,-1.422l3.148,-1.557l0.846,-0.44l0.88,-0.339l0.914,-0.237l0.948,-0.067l0.947,0.034l0.948,0.203l0.88,0.305l0.846,0.406l0.778,0.541l0.711,0.644l0.609,0.744l0.474,0.812l0.406,0.847l1.524,3.689l1.387,3.723l1.286,3.758l1.151,3.791l1.083,3.825l0.914,3.858l0.812,3.893l0.677,3.927l0.575,3.926l0.44,3.96l0.339,3.961l14.114,1.794l-0,-3.893l-1.727,0.237l-1.726,0.135l-1.726,-0.034l-1.726,-0.203l-1.726,-0.304l-0.508,-0.203l-0.508,-0.271l-0.372,-0.406l-0.304,-0.474l-0.203,-0.542l-0.068,-0.542l0.034,-0.575l0.169,-0.541l0.305,-0.474l0.372,-0.406l0.473,-0.339l0.542,-0.203l0.542,-0.068l0.575,-0.067l0.542,-0.203l0.507,-0.272l0.44,-0.372l0.339,-0.473l0.271,-0.508l0.169,-0.542l0.068,-0.575l-0,-22.002l0.033,-1.016l0.203,-1.015l0.305,-1.015l0.406,-0.914l0.541,-0.914l0.643,-0.813l0.745,-0.744l0.812,-0.643l1.591,-1.185l1.49,-1.32l1.387,-1.456l1.286,-1.523l1.185,-1.625l1.015,-1.692l0.914,-1.794l0.778,-1.862l0.609,-1.895l-2.707,1.286l-2.809,1.151l-2.843,0.981l-2.911,0.847l-2.944,0.677l-2.979,0.507l-0.474,0.169l-0.575,0.102l-0.609,-0.034l-0.575,-0.169l-0.508,-0.237l-0.474,-0.338l-0.406,-0.44l-0.305,-0.508l-0.203,-0.576l-0.101,-0.575l0.033,-0.88l0.136,-0.846l0.237,-0.813l0.271,-0.474l0.338,-0.372l0.44,-0.27l0.508,-0.17l0.508,-0.034l1.861,0.136l4.907,-1.286l4.807,-1.524l0.609,-0.27l0.541,-0.373l0.44,-0.508l0.338,-0.575l0.203,-0.643l0.068,-0.643l0,-8.26l0.136,-1.489l0.27,-1.489l0.407,-1.489l0.541,-1.422l0.643,-1.354l0.745,-1.32l0.88,-1.253l0.981,-1.15l1.083,-1.084l0.136,-0.203l0.067,-0.27l-0.067,-0.271l-0.17,-0.204l-0.846,-0.744l-0.778,-0.847l-0.643,-0.913l-0.542,-0.982l-0.406,-1.049l-0.304,-1.083l-0.136,-1.118l-0.034,-1.116l0.102,-1.117l0.271,-1.118l0.372,-1.049l0.474,-1.015l0.609,-0.948l0.744,-0.846l0.813,-0.778l0.914,-0.678l0.981,-0.541l1.016,-0.44l1.083,-0.305l1.116,-0.169l1.151,-0.068l1.117,0.102l1.083,0.237l1.083,0.338l1.016,0.474l0.947,0.609l0.88,0.711l0.779,0.812l0.71,0.881l0.576,0.981l0.44,1.016l0.338,1.083l0.17,1.117l0.067,1.117l-0.067,1.117l-0.203,1.117l-0.339,1.049l-0.44,1.05l-0.575,0.947l-0.711,0.914l-0.237,0.373l-0.102,0.439l0.034,0.44l0.169,0.407l0.271,0.372l1.693,1.557l1.591,1.659l1.488,1.726l1.388,1.828l1.286,1.895l1.185,1.964l1.083,2.03l0.947,2.099l0.846,2.133l0.745,2.2l0.575,2.2l0.102,0.576l-0.034,0.541l-0.136,0.542l-0.202,0.507l-0.305,0.474l-0.406,0.406l-0.948,0.711l-1.016,0.643l-1.048,0.508l-1.117,0.406l-0.44,0.203l-0.338,0.305l-0.305,0.372l-0.17,0.441l-0.068,0.473l0,2.302l0.102,2.336l0.271,2.301l0.407,2.268l0.168,0.542l0.272,0.474l0.406,0.406l0.44,0.338l1.15,0.542l1.184,0.44l1.219,0.304l1.252,0.204l1.253,0.067l1.251,-0.067l1.253,-0.17l1.218,-0.304l1.219,-0.44l1.117,-0.542l1.083,-0.643l1.015,-0.744l0.948,-0.847l0.846,-0.947l0.745,-0.982l0.677,-1.117l1.253,-2.2l1.352,-2.099l1.49,-2.065l1.591,-1.963l1.693,-1.896l1.793,-1.76l1.895,-1.692l1.997,-1.557l2.065,-1.49l2.132,-1.32l2.2,-1.252l2.302,-1.083l2.335,-0.982l2.368,-0.88l2.437,-0.711l2.471,-0.575l2.471,-0.474l2.505,-0.305l2.538,-0.169l2.538,-0.034l2.538,0.102l2.506,0.237l2.505,0.372l2.47,0.508l2.471,0.643l2.403,0.778l2.335,0.914l2.335,1.016l2.234,1.184l2.2,1.287l2.098,1.388l2.031,1.523l1.93,1.624l1.861,1.727l1.76,1.828l1.658,1.895l1.524,1.997l1.454,2.099l1.321,2.166l1.184,2.234l1.05,1.963l1.184,1.896l1.285,1.828l1.388,1.76l1.49,1.658l1.591,1.591l1.658,1.49l1.76,1.388l1.828,1.252l1.895,1.184l1.963,1.05l2.031,0.948l2.064,0.846l2.133,0.677l2.166,0.576l2.166,0.473l2.234,0.305l-13.471,44.41l-8.665,-0l-1.522,-1.422l-1.625,-1.354l-1.726,-1.219l-1.76,-1.116l-1.861,-0.982l-1.896,-0.846l-1.963,-0.745l-1.997,-0.609l-2.065,-0.475l-2.064,-0.338l-2.065,-0.237l-2.098,-0.067l-2.099,0.067l-2.098,0.237l-2.064,0.338l-2.031,0.475l-1.997,0.609l-1.963,0.745l-1.929,0.846l-1.828,0.982l-1.794,1.116l-1.691,1.219l-1.625,1.354l-1.523,1.422l-37.874,-0l-1.523,-1.422l-1.625,-1.354l-1.692,-1.219l-1.793,-1.116l-1.828,-0.982l-1.929,-0.846l-1.963,-0.745l-1.997,-0.609l-2.031,-0.475l-2.064,-0.338l-2.098,-0.237l-2.099,-0.067l-2.098,0.067l-2.065,0.237l-2.065,0.338l-2.064,0.475l-1.997,0.609l-1.963,0.745l-1.895,0.846l-1.862,0.982l-1.76,1.116l-1.726,1.219l-1.624,1.354l-1.523,1.422l-9.578,-0l-0,-9.647l-13.742,-1.76l0.034,1.117l-0.068,1.116l-0.169,1.084l-0.271,1.083l-0.271,0.643l-0.338,0.575l-0.44,0.508l-0.541,0.44l-0.609,0.305l-0.61,0.237l-0.677,0.101l-0.677,0l-0.677,-0.135l-0.643,-0.237l-0.575,-0.338l-0.508,-0.44l-1.252,-1.354l-1.117,-1.422l-1.015,-1.523l-0.88,-1.625l-0.745,-1.659l-12.252,-1.557l-0.305,0.914l-0.203,0.948l-0.101,0.948l0.068,0.947l0.169,0.948l0.338,0.914l0.406,0.88l0.576,0.779l1.523,2.132l1.659,2.031l1.725,1.963l1.794,1.93l1.896,1.794l0.541,0.609l0.407,0.677l0.27,0.744l0.169,0.779l0,0.812l-0.135,0.779l-0.677,2.742l-0.575,2.775l-0.406,2.81l-0.339,2.81l-0.169,2.809l-0.068,2.843l0.034,2.844l0.203,2.809l0.305,2.843l0.406,2.776l0.034,0.338l-0.068,0.305l-0.169,0.271l-0.237,0.203l-0.609,0.508l-0.508,0.609l-0.44,0.677l-0.305,0.711l-0.203,0.778l-0.068,0.779l0.034,0.812l0.17,0.779l0.27,0.744l-2.098,0.881l-2.132,0.778l-2.2,0.643l-2.234,0.474l-2.268,0.338l0.237,-1.32l0.373,-1.286l0.474,-1.218l0.575,-1.185l0.676,-1.151l0.779,-1.049l0.305,-0.475l0.203,-0.507l0.101,-0.542l0,-0.541l-0.135,-0.542l-0.237,-0.914l-0.102,-0.914l0.068,-0.913l0.745,-5.349l0.575,-5.382l0.44,-5.382l0.237,-5.415l-0.034,-1.016l-0.135,-0.982l-0.305,-0.981l-0.406,-0.914l-0.508,-0.88l-0.609,-0.813l-0.745,-0.71l-0.811,-0.609l-2.471,-1.761l-2.404,-1.828l-2.335,-1.963l-2.234,-2.065l-2.132,-2.166l-2.064,-2.268l-1.93,-2.335l0.982,2.301l1.083,2.235l1.219,2.2l1.353,2.132l1.422,2.031l1.557,1.963l1.624,1.896l0.305,0.406l0.203,0.44l0.102,0.508l-0,0.474l-0.102,0.507l-0.203,0.44l-0.305,0.407l-1.827,2.064l-1.727,2.133l-1.624,2.234l-1.489,2.335l-1.354,2.403l-1.219,2.472l-1.117,2.504l-0.947,2.607l-0.812,2.606l-0.068,0.407l-0.203,0.338l-0.271,0.237l-0.372,0.169l-0.237,0.135l-0.136,0.237l-0.169,1.76l-0.034,1.794l0.102,1.76l-1.049,0.982l-1.151,0.881l-1.219,0.812l-1.285,0.71l-1.321,0.576l-1.387,0.474l-1.388,0.372l0.034,-1.422l0.135,-1.421l0.237,-1.388l0.372,-1.388l0.474,-1.354l0.542,-1.286l0.677,-1.286l0.068,-0.237l-0,-0.237l-0.102,-0.237l-0.372,-0.575l-0.271,-0.609l-0.136,-0.678l-0.033,-0.677l0.067,-0.677l0.237,-0.677l0.305,-0.609l3.012,-4.772l2.877,-4.909l0.338,-0.711l0.271,-0.71l0.508,-1.693l0.643,-1.625l0.779,-1.557l0.879,-1.489l1.016,-1.422l0.203,-0.338l0.101,-0.372l0,-0.406l-0.067,-0.373l-0.17,-0.372l-0.271,-0.271l-6.024,-5.788l-5.889,-5.924l-0.745,-0.846l-0.676,-0.948l-0.576,-0.982l-0.507,-1.082l-0.373,-1.084l-0.203,-0.473l-0.304,-0.44l-0.407,-0.373l-0.473,-0.237l-0.508,-0.169l-0.508,-0.034l-0.541,0.102l-3.554,0.914l-3.588,0.744l-3.621,0.609l-3.621,0.474l-3.656,0.305l-3.689,0.169l-3.655,0.034l-3.69,-0.135l-0.473,0.067l-0.441,0.237l-0.338,0.339l-0.203,0.474l-0.88,3.249l-1.049,3.216l-1.185,3.181l-1.32,3.115l-1.455,3.046l-0.406,0.914l-0.271,0.948l-0.169,0.982l-0.034,0.981l0.407,18.109l0.1,0.982l0.204,0.947l0.338,0.948l0.474,0.846l0.575,0.813l0.237,0.406l0.102,0.44l-0.034,0.474l-0.203,0.406l-0.474,0.778l-0.338,0.847l-0.204,0.914l-0.101,0.914l0.034,0.913l0.135,0.881l0.305,0.879l0.372,0.813l0.508,0.778l-1.693,0.779l-1.759,0.677l-1.794,0.576l-1.862,0.44l-1.861,0.304l-1.862,0.203l0,-1.184l0.17,-1.219l0.27,-1.151l0.441,-1.117l0.541,-1.083l0.677,-0.982l0.812,-0.913l0.88,-0.813l-0.576,-0.508l-0.507,-0.609l-0.372,-0.677l-0.237,-0.744l-0.135,-0.745l0.034,-0.779l0.135,-0.778l0.271,-0.711l-0,-3.317l-0.136,-3.351l-0.27,-3.317l-0.407,-3.284l-0.541,-3.283l-0.677,-3.25l-0.813,-3.249l-0.846,-2.742l-0.778,-2.742l-0.677,-2.809l-0.541,-2.809l-2.471,1.929l-2.539,1.862l-2.572,1.76l-2.674,1.658l-0.203,0.203l-0.068,0.271l0,21.257l0.034,0.373l0.169,0.338l0.237,0.304l0.305,0.204l1.151,0.677l1.015,0.744l0.203,0.237l0.102,0.271l-0,0.305l-0.102,0.677l0.034,0.677l0.136,0.643l0.304,0.609l0.373,0.576l0.474,0.44l1.217,0.914l1.253,0.812l-0.914,2.2l-0.812,2.234l-0.711,2.302l-0.575,2.301l-0.474,2.167Zm102.28,-105.676l-0.405,-0.711l-0.542,-0.677l-0.609,-0.575l-0.711,-0.474l-0.745,-0.406l-0.812,-0.271l-0.812,-0.135l-0.847,-0.034l-0.845,0.067l-0.846,0.203l-0.779,0.305l-0.745,0.406l-0.643,0.542l-0.609,0.609l1.286,1.557l1.185,1.659l1.083,1.692l0.981,1.794l0.88,1.828l0.745,1.895l0.609,1.93l0.508,1.963l0.372,1.997l0.271,2.031l0.135,2.031l0,2.031l-0.101,1.997l-0.271,2.031l-0.372,1.997l-0.474,1.963l-0.609,1.929l-0.745,1.896l-0.846,1.862l-0.948,1.794l7.886,0.981l1.286,-12.964l0.203,-2.775l0.068,-2.776l-0.034,-2.809l-0.203,-2.776l-0.304,-2.776l-0.474,-2.741l-0.576,-2.742l-0.711,-2.674l-0.88,-2.674Zm168.584,81.305l-0.067,1.827l-0.204,1.828l-0.339,1.794l-0.439,1.76l-0.575,1.727l-0.711,1.693l-0.813,1.624l-0.914,1.591l-1.048,1.489l-1.152,1.422l-1.252,1.354l-1.319,1.219l-1.422,1.15l-1.49,1.05l-1.59,0.948l-1.625,0.812l-1.692,0.676l-1.726,0.576l-1.76,0.474l-1.827,0.305l-1.794,0.203l-1.828,0.067l-1.827,-0.067l-1.829,-0.203l-1.794,-0.305l-1.759,-0.474l-1.726,-0.576l-1.693,-0.676l-1.624,-0.812l-1.59,-0.948l-1.49,-1.05l-1.421,-1.15l-1.354,-1.219l-1.218,-1.354l-1.151,-1.422l-1.05,-1.489l-0.948,-1.591l-0.812,-1.624l-0.677,-1.693l-0.574,-1.727l-0.475,-1.76l-0.304,-1.794l-0.204,-1.828l-0.067,-1.827l0.067,-1.828l0.204,-1.794l0.304,-1.794l0.475,-1.794l0.574,-1.726l0.677,-1.693l0.812,-1.624l0.948,-1.558l1.05,-1.523l1.151,-1.422l1.218,-1.32l1.354,-1.252l1.421,-1.151l1.49,-1.049l1.59,-0.914l1.624,-0.813l1.693,-0.71l1.726,-0.575l1.759,-0.441l1.794,-0.338l1.829,-0.203l1.827,-0.068l1.828,0.068l1.794,0.203l1.827,0.338l1.76,0.441l1.726,0.575l1.692,0.71l1.625,0.813l1.59,0.914l1.49,1.049l1.422,1.151l1.319,1.252l1.252,1.32l1.152,1.422l1.048,1.523l0.914,1.558l0.813,1.624l0.711,1.693l0.575,1.726l0.439,1.794l0.339,1.794l0.204,1.794l0.067,1.828Zm-5.619,-0l-0.067,-1.659l-0.203,-1.625l-0.338,-1.624l-0.474,-1.558l-0.576,-1.557l-0.745,-1.488l-0.845,-1.422l-0.948,-1.32l-1.083,-1.287l-1.151,-1.151l-1.253,-1.083l-1.352,-0.948l-1.422,-0.846l-1.49,-0.745l-1.523,-0.575l-1.59,-0.474l-1.625,-0.339l-1.624,-0.203l-1.659,-0.067l-1.658,0.067l-1.625,0.203l-1.624,0.339l-1.591,0.474l-1.524,0.575l-1.489,0.745l-1.421,0.846l-1.354,0.948l-1.252,1.083l-1.185,1.151l-1.049,1.287l-0.981,1.32l-0.847,1.422l-0.71,1.488l-0.609,1.557l-0.474,1.558l-0.339,1.624l-0.203,1.625l-0.068,1.659l0.068,1.658l0.203,1.625l0.339,1.625l0.474,1.591l0.609,1.523l0.71,1.489l0.847,1.422l0.981,1.354l1.049,1.252l1.185,1.185l1.252,1.05l1.354,0.981l1.421,0.846l1.489,0.711l1.524,0.609l1.591,0.474l1.624,0.339l1.625,0.203l1.658,0.067l1.659,-0.067l1.624,-0.203l1.625,-0.339l1.59,-0.474l1.523,-0.609l1.49,-0.711l1.422,-0.846l1.352,-0.981l1.253,-1.05l1.151,-1.185l1.083,-1.252l0.948,-1.354l0.845,-1.422l0.745,-1.489l0.576,-1.523l0.474,-1.591l0.338,-1.625l0.203,-1.625l0.067,-1.658Zm-13.572,-0l-0.067,0.914l-0.203,0.88l-0.304,0.88l-0.441,0.778l-0.541,0.745l-0.643,0.643l-0.744,0.541l-0.813,0.441l-0.846,0.338l-0.88,0.17l-0.914,0.067l-0.913,-0.067l-0.88,-0.17l-0.881,-0.338l-0.778,-0.441l-0.745,-0.541l-0.643,-0.643l-0.541,-0.745l-0.44,-0.778l-0.306,-0.88l-0.202,-0.88l-0.068,-0.914l0.068,-0.914l0.202,-0.88l0.306,-0.846l0.44,-0.813l0.541,-0.71l0.643,-0.678l0.745,-0.541l0.778,-0.44l0.881,-0.305l0.88,-0.203l0.913,-0.068l0.914,0.068l0.88,0.203l0.846,0.305l0.813,0.44l0.744,0.541l0.643,0.678l0.541,0.71l0.441,0.813l0.304,0.846l0.203,0.88l0.067,0.914Zm-63.967,-0l-0.067,1.827l-0.204,1.828l-0.304,1.794l-0.474,1.76l-0.575,1.727l-0.677,1.693l-0.812,1.624l-0.948,1.591l-1.049,1.489l-1.152,1.422l-1.218,1.354l-1.354,1.219l-1.421,1.15l-1.489,1.05l-1.591,0.948l-1.624,0.812l-1.693,0.676l-1.726,0.576l-1.759,0.474l-1.794,0.305l-1.829,0.203l-1.827,0.067l-1.828,-0.067l-1.794,-0.203l-1.827,-0.305l-1.76,-0.474l-1.726,-0.576l-1.692,-0.676l-1.625,-0.812l-1.59,-0.948l-1.49,-1.05l-1.421,-1.15l-1.32,-1.219l-1.252,-1.354l-1.151,-1.422l-1.049,-1.489l-0.914,-1.591l-0.813,-1.624l-0.711,-1.693l-0.574,-1.727l-0.44,-1.76l-0.339,-1.794l-0.203,-1.828l-0.068,-1.827l0.068,-1.828l0.203,-1.794l0.339,-1.794l0.44,-1.794l0.574,-1.726l0.711,-1.693l0.813,-1.624l0.914,-1.558l1.049,-1.523l1.151,-1.422l1.252,-1.32l1.32,-1.252l1.421,-1.151l1.49,-1.049l1.59,-0.914l1.625,-0.813l1.692,-0.71l1.726,-0.575l1.76,-0.441l1.827,-0.338l1.794,-0.203l1.828,-0.068l1.827,0.068l1.829,0.203l1.794,0.338l1.759,0.441l1.726,0.575l1.693,0.71l1.624,0.813l1.591,0.914l1.489,1.049l1.421,1.151l1.354,1.252l1.218,1.32l1.152,1.422l1.049,1.523l0.948,1.558l0.812,1.624l0.677,1.693l0.575,1.726l0.474,1.794l0.304,1.794l0.204,1.794l0.067,1.828Zm-5.585,-0l-0.067,-1.659l-0.203,-1.625l-0.339,-1.624l-0.473,-1.558l-0.61,-1.557l-0.711,-1.488l-0.846,-1.422l-0.981,-1.32l-1.049,-1.287l-1.185,-1.151l-1.252,-1.083l-1.354,-0.948l-1.421,-0.846l-1.489,-0.745l-1.524,-0.575l-1.591,-0.474l-1.624,-0.339l-1.624,-0.203l-1.659,-0.067l-1.658,0.067l-1.625,0.203l-1.625,0.339l-1.59,0.474l-1.523,0.575l-1.489,0.745l-1.422,0.846l-1.353,0.948l-1.253,1.083l-1.151,1.151l-1.083,1.287l-0.948,1.32l-0.846,1.422l-0.744,1.488l-0.575,1.557l-0.474,1.558l-0.339,1.624l-0.203,1.625l-0.067,1.659l0.067,1.658l0.203,1.625l0.339,1.625l0.474,1.591l0.575,1.523l0.744,1.489l0.846,1.422l0.948,1.354l1.083,1.252l1.151,1.185l1.253,1.05l1.353,0.981l1.422,0.846l1.489,0.711l1.523,0.609l1.59,0.474l1.625,0.339l1.625,0.203l1.658,0.067l1.659,-0.067l1.624,-0.203l1.624,-0.339l1.591,-0.474l1.524,-0.609l1.489,-0.711l1.421,-0.846l1.354,-0.981l1.252,-1.05l1.185,-1.185l1.049,-1.252l0.981,-1.354l0.846,-1.422l0.711,-1.489l0.61,-1.523l0.473,-1.591l0.339,-1.625l0.203,-1.625l0.067,-1.658Zm-13.605,-0l-0.068,0.914l-0.204,0.88l-0.304,0.88l-0.439,0.778l-0.542,0.745l-0.643,0.643l-0.744,0.541l-0.78,0.441l-0.88,0.338l-0.879,0.17l-0.914,0.067l-0.913,-0.067l-0.881,-0.17l-0.846,-0.338l-0.812,-0.441l-0.745,-0.541l-0.643,-0.643l-0.541,-0.745l-0.44,-0.778l-0.305,-0.88l-0.203,-0.88l-0.067,-0.914l0.067,-0.914l0.203,-0.88l0.305,-0.846l0.44,-0.813l0.541,-0.71l0.643,-0.678l0.745,-0.541l0.812,-0.44l0.846,-0.305l0.881,-0.203l0.913,-0.068l0.914,0.068l0.879,0.203l0.88,0.305l0.78,0.44l0.744,0.541l0.643,0.678l0.542,0.71l0.439,0.813l0.304,0.846l0.204,0.88l0.068,0.914Z"/></g></svg>