<?xml version="1.0" encoding="UTF-8" standalone="no"?><!DOCTYPE svg PUBLIC "-//W3C//DTD SVG 1.1//EN" "http://www.w3.org/Graphics/SVG/1.1/DTD/svg11.dtd"><svg width="100%" height="100%" viewBox="0 0 454 454" version="1.1" xmlns="http://www.w3.org/2000/svg" xmlns:xlink="http://www.w3.org/1999/xlink" xml:space="preserve" xmlns:serif="http://www.serif.com/" style="fill-rule:evenodd;clip-rule:evenodd;stroke-linejoin:round;stroke-miterlimit:2;"><g transform="matrix(50,0,0,50,229.189,262.709)"></g><text x="41.567px" y="262.709px" style="font-family:'ArialMT', 'Arial', sans-serif;font-size:50px;">sw=38.4</text><g id="_622.6-No-Ridden-or-Accompanied-Horses" serif:id="622.6 No Ridden or Accompanied Horses"><circle cx="226.772" cy="226.772" r="226.772" style="fill:#e31837;"/><circle cx="226.772" cy="226.772" r="181.417" style="fill:#fff;"/><path d="M72.554,255.012l1.488,0.288l1.488,0.096l1.489,-0.048l1.44,-0.192l1.44,-0.432l1.393,-0.528l1.296,-0.72l1.2,-0.864l1.152,-1.008l0.961,-1.105l0.864,-1.248l1.344,-2.976l1.152,-3.072l0.96,-3.12l0.769,-3.216l0.576,-3.217l0.384,-3.264l0.144,-3.312l0.048,-2.736l0.192,-2.688l0.384,-2.737l0.576,-2.688l0.72,-2.592l0.912,-2.592l1.105,-2.496l1.248,-2.448l1.392,-2.352l1.585,-2.257l1.68,-2.112l1.296,-1.776l1.44,-1.68l1.585,-1.536l1.728,-1.344l1.824,-1.248l1.921,-1.056l2.016,-0.864l2.113,-0.672l2.112,-0.528l3.889,-0.528l3.889,-0.385l3.937,-0.144l3.888,0l3.937,0.24l3.889,0.433l3.553,-1.681l3.648,-1.488l3.697,-1.296l3.745,-1.104l3.793,-0.912l3.889,-0.768l3.888,-0.528l3.889,-0.336l3.937,-0.096l3.889,0.048l3.937,0.24l3.888,0.48l3.841,0.624l3.841,0.864l3.793,1.008l3.697,1.248l3.696,1.392l0.432,0.144l0.48,-0.096l0.433,-0.24l0.288,-0.384l0.144,-0.432l-0.048,-0.48l-0.961,-4.08l-0.816,-4.128l-0.576,-4.129l-0.432,-4.176l-0.192,-4.176l-0.048,-4.176l0.144,-4.177l0.384,-4.176l0.528,-4.128l0.72,-4.128l0.913,-4.081l1.104,-4.032l1.296,-3.984l1.44,-3.936l1.633,-3.841l9.362,-9.408l0.48,-0.336l0.384,-0.432l0.288,-0.576l0.048,-0.576l-0.096,-0.624l-0.24,-0.528l-2.353,-7.777l0,-2.016l-1.776,-0.528l0.768,-8.449l0.192,-1.44l0.432,-1.44l0.576,-1.344l0.769,-1.248l0.912,-1.152l1.056,-1.056l1.2,-0.864l1.296,-0.72l1.345,-0.528l1.44,-0.336l1.488,-0.144l1.441,0.048l1.488,0.24l1.392,0.384l1.344,0.624l1.249,0.768l1.152,0.96l1.008,1.056l0.864,1.2l0.672,1.296l0.529,1.392l1.392,4.849l3.697,2.688l-0.24,0.672l-4.657,-0l-0,7.392l-2.113,3.84l-3.408,2.161l-0.289,0.24l-0.192,0.336l-0.048,0.384l0,1.296l0.048,0.528l0.192,0.528l0.337,0.432l0.384,0.384l2.064,1.392l2.641,3.504l1.248,4.224l1.104,4.321l0.96,4.32l0.72,4.32l0.577,4.369l0.432,4.416l0.24,4.416l0.039,3.6l-0.116,0l0.125,0.816l0.096,0.768l0.336,0.672l0.528,0.577l13.779,11.28l0.864,0.576l1.008,0.384l1.008,0.192l1.057,-0.048l5.761,1.392l0.48,0.24l0.48,0l0.528,-0.096l0.432,-0.288l23.909,-19.777l2.881,-1.872l2.928,-1.776l3.025,-1.584l3.168,-1.392l3.169,-1.2l3.265,-1.056l3.312,-0.864l3.361,-0.673l3.409,-0.48l3.409,-0.24l3.456,-0.096l3.409,0.096l3.409,0.288l3.408,0.48l13.874,-5.376l0.529,-0.096l0.528,0.096l0.433,0.288l0.287,0.432l0.096,0.528l-0.096,0.528l-2.928,3.792l5.28,3.217l-3.936,0.048l-0.528,0.048l-0.48,0.288l-0.385,0.384l-0.239,0.48l-0.048,0.528l0.096,0.528l3.648,10.176l0.433,1.489l0.191,1.584l-0.047,1.536l-0.336,3.888l-0.145,3.888l-0,3.889l0.241,3.888l0.335,3.84l0.576,3.84l0.72,3.841l0.913,3.792l1.057,3.696l0.144,0.768l-0,0.768l-0.144,0.768l-0.289,0.672l-1.105,2.256l-1.007,2.304l-0.865,2.353l-0.287,0.528l-0.385,0.432l-0.528,0.288l-0.576,0.144l-0.576,-0l-1.392,-0.384l-1.296,-0.528l-1.2,-0.72l-1.105,-0.864l-0.961,-1.057l-1.007,1.297l-0.817,1.44l-0.863,-0.624l-0.817,-0.768l-0.721,-0.864l-0.576,-0.961l-0.431,-1.008l-0.289,-1.104l-0.191,-1.104l-0,-1.104l0.335,-5.424l-0.048,-0.672l-0.191,-0.624l-0.385,-0.528l-0.479,-0.432l-0.624,-0.24l-1.729,-0.576l-1.728,-0.72l-1.632,-0.864l-1.537,-1.009l-1.44,-1.152l-1.344,-1.248l-1.249,-1.392l-0.336,-0.288l-0.384,-0.192l-0.384,-0.048l-0.432,0.048l-0.384,0.192l-0.336,0.288l-0.192,0.384l-0.096,0.432l-0.432,3.456l-0.624,3.409l-0.768,3.36l-1.009,3.36l-1.152,3.264l-1.392,3.169l-1.536,3.12l-1.729,3.024l-1.872,2.928l-2.065,2.784l-0.336,0.624l-0.24,0.672l-0.048,0.672l0,3.313l-0.192,3.264l-0.336,3.264l-0.528,3.264l-0.672,3.216l-0.864,3.169l-1.057,3.168l-0.24,0.912l-0.048,0.96l0.144,0.96l0.289,0.912l0.432,0.816l0.624,0.768l21.892,22.658l4.945,8.976l0.864,5.377l2.304,5.328l2.449,5.232l2.689,5.137l2.881,5.04l0.576,1.2l0.384,1.296l0.144,1.344l-0.096,1.344l-0.625,3.216l-0.816,3.169l-1.008,3.072l-1.249,3.024l-1.391,2.928l-1.585,2.832l-1.777,2.737l-1.151,0.144l-1.585,-1.632l-1.392,-1.777l-1.248,-1.872l-1.056,-1.968l-0.816,-2.112l-0.625,-2.16l-0.432,-2.208l5.906,-4.369l0.384,-0.288l0.24,-0.48l0.048,-0.528l-0.144,-0.48l-0.769,-1.2l-0.816,-1.104l-0.96,-1.056l-0.336,-0.768l-0.432,-2.976l-0.624,-2.976l-0.816,-2.928l-1.009,-2.881l-1.2,-2.784l-1.392,-2.688l-1.584,-2.64l-1.729,-2.448l-4.801,-4.945l-4.945,-4.752l-5.041,-4.656l-5.185,-4.513l-5.281,-4.368l-5.425,-4.224l-0.528,-0.336l-0.576,-0.144l-0.624,-0.048l-0.625,0.096l-0.576,0.288l-0.48,0.384l-1.344,1.488l-1.248,1.632l-1.057,1.728l-0.912,1.776l-0.768,1.92l-0.576,1.921l-0.384,2.016l-0.192,2.016l-0.048,2.016l-3.649,7.776l-5.617,8.017l-8.882,14.977l-0.48,1.008l-0.336,1.056l-0.192,1.104l-0.048,1.104l0.096,4.128l0.048,1.633l0.288,1.68l0.384,1.584l0.624,1.536l0.768,1.488l0.913,1.392l6.145,9.889l-0.624,1.776l-1.873,0.768l-1.968,0.576l-1.968,0.48l-2.017,0.24l-2.016,0.096l-2.017,-0.048l-2.016,-0.24l-2.017,-0.384l-1.92,-0.576l-1.92,-0.72l3.648,-5.617l0.336,-0.864l0.145,-0.912l-0.097,-0.912l-0.24,-0.864l-0.48,-0.768l-0.624,-0.672l-0.72,-0.48l-0.864,-0.336l-2.353,-3.792l4.897,-9.073l0.577,-2.016l0.432,-2.112l0.24,-2.064l-0,-5.184l0.192,-3.073l0.384,-3.024l0.528,-3.024l0.768,-2.976l0.912,-2.928l1.104,-2.833l1.297,-2.784l1.44,-2.736l1.584,-2.592l1.777,-2.496l-0.48,-2.88l-0.288,-2.881l-0.144,-2.88l-0,-2.88l0.144,-2.88l0.336,-2.88l-4.513,1.344l-4.513,1.152l-4.609,1.008l-4.609,0.816l-4.657,0.624l-4.657,0.432l-4.657,0.288l-4.705,0.096l-4.657,-0.096l-4.705,-0.288l-4.657,-0.432l-4.657,-0.624l-4.609,-0.816l-4.561,-1.008l-4.561,-1.152l-4.465,-1.344l-4.464,-1.488l-4.369,-1.681l-4.273,-1.872l-0.48,-0.096l-0.48,0.048l-0.433,0.24l-0.288,0.384l-4.945,5.185l-0.48,0.384l-0.384,0.48l-0.24,0.576l-0.144,0.576l0,0.624l-4.897,21.457l-0.432,0.864l-0.288,0.912l-0.048,0.96l0.096,0.912l3.505,24.002l0.192,1.2l0.384,1.152l0.528,1.056l0.72,0.96l0.864,0.864l0.96,0.72l2.449,1.584l2.352,1.729l2.257,1.872l2.112,2.016l2.017,2.16l1.824,2.256l1.68,2.4l1.585,2.496l1.344,2.593l1.248,2.64l-0.96,2.88l-15.555,-0.432l-1.824,-10.561l0.048,-0.624l-0.144,-0.576l-0.337,-0.528l-0.48,-0.384l-0.528,-0.24l-4.705,0.144l-0.816,0l-0.816,-0.144l-0.72,-0.384l-0.624,-0.528l-0.528,-0.672l-0.288,-0.768l-0.385,-4.176l-0.576,-4.225l-0.72,-4.128l-0.96,-4.128l-1.152,-4.08l-1.345,-3.985l-1.536,-3.936l-1.728,-3.888l-1.921,-3.744l-2.064,-3.697l-0.384,-6.48l4.369,-8.641l0.192,-0.48l-0,-0.528l-0.144,-0.528l-0.336,-0.432l-0.432,-0.288l-0.48,-0.192l-0.577,0.048l-0.48,0.192l-21.364,9.601l-0.384,0.24l-0.336,0.384l-0.192,0.432l-2.257,8.832l-3.408,4.657l-1.057,0.768l-0.864,1.008l-0.672,1.104l-2.208,20.593l-0.144,1.44l0.048,1.44l0.144,1.441l0.288,1.392l0.336,0.912l0.24,0.96l0.048,0.96l-0.144,0.96l-0.288,0.96l-0.432,0.864l-0.865,1.536l-1.056,1.44l-1.2,1.296l-1.296,1.152l-1.441,1.056l-1.536,0.864l-1.632,0.673l-1.681,0.528l-1.728,0.336l-1.776,0.144l-1.777,-0l-1.728,-0.24l-1.056,-18.146l1.68,0.816l1.728,0.625l1.777,0.48l0.72,0.144l0.672,-0.048l0.72,-0.24l0.576,-0.384l0.432,-0.577l0.337,-0.624l0.096,-0.72l-0.096,-0.72l-0.241,-0.672l0.817,-0.528l0.768,-0.672l0.672,-0.768l0.528,-0.864l0.384,-0.912l0.288,-0.96l0.336,-7.2l0.192,-7.201l0.048,-7.2l-0.096,-7.249l-0.336,-7.2l0,-0.96l0.144,-0.96l0.336,-0.912l0.528,-0.817l0.721,-0.72l0.816,-0.528l2.064,-1.104l2.017,-1.2l1.872,-1.392l0.864,-1.776l0.672,-1.776l0.48,-1.92l0.24,-1.92l0.096,-1.92l-0.192,-1.921l-0.384,-1.92l-0.576,-1.872l-1.296,-2.976l-1.2,-3.072l-0.96,-3.168l-0.865,-3.169l-0.624,-3.216l-0.48,-3.264l-0.288,-3.264l-0.096,-3.312l0.096,-3.265l0.24,-3.264l0.432,-3.264l0.624,-3.264l0.816,-3.168l0.961,-3.169l1.152,-3.072l1.296,-3.024l-2.064,0.336l-2.017,0.48l-1.92,0.672l-1.92,0.816l-1.777,1.008l-1.728,1.2l-1.585,1.296l-1.44,1.488l-1.344,1.584l-1.152,1.729l-1.009,1.824l-0.864,1.872l-0.672,1.968l-0.432,2.016l-0.336,2.064l-0.096,2.064l0.288,2.929l0.096,2.928l-0.096,2.976l-0.288,2.928l-0.48,2.88l-0.672,2.88l-0.816,2.833l-0.961,2.784l-1.2,2.736l-1.344,2.592l-1.488,2.544l-1.633,2.448l-1.824,2.353l-1.921,2.208l-2.064,2.112l-2.208,1.968l-1.633,0.864l-1.68,0.768l-1.728,0.528l-1.825,0.336l-1.824,0.192l-1.825,-0.048l-1.824,-0.24l-1.776,-0.384l-1.729,-0.624l-1.68,-0.768l-1.536,-0.96l-1.441,-1.104l-1.344,-1.296l-1.2,-1.392Zm173.315,-86.07l-0.48,-0.144l-0.528,0.048l-0.48,0.192l-0.384,0.288l-0.24,0.432l-0.144,0.48l0.048,0.48l0.192,0.48l6.241,12.241l0.288,0.48l0.433,0.384l0.528,0.288l0.576,0.048l0.576,-0.096l0.528,-0.24l7.682,-4.752l0.24,-0.24l0.192,-0.336l0.048,-0.336l-0.144,-0.336l-0.192,-0.288l-0.337,-0.144l-3.6,-3.264l-0.288,-0.432l-0.384,-0.24l-10.371,-4.993Z"/></g></svg>