<?xml version="1.0" encoding="UTF-8" standalone="no"?><!DOCTYPE svg PUBLIC "-//W3C//DTD SVG 1.1//EN" "http://www.w3.org/Graphics/SVG/1.1/DTD/svg11.dtd"><svg width="100%" height="100%" viewBox="0 0 454 454" version="1.1" xmlns="http://www.w3.org/2000/svg" xmlns:xlink="http://www.w3.org/1999/xlink" xml:space="preserve" xmlns:serif="http://www.serif.com/" style="fill-rule:evenodd;clip-rule:evenodd;stroke-linejoin:round;stroke-miterlimit:2;"><g transform="matrix(50,0,0,50,321.022,244.423)"></g><text x="133.4px" y="244.423px" style="font-family:'ArialMT', 'Arial', sans-serif;font-size:50px;">sw=38.4</text><g id="_622.10-No-Vehicles-Carrying-Dangerous-Goods" serif:id="622.10 No Vehicles Carrying Dangerous Goods"><circle cx="226.772" cy="226.772" r="226.772" style="fill:#e31837;"/><circle cx="226.772" cy="226.772" r="181.417" style="fill:#fff;"/><path d="M130.436,278.257l192.714,0l-0,13.187l-6.671,-0l0,48.713l-0.085,0.714l-0.212,0.714l-0.34,0.672l-0.51,0.588l-0.552,0.462l-0.68,0.336l-0.722,0.21l-0.765,0.084l-15.167,0l-0.722,-0.084l-0.723,-0.21l-0.679,-0.336l-0.595,-0.462l-0.467,-0.588l-0.34,-0.672l-0.213,-0.714l-0.085,-0.714l0,-21.207l-7.52,0l0,21.207l-0.085,0.756l-0.212,0.714l-0.34,0.63l-0.51,0.588l-0.552,0.462l-0.68,0.336l-0.722,0.252l-0.722,0.042l-15.168,0l-0.764,-0.042l-0.723,-0.252l-0.679,-0.336l-0.553,-0.462l-0.509,-0.588l-0.34,-0.672l-0.213,-0.672l-0.085,-0.756l0,-14.11l-1.729,-1.902l-0.565,-5.237l-19.501,3.234l-0.892,0.252l-0.807,0.42l-0.68,0.588l-4.928,5.333l-1.402,0.588l-11.896,-0l-1.402,-0.588l-4.928,-5.333l-0.68,-0.588l-0.807,-0.42l-0.85,-0.252l-19.543,-3.234l-0,1.218l-0.043,3.444l-2.252,2.477l0,14.11l-0.084,0.756l-0.213,0.672l-0.34,0.672l-0.51,0.588l-0.552,0.462l-0.68,0.336l-0.722,0.252l-0.722,0.042l-15.167,0l-0.765,-0.042l-0.722,-0.252l-0.68,-0.336l-0.553,-0.462l-0.509,-0.588l-0.34,-0.63l-0.213,-0.714l-0.085,-0.756l0,-21.207l-7.52,0l0,21.207l-0.084,0.714l-0.213,0.714l-0.34,0.672l-0.467,0.588l-0.595,0.462l-0.68,0.336l-0.722,0.21l-0.722,0.084l-15.167,0l-0.765,-0.084l-0.722,-0.21l-0.638,-0.336l-0.595,-0.462l-0.467,-0.588l-0.382,-0.672l-0.213,-0.714l-0.085,-0.714l0,-48.713l-6.67,-0l0,-13.187Zm62.156,28.767l0.043,3.401l-0,1.26l19.543,-3.234l0.85,-0.252l0.807,-0.419l0.68,-0.588l4.928,-5.334l0.425,-0.336l0.467,-0.21l0.51,-0.084l11.896,0l0.51,0.084l0.467,0.21l0.425,0.336l4.928,5.334l0.68,0.588l0.807,0.419l0.892,0.252l19.501,3.234l0,-1.26l0.043,-3.401l2.379,-2.604l-0,-12.976l-73.16,-0l0,12.976l2.379,2.604Zm101.03,-15.538l-7.52,-0l0,20.283l7.52,-0.042l0,-20.241Zm-133.659,20.241l7.52,0l0,-20.241l-7.52,-0l0,20.241Zm145.938,-205.9l1.699,0.084l1.657,0.252l1.657,0.42l1.572,0.546l1.529,0.714l1.445,0.881l1.359,0.966l1.232,1.134l1.147,1.26l1.02,1.344l0.85,1.428l0.722,1.511l0.595,1.554l0.382,1.638l0.255,1.638l0.085,1.68l-0.042,150.887l-192.671,-0l-0,-150.929l0.085,-1.638l0.212,-1.68l0.425,-1.596l0.595,-1.554l0.722,-1.511l0.85,-1.47l1.019,-1.302l1.105,-1.26l1.275,-1.134l1.359,-0.966l1.445,-0.881l1.529,-0.714l1.572,-0.546l1.657,-0.42l1.657,-0.252l1.699,-0.084l158.301,-0Zm-158.301,5.963l-1.359,0.084l-1.317,0.252l-1.317,0.378l-1.232,0.546l-1.148,0.714l-1.062,0.798l-0.934,0.966l-0.85,1.049l-0.68,1.134l-0.552,1.218l-0.425,1.26l-0.255,1.344l-0.085,1.302l0.043,145.008l180.605,-0l0.042,-144.966l-0.085,-1.344l-0.212,-1.302l-0.425,-1.302l-0.552,-1.218l-0.68,-1.134l-0.85,-1.049l-0.935,-0.966l-1.062,-0.798l-1.189,-0.714l-1.232,-0.546l-1.275,-0.378l-1.317,-0.252l-1.359,-0.084l-158.301,0Z"/><path d="M147.6,111.79l158.301,0l1.359,0.084l1.317,0.252l1.275,0.378l1.232,0.546l1.189,0.714l1.062,0.798l0.935,0.966l0.85,1.049l0.68,1.134l0.552,1.218l0.425,1.302l0.212,1.302l0.085,1.344l-0.042,144.966l-180.605,-0l-0.043,-145.008l0.085,-1.302l0.255,-1.344l0.425,-1.26l0.552,-1.218l0.68,-1.134l0.85,-1.049l0.934,-0.966l1.062,-0.798l1.148,-0.714l1.232,-0.546l1.317,-0.378l1.317,-0.252l1.359,-0.084Z" style="fill:#faa634;"/></g></svg>