<?xml version="1.0" encoding="UTF-8" standalone="no"?><!DOCTYPE svg PUBLIC "-//W3C//DTD SVG 1.1//EN" "http://www.w3.org/Graphics/SVG/1.1/DTD/svg11.dtd"><svg width="100%" height="100%" viewBox="0 0 454 454" version="1.1" xmlns="http://www.w3.org/2000/svg" xmlns:xlink="http://www.w3.org/1999/xlink" xml:space="preserve" xmlns:serif="http://www.serif.com/" style="fill-rule:evenodd;clip-rule:evenodd;stroke-linejoin:round;stroke-miterlimit:2;"><g transform="matrix(50,0,0,50,321.022,244.423)"></g><text x="133.4px" y="244.423px" style="font-family:'ArialMT', 'Arial', sans-serif;font-size:50px;">sw=38.4</text><g id="_622.7-No-Towed-Caravans" serif:id="622.7 No Towed Caravans"><circle cx="226.772" cy="226.772" r="226.772" style="fill:#e31837;"/><circle cx="226.772" cy="226.772" r="181.417" style="fill:#fff;"/><path d="M86.467,181.381l2.475,0.064l2.442,0.192l2.443,0.353l2.41,0.448l2.379,0.576l2.346,0.736l2.314,0.833l2.25,0.96l2.218,1.088l2.121,1.185l2.089,1.312l1.993,1.441l1.928,1.504l1.832,1.633l1.736,1.729l25.583,26.698l1.382,1.344l1.447,1.249l1.542,1.152l1.607,1.025l1.672,0.928l1.735,0.8l1.8,0.705l1.832,0.576l1.864,0.448l1.896,0.352l0.804,0.16l0.771,0.288l0.74,0.384l0.675,0.513l0.61,0.576l0.482,0.672l0.418,0.736l0.289,0.801l0.193,0.8l0.064,0.832l0,26.57l26.259,0l-0.9,-1.28l-0.771,-1.377l-0.643,-1.44l-0.514,-1.505l-0.386,-1.536l-0.193,-1.569l-0.096,-1.569l-0,-56.853l0.064,-1.825l0.193,-1.825l0.289,-1.792l0.418,-1.761l0.546,-1.729l0.675,-1.696l0.772,-1.665l0.867,-1.6l0.965,-1.505l1.092,-1.473l1.19,-1.408l1.253,-1.281l1.35,-1.248l1.446,-1.12l1.511,-1.025l1.575,-0.928l1.607,-0.833l1.703,-0.704l1.704,-0.576l1.767,-0.48l1.8,-0.384l7.842,-1.153l7.875,-1.024l7.906,-0.896l7.907,-0.801l7.906,-0.64l7.938,-0.512l7.939,-0.384l7.939,-0.256l7.938,-0.129l7.939,0l7.938,0.129l7.94,0.256l7.938,0.384l7.939,0.512l7.906,0.64l7.906,0.801l7.907,0.896l7.875,1.024l7.842,1.153l1.8,0.384l1.767,0.48l1.704,0.576l1.671,0.704l1.639,0.833l1.575,0.928l1.51,1.025l1.414,1.12l1.383,1.248l1.253,1.281l1.19,1.408l1.06,1.473l0.996,1.505l0.868,1.6l0.772,1.665l0.675,1.696l0.546,1.729l0.417,1.761l0.29,1.792l0.192,1.825l0.065,1.825l-0,56.853l-0.065,1.473l-0.192,1.473l-0.321,1.44l-0.45,1.409l-0.579,1.344l-0.675,1.313l-0.804,1.248l-0.899,1.185l-0.996,1.088l-1.093,0.992l-1.19,0.897l-1.253,0.8l-1.318,0.672l-1.35,0.576l-1.414,0.449l-1.478,0.32l-1.446,0.192l-1.479,0.064l-55.602,-0l-0.065,-1.729l-0.193,-1.696l-0.322,-1.697l-0.417,-1.665l-0.578,-1.6l-0.707,-1.601l-0.804,-1.505l-0.9,-1.472l-1.029,-1.377l-1.125,-1.28l-1.221,-1.217l-1.317,-1.12l-1.383,-1.024l-1.478,-0.929l-1.511,-0.8l-1.574,-0.672l-1.64,-0.576l-1.671,-0.449l-1.703,-0.32l-1.704,-0.192l-1.736,-0.064l-1.703,0.064l-1.735,0.192l-1.671,0.32l-1.672,0.449l-1.639,0.576l-1.575,0.672l-1.542,0.8l-1.447,0.929l-1.382,1.024l-1.318,1.12l-1.221,1.217l-1.125,1.28l-1.029,1.377l-0.932,1.472l-0.803,1.505l-0.675,1.601l-0.578,1.6l-0.451,1.665l-0.321,1.697l-0.193,1.696l-0.064,1.729l-129.975,2.433l0.129,-1.761l-0.032,-1.729l-0.129,-1.728l-0.257,-1.697l-0.418,-1.697l-0.514,-1.664l-0.643,-1.601l-0.771,-1.568l-0.868,-1.505l-0.996,-1.44l-1.093,-1.345l-1.189,-1.248l-1.286,-1.185l-1.382,-1.088l-1.446,-0.961l-1.511,-0.864l-1.575,-0.768l-1.607,-0.609l-1.671,-0.512l-1.703,-0.384l-1.736,-0.256l-1.736,-0.128l-1.735,-0l-1.736,0.128l-1.735,0.256l-1.672,0.384l-1.671,0.512l-1.639,0.609l-1.575,0.768l-1.51,0.864l-1.447,0.961l-1.35,1.088l-1.285,1.185l-1.189,1.248l-1.093,1.345l-0.997,1.44l-0.867,1.505l-0.772,1.568l-0.643,1.601l-0.546,1.664l-0.386,1.697l-0.257,1.697l-0.16,1.728l-0,1.729l0.096,1.761l-21.566,-0l0.996,-2.945l-0.643,-1.889l-0.321,-2.177l1.254,-3.297l0.642,-2.657l-1.575,-3.746l-0.45,-3.137l0.129,-2.177l1.254,-6.242l-0.933,-4.386l0.933,-3.137l-0.45,-3.105l-0.322,-3.137l-0.161,-3.746l0.933,-3.297l-0.611,-3.585l-0.772,-3.458l0.611,-4.993l-0.771,-4.674l-0.161,-4.546l0.45,-5.474l0.482,-4.994l-1.093,-3.297l0,-2.497l1.254,-2.337l2.185,-1.825l15.01,0Zm6.428,89.922l-0.064,-1.6l0.064,-1.601l0.193,-1.632l0.289,-1.569l0.45,-1.569l0.578,-1.504l0.675,-1.473l0.772,-1.408l0.9,-1.345l1.028,-1.248l1.093,-1.185l1.189,-1.12l1.286,-0.992l1.35,-0.897l1.414,-0.768l1.446,-0.704l1.543,-0.545l1.543,-0.448l1.607,-0.32l1.607,-0.192l1.607,-0.032l1.639,0.032l1.607,0.192l1.575,0.32l1.575,0.448l1.51,0.545l1.479,0.704l1.414,0.768l1.35,0.897l1.285,0.992l1.189,1.12l1.093,1.185l0.997,1.248l0.899,1.345l0.804,1.408l0.675,1.473l0.546,1.504l0.45,1.569l0.322,1.569l0.192,1.632l0.065,1.601l-0.065,1.6l-0.192,1.601l-0.322,1.601l-0.45,1.536l-0.546,1.537l-0.675,1.472l-0.804,1.409l-0.899,1.344l-0.997,1.249l-1.093,1.184l-1.189,1.089l-1.285,1.024l-1.35,0.896l-1.414,0.769l-1.479,0.704l-1.51,0.544l-1.575,0.448l-1.575,0.289l-1.607,0.192l-1.639,0.064l-1.607,-0.064l-1.607,-0.192l-1.607,-0.289l-1.543,-0.448l-1.543,-0.544l-1.446,-0.704l-1.414,-0.769l-1.35,-0.896l-1.286,-1.024l-1.189,-1.089l-1.093,-1.184l-1.028,-1.249l-0.9,-1.344l-0.772,-1.409l-0.675,-1.472l-0.578,-1.537l-0.45,-1.536l-0.289,-1.601l-0.193,-1.601Zm176.288,-1.6l0.065,-1.601l0.193,-1.632l0.321,-1.569l0.418,-1.569l0.578,-1.504l0.675,-1.473l0.772,-1.408l0.932,-1.345l0.996,-1.248l1.093,-1.185l1.189,-1.12l1.286,-0.992l1.35,-0.897l1.414,-0.768l1.446,-0.704l1.543,-0.545l1.542,-0.448l1.607,-0.32l1.607,-0.192l1.607,-0.032l1.639,0.032l1.608,0.192l1.574,0.32l1.576,0.448l1.51,0.545l1.479,0.704l1.414,0.768l1.349,0.897l1.286,0.992l1.189,1.12l1.093,1.185l0.997,1.248l0.9,1.345l0.803,1.408l0.675,1.473l0.547,1.504l0.449,1.569l0.321,1.569l0.194,1.632l0.064,1.601l-0.064,1.6l-0.194,1.601l-0.321,1.601l-0.449,1.536l-0.547,1.537l-0.675,1.472l-0.803,1.409l-0.9,1.344l-0.997,1.249l-1.093,1.184l-1.189,1.089l-1.286,1.024l-1.349,0.896l-1.414,0.769l-1.479,0.704l-1.51,0.544l-1.576,0.448l-1.574,0.289l-1.608,0.192l-1.639,0.064l-1.607,-0.064l-1.607,-0.192l-1.607,-0.289l-1.542,-0.448l-1.543,-0.544l-1.446,-0.704l-1.414,-0.769l-1.35,-0.896l-1.286,-1.024l-1.189,-1.089l-1.093,-1.184l-0.996,-1.249l-0.932,-1.344l-0.772,-1.409l-0.675,-1.472l-0.578,-1.537l-0.418,-1.536l-0.321,-1.601l-0.193,-1.601l-0.065,-1.6Zm-156.843,10.82l1.125,0.064l1.157,-0.064l1.125,-0.16l1.092,-0.32l1.093,-0.384l0.996,-0.513l0.965,-0.64l0.9,-0.704l0.803,-0.8l0.707,-0.897l0.643,-0.96l0.514,-1.025l0.418,-1.056l0.289,-1.088l0.193,-1.121l0.032,-1.152l-0.032,-1.153l-0.193,-1.12l-0.289,-1.088l-0.418,-1.057l-0.514,-1.024l-0.643,-0.961l-0.707,-0.896l-0.803,-0.8l-0.9,-0.705l-0.965,-0.64l-0.996,-0.512l-1.093,-0.416l-1.092,-0.288l-1.125,-0.16l-1.157,-0.064l-1.125,0.064l-1.125,0.16l-1.125,0.288l-1.061,0.416l-1.028,0.512l-0.964,0.64l-0.868,0.705l-0.836,0.8l-0.707,0.896l-0.611,0.961l-0.514,1.024l-0.418,1.057l-0.289,1.088l-0.193,1.12l-0.064,1.153l0.064,1.152l0.193,1.121l0.289,1.088l0.418,1.056l0.514,1.025l0.611,0.96l0.707,0.897l0.836,0.8l0.868,0.704l0.964,0.64l1.028,0.513l1.061,0.384l1.125,0.32l1.125,0.16Zm166.807,-8.547l0.289,1.088l0.418,1.056l0.514,1.025l0.611,0.96l0.74,0.897l0.803,0.8l0.867,0.704l0.965,0.64l1.028,0.513l1.061,0.384l1.125,0.32l1.125,0.16l1.124,0.064l1.158,-0.064l1.125,-0.16l1.092,-0.32l1.093,-0.384l0.997,-0.513l0.963,-0.64l0.9,-0.704l0.804,-0.8l0.739,-0.897l0.611,-0.96l0.514,-1.025l0.418,-1.056l0.289,-1.088l0.193,-1.121l0.033,-1.152l-0.033,-1.153l-0.193,-1.12l-0.289,-1.088l-0.418,-1.057l-0.514,-1.024l-0.611,-0.961l-0.739,-0.896l-0.804,-0.8l-0.9,-0.705l-0.963,-0.64l-0.997,-0.512l-1.093,-0.416l-1.092,-0.288l-1.125,-0.16l-1.158,-0.064l-1.124,0.064l-1.125,0.16l-1.125,0.288l-1.061,0.416l-1.028,0.512l-0.965,0.64l-0.867,0.705l-0.803,0.8l-0.74,0.896l-0.611,0.961l-0.514,1.024l-0.418,1.057l-0.289,1.088l-0.193,1.12l-0.064,1.153l0.064,1.152l0.193,1.121Zm80.544,-81.503l-66.82,-0l-0.611,0.032l-0.546,0.192l-0.546,0.288l-0.451,0.352l-0.385,0.48l-0.258,0.513l-0.192,0.576l-0.065,0.576l0,21.16l0.065,0.608l0.192,0.576l0.258,0.513l0.385,0.448l0.451,0.384l0.546,0.288l0.546,0.16l0.611,0.064l66.82,0l0.578,-0.064l0.578,-0.16l0.514,-0.288l0.451,-0.384l0.385,-0.448l0.29,-0.513l0.161,-0.576l0.064,-0.608l-0,-21.16l-0.064,-0.576l-0.161,-0.576l-0.29,-0.513l-0.385,-0.48l-0.451,-0.352l-0.514,-0.288l-0.578,-0.192l-0.578,-0.032Zm-109.341,-0l-30.373,-0l-0.578,0.032l-0.579,0.192l-0.514,0.288l-0.482,0.352l-0.354,0.48l-0.289,0.513l-0.193,0.576l-0.032,0.576l0,21.16l0.032,0.608l0.193,0.576l0.289,0.513l0.354,0.448l0.482,0.384l0.514,0.288l0.579,0.16l0.578,0.064l30.373,0l0.578,-0.064l0.579,-0.16l0.514,-0.288l0.482,-0.384l0.385,-0.448l0.258,-0.513l0.192,-0.576l0.033,-0.608l-0,-21.16l-0.033,-0.576l-0.192,-0.576l-0.258,-0.513l-0.385,-0.48l-0.482,-0.352l-0.514,-0.288l-0.579,-0.192l-0.578,-0.032Zm-176.9,2.593l0,28.491l51.232,-0l-27.32,-28.491l-23.912,-0Z"/></g></svg>