<?xml version="1.0" encoding="UTF-8" standalone="no"?><!DOCTYPE svg PUBLIC "-//W3C//DTD SVG 1.1//EN" "http://www.w3.org/Graphics/SVG/1.1/DTD/svg11.dtd"><svg width="100%" height="100%" viewBox="0 0 454 454" version="1.1" xmlns="http://www.w3.org/2000/svg" xmlns:xlink="http://www.w3.org/1999/xlink" xml:space="preserve" xmlns:serif="http://www.serif.com/" style="fill-rule:evenodd;clip-rule:evenodd;stroke-linejoin:round;stroke-miterlimit:2;"><g transform="matrix(50,0,0,50,321.022,262.709)"></g><text x="133.4px" y="262.709px" style="font-family:'ArialMT', 'Arial', sans-serif;font-size:50px;">sw=38.4</text><g id="_622.8-No-Vehicles-Carrying-Explosives-or-Inflammables" serif:id="622.8 No Vehicles Carrying Explosives or Inflammables"><circle cx="226.772" cy="226.772" r="226.772" style="fill:#e31837;"/><circle cx="226.772" cy="226.772" r="181.417" style="fill:#fff;"/><g><path d="M159.021,221.835l0.922,-2.132l1.152,-1.959l1.267,-1.902l1.498,-1.728l1.67,-1.556l1.843,-1.383l1.901,-1.21l2.074,-1.037l2.131,-0.749l2.246,-0.576l2.247,-0.346l2.304,-0.115l92.965,-0l2.304,0.115l2.247,0.346l2.189,0.576l2.131,0.749l2.073,1.037l1.959,1.21l1.785,1.383l1.671,1.556l1.497,1.728l1.325,1.902l1.094,1.959l0.922,2.132l0.691,2.132l0.519,2.247l7.084,44.425l1.786,0.289l1.786,0.518l1.67,0.749l1.555,0.98l1.44,1.152l1.21,1.325l1.037,1.556l0.864,1.614l0.633,1.728l0.346,1.786l0.115,1.844l-0,38.203l-0.115,1.728l-0.346,1.787l-0.576,1.671l-0.749,1.613l-1.036,1.44l-1.152,1.383l-1.325,1.153l-1.498,0.979l0,30.136l-1.44,1.498l-1.613,1.268l-1.728,1.094l-1.843,0.922l-1.901,0.634l-2.016,0.461l-2.016,0.231l-2.073,-0l-2.016,-0.231l-2.016,-0.461l-1.959,-0.634l-1.843,-0.922l-1.728,-1.094l-1.555,-1.268l-1.44,-1.498l0,-27.889l-18.144,1.095l-18.144,0.749l-18.143,0.461l-18.144,-0.461l-18.144,-0.749l-18.144,-1.095l-0,27.889l-1.44,1.498l-1.613,1.268l-1.728,1.094l-1.843,0.922l-1.901,0.634l-2.016,0.461l-2.073,0.231l-2.016,-0l-2.016,-0.231l-2.016,-0.461l-1.959,-0.634l-1.843,-0.922l-1.728,-1.094l-1.613,-1.268l-1.44,-1.498l0,-30.136l-1.44,-0.979l-1.324,-1.153l-1.21,-1.383l-0.979,-1.44l-0.807,-1.613l-0.576,-1.671l-0.345,-1.787l-0.115,-1.728l-0,-38.203l0.172,-1.844l0.346,-1.786l0.634,-1.728l0.806,-1.614l1.037,-1.556l1.267,-1.325l1.382,-1.152l1.613,-0.98l1.671,-0.749l1.728,-0.518l1.843,-0.289l7.084,-44.425l0.461,-2.247l0.691,-2.132Zm130.233,17.632l-0.461,-2.132l-0.691,-2.075l-0.921,-2.016l-1.095,-1.844l-1.267,-1.786l-1.498,-1.614l-1.67,-1.383l-1.786,-1.267l-1.9,-1.095l-2.016,-0.807l-2.074,-0.634l-2.131,-0.403l-28.397,-1.671l-33.235,0l-28.339,1.671l-2.131,0.403l-2.131,0.634l-2.016,0.807l-1.901,1.095l-1.785,1.267l-1.613,1.383l-1.498,1.614l-1.325,1.786l-1.094,1.844l-0.922,2.016l-0.633,2.075l-0.461,2.132l-2.016,12.734l-0.115,1.383l0.057,1.325l0.346,1.325l0.461,1.268l0.691,1.21l0.864,1.095l0.979,0.922l1.095,0.749l1.267,0.576l1.267,0.403l1.382,0.231l112.435,-0l1.325,-0.231l1.324,-0.403l1.21,-0.576l1.152,-0.749l0.979,-0.922l0.864,-1.095l0.634,-1.21l0.518,-1.268l0.288,-1.325l0.115,-1.325l-0.115,-1.383l-2.016,-12.734Zm-62.495,50.994l-15.149,0.173l-15.091,0.346l-15.149,0.633l0,6.223l90.719,0l0,-6.223l-15.091,-0.633l-15.148,-0.346l-15.091,-0.173Zm45.33,34.63l0,-6.281l-90.719,0l0,6.281l15.149,0.576l15.091,0.403l15.149,0.116l15.091,-0.116l15.148,-0.403l15.091,-0.576Zm-98.38,-32.901l-0.115,-1.671l-0.345,-1.614l-0.519,-1.613l-0.749,-1.441l-0.921,-1.383l-1.095,-1.267l-1.267,-1.095l-1.382,-0.922l-1.498,-0.749l-1.555,-0.519l-1.613,-0.345l-1.67,-0.116l-1.671,0.116l-1.612,0.345l-1.556,0.519l-1.497,0.749l-1.383,0.922l-1.267,1.095l-1.094,1.267l-0.922,1.383l-0.748,1.441l-0.519,1.613l-0.345,1.614l-0.058,1.671l0.058,1.671l0.345,1.613l0.519,1.556l0.748,1.498l0.922,1.383l1.094,1.267l1.267,1.095l1.383,0.922l1.497,0.749l1.556,0.519l1.612,0.288l1.671,0.115l1.67,-0.115l1.613,-0.288l1.555,-0.519l1.498,-0.749l1.382,-0.922l1.267,-1.095l1.095,-1.267l0.921,-1.383l0.749,-1.498l0.519,-1.556l0.345,-1.613l0.115,-1.671Zm7.661,12.446l0,7.375l90.719,0l0,-7.375l-90.719,-0Zm123.839,-12.446l-0.115,-1.671l-0.346,-1.614l-0.518,-1.613l-0.749,-1.441l-0.921,-1.383l-1.095,-1.267l-1.209,-1.095l-1.383,-0.922l-1.497,-0.749l-1.556,-0.519l-1.67,-0.345l-1.613,-0.116l-1.67,0.116l-1.671,0.345l-1.555,0.519l-1.497,0.749l-1.383,0.922l-1.209,1.095l-1.095,1.267l-0.921,1.383l-0.749,1.441l-0.518,1.613l-0.346,1.614l-0.115,1.671l0.115,1.671l0.346,1.613l0.518,1.556l0.749,1.498l0.921,1.383l1.095,1.267l1.209,1.095l1.383,0.922l1.497,0.749l1.555,0.519l1.671,0.288l1.67,0.115l1.613,-0.115l1.67,-0.288l1.556,-0.519l1.497,-0.749l1.383,-0.922l1.209,-1.095l1.095,-1.267l0.921,-1.383l0.749,-1.498l0.518,-1.556l0.346,-1.613l0.115,-1.671Z"/><path d="M158.89,222.242l-2.691,0.572l-2.765,0.404l-2.764,0.115l-2.765,-0.058l-2.765,-0.288l-2.765,-0.518l-2.649,-0.749l-2.592,-0.922l-2.535,-1.153l-2.419,-1.383l-2.304,-1.555l-2.131,-1.729l-2.016,-1.901l-1.843,-2.075l-1.671,-2.247l-1.497,-2.305l-1.325,-2.477l-1.094,-2.536l-0.864,-2.65l-0.634,-2.708l-0.461,-2.709l-0.23,-2.765l-0,-2.824l0.288,-2.766l0.461,-2.708l0.633,-2.708l-2.131,-1.786l-2.016,-1.959l-1.786,-2.19l-1.67,-2.247l-1.44,-2.42l-1.21,-2.535l-1.036,-2.593l-0.807,-2.708l-0.633,-2.709l-0.346,-2.823l-0.115,-2.766l0.115,-2.823l0.288,-2.766l0.576,-2.766l0.806,-2.708l0.98,-2.593l1.209,-2.535l1.44,-2.42l1.613,-2.305l1.843,-2.19l1.959,-1.959l2.131,-1.844l2.246,-1.613l2.419,-1.498l2.535,-1.21l2.592,-1.037l2.707,-0.865l2.707,-0.576l2.822,-0.346l2.765,-0.172l0.288,-2.478l0.461,-2.478l0.749,-2.42l0.921,-2.305l1.152,-2.247l1.383,-2.132l1.497,-1.959l1.728,-1.844l1.901,-1.671l2.016,-1.498l2.131,-1.268l2.247,-1.094l2.361,-0.865l2.419,-0.691l2.477,-0.403l2.535,-0.231l2.476,0.058l2.535,0.23l2.477,0.519l2.361,0.691l2.362,0.922l2.246,1.153l2.074,1.382l2.016,1.499l1.843,1.728l1.67,1.902l-0.345,-2.536l-0.116,-2.477l0.116,-2.536l0.403,-2.477l0.576,-2.42l0.806,-2.42l1.037,-2.305l1.21,-2.19l1.44,-2.074l1.612,-1.902l1.786,-1.786l1.958,-1.613l2.074,-1.383l2.189,-1.21l2.361,-0.98l2.362,-0.806l2.477,-0.577l2.476,-0.345l2.535,-0.058l2.477,0.115l2.476,0.346l2.477,0.634l2.362,0.806l2.304,1.038l2.189,1.21l2.073,1.44l1.901,1.614l1.786,1.786l1.612,1.959l1.383,2.074l1.209,2.247l0.979,2.305l0.807,2.363l0.576,2.477l0.864,-2.189l1.152,-2.075l1.267,-1.959l1.498,-1.843l1.67,-1.671l1.843,-1.499l1.959,-1.267l2.073,-1.095l2.189,-0.922l2.304,-0.634l2.304,-0.461l2.361,-0.23l2.362,0.057l2.304,0.231l2.304,0.518l2.246,0.692l2.189,0.922l2.074,1.152l1.958,1.325l1.786,1.556l1.613,1.671l1.497,1.844l1.267,2.017l1.037,2.074l0.864,2.247l0.634,2.248l0.403,2.304l0.173,2.363l-0.058,2.362l-0.288,2.363l1.555,-1.556l1.613,-1.325l1.843,-1.153l1.901,-0.979l2.016,-0.807l2.074,-0.519l2.073,-0.345l2.189,-0.116l2.131,0.116l2.131,0.345l2.016,0.577l2.016,0.749l1.901,0.979l1.786,1.21l1.67,1.326l1.498,1.555l1.382,1.671l1.152,1.787l0.979,1.901l0.749,2.017l0.518,2.074l0.346,2.132l0.058,2.132l-0.116,2.19l-0.345,2.074l-0.576,2.074l-0.807,2.017l1.959,-0.864l2.073,-0.692l2.132,-0.403l2.131,-0.231l2.131,0l2.131,0.231l2.131,0.461l2.016,0.691l1.959,0.922l1.901,1.095l1.727,1.268l1.556,1.44l1.44,1.671l1.209,1.729l1.095,1.901l0.806,1.959l0.634,2.075l0.403,2.132l0.23,2.132l-0.057,2.132l-0.288,2.189l-0.461,2.074l-0.749,2.017l-0.922,1.959l-1.094,1.844l-1.325,1.729l-1.497,1.556l-1.613,1.382l1.613,1.614l1.497,1.786l1.325,1.902l1.094,2.016l0.922,2.075l0.749,2.247l0.461,2.247l0.288,2.247l0.057,2.363l-0.173,2.247l-0.403,2.305l-0.633,2.189l-0.807,2.19l-1.037,2.074l-1.209,1.959l-1.44,1.786l-1.555,1.671l-1.728,1.556l-1.901,1.325l-2.016,1.153l-2.074,0.979l-2.188,0.75l-2.247,0.518l-2.246,0.346l-2.304,0.115l-2.304,-0.173l-0.864,2.305l-1.037,2.247l-1.21,2.132l-1.382,2.017l-1.613,1.844l-1.728,1.728l-1.9,1.556l-2.016,1.383l-2.132,1.21l-2.246,0.98l-2.304,0.806l-2.419,0.576l-2.419,0.346l-2.42,0.173l-2.476,-0.115l-0.047,-0l-0.299,-0.922l-0.922,-2.132l-1.094,-1.959l-1.325,-1.902l-1.497,-1.728l-1.671,-1.556l-1.785,-1.383l-1.959,-1.21l-2.073,-1.037l-2.131,-0.749l-2.189,-0.576l-2.247,-0.346l-2.304,-0.115l-92.965,-0l-2.304,0.115l-2.247,0.346l-2.246,0.576l-2.131,0.749l-2.074,1.037l-1.901,1.21l-1.843,1.383l-1.67,1.556l-1.498,1.728l-1.267,1.902l-1.152,1.959l-0.922,2.132l-0.131,0.407Zm48.861,-81.306l-1.037,2.189l-0.749,2.305l-0.518,2.363l-0.231,2.42l-0.057,2.42l0.23,2.42l0.461,2.42l0.749,2.305l0.921,2.247l1.152,2.132l1.383,1.959l1.555,1.901l1.785,1.671l-2.361,-0.749l-2.362,-0.576l-2.419,-0.288l-2.419,-0.115l-2.419,0.115l-2.419,0.288l-2.362,0.576l-2.304,0.749l1.958,1.498l1.786,1.729l1.613,1.902l1.497,2.016l1.268,2.132l1.036,2.19l0.864,2.362l0.922,2.478l1.152,2.305l1.382,2.247l1.613,2.074l1.786,1.959l1.958,1.729l2.131,1.556l2.247,1.325l2.361,1.152l-0.806,-1.555l-0.634,-1.556l-0.403,-1.671l-0.173,-1.729l-0.23,-1.786l-0.461,-1.729l-0.691,-1.613l-0.864,-1.556l-1.095,-1.44l5.645,2.766l-0.23,-2.363l-0,-2.362l0.23,-2.363l0.403,-2.305l0.692,-2.247l0.921,-2.189l1.095,-2.132l1.324,-1.959l5.415,3.169l0.23,2.016l0,2.017l-0.288,1.959l-0.461,1.959l-0.691,1.902l-0.979,1.728l-1.094,1.671l2.764,-0.576l2.65,-0.979l-0.634,1.728l-0.864,1.614l-1.036,1.555l-1.152,1.383l-1.325,1.268l-1.44,1.152l2.995,-0.057l3.053,-0.346l-0.691,1.556l-0.807,1.44l-0.36,0.46l-3.153,3.17l2.304,-0.115l2.361,-0.346l2.246,-0.576l2.189,-0.806l2.131,-0.98l2.016,-1.21l1.844,-1.44l1.728,-1.556l1.612,-1.729l1.383,-1.901l1.209,-1.959l0.98,-2.132l0.806,-2.19l0.518,-2.305l0.346,-2.305l0.115,-2.362l-10.195,3.457l1.958,-1.959l1.786,-2.074l1.613,-2.247l1.44,-2.363l1.209,-2.478l1.037,-2.593l0.807,-2.65l0.576,-2.651l0.403,-2.765l0.173,-2.766l-2.016,1.556l-2.189,1.382l-2.247,1.211l-2.361,0.921l-2.477,0.75l-2.477,0.46l1.325,-1.728l1.152,-1.844l0.922,-2.017l0.748,-2.016l0.519,-2.19l0.23,-2.132l0.058,-2.19l-0.231,-2.189l-0.403,-2.19l-0.691,-2.074l-0.864,-2.017l-1.21,2.363l-1.382,2.247l-1.613,2.132l-1.728,1.959l-1.958,1.844l-2.074,1.671l-2.188,1.44l1.382,-2.189l1.152,-2.363l0.979,-2.362l0.749,-2.535l0.576,-2.536l0.346,-2.535l0.115,-2.593l-0.115,-2.593l-0.346,-2.593l-0.518,-2.535l-0.749,-2.478l-0.979,-2.42l-1.152,-2.305l-1.383,-2.247l-1.497,-2.074l0.403,2.593l0.23,1.844l0,1.901l-0.173,1.844l-0.403,1.844l-0.633,1.786l-0.749,1.671l-1.21,2.478l-0.979,2.535l-0.691,2.65l-1.555,-1.959l-1.325,-2.016l-1.21,-2.19l-1.037,-2.247l-0.921,2.65l-0.749,2.651l-0.518,2.708l-0.288,2.766l-0.058,2.766l0.173,2.823l0.345,2.708l0.634,2.708l0.806,2.651l1.037,2.593l-1.958,-1.729l-1.843,-1.959l-1.671,-2.017l-1.497,-2.247l-1.268,-2.305l-1.036,-2.42l-0.864,-2.477Zm-59.04,23.048l0,4.264l-10.31,-0l46.195,25.871l1.785,-3.86l-37.67,-26.275Zm41.069,4.725l-49.709,-38.721l-7.833,5.013l53.97,38.317l3.572,-4.609Zm115.429,-63.901l-46.195,34.399l1.786,2.132l49.708,-31.23l-5.299,-5.301Zm-131.73,95.189l-40.55,-10.372l2.131,4.264l-11.693,4.264l48.845,4.379l1.267,-2.535Zm-37.152,-41.257l-13.363,-21.089l-8.582,7.837l16.819,16.883l5.126,-3.631Zm125.567,-47.536l-12.096,-8.183l-6.566,9.623l14.4,3.515l4.262,-4.955Zm1.383,65.284l1.44,4.667l65.721,-16.71l-5.703,-3.573l2.823,-12.734l-64.281,28.35Zm51.148,20.282l-2.131,-6.396l-48.269,7.779l0.692,3.572l49.708,-4.955Zm-147.743,-89.485l-1.382,4.956l-11.405,-5.647l32.025,46.096l2.765,-1.383l-22.003,-44.022Zm99.071,45.463l-9.561,-0.634l-0,5.935l9.216,-0l0.345,-5.301Zm-10.022,44.771l-3.859,-3.169l-3.917,3.515l4.263,3.918l3.513,-4.264Zm-48.556,-0.058l-13.075,0l-4.263,3.17l3.168,2.132l13.133,-0l3.859,-2.478l-2.822,-2.824Zm-3.283,-88.678l5.299,6.684l7.545,0l0,-9.334l-12.844,-0l-0,2.65Zm98.092,22.991l-0.692,11.697l15.955,-0.346l0,-5.647l-15.263,-5.704Z" style="fill:#faa634;"/><path d="M204.352,183.517l-0.864,-2.362l-1.036,-2.19l-1.268,-2.132l-1.497,-2.016l-1.613,-1.902l-1.786,-1.729l-1.958,-1.498l2.304,-0.749l2.362,-0.576l2.419,-0.288l2.419,-0.115l2.419,0.115l2.419,0.288l2.362,0.576l2.361,0.749l-1.785,-1.671l-1.555,-1.901l-1.383,-1.959l-1.152,-2.132l-0.921,-2.247l-0.749,-2.305l-0.461,-2.42l-0.23,-2.42l0.057,-2.42l0.231,-2.42l0.518,-2.363l0.715,-2.201l1.071,-2.293l0.864,2.477l1.036,2.42l1.268,2.305l1.497,2.247l1.671,2.017l1.843,1.959l1.958,1.729l-1.037,-2.593l-0.806,-2.651l-0.634,-2.708l-0.345,-2.708l-0.173,-2.823l0.058,-2.766l0.288,-2.766l0.518,-2.708l0.749,-2.651l0.921,-2.65l1.037,2.247l1.21,2.19l1.325,2.016l1.555,1.959l2.88,-7.663l0.749,-1.671l0.633,-1.786l0.403,-1.844l0.173,-1.844l0,-1.901l-0.23,-1.844l-0.403,-2.593l1.497,2.074l1.383,2.247l1.152,2.305l0.979,2.42l0.749,2.478l0.518,2.535l0.346,2.593l0.115,2.593l-0.115,2.593l-0.346,2.535l-0.576,2.536l-0.749,2.535l-0.979,2.362l-1.152,2.363l-1.382,2.189l2.188,-1.44l2.074,-1.671l1.958,-1.844l1.728,-1.959l1.613,-2.132l1.382,-2.247l1.21,-2.363l0.864,2.017l0.691,2.074l0.403,2.19l0.231,2.189l-0.058,2.19l-0.23,2.132l-0.519,2.19l-0.748,2.016l-0.922,2.017l-1.152,1.844l-1.325,1.728l2.477,-0.46l2.477,-0.75l2.361,-0.921l2.247,-1.211l2.189,-1.382l2.016,-1.556l-0.173,2.766l-0.403,2.765l-0.576,2.651l-0.807,2.65l-1.037,2.593l-1.209,2.478l-1.44,2.363l-1.613,2.247l-1.786,2.074l-1.958,1.959l2.65,-0.461l2.649,-0.749l2.477,-0.979l2.419,-1.268l-0.115,2.362l-0.346,2.305l-0.518,2.305l-0.806,2.19l-0.98,2.132l-1.209,1.959l-1.383,1.901l-1.612,1.729l-1.728,1.556l-1.844,1.44l-2.016,1.21l-2.131,0.98l-2.189,0.806l-2.246,0.576l-2.361,0.346l-2.304,0.115l3.153,-3.17l0.36,-0.46l0.807,-1.44l0.691,-1.556l-6.048,0.403l1.44,-1.152l1.325,-1.268l1.152,-1.383l1.036,-1.555l0.864,-1.614l0.634,-1.728l-5.414,1.555l1.094,-1.671l0.979,-1.728l0.691,-1.902l0.461,-1.959l0.288,-1.959l0,-2.017l-0.23,-2.016l-3.343,0.515l-2.072,-3.684l-1.324,1.959l-1.095,2.132l-0.921,2.189l-0.692,2.247l-0.403,2.305l-0.23,2.363l-0,2.362l0.23,2.363l-1.267,-0.922l-1.382,-0.807l-1.44,-0.634l-1.556,-0.403l3.341,8.124l0.173,1.729l0.403,1.671l0.634,1.556l0.806,1.555l-2.361,-1.152l-2.247,-1.325l-2.131,-1.556l-1.958,-1.729l-1.786,-1.959l-1.613,-2.074l-1.382,-2.247l-1.152,-2.305l-0.922,-2.478Z"/><path d="M207.175,197.461l2.822,2.824l-3.859,2.478l-13.133,-0l-3.168,-2.132l4.263,-3.17l13.075,0Zm-58.464,-33.477l37.67,26.275l-1.785,3.86l-46.195,-25.871l10.31,-0l0,-4.264Zm117.042,-11.236l-0.345,5.301l-9.216,-0l-0,-5.935l9.561,0.634Zm-129.426,5.992l-5.126,3.631l-16.819,-16.883l8.582,-7.837l13.363,21.089Zm178.098,38.03l-49.708,4.955l-0.692,-3.572l48.269,-7.779l2.131,6.396Zm-9.216,-91.962l5.299,5.301l-49.708,31.23l-1.786,-2.132l46.195,-34.399Zm-41.932,71.68l64.281,-28.35l-2.823,12.734l5.703,3.573l-65.721,16.71l-1.44,-4.667Zm-89.798,23.509l-1.267,2.535l-48.845,-4.379l11.693,-4.264l-2.131,-4.264l40.55,10.372Zm82.252,-2.478l-3.513,4.264l-4.263,-3.918l3.917,-3.515l3.859,3.169Zm46.253,-65.745l15.263,5.704l0,5.647l-15.955,0.346l0.692,-11.697Zm-40.09,-20.57l-4.262,4.955l-14.4,-3.515l6.566,-9.623l12.096,8.183Zm-72.114,57.505l-3.572,4.609l-53.97,-38.317l7.833,-5.013l49.709,38.721Zm-23.098,-61.424l22.003,44.022l-2.765,1.383l-32.025,-46.096l11.405,5.647l1.382,-4.956Zm37.21,1.498l-0,-2.65l12.844,-0l0,9.334l-7.545,0l-5.299,-6.684Z"/></g></g></svg>