<?xml version="1.0" encoding="UTF-8" standalone="no"?><!DOCTYPE svg PUBLIC "-//W3C//DTD SVG 1.1//EN" "http://www.w3.org/Graphics/SVG/1.1/DTD/svg11.dtd"><svg width="100%" height="100%" viewBox="0 0 454 454" version="1.1" xmlns="http://www.w3.org/2000/svg" xmlns:xlink="http://www.w3.org/1999/xlink" xml:space="preserve" xmlns:serif="http://www.serif.com/" style="fill-rule:evenodd;clip-rule:evenodd;stroke-linejoin:round;stroke-miterlimit:2;"><g transform="matrix(50,0,0,50,321.022,262.709)"></g><text x="133.4px" y="262.709px" style="font-family:'ArialMT', 'Arial', sans-serif;font-size:50px;">sw=38.4</text><g id="_625.1-No-Pedestrians" serif:id="625.1 No Pedestrians"><circle cx="226.772" cy="226.772" r="226.772" style="fill:#e31837;"/><circle cx="226.772" cy="226.772" r="181.417" style="fill:#fff;"/><path d="M132.283,317.481l4.445,-3.956l4.311,-4.089l4.222,-4.223l4.045,-4.312l3.955,-4.445l3.822,-4.578l3.645,-4.667l3.511,-4.801l3.378,-4.889l3.244,-4.979l3.067,-5.067l2.933,-5.156l2.8,-5.29l2.622,-5.334l2.445,-5.378l2.266,-5.512l1.689,-4.801l1.556,-4.889l1.333,-4.934l1.2,-4.979l1.022,-5.023l0.845,-5.022l0.711,-5.068l0.533,-5.112l0.356,-5.067l0.177,-5.112l0,-5.156l-0.177,-5.112l-2.267,2.045l-2.178,2.178l-2.044,2.312l-1.911,2.4l-1.778,2.489l-1.6,2.623l-1.467,2.667l-1.333,2.8l-1.111,2.845l-0.978,2.889l-0.8,2.978l-0.667,2.978l-0.222,2.579l-0.133,2.578l0.089,2.622l0.222,2.578l0.4,2.534l0.533,2.534l0.667,2.489l0.267,1.022l0.133,1.023l-0.045,1.022l-0.177,1.022l-0.356,0.978l-0.489,0.889l-0.622,0.845l-0.756,0.711l-0.844,0.578l-0.933,0.489l-0.978,0.311l-1.022,0.178l-1.023,-0l-1.022,-0.178l-2,-0.356l-2,-0.578l-1.911,-0.711l-1.866,-0.844l-1.778,-1.023l-1.689,-1.155l-1.6,-1.245l-1.467,-1.422l-1.377,-1.512l-0.578,-0.933l-0.356,-1.023l-0.222,-1.066l-0,-1.067l0.133,-1.067l0.4,-1.022l0.489,-0.934l0.711,-0.844l0.8,-0.712l0.934,-0.533l1.022,-0.4l0.444,-4.445l0.578,-4.445l0.756,-4.401l0.888,-4.356l1.112,-4.356l1.244,-4.267l1.422,-4.267l1.556,-4.178l1.733,-4.134l1.867,-4.045l2.044,-3.956l2.178,-3.912l2.355,-3.823l2.445,-3.733l2.622,-3.601l2.756,-3.556l2.888,-3.378l2.978,-3.334l3.156,-3.2l1.555,-1.378l1.645,-1.334l1.733,-1.155l1.822,-1.023l2.845,-1.378l2.889,-1.2l2.933,-1.067l3.022,-0.844l3.022,-0.711l3.111,-0.534l3.111,-0.4l3.112,-0.178l0.622,-0.089l0.578,-0.222l0.533,-0.355l0.444,-0.445l0.311,-0.578l0.178,-0.578l0.045,-0.622l-0.045,-0.622l-0.222,-0.623l-0.356,-0.533l-1.2,-1.511l-1.022,-1.645l-0.844,-1.778l-0.711,-1.778l-0.534,-1.867l-0.355,-1.911l-0.178,-1.956l0,-1.911l0.178,-1.956l0.355,-1.912l0.534,-1.866l0.711,-1.778l0.844,-1.778l1.022,-1.645l1.2,-1.511l1.289,-1.467l1.467,-1.289l1.556,-1.156l1.644,-1.022l1.733,-0.845l1.822,-0.711l1.867,-0.534l1.911,-0.355l1.911,-0.178l1.956,0l1.911,0.222l1.911,0.356l1.867,0.533l1.822,0.712l1.733,0.889l1.645,1.022l1.555,1.156l1.422,1.333l1.289,1.423l1.156,1.555l1.022,1.689l0.844,1.734l0.667,1.822l0.533,1.867l0.356,1.912l0.178,1.911l-0.045,1.956l-0.177,1.911l-0.356,1.911l-0.578,1.867l-0.711,1.823l-0.889,1.733l-1.022,1.645l-1.2,1.511l-1.289,1.423l-1.466,1.289l-1.556,1.156l-1.644,1.022l-1.778,0.844l-0.534,0.312l-0.488,0.444l-0.356,0.533l-0.222,0.578l-0.089,0.623l0.044,0.622l0.178,0.622l0.311,0.534l0.445,0.489l21.2,31.292l1.022,3.112l1.155,3.067l1.289,2.978l1.467,2.934l1.644,2.845l1.734,2.756l1.911,2.667l2.044,2.533l2.178,2.445l2.311,2.356l2.4,2.178l2.533,2.089l2.622,1.956l2.712,1.778l2.844,1.689l2.889,1.511l2.978,1.334l3.022,1.2l3.111,1.067l0.444,-0.623l0.578,-0.533l0.667,-0.4l0.755,-0.222l0.756,-0.134l0.8,0.045l0.711,0.222l0.711,0.356l0.622,0.489l0.489,0.577l0.356,0.667l0.222,0.756l0.089,0.756l-0.222,2.444l-0.4,2.445l-0.578,2.356l-0.667,2.356l-0.844,2.311l-0.978,2.267l-0.4,0.622l-0.489,0.578l-0.622,0.445l-0.667,0.311l-0.711,0.178l-0.755,0.044l-0.756,-0.089l-0.711,-0.222l-0.667,-0.4l-0.578,-0.489l-0.444,-0.578l-3.511,-0.444l-3.511,-0.578l-3.467,-0.756l-3.422,-0.933l-3.378,-1.112l-3.289,-1.289l-3.288,-1.422l-3.156,-1.6l-3.111,-1.734l-2.978,-1.867l-2.933,-2.044l-2.8,-2.178l-2.667,-2.312l-2.578,-2.445l-2.444,-2.533l-2.355,-2.712l-2.178,-2.756l-2.045,-2.889l-1.911,-3.022l-1.778,-3.068l-1.6,-3.155l-1.155,3.689l-0.933,3.778l-0.756,3.778l-0.578,3.823l-0.4,3.823l-0.178,3.867l-0.044,3.867l0.178,3.867l0.4,3.867l0.533,3.823l0.756,3.778l0.889,3.779l1.111,3.689l1.289,3.645l1.466,3.6l3.378,6.89l3.556,6.801l3.644,6.756l3.778,6.668l2.044,5.423l1.867,5.512l1.689,5.556l1.555,5.601l1.378,5.645l1.244,5.645l1.111,5.734l0.889,5.734l0.756,5.734l0.622,5.779l0.4,5.778l25.378,2.712l0.622,0.222l0.533,0.4l0.4,0.533l0.267,0.623l0.089,0.622l-0.089,0.667l-0.267,0.622l-0.444,0.489l-0.534,0.356l-39.955,16.935l-1.466,-6.801l-1.645,-6.801l-1.822,-6.756l-2,-6.668l-2.178,-6.667l-2.311,-6.579l-2.489,-6.489l-2.666,-6.49l-2.8,-6.401l-2.978,-6.312l-3.156,-6.223l-3.289,-6.178l-3.422,-6.046l-3.6,-6l-3.733,-5.912l-3.867,-5.779l-4.044,-5.734l-4.178,-5.601l-29.484,46.728l-1.671,1.99l-3.867,4.356l-3.955,4.223l-4.134,4.089l-4.222,4l-4.311,3.868l-4.444,3.733l-4.534,3.601l3.378,14.135l0.356,1.111l0.489,1.067l0.622,0.934l0.8,0.889l0.844,0.755l3.511,2.623l0.356,0.4l0.311,0.444l0.133,0.534l0,0.533l-0.133,0.533l-0.267,0.489l-0.4,0.4l-0.444,0.267l-0.533,0.134l-0.578,0.044l-10.978,-1.378l-1.467,-0.267l-1.422,-0.444l-1.333,-0.622l-1.289,-0.756l-1.2,-0.889l-1.067,-1.022l-0.933,-1.156l-0.8,-1.245l-12.267,-22.225Z"/></g></svg>