<?xml version="1.0" encoding="UTF-8" standalone="no"?><!DOCTYPE svg PUBLIC "-//W3C//DTD SVG 1.1//EN" "http://www.w3.org/Graphics/SVG/1.1/DTD/svg11.dtd"><svg width="100%" height="100%" viewBox="0 0 560 827" version="1.1" xmlns="http://www.w3.org/2000/svg" xmlns:xlink="http://www.w3.org/1999/xlink" xml:space="preserve" xmlns:serif="http://www.serif.com/" style="fill-rule:evenodd;clip-rule:evenodd;stroke-linejoin:round;stroke-miterlimit:2;"><g transform="matrix(50,0,0,50,353.285,431.049)"></g><text x="207.362px" y="431.049px" style="font-family:'ArialMT', 'Arial', sans-serif;font-size:50px;">sw=70</text><g id="_626.2A-No-Vehicles-Exceeding-Maximum-Gross-Weight" serif:id="626.2A No Vehicles Exceeding Maximum Gross Weight"><path d="M559.793,28.707l0,769.357c0,15.844 -12.863,28.708 -28.707,28.708l-502.379,-0c-15.844,-0 -28.707,-12.864 -28.707,-28.708l0,-769.357c0,-15.844 12.863,-28.707 28.707,-28.707l502.379,0c15.844,0 28.707,12.863 28.707,28.707Z"/><path d="M545.44,28.707l-0,258.366c-0,7.922 -6.432,14.354 -14.354,14.354l-502.379,0c-7.922,0 -14.353,-6.432 -14.353,-14.354l-0,-258.366c-0,-7.922 6.431,-14.353 14.353,-14.353l502.379,-0c7.922,-0 14.354,6.431 14.354,14.353Z" style="fill:#fff;"/><path d="M545.44,330.135l-0,467.929c-0,7.922 -6.432,14.354 -14.354,14.354l-502.379,-0c-7.922,-0 -14.353,-6.432 -14.353,-14.354l-0,-467.929c-0,-7.922 6.431,-14.354 14.353,-14.354l502.379,-0c7.922,-0 14.354,6.432 14.354,14.354Z" style="fill:#999;"/><g><g><g><rect x="105.069" y="54.544" width="110.81" height="114.829" style="fill:#fff;"/><path d="M211.506,60.285l-20.075,80.381l-19.229,0l-11.728,-50.702l-11.728,50.702l-19.229,0l-20.075,-80.381l18.701,0l11.623,48.95l11.727,-48.95l18.067,0l11.623,49.156l11.622,-49.156l18.701,0Z" style="fill-rule:nonzero;"/></g><g><rect x="293.963" y="54.544" width="81.529" height="114.829" style="fill:#fff;"/><path d="M371.981,140.666l-18.137,0l-4.225,-14.221l-29.782,-0l-4.329,14.221l-18.034,0l26.382,-80.381l21.538,0l26.587,80.381Zm-26.69,-28.442l-10.512,-34.832l-10.511,34.832l21.023,-0Z" style="fill-rule:nonzero;"/></g><g><rect x="375.492" y="54.544" width="79.232" height="114.829" style="fill:#fff;"/><path d="M453.289,140.666l-20.286,0l-23.244,-34.625l-6.339,6.801l-0,27.824l-16.905,0l-0,-80.381l16.905,0l-0,29.473l26.202,-29.473l22.188,0l-30.429,33.595l31.908,46.786Z" style="fill-rule:nonzero;"/></g><g><rect x="215.879" y="54.544" width="78.084" height="114.829" style="fill:#fff;"/><path d="M282.745,140.666l-55.648,0l0,-80.381l52.557,0l-0,15.87l-36.068,0l-0,16.18l32.667,-0l0,14.839l-32.667,0l-0,17.622l39.159,-0l0,15.87Z" style="fill-rule:nonzero;"/></g></g><g><g><rect x="258.366" y="169.373" width="86.122" height="114.829" style="fill:#fff;"/><path d="M338.747,214.893c-0,5.29 -0.722,10.374 -2.164,15.252c-1.443,4.877 -3.71,9.206 -6.802,12.984c-3.091,3.779 -7.025,6.784 -11.799,9.017c-4.775,2.233 -10.494,3.349 -17.158,3.349l-30.504,0l0,-80.38l30.607,-0c6.595,-0 12.28,1.168 17.055,3.504c4.774,2.335 8.708,5.393 11.799,9.171c3.092,3.779 5.359,8.038 6.802,12.779c1.442,4.74 2.164,9.515 2.164,14.324Zm-17.931,-0.103c-0,-2.748 -0.413,-5.565 -1.237,-8.45c-0.824,-2.886 -2.027,-5.497 -3.607,-7.832c-1.58,-2.336 -3.538,-4.26 -5.874,-5.771c-2.336,-1.512 -4.981,-2.267 -7.935,-2.267l-14.839,-0l-0,49.361l14.118,0c3.366,0 6.269,-0.721 8.708,-2.164c2.439,-1.442 4.448,-3.332 6.028,-5.667c1.58,-2.336 2.748,-5.016 3.504,-8.039c0.756,-3.022 1.134,-6.08 1.134,-9.171Z" style="fill-rule:nonzero;"/></g><g><rect x="47.654" y="169.373" width="83.825" height="114.829" style="fill:#fff;"/><path d="M121.101,231.587c-0,4.054 -0.756,7.575 -2.267,10.563c-1.512,2.989 -3.521,5.462 -6.029,7.42c-2.507,1.958 -5.444,3.435 -8.811,4.431c-3.366,0.996 -6.904,1.494 -10.614,1.494l-35.347,0l0,-80.38l34.625,-0c3.71,-0 7.094,0.567 10.151,1.7c3.057,1.134 5.702,2.714 7.935,4.741c2.233,2.026 3.968,4.379 5.204,7.059c1.237,2.679 1.855,5.564 1.855,8.656c0,1.443 -0.223,2.92 -0.67,4.431c-0.446,1.512 -1.065,2.937 -1.855,4.277c-0.79,1.34 -1.683,2.542 -2.679,3.607c-0.996,1.065 -2.009,1.872 -3.04,2.421c3.71,1.718 6.561,4.191 8.553,7.42c1.993,3.229 2.989,7.283 2.989,12.16Zm-20.508,-34.11c0,-1.305 -0.274,-2.439 -0.824,-3.401c-0.55,-0.961 -1.271,-1.769 -2.164,-2.421c-0.893,-0.653 -1.906,-1.134 -3.04,-1.443c-1.134,-0.309 -2.284,-0.464 -3.452,-0.464l-16.179,0l-0,17.004l15.354,-0c3.504,-0 6.098,-0.807 7.781,-2.422c1.683,-1.614 2.524,-3.899 2.524,-6.853Zm2.371,32.874c-0,-3.229 -1.151,-5.651 -3.453,-7.265c-2.301,-1.615 -4.998,-2.422 -8.089,-2.422l-16.488,-0l-0,19.683l17.003,-0c3.092,-0 5.702,-0.859 7.832,-2.577c2.13,-1.717 3.195,-4.19 3.195,-7.419Z" style="fill-rule:nonzero;"/></g><g><rect x="131.48" y="169.373" width="84.974" height="114.829" style="fill:#fff;"/><path d="M210.712,255.495l-20.392,0l-18.067,-29.782l-10.882,0l-0,29.782l-18.384,0l-0,-80.38l33.915,-0c4.79,-0 8.963,0.67 12.52,2.009c3.557,1.34 6.498,3.161 8.823,5.462c2.324,2.302 4.067,5.032 5.23,8.193c1.162,3.16 1.743,6.595 1.743,10.305c-0,3.229 -0.44,6.08 -1.321,8.553c-0.88,2.474 -2.007,4.586 -3.381,6.338c-1.373,1.752 -2.888,3.212 -4.543,4.38c-1.655,1.168 -3.293,2.095 -4.913,2.782l19.652,32.358Zm-23.456,-55.029c0,-2.955 -0.951,-5.308 -2.852,-7.059c-1.902,-1.752 -4.438,-2.628 -7.608,-2.628l-15.425,-0l-0,19.27l15.425,0.104c3.17,-0 5.706,-0.894 7.608,-2.68c1.901,-1.786 2.852,-4.122 2.852,-7.007Z" style="fill-rule:nonzero;"/></g><g><rect x="216.453" y="169.373" width="41.913" height="114.829" style="fill:#fff;"/><rect x="229.045" y="175.718" width="16.73" height="80.381" style="fill-rule:nonzero;"/></g><g><rect x="344.488" y="169.373" width="89.567" height="114.829" style="fill:#fff;"/><path d="M424.902,255.402l-15.487,0l0,-5.151c-1.957,1.953 -4.622,3.569 -7.997,4.848c-3.374,1.28 -6.815,1.919 -10.324,1.919c-6.479,0 -12.08,-1.178 -16.803,-3.535c-4.724,-2.357 -8.604,-5.438 -11.641,-9.242c-3.037,-3.805 -5.297,-8.114 -6.782,-12.929c-1.485,-4.815 -2.227,-9.714 -2.227,-14.697c-0,-5.185 0.725,-10.252 2.176,-15.201c1.451,-4.95 3.695,-9.377 6.732,-13.283c3.036,-3.905 6.9,-7.037 11.59,-9.393c4.69,-2.357 10.274,-3.536 16.752,-3.536c8.098,0 14.964,1.768 20.599,5.303c5.635,3.535 9.971,8.3 13.007,14.293l-14.778,7.171c-1.485,-3.501 -3.762,-6.262 -6.833,-8.282c-3.07,-2.02 -6.664,-3.031 -10.78,-3.031c-3.712,0 -6.883,0.708 -9.515,2.122c-2.632,1.414 -4.791,3.316 -6.478,5.707c-1.687,2.39 -2.919,5.168 -3.695,8.333c-0.776,3.165 -1.164,6.464 -1.164,9.898c-0,3.367 0.371,6.566 1.113,9.596c0.743,3.03 1.957,5.69 3.644,7.98c1.687,2.289 3.847,4.09 6.479,5.404c2.631,1.313 5.837,1.969 9.616,1.969c5.736,0 10.021,-1.448 12.855,-4.343c2.835,-2.896 4.285,-6.7 4.353,-11.414l-0,-2.02l-20.65,-0l0,-14.04l36.238,-0l0,45.554Z" style="fill-rule:nonzero;"/></g><g><rect x="434.055" y="169.373" width="78.084" height="114.829" style="fill:#fff;"/><path d="M500.921,255.495l-55.648,0l0,-80.38l52.557,-0l-0,15.87l-36.069,-0l0,16.179l32.668,0l-0,14.84l-32.668,-0l0,17.621l39.16,0l0,15.87Z" style="fill-rule:nonzero;"/></g></g></g><circle cx="279.897" cy="564.099" r="215.305" style="fill:#e31837;"/><circle cx="279.897" cy="564.099" r="172.244" style="fill:#fff;"/><g><g><g><rect id="path1698" x="359.129" y="456.447" width="54.257" height="129.183" style="fill:none;"/><path d="M408.977,550.126c-1.875,0.825 -4.162,1.519 -6.861,2.081c-2.699,0.562 -5.699,0.843 -8.998,0.844c-5.998,-0.001 -10.722,-1.406 -14.171,-4.218c-3.45,-2.812 -5.174,-7.367 -5.174,-13.666l-0,-33.067l-10.235,0l-0,-14.959l10.235,0l-0,-16.533l17.658,-7.986l0,24.519l16.309,0l-0,14.959l-16.309,0l0,27.556c0,3.074 0.469,5.118 1.406,6.13c0.937,1.012 2.493,1.518 4.668,1.518c2.774,0 5.661,-0.6 8.66,-1.799l2.812,14.621Z" style="fill-rule:nonzero;"/></g><g><rect x="218.75" y="456.447" width="118.848" height="172.244" style="fill:none;"/><path d="M324.193,550.982c0,5.749 -1.289,10.881 -3.868,15.398c-2.578,4.517 -5.999,8.366 -10.261,11.548c-4.263,3.183 -9.157,5.621 -14.682,7.314c-5.525,1.694 -11.182,2.541 -16.971,2.541c-5.789,-0 -11.446,-0.847 -16.971,-2.541c-5.525,-1.693 -10.472,-4.131 -14.84,-7.314c-4.367,-3.182 -7.867,-7.057 -10.498,-11.625c-2.631,-4.568 -3.947,-9.675 -3.947,-15.321c0,-2.874 0.395,-5.749 1.184,-8.623c0.79,-2.874 1.895,-5.543 3.316,-8.007c1.42,-2.463 3.078,-4.645 4.972,-6.544c1.895,-1.899 3.895,-3.362 5.999,-4.388c-3.683,-2.567 -6.841,-5.98 -9.472,-10.24c-2.631,-4.26 -3.946,-8.854 -3.946,-13.781c-0,-5.646 1.263,-10.702 3.788,-15.167c2.526,-4.465 5.868,-8.289 10.025,-11.471c4.157,-3.183 8.867,-5.621 14.129,-7.314c5.263,-1.694 10.63,-2.541 16.103,-2.541c5.473,0 10.867,0.821 16.182,2.464c5.315,1.642 10.024,4.029 14.129,7.16c4.105,3.131 7.42,6.954 9.946,11.471c2.526,4.517 3.789,9.649 3.789,15.398c-0,4.927 -1.29,9.495 -3.868,13.704c-2.579,4.209 -5.815,7.494 -9.709,9.855c4.526,2.463 8.235,6.262 11.13,11.394c2.894,5.133 4.341,10.676 4.341,16.63Zm-27.943,-51.121c0,-1.95 -0.473,-3.824 -1.421,-5.62c-0.947,-1.797 -2.236,-3.362 -3.867,-4.697c-1.632,-1.334 -3.552,-2.386 -5.763,-3.156c-2.21,-0.77 -4.578,-1.155 -7.104,-1.155c-2.526,-0 -4.894,0.385 -7.104,1.155c-2.21,0.77 -4.131,1.822 -5.762,3.156c-1.631,1.335 -2.894,2.9 -3.789,4.697c-0.895,1.796 -1.342,3.67 -1.342,5.62c0,1.95 0.447,3.798 1.342,5.543c0.895,1.745 2.158,3.285 3.789,4.62c1.631,1.334 3.552,2.386 5.762,3.156c2.21,0.77 4.578,1.155 7.104,1.155c2.526,-0 4.894,-0.385 7.104,-1.155c2.211,-0.77 4.131,-1.822 5.763,-3.156c1.631,-1.335 2.92,-2.875 3.867,-4.62c0.948,-1.745 1.421,-3.593 1.421,-5.543Zm2.368,50.043c0,-2.053 -0.5,-4.029 -1.499,-5.928c-1,-1.899 -2.421,-3.567 -4.263,-5.004c-1.842,-1.438 -3.999,-2.567 -6.473,-3.388c-2.473,-0.821 -5.13,-1.232 -7.972,-1.232c-2.947,0 -5.657,0.411 -8.13,1.232c-2.474,0.821 -4.605,1.95 -6.394,3.388c-1.789,1.437 -3.184,3.105 -4.184,5.004c-0.999,1.899 -1.499,3.875 -1.499,5.928c-0,2.053 0.5,4.029 1.499,5.928c1,1.899 2.395,3.568 4.184,5.005c1.789,1.437 3.92,2.592 6.394,3.464c2.473,0.873 5.183,1.309 8.13,1.309c2.842,-0 5.499,-0.436 7.972,-1.309c2.474,-0.872 4.631,-2.027 6.473,-3.464c1.842,-1.437 3.263,-3.106 4.263,-5.005c0.999,-1.899 1.499,-3.875 1.499,-5.928Z" style="fill-rule:nonzero;"/></g><g><rect x="146.407" y="456.447" width="72.343" height="172.244" style="fill:none;"/><path d="M199.778,585.707l-26.308,0l-0,-82.699l-20.603,0l-0,-19.941c4.12,-0.206 7.739,-0.566 10.856,-1.082c3.117,-0.515 5.626,-1.442 7.528,-2.782c1.796,-1.34 3.09,-3.04 3.883,-5.101c0.792,-2.061 1.4,-5.05 1.822,-8.966l22.822,0l-0,120.571Z" style="fill-rule:nonzero;"/></g></g><g><g><rect id="path16981" serif:id="path1698" x="257.505" y="607.16" width="50.381" height="86.122" style="fill:none;"/><path d="M300.217,670.267c-0,2.997 -0.528,5.491 -1.585,7.482c-1.057,1.99 -2.482,3.575 -4.276,4.754c-1.793,1.18 -3.857,2.015 -6.192,2.507c-2.334,0.491 -4.779,0.737 -7.334,0.737c-2.851,-0 -5.775,-0.418 -8.773,-1.253c-2.997,-0.836 -5.651,-1.942 -7.961,-3.318l3.981,-9.14c2.457,1.179 4.681,2.027 6.671,2.543c1.99,0.516 4.042,0.774 6.155,0.774c0.983,-0 1.954,-0.086 2.912,-0.258c0.958,-0.172 1.806,-0.479 2.543,-0.922c0.737,-0.442 1.339,-1.032 1.806,-1.769c0.467,-0.737 0.701,-1.671 0.701,-2.801l-0,-3.612c-1.131,0.983 -2.507,1.757 -4.128,2.322c-1.622,0.565 -3.219,0.848 -4.792,0.848c-2.949,-0 -5.553,-0.516 -7.814,-1.548c-2.26,-1.032 -4.152,-2.457 -5.676,-4.276c-1.523,-1.818 -2.678,-3.98 -3.465,-6.487c-0.786,-2.506 -1.179,-5.234 -1.179,-8.182c0,-2.703 0.442,-5.271 1.327,-7.703c0.884,-2.433 2.125,-4.558 3.723,-6.377c1.597,-1.818 3.476,-3.256 5.639,-4.312c2.162,-1.057 4.521,-1.585 7.076,-1.585c1.966,-0 3.772,0.332 5.419,0.995c1.646,0.664 2.936,1.56 3.87,2.691l-0,-2.507l11.352,0l-0,40.397Zm-11.131,-21.378c-0,-1.278 -0.148,-2.494 -0.443,-3.649c-0.294,-1.155 -0.761,-2.162 -1.4,-3.022c-0.639,-0.86 -1.45,-1.548 -2.433,-2.064c-0.983,-0.516 -2.162,-0.774 -3.538,-0.774c-1.327,-0 -2.482,0.258 -3.465,0.774c-0.983,0.516 -1.806,1.204 -2.469,2.064c-0.664,0.86 -1.155,1.867 -1.474,3.022c-0.32,1.155 -0.48,2.371 -0.48,3.649c0,1.327 0.148,2.568 0.443,3.723c0.295,1.155 0.761,2.162 1.4,3.022c0.639,0.86 1.45,1.548 2.433,2.064c0.983,0.516 2.187,0.774 3.612,0.774c1.376,0 2.555,-0.258 3.538,-0.774c0.983,-0.516 1.794,-1.204 2.433,-2.064c0.639,-0.86 1.106,-1.867 1.4,-3.022c0.295,-1.155 0.443,-2.396 0.443,-3.723Z" style="fill-rule:nonzero;"/></g><g><rect id="path16982" serif:id="path1698" x="325.111" y="607.16" width="68.898" height="86.122" style="fill:none;"/><path d="M388.18,628.691l-12.517,43.061l-11.986,-0l-5.993,-24.336l-5.917,24.336l-11.986,-0l-12.517,-43.061l12.365,-0l6.297,23.805l5.462,-23.805l12.669,-0l5.462,23.805l6.296,-23.805l12.365,-0Z" style="fill-rule:nonzero;"/></g><g><rect id="path16983" serif:id="path1698" x="165.785" y="607.16" width="74.496" height="86.122" style="fill:none;"/><path d="M233.41,671.752l-12.014,-0l0,-27.07c0,-2.129 -0.491,-3.713 -1.474,-4.752c-0.982,-1.039 -2.28,-1.559 -3.891,-1.559c-0.756,-0 -1.549,0.165 -2.381,0.494c-0.831,0.33 -1.574,0.811 -2.229,1.445c-0.655,0.634 -1.197,1.445 -1.625,2.433c-0.428,0.989 -0.642,2.117 -0.642,3.384l-0,25.625l-12.09,-0l-0.076,-27.146c-0,-2.18 -0.469,-3.776 -1.407,-4.79c-0.938,-1.014 -2.142,-1.521 -3.612,-1.521c-0.963,-0 -1.876,0.152 -2.737,0.456c-0.862,0.304 -1.635,0.773 -2.32,1.407c-0.684,0.633 -1.229,1.445 -1.634,2.433c-0.406,0.989 -0.609,2.193 -0.609,3.612l0,25.549l-12.014,-0l0,-43.19l12.014,-0l0,2.661c1.268,-1.216 2.712,-2.154 4.335,-2.813c1.622,-0.659 3.219,-0.989 4.79,-0.989c2.383,0 4.575,0.469 6.577,1.407c2.003,0.938 3.587,2.345 4.753,4.22c2.788,-3.802 7.021,-5.703 12.698,-5.703c4.917,0 8.745,1.394 11.482,4.182c2.738,2.789 4.106,6.717 4.106,11.786l0,28.439Z" style="fill-rule:nonzero;"/></g></g></g></g></svg>