<?xml version="1.0" encoding="UTF-8" standalone="no"?><!DOCTYPE svg PUBLIC "-//W3C//DTD SVG 1.1//EN" "http://www.w3.org/Graphics/SVG/1.1/DTD/svg11.dtd"><svg width="100%" height="100%" viewBox="0 0 454 454" version="1.1" xmlns="http://www.w3.org/2000/svg" xmlns:xlink="http://www.w3.org/1999/xlink" xml:space="preserve" xmlns:serif="http://www.serif.com/" style="fill-rule:evenodd;clip-rule:evenodd;stroke-linejoin:round;stroke-miterlimit:2;"><g transform="matrix(50,0,0,50,321.022,262.709)"></g><text x="133.4px" y="262.709px" style="font-family:'ArialMT', 'Arial', sans-serif;font-size:50px;">sw=38.4</text><g id="_629.2A-No-Vehicles-Over-Maximum-Headroom" serif:id="629.2A No Vehicles Over Maximum Headroom"><circle cx="226.772" cy="226.772" r="226.772" style="fill:#e31837;"/><circle cx="225.449" cy="225.449" r="181.417" style="fill:#fff;"/><g><path d="M226.765,116.733l33.266,-57.583l-66.519,-0l33.253,57.583"/><path d="M226.765,334.164l33.266,57.584l-66.519,0l33.253,-57.584"/></g><g><path id="path1880" d="M125.398,117.954l-41.164,54.386l-0,15.68l45.964,-0l-0,14.502l17.382,-0l-0,-14.502l10.88,-0l-0,-15.68l-10.88,0l-0,-54.386l-22.182,-0Zm4.8,18.982l-0,35.404l-26.764,0l26.764,-35.404Z" style="fill:#010001;fill-rule:nonzero;"/><path id="path18801" serif:id="path1880" d="M236.318,134.88l-32.931,43.509l-0,12.543l36.771,0l-0,11.602l13.906,0l-0,-11.602l8.703,0l0,-12.543l-8.703,-0l-0,-43.509l-17.746,-0Zm3.84,15.185l-0,28.324l-21.411,-0l21.411,-28.324Z" style="fill:#010001;fill-rule:nonzero;"/><path id="path1724" d="M193.454,196.557l-0.218,-2.022l-0.64,-1.92l-1.062,-1.703l-1.498,-1.395l-1.702,-1.062l-1.92,-0.743l-2.023,-0.218l-2.035,0.218l-1.805,0.743l-1.817,1.062l-1.383,1.395l-1.074,1.703l-0.64,1.92l-0.32,2.022l0.32,2.035l0.64,1.92l1.074,1.703l1.383,1.498l1.817,1.062l1.805,0.64l2.035,0.218l2.023,-0.218l1.92,-0.64l1.702,-1.062l1.498,-1.498l1.062,-1.703l0.64,-1.92l0.218,-2.035Z" style="fill:#010001;fill-rule:nonzero;"/><path id="path1748" d="M359.838,160.725l-1.71,-1.956l-1.967,-1.71l-2.129,-1.454l-2.304,-1.188l-2.468,-0.86l-2.816,-0.511l-2.14,-0.085l-2.13,0.257l-2.13,0.43l-1.966,0.676l-1.966,0.942l-1.792,1.28l-1.618,1.454l-1.454,1.7l-1.188,-1.874l-1.454,-1.536l-1.7,-1.28l-1.966,-0.942l-1.536,-0.511l-2.815,-0.512l-2.478,-0.085l-2.386,0.338l-2.386,0.604l-2.222,0.932l-2.13,1.28l-1.966,1.536l-0,-3.41l-13.22,-0l0,48.291l13.22,-0l-0,-29.01l0.174,-1.699l0.676,-1.629l1.024,-1.535l1.372,-1.28l1.536,-1.025l2.724,-0.931l1.025,-0.097l0.942,0.097l0.43,0.085l1.792,0.768l1.28,1.105l1.025,1.372l0.676,1.618l0.43,1.71l0.085,1.7l0,28.753l13.23,0l-0,-29.009l0.164,-1.7l0.604,-1.628l1.105,-1.536l1.362,-1.28l1.536,-1.024l2.734,-0.932l0.942,-0.096l1.025,0.096l0.337,0.085l1.792,0.768l1.28,1.105l1.106,1.373l0.685,1.617l0.338,1.71l0.097,1.7l-0,28.754l13.219,-0l-13.219,-0l13.219,-0l0,-28.836l-0.084,-2.816l-0.512,-2.734l-0.768,-2.642l-1.116,-2.559l-1.45,-2.224Z" style="fill:#010001;fill-rule:nonzero;"/><path id="path1888" d="M280.146,254.626l-3.758,0.175l-3.665,0.419l-2.222,0.523l-2.048,0.757l-2.468,1.28l-2.386,1.454l-2.048,1.792l-1.884,2.048l-1.7,2.222l-1.28,2.468l-1.116,2.478l-0.85,2.478l-1.024,4.178l-0.686,4.27l-0.42,4.26l-0.092,4.27l0.256,4.26l0.43,4.27l0.85,4.177l1.116,4.096l0.42,1.362l0.86,2.56l1.188,2.396l1.454,2.212l0.338,0.512l1.884,2.14l2.13,1.956l2.386,1.71l2.56,1.28l3.072,0.942l3.072,0.594l3.153,0.338l3.165,0.092l3.153,-0.256l3.154,-0.512l3.072,-0.768l2.222,-1.116l2.13,-1.28l1.874,-1.618l1.792,-1.792l1.454,-1.966l1.198,-2.212l0.932,-2.304l0.942,-3.666l0.512,-3.758l0.082,-3.758l-0,-2.641l-0.338,-2.642l-0.594,-2.652l-0.86,-2.468l-1.024,-2.478l-1.536,-2.048l-1.7,-1.874l-1.966,-1.71l-2.13,-1.362l-2.304,-1.106l-2.386,-0.942l-2.478,-0.512l-2.56,-0.256l-2.99,-0.082l-3.072,0.338l-2.897,0.676l-2.816,1.034l-2.734,1.362l-2.56,1.7l0.092,-2.13l0.43,-2.13l0.594,-2.048l0.932,-1.966l1.198,-1.792l1.362,-1.618l1.628,-1.454l1.792,-0.932l1.874,-0.512l1.966,-0.348l1.955,0.092l1.966,0.256l1.874,0.676l1.536,0.686l1.28,0.942l1.024,1.28l0.768,1.444l0.512,1.536l12.8,-4.772l-0.686,-2.14l-0.85,-1.956l-1.198,-1.966l-1.362,-1.71l-1.536,-1.536l-1.792,-1.362l-1.874,-1.106l-2.048,-0.86l-3.072,-1.024l-3.758,-0.594l-3.666,-0.256Zm-1.105,34.304l1.699,0.164l1.628,0.43l1.536,0.686l1.444,0.932l1.198,1.116l1.024,1.362l0.85,1.617l0.604,1.711l0.42,1.792l0.092,1.792l-0.092,1.791l-0.42,1.792l-0.604,1.618l-0.85,1.628l-1.024,1.362l-1.198,1.188l-1.444,0.942l-1.536,0.686l-1.628,0.42l-1.699,0.092l-2.222,-0.174l-2.13,-0.594l-1.966,-0.942l-1.792,-1.362l-1.444,-1.618l-0.86,-1.628l-0.594,-1.618l-0.43,-1.792l-0.082,-1.791l0.082,-1.792l0.43,-1.792l0.594,-1.711l0.86,-1.617l1.444,-1.618l1.792,-1.28l1.966,-1.024l2.13,-0.604l2.222,-0.164Z" style="fill:#010001;fill-rule:nonzero;"/><path id="path18802" serif:id="path1880" d="M170.325,255.824l-32.931,43.509l-0,12.544l36.771,0l-0,11.602l13.905,-0l0,-11.602l8.704,0l0,-12.544l-8.704,0l0,-43.509l-17.745,0Zm3.84,15.186l-0,28.323l-21.412,0l21.412,-28.323Z" style="fill:#010001;fill-rule:nonzero;"/><path id="path1876" d="M110.002,277.666l-11.264,0l0,-11.602l5.55,-0.512l1.71,-0.43l1.536,-0.768l1.362,-1.106l0.942,-1.454l0.676,-1.536l1.116,-4.526l12.278,0l-0,67.747l-13.906,-0l0,-45.813Z" style="fill:#010001;fill-rule:nonzero;"/><path id="path1768" d="M217.172,251.729l-10.752,18.605l14.51,0l10.752,-18.605l-14.51,-0Zm-2.304,27.309l-0,11.602l23.214,-0l-0,-11.602l-23.214,0Z" style="fill:#010001;fill-rule:nonzero;"/><path id="path1776" d="M324.004,251.729l-10.752,18.605l14.499,0l10.752,-18.605l-14.499,-0Zm19.363,-0l-10.752,18.605l14.51,0l10.752,-18.605l-14.51,-0Z" style="fill:#010001;fill-rule:nonzero;"/></g></g></svg>