<?xml version="1.0" encoding="UTF-8" standalone="no"?><!DOCTYPE svg PUBLIC "-//W3C//DTD SVG 1.1//EN" "http://www.w3.org/Graphics/SVG/1.1/DTD/svg11.dtd"><svg width="100%" height="100%" viewBox="0 0 454 454" version="1.1" xmlns="http://www.w3.org/2000/svg" xmlns:xlink="http://www.w3.org/1999/xlink" xml:space="preserve" xmlns:serif="http://www.serif.com/" style="fill-rule:evenodd;clip-rule:evenodd;stroke-linejoin:round;stroke-miterlimit:2;"><g transform="matrix(50,0,0,50,321.125,244.423)"></g><text x="133.502px" y="244.423px" style="font-family:'ArialMT', 'Arial', sans-serif;font-size:50px;">sw=38.4</text><g><circle cx="226.772" cy="226.772" r="226.772" style="fill:#e31837;"/><circle cx="226.772" cy="226.772" r="181.417" style="fill:#fff;"/><path d="M280.435,207.282l-113.048,0l-0,-0.04c-0.001,-11.883 -9.631,-21.515 -21.51,-21.514c-11.879,0 -21.508,9.633 -21.508,21.516l-0,0.038l-7.773,0l-6.849,-32.563l0.002,-0.07c-0.806,-3.85 1.59,-7.652 5.399,-8.629l5.219,-29.56l-0.046,-0.079c1.028,-5.831 6.093,-10.083 12.013,-10.083l0.038,0.077l33.707,0l-0.039,-0.077c2.699,0 4.887,2.188 4.887,4.888l0.077,0.039l-0,27.251l9.773,0l0,-43.956l-0.077,-0.038c0,-2.7 2.188,-4.889 4.887,-4.889l153.45,0l0.039,0c2.681,0.021 4.848,2.201 4.848,4.888l-0,92.801l-24.395,0l-0.077,-0.038c-0,10.777 -8.734,19.515 -19.508,19.515c-10.762,-0 -19.488,-8.717 -19.509,-19.477Zm19.509,-9.776c-5.377,-0 -9.735,4.36 -9.735,9.738c-0,5.378 4.358,9.738 9.735,9.738c5.376,-0 9.735,-4.36 9.735,-9.738c-0,-5.378 -4.359,-9.738 -9.735,-9.738Zm-172.115,-59.47l0.003,0.04l-3.54,20.4l29.243,0l-0,-24.48l-20.894,0c-2.371,0 -4.4,1.704 -4.812,4.04Zm18.049,49.693c10.774,0 19.508,8.737 19.508,19.515c0,10.777 -8.734,19.515 -19.508,19.515c-10.774,-0 -19.509,-8.738 -19.509,-19.515c0,-10.778 8.735,-19.515 19.509,-19.515Zm-0,9.777c-5.377,-0 -9.735,4.36 -9.735,9.738c-0,5.378 4.358,9.738 9.735,9.738c5.376,-0 9.735,-4.36 9.735,-9.738c-0,-5.378 -4.359,-9.738 -9.735,-9.738Z"/><g><g><rect id="path1698" x="267.483" y="257.826" width="65.386" height="75.591" style="fill:#fff;"/><path d="M326.839,314.519l-10.545,0l-0,-23.759c-0,-1.869 -0.432,-3.26 -1.294,-4.172c-0.862,-0.912 -2.001,-1.368 -3.416,-1.368c-0.663,0 -1.359,0.145 -2.089,0.434c-0.73,0.289 -1.382,0.712 -1.957,1.268c-0.575,0.556 -1.05,1.268 -1.426,2.136c-0.376,0.867 -0.564,1.857 -0.564,2.97l0,22.491l-10.611,0l-0.067,-23.826c0,-1.913 -0.412,-3.315 -1.235,-4.205c-0.823,-0.89 -1.88,-1.335 -3.17,-1.335c-0.845,0 -1.646,0.134 -2.403,0.401c-0.756,0.267 -1.434,0.678 -2.035,1.235c-0.601,0.556 -1.079,1.268 -1.435,2.135c-0.356,0.868 -0.534,1.925 -0.534,3.17l0,22.425l-10.545,0l0,-37.908l10.545,-0l0,2.336c1.112,-1.068 2.38,-1.891 3.804,-2.47c1.424,-0.578 2.826,-0.867 4.205,-0.867c2.091,-0 4.015,0.411 5.773,1.234c1.757,0.823 3.148,2.058 4.171,3.704c2.447,-3.337 6.163,-5.005 11.146,-5.005c4.316,-0 7.675,1.223 10.078,3.671c2.402,2.447 3.604,5.895 3.604,10.344l-0,24.961Z" style="fill-rule:nonzero;"/></g><g><rect id="path16981" serif:id="path1698" x="179.155" y="245.656" width="25.398" height="90.709" style="fill:#fff;"/><path d="M198.658,306.845c-0,1.909 -0.663,3.527 -1.989,4.853c-1.327,1.327 -2.918,1.99 -4.775,1.99c-1.909,-0 -3.527,-0.663 -4.853,-1.99c-1.326,-1.326 -1.99,-2.944 -1.99,-4.853c0,-1.857 0.664,-3.448 1.99,-4.774c1.326,-1.327 2.944,-1.99 4.853,-1.99c1.857,0 3.448,0.663 4.775,1.99c1.326,1.326 1.989,2.917 1.989,4.774Z" style="fill-rule:nonzero;"/></g><g><rect x="120.648" y="245.656" width="58.507" height="90.709" style="fill:#fff;"/><path d="M174.511,281.413c-0,4.162 -0.471,8.244 -1.413,12.244c-0.943,4.001 -2.453,7.568 -4.532,10.704c-2.078,3.135 -4.808,5.663 -8.189,7.582c-3.381,1.919 -7.51,2.879 -12.387,2.879c-4.49,-0 -8.411,-0.974 -11.764,-2.92c-3.354,-1.946 -6.083,-4.784 -8.19,-8.514l11.474,-5.514c2.161,3.568 5.21,5.352 9.145,5.352c1.496,-0 2.937,-0.271 4.323,-0.811c1.386,-0.541 2.619,-1.379 3.7,-2.514c1.08,-1.135 1.967,-2.581 2.66,-4.338c0.693,-1.757 1.122,-3.852 1.289,-6.285c-1.663,1.406 -3.617,2.528 -5.862,3.366c-2.244,0.837 -4.503,1.256 -6.775,1.256c-3.603,0 -6.804,-0.567 -9.603,-1.702c-2.799,-1.136 -5.168,-2.703 -7.108,-4.704c-1.94,-2 -3.423,-4.365 -4.448,-7.095c-1.025,-2.73 -1.538,-5.69 -1.538,-8.879c-0,-3.136 0.513,-6.069 1.538,-8.799c1.025,-2.73 2.522,-5.108 4.489,-7.136c1.968,-2.027 4.351,-3.622 7.15,-4.784c2.799,-1.162 5.972,-1.743 9.52,-1.743c5.099,-0 9.353,0.919 12.761,2.757c3.409,1.838 6.125,4.257 8.148,7.257c2.023,3.001 3.464,6.447 4.323,10.339c0.859,3.893 1.289,7.893 1.289,12.002Zm-14.383,-9.731c-0,-1.622 -0.263,-3.095 -0.79,-4.42c-0.526,-1.324 -1.275,-2.446 -2.245,-3.365c-0.97,-0.919 -2.106,-1.635 -3.408,-2.149c-1.303,-0.513 -2.73,-0.77 -4.282,-0.77c-3.159,-0 -5.723,0.973 -7.69,2.919c-1.968,1.946 -2.952,4.541 -2.952,7.785c0,3.243 0.984,5.825 2.952,7.744c1.967,1.919 4.531,2.879 7.69,2.879c3.104,-0 5.667,-0.96 7.69,-2.879c2.023,-1.919 3.035,-4.501 3.035,-7.744Z" style="fill-rule:nonzero;"/></g><g><rect x="204.554" y="257.826" width="48.756" height="75.591" style="fill:#fff;"/><path d="M249.439,287.623c0,3.469 -0.392,6.87 -1.178,10.204c-0.785,3.334 -2.043,6.307 -3.775,8.92c-1.732,2.613 -4.007,4.719 -6.825,6.318c-2.817,1.599 -6.258,2.399 -10.323,2.399c-3.741,0 -7.009,-0.811 -9.803,-2.433c-2.795,-1.621 -5.069,-3.987 -6.824,-7.095l9.561,-4.595c1.801,2.973 4.341,4.46 7.621,4.46c1.247,-0 2.448,-0.225 3.602,-0.676c1.155,-0.45 2.183,-1.149 3.083,-2.095c0.901,-0.946 1.64,-2.151 2.217,-3.615c0.578,-1.464 0.936,-3.21 1.074,-5.237c-1.385,1.171 -3.014,2.106 -4.884,2.804c-1.871,0.699 -3.753,1.048 -5.647,1.048c-3.002,-0 -5.669,-0.473 -8.002,-1.419c-2.332,-0.946 -4.307,-2.253 -5.923,-3.92c-1.617,-1.666 -2.853,-3.637 -3.707,-5.912c-0.854,-2.275 -1.282,-4.742 -1.282,-7.4c0,-2.613 0.428,-5.057 1.282,-7.332c0.854,-2.275 2.102,-4.257 3.741,-5.946c1.64,-1.69 3.626,-3.019 5.958,-3.987c2.333,-0.969 4.977,-1.453 7.933,-1.453c4.25,-0 7.795,0.766 10.635,2.297c2.841,1.532 5.104,3.548 6.79,6.048c1.686,2.501 2.887,5.373 3.602,8.616c0.716,3.244 1.074,6.577 1.074,10.001Zm-11.986,-8.109c0,-1.351 -0.219,-2.579 -0.658,-3.683c-0.438,-1.103 -1.062,-2.038 -1.87,-2.804c-0.809,-0.766 -1.755,-1.363 -2.841,-1.791c-1.085,-0.428 -2.275,-0.642 -3.568,-0.642c-2.633,0 -4.769,0.811 -6.409,2.433c-1.639,1.622 -2.459,3.784 -2.459,6.487c-0,2.703 0.82,4.854 2.459,6.454c1.64,1.599 3.776,2.399 6.409,2.399c2.587,-0 4.723,-0.8 6.409,-2.399c1.686,-1.6 2.528,-3.751 2.528,-6.454Z" style="fill-rule:nonzero;"/></g></g><path d="M303.609,361.562l-50.394,-0l0,-12.599l50.394,0l-12.598,-12.598l18.897,-0l18.898,18.897l-18.898,18.898l-18.897,0l12.598,-12.598Z"/><path d="M149.908,361.562l50.394,-0l-0,-12.599l-50.394,0l12.599,-12.598l-18.898,-0l-18.898,18.897l18.898,18.898l18.898,0l-12.599,-12.598Z"/></g></svg>