<?xml version="1.0" encoding="UTF-8" standalone="no"?><!DOCTYPE svg PUBLIC "-//W3C//DTD SVG 1.1//EN" "http://www.w3.org/Graphics/SVG/1.1/DTD/svg11.dtd"><svg width="100%" height="100%" viewBox="0 0 454 454" version="1.1" xmlns="http://www.w3.org/2000/svg" xmlns:xlink="http://www.w3.org/1999/xlink" xml:space="preserve" xmlns:serif="http://www.serif.com/" style="fill-rule:evenodd;clip-rule:evenodd;stroke-linejoin:round;stroke-miterlimit:2;"><g transform="matrix(50,0,0,50,320.92,262.027)"></g><text x="133.298px" y="262.027px" style="font-family:'ArialMT', 'Arial', sans-serif;font-size:50px;">sw=38.4</text><g><circle cx="226.772" cy="226.772" r="226.772" style="fill:#e31837;"/><circle cx="226.772" cy="226.772" r="181.417" style="fill:#fff;"/><path d="M280.435,207.282l-113.048,0l-0,-0.04c-0.001,-11.883 -9.631,-21.515 -21.51,-21.514c-11.879,0 -21.508,9.633 -21.508,21.516l-0,0.038l-7.773,0l-6.849,-32.563l0.002,-0.07c-0.806,-3.85 1.59,-7.652 5.399,-8.629l5.219,-29.56l-0.046,-0.079c1.028,-5.831 6.093,-10.083 12.013,-10.083l0.038,0.077l33.707,0l-0.039,-0.077c2.699,0 4.887,2.188 4.887,4.888l0.077,0.039l-0,27.251l9.773,0l0,-43.956l-0.077,-0.038c0,-2.7 2.188,-4.889 4.887,-4.889l153.45,0l0.039,0c2.681,0.021 4.848,2.201 4.848,4.888l-0,92.801l-24.395,0l-0.077,-0.038c-0,10.777 -8.734,19.515 -19.508,19.515c-10.762,-0 -19.488,-8.717 -19.509,-19.477Zm19.509,-9.776c-5.377,-0 -9.735,4.36 -9.735,9.738c-0,5.378 4.358,9.738 9.735,9.738c5.376,-0 9.735,-4.36 9.735,-9.738c-0,-5.378 -4.359,-9.738 -9.735,-9.738Zm-172.115,-59.47l0.003,0.04l-3.54,20.4l29.243,0l-0,-24.48l-20.894,0c-2.371,0 -4.4,1.704 -4.812,4.04Zm18.049,49.693c10.774,0 19.508,8.737 19.508,19.515c0,10.777 -8.734,19.515 -19.508,19.515c-10.774,-0 -19.509,-8.738 -19.509,-19.515c0,-10.778 8.735,-19.515 19.509,-19.515Zm-0,9.777c-5.377,-0 -9.735,4.36 -9.735,9.738c-0,5.378 4.358,9.738 9.735,9.738c5.376,-0 9.735,-4.36 9.735,-9.738c-0,-5.378 -4.359,-9.738 -9.735,-9.738Z"/><g><g><rect id="path1698" x="298.003" y="245.656" width="38.173" height="75.591" style="fill:#fff;"/><path id="path1768" d="M324.359,246.601l10.149,0c0,0 -8.046,13.923 -8.046,13.923c0,0 -10.149,0 -10.149,0l8.046,-13.923Z" style="fill:#010001;fill-rule:nonzero;"/><path id="path17681" serif:id="path1768" d="M308.631,246.601l10.149,0c0,0 -8.046,13.923 -8.046,13.923c0,0 -10.149,0 -10.149,0l8.046,-13.923Z" style="fill:#010001;fill-rule:nonzero;"/></g><g><rect id="path16981" serif:id="path1698" x="215.987" y="245.656" width="33.26" height="75.591" style="fill:#fff;"/><path id="path17682" serif:id="path1768" d="M227.287,269.812l17.84,-0c-0,-0 -0,7.97 -0,7.97c-0,0 -17.84,0 -17.84,0l-0,-7.97Zm1.558,-23.211l10.15,0c-0,0 -8.046,13.923 -8.046,13.923c-0,0 -10.15,0 -10.15,0l8.046,-13.923Z" style="fill:#010001;fill-rule:nonzero;"/></g><g><rect x="249.247" y="245.656" width="48.756" height="75.591" style="fill:#fff;"/><path d="M294.098,284.508c-0,2.658 -0.427,5.125 -1.28,7.4c-0.853,2.275 -2.098,4.257 -3.735,5.946c-1.637,1.69 -3.619,3.019 -5.948,3.987c-2.328,0.969 -4.968,1.453 -7.919,1.453c-4.243,-0 -7.77,-0.755 -10.583,-2.264c-2.812,-1.509 -5.071,-3.514 -6.778,-6.014c-1.706,-2.5 -2.916,-5.372 -3.631,-8.616c-0.715,-3.243 -1.072,-6.6 -1.072,-10.068c-0,-3.469 0.392,-6.87 1.178,-10.204c0.785,-3.334 2.043,-6.307 3.775,-8.92c1.733,-2.613 4.007,-4.719 6.825,-6.318c2.817,-1.6 6.258,-2.399 10.323,-2.399c3.787,-0 7.067,0.811 9.838,2.433c2.771,1.621 5.034,3.986 6.79,7.095l-9.561,4.595c-1.802,-2.973 -4.319,-4.46 -7.552,-4.46c-2.587,0 -4.815,0.924 -6.686,2.771c-1.87,1.847 -2.967,4.752 -3.291,8.717c1.475,-1.217 3.145,-2.14 5.011,-2.771c1.867,-0.631 3.675,-0.946 5.426,-0.946c2.949,0 5.599,0.473 7.949,1.419c2.35,0.946 4.331,2.241 5.944,3.886c1.613,1.644 2.846,3.604 3.698,5.879c0.852,2.275 1.279,4.741 1.279,7.399Zm-11.086,-0.067c0,-2.703 -0.831,-4.855 -2.494,-6.454c-1.663,-1.599 -3.81,-2.399 -6.443,-2.399c-2.587,0 -4.711,0.8 -6.374,2.399c-1.663,1.599 -2.494,3.751 -2.494,6.454c-0,2.703 0.831,4.865 2.494,6.487c1.663,1.622 3.787,2.432 6.374,2.432c2.633,0 4.78,-0.81 6.443,-2.432c1.663,-1.622 2.494,-3.784 2.494,-6.487Z" style="fill-rule:nonzero;"/></g><g><rect x="117.341" y="245.656" width="51.402" height="75.591" style="fill:#fff;"/><path d="M160.641,286.9c-0,2.484 -0.428,4.742 -1.285,6.775c-0.857,2.032 -2.095,3.759 -3.716,5.182c-1.62,1.422 -3.6,2.518 -5.938,3.285c-2.338,0.768 -4.989,1.152 -7.952,1.152c-5.973,-0 -10.754,-1.445 -14.343,-4.335c-3.588,-2.891 -5.915,-6.978 -6.98,-12.262l11.113,-2.371c0.417,2.891 1.458,5.103 3.125,6.639c1.667,1.535 3.774,2.303 6.321,2.303c2.639,0 4.665,-0.53 6.077,-1.592c1.412,-1.061 2.118,-2.743 2.118,-5.047c0,-1.49 -0.312,-2.698 -0.937,-3.624c-0.626,-0.926 -1.494,-1.626 -2.605,-2.1c-1.111,-0.474 -2.396,-0.745 -3.855,-0.813c-1.458,-0.067 -3.021,-0.011 -4.688,0.17l0,-9.552l2.57,0c1.158,0 2.28,-0.113 3.369,-0.339c1.088,-0.225 2.048,-0.564 2.882,-1.016c0.833,-0.451 1.505,-1.05 2.014,-1.795c0.509,-0.745 0.764,-1.66 0.764,-2.743c-0,-1.762 -0.602,-3.196 -1.806,-4.302c-1.204,-1.106 -3.195,-1.66 -5.973,-1.66c-2.593,0 -4.595,0.61 -6.008,1.829c-1.412,1.22 -2.442,3.026 -3.09,5.42l-10.766,-2.439c1.436,-5.194 3.878,-9.021 7.328,-11.482c3.449,-2.462 7.906,-3.692 13.37,-3.692c2.824,-0 5.371,0.372 7.639,1.118c2.269,0.745 4.202,1.806 5.8,3.183c1.597,1.378 2.824,3.038 3.681,4.979c0.856,1.942 1.285,4.11 1.285,6.504c-0,2.258 -0.475,4.313 -1.424,6.164c-0.949,1.852 -2.304,3.297 -4.063,4.336c1.945,1.174 3.426,2.856 4.445,5.046c1.019,2.191 1.528,4.55 1.528,7.079Z" style="fill-rule:nonzero;"/></g><g><rect x="168.743" y="245.656" width="47.244" height="75.591" style="fill:#fff;"/><path d="M210.382,302.383l-38.111,0l-0,-9.429c1.252,-0.723 2.573,-1.514 3.964,-2.374c1.391,-0.859 2.793,-1.741 4.207,-2.645c1.414,-0.904 2.794,-1.832 4.138,-2.781c1.345,-0.95 2.62,-1.877 3.825,-2.781c0.881,-0.679 1.913,-1.538 3.095,-2.578c1.182,-1.04 2.295,-2.216 3.338,-3.527c1.043,-1.312 1.924,-2.781 2.643,-4.409c0.719,-1.628 1.078,-3.392 1.078,-5.291c-0,-2.306 -0.58,-4.251 -1.739,-5.834c-1.159,-1.582 -3.083,-2.374 -5.772,-2.374c-3.014,0 -5.123,1.04 -6.329,3.121c-1.205,2.08 -1.553,4.816 -1.043,8.207l-11.405,0l-0.07,-2.577c-0.093,-2.623 0.278,-5.076 1.113,-7.36c0.834,-2.284 2.052,-4.251 3.651,-5.901c1.6,-1.651 3.593,-2.951 5.981,-3.901c2.388,-0.949 5.112,-1.424 8.172,-1.424c3.013,-0 5.725,0.452 8.136,1.356c2.411,0.905 4.44,2.16 6.086,3.765c1.645,1.605 2.897,3.516 3.755,5.732c0.858,2.216 1.263,4.658 1.217,7.326c-0.046,3.708 -1.113,7.314 -3.199,10.819c-2.086,3.504 -5.007,6.862 -8.763,10.073c-0.973,0.814 -2.074,1.662 -3.303,2.543c-1.229,0.882 -2.423,1.662 -3.582,2.341l18.917,-0l-0,9.903Z" style="fill-rule:nonzero;"/></g></g><path d="M318.727,346.444l-50.394,-0l0,-12.599l50.394,0l-12.598,-12.598l18.897,-0l18.898,18.897l-18.898,18.898l-18.897,0l12.598,-12.598Z"/><path d="M134.79,346.444l50.394,-0l-0,-12.599l-50.394,0l12.598,-12.598l-18.897,-0l-18.898,18.897l18.898,18.898l18.897,0l-12.598,-12.598Z"/></g></svg>