<?xml version="1.0" encoding="UTF-8" standalone="no"?><!DOCTYPE svg PUBLIC "-//W3C//DTD SVG 1.1//EN" "http://www.w3.org/Graphics/SVG/1.1/DTD/svg11.dtd"><svg width="100%" height="100%" viewBox="0 0 454 454" version="1.1" xmlns="http://www.w3.org/2000/svg" xmlns:xlink="http://www.w3.org/1999/xlink" xml:space="preserve" xmlns:serif="http://www.serif.com/" style="fill-rule:evenodd;clip-rule:evenodd;stroke-linejoin:round;stroke-miterlimit:2;"><g transform="matrix(50,0,0,50,321.022,244.423)"></g><text x="133.4px" y="244.423px" style="font-family:'ArialMT', 'Arial', sans-serif;font-size:50px;">sw=38.4</text><g id="_629A-No-Vehicles-over-Width-Shown" serif:id="629A No Vehicles over Width Shown"><circle cx="226.772" cy="226.772" r="226.772" style="fill:#e31837;"/><circle cx="226.761" cy="226.761" r="181.417" style="fill:#fff;"/><path d="M340.69,241.879l52.37,-30.236l0,60.473l-52.37,-30.237Z"/><path d="M112.833,241.879l-52.371,-30.236l-0,60.473l52.371,-30.237Z"/><g><g><rect id="path1698" x="296.304" y="269.102" width="48.862" height="96.756" style="fill:none;"/><path id="path1768" d="M330.04,270.312l12.992,-0c-0,-0 -10.299,17.822 -10.299,17.822c-0,-0 -12.991,-0 -12.991,-0l10.298,-17.822Z" style="fill:#010001;fill-rule:nonzero;"/><path id="path17681" serif:id="path1768" d="M309.909,270.312l12.991,-0c-0,-0 -10.299,17.822 -10.299,17.822c-0,-0 -12.991,-0 -12.991,-0l10.299,-17.822Z" style="fill:#010001;fill-rule:nonzero;"/></g><g><rect id="path16981" serif:id="path1698" x="191.324" y="269.102" width="42.573" height="96.756" style="fill:none;"/><path id="path17682" serif:id="path1768" d="M205.788,300.021l22.835,0c0,0 0,10.203 0,10.203c0,-0 -22.835,-0 -22.835,-0l0,-10.203Zm1.995,-29.709l12.992,-0c-0,-0 -10.299,17.822 -10.299,17.822c-0,-0 -12.992,-0 -12.992,-0l10.299,-17.822Z" style="fill:#010001;fill-rule:nonzero;"/></g><g><rect x="128.917" y="269.092" width="62.408" height="96.756" style="fill:none;"/><path d="M186.326,318.822c-0,3.403 -0.546,6.56 -1.638,9.472c-1.092,2.912 -2.685,5.449 -4.78,7.611c-2.096,2.163 -4.633,3.864 -7.614,5.104c-2.98,1.239 -6.359,1.859 -10.137,1.859c-5.43,0 -9.946,-0.966 -13.546,-2.897c-3.6,-1.932 -6.491,-4.498 -8.675,-7.698c-2.184,-3.201 -3.733,-6.877 -4.648,-11.029c-0.915,-4.151 -1.373,-8.447 -1.373,-12.888c0,-4.44 0.503,-8.793 1.508,-13.06c1.005,-4.268 2.616,-8.073 4.833,-11.418c2.217,-3.344 5.129,-6.04 8.735,-8.087c3.606,-2.047 8.011,-3.071 13.214,-3.071c4.847,0 9.045,1.038 12.592,3.114c3.548,2.076 6.444,5.103 8.691,9.082l-12.238,5.882c-2.306,-3.806 -5.528,-5.709 -9.666,-5.709c-3.311,0 -6.164,1.182 -8.558,3.546c-2.394,2.365 -3.798,6.084 -4.212,11.158c1.887,-1.557 4.025,-2.739 6.414,-3.546c2.389,-0.807 4.704,-1.211 6.945,-1.211c3.775,0 7.167,0.606 10.174,1.817c3.008,1.21 5.544,2.868 7.609,4.973c2.065,2.105 3.642,4.613 4.733,7.525c1.091,2.912 1.637,6.069 1.637,9.471Zm-14.189,-0.086c-0,-3.46 -1.064,-6.213 -3.193,-8.26c-2.128,-2.047 -4.877,-3.071 -8.247,-3.071c-3.311,0 -6.03,1.024 -8.159,3.071c-2.128,2.047 -3.192,4.8 -3.192,8.26c-0,3.46 1.064,6.228 3.192,8.304c2.129,2.075 4.848,3.113 8.159,3.113c3.37,0 6.119,-1.038 8.247,-3.113c2.129,-2.076 3.193,-4.844 3.193,-8.304Z" style="fill-rule:nonzero;"/></g><g><rect x="233.897" y="269.092" width="62.408" height="96.756" style="fill:none;"/><path d="M291.306,318.822c-0,3.403 -0.546,6.56 -1.638,9.472c-1.092,2.912 -2.685,5.449 -4.78,7.611c-2.095,2.163 -4.633,3.864 -7.614,5.104c-2.98,1.239 -6.359,1.859 -10.136,1.859c-5.431,0 -9.947,-0.966 -13.546,-2.897c-3.6,-1.932 -6.492,-4.498 -8.676,-7.698c-2.184,-3.201 -3.733,-6.877 -4.648,-11.029c-0.915,-4.151 -1.373,-8.447 -1.373,-12.888c0,-4.44 0.503,-8.793 1.508,-13.06c1.005,-4.268 2.616,-8.073 4.833,-11.418c2.217,-3.344 5.129,-6.04 8.735,-8.087c3.607,-2.047 8.011,-3.071 13.214,-3.071c4.848,0 9.045,1.038 12.592,3.114c3.548,2.076 6.445,5.103 8.691,9.082l-12.238,5.882c-2.306,-3.806 -5.528,-5.709 -9.666,-5.709c-3.311,0 -6.163,1.182 -8.558,3.546c-2.394,2.365 -3.798,6.084 -4.212,11.158c1.887,-1.557 4.025,-2.739 6.414,-3.546c2.389,-0.807 4.704,-1.211 6.945,-1.211c3.775,0 7.167,0.606 10.175,1.817c3.007,1.21 5.544,2.868 7.608,4.973c2.065,2.105 3.643,4.613 4.734,7.525c1.09,2.912 1.636,6.069 1.636,9.471Zm-14.189,-0.086c-0,-3.46 -1.064,-6.213 -3.193,-8.26c-2.128,-2.047 -4.877,-3.071 -8.247,-3.071c-3.311,0 -6.03,1.024 -8.159,3.071c-2.128,2.047 -3.192,4.8 -3.192,8.26c-0,3.46 1.064,6.228 3.192,8.304c2.129,2.075 4.848,3.113 8.159,3.113c3.37,0 6.119,-1.038 8.247,-3.113c2.129,-2.076 3.193,-4.844 3.193,-8.304Z" style="fill-rule:nonzero;"/></g></g><g><g><rect id="path16982" serif:id="path1698" x="294.067" y="117.911" width="83.694" height="96.756" style="fill:none;"/><path d="M370.042,190.478l-13.497,-0l-0,-30.413c-0,-2.392 -0.552,-4.171 -1.656,-5.339c-1.104,-1.167 -2.561,-1.751 -4.372,-1.751c-0.849,-0 -1.741,0.185 -2.675,0.555c-0.933,0.37 -1.768,0.911 -2.504,1.623c-0.736,0.712 -1.345,1.623 -1.826,2.734c-0.481,1.111 -0.721,2.378 -0.721,3.802l-0,28.789l-13.583,-0l-0.086,-30.498c0,-2.449 -0.526,-4.243 -1.58,-5.382c-1.054,-1.139 -2.406,-1.708 -4.058,-1.708c-1.082,-0 -2.107,0.17 -3.075,0.512c-0.968,0.342 -1.837,0.869 -2.606,1.581c-0.769,0.711 -1.381,1.623 -1.836,2.733c-0.456,1.111 -0.684,2.463 -0.684,4.058l0,28.704l-13.497,-0l-0,-48.523l13.497,-0l0,2.99c1.424,-1.367 3.047,-2.421 4.87,-3.161c1.822,-0.74 3.616,-1.111 5.381,-1.111c2.677,0 5.14,0.527 7.39,1.581c2.25,1.053 4.029,2.634 5.339,4.741c3.133,-4.271 7.888,-6.407 14.267,-6.407c5.524,-0 9.824,1.566 12.899,4.698c3.076,3.133 4.613,7.547 4.613,13.242l0,31.95Z" style="fill-rule:nonzero;"/></g><g><rect id="path16983" serif:id="path1698" x="171.913" y="99.769" width="33.865" height="120.945" style="fill:none;"/><path d="M197.916,181.354c-0,2.546 -0.884,4.703 -2.652,6.471c-1.769,1.769 -3.891,2.653 -6.366,2.653c-2.546,-0 -4.703,-0.884 -6.472,-2.653c-1.768,-1.768 -2.652,-3.925 -2.652,-6.471c0,-2.476 0.884,-4.598 2.652,-6.366c1.769,-1.768 3.926,-2.652 6.472,-2.652c2.475,-0 4.597,0.884 6.366,2.652c1.768,1.768 2.652,3.89 2.652,6.366Z" style="fill-rule:nonzero;"/></g><g><rect x="205.777" y="117.911" width="70.148" height="96.756" style="fill:none;"/><path d="M269.141,156.31c-0,4.152 -0.533,8.333 -1.597,12.542c-1.064,4.21 -2.734,8.001 -5.01,11.374c-2.276,3.374 -5.173,6.127 -8.691,8.261c-3.518,2.133 -7.73,3.2 -12.637,3.2c-5.025,0 -9.341,-1.052 -12.947,-3.157c-3.607,-2.105 -6.578,-4.844 -8.913,-8.217c-2.335,-3.373 -4.05,-7.165 -5.143,-11.374c-1.094,-4.21 -1.641,-8.419 -1.641,-12.629c-0,-4.209 0.547,-8.39 1.641,-12.541c1.093,-4.152 2.793,-7.872 5.099,-11.158c2.305,-3.287 5.247,-5.954 8.824,-8.001c3.576,-2.047 7.818,-3.071 12.725,-3.071c4.848,0 9.046,1.024 12.593,3.071c3.547,2.047 6.488,4.728 8.824,8.044c2.335,3.315 4.064,7.049 5.188,11.201c1.123,4.152 1.685,8.304 1.685,12.455Zm-14.722,0.087c0,-1.961 -0.221,-4.224 -0.665,-6.79c-0.443,-2.566 -1.182,-5.002 -2.217,-7.309c-1.034,-2.306 -2.424,-4.253 -4.168,-5.838c-1.744,-1.586 -3.916,-2.379 -6.518,-2.379c-2.601,0 -4.774,0.778 -6.518,2.335c-1.744,1.557 -3.133,3.475 -4.168,5.752c-1.034,2.278 -1.773,4.7 -2.217,7.266c-0.443,2.566 -0.665,4.829 -0.665,6.79c0,2.133 0.192,4.527 0.576,7.179c0.385,2.653 1.079,5.132 2.084,7.439c1.006,2.306 2.424,4.238 4.257,5.795c1.833,1.557 4.168,2.335 7.006,2.335c2.838,0 5.129,-0.778 6.873,-2.335c1.744,-1.557 3.089,-3.489 4.035,-5.795c0.946,-2.307 1.566,-4.772 1.862,-7.396c0.296,-2.623 0.443,-4.973 0.443,-7.049Z" style="fill-rule:nonzero;"/></g><g><rect x="96.322" y="99.769" width="75.591" height="120.945" style="fill:none;"/><path d="M162.944,190.532l-60.977,0l-0,-15.086c2.003,-1.157 4.117,-2.424 6.342,-3.798c2.226,-1.375 4.47,-2.786 6.732,-4.233c2.263,-1.447 4.47,-2.93 6.621,-4.45c2.151,-1.519 4.191,-3.002 6.12,-4.449c1.41,-1.086 3.06,-2.46 4.952,-4.125c1.891,-1.664 3.672,-3.545 5.341,-5.643c1.669,-2.098 3.078,-4.45 4.228,-7.055c1.15,-2.604 1.725,-5.426 1.725,-8.465c-0,-3.69 -0.927,-6.801 -2.782,-9.334c-1.854,-2.532 -4.933,-3.798 -9.236,-3.798c-4.821,-0 -8.197,1.664 -10.125,4.992c-1.929,3.328 -2.485,7.706 -1.669,13.132l-18.249,0l-0.111,-4.124c-0.149,-4.196 0.445,-8.122 1.78,-11.775c1.335,-3.654 3.282,-6.802 5.842,-9.443c2.559,-2.64 5.749,-4.721 9.569,-6.24c3.821,-1.519 8.179,-2.279 13.075,-2.279c4.822,-0 9.161,0.723 13.019,2.17c3.857,1.447 7.103,3.455 9.736,6.024c2.633,2.568 4.636,5.625 6.009,9.171c1.372,3.545 2.021,7.452 1.947,11.721c-0.074,5.933 -1.78,11.703 -5.119,17.311c-3.338,5.607 -8.011,10.979 -14.02,16.116c-1.558,1.303 -3.32,2.659 -5.285,4.07c-1.966,1.411 -3.876,2.659 -5.731,3.745l30.266,-0l0,15.845Z" style="fill-rule:nonzero;"/></g></g></g></svg>