<?xml version="1.0" encoding="UTF-8" standalone="no"?><!DOCTYPE svg PUBLIC "-//W3C//DTD SVG 1.1//EN" "http://www.w3.org/Graphics/SVG/1.1/DTD/svg11.dtd"><svg width="100%" height="100%" viewBox="0 0 454 454" version="1.1" xmlns="http://www.w3.org/2000/svg" xmlns:xlink="http://www.w3.org/1999/xlink" xml:space="preserve" xmlns:serif="http://www.serif.com/" style="fill-rule:evenodd;clip-rule:evenodd;stroke-linejoin:round;stroke-miterlimit:2;"><g transform="matrix(50,0,0,50,392.079,262.709)"></g><text x="204.457px" y="262.709px" style="font-family:'ArialMT', 'Arial', sans-serif;font-size:50px;">sw=38.4</text><g id="_632-No-Overtaking" serif:id="632 No Overtaking"><circle cx="226.772" cy="226.772" r="226.772" style="fill:#e31837;"/><circle cx="226.772" cy="226.772" r="181.417" style="fill:#fff;"/><path d="M77.835,261.27l0.011,23.457c2.672,3.029 6.531,4.772 10.587,4.772c4.056,-0 7.915,-1.743 10.587,-4.772l-0.011,-21.716l14.101,0.86l14.102,0.573l14.158,0.344l14.102,-0.344l14.101,-0.573l14.101,-0.86l-0.011,21.716c2.672,3.029 6.532,4.772 10.587,4.772c4.056,-0 7.916,-1.743 10.587,-4.772l-0.018,-23.457c3.265,-1.91 5.281,-5.402 5.31,-9.167l-0,-29.698c-0.029,-5.514 -4.244,-10.097 -9.72,-10.545l-5.524,-34.504c-1.391,-8.555 -8.769,-14.849 -17.417,-14.849l-72.283,-0c-8.677,-0 -16.055,6.295 -17.416,14.85l-5.524,34.503c-5.505,0.448 -9.72,5.031 -9.691,10.545l0,29.698c-0.029,3.765 1.987,7.257 5.281,9.167Zm113.677,-63.729c0.324,2.148 -0.337,4.328 -1.809,5.92c-1.472,1.593 -3.593,2.423 -5.721,2.235c0,-0 -14.191,-0.541 -21.288,-0.763c-7.103,-0.223 -14.216,-0.573 -21.324,-0.573c-7.108,-0 -14.217,0.35 -21.324,0.573c-7.112,0.223 -21.346,0.763 -21.346,0.763c-2.185,0.188 -4.306,-0.642 -5.778,-2.235c-1.473,-1.592 -2.134,-3.772 -1.78,-5.92l1.601,-9.888c1.084,-6.966 6.624,-12.354 13.627,-13.27c-0,0 14.686,-1.123 22.045,-1.327c7.983,-0.221 17.869,-0.221 25.852,-0c7.359,0.204 22.044,1.327 22.044,1.327c6.945,0.915 12.486,6.303 13.627,13.269l1.574,9.889Z"/><path d="M248.67,262.026l0.011,23.457c2.671,3.029 6.531,4.772 10.587,4.772c4.055,-0 7.915,-1.743 10.587,-4.772l-0.011,-21.716l14.101,0.86l14.101,0.573l14.159,0.344l14.101,-0.344l14.102,-0.573l14.101,-0.86l-0.011,21.716c2.672,3.029 6.531,4.772 10.587,4.772c4.056,-0 7.915,-1.743 10.587,-4.772l-0.018,-23.457c3.265,-1.91 5.281,-5.402 5.309,-9.167l0,-29.698c-0.028,-5.515 -4.243,-10.097 -9.719,-10.545l-5.524,-34.504c-1.392,-8.555 -8.769,-14.85 -17.417,-14.85l-72.283,0c-8.677,0 -16.056,6.296 -17.417,14.851l-5.523,34.503c-5.505,0.448 -9.72,5.03 -9.691,10.545l-0,29.698c-0.029,3.765 1.987,7.257 5.281,9.167Zm113.676,-63.729c0.325,2.148 -0.336,4.328 -1.809,5.92c-1.472,1.593 -3.593,2.423 -5.72,2.235c-0,-0 -14.192,-0.541 -21.289,-0.763c-7.102,-0.223 -14.216,-0.574 -21.324,-0.574c-7.108,0 -14.217,0.351 -21.324,0.574c-7.111,0.222 -21.346,0.763 -21.346,0.763c-2.184,0.188 -4.305,-0.642 -5.778,-2.235c-1.472,-1.592 -2.133,-3.772 -1.78,-5.92l1.602,-9.888c1.084,-6.966 6.624,-12.354 13.626,-13.27c0,0 14.687,-1.123 22.045,-1.327c7.983,-0.222 17.87,-0.222 25.853,-0c7.358,0.204 22.044,1.327 22.044,1.327c6.945,0.915 12.485,6.303 13.627,13.269l1.573,9.889Z" style="fill:#e31837;"/></g></svg>