<?xml version="1.0" encoding="UTF-8" standalone="no"?><!DOCTYPE svg PUBLIC "-//W3C//DTD SVG 1.1//EN" "http://www.w3.org/Graphics/SVG/1.1/DTD/svg11.dtd"><svg width="100%" height="100%" viewBox="0 0 454 454" version="1.1" xmlns="http://www.w3.org/2000/svg" xmlns:xlink="http://www.w3.org/1999/xlink" xml:space="preserve" xmlns:serif="http://www.serif.com/" style="fill-rule:evenodd;clip-rule:evenodd;stroke-linejoin:round;stroke-miterlimit:2;"><g transform="matrix(50,0,0,50,321.022,244.423)"></g><text x="133.4px" y="244.423px" style="font-family:'ArialMT', 'Arial', sans-serif;font-size:50px;">sw=38.4</text><clipPath id="_clip1"><rect x="0" y="0" width="453.543" height="453.543"/></clipPath><g clip-path="url(#_clip1)"><circle cx="226.772" cy="226.772" r="226.772" style="fill:#e31837;"/><circle cx="226.772" cy="226.772" r="181.417" style="fill:#fff;"/><g><g><rect id="path1618" x="84.753" y="105.827" width="74.473" height="100.787" style="fill:none;"/><path id="path1620" d="M129.008,154.263l1.6,0.619l1.333,0.896l1.152,1.237l0.8,1.429l0.448,1.504l0.089,1.696l-0.267,1.6l-0.705,1.504l-0.981,1.333l-1.515,1.249l-1.685,0.97l-1.867,0.714l-1.952,0.352l-4.8,-0l-2.751,-0.352l-2.667,-0.533l-2.581,-0.886l-2.582,-1.151l-3.018,-1.963l-2.848,-2.133l-2.571,-2.485l-12.266,9.418l2.581,2.667l2.752,2.485l2.933,2.23l3.104,1.951l3.381,1.6l3.819,1.249l4,0.886l4,0.618l4,0.267l4.085,-0.088l4,-0.351l4,-0.715l3.915,-1.067l2.666,-1.067l2.485,-1.419l2.315,-1.781l2.048,-2.048l1.771,-2.304l1.429,-2.496l1.056,-2.656l0.714,-2.848l0.267,-2.848l-0.088,-2.837l-0.449,-2.933l-0.8,-2.763l-1.237,-2.57l-1.6,-2.134l-1.866,-1.866l-1.963,-1.696l-2.219,-1.504l-2.314,-1.249l-2.219,-0.885l-2.314,-0.715l-16.523,-4.085l-1.163,-0.448l-1.067,-0.705l-0.885,-0.981l-0.715,-1.067l-0.351,-1.152l-0.182,-1.247l0.101,-1.248l0.437,-1.238l0.629,-1.067l1.419,-1.429l1.6,-1.067l1.866,-0.8l1.952,-0.437l1.963,-0.182l2.922,0.182l2.848,0.437l2.848,0.8l2.667,0.981l2.571,1.334l2.496,1.6l2.218,1.866l10.933,-9.952l-2.933,-2.581l-3.115,-2.218l-3.37,-1.963l-3.467,-1.685l-3.648,-1.237l-3.818,-0.982l-3.83,-0.533l-3.904,-0.181l-3.818,0.181l-3.829,0.533l-3.819,0.982l-2.752,1.067l-2.581,1.322l-2.4,1.696l-2.219,1.952l-1.962,2.133l-1.504,2.134l-1.163,2.314l-0.886,2.4l-0.618,2.486l-0.182,2.581l0.088,2.571l0.449,2.581l0.8,2.4l1.067,2.4l1.333,2.133l1.685,2.037l1.867,1.696l2.667,1.771l2.933,1.248l3.115,0.8l16.612,3.736Z" style="fill:#010001;fill-rule:nonzero;"/></g><g><rect id="path1570" x="159.226" y="105.827" width="60.436" height="100.787" style="fill:none;"/><path id="path1572" d="M162.16,110.893l-0,13.771l19.999,-0l0,56.799l14.485,-0l0,-56.799l20,-0l-0,-13.771l-54.484,0Z" style="fill:#010001;fill-rule:nonzero;"/></g><g><rect id="path1606" x="300.269" y="105.827" width="68.521" height="100.787" style="fill:none;"/><path id="path1608" d="M312.365,110.893l-0,70.57l14.389,-0l-0,-24.885l15.999,-0l2.752,-0.182l2.763,-0.533l2.571,-0.885l2.496,-1.249l2.399,-1.514l2.038,-1.771l1.866,-2.048l1.6,-2.304l1.248,-2.315l1.067,-2.399l0.8,-2.486l0.448,-2.581l0.089,-2.581l-0.089,-2.571l-0.448,-2.581l-0.8,-2.486l-1.067,-2.4l-1.248,-2.314l-1.6,-2.315l-1.866,-2.037l-2.038,-1.781l-2.399,-1.515l-2.496,-1.237l-2.571,-0.886l-2.763,-0.544l-2.752,-0.171l-30.388,0.001Zm14.389,13.067l14.314,-0l1.771,0.17l1.696,0.533l1.6,0.8l1.418,1.067l1.152,1.429l0.896,1.504l0.618,1.696l0.267,1.771l0,1.696l-0.267,1.77l-0.618,1.6l-0.896,1.6l-1.152,1.334l-1.418,1.067l-1.6,0.8l-1.696,0.533l-1.771,0.181l-14.314,0l-0,-19.551Z" style="fill:#010001;fill-rule:nonzero;"/></g><g><rect id="path1594" x="219.662" y="105.827" width="80.606" height="100.787" style="fill:none;"/><path id="path1596" d="M258.051,109.208l-3.552,0.352l-3.466,0.618l-3.371,1.152l-3.296,1.429l-3.019,1.781l-2.848,2.123l-2.666,2.763l-2.304,2.933l-2.048,3.2l-1.781,3.37l-1.334,3.563l-0.97,3.637l-0.714,3.733l-0.267,3.734l-0,5.066l0.267,3.819l0.714,3.733l0.97,3.648l1.334,3.552l1.781,3.381l2.048,3.115l2.304,3.019l2.666,2.666l2.848,2.133l3.019,1.867l3.296,1.419l3.371,1.067l3.466,0.714l3.552,0.352l4.096,-0l3.467,-0.352l3.552,-0.714l3.381,-1.067l3.2,-1.419l3.104,-1.867l2.848,-2.133l2.666,-2.666l2.304,-3.019l2.048,-3.115l1.685,-3.381l1.43,-3.552l0.97,-3.648l0.63,-3.733l0.267,-3.819l-0,-5.066l-0.267,-3.734l-0.63,-3.733l-0.97,-3.637l-1.43,-3.563l-1.685,-3.37l-2.048,-3.2l-2.304,-2.933l-2.666,-2.763l-2.848,-2.123l-3.104,-1.781l-3.2,-1.429l-3.381,-1.152l-3.552,-0.618l-3.467,-0.352l-4.096,0Zm2.048,13.77l2.219,0.089l2.229,0.448l2.133,0.619l2.038,0.895l1.866,1.238l1.696,1.429l1.504,1.685l1.249,1.781l0.981,1.952l0.704,2.134l0.886,3.552l0.544,3.648l0.088,3.733l-0.088,3.637l-0.544,3.648l-0.886,3.648l-0.704,2.037l-0.981,2.048l-1.249,1.782l-1.504,1.685l-1.696,1.419l-1.866,1.162l-2.038,0.886l-2.133,0.704l-2.229,0.363l-2.219,0.171l-2.219,-0.171l-2.229,-0.363l-2.133,-0.704l-2.037,-0.886l-1.867,-1.162l-1.685,-1.419l-1.515,-1.685l-1.249,-1.782l-0.97,-2.048l-0.8,-2.037l-0.8,-3.648l-0.533,-3.648l-0.1,-3.637l0.1,-3.733l0.533,-3.648l0.8,-3.552l0.8,-2.134l0.97,-1.952l1.249,-1.781l1.515,-1.685l1.685,-1.429l1.867,-1.238l2.037,-0.895l2.133,-0.619l2.229,-0.448l2.219,-0.089Z" style="fill:#010001;fill-rule:nonzero;"/></g></g><path d="M385.512,226.772c-0,-16.688 -13.549,-30.237 -30.236,-30.237l-257.008,0c-16.688,0 -30.237,13.549 -30.237,30.237c0,16.687 13.549,30.236 30.237,30.236l257.008,-0c16.687,-0 30.236,-13.549 30.236,-30.236Z"/><g><g id="E"><rect id="path1642" x="303.237" y="282.205" width="41.702" height="60.472" style="fill:none;"/><path id="path1644" d="M339.659,319.266l-20.742,0l0,-9.279l17.331,-0l-0,-7.84l-17.331,-0l0,-8.691l19.142,-0l0,-8.211l-27.839,-0l-0,42.284l29.439,-0l0,-8.263Z" style="fill:#010001;fill-rule:nonzero;"/></g><g id="L"><rect id="path1658" x="198.081" y="282.205" width="36.262" height="60.472" style="fill:none;"/><path id="path1660" d="M205.23,285.245l8.64,-0l-0,34.073l18.77,-0l0,8.268l-27.41,0l-0,-42.341Z" style="fill:#010001;fill-rule:nonzero;"/></g><g id="I"><rect id="path1654" x="234.343" y="282.205" width="22.662" height="60.472" style="fill:none;"/><rect id="path1656" x="241.383" y="285.245" width="8.64" height="42.342" style="fill:#010001;fill-rule:nonzero;"/></g><g id="C"><rect id="path1622" x="257.005" y="282.205" width="46.233" height="60.472" style="fill:none;"/><path id="path1624" d="M282.707,320.175l1.44,-0.269l1.388,-0.48l1.223,-0.691l1.171,-0.857l0.96,-1.012l0.857,-1.119l0.691,-1.229l0.48,-1.332l0.32,-1.388l8.64,3.469l-0.749,1.919l-0.903,1.812l-1.068,1.76l-1.389,1.708l-1.542,1.6l-1.709,1.28l-1.869,1.069l-1.92,0.902l-2.022,0.641l-2.131,0.428l-2.138,0.161l-2.4,-0l-2.131,-0.161l-2.08,-0.428l-2.029,-0.641l-1.971,-0.902l-1.811,-1.069l-1.709,-1.28l-1.6,-1.651l-1.44,-1.76l-1.222,-1.92l-1.018,-2.029l-0.8,-2.131l-0.64,-2.188l-0.371,-2.24l-0.161,-2.24l0,-3.04l0.161,-2.291l0.371,-2.24l0.64,-2.189l0.8,-2.08l1.018,-2.023l1.222,-1.919l1.44,-1.812l1.6,-1.6l1.709,-1.28l1.811,-1.12l1.971,-0.857l2.029,-0.64l2.08,-0.423l2.131,-0.16l2.4,-0l2.138,0.16l2.131,0.423l2.022,0.64l1.92,0.857l1.869,1.12l1.709,1.28l1.599,1.6l1.383,1.812l1.497,2.611l1.172,2.771l-8.64,3.417l-0.371,-1.44l-0.538,-1.44l-0.742,-1.28l-0.96,-1.228l-1.12,-1.012l-1.229,-0.857l-1.222,-0.532l-1.229,-0.371l-1.28,-0.211l-1.28,-0.108l-1.331,0.108l-1.338,0.211l-1.28,0.429l-1.222,0.531l-1.12,0.691l-1.018,0.909l-0.902,0.96l-0.749,1.12l-0.64,1.171l-0.429,1.229l-0.531,2.182l-0.27,2.189l-0.052,2.189l0.052,2.24l0.27,2.182l0.531,2.131l0.429,1.28l0.64,1.178l0.749,1.12l0.902,0.96l1.018,0.851l1.12,0.749l1.222,0.532l1.28,0.371l1.338,0.269l1.331,0.053l1.441,-0.105Z" style="fill:#010001;fill-rule:nonzero;"/></g><g id="P"><rect id="path16061" serif:id="path1606" x="108.604" y="282.205" width="41.113" height="60.472" style="fill:none;"/><path id="path16081" serif:id="path1608" d="M115.862,285.245l-0,42.341l8.633,0l0,-14.931l9.6,0l1.651,-0.109l1.658,-0.319l1.542,-0.532l1.498,-0.749l1.44,-0.909l1.222,-1.062l1.12,-1.229l0.96,-1.382l0.748,-1.389l0.641,-1.44l0.48,-1.491l0.269,-1.549l0.053,-1.549l-0.053,-1.542l-0.269,-1.549l-0.48,-1.491l-0.641,-1.44l-0.748,-1.389l-0.96,-1.388l-1.12,-1.223l-1.222,-1.069l-1.44,-0.908l-1.498,-0.743l-1.542,-0.531l-1.658,-0.327l-1.651,-0.102l-18.233,0.001Zm8.633,7.84l8.589,-0l1.062,0.102l1.018,0.319l0.96,0.48l0.851,0.641l0.691,0.857l0.537,0.903l0.371,1.017l0.161,1.063l-0,1.017l-0.161,1.062l-0.371,0.96l-0.537,0.96l-0.691,0.8l-0.851,0.641l-0.96,0.48l-1.018,0.319l-1.062,0.109l-8.589,0l0,-11.73Z" style="fill:#010001;fill-rule:nonzero;"/></g><g id="O"><rect id="path15941" serif:id="path1594" x="149.717" y="282.205" width="48.364" height="60.472" style="fill:none;"/><path id="path15961" serif:id="path1596" d="M172.75,284.233l-2.131,0.211l-2.08,0.372l-2.022,0.69l-1.978,0.858l-1.811,1.069l-1.709,1.273l-1.6,1.658l-1.382,1.76l-1.229,1.92l-1.069,2.022l-0.8,2.138l-0.582,2.182l-0.428,2.24l-0.16,2.24l-0,3.04l0.16,2.291l0.428,2.24l0.582,2.189l0.8,2.131l1.069,2.029l1.229,1.869l1.382,1.811l1.6,1.6l1.709,1.28l1.811,1.12l1.978,0.851l2.022,0.64l2.08,0.429l2.131,0.211l2.458,-0l2.08,-0.211l2.131,-0.429l2.029,-0.64l1.92,-0.851l1.862,-1.12l1.709,-1.28l1.6,-1.6l1.382,-1.811l1.229,-1.869l1.011,-2.029l0.858,-2.131l0.582,-2.189l0.378,-2.24l0.16,-2.291l-0,-3.04l-0.16,-2.24l-0.378,-2.24l-0.582,-2.182l-0.858,-2.138l-1.011,-2.022l-1.229,-1.92l-1.382,-1.76l-1.6,-1.658l-1.709,-1.273l-1.862,-1.069l-1.92,-0.858l-2.029,-0.69l-2.131,-0.372l-2.08,-0.211l-2.458,0Zm1.229,8.263l1.331,0.053l1.338,0.269l1.28,0.371l1.222,0.537l1.12,0.743l1.018,0.857l0.902,1.011l0.749,1.069l0.589,1.171l0.423,1.28l0.531,2.132l0.327,2.188l0.052,2.24l-0.052,2.183l-0.327,2.188l-0.531,2.189l-0.423,1.222l-0.589,1.229l-0.749,1.069l-0.902,1.011l-1.018,0.851l-1.12,0.698l-1.222,0.531l-1.28,0.423l-1.338,0.218l-1.331,0.103l-1.331,-0.103l-1.338,-0.218l-1.28,-0.423l-1.222,-0.531l-1.12,-0.698l-1.011,-0.851l-0.909,-1.011l-0.749,-1.069l-0.582,-1.229l-0.48,-1.222l-0.48,-2.189l-0.32,-2.188l-0.06,-2.183l0.06,-2.24l0.32,-2.188l0.48,-2.132l0.48,-1.28l0.582,-1.171l0.749,-1.069l0.909,-1.011l1.011,-0.857l1.12,-0.743l1.222,-0.537l1.28,-0.371l1.338,-0.269l1.331,-0.053Z" style="fill:#010001;fill-rule:nonzero;"/></g></g></g></svg>