<?xml version="1.0" encoding="UTF-8" standalone="no"?><!DOCTYPE svg PUBLIC "-//W3C//DTD SVG 1.1//EN" "http://www.w3.org/Graphics/SVG/1.1/DTD/svg11.dtd"><svg width="100%" height="100%" viewBox="0 0 454 454" version="1.1" xmlns="http://www.w3.org/2000/svg" xmlns:xlink="http://www.w3.org/1999/xlink" xml:space="preserve" xmlns:serif="http://www.serif.com/" style="fill-rule:evenodd;clip-rule:evenodd;stroke-linejoin:round;stroke-miterlimit:2;"><g transform="matrix(50,0,0,50,321.022,244.423)"></g><text x="133.4px" y="244.423px" style="font-family:'ArialMT', 'Arial', sans-serif;font-size:50px;">sw=38.4</text><clipPath id="_clip1"><rect x="0" y="0" width="453.543" height="453.543"/></clipPath><g clip-path="url(#_clip1)"><circle cx="226.772" cy="226.772" r="226.772" style="fill:#e31837;"/><circle cx="226.772" cy="226.772" r="181.417" style="fill:#ffd200;"/><g><g><rect id="path1618" x="84.753" y="105.827" width="74.473" height="100.787" style="fill:none;"/><path id="path1620" d="M129.008,154.263l1.6,0.619l1.333,0.896l1.152,1.237l0.8,1.429l0.448,1.504l0.089,1.696l-0.267,1.6l-0.705,1.504l-0.981,1.333l-1.515,1.249l-1.685,0.97l-1.867,0.714l-1.952,0.352l-4.8,-0l-2.751,-0.352l-2.667,-0.533l-2.581,-0.886l-2.582,-1.151l-3.018,-1.963l-2.848,-2.133l-2.571,-2.485l-12.266,9.418l2.581,2.667l2.752,2.485l2.933,2.23l3.104,1.951l3.381,1.6l3.819,1.249l4,0.886l4,0.618l4,0.267l4.085,-0.088l4,-0.351l4,-0.715l3.915,-1.067l2.666,-1.067l2.485,-1.419l2.315,-1.781l2.048,-2.048l1.771,-2.304l1.429,-2.496l1.056,-2.656l0.714,-2.848l0.267,-2.848l-0.088,-2.837l-0.449,-2.933l-0.8,-2.763l-1.237,-2.57l-1.6,-2.134l-1.866,-1.866l-1.963,-1.696l-2.219,-1.504l-2.314,-1.249l-2.219,-0.885l-2.314,-0.715l-16.523,-4.085l-1.163,-0.448l-1.067,-0.705l-0.885,-0.981l-0.715,-1.067l-0.351,-1.152l-0.182,-1.247l0.101,-1.248l0.437,-1.238l0.629,-1.067l1.419,-1.429l1.6,-1.067l1.866,-0.8l1.952,-0.437l1.963,-0.182l2.922,0.182l2.848,0.437l2.848,0.8l2.667,0.981l2.571,1.334l2.496,1.6l2.218,1.866l10.933,-9.952l-2.933,-2.581l-3.115,-2.218l-3.37,-1.963l-3.467,-1.685l-3.648,-1.237l-3.818,-0.982l-3.83,-0.533l-3.904,-0.181l-3.818,0.181l-3.829,0.533l-3.819,0.982l-2.752,1.067l-2.581,1.322l-2.4,1.696l-2.219,1.952l-1.962,2.133l-1.504,2.134l-1.163,2.314l-0.886,2.4l-0.618,2.486l-0.182,2.581l0.088,2.571l0.449,2.581l0.8,2.4l1.067,2.4l1.333,2.133l1.685,2.037l1.867,1.696l2.667,1.771l2.933,1.248l3.115,0.8l16.612,3.736Z" style="fill:#010001;fill-rule:nonzero;"/></g><g><rect id="path1570" x="159.226" y="105.827" width="60.436" height="100.787" style="fill:none;"/><path id="path1572" d="M162.16,110.893l-0,13.771l19.999,-0l0,56.799l14.485,-0l0,-56.799l20,-0l-0,-13.771l-54.484,0Z" style="fill:#010001;fill-rule:nonzero;"/></g><g><rect id="path1606" x="300.269" y="105.827" width="68.521" height="100.787" style="fill:none;"/><path id="path1608" d="M312.365,110.893l-0,70.57l14.389,-0l-0,-24.885l15.999,-0l2.752,-0.182l2.763,-0.533l2.571,-0.885l2.496,-1.249l2.399,-1.514l2.038,-1.771l1.866,-2.048l1.6,-2.304l1.248,-2.315l1.067,-2.399l0.8,-2.486l0.448,-2.581l0.089,-2.581l-0.089,-2.571l-0.448,-2.581l-0.8,-2.486l-1.067,-2.4l-1.248,-2.314l-1.6,-2.315l-1.866,-2.037l-2.038,-1.781l-2.399,-1.515l-2.496,-1.237l-2.571,-0.886l-2.763,-0.544l-2.752,-0.171l-30.388,0.001Zm14.389,13.067l14.314,-0l1.771,0.17l1.696,0.533l1.6,0.8l1.418,1.067l1.152,1.429l0.896,1.504l0.618,1.696l0.267,1.771l0,1.696l-0.267,1.77l-0.618,1.6l-0.896,1.6l-1.152,1.334l-1.418,1.067l-1.6,0.8l-1.696,0.533l-1.771,0.181l-14.314,0l-0,-19.551Z" style="fill:#010001;fill-rule:nonzero;"/></g><g><rect id="path1594" x="219.662" y="105.827" width="80.606" height="100.787" style="fill:none;"/><path id="path1596" d="M258.051,109.208l-3.552,0.352l-3.466,0.618l-3.371,1.152l-3.296,1.429l-3.019,1.781l-2.848,2.123l-2.666,2.763l-2.304,2.933l-2.048,3.2l-1.781,3.37l-1.334,3.563l-0.97,3.637l-0.714,3.733l-0.267,3.734l-0,5.066l0.267,3.819l0.714,3.733l0.97,3.648l1.334,3.552l1.781,3.381l2.048,3.115l2.304,3.019l2.666,2.666l2.848,2.133l3.019,1.867l3.296,1.419l3.371,1.067l3.466,0.714l3.552,0.352l4.096,-0l3.467,-0.352l3.552,-0.714l3.381,-1.067l3.2,-1.419l3.104,-1.867l2.848,-2.133l2.666,-2.666l2.304,-3.019l2.048,-3.115l1.685,-3.381l1.43,-3.552l0.97,-3.648l0.63,-3.733l0.267,-3.819l-0,-5.066l-0.267,-3.734l-0.63,-3.733l-0.97,-3.637l-1.43,-3.563l-1.685,-3.37l-2.048,-3.2l-2.304,-2.933l-2.666,-2.763l-2.848,-2.123l-3.104,-1.781l-3.2,-1.429l-3.381,-1.152l-3.552,-0.618l-3.467,-0.352l-4.096,0Zm2.048,13.77l2.219,0.089l2.229,0.448l2.133,0.619l2.038,0.895l1.866,1.238l1.696,1.429l1.504,1.685l1.249,1.781l0.981,1.952l0.704,2.134l0.886,3.552l0.544,3.648l0.088,3.733l-0.088,3.637l-0.544,3.648l-0.886,3.648l-0.704,2.037l-0.981,2.048l-1.249,1.782l-1.504,1.685l-1.696,1.419l-1.866,1.162l-2.038,0.886l-2.133,0.704l-2.229,0.363l-2.219,0.171l-2.219,-0.171l-2.229,-0.363l-2.133,-0.704l-2.037,-0.886l-1.867,-1.162l-1.685,-1.419l-1.515,-1.685l-1.249,-1.782l-0.97,-2.048l-0.8,-2.037l-0.8,-3.648l-0.533,-3.648l-0.1,-3.637l0.1,-3.733l0.533,-3.648l0.8,-3.552l0.8,-2.134l0.97,-1.952l1.249,-1.781l1.515,-1.685l1.685,-1.429l1.867,-1.238l2.037,-0.895l2.133,-0.619l2.229,-0.448l2.219,-0.089Z" style="fill:#010001;fill-rule:nonzero;"/></g></g><path d="M385.512,226.772c-0,-16.688 -13.549,-30.237 -30.236,-30.237l-257.008,0c-16.688,0 -30.237,13.549 -30.237,30.237c0,16.687 13.549,30.236 30.237,30.236l257.008,-0c16.687,-0 30.236,-13.549 30.236,-30.236Z"/><path d="M268.399,267.087l0.931,0.05l0.906,0.126l0.882,0.227l0.855,0.302l0.831,0.378l0.806,0.478l0.73,0.528l0.705,0.605l0.63,0.679l0.553,0.731l0.479,0.78l0.402,0.83l0.328,0.857l0.251,0.881l0.151,0.906l0.076,0.907l-0.025,0.931l-0.101,0.906l-0.201,0.881l-0.277,0.882l-0.378,0.856l-0.428,0.78l-0.529,0.78l-0.579,0.705l-0.654,0.63l-0.73,0.579l-0.756,0.503l-0.453,0.328l-0.377,0.402l-0.302,0.453l-0.201,0.504l-0.101,0.554l-0.025,0.554l0.1,0.528l7.729,28.826l1.763,-0.604l1.787,-0.504l1.838,-0.427l1.837,-0.328l1.863,-0.251l1.863,-0.126l1.863,-0.026l1.863,0.051l1.863,0.176l1.863,0.252l1.838,0.352l1.812,0.453l1.788,0.529l1.763,0.655l1.711,0.705l1.687,0.83l1.637,0.907l1.585,0.981l1.536,1.083l1.46,1.133l1.41,1.233l1.36,1.284l1.258,1.385l1.209,1.435l1.133,1.485l1.057,1.536l0.957,1.611l0.881,1.636l0.78,1.713l0.705,1.737l0.604,1.762l0.529,1.787l0.428,1.813l0.327,1.863l0.227,1.838l0.126,1.863l0.025,1.863l-0.05,1.888l-0.177,1.863l-0.252,1.838l-0.352,1.838l-0.453,1.812l-0.554,1.788l-0.629,1.762l-0.73,1.712l-0.831,1.687l-0.906,1.636l-0.982,1.586l-1.083,1.536l-1.132,1.46l-1.234,1.41l-1.309,1.359l-1.36,1.259l-1.435,1.209l-1.485,1.132l-1.561,1.032l-1.586,0.982l-1.662,0.856l-1.686,0.806l-1.737,0.705l-1.763,0.604l-1.813,0.503l-1.812,0.428l-1.838,0.328l-1.863,0.227l-1.863,0.125l-1.863,0.025l-1.888,-0.075l-1.838,-0.151l-1.863,-0.277l-1.837,-0.352l-1.813,-0.454l-1.788,-0.554l-1.762,-0.629l-1.712,-0.73l-1.686,-0.831l-1.637,-0.906l-1.586,-0.982l-1.511,-1.082l-1.485,-1.159l-1.41,-1.208l-1.334,-1.309l-1.284,-1.359l-1.183,-1.436l-1.133,-1.51l-1.032,-1.536l-0.982,-1.611l-0.856,-1.662l-0.806,-1.686l-0.68,-1.738l-0.604,-1.762l-0.529,-1.812l-0.402,-1.813l-0.328,-1.838l-0.226,-1.863l-0.126,-1.863l-0.025,-1.863l0.05,-1.863l0.177,-1.862l0.276,-1.863l0.353,-1.839l0.453,-1.812l0.554,-1.788l0.629,-1.737l0.756,-1.737l0.805,-1.662l0.906,-1.636l1.008,-1.586l1.082,-1.535l1.133,-1.461l1.233,-1.41l1.31,-1.334l1.359,-1.284l1.435,-1.183l1.511,-1.133l-1.158,-4.305l-41.338,28.927l0.327,1.208l0.227,1.208l0.126,1.234l-0,1.233l-0.076,1.259l-0.202,1.209l-0.277,1.209l-0.402,1.183l-0.479,1.158l-0.579,1.082l-0.679,1.057l-0.756,0.982l-0.831,0.906l-0.906,0.857l-0.982,0.755l-1.032,0.68l-1.107,0.604l-1.133,0.503l-1.184,0.403l-1.183,0.302l-1.234,0.202l-1.233,0.101l-1.259,-0l-1.234,-0.126l-1.208,-0.202l-1.208,-0.302l-2.241,4.809l4.028,-0l-0,4.757l-4.028,0l-0.428,0.504l-0.478,0.453l-0.579,0.353l-0.604,0.252l-0.655,0.151l-0.655,0.075l-0.679,-0.075l-0.655,-0.151l-0.604,-0.252l-0.554,-0.353l-0.503,-0.453l-0.429,-0.504l-4.027,0l0,-4.757l6.243,-0l3.071,-6.571l-1.032,-0.755l-0.982,-0.806l-0.881,-0.907l-0.831,-0.981l-0.73,-1.057l-0.629,-1.109l-0.529,-1.158l-0.453,-1.183l-0.327,-1.233l-3.499,-0l-0.202,1.837l-0.327,1.838l-0.403,1.838l-0.504,1.788l-0.604,1.762l-0.68,1.737l-0.78,1.687l-0.881,1.662l-0.956,1.585l-1.032,1.562l-1.108,1.484l-1.209,1.436l-1.259,1.384l-1.334,1.31l-1.384,1.233l-1.486,1.133l-1.51,1.082l-1.587,1.008l-1.611,0.906l-1.687,0.831l-1.711,0.73l-1.737,0.654l-1.788,0.554l-1.813,0.478l-1.812,0.353l-1.863,0.277l-1.838,0.176l-1.863,0.076l-1.863,-0.025l-1.863,-0.126l-1.863,-0.202l-1.837,-0.327l-1.814,-0.403l-1.812,-0.504l-1.762,-0.579l-1.738,-0.705l-1.686,-0.755l-1.661,-0.881l-1.612,-0.932l-1.536,-1.031l-1.51,-1.108l-1.436,-1.208l-1.384,-1.259l-1.284,-1.335l-1.233,-1.384l-1.183,-1.461l-1.083,-1.535l-0.981,-1.561l-0.933,-1.636l-0.83,-1.662l-0.73,-1.712l-0.654,-1.737l-0.555,-1.787l-0.479,-1.813l-0.376,-1.813l-0.278,-1.838l-0.176,-1.863l-0.075,-1.863l0.025,-1.863l0.101,-1.863l0.226,-1.863l0.303,-1.837l0.402,-1.813l0.478,-1.813l0.605,-1.762l0.679,-1.737l0.78,-1.687l0.857,-1.661l0.931,-1.612l1.033,-1.56l1.107,-1.486l1.184,-1.46l1.258,-1.359l1.334,-1.309l1.386,-1.234l1.459,-1.183l1.536,-1.083l1.561,-1.007l1.611,-0.906l1.686,-0.831l1.713,-0.755l1.737,-0.655l1.787,-0.579l1.787,-0.453l1.838,-0.378l1.838,-0.276l1.863,-0.202l1.863,-0.076l1.863,0l1.863,0.126l1.863,0.201l1.838,0.303l1.813,0.402l1.788,0.479l1.787,0.604l1.736,0.68l14.074,-24.395l-2.745,-7.553l-1.006,-0.126l-0.982,-0.226l-0.982,-0.328l-0.931,-0.402l-0.881,-0.504l-0.857,-0.579l-0.78,-0.654l-0.705,-0.73l-0.655,-0.806l-0.553,-0.856l-0.479,-0.881l-0.402,-0.957l-0.278,-0.982l-0.05,-0.301l0.05,-0.303l0.126,-0.277l0.177,-0.251l0.251,-0.177l0.278,-0.126l0.301,-0.05l30.765,-0l0.503,0.05l0.503,0.126l0.453,0.227l0.429,0.277l0.352,0.352l0.302,0.428l0.227,0.453l0.151,0.504l0.05,0.504l-0.025,0.503l-0.126,0.503l-0.202,0.453l-0.276,0.429l-0.353,0.377l-0.403,0.302l-0.453,0.252l-0.503,0.151l-13.746,3.046l3.248,8.912l65.129,0l-1.436,-5.336l-0.176,-0.882l-0.075,-0.856l-0,-0.881l0.075,-0.881l0.202,-0.856l0.277,-0.856l0.352,-0.781l0.453,-0.78l0.529,-0.705l0.604,-0.63l1.384,-1.107l0.328,-0.252l0.251,-0.327l0.177,-0.377l0.075,-0.429l-0.025,-0.402l-0.126,-0.403l-0.201,-0.378l-0.277,-0.302l-0.352,-0.227l-0.403,-0.151l-0.403,-0.05l-13.67,-0l0,-8.912l16.641,-0Zm23.161,58.281l-1.561,0.101l-1.561,0.176l-1.535,0.277l-1.536,0.402l-1.485,0.454l-1.461,0.579l1.637,6.117l0.453,1.536l0.554,1.485l0.68,1.461l0.755,1.384l0.831,1.36l0.931,1.284l1.032,1.234l1.083,1.132l1.183,1.083l1.259,1.006l1.284,0.907l0.478,0.327l0.378,0.428l0.327,0.479l0.252,0.528l0.151,0.554l0.076,0.554l-0.026,0.579l-0.126,0.554l-0.201,0.554l-0.302,0.478l-0.378,0.453l-0.428,0.378l-0.478,0.302l-0.529,0.227l-0.554,0.126l-0.579,0.05l-0.579,-0.05l-1.309,-0.303l-1.284,-0.377l-1.259,-0.454l-1.233,-0.553l-1.158,-0.63l-1.133,-0.73l-1.083,-0.805l-1.032,-0.856l-0.956,-0.957l-0.882,-1.007l-0.805,-1.057l-0.755,-1.108l-0.655,-1.183l-0.554,-1.208l-0.503,-1.26l-0.378,-1.283l-2.014,-7.478l-1.083,1.134l-1.006,1.208l-0.932,1.259l-0.831,1.334l-0.755,1.359l-0.68,1.41l-0.579,1.46l-0.504,1.485l-0.377,1.536l-0.302,1.536l-0.202,1.561l-0.126,1.561l0,1.561l0.101,1.561l0.177,1.56l0.301,1.536l0.378,1.536l0.479,1.485l0.579,1.461l0.654,1.434l0.756,1.36l0.83,1.334l0.907,1.284l1.006,1.208l1.058,1.133l1.158,1.083l1.183,1.007l1.284,0.932l1.309,0.855l1.385,0.756l1.409,0.679l1.461,0.579l1.485,0.479l1.511,0.403l1.536,0.302l1.56,0.201l1.561,0.101l1.561,0.025l1.586,-0.101l1.536,-0.201l1.561,-0.277l1.51,-0.378l1.485,-0.478l1.486,-0.579l1.41,-0.655l1.384,-0.755l1.335,-0.831l1.258,-0.906l1.209,-1.007l1.158,-1.057l1.083,-1.133l1.006,-1.209l0.932,-1.258l0.831,-1.335l0.78,-1.359l0.655,-1.41l0.604,-1.46l0.478,-1.486l0.403,-1.536l0.302,-1.535l0.202,-1.536l0.1,-1.586l0.026,-1.561l-0.101,-1.56l-0.177,-1.562l-0.301,-1.535l-0.378,-1.536l-0.479,-1.485l-0.553,-1.46l-0.68,-1.41l-0.73,-1.385l-0.831,-1.334l-0.931,-1.284l-0.983,-1.209l-1.057,-1.132l-1.158,-1.083l-1.183,-1.006l-1.284,-0.932l-1.309,-0.856l-1.36,-0.755l-1.435,-0.68l-1.434,-0.579l-1.486,-0.504l-1.536,-0.403l-1.535,-0.302l-1.561,-0.201l-1.561,-0.101l-1.561,-0.025Zm-129.502,0l-1.561,0l-1.586,0.126l-1.561,0.201l-1.536,0.302l-1.536,0.403l-1.509,0.479l-1.461,0.604l-1.41,0.68l-1.384,0.755l-1.335,0.856l-1.258,0.931l-1.209,1.007l-1.133,1.083l-1.083,1.158l-0.981,1.233l-0.932,1.284l-0.83,1.335l-0.756,1.384l-0.654,1.435l-0.554,1.485l-0.479,1.486l-0.377,1.536l-0.277,1.561l-0.201,1.561l-0.075,1.56l0.025,1.587l0.125,1.585l0.201,1.562l0.328,1.535l0.402,1.511l0.504,1.51l0.604,1.46l0.68,1.41l0.78,1.36l0.857,1.333l0.956,1.26l1.032,1.208l1.083,1.133l1.158,1.057l1.234,0.982l1.283,0.906l1.361,0.831l1.384,0.73l1.434,0.655l1.486,0.554l1.511,0.453l1.535,0.377l1.561,0.252l1.561,0.177l1.561,0.075l1.586,-0.026l1.561,-0.125l1.56,-0.252l1.561,-0.302l1.511,-0.428l1.485,-0.529l1.461,-0.604l1.409,-0.705l1.359,-0.78l1.31,-0.881l1.258,-0.957l1.209,-1.032l1.108,-1.108l1.057,-1.158l0.982,-1.233l0.906,-1.309l0.806,-1.36l0.73,-1.385l0.629,-1.46l0.554,-1.46l0.453,-1.511l0.353,-1.536l0.252,-1.56l-26.133,-0l-0.579,-0.051l-0.554,-0.15l-0.502,-0.252l-0.479,-0.328l-0.403,-0.402l-0.327,-0.453l-0.252,-0.529l-0.126,-0.554l-0.05,-0.554l0.05,-0.579l0.126,-0.554l0.252,-0.503l6.319,-10.939l6.319,-10.939l-1.511,-0.478l-1.535,-0.403l-1.536,-0.276l-1.561,-0.202l-1.586,-0.101Zm52.818,15.457l-0.931,0.051l-0.932,0.126l-0.906,0.227l-0.882,0.327l-0.831,0.403l-0.805,0.478l-0.755,0.554l-0.68,0.629l-0.629,0.68l-0.554,0.755l-0.479,0.806l-0.402,0.831l-0.327,0.881l-0.227,0.906l-0.126,0.932l-0.051,0.931l0.051,0.932l0.126,0.931l0.227,0.906l0.327,0.881l0.402,0.831l0.479,0.806l0.554,0.755l0.629,0.68l0.68,0.629l0.755,0.554l0.805,0.478l0.831,0.403l0.882,0.328l0.906,0.226l0.932,0.126l0.931,0.05l0.932,-0.05l0.931,-0.126l0.906,-0.226l0.881,-0.328l0.831,-0.403l0.806,-0.478l0.755,-0.554l0.679,-0.629l0.63,-0.68l0.554,-0.755l0.478,-0.806l0.403,-0.831l0.328,-0.881l0.226,-0.906l0.126,-0.931l0.05,-0.932l-0.05,-0.931l-0.126,-0.932l-0.226,-0.906l-0.328,-0.881l-0.403,-0.831l-0.478,-0.806l-0.554,-0.755l-0.63,-0.68l-0.679,-0.629l-0.755,-0.554l-0.806,-0.478l-0.831,-0.403l-0.881,-0.327l-0.906,-0.227l-0.931,-0.126l-0.932,-0.051Zm-37.36,-9.541l-9.114,15.786l17.724,-0l-0.252,-1.511l-0.352,-1.486l-0.428,-1.485l-0.504,-1.435l-0.605,-1.41l-0.705,-1.36l-0.779,-1.334l-0.856,-1.259l-0.932,-1.233l-1.007,-1.158l-1.057,-1.083l-1.133,-1.032Zm15.76,-27.29l-10.347,17.925l1.434,1.158l1.385,1.234l1.309,1.284l1.259,1.359l1.183,1.435l1.083,1.485l1.032,1.561l0.931,1.586l0.856,1.637l0.781,1.687l0.679,1.711l0.579,1.763l0.504,1.787l0.403,1.813l0.327,1.812l0.202,1.839l3.499,-0l0.327,-1.259l0.453,-1.209l0.554,-1.158l0.655,-1.108l0.73,-1.057l0.831,-1.007l0.931,-0.906l0.982,-0.831l-12.562,-34.541Zm73.31,-1.233l-64.273,-0l11.908,32.728l1.259,-0l1.259,0.1l1.258,0.201l1.209,0.328l2.241,-4.808l-4.029,-0l0,-4.759l4.029,0l0.428,-0.503l0.503,-0.453l0.554,-0.353l0.604,-0.251l0.654,-0.177l0.68,-0.05l0.655,0.05l0.654,0.177l0.605,0.251l0.579,0.353l0.504,0.453l0.402,0.503l4.029,0l-0,4.759l-6.245,-0l-3.071,6.57l0.957,0.68l43.981,-30.815l-1.334,-4.984Z"/></g></svg>