<?xml version="1.0" encoding="UTF-8" standalone="no"?><!DOCTYPE svg PUBLIC "-//W3C//DTD SVG 1.1//EN" "http://www.w3.org/Graphics/SVG/1.1/DTD/svg11.dtd"><svg width="100%" height="100%" viewBox="0 0 454 454" version="1.1" xmlns="http://www.w3.org/2000/svg" xmlns:xlink="http://www.w3.org/1999/xlink" xml:space="preserve" xmlns:serif="http://www.serif.com/" style="fill-rule:evenodd;clip-rule:evenodd;stroke-linejoin:round;stroke-miterlimit:2;"><g transform="matrix(50,0,0,50,321.022,244.423)"></g><text x="133.4px" y="244.423px" style="font-family:'ArialMT', 'Arial', sans-serif;font-size:50px;">sw=38.4</text><circle cx="226.772" cy="226.772" r="226.772" style="fill:#e31837;"/><circle cx="226.772" cy="226.772" r="179.938" style="fill:#ffd200;"/><path id="path1572" d="M163.564,113.412l0,13.471l19.565,0l0,55.565l14.17,-0l0,-55.565l19.565,0l0,-13.471l-53.3,0Z" style="fill:#010001;fill-rule:nonzero;"/><path id="path1620" d="M131.133,155.839l1.566,0.606l1.304,0.876l1.126,1.21l0.783,1.398l0.439,1.472l0.086,1.659l-0.261,1.565l-0.689,1.471l-0.96,1.304l-1.482,1.222l-1.649,0.949l-1.826,0.699l-1.909,0.344l-4.696,-0l-2.692,-0.344l-2.609,-0.522l-2.525,-0.866l-2.525,-1.127l-2.953,-1.919l-2.786,-2.087l-2.515,-2.432l-11.999,9.214l2.525,2.609l2.692,2.431l2.869,2.181l3.037,1.909l3.308,1.566l3.735,1.221l3.913,0.866l3.913,0.605l3.913,0.262l3.997,-0.087l3.913,-0.343l3.913,-0.699l3.829,-1.044l2.609,-1.044l2.431,-1.388l2.264,-1.742l2.004,-2.004l1.732,-2.254l1.398,-2.441l1.033,-2.599l0.699,-2.786l0.261,-2.786l-0.086,-2.775l-0.439,-2.87l-0.783,-2.702l-1.21,-2.515l-1.565,-2.087l-1.826,-1.826l-1.92,-1.659l-2.171,-1.471l-2.264,-1.222l-2.17,-0.866l-2.265,-0.699l-16.163,-3.996l-1.137,-0.439l-1.044,-0.689l-0.867,-0.96l-0.698,-1.044l-0.344,-1.126l-0.178,-1.221l0.099,-1.221l0.428,-1.21l0.615,-1.044l1.387,-1.398l1.566,-1.044l1.826,-0.783l1.909,-0.427l1.92,-0.178l2.859,0.178l2.786,0.427l2.786,0.783l2.609,0.96l2.515,1.304l2.441,1.565l2.171,1.826l10.695,-9.735l-2.869,-2.525l-3.047,-2.171l-3.297,-1.92l-3.392,-1.648l-3.568,-1.21l-3.736,-0.961l-3.746,-0.521l-3.819,-0.177l-3.736,0.177l-3.746,0.521l-3.735,0.961l-2.692,1.043l-2.526,1.294l-2.347,1.659l-2.171,1.91l-1.92,2.087l-1.471,2.087l-1.138,2.264l-0.866,2.348l-0.605,2.431l-0.178,2.525l0.087,2.515l0.438,2.525l0.783,2.348l1.044,2.348l1.304,2.087l1.649,1.993l1.826,1.659l2.609,1.732l2.869,1.221l3.047,0.783l16.251,3.654Z" style="fill:#010001;fill-rule:nonzero;"/><path id="path1608" d="M310.504,113.412l-0,69.036l14.076,-0l0,-24.344l15.652,-0l2.692,-0.178l2.703,-0.521l2.515,-0.866l2.441,-1.222l2.348,-1.482l1.993,-1.732l1.826,-2.003l1.565,-2.254l1.22,-2.264l1.044,-2.348l0.783,-2.431l0.439,-2.526l0.086,-2.525l-0.086,-2.515l-0.439,-2.525l-0.783,-2.431l-1.044,-2.348l-1.22,-2.264l-1.565,-2.264l-1.826,-1.993l-1.993,-1.743l-2.348,-1.482l-2.441,-1.21l-2.515,-0.866l-2.703,-0.533l-2.692,-0.167l-29.728,0.001Zm14.076,12.783l14.003,-0l1.733,0.166l1.659,0.522l1.565,0.782l1.388,1.044l1.126,1.398l0.876,1.472l0.606,1.659l0.261,1.732l-0,1.659l-0.261,1.732l-0.606,1.565l-0.876,1.565l-1.126,1.305l-1.388,1.044l-1.565,0.782l-1.659,0.522l-1.733,0.177l-14.003,0l0,-19.126Z" style="fill:#010001;fill-rule:nonzero;"/><path id="path1596" d="M257.371,111.764l-3.475,0.344l-3.391,0.605l-3.297,1.126l-3.224,1.398l-2.954,1.743l-2.785,2.077l-2.609,2.702l-2.254,2.87l-2.003,3.13l-1.743,3.297l-1.304,3.486l-0.949,3.558l-0.699,3.652l-0.261,3.652l-0,4.956l0.261,3.736l0.699,3.652l0.949,3.569l1.304,3.474l1.743,3.308l2.003,3.047l2.254,2.953l2.609,2.609l2.785,2.087l2.954,1.826l3.224,1.387l3.297,1.044l3.391,0.699l3.475,0.344l4.007,-0l3.391,-0.344l3.475,-0.699l3.308,-1.044l3.13,-1.387l3.037,-1.826l2.786,-2.087l2.608,-2.609l2.254,-2.953l2.004,-3.047l1.648,-3.308l1.398,-3.474l0.949,-3.569l0.617,-3.652l0.261,-3.736l-0,-4.956l-0.261,-3.652l-0.617,-3.652l-0.949,-3.558l-1.398,-3.486l-1.648,-3.297l-2.004,-3.13l-2.254,-2.87l-2.608,-2.702l-2.786,-2.077l-3.037,-1.743l-3.13,-1.398l-3.308,-1.126l-3.475,-0.605l-3.391,-0.344l-4.007,-0Zm2.003,13.471l2.171,0.086l2.181,0.439l2.087,0.605l1.993,0.876l1.826,1.21l1.659,1.399l1.471,1.648l1.221,1.743l0.961,1.909l0.689,2.087l0.866,3.475l0.532,3.569l0.087,3.652l-0.087,3.558l-0.532,3.569l-0.866,3.568l-0.689,1.993l-0.961,2.004l-1.221,1.742l-1.471,1.649l-1.659,1.388l-1.826,1.137l-1.993,0.867l-2.087,0.689l-2.181,0.355l-2.171,0.167l-2.17,-0.167l-2.181,-0.355l-2.087,-0.689l-1.993,-0.867l-1.826,-1.137l-1.648,-1.388l-1.482,-1.649l-1.221,-1.742l-0.949,-2.004l-0.783,-1.993l-0.783,-3.568l-0.521,-3.569l-0.099,-3.558l0.099,-3.652l0.521,-3.569l0.783,-3.475l0.783,-2.087l0.949,-1.909l1.221,-1.743l1.482,-1.648l1.648,-1.399l1.826,-1.21l1.993,-0.876l2.087,-0.605l2.181,-0.439l2.17,-0.086Z" style="fill:#010001;fill-rule:nonzero;"/><path d="M382.061,226.772c-0,-16.325 -13.254,-29.579 -29.579,-29.579l-251.421,-0c-16.325,-0 -29.579,13.254 -29.579,29.579c0,16.325 13.254,29.579 29.579,29.579l251.421,-0c16.325,-0 29.579,-13.254 29.579,-29.579Z"/><path id="path1648" d="M285.756,308.634l4.429,-4.954l14.541,22.954l12.521,-0l-19.69,-31.108l18.712,-20.669l-14.274,0l-16.239,18l-0,-18l-10.628,0l0,51.777l10.628,-0l-0,-18Z" style="fill:#010001;fill-rule:nonzero;"/><path id="path1604" d="M109.883,326.563l-13.296,0l-12.067,-51.706l10.893,0l8.28,35.538l7.435,-35.538l12.326,0l7.426,35.538l8.288,-35.538l10.886,0l-12.06,51.706l-13.304,0l-7.372,-35.467l-7.435,35.467Z" style="fill:#010001;fill-rule:nonzero;"/><path id="path16201" serif:id="path1620" d="M351.087,306.678l1.174,0.453l0.978,0.658l0.845,0.907l0.587,1.049l0.329,1.103l0.064,1.245l-0.196,1.174l-0.516,1.103l-0.72,0.978l-1.112,0.916l-1.236,0.712l-1.37,0.524l-1.432,0.258l-3.522,0l-2.019,-0.258l-1.956,-0.391l-1.894,-0.65l-1.894,-0.844l-2.215,-1.44l-2.089,-1.566l-1.886,-1.823l-9,6.91l1.894,1.957l2.019,1.823l2.152,1.636l2.278,1.432l2.48,1.174l2.802,0.916l2.935,0.65l2.934,0.454l2.935,0.196l2.997,-0.065l2.935,-0.258l2.935,-0.524l2.872,-0.783l1.957,-0.783l1.823,-1.041l1.698,-1.307l1.503,-1.502l1.299,-1.691l1.049,-1.831l0.774,-1.949l0.524,-2.089l0.196,-2.09l-0.064,-2.081l-0.33,-2.153l-0.586,-2.026l-0.908,-1.886l-1.174,-1.566l-1.37,-1.369l-1.44,-1.244l-1.627,-1.104l-1.699,-0.916l-1.627,-0.65l-1.699,-0.524l-12.122,-2.997l-0.853,-0.329l-0.783,-0.517l-0.65,-0.72l-0.524,-0.783l-0.258,-0.845l-0.133,-0.915l0.074,-0.916l0.321,-0.908l0.461,-0.783l1.041,-1.048l1.174,-0.783l1.369,-0.587l1.432,-0.321l1.44,-0.133l2.145,0.133l2.089,0.321l2.09,0.587l1.956,0.72l1.886,0.978l1.832,1.174l1.627,1.37l8.022,-7.302l-2.152,-1.894l-2.285,-1.628l-2.473,-1.44l-2.544,-1.236l-2.676,-0.908l-2.802,-0.72l-2.809,-0.391l-2.865,-0.133l-2.802,0.133l-2.809,0.391l-2.802,0.72l-2.019,0.783l-1.894,0.971l-1.761,1.244l-1.627,1.432l-1.44,1.565l-1.104,1.565l-0.853,1.699l-0.65,1.76l-0.454,1.824l-0.133,1.894l0.065,1.886l0.329,1.894l0.587,1.761l0.783,1.76l0.978,1.566l1.237,1.494l1.369,1.245l1.957,1.299l2.152,0.916l2.285,0.587l12.189,2.741Z" style="fill:#010001;fill-rule:nonzero;"/><path id="path1616" d="M220.221,274.857l0,51.777l10.557,-0l0,-20.215l6.919,0l11.801,20.215l12.326,-0l-12.388,-21.13l1.886,-0.845l1.831,-1.111l1.628,-1.307l1.432,-1.558l1.236,-1.698l0.979,-1.823l0.782,-1.957l0.463,-2.027l0.196,-2.081l-0.074,-2.153l-0.391,-2.026l-0.587,-2.02l-0.908,-1.894l-1.174,-1.76l-1.307,-1.628l-1.565,-1.37l-1.761,-1.174l-1.894,-0.978l-1.948,-0.65l-2.09,-0.462l-2.089,-0.125l-23.86,0Zm10.557,9.587l12.326,0l1.245,0.125l1.103,0.391l1.111,0.524l0.916,0.783l0.782,0.916l0.517,1.103l0.391,1.112l0.133,1.236l-0.133,1.174l-0.391,1.174l-0.517,1.049l-0.782,0.978l-0.916,0.713l-1.111,0.587l-1.103,0.391l-1.245,0.073l-12.326,0l0,-12.329Z" style="fill:#010001;fill-rule:nonzero;"/><path id="path15961" serif:id="path1596" d="M180.505,273.621l-2.606,0.258l-2.544,0.454l-2.473,0.844l-2.418,1.049l-2.215,1.307l-2.089,1.557l-1.957,2.027l-1.69,2.153l-1.503,2.347l-1.307,2.473l-0.978,2.614l-0.712,2.669l-0.524,2.739l-0.196,2.739l0,3.717l0.196,2.802l0.524,2.739l0.712,2.676l0.978,2.607l1.307,2.48l1.503,2.286l1.69,2.214l1.957,1.957l2.089,1.565l2.215,1.369l2.418,1.041l2.473,0.783l2.544,0.524l2.606,0.258l3.005,0l2.543,-0.258l2.606,-0.524l2.481,-0.783l2.348,-1.041l2.277,-1.369l2.09,-1.565l1.956,-1.957l1.691,-2.214l1.502,-2.286l1.237,-2.48l1.048,-2.607l0.712,-2.676l0.462,-2.739l0.196,-2.802l0,-3.717l-0.196,-2.739l-0.462,-2.739l-0.712,-2.669l-1.048,-2.614l-1.237,-2.473l-1.502,-2.347l-1.691,-2.153l-1.956,-2.027l-2.09,-1.557l-2.277,-1.307l-2.348,-1.049l-2.481,-0.844l-2.606,-0.454l-2.543,-0.258l-3.005,-0Zm1.502,10.103l1.628,0.065l1.636,0.329l1.565,0.454l1.495,0.657l1.369,0.908l1.244,1.048l1.104,1.237l0.916,1.307l0.72,1.432l0.517,1.565l0.65,2.606l0.399,2.677l0.065,2.739l-0.065,2.668l-0.399,2.677l-0.65,2.676l-0.517,1.495l-0.72,1.503l-0.916,1.306l-1.104,1.237l-1.244,1.041l-1.369,0.853l-1.495,0.65l-1.565,0.517l-1.636,0.266l-1.628,0.125l-1.628,-0.125l-1.635,-0.266l-1.565,-0.517l-1.495,-0.65l-1.37,-0.853l-1.236,-1.041l-1.111,-1.237l-0.916,-1.306l-0.712,-1.503l-0.587,-1.495l-0.587,-2.676l-0.391,-2.677l-0.074,-2.668l0.074,-2.739l0.391,-2.677l0.587,-2.606l0.587,-1.565l0.712,-1.432l0.916,-1.307l1.111,-1.237l1.236,-1.048l1.37,-0.908l1.495,-0.657l1.565,-0.454l1.635,-0.329l1.628,-0.065Z" style="fill:#010001;fill-rule:nonzero;"/></svg>