<?xml version="1.0" encoding="UTF-8" standalone="no"?><!DOCTYPE svg PUBLIC "-//W3C//DTD SVG 1.1//EN" "http://www.w3.org/Graphics/SVG/1.1/DTD/svg11.dtd"><svg width="100%" height="100%" viewBox="0 0 473 426" version="1.1" xmlns="http://www.w3.org/2000/svg" xmlns:xlink="http://www.w3.org/1999/xlink" xml:space="preserve" xmlns:serif="http://www.serif.com/" style="fill-rule:evenodd;clip-rule:evenodd;stroke-linejoin:round;stroke-miterlimit:2;"><g transform="matrix(50,0,0,50,238.515,230.25)"></g><text x="92.593px" y="230.25px" style="font-family:'ArialMT', 'Arial', sans-serif;font-size:50px;">sw=36</text><g id="_651-Verge-Maintained-in-Ornamental-Condition" serif:id="651 Verge Maintained in Ornamental Condition"><path d="M472.441,16.535l-0,392.126c-0,9.127 -7.409,16.536 -16.535,16.536l-439.371,-0c-9.126,-0 -16.535,-7.409 -16.535,-16.536l-0,-392.126c-0,-9.126 7.409,-16.535 16.535,-16.535l439.371,-0c9.126,-0 16.535,7.409 16.535,16.535Z"/><path d="M464.173,16.535l0,392.126c0,4.563 -3.704,8.268 -8.267,8.268l-439.371,0c-4.563,0 -8.267,-3.705 -8.267,-8.268l-0,-392.126c-0,-4.563 3.704,-8.267 8.267,-8.267l439.371,-0c4.563,-0 8.267,3.704 8.267,8.267Z" style="fill:#fff;"/><g><circle cx="236.22" cy="82.677" r="59.055" style="fill:#e31837;"/><circle cx="236.22" cy="82.677" r="47.244" style="fill:#fff;"/><path d="M196.068,91.493l0.05,-0.74l0.09,-0.73l0.13,-0.74l0.17,-0.72l0.21,-0.71l0.241,-0.7l0.28,-0.69l0.31,-0.68l0.35,-0.65l0.38,-0.64l0.42,-0.61l0.45,-0.59l0.48,-0.57l0.5,-0.55l0.54,-0.51l0.56,-0.491l0.58,-0.45l0.61,-0.43l0.63,-0.39l0.65,-0.36l0.67,-0.33l0.68,-0.28l0.7,-0.26l0.71,-0.21l0.72,-0.18l0.73,-0.14l0.74,-0.1l0.74,-0.07l0.74,-0.02l0.74,0.01l0.74,0.05l0.74,0.1l0.731,0.13l0.73,0.17l0.71,0.2l0.7,0.24l3.07,-11.451l0.04,-0.21l-0.01,-0.22l-0.04,-0.22l-0.08,-0.2l-0.12,-0.18l-0.15,-0.16l-0.18,-0.13l-0.3,-0.2l-0.29,-0.23l-0.26,-0.25l-0.23,-0.28l-0.21,-0.31l-0.17,-0.31l-0.15,-0.34l-0.11,-0.35l-0.08,-0.35l-0.04,-0.36l-0.01,-0.37l0.03,-0.36l0.06,-0.36l0.1,-0.35l0.13,-0.34l0.16,-0.33l0.19,-0.31l0.22,-0.29l0.25,-0.27l0.28,-0.24l0.29,-0.21l0.32,-0.19l0.33,-0.15l0.34,-0.12l0.35,-0.09l0.36,-0.05l0.37,-0.02l6.61,-0l0,3.54l-5.43,-0l-0.16,0.02l-0.16,0.06l-0.14,0.09l-0.11,0.12l-0.08,0.15l-0.05,0.16l-0.01,0.16l0.03,0.17l0.07,0.15l0.1,0.13l0.13,0.1l0.29,0.2l0.26,0.24l0.24,0.25l0.21,0.28l0.18,0.31l0.14,0.31l0.11,0.34l0.08,0.34l0.03,0.35l0,0.35l-0.03,0.34l-0.07,0.35l-0.57,2.12l25.872,0l1.29,-3.54l-5.461,-1.21l-0.2,-0.06l-0.18,-0.1l-0.16,-0.12l-0.14,-0.15l-0.11,-0.17l-0.08,-0.18l-0.05,-0.2l-0.01,-0.2l0.02,-0.2l0.06,-0.2l0.09,-0.18l0.12,-0.17l0.14,-0.14l0.17,-0.11l0.18,-0.09l0.2,-0.05l0.2,-0.02l12.221,-0l0.12,0.02l0.11,0.05l0.1,0.07l0.07,0.1l0.05,0.11l0.02,0.12l-0.02,0.12l-0.11,0.39l-0.16,0.38l-0.19,0.35l-0.22,0.34l-0.26,0.32l-0.28,0.29l-0.31,0.26l-0.34,0.23l-0.35,0.2l-0.37,0.16l-0.39,0.13l-0.39,0.09l-0.4,0.05l-1.09,3l5.59,9.691l0.69,-0.27l0.71,-0.24l0.71,-0.19l0.72,-0.16l0.731,-0.12l0.74,-0.08l0.74,-0.05l0.74,0l0.74,0.03l0.74,0.08l0.73,0.11l0.73,0.15l0.71,0.18l0.71,0.23l0.69,0.26l0.68,0.3l0.67,0.33l0.64,0.36l0.62,0.4l0.61,0.43l0.58,0.47l0.55,0.491l0.53,0.52l0.5,0.54l0.47,0.58l0.44,0.59l0.41,0.62l0.37,0.64l0.34,0.66l0.31,0.67l0.271,0.69l0.24,0.7l0.19,0.72l0.159,0.72l0.121,0.73l0.089,0.74l0.04,0.74l0.01,0.74l-0.03,0.741l-0.069,0.74l-0.111,0.73l-0.149,0.72l-0.191,0.72l-0.22,0.71l-0.26,0.69l-0.29,0.68l-0.33,0.66l-0.37,0.65l-0.39,0.62l-0.43,0.61l-0.47,0.58l-0.49,0.55l-0.51,0.53l-0.55,0.5l-0.57,0.48l-0.6,0.44l-0.61,0.41l-0.64,0.371l-0.66,0.35l-0.67,0.3l-0.69,0.28l-0.7,0.23l-0.72,0.2l-0.72,0.16l-0.73,0.13l-0.74,0.08l-0.74,0.05l-0.74,0.01l-0.74,-0.03l-0.73,-0.07l-0.74,-0.11l-0.721,-0.14l-0.72,-0.19l-0.71,-0.22l-0.69,-0.26l-0.68,-0.29l-0.67,-0.33l-0.64,-0.361l-0.63,-0.4l-0.6,-0.43l-0.59,-0.45l-0.55,-0.49l-0.53,-0.52l-0.5,-0.55l-0.48,-0.57l-0.44,-0.59l-0.41,-0.62l-0.38,-0.63l-0.35,-0.66l-0.31,-0.67l-0.27,-0.69l-0.24,-0.7l-0.2,-0.71l-0.16,-0.73l-0.13,-0.73l-0.08,-0.73l-1.39,-0l-0.13,0.49l-0.18,0.47l-0.21,0.46l-0.25,0.44l-0.29,0.42l-0.33,0.39l-0.35,0.36l-0.39,0.32l-0.41,0.3l1.22,2.61l2.48,0l-0,1.89l-1.6,0l-0.17,0.2l-0.2,0.18l-0.22,0.14l-0.24,0.1l-0.26,0.06l-0.27,0.03l-0.26,-0.03l-0.26,-0.06l-0.24,-0.1l-0.231,-0.14l-0.19,-0.18l-0.17,-0.2l-1.6,0l0,-1.89l1.6,0l-0.89,-1.91l-0.48,0.12l-0.48,0.08l-0.49,0.05l-0.5,-0l-0.49,-0.04l-0.49,-0.08l-0.47,-0.12l-0.47,-0.16l-0.45,-0.2l-0.44,-0.24l-0.41,-0.27l-0.39,-0.3l-0.36,-0.34l-0.33,-0.36l-0.3,-0.39l-0.27,-0.42l-0.23,-0.43l-0.19,-0.46l-0.16,-0.47l-0.11,-0.48l-0.08,-0.481l-0.03,-0.5l-0,-0.49l0.05,-0.49l0.09,-0.48l0.13,-0.48l-16.421,-11.491l-0.46,1.71l0.6,0.45l0.57,0.471l0.54,0.51l0.52,0.53l0.49,0.56l0.45,0.58l0.43,0.61l0.4,0.63l0.36,0.65l0.32,0.66l0.3,0.69l0.25,0.69l0.22,0.71l0.18,0.72l0.14,0.73l0.11,0.74l0.07,0.74l0.02,0.74l-0.01,0.74l-0.05,0.741l-0.09,0.74l-0.13,0.73l-0.16,0.72l-0.21,0.72l-0.24,0.7l-0.27,0.69l-0.32,0.67l-0.34,0.66l-0.39,0.64l-0.41,0.61l-0.45,0.6l-0.47,0.57l-0.51,0.54l-0.53,0.52l-0.56,0.48l-0.59,0.46l-0.6,0.43l-0.63,0.39l-0.65,0.361l-0.67,0.33l-0.68,0.29l-0.7,0.25l-0.71,0.22l-0.72,0.18l-0.731,0.14l-0.74,0.11l-0.73,0.06l-0.75,0.03l-0.74,-0.01l-0.74,-0.05l-0.74,-0.09l-0.73,-0.13l-0.72,-0.17l-0.72,-0.2l-0.7,-0.24l-0.69,-0.28l-0.67,-0.32l-0.66,-0.34l-0.63,-0.391l-0.62,-0.41l-0.59,-0.45l-0.57,-0.48l-0.54,-0.5l-0.52,-0.54l-0.49,-0.56l-0.45,-0.58l-0.43,-0.61l-0.39,-0.63l-0.36,-0.65l-0.33,-0.67l-0.29,-0.68l-0.251,-0.7l-0.22,-0.71l-0.18,-0.72l-0.14,-0.73l-0.1,-0.73l-0.07,-0.74l-0.02,-0.751l0.01,-0.74Zm48.464,-4.06l0.39,0.33l0.37,0.36l0.33,0.4l0.29,0.42l0.26,0.44l0.22,0.46l0.18,0.48l0.13,0.5l1.39,0l0.08,-0.73l0.13,-0.72l0.16,-0.72l0.2,-0.71l0.23,-0.7l0.27,-0.68l0.31,-0.67l0.34,-0.65l0.37,-0.63l0.41,-0.62l0.43,-0.59l0.47,-0.57l0.5,-0.54l0.52,-0.51l0.55,-0.491l0.57,-0.46l-4.11,-7.12l-4.99,13.721Zm8.24,1.61l-0.17,0.59l-0.14,0.59l-0.1,0.6l7.04,0l-3.62,-6.27l-0.45,0.41l-0.42,0.43l-0.4,0.46l-0.37,0.49l-0.34,0.5l-0.31,0.53l-0.28,0.54l-0.24,0.56l-0.2,0.57Zm-15.611,3.08l0.02,0.37l0.05,0.37l0.09,0.361l0.13,0.35l0.16,0.33l0.19,0.32l0.22,0.3l0.25,0.27l0.27,0.25l0.3,0.22l0.32,0.19l0.33,0.16l0.35,0.13l0.36,0.09l0.37,0.05l0.37,0.02l0.37,-0.02l0.37,-0.05l0.36,-0.09l0.35,-0.13l0.33,-0.16l0.32,-0.19l0.3,-0.22l0.27,-0.25l0.25,-0.27l0.221,-0.3l0.19,-0.32l0.16,-0.33l0.13,-0.35l0.09,-0.361l0.05,-0.37l0.02,-0.37l-0.02,-0.37l-0.05,-0.37l-0.09,-0.36l-0.13,-0.35l-0.16,-0.33l-0.19,-0.32l-0.221,-0.3l-0.25,-0.27l-0.27,-0.25l-0.3,-0.22l-0.32,-0.19l-0.33,-0.16l-0.35,-0.13l-0.36,-0.09l-0.37,-0.05l-0.37,-0.02l-0.37,0.02l-0.37,0.05l-0.36,0.09l-0.35,0.13l-0.33,0.16l-0.32,0.19l-0.3,0.22l-0.27,0.25l-0.25,0.27l-0.22,0.3l-0.19,0.32l-0.16,0.33l-0.13,0.35l-0.09,0.36l-0.05,0.37l-0.02,0.37Zm25.582,1.301l-10.381,-0l0.1,0.62l0.14,0.61l0.18,0.6l0.22,0.58l0.25,0.58l0.29,0.55l0.32,0.54l0.36,0.52l0.39,0.49l0.42,0.46l0.44,0.44l0.48,0.41l0.5,0.38l0.52,0.35l0.54,0.31l0.56,0.28l0.58,0.24l0.59,0.21l0.6,0.17l0.621,0.12l0.619,0.1l0.621,0.05l0.63,0.01l0.62,-0.03l0.62,-0.07l0.62,-0.1l0.61,-0.15l0.6,-0.18l0.59,-0.22l0.57,-0.26l0.55,-0.29l0.54,-0.33l0.51,-0.36l0.49,-0.39l0.46,-0.42l0.43,-0.45l0.41,-0.48l0.38,-0.5l0.34,-0.53l0.31,-0.54l0.27,-0.56l0.24,-0.58l0.2,-0.6l0.16,-0.6l0.13,-0.61l0.08,-0.62l0.05,-0.631l0.01,-0.63l-0.03,-0.62l-0.08,-0.62l-0.11,-0.62l-0.15,-0.61l-0.19,-0.59l-0.22,-0.59l-0.26,-0.57l-0.3,-0.55l-0.33,-0.53l-0.37,-0.51l-0.39,-0.49l-0.43,-0.46l-0.45,-0.43l-0.48,-0.4l-0.5,-0.37l-0.53,-0.34l-0.55,-0.3l-0.56,-0.27l-0.58,-0.24l-0.6,-0.19l-0.61,-0.16l-0.61,-0.12l-0.62,-0.08l-0.63,-0.05l-0.62,-0l-0.63,0.04l-0.62,0.08l-0.611,0.11l-0.61,0.16l-0.6,0.19l5.021,8.69l0.1,0.2l0.05,0.22l0.02,0.23l-0.02,0.22l-0.05,0.22l-0.1,0.21l-0.13,0.181l-0.16,0.16l-0.19,0.13l-0.2,0.1l-0.22,0.06l-0.23,0.02Zm-61.864,-4.611l-0.19,0.59l-0.15,0.61l-0.12,0.61l-0.07,0.62l-0.04,0.62l0.01,0.62l0.04,0.631l0.08,0.61l0.12,0.61l0.16,0.61l0.19,0.59l0.24,0.58l0.26,0.56l0.31,0.54l0.33,0.53l0.37,0.5l0.4,0.48l0.43,0.45l0.46,0.42l0.48,0.4l0.5,0.36l0.53,0.33l0.55,0.3l0.56,0.26l0.59,0.23l0.59,0.19l0.6,0.15l0.62,0.11l0.61,0.08l0.63,0.04l0.62,-0.01l0.62,-0.04l0.62,-0.08l0.61,-0.12l0.601,-0.16l0.59,-0.19l0.58,-0.23l0.56,-0.27l0.55,-0.3l0.52,-0.34l0.51,-0.37l0.47,-0.4l0.46,-0.43l0.42,-0.45l0.4,-0.48l0.36,-0.51l0.33,-0.53l0.3,-0.54l0.26,-0.57l0.23,-0.58l0.19,-0.59l0.15,-0.61l0.12,-0.61l0.07,-0.62l0.04,-0.621l-0,-0.62l-0.05,-0.62l-0.08,-0.62l-0.12,-0.61l-0.15,-0.61l-0.2,-0.59l-0.23,-0.58l-0.27,-0.56l-0.3,-0.54l-0.33,-0.53l-0.37,-0.5l-0.4,-0.48l-0.43,-0.45l-0.8,2.97l-0.15,0.51l-0.2,0.5l-0.22,0.48l-0.26,0.47l-0.3,0.44l-0.32,0.42l-0.35,0.4l-0.38,0.38l-0.41,0.34l-0.43,0.32l-0.45,0.29l-0.461,0.25l-0.49,0.221l-0.5,0.18l-0.51,0.15l-0.52,0.12l-0.23,0.02l-0.23,-0.02l-0.22,-0.05l-0.21,-0.09l-0.19,-0.12l-0.17,-0.15l-0.15,-0.18l-0.12,-0.191l-0.08,-0.22l-0.05,-0.22l-0.01,-0.23l0.03,-0.22l0.06,-0.22l0.1,-0.21l0.13,-0.19l0.15,-0.17l0.19,-0.13l0.51,-0.36l0.5,-0.4l0.47,-0.43l0.43,-0.45l0.41,-0.49l0.37,-0.51l0.33,-0.54l0.301,-0.55l0.27,-0.58l0.22,-0.59l0.18,-0.61l0.65,-2.43l-0.58,-0.23l-0.59,-0.18l-0.611,-0.16l-0.61,-0.11l-0.62,-0.07l-0.62,-0.04l-0.62,0.01l-0.62,0.04l-0.62,0.08l-0.61,0.12l-0.61,0.16l-0.59,0.2l-0.57,0.23l-0.57,0.27l-0.54,0.3l-0.52,0.34l-0.51,0.37l-0.47,0.4l-0.46,0.43l-0.42,0.45l-0.39,0.48l-0.37,0.51l-0.33,0.53l-0.29,0.55l-0.27,0.56l-0.22,0.58Zm36.462,-1.37l0.38,-0.27l-1.22,-2.61l-2.48,-0l-0,-1.89l1.6,-0l0.16,-0.2l0.2,-0.18l0.23,-0.14l0.24,-0.1l0.26,-0.07l0.26,-0.02l0.27,0.02l0.26,0.07l0.24,0.1l0.22,0.14l0.2,0.18l0.17,0.2l1.6,-0l0,1.89l-1.6,-0l0.89,1.91l0.48,-0.13l0.5,-0.08l0.5,-0.04l0.5,-0l4.731,-13.001l-25.532,-0l-0.53,1.98l17.471,12.241Z"/></g><g><circle cx="377.953" cy="82.677" r="59.055" style="fill:#e31837;"/><circle cx="377.953" cy="82.677" r="47.244" style="fill:#fff;"/><path d="M353.346,106.299l1.158,-1.03l1.123,-1.065l1.099,-1.099l1.053,-1.123l1.03,-1.158l0.996,-1.192l0.949,-1.216l0.914,-1.25l0.88,-1.273l0.845,-1.296l0.798,-1.32l0.764,-1.343l0.729,-1.377l0.683,-1.389l0.637,-1.401l0.59,-1.435l0.44,-1.251l0.405,-1.273l0.347,-1.285l0.313,-1.296l0.266,-1.308l0.22,-1.308l0.185,-1.32l0.139,-1.331l0.092,-1.32l0.047,-1.331l-0,-1.343l-0.047,-1.331l-0.59,0.533l-0.567,0.567l-0.532,0.602l-0.498,0.625l-0.463,0.648l-0.417,0.683l-0.382,0.695l-0.347,0.729l-0.289,0.741l-0.255,0.752l-0.208,0.776l-0.174,0.775l-0.058,0.672l-0.034,0.671l0.023,0.683l0.058,0.671l0.104,0.66l0.139,0.66l0.173,0.648l0.07,0.266l0.034,0.267l-0.011,0.266l-0.046,0.266l-0.093,0.255l-0.127,0.231l-0.162,0.22l-0.197,0.185l-0.22,0.151l-0.243,0.127l-0.255,0.081l-0.266,0.047l-0.266,-0l-0.266,-0.047l-0.521,-0.092l-0.521,-0.151l-0.498,-0.185l-0.486,-0.22l-0.463,-0.266l-0.439,-0.301l-0.417,-0.324l-0.382,-0.371l-0.359,-0.393l-0.15,-0.243l-0.093,-0.267l-0.058,-0.277l0,-0.278l0.035,-0.278l0.104,-0.266l0.127,-0.243l0.186,-0.22l0.208,-0.185l0.243,-0.139l0.266,-0.105l0.116,-1.157l0.15,-1.158l0.197,-1.146l0.232,-1.134l0.289,-1.134l0.324,-1.112l0.37,-1.111l0.405,-1.088l0.452,-1.077l0.486,-1.053l0.532,-1.03l0.568,-1.019l0.613,-0.995l0.636,-0.973l0.683,-0.937l0.718,-0.926l0.752,-0.88l0.776,-0.868l0.821,-0.834l0.406,-0.359l0.428,-0.347l0.451,-0.301l0.475,-0.266l0.74,-0.359l0.753,-0.312l0.764,-0.278l0.787,-0.22l0.787,-0.185l0.81,-0.139l0.81,-0.104l0.81,-0.047l0.162,-0.023l0.151,-0.058l0.139,-0.092l0.115,-0.116l0.081,-0.151l0.047,-0.15l0.011,-0.162l-0.011,-0.162l-0.058,-0.162l-0.093,-0.139l-0.312,-0.394l-0.266,-0.428l-0.22,-0.463l-0.186,-0.463l-0.138,-0.486l-0.093,-0.498l-0.046,-0.509l-0,-0.498l0.046,-0.509l0.093,-0.498l0.138,-0.486l0.186,-0.463l0.22,-0.463l0.266,-0.429l0.312,-0.393l0.336,-0.382l0.382,-0.336l0.405,-0.301l0.428,-0.266l0.452,-0.22l0.474,-0.185l0.486,-0.139l0.498,-0.093l0.498,-0.046l0.509,-0l0.497,0.058l0.498,0.092l0.486,0.139l0.475,0.186l0.451,0.231l0.428,0.266l0.405,0.301l0.371,0.348l0.336,0.37l0.3,0.405l0.267,0.44l0.22,0.451l0.173,0.475l0.139,0.486l0.093,0.498l0.046,0.498l-0.012,0.509l-0.046,0.498l-0.093,0.497l-0.15,0.487l-0.185,0.474l-0.232,0.452l-0.266,0.428l-0.312,0.394l-0.336,0.37l-0.382,0.336l-0.405,0.301l-0.428,0.266l-0.463,0.22l-0.139,0.081l-0.127,0.116l-0.093,0.138l-0.058,0.151l-0.023,0.162l0.012,0.162l0.046,0.162l0.081,0.139l0.116,0.127l5.52,8.15l0.267,0.81l0.3,0.799l0.336,0.775l0.382,0.764l0.428,0.741l0.452,0.718l0.497,0.694l0.533,0.66l0.567,0.637l0.602,0.613l0.625,0.567l0.659,0.544l0.683,0.51l0.706,0.463l0.741,0.44l0.752,0.393l0.776,0.347l0.787,0.313l0.81,0.278l0.116,-0.162l0.15,-0.139l0.174,-0.104l0.197,-0.058l0.196,-0.035l0.209,0.012l0.185,0.057l0.185,0.093l0.162,0.127l0.127,0.151l0.093,0.174l0.058,0.196l0.023,0.197l-0.058,0.637l-0.104,0.636l-0.15,0.614l-0.174,0.613l-0.22,0.602l-0.255,0.591l-0.104,0.162l-0.127,0.15l-0.162,0.116l-0.174,0.081l-0.185,0.046l-0.197,0.012l-0.196,-0.023l-0.186,-0.058l-0.173,-0.104l-0.151,-0.128l-0.115,-0.15l-0.915,-0.116l-0.914,-0.15l-0.903,-0.197l-0.891,-0.243l-0.88,-0.29l-0.856,-0.335l-0.857,-0.371l-0.821,-0.416l-0.811,-0.452l-0.775,-0.486l-0.764,-0.533l-0.729,-0.567l-0.695,-0.602l-0.671,-0.636l-0.636,-0.66l-0.614,-0.706l-0.567,-0.718l-0.532,-0.752l-0.498,-0.787l-0.463,-0.799l-0.417,-0.822l-0.301,0.961l-0.243,0.984l-0.196,0.984l-0.151,0.995l-0.104,0.996l-0.046,1.007l-0.012,1.007l0.046,1.007l0.105,1.007l0.138,0.995l0.197,0.984l0.232,0.984l0.289,0.961l0.336,0.949l0.382,0.938l0.879,1.794l0.926,1.771l0.949,1.76l0.984,1.736l0.532,1.412l0.487,1.435l0.439,1.447l0.405,1.459l0.359,1.47l0.324,1.47l0.29,1.493l0.231,1.494l0.197,1.493l0.162,1.505l0.104,1.504l6.609,0.707l0.162,0.057l0.139,0.105l0.104,0.139l0.069,0.162l0.024,0.162l-0.024,0.173l-0.069,0.162l-0.116,0.128l-0.139,0.092l-10.405,4.411l-0.382,-1.771l-0.428,-1.772l-0.474,-1.759l-0.521,-1.736l-0.567,-1.737l-0.602,-1.713l-0.648,-1.69l-0.695,-1.69l-0.729,-1.667l-0.775,-1.644l-0.822,-1.62l-0.857,-1.609l-0.891,-1.574l-0.937,-1.563l-0.973,-1.54l-1.006,-1.504l-1.054,-1.494l-1.088,-1.458l-7.678,12.168l-0.435,0.519l-1.007,1.134l-1.03,1.1l-1.076,1.065l-1.1,1.041l-1.123,1.007l-1.157,0.973l-1.181,0.937l0.88,3.681l0.093,0.29l0.127,0.278l0.162,0.243l0.208,0.231l0.22,0.197l0.915,0.683l0.092,0.104l0.081,0.116l0.035,0.139l-0,0.139l-0.035,0.139l-0.069,0.127l-0.104,0.104l-0.116,0.07l-0.139,0.034l-0.151,0.012l-2.858,-0.359l-0.382,-0.069l-0.371,-0.116l-0.347,-0.162l-0.335,-0.197l-0.313,-0.231l-0.278,-0.267l-0.243,-0.301l-0.208,-0.324l-3.195,-5.788Z"/></g><g><circle cx="94.488" cy="82.677" r="59.055" style="fill:#e31837;"/><circle cx="94.488" cy="82.677" r="47.244" style="fill:#fff;"/><path d="M72.04,112.067l0.004,8.29c0.944,1.071 2.308,1.687 3.742,1.687c1.433,-0 2.797,-0.616 3.741,-1.687l-0.003,-7.675l4.983,0.304l4.984,0.203l5.004,0.122l4.984,-0.122l4.983,-0.203l4.984,-0.304l-0.004,7.675c0.945,1.071 2.309,1.687 3.742,1.687c1.433,-0 2.797,-0.616 3.742,-1.687l-0.007,-8.29c1.154,-0.675 1.867,-1.909 1.877,-3.24l-0,-10.496c-0.01,-1.949 -1.5,-3.568 -3.435,-3.726l-1.953,-12.195c-0.491,-3.024 -3.099,-5.248 -6.155,-5.248l-25.547,-0c-3.066,-0 -5.674,2.225 -6.155,5.248l-1.952,12.195c-1.946,0.158 -3.435,1.777 -3.425,3.726l-0,10.496c-0.01,1.331 0.702,2.565 1.866,3.24Zm34.914,-4.207l-24.939,-0l0,1.722c0,0 2.769,0.119 4.153,0.162c1.388,0.044 2.786,0.078 4.174,0.102c1.384,0.023 2.768,0.04 4.153,0.04c1.384,0 2.769,-0.017 4.153,-0.04c1.384,-0.024 2.769,-0.058 4.153,-0.102c1.384,-0.044 4.153,-0.162 4.153,-0.162l0,-1.722Zm0,-3.89l0,2.026l-24.939,-0l0,-2.026l24.939,-0Zm2.107,-3.435c0,1.93 1.565,3.495 3.495,3.495c1.93,0 3.494,-1.565 3.494,-3.495c0,-1.93 -1.564,-3.495 -3.494,-3.495c-1.93,-0 -3.495,1.565 -3.495,3.495Zm-36.142,-0c-0,-1.93 1.565,-3.495 3.495,-3.495c1.93,-0 3.494,1.565 3.494,3.495c0,1.93 -1.564,3.495 -3.494,3.495c-1.93,0 -3.495,-1.565 -3.495,-3.495Zm25.729,-0.436c1.384,0.024 2.769,0.054 4.153,0.102c1.384,0.047 4.153,0.182 4.153,0.182l0,1.702l-24.939,0l0,-1.702c0,0 2.768,-0.135 4.153,-0.182c1.388,-0.048 2.786,-0.078 4.174,-0.102c1.384,-0.023 2.768,-0.04 4.153,-0.04c1.384,-0 2.769,0.017 4.153,0.04Zm13.568,-10.555c0.115,0.759 -0.119,1.529 -0.639,2.092c-0.52,0.563 -1.27,0.857 -2.022,0.79c0,0 -5.015,-0.191 -7.524,-0.27c-2.51,-0.078 -5.024,-0.202 -7.536,-0.202c-2.512,-0 -5.025,0.124 -7.537,0.202c-2.513,0.079 -7.544,0.27 -7.544,0.27c-0.772,0.067 -1.521,-0.227 -2.042,-0.79c-0.52,-0.563 -0.754,-1.333 -0.629,-2.092l0.566,-3.495c0.383,-2.462 2.341,-4.366 4.816,-4.69c0,0 5.191,-0.397 7.791,-0.469c2.822,-0.078 6.316,-0.078 9.137,0c2.601,0.072 7.791,0.469 7.791,0.469c2.454,0.324 4.413,2.228 4.816,4.69l0.556,3.495Z"/><path d="M78.583,56.479l0.539,0.024l0.532,0.062l0.531,0.086l0.523,0.117l0.516,0.149l0.508,0.18l-0.453,0.781l-0.477,-0.164l-0.492,-0.133l-0.492,-0.101l-0.5,-0.071l-0.5,-0.039l-0.508,-0.008l-0.5,0.024l-0.508,0.047l-0.492,0.086l-0.492,0.109l-0.485,0.141l-0.476,0.171l-0.469,0.196l-0.445,0.226l-0.438,0.258l-0.422,0.282l-0.406,0.304l-0.383,0.328l-0.359,0.352l-0.344,0.367l-0.312,0.399l-0.297,0.406l-0.266,0.43l-0.242,0.445l-0.211,0.453l-0.188,0.469l-0.156,0.484l-0.133,0.485l-0.093,0.492l-0.071,0.5l-0.039,0.508l-0.008,0.5l0.024,0.508l0.054,0.5l0.086,0.5l0.118,0.492l0.14,0.485l0.172,0.468l0.203,0.469l0.235,0.446l0.25,0.437l0.281,0.414l0.312,0.407l0.329,0.375l0.351,0.367l0.375,0.336l0.391,0.312l0.414,0.297l0.429,0.266l0.446,0.234l0.461,0.211l0.469,0.188l0.476,0.156l0.492,0.125l0.492,0.094l0.5,0.062l0.508,0.039l0.508,0l0.5,-0.023l0.5,-0.063l0.5,-0.086l0.492,-0.117l0.485,-0.14l0.469,-0.18l0.46,-0.203l0.454,-0.235l0.429,-0.257l0.414,-0.282l0.407,-0.312l0.375,-0.328l0.359,-0.36l0.336,-0.375l0.312,-0.391l0.29,-0.414l0.265,-0.429l0.235,-0.454l0.21,-0.453l0.18,-0.476l0.156,-0.477l0.118,-0.492l0.093,-0.492l0.063,-0.5l0.031,-0.508l0,-0.508l-0.023,-0.5l-0.063,-0.5l-0.086,-0.5l-0.125,-0.485l-0.148,-0.484l-0.18,-0.477l-0.203,-0.461l-0.234,-0.445l-0.258,-0.43l-0.289,-0.414l-0.313,-0.398l-0.336,-0.383l-0.351,-0.352l-0.383,-0.336l0.453,-0.781l0.406,0.351l0.391,0.375l0.367,0.391l0.336,0.422l0.32,0.43l0.289,0.453l0.266,0.469l0.234,0.484l0.211,0.492l0.18,0.508l0.149,0.524l0.117,0.523l0.086,0.532l0.054,0.531l0.024,0.539l-0.008,0.539l-0,0.336l0.039,0.336l0.063,0.328l0.093,0.321l0.133,0.312l0.149,0.297l0.187,0.281l0.211,0.266l0.227,0.242l0.257,0.219l0.274,0.195l0.289,0.164l0.305,0.141l0.32,0.109l0.328,0.078l0.328,0.047l0.336,0.016l14.899,-0l0.258,0.43l0.281,0.406l0.305,0.398l0.328,0.368l0.351,0.359l0.368,0.328l0.39,0.313l0.406,0.281l0.43,0.266l0.438,0.234l0.453,0.203l0.461,0.188l0.476,0.148l0.477,0.125l0.492,0.094l0.492,0.07l0.492,0.032l0.5,0.007l0.5,-0.023l0.493,-0.047l0.492,-0.086l0.484,-0.109l0.477,-0.141l0.469,-0.172l0.461,-0.195l0.445,-0.219l0.429,-0.25l0.415,-0.273l0.398,-0.305l0.375,-0.32l0.359,-0.344l0.344,-0.367l0.313,-0.383l0.289,-0.407l0.273,-0.414l0.242,-0.437l0.211,-0.446l0.188,-0.461l0.164,-0.468l0.133,-0.485l0.101,-0.484l0.078,-0.492l0.04,-0.501l0.015,-0.492l1.594,0l-0.016,-0.555l-0.039,-0.546l-0.078,-0.547l-0.109,-0.539l-0.133,-0.54l-0.172,-0.523l-0.195,-0.516l-0.219,-0.5l-0.25,-0.492l-0.281,-0.477l-0.305,-0.461l-0.328,-0.445l-0.352,-0.422l-0.375,-0.406l-0.398,-0.375l-0.414,-0.36l-0.438,-0.336l-0.461,-0.312l-0.469,-0.281l-0.492,-0.258l-0.5,-0.235l0,-0.617l-0.015,-0.234l-0.039,-0.227l-0.078,-0.219l-0.102,-0.211l-0.133,-0.187l-0.148,-0.18l-0.172,-0.148l-0.195,-0.133l-0.211,-0.102l-0.219,-0.07l-0.227,-0.047l-0.226,-0.015l-7.797,-0l-0,-0.508l-0.016,-0.329l-0.047,-0.328l-0.078,-0.32l-0.102,-0.313l-0.14,-0.296l-0.156,-0.29l-0.188,-0.273l-0.211,-0.25l-4.187,-4.54l-4.086,-1.742l-0.711,0l-0,-1.211l0.179,-0.25l0.164,-0.273l0.133,-0.282l0.102,-0.297l0.07,-0.297l0.047,-0.312l0.016,-0.313l-0.024,-0.312l-0.047,-0.305l-0.078,-0.305l-0.102,-0.296l-0.14,-0.282l-0.156,-0.265l-0.188,-0.25l-0.211,-0.227l-0.234,-0.211l-0.25,-0.187l-0.274,-0.157l-0.281,-0.133l-0.297,-0.101l-0.297,-0.078l-0.312,-0.047l-0.313,-0.016l-0.312,0.024l-0.305,0.047l-0.305,0.07l-0.296,0.109l-0.282,0.133l-0.265,0.164l-0.25,0.188l-0.235,0.203l-0.211,0.234l-0.179,0.25l-0.164,0.274l-0.133,0.281l-0.102,0.289l-0.078,0.305l-0.047,0.312l-0.015,0.313l-0,0.351l0.711,0l-0,2.126l0.015,0.226l0.039,0.219l0.071,0.211l0.093,0.203l0.125,0.188l0.141,0.172l0.164,0.156l0.187,0.125l0.196,0.109l0.211,0.078l0.211,0.055l0.226,0.023l0.227,0l0.219,-0.031l-0,0.203l-0.008,0.125l-0.032,0.118l-0.054,0.109l-2.211,3.805l-2.571,2.055l-0.125,0.086l-0.148,0.062l-0.148,0.039l-0.157,0.008l-0.148,-0.015l-0.149,-0.047l-0.14,-0.071l-0.125,-0.093l-0.11,-0.11l-0.085,-0.133l-0.055,-0.14l-0.039,-0.149l-0.008,-0.156l0.016,-0.156l1.648,-7.728l0,-0.085l-0.016,-0.079l-0.046,-0.07l-0.063,-0.055l-0.078,-0.031l-0.086,0l-0.078,0.016l-0.07,0.047l-0.055,0.062l-3.641,6.063l-0.242,0.391l-0.273,0.359l-0.297,0.352l-0.313,0.328l-0.336,0.313l-0.359,0.281l-0.375,0.266l-0.383,0.234l-0.406,0.211l-0.422,0.187l-0.422,0.157l-0.438,0.132l-0.445,0.102l-0.453,0.07l-0.453,0.047l-0.453,0.016l-1.977,-0l0,3.367l0.531,0Zm-0.289,6.024l-0.312,0.024l-0.305,0.055l-0.297,0.086l-0.289,0.117l-0.273,0.14l-0.266,0.164l-0.242,0.196l-0.227,0.219l-0.203,0.234l-0.172,0.25l-0.156,0.273l-0.125,0.282l-0.094,0.297l-0.07,0.304l-0.039,0.313l-0.008,0.305l0.023,0.312l0.055,0.305l0.078,0.305l0.11,0.289l0.14,0.273l0.164,0.266l0.188,0.242l0.219,0.227l0.234,0.21l0.25,0.18l0.266,0.156l0.289,0.125l0.289,0.102l0.304,0.07l0.305,0.039l0.313,0.016l0.312,-0.023l0.305,-0.047l0.305,-0.078l0.289,-0.11l0.281,-0.133l0.266,-0.164l0.242,-0.187l0.234,-0.211l0.203,-0.227l0.188,-0.258l0.156,-0.265l0.133,-0.282l0.101,-0.289l0.079,-0.304l0.039,-0.305l0.015,-0.313l-0.015,-0.312l-0.047,-0.305l-0.071,-0.305l-0.109,-0.289l-0.133,-0.281l-0.156,-0.266l0.945,-1.648l0.258,0.297l0.234,0.312l0.204,0.328l0.179,0.336l0.157,0.36l0.125,0.367l0.093,0.375l0.063,0.383l0.039,0.383l0.008,0.39l-0.024,0.383l-0.054,0.383l-0.086,0.383l-0.118,0.367l-0.14,0.36l-0.172,0.351l-0.195,0.336l-0.219,0.313l-0.25,0.304l-0.266,0.274l-0.289,0.258l-0.312,0.234l-0.321,0.211l-0.343,0.188l-0.352,0.148l-0.367,0.133l-0.375,0.094l-0.383,0.07l-0.383,0.039l-0.39,0.016l-0.383,-0.024l-0.391,-0.054l-0.375,-0.079l-0.375,-0.109l-0.359,-0.141l-0.352,-0.164l-0.336,-0.195l-0.32,-0.219l-0.297,-0.25l-0.281,-0.266l-0.258,-0.281l-0.242,-0.312l-0.211,-0.321l-0.188,-0.343l-0.156,-0.352l-0.133,-0.367l-0.101,-0.375l-0.071,-0.375l-0.039,-0.391l-0.015,-0.383l0.015,-0.391l0.055,-0.382l0.078,-0.375l0.102,-0.375l0.14,-0.368l0.164,-0.343l0.188,-0.344l0.219,-0.321l0.242,-0.304l0.265,-0.282l0.282,-0.257l0.304,-0.243l0.328,-0.211l0.336,-0.195l0.352,-0.156l0.359,-0.133l0.375,-0.109l0.383,-0.071l0.383,-0.047l0.391,-0.015l0.382,0.015l0.391,0.04l0.375,0.078l-0.945,1.64l-0.313,0Zm32.501,1.219l-0.18,0.258l-0.156,0.266l-0.125,0.289l-0.102,0.289l-0.062,0.305l-0.039,0.312l-0.016,0.305l0.024,0.312l0.054,0.305l0.079,0.305l0.109,0.289l0.133,0.281l0.164,0.258l0.195,0.25l0.211,0.227l0.234,0.203l0.25,0.187l0.266,0.157l0.281,0.125l0.297,0.101l0.305,0.078l0.305,0.039l0.312,0.016l0.305,-0.016l0.312,-0.054l0.297,-0.071l0.297,-0.109l0.274,-0.133l0.273,-0.164l0.242,-0.187l0.235,-0.204l0.203,-0.234l0.187,-0.25l0.164,-0.266l0.133,-0.281l0.102,-0.289l0.078,-0.305l0.047,-0.304l0.015,-0.313l-0.015,-0.312l-0.047,-0.305l-0.071,-0.305l-0.109,-0.289l-0.125,-0.281l-0.164,-0.274l-0.18,-0.25l-0.203,-0.226l-0.234,-0.211l-0.242,-0.188l-0.266,-0.164l-0.281,-0.141l-0.289,-0.101l-0.305,-0.086l-0.305,-0.047l-0.648,-1.781l0.383,-0.008l0.39,0.023l0.383,0.055l0.383,0.078l0.367,0.109l0.359,0.141l0.352,0.172l0.336,0.195l0.32,0.219l0.297,0.242l0.281,0.266l0.258,0.289l0.235,0.313l0.211,0.32l0.187,0.344l0.156,0.351l0.133,0.368l0.102,0.375l0.07,0.382l0.039,0.383l0.008,0.383l-0.016,0.391l-0.047,0.383l-0.086,0.382l-0.101,0.368l-0.141,0.367l-0.164,0.352l-0.195,0.335l-0.219,0.321l-0.242,0.297l-0.266,0.289l-0.281,0.258l-0.305,0.234l-0.328,0.219l-0.336,0.187l-0.351,0.157l-0.368,0.132l-0.375,0.11l-0.375,0.07l-0.39,0.047l-0.383,0.016l-0.391,-0.016l-0.382,-0.047l-0.383,-0.078l-0.367,-0.109l-0.368,-0.133l-0.351,-0.164l-0.336,-0.188l-0.32,-0.211l-0.305,-0.242l-0.289,-0.266l-0.266,-0.281l-0.234,-0.305l-0.219,-0.32l-0.188,-0.336l-0.164,-0.352l-0.14,-0.367l-0.102,-0.367l-0.078,-0.383l-0.047,-0.383l-0.015,-0.39l0.007,-0.383l0.047,-0.391l0.071,-0.375l0.101,-0.375l0.133,-0.367l0.156,-0.352l0.188,-0.336l0.211,-0.328l0.242,-0.305l0.258,-0.289l0.281,-0.265l0.305,-0.243l0.648,1.782l-0.203,0.234Zm-6.344,-4.946l0,5.345l0.016,0.109l0.054,0.094l0.079,0.07l0.101,0.047l0.102,0.008l0.109,-0.024l0.094,-0.054l0.07,-0.078l0.039,-0.102l0.11,-0.5l0.132,-0.492l0.172,-0.485l0.196,-0.468l0.226,-0.461l0.25,-0.446l0.281,-0.422l0.305,-0.414l0.328,-0.383l0.36,-0.375l0.375,-0.343l0.062,-0.071l0.039,-0.086l0.016,-0.093l-0.008,-0.094l-0.031,-0.094l-0.055,-0.078l-0.078,-0.055l-0.086,-0.039l-0.094,-0.015l-3.164,-0.001Zm-5.977,-4.781l-0.289,-0.196l-0.265,-0.226l-0.25,-0.242l-0.235,-0.266l-0.203,-0.281l-0.187,-0.297l-0.157,-0.313l-0.132,-0.328l-0.102,-0.328l-6.734,3.899l6.734,2.125l2.125,-3.368l-0.305,-0.179Z"/></g><g><g><g><g><rect id="path1698" x="171.024" y="157.087" width="19.843" height="47.244" style="fill:#fff;"/><path d="M189.254,191.346c-0.686,0.302 -1.522,0.556 -2.509,0.761c-0.988,0.206 -2.084,0.309 -3.291,0.309c-2.194,-0 -3.921,-0.514 -5.183,-1.543c-1.261,-1.028 -1.892,-2.694 -1.892,-4.997l0,-12.093l-3.743,-0l0,-5.471l3.743,0l0,-6.046l6.458,-2.921l-0,8.967l5.964,0l0,5.471l-5.964,-0l-0,10.077c-0,1.125 0.171,1.872 0.514,2.242c0.343,0.37 0.912,0.555 1.707,0.555c1.015,0 2.071,-0.219 3.167,-0.658l1.029,5.347Z" style="fill-rule:nonzero;"/></g><g><rect id="path16981" serif:id="path1698" x="218.031" y="157.087" width="20.079" height="47.244" style="fill:#fff;"/><path d="M235.07,174.797l-0.955,-0.083c-0.886,-0.083 -1.717,-0.034 -2.493,0.146c-0.775,0.18 -1.453,0.491 -2.035,0.934c-0.582,0.443 -1.038,1.018 -1.371,1.724c-0.332,0.706 -0.498,1.544 -0.498,2.513l-0,12.462l-6.646,0l-0,-23.594l6.646,-0l-0,2.451c0.803,-1.136 1.8,-1.966 2.991,-2.493c1.19,-0.526 2.644,-0.692 4.361,-0.498l0,6.438Z" style="fill-rule:nonzero;"/></g><g><rect id="path16982" serif:id="path1698" x="143.858" y="157.087" width="27.165" height="47.244" style="fill:#fff;"/><path d="M168.663,180.983c0,1.648 -0.261,3.179 -0.784,4.591c-0.524,1.413 -1.269,2.629 -2.237,3.65c-0.968,1.02 -2.145,1.824 -3.532,2.413c-1.386,0.588 -2.929,0.883 -4.63,0.883c-1.7,-0 -3.244,-0.288 -4.63,-0.864c-1.387,-0.575 -2.57,-1.379 -3.551,-2.413c-0.981,-1.033 -1.74,-2.256 -2.276,-3.669c-0.536,-1.412 -0.804,-2.943 -0.804,-4.591c-0,-1.7 0.241,-3.289 0.725,-4.767c0.484,-1.478 1.204,-2.76 2.159,-3.846c0.954,-1.085 2.132,-1.935 3.531,-2.55c1.4,-0.615 3.015,-0.922 4.846,-0.922c1.805,-0 3.407,0.314 4.807,0.941c1.4,0.628 2.57,1.485 3.512,2.571c0.942,1.085 1.655,2.367 2.138,3.845c0.484,1.478 0.726,3.054 0.726,4.728Zm-6.16,0c-0,-0.915 -0.124,-1.772 -0.373,-2.57c-0.248,-0.798 -0.589,-1.497 -1.02,-2.099c-0.432,-0.602 -0.962,-1.079 -1.589,-1.432c-0.628,-0.354 -1.308,-0.53 -2.041,-0.53c-0.758,-0 -1.452,0.176 -2.079,0.53c-0.628,0.353 -1.165,0.83 -1.609,1.432c-0.445,0.602 -0.785,1.301 -1.021,2.099c-0.235,0.798 -0.353,1.655 -0.353,2.57c0,1.805 0.458,3.27 1.374,4.395c0.915,1.125 2.145,1.687 3.688,1.687c1.517,0 2.734,-0.562 3.649,-1.687c0.916,-1.125 1.374,-2.59 1.374,-4.395Z" style="fill-rule:nonzero;"/></g><g><rect id="path16983" serif:id="path1698" x="190.866" y="157.087" width="27.165" height="47.244" style="fill:#fff;"/><path d="M215.671,180.983c0,1.648 -0.261,3.179 -0.785,4.591c-0.523,1.413 -1.268,2.629 -2.236,3.65c-0.968,1.02 -2.145,1.824 -3.532,2.413c-1.386,0.588 -2.93,0.883 -4.63,0.883c-1.7,-0 -3.244,-0.288 -4.63,-0.864c-1.387,-0.575 -2.57,-1.379 -3.551,-2.413c-0.981,-1.033 -1.74,-2.256 -2.276,-3.669c-0.536,-1.412 -0.805,-2.943 -0.805,-4.591c0,-1.7 0.242,-3.289 0.726,-4.767c0.484,-1.478 1.204,-2.76 2.158,-3.846c0.955,-1.085 2.132,-1.935 3.532,-2.55c1.4,-0.615 3.015,-0.922 4.846,-0.922c1.805,-0 3.407,0.314 4.807,0.941c1.399,0.628 2.57,1.485 3.512,2.571c0.942,1.085 1.654,2.367 2.138,3.845c0.484,1.478 0.726,3.054 0.726,4.728Zm-6.16,0c-0,-0.915 -0.125,-1.772 -0.373,-2.57c-0.249,-0.798 -0.589,-1.497 -1.02,-2.099c-0.432,-0.602 -0.962,-1.079 -1.589,-1.432c-0.628,-0.354 -1.308,-0.53 -2.041,-0.53c-0.759,-0 -1.452,0.176 -2.08,0.53c-0.627,0.353 -1.164,0.83 -1.608,1.432c-0.445,0.602 -0.785,1.301 -1.021,2.099c-0.235,0.798 -0.353,1.655 -0.353,2.57c0,1.805 0.458,3.27 1.374,4.395c0.915,1.125 2.145,1.687 3.688,1.687c1.517,0 2.734,-0.562 3.649,-1.687c0.916,-1.125 1.374,-2.59 1.374,-4.395Z" style="fill-rule:nonzero;"/></g><g><rect id="path16984" serif:id="path1698" x="102.992" y="157.087" width="40.866" height="47.244" style="fill:#fff;"/><path d="M140.089,192.52l-6.59,-0l-0,-14.85c-0,-1.168 -0.27,-2.037 -0.809,-2.607c-0.539,-0.57 -1.25,-0.855 -2.135,-0.855c-0.414,-0 -0.849,0.09 -1.305,0.271c-0.456,0.181 -0.864,0.445 -1.223,0.792c-0.36,0.348 -0.657,0.793 -0.892,1.335c-0.235,0.543 -0.352,1.161 -0.352,1.856l0,14.058l-6.632,-0l-0.042,-14.892c0,-1.196 -0.257,-2.071 -0.772,-2.628c-0.514,-0.556 -1.175,-0.834 -1.981,-0.834c-0.528,0 -1.029,0.084 -1.502,0.25c-0.472,0.167 -0.896,0.424 -1.272,0.772c-0.375,0.348 -0.674,0.793 -0.897,1.335c-0.222,0.542 -0.333,1.203 -0.333,1.981l-0,14.016l-6.591,-0l-0,-23.693l6.591,-0l-0,1.46c0.695,-0.668 1.487,-1.182 2.377,-1.544c0.89,-0.361 1.766,-0.542 2.628,-0.542c1.307,0 2.51,0.257 3.608,0.772c1.099,0.514 1.968,1.286 2.607,2.315c1.53,-2.086 3.852,-3.129 6.966,-3.129c2.698,0 4.797,0.765 6.299,2.295c1.502,1.529 2.252,3.684 2.252,6.465l0,15.601Z" style="fill-rule:nonzero;"/></g></g><g><g><rect id="path16985" serif:id="path1698" x="332.244" y="157.087" width="12.992" height="47.244" style="fill:#fff;"/><path d="M342.052,163.151c0,1.054 -0.36,1.941 -1.081,2.662c-0.721,0.721 -1.595,1.082 -2.621,1.082c-1.054,-0 -1.941,-0.361 -2.662,-1.082c-0.721,-0.721 -1.082,-1.608 -1.082,-2.662c0,-1.026 0.361,-1.9 1.082,-2.621c0.721,-0.721 1.608,-1.081 2.662,-1.081c1.026,-0 1.9,0.36 2.621,1.081c0.721,0.721 1.081,1.595 1.081,2.621Zm-0.416,29.369l-6.572,-0l-0,-23.628l6.572,-0l0,23.628Z" style="fill-rule:nonzero;"/></g><g><rect id="path16986" serif:id="path1698" x="304.134" y="157.087" width="28.11" height="47.244" style="fill:#fff;"/><path d="M328.683,192.52l-6.784,-0l-0,-15.476c-0,-1.102 -0.29,-1.95 -0.869,-2.544c-0.58,-0.593 -1.407,-0.89 -2.481,-0.89c-1.215,-0 -2.211,0.353 -2.989,1.06c-0.777,0.707 -1.166,1.724 -1.166,3.053l0,14.797l-6.699,-0l0,-33.071l6.699,-0l0.014,10.303c0.736,-0.622 1.607,-1.103 2.612,-1.442c1.006,-0.339 1.99,-0.509 2.953,-0.509c1.388,0 2.627,0.212 3.718,0.636c1.09,0.424 2.004,1.011 2.74,1.76c0.736,0.749 1.295,1.639 1.678,2.671c0.382,1.032 0.574,2.169 0.574,3.413l-0,16.239Z" style="fill-rule:nonzero;"/></g><g><rect id="path16987" serif:id="path1698" x="252.874" y="157.087" width="25.276" height="47.244" style="fill:#fff;"/><path d="M277.164,168.865l-7.99,23.622l-7.324,0l-7.99,-23.622l6.908,0l4.744,14.473l4.702,-14.473l6.95,0Z" style="fill-rule:nonzero;"/></g><g><rect id="path16988" serif:id="path1698" x="411.378" y="157.087" width="23.622" height="47.244" style="fill:#fff;"/><path d="M432.94,185.368c-0,1.046 -0.203,2.008 -0.608,2.884c-0.406,0.876 -1.014,1.635 -1.825,2.276c-0.811,0.641 -1.811,1.138 -3.002,1.491c-1.19,0.353 -2.57,0.53 -4.139,0.53c-1.989,-0 -3.794,-0.295 -5.415,-0.883c-1.622,-0.589 -3.127,-1.459 -4.513,-2.61l3.532,-4.081c1.098,0.916 2.223,1.524 3.374,1.825c1.151,0.301 2.145,0.451 2.982,0.451c1.177,0 1.988,-0.17 2.433,-0.51c0.445,-0.34 0.667,-0.758 0.667,-1.255c0,-0.288 -0.203,-0.596 -0.608,-0.923c-0.405,-0.327 -1.079,-0.595 -2.021,-0.804l-3.885,-0.942c-0.732,-0.157 -1.458,-0.405 -2.177,-0.745c-0.72,-0.34 -1.367,-0.772 -1.943,-1.295c-0.575,-0.523 -1.039,-1.151 -1.393,-1.884c-0.353,-0.732 -0.529,-1.582 -0.529,-2.55c-0,-1.073 0.229,-2.06 0.686,-2.963c0.458,-0.902 1.106,-1.687 1.943,-2.354c0.837,-0.667 1.824,-1.184 2.962,-1.55c1.138,-0.366 2.4,-0.549 3.787,-0.549c2.04,-0 3.813,0.274 5.317,0.824c1.504,0.549 2.818,1.308 3.943,2.275l-3.531,4.081c-0.837,-0.654 -1.694,-1.138 -2.57,-1.452c-0.877,-0.313 -1.825,-0.47 -2.845,-0.47c-1.099,-0 -1.91,0.202 -2.433,0.608c-0.523,0.405 -0.785,0.843 -0.785,1.314c0,0.079 0.013,0.183 0.039,0.314c0.027,0.131 0.112,0.268 0.255,0.412c0.144,0.144 0.347,0.288 0.609,0.432c0.261,0.144 0.627,0.268 1.098,0.373l4.081,0.981c0.811,0.209 1.602,0.471 2.374,0.784c0.772,0.314 1.465,0.733 2.08,1.256c0.615,0.523 1.112,1.164 1.491,1.923c0.379,0.758 0.569,1.687 0.569,2.786Z" style="fill-rule:nonzero;"/></g><g><rect id="path16989" serif:id="path1698" x="278.15" y="157.087" width="25.984" height="47.244" style="fill:#fff;"/><path d="M301.971,181.693l-0.079,0.984l-15.236,0c0.026,0.63 0.184,1.214 0.473,1.752c0.288,0.538 0.669,1.011 1.141,1.417c0.473,0.407 1.017,0.722 1.634,0.945c0.617,0.223 1.267,0.335 1.949,0.335c1.969,-0 3.661,-0.656 5.079,-1.969l3.307,4.056c-1.129,1.076 -2.369,1.896 -3.721,2.46c-1.351,0.565 -2.893,0.847 -4.626,0.847c-1.863,-0 -3.517,-0.309 -4.96,-0.926c-1.444,-0.616 -2.658,-1.469 -3.642,-2.559c-0.984,-1.089 -1.732,-2.355 -2.244,-3.799c-0.512,-1.443 -0.768,-2.992 -0.768,-4.645c0,-1.601 0.243,-3.117 0.729,-4.548c0.485,-1.43 1.187,-2.67 2.106,-3.72c0.919,-1.05 2.06,-1.883 3.425,-2.5c1.365,-0.617 2.913,-0.925 4.646,-0.925c1.916,-0 3.582,0.341 5,1.023c1.417,0.683 2.572,1.601 3.464,2.756c0.893,1.155 1.529,2.513 1.91,4.075c0.38,1.562 0.518,3.209 0.413,4.941Zm-6.181,-3.425c0,-1.208 -0.44,-2.198 -1.319,-2.973c-0.879,-0.774 -1.962,-1.161 -3.248,-1.161c-1.233,-0 -2.257,0.413 -3.071,1.24c-0.813,0.827 -1.286,1.791 -1.417,2.894l9.055,-0Z" style="fill-rule:nonzero;"/></g><g><rect id="path169810" serif:id="path1698" x="385.394" y="157.087" width="25.984" height="47.244" style="fill:#fff;"/><path d="M409.215,181.693l-0.078,0.984l-15.237,0c0.027,0.63 0.184,1.214 0.473,1.752c0.288,0.538 0.669,1.011 1.141,1.417c0.473,0.407 1.018,0.722 1.634,0.945c0.617,0.223 1.267,0.335 1.949,0.335c1.969,-0 3.662,-0.656 5.079,-1.969l3.307,4.056c-1.129,1.076 -2.369,1.896 -3.72,2.46c-1.352,0.565 -2.894,0.847 -4.626,0.847c-1.864,-0 -3.518,-0.309 -4.961,-0.926c-1.444,-0.616 -2.658,-1.469 -3.642,-2.559c-0.984,-1.089 -1.732,-2.355 -2.244,-3.799c-0.512,-1.443 -0.768,-2.992 -0.768,-4.645c0,-1.601 0.243,-3.117 0.729,-4.548c0.485,-1.43 1.187,-2.67 2.106,-3.72c0.919,-1.05 2.06,-1.883 3.425,-2.5c1.365,-0.617 2.914,-0.925 4.646,-0.925c1.916,-0 3.583,0.341 5,1.023c1.417,0.683 2.572,1.601 3.464,2.756c0.893,1.155 1.529,2.513 1.91,4.075c0.38,1.562 0.518,3.209 0.413,4.941Zm-6.181,-3.425c0,-1.208 -0.439,-2.198 -1.319,-2.973c-0.879,-0.774 -1.962,-1.161 -3.248,-1.161c-1.233,-0 -2.257,0.413 -3.071,1.24c-0.813,0.827 -1.286,1.791 -1.417,2.894l9.055,-0Z" style="fill-rule:nonzero;"/></g><g><rect id="path169811" serif:id="path1698" x="345.236" y="157.087" width="25.276" height="47.244" style="fill:#fff;"/><path d="M368.312,175.372l-5.141,2.472c-0.968,-2.354 -2.498,-3.531 -4.591,-3.531c-0.811,-0 -1.517,0.183 -2.119,0.549c-0.601,0.366 -1.105,0.85 -1.51,1.452c-0.406,0.602 -0.713,1.295 -0.922,2.08c-0.21,0.784 -0.314,1.582 -0.314,2.393c-0,0.837 0.111,1.635 0.333,2.394c0.223,0.758 0.55,1.425 0.981,2.001c0.432,0.575 0.955,1.04 1.57,1.393c0.614,0.353 1.314,0.53 2.099,0.53c0.994,-0 1.864,-0.275 2.609,-0.824c0.746,-0.55 1.393,-1.452 1.943,-2.708l5.062,2.511c-0.916,1.936 -2.198,3.493 -3.846,4.67c-1.648,1.177 -3.571,1.766 -5.768,1.766c-1.857,-0 -3.49,-0.308 -4.898,-0.922c-1.409,-0.615 -2.581,-1.459 -3.517,-2.531c-0.936,-1.073 -1.644,-2.322 -2.125,-3.748c-0.481,-1.425 -0.722,-2.962 -0.722,-4.61c0,-1.465 0.221,-2.904 0.663,-4.317c0.442,-1.412 1.118,-2.674 2.028,-3.786c0.91,-1.112 2.056,-2.008 3.438,-2.688c1.381,-0.68 3.027,-1.02 4.937,-1.02c2.276,-0 4.277,0.595 6.003,1.785c1.727,1.19 2.996,2.753 3.807,4.689Z" style="fill-rule:nonzero;"/></g><g><rect id="path169812" serif:id="path1698" x="370.512" y="157.087" width="14.882" height="47.244" style="fill:#fff;"/><path d="M384.803,191.814c-0.719,0.222 -1.48,0.394 -2.282,0.519c-0.802,0.124 -1.591,0.187 -2.365,0.187c-1.245,-0 -2.317,-0.166 -3.216,-0.498c-0.899,-0.332 -1.632,-0.802 -2.199,-1.411c-0.567,-0.609 -0.982,-1.349 -1.245,-2.22c-0.263,-0.871 -0.394,-1.833 -0.394,-2.884l-0,-26.058l6.514,-0l0,24.979c0,1.439 0.678,2.158 2.034,2.158c0.415,0 0.816,-0.035 1.203,-0.104c0.387,-0.069 0.816,-0.186 1.286,-0.352l0.664,5.684Z" style="fill-rule:nonzero;"/></g></g><g><g><rect id="path169813" serif:id="path1698" x="61.063" y="157.087" width="27.165" height="47.244" style="fill:#fff;"/><path d="M85.868,180.983c0,1.648 -0.261,3.179 -0.785,4.591c-0.523,1.413 -1.268,2.629 -2.236,3.65c-0.968,1.02 -2.145,1.824 -3.532,2.413c-1.386,0.588 -2.93,0.883 -4.63,0.883c-1.7,-0 -3.244,-0.288 -4.63,-0.864c-1.387,-0.575 -2.57,-1.379 -3.551,-2.413c-0.981,-1.033 -1.74,-2.256 -2.276,-3.669c-0.537,-1.412 -0.805,-2.943 -0.805,-4.591c0,-1.7 0.242,-3.289 0.726,-4.767c0.484,-1.478 1.203,-2.76 2.158,-3.846c0.955,-1.085 2.132,-1.935 3.532,-2.55c1.399,-0.615 3.015,-0.922 4.846,-0.922c1.805,-0 3.407,0.314 4.807,0.941c1.399,0.628 2.57,1.485 3.512,2.571c0.941,1.085 1.654,2.367 2.138,3.845c0.484,1.478 0.726,3.054 0.726,4.728Zm-6.16,0c-0,-0.915 -0.125,-1.772 -0.373,-2.57c-0.249,-0.798 -0.589,-1.497 -1.02,-2.099c-0.432,-0.602 -0.962,-1.079 -1.59,-1.432c-0.627,-0.354 -1.308,-0.53 -2.04,-0.53c-0.759,-0 -1.452,0.176 -2.08,0.53c-0.628,0.353 -1.164,0.83 -1.609,1.432c-0.444,0.602 -0.784,1.301 -1.02,2.099c-0.235,0.798 -0.353,1.655 -0.353,2.57c0,1.805 0.458,3.27 1.373,4.395c0.916,1.125 2.145,1.687 3.689,1.687c1.517,0 2.734,-0.562 3.649,-1.687c0.916,-1.125 1.374,-2.59 1.374,-4.395Z" style="fill-rule:nonzero;"/></g><g><rect x="21.378" y="157.087" width="39.685" height="47.244" style="fill:#fff;"/><path d="M56.131,192.52l-7.246,-0l-15.619,-21.666l-0,21.666l-6.956,-0l0,-33.071l7.26,-0l15.605,21.708l0,-21.708l6.956,-0l-0,33.071Z" style="fill-rule:nonzero;"/></g></g><g><rect id="path169814" serif:id="path1698" x="435" y="157.087" width="16.063" height="47.244" style="fill:#fff;"/><path d="M444.014,186.394c-0,1.804 -0.545,3.251 -1.635,4.341c-1.09,1.089 -2.486,1.684 -4.19,1.785l-0,-1.879c0.877,-0.101 1.56,-0.326 2.048,-0.677c0.489,-0.351 0.733,-0.739 0.733,-1.165c-0,-0.25 -0.125,-0.376 -0.376,-0.376c-0.952,0 -1.729,-0.3 -2.33,-0.902c-0.601,-0.601 -0.902,-1.34 -0.902,-2.217c0,-0.426 0.082,-0.827 0.244,-1.202c0.163,-0.376 0.389,-0.708 0.677,-0.996c0.288,-0.288 0.626,-0.514 1.015,-0.677c0.388,-0.163 0.808,-0.244 1.259,-0.244c1.077,0 1.922,0.401 2.536,1.203c0.614,0.801 0.921,1.803 0.921,3.006Z" style="fill-rule:nonzero;"/></g></g><g><g><g><rect id="path169815" serif:id="path1698" x="278.563" y="204.331" width="12.992" height="47.244" style="fill:#fff;"/><path d="M288.371,210.395c0,1.054 -0.36,1.941 -1.081,2.662c-0.721,0.722 -1.595,1.082 -2.621,1.082c-1.054,0 -1.941,-0.36 -2.662,-1.082c-0.721,-0.721 -1.082,-1.608 -1.082,-2.662c0,-1.026 0.361,-1.899 1.082,-2.621c0.721,-0.721 1.608,-1.081 2.662,-1.081c1.026,-0 1.9,0.36 2.621,1.081c0.721,0.722 1.081,1.595 1.081,2.621Zm-0.416,29.369l-6.572,-0l-0,-23.628l6.572,-0l0,23.628Z" style="fill-rule:nonzero;"/></g><g><rect id="path169816" serif:id="path1698" x="224.232" y="204.331" width="26.22" height="47.244" style="fill:#fff;"/><path d="M248.083,235.172l-2.607,4.592c-0.908,-0.052 -1.732,-0.279 -2.471,-0.681c-0.74,-0.402 -1.343,-0.928 -1.81,-1.576c-0.726,0.674 -1.576,1.18 -2.549,1.517c-0.973,0.338 -2.16,0.506 -3.561,0.506c-1.115,0 -2.185,-0.142 -3.21,-0.428c-1.025,-0.285 -1.927,-0.72 -2.705,-1.303c-0.778,-0.584 -1.401,-1.304 -1.868,-2.16c-0.467,-0.856 -0.7,-1.868 -0.7,-3.036c-0,-1.141 0.168,-2.114 0.506,-2.918c0.337,-0.805 0.765,-1.486 1.284,-2.044c0.519,-0.557 1.109,-1.005 1.771,-1.342c0.661,-0.337 1.316,-0.597 1.965,-0.778c0.648,-0.182 1.258,-0.312 1.829,-0.39c0.571,-0.077 1.025,-0.129 1.362,-0.155c0.545,-0.052 1.239,-0.111 2.082,-0.175c0.843,-0.065 1.615,-0.124 2.315,-0.176l0,-0.311c0,-0.96 -0.22,-1.654 -0.661,-2.082c-0.441,-0.428 -1.207,-0.642 -2.296,-0.642c-1.142,-0 -2.231,0.136 -3.269,0.409c-1.038,0.272 -2.179,0.771 -3.425,1.498l-2.296,-4.865c1.583,-0.882 3.133,-1.517 4.651,-1.907c1.517,-0.389 3.093,-0.583 4.728,-0.583c2.828,-0 4.981,0.7 6.46,2.101c1.479,1.401 2.218,3.503 2.218,6.305l0,7.277c0,0.986 0.169,1.732 0.506,2.238c0.337,0.505 0.921,0.875 1.751,1.109Zm-8.406,-2.919l0,-2.763c-0.467,0.026 -0.959,0.052 -1.478,0.078c-0.519,0.026 -0.96,0.065 -1.323,0.117c-0.442,0.051 -0.902,0.103 -1.382,0.155c-0.48,0.052 -0.915,0.162 -1.304,0.331c-0.389,0.169 -0.713,0.409 -0.973,0.72c-0.259,0.311 -0.389,0.752 -0.389,1.323c0,0.752 0.325,1.323 0.973,1.712c0.649,0.39 1.388,0.584 2.218,0.584c1.324,0 2.264,-0.22 2.822,-0.661c0.558,-0.442 0.836,-0.973 0.836,-1.596Z" style="fill-rule:nonzero;"/></g><g><rect id="path169817" serif:id="path1698" x="332.421" y="204.331" width="26.22" height="47.244" style="fill:#fff;"/><path d="M356.272,235.172l-2.607,4.592c-0.908,-0.052 -1.732,-0.279 -2.471,-0.681c-0.74,-0.402 -1.343,-0.928 -1.81,-1.576c-0.726,0.674 -1.576,1.18 -2.549,1.517c-0.973,0.338 -2.16,0.506 -3.561,0.506c-1.115,0 -2.185,-0.142 -3.21,-0.428c-1.025,-0.285 -1.927,-0.72 -2.705,-1.303c-0.778,-0.584 -1.401,-1.304 -1.868,-2.16c-0.467,-0.856 -0.7,-1.868 -0.7,-3.036c-0,-1.141 0.168,-2.114 0.506,-2.918c0.337,-0.805 0.765,-1.486 1.284,-2.044c0.519,-0.557 1.109,-1.005 1.77,-1.342c0.662,-0.337 1.317,-0.597 1.966,-0.778c0.648,-0.182 1.258,-0.312 1.829,-0.39c0.571,-0.077 1.025,-0.129 1.362,-0.155c0.545,-0.052 1.239,-0.111 2.082,-0.175c0.843,-0.065 1.615,-0.124 2.315,-0.176l0,-0.311c0,-0.96 -0.22,-1.654 -0.661,-2.082c-0.441,-0.428 -1.207,-0.642 -2.296,-0.642c-1.142,-0 -2.231,0.136 -3.269,0.409c-1.038,0.272 -2.179,0.771 -3.425,1.498l-2.296,-4.865c1.583,-0.882 3.133,-1.517 4.651,-1.907c1.517,-0.389 3.093,-0.583 4.728,-0.583c2.828,-0 4.981,0.7 6.46,2.101c1.479,1.401 2.218,3.503 2.218,6.305l0,7.277c0,0.986 0.169,1.732 0.506,2.238c0.337,0.505 0.921,0.875 1.751,1.109Zm-8.406,-2.919l0,-2.763c-0.467,0.026 -0.959,0.052 -1.478,0.078c-0.519,0.026 -0.96,0.065 -1.323,0.117c-0.442,0.051 -0.902,0.103 -1.382,0.155c-0.48,0.052 -0.915,0.162 -1.304,0.331c-0.389,0.169 -0.713,0.409 -0.973,0.72c-0.259,0.311 -0.389,0.752 -0.389,1.323c0,0.752 0.325,1.323 0.973,1.712c0.649,0.39 1.388,0.584 2.218,0.584c1.323,0 2.264,-0.22 2.822,-0.661c0.558,-0.442 0.836,-0.973 0.836,-1.596Z" style="fill-rule:nonzero;"/></g><g><rect id="path169818" serif:id="path1698" x="397.146" y="204.331" width="16.063" height="47.244" style="fill:#fff;"/><path d="M406.16,233.638c-0,1.804 -0.545,3.251 -1.635,4.341c-1.09,1.09 -2.487,1.685 -4.19,1.785l-0,-1.879c0.877,-0.1 1.559,-0.326 2.048,-0.677c0.488,-0.35 0.733,-0.739 0.733,-1.165c-0,-0.25 -0.126,-0.375 -0.376,-0.375c-0.952,-0 -1.729,-0.301 -2.33,-0.902c-0.601,-0.602 -0.902,-1.341 -0.902,-2.218c-0,-0.426 0.081,-0.826 0.244,-1.202c0.163,-0.376 0.388,-0.708 0.677,-0.996c0.288,-0.288 0.626,-0.514 1.014,-0.677c0.389,-0.162 0.808,-0.244 1.259,-0.244c1.078,0 1.923,0.401 2.537,1.203c0.614,0.801 0.921,1.804 0.921,3.006Z" style="fill-rule:nonzero;"/></g><g><rect id="path169819" serif:id="path1698" x="373.524" y="204.331" width="23.622" height="47.244" style="fill:#fff;"/><path d="M395.086,232.612c-0,1.046 -0.203,2.008 -0.609,2.884c-0.405,0.876 -1.013,1.635 -1.824,2.276c-0.811,0.641 -1.812,1.138 -3.002,1.491c-1.19,0.353 -2.57,0.53 -4.14,0.53c-1.988,-0 -3.793,-0.295 -5.415,-0.883c-1.622,-0.589 -3.126,-1.459 -4.512,-2.61l3.531,-4.08c1.099,0.915 2.224,1.523 3.375,1.824c1.151,0.301 2.145,0.451 2.982,0.451c1.177,0 1.988,-0.17 2.433,-0.51c0.445,-0.34 0.667,-0.758 0.667,-1.255c-0,-0.288 -0.203,-0.596 -0.608,-0.923c-0.406,-0.326 -1.079,-0.595 -2.021,-0.804l-3.885,-0.942c-0.732,-0.157 -1.458,-0.405 -2.178,-0.745c-0.719,-0.34 -1.366,-0.772 -1.942,-1.295c-0.575,-0.523 -1.04,-1.151 -1.393,-1.884c-0.353,-0.732 -0.53,-1.582 -0.53,-2.55c0,-1.073 0.229,-2.06 0.687,-2.963c0.458,-0.902 1.105,-1.687 1.942,-2.354c0.837,-0.667 1.825,-1.184 2.963,-1.55c1.138,-0.366 2.4,-0.549 3.787,-0.549c2.04,-0 3.812,0.274 5.316,0.824c1.505,0.549 2.819,1.308 3.944,2.276l-3.532,4.08c-0.837,-0.654 -1.693,-1.138 -2.57,-1.451c-0.876,-0.314 -1.824,-0.471 -2.845,-0.471c-1.098,-0 -1.909,0.202 -2.432,0.608c-0.524,0.405 -0.785,0.844 -0.785,1.314c-0,0.079 0.013,0.184 0.039,0.314c0.026,0.131 0.111,0.268 0.255,0.412c0.144,0.144 0.347,0.288 0.608,0.432c0.262,0.144 0.628,0.268 1.099,0.373l4.081,0.981c0.811,0.209 1.602,0.471 2.374,0.785c0.772,0.313 1.465,0.732 2.08,1.255c0.614,0.523 1.111,1.164 1.491,1.923c0.379,0.759 0.569,1.687 0.569,2.786Z" style="fill-rule:nonzero;"/></g><g><rect id="path169820" serif:id="path1698" x="250.453" y="204.331" width="28.11" height="47.244" style="fill:#fff;"/><path d="M274.936,239.764l-6.674,-0l0,-14.808c0,-1.252 -0.29,-2.155 -0.871,-2.712c-0.581,-0.556 -1.41,-0.834 -2.489,-0.834c-0.526,0 -1.037,0.07 -1.535,0.209c-0.498,0.139 -0.94,0.361 -1.327,0.667c-0.387,0.306 -0.699,0.702 -0.934,1.189c-0.235,0.487 -0.352,1.091 -0.352,1.814l-0,14.475l-6.674,-0l-0,-23.693l6.674,-0l-0.029,1.502c0.724,-0.668 1.595,-1.196 2.612,-1.585c1.017,-0.39 2,-0.584 2.947,-0.584c1.421,-0 2.668,0.208 3.741,0.625c1.073,0.417 1.978,0.994 2.717,1.731c0.738,0.737 1.289,1.599 1.651,2.587c0.362,0.987 0.543,2.064 0.543,3.232l0,16.185Z" style="fill-rule:nonzero;"/></g><g><rect id="path169821" serif:id="path1698" x="291.555" y="204.331" width="40.866" height="47.244" style="fill:#fff;"/><path d="M328.652,239.764l-6.59,-0l-0,-14.85c-0,-1.168 -0.27,-2.037 -0.809,-2.607c-0.539,-0.57 -1.25,-0.855 -2.135,-0.855c-0.414,-0 -0.849,0.09 -1.305,0.271c-0.456,0.181 -0.864,0.445 -1.223,0.793c-0.36,0.347 -0.657,0.792 -0.892,1.334c-0.235,0.543 -0.352,1.161 -0.352,1.857l0,14.057l-6.632,-0l-0.042,-14.892c0,-1.195 -0.257,-2.071 -0.772,-2.628c-0.514,-0.556 -1.175,-0.834 -1.981,-0.834c-0.528,0 -1.029,0.084 -1.502,0.25c-0.472,0.167 -0.896,0.425 -1.272,0.772c-0.375,0.348 -0.674,0.793 -0.897,1.335c-0.222,0.542 -0.333,1.203 -0.333,1.981l-0,14.016l-6.591,-0l-0,-23.693l6.591,-0l-0,1.46c0.695,-0.668 1.487,-1.182 2.377,-1.543c0.89,-0.362 1.766,-0.543 2.628,-0.543c1.307,0 2.51,0.257 3.608,0.772c1.099,0.514 1.968,1.286 2.607,2.315c1.53,-2.086 3.852,-3.128 6.966,-3.128c2.698,-0 4.797,0.764 6.299,2.294c1.502,1.529 2.252,3.684 2.252,6.465l0,15.601Z" style="fill-rule:nonzero;"/></g><g><rect id="path169822" serif:id="path1698" x="358.642" y="204.331" width="14.882" height="47.244" style="fill:#fff;"/><path d="M372.933,239.058c-0.719,0.222 -1.48,0.395 -2.282,0.519c-0.802,0.125 -1.591,0.187 -2.365,0.187c-1.245,-0 -2.317,-0.166 -3.216,-0.498c-0.899,-0.332 -1.632,-0.802 -2.199,-1.411c-0.567,-0.609 -0.982,-1.349 -1.245,-2.22c-0.263,-0.871 -0.394,-1.833 -0.394,-2.884l-0,-26.058l6.514,-0l0,24.979c0,1.439 0.678,2.158 2.034,2.158c0.414,0 0.816,-0.034 1.203,-0.104c0.387,-0.069 0.816,-0.186 1.286,-0.352l0.664,5.684Z" style="fill-rule:nonzero;"/></g></g><g><g><rect id="path169823" serif:id="path1698" x="84.508" y="204.331" width="25.039" height="47.244" style="fill:#fff;"/><path d="M108.214,216.123l-8.973,26.214c-0.414,1.212 -0.924,2.157 -1.53,2.832c-0.607,0.675 -1.268,1.178 -1.985,1.509c-0.551,0.248 -1.206,0.434 -1.964,0.558c-0.758,0.124 -1.496,0.186 -2.213,0.186c-0.744,0 -1.55,-0.076 -2.419,-0.227c-0.868,-0.152 -1.661,-0.338 -2.377,-0.558l1.075,-5.251c0.634,0.22 1.247,0.386 1.84,0.496c0.593,0.11 1.123,0.165 1.592,0.165c0.772,0 1.33,-0.124 1.675,-0.372c0.344,-0.248 0.517,-0.565 0.517,-0.951l-0,-0.207c-0,-0.082 -0.028,-0.193 -0.083,-0.33c-0.028,-0.111 -0.062,-0.221 -0.103,-0.331c-0.042,-0.11 -0.076,-0.234 -0.104,-0.372l-8.064,-23.361l6.865,0l4.714,14.182l4.714,-14.182l6.823,0Z" style="fill-rule:nonzero;"/></g><g><rect id="path169824" serif:id="path1698" x="199.311" y="204.331" width="16.063" height="47.244" style="fill:#fff;"/><path d="M208.325,233.638c-0,1.804 -0.545,3.251 -1.635,4.341c-1.09,1.09 -2.486,1.685 -4.19,1.785l-0,-1.879c0.877,-0.1 1.56,-0.326 2.048,-0.677c0.489,-0.35 0.733,-0.739 0.733,-1.165c-0,-0.25 -0.125,-0.375 -0.376,-0.375c-0.952,-0 -1.729,-0.301 -2.33,-0.902c-0.601,-0.602 -0.902,-1.341 -0.902,-2.218c0,-0.426 0.082,-0.826 0.245,-1.202c0.162,-0.376 0.388,-0.708 0.676,-0.996c0.288,-0.288 0.626,-0.514 1.015,-0.677c0.388,-0.162 0.808,-0.244 1.259,-0.244c1.077,0 1.922,0.401 2.536,1.203c0.614,0.801 0.921,1.804 0.921,3.006Z" style="fill-rule:nonzero;"/></g><g><rect id="path169825" serif:id="path1698" x="175.689" y="204.331" width="23.622" height="47.244" style="fill:#fff;"/><path d="M197.251,232.612c-0,1.046 -0.203,2.008 -0.608,2.884c-0.406,0.876 -1.014,1.635 -1.825,2.276c-0.811,0.641 -1.811,1.138 -3.002,1.491c-1.19,0.353 -2.57,0.53 -4.139,0.53c-1.989,-0 -3.794,-0.295 -5.415,-0.883c-1.622,-0.589 -3.127,-1.459 -4.513,-2.61l3.532,-4.08c1.098,0.915 2.223,1.523 3.374,1.824c1.151,0.301 2.145,0.451 2.982,0.451c1.178,0 1.988,-0.17 2.433,-0.51c0.445,-0.34 0.667,-0.758 0.667,-1.255c0,-0.288 -0.202,-0.596 -0.608,-0.923c-0.405,-0.326 -1.079,-0.595 -2.021,-0.804l-3.884,-0.942c-0.733,-0.157 -1.459,-0.405 -2.178,-0.745c-0.72,-0.34 -1.367,-0.772 -1.943,-1.295c-0.575,-0.523 -1.039,-1.151 -1.393,-1.884c-0.353,-0.732 -0.529,-1.582 -0.529,-2.55c-0,-1.073 0.229,-2.06 0.686,-2.963c0.458,-0.902 1.106,-1.687 1.943,-2.354c0.837,-0.667 1.824,-1.184 2.962,-1.55c1.138,-0.366 2.4,-0.549 3.787,-0.549c2.04,-0 3.813,0.274 5.317,0.824c1.504,0.549 2.818,1.308 3.943,2.276l-3.531,4.08c-0.837,-0.654 -1.694,-1.138 -2.57,-1.451c-0.877,-0.314 -1.825,-0.471 -2.845,-0.471c-1.099,-0 -1.91,0.202 -2.433,0.608c-0.523,0.405 -0.785,0.844 -0.785,1.314c0,0.079 0.013,0.184 0.039,0.314c0.027,0.131 0.112,0.268 0.255,0.412c0.144,0.144 0.347,0.288 0.609,0.432c0.261,0.144 0.627,0.268 1.098,0.373l4.081,0.981c0.811,0.209 1.603,0.471 2.374,0.785c0.772,0.313 1.465,0.732 2.08,1.255c0.615,0.523 1.112,1.164 1.491,1.923c0.379,0.759 0.569,1.687 0.569,2.786Z" style="fill-rule:nonzero;"/></g><g><rect id="path169826" serif:id="path1698" x="149.705" y="204.331" width="25.984" height="47.244" style="fill:#fff;"/><path d="M173.526,228.937l-0.078,0.984l-15.237,0c0.027,0.63 0.184,1.214 0.473,1.752c0.288,0.538 0.669,1.011 1.141,1.418c0.473,0.406 1.018,0.721 1.634,0.944c0.617,0.224 1.267,0.335 1.949,0.335c1.969,0 3.662,-0.656 5.079,-1.968l3.307,4.055c-1.129,1.076 -2.369,1.896 -3.72,2.46c-1.352,0.565 -2.894,0.847 -4.626,0.847c-1.864,-0 -3.518,-0.309 -4.961,-0.925c-1.444,-0.617 -2.658,-1.47 -3.642,-2.559c-0.984,-1.09 -1.732,-2.356 -2.244,-3.8c-0.512,-1.443 -0.768,-2.992 -0.768,-4.645c0,-1.601 0.243,-3.117 0.729,-4.548c0.485,-1.43 1.187,-2.67 2.106,-3.72c0.919,-1.05 2.06,-1.883 3.425,-2.5c1.365,-0.617 2.914,-0.925 4.646,-0.925c1.916,-0 3.583,0.341 5,1.023c1.417,0.683 2.572,1.601 3.464,2.756c0.893,1.155 1.529,2.513 1.91,4.075c0.38,1.562 0.518,3.209 0.413,4.941Zm-6.181,-3.425c0,-1.208 -0.439,-2.198 -1.319,-2.973c-0.879,-0.774 -1.962,-1.161 -3.248,-1.161c-1.233,-0 -2.257,0.413 -3.071,1.24c-0.813,0.827 -1.286,1.791 -1.417,2.894l9.055,-0Z" style="fill-rule:nonzero;"/></g><g><rect id="path169827" serif:id="path1698" x="59.232" y="204.331" width="25.276" height="47.244" style="fill:#fff;"/><path d="M82.308,222.616l-5.141,2.472c-0.968,-2.354 -2.498,-3.531 -4.591,-3.531c-0.811,-0 -1.517,0.183 -2.119,0.549c-0.601,0.366 -1.105,0.85 -1.51,1.452c-0.406,0.602 -0.713,1.295 -0.922,2.08c-0.21,0.784 -0.314,1.582 -0.314,2.393c-0,0.837 0.111,1.635 0.333,2.394c0.223,0.758 0.55,1.426 0.981,2.001c0.432,0.576 0.955,1.04 1.57,1.393c0.615,0.353 1.314,0.53 2.099,0.53c0.994,-0 1.864,-0.275 2.61,-0.824c0.745,-0.55 1.393,-1.452 1.942,-2.708l5.062,2.512c-0.916,1.935 -2.198,3.492 -3.846,4.669c-1.648,1.177 -3.57,1.766 -5.768,1.766c-1.857,-0 -3.49,-0.308 -4.898,-0.922c-1.409,-0.615 -2.581,-1.459 -3.517,-2.531c-0.936,-1.073 -1.644,-2.322 -2.125,-3.748c-0.481,-1.425 -0.722,-2.962 -0.722,-4.61c0,-1.465 0.221,-2.904 0.663,-4.317c0.442,-1.412 1.118,-2.674 2.028,-3.786c0.91,-1.112 2.056,-2.008 3.438,-2.688c1.382,-0.68 3.027,-1.02 4.937,-1.02c2.276,-0 4.277,0.595 6.004,1.785c1.726,1.19 2.995,2.753 3.806,4.689Z" style="fill-rule:nonzero;"/></g><g><rect id="path169828" serif:id="path1698" x="109.547" y="204.331" width="25.276" height="47.244" style="fill:#fff;"/><path d="M132.623,222.616l-5.141,2.472c-0.968,-2.354 -2.498,-3.531 -4.591,-3.531c-0.811,-0 -1.517,0.183 -2.119,0.549c-0.601,0.366 -1.105,0.85 -1.51,1.452c-0.406,0.602 -0.713,1.295 -0.922,2.08c-0.21,0.784 -0.314,1.582 -0.314,2.393c-0,0.837 0.111,1.635 0.333,2.394c0.223,0.758 0.55,1.426 0.981,2.001c0.432,0.576 0.955,1.04 1.57,1.393c0.615,0.353 1.314,0.53 2.099,0.53c0.994,-0 1.864,-0.275 2.609,-0.824c0.746,-0.55 1.393,-1.452 1.943,-2.708l5.062,2.512c-0.916,1.935 -2.198,3.492 -3.846,4.669c-1.648,1.177 -3.571,1.766 -5.768,1.766c-1.857,-0 -3.49,-0.308 -4.898,-0.922c-1.409,-0.615 -2.581,-1.459 -3.517,-2.531c-0.936,-1.073 -1.644,-2.322 -2.125,-3.748c-0.481,-1.425 -0.722,-2.962 -0.722,-4.61c0,-1.465 0.221,-2.904 0.663,-4.317c0.442,-1.412 1.118,-2.674 2.028,-3.786c0.91,-1.112 2.056,-2.008 3.438,-2.688c1.382,-0.68 3.027,-1.02 4.937,-1.02c2.276,-0 4.277,0.595 6.003,1.785c1.727,1.19 2.996,2.753 3.807,4.689Z" style="fill-rule:nonzero;"/></g><g><rect id="path169829" serif:id="path1698" x="134.823" y="204.331" width="14.882" height="47.244" style="fill:#fff;"/><path d="M149.114,239.058c-0.719,0.222 -1.48,0.395 -2.282,0.519c-0.802,0.125 -1.591,0.187 -2.365,0.187c-1.245,-0 -2.317,-0.166 -3.216,-0.498c-0.899,-0.332 -1.632,-0.802 -2.199,-1.411c-0.567,-0.609 -0.982,-1.349 -1.245,-2.22c-0.263,-0.871 -0.394,-1.833 -0.394,-2.884l-0,-26.058l6.514,-0l0,24.979c0,1.439 0.678,2.158 2.034,2.158c0.415,0 0.816,-0.034 1.203,-0.104c0.387,-0.069 0.816,-0.186 1.286,-0.352l0.664,5.684Z" style="fill-rule:nonzero;"/></g></g></g><g><g><rect id="path169830" serif:id="path1698" x="236.811" y="251.575" width="19.843" height="47.244" style="fill:#fff;"/><path d="M255.041,285.835c-0.685,0.301 -1.522,0.555 -2.509,0.761c-0.987,0.205 -2.084,0.308 -3.291,0.308c-2.193,0 -3.921,-0.514 -5.182,-1.542c-1.262,-1.029 -1.892,-2.695 -1.892,-4.998l-0,-12.093l-3.744,-0l0,-5.471l3.744,0l-0,-6.046l6.457,-2.921l0,8.967l5.965,0l-0,5.471l-5.965,-0l0,10.077c0,1.125 0.172,1.872 0.515,2.242c0.342,0.37 0.911,0.556 1.707,0.556c1.014,-0 2.07,-0.22 3.167,-0.659l1.028,5.348Z" style="fill-rule:nonzero;"/></g><g><rect id="path169831" serif:id="path1698" x="276.732" y="251.575" width="12.992" height="47.244" style="fill:#fff;"/><path d="M286.541,257.639c-0,1.054 -0.361,1.942 -1.082,2.663c-0.721,0.721 -1.595,1.081 -2.621,1.081c-1.053,0 -1.941,-0.36 -2.662,-1.081c-0.721,-0.721 -1.082,-1.609 -1.082,-2.663c0,-1.026 0.361,-1.899 1.082,-2.62c0.721,-0.721 1.609,-1.082 2.662,-1.082c1.026,0 1.9,0.361 2.621,1.082c0.721,0.721 1.082,1.594 1.082,2.62Zm-0.416,29.369l-6.573,-0l0,-23.628l6.573,-0l-0,23.628Z" style="fill-rule:nonzero;"/></g><g><g><rect id="path169832" serif:id="path1698" x="104.764" y="251.575" width="28.346" height="47.244" style="fill:#fff;"/><path d="M130.268,275.214c-0,1.629 -0.241,3.19 -0.723,4.681c-0.482,1.491 -1.185,2.81 -2.108,3.956c-0.923,1.146 -2.066,2.057 -3.43,2.734c-1.363,0.676 -2.913,1.014 -4.649,1.014c-0.964,0 -1.893,-0.151 -2.789,-0.455c-0.895,-0.304 -1.701,-0.732 -2.417,-1.284l-0,8.823l-6.546,-0l0,-31.316l6.546,0l-0.012,1.243c0.634,-0.58 1.406,-1.043 2.316,-1.388c0.91,-0.345 1.889,-0.518 2.936,-0.518c1.709,0 3.24,0.352 4.59,1.057c1.351,0.704 2.488,1.636 3.412,2.796c0.923,1.16 1.633,2.492 2.129,3.997c0.497,1.505 0.745,3.058 0.745,4.66Zm-6.629,0c0,-0.801 -0.124,-1.588 -0.373,-2.361c-0.248,-0.773 -0.6,-1.457 -1.056,-2.05c-0.456,-0.594 -1.015,-1.077 -1.678,-1.45c-0.663,-0.373 -1.409,-0.559 -2.237,-0.559c-0.414,-0 -0.87,0.069 -1.367,0.207c-0.497,0.138 -0.953,0.345 -1.367,0.621c-0.415,0.276 -0.76,0.621 -1.036,1.036c-0.276,0.414 -0.414,0.897 -0.414,1.449l-0,6.089c-0,0.525 0.124,1.002 0.372,1.43c0.249,0.428 0.567,0.787 0.953,1.077c0.387,0.29 0.822,0.517 1.305,0.683c0.484,0.166 0.96,0.249 1.43,0.249c0.856,-0 1.629,-0.173 2.32,-0.518c0.69,-0.345 1.263,-0.808 1.719,-1.388c0.456,-0.58 0.808,-1.256 1.056,-2.03c0.249,-0.773 0.373,-1.601 0.373,-2.485Z" style="fill-rule:nonzero;"/></g></g><g><rect id="path169833" serif:id="path1698" x="289.724" y="251.575" width="26.22" height="47.244" style="fill:#fff;"/><path d="M313.575,282.416l-2.607,4.592c-0.908,-0.052 -1.732,-0.279 -2.471,-0.681c-0.739,-0.402 -1.343,-0.928 -1.81,-1.576c-0.726,0.674 -1.576,1.18 -2.549,1.517c-0.973,0.338 -2.16,0.506 -3.56,0.506c-1.116,0 -2.186,-0.142 -3.211,-0.428c-1.025,-0.285 -1.926,-0.72 -2.705,-1.303c-0.778,-0.584 -1.401,-1.304 -1.868,-2.16c-0.467,-0.856 -0.7,-1.868 -0.7,-3.036c-0,-1.141 0.168,-2.114 0.506,-2.918c0.337,-0.805 0.765,-1.486 1.284,-2.043c0.519,-0.558 1.109,-1.006 1.771,-1.343c0.661,-0.337 1.316,-0.597 1.965,-0.778c0.648,-0.182 1.258,-0.312 1.829,-0.39c0.571,-0.077 1.025,-0.129 1.362,-0.155c0.545,-0.052 1.239,-0.11 2.082,-0.175c0.843,-0.065 1.615,-0.124 2.316,-0.175l-0,-0.312c-0,-0.96 -0.221,-1.654 -0.662,-2.082c-0.441,-0.428 -1.206,-0.642 -2.296,-0.642c-1.142,0 -2.231,0.136 -3.269,0.409c-1.038,0.272 -2.179,0.772 -3.425,1.498l-2.296,-4.865c1.583,-0.882 3.133,-1.517 4.651,-1.906c1.517,-0.39 3.094,-0.584 4.728,-0.584c2.828,-0 4.981,0.7 6.46,2.101c1.479,1.401 2.218,3.503 2.218,6.305l0,7.277c0,0.986 0.169,1.732 0.506,2.238c0.338,0.506 0.921,0.875 1.751,1.109Zm-8.405,-2.919l-0,-2.763c-0.467,0.026 -0.96,0.052 -1.479,0.078c-0.519,0.026 -0.96,0.065 -1.323,0.117c-0.441,0.052 -0.902,0.103 -1.382,0.155c-0.48,0.052 -0.914,0.162 -1.304,0.331c-0.389,0.169 -0.713,0.409 -0.972,0.72c-0.26,0.311 -0.39,0.752 -0.39,1.323c0,0.753 0.325,1.323 0.973,1.712c0.649,0.39 1.388,0.584 2.218,0.584c1.324,0 2.264,-0.22 2.822,-0.661c0.558,-0.441 0.837,-0.973 0.837,-1.596Z" style="fill-rule:nonzero;"/></g><g><rect id="path169834" serif:id="path1698" x="213.189" y="251.575" width="23.622" height="47.244" style="fill:#fff;"/><path d="M234.751,279.856c-0,1.046 -0.203,2.008 -0.608,2.884c-0.406,0.876 -1.014,1.635 -1.825,2.276c-0.811,0.641 -1.811,1.138 -3.002,1.491c-1.19,0.353 -2.57,0.53 -4.139,0.53c-1.989,-0 -3.794,-0.295 -5.415,-0.883c-1.622,-0.589 -3.127,-1.458 -4.513,-2.61l3.532,-4.08c1.098,0.915 2.223,1.523 3.374,1.824c1.151,0.301 2.145,0.451 2.982,0.451c1.178,0 1.988,-0.17 2.433,-0.51c0.445,-0.34 0.667,-0.758 0.667,-1.255c0,-0.288 -0.202,-0.595 -0.608,-0.922c-0.405,-0.327 -1.079,-0.596 -2.021,-0.805l-3.884,-0.942c-0.733,-0.157 -1.459,-0.405 -2.178,-0.745c-0.72,-0.34 -1.367,-0.772 -1.943,-1.295c-0.575,-0.523 -1.039,-1.151 -1.393,-1.883c-0.353,-0.733 -0.529,-1.583 -0.529,-2.551c-0,-1.073 0.229,-2.06 0.686,-2.963c0.458,-0.902 1.106,-1.687 1.943,-2.354c0.837,-0.667 1.824,-1.184 2.962,-1.55c1.138,-0.366 2.4,-0.549 3.787,-0.549c2.04,-0 3.813,0.274 5.317,0.824c1.504,0.549 2.818,1.308 3.943,2.276l-3.531,4.081c-0.837,-0.654 -1.694,-1.138 -2.57,-1.452c-0.877,-0.314 -1.825,-0.471 -2.845,-0.471c-1.099,-0 -1.91,0.203 -2.433,0.608c-0.523,0.405 -0.785,0.844 -0.785,1.315c0,0.078 0.013,0.183 0.039,0.313c0.027,0.131 0.112,0.269 0.255,0.412c0.144,0.144 0.347,0.288 0.609,0.432c0.261,0.144 0.627,0.268 1.098,0.373l4.081,0.981c0.811,0.209 1.603,0.471 2.374,0.785c0.772,0.314 1.465,0.732 2.08,1.255c0.615,0.523 1.112,1.164 1.491,1.923c0.379,0.759 0.569,1.687 0.569,2.786Z" style="fill-rule:nonzero;"/></g><g><rect id="path169835" serif:id="path1698" x="344.055" y="251.575" width="23.622" height="47.244" style="fill:#fff;"/><path d="M365.617,279.856c0,1.046 -0.203,2.008 -0.608,2.884c-0.406,0.876 -1.014,1.635 -1.825,2.276c-0.811,0.641 -1.811,1.138 -3.002,1.491c-1.19,0.353 -2.57,0.53 -4.139,0.53c-1.988,-0 -3.793,-0.295 -5.415,-0.883c-1.622,-0.589 -3.126,-1.458 -4.513,-2.61l3.532,-4.08c1.098,0.915 2.223,1.523 3.374,1.824c1.151,0.301 2.145,0.451 2.982,0.451c1.178,0 1.989,-0.17 2.433,-0.51c0.445,-0.34 0.667,-0.758 0.667,-1.255c0,-0.288 -0.202,-0.595 -0.608,-0.922c-0.405,-0.327 -1.079,-0.596 -2.021,-0.805l-3.884,-0.942c-0.733,-0.157 -1.459,-0.405 -2.178,-0.745c-0.72,-0.34 -1.367,-0.772 -1.942,-1.295c-0.576,-0.523 -1.04,-1.151 -1.393,-1.883c-0.354,-0.733 -0.53,-1.583 -0.53,-2.551c-0,-1.073 0.229,-2.06 0.686,-2.963c0.458,-0.902 1.106,-1.687 1.943,-2.354c0.837,-0.667 1.824,-1.184 2.962,-1.55c1.138,-0.366 2.401,-0.549 3.787,-0.549c2.04,-0 3.813,0.274 5.317,0.824c1.504,0.549 2.819,1.308 3.943,2.276l-3.531,4.081c-0.837,-0.654 -1.694,-1.138 -2.57,-1.452c-0.877,-0.314 -1.825,-0.471 -2.845,-0.471c-1.099,-0 -1.91,0.203 -2.433,0.608c-0.523,0.405 -0.785,0.844 -0.785,1.315c0,0.078 0.013,0.183 0.04,0.313c0.026,0.131 0.111,0.269 0.255,0.412c0.143,0.144 0.346,0.288 0.608,0.432c0.261,0.144 0.628,0.268 1.098,0.373l4.081,0.981c0.811,0.209 1.603,0.471 2.374,0.785c0.772,0.314 1.465,0.732 2.08,1.255c0.615,0.523 1.112,1.164 1.491,1.923c0.379,0.759 0.569,1.687 0.569,2.786Z" style="fill-rule:nonzero;"/></g><g><rect id="path169836" serif:id="path1698" x="256.654" y="251.575" width="20.079" height="47.244" style="fill:#fff;"/><path d="M273.692,269.286l-0.955,-0.083c-0.886,-0.084 -1.717,-0.035 -2.492,0.145c-0.776,0.18 -1.454,0.492 -2.036,0.935c-0.581,0.443 -1.038,1.017 -1.371,1.723c-0.332,0.707 -0.498,1.544 -0.498,2.514l-0,12.461l-6.646,0l-0,-23.594l6.646,0l-0,2.451c0.803,-1.136 1.8,-1.966 2.991,-2.492c1.19,-0.527 2.644,-0.693 4.361,-0.499l0,6.439Z" style="fill-rule:nonzero;"/></g><g><rect id="path169837" serif:id="path1698" x="315.945" y="251.575" width="28.11" height="47.244" style="fill:#fff;"/><path d="M340.428,287.008l-6.674,-0l0,-14.808c0,-1.252 -0.29,-2.155 -0.871,-2.711c-0.581,-0.557 -1.41,-0.835 -2.489,-0.835c-0.525,0 -1.037,0.07 -1.535,0.209c-0.498,0.139 -0.94,0.361 -1.327,0.667c-0.387,0.306 -0.698,0.702 -0.934,1.189c-0.235,0.487 -0.352,1.092 -0.352,1.815l-0,14.474l-6.674,-0l-0,-23.693l6.674,0l-0.029,1.502c0.725,-0.668 1.595,-1.196 2.612,-1.585c1.018,-0.39 2,-0.584 2.947,-0.584c1.421,-0 2.668,0.208 3.741,0.625c1.073,0.417 1.979,0.994 2.717,1.731c0.738,0.737 1.289,1.599 1.651,2.587c0.362,0.987 0.543,2.064 0.543,3.232l0,16.185Z" style="fill-rule:nonzero;"/></g><g><rect id="path169838" serif:id="path1698" x="133.11" y="251.575" width="25.984" height="47.244" style="fill:#fff;"/><path d="M156.932,276.181l-0.079,0.984l-15.236,0c0.026,0.63 0.184,1.214 0.472,1.752c0.289,0.538 0.67,1.011 1.142,1.418c0.472,0.406 1.017,0.721 1.634,0.945c0.617,0.223 1.266,0.334 1.949,0.334c1.968,0 3.661,-0.656 5.078,-1.968l3.308,4.055c-1.129,1.076 -2.369,1.896 -3.721,2.46c-1.352,0.565 -2.894,0.847 -4.626,0.847c-1.863,-0 -3.517,-0.309 -4.961,-0.925c-1.443,-0.617 -2.657,-1.47 -3.641,-2.559c-0.985,-1.09 -1.733,-2.356 -2.244,-3.8c-0.512,-1.443 -0.768,-2.992 -0.768,-4.645c-0,-1.601 0.243,-3.117 0.728,-4.548c0.486,-1.43 1.188,-2.67 2.107,-3.72c0.918,-1.05 2.06,-1.883 3.425,-2.5c1.365,-0.617 2.913,-0.925 4.645,-0.925c1.916,-0 3.583,0.341 5,1.023c1.418,0.683 2.573,1.601 3.465,2.756c0.892,1.155 1.529,2.513 1.909,4.075c0.381,1.562 0.519,3.209 0.414,4.941Zm-6.181,-3.425c-0,-1.207 -0.44,-2.198 -1.319,-2.973c-0.879,-0.774 -1.962,-1.161 -3.248,-1.161c-1.234,0 -2.257,0.413 -3.071,1.24c-0.814,0.827 -1.286,1.792 -1.417,2.894l9.055,-0Z" style="fill-rule:nonzero;"/></g><g><rect id="path169839" serif:id="path1698" x="187.205" y="251.575" width="25.984" height="47.244" style="fill:#fff;"/><path d="M211.026,276.181l-0.078,0.984l-15.237,0c0.027,0.63 0.184,1.214 0.473,1.752c0.288,0.538 0.669,1.011 1.141,1.418c0.473,0.406 1.018,0.721 1.634,0.945c0.617,0.223 1.267,0.334 1.949,0.334c1.969,0 3.662,-0.656 5.079,-1.968l3.307,4.055c-1.129,1.076 -2.369,1.896 -3.72,2.46c-1.352,0.565 -2.894,0.847 -4.626,0.847c-1.864,-0 -3.518,-0.309 -4.961,-0.925c-1.444,-0.617 -2.658,-1.47 -3.642,-2.559c-0.984,-1.09 -1.732,-2.356 -2.244,-3.8c-0.512,-1.443 -0.768,-2.992 -0.768,-4.645c0,-1.601 0.243,-3.117 0.729,-4.548c0.485,-1.43 1.187,-2.67 2.106,-3.72c0.919,-1.05 2.06,-1.883 3.425,-2.5c1.365,-0.617 2.914,-0.925 4.646,-0.925c1.916,-0 3.583,0.341 5,1.023c1.417,0.683 2.572,1.601 3.464,2.756c0.893,1.155 1.529,2.513 1.91,4.075c0.38,1.562 0.518,3.209 0.413,4.941Zm-6.181,-3.425c0,-1.207 -0.439,-2.198 -1.319,-2.973c-0.879,-0.774 -1.962,-1.161 -3.248,-1.161c-1.233,0 -2.257,0.413 -3.071,1.24c-0.813,0.827 -1.286,1.792 -1.417,2.894l9.055,-0Z" style="fill-rule:nonzero;"/></g><g><rect id="path169840" serif:id="path1698" x="159.094" y="251.575" width="28.11" height="47.244" style="fill:#fff;"/><path d="M184.573,286.881l-6.665,0l-0,-1.265c-0.647,0.59 -1.427,1.068 -2.341,1.434c-0.914,0.366 -1.835,0.548 -2.763,0.548c-1.828,0 -3.445,-0.344 -4.851,-1.033c-1.406,-0.689 -2.587,-1.61 -3.544,-2.763c-0.956,-1.153 -1.687,-2.482 -2.193,-3.986c-0.506,-1.505 -0.759,-3.087 -0.759,-4.746c-0,-1.687 0.239,-3.304 0.717,-4.851c0.478,-1.546 1.188,-2.91 2.13,-4.091c0.942,-1.181 2.102,-2.131 3.48,-2.848c1.378,-0.717 2.967,-1.075 4.767,-1.075c0.984,-0 1.94,0.154 2.868,0.464c0.928,0.309 1.758,0.745 2.489,1.307l-0,-10.039l6.665,0l-0,32.944Zm-6.623,-8.9l-0,-6.201c-0,-0.534 -0.127,-1.012 -0.381,-1.434c-0.255,-0.422 -0.579,-0.788 -0.975,-1.097c-0.395,-0.309 -0.84,-0.548 -1.334,-0.717c-0.495,-0.169 -0.982,-0.253 -1.462,-0.253c-1.779,-0 -3.156,0.626 -4.131,1.877c-0.974,1.251 -1.461,2.861 -1.461,4.83c-0,0.9 0.127,1.736 0.381,2.51c0.254,0.773 0.614,1.441 1.08,2.003c0.466,0.563 1.038,1.013 1.716,1.35c0.678,0.338 1.441,0.506 2.288,0.506c0.424,0 0.89,-0.07 1.398,-0.21c0.508,-0.141 0.974,-0.352 1.398,-0.633c0.424,-0.281 0.777,-0.633 1.059,-1.055c0.283,-0.422 0.424,-0.914 0.424,-1.476Z" style="fill-rule:nonzero;"/></g></g><g><g><g><rect id="path169841" serif:id="path1698" x="354.449" y="298.819" width="27.638" height="47.244" style="fill:#fff;"/><path d="M377.879,333.437c0,1.645 -0.289,3.013 -0.869,4.105c-0.58,1.091 -1.361,1.961 -2.345,2.608c-0.984,0.647 -2.117,1.105 -3.397,1.375c-1.281,0.269 -2.622,0.404 -4.024,0.404c-1.564,0 -3.168,-0.229 -4.812,-0.687c-1.645,-0.459 -3.1,-1.065 -4.367,-1.82l2.183,-5.014c1.348,0.647 2.568,1.112 3.66,1.395c1.092,0.283 2.217,0.424 3.377,0.424c0.539,0 1.071,-0.047 1.597,-0.141c0.526,-0.095 0.991,-0.263 1.395,-0.506c0.404,-0.242 0.735,-0.566 0.991,-0.97c0.256,-0.405 0.384,-0.917 0.384,-1.537l-0,-1.981c-0.62,0.539 -1.375,0.963 -2.265,1.273c-0.889,0.311 -1.765,0.466 -2.628,0.466c-1.618,-0 -3.047,-0.284 -4.287,-0.85c-1.24,-0.566 -2.278,-1.348 -3.113,-2.345c-0.836,-0.998 -1.47,-2.184 -1.901,-3.559c-0.431,-1.375 -0.647,-2.871 -0.647,-4.488c0,-1.483 0.243,-2.892 0.728,-4.226c0.485,-1.335 1.166,-2.501 2.042,-3.498c0.876,-0.997 1.907,-1.786 3.094,-2.366c1.186,-0.579 2.48,-0.869 3.882,-0.869c1.078,-0 2.069,0.182 2.972,0.546c0.903,0.364 1.611,0.856 2.123,1.476l-0,-1.375l6.227,-0l0,22.16Zm-6.106,-11.727c0,-0.701 -0.081,-1.368 -0.242,-2.002c-0.162,-0.633 -0.418,-1.186 -0.769,-1.658c-0.35,-0.471 -0.795,-0.849 -1.334,-1.132c-0.539,-0.283 -1.186,-0.425 -1.941,-0.425c-0.728,0 -1.362,0.142 -1.901,0.425c-0.539,0.283 -0.991,0.661 -1.355,1.132c-0.363,0.472 -0.633,1.025 -0.808,1.658c-0.176,0.634 -0.263,1.301 -0.263,2.002c-0,0.728 0.081,1.409 0.242,2.042c0.162,0.634 0.418,1.186 0.769,1.658c0.35,0.472 0.795,0.849 1.334,1.132c0.539,0.283 1.2,0.425 1.982,0.425c0.755,-0 1.402,-0.142 1.941,-0.425c0.539,-0.283 0.984,-0.66 1.334,-1.132c0.351,-0.472 0.607,-1.024 0.769,-1.658c0.161,-0.633 0.242,-1.314 0.242,-2.042Z" style="fill-rule:nonzero;"/></g><g><rect id="path169842" serif:id="path1698" x="283.11" y="298.819" width="25.276" height="47.244" style="fill:#fff;"/><path d="M307.4,310.597l-7.99,23.622l-7.324,0l-7.99,-23.622l6.908,0l4.744,14.473l4.703,-14.473l6.949,0Z" style="fill-rule:nonzero;"/></g><g><rect id="path169843" serif:id="path1698" x="334.37" y="298.819" width="20.079" height="47.244" style="fill:#fff;"/><path d="M351.409,316.53l-0.956,-0.083c-0.886,-0.083 -1.717,-0.035 -2.492,0.145c-0.775,0.18 -1.454,0.492 -2.035,0.935c-0.582,0.443 -1.039,1.017 -1.371,1.724c-0.332,0.706 -0.499,1.543 -0.499,2.513l0,12.461l-6.646,0l0,-23.594l6.646,0l0,2.451c0.803,-1.135 1.8,-1.966 2.991,-2.492c1.191,-0.527 2.645,-0.693 4.362,-0.499l-0,6.439Z" style="fill-rule:nonzero;"/></g><g><rect id="path169844" serif:id="path1698" x="308.386" y="298.819" width="25.984" height="47.244" style="fill:#fff;"/><path d="M332.207,323.425l-0.078,0.984l-15.237,0c0.027,0.63 0.184,1.214 0.473,1.752c0.289,0.538 0.669,1.011 1.142,1.418c0.472,0.407 1.017,0.722 1.633,0.945c0.617,0.223 1.267,0.334 1.949,0.334c1.969,0 3.662,-0.656 5.079,-1.968l3.307,4.055c-1.129,1.076 -2.369,1.896 -3.72,2.461c-1.352,0.564 -2.894,0.846 -4.626,0.846c-1.864,-0 -3.517,-0.308 -4.961,-0.925c-1.444,-0.617 -2.657,-1.47 -3.642,-2.559c-0.984,-1.09 -1.732,-2.356 -2.244,-3.799c-0.512,-1.444 -0.768,-2.993 -0.768,-4.646c0,-1.601 0.243,-3.117 0.729,-4.547c0.485,-1.431 1.187,-2.671 2.106,-3.721c0.919,-1.05 2.06,-1.883 3.425,-2.5c1.365,-0.617 2.914,-0.925 4.646,-0.925c1.916,-0 3.583,0.341 5,1.024c1.417,0.682 2.572,1.601 3.465,2.755c0.892,1.155 1.528,2.514 1.909,4.075c0.381,1.562 0.518,3.209 0.413,4.941Zm-6.181,-3.425c0,-1.207 -0.439,-2.198 -1.319,-2.972c-0.879,-0.775 -1.962,-1.162 -3.248,-1.162c-1.233,0 -2.257,0.414 -3.071,1.24c-0.813,0.827 -1.286,1.792 -1.417,2.894l9.055,-0Z" style="fill-rule:nonzero;"/></g><g><rect id="path169845" serif:id="path1698" x="382.087" y="298.819" width="25.984" height="47.244" style="fill:#fff;"/><path d="M405.908,323.425l-0.079,0.984l-15.236,0c0.026,0.63 0.184,1.214 0.473,1.752c0.288,0.538 0.669,1.011 1.141,1.418c0.473,0.407 1.017,0.722 1.634,0.945c0.617,0.223 1.267,0.334 1.949,0.334c1.969,0 3.661,-0.656 5.079,-1.968l3.307,4.055c-1.129,1.076 -2.369,1.896 -3.721,2.461c-1.351,0.564 -2.893,0.846 -4.626,0.846c-1.863,-0 -3.517,-0.308 -4.96,-0.925c-1.444,-0.617 -2.658,-1.47 -3.642,-2.559c-0.984,-1.09 -1.732,-2.356 -2.244,-3.799c-0.512,-1.444 -0.768,-2.993 -0.768,-4.646c0,-1.601 0.243,-3.117 0.729,-4.547c0.485,-1.431 1.187,-2.671 2.106,-3.721c0.919,-1.05 2.06,-1.883 3.425,-2.5c1.365,-0.617 2.913,-0.925 4.646,-0.925c1.916,-0 3.582,0.341 5,1.024c1.417,0.682 2.572,1.601 3.464,2.755c0.893,1.155 1.529,2.514 1.91,4.075c0.38,1.562 0.518,3.209 0.413,4.941Zm-6.181,-3.425c0,-1.207 -0.44,-2.198 -1.319,-2.972c-0.879,-0.775 -1.962,-1.162 -3.248,-1.162c-1.233,0 -2.257,0.414 -3.071,1.24c-0.813,0.827 -1.286,1.792 -1.417,2.894l9.055,-0Z" style="fill-rule:nonzero;"/></g></g><g><g><rect id="path169846" serif:id="path1698" x="202.441" y="298.819" width="37.795" height="47.244" style="fill:#fff;"/><path d="M237.039,310.63l-6.866,23.622l-6.576,-0l-3.287,-13.35l-3.246,13.35l-6.575,-0l-6.867,-23.622l6.783,-0l3.454,13.059l2.997,-13.059l6.95,-0l2.996,13.059l3.454,-13.059l6.783,-0Z" style="fill-rule:nonzero;"/></g><g><rect id="path169847" serif:id="path1698" x="175.276" y="298.819" width="27.165" height="47.244" style="fill:#fff;"/><path d="M200.081,322.716c-0,1.648 -0.262,3.178 -0.785,4.591c-0.523,1.412 -1.269,2.629 -2.237,3.649c-0.968,1.02 -2.145,1.824 -3.531,2.413c-1.387,0.589 -2.93,0.883 -4.63,0.883c-1.701,-0 -3.244,-0.288 -4.631,-0.863c-1.386,-0.576 -2.57,-1.38 -3.551,-2.414c-0.981,-1.033 -1.739,-2.256 -2.276,-3.668c-0.536,-1.413 -0.804,-2.943 -0.804,-4.591c-0,-1.701 0.242,-3.29 0.726,-4.768c0.484,-1.478 1.203,-2.76 2.158,-3.845c0.955,-1.086 2.132,-1.936 3.531,-2.551c1.4,-0.615 3.015,-0.922 4.847,-0.922c1.805,-0 3.407,0.314 4.806,0.942c1.4,0.627 2.57,1.484 3.512,2.57c0.942,1.085 1.655,2.367 2.139,3.845c0.484,1.478 0.726,3.054 0.726,4.729Zm-6.161,-0c0,-0.916 -0.124,-1.773 -0.373,-2.571c-0.248,-0.797 -0.588,-1.497 -1.02,-2.099c-0.431,-0.602 -0.961,-1.079 -1.589,-1.432c-0.628,-0.353 -1.308,-0.53 -2.04,-0.53c-0.759,0 -1.452,0.177 -2.08,0.53c-0.628,0.353 -1.164,0.83 -1.609,1.432c-0.445,0.602 -0.785,1.302 -1.02,2.099c-0.236,0.798 -0.353,1.655 -0.353,2.571c-0,1.805 0.457,3.27 1.373,4.394c0.916,1.125 2.145,1.688 3.689,1.688c1.517,-0 2.733,-0.563 3.649,-1.688c0.915,-1.124 1.373,-2.589 1.373,-4.394Z" style="fill-rule:nonzero;"/></g><g><rect id="path169848" serif:id="path1698" x="240.236" y="298.819" width="28.11" height="47.244" style="fill:#fff;"/><path d="M264.72,334.252l-6.675,-0l0,-14.808c0,-1.251 -0.29,-2.155 -0.871,-2.711c-0.58,-0.557 -1.41,-0.835 -2.488,-0.835c-0.526,0 -1.038,0.07 -1.536,0.209c-0.497,0.139 -0.94,0.361 -1.327,0.667c-0.387,0.306 -0.698,0.702 -0.933,1.189c-0.235,0.487 -0.353,1.092 -0.353,1.815l0,14.474l-6.674,-0l0,-23.693l6.674,0l-0.028,1.502c0.724,-0.668 1.595,-1.196 2.612,-1.585c1.017,-0.39 1.999,-0.584 2.946,-0.584c1.422,-0 2.669,0.208 3.741,0.625c1.073,0.418 1.979,0.995 2.717,1.732c0.739,0.736 1.289,1.598 1.651,2.586c0.362,0.987 0.544,2.064 0.544,3.232l-0,16.185Z" style="fill-rule:nonzero;"/></g><g><rect id="path169849" serif:id="path1698" x="134.409" y="298.819" width="40.866" height="47.244" style="fill:#fff;"/><path d="M171.507,334.252l-6.591,-0l0,-14.85c0,-1.168 -0.269,-2.037 -0.808,-2.607c-0.539,-0.57 -1.251,-0.855 -2.135,-0.855c-0.415,0 -0.85,0.09 -1.306,0.271c-0.456,0.181 -0.864,0.445 -1.223,0.793c-0.359,0.347 -0.656,0.792 -0.891,1.335c-0.235,0.542 -0.353,1.161 -0.353,1.856l0,14.057l-6.632,-0l-0.042,-14.891c0,-1.196 -0.257,-2.072 -0.771,-2.628c-0.515,-0.557 -1.175,-0.835 -1.982,-0.835c-0.528,0 -1.029,0.084 -1.501,0.251c-0.473,0.166 -0.897,0.424 -1.273,0.771c-0.375,0.348 -0.674,0.793 -0.896,1.335c-0.223,0.542 -0.334,1.203 -0.334,1.981l-0,14.016l-6.591,-0l0,-23.693l6.591,0l-0,1.46c0.695,-0.667 1.488,-1.182 2.378,-1.543c0.889,-0.362 1.765,-0.543 2.627,-0.543c1.307,0 2.51,0.258 3.609,0.772c1.098,0.515 1.967,1.286 2.607,2.315c1.529,-2.085 3.851,-3.128 6.966,-3.128c2.697,-0 4.797,0.764 6.298,2.294c1.502,1.529 2.253,3.685 2.253,6.465l-0,15.601Z" style="fill-rule:nonzero;"/></g></g><g><g><rect id="path169850" serif:id="path1698" x="64.37" y="298.819" width="27.165" height="47.244" style="fill:#fff;"/><path d="M89.175,322.716c0,1.648 -0.261,3.178 -0.785,4.591c-0.523,1.412 -1.268,2.629 -2.236,3.649c-0.968,1.02 -2.145,1.824 -3.532,2.413c-1.386,0.589 -2.93,0.883 -4.63,0.883c-1.7,-0 -3.244,-0.288 -4.63,-0.863c-1.387,-0.576 -2.57,-1.38 -3.551,-2.414c-0.981,-1.033 -1.74,-2.256 -2.276,-3.668c-0.537,-1.413 -0.805,-2.943 -0.805,-4.591c0,-1.701 0.242,-3.29 0.726,-4.768c0.484,-1.478 1.204,-2.76 2.158,-3.845c0.955,-1.086 2.132,-1.936 3.532,-2.551c1.399,-0.615 3.015,-0.922 4.846,-0.922c1.805,-0 3.407,0.314 4.807,0.942c1.399,0.627 2.57,1.484 3.512,2.57c0.941,1.085 1.654,2.367 2.138,3.845c0.484,1.478 0.726,3.054 0.726,4.729Zm-6.16,-0c-0,-0.916 -0.125,-1.773 -0.373,-2.571c-0.249,-0.797 -0.589,-1.497 -1.02,-2.099c-0.432,-0.602 -0.962,-1.079 -1.59,-1.432c-0.627,-0.353 -1.308,-0.53 -2.04,-0.53c-0.759,0 -1.452,0.177 -2.08,0.53c-0.628,0.353 -1.164,0.83 -1.608,1.432c-0.445,0.602 -0.785,1.302 -1.021,2.099c-0.235,0.798 -0.353,1.655 -0.353,2.571c0,1.805 0.458,3.27 1.374,4.394c0.915,1.125 2.145,1.688 3.688,1.688c1.517,-0 2.734,-0.563 3.649,-1.688c0.916,-1.124 1.374,-2.589 1.374,-4.394Z" style="fill-rule:nonzero;"/></g><g><rect id="path169851" serif:id="path1698" x="91.535" y="298.819" width="28.11" height="47.244" style="fill:#fff;"/><path d="M116.019,334.252l-6.674,-0l-0,-14.808c-0,-1.251 -0.291,-2.155 -0.871,-2.711c-0.581,-0.557 -1.411,-0.835 -2.489,-0.835c-0.526,0 -1.038,0.07 -1.535,0.209c-0.498,0.139 -0.941,0.361 -1.328,0.667c-0.387,0.306 -0.698,0.702 -0.933,1.189c-0.235,0.487 -0.353,1.092 -0.353,1.815l0,14.474l-6.674,-0l0,-23.693l6.674,0l-0.028,1.502c0.724,-0.668 1.595,-1.196 2.612,-1.585c1.017,-0.39 1.999,-0.584 2.947,-0.584c1.421,-0 2.668,0.208 3.741,0.625c1.073,0.418 1.978,0.995 2.717,1.732c0.738,0.736 1.288,1.598 1.65,2.586c0.363,0.987 0.544,2.064 0.544,3.232l-0,16.185Z" style="fill-rule:nonzero;"/></g></g></g></g><path d="M220.472,386.417l62.993,0l-0,-15.748l-62.993,0l15.748,-15.748l-23.622,0l-23.622,23.622l23.622,23.622l23.622,0l-15.748,-15.748Z"/></g></svg>