<?xml version="1.0" encoding="UTF-8" standalone="no"?><!DOCTYPE svg PUBLIC "-//W3C//DTD SVG 1.1//EN" "http://www.w3.org/Graphics/SVG/1.1/DTD/svg11.dtd"><svg width="100%" height="100%" viewBox="0 0 227 341" version="1.1" xmlns="http://www.w3.org/2000/svg" xmlns:xlink="http://www.w3.org/1999/xlink" xml:space="preserve" xmlns:serif="http://www.serif.com/" style="fill-rule:evenodd;clip-rule:evenodd;stroke-linejoin:round;stroke-miterlimit:2;"><g transform="matrix(50,0,0,50,207.526,187.742)"></g><text x="19.904px" y="187.742px" style="font-family:'ArialMT', 'Arial', sans-serif;font-size:50px;">sw=28.8</text><g id="_652-One-Way-Traffic" serif:id="652 One Way Traffic"><path d="M226.772,18.142l-0,303.874c-0,10.012 -8.129,18.141 -18.142,18.141l-190.488,0c-10.013,0 -18.142,-8.129 -18.142,-18.141l0,-303.874c0,-10.013 8.129,-18.142 18.142,-18.142l190.488,0c10.013,0 18.142,8.129 18.142,18.142Z" style="fill:#fff;"/><path d="M226.772,18.142l-0,303.874c-0,10.012 -8.129,18.141 -18.142,18.141l-190.488,0c-10.013,0 -18.142,-8.129 -18.142,-18.141l0,-303.874c0,-10.013 8.129,-18.142 18.142,-18.142l190.488,0c10.013,0 18.142,8.129 18.142,18.142Zm-1.181,-0c-0,-9.361 -7.6,-16.961 -16.961,-16.961l-190.488,0c-9.361,0 -16.961,7.6 -16.961,16.961l0,303.874c0,9.361 7.6,16.96 16.961,16.96l190.488,0c9.361,0 16.961,-7.599 16.961,-16.96l-0,-303.874Z" style="fill:#0079c1;"/><path d="M217.701,18.142l-0,303.874c-0,5.006 -4.065,9.071 -9.071,9.071l-190.488,-0c-5.007,-0 -9.071,-4.065 -9.071,-9.071l-0,-303.874c-0,-5.007 4.064,-9.071 9.071,-9.071l190.488,-0c5.006,-0 9.071,4.064 9.071,9.071Z" style="fill:#0079c1;"/><path d="M137.323,122.205l-0,191.496l-47.874,-0l-0,-191.496l-47.874,47.874l-0,-71.811l71.811,-71.811l71.811,71.811l-0,71.811l-47.874,-47.874Z" style="fill:#fff;"/></g></svg>