<?xml version="1.0" encoding="UTF-8" standalone="no"?><!DOCTYPE svg PUBLIC "-//W3C//DTD SVG 1.1//EN" "http://www.w3.org/Graphics/SVG/1.1/DTD/svg11.dtd"><svg width="100%" height="100%" viewBox="0 0 740 1366" version="1.1" xmlns="http://www.w3.org/2000/svg" xmlns:xlink="http://www.w3.org/1999/xlink" xml:space="preserve" xmlns:serif="http://www.serif.com/" style="fill-rule:evenodd;clip-rule:evenodd;stroke-linejoin:round;stroke-miterlimit:2;"><g transform="matrix(50,0,0,50,517.911,700.355)"></g><text x="236.685px" y="700.355px" style="font-family:'ArialMT', 'Arial', sans-serif;font-size:50px;">sw=1<tspan x="351.09px 378.897px " y="700.355px 700.355px ">15</tspan>.602</text><g><path d="M739.606,35.433c0,-19.556 -15.877,-35.433 -35.433,-35.433l-668.74,0c-19.556,0 -35.433,15.877 -35.433,35.433l0,1294.52c0,19.556 15.877,35.433 35.433,35.433l668.74,0c19.556,0 35.433,-15.877 35.433,-35.433l0,-1294.52Z"/><path d="M721.89,35.433c-0,-9.778 -7.939,-17.716 -17.717,-17.716l-668.74,-0c-9.778,-0 -17.716,7.938 -17.716,17.716l-0,810.236c-0,9.778 7.938,17.717 17.716,17.717l668.74,-0c9.778,-0 17.717,-7.939 17.717,-17.717l-0,-810.236Z" style="fill:#fff;"/><path d="M721.89,898.819c-0,-9.778 -7.939,-17.717 -17.717,-17.717l-668.74,0c-9.778,0 -17.716,7.939 -17.716,17.717l-0,431.131c-0,9.778 7.938,17.717 17.716,17.717l668.74,-0c9.778,-0 17.717,-7.939 17.717,-17.717l-0,-431.131Z" style="fill:#fff;"/><path d="M569.93,77.642l-16.924,0l-0,60.842l16.924,0l-0,-60.842Zm1.071,-14.782c0,-5.249 -4.285,-9.533 -9.533,-9.533c-5.356,-0 -9.641,4.284 -9.641,9.533c0,5.356 4.285,9.641 9.641,9.641c5.248,-0 9.533,-4.285 9.533,-9.641Z" style="fill-rule:nonzero;"/><path d="M189.587,79.158c-5.145,-16.696 -18.69,-25.831 -36.226,-25.831c-26.145,-0 -39.166,20.16 -39.166,42.946c0,22.051 13.126,42.211 39.166,42.211c18.061,0 29.611,-8.295 36.121,-25.41l-16.905,-5.461c-3.36,10.081 -9.975,14.806 -19.006,14.806c-15.54,-0 -20.79,-11.761 -20.79,-26.356c-0,-15.015 5.985,-26.776 21.735,-26.776c9.346,0 15.541,6.405 18.481,15.541l16.59,-5.67Z" style="fill-rule:nonzero;"/><rect id="path1698" x="545.745" y="47.244" width="33.455" height="121.654" style="fill:#fff;"/><path d="M569.93,77.642l-16.924,0l-0,60.842l16.924,0l-0,-60.842Zm1.071,-14.782c0,-5.249 -4.285,-9.533 -9.533,-9.533c-5.356,-0 -9.641,4.284 -9.641,9.533c0,5.356 4.285,9.641 9.641,9.641c5.248,-0 9.533,-4.285 9.533,-9.641Z" style="fill-rule:nonzero;"/><rect id="path16981" serif:id="path1698" x="478.227" y="47.244" width="67.518" height="121.654" style="fill:#fff;"/><path d="M539.643,126.66l-6.714,11.824c-2.338,-0.133 -4.459,-0.718 -6.363,-1.753c-1.904,-1.036 -3.457,-2.389 -4.66,-4.059c-1.87,1.737 -4.058,3.04 -6.563,3.908c-2.505,0.869 -5.562,1.303 -9.169,1.303c-2.873,-0 -5.629,-0.367 -8.268,-1.102c-2.638,-0.735 -4.96,-1.854 -6.964,-3.357c-2.004,-1.503 -3.608,-3.357 -4.81,-5.562c-1.203,-2.204 -1.804,-4.81 -1.804,-7.816c0,-2.94 0.434,-5.445 1.303,-7.516c0.868,-2.071 1.971,-3.824 3.307,-5.261c1.336,-1.436 2.856,-2.589 4.559,-3.457c1.704,-0.868 3.391,-1.537 5.061,-2.004c1.67,-0.468 3.24,-0.802 4.71,-1.002c1.469,-0.201 2.638,-0.334 3.507,-0.401c1.403,-0.134 3.19,-0.284 5.361,-0.451c2.171,-0.167 4.159,-0.317 5.962,-0.451l0,-0.802c0,-2.471 -0.567,-4.259 -1.703,-5.361c-1.136,-1.102 -3.107,-1.653 -5.912,-1.653c-2.94,-0 -5.746,0.35 -8.418,1.052c-2.672,0.701 -5.612,1.987 -8.818,3.858l-5.913,-12.526c4.076,-2.272 8.067,-3.908 11.975,-4.91c3.908,-1.002 7.967,-1.504 12.176,-1.504c7.282,0 12.826,1.804 16.634,5.412c3.808,3.607 5.712,9.019 5.712,16.234l0,18.739c0,2.538 0.434,4.459 1.303,5.762c0.868,1.302 2.372,2.254 4.509,2.856Zm-21.645,-7.516l0,-7.115c-1.202,0.067 -2.472,0.134 -3.808,0.201c-1.336,0.066 -2.471,0.167 -3.407,0.3c-1.135,0.134 -2.321,0.267 -3.557,0.401c-1.236,0.134 -2.355,0.418 -3.357,0.852c-1.002,0.434 -1.837,1.052 -2.505,1.854c-0.668,0.801 -1.002,1.937 -1.002,3.407c-0,1.937 0.835,3.407 2.505,4.409c1.67,1.002 3.574,1.503 5.712,1.503c3.407,0 5.828,-0.568 7.265,-1.703c1.436,-1.136 2.154,-2.506 2.154,-4.109Z" style="fill-rule:nonzero;"/><rect id="path16982" serif:id="path1698" x="579.199" y="47.244" width="51.703" height="121.654" style="fill:#fff;"/><path d="M622.967,76.27c-8.771,-0.963 -14.868,1.926 -18.932,7.702l-0,-6.311l-17.008,-0l0,60.755l17.008,0l-0,-32.089c-0,-10.055 7.487,-14.44 16.472,-13.691l2.46,0.214l0,-16.58Z" style="fill-rule:nonzero;"/><rect id="path16983" serif:id="path1698" x="300.309" y="47.244" width="67.518" height="121.654" style="fill:#fff;"/><path d="M361.725,126.66l-6.714,11.824c-2.338,-0.133 -4.459,-0.718 -6.363,-1.753c-1.904,-1.036 -3.457,-2.389 -4.66,-4.059c-1.87,1.737 -4.058,3.04 -6.564,3.908c-2.505,0.869 -5.561,1.303 -9.169,1.303c-2.872,-0 -5.628,-0.367 -8.267,-1.102c-2.639,-0.735 -4.96,-1.854 -6.964,-3.357c-2.005,-1.503 -3.608,-3.357 -4.81,-5.562c-1.203,-2.204 -1.804,-4.81 -1.804,-7.816c-0,-2.94 0.434,-5.445 1.302,-7.516c0.869,-2.071 1.971,-3.824 3.307,-5.261c1.337,-1.436 2.856,-2.589 4.56,-3.457c1.703,-0.868 3.39,-1.537 5.06,-2.004c1.671,-0.468 3.241,-0.802 4.71,-1.002c1.47,-0.201 2.639,-0.334 3.508,-0.401c1.402,-0.134 3.19,-0.284 5.361,-0.451c2.171,-0.167 4.158,-0.317 5.962,-0.451l0,-0.802c0,-2.471 -0.568,-4.259 -1.703,-5.361c-1.136,-1.102 -3.107,-1.653 -5.913,-1.653c-2.939,-0 -5.745,0.35 -8.417,1.052c-2.672,0.701 -5.612,1.987 -8.819,3.858l-5.912,-12.526c4.075,-2.272 8.067,-3.908 11.975,-4.91c3.908,-1.002 7.967,-1.504 12.175,-1.504c7.282,0 12.827,1.804 16.635,5.412c3.808,3.607 5.712,9.019 5.712,16.234l-0,18.739c-0,2.538 0.434,4.459 1.303,5.762c0.868,1.302 2.371,2.254 4.509,2.856Zm-21.645,-7.516l-0,-7.115c-1.203,0.067 -2.472,0.134 -3.808,0.201c-1.336,0.066 -2.472,0.167 -3.407,0.3c-1.136,0.134 -2.322,0.267 -3.557,0.401c-1.236,0.134 -2.355,0.418 -3.357,0.852c-1.003,0.434 -1.838,1.052 -2.506,1.854c-0.668,0.801 -1.002,1.937 -1.002,3.407c0,1.937 0.835,3.407 2.505,4.409c1.671,1.002 3.575,1.503 5.712,1.503c3.407,0 5.829,-0.568 7.265,-1.703c1.437,-1.136 2.155,-2.506 2.155,-4.109Z" style="fill-rule:nonzero;"/><rect id="path16984" serif:id="path1698" x="367.826" y="47.244" width="72.384" height="121.654" style="fill:#fff;"/><path d="M430.763,96.809c0,-11.922 -7.626,-21.052 -22.234,-21.052c-4.833,-0 -10.633,2.148 -14.285,5.585l-0,-3.867l-17.078,0l-0,61.009l17.078,0l-0,-37.271c-0,-7.411 5.37,-9.989 10.741,-9.989c5.585,-0 8.7,2.792 8.7,9.13l0,38.13l17.078,0l0,-41.675Z" style="fill-rule:nonzero;"/><rect id="path16985" serif:id="path1698" x="233.399" y="47.244" width="66.909" height="121.654" style="fill:#fff;"/><path d="M294.74,110.605l-0.203,2.535l-39.233,-0c0.067,1.622 0.473,3.126 1.216,4.511c0.744,1.386 1.724,2.602 2.94,3.65c1.217,1.047 2.619,1.858 4.207,2.433c1.589,0.574 3.261,0.861 5.018,0.861c5.069,0 9.429,-1.689 13.078,-5.068l8.516,10.442c-2.906,2.771 -6.1,4.883 -9.58,6.336c-3.481,1.453 -7.452,2.179 -11.912,2.179c-4.799,0 -9.057,-0.794 -12.774,-2.382c-3.717,-1.588 -6.843,-3.785 -9.377,-6.59c-2.535,-2.804 -4.461,-6.065 -5.779,-9.783c-1.318,-3.717 -1.977,-7.704 -1.977,-11.962c0,-4.123 0.626,-8.026 1.876,-11.709c1.25,-3.684 3.058,-6.877 5.424,-9.581c2.365,-2.703 5.305,-4.849 8.819,-6.437c3.515,-1.588 7.502,-2.383 11.963,-2.383c4.934,0 9.225,0.879 12.875,2.636c3.65,1.758 6.623,4.123 8.921,7.097c2.298,2.974 3.937,6.471 4.917,10.492c0.98,4.022 1.335,8.263 1.065,12.723Zm-15.917,-8.82c0,-3.108 -1.132,-5.66 -3.396,-7.654c-2.264,-1.993 -5.052,-2.99 -8.364,-2.99c-3.176,-0 -5.812,1.064 -7.907,3.193c-2.095,2.129 -3.312,4.613 -3.65,7.451l23.317,0Z" style="fill-rule:nonzero;"/><rect id="path16986" serif:id="path1698" x="195.078" y="47.244" width="38.321" height="121.654" style="fill:#fff;"/><path d="M230.169,122.03c-2.351,0.855 -4.274,1.175 -6.411,1.175c-3.526,0 -5.235,-1.923 -5.235,-5.556l-0,-64.322l-16.776,-0l0,67.1c0,10.898 5.236,18.057 18.165,18.057c3.953,0 8.334,-0.641 11.966,-1.816l-1.709,-14.638Z" style="fill-rule:nonzero;"/><rect x="108.704" y="47.244" width="86.374" height="121.654" style="fill:#fff;"/><path d="M189.587,79.158c-5.145,-16.696 -18.69,-25.831 -36.226,-25.831c-26.145,-0 -39.166,20.16 -39.166,42.946c0,22.051 13.126,42.211 39.166,42.211c18.061,0 29.611,-8.295 36.121,-25.41l-16.905,-5.461c-3.36,10.081 -9.975,14.806 -19.006,14.806c-15.54,-0 -20.79,-11.761 -20.79,-26.356c-0,-15.015 5.985,-26.776 21.735,-26.776c9.346,0 15.541,6.405 18.481,15.541l16.59,-5.67Z" style="fill-rule:nonzero;"/><rect x="141.635" y="688.583" width="93.467" height="157.087" style="fill:#fff;"/><path d="M177.022,784.687l49.865,-66.399l0,-21.851l-77.183,0l0,21.851l48.276,0l-50.01,66.258l0,21.852l80.652,-0l0.144,-21.711l-51.744,0Z" style="fill-rule:nonzero;"/><rect x="491.153" y="688.583" width="106.819" height="157.087" style="fill:#fff;"/><path d="M582.625,784.687l-53.57,0l-0,-24.106l44.689,-0l-0,-20.301l-44.689,0l-0,-22.133l49.341,0l0,-21.71l-71.897,0l-0,109.961l76.126,-0l0,-21.711Z" style="fill-rule:nonzero;"/><rect x="235.101" y="688.583" width="124.098" height="157.087" style="fill:#fff;"/><path d="M325.162,751.756c-0,19.796 -6.951,34.032 -27.942,34.032c-20.852,0 -28.08,-14.236 -28.08,-34.032c-0,-18.846 7.784,-34.574 28.08,-34.574c20.435,-0 27.942,15.592 27.942,34.574Zm24.188,0c-0,-31.591 -17.377,-55.319 -52.269,-55.319c-35.17,0 -52.129,23.456 -52.129,55.184c-0,31.185 17.793,54.777 52.129,54.777c34.475,-0 52.269,-23.457 52.269,-54.642Z" style="fill-rule:nonzero;"/><rect x="359.2" y="688.583" width="131.953" height="157.087" style="fill:#fff;"/><path d="M474.897,696.437l-23.271,0l0,72.179l-51.888,-72.179l-24.138,0l-0,109.961l23.126,-0l-0,-72.039l52.033,72.039l24.138,-0l-0,-109.961Z" style="fill-rule:nonzero;"/><rect x="552.756" y="1235.46" width="51.969" height="94.488" style="fill:#fff;"/><path d="M600.399,1284.67l-0.157,1.968l-30.473,0c0.053,1.26 0.368,2.428 0.945,3.504c0.577,1.076 1.339,2.021 2.283,2.835c0.945,0.813 2.035,1.443 3.268,1.889c1.234,0.447 2.533,0.67 3.898,0.67c3.937,-0 7.323,-1.313 10.157,-3.937l6.614,8.11c-2.257,2.152 -4.737,3.793 -7.44,4.921c-2.704,1.129 -5.788,1.693 -9.252,1.693c-3.727,0 -7.035,-0.617 -9.922,-1.85c-2.887,-1.234 -5.315,-2.94 -7.283,-5.118c-1.969,-2.179 -3.465,-4.712 -4.488,-7.599c-1.024,-2.887 -1.536,-5.984 -1.536,-9.291c0,-3.202 0.486,-6.234 1.457,-9.095c0.971,-2.861 2.375,-5.341 4.212,-7.441c1.838,-2.099 4.121,-3.766 6.851,-5c2.73,-1.233 5.827,-1.85 9.291,-1.85c3.832,-0 7.166,0.682 10,2.047c2.835,1.365 5.145,3.202 6.929,5.512c1.785,2.31 3.058,5.026 3.819,8.15c0.761,3.123 1.037,6.417 0.827,9.882Zm-12.362,-6.851c-0,-2.415 -0.879,-4.396 -2.638,-5.945c-1.759,-1.548 -3.924,-2.323 -6.496,-2.323c-2.467,0 -4.514,0.827 -6.142,2.481c-1.627,1.653 -2.572,3.582 -2.834,5.787l18.11,0Z"/><rect x="134.882" y="1235.46" width="63.307" height="94.488" style="fill:#fff;"/><path d="M180.96,1261.89c0,5.512 -3.477,8.65 -9.042,8.65l-11.997,-0l-0,-17.469l11.91,0c5.565,0 9.129,3.392 9.129,8.819Zm14.867,0c-0,-11.956 -7.042,-21.708 -22.431,-21.708l-27.559,0l-0,66.142l14.084,0l-0,-22.895l13.475,-0c15.649,-0 22.431,-10.006 22.431,-21.539Z" style="fill:none;"/><rect x="170.551" y="1140.97" width="52.441" height="94.488" style="fill:#fff;"/><path d="M218.253,1202.66l-5.214,9.184c-1.817,-0.104 -3.464,-0.558 -4.943,-1.362c-1.479,-0.804 -2.685,-1.855 -3.619,-3.152c-1.453,1.349 -3.152,2.361 -5.098,3.035c-1.946,0.675 -4.32,1.012 -7.122,1.012c-2.231,-0 -4.371,-0.286 -6.421,-0.856c-2.049,-0.571 -3.852,-1.44 -5.409,-2.608c-1.557,-1.167 -2.802,-2.607 -3.736,-4.319c-0.934,-1.713 -1.401,-3.736 -1.401,-6.071c-0,-2.283 0.337,-4.229 1.012,-5.838c0.674,-1.608 1.531,-2.97 2.568,-4.086c1.038,-1.115 2.218,-2.011 3.542,-2.685c1.323,-0.675 2.633,-1.193 3.93,-1.557c1.297,-0.363 2.517,-0.622 3.658,-0.778c1.142,-0.156 2.05,-0.259 2.724,-0.311c1.09,-0.104 2.478,-0.221 4.164,-0.351c1.687,-0.129 3.23,-0.246 4.631,-0.35l0,-0.622c0,-1.92 -0.441,-3.308 -1.323,-4.165c-0.882,-0.856 -2.413,-1.284 -4.592,-1.284c-2.283,0 -4.462,0.273 -6.538,0.818c-2.075,0.544 -4.358,1.543 -6.849,2.996l-4.592,-9.729c3.165,-1.764 6.265,-3.035 9.301,-3.814c3.035,-0.778 6.188,-1.167 9.456,-1.167c5.656,-0 9.963,1.401 12.921,4.203c2.957,2.802 4.436,7.005 4.436,12.609l0,14.554c0,1.972 0.337,3.464 1.012,4.475c0.674,1.012 1.842,1.752 3.502,2.219Zm-16.811,-5.838l-0,-5.526c-0.934,0.052 -1.92,0.104 -2.958,0.156c-1.038,0.052 -1.92,0.13 -2.646,0.233c-0.882,0.104 -1.803,0.208 -2.763,0.312c-0.96,0.103 -1.829,0.324 -2.608,0.661c-0.778,0.338 -1.427,0.817 -1.946,1.44c-0.518,0.623 -0.778,1.505 -0.778,2.646c0,1.505 0.649,2.647 1.946,3.425c1.297,0.778 2.776,1.168 4.436,1.168c2.647,-0 4.528,-0.442 5.643,-1.324c1.116,-0.882 1.674,-1.945 1.674,-3.191Z"/><rect x="370.394" y="1140.97" width="47.244" height="94.488" style="fill:#fff;"/><path d="M413.518,1197.54c-0,-8.711 -6.593,-11.929 -13.028,-13.498l-8.162,-1.962c-3.767,-0.942 -4.002,-2.355 -4.002,-3.061c0,-1.883 2.04,-3.845 6.435,-3.845c4.081,-0 7.456,1.255 10.83,3.845l7.063,-8.162c-4.473,-3.845 -10.359,-6.199 -18.521,-6.199c-10.987,-0 -18.756,6.278 -18.756,14.832c0,7.769 6.278,11.615 12.086,12.949l7.769,1.883c3.767,0.864 5.258,2.355 5.258,3.454c0,1.962 -1.569,3.531 -6.2,3.531c-3.374,0 -8.318,-0.863 -12.713,-4.552l-7.063,8.162c5.493,4.552 11.929,6.985 19.855,6.985c12.556,-0 19.149,-6.043 19.149,-14.362Z" style="fill:none;"/><rect x="318.425" y="1140.97" width="51.969" height="94.488" style="fill:#fff;"/><path d="M366.068,1190.19l-0.157,1.969l-30.473,-0c0.053,1.26 0.368,2.428 0.945,3.504c0.578,1.076 1.339,2.021 2.284,2.834c0.945,0.814 2.034,1.444 3.267,1.89c1.234,0.446 2.533,0.669 3.898,0.669c3.937,0 7.323,-1.312 10.158,-3.937l6.614,8.111c-2.257,2.152 -4.738,3.792 -7.441,4.921c-2.704,1.129 -5.788,1.693 -9.252,1.693c-3.727,-0 -7.034,-0.617 -9.921,-1.851c-2.888,-1.233 -5.315,-2.939 -7.284,-5.118c-1.968,-2.178 -3.464,-4.711 -4.488,-7.598c-1.024,-2.887 -1.536,-5.984 -1.536,-9.291c0,-3.203 0.486,-6.234 1.457,-9.095c0.971,-2.861 2.376,-5.341 4.213,-7.441c1.837,-2.1 4.121,-3.766 6.85,-5c2.73,-1.233 5.827,-1.85 9.292,-1.85c3.832,-0 7.165,0.682 10,2.047c2.834,1.365 5.144,3.202 6.929,5.512c1.784,2.31 3.057,5.026 3.819,8.149c0.761,3.124 1.036,6.418 0.826,9.882Zm-12.362,-6.85c0,-2.415 -0.879,-4.396 -2.638,-5.945c-1.758,-1.549 -3.924,-2.323 -6.496,-2.323c-2.467,0 -4.514,0.827 -6.141,2.481c-1.628,1.653 -2.573,3.582 -2.835,5.787l18.11,-0Z"/><rect x="447.165" y="1140.97" width="52.441" height="94.488" style="fill:#fff;"/><path d="M494.867,1202.66l-5.214,9.184c-1.816,-0.104 -3.464,-0.558 -4.943,-1.362c-1.478,-0.804 -2.685,-1.855 -3.619,-3.152c-1.453,1.349 -3.152,2.361 -5.098,3.035c-1.946,0.675 -4.319,1.012 -7.121,1.012c-2.232,-0 -4.372,-0.286 -6.422,-0.856c-2.049,-0.571 -3.852,-1.44 -5.409,-2.608c-1.557,-1.167 -2.802,-2.607 -3.736,-4.319c-0.934,-1.713 -1.401,-3.736 -1.401,-6.071c0,-2.283 0.337,-4.229 1.012,-5.838c0.675,-1.608 1.531,-2.97 2.568,-4.086c1.038,-1.115 2.219,-2.011 3.542,-2.685c1.323,-0.675 2.633,-1.193 3.93,-1.557c1.298,-0.363 2.517,-0.622 3.658,-0.778c1.142,-0.156 2.05,-0.259 2.725,-0.311c1.089,-0.104 2.477,-0.221 4.164,-0.351c1.686,-0.129 3.23,-0.246 4.631,-0.35l-0,-0.622c-0,-1.92 -0.441,-3.308 -1.324,-4.165c-0.882,-0.856 -2.412,-1.284 -4.592,-1.284c-2.283,0 -4.462,0.273 -6.538,0.818c-2.075,0.544 -4.358,1.543 -6.849,2.996l-4.592,-9.729c3.165,-1.764 6.266,-3.035 9.301,-3.814c3.036,-0.778 6.188,-1.167 9.457,-1.167c5.655,-0 9.962,1.401 12.92,4.203c2.957,2.802 4.436,7.005 4.436,12.609l0,14.554c0,1.972 0.338,3.464 1.012,4.475c0.675,1.012 1.842,1.752 3.502,2.219Zm-16.811,-5.838l-0,-5.526c-0.934,0.052 -1.92,0.104 -2.958,0.156c-1.038,0.052 -1.92,0.13 -2.646,0.233c-0.882,0.104 -1.803,0.208 -2.763,0.312c-0.96,0.103 -1.829,0.324 -2.608,0.661c-0.778,0.338 -1.426,0.817 -1.945,1.44c-0.519,0.623 -0.779,1.505 -0.779,2.646c0,1.505 0.649,2.647 1.946,3.425c1.297,0.778 2.776,1.168 4.437,1.168c2.646,-0 4.527,-0.442 5.642,-1.324c1.116,-0.882 1.674,-1.945 1.674,-3.191Z"/><path d="M176.948,1022.82l-47.991,0l0,12.381l32.255,-0l-23.648,53.761l15.65,-0l23.734,-54.016l0,-12.126Z" style="fill-rule:nonzero;"/><rect x="248.386" y="1016.96" width="81.732" height="94.488" style="fill:#fff;"/><path d="M322.58,1056.62c0,-11.096 -6.34,-17.519 -17.102,-17.519c-6.34,-0 -10.845,2.085 -13.932,6.257c-2.586,-4.088 -7.258,-6.174 -12.347,-6.174c-3.504,0 -7.341,1.502 -10.094,4.171l-0,-2.92l-13.182,0l0,47.386l13.182,0l-0,-28.031c-0,-6.173 3.837,-8.676 8.009,-8.676c3.253,-0 5.506,2.169 5.506,6.924l0.083,29.783l13.181,0l0,-28.114c0,-5.673 4.172,-8.51 7.592,-8.51c3.504,0 5.923,2.253 5.923,6.925l0,29.699l13.181,0l0,-31.201Z" style="fill:none;"/><rect x="259.252" y="910.659" width="54.331" height="94.488" style="fill:#fff;"/><path d="M296.541,958.452c0,7.22 -4.002,12.164 -10.045,12.164c-6.122,0 -10.124,-5.022 -10.124,-12.164c0,-7.298 4.002,-13.263 10.124,-13.263c5.964,0 10.045,5.965 10.045,13.263Zm12.321,0c0,-13.498 -7.848,-24.171 -22.366,-24.171c-14.597,-0 -22.524,10.516 -22.524,24.171c0,13.263 8.869,23.073 22.524,23.073c13.655,-0 22.366,-9.888 22.366,-23.073Z" style="fill:none;"/><rect id="path16987" serif:id="path1698" x="470.551" y="1235.46" width="25.984" height="94.488" style="fill:#fff;"/><path d="M489.336,1259.07l-13.145,0l-0,47.256l13.145,0l-0,-47.256Zm0.832,-11.481c-0,-4.077 -3.328,-7.405 -7.405,-7.405c-4.16,0 -7.487,3.328 -7.487,7.405c-0,4.16 3.327,7.488 7.487,7.488c4.077,-0 7.405,-3.328 7.405,-7.488Z" style="fill-rule:nonzero;"/><rect id="path16988" serif:id="path1698" x="330.236" y="1235.46" width="54.331" height="94.488" style="fill:#fff;"/><path d="M367.525,1283.26c0,7.22 -4.002,12.165 -10.045,12.165c-6.121,-0 -10.124,-5.023 -10.124,-12.165c0,-7.298 4.003,-13.263 10.124,-13.263c5.964,0 10.045,5.965 10.045,13.263Zm12.321,0c0,-13.498 -7.847,-24.171 -22.366,-24.171c-14.597,-0 -22.523,10.516 -22.523,24.171c-0,13.263 8.868,23.073 22.523,23.073c13.655,0 22.366,-9.888 22.366,-23.073Z" style="fill-rule:nonzero;"/><rect id="path16989" serif:id="path1698" x="384.567" y="1235.46" width="56.22" height="94.488" style="fill:#fff;"/><path d="M433.45,1273.96c0,-9.26 -5.923,-16.351 -17.269,-16.351c-3.754,-0 -8.259,1.668 -11.096,4.338l0,-3.004l-13.264,0l-0,47.386l13.264,0l0,-28.949c0,-5.756 4.172,-7.758 8.343,-7.758c4.338,-0 6.757,2.169 6.757,7.091l0,29.616l13.265,0l0,-32.369Z" style="fill-rule:nonzero;"/><rect id="path169810" serif:id="path1698" x="496.535" y="1235.46" width="56.22" height="94.488" style="fill:#fff;"/><path d="M545.419,1273.96c-0,-9.26 -5.924,-16.351 -17.269,-16.351c-3.755,-0 -8.26,1.668 -11.096,4.338l-0,-3.004l-13.265,0l0,47.386l13.265,0l-0,-28.949c-0,-5.756 4.171,-7.758 8.342,-7.758c4.339,-0 6.758,2.169 6.758,7.091l-0,29.616l13.265,0l-0,-32.369Z" style="fill-rule:nonzero;"/><rect id="path169811" serif:id="path1698" x="552.756" y="1235.46" width="51.969" height="94.488" style="fill:#fff;"/><path d="M600.399,1284.67l-0.157,1.968l-30.473,0c0.053,1.26 0.368,2.428 0.945,3.504c0.577,1.076 1.339,2.021 2.283,2.835c0.945,0.813 2.035,1.443 3.268,1.889c1.234,0.447 2.533,0.67 3.898,0.67c3.937,-0 7.323,-1.313 10.157,-3.937l6.614,8.11c-2.257,2.152 -4.737,3.793 -7.44,4.921c-2.704,1.129 -5.788,1.693 -9.252,1.693c-3.727,0 -7.035,-0.617 -9.922,-1.85c-2.887,-1.234 -5.315,-2.94 -7.283,-5.118c-1.969,-2.179 -3.465,-4.712 -4.488,-7.599c-1.024,-2.887 -1.536,-5.984 -1.536,-9.291c0,-3.202 0.486,-6.234 1.457,-9.095c0.971,-2.861 2.375,-5.341 4.212,-7.441c1.838,-2.099 4.121,-3.766 6.851,-5c2.73,-1.233 5.827,-1.85 9.291,-1.85c3.832,-0 7.166,0.682 10,2.047c2.835,1.365 5.145,3.202 6.929,5.512c1.785,2.31 3.058,5.026 3.819,8.15c0.761,3.123 1.037,6.417 0.827,9.882Zm-12.362,-6.851c-0,-2.415 -0.879,-4.396 -2.638,-5.945c-1.759,-1.548 -3.924,-2.323 -6.496,-2.323c-2.467,0 -4.514,0.827 -6.142,2.481c-1.627,1.653 -2.572,3.582 -2.834,5.787l18.11,0Z" style="fill-rule:nonzero;"/><rect id="path169812" serif:id="path1698" x="440.787" y="1235.46" width="29.764" height="94.488" style="fill:#fff;"/><path d="M468.042,1293.55c-1.825,0.664 -3.319,0.913 -4.979,0.913c-2.739,-0 -4.066,-1.494 -4.066,-4.316l-0,-49.959l-13.03,0l0,52.117c0,8.465 4.067,14.025 14.108,14.025c3.071,0 6.473,-0.498 9.295,-1.411l-1.328,-11.369Z" style="fill-rule:nonzero;"/><rect id="path169813" serif:id="path1698" x="250.63" y="1235.46" width="50.079" height="94.488" style="fill:#fff;"/><path d="M284.397,1259.05l-9.429,28.363l-9.428,-28.363l-13.729,-0l16.127,46.721c0.083,0.496 0.331,0.992 0.414,1.406c0.165,0.496 0.165,0.827 0.165,1.075c0,1.571 -1.323,2.646 -4.383,2.646c-1.902,-0 -4.383,-0.414 -6.864,-1.323l-2.151,10.502c2.895,0.909 6.617,1.571 9.594,1.571c2.812,0 6.203,-0.496 8.353,-1.488c2.895,-1.324 5.376,-3.887 7.03,-8.683l17.947,-52.427l-13.646,-0Z" style="fill-rule:nonzero;"/><rect id="path169814" serif:id="path1698" x="198.189" y="1235.46" width="52.441" height="94.488" style="fill:#fff;"/><path d="M245.891,1297.14l-5.215,9.184c-1.816,-0.104 -3.463,-0.558 -4.942,-1.362c-1.479,-0.804 -2.685,-1.855 -3.619,-3.152c-1.453,1.349 -3.152,2.361 -5.098,3.035c-1.946,0.675 -4.32,1.012 -7.122,1.012c-2.231,0 -4.371,-0.285 -6.421,-0.856c-2.05,-0.571 -3.853,-1.44 -5.409,-2.607c-1.557,-1.168 -2.802,-2.608 -3.736,-4.32c-0.934,-1.712 -1.401,-3.736 -1.401,-6.071c-0,-2.283 0.337,-4.229 1.012,-5.837c0.674,-1.609 1.53,-2.971 2.568,-4.087c1.038,-1.115 2.218,-2.01 3.541,-2.685c1.324,-0.674 2.634,-1.193 3.931,-1.556c1.297,-0.364 2.517,-0.623 3.658,-0.779c1.142,-0.155 2.05,-0.259 2.724,-0.311c1.09,-0.104 2.478,-0.221 4.164,-0.35c1.687,-0.13 3.23,-0.247 4.631,-0.351l0,-0.622c0,-1.92 -0.441,-3.308 -1.323,-4.164c-0.882,-0.856 -2.413,-1.285 -4.592,-1.285c-2.283,0 -4.462,0.273 -6.538,0.818c-2.075,0.545 -4.359,1.543 -6.849,2.996l-4.592,-9.729c3.165,-1.764 6.265,-3.035 9.301,-3.814c3.035,-0.778 6.187,-1.167 9.456,-1.167c5.656,-0 9.963,1.401 12.92,4.203c2.958,2.802 4.437,7.005 4.437,12.609l-0,14.554c-0,1.972 0.337,3.464 1.012,4.476c0.674,1.011 1.842,1.751 3.502,2.218Zm-16.812,-5.838l0,-5.526c-0.934,0.052 -1.919,0.104 -2.957,0.156c-1.038,0.052 -1.92,0.13 -2.647,0.234c-0.882,0.103 -1.803,0.207 -2.763,0.311c-0.96,0.104 -1.829,0.324 -2.607,0.661c-0.778,0.338 -1.427,0.818 -1.946,1.44c-0.519,0.623 -0.778,1.505 -0.778,2.647c-0,1.504 0.649,2.646 1.946,3.424c1.297,0.779 2.776,1.168 4.436,1.168c2.646,-0 4.527,-0.441 5.643,-1.323c1.116,-0.883 1.673,-1.946 1.673,-3.192Z" style="fill-rule:nonzero;"/><rect x="134.882" y="1235.46" width="63.307" height="94.488" style="fill:#fff;"/><path d="M180.96,1261.89c0,5.512 -3.477,8.65 -9.042,8.65l-11.997,-0l-0,-17.469l11.91,0c5.565,0 9.129,3.392 9.129,8.819Zm14.867,0c-0,-11.956 -7.042,-21.708 -22.431,-21.708l-27.559,0l-0,66.142l14.084,0l-0,-22.895l13.475,-0c15.649,-0 22.431,-10.006 22.431,-21.539Z" style="fill-rule:nonzero;"/><rect id="path169815" serif:id="path1698" x="114.331" y="1140.97" width="56.22" height="94.488" style="fill:#fff;"/><path d="M163.343,1179.36c0,-9.922 -6.19,-16.96 -17.383,-16.96c-3.816,0 -8.14,1.442 -11.108,3.901l-0,-20.606l-13.398,0l-0,66.142l13.398,-0l-0,-29.594c-0,-5.258 3.476,-8.226 8.31,-8.226c4.324,0 6.699,2.459 6.699,6.869l-0,30.951l13.482,-0l0,-32.477Z" style="fill-rule:nonzero;"/><rect id="path169816" serif:id="path1698" x="263.15" y="1140.97" width="55.276" height="94.488" style="fill:#fff;"/><path d="M297.798,1186.76c0,5.742 -2.507,10.514 -8.573,10.514c-6.146,-0 -8.653,-4.772 -8.653,-10.514c-0,-5.661 2.83,-10.433 8.653,-10.433c5.985,-0 8.573,4.772 8.573,10.433Zm12.213,-20.866l-12.455,-0l-0,2.75c-2.022,-2.427 -5.904,-4.044 -10.191,-4.044c-11.242,-0 -19.491,10.028 -19.491,21.917c0,12.941 6.875,22.484 19.896,22.484c3.477,-0 7.359,-1.375 9.786,-3.478l-0,3.963c-0,5.015 -4.449,6.309 -8.735,6.309c-4.61,-0 -8.735,-1.052 -14.072,-3.64l-4.368,10.029c5.015,2.992 12.132,5.014 18.359,5.014c11.161,0 21.271,-3.801 21.271,-16.984l-0,-44.32Z" style="fill-rule:nonzero;"/><rect id="path169817" serif:id="path1698" x="170.551" y="1140.97" width="52.441" height="94.488" style="fill:#fff;"/><path d="M218.253,1202.66l-5.214,9.184c-1.817,-0.104 -3.464,-0.558 -4.943,-1.362c-1.479,-0.804 -2.685,-1.855 -3.619,-3.152c-1.453,1.349 -3.152,2.361 -5.098,3.035c-1.946,0.675 -4.32,1.012 -7.122,1.012c-2.231,-0 -4.371,-0.286 -6.421,-0.856c-2.049,-0.571 -3.852,-1.44 -5.409,-2.608c-1.557,-1.167 -2.802,-2.607 -3.736,-4.319c-0.934,-1.713 -1.401,-3.736 -1.401,-6.071c-0,-2.283 0.337,-4.229 1.012,-5.838c0.674,-1.608 1.531,-2.97 2.568,-4.086c1.038,-1.115 2.218,-2.011 3.542,-2.685c1.323,-0.675 2.633,-1.193 3.93,-1.557c1.297,-0.363 2.517,-0.622 3.658,-0.778c1.142,-0.156 2.05,-0.259 2.724,-0.311c1.09,-0.104 2.478,-0.221 4.164,-0.351c1.687,-0.129 3.23,-0.246 4.631,-0.35l0,-0.622c0,-1.92 -0.441,-3.308 -1.323,-4.165c-0.882,-0.856 -2.413,-1.284 -4.592,-1.284c-2.283,0 -4.462,0.273 -6.538,0.818c-2.075,0.544 -4.358,1.543 -6.849,2.996l-4.592,-9.729c3.165,-1.764 6.265,-3.035 9.301,-3.814c3.035,-0.778 6.188,-1.167 9.456,-1.167c5.656,-0 9.963,1.401 12.921,4.203c2.957,2.802 4.436,7.005 4.436,12.609l0,14.554c0,1.972 0.337,3.464 1.012,4.475c0.674,1.012 1.842,1.752 3.502,2.219Zm-16.811,-5.838l-0,-5.526c-0.934,0.052 -1.92,0.104 -2.958,0.156c-1.038,0.052 -1.92,0.13 -2.646,0.233c-0.882,0.104 -1.803,0.208 -2.763,0.312c-0.96,0.103 -1.829,0.324 -2.608,0.661c-0.778,0.338 -1.427,0.817 -1.946,1.44c-0.518,0.623 -0.778,1.505 -0.778,2.646c0,1.505 0.649,2.647 1.946,3.425c1.297,0.778 2.776,1.168 4.436,1.168c2.647,-0 4.528,-0.442 5.643,-1.324c1.116,-0.882 1.674,-1.945 1.674,-3.191Z" style="fill-rule:nonzero;"/><rect id="path169818" serif:id="path1698" x="370.394" y="1140.97" width="47.244" height="94.488" style="fill:#fff;"/><path d="M413.518,1197.54c-0,-8.711 -6.593,-11.929 -13.028,-13.498l-8.162,-1.962c-3.767,-0.942 -4.002,-2.355 -4.002,-3.061c0,-1.883 2.04,-3.845 6.435,-3.845c4.081,-0 7.456,1.255 10.83,3.845l7.063,-8.162c-4.473,-3.845 -10.359,-6.199 -18.521,-6.199c-10.987,-0 -18.756,6.278 -18.756,14.832c0,7.769 6.278,11.615 12.086,12.949l7.769,1.883c3.767,0.864 5.258,2.355 5.258,3.454c0,1.962 -1.569,3.531 -6.2,3.531c-3.374,0 -8.318,-0.863 -12.713,-4.552l-7.063,8.162c5.493,4.552 11.929,6.985 19.855,6.985c12.556,-0 19.149,-6.043 19.149,-14.362Z" style="fill-rule:nonzero;"/><rect id="path169819" serif:id="path1698" x="222.992" y="1140.97" width="40.157" height="94.488" style="fill:#fff;"/><path d="M256.987,1163.52c-6.813,-0.747 -11.548,1.496 -14.705,5.982l-0,-4.902l-13.21,0l0,47.189l13.21,-0l-0,-24.924c-0,-7.809 5.815,-11.215 12.794,-10.634l1.911,0.166l-0,-12.877Z" style="fill-rule:nonzero;"/><rect id="path169820" serif:id="path1698" x="318.425" y="1140.97" width="51.969" height="94.488" style="fill:#fff;"/><path d="M366.068,1190.19l-0.157,1.969l-30.473,-0c0.053,1.26 0.368,2.428 0.945,3.504c0.578,1.076 1.339,2.021 2.284,2.834c0.945,0.814 2.034,1.444 3.267,1.89c1.234,0.446 2.533,0.669 3.898,0.669c3.937,0 7.323,-1.312 10.158,-3.937l6.614,8.111c-2.257,2.152 -4.738,3.792 -7.441,4.921c-2.704,1.129 -5.788,1.693 -9.252,1.693c-3.727,-0 -7.034,-0.617 -9.921,-1.851c-2.888,-1.233 -5.315,-2.939 -7.284,-5.118c-1.968,-2.178 -3.464,-4.711 -4.488,-7.598c-1.024,-2.887 -1.536,-5.984 -1.536,-9.291c0,-3.203 0.486,-6.234 1.457,-9.095c0.971,-2.861 2.376,-5.341 4.213,-7.441c1.837,-2.1 4.121,-3.766 6.85,-5c2.73,-1.233 5.827,-1.85 9.292,-1.85c3.832,-0 7.165,0.682 10,2.047c2.834,1.365 5.144,3.202 6.929,5.512c1.784,2.31 3.057,5.026 3.819,8.149c0.761,3.124 1.036,6.418 0.826,9.882Zm-12.362,-6.85c0,-2.415 -0.879,-4.396 -2.638,-5.945c-1.758,-1.549 -3.924,-2.323 -6.496,-2.323c-2.467,0 -4.514,0.827 -6.141,2.481c-1.628,1.653 -2.573,3.582 -2.835,5.787l18.11,-0Z" style="fill-rule:nonzero;"/><rect x="47.244" y="1140.97" width="67.087" height="94.488" style="fill:#fff;"/><path d="M110.066,1165.76c-3.996,-12.968 -14.517,-20.063 -28.137,-20.063c-20.307,0 -30.42,15.659 -30.42,33.356c-0,17.127 10.194,32.786 30.42,32.786c14.028,-0 22.999,-6.443 28.055,-19.737l-13.13,-4.241c-2.61,7.83 -7.748,11.5 -14.762,11.5c-12.07,-0 -16.148,-9.134 -16.148,-20.471c0,-11.662 4.649,-20.796 16.882,-20.796c7.259,-0 12.071,4.975 14.354,12.07l12.886,-4.404Z" style="fill-rule:nonzero;"/><rect x="499.134" y="1140.97" width="56.693" height="94.488" style="fill:#fff;"/><path d="M536.885,1188.25c-0,6.959 -3.978,12.841 -10.938,12.841c-3.811,0 -8.12,-2.651 -8.12,-6.876l0,-12.178c0,-4.391 4.972,-6.628 8.369,-6.628c6.711,0 10.689,6.462 10.689,12.841Zm13.34,0c-0,-12.924 -8.037,-25.019 -21.792,-25.019c-4.143,-0 -7.954,1.491 -10.523,3.811l0,-2.486l-13.091,0l-0,62.632l13.091,-0l0,-17.647c2.817,2.237 6.629,3.48 10.44,3.48c14.003,-0 21.875,-11.764 21.875,-24.771Z"/><rect x="555.827" y="1140.97" width="56.693" height="94.488" style="fill:#fff;"/><path d="M593.578,1188.25c-0,6.959 -3.978,12.841 -10.938,12.841c-3.811,0 -8.12,-2.651 -8.12,-6.876l0,-12.178c0,-4.391 4.972,-6.628 8.369,-6.628c6.711,0 10.689,6.462 10.689,12.841Zm13.34,0c-0,-12.924 -8.038,-25.019 -21.792,-25.019c-4.143,-0 -7.954,1.491 -10.523,3.811l0,-2.486l-13.091,0l-0,62.632l13.091,-0l0,-17.647c2.817,2.237 6.629,3.48 10.44,3.48c14.003,-0 21.875,-11.764 21.875,-24.771Z"/><rect id="path169821" serif:id="path1698" x="642.283" y="1140.97" width="50.079" height="94.488" style="fill:#fff;"/><path d="M676.05,1164.56l-9.428,28.364l-9.428,-28.364l-13.729,0l16.127,46.722c0.083,0.496 0.331,0.992 0.414,1.406c0.165,0.496 0.165,0.827 0.165,1.075c-0,1.571 -1.323,2.646 -4.383,2.646c-1.903,-0 -4.384,-0.414 -6.865,-1.323l-2.15,10.502c2.894,0.909 6.616,1.571 9.594,1.571c2.811,-0 6.202,-0.496 8.353,-1.489c2.894,-1.323 5.376,-3.886 7.03,-8.682l17.947,-52.428l-13.647,0Z" style="fill-rule:nonzero;"/><rect id="path169822" serif:id="path1698" x="447.165" y="1140.97" width="52.441" height="94.488" style="fill:#fff;"/><path d="M494.867,1202.66l-5.214,9.184c-1.816,-0.104 -3.464,-0.558 -4.943,-1.362c-1.478,-0.804 -2.685,-1.855 -3.619,-3.152c-1.453,1.349 -3.152,2.361 -5.098,3.035c-1.946,0.675 -4.319,1.012 -7.121,1.012c-2.232,-0 -4.372,-0.286 -6.422,-0.856c-2.049,-0.571 -3.852,-1.44 -5.409,-2.608c-1.557,-1.167 -2.802,-2.607 -3.736,-4.319c-0.934,-1.713 -1.401,-3.736 -1.401,-6.071c0,-2.283 0.337,-4.229 1.012,-5.838c0.675,-1.608 1.531,-2.97 2.568,-4.086c1.038,-1.115 2.219,-2.011 3.542,-2.685c1.323,-0.675 2.633,-1.193 3.93,-1.557c1.298,-0.363 2.517,-0.622 3.658,-0.778c1.142,-0.156 2.05,-0.259 2.725,-0.311c1.089,-0.104 2.477,-0.221 4.164,-0.351c1.686,-0.129 3.23,-0.246 4.631,-0.35l-0,-0.622c-0,-1.92 -0.441,-3.308 -1.324,-4.165c-0.882,-0.856 -2.412,-1.284 -4.592,-1.284c-2.283,0 -4.462,0.273 -6.538,0.818c-2.075,0.544 -4.358,1.543 -6.849,2.996l-4.592,-9.729c3.165,-1.764 6.266,-3.035 9.301,-3.814c3.036,-0.778 6.188,-1.167 9.457,-1.167c5.655,-0 9.962,1.401 12.92,4.203c2.957,2.802 4.436,7.005 4.436,12.609l0,14.554c0,1.972 0.338,3.464 1.012,4.475c0.675,1.012 1.842,1.752 3.502,2.219Zm-16.811,-5.838l-0,-5.526c-0.934,0.052 -1.92,0.104 -2.958,0.156c-1.038,0.052 -1.92,0.13 -2.646,0.233c-0.882,0.104 -1.803,0.208 -2.763,0.312c-0.96,0.103 -1.829,0.324 -2.608,0.661c-0.778,0.338 -1.426,0.817 -1.945,1.44c-0.519,0.623 -0.779,1.505 -0.779,2.646c0,1.505 0.649,2.647 1.946,3.425c1.297,0.778 2.776,1.168 4.437,1.168c2.646,-0 4.527,-0.442 5.642,-1.324c1.116,-0.882 1.674,-1.945 1.674,-3.191Z" style="fill-rule:nonzero;"/><rect id="path169823" serif:id="path1698" x="612.52" y="1140.97" width="29.764" height="94.488" style="fill:#fff;"/><path d="M639.775,1199.06c-1.826,0.664 -3.32,0.913 -4.98,0.913c-2.738,-0 -4.066,-1.494 -4.066,-4.316l-0,-49.959l-13.029,0l-0,52.117c-0,8.465 4.066,14.025 14.108,14.025c3.07,-0 6.473,-0.498 9.294,-1.411l-1.327,-11.369Z" style="fill-rule:nonzero;"/><rect x="127.677" y="1016.96" width="50.551" height="94.488" style="fill:#fff;"/><path d="M176.948,1022.82l-47.991,0l0,12.381l32.255,-0l-23.648,53.761l15.65,-0l23.734,-54.016l0,-12.126Z" style="fill-rule:nonzero;"/><rect x="399.094" y="1016.96" width="50.551" height="94.488" style="fill:#fff;"/><path d="M448.365,1022.82l-47.99,0l-0,12.381l32.254,-0l-23.647,53.761l15.649,-0l23.734,-54.016l0,-12.126Z" style="fill-rule:nonzero;"/><rect x="467.362" y="1016.96" width="56.693" height="94.488" style="fill:#fff;"/><path d="M505.113,1064.24c-0,6.959 -3.977,12.841 -10.937,12.841c-3.812,0 -8.12,-2.651 -8.12,-6.876l-0,-12.178c-0,-4.391 4.971,-6.628 8.368,-6.628c6.712,0 10.689,6.462 10.689,12.841Zm13.34,0c0,-12.923 -8.037,-25.019 -21.791,-25.019c-4.143,0 -7.955,1.491 -10.523,3.811l-0,-2.485l-13.092,-0l0,62.631l13.092,-0l-0,-17.646c2.817,2.237 6.628,3.479 10.44,3.479c14.003,0 21.874,-11.764 21.874,-24.771Z"/><rect id="path169824" serif:id="path1698" x="524.055" y="1016.96" width="81.732" height="94.488" style="fill:#fff;"/><path d="M598.25,1056.62c-0,-11.096 -6.341,-17.519 -17.102,-17.519c-6.341,-0 -10.846,2.085 -13.933,6.257c-2.586,-4.088 -7.258,-6.174 -12.347,-6.174c-3.503,0 -7.341,1.502 -10.094,4.171l0,-2.92l-13.181,0l-0,47.386l13.181,0l0,-28.031c0,-6.173 3.838,-8.676 8.009,-8.676c3.253,-0 5.506,2.169 5.506,6.924l0.083,29.783l13.182,0l-0,-28.114c-0,-5.673 4.171,-8.51 7.591,-8.51c3.504,0 5.924,2.253 5.924,6.925l-0,29.699l13.181,0l-0,-31.201Z" style="fill-rule:nonzero;"/><rect id="path169825" serif:id="path1698" x="195.945" y="1016.96" width="52.441" height="94.488" style="fill:#fff;"/><path d="M243.647,1078.64l-5.215,9.184c-1.816,-0.104 -3.463,-0.558 -4.942,-1.362c-1.479,-0.804 -2.685,-1.855 -3.619,-3.152c-1.453,1.349 -3.152,2.361 -5.098,3.035c-1.946,0.675 -4.32,1.012 -7.122,1.012c-2.231,0 -4.371,-0.285 -6.421,-0.856c-2.05,-0.571 -3.853,-1.44 -5.409,-2.607c-1.557,-1.168 -2.802,-2.608 -3.736,-4.32c-0.934,-1.712 -1.401,-3.736 -1.401,-6.071c-0,-2.283 0.337,-4.229 1.012,-5.837c0.674,-1.609 1.53,-2.971 2.568,-4.087c1.038,-1.115 2.218,-2.01 3.541,-2.685c1.323,-0.674 2.634,-1.193 3.931,-1.556c1.297,-0.364 2.516,-0.623 3.658,-0.779c1.141,-0.155 2.05,-0.259 2.724,-0.311c1.09,-0.104 2.478,-0.221 4.164,-0.35c1.686,-0.13 3.23,-0.247 4.631,-0.351l0,-0.622c0,-1.92 -0.441,-3.308 -1.323,-4.164c-0.882,-0.856 -2.413,-1.284 -4.592,-1.284c-2.283,-0 -4.463,0.272 -6.538,0.817c-2.076,0.545 -4.359,1.543 -6.849,2.996l-4.592,-9.729c3.165,-1.764 6.265,-3.035 9.301,-3.813c3.035,-0.779 6.187,-1.168 9.456,-1.168c5.656,0 9.963,1.401 12.92,4.203c2.958,2.802 4.437,7.005 4.437,12.609l-0,14.554c-0,1.972 0.337,3.464 1.012,4.476c0.674,1.012 1.842,1.751 3.502,2.218Zm-16.812,-5.837l0,-5.527c-0.934,0.052 -1.92,0.104 -2.957,0.156c-1.038,0.052 -1.92,0.13 -2.647,0.234c-0.882,0.103 -1.803,0.207 -2.763,0.311c-0.96,0.104 -1.829,0.324 -2.607,0.662c-0.778,0.337 -1.427,0.817 -1.946,1.439c-0.519,0.623 -0.778,1.505 -0.778,2.647c-0,1.504 0.648,2.646 1.946,3.424c1.297,0.779 2.776,1.168 4.436,1.168c2.646,-0 4.527,-0.441 5.643,-1.323c1.115,-0.882 1.673,-1.946 1.673,-3.191Z" style="fill-rule:nonzero;"/><rect id="path169826" serif:id="path1698" x="248.386" y="1016.96" width="81.732" height="94.488" style="fill:#fff;"/><path d="M322.58,1056.62c0,-11.096 -6.34,-17.519 -17.102,-17.519c-6.34,-0 -10.845,2.085 -13.932,6.257c-2.586,-4.088 -7.258,-6.174 -12.347,-6.174c-3.504,0 -7.341,1.502 -10.094,4.171l-0,-2.92l-13.182,0l0,47.386l13.182,0l-0,-28.031c-0,-6.173 3.837,-8.676 8.009,-8.676c3.253,-0 5.506,2.169 5.506,6.924l0.083,29.783l13.181,0l0,-28.114c0,-5.673 4.172,-8.51 7.592,-8.51c3.504,0 5.923,2.253 5.923,6.925l0,29.699l13.181,0l0,-31.201Z" style="fill-rule:nonzero;"/><rect id="path169827" serif:id="path1698" x="347.835" y="1016.96" width="33.543" height="94.488" style="fill:#fff;"/><rect x="352.559" y="1054.75" width="18.898" height="9.449" style="fill-rule:nonzero;"/><rect id="path169828" serif:id="path1698" x="259.252" y="910.659" width="54.331" height="94.488" style="fill:#fff;"/><path d="M296.541,958.452c0,7.22 -4.002,12.164 -10.045,12.164c-6.122,0 -10.124,-5.022 -10.124,-12.164c0,-7.298 4.002,-13.263 10.124,-13.263c5.964,0 10.045,5.965 10.045,13.263Zm12.321,0c0,-13.498 -7.848,-24.171 -22.366,-24.171c-14.597,-0 -22.524,10.516 -22.524,24.171c0,13.263 8.869,23.073 22.524,23.073c13.655,-0 22.366,-9.888 22.366,-23.073Z" style="fill-rule:nonzero;"/><rect id="path169829" serif:id="path1698" x="313.583" y="910.659" width="56.22" height="94.488" style="fill:#fff;"/><path d="M362.466,949.156c-0,-9.26 -5.923,-16.352 -17.269,-16.352c-3.754,0 -8.259,1.669 -11.096,4.339l0,-3.004l-13.264,0l-0,47.386l13.264,-0l0,-28.949c0,-5.756 4.171,-7.758 8.343,-7.758c4.338,-0 6.757,2.169 6.757,7.091l0,29.616l13.265,-0l-0,-32.369Z" style="fill-rule:nonzero;"/><rect x="171.378" y="910.659" width="87.874" height="94.488" style="fill:#fff;"/><path d="M249.482,915.383l-13.997,0l-20.257,27.559l-20.257,-27.559l-13.823,0l-0,66.142l13.736,-0l0,-42.738l20.344,26.711l20.257,-26.711l-0.087,42.738l14.084,-0l0,-66.142Z" style="fill-rule:nonzero;"/><rect id="path169830" serif:id="path1698" x="536.102" y="910.659" width="25.984" height="94.488" style="fill:#fff;"/><path d="M554.887,934.269l-13.145,-0l-0,47.256l13.145,-0l0,-47.256Zm0.832,-11.481c0,-4.077 -3.328,-7.405 -7.404,-7.405c-4.16,0 -7.488,3.328 -7.488,7.405c-0,4.16 3.328,7.487 7.488,7.487c4.076,0 7.404,-3.327 7.404,-7.487Z" style="fill-rule:nonzero;"/><rect id="path169831" serif:id="path1698" x="495.945" y="910.659" width="40.157" height="94.488" style="fill:#fff;"/><path d="M529.939,933.203c-6.812,-0.747 -11.548,1.496 -14.705,5.982l0,-4.902l-13.209,0l-0,47.189l13.209,-0l0,-24.924c0,-7.809 5.816,-11.215 12.794,-10.634l1.911,0.166l0,-12.877Z" style="fill-rule:nonzero;"/><rect x="438.78" y="910.63" width="57.165" height="94.488" style="fill:#fff;"/><path d="M493.667,915.354l-43.416,0l0,66.142l13.653,0l-0,-27.474l26.796,-0l-0,-12.465l-26.881,-0l-0,-13.229l29.848,0l0,-12.974Z" style="fill-rule:nonzero;"/><rect id="path169832" serif:id="path1698" x="387.52" y="910.659" width="33.543" height="94.488" style="fill:#fff;"/><rect x="392.244" y="948.454" width="18.898" height="9.449" style="fill-rule:nonzero;"/><clipPath id="_clip1"><rect id="S68-CAZ---B.afdesign" serif:id="S68 CAZ - B.afdesign" x="133.583" y="186.614" width="472.441" height="472.441"/></clipPath><g clip-path="url(#_clip1)"><circle cx="369.803" cy="422.835" r="236.22" style="fill:#5e9732;"/><clipPath id="_clip2"><rect id="S68-CAZ-B.afdesign" serif:id="S68 CAZ B.afdesign" x="187.167" y="286.614" width="377.124" height="255.906"/></clipPath><g clip-path="url(#_clip2)"><path d="M505.521,399.393l1.09,0.245l1.048,0.245c33.189,7.928 56.78,37.131 56.632,70.48l-0,0.98c-0.682,39.324 -33.629,71.067 -74.028,71.174l-228.412,0c-20.304,0.164 -39.862,-7.958 -53.907,-22.214l-0.838,-0.857l-0.839,-0.898l-2.389,-2.696l-0.755,-0.939c-14.835,-18.317 -19.58,-42.102 -13.162,-64.518l0.419,-1.388l0.922,-2.695c4.445,-12.55 12.57,-23.805 23.139,-32.178l1.132,-0.898l0.587,-0.449l0.168,-0.082l0.125,-0.123l0,-0.04l-0.042,-0.286l-0.041,-0.49l-0.126,-1.021l-0.168,-2.042l-0.042,-1.062l-0.084,-1.02l-0.125,-3.063l-0,-1.021c-0.103,-2.115 0.038,-4.127 0.042,-6.247l0.041,-0.98l0.084,-0.981l0.042,-0.939l0.084,-0.98l0.042,-0.98c3.235,-39.643 27.46,-74.42 63.716,-92.53l0.88,-0.45l3.521,-1.633c17.324,-7.655 36.382,-11.099 55.374,-10.004l1.467,0.081l1.425,0.123l1.467,0.122c13.564,1.206 26.48,4.736 38.817,10.331l1.299,0.613l1.3,0.653l1.257,0.613l1.3,0.653l1.257,0.694l1.3,0.695l1.257,0.694l1.216,0.735l2.515,1.47l0.587,0.408l0.335,0.163l0.126,0.123l0.042,-0l0.084,0.082l0.964,0.612c3.859,2.464 7.528,5.204 11.066,8.085l0.88,0.735l0.839,0.735l0.88,0.776l0.838,0.735l0.839,0.776l0.838,0.735l0.797,0.776c7.206,6.847 13.547,14.647 18.695,23.071l0.042,0.041l0.042,0c10.083,0.149 19.765,2.039 29.007,6.003l0.965,0.408l0.964,0.449l1.006,0.45c19.464,9.285 33.936,26.389 39.403,46.837l0.251,1.02l0.252,1.062l0.251,1.021Zm-30.516,75.788l-0.042,-2.45c-0.611,-7.891 -3.817,-14.117 -11.234,-17.803l-1.467,-0.654l1.76,-1.143c16.74,-13.332 2.623,-37.01 -16.641,-37.078l-40.367,0l-0,83.874l42.169,0c13.204,-0.681 24.645,-9.065 25.738,-22.459l0.084,-2.287Zm-30.014,8.739l-20.414,0l0,-20.948l20.414,-0c13.81,0.468 14.522,19.442 0.797,20.907l-0.797,0.041Zm-0.796,-51.86l1.509,0.123c11.054,2.28 9.559,17.206 -1.509,17.6l-19.618,-0l0,-17.723l19.618,0Zm-197.435,91.918l0,-0.04l0.042,-0l0,-0.041l0.084,-0.082l0.084,-0.041l0.042,-0.081c0.364,-0.348 0.786,-0.746 1.132,-1.103l0.167,-0.122l0.168,-0.164c0.581,-0.627 1.212,-1.218 1.844,-1.796l0.21,-0.245l0.503,-0.49c2.5,-2.362 4.905,-4.83 7.419,-7.187l0.378,-0.409l0.838,-0.816c12.171,-11.829 24.322,-23.699 36.511,-35.526l1.383,-1.389l1.425,-1.347l1.384,-1.388c37.791,-36.817 75.652,-73.623 113.388,-110.457l0.336,-0.286l0.628,-0.613l0.294,-0.326c1.319,-1.208 2.558,-2.498 3.856,-3.716l0.336,-0.327c0.465,-0.489 1.067,-1.019 1.509,-1.511l0.042,-0.041l0.042,0l-0,-0.081c-19.555,-34.961 -58.459,-54.865 -99.095,-50.431l-0.922,0.082l-0.964,0.122c-31.541,4.01 -59.176,22.514 -74.531,49.614l-0.419,0.776l-0.461,0.776l-0.419,0.776l-0.378,0.816c-4.815,9.146 -8.216,19.666 -9.641,29.85l-0.167,0.899l-0.084,0.939c-1.43,10.632 -0.89,21.643 1.341,32.136l0,0.082l-0.084,0.041c-45.517,23.977 -39.051,88.278 10.899,102.902l0.88,0.245Z" style="fill:#fff;fill-rule:nonzero;"/></g></g></g></svg>