<?xml version="1.0" encoding="UTF-8" standalone="no"?><!DOCTYPE svg PUBLIC "-//W3C//DTD SVG 1.1//EN" "http://www.w3.org/Graphics/SVG/1.1/DTD/svg11.dtd"><svg width="100%" height="100%" viewBox="0 0 331 284" version="1.1" xmlns="http://www.w3.org/2000/svg" xmlns:xlink="http://www.w3.org/1999/xlink" xml:space="preserve" xmlns:serif="http://www.serif.com/" style="fill-rule:evenodd;clip-rule:evenodd;stroke-linejoin:round;stroke-miterlimit:2;"><g transform="matrix(50,0,0,50,238.755,159.408)"></g><text x="92.832px" y="159.408px" style="font-family:'ArialMT', 'Arial', sans-serif;font-size:50px;">sw=24</text><clipPath id="_clip1"><rect x="0" y="0" width="330.709" height="283.465"/></clipPath><g clip-path="url(#_clip1)"><path d="M330.709,35.433c-0,-19.556 -15.877,-35.433 -35.433,-35.433l-259.843,0c-19.556,0 -35.433,15.877 -35.433,35.433l0,212.598c0,19.557 15.877,35.434 35.433,35.434l259.843,-0c19.556,-0 35.433,-15.877 35.433,-35.434l-0,-212.598Z"/><path d="M312.992,35.433c0,-9.778 -7.938,-17.716 -17.716,-17.716l-259.843,-0c-9.778,-0 -17.716,7.938 -17.716,17.716l-0,212.598c-0,9.779 7.938,17.717 17.716,17.717l259.843,0c9.778,0 17.716,-7.938 17.716,-17.717l0,-212.598Z" style="fill:#fff;"/><rect id="Black" x="47.244" y="47.244" width="236.22" height="188.976" style="fill:none;"/><g id="Black1" serif:id="Black"><path d="M70.849,47.244c-13.043,0 -23.605,10.563 -23.605,23.599l0,141.779c0,13.028 10.562,23.598 23.605,23.598l100.358,0c13.035,0 23.604,-10.57 23.604,-23.598l0,-141.779c0,-13.036 -10.569,-23.599 -23.604,-23.599l-100.358,0Zm35.49,91.517c-21.177,-0 -38.377,17.19 -38.377,38.369c0,21.187 17.2,38.377 38.377,38.377c21.191,-0 38.384,-17.19 38.384,-38.377c-0,-21.179 -17.193,-38.369 -38.384,-38.369Zm135.862,56.025l0,-94.394l9.728,-0l-0,17.648l31.536,-0l-0,59.09l-31.536,0l-0,29.542l-47.57,-0l-0,-11.886l37.842,-0Zm-136.035,-44.673c14.914,0 27.025,12.104 27.025,27.017c-0,14.921 -12.111,27.025 -27.025,27.025c-14.922,-0 -27.025,-12.104 -27.025,-27.025c-0,-14.913 12.103,-27.017 27.025,-27.017Zm107.567,-71.344l-9.374,-0l-0,107.189l9.374,0l-0,-107.189Zm9.554,6.852l9.36,-0l-0,100.337l-9.36,0l0,-100.337Zm-69.739,-25.582c-12.531,-0 -22.695,10.082 -22.695,22.517c0,12.426 10.164,22.524 22.695,22.524c12.532,-0 22.71,-10.098 22.71,-22.524c0,-12.435 -10.178,-22.517 -22.71,-22.517Zm0,10.804c6.57,-0 11.893,5.244 11.893,11.713c-0,6.468 -5.323,11.712 -11.893,11.712c-6.563,0 -11.885,-5.244 -11.885,-11.712c0,-6.469 5.322,-11.713 11.885,-11.713Z"/></g></g></svg>