<?xml version="1.0" encoding="UTF-8" standalone="no"?><!DOCTYPE svg PUBLIC "-//W3C//DTD SVG 1.1//EN" "http://www.w3.org/Graphics/SVG/1.1/DTD/svg11.dtd"><svg width="100%" height="100%" viewBox="0 0 410 272" version="1.1" xmlns="http://www.w3.org/2000/svg" xmlns:xlink="http://www.w3.org/1999/xlink" xml:space="preserve" xmlns:serif="http://www.serif.com/" style="fill-rule:evenodd;clip-rule:evenodd;stroke-linejoin:round;stroke-miterlimit:2;"><g transform="matrix(50,0,0,50,278.131,153.478)"></g><text x="132.208px" y="153.478px" style="font-family:'ArialMT', 'Arial', sans-serif;font-size:50px;">sw=23</text><rect id="Except-buses" serif:id="Except buses" x="0" y="0" width="409.606" height="271.654" style="fill:none;"/><path d="M409.606,35.433c0,-19.556 -15.877,-35.433 -35.433,-35.433l-338.74,0c-19.556,0 -35.433,15.877 -35.433,35.433l0,200.787c0,19.557 15.877,35.434 35.433,35.434l338.74,-0c19.556,-0 35.433,-15.877 35.433,-35.434l0,-200.787Z" style="fill:#1a1a1a;"/><path d="M391.89,35.433c-0,-9.778 -7.939,-17.716 -17.717,-17.716l-338.74,-0c-9.778,-0 -17.716,7.938 -17.716,17.716l-0,200.787c-0,9.778 7.938,17.717 17.716,17.717l338.74,0c9.778,0 17.717,-7.939 17.717,-17.717l-0,-200.787Z" style="fill:#fff;"/><clipPath id="_clip1"><rect id="Words-for-Prohibition-Plates.afdesign" serif:id="Words for Prohibition Plates.afdesign" x="74.409" y="141.732" width="260.787" height="94.488"/></clipPath><g clip-path="url(#_clip1)"><rect id="buses" x="74.409" y="141.732" width="260.787" height="94.488" style="fill:none;"/><clipPath id="_clip2"><rect x="74.409" y="141.732" width="260.787" height="94.488"/></clipPath><g clip-path="url(#_clip2)"><g><g><rect id="path1698" x="74.409" y="141.732" width="57.638" height="94.488" style="fill:#fff;"/><path d="M126.341,188.794c-0,3.38 -0.492,6.591 -1.475,9.633c-0.984,3.043 -2.431,5.704 -4.341,7.986c-1.911,2.282 -4.285,4.099 -7.123,5.451c-2.838,1.352 -6.083,2.028 -9.735,2.028c-1.854,-0 -3.694,-0.366 -5.521,-1.099c-1.826,-0.732 -3.386,-1.69 -4.678,-2.873l-0,2.535l-13.352,0l0,-65.998l13.352,-0l-0.024,20.112c1.462,-1.127 3.107,-2 4.935,-2.62c1.827,-0.619 3.725,-0.929 5.693,-0.929c3.543,-0 6.706,0.718 9.49,2.155c2.783,1.436 5.117,3.338 7,5.704c1.884,2.366 3.318,5.098 4.302,8.197c0.984,3.098 1.477,6.338 1.477,9.718Zm-13.521,-0.169c-0,-3.944 -0.972,-7.169 -2.916,-9.676c-1.943,-2.507 -4.69,-3.761 -8.239,-3.761c-0.958,0 -1.93,0.169 -2.915,0.507c-0.986,0.339 -1.874,0.817 -2.662,1.437c-0.789,0.62 -1.437,1.352 -1.944,2.197c-0.507,0.845 -0.761,1.803 -0.761,2.873l0,12.423c0,1.126 0.282,2.112 0.846,2.957c0.563,0.845 1.267,1.55 2.112,2.113c0.845,0.563 1.775,0.986 2.789,1.268c1.014,0.281 1.943,0.422 2.789,0.422c1.69,0 3.211,-0.338 4.563,-1.014c1.352,-0.676 2.493,-1.591 3.422,-2.746c0.93,-1.155 1.648,-2.507 2.155,-4.057c0.507,-1.549 0.761,-3.197 0.761,-4.943Z" style="fill-rule:nonzero;"/></g><g><rect id="path16981" serif:id="path1698" x="132.047" y="141.732" width="56.693" height="94.488" style="fill:#fff;"/><path d="M181.201,212.544l-13.317,-0l0,-2.986c-1.442,1.327 -3.176,2.378 -5.201,3.151c-2.026,0.774 -3.982,1.161 -5.868,1.161c-2.83,0 -5.313,-0.414 -7.449,-1.243c-2.137,-0.83 -3.94,-1.977 -5.41,-3.442c-1.471,-1.465 -2.567,-3.178 -3.288,-5.141c-0.721,-1.962 -1.082,-4.104 -1.082,-6.426l0,-32.173l13.317,0l-0,29.437c-0,2.487 0.579,4.284 1.738,5.389c1.159,1.106 2.814,1.659 4.966,1.659c1.049,-0 2.07,-0.138 3.063,-0.415c0.993,-0.276 1.876,-0.718 2.649,-1.326c0.772,-0.609 1.393,-1.396 1.862,-2.364c0.469,-0.967 0.703,-2.169 0.703,-3.607l0,-28.773l13.317,0l0,47.099Z" style="fill-rule:nonzero;"/></g><g><rect id="path16982" serif:id="path1698" x="188.74" y="141.732" width="47.244" height="94.488" style="fill:#fff;"/><path d="M231.864,198.295c0,2.092 -0.405,4.015 -1.216,5.768c-0.811,1.753 -2.028,3.27 -3.65,4.552c-1.621,1.281 -3.623,2.275 -6.003,2.982c-2.381,0.706 -5.14,1.059 -8.28,1.059c-3.976,0 -7.586,-0.588 -10.83,-1.766c-3.243,-1.177 -6.252,-2.916 -9.025,-5.218l7.063,-8.162c2.198,1.831 4.447,3.047 6.75,3.649c2.302,0.602 4.29,0.903 5.964,0.903c2.354,-0 3.976,-0.34 4.866,-1.021c0.889,-0.68 1.334,-1.517 1.334,-2.511c-0,-0.575 -0.406,-1.19 -1.217,-1.844c-0.811,-0.654 -2.158,-1.19 -4.041,-1.609l-7.77,-1.883c-1.465,-0.314 -2.917,-0.811 -4.355,-1.492c-1.439,-0.68 -2.734,-1.543 -3.885,-2.589c-1.151,-1.047 -2.08,-2.302 -2.786,-3.767c-0.706,-1.465 -1.059,-3.166 -1.059,-5.101c-0,-2.145 0.457,-4.121 1.373,-5.926c0.916,-1.805 2.21,-3.374 3.885,-4.708c1.674,-1.334 3.649,-2.368 5.925,-3.1c2.276,-0.733 4.8,-1.099 7.573,-1.099c4.081,0 7.625,0.55 10.634,1.648c3.008,1.099 5.637,2.616 7.887,4.552l-7.063,8.162c-1.674,-1.308 -3.388,-2.276 -5.141,-2.904c-1.752,-0.628 -3.649,-0.942 -5.689,-0.942c-2.198,0 -3.82,0.406 -4.866,1.217c-1.046,0.811 -1.569,1.687 -1.569,2.629c-0,0.157 0.026,0.366 0.078,0.628c0.052,0.261 0.222,0.536 0.51,0.824c0.288,0.287 0.693,0.575 1.217,0.863c0.523,0.288 1.255,0.536 2.197,0.745l8.162,1.962c1.622,0.419 3.204,0.942 4.748,1.57c1.543,0.628 2.93,1.465 4.159,2.511c1.23,1.047 2.224,2.328 2.982,3.846c0.759,1.517 1.138,3.374 1.138,5.572Z" style="fill-rule:nonzero;"/></g><g><rect id="path16983" serif:id="path1698" x="287.953" y="141.732" width="47.244" height="94.488" style="fill:#fff;"/><path d="M331.077,198.295c-0,2.092 -0.406,4.015 -1.217,5.768c-0.811,1.753 -2.027,3.27 -3.649,4.552c-1.622,1.281 -3.623,2.275 -6.004,2.982c-2.38,0.706 -5.14,1.059 -8.279,1.059c-3.976,0 -7.586,-0.588 -10.83,-1.766c-3.244,-1.177 -6.252,-2.916 -9.025,-5.218l7.063,-8.162c2.197,1.831 4.447,3.047 6.749,3.649c2.302,0.602 4.29,0.903 5.964,0.903c2.355,-0 3.977,-0.34 4.866,-1.021c0.89,-0.68 1.334,-1.517 1.334,-2.511c0,-0.575 -0.405,-1.19 -1.216,-1.844c-0.811,-0.654 -2.158,-1.19 -4.042,-1.609l-7.769,-1.883c-1.465,-0.314 -2.917,-0.811 -4.356,-1.492c-1.438,-0.68 -2.733,-1.543 -3.884,-2.589c-1.151,-1.047 -2.08,-2.302 -2.786,-3.767c-0.707,-1.465 -1.06,-3.166 -1.06,-5.101c0,-2.145 0.458,-4.121 1.374,-5.926c0.915,-1.805 2.21,-3.374 3.884,-4.708c1.674,-1.334 3.649,-2.368 5.925,-3.1c2.276,-0.733 4.801,-1.099 7.574,-1.099c4.08,0 7.625,0.55 10.633,1.648c3.009,1.099 5.638,2.616 7.887,4.552l-7.063,8.162c-1.674,-1.308 -3.387,-2.276 -5.14,-2.904c-1.753,-0.628 -3.649,-0.942 -5.69,-0.942c-2.197,0 -3.819,0.406 -4.865,1.217c-1.047,0.811 -1.57,1.687 -1.57,2.629c0,0.157 0.026,0.366 0.079,0.628c0.052,0.261 0.222,0.536 0.51,0.824c0.287,0.287 0.693,0.575 1.216,0.863c0.523,0.288 1.256,0.536 2.198,0.745l8.161,1.962c1.622,0.419 3.205,0.942 4.748,1.57c1.544,0.628 2.93,1.465 4.16,2.511c1.229,1.047 2.223,2.328 2.982,3.846c0.758,1.517 1.138,3.374 1.138,5.572Z" style="fill-rule:nonzero;"/></g><g><rect id="path16984" serif:id="path1698" x="235.984" y="141.732" width="51.969" height="94.488" style="fill:#fff;"/><path d="M283.627,190.945l-0.157,1.968l-30.473,0c0.053,1.26 0.368,2.428 0.945,3.504c0.578,1.076 1.339,2.021 2.284,2.835c0.945,0.814 2.034,1.444 3.268,1.89c1.233,0.446 2.532,0.669 3.897,0.669c3.937,0 7.323,-1.312 10.158,-3.937l6.614,8.11c-2.257,2.152 -4.738,3.793 -7.441,4.922c-2.704,1.128 -5.788,1.692 -9.252,1.692c-3.727,0 -7.034,-0.616 -9.921,-1.85c-2.888,-1.234 -5.315,-2.94 -7.284,-5.118c-1.968,-2.179 -3.464,-4.711 -4.488,-7.599c-1.024,-2.887 -1.535,-5.984 -1.535,-9.291c-0,-3.202 0.485,-6.233 1.456,-9.094c0.971,-2.861 2.376,-5.342 4.213,-7.441c1.837,-2.1 4.121,-3.767 6.85,-5c2.73,-1.234 5.827,-1.851 9.292,-1.851c3.832,0 7.165,0.683 10,2.048c2.834,1.364 5.144,3.202 6.929,5.511c1.784,2.31 3.057,5.027 3.819,8.15c0.761,3.123 1.036,6.417 0.826,9.882Zm-12.362,-6.851c0,-2.414 -0.879,-4.396 -2.638,-5.944c-1.758,-1.549 -3.924,-2.323 -6.496,-2.323c-2.467,-0 -4.514,0.827 -6.141,2.48c-1.628,1.654 -2.573,3.583 -2.835,5.787l18.11,0Z" style="fill-rule:nonzero;"/></g></g></g></g><rect id="Except" x="47.244" y="47.244" width="315.118" height="94.488" style="fill:none;"/><clipPath id="_clip3"><rect x="47.244" y="47.244" width="315.118" height="94.488"/></clipPath><g clip-path="url(#_clip3)"><g><g><rect id="path16985" serif:id="path1698" x="322.677" y="47.244" width="39.685" height="94.488" style="fill:#fff;"/><path d="M359.137,115.764c-1.371,0.603 -3.043,1.11 -5.018,1.522c-1.974,0.411 -4.168,0.617 -6.581,0.617c-4.388,-0 -7.843,-1.029 -10.366,-3.085c-2.522,-2.057 -3.784,-5.389 -3.784,-9.996l0,-24.186l-7.486,0l-0,-10.941l7.486,-0l0,-12.093l12.916,-5.841l-0,17.934l11.928,-0l0,10.941l-11.928,0l-0,20.155c-0,2.249 0.343,3.744 1.028,4.484c0.686,0.74 1.824,1.111 3.414,1.111c2.029,-0 4.141,-0.439 6.335,-1.317l2.056,10.695Z" style="fill-rule:nonzero;"/></g><g><g><rect id="path16986" serif:id="path1698" x="265.984" y="47.244" width="56.693" height="94.488" style="fill:#fff;"/><path d="M316.992,94.523c0,3.258 -0.482,6.379 -1.446,9.361c-0.964,2.983 -2.369,5.62 -4.215,7.912c-1.845,2.292 -4.132,4.114 -6.859,5.468c-2.728,1.353 -5.827,2.029 -9.298,2.029c-1.929,0 -3.788,-0.303 -5.578,-0.911c-1.791,-0.607 -3.403,-1.464 -4.835,-2.568l-0,17.646l-13.092,-0l0,-62.631l13.092,-0l-0.024,2.485c1.268,-1.16 2.812,-2.085 4.632,-2.775c1.82,-0.691 3.777,-1.036 5.872,-1.036c3.419,0 6.479,0.704 9.18,2.113c2.702,1.408 4.976,3.272 6.823,5.592c1.847,2.32 3.267,4.984 4.259,7.994c0.993,3.01 1.489,6.117 1.489,9.321Zm-13.257,-0c0,-1.602 -0.249,-3.176 -0.746,-4.723c-0.497,-1.546 -1.201,-2.913 -2.113,-4.1c-0.911,-1.188 -2.03,-2.154 -3.355,-2.9c-1.326,-0.746 -2.817,-1.118 -4.475,-1.118c-0.828,-0 -1.74,0.138 -2.734,0.414c-0.994,0.276 -1.906,0.69 -2.734,1.242c-0.829,0.553 -1.519,1.243 -2.072,2.072c-0.552,0.828 -0.828,1.795 -0.828,2.899l-0,12.178c-0,1.05 0.248,2.003 0.746,2.859c0.497,0.856 1.132,1.574 1.905,2.154c0.774,0.579 1.644,1.035 2.61,1.367c0.967,0.331 1.92,0.497 2.859,0.497c1.712,-0 3.259,-0.346 4.64,-1.036c1.381,-0.69 2.527,-1.615 3.438,-2.775c0.912,-1.16 1.616,-2.513 2.113,-4.06c0.497,-1.546 0.746,-3.203 0.746,-4.97Z" style="fill-rule:nonzero;"/></g></g><g><rect id="path16987" serif:id="path1698" x="111.496" y="47.244" width="51.969" height="94.488" style="fill:#fff;"/><path d="M162.283,118.11l-15.065,0l-9.738,-14.556l-9.738,14.556l-15.065,0l17.729,-24.786l-15.898,-22.458l14.982,0l7.99,12.061l7.907,-12.061l15.065,0l-15.814,22.291l17.645,24.953Z" style="fill-rule:nonzero;"/></g><g><rect id="path16988" serif:id="path1698" x="214.016" y="47.244" width="51.969" height="94.488" style="fill:#fff;"/><path d="M261.659,96.457l-0.158,1.968l-30.472,0c0.052,1.26 0.367,2.428 0.945,3.504c0.577,1.076 1.338,2.021 2.283,2.835c0.945,0.813 2.034,1.443 3.268,1.89c1.234,0.446 2.533,0.669 3.898,0.669c3.937,-0 7.322,-1.313 10.157,-3.937l6.614,8.11c-2.257,2.152 -4.737,3.793 -7.441,4.921c-2.703,1.129 -5.787,1.693 -9.252,1.693c-3.727,0 -7.034,-0.617 -9.921,-1.85c-2.887,-1.234 -5.315,-2.94 -7.283,-5.118c-1.969,-2.179 -3.465,-4.712 -4.489,-7.599c-1.023,-2.887 -1.535,-5.984 -1.535,-9.291c0,-3.202 0.486,-6.234 1.457,-9.095c0.971,-2.86 2.375,-5.341 4.212,-7.44c1.838,-2.1 4.121,-3.767 6.851,-5c2.729,-1.234 5.826,-1.851 9.291,-1.851c3.832,0 7.165,0.683 10,2.047c2.835,1.365 5.144,3.202 6.929,5.512c1.785,2.31 3.058,5.026 3.819,8.15c0.761,3.123 1.037,6.417 0.827,9.882Zm-12.362,-6.851c-0,-2.414 -0.88,-4.396 -2.638,-5.945c-1.759,-1.548 -3.924,-2.322 -6.496,-2.322c-2.467,-0 -4.515,0.826 -6.142,2.48c-1.627,1.653 -2.572,3.583 -2.835,5.787l18.111,0Z" style="fill-rule:nonzero;"/></g><g><rect id="path16989" serif:id="path1698" x="163.465" y="47.244" width="50.551" height="94.488" style="fill:#fff;"/><path d="M209.615,83.815l-10.28,4.944c-1.936,-4.708 -4.997,-7.063 -9.182,-7.063c-1.622,0 -3.035,0.366 -4.238,1.099c-1.203,0.732 -2.211,1.7 -3.021,2.904c-0.811,1.203 -1.426,2.589 -1.845,4.159c-0.418,1.57 -0.628,3.165 -0.628,4.787c0,1.674 0.223,3.27 0.667,4.787c0.445,1.518 1.099,2.852 1.962,4.003c0.864,1.151 1.91,2.079 3.14,2.786c1.229,0.706 2.629,1.059 4.198,1.059c1.988,0 3.728,-0.549 5.219,-1.648c1.491,-1.099 2.786,-2.904 3.885,-5.415l10.123,5.023c-1.831,3.871 -4.394,6.984 -7.69,9.339c-3.297,2.354 -7.142,3.531 -11.537,3.531c-3.714,0 -6.98,-0.615 -9.797,-1.844c-2.816,-1.23 -5.161,-2.917 -7.033,-5.062c-1.872,-2.145 -3.289,-4.643 -4.25,-7.495c-0.962,-2.851 -1.443,-5.925 -1.443,-9.221c-0,-2.93 0.442,-5.807 1.325,-8.632c0.884,-2.826 2.236,-5.35 4.056,-7.574c1.82,-2.223 4.112,-4.015 6.876,-5.375c2.763,-1.361 6.055,-2.041 9.874,-2.041c4.552,0 8.554,1.19 12.007,3.571c3.453,2.38 5.991,5.506 7.612,9.378Z" style="fill-rule:nonzero;"/></g><g><rect x="47.244" y="47.244" width="64.252" height="94.488" style="fill:#fff;"/><path d="M102.265,118.11l-45.79,0l-0,-66.141l43.246,-0l0,13.058l-29.679,0l0,13.313l26.881,0l0,12.211l-26.881,0l0,14.5l32.223,0l0,13.059Z" style="fill-rule:nonzero;"/></g></g></g></svg>