<?xml version="1.0" encoding="UTF-8" standalone="no"?><!DOCTYPE svg PUBLIC "-//W3C//DTD SVG 1.1//EN" "http://www.w3.org/Graphics/SVG/1.1/DTD/svg11.dtd"><svg width="100%" height="100%" viewBox="0 0 331 520" version="1.1" xmlns="http://www.w3.org/2000/svg" xmlns:xlink="http://www.w3.org/1999/xlink" xml:space="preserve" xmlns:serif="http://www.serif.com/" style="fill-rule:evenodd;clip-rule:evenodd;stroke-linejoin:round;stroke-miterlimit:2;"><g transform="matrix(50,0,0,50,238.755,277.445)"></g><text x="92.832px" y="277.445px" style="font-family:'ArialMT', 'Arial', sans-serif;font-size:50px;">sw=44</text><rect id="_05" serif:id="05" x="0" y="0" width="330.709" height="519.685" style="fill:none;"/><clipPath id="_clip1"><rect x="0" y="0" width="330.709" height="519.685"/></clipPath><g clip-path="url(#_clip1)"><g><path d="M330.709,35.433c-0,-19.556 -15.877,-35.433 -35.433,-35.433l-259.843,0c-19.556,0 -35.433,15.877 -35.433,35.433l0,448.819c0,19.556 15.877,35.433 35.433,35.433l259.843,0c19.556,0 35.433,-15.877 35.433,-35.433l-0,-448.819Z"/><path d="M312.992,35.433c0,-9.778 -7.938,-17.716 -17.716,-17.716l-259.843,-0c-9.778,-0 -17.716,7.938 -17.716,17.716l-0,448.819c-0,9.778 7.938,17.717 17.716,17.717l259.843,-0c9.778,-0 17.716,-7.939 17.716,-17.717l0,-448.819Z" style="fill:#fff;"/><clipPath id="_clip2"><rect id="S68-CAZ---A.afdesign" serif:id="S68 CAZ - A.afdesign" x="70.866" y="47.244" width="188.976" height="188.976"/></clipPath><g clip-path="url(#_clip2)"><g><circle cx="165.354" cy="141.732" r="94.488" style="fill:#5e9732;"/><clipPath id="_clip3"><rect id="S68-CAZ-A.afdesign" serif:id="S68 CAZ A.afdesign" x="92.3" y="87.244" width="150.85" height="102.362"/></clipPath><g clip-path="url(#_clip3)"><path d="M219.644,132.358l0.439,0.098l0.422,0.099c13.264,3.154 22.723,14.87 22.644,28.189l0,0.394c-0.262,15.736 -13.458,28.414 -29.613,28.468l-91.353,-0c-8.176,0.042 -15.909,-3.169 -21.581,-8.892l-0.338,-0.345l-0.32,-0.346l-0.641,-0.723l-0.321,-0.378l-0.304,-0.361c-5.906,-7.278 -7.848,-16.895 -5.247,-25.806l0.151,-0.542l0.186,-0.559l0.186,-0.526c1.773,-5.025 5.023,-9.512 9.246,-12.87l0.709,-0.542l0.051,-0.049l0.033,-0.017l0.017,-0.016l0,-0.033l-0.017,-0.099l-0.016,-0.197l-0.135,-1.643l-0.017,-0.411l-0.034,-0.411l-0.017,-0.411l0,-0.411l-0.017,-0.411c0.009,-0.696 -0.018,-1.412 0.017,-2.104l0.017,-0.394l0.017,-0.378l0.034,-0.789l0.033,-0.378c1.121,-15.968 10.919,-30.137 25.513,-37.41l1.063,-0.493c14.529,-6.785 32.03,-5.702 45.559,2.893l0.067,0.033l-0,0.016l0.017,0c5.974,3.782 11.019,8.872 14.68,14.826l0.017,0.033l0.017,-0c13.715,0.065 25.7,9.471 28.735,22.485l0.101,0.411Zm-103.519,49.819l0.017,-0l0,-0.017l0.017,0l0.017,-0.016l0.017,-0.033l0.034,-0.017c0.464,-0.47 0.958,-0.919 1.417,-1.397l0.203,-0.197c0.997,-0.947 1.974,-1.925 2.969,-2.876l0.152,-0.165l0.338,-0.328c4.877,-4.72 9.723,-9.475 14.595,-14.201l1.688,-1.644c15.114,-14.732 30.238,-29.453 45.356,-44.181l0.388,-0.378c0.805,-0.78 1.607,-1.569 2.413,-2.351l0.016,-0.016l-0.016,-0.017l-0.017,-0.049c-7.84,-13.969 -23.354,-21.875 -39.602,-20.134l-0.389,0.049l-0.371,0.049c-12.597,1.578 -23.695,9.015 -29.815,19.839l-0.844,1.561c-3.355,6.665 -4.68,14.038 -3.864,21.417l0.051,0.378l0.033,0.378l0.051,0.362l0.068,0.378l0.05,0.378l0.068,0.361l0.067,0.378l0.068,0.362l0.067,0.378l0.068,0.362l0.033,0.082l0,0.033l-0.016,0.016l-0.034,0.017l-0.118,0.065l-0.507,0.263l-0.253,0.148c-0.974,0.539 -1.984,1.215 -2.851,1.907l-0.22,0.181l-0.219,0.164l-0.219,0.197c-1.975,1.634 -3.606,3.643 -4.911,5.819l-0.404,0.739l-0.135,0.263c-6.331,12.405 0.218,27.249 13.87,31.312l0.337,0.098l0.337,0.083Zm73.13,-43.195l-11.474,33.481l7.695,-0l1.856,-5.901l12.992,0l1.839,5.901l7.712,-0l-11.474,-33.481l-9.146,-0Zm4.556,7.002l4.64,14.694l-9.246,-0l4.606,-14.694Z" style="fill:#fff;fill-rule:nonzero;"/></g></g></g><path d="M70.849,283.465c-13.043,-0 -23.605,10.563 -23.605,23.598l0,141.779c0,13.028 10.562,23.599 23.605,23.599l100.358,-0c13.035,-0 23.604,-10.571 23.604,-23.599l0,-141.779c0,-13.035 -10.569,-23.598 -23.604,-23.598l-100.358,-0Zm35.49,91.516c-21.177,0 -38.377,17.19 -38.377,38.37c0,21.186 17.2,38.376 38.377,38.376c21.191,0 38.384,-17.19 38.384,-38.376c-0,-21.18 -17.193,-38.37 -38.384,-38.37Zm135.862,56.025l0,-94.394l9.728,0l-0,17.648l31.536,0l-0,59.091l-31.536,-0l-0,29.541l-47.57,0l-0,-11.886l37.842,0Zm-136.035,-44.672c14.914,-0 27.025,12.103 27.025,27.017c-0,14.921 -12.111,27.024 -27.025,27.024c-14.922,0 -27.025,-12.103 -27.025,-27.024c-0,-14.914 12.103,-27.017 27.025,-27.017Zm107.567,-71.345l-9.374,0l-0,107.189l9.374,0l-0,-107.189Zm9.554,6.852l9.36,0l-0,100.337l-9.36,0l0,-100.337Zm-69.739,-25.582c-12.531,0 -22.695,10.083 -22.695,22.517c0,12.427 10.164,22.524 22.695,22.524c12.532,0 22.71,-10.097 22.71,-22.524c0,-12.434 -10.178,-22.517 -22.71,-22.517Zm0,10.804c6.57,0 11.893,5.244 11.893,11.713c-0,6.469 -5.323,11.713 -11.893,11.713c-6.563,-0 -11.885,-5.244 -11.885,-11.713c0,-6.469 5.322,-11.713 11.885,-11.713Z"/></g></g></svg>