<?xml version="1.0" encoding="UTF-8" standalone="no"?><!DOCTYPE svg PUBLIC "-//W3C//DTD SVG 1.1//EN" "http://www.w3.org/Graphics/SVG/1.1/DTD/svg11.dtd"><svg width="100%" height="100%" viewBox="0 0 709 1273" version="1.1" xmlns="http://www.w3.org/2000/svg" xmlns:xlink="http://www.w3.org/1999/xlink" xml:space="preserve" xmlns:serif="http://www.serif.com/" style="fill-rule:evenodd;clip-rule:evenodd;stroke-linejoin:round;stroke-miterlimit:2;"><g transform="matrix(1,0,0,0.998969,0,0.505429)"><g transform="matrix(50.0516,0,0,50.0516,462.389,635.563)"></g><text x="246.737px" y="635.563px" style="font-family:'ArialMT', 'Arial', sans-serif;font-size:50.052px;">sw=107.5</text></g><rect id="_06" serif:id="06" x="0" y="0" width="708.661" height="1272.05" style="fill:none;"/><g><path d="M708.661,35.433c0,-19.556 -15.877,-35.433 -35.433,-35.433l-637.795,0c-19.556,0 -35.433,15.877 -35.433,35.433l0,1201.18c0,19.556 15.877,35.433 35.433,35.433l637.795,0c19.556,0 35.433,-15.877 35.433,-35.433l0,-1201.18Z"/><path d="M690.945,35.433c-0,-9.778 -7.939,-17.716 -17.717,-17.716l-637.795,-0c-9.778,-0 -17.716,7.938 -17.716,17.716l-0,637.795c-0,9.778 7.938,17.717 17.716,17.717l637.795,-0c9.778,-0 17.717,-7.939 17.717,-17.717l-0,-637.795Z" style="fill:#fff;"/><path d="M690.945,726.378c-0,-9.778 -7.939,-17.717 -17.717,-17.717l-637.795,0c-9.778,0 -17.716,7.939 -17.716,17.717l-0,510.236c-0,9.778 7.938,17.717 17.716,17.717l637.795,-0c9.778,-0 17.717,-7.939 17.717,-17.717l-0,-510.236Z" style="fill:#fff;"/><clipPath id="_clip1"><rect id="S68-CAZ---B.afdesign" serif:id="S68 CAZ - B.afdesign" x="88.583" y="88.583" width="531.496" height="531.496"/></clipPath><g clip-path="url(#_clip1)"><circle cx="354.331" cy="354.331" r="265.748" style="fill:#5e9732;"/><clipPath id="_clip2"><rect id="S68-CAZ-B.afdesign" serif:id="S68 CAZ B.afdesign" x="148.866" y="201.083" width="424.264" height="287.894"/></clipPath><g clip-path="url(#_clip2)"><path d="M507.014,327.959l1.226,0.275l1.179,0.276c37.337,8.919 63.878,41.773 63.71,79.29l0,1.103c-0.766,44.239 -37.832,79.95 -83.281,80.071l-256.964,-0c-22.841,0.183 -44.844,-8.954 -60.645,-24.991l-0.943,-0.965l-0.943,-1.01l-2.688,-3.032l-0.849,-1.057c-16.69,-20.606 -22.028,-47.365 -14.808,-72.583l0.472,-1.562l1.037,-3.032c5.001,-14.118 14.142,-26.78 26.032,-36.199l1.273,-1.011l0.66,-0.505l0.189,-0.092l0.141,-0.138l0,-0.046l-0.047,-0.322l-0.047,-0.551l-0.142,-1.148l-0.188,-2.297l-0.047,-1.195l-0.095,-1.148l-0.141,-3.445l-0,-1.149c-0.116,-2.38 0.043,-4.643 0.047,-7.029l0.047,-1.102l0.095,-1.103l0.047,-1.056l0.094,-1.103l0.047,-1.102c3.64,-44.599 30.893,-83.723 71.68,-104.097l0.991,-0.505l3.961,-1.838c19.489,-8.612 40.93,-12.486 62.296,-11.255l1.65,0.092l1.603,0.138l1.651,0.138c15.259,1.356 29.789,5.327 43.668,11.622l1.462,0.689l1.462,0.735l1.415,0.689l1.462,0.735l1.414,0.781l1.462,0.781l1.415,0.781l1.368,0.827l2.829,1.654l0.66,0.459l0.378,0.184l0.141,0.138l0.047,-0l0.095,0.092l1.084,0.689c4.342,2.772 8.469,5.854 12.45,9.095l0.99,0.827l0.943,0.827l0.991,0.873l0.943,0.827l0.943,0.873l0.943,0.827l0.896,0.873c8.107,7.702 15.241,16.478 21.033,25.955l0.047,0.046l0.047,-0c11.343,0.167 22.236,2.294 32.633,6.753l1.085,0.459l1.085,0.506l1.131,0.505c21.897,10.446 38.179,29.688 44.329,52.691l0.283,1.149l0.283,1.194l0.283,1.149Zm-34.331,85.262l-0.048,-2.756c-0.686,-8.878 -4.293,-15.882 -12.638,-20.03l-1.65,-0.735l1.98,-1.286c18.833,-14.999 2.951,-41.636 -18.721,-41.712l-45.414,-0l0,94.358l47.441,-0c14.854,-0.767 27.725,-10.199 28.955,-25.267l0.095,-2.572Zm-33.765,9.831l-22.966,-0l-0,-23.567l22.966,0c15.535,0.527 16.337,21.872 0.896,23.521l-0.896,0.046Zm-0.896,-58.342l1.697,0.137c12.436,2.565 10.754,19.358 -1.697,19.8l-22.07,0l-0,-19.937l22.07,-0Zm-222.115,103.408l0,-0.046l0.048,-0l-0,-0.046l0.094,-0.092l0.094,-0.046l0.047,-0.092c0.411,-0.391 0.885,-0.839 1.274,-1.24l0.188,-0.138l0.189,-0.184c0.654,-0.705 1.364,-1.37 2.075,-2.021l0.236,-0.276l0.566,-0.551c2.813,-2.657 5.518,-5.434 8.347,-8.085l0.424,-0.46l0.943,-0.919c13.692,-13.307 27.363,-26.66 41.075,-39.966l1.556,-1.562l1.603,-1.516l1.557,-1.562c42.515,-41.419 85.109,-82.825 127.562,-124.264l0.377,-0.321l0.707,-0.69l0.331,-0.367c1.483,-1.358 2.878,-2.81 4.338,-4.18l0.377,-0.368c0.524,-0.55 1.201,-1.147 1.698,-1.7l0.047,-0.046l0.047,0l0,-0.092c-21.999,-39.33 -65.765,-61.723 -111.481,-56.734l-1.038,0.092l-1.084,0.138c-35.483,4.51 -66.572,25.328 -83.847,55.815l-0.472,0.873l-0.518,0.873l-0.472,0.873l-0.424,0.919c-5.417,10.288 -9.243,22.123 -10.847,33.581l-0.188,1.01l-0.095,1.057c-1.609,11.962 -1,24.349 1.509,36.154l0,0.092l-0.094,0.046c-51.207,26.973 -43.933,99.313 12.261,115.765l0.99,0.276Z" style="fill:#fff;fill-rule:nonzero;"/></g></g><g><g><g><rect x="190.276" y="738.189" width="84.331" height="141.732" style="fill:#fff;"/><g transform="matrix(1,0,0,0.975357,0,-64.0465)"><g transform="matrix(130.409,0,0,130.409,274.759,931.49)"></g><text x="190.123px" y="931.49px" style="font-family:'TransportNew-Heavy', 'Transport New';font-weight:900;font-size:130.409px;">Z</text></g></g><g><rect id="path1698" x="274.606" y="738.189" width="81.496" height="141.732" style="fill:#fff;"/><g transform="matrix(117.718,0,0,117.718,353.73,842.487)"></g><text x="276.978px" y="842.487px" style="font-family:'TransportNew-Heavy', 'Transport New';font-weight:900;font-size:117.718px;">o</text></g><g><rect id="path16981" serif:id="path1698" x="356.102" y="738.189" width="84.331" height="141.732" style="fill:#fff;"/><g transform="matrix(125.138,0,0,125.138,436.935,844.488)"></g><text x="358.849px" y="844.488px" style="font-family:'TransportNew-Heavy', 'Transport New';font-weight:900;font-size:125.138px;">n</text></g><g><rect id="path16982" serif:id="path1698" x="440.433" y="738.189" width="77.953" height="141.732" style="fill:#fff;"/><path d="M511.898,812.008l-0.236,2.953l-45.709,-0c0.079,1.889 0.551,3.641 1.417,5.256c0.866,1.614 2.008,3.031 3.425,4.252c1.418,1.22 3.052,2.165 4.902,2.834c1.85,0.669 3.799,1.004 5.846,1.004c5.906,0 10.985,-1.968 15.237,-5.905l9.921,12.165c-3.386,3.228 -7.106,5.689 -11.162,7.382c-4.055,1.693 -8.681,2.539 -13.877,2.539c-5.591,0 -10.552,-0.925 -14.882,-2.775c-4.331,-1.851 -7.973,-4.41 -10.926,-7.678c-2.952,-3.267 -5.196,-7.066 -6.732,-11.397c-1.535,-4.331 -2.303,-8.977 -2.303,-13.937c0,-4.803 0.728,-9.351 2.185,-13.642c1.457,-4.291 3.563,-8.012 6.319,-11.161c2.756,-3.15 6.181,-5.65 10.276,-7.5c4.094,-1.851 8.74,-2.776 13.937,-2.776c5.748,0 10.748,1.024 15,3.071c4.252,2.047 7.716,4.803 10.393,8.268c2.677,3.464 4.587,7.539 5.729,12.224c1.141,4.685 1.555,9.626 1.24,14.823Zm-18.544,-10.276c0,-3.622 -1.318,-6.594 -3.956,-8.917c-2.638,-2.323 -5.886,-3.484 -9.744,-3.484c-3.701,-0 -6.772,1.24 -9.213,3.72c-2.441,2.48 -3.858,5.374 -4.252,8.681l27.165,0Z" style="fill-rule:nonzero;"/></g></g><g><g><rect x="88.583" y="891.732" width="120.472" height="177.165" style="fill:#fff;"/><g transform="matrix(158.995,0,0,158.995,198.902,1024.61)"></g><text x="93.171px" y="1024.61px" style="font-family:'TransportNew-Heavy', 'Transport New';font-weight:900;font-size:158.995px;">E</text></g><g><rect x="357.874" y="891.732" width="132.874" height="177.165" style="fill:#fff;"/><g transform="matrix(158.995,0,0,158.995,489.045,1024.61)"></g><text x="363.598px" y="1024.61px" style="font-family:'TransportNew-Heavy', 'Transport New';font-weight:900;font-size:158.995px;">D</text></g><g><rect x="490.748" y="891.732" width="129.331" height="177.165" style="fill:#fff;"/><g transform="matrix(1,0,0,0.975357,-9.09495e-13,-76.9578)"><g transform="matrix(156.974,0,0,156.974,615.299,1126.73)"></g><text x="497.882px" y="1126.73px" style="font-family:'TransportNew-Heavy', 'Transport New';font-weight:900;font-size:156.974px;">S</text></g></g><g><rect x="209.055" y="891.732" width="148.819" height="177.165" style="fill:#fff;"/><g transform="matrix(1,0,0,0.975357,0,-80.8222)"><g transform="matrix(163.012,0,0,163.012,352.582,1133.36)"></g><text x="214.511px" y="1133.36px" style="font-family:'TransportNew-Heavy', 'Transport New';font-weight:900;font-size:163.012px;">N</text></g></g></g><g><g><g><g><rect id="path16983" serif:id="path1698" x="437.448" y="1158.66" width="21.437" height="77.953" style="fill:#fff;"/><g transform="matrix(68.6376,0,0,68.6376,458.093,1217.13)"></g><text x="436.953px" y="1217.13px" style="font-family:'TransportNew-Heavy', 'Transport New';font-weight:900;font-size:68.638px;">i</text></g><g><rect id="path16984" serif:id="path1698" x="321.688" y="1158.66" width="44.823" height="77.953" style="fill:#fff;"/><g transform="matrix(64.7448,0,0,64.7448,365.206,1216.03)"></g><text x="322.993px" y="1216.03px" style="font-family:'TransportNew-Heavy', 'Transport New';font-weight:900;font-size:64.745px;">o</text></g><g><rect id="path16985" serif:id="path1698" x="366.511" y="1158.66" width="46.382" height="77.953" style="fill:#fff;"/><g transform="matrix(68.826,0,0,68.826,410.969,1217.13)"></g><text x="368.022px" y="1217.13px" style="font-family:'TransportNew-Heavy', 'Transport New';font-weight:900;font-size:68.826px;">n</text></g><g><rect id="path16986" serif:id="path1698" x="458.885" y="1158.66" width="46.382" height="77.953" style="fill:#fff;"/><g transform="matrix(68.826,0,0,68.826,503.343,1217.13)"></g><text x="460.396px" y="1217.13px" style="font-family:'TransportNew-Heavy', 'Transport New';font-weight:900;font-size:68.826px;">n</text></g><g><rect id="path16987" serif:id="path1698" x="505.267" y="1158.66" width="42.874" height="77.953" style="fill:#fff;"/><path d="M544.572,1199.26l-0.13,1.624l-25.139,-0c0.043,1.039 0.303,2.003 0.779,2.891c0.477,0.887 1.104,1.667 1.884,2.338c0.78,0.671 1.678,1.191 2.696,1.559c1.018,0.368 2.089,0.552 3.215,0.552c3.248,0 6.042,-1.082 8.38,-3.248l5.457,6.691c-1.862,1.776 -3.908,3.129 -6.139,4.06c-2.23,0.931 -4.774,1.397 -7.633,1.397c-3.074,-0 -5.803,-0.509 -8.185,-1.527c-2.382,-1.017 -4.385,-2.425 -6.009,-4.222c-1.624,-1.797 -2.858,-3.887 -3.702,-6.269c-0.845,-2.382 -1.267,-4.937 -1.267,-7.665c-0,-2.642 0.401,-5.143 1.202,-7.503c0.801,-2.36 1.959,-4.407 3.475,-6.139c1.516,-1.732 3.4,-3.107 5.652,-4.125c2.252,-1.018 4.807,-1.526 7.665,-1.526c3.162,-0 5.912,0.563 8.25,1.689c2.339,1.126 4.244,2.641 5.717,4.547c1.472,1.905 2.522,4.146 3.15,6.723c0.628,2.577 0.856,5.295 0.682,8.153Zm-10.199,-5.652c0,-1.992 -0.725,-3.627 -2.176,-4.904c-1.45,-1.278 -3.237,-1.917 -5.359,-1.917c-2.035,0 -3.724,0.682 -5.067,2.047c-1.342,1.364 -2.122,2.955 -2.338,4.774l14.94,0Z" style="fill-rule:nonzero;"/></g><g><rect id="path16988" serif:id="path1698" x="412.893" y="1158.66" width="24.555" height="77.953" style="fill:#fff;"/><g transform="matrix(68.4654,0,0,68.4654,437.5,1215.96)"></g><text x="412.716px" y="1215.96px" style="font-family:'TransportNew-Heavy', 'Transport New';font-weight:900;font-size:68.465px;">l</text></g></g><g><g><rect id="path16989" serif:id="path1698" x="256.013" y="1158.66" width="41.315" height="77.953" style="fill:#fff;"/><g transform="matrix(1,0,0,0.999855,0,-0.0915016)"><g transform="matrix(68.2314,0,0,68.2314,296.084,1217.14)"></g><text x="256.032px" y="1217.14px" style="font-family:'TransportNew-Heavy', 'Transport New';font-weight:900;font-size:68.231px;">y</text></g></g><g><rect id="path169810" serif:id="path1698" x="212.749" y="1158.66" width="43.264" height="77.953" style="fill:#fff;"/><path d="M252.103,1209.55l-4.302,7.577c-1.498,-0.086 -2.857,-0.46 -4.077,-1.124c-1.22,-0.663 -2.216,-1.53 -2.986,-2.6c-1.199,1.113 -2.601,1.947 -4.206,2.504c-1.605,0.556 -3.564,0.835 -5.875,0.835c-1.841,-0 -3.607,-0.236 -5.298,-0.707c-1.691,-0.47 -3.178,-1.188 -4.463,-2.151c-1.284,-0.963 -2.311,-2.151 -3.082,-3.563c-0.77,-1.413 -1.155,-3.083 -1.155,-5.009c-0,-1.883 0.278,-3.489 0.834,-4.816c0.557,-1.327 1.263,-2.451 2.119,-3.371c0.856,-0.92 1.83,-1.659 2.922,-2.215c1.091,-0.557 2.172,-0.985 3.243,-1.284c1.07,-0.3 2.076,-0.514 3.018,-0.643c0.941,-0.128 1.69,-0.214 2.247,-0.256c0.899,-0.086 2.044,-0.182 3.435,-0.289c1.391,-0.107 2.665,-0.204 3.821,-0.289l-0,-0.514c-0,-1.584 -0.364,-2.729 -1.092,-3.435c-0.728,-0.707 -1.99,-1.06 -3.788,-1.06c-1.884,0 -3.682,0.225 -5.394,0.674c-1.712,0.45 -3.596,1.274 -5.651,2.473l-3.788,-8.027c2.611,-1.455 5.169,-2.504 7.673,-3.146c2.504,-0.642 5.105,-0.963 7.802,-0.963c4.666,-0 8.219,1.155 10.659,3.467c2.44,2.312 3.66,5.779 3.66,10.402l0,12.008c0,1.627 0.278,2.857 0.835,3.692c0.556,0.835 1.519,1.445 2.889,1.83Zm-13.869,-4.816l-0,-4.559c-0.771,0.043 -1.584,0.086 -2.44,0.129c-0.857,0.042 -1.584,0.107 -2.184,0.192c-0.727,0.086 -1.487,0.171 -2.279,0.257c-0.792,0.086 -1.509,0.268 -2.151,0.546c-0.642,0.278 -1.177,0.674 -1.606,1.188c-0.428,0.513 -0.642,1.241 -0.642,2.183c0,1.241 0.535,2.183 1.606,2.825c1.07,0.642 2.29,0.963 3.66,0.963c2.183,0 3.735,-0.363 4.655,-1.091c0.92,-0.728 1.381,-1.605 1.381,-2.633Z" style="fill-rule:nonzero;"/></g><g><rect x="160.521" y="1158.66" width="52.228" height="77.953" style="fill:#fff;"/><g transform="matrix(1,0,0,0.975357,-4.54747e-13,-16.6776)"><g transform="matrix(71.7251,0,0,71.7251,212.952,1264.98)"></g><text x="163.82px" y="1264.98px" style="font-family:'TransportNew-Heavy', 'Transport New';font-weight:900;font-size:71.725px;">P</text></g></g></g></g><g><g><g><rect id="path169811" serif:id="path1698" x="143.566" y="1080.71" width="46.382" height="77.953" style="fill:#fff;"/><g transform="matrix(69.9576,0,0,69.9576,188.199,1139.17)"></g><text x="144.895px" y="1139.17px" style="font-family:'TransportNew-Heavy', 'Transport New';font-weight:900;font-size:69.958px;">h</text></g><g><rect id="path169812" serif:id="path1698" x="266.342" y="1080.71" width="45.602" height="77.953" style="fill:#fff;"/><g transform="matrix(66.7231,0,0,66.7231,309.339,1139.16)"></g><text x="267.57px" y="1139.16px" style="font-family:'TransportNew-Heavy', 'Transport New';font-weight:900;font-size:66.723px;">g</text></g><g><rect id="path169813" serif:id="path1698" x="189.948" y="1080.71" width="43.264" height="77.953" style="fill:#fff;"/><path d="M229.302,1131.6l-4.302,7.577c-1.498,-0.085 -2.857,-0.46 -4.078,-1.123c-1.22,-0.664 -2.215,-1.531 -2.985,-2.601c-1.199,1.113 -2.601,1.948 -4.206,2.504c-1.605,0.557 -3.564,0.835 -5.876,0.835c-1.84,-0 -3.606,-0.235 -5.297,-0.706c-1.691,-0.471 -3.178,-1.188 -4.463,-2.151c-1.284,-0.964 -2.311,-2.152 -3.082,-3.564c-0.77,-1.413 -1.156,-3.082 -1.156,-5.009c0,-1.883 0.279,-3.489 0.835,-4.816c0.557,-1.327 1.263,-2.45 2.119,-3.371c0.856,-0.92 1.83,-1.658 2.922,-2.215c1.091,-0.556 2.172,-0.985 3.242,-1.284c1.071,-0.3 2.077,-0.514 3.018,-0.642c0.942,-0.129 1.691,-0.214 2.248,-0.257c0.899,-0.086 2.044,-0.182 3.435,-0.289c1.391,-0.107 2.665,-0.203 3.821,-0.289l-0,-0.514c-0,-1.584 -0.364,-2.729 -1.092,-3.435c-0.728,-0.706 -1.991,-1.06 -3.788,-1.06c-1.884,0 -3.682,0.225 -5.394,0.675c-1.713,0.449 -3.596,1.273 -5.651,2.472l-3.788,-8.027c2.611,-1.455 5.169,-2.504 7.673,-3.146c2.504,-0.642 5.105,-0.963 7.802,-0.963c4.666,-0 8.219,1.156 10.659,3.467c2.44,2.312 3.66,5.779 3.66,10.403l-0,12.007c-0,1.627 0.278,2.857 0.835,3.692c0.556,0.835 1.519,1.445 2.889,1.83Zm-13.87,-4.816l0,-4.559c-0.77,0.043 -1.583,0.086 -2.44,0.129c-0.856,0.043 -1.584,0.107 -2.183,0.192c-0.728,0.086 -1.487,0.172 -2.279,0.257c-0.792,0.086 -1.509,0.268 -2.151,0.546c-0.643,0.278 -1.178,0.674 -1.606,1.188c-0.428,0.514 -0.642,1.241 -0.642,2.183c0,1.242 0.535,2.183 1.605,2.826c1.071,0.642 2.291,0.963 3.661,0.963c2.183,-0 3.735,-0.364 4.655,-1.092c0.92,-0.728 1.38,-1.605 1.38,-2.633Z" style="fill-rule:nonzero;"/></g><g><rect id="path169814" serif:id="path1698" x="354.818" y="1080.71" width="38.976" height="77.953" style="fill:#fff;"/><g transform="matrix(64.7448,0,0,64.7448,392.985,1138.06)"></g><text x="355.951px" y="1138.06px" style="font-family:'TransportNew-Heavy', 'Transport New';font-weight:900;font-size:64.745px;">s</text></g><g><rect id="path169815" serif:id="path1698" x="233.212" y="1080.71" width="33.13" height="77.953" style="fill:#fff;"/><g transform="matrix(68.5398,0,0,68.5398,262.628,1139.13)"></g><text x="233.773px" y="1139.13px" style="font-family:'TransportNew-Heavy', 'Transport New';font-weight:900;font-size:68.54px;">r</text></g><g><rect id="path169816" serif:id="path1698" x="311.944" y="1080.71" width="42.874" height="77.953" style="fill:#fff;"/><path d="M351.249,1121.31l-0.129,1.624l-25.14,0c0.043,1.039 0.303,2.003 0.779,2.891c0.477,0.888 1.105,1.667 1.884,2.338c0.78,0.672 1.678,1.191 2.696,1.559c1.018,0.369 2.09,0.553 3.216,0.553c3.248,-0 6.041,-1.083 8.38,-3.248l5.456,6.691c-1.862,1.775 -3.908,3.128 -6.139,4.06c-2.23,0.931 -4.774,1.396 -7.632,1.396c-3.075,0 -5.804,-0.509 -8.185,-1.526c-2.382,-1.018 -4.385,-2.426 -6.009,-4.223c-1.624,-1.797 -2.859,-3.887 -3.703,-6.268c-0.845,-2.382 -1.267,-4.937 -1.267,-7.666c0,-2.642 0.401,-5.143 1.202,-7.503c0.801,-2.36 1.96,-4.406 3.475,-6.139c1.516,-1.732 3.4,-3.107 5.652,-4.125c2.252,-1.017 4.807,-1.526 7.665,-1.526c3.162,-0 5.912,0.563 8.25,1.689c2.339,1.126 4.244,2.642 5.717,4.547c1.472,1.906 2.522,4.147 3.15,6.723c0.628,2.577 0.856,5.295 0.682,8.153Zm-10.198,-5.652c-0,-1.992 -0.726,-3.626 -2.177,-4.904c-1.45,-1.278 -3.237,-1.916 -5.359,-1.916c-2.035,-0 -3.724,0.682 -5.067,2.046c-1.342,1.364 -2.122,2.956 -2.338,4.774l14.941,0Z" style="fill-rule:nonzero;"/></g><g><rect x="88.219" y="1080.71" width="55.346" height="77.953" style="fill:#fff;"/><g transform="matrix(67.2835,0,0,67.2835,143.412,1137.96)"></g><text x="88.71px" y="1137.96px" style="font-family:'TransportNew-Heavy', 'Transport New';font-weight:900;font-size:67.284px;">C</text></g></g><g><g><g><rect id="path169817" serif:id="path1698" x="461.029" y="1080.71" width="46.772" height="77.953" style="fill:#fff;"/><g transform="matrix(1,0,0,0.999855,0,-0.103308)"><g transform="matrix(68.3574,0,0,68.3574,505.913,1139.26)"></g><text x="461.275px" y="1139.26px" style="font-family:'TransportNew-Heavy', 'Transport New';font-weight:900;font-size:68.357px;">p</text></g></g></g><g><g><rect id="path169818" serif:id="path1698" x="507.8" y="1080.71" width="46.772" height="77.953" style="fill:#fff;"/><g transform="matrix(1,0,0,0.999855,0,-0.103308)"><g transform="matrix(68.3574,0,0,68.3574,552.684,1139.26)"></g><text x="508.047px" y="1139.26px" style="font-family:'TransportNew-Heavy', 'Transport New';font-weight:900;font-size:68.357px;">p</text></g></g></g><g><rect id="path169819" serif:id="path1698" x="579.127" y="1080.71" width="41.315" height="77.953" style="fill:#fff;"/><g transform="matrix(1,0,0,0.999855,0,-0.102823)"><g transform="matrix(68.2314,0,0,68.2314,619.198,1139.18)"></g><text x="579.146px" y="1139.18px" style="font-family:'TransportNew-Heavy', 'Transport New';font-weight:900;font-size:68.231px;">y</text></g></g><g><rect id="path169820" serif:id="path1698" x="418.155" y="1080.71" width="43.264" height="77.953" style="fill:#fff;"/><path d="M457.509,1131.6l-4.302,7.577c-1.499,-0.085 -2.858,-0.46 -4.078,-1.123c-1.22,-0.664 -2.215,-1.531 -2.986,-2.601c-1.198,1.113 -2.6,1.948 -4.205,2.504c-1.606,0.557 -3.564,0.835 -5.876,0.835c-1.841,-0 -3.606,-0.235 -5.297,-0.706c-1.691,-0.471 -3.179,-1.188 -4.463,-2.151c-1.284,-0.964 -2.312,-2.152 -3.082,-3.564c-0.771,-1.413 -1.156,-3.082 -1.156,-5.009c0,-1.883 0.278,-3.489 0.835,-4.816c0.556,-1.327 1.263,-2.45 2.119,-3.371c0.856,-0.92 1.83,-1.658 2.921,-2.215c1.092,-0.556 2.173,-0.985 3.243,-1.284c1.07,-0.3 2.076,-0.514 3.018,-0.642c0.942,-0.129 1.691,-0.214 2.247,-0.257c0.899,-0.086 2.044,-0.182 3.436,-0.289c1.391,-0.107 2.665,-0.203 3.82,-0.289l0,-0.514c0,-1.584 -0.364,-2.729 -1.091,-3.435c-0.728,-0.706 -1.991,-1.06 -3.789,-1.06c-1.883,0 -3.681,0.225 -5.394,0.675c-1.712,0.449 -3.595,1.273 -5.65,2.472l-3.789,-8.027c2.612,-1.455 5.169,-2.504 7.674,-3.146c2.504,-0.642 5.104,-0.963 7.801,-0.963c4.666,-0 8.219,1.156 10.659,3.467c2.441,2.312 3.661,5.779 3.661,10.403l-0,12.007c-0,1.627 0.278,2.857 0.834,3.692c0.557,0.835 1.52,1.445 2.89,1.83Zm-13.87,-4.816l0,-4.559c-0.77,0.043 -1.584,0.086 -2.44,0.129c-0.856,0.043 -1.584,0.107 -2.183,0.192c-0.728,0.086 -1.488,0.172 -2.28,0.257c-0.792,0.086 -1.509,0.268 -2.151,0.546c-0.642,0.278 -1.177,0.674 -1.605,1.188c-0.428,0.514 -0.642,1.241 -0.642,2.183c-0,1.242 0.535,2.183 1.605,2.826c1.07,0.642 2.29,0.963 3.66,0.963c2.183,-0 3.735,-0.364 4.656,-1.092c0.92,-0.728 1.38,-1.605 1.38,-2.633Z" style="fill-rule:nonzero;"/></g><g><rect id="path169821" serif:id="path1698" x="554.572" y="1080.71" width="24.555" height="77.953" style="fill:#fff;"/><g transform="matrix(68.4654,0,0,68.4654,579.18,1138.01)"></g><text x="554.395px" y="1138.01px" style="font-family:'TransportNew-Heavy', 'Transport New';font-weight:900;font-size:68.465px;">l</text></g></g></g></g></g><g><path d="M636.659,13.541l-8.352,-8.352l-626.658,626.659l8.351,8.351l626.659,-626.658Z"/><path d="M670.066,13.541l-8.352,-8.352l-656.525,656.525l8.352,8.352l656.525,-656.525Z"/><path d="M699.297,17.717l-8.352,-8.352l-685.756,685.756l8.352,8.351l685.756,-685.755Z"/><path d="M703.472,46.947l-8.351,-8.351l-656.525,656.525l8.351,8.351l656.525,-656.525Z"/><path d="M703.472,80.354l-8.351,-8.352l-623.119,623.119l8.352,8.351l623.118,-623.118Z"/></g></g></svg>