<?xml version="1.0" encoding="UTF-8" standalone="no"?><!DOCTYPE svg PUBLIC "-//W3C//DTD SVG 1.1//EN" "http://www.w3.org/Graphics/SVG/1.1/DTD/svg11.dtd"><svg width="100%" height="100%" viewBox="0 0 740 1136" version="1.1" xmlns="http://www.w3.org/2000/svg" xmlns:xlink="http://www.w3.org/1999/xlink" xml:space="preserve" xmlns:serif="http://www.serif.com/" style="fill-rule:evenodd;clip-rule:evenodd;stroke-linejoin:round;stroke-miterlimit:2;"><g transform="matrix(50,0,0,50,467.435,603.457)"></g><text x="279.813px" y="603.457px" style="font-family:'ArialMT', 'Arial', sans-serif;font-size:50px;">sw=96.1</text><rect id="_02" serif:id="02" x="0" y="0" width="739.606" height="1135.04" style="fill:none;"/><clipPath id="_clip1"><rect x="0" y="0" width="739.606" height="1135.04"/></clipPath><g clip-path="url(#_clip1)"><g><path d="M739.606,35.433c0,-19.556 -15.877,-35.433 -35.433,-35.433l-668.74,0c-19.556,0 -35.433,15.877 -35.433,35.433l0,1064.17c0,19.556 15.877,35.433 35.433,35.433l668.74,0c19.556,0 35.433,-15.877 35.433,-35.433l0,-1064.17Z"/><path d="M721.89,35.433c-0,-9.778 -7.939,-17.716 -17.717,-17.716l-668.74,-0c-9.778,-0 -17.716,7.938 -17.716,17.716l-0,810.236c-0,9.778 7.938,17.717 17.716,17.717l668.74,-0c9.778,-0 17.717,-7.939 17.717,-17.717l-0,-810.236Z" style="fill:#fff;"/><path d="M721.89,898.819c-0,-9.778 -7.939,-17.717 -17.717,-17.717l-668.74,0c-9.778,0 -17.716,7.939 -17.716,17.717l-0,200.787c-0,9.778 7.938,17.717 17.716,17.717l668.74,-0c9.778,-0 17.717,-7.939 17.717,-17.717l-0,-200.787Z" style="fill:#fff;"/><g><g><g><rect id="path1698" x="545.745" y="47.244" width="33.455" height="121.654" style="fill:#fff;"/><g transform="matrix(107.116,0,0,107.116,577.964,138.484)"></g><text x="544.972px" y="138.484px" style="font-family:'TransportNew-Heavy', 'Transport New';font-weight:900;font-size:107.116px;">i</text></g><g><rect id="path16981" serif:id="path1698" x="478.227" y="47.244" width="67.518" height="121.654" style="fill:#fff;"/><path d="M539.643,126.66l-6.714,11.824c-2.338,-0.133 -4.459,-0.718 -6.363,-1.753c-1.904,-1.036 -3.457,-2.389 -4.66,-4.059c-1.87,1.737 -4.058,3.04 -6.563,3.908c-2.505,0.869 -5.562,1.303 -9.169,1.303c-2.873,-0 -5.629,-0.367 -8.268,-1.102c-2.638,-0.735 -4.96,-1.854 -6.964,-3.357c-2.004,-1.503 -3.608,-3.357 -4.81,-5.562c-1.203,-2.204 -1.804,-4.81 -1.804,-7.816c0,-2.94 0.434,-5.445 1.303,-7.516c0.868,-2.071 1.971,-3.824 3.307,-5.261c1.336,-1.436 2.856,-2.589 4.559,-3.457c1.704,-0.868 3.391,-1.537 5.061,-2.004c1.67,-0.468 3.24,-0.802 4.71,-1.002c1.469,-0.201 2.638,-0.334 3.507,-0.401c1.403,-0.134 3.19,-0.284 5.361,-0.451c2.171,-0.167 4.159,-0.317 5.962,-0.451l0,-0.802c0,-2.471 -0.567,-4.259 -1.703,-5.361c-1.136,-1.102 -3.107,-1.653 -5.912,-1.653c-2.94,-0 -5.746,0.35 -8.418,1.052c-2.672,0.701 -5.612,1.987 -8.818,3.858l-5.913,-12.526c4.076,-2.272 8.067,-3.908 11.975,-4.91c3.908,-1.002 7.967,-1.504 12.176,-1.504c7.282,0 12.826,1.804 16.634,5.412c3.808,3.607 5.712,9.019 5.712,16.234l0,18.739c0,2.538 0.434,4.459 1.303,5.762c0.868,1.302 2.372,2.254 4.509,2.856Zm-21.645,-7.516l0,-7.115c-1.202,0.067 -2.472,0.134 -3.808,0.201c-1.336,0.066 -2.471,0.167 -3.407,0.3c-1.135,0.134 -2.321,0.267 -3.557,0.401c-1.236,0.134 -2.355,0.418 -3.357,0.852c-1.002,0.434 -1.837,1.052 -2.505,1.854c-0.668,0.801 -1.002,1.937 -1.002,3.407c-0,1.937 0.835,3.407 2.505,4.409c1.67,1.002 3.574,1.503 5.712,1.503c3.407,0 5.828,-0.568 7.265,-1.703c1.436,-1.136 2.154,-2.506 2.154,-4.109Z" style="fill-rule:nonzero;"/></g><g><rect id="path16982" serif:id="path1698" x="579.199" y="47.244" width="51.703" height="121.654" style="fill:#fff;"/><g transform="matrix(106.964,0,0,106.964,625.106,138.416)"></g><text x="580.075px" y="138.416px" style="font-family:'TransportNew-Heavy', 'Transport New';font-weight:900;font-size:106.964px;">r</text></g></g><g><g><rect id="path16983" serif:id="path1698" x="300.309" y="47.244" width="67.518" height="121.654" style="fill:#fff;"/><path d="M361.725,126.66l-6.714,11.824c-2.338,-0.133 -4.459,-0.718 -6.363,-1.753c-1.904,-1.036 -3.457,-2.389 -4.66,-4.059c-1.87,1.737 -4.058,3.04 -6.564,3.908c-2.505,0.869 -5.561,1.303 -9.169,1.303c-2.872,-0 -5.628,-0.367 -8.267,-1.102c-2.639,-0.735 -4.96,-1.854 -6.964,-3.357c-2.005,-1.503 -3.608,-3.357 -4.81,-5.562c-1.203,-2.204 -1.804,-4.81 -1.804,-7.816c-0,-2.94 0.434,-5.445 1.302,-7.516c0.869,-2.071 1.971,-3.824 3.307,-5.261c1.337,-1.436 2.856,-2.589 4.56,-3.457c1.703,-0.868 3.39,-1.537 5.06,-2.004c1.671,-0.468 3.241,-0.802 4.71,-1.002c1.47,-0.201 2.639,-0.334 3.508,-0.401c1.402,-0.134 3.19,-0.284 5.361,-0.451c2.171,-0.167 4.158,-0.317 5.962,-0.451l0,-0.802c0,-2.471 -0.568,-4.259 -1.703,-5.361c-1.136,-1.102 -3.107,-1.653 -5.913,-1.653c-2.939,-0 -5.745,0.35 -8.417,1.052c-2.672,0.701 -5.612,1.987 -8.819,3.858l-5.912,-12.526c4.075,-2.272 8.067,-3.908 11.975,-4.91c3.908,-1.002 7.967,-1.504 12.175,-1.504c7.282,0 12.827,1.804 16.635,5.412c3.808,3.607 5.712,9.019 5.712,16.234l-0,18.739c-0,2.538 0.434,4.459 1.303,5.762c0.868,1.302 2.371,2.254 4.509,2.856Zm-21.645,-7.516l-0,-7.115c-1.203,0.067 -2.472,0.134 -3.808,0.201c-1.336,0.066 -2.472,0.167 -3.407,0.3c-1.136,0.134 -2.322,0.267 -3.557,0.401c-1.236,0.134 -2.355,0.418 -3.357,0.852c-1.003,0.434 -1.838,1.052 -2.506,1.854c-0.668,0.801 -1.002,1.937 -1.002,3.407c0,1.937 0.835,3.407 2.505,4.409c1.671,1.002 3.575,1.503 5.712,1.503c3.407,0 5.829,-0.568 7.265,-1.703c1.437,-1.136 2.155,-2.506 2.155,-4.109Z" style="fill-rule:nonzero;"/></g><g><rect id="path16984" serif:id="path1698" x="367.826" y="47.244" width="72.384" height="121.654" style="fill:#fff;"/><g transform="matrix(107.41,0,0,107.41,437.208,138.484)"></g><text x="370.184px" y="138.484px" style="font-family:'TransportNew-Heavy', 'Transport New';font-weight:900;font-size:107.41px;">n</text></g><g><rect id="path16985" serif:id="path1698" x="233.399" y="47.244" width="66.909" height="121.654" style="fill:#fff;"/><path d="M294.74,110.605l-0.203,2.535l-39.233,-0c0.067,1.622 0.473,3.126 1.216,4.511c0.744,1.386 1.724,2.602 2.94,3.65c1.217,1.047 2.619,1.858 4.207,2.433c1.589,0.574 3.261,0.861 5.018,0.861c5.069,0 9.429,-1.689 13.078,-5.068l8.516,10.442c-2.906,2.771 -6.1,4.883 -9.58,6.336c-3.481,1.453 -7.452,2.179 -11.912,2.179c-4.799,0 -9.057,-0.794 -12.774,-2.382c-3.717,-1.588 -6.843,-3.785 -9.377,-6.59c-2.535,-2.804 -4.461,-6.065 -5.779,-9.783c-1.318,-3.717 -1.977,-7.704 -1.977,-11.962c0,-4.123 0.626,-8.026 1.876,-11.709c1.25,-3.684 3.058,-6.877 5.424,-9.581c2.365,-2.703 5.305,-4.849 8.819,-6.437c3.515,-1.588 7.502,-2.383 11.963,-2.383c4.934,0 9.225,0.879 12.875,2.636c3.65,1.758 6.623,4.123 8.921,7.097c2.298,2.974 3.937,6.471 4.917,10.492c0.98,4.022 1.335,8.263 1.065,12.723Zm-15.917,-8.82c0,-3.108 -1.132,-5.66 -3.396,-7.654c-2.264,-1.993 -5.052,-2.99 -8.364,-2.99c-3.176,-0 -5.812,1.064 -7.907,3.193c-2.095,2.129 -3.312,4.613 -3.65,7.451l23.317,0Z" style="fill-rule:nonzero;"/></g><g><rect id="path16986" serif:id="path1698" x="195.078" y="47.244" width="38.321" height="121.654" style="fill:#fff;"/><g transform="matrix(106.848,0,0,106.848,233.481,136.668)"></g><text x="194.802px" y="136.668px" style="font-family:'TransportNew-Heavy', 'Transport New';font-weight:900;font-size:106.848px;">l</text></g><g><rect x="108.704" y="47.244" width="86.374" height="121.654" style="fill:#fff;"/><g transform="matrix(105.003,0,0,105.003,194.837,136.594)"></g><text x="109.47px" y="136.594px" style="font-family:'TransportNew-Heavy', 'Transport New';font-weight:900;font-size:105.003px;">C</text></g></g></g><g><g><rect x="141.635" y="688.583" width="93.467" height="157.087" style="fill:#fff;"/><g transform="matrix(1,0,0,0.975357,-9.09495e-13,-74.1781)"><g transform="matrix(144.537,0,0,144.537,235.27,902.824)"></g><text x="141.466px" y="902.824px" style="font-family:'TransportNew-Heavy', 'Transport New';font-weight:900;font-size:144.537px;">Z</text></g></g><g><rect x="491.153" y="688.583" width="106.819" height="157.087" style="fill:#fff;"/><g transform="matrix(140.975,0,0,140.975,588.969,806.398)"></g><text x="495.221px" y="806.398px" style="font-family:'TransportNew-Heavy', 'Transport New';font-weight:900;font-size:140.975px;">E</text></g><g><rect x="235.101" y="688.583" width="124.098" height="157.087" style="fill:#fff;"/><g transform="matrix(1,0,0,0.975357,0,-70.6399)"><g transform="matrix(139.012,0,0,139.012,355.605,896.833)"></g><text x="238.696px" y="896.833px" style="font-family:'TransportNew-Heavy', 'Transport New';font-weight:900;font-size:139.012px;">O</text></g></g><g><rect x="359.2" y="688.583" width="131.953" height="157.087" style="fill:#fff;"/><g transform="matrix(1,0,0,0.975357,0,-74.1781)"><g transform="matrix(144.537,0,0,144.537,486.46,902.824)"></g><text x="364.037px" y="902.824px" style="font-family:'TransportNew-Heavy', 'Transport New';font-weight:900;font-size:144.537px;">N</text></g></g></g><g><g><g><rect id="path16987" serif:id="path1698" x="470.551" y="1005.12" width="25.984" height="94.488" style="fill:#fff;"/><g transform="matrix(83.1971,0,0,83.1971,495.576,1075.98)"></g><text x="469.951px" y="1075.98px" style="font-family:'TransportNew-Heavy', 'Transport New';font-weight:900;font-size:83.197px;">i</text></g><g><rect id="path16988" serif:id="path1698" x="330.236" y="1005.12" width="54.331" height="94.488" style="fill:#fff;"/><g transform="matrix(78.4786,0,0,78.4786,382.986,1074.65)"></g><text x="331.818px" y="1074.65px" style="font-family:'TransportNew-Heavy', 'Transport New';font-weight:900;font-size:78.479px;">o</text></g><g><rect id="path16989" serif:id="path1698" x="384.567" y="1005.12" width="56.22" height="94.488" style="fill:#fff;"/><g transform="matrix(83.4255,0,0,83.4255,438.456,1075.98)"></g><text x="386.398px" y="1075.98px" style="font-family:'TransportNew-Heavy', 'Transport New';font-weight:900;font-size:83.425px;">n</text></g><g><rect id="path169810" serif:id="path1698" x="496.535" y="1005.12" width="56.22" height="94.488" style="fill:#fff;"/><g transform="matrix(83.4255,0,0,83.4255,550.424,1075.98)"></g><text x="498.367px" y="1075.98px" style="font-family:'TransportNew-Heavy', 'Transport New';font-weight:900;font-size:83.425px;">n</text></g><g><rect id="path169811" serif:id="path1698" x="552.756" y="1005.12" width="51.969" height="94.488" style="fill:#fff;"/><path d="M600.399,1054.33l-0.157,1.968l-30.473,0c0.053,1.26 0.368,2.428 0.945,3.504c0.577,1.076 1.339,2.021 2.283,2.835c0.945,0.813 2.035,1.443 3.268,1.89c1.234,0.446 2.533,0.669 3.898,0.669c3.937,-0 7.323,-1.312 10.157,-3.937l6.614,8.11c-2.257,2.152 -4.737,3.793 -7.44,4.921c-2.704,1.129 -5.788,1.693 -9.252,1.693c-3.727,0 -7.035,-0.617 -9.922,-1.85c-2.887,-1.234 -5.315,-2.94 -7.283,-5.118c-1.969,-2.179 -3.465,-4.712 -4.488,-7.599c-1.024,-2.887 -1.536,-5.984 -1.536,-9.291c0,-3.202 0.486,-6.234 1.457,-9.094c0.971,-2.861 2.375,-5.342 4.212,-7.441c1.838,-2.1 4.121,-3.767 6.851,-5c2.73,-1.234 5.827,-1.851 9.291,-1.851c3.832,0 7.166,0.683 10,2.047c2.835,1.365 5.145,3.203 6.929,5.512c1.785,2.31 3.058,5.026 3.819,8.15c0.761,3.123 1.037,6.417 0.827,9.882Zm-12.362,-6.851c-0,-2.414 -0.879,-4.396 -2.638,-5.945c-1.759,-1.548 -3.924,-2.322 -6.496,-2.322c-2.467,-0 -4.514,0.826 -6.142,2.48c-1.627,1.653 -2.572,3.583 -2.834,5.787l18.11,0Z" style="fill-rule:nonzero;"/></g><g><rect id="path169812" serif:id="path1698" x="440.787" y="1005.12" width="29.764" height="94.488" style="fill:#fff;"/><g transform="matrix(82.9884,0,0,82.9884,470.615,1074.57)"></g><text x="440.573px" y="1074.57px" style="font-family:'TransportNew-Heavy', 'Transport New';font-weight:900;font-size:82.988px;">l</text></g></g><g><g><rect id="path169813" serif:id="path1698" x="250.63" y="1005.12" width="50.079" height="94.488" style="fill:#fff;"/><g transform="matrix(1,0,0,0.999855,-4.54747e-13,-0.168907)"><g transform="matrix(82.7048,0,0,82.7048,299.201,1076)"></g><text x="250.653px" y="1076px" style="font-family:'TransportNew-Heavy', 'Transport New';font-weight:900;font-size:82.705px;">y</text></g></g><g><rect id="path169814" serif:id="path1698" x="198.189" y="1005.12" width="52.441" height="94.488" style="fill:#fff;"/><path d="M245.891,1066.8l-5.215,9.184c-1.816,-0.104 -3.463,-0.558 -4.942,-1.362c-1.479,-0.804 -2.685,-1.855 -3.619,-3.152c-1.453,1.349 -3.152,2.361 -5.098,3.035c-1.946,0.675 -4.32,1.012 -7.122,1.012c-2.231,0 -4.371,-0.285 -6.421,-0.856c-2.05,-0.571 -3.853,-1.44 -5.409,-2.607c-1.557,-1.168 -2.802,-2.608 -3.736,-4.32c-0.934,-1.712 -1.401,-3.736 -1.401,-6.071c-0,-2.283 0.337,-4.229 1.012,-5.837c0.674,-1.609 1.53,-2.971 2.568,-4.086c1.038,-1.116 2.218,-2.011 3.541,-2.686c1.324,-0.674 2.634,-1.193 3.931,-1.556c1.297,-0.364 2.517,-0.623 3.658,-0.779c1.142,-0.155 2.05,-0.259 2.724,-0.311c1.09,-0.104 2.478,-0.22 4.164,-0.35c1.687,-0.13 3.23,-0.247 4.631,-0.35l0,-0.623c0,-1.92 -0.441,-3.308 -1.323,-4.164c-0.882,-0.856 -2.413,-1.284 -4.592,-1.284c-2.283,-0 -4.462,0.272 -6.538,0.817c-2.075,0.545 -4.359,1.544 -6.849,2.996l-4.592,-9.729c3.165,-1.764 6.265,-3.035 9.301,-3.813c3.035,-0.779 6.187,-1.168 9.456,-1.168c5.656,0 9.963,1.401 12.92,4.203c2.958,2.802 4.437,7.005 4.437,12.609l-0,14.555c-0,1.971 0.337,3.463 1.012,4.475c0.674,1.012 1.842,1.751 3.502,2.218Zm-16.812,-5.837l0,-5.526c-0.934,0.051 -1.919,0.103 -2.957,0.155c-1.038,0.052 -1.92,0.13 -2.647,0.234c-0.882,0.104 -1.803,0.207 -2.763,0.311c-0.96,0.104 -1.829,0.324 -2.607,0.662c-0.778,0.337 -1.427,0.817 -1.946,1.44c-0.519,0.622 -0.778,1.504 -0.778,2.646c-0,1.505 0.649,2.646 1.946,3.424c1.297,0.779 2.776,1.168 4.436,1.168c2.646,-0 4.527,-0.441 5.643,-1.323c1.116,-0.882 1.673,-1.946 1.673,-3.191Z" style="fill-rule:nonzero;"/></g><g><rect x="134.882" y="1005.12" width="63.307" height="94.488" style="fill:#fff;"/><g transform="matrix(1,0,0,0.975357,0,-30.0559)"><g transform="matrix(86.9396,0,0,86.9396,198.435,1133.99)"></g><text x="138.881px" y="1133.99px" style="font-family:'TransportNew-Heavy', 'Transport New';font-weight:900;font-size:86.94px;">P</text></g></g></g></g><g><g><g><rect id="path169815" serif:id="path1698" x="114.331" y="910.63" width="56.22" height="94.488" style="fill:#fff;"/><g transform="matrix(84.7971,0,0,84.7971,168.431,981.496)"></g><text x="115.942px" y="981.496px" style="font-family:'TransportNew-Heavy', 'Transport New';font-weight:900;font-size:84.797px;">h</text></g><g><rect id="path169816" serif:id="path1698" x="263.15" y="910.63" width="55.276" height="94.488" style="fill:#fff;"/><g transform="matrix(80.8765,0,0,80.8765,315.268,981.484)"></g><text x="264.639px" y="981.484px" style="font-family:'TransportNew-Heavy', 'Transport New';font-weight:900;font-size:80.877px;">g</text></g><g><rect id="path169817" serif:id="path1698" x="170.551" y="910.63" width="52.441" height="94.488" style="fill:#fff;"/><path d="M218.253,972.312l-5.214,9.184c-1.817,-0.104 -3.464,-0.558 -4.943,-1.362c-1.479,-0.804 -2.685,-1.855 -3.619,-3.152c-1.453,1.349 -3.152,2.361 -5.098,3.035c-1.946,0.675 -4.32,1.012 -7.122,1.012c-2.231,0 -4.371,-0.285 -6.421,-0.856c-2.049,-0.571 -3.852,-1.44 -5.409,-2.607c-1.557,-1.168 -2.802,-2.608 -3.736,-4.32c-0.934,-1.712 -1.401,-3.736 -1.401,-6.071c-0,-2.283 0.337,-4.229 1.012,-5.837c0.674,-1.609 1.531,-2.971 2.568,-4.087c1.038,-1.115 2.218,-2.01 3.542,-2.685c1.323,-0.674 2.633,-1.193 3.93,-1.556c1.297,-0.364 2.517,-0.623 3.658,-0.779c1.142,-0.155 2.05,-0.259 2.724,-0.311c1.09,-0.104 2.478,-0.221 4.164,-0.35c1.687,-0.13 3.23,-0.247 4.631,-0.351l0,-0.622c0,-1.92 -0.441,-3.308 -1.323,-4.164c-0.882,-0.856 -2.413,-1.285 -4.592,-1.285c-2.283,0 -4.462,0.273 -6.538,0.818c-2.075,0.545 -4.358,1.543 -6.849,2.996l-4.592,-9.729c3.165,-1.764 6.265,-3.035 9.301,-3.814c3.035,-0.778 6.188,-1.167 9.456,-1.167c5.656,-0 9.963,1.401 12.921,4.203c2.957,2.802 4.436,7.005 4.436,12.609l0,14.554c0,1.972 0.337,3.464 1.012,4.476c0.674,1.011 1.842,1.751 3.502,2.218Zm-16.811,-5.838l-0,-5.526c-0.934,0.052 -1.92,0.104 -2.958,0.156c-1.038,0.052 -1.92,0.13 -2.646,0.234c-0.882,0.103 -1.803,0.207 -2.763,0.311c-0.96,0.104 -1.829,0.324 -2.608,0.661c-0.778,0.338 -1.427,0.818 -1.946,1.44c-0.518,0.623 -0.778,1.505 -0.778,2.647c0,1.504 0.649,2.646 1.946,3.424c1.297,0.779 2.776,1.168 4.436,1.168c2.647,-0 4.528,-0.441 5.643,-1.323c1.116,-0.883 1.674,-1.946 1.674,-3.192Z" style="fill-rule:nonzero;"/></g><g><rect id="path169818" serif:id="path1698" x="370.394" y="910.63" width="47.244" height="94.488" style="fill:#fff;"/><g transform="matrix(78.4786,0,0,78.4786,416.657,980.141)"></g><text x="371.767px" y="980.141px" style="font-family:'TransportNew-Heavy', 'Transport New';font-weight:900;font-size:78.479px;">s</text></g><g><rect id="path169819" serif:id="path1698" x="222.992" y="910.63" width="40.157" height="94.488" style="fill:#fff;"/><g transform="matrix(83.0785,0,0,83.0785,258.648,981.443)"></g><text x="223.672px" y="981.443px" style="font-family:'TransportNew-Heavy', 'Transport New';font-weight:900;font-size:83.079px;">r</text></g><g><rect id="path169820" serif:id="path1698" x="318.425" y="910.63" width="51.969" height="94.488" style="fill:#fff;"/><path d="M366.068,959.843l-0.157,1.968l-30.473,0c0.053,1.26 0.368,2.428 0.945,3.504c0.578,1.076 1.339,2.021 2.284,2.835c0.945,0.813 2.034,1.443 3.267,1.889c1.234,0.447 2.533,0.67 3.898,0.67c3.937,-0 7.323,-1.313 10.158,-3.937l6.614,8.11c-2.257,2.152 -4.738,3.793 -7.441,4.921c-2.704,1.129 -5.788,1.693 -9.252,1.693c-3.727,0 -7.034,-0.617 -9.921,-1.85c-2.888,-1.234 -5.315,-2.94 -7.284,-5.118c-1.968,-2.179 -3.464,-4.712 -4.488,-7.599c-1.024,-2.887 -1.536,-5.984 -1.536,-9.291c0,-3.202 0.486,-6.234 1.457,-9.095c0.971,-2.861 2.376,-5.341 4.213,-7.441c1.837,-2.099 4.121,-3.766 6.85,-5c2.73,-1.233 5.827,-1.85 9.292,-1.85c3.832,-0 7.165,0.682 10,2.047c2.834,1.365 5.144,3.202 6.929,5.512c1.784,2.31 3.057,5.026 3.819,8.15c0.761,3.123 1.036,6.417 0.826,9.882Zm-12.362,-6.851c0,-2.415 -0.879,-4.396 -2.638,-5.945c-1.758,-1.548 -3.924,-2.323 -6.496,-2.323c-2.467,0 -4.514,0.827 -6.141,2.481c-1.628,1.653 -2.573,3.582 -2.835,5.787l18.11,0Z" style="fill-rule:nonzero;"/></g><g><rect x="47.244" y="910.63" width="67.087" height="94.488" style="fill:#fff;"/><g transform="matrix(81.5558,0,0,81.5558,114.144,980.028)"></g><text x="47.839px" y="980.028px" style="font-family:'TransportNew-Heavy', 'Transport New';font-weight:900;font-size:81.556px;">C</text></g></g><g><g><g><rect id="path169821" serif:id="path1698" x="499.134" y="910.63" width="56.693" height="94.488" style="fill:#fff;"/><g transform="matrix(1,0,0,0.999855,0,-0.183218)"><g transform="matrix(82.8575,0,0,82.8575,553.539,981.597)"></g><text x="499.433px" y="981.597px" style="font-family:'TransportNew-Heavy', 'Transport New';font-weight:900;font-size:82.857px;">p</text></g></g></g><g><g><rect id="path169822" serif:id="path1698" x="555.827" y="910.63" width="56.693" height="94.488" style="fill:#fff;"/><g transform="matrix(1,0,0,0.999855,0,-0.183218)"><g transform="matrix(82.8575,0,0,82.8575,610.232,981.597)"></g><text x="556.126px" y="981.597px" style="font-family:'TransportNew-Heavy', 'Transport New';font-weight:900;font-size:82.857px;">p</text></g></g></g><g><rect id="path169823" serif:id="path1698" x="642.283" y="910.63" width="50.079" height="94.488" style="fill:#fff;"/><g transform="matrix(1,0,0,0.999855,-4.54747e-13,-0.18263)"><g transform="matrix(82.7048,0,0,82.7048,690.854,981.509)"></g><text x="642.307px" y="981.509px" style="font-family:'TransportNew-Heavy', 'Transport New';font-weight:900;font-size:82.705px;">y</text></g></g><g><rect id="path169824" serif:id="path1698" x="447.165" y="910.63" width="52.441" height="94.488" style="fill:#fff;"/><path d="M494.867,972.312l-5.214,9.184c-1.816,-0.104 -3.464,-0.558 -4.943,-1.362c-1.478,-0.804 -2.685,-1.855 -3.619,-3.152c-1.453,1.349 -3.152,2.361 -5.098,3.035c-1.946,0.675 -4.319,1.012 -7.121,1.012c-2.232,0 -4.372,-0.285 -6.422,-0.856c-2.049,-0.571 -3.852,-1.44 -5.409,-2.607c-1.557,-1.168 -2.802,-2.608 -3.736,-4.32c-0.934,-1.712 -1.401,-3.736 -1.401,-6.071c0,-2.283 0.337,-4.229 1.012,-5.837c0.675,-1.609 1.531,-2.971 2.568,-4.087c1.038,-1.115 2.219,-2.01 3.542,-2.685c1.323,-0.674 2.633,-1.193 3.93,-1.556c1.298,-0.364 2.517,-0.623 3.658,-0.779c1.142,-0.155 2.05,-0.259 2.725,-0.311c1.089,-0.104 2.477,-0.221 4.164,-0.35c1.686,-0.13 3.23,-0.247 4.631,-0.351l-0,-0.622c-0,-1.92 -0.441,-3.308 -1.324,-4.164c-0.882,-0.856 -2.412,-1.285 -4.592,-1.285c-2.283,0 -4.462,0.273 -6.538,0.818c-2.075,0.545 -4.358,1.543 -6.849,2.996l-4.592,-9.729c3.165,-1.764 6.266,-3.035 9.301,-3.814c3.036,-0.778 6.188,-1.167 9.457,-1.167c5.655,-0 9.962,1.401 12.92,4.203c2.957,2.802 4.436,7.005 4.436,12.609l0,14.554c0,1.972 0.338,3.464 1.012,4.476c0.675,1.011 1.842,1.751 3.502,2.218Zm-16.811,-5.838l-0,-5.526c-0.934,0.052 -1.92,0.104 -2.958,0.156c-1.038,0.052 -1.92,0.13 -2.646,0.234c-0.882,0.103 -1.803,0.207 -2.763,0.311c-0.96,0.104 -1.829,0.324 -2.608,0.661c-0.778,0.338 -1.426,0.818 -1.945,1.44c-0.519,0.623 -0.779,1.505 -0.779,2.647c0,1.504 0.649,2.646 1.946,3.424c1.297,0.779 2.776,1.168 4.437,1.168c2.646,-0 4.527,-0.441 5.642,-1.323c1.116,-0.883 1.674,-1.946 1.674,-3.192Z" style="fill-rule:nonzero;"/></g><g><rect id="path169825" serif:id="path1698" x="612.52" y="910.63" width="29.764" height="94.488" style="fill:#fff;"/><g transform="matrix(82.9884,0,0,82.9884,642.347,980.085)"></g><text x="612.305px" y="980.085px" style="font-family:'TransportNew-Heavy', 'Transport New';font-weight:900;font-size:82.988px;">l</text></g></g></g><clipPath id="_clip2"><rect id="S68-CAZ---A.afdesign" serif:id="S68 CAZ - A.afdesign" x="133.583" y="186.614" width="472.441" height="472.441"/></clipPath><g clip-path="url(#_clip2)"><g><circle cx="369.803" cy="422.835" r="236.22" style="fill:#5e9732;"/><clipPath id="_clip3"><rect id="S68-CAZ-A.afdesign" serif:id="S68 CAZ A.afdesign" x="187.167" y="286.614" width="377.124" height="255.906"/></clipPath><g clip-path="url(#_clip3)"><path d="M505.528,399.398l1.097,0.247l1.055,0.247c33.159,7.885 56.806,37.174 56.61,70.471l0,0.986c-0.656,39.341 -33.646,71.034 -74.032,71.17l-228.383,-0c-20.439,0.105 -39.772,-7.921 -53.953,-22.231l-0.844,-0.863l-0.801,-0.862l-1.603,-1.808l-0.802,-0.946l-0.759,-0.904c-14.765,-18.193 -19.621,-42.237 -13.119,-64.513l0.38,-1.356l0.464,-1.397l0.464,-1.315c4.432,-12.563 12.558,-23.78 23.116,-32.174l1.772,-1.356l0.127,-0.123l0.084,-0.041l0.042,-0.041l0,-0.083l-0.042,-0.246l-0.042,-0.493l-0.338,-4.109l-0.042,-1.028l-0.084,-1.027l-0.042,-1.027l-0,-1.027l-0.043,-1.028c0.022,-1.741 -0.046,-3.529 0.043,-5.259l0.042,-0.987l0.042,-0.945l0.084,-1.972l0.085,-0.945c2.801,-39.919 27.295,-75.343 63.781,-93.523l2.658,-1.233c36.322,-16.962 80.076,-14.255 113.896,7.232l0.169,0.082l-0,0.041l0.042,0c14.934,9.453 27.547,22.18 36.7,37.064l0.042,0.083l0.042,-0c34.289,0.162 64.252,23.678 71.839,56.212l0.253,1.027Zm-258.797,124.547l0.042,0l0,-0.041l0.042,0l0.043,-0.041l0.042,-0.082l0.084,-0.041c1.16,-1.175 2.397,-2.299 3.544,-3.493l0.506,-0.493c2.494,-2.367 4.936,-4.812 7.424,-7.191l0.38,-0.411l0.843,-0.821c12.194,-11.8 24.308,-23.687 36.489,-35.503l4.219,-4.109c37.785,-36.83 75.595,-73.632 113.39,-110.453l0.97,-0.945c2.013,-1.951 4.018,-3.921 6.032,-5.876l0.042,-0.041l-0.042,-0.041l-0.042,-0.124c-19.599,-34.922 -58.385,-54.687 -99.005,-50.336l-0.971,0.123l-0.928,0.123c-31.493,3.946 -59.237,22.537 -74.538,49.597l-2.109,3.904c-8.389,16.662 -11.701,35.094 -9.66,53.542l0.126,0.945l0.084,0.945l0.127,0.904l0.169,0.945l0.126,0.945l0.169,0.904l0.169,0.945l0.168,0.904l0.169,0.945l0.169,0.904l0.084,0.206l0,0.082l-0.042,0.041l-0.084,0.041l-0.296,0.164l-1.265,0.658l-0.633,0.37c-2.435,1.345 -4.961,3.036 -7.129,4.766l-0.548,0.452l-0.549,0.411l-0.548,0.493c-4.937,4.084 -9.015,9.107 -12.275,14.546l-1.013,1.85l-0.337,0.657c-15.826,31.012 0.547,68.122 34.675,78.278l0.843,0.247l0.844,0.205Zm182.824,-107.987l-28.685,83.703l19.236,-0l4.64,-14.752l32.482,-0l4.598,14.752l19.278,-0l-28.685,-83.703l-22.864,0Zm11.39,17.505l11.6,36.735l-23.116,0l11.516,-36.735Z" style="fill:#fff;fill-rule:nonzero;"/></g></g></g></g></g></svg>