<?xml version="1.0" encoding="UTF-8" standalone="no"?><!DOCTYPE svg PUBLIC "-//W3C//DTD SVG 1.1//EN" "http://www.w3.org/Graphics/SVG/1.1/DTD/svg11.dtd"><svg width="100%" height="100%" viewBox="0 0 740 1366" version="1.1" xmlns="http://www.w3.org/2000/svg" xmlns:xlink="http://www.w3.org/1999/xlink" xml:space="preserve" xmlns:serif="http://www.serif.com/" style="fill-rule:evenodd;clip-rule:evenodd;stroke-linejoin:round;stroke-miterlimit:2;"><g transform="matrix(50,0,0,50,504.019,700.355)"></g><text x="236.685px" y="700.355px" style="font-family:'ArialMT', 'Arial', sans-serif;font-size:50px;">sw=1<tspan x="351.09px 378.897px " y="700.355px 700.355px ">15</tspan>.602</text><rect id="_01" serif:id="01" x="0" y="0" width="739.606" height="1365.38" style="fill:none;"/><clipPath id="_clip1"><rect id="_011" serif:id="01" x="0" y="0" width="739.606" height="1365.38"/></clipPath><g clip-path="url(#_clip1)"><g><path d="M739.606,35.433c0,-19.556 -15.877,-35.433 -35.433,-35.433l-668.74,-0c-19.556,-0 -35.433,15.877 -35.433,35.433l0,1294.52c0,19.556 15.877,35.433 35.433,35.433l668.74,0c19.556,0 35.433,-15.877 35.433,-35.433l0,-1294.52Z"/><path d="M721.89,35.433c-0,-9.778 -7.939,-17.716 -17.717,-17.716l-668.74,-0c-9.778,-0 -17.716,7.938 -17.716,17.716l-0,810.236c-0,9.778 7.938,17.717 17.716,17.717l668.74,-0c9.778,-0 17.717,-7.939 17.717,-17.717l-0,-810.236Z" style="fill:#fff;"/><path d="M721.89,898.819c-0,-9.778 -7.939,-17.717 -17.717,-17.717l-668.74,0c-9.778,0 -17.716,7.939 -17.716,17.717l-0,431.131c-0,9.778 7.938,17.717 17.716,17.717l668.74,-0c9.778,-0 17.717,-7.939 17.717,-17.717l-0,-431.131Z" style="fill:#fff;"/><g><g><g><rect id="path1698" x="545.745" y="47.244" width="33.455" height="121.654" style="fill:#fff;"/><g transform="matrix(107.116,0,0,107.116,577.964,138.484)"></g><text x="544.972px" y="138.484px" style="font-family:'TransportNew-Heavy', 'Transport New';font-weight:900;font-size:107.116px;">i</text></g><g><rect id="path16981" serif:id="path1698" x="478.227" y="47.244" width="67.518" height="121.654" style="fill:#fff;"/><path d="M539.643,126.66l-6.714,11.824c-2.338,-0.133 -4.459,-0.718 -6.363,-1.753c-1.904,-1.036 -3.457,-2.389 -4.66,-4.059c-1.87,1.737 -4.058,3.04 -6.563,3.908c-2.505,0.869 -5.562,1.303 -9.169,1.303c-2.873,-0 -5.629,-0.367 -8.268,-1.102c-2.638,-0.735 -4.96,-1.854 -6.964,-3.357c-2.004,-1.503 -3.608,-3.357 -4.81,-5.562c-1.203,-2.205 -1.804,-4.81 -1.804,-7.816c0,-2.94 0.434,-5.445 1.303,-7.516c0.868,-2.071 1.971,-3.825 3.307,-5.261c1.336,-1.436 2.856,-2.589 4.559,-3.457c1.704,-0.869 3.391,-1.537 5.061,-2.004c1.67,-0.468 3.24,-0.802 4.71,-1.002c1.469,-0.201 2.638,-0.334 3.507,-0.401c1.403,-0.134 3.19,-0.284 5.361,-0.451c2.171,-0.167 4.159,-0.317 5.962,-0.451l0,-0.802c0,-2.472 -0.567,-4.259 -1.703,-5.361c-1.136,-1.102 -3.107,-1.653 -5.912,-1.653c-2.94,-0 -5.746,0.35 -8.418,1.052c-2.672,0.701 -5.612,1.987 -8.818,3.858l-5.913,-12.526c4.076,-2.272 8.067,-3.908 11.975,-4.91c3.908,-1.002 7.967,-1.504 12.176,-1.504c7.282,0 12.826,1.804 16.634,5.412c3.808,3.607 5.712,9.019 5.712,16.234l0,18.739c0,2.538 0.434,4.459 1.303,5.762c0.868,1.302 2.372,2.254 4.509,2.856Zm-21.645,-7.516l0,-7.115c-1.202,0.067 -2.472,0.134 -3.808,0.201c-1.336,0.066 -2.471,0.167 -3.407,0.3c-1.135,0.134 -2.321,0.267 -3.557,0.401c-1.236,0.134 -2.355,0.418 -3.357,0.852c-1.002,0.434 -1.837,1.052 -2.505,1.854c-0.668,0.801 -1.002,1.937 -1.002,3.407c-0,1.937 0.835,3.407 2.505,4.409c1.67,1.002 3.574,1.503 5.712,1.503c3.407,0 5.828,-0.568 7.265,-1.704c1.436,-1.135 2.154,-2.505 2.154,-4.108Z" style="fill-rule:nonzero;"/></g><g><rect id="path16982" serif:id="path1698" x="579.199" y="47.244" width="51.703" height="121.654" style="fill:#fff;"/><g transform="matrix(106.964,0,0,106.964,625.106,138.416)"></g><text x="580.075px" y="138.416px" style="font-family:'TransportNew-Heavy', 'Transport New';font-weight:900;font-size:106.964px;">r</text></g></g><g><g><rect id="path16983" serif:id="path1698" x="300.309" y="47.244" width="67.518" height="121.654" style="fill:#fff;"/><path d="M361.725,126.66l-6.714,11.824c-2.338,-0.133 -4.459,-0.718 -6.363,-1.753c-1.904,-1.036 -3.457,-2.389 -4.66,-4.059c-1.87,1.737 -4.058,3.04 -6.564,3.908c-2.505,0.869 -5.561,1.303 -9.169,1.303c-2.872,-0 -5.628,-0.367 -8.267,-1.102c-2.639,-0.735 -4.96,-1.854 -6.964,-3.357c-2.005,-1.503 -3.608,-3.357 -4.81,-5.562c-1.203,-2.205 -1.804,-4.81 -1.804,-7.816c-0,-2.94 0.434,-5.445 1.302,-7.516c0.869,-2.071 1.971,-3.825 3.307,-5.261c1.337,-1.436 2.856,-2.589 4.56,-3.457c1.703,-0.869 3.39,-1.537 5.06,-2.004c1.671,-0.468 3.241,-0.802 4.71,-1.002c1.47,-0.201 2.639,-0.334 3.508,-0.401c1.402,-0.134 3.19,-0.284 5.361,-0.451c2.171,-0.167 4.158,-0.317 5.962,-0.451l0,-0.802c0,-2.472 -0.568,-4.259 -1.703,-5.361c-1.136,-1.102 -3.107,-1.653 -5.913,-1.653c-2.939,-0 -5.745,0.35 -8.417,1.052c-2.672,0.701 -5.612,1.987 -8.819,3.858l-5.912,-12.526c4.075,-2.272 8.067,-3.908 11.975,-4.91c3.908,-1.002 7.967,-1.504 12.175,-1.504c7.282,0 12.827,1.804 16.635,5.412c3.808,3.607 5.712,9.019 5.712,16.234l-0,18.739c-0,2.538 0.434,4.459 1.303,5.762c0.868,1.302 2.371,2.254 4.509,2.856Zm-21.645,-7.516l-0,-7.115c-1.203,0.067 -2.472,0.134 -3.808,0.201c-1.336,0.066 -2.472,0.167 -3.407,0.3c-1.136,0.134 -2.322,0.267 -3.557,0.401c-1.236,0.134 -2.355,0.418 -3.357,0.852c-1.003,0.434 -1.838,1.052 -2.506,1.854c-0.668,0.801 -1.002,1.937 -1.002,3.407c0,1.937 0.835,3.407 2.505,4.409c1.671,1.002 3.575,1.503 5.712,1.503c3.407,0 5.829,-0.568 7.265,-1.704c1.437,-1.135 2.155,-2.505 2.155,-4.108Z" style="fill-rule:nonzero;"/></g><g><rect id="path16984" serif:id="path1698" x="367.826" y="47.244" width="72.384" height="121.654" style="fill:#fff;"/><g transform="matrix(107.41,0,0,107.41,437.208,138.484)"></g><text x="370.184px" y="138.484px" style="font-family:'TransportNew-Heavy', 'Transport New';font-weight:900;font-size:107.41px;">n</text></g><g><rect id="path16985" serif:id="path1698" x="233.399" y="47.244" width="66.909" height="121.654" style="fill:#fff;"/><path d="M294.74,110.605l-0.203,2.535l-39.233,-0c0.067,1.622 0.473,3.126 1.216,4.511c0.744,1.386 1.724,2.602 2.94,3.65c1.217,1.047 2.619,1.858 4.207,2.433c1.589,0.574 3.261,0.861 5.018,0.861c5.069,0 9.429,-1.689 13.078,-5.068l8.516,10.441c-2.906,2.771 -6.1,4.884 -9.58,6.337c-3.481,1.453 -7.452,2.179 -11.912,2.179c-4.799,0 -9.057,-0.794 -12.774,-2.382c-3.717,-1.588 -6.843,-3.785 -9.377,-6.59c-2.535,-2.805 -4.461,-6.066 -5.779,-9.783c-1.318,-3.717 -1.977,-7.704 -1.977,-11.962c0,-4.123 0.626,-8.026 1.876,-11.709c1.25,-3.684 3.058,-6.877 5.424,-9.581c2.365,-2.703 5.305,-4.849 8.819,-6.437c3.515,-1.588 7.502,-2.383 11.963,-2.383c4.934,0 9.225,0.879 12.875,2.636c3.65,1.758 6.623,4.123 8.921,7.097c2.298,2.973 3.937,6.471 4.917,10.492c0.98,4.022 1.335,8.263 1.065,12.723Zm-15.917,-8.82c0,-3.109 -1.132,-5.66 -3.396,-7.654c-2.264,-1.993 -5.052,-2.99 -8.364,-2.99c-3.176,-0 -5.812,1.064 -7.907,3.193c-2.095,2.129 -3.312,4.613 -3.65,7.451l23.317,0Z" style="fill-rule:nonzero;"/></g><g><rect id="path16986" serif:id="path1698" x="195.078" y="47.244" width="38.321" height="121.654" style="fill:#fff;"/><g transform="matrix(106.848,0,0,106.848,233.481,136.668)"></g><text x="194.802px" y="136.668px" style="font-family:'TransportNew-Heavy', 'Transport New';font-weight:900;font-size:106.848px;">l</text></g><g><rect x="108.704" y="47.244" width="86.374" height="121.654" style="fill:#fff;"/><g transform="matrix(105.003,0,0,105.003,194.837,136.594)"></g><text x="109.47px" y="136.594px" style="font-family:'TransportNew-Heavy', 'Transport New';font-weight:900;font-size:105.003px;">C</text></g></g></g><g><g><rect x="141.635" y="688.583" width="93.467" height="157.087" style="fill:#fff;"/><g transform="matrix(1,0,0,0.975357,-9.09495e-13,-74.1781)"><g transform="matrix(144.537,0,0,144.537,235.27,902.824)"></g><text x="141.466px" y="902.824px" style="font-family:'TransportNew-Heavy', 'Transport New';font-weight:900;font-size:144.537px;">Z</text></g></g><g><rect x="491.153" y="688.583" width="106.819" height="157.087" style="fill:#fff;"/><g transform="matrix(140.975,0,0,140.975,588.969,806.398)"></g><text x="495.221px" y="806.398px" style="font-family:'TransportNew-Heavy', 'Transport New';font-weight:900;font-size:140.975px;">E</text></g><g><rect x="235.101" y="688.583" width="124.098" height="157.087" style="fill:#fff;"/><g transform="matrix(1,0,0,0.975357,0,-70.6399)"><g transform="matrix(139.012,0,0,139.012,355.605,896.833)"></g><text x="238.696px" y="896.833px" style="font-family:'TransportNew-Heavy', 'Transport New';font-weight:900;font-size:139.012px;">O</text></g></g><g><rect x="359.2" y="688.583" width="131.953" height="157.087" style="fill:#fff;"/><g transform="matrix(1,0,0,0.975357,9.09495e-13,-74.1781)"><g transform="matrix(144.537,0,0,144.537,486.46,902.824)"></g><text x="364.037px" y="902.824px" style="font-family:'TransportNew-Heavy', 'Transport New';font-weight:900;font-size:144.537px;">N</text></g></g></g><g><g><g><g><g><rect id="path16987" serif:id="path1698" x="470.551" y="1235.46" width="25.984" height="94.488" style="fill:#fff;"/><g transform="matrix(83.1971,0,0,83.1971,495.576,1306.33)"></g><text x="469.951px" y="1306.33px" style="font-family:'TransportNew-Heavy', 'Transport New';font-weight:900;font-size:83.197px;">i</text></g><g><rect id="path16988" serif:id="path1698" x="330.236" y="1235.46" width="54.331" height="94.488" style="fill:#fff;"/><g transform="matrix(78.4786,0,0,78.4786,382.986,1304.99)"></g><text x="331.818px" y="1304.99px" style="font-family:'TransportNew-Heavy', 'Transport New';font-weight:900;font-size:78.479px;">o</text></g><g><rect id="path16989" serif:id="path1698" x="384.567" y="1235.46" width="56.22" height="94.488" style="fill:#fff;"/><g transform="matrix(83.4255,0,0,83.4255,438.456,1306.33)"></g><text x="386.398px" y="1306.33px" style="font-family:'TransportNew-Heavy', 'Transport New';font-weight:900;font-size:83.425px;">n</text></g><g><rect id="path169810" serif:id="path1698" x="496.535" y="1235.46" width="56.22" height="94.488" style="fill:#fff;"/><g transform="matrix(83.4255,0,0,83.4255,550.424,1306.33)"></g><text x="498.367px" y="1306.33px" style="font-family:'TransportNew-Heavy', 'Transport New';font-weight:900;font-size:83.425px;">n</text></g><g><rect id="path169811" serif:id="path1698" x="552.756" y="1235.46" width="51.969" height="94.488" style="fill:#fff;"/><path d="M600.399,1284.67l-0.157,1.969l-30.473,-0c0.053,1.26 0.368,2.428 0.945,3.504c0.577,1.076 1.339,2.021 2.283,2.835c0.945,0.813 2.035,1.443 3.268,1.889c1.234,0.447 2.533,0.67 3.898,0.67c3.937,-0 7.323,-1.313 10.157,-3.937l6.614,8.11c-2.257,2.152 -4.737,3.793 -7.44,4.921c-2.704,1.129 -5.788,1.693 -9.252,1.693c-3.727,0 -7.035,-0.617 -9.922,-1.85c-2.887,-1.234 -5.315,-2.94 -7.283,-5.118c-1.969,-2.179 -3.465,-4.712 -4.488,-7.599c-1.024,-2.887 -1.536,-5.984 -1.536,-9.291c0,-3.202 0.486,-6.234 1.457,-9.095c0.971,-2.861 2.375,-5.341 4.212,-7.441c1.838,-2.099 4.121,-3.766 6.851,-5c2.73,-1.233 5.827,-1.85 9.291,-1.85c3.832,-0 7.166,0.682 10,2.047c2.835,1.365 5.145,3.202 6.929,5.512c1.785,2.31 3.058,5.026 3.819,8.15c0.761,3.123 1.037,6.417 0.827,9.881Zm-12.362,-6.85c-0,-2.415 -0.879,-4.396 -2.638,-5.945c-1.759,-1.548 -3.924,-2.323 -6.496,-2.323c-2.467,0 -4.514,0.827 -6.142,2.481c-1.627,1.653 -2.572,3.582 -2.834,5.787l18.11,0Z" style="fill-rule:nonzero;"/></g><g><rect id="path169812" serif:id="path1698" x="440.787" y="1235.46" width="29.764" height="94.488" style="fill:#fff;"/><g transform="matrix(82.9884,0,0,82.9884,470.615,1304.92)"></g><text x="440.573px" y="1304.92px" style="font-family:'TransportNew-Heavy', 'Transport New';font-weight:900;font-size:82.988px;">l</text></g></g><g><g><rect id="path169813" serif:id="path1698" x="250.63" y="1235.46" width="50.079" height="94.488" style="fill:#fff;"/><g transform="matrix(1,0,0,0.999855,-4.54747e-13,-0.135452)"><g transform="matrix(82.7048,0,0,82.7048,299.201,1306.34)"></g><text x="250.653px" y="1306.34px" style="font-family:'TransportNew-Heavy', 'Transport New';font-weight:900;font-size:82.705px;">y</text></g></g><g><rect id="path169814" serif:id="path1698" x="198.189" y="1235.46" width="52.441" height="94.488" style="fill:#fff;"/><path d="M245.891,1297.14l-5.215,9.184c-1.816,-0.104 -3.463,-0.558 -4.942,-1.362c-1.479,-0.804 -2.685,-1.855 -3.619,-3.152c-1.453,1.349 -3.152,2.361 -5.098,3.035c-1.946,0.675 -4.32,1.012 -7.122,1.012c-2.231,0 -4.371,-0.285 -6.421,-0.856c-2.05,-0.571 -3.853,-1.44 -5.409,-2.607c-1.557,-1.168 -2.802,-2.608 -3.736,-4.32c-0.934,-1.712 -1.401,-3.736 -1.401,-6.071c-0,-2.283 0.337,-4.229 1.012,-5.837c0.674,-1.609 1.53,-2.971 2.568,-4.087c1.038,-1.115 2.218,-2.01 3.541,-2.685c1.324,-0.674 2.634,-1.193 3.931,-1.557c1.297,-0.363 2.517,-0.622 3.658,-0.778c1.142,-0.156 2.05,-0.259 2.724,-0.311c1.09,-0.104 2.478,-0.221 4.164,-0.35c1.687,-0.13 3.23,-0.247 4.631,-0.351l0,-0.622c0,-1.92 -0.441,-3.308 -1.323,-4.164c-0.882,-0.856 -2.413,-1.285 -4.592,-1.285c-2.283,0 -4.462,0.273 -6.538,0.818c-2.075,0.544 -4.359,1.543 -6.849,2.996l-4.592,-9.729c3.165,-1.764 6.265,-3.035 9.301,-3.814c3.035,-0.778 6.187,-1.167 9.456,-1.167c5.656,-0 9.963,1.401 12.92,4.203c2.958,2.802 4.437,7.005 4.437,12.609l-0,14.554c-0,1.972 0.337,3.464 1.012,4.476c0.674,1.011 1.842,1.751 3.502,2.218Zm-16.812,-5.838l0,-5.526c-0.934,0.052 -1.919,0.104 -2.957,0.156c-1.038,0.052 -1.92,0.13 -2.647,0.234c-0.882,0.103 -1.803,0.207 -2.763,0.311c-0.96,0.104 -1.829,0.324 -2.607,0.661c-0.778,0.338 -1.427,0.818 -1.946,1.44c-0.519,0.623 -0.778,1.505 -0.778,2.647c-0,1.504 0.649,2.646 1.946,3.424c1.297,0.779 2.776,1.168 4.436,1.168c2.646,-0 4.527,-0.441 5.643,-1.323c1.116,-0.883 1.673,-1.946 1.673,-3.192Z" style="fill-rule:nonzero;"/></g><g><rect x="134.882" y="1235.46" width="63.307" height="94.488" style="fill:#fff;"/><g transform="matrix(1,0,0,0.975357,0,-24.3794)"><g transform="matrix(86.9396,0,0,86.9396,198.435,1364.33)"></g><text x="138.881px" y="1364.33px" style="font-family:'TransportNew-Heavy', 'Transport New';font-weight:900;font-size:86.94px;">P</text></g></g></g></g><g><g><g><rect id="path169815" serif:id="path1698" x="114.331" y="1140.97" width="56.22" height="94.488" style="fill:#fff;"/><g transform="matrix(84.7971,0,0,84.7971,168.431,1211.84)"></g><text x="115.942px" y="1211.84px" style="font-family:'TransportNew-Heavy', 'Transport New';font-weight:900;font-size:84.797px;">h</text></g><g><rect id="path169816" serif:id="path1698" x="263.15" y="1140.97" width="55.276" height="94.488" style="fill:#fff;"/><g transform="matrix(80.8765,0,0,80.8765,315.268,1211.83)"></g><text x="264.639px" y="1211.83px" style="font-family:'TransportNew-Heavy', 'Transport New';font-weight:900;font-size:80.877px;">g</text></g><g><rect id="path169817" serif:id="path1698" x="170.551" y="1140.97" width="52.441" height="94.488" style="fill:#fff;"/><path d="M218.253,1202.66l-5.214,9.184c-1.817,-0.104 -3.464,-0.558 -4.943,-1.362c-1.479,-0.804 -2.685,-1.855 -3.619,-3.152c-1.453,1.349 -3.152,2.36 -5.098,3.035c-1.946,0.675 -4.32,1.012 -7.122,1.012c-2.231,-0 -4.371,-0.286 -6.421,-0.856c-2.049,-0.571 -3.852,-1.44 -5.409,-2.608c-1.557,-1.167 -2.802,-2.607 -3.736,-4.319c-0.934,-1.713 -1.401,-3.736 -1.401,-6.071c-0,-2.283 0.337,-4.229 1.012,-5.838c0.674,-1.608 1.531,-2.97 2.568,-4.086c1.038,-1.115 2.218,-2.011 3.542,-2.685c1.323,-0.675 2.633,-1.193 3.93,-1.557c1.297,-0.363 2.517,-0.622 3.658,-0.778c1.142,-0.156 2.05,-0.259 2.724,-0.311c1.09,-0.104 2.478,-0.221 4.164,-0.351c1.687,-0.129 3.23,-0.246 4.631,-0.35l0,-0.623c0,-1.919 -0.441,-3.307 -1.323,-4.164c-0.882,-0.856 -2.413,-1.284 -4.592,-1.284c-2.283,0 -4.462,0.273 -6.538,0.817c-2.075,0.545 -4.358,1.544 -6.849,2.997l-4.592,-9.729c3.165,-1.764 6.265,-3.035 9.301,-3.814c3.035,-0.778 6.188,-1.167 9.456,-1.167c5.656,-0 9.963,1.401 12.921,4.203c2.957,2.802 4.436,7.005 4.436,12.608l0,14.555c0,1.972 0.337,3.464 1.012,4.475c0.674,1.012 1.842,1.752 3.502,2.219Zm-16.811,-5.838l-0,-5.526c-0.934,0.052 -1.92,0.104 -2.958,0.156c-1.038,0.052 -1.92,0.13 -2.646,0.233c-0.882,0.104 -1.803,0.208 -2.763,0.312c-0.96,0.103 -1.829,0.324 -2.608,0.661c-0.778,0.337 -1.427,0.817 -1.946,1.44c-0.518,0.623 -0.778,1.505 -0.778,2.646c0,1.505 0.649,2.647 1.946,3.425c1.297,0.778 2.776,1.168 4.436,1.168c2.647,-0 4.528,-0.442 5.643,-1.324c1.116,-0.882 1.674,-1.945 1.674,-3.191Z" style="fill-rule:nonzero;"/></g><g><rect id="path169818" serif:id="path1698" x="370.394" y="1140.97" width="47.244" height="94.488" style="fill:#fff;"/><g transform="matrix(78.4786,0,0,78.4786,416.657,1210.49)"></g><text x="371.767px" y="1210.49px" style="font-family:'TransportNew-Heavy', 'Transport New';font-weight:900;font-size:78.479px;">s</text></g><g><rect id="path169819" serif:id="path1698" x="222.992" y="1140.97" width="40.157" height="94.488" style="fill:#fff;"/><g transform="matrix(83.0785,0,0,83.0785,258.648,1211.79)"></g><text x="223.672px" y="1211.79px" style="font-family:'TransportNew-Heavy', 'Transport New';font-weight:900;font-size:83.079px;">r</text></g><g><rect id="path169820" serif:id="path1698" x="318.425" y="1140.97" width="51.969" height="94.488" style="fill:#fff;"/><path d="M366.068,1190.19l-0.157,1.969l-30.473,-0c0.053,1.26 0.368,2.428 0.945,3.504c0.578,1.076 1.339,2.021 2.284,2.834c0.945,0.814 2.034,1.444 3.267,1.89c1.234,0.446 2.533,0.669 3.898,0.669c3.937,0 7.323,-1.312 10.158,-3.937l6.614,8.111c-2.257,2.152 -4.738,3.792 -7.441,4.921c-2.704,1.129 -5.788,1.693 -9.252,1.693c-3.727,-0 -7.034,-0.617 -9.921,-1.851c-2.888,-1.233 -5.315,-2.939 -7.284,-5.118c-1.968,-2.178 -3.464,-4.711 -4.488,-7.598c-1.024,-2.887 -1.536,-5.984 -1.536,-9.291c0,-3.203 0.486,-6.234 1.457,-9.095c0.971,-2.861 2.376,-5.341 4.213,-7.441c1.837,-2.1 4.121,-3.766 6.85,-5c2.73,-1.233 5.827,-1.85 9.292,-1.85c3.832,-0 7.165,0.682 10,2.047c2.834,1.365 5.144,3.202 6.929,5.512c1.784,2.31 3.057,5.026 3.819,8.149c0.761,3.124 1.036,6.418 0.826,9.882Zm-12.362,-6.85c0,-2.415 -0.879,-4.396 -2.638,-5.945c-1.758,-1.549 -3.924,-2.323 -6.496,-2.323c-2.467,0 -4.514,0.827 -6.141,2.481c-1.628,1.653 -2.573,3.582 -2.835,5.787l18.11,-0Z" style="fill-rule:nonzero;"/></g><g><rect x="47.244" y="1140.97" width="67.087" height="94.488" style="fill:#fff;"/><g transform="matrix(81.5558,0,0,81.5558,114.144,1210.37)"></g><text x="47.839px" y="1210.37px" style="font-family:'TransportNew-Heavy', 'Transport New';font-weight:900;font-size:81.556px;">C</text></g></g><g><g><g><rect id="path169821" serif:id="path1698" x="499.134" y="1140.97" width="56.693" height="94.488" style="fill:#fff;"/><g transform="matrix(1,0,0,0.999855,0,-0.149763)"><g transform="matrix(82.8575,0,0,82.8575,553.539,1211.94)"></g><text x="499.433px" y="1211.94px" style="font-family:'TransportNew-Heavy', 'Transport New';font-weight:900;font-size:82.857px;">p</text></g></g></g><g><g><rect id="path169822" serif:id="path1698" x="555.827" y="1140.97" width="56.693" height="94.488" style="fill:#fff;"/><g transform="matrix(1,0,0,0.999855,4.54747e-13,-0.149763)"><g transform="matrix(82.8575,0,0,82.8575,610.232,1211.94)"></g><text x="556.126px" y="1211.94px" style="font-family:'TransportNew-Heavy', 'Transport New';font-weight:900;font-size:82.857px;">p</text></g></g></g><g><rect id="path169823" serif:id="path1698" x="642.283" y="1140.97" width="50.079" height="94.488" style="fill:#fff;"/><g transform="matrix(1,0,0,0.999855,0,-0.149176)"><g transform="matrix(82.7048,0,0,82.7048,690.854,1211.85)"></g><text x="642.307px" y="1211.85px" style="font-family:'TransportNew-Heavy', 'Transport New';font-weight:900;font-size:82.705px;">y</text></g></g><g><rect id="path169824" serif:id="path1698" x="447.165" y="1140.97" width="52.441" height="94.488" style="fill:#fff;"/><path d="M494.867,1202.66l-5.214,9.184c-1.816,-0.104 -3.464,-0.558 -4.943,-1.362c-1.478,-0.804 -2.685,-1.855 -3.619,-3.152c-1.453,1.349 -3.152,2.36 -5.098,3.035c-1.946,0.675 -4.319,1.012 -7.121,1.012c-2.232,-0 -4.372,-0.286 -6.422,-0.856c-2.049,-0.571 -3.852,-1.44 -5.409,-2.608c-1.557,-1.167 -2.802,-2.607 -3.736,-4.319c-0.934,-1.713 -1.401,-3.736 -1.401,-6.071c0,-2.283 0.337,-4.229 1.012,-5.838c0.675,-1.608 1.531,-2.97 2.568,-4.086c1.038,-1.115 2.219,-2.011 3.542,-2.685c1.323,-0.675 2.633,-1.193 3.93,-1.557c1.298,-0.363 2.517,-0.622 3.658,-0.778c1.142,-0.156 2.05,-0.259 2.725,-0.311c1.089,-0.104 2.477,-0.221 4.164,-0.351c1.686,-0.129 3.23,-0.246 4.631,-0.35l-0,-0.623c-0,-1.919 -0.441,-3.307 -1.324,-4.164c-0.882,-0.856 -2.412,-1.284 -4.592,-1.284c-2.283,0 -4.462,0.273 -6.538,0.817c-2.075,0.545 -4.358,1.544 -6.849,2.997l-4.592,-9.729c3.165,-1.764 6.266,-3.035 9.301,-3.814c3.036,-0.778 6.188,-1.167 9.457,-1.167c5.655,-0 9.962,1.401 12.92,4.203c2.957,2.802 4.436,7.005 4.436,12.608l0,14.555c0,1.972 0.338,3.464 1.012,4.475c0.675,1.012 1.842,1.752 3.502,2.219Zm-16.811,-5.838l-0,-5.526c-0.934,0.052 -1.92,0.104 -2.958,0.156c-1.038,0.052 -1.92,0.13 -2.646,0.233c-0.882,0.104 -1.803,0.208 -2.763,0.312c-0.96,0.103 -1.829,0.324 -2.608,0.661c-0.778,0.337 -1.426,0.817 -1.945,1.44c-0.519,0.623 -0.779,1.505 -0.779,2.646c0,1.505 0.649,2.647 1.946,3.425c1.297,0.778 2.776,1.168 4.437,1.168c2.646,-0 4.527,-0.442 5.642,-1.324c1.116,-0.882 1.674,-1.945 1.674,-3.191Z" style="fill-rule:nonzero;"/></g><g><rect id="path169825" serif:id="path1698" x="612.52" y="1140.97" width="29.764" height="94.488" style="fill:#fff;"/><g transform="matrix(82.9884,0,0,82.9884,642.347,1210.43)"></g><text x="612.305px" y="1210.43px" style="font-family:'TransportNew-Heavy', 'Transport New';font-weight:900;font-size:82.988px;">l</text></g></g></g></g><g><g><g><rect x="127.677" y="1016.96" width="50.551" height="94.488" style="fill:#fff;"/><g transform="matrix(1,0,0,0.975357,9.09495e-13,-29.736)"><g transform="matrix(86.9396,0,0,86.9396,179.122,1146.97)"></g><text x="126.784px" y="1146.97px" style="font-family:'TransportNew-Heavy', 'Transport New';font-weight:900;font-size:86.94px;">7</text></g></g><g><rect x="399.094" y="1016.96" width="50.551" height="94.488" style="fill:#fff;"/><g transform="matrix(1,0,0,0.975357,4.54747e-13,-29.736)"><g transform="matrix(86.9396,0,0,86.9396,450.539,1146.97)"></g><text x="398.201px" y="1146.97px" style="font-family:'TransportNew-Heavy', 'Transport New';font-weight:900;font-size:86.94px;">7</text></g></g><g><g><g><rect id="path169826" serif:id="path1698" x="467.362" y="1016.96" width="56.693" height="94.488" style="fill:#fff;"/><g transform="matrix(1,0,0,0.999855,4.54747e-13,-0.167775)"><g transform="matrix(82.8575,0,0,82.8575,521.767,1087.92)"></g><text x="467.661px" y="1087.92px" style="font-family:'TransportNew-Heavy', 'Transport New';font-weight:900;font-size:82.857px;">p</text></g></g></g><g><rect id="path169827" serif:id="path1698" x="524.055" y="1016.96" width="81.732" height="94.488" style="fill:#fff;"/><g transform="matrix(83.4255,0,0,83.4255,603.255,1087.82)"></g><text x="526.17px" y="1087.82px" style="font-family:'TransportNew-Heavy', 'Transport New';font-weight:900;font-size:83.425px;">m</text></g></g><g><g><rect id="path169828" serif:id="path1698" x="195.945" y="1016.96" width="52.441" height="94.488" style="fill:#fff;"/><path d="M243.647,1078.64l-5.215,9.184c-1.816,-0.104 -3.463,-0.558 -4.942,-1.362c-1.479,-0.804 -2.685,-1.855 -3.619,-3.152c-1.453,1.349 -3.152,2.361 -5.098,3.035c-1.946,0.675 -4.32,1.012 -7.122,1.012c-2.231,0 -4.371,-0.285 -6.421,-0.856c-2.05,-0.571 -3.853,-1.44 -5.409,-2.607c-1.557,-1.168 -2.802,-2.608 -3.736,-4.32c-0.934,-1.712 -1.401,-3.736 -1.401,-6.071c-0,-2.283 0.337,-4.229 1.012,-5.837c0.674,-1.609 1.53,-2.971 2.568,-4.087c1.038,-1.115 2.218,-2.01 3.541,-2.685c1.323,-0.674 2.634,-1.193 3.931,-1.556c1.297,-0.364 2.516,-0.623 3.658,-0.779c1.141,-0.155 2.05,-0.259 2.724,-0.311c1.09,-0.104 2.478,-0.221 4.164,-0.35c1.686,-0.13 3.23,-0.247 4.631,-0.351l0,-0.622c0,-1.92 -0.441,-3.308 -1.323,-4.164c-0.882,-0.856 -2.413,-1.285 -4.592,-1.285c-2.283,0 -4.463,0.273 -6.538,0.818c-2.076,0.545 -4.359,1.543 -6.849,2.996l-4.592,-9.729c3.165,-1.764 6.265,-3.035 9.301,-3.814c3.035,-0.778 6.187,-1.167 9.456,-1.167c5.656,-0 9.963,1.401 12.92,4.203c2.958,2.802 4.437,7.005 4.437,12.609l-0,14.554c-0,1.972 0.337,3.464 1.012,4.476c0.674,1.012 1.842,1.751 3.502,2.218Zm-16.812,-5.838l0,-5.526c-0.934,0.052 -1.92,0.104 -2.957,0.156c-1.038,0.052 -1.92,0.13 -2.647,0.234c-0.882,0.103 -1.803,0.207 -2.763,0.311c-0.96,0.104 -1.829,0.324 -2.607,0.661c-0.778,0.338 -1.427,0.818 -1.946,1.44c-0.519,0.623 -0.778,1.505 -0.778,2.647c-0,1.504 0.648,2.646 1.946,3.424c1.297,0.779 2.776,1.168 4.436,1.168c2.646,-0 4.527,-0.441 5.643,-1.323c1.115,-0.882 1.673,-1.946 1.673,-3.192Z" style="fill-rule:nonzero;"/></g><g><rect id="path169829" serif:id="path1698" x="248.386" y="1016.96" width="81.732" height="94.488" style="fill:#fff;"/><g transform="matrix(83.4255,0,0,83.4255,327.586,1087.82)"></g><text x="250.501px" y="1087.82px" style="font-family:'TransportNew-Heavy', 'Transport New';font-weight:900;font-size:83.425px;">m</text></g></g><g><rect id="path169830" serif:id="path1698" x="347.835" y="1016.96" width="33.543" height="94.488" style="fill:#fff;"/><g transform="matrix(1,0,0,0.947368,-4.54747e-13,-44.2356)"><g transform="matrix(74.9906,0,0,74.9906,373.706,1189.67)"></g><text x="350.309px" y="1189.66px" style="font-family:'TransportNew-Heavy', 'Transport New';font-weight:900;font-size:74.991px;">-</text></g></g></g><g><g><g><rect id="path169831" serif:id="path1698" x="259.252" y="910.659" width="54.331" height="94.488" style="fill:#fff;"/><g transform="matrix(78.4786,0,0,78.4786,312.001,980.191)"></g><text x="260.833px" y="980.191px" style="font-family:'TransportNew-Heavy', 'Transport New';font-weight:900;font-size:78.479px;">o</text></g><g><rect id="path169832" serif:id="path1698" x="313.583" y="910.659" width="56.22" height="94.488" style="fill:#fff;"/><g transform="matrix(83.4255,0,0,83.4255,367.471,981.525)"></g><text x="315.414px" y="981.525px" style="font-family:'TransportNew-Heavy', 'Transport New';font-weight:900;font-size:83.425px;">n</text></g><g><rect x="171.378" y="910.659" width="87.874" height="94.488" style="fill:#fff;"/><g transform="matrix(1,0,0,0.975357,0,-32.3837)"><g transform="matrix(86.9396,0,0,86.9396,256.437,1039.53)"></g><text x="174.193px" y="1039.53px" style="font-family:'TransportNew-Heavy', 'Transport New';font-weight:900;font-size:86.94px;">M</text></g></g></g><g><g><rect id="path169833" serif:id="path1698" x="536.102" y="910.659" width="25.984" height="94.488" style="fill:#fff;"/><g transform="matrix(83.1971,0,0,83.1971,561.127,981.525)"></g><text x="535.502px" y="981.525px" style="font-family:'TransportNew-Heavy', 'Transport New';font-weight:900;font-size:83.197px;">i</text></g><g><rect id="path169834" serif:id="path1698" x="495.945" y="910.659" width="40.157" height="94.488" style="fill:#fff;"/><g transform="matrix(83.0785,0,0,83.0785,531.601,981.472)"></g><text x="496.625px" y="981.472px" style="font-family:'TransportNew-Heavy', 'Transport New';font-weight:900;font-size:83.079px;">r</text></g><g><rect x="438.78" y="910.63" width="57.165" height="94.488" style="fill:#fff;"/><g transform="matrix(84.7971,0,0,84.7971,496.635,981.496)"></g><text x="443.468px" y="981.496px" style="font-family:'TransportNew-Heavy', 'Transport New';font-weight:900;font-size:84.797px;">F</text></g></g><g><rect id="path169835" serif:id="path1698" x="387.52" y="910.659" width="33.543" height="94.488" style="fill:#fff;"/><g transform="matrix(1,0,0,0.947368,-4.54747e-13,-49.8303)"><g transform="matrix(74.9906,0,0,74.9906,413.391,1083.37)"></g><text x="389.994px" y="1083.37px" style="font-family:'TransportNew-Heavy', 'Transport New';font-weight:900;font-size:74.991px;">-</text></g></g></g></g></g><clipPath id="_clip2"><rect id="S68-CAZ---B.afdesign" serif:id="S68 CAZ - B.afdesign" x="133.583" y="186.614" width="472.441" height="472.441"/></clipPath><g clip-path="url(#_clip2)"><circle cx="369.803" cy="422.835" r="236.22" style="fill:#5e9732;"/><clipPath id="_clip3"><rect id="S68-CAZ-B.afdesign" serif:id="S68 CAZ B.afdesign" x="187.167" y="286.614" width="377.124" height="255.906"/></clipPath><g clip-path="url(#_clip3)"><path d="M505.521,399.393l1.09,0.245l1.048,0.245c33.189,7.928 56.78,37.131 56.632,70.48l-0,0.98c-0.682,39.324 -33.629,71.067 -74.028,71.174l-228.412,0c-20.304,0.164 -39.862,-7.958 -53.907,-22.214l-0.838,-0.857l-0.839,-0.899l-2.389,-2.695l-0.755,-0.939c-14.835,-18.317 -19.58,-42.102 -13.162,-64.518l0.419,-1.388l0.922,-2.695c4.445,-12.55 12.57,-23.805 23.139,-32.178l1.132,-0.898l0.587,-0.449l0.168,-0.082l0.125,-0.123l0,-0.04l-0.042,-0.286l-0.041,-0.49l-0.126,-1.021l-0.168,-2.042l-0.042,-1.062l-0.084,-1.02l-0.125,-3.063l-0,-1.021c-0.103,-2.115 0.038,-4.127 0.042,-6.247l0.041,-0.981l0.084,-0.98l0.042,-0.939l0.084,-0.98l0.042,-0.98c3.235,-39.643 27.46,-74.42 63.716,-92.53l0.88,-0.45l3.521,-1.633c17.324,-7.655 36.382,-11.099 55.374,-10.004l1.467,0.081l1.425,0.123l1.467,0.122c13.564,1.206 26.48,4.736 38.817,10.331l1.299,0.613l1.3,0.653l1.257,0.613l1.3,0.653l1.257,0.694l1.3,0.695l1.257,0.694l1.216,0.735l2.515,1.47l0.587,0.408l0.335,0.163l0.126,0.123l0.042,-0l0.084,0.082l0.964,0.612c3.859,2.464 7.528,5.204 11.066,8.085l0.88,0.735l0.839,0.735l0.88,0.776l0.838,0.735l0.839,0.776l0.838,0.735l0.797,0.776c7.206,6.847 13.547,14.647 18.695,23.071l0.042,0.041l0.042,0c10.083,0.149 19.765,2.039 29.007,6.003l0.965,0.408l0.964,0.449l1.006,0.45c19.464,9.285 33.936,26.389 39.403,46.837l0.251,1.02l0.252,1.062l0.251,1.021Zm-30.516,75.788l-0.042,-2.45c-0.611,-7.891 -3.817,-14.117 -11.234,-17.803l-1.467,-0.654l1.76,-1.143c16.74,-13.333 2.623,-37.01 -16.641,-37.078l-40.367,0l-0,83.874l42.169,0c13.204,-0.681 24.645,-9.065 25.738,-22.459l0.084,-2.287Zm-30.014,8.739l-20.414,-0l0,-20.948l20.414,-0c13.81,0.468 14.522,19.442 0.797,20.907l-0.797,0.041Zm-0.796,-51.86l1.509,0.123c11.054,2.28 9.559,17.206 -1.509,17.599l-19.618,0l0,-17.722l19.618,0Zm-197.435,91.918l0,-0.04l0.042,-0l0,-0.041l0.084,-0.082l0.084,-0.041l0.042,-0.081c0.364,-0.348 0.786,-0.746 1.132,-1.103l0.167,-0.122l0.168,-0.164c0.581,-0.627 1.212,-1.218 1.844,-1.796l0.21,-0.245l0.503,-0.49c2.5,-2.362 4.905,-4.83 7.419,-7.187l0.378,-0.409l0.838,-0.816c12.171,-11.829 24.322,-23.699 36.511,-35.526l1.383,-1.389l1.425,-1.347l1.384,-1.388c37.791,-36.817 75.652,-73.623 113.388,-110.457l0.336,-0.286l0.628,-0.613l0.294,-0.326c1.319,-1.208 2.558,-2.498 3.856,-3.716l0.336,-0.327c0.465,-0.489 1.067,-1.019 1.509,-1.511l0.042,-0.041l0.042,0l-0,-0.081c-19.555,-34.961 -58.459,-54.865 -99.095,-50.431l-0.922,0.082l-0.964,0.122c-31.541,4.01 -59.176,22.514 -74.531,49.614l-0.419,0.776l-0.461,0.776l-0.419,0.776l-0.378,0.816c-4.815,9.146 -8.216,19.666 -9.641,29.85l-0.167,0.899l-0.084,0.939c-1.43,10.632 -0.89,21.643 1.341,32.136l0,0.082l-0.084,0.041c-45.517,23.976 -39.051,88.278 10.899,102.902l0.88,0.245Z" style="fill:#fff;fill-rule:nonzero;"/></g></g></g></g></svg>