<?xml version="1.0" encoding="UTF-8" standalone="no"?><!DOCTYPE svg PUBLIC "-//W3C//DTD SVG 1.1//EN" "http://www.w3.org/Graphics/SVG/1.1/DTD/svg11.dtd"><svg width="100%" height="100%" viewBox="0 0 837 1087" version="1.1" xmlns="http://www.w3.org/2000/svg" xmlns:xlink="http://www.w3.org/1999/xlink" xml:space="preserve" xmlns:serif="http://www.serif.com/" style="fill-rule:evenodd;clip-rule:evenodd;stroke-linejoin:round;stroke-miterlimit:2;"><g transform="matrix(50,0,0,50,491.621,560.971)"></g><text x="345.698px" y="560.971px" style="font-family:'ArialMT', 'Arial', sans-serif;font-size:50px;">sw=92</text><rect id="_04" serif:id="04" x="0" y="0" width="836.22" height="1086.61" style="fill:none;"/><clipPath id="_clip1"><rect x="0" y="0" width="836.22" height="1086.61"/></clipPath><g clip-path="url(#_clip1)"><g><path d="M836.22,35.433c0,-19.556 -15.877,-35.433 -35.433,-35.433l-765.354,0c-19.556,0 -35.433,15.877 -35.433,35.433l0,1015.75c0,19.556 15.877,35.433 35.433,35.433l765.354,0c19.556,0 35.433,-15.877 35.433,-35.433l0,-1015.75Z" style="fill:#fff;"/><path d="M836.22,35.433l0,1015.75c0,19.556 -15.877,35.433 -35.433,35.433l-765.354,0c-19.556,0 -35.433,-15.877 -35.433,-35.433l0,-1015.75c0,-19.556 15.877,-35.433 35.433,-35.433l765.354,0c19.556,0 35.433,15.877 35.433,35.433Zm-1.181,0c0,-18.904 -15.347,-34.252 -34.252,-34.252l-765.354,0c-18.904,0 -34.252,15.348 -34.252,34.252l0,1015.75c0,18.904 15.348,34.252 34.252,34.252l765.354,0c18.905,0 34.252,-15.348 34.252,-34.252l0,-1015.75Z" style="fill:#0079c1;"/><path d="M818.504,850.394c-0,-9.778 -7.939,-17.717 -17.717,-17.717l-765.354,0c-9.778,0 -17.716,7.939 -17.716,17.717l-0,200.787c-0,9.778 7.938,17.717 17.716,17.717l765.354,-0c9.778,-0 17.717,-7.939 17.717,-17.717l-0,-200.787Z" style="fill:#0079c1;"/><path d="M818.504,35.433c-0,-9.778 -7.939,-17.716 -17.717,-17.716l-765.354,-0c-9.778,-0 -17.716,7.938 -17.716,17.716l-0,761.811c-0,9.778 7.938,17.717 17.716,17.717l765.354,-0c9.778,-0 17.717,-7.939 17.717,-17.717l-0,-761.811Z" style="fill:#0079c1;"/><g><circle cx="418.11" cy="525.591" r="242.126" style="fill:#fff;"/><clipPath id="_clip2"><rect id="S68-CAZ---C.afdesign" serif:id="S68 CAZ - C.afdesign" x="181.89" y="289.37" width="472.441" height="472.441"/></clipPath><g clip-path="url(#_clip2)"><circle cx="418.11" cy="525.591" r="236.22" style="fill:#5e9732;"/><clipPath id="_clip3"><rect id="S68-CAZ-C.afdesign" serif:id="S68 CAZ C.afdesign" x="235.475" y="389.37" width="377.124" height="255.906"/></clipPath><g clip-path="url(#_clip3)"><path d="M553.831,502.145l1.09,0.245l1.048,0.245c33.221,7.985 56.74,37.086 56.629,70.482l0,0.98c-0.678,39.322 -33.642,71.082 -74.025,71.176l-228.403,0c-20.353,0.152 -39.821,-7.921 -53.904,-22.214l-0.839,-0.858l-1.676,-1.796l-0.797,-0.899l-0.754,-0.898c-10.957,-13.095 -16.793,-29.249 -16.725,-46.144l0.042,-0.735l0.042,-1.47c0.736,-21.54 11.403,-41.581 28.922,-54.72l0.168,-0.081l0.042,-0.082l0.084,0l-0,-0.041l-0.042,-0.041c-2.276,-21.87 1.711,-43.59 11.862,-63.254l0.922,-1.715c11.222,-20.782 29.208,-38.011 50.677,-48.676l0.881,-0.408l0.88,-0.449l1.76,-0.817c24.653,-11.162 52.798,-13.599 79.097,-6.901l2.766,0.735l2.767,0.817c7.805,2.353 15.351,5.608 22.467,9.514l1.258,0.695l2.515,1.47l1.215,0.735l0.629,0.408l0.293,0.204l0.168,0.082l0.042,-0l0.084,0.081l0.964,0.613c1.908,1.276 3.839,2.524 5.659,3.92l0.922,0.654l0.922,0.694l0.88,0.694l0.922,0.735c10.459,8.343 19.344,18.302 26.282,29.606l0.084,0.122l0.042,0.041l-0,0.041l0.042,-0c34.332,0.146 64.205,23.636 71.845,56.189l0.251,1.021Zm-62.288,30.382l2.347,0.122c9.221,0.739 15.811,7.156 17.773,15.763l0.168,0.857l17.605,-6.778l-1.258,-2.981l-1.425,-2.94l-1.593,-2.818c-7.995,-13.583 -23.433,-18.984 -38.898,-17.355l-2.809,0.367l-2.766,0.572l-2.725,0.776c-5.258,1.707 -11.123,4.929 -14.88,8.984l-1.97,2.205l-1.845,2.328c-4.791,6.558 -7.543,13.681 -8.425,21.683l-0.209,2.899l-0,0.817l-0.084,3.634l0.084,2.369l0.125,2.899l0.336,2.9c1.063,6.794 3.667,13.268 7.712,18.906l1.761,2.369l1.97,2.246c3.691,4.211 9.637,7.684 14.964,9.433l2.725,0.816l2.766,0.613l2.809,0.408c17.155,1.981 33.415,-4.739 41.162,-20.295l1.257,-2.736l1.132,-2.817l0.084,-0.245l-17.605,-6.738l-0.461,2.123l-0.671,2.042l-0.922,1.96c-2.744,5.241 -7.906,9.291 -13.958,10.209l-2.306,0.327l-1.97,0.081c-7.054,-0.136 -12.717,-2.59 -17.06,-8.085l-1.215,-1.838l-1.006,-1.919l-0.797,-2.001l-0.209,-0.694c-2.309,-7.402 -2.447,-17.161 -0.378,-24.624l0.378,-1.307l0.712,-2.041c2.271,-5.66 7.391,-10.181 13.455,-11.679l2.264,-0.49l2.305,-0.286l1.551,-0.041Zm-196.463,94.207l0,-0.041l0.042,0l0,-0.04l0.084,-0.082l0.084,-0.041l0.042,-0.082c0.392,-0.354 0.745,-0.737 1.132,-1.102l0.167,-0.123l0.168,-0.163c0.576,-0.619 1.209,-1.192 1.802,-1.797l0.755,-0.735c2.468,-2.368 4.942,-4.779 7.377,-7.187l1.258,-1.225c12.167,-11.82 24.308,-23.684 36.467,-35.527l1.425,-1.347l1.425,-1.389l1.384,-1.388c37.794,-36.814 75.646,-73.616 113.384,-110.46l0.335,-0.286l0.629,-0.612c1.985,-1.93 3.972,-3.877 5.952,-5.799l0.042,-0.082l0.042,0l0.042,-0.04l-0,-0.082c-4.495,-8.014 -10.099,-15.422 -16.683,-21.929l-0.838,-0.857l-0.881,-0.817c-6.775,-6.421 -14.712,-11.974 -23.054,-16.293l-1.131,-0.572l-1.09,-0.531l-1.132,-0.531c-16.405,-7.639 -34.321,-10.672 -52.396,-9.106l-0.922,0.122l-0.964,0.082l-0.922,0.123c-31.801,3.627 -60.082,22.409 -75.492,49.696l-0.419,0.776l-0.461,0.776l-0.419,0.776c-10.518,19.985 -13.627,42.657 -8.928,64.642l-0,0.082l-0.084,0.041c-45.512,23.924 -39.038,88.351 10.898,102.905l0.88,0.245Z" style="fill:#fff;fill-rule:nonzero;"/></g></g></g><g><g><g><g><rect x="531.969" y="47.244" width="45.827" height="94.488" style="fill:#0079c1;"/><g transform="matrix(83.1762,0,0,83.1762,576.591,118.11)"></g><text x="533.589px" y="118.11px" style="font-family:'TransportNew-Medium', 'Transport New';font-weight:500;font-size:83.176px;fill:#fff;">z</text></g><g><rect x="577.795" y="47.244" width="52.913" height="94.488" style="fill:#0079c1;"/><g transform="matrix(78.4786,0,0,78.4786,628.659,116.776)"></g><text x="579.845px" y="116.776px" style="font-family:'TransportNew-Medium', 'Transport New';font-weight:500;font-size:78.479px;fill:#fff;">o</text></g><g><rect x="630.709" y="47.244" width="52.913" height="94.488" style="fill:#0079c1;"/><g transform="matrix(80.8974,0,0,80.8974,681.138,118.031)"></g><text x="633.085px" y="118.031px" style="font-family:'TransportNew-Medium', 'Transport New';font-weight:500;font-size:80.897px;fill:#fff;">n</text></g><g><rect x="683.622" y="47.244" width="52.441" height="94.488" style="fill:#0079c1;"/><g transform="matrix(78.7402,0,0,78.7402,733.483,116.772)"></g><text x="686.16px" y="116.772px" style="font-family:'TransportNew-Medium', 'Transport New';font-weight:500;font-size:78.74px;fill:#fff;">e</text></g></g><g><g><rect x="464.646" y="47.244" width="37.795" height="94.488" style="fill:#0079c1;"/><g transform="matrix(80.8974,0,0,80.8974,497.539,118.189)"></g><text x="465.908px" y="118.189px" style="font-family:'TransportNew-Medium', 'Transport New';font-weight:500;font-size:80.897px;fill:#fff;">r</text></g><g><rect x="386.693" y="47.244" width="52.441" height="94.488" style="fill:#0079c1;"/><g transform="matrix(78.2187,0,0,78.2187,435.401,116.546)"></g><text x="389.643px" y="116.546px" style="font-family:'TransportNew-Medium', 'Transport New';font-weight:500;font-size:78.219px;fill:#fff;">a</text></g><g><rect x="439.134" y="47.244" width="25.512" height="94.488" style="fill:#0079c1;"/><g transform="matrix(83.3019,0,0,83.3019,463.51,118.11)"></g><text x="440.352px" y="118.11px" style="font-family:'TransportNew-Medium', 'Transport New';font-weight:500;font-size:83.302px;fill:#fff;">i</text></g></g><g><g><rect x="304.252" y="47.244" width="52.913" height="94.488" style="fill:#0079c1;"/><g transform="matrix(80.8974,0,0,80.8974,354.682,118.031)"></g><text x="306.629px" y="118.031px" style="font-family:'TransportNew-Medium', 'Transport New';font-weight:500;font-size:80.897px;fill:#fff;">n</text></g><g><rect x="199.37" y="47.244" width="52.441" height="94.488" style="fill:#0079c1;"/><g transform="matrix(78.7402,0,0,78.7402,249.231,116.772)"></g><text x="201.908px" y="116.772px" style="font-family:'TransportNew-Medium', 'Transport New';font-weight:500;font-size:78.74px;fill:#fff;">e</text></g><g><rect x="251.811" y="47.244" width="52.441" height="94.488" style="fill:#0079c1;"/><g transform="matrix(78.2187,0,0,78.2187,300.519,116.546)"></g><text x="254.761px" y="116.546px" style="font-family:'TransportNew-Medium', 'Transport New';font-weight:500;font-size:78.219px;fill:#fff;">a</text></g><g><rect x="170.079" y="47.244" width="29.291" height="94.488" style="fill:#0079c1;"/><g transform="matrix(82.9884,0,0,82.9884,198.253,116.69)"></g><text x="170.452px" y="116.69px" style="font-family:'TransportNew-Medium', 'Transport New';font-weight:500;font-size:82.988px;fill:#fff;">l</text></g><g><rect x="100.157" y="47.244" width="69.921" height="94.488" style="fill:#0079c1;"/><g transform="matrix(84.7971,0,0,84.7971,167.935,116.584)"></g><text x="102.726px" y="116.584px" style="font-family:'TransportNew-Medium', 'Transport New';font-weight:500;font-size:84.797px;fill:#fff;">C</text></g></g></g><g><g><g><g><rect x="103.937" y="141.732" width="60.472" height="94.488" style="fill:#0079c1;"/><g transform="matrix(1,0,0,0.999863,0,-0.971282)"><g transform="matrix(81.567,0,0,81.567,163.374,212.212)"></g><text x="104.972px" y="212.212px" style="font-family:'TransportNew-Medium', 'Transport New';font-weight:500;font-size:81.567px;fill:#fff;">0</text></g></g></g><g><g><rect x="164.409" y="141.732" width="60.472" height="94.488" style="fill:#0079c1;"/><g transform="matrix(1,0,0,0.999863,0,-0.971282)"><g transform="matrix(81.567,0,0,81.567,223.847,212.212)"></g><text x="165.445px" y="212.212px" style="font-family:'TransportNew-Medium', 'Transport New';font-weight:500;font-size:81.567px;fill:#fff;">0</text></g></g></g><g><rect x="47.244" y="141.732" width="56.693" height="94.488" style="fill:#0079c1;"/><g transform="matrix(1,0,0,0.999863,0,-0.992509)"><g transform="matrix(83.3134,0,0,83.3134,101.718,213.62)"></g><text x="49.481px" y="213.62px" style="font-family:'TransportNew-Medium', 'Transport New';font-weight:500;font-size:83.313px;fill:#fff;">2</text></g></g><g><g><rect x="254.409" y="141.732" width="46.299" height="94.488" style="fill:#0079c1;"/><g transform="matrix(0.983092,0,0,1,-222.829,0)"><g transform="matrix(83.0089,0,0,83.0089,531.697,212.512)"></g><text x="486.291px" y="212.512px" style="font-family:'TransportNew-Medium', 'Transport New';font-weight:500;font-size:83.009px;fill:#fff;">y</text></g></g><g><rect x="390.945" y="141.732" width="56.22" height="94.488" style="fill:#0079c1;"/><g transform="matrix(82.8958,0,0,82.8958,444.412,211.106)"></g><text x="392.353px" y="211.106px" style="font-family:'TransportNew-Medium', 'Transport New';font-weight:500;font-size:82.896px;fill:#fff;">d</text></g><g><rect x="447.165" y="141.732" width="45.827" height="94.488" style="fill:#0079c1;"/><g transform="matrix(78.4786,0,0,78.4786,491.621,211.186)"></g><text x="448.929px" y="211.186px" style="font-family:'TransportNew-Medium', 'Transport New';font-weight:500;font-size:78.479px;fill:#fff;">s</text></g><g><rect x="353.15" y="141.732" width="37.795" height="94.488" style="fill:#0079c1;"/><g transform="matrix(80.8974,0,0,80.8974,386.042,212.677)"></g><text x="354.412px" y="212.677px" style="font-family:'TransportNew-Medium', 'Transport New';font-weight:500;font-size:80.897px;fill:#fff;">r</text></g><g><rect x="300.709" y="141.732" width="52.441" height="94.488" style="fill:#0079c1;"/><g transform="matrix(78.2187,0,0,78.2187,349.417,211.034)"></g><text x="303.659px" y="211.034px" style="font-family:'TransportNew-Medium', 'Transport New';font-weight:500;font-size:78.219px;fill:#fff;">a</text></g></g></g><g><g><g><rect x="574.961" y="141.732" width="52.913" height="94.488" style="fill:#0079c1;"/></g><g transform="matrix(84.7971,0,0,84.7971,626.178,212.598)"></g><text x="576.233px" y="212.598px" style="font-family:'TransportNew-Medium', 'Transport New';font-weight:500;font-size:84.797px;fill:#fff;">h</text></g><g><rect x="732.756" y="141.732" width="56.22" height="94.488" style="fill:#0079c1;"/><g transform="matrix(82.8958,0,0,82.8958,786.223,211.106)"></g><text x="734.164px" y="211.106px" style="font-family:'TransportNew-Medium', 'Transport New';font-weight:500;font-size:82.896px;fill:#fff;">d</text></g><g><rect x="627.874" y="141.732" width="52.441" height="94.488" style="fill:#0079c1;"/><g transform="matrix(78.7402,0,0,78.7402,677.735,211.26)"></g><text x="630.412px" y="211.26px" style="font-family:'TransportNew-Medium', 'Transport New';font-weight:500;font-size:78.74px;fill:#fff;">e</text></g><g><rect x="522.52" y="141.732" width="52.441" height="94.488" style="fill:#0079c1;"/><g transform="matrix(78.2187,0,0,78.2187,571.228,211.034)"></g><text x="525.47px" y="211.034px" style="font-family:'TransportNew-Medium', 'Transport New';font-weight:500;font-size:78.219px;fill:#fff;">a</text></g><g><rect x="680.315" y="141.732" width="52.441" height="94.488" style="fill:#0079c1;"/><g transform="matrix(78.2187,0,0,78.2187,729.023,211.034)"></g><text x="683.265px" y="211.034px" style="font-family:'TransportNew-Medium', 'Transport New';font-weight:500;font-size:78.219px;fill:#fff;">a</text></g></g></g></g><g><g><g><g><rect x="422.244" y="862.205" width="45.827" height="94.488" style="fill:#0079c1;"/><g transform="matrix(78.4786,0,0,78.4786,466.7,931.658)"></g><text x="424.008px" y="931.658px" style="font-family:'TransportNew-Medium', 'Transport New';font-weight:500;font-size:78.479px;fill:#fff;">s</text></g><g><g><rect x="172.795" y="862.205" width="52.913" height="94.488" style="fill:#0079c1;"/></g><g transform="matrix(84.7971,0,0,84.7971,224.013,933.071)"></g><text x="174.067px" y="933.071px" style="font-family:'TransportNew-Medium', 'Transport New';font-weight:500;font-size:84.797px;fill:#fff;">h</text></g><g><rect x="315.945" y="862.205" width="53.858" height="94.488" style="fill:#0079c1;"/><g transform="matrix(82.7231,0,0,82.7231,366.663,933.03)"></g><text x="317.36px" y="933.03px" style="font-family:'TransportNew-Medium', 'Transport New';font-weight:500;font-size:82.723px;fill:#fff;">g</text></g><g><rect x="278.15" y="862.205" width="37.795" height="94.488" style="fill:#0079c1;"/><g transform="matrix(80.8974,0,0,80.8974,311.042,933.149)"></g><text x="279.412px" y="933.149px" style="font-family:'TransportNew-Medium', 'Transport New';font-weight:500;font-size:80.897px;fill:#fff;">r</text></g><g><rect x="369.803" y="862.205" width="52.441" height="94.488" style="fill:#0079c1;"/><g transform="matrix(78.7402,0,0,78.7402,419.664,931.732)"></g><text x="372.341px" y="931.732px" style="font-family:'TransportNew-Medium', 'Transport New';font-weight:500;font-size:78.74px;fill:#fff;">e</text></g><g><rect x="225.709" y="862.205" width="52.441" height="94.488" style="fill:#0079c1;"/><g transform="matrix(78.2187,0,0,78.2187,274.417,931.506)"></g><text x="228.659px" y="931.506px" style="font-family:'TransportNew-Medium', 'Transport New';font-weight:500;font-size:78.219px;fill:#fff;">a</text></g><g><rect x="102.874" y="862.205" width="69.921" height="94.488" style="fill:#0079c1;"/><g transform="matrix(84.7971,0,0,84.7971,170.651,931.545)"></g><text x="105.442px" y="931.545px" style="font-family:'TransportNew-Medium', 'Transport New';font-weight:500;font-size:84.797px;fill:#fff;">C</text></g></g><g><g><rect x="687.047" y="862.205" width="46.299" height="94.488" style="fill:#0079c1;"/><g transform="matrix(0.983092,0,0,1,-215.514,9.09495e-13)"><g transform="matrix(83.0089,0,0,83.0089,964.335,932.985)"></g><text x="918.929px" y="932.985px" style="font-family:'TransportNew-Medium', 'Transport New';font-weight:500;font-size:83.009px;fill:#fff;">y</text></g></g><g><rect x="550.039" y="862.205" width="53.858" height="94.488" style="fill:#0079c1;"/><g transform="matrix(0.983092,0,0,1,-220.954,0)"><g transform="matrix(84.1459,0,0,84.1459,836.848,934.968)"></g><text x="784.341px" y="934.968px" style="font-family:'TransportNew-Medium', 'Transport New';font-weight:500;font-size:84.146px;fill:#fff;">p</text></g></g><g><rect x="603.898" y="862.205" width="53.858" height="94.488" style="fill:#0079c1;"/><g transform="matrix(0.983092,0,0,1,-220.043,0)"><g transform="matrix(84.1459,0,0,84.1459,890.706,934.968)"></g><text x="838.199px" y="934.968px" style="font-family:'TransportNew-Medium', 'Transport New';font-weight:500;font-size:84.146px;fill:#fff;">p</text></g></g><g><rect x="497.598" y="862.205" width="52.441" height="94.488" style="fill:#0079c1;"/><g transform="matrix(78.2187,0,0,78.2187,546.307,931.506)"></g><text x="500.549px" y="931.506px" style="font-family:'TransportNew-Medium', 'Transport New';font-weight:500;font-size:78.219px;fill:#fff;">a</text></g><g><rect x="657.756" y="862.205" width="29.291" height="94.488" style="fill:#0079c1;"/><g transform="matrix(82.9884,0,0,82.9884,685.93,931.651)"></g><text x="658.129px" y="931.651px" style="font-family:'TransportNew-Medium', 'Transport New';font-weight:500;font-size:82.988px;fill:#fff;">l</text></g></g></g><g><g><g><rect x="379.961" y="956.693" width="52.913" height="94.488" style="fill:#0079c1;"/><g transform="matrix(78.4786,0,0,78.4786,430.824,1026.22)"></g><text x="382.01px" y="1026.22px" style="font-family:'TransportNew-Medium', 'Transport New';font-weight:500;font-size:78.479px;fill:#fff;">o</text></g><g><rect x="432.874" y="956.693" width="52.913" height="94.488" style="fill:#0079c1;"/><g transform="matrix(80.8974,0,0,80.8974,483.304,1027.48)"></g><text x="435.251px" y="1027.48px" style="font-family:'TransportNew-Medium', 'Transport New';font-weight:500;font-size:80.897px;fill:#fff;">n</text></g><g><rect x="540.591" y="956.693" width="52.913" height="94.488" style="fill:#0079c1;"/><g transform="matrix(80.8974,0,0,80.8974,591.02,1027.48)"></g><text x="542.967px" y="1027.48px" style="font-family:'TransportNew-Medium', 'Transport New';font-weight:500;font-size:80.897px;fill:#fff;">n</text></g><g><rect x="593.504" y="956.693" width="52.441" height="94.488" style="fill:#0079c1;"/><g transform="matrix(78.7402,0,0,78.7402,643.365,1026.22)"></g><text x="596.042px" y="1026.22px" style="font-family:'TransportNew-Medium', 'Transport New';font-weight:500;font-size:78.74px;fill:#fff;">e</text></g><g><rect x="485.787" y="956.693" width="29.291" height="94.488" style="fill:#0079c1;"/><g transform="matrix(82.9884,0,0,82.9884,513.961,1026.14)"></g><text x="486.16px" y="1026.14px" style="font-family:'TransportNew-Medium', 'Transport New';font-weight:500;font-size:82.988px;fill:#fff;">l</text></g><g><rect x="515.079" y="956.693" width="25.512" height="94.488" style="fill:#0079c1;"/><g transform="matrix(83.3019,0,0,83.3019,539.455,1027.56)"></g><text x="516.297px" y="1027.56px" style="font-family:'TransportNew-Medium', 'Transport New';font-weight:500;font-size:83.302px;fill:#fff;">i</text></g></g><g><rect x="304.134" y="956.693" width="46.299" height="94.488" style="fill:#0079c1;"/><g transform="matrix(0.983092,0,0,1,-221.988,9.09495e-13)"><g transform="matrix(83.0089,0,0,83.0089,581.422,1027.47)"></g><text x="536.016px" y="1027.47px" style="font-family:'TransportNew-Medium', 'Transport New';font-weight:500;font-size:83.009px;fill:#fff;">y</text></g></g><g><rect x="251.693" y="956.693" width="52.441" height="94.488" style="fill:#0079c1;"/><g transform="matrix(78.2187,0,0,78.2187,300.401,1025.99)"></g><text x="254.643px" y="1026px" style="font-family:'TransportNew-Medium', 'Transport New';font-weight:500;font-size:78.219px;fill:#fff;">a</text></g><g><rect x="190.276" y="956.693" width="61.417" height="94.488" style="fill:#0079c1;"/><g transform="matrix(84.7971,0,0,84.7971,249.512,1027.56)"></g><text x="194.818px" y="1027.56px" style="font-family:'TransportNew-Medium', 'Transport New';font-weight:500;font-size:84.797px;fill:#fff;">P</text></g></g></g></g></g></svg>