<?xml version="1.0" encoding="UTF-8" standalone="no"?><!DOCTYPE svg PUBLIC "-//W3C//DTD SVG 1.1//EN" "http://www.w3.org/Graphics/SVG/1.1/DTD/svg11.dtd"><svg width="100%" height="100%" viewBox="0 0 454 454" version="1.1" xmlns="http://www.w3.org/2000/svg" xmlns:xlink="http://www.w3.org/1999/xlink" xml:space="preserve" xmlns:serif="http://www.serif.com/" style="fill-rule:evenodd;clip-rule:evenodd;stroke-linejoin:round;stroke-miterlimit:2;"><g transform="matrix(50,0,0,50,321.022,244.423)"></g><text x="133.4px" y="244.423px" style="font-family:'ArialMT', 'Arial', sans-serif;font-size:50px;">sw=38.4</text><circle cx="226.772" cy="226.772" r="226.772" style="fill:#e31837;"/><circle cx="226.772" cy="226.772" r="179.938" style="fill:#ffd200;"/><path id="path1572" d="M163.564,113.412l0,13.471l19.565,0l0,55.565l14.17,-0l0,-55.565l19.565,0l0,-13.471l-53.3,0Z" style="fill:#010001;fill-rule:nonzero;"/><path id="path1620" d="M131.133,155.839l1.566,0.606l1.304,0.876l1.126,1.21l0.783,1.398l0.439,1.472l0.086,1.659l-0.261,1.565l-0.689,1.471l-0.96,1.304l-1.482,1.222l-1.649,0.949l-1.826,0.699l-1.909,0.344l-4.696,-0l-2.692,-0.344l-2.609,-0.522l-2.525,-0.866l-2.525,-1.127l-2.953,-1.919l-2.786,-2.087l-2.515,-2.432l-11.999,9.214l2.525,2.609l2.692,2.431l2.869,2.181l3.037,1.909l3.308,1.566l3.735,1.221l3.913,0.866l3.913,0.605l3.913,0.262l3.997,-0.087l3.913,-0.343l3.913,-0.699l3.829,-1.044l2.609,-1.044l2.431,-1.388l2.264,-1.742l2.004,-2.004l1.732,-2.254l1.398,-2.441l1.033,-2.599l0.699,-2.786l0.261,-2.786l-0.086,-2.775l-0.439,-2.87l-0.783,-2.702l-1.21,-2.515l-1.565,-2.087l-1.826,-1.826l-1.92,-1.659l-2.171,-1.471l-2.264,-1.222l-2.17,-0.866l-2.265,-0.699l-16.163,-3.996l-1.137,-0.439l-1.044,-0.689l-0.867,-0.96l-0.698,-1.044l-0.344,-1.126l-0.178,-1.221l0.099,-1.221l0.428,-1.21l0.615,-1.044l1.387,-1.398l1.566,-1.044l1.826,-0.783l1.909,-0.427l1.92,-0.178l2.859,0.178l2.786,0.427l2.786,0.783l2.609,0.96l2.515,1.304l2.441,1.565l2.171,1.826l10.695,-9.735l-2.869,-2.525l-3.047,-2.171l-3.297,-1.92l-3.392,-1.648l-3.568,-1.21l-3.736,-0.961l-3.746,-0.521l-3.819,-0.177l-3.736,0.177l-3.746,0.521l-3.735,0.961l-2.692,1.043l-2.526,1.294l-2.347,1.659l-2.171,1.91l-1.92,2.087l-1.471,2.087l-1.138,2.264l-0.866,2.348l-0.605,2.431l-0.178,2.525l0.087,2.515l0.438,2.525l0.783,2.348l1.044,2.348l1.304,2.087l1.649,1.993l1.826,1.659l2.609,1.732l2.869,1.221l3.047,0.783l16.251,3.654Z" style="fill:#010001;fill-rule:nonzero;"/><path id="path1608" d="M310.504,113.412l-0,69.036l14.076,-0l0,-24.344l15.652,-0l2.692,-0.178l2.703,-0.521l2.515,-0.866l2.441,-1.222l2.348,-1.482l1.993,-1.732l1.826,-2.003l1.565,-2.254l1.22,-2.264l1.044,-2.348l0.783,-2.431l0.439,-2.526l0.086,-2.525l-0.086,-2.515l-0.439,-2.525l-0.783,-2.431l-1.044,-2.348l-1.22,-2.264l-1.565,-2.264l-1.826,-1.993l-1.993,-1.743l-2.348,-1.482l-2.441,-1.21l-2.515,-0.866l-2.703,-0.533l-2.692,-0.167l-29.728,0.001Zm14.076,12.783l14.003,-0l1.733,0.166l1.659,0.522l1.565,0.782l1.388,1.044l1.126,1.398l0.876,1.472l0.606,1.659l0.261,1.732l-0,1.659l-0.261,1.732l-0.606,1.565l-0.876,1.565l-1.126,1.305l-1.388,1.044l-1.565,0.782l-1.659,0.522l-1.733,0.177l-14.003,0l0,-19.126Z" style="fill:#010001;fill-rule:nonzero;"/><path id="path1596" d="M257.371,111.764l-3.475,0.344l-3.391,0.605l-3.297,1.126l-3.224,1.398l-2.954,1.743l-2.785,2.077l-2.609,2.702l-2.254,2.87l-2.003,3.13l-1.743,3.297l-1.304,3.486l-0.949,3.558l-0.699,3.652l-0.261,3.652l-0,4.956l0.261,3.736l0.699,3.652l0.949,3.569l1.304,3.474l1.743,3.308l2.003,3.047l2.254,2.953l2.609,2.609l2.785,2.087l2.954,1.826l3.224,1.387l3.297,1.044l3.391,0.699l3.475,0.344l4.007,-0l3.391,-0.344l3.475,-0.699l3.308,-1.044l3.13,-1.387l3.037,-1.826l2.786,-2.087l2.608,-2.609l2.254,-2.953l2.004,-3.047l1.648,-3.308l1.398,-3.474l0.949,-3.569l0.617,-3.652l0.261,-3.736l-0,-4.956l-0.261,-3.652l-0.617,-3.652l-0.949,-3.558l-1.398,-3.486l-1.648,-3.297l-2.004,-3.13l-2.254,-2.87l-2.608,-2.702l-2.786,-2.077l-3.037,-1.743l-3.13,-1.398l-3.308,-1.126l-3.475,-0.605l-3.391,-0.344l-4.007,-0Zm2.003,13.471l2.171,0.086l2.181,0.439l2.087,0.605l1.993,0.876l1.826,1.21l1.659,1.399l1.471,1.648l1.221,1.743l0.961,1.909l0.689,2.087l0.866,3.475l0.532,3.569l0.087,3.652l-0.087,3.558l-0.532,3.569l-0.866,3.568l-0.689,1.993l-0.961,2.004l-1.221,1.742l-1.471,1.649l-1.659,1.388l-1.826,1.137l-1.993,0.867l-2.087,0.689l-2.181,0.355l-2.171,0.167l-2.17,-0.167l-2.181,-0.355l-2.087,-0.689l-1.993,-0.867l-1.826,-1.137l-1.648,-1.388l-1.482,-1.649l-1.221,-1.742l-0.949,-2.004l-0.783,-1.993l-0.783,-3.568l-0.521,-3.569l-0.099,-3.558l0.099,-3.652l0.521,-3.569l0.783,-3.475l0.783,-2.087l0.949,-1.909l1.221,-1.743l1.482,-1.648l1.648,-1.399l1.826,-1.21l1.993,-0.876l2.087,-0.605l2.181,-0.439l2.17,-0.086Z" style="fill:#010001;fill-rule:nonzero;"/><path d="M382.061,226.772c-0,-16.325 -13.254,-29.579 -29.579,-29.579l-251.421,-0c-16.325,-0 -29.579,13.254 -29.579,29.579c0,16.325 13.254,29.579 29.579,29.579l251.421,-0c16.325,-0 29.579,-13.254 29.579,-29.579Z"/><path d="M299.395,378.864c-1.19,-0.374 -5.455,0.223 -8.705,-0.216c-1.666,-0.23 -2.885,-0.626 -3.767,-1.611c-0.623,-0.677 -1.023,-1.569 -1.597,-3.202c-1.499,-4.217 -4.797,-23.084 -5.231,-25.07c-0.413,-1.993 -2.213,-3.785 -2.213,-3.785c2.913,-1.036 3.943,-1.957 3.943,-1.957c-2.466,-4.109 -8.817,-15.319 -11.367,-28.264c-1.099,-5.548 -0.644,-8.628 -0.644,-8.628c0,0 3.579,7.275 5.54,9.556c3.662,4.26 12.08,6.922 15.175,8.275c0.708,0.288 3.033,2.41 4.91,2.41c2.472,0 4.117,-2.057 4.51,-3.943c0.868,-4.101 -3.208,-4.324 -5.26,-4.468c-0.896,-0.072 -1.772,-0.324 -2.584,-0.806c-2.276,-1.295 -10.526,-7.282 -11.541,-9.138c-0.679,-1.245 -1.73,-3.814 -2.934,-6.39c-2.276,-4.836 -3.376,-7.045 -6.527,-9.038c-2.227,-1.403 -4.951,-1.95 -7.115,-2.418l0.182,-2.489c2.283,-1.389 5.756,-4.605 5.756,-9.873c0,-3.266 -0.791,-5.504 -2.157,-7.361c-1.954,-2.676 -5.063,-4.209 -8.459,-4.238c-2.984,0 -5.54,0.979 -7.543,2.965c-3.354,3.324 -3.922,8.498 -3.978,11.577c-0.042,1.504 0.056,2.49 0.056,2.49c1.352,1.806 4.679,3.368 5.799,3.828l-0.245,2.555c-0,-0 -2.535,-0.08 -4.538,0.064c-2.185,0.159 -3.467,0.425 -5.378,1.447c-5.568,2.957 -12.83,9.34 -15.211,11.988c-1.681,1.863 -1.912,4.058 -1.982,5.245c-0.287,8.98 2.899,19.22 2.899,19.22c-3.796,0.885 -6.149,1.654 -8.067,2.23c-0,0 -3.166,-10.189 -5.89,-14.83c-2.724,-4.641 -8.152,-5.778 -8.152,-5.778l0.876,-2.475c2.472,-0.943 6.786,-4.231 6.786,-10.52c-0,-7.419 -4.965,-10.693 -9.805,-10.779c-5.742,-0.101 -9.993,4.044 -10.252,9.887c-0.224,5.389 2.626,8.26 3.564,8.958l-0.742,2.13c0,-0 -3.186,-0.151 -4.72,-0.122c-2.619,0.043 -4.181,0.179 -6.499,1.439c-1.569,0.856 -4.23,2.504 -5.77,3.569c-2.62,1.82 -5.68,4.18 -7.13,5.994c-0.966,1.151 -1.799,3.346 -2.087,4.18c-1.659,4.872 -2.85,11.247 -2.906,11.52c-0.063,0.288 -0.882,2.281 -0.959,3.267c-0.224,2.986 1.961,4.886 4.349,5.044c3.893,0.259 4.265,-2.777 4.265,-4.806c-0,-0.223 -0.021,-1.123 -0.021,-1.893c0.014,-0.77 0.273,-1.633 0.525,-2.425c0.721,-2.151 2.451,-6.663 3.067,-7.634c0.77,-1.202 6.415,-4.31 6.415,-4.31c-0.28,3.403 -1.716,11.995 -1.968,13.045c-0.259,1.058 -4.069,10.268 -5.406,13.283c-1.226,2.778 -1.401,3.022 -3.145,4.26c-2.353,1.662 -15.372,9.29 -19.216,11.074c-3.46,1.605 -4.027,1.799 -3.047,9.649c0.575,4.555 1.226,7.513 1.919,8.98c0.54,1.152 1.156,1.483 2.206,1.418c1.184,-0.065 1.814,-0.576 2.136,-1.655c0.245,-0.828 1.443,-5.886 2.668,-10.131c3.922,-2.267 19.672,-8.383 22.676,-10.88c3.012,-2.511 9.091,-13.182 9.091,-13.182c-0,-0 8.809,15.276 9.664,18.607c0.469,1.857 3.662,17.306 4.202,20.659c0.546,3.353 1.764,4.547 4.524,3.943c2.759,-0.619 12.906,-4.454 12.906,-4.454c0.421,0.489 0.974,1.223 1.653,1.712c0.672,0.49 1.527,0.662 2.395,0.195c0.56,-0.31 1.058,-0.871 1.079,-1.612c0.028,-0.612 -0.133,-1.396 -0.385,-2.411c-0.435,-1.734 -0.855,-4.267 -1.058,-6.958c-0.168,-2.345 0.371,-4.425 1.562,-6.461c2.689,-4.67 10.336,-9.837 15.428,-13.506c5.091,-3.685 5.987,-4.872 6.533,-5.836c0.533,-0.964 0.715,-1.993 0.715,-1.993c7.605,1.137 13.726,-0.374 13.726,-0.374c-0,-0 1.863,1.856 2.15,2.13c0.756,0.733 1.246,1.216 1.379,2.23c0.099,0.655 0.225,4.886 0.722,7.253c0.63,2.979 1.919,6.822 3.046,9.275c0.953,2.058 3.341,7.728 4.342,10.52c0.938,2.576 0.938,4.793 1.233,6.181c0.273,1.382 0.763,2.332 1.519,2.936c1.086,0.835 2.465,0.504 4.223,0.065c2.801,-0.705 7.55,-2.295 12.088,-4.238c2.157,-0.943 3.123,-1.943 3.123,-3.224c-0,-0.604 -0.308,-1.561 -1.324,-1.871Zm-56.529,-33.358l-0.154,0.705c0,-0 -5.287,2.676 -8.964,6.181c-3.655,3.504 -5.56,7.656 -9.223,11.29c-0.931,0.928 -1.989,1.813 -2.696,2.273c-1.765,1.123 -2.703,1.555 -3.208,2.835c-0.364,0.95 -0.266,2.231 0.498,4.217c0.721,1.878 2.241,5.087 3.137,6.692l-5.714,-0.331c-0,-0 -2.9,-19.939 -3.537,-23.091c-0.644,-3.144 -6.779,-16.406 -6.779,-16.406c-0,0 -0,-1.137 4.048,-13.434c-0,0 4.048,11.657 6.723,12.154c2.472,0.467 6.492,-0.511 10.925,-2.044c2.472,-0.856 5.728,-2.144 7.731,-3.274c1.59,-0.899 2.08,-1.864 2.164,-2.835c0.042,-0.583 -0.063,-1.346 -0.343,-1.914c-0.35,-0.691 -0.771,-1.454 -1.107,-2.094c-0.343,-0.633 -0.469,-0.979 -0.504,-1.972l-0.483,-15.47c2.584,-1.626 5.56,-3.195 10.4,-6.253c-0,-0 -0.456,21.356 -8.691,40.151c-0,0 1.071,1.403 5.777,2.62Z"/></svg>